<?xml version="1.0" encoding="UTF-8" standalone="no"?>
<svg
   xmlns:dc="http://purl.org/dc/elements/1.1/"
   xmlns:cc="http://creativecommons.org/ns#"
   xmlns:rdf="http://www.w3.org/1999/02/22-rdf-syntax-ns#"
   xmlns:svg="http://www.w3.org/2000/svg"
   xmlns="http://www.w3.org/2000/svg"
   xmlns:xlink="http://www.w3.org/1999/xlink"
   width="444.5mm"
   height="277.8125mm"
   viewBox="0 0 444.5 277.8125"
   version="1.1"
   id="svg3357">
  <defs
     id="defs3351">
    <linearGradient
       id="linearGradient887">
      <stop
         style="stop-color:#db4437;stop-opacity:1;"
         offset="0"
         id="stop883" />
      <stop
         id="stop884"
         offset="0"
         style="stop-color:#df5f54;stop-opacity:1" />
      <stop
         style="stop-color:#e05c4f;stop-opacity:1"
         offset="1"
         id="stop885" />
    </linearGradient>
    <linearGradient
       id="linearGradient6114">
      <stop
         style="stop-color:#6f7c91;stop-opacity:1;"
         offset="0"
         id="stop6110" />
      <stop
         style="stop-color:#162d50;stop-opacity:1"
         offset="1"
         id="stop6112" />
    </linearGradient>
    <radialGradient
       xlink:href="#linearGradient6114"
       id="radialGradient6126"
       cx="73.77433"
       cy="66.986313"
       fx="73.77433"
       fy="66.986313"
       r="31.67275"
       gradientTransform="matrix(3.0071285,0,0,1.83657,-125.12732,-58.151445)"
       gradientUnits="userSpaceOnUse" />
    <radialGradient
       xlink:href="#linearGradient887"
       id="radialGradient889"
       cx="107.17858"
       cy="63.511562"
       fx="107.17858"
       fy="63.511562"
       r="105.70103"
       gradientTransform="matrix(2.1026284,0,0,1.3141427,-3.1067371,55.44299)"
       gradientUnits="userSpaceOnUse" />
  </defs>
  <metadata
     id="metadata3354">
    <rdf:RDF>
      <cc:Work
         rdf:about="">
        <dc:format>image/svg+xml</dc:format>
        <dc:type
           rdf:resource="http://purl.org/dc/dcmitype/StillImage" />
        <dc:title></dc:title>
      </cc:Work>
    </rdf:RDF>
  </metadata>
  <path
     id="rect6108"
     d="M 0,0 H 444.5 V 277.8125 H 0 Z"
     style="opacity:1;fill:url(#radialGradient889);fill-opacity:1;stroke:none;stroke-width:9.70262432;stroke-miterlimit:4;stroke-dasharray:none;paint-order:stroke markers fill" />
  <g
     id="flowRoot874"
     style="font-style:normal;font-weight:normal;font-size:40px;line-height:1.25;font-family:sans-serif;letter-spacing:0px;word-spacing:0px;fill:#000000;fill-opacity:1;stroke:none"
     transform="matrix(2.3334796,0,0,2.3879681,-3.4478315,-16.00985)" />
  <g
     id="flowRoot1087"
     style="font-style:normal;font-weight:normal;font-size:40px;line-height:1.25;font-family:sans-serif;letter-spacing:0px;word-spacing:0px;fill:#000000;fill-opacity:1;stroke:none"
     transform="matrix(2.1026284,0,0,2.3333333,-3.1067372,-9.2874)" />
  <g
     transform="matrix(2.1995073,0,0,2.6256447,-154.84895,-161.87014)"
     id="g4921"
     style="display:inline">
    <g
       id="g4720"
       transform="translate(50.270828)">
      <g
         style="fill:#333333"
         transform="translate(-47.638093,1.3360133)"
         id="g4694">
        <path
           id="path835"
           d="m 144.21101,139.55982 c 0,0 5.43081,5.83681 7.33498,3.79847 2.22288,-2.37952 -12.62665,-36.87139 -12.62665,-36.87139"
           style="fill:#333333;stroke:none;stroke-width:0.26458347px;stroke-linecap:butt;stroke-linejoin:miter;stroke-opacity:1" />
        <path
           style="fill:#333333;stroke:none;stroke-width:0.26458332px;stroke-linecap:butt;stroke-linejoin:miter;stroke-opacity:1"
           d="m 97.450493,140.21473 c 7.815327,4.80271 15.630577,9.60538 23.402247,9.51796 7.77167,-0.0874 15.49967,-5.06478 19.38543,-7.57529 3.88576,-2.5105 3.92946,-2.5542 3.97284,-2.59758"
           id="path817" />
        <path
           style="fill:#333333;stroke:none;stroke-width:0.26458332px;stroke-linecap:butt;stroke-linejoin:miter;stroke-opacity:1"
           d="m 97.450491,140.21473 c 0,0 -5.430812,5.83681 -7.33498,3.79847 -2.222882,-2.37952 12.820499,-36.99713 12.820499,-36.99713"
           id="path825" />
        <path
           style="fill:#333333;stroke:none;stroke-width:0.26458332px;stroke-linecap:butt;stroke-linejoin:miter;stroke-opacity:1"
           d="m 102.93926,105.67937 c 0.0862,-6.905162 0.17248,-13.810016 1.50935,-18.736088 1.33687,-4.926072 3.92412,-7.873272 9.74546,-9.346742 5.82134,-1.473471 14.87673,-1.473471 19.40429,3.368239 4.52756,4.84171 4.52756,14.525398 4.52756,24.209361"
           id="path831"
           transform="matrix(1.0226412,0,0,1.0473654,-2.3339152,-3.6688483)" />
      </g>
      <g
         id="g4708">
        <path
           style="fill:#333333;stroke:none;stroke-width:0.26458332px;stroke-linecap:butt;stroke-linejoin:miter;stroke-opacity:1"
           d="m 49.741667,141.68958 c 0,0 3.615973,-22.40139 5.55625,-33.60208 l 35.983333,-0.26458 6.614583,33.07291 z"
           id="path4696" />
        <path
           id="rect4698"
           d="m 55.5625,138.25 h 37.041668 v 3.96875 H 55.5625 Z"
           style="opacity:1;fill:#333333;fill-opacity:1;stroke:none;stroke-width:0.26458332" />
        <path
           id="rect4700"
           d="m 59.53125,106.5 h 30.427082 v 3.96875 H 59.53125 Z"
           style="opacity:1;fill:#333333;fill-opacity:1;stroke:none;stroke-width:0.26458332" />
        <path
           id="rect4702"
           d="m 84.666664,105.17708 h 5.291669 v 3.96875 h -5.291669 z"
           style="opacity:1;fill:#333333;fill-opacity:1;stroke:none;stroke-width:0.26458332" />
      </g>
    </g>
    <path
       style="opacity:1;fill:#e6e6e6;fill-opacity:1;stroke:none;stroke-width:0.26458332"
       id="path843"
       d="m 138.70455,126.61246 a 15.239734,15.867999 0 0 1 -15.17522,15.86785 15.239734,15.867999 0 0 1 -15.3037,-15.73349 15.239734,15.867999 0 0 1 15.04563,-16.00108 15.239734,15.867999 0 0 1 15.4311,15.59801" />
    <g
       id="g4688"
       transform="translate(44.751274,16.383515)">
      <g
         style="fill:#ff6600;stroke:none"
         transform="translate(-41.01042,-15.875)"
         id="g4596">
        <path
           style="fill:#ff6600;stroke:none;stroke-width:0.26458332px;stroke-linecap:butt;stroke-linejoin:miter;stroke-opacity:1"
           d="m 111.125,110.46875 c 2.9216,-2.67614 5.84316,-5.35225 8.7091,-5.35212 2.86595,1.3e-4 5.6775,2.67624 8.48882,5.35212"
           id="path4585" />
        <path
           style="fill:#ff6600;stroke:none;stroke-width:0.26458332px;stroke-linecap:butt;stroke-linejoin:miter;stroke-opacity:1"
           d="m 111.125,110.46875 c 2.77957,3.92198 5.48174,5.31906 8.73125,6.61458"
           id="path4589" />
        <path
           style="fill:#ff6600;stroke:none;stroke-width:0.26458332px;stroke-linecap:butt;stroke-linejoin:miter;stroke-opacity:1"
           d="m 128.32292,110.46875 c -1.04604,3.82945 -4.9192,5.32533 -8.46667,6.61458"
           id="path4591" />
      </g>
      <g
         id="g4661"
         transform="translate(-41.01042,-15.875)"
         style="fill:#ff6600;stroke:none">
        <path
           id="path4655"
           d="m 111.125,110.46875 c 2.9216,-2.67614 5.84316,-5.35225 8.7091,-5.35212 2.86595,1.3e-4 5.6775,2.67624 8.48882,5.35212"
           style="fill:#ff6600;stroke:none;stroke-width:0.26458332px;stroke-linecap:butt;stroke-linejoin:miter;stroke-opacity:1" />
        <path
           id="path4657"
           d="m 111.125,110.46875 c 2.77957,3.92198 5.48174,5.31906 8.73125,6.61458"
           style="fill:#ff6600;stroke:none;stroke-width:0.26458332px;stroke-linecap:butt;stroke-linejoin:miter;stroke-opacity:1" />
        <path
           id="path4659"
           d="m 128.32292,110.46875 c -1.04604,3.82945 -4.9192,5.32533 -8.46667,6.61458"
           style="fill:#ff6600;stroke:none;stroke-width:0.26458332px;stroke-linecap:butt;stroke-linejoin:miter;stroke-opacity:1" />
      </g>
      <path
         d="m 78.845833,101.20833 -4.582718,-2.645833 v -5.291666 l 4.582718,-2.645833 4.582717,2.645833 v 5.291666 z"
         id="path4671"
         style="opacity:1;fill:#ff6600;fill-opacity:1;stroke:none;stroke-width:0.26458332" />
      <path
         transform="matrix(0.94729327,-1.274616,1.0295753,1.1727506,-98.356248,87.506876)"
         d="m 83.608335,99.620834 2.319854,-2.397701 0.916543,3.207907 z"
         id="path4673"
         style="opacity:1;fill:#ff6600;fill-opacity:1;stroke:none;stroke-width:0.26458332" />
      <path
         transform="matrix(1.141627,0.11210349,-0.08749549,1.2944633,-2.2020547,-37.413635)"
         d="m 74.536294,98.196559 -3.844516,-2.340158 3.948894,-2.159369 z"
         id="path4675"
         style="opacity:1;fill:#ff6600;fill-opacity:1;stroke:none;stroke-width:0.26458332" />
    </g>
    <path
       style="opacity:1;fill:#333333;fill-opacity:1;stroke:none;stroke-width:0.40745068"
       d="m 457.97263,570.35612 c -18.79507,-2.12161 -40.18257,-11.27811 -71.63974,-30.67068 -8.13959,-5.01787 -8.02372,-4.97631 -9.49602,-3.40625 -1.98328,2.11498 -9.29175,8.28788 -11.94887,10.09229 -7.55689,5.13179 -13.40276,5.68891 -14.83103,1.41342 -1.63872,-4.90546 5.4376,-28.95935 18.84332,-64.05245 9.54282,-24.98091 28.41577,-70.80369 29.41653,-71.42219 0.22811,-0.14098 0.37499,-0.42288 0.3264,-0.62644 -0.0486,-0.20356 0.0318,-0.82849 0.17857,-1.38874 0.14681,-0.56024 0.45269,-8.53609 0.67974,-17.7241 0.63732,-25.79 1.66538,-38.59108 4.07232,-50.7069 4.32594,-21.77558 13.30666,-33.82393 30.11939,-40.40761 16.87389,-6.60764 39.99439,-8.13907 57.78976,-3.82784 20.7168,5.019 32.64507,17.2536 38.14208,39.1216 3.4588,13.75967 4.66657,26.50558 4.98055,52.56114 0.20469,16.98608 0.39447,21.14579 0.94912,20.80299 0.62648,-0.38718 21.06718,49.83231 30.13912,74.04694 11.92704,31.8354 17.56985,50.7662 17.56985,58.9443 0,2.59002 -0.1133,3.01447 -1.03188,3.86578 -3.15357,2.92263 -9.30891,0.77622 -18.04824,-6.29354 -2.16747,-1.75339 -5.03522,-4.30389 -6.3728,-5.66777 -1.33757,-1.36388 -2.56841,-2.47978 -2.7352,-2.47978 -0.16679,0 -5.21474,3.17625 -11.21765,7.05833 -6.00292,3.88209 -13.48133,8.58639 -16.6187,10.45401 -26.52636,15.79064 -49.54126,22.54011 -69.26662,20.31349 z m 19.96508,-32.86866 c 5.28911,-1.14072 8.32959,-2.22946 13.85333,-4.9606 18.43404,-9.11449 30.90578,-28.24854 32.34892,-49.62947 0.94243,-13.9626 -2.58151,-27.3736 -10.20264,-38.82794 -3.0137,-4.52952 -10.61003,-12.34927 -14.86401,-15.30119 l -2.90399,-2.01514 0.75119,-1.40422 c 0.41315,-0.77232 1.12926,-2.38761 1.59134,-3.58952 1.00562,-2.61573 1.41642,-1.9763 -5.09101,-7.92451 -5.72644,-5.23434 -11.15932,-9.40512 -14.87195,-11.41709 -10.91899,-5.91728 -20.15604,-3.88649 -33.81841,7.43508 -3.40229,2.81937 -10.37133,9.1079 -10.53264,9.50415 -0.0784,0.19273 0.9084,1.72266 2.19301,3.39982 1.28461,1.67718 2.26556,3.10249 2.1799,3.16736 -0.0857,0.0649 -1.43922,0.95947 -3.00791,1.98798 -15.62369,10.24371 -25.66261,28.29897 -26.56551,47.77875 -1.32187,28.5191 16.86115,54.02186 43.57738,61.11985 2.07246,0.55061 5.05159,1.17715 6.62027,1.39232 4.35042,0.59669 14.44506,0.21127 18.74273,-0.71563 z m 70.79456,-4.85226 c -1.62471,-0.0773 -4.28333,-0.0773 -5.90804,0 -1.62471,0.0773 -0.2954,0.14062 2.95402,0.14062 3.24942,0 4.57873,-0.0633 2.95402,-0.14062 z m -16.9092,-125.06569 c -0.39218,-0.10248 -1.03391,-0.10248 -1.42608,0 -0.39217,0.10248 -0.0713,0.18634 0.71304,0.18634 0.78434,0 1.10521,-0.0839 0.71304,-0.18634 z"
       id="path4722"
       transform="scale(0.26458333)" />
    <path
       id="rect4846"
       d="m 139.81281,107.16256 h 1.38157 v 1.25205 h -1.38157 z"
       style="opacity:1;fill:#333333;fill-opacity:1;stroke:none;stroke-width:0.26458332" />
    <g
       id="g4877">
      <path
         style="opacity:1;fill:#e6e6e6;fill-opacity:1;stroke:none;stroke-width:0.26458332"
         id="path4860"
         d="m 133.36974,95.882912 a 3.0704114,3.0704114 0 0 1 -3.05741,3.070384 3.0704114,3.0704114 0 0 1 -3.0833,-3.044394 3.0704114,3.0704114 0 0 1 3.03132,-3.096154 3.0704114,3.0704114 0 0 1 3.10895,3.018185" />
      <g
         transform="matrix(0.80841168,0,0,1,68.549895,-7.3051882)"
         id="g4864">
        <path
           d="m 77.375031,103.39364 a 1.6372987,1.2321938 0 0 1 -1.630369,1.23218 1.6372987,1.2321938 0 0 1 -1.64417,-1.22175 1.6372987,1.2321938 0 0 1 1.616451,-1.24253 1.6372987,1.2321938 0 0 1 1.657853,1.21124"
           id="path4862"
           style="opacity:1;fill:#000000;fill-opacity:1;stroke:none;stroke-width:0.26458332" />
      </g>
    </g>
    <g
       id="g4885"
       transform="matrix(-1,0,0,1,248.68829,0.27470384)">
      <path
         d="m 133.36974,95.882912 a 3.0704114,3.0704114 0 0 1 -3.05741,3.070384 3.0704114,3.0704114 0 0 1 -3.0833,-3.044394 3.0704114,3.0704114 0 0 1 3.03132,-3.096154 3.0704114,3.0704114 0 0 1 3.10895,3.018185"
         id="path4879"
         style="opacity:1;fill:#e6e6e6;fill-opacity:1;stroke:none;stroke-width:0.26458332" />
      <g
         id="g4883"
         transform="matrix(0.80841168,0,0,1,68.549895,-7.3051882)">
        <path
           style="opacity:1;fill:#000000;fill-opacity:1;stroke:none;stroke-width:0.26458332"
           id="path4881"
           d="m 77.375031,103.39364 a 1.6372987,1.2321938 0 0 1 -1.630369,1.23218 1.6372987,1.2321938 0 0 1 -1.64417,-1.22175 1.6372987,1.2321938 0 0 1 1.616451,-1.24253 1.6372987,1.2321938 0 0 1 1.657853,1.21124" />
      </g>
    </g>
  </g>
  <g
     id="flowRoot886"
     style="font-style:normal;font-weight:normal;font-size:10.58333302px;line-height:1.25;font-family:sans-serif;letter-spacing:0px;word-spacing:0px;fill:#ffffff;fill-opacity:1;stroke:none;stroke-width:0.26458332"
     transform="matrix(2.7755077,0,0,4.0230105,-122.48307,-78.452552)"
     aria-label="Change default  terminal emulator in Ubuntu">
    <path
       id="path930"
       style="font-style:normal;font-variant:normal;font-weight:bold;font-stretch:normal;font-family:'EB Garamond';-inkscape-font-specification:'EB Garamond Bold';text-align:center;text-anchor:middle;fill:#ffffff;stroke-width:0.26458332"
       d="m 120.86202,43.608389 q -1.09009,0 -2.00025,-0.433917 -0.91017,-0.4445 -1.44992,-1.23825 -0.52917,-0.79375 -0.52917,-1.820333 0,-0.973667 0.52917,-1.820333 0.52917,-0.846667 1.50283,-1.354667 0.97367,-0.508 2.24367,-0.508 0.92075,0 1.93675,0.359834 0.21167,0.09525 0.24342,0.306916 0.0847,0.635 0.0847,1.27 0,0.08467 -0.0529,0.137583 -0.0529,0.04233 -0.127,0.04233 -0.16934,0 -0.23284,-0.179917 -0.0847,-0.306917 -0.1905,-0.518583 -0.10583,-0.22225 -0.28575,-0.391584 -0.508,-0.486833 -1.49225,-0.486833 -0.70908,0 -1.24883,0.391583 -0.53975,0.391584 -0.83608,1.04775 -0.29634,0.645584 -0.29634,1.397 0,1.4605 0.62442,2.360084 0.62442,0.889 1.778,0.889 0.77258,0 1.25942,-0.3175 0.48683,-0.328084 0.8255,-1.037167 0.0423,-0.08467 0.10583,-0.127 0.0635,-0.05292 0.127,-0.05292 0.0635,0 0.10583,0.05292 0.0529,0.04233 0.0529,0.127 0,0.47625 -0.23283,1.2065 -0.0423,0.127 -0.10584,0.201083 -0.0635,0.0635 -0.17991,0.116417 -0.87842,0.381 -2.159,0.381 z" />
    <path
       id="path932"
       style="font-style:normal;font-variant:normal;font-weight:bold;font-stretch:normal;font-family:'EB Garamond';-inkscape-font-specification:'EB Garamond Bold';text-align:center;text-anchor:middle;fill:#ffffff;stroke-width:0.26458332"
       d="m 124.47077,43.491972 q -0.21167,0 -0.21167,-0.148166 0,-0.07408 0.0529,-0.116417 0.0635,-0.05292 0.1905,-0.09525 0.22225,-0.07408 0.30691,-0.137583 0.0847,-0.07408 0.0952,-0.275167 v -5.08 q 0,-0.328083 -0.0847,-0.518583 -0.0847,-0.1905 -0.32809,-0.243417 -0.11641,-0.02117 -0.11641,-0.15875 0,-0.137583 0.10583,-0.15875 0.33867,-0.07408 0.8255,-0.243416 0.49742,-0.179917 0.59267,-0.211667 l 0.20108,-0.07408 q 0.0741,-0.03175 0.13758,-0.03175 0.10584,0 0.10584,0.127 0,0.07408 -0.0318,0.28575 -0.0212,0.211666 -0.0318,0.4445 v 2.444749 q 0,0.254 0.0635,0.306917 0.37041,-0.3175 0.71966,-0.518583 0.35984,-0.201084 0.8255,-0.201084 0.58209,0 0.9525,0.41275 0.37042,0.402167 0.37042,1.090084 v 2.307166 q 0,0.201084 0.0847,0.28575 0.0952,0.07408 0.29633,0.148167 0.11642,0.03175 0.16933,0.08467 0.0635,0.04233 0.0635,0.127 0,0.148166 -0.23283,0.148166 -0.34925,0 -0.58208,-0.03175 -0.29634,-0.02117 -0.49742,-0.02117 -0.21167,0 -0.48683,0.02117 -0.1905,0.03175 -0.52917,0.03175 -0.26458,0 -0.26458,-0.15875 0,-0.137583 0.22225,-0.201083 0.17991,-0.0635 0.27516,-0.148167 0.0953,-0.09525 0.0953,-0.306916 v -2.084917 q 0,-0.338667 -0.21166,-0.582083 -0.20109,-0.243417 -0.46567,-0.243417 -0.40217,0 -0.71967,0.232833 -0.0847,0.0635 -0.11641,0.148167 -0.0212,0.07408 -0.0212,0.232833 v 2.31775 q 0,0.1905 0.0847,0.275167 0.0952,0.08467 0.26458,0.148167 0.22225,0.08467 0.22225,0.211666 0,0.15875 -0.1905,0.15875 -0.30692,0 -0.59267,-0.03175 -0.33866,-0.02117 -0.508,-0.02117 -0.16933,0 -0.508,0.02117 -0.28575,0.03175 -0.59266,0.03175 z" />
    <path
       id="path934"
       style="font-style:normal;font-variant:normal;font-weight:bold;font-stretch:normal;font-family:'EB Garamond';-inkscape-font-specification:'EB Garamond Bold';text-align:center;text-anchor:middle;fill:#ffffff;stroke-width:0.26458332"
       d="m 131.35622,43.608389 q -0.42334,0 -0.74084,-0.28575 -0.3175,-0.296333 -0.3175,-0.6985 0,-0.359833 0.21167,-0.592667 0.22225,-0.243416 0.68792,-0.4445 l 0.94191,-0.41275 q 0.21167,-0.09525 0.254,-0.169333 0.0529,-0.07408 0.0529,-0.275167 l 0.0106,-0.60325 q 0.0106,-0.306916 -0.10583,-0.47625 -0.11642,-0.169333 -0.34925,-0.169333 -0.127,0 -0.27517,0.0635 -0.13758,0.05292 -0.21166,0.127 -0.0635,0.07408 -0.0635,0.22225 0,0.07408 0.0106,0.15875 0.0106,0.07408 0.0106,0.148167 0,0.105833 -0.35983,0.264583 -0.34925,0.15875 -0.58208,0.15875 -0.0847,0 -0.13759,-0.0635 -0.0529,-0.0635 -0.0529,-0.15875 0,-0.169333 0.11641,-0.328083 0.11642,-0.15875 0.381,-0.381 0.41275,-0.338667 0.93134,-0.5715 0.51858,-0.232834 0.86783,-0.232834 0.56092,0 0.89958,0.370417 0.33867,0.359833 0.32809,0.963083 l -0.0529,2.137834 q -0.0106,0.243416 0.0847,0.41275 0.0952,0.169333 0.23283,0.169333 0.20108,0 0.34925,-0.137583 0.0318,-0.03175 0.0635,-0.03175 0.0529,0 0.0847,0.04233 0.0423,0.03175 0.0423,0.07408 0,0.137584 -0.1905,0.328084 -0.39158,0.391583 -0.889,0.391583 -0.30692,0 -0.53975,-0.148167 -0.23283,-0.137583 -0.4445,-0.455083 h -0.0212 q -0.34925,0.328083 -0.635,0.465667 -0.27516,0.137583 -0.59266,0.137583 z m 0.635,-0.687917 q 0.20108,0 0.33866,-0.15875 0.0741,-0.116416 0.0741,-0.275166 l 0.0318,-0.762 q 0,-0.169334 -0.10584,-0.169334 -0.0529,0 -0.127,0.04233 -0.33866,0.15875 -0.47625,0.3175 -0.127,0.15875 -0.127,0.47625 0,0.275166 0.11642,0.402166 0.11642,0.127 0.27517,0.127 z" />
    <path
       id="path936"
       style="font-style:normal;font-variant:normal;font-weight:bold;font-stretch:normal;font-family:'EB Garamond';-inkscape-font-specification:'EB Garamond Bold';text-align:center;text-anchor:middle;fill:#ffffff;stroke-width:0.26458332"
       d="m 135.05509,43.491972 q -0.0741,0 -0.14816,-0.04233 -0.0635,-0.04233 -0.0635,-0.105833 0,-0.127 0.24341,-0.211667 0.21167,-0.0635 0.30692,-0.137583 0.0953,-0.07408 0.0953,-0.264584 v -2.423583 q 0,-0.529167 -0.32808,-0.592667 -0.11642,-0.02117 -0.11642,-0.1905 0,-0.148166 0.10583,-0.179916 0.37042,-0.08467 0.80434,-0.232834 0.43391,-0.148166 0.71966,-0.296333 0.13759,-0.08467 0.1905,-0.08467 0.0953,0 0.0953,0.127 l -0.0212,0.211667 q -0.0317,0.381 -0.0317,0.391583 0,0.137584 0.0212,0.15875 0.39159,-0.370416 0.75142,-0.550333 0.37042,-0.179917 0.83608,-0.179917 0.5715,0 0.93134,0.41275 0.37041,0.41275 0.37041,1.100667 v 2.328333 q 0,0.1905 0.0952,0.264584 0.0953,0.07408 0.30692,0.137583 0.21167,0.07408 0.21167,0.211667 0,0.0635 -0.0529,0.105833 -0.0529,0.04233 -0.127,0.04233 -0.3175,0 -0.60325,-0.03175 -0.33867,-0.02117 -0.51858,-0.02117 -0.17992,0 -0.51859,0.02117 -0.26458,0.03175 -0.59266,0.03175 -0.0741,0 -0.127,-0.04233 -0.0529,-0.04233 -0.0529,-0.105833 0,-0.137584 0.21167,-0.211667 0.20108,-0.0635 0.28575,-0.137583 0.0847,-0.07408 0.0847,-0.264584 v -2.106083 q 0,-0.402167 -0.17991,-0.624417 -0.17992,-0.232833 -0.49742,-0.243416 -0.22225,0 -0.40217,0.07408 -0.17991,0.0635 -0.381,0.201083 -0.0847,0.07408 -0.0847,0.201084 v 2.497666 q 0,0.1905 0.0847,0.264584 0.0847,0.0635 0.29634,0.137583 0.21166,0.07408 0.21166,0.211667 0,0.0635 -0.0529,0.105833 -0.0529,0.04233 -0.127,0.04233 -0.3175,0 -0.5715,-0.03175 -0.33867,-0.02117 -0.508,-0.02117 -0.17992,0 -0.53975,0.02117 -0.28575,0.03175 -0.61384,0.03175 z" />
    <path
       id="path938"
       style="font-style:normal;font-variant:normal;font-weight:bold;font-stretch:normal;font-family:'EB Garamond';-inkscape-font-specification:'EB Garamond Bold';text-align:center;text-anchor:middle;fill:#ffffff;stroke-width:0.26458332"
       d="m 145.80147,39.131639 q 0.0741,0 0.11642,0.0635 0.0529,0.0635 0.0529,0.169333 0,0.07408 -0.0423,0.1905 -0.0423,0.105834 -0.0952,0.1905 -0.0635,0.07408 -0.13758,0.07408 h -0.28575 q -0.26458,0 -0.37042,0.08467 -0.0423,0.05292 -0.0529,0.148167 0,0.08467 0,0.34925 0,0.550333 -0.28575,1.016 -0.27517,0.465667 -0.75142,0.751417 -0.47625,0.275166 -1.02658,0.275166 -0.32809,0 -0.70909,-0.137583 -0.0952,0.0635 -0.15875,0.148167 -0.0529,0.07408 -0.0529,0.137583 0,0.169333 0.3175,0.254 0.3175,0.08467 1.18533,0.148167 1.143,0.08467 1.66158,0.34925 0.51859,0.264583 0.51859,0.762 0,0.5715 -0.41275,1.132416 -0.41275,0.560917 -1.06892,0.92075 -0.64558,0.359834 -1.30175,0.359834 -1.02658,0 -1.60867,-0.328084 -0.58208,-0.3175 -0.58208,-0.878416 0,-0.338667 0.0741,-0.529167 0.0847,-0.179917 0.33867,-0.370417 0.16933,-0.116416 0.35983,-0.264583 0.1905,-0.137583 0.26459,-0.201083 -0.75142,-0.296334 -0.75142,-0.963084 0,-0.232833 0.28575,-0.41275 0.45508,-0.338666 0.56092,-0.4445 -0.39159,-0.243416 -0.635,-0.613833 -0.23284,-0.381 -0.23284,-0.8255 0,-0.518583 0.29634,-0.931333 0.29633,-0.41275 0.78316,-0.645584 0.49742,-0.232833 1.05834,-0.232833 0.3175,0 0.80433,0.116417 0.29633,0.0635 0.45508,0.08467 0.4445,0.08467 0.84667,0.08467 0.13758,0 0.34925,-0.02117 z m -2.76225,2.846917 q 0.32809,0 0.52917,-0.370417 0.20108,-0.370417 0.20108,-0.994833 0,-0.582084 -0.22225,-0.941917 -0.21166,-0.359833 -0.55033,-0.359833 -0.30692,0 -0.52917,0.370416 -0.21166,0.359834 -0.21166,0.899584 0,0.582083 0.22225,0.994833 0.23283,0.402167 0.56091,0.402167 z m 1.36525,2.815166 q 0,-0.169333 -0.127,-0.275166 -0.11641,-0.105834 -0.41275,-0.179917 -0.28575,-0.0635 -0.83608,-0.127 -0.3175,-0.02117 -0.75142,-0.105833 -0.30691,0.1905 -0.46566,0.402166 -0.14817,0.211667 -0.14817,0.47625 0,0.433917 0.35983,0.719667 0.35984,0.28575 0.92075,0.28575 0.74084,0 1.03717,-0.28575 0.20108,-0.1905 0.30692,-0.433917 0.11641,-0.232833 0.11641,-0.47625 z" />
    <path
       id="path940"
       style="font-style:normal;font-variant:normal;font-weight:bold;font-stretch:normal;font-family:'EB Garamond';-inkscape-font-specification:'EB Garamond Bold';text-align:center;text-anchor:middle;fill:#ffffff;stroke-width:0.26458332"
       d="m 148.05771,43.608389 q -0.56092,0 -1.016,-0.296333 -0.45508,-0.306917 -0.71967,-0.836084 -0.254,-0.529166 -0.254,-1.185333 0,-0.656167 0.30692,-1.2065 0.30692,-0.550333 0.83608,-0.867833 0.53975,-0.328084 1.16417,-0.328084 0.4445,0 0.81492,0.1905 0.37041,0.1905 0.58208,0.529167 0.21167,0.338667 0.21167,0.740833 0,0.211667 -0.0847,0.306917 -0.0741,0.09525 -0.24342,0.09525 h -2.11666 q -0.14817,0 -0.22225,0.08467 -0.0635,0.08467 -0.0635,0.28575 0,0.613833 0.39158,1.037166 0.39158,0.41275 0.98425,0.41275 0.29633,0 0.55033,-0.105833 0.254,-0.116417 0.52917,-0.328083 0.10583,-0.08467 0.14817,-0.08467 0.10583,0 0.10583,0.137583 0,0.137584 -0.0847,0.3175 -0.16933,0.4445 -0.66675,0.772584 -0.48683,0.328083 -1.15358,0.328083 z m 0.11642,-3.302 q 0.24341,0 0.381,-0.01058 0.13758,-0.01058 0.24341,-0.04233 0.0529,-0.02117 0.0847,-0.105833 0.0318,-0.08467 0.0318,-0.1905 0,-0.275167 -0.20108,-0.455083 -0.1905,-0.1905 -0.47625,-0.1905 -0.32809,0 -0.59267,0.275166 -0.26458,0.264584 -0.254,0.5715 0,0.148167 0.14817,0.148167 z" />
    <path
       id="path942"
       style="font-style:normal;font-variant:normal;font-weight:bold;font-stretch:normal;font-family:'EB Garamond';-inkscape-font-specification:'EB Garamond Bold';text-align:center;text-anchor:middle;fill:#ffffff;stroke-width:0.26458332"
       d="m 158.40077,42.835806 q 0.0635,0 0.0847,0.02117 0.0212,0.02117 0.0212,0.08467 0,0.08467 -0.0635,0.179917 -0.0635,0.09525 -0.11642,0.09525 -0.79375,0.08467 -1.60866,0.381 -0.127,0.0635 -0.17992,0.0635 -0.0317,0 -0.0952,-0.07408 -0.0529,-0.0635 -0.0529,-0.105833 0.0529,-0.370417 0.0529,-0.560917 v -0.0635 q -0.22225,0.338667 -0.60325,0.550334 -0.37042,0.201083 -0.79375,0.201083 -0.5715,0 -1.04775,-0.296333 -0.46567,-0.296334 -0.73025,-0.804334 -0.26458,-0.508 -0.26458,-1.11125 0,-0.709083 0.3175,-1.27 0.3175,-0.5715 0.889,-0.889 0.58208,-0.328083 1.32291,-0.328083 0.29634,0 0.65617,0.09525 l 0.13758,0.03175 q 0.0423,0 0.0423,-0.137583 V 37.6394 q 0,-0.381 -0.0953,-0.53975 -0.0847,-0.169333 -0.3175,-0.22225 -0.127,-0.03175 -0.127,-0.15875 0,-0.137583 0.11641,-0.15875 0.381,-0.08467 0.79375,-0.211666 0.42334,-0.137584 0.6985,-0.254 0.21167,-0.09525 0.254,-0.09525 0.11642,0 0.11642,0.127 -0.0106,0.04233 -0.0317,0.254 -0.0106,0.201083 -0.0212,0.47625 l -0.0529,5.333999 q 0,0.370417 0.0529,0.529167 0.0529,0.148167 0.1905,0.148167 l 0.41275,-0.03175 z m -0.59267,-6.709833 z m -2.2225,6.762749 q 0.17992,0 0.41275,-0.08467 0.23283,-0.09525 0.37042,-0.243417 l -0.0106,-2.338917 q 0,-0.179916 -0.14816,-0.370416 -0.13759,-0.1905 -0.35984,-0.3175 -0.21166,-0.127 -0.42333,-0.127 -0.254,0 -0.47625,0.211666 -0.21167,0.201084 -0.34925,0.592667 -0.127,0.391583 -0.127,0.899583 0,0.550334 0.14817,0.9525 0.15875,0.402167 0.41275,0.613834 0.254,0.211666 0.55033,0.211666 z" />
    <path
       id="path944"
       style="font-style:normal;font-variant:normal;font-weight:bold;font-stretch:normal;font-family:'EB Garamond';-inkscape-font-specification:'EB Garamond Bold';text-align:center;text-anchor:middle;fill:#ffffff;stroke-width:0.26458332"
       d="m 160.66676,43.608389 q -0.56092,0 -1.016,-0.296333 -0.45508,-0.306917 -0.71967,-0.836084 -0.254,-0.529166 -0.254,-1.185333 0,-0.656167 0.30692,-1.2065 0.30692,-0.550333 0.83608,-0.867833 0.53975,-0.328084 1.16417,-0.328084 0.4445,0 0.81492,0.1905 0.37041,0.1905 0.58208,0.529167 0.21167,0.338667 0.21167,0.740833 0,0.211667 -0.0847,0.306917 -0.0741,0.09525 -0.24342,0.09525 h -2.11666 q -0.14817,0 -0.22225,0.08467 -0.0635,0.08467 -0.0635,0.28575 0,0.613833 0.39158,1.037166 0.39158,0.41275 0.98425,0.41275 0.29633,0 0.55033,-0.105833 0.254,-0.116417 0.52917,-0.328083 0.10583,-0.08467 0.14817,-0.08467 0.10583,0 0.10583,0.137583 0,0.137584 -0.0847,0.3175 -0.16933,0.4445 -0.66675,0.772584 -0.48683,0.328083 -1.15358,0.328083 z m 0.11642,-3.302 q 0.24341,0 0.381,-0.01058 0.13758,-0.01058 0.24341,-0.04233 0.0529,-0.02117 0.0847,-0.105833 0.0318,-0.08467 0.0318,-0.1905 0,-0.275167 -0.20108,-0.455083 -0.1905,-0.1905 -0.47625,-0.1905 -0.32809,0 -0.59267,0.275166 -0.26458,0.264584 -0.254,0.5715 0,0.148167 0.14817,0.148167 z" />
    <path
       id="path946"
       style="font-style:normal;font-variant:normal;font-weight:bold;font-stretch:normal;font-family:'EB Garamond';-inkscape-font-specification:'EB Garamond Bold';text-align:center;text-anchor:middle;fill:#ffffff;stroke-width:0.26458332"
       d="m 163.29109,43.491972 q -0.0741,0 -0.14816,-0.04233 -0.0635,-0.04233 -0.0635,-0.105833 0,-0.08467 0.0423,-0.127 0.0529,-0.05292 0.15875,-0.08467 0.28575,-0.08467 0.35983,-0.15875 0.0847,-0.07408 0.0847,-0.254 v -3.01625 q -0.32808,0 -0.55033,-0.02117 -0.0529,-0.01058 -0.10584,-0.116416 -0.0423,-0.105834 -0.0423,-0.1905 0,-0.0635 0.0952,-0.105834 0.11642,-0.04233 0.60325,-0.254 0.0529,-1.058333 0.47625,-1.735666 0.43392,-0.687917 1.03717,-0.98425 0.60325,-0.306917 1.2065,-0.306917 0.71966,0 1.03716,0.201084 0.32809,0.201083 0.32809,0.624416 0,0.243417 -0.11642,0.391584 -0.10583,0.137583 -0.29633,0.137583 -0.14817,0 -0.39159,-0.296333 -0.24341,-0.264584 -0.47625,-0.41275 -0.22225,-0.15875 -0.52916,-0.15875 -0.889,0 -0.889,1.534583 v 0.867833 q 0,0.148167 0.16933,0.148167 h 1.19592 q 0.0847,0 0.127,0.05292 0.0423,0.04233 0.0423,0.116417 0,0.232833 -0.0847,0.381 -0.0529,0.08467 -0.0847,0.08467 h -0.97367 q -0.23283,0 -0.3175,0.05292 -0.0741,0.05292 -0.0741,0.179917 v 2.645833 q 0,0.28575 0.127,0.402167 0.127,0.105833 0.56091,0.1905 0.11642,0.02117 0.15875,0.0635 0.0529,0.04233 0.0529,0.127 0,0.0635 -0.0529,0.116417 -0.0529,0.05292 -0.127,0.05292 -0.35983,0 -0.74083,-0.03175 -0.46567,-0.02117 -0.64558,-0.02117 -0.17992,0 -0.53975,0.02117 -0.28575,0.03175 -0.61384,0.03175 z" />
    <path
       id="path948"
       style="font-style:normal;font-variant:normal;font-weight:bold;font-stretch:normal;font-family:'EB Garamond';-inkscape-font-specification:'EB Garamond Bold';text-align:center;text-anchor:middle;fill:#ffffff;stroke-width:0.26458332"
       d="m 167.83978,43.608389 q -0.42334,0 -0.74084,-0.28575 -0.3175,-0.296333 -0.3175,-0.6985 0,-0.359833 0.21167,-0.592667 0.22225,-0.243416 0.68792,-0.4445 l 0.94191,-0.41275 q 0.21167,-0.09525 0.254,-0.169333 0.0529,-0.07408 0.0529,-0.275167 l 0.0106,-0.60325 q 0.0106,-0.306916 -0.10583,-0.47625 -0.11642,-0.169333 -0.34925,-0.169333 -0.127,0 -0.27517,0.0635 -0.13758,0.05292 -0.21166,0.127 -0.0635,0.07408 -0.0635,0.22225 0,0.07408 0.0106,0.15875 0.0106,0.07408 0.0106,0.148167 0,0.105833 -0.35983,0.264583 -0.34925,0.15875 -0.58208,0.15875 -0.0847,0 -0.13759,-0.0635 -0.0529,-0.0635 -0.0529,-0.15875 0,-0.169333 0.11641,-0.328083 0.11642,-0.15875 0.381,-0.381 0.41275,-0.338667 0.93134,-0.5715 0.51858,-0.232834 0.86783,-0.232834 0.56092,0 0.89958,0.370417 0.33867,0.359833 0.32809,0.963083 l -0.0529,2.137834 q -0.0106,0.243416 0.0847,0.41275 0.0952,0.169333 0.23283,0.169333 0.20108,0 0.34925,-0.137583 0.0317,-0.03175 0.0635,-0.03175 0.0529,0 0.0847,0.04233 0.0423,0.03175 0.0423,0.07408 0,0.137584 -0.1905,0.328084 -0.39158,0.391583 -0.889,0.391583 -0.30692,0 -0.53975,-0.148167 -0.23283,-0.137583 -0.4445,-0.455083 h -0.0212 q -0.34925,0.328083 -0.635,0.465667 -0.27516,0.137583 -0.59266,0.137583 z m 0.635,-0.687917 q 0.20108,0 0.33866,-0.15875 0.0741,-0.116416 0.0741,-0.275166 l 0.0317,-0.762 q 0,-0.169334 -0.10584,-0.169334 -0.0529,0 -0.127,0.04233 -0.33866,0.15875 -0.47625,0.3175 -0.127,0.15875 -0.127,0.47625 0,0.275166 0.11642,0.402166 0.11642,0.127 0.27517,0.127 z" />
    <path
       id="path950"
       style="font-style:normal;font-variant:normal;font-weight:bold;font-stretch:normal;font-family:'EB Garamond';-inkscape-font-specification:'EB Garamond Bold';text-align:center;text-anchor:middle;fill:#ffffff;stroke-width:0.26458332"
       d="m 174.76657,43.682472 q -0.0847,0 -0.0847,-0.105833 0,-0.148167 0.0317,-0.338667 l 0.0212,-0.328083 q 0,-0.09525 -0.0212,-0.116417 -0.29633,0.359834 -0.75142,0.592667 -0.4445,0.232833 -0.92075,0.232833 -0.49741,0 -0.83608,-0.423333 -0.32808,-0.433917 -0.32808,-1.068917 v -1.979083 q 0,-0.264583 -0.0952,-0.402167 -0.0952,-0.148166 -0.32809,-0.1905 -0.0635,-0.01058 -0.11641,-0.05292 -0.0423,-0.05292 -0.0423,-0.148167 0,-0.169333 0.15875,-0.179917 0.68792,-0.03175 1.53459,-0.254 0.0423,-0.01058 0.10583,-0.02117 0.0741,-0.02117 0.11642,-0.02117 0.14816,0 0.13758,0.148167 -0.0847,0.433916 -0.0847,0.814916 v 2.032 q 0,0.381 0.17992,0.613834 0.17992,0.232833 0.46567,0.243416 0.41275,0 0.64558,-0.232833 0.0847,-0.07408 0.14817,-0.232833 0.0635,-0.169334 0.0635,-0.423334 v -1.703916 q 0,-0.264584 -0.15875,-0.41275 -0.15875,-0.15875 -0.41275,-0.179917 -0.127,-0.01058 -0.1905,-0.0635 -0.0635,-0.05292 -0.0635,-0.169333 0,-0.105834 0.0741,-0.15875 0.0741,-0.05292 0.17992,-0.05292 0.80433,-0.05292 1.143,-0.08467 0.33866,-0.03175 0.635,-0.105833 0.127,-0.03175 0.13758,-0.03175 0.15875,0 0.15875,0.127 0,0.03175 -0.0423,0.15875 -0.0212,0.127 -0.0529,0.370417 -0.0212,0.243416 -0.0212,0.370416 v 2.455334 q 0,0.402166 0.1905,0.402166 l 0.29634,0.01058 q 0.0953,0 0.14816,0.05292 0.0529,0.05292 0.0529,0.137584 0,0.105833 -0.0423,0.15875 -0.0318,0.05292 -0.13759,0.0635 -0.78316,0.07408 -1.61925,0.423333 -0.0317,0.01058 -0.127,0.04233 -0.0847,0.03175 -0.14816,0.03175 z" />
    <path
       id="path952"
       style="font-style:normal;font-variant:normal;font-weight:bold;font-stretch:normal;font-family:'EB Garamond';-inkscape-font-specification:'EB Garamond Bold';text-align:center;text-anchor:middle;fill:#ffffff;stroke-width:0.26458332"
       d="m 177.31484,43.491972 q -0.0952,0 -0.15875,-0.03175 -0.0529,-0.04233 -0.0529,-0.116416 0,-0.148167 0.24342,-0.211667 0.23283,-0.08467 0.3175,-0.148167 0.0847,-0.0635 0.0847,-0.254 v -5.090583 q 0,-0.3175 -0.0952,-0.508 -0.0847,-0.201083 -0.32808,-0.254 -0.10583,-0.02117 -0.10583,-0.15875 0,-0.137583 0.0952,-0.15875 0.28575,-0.05292 0.68791,-0.1905 0.41275,-0.137583 0.73025,-0.254 l 0.22225,-0.08467 q 0.0741,-0.03175 0.13759,-0.03175 0.10583,0 0.10583,0.127 0,0.08467 -0.0317,0.306916 -0.0212,0.22225 -0.0318,0.423334 v 5.852583 q 0,0.179916 0.0741,0.254 0.0847,0.0635 0.1905,0.105833 0.10584,0.03175 0.13759,0.04233 0.127,0.04233 0.17991,0.09525 0.0635,0.04233 0.0635,0.116417 0,0.07408 -0.0635,0.116417 -0.0529,0.03175 -0.14816,0.03175 -0.22225,0 -0.60325,-0.02117 l -0.55034,-0.01058 q -0.16933,0 -0.508,0.02117 -0.28575,0.03175 -0.59266,0.03175 z" />
    <path
       id="path954"
       style="font-style:normal;font-variant:normal;font-weight:bold;font-stretch:normal;font-family:'EB Garamond';-inkscape-font-specification:'EB Garamond Bold';text-align:center;text-anchor:middle;fill:#ffffff;stroke-width:0.26458332"
       d="m 182.10413,43.608389 q -0.68792,0 -1.04775,-0.34925 -0.34925,-0.34925 -0.34925,-1.005417 v -2.434166 q 0,-0.09525 -0.0741,-0.137584 -0.0741,-0.04233 -0.254,-0.05292 h -0.13758 q -0.0635,0 -0.11642,-0.116417 -0.0529,-0.116417 -0.0529,-0.22225 0,-0.07408 0.0635,-0.105833 0.52916,-0.1905 1.54516,-1.0795 0.0212,-0.02117 0.0741,-0.05292 0.0529,-0.04233 0.0952,-0.0635 0.0423,-0.02117 0.0952,-0.02117 0.10583,0 0.13758,0.04233 0.0317,0.04233 0.0212,0.169333 l -0.0635,0.624417 v 0.04233 q 0,0.179917 0.254,0.179917 h 1.25941 q 0.0318,0 0.0635,0.07408 0.0318,0.07408 0.0318,0.137583 0,0.15875 -0.0423,0.296334 -0.0423,0.127 -0.0952,0.127 h -0.98425 q -0.24342,0 -0.33867,0.0635 -0.0847,0.05292 -0.0847,0.201083 v 2.00025 q 0,0.47625 0.17991,0.719667 0.17992,0.243416 0.49742,0.243416 0.24342,0 0.37042,-0.03175 0.13758,-0.04233 0.22225,-0.08467 0.0952,-0.04233 0.11641,-0.05292 0.0423,-0.02117 0.0635,-0.02117 0.0529,0 0.0847,0.0635 0.0317,0.05292 0.0317,0.148167 0,0.07408 -0.24342,0.254 -0.23283,0.169333 -0.59266,0.306917 -0.35984,0.137583 -0.73025,0.137583 z" />
    <path
       id="path956"
       style="font-style:normal;font-variant:normal;font-weight:bold;font-stretch:normal;font-family:'EB Garamond';-inkscape-font-specification:'EB Garamond Bold';text-align:center;text-anchor:middle;fill:#ffffff;stroke-width:0.26458332"
       d="m 113.38481,56.963305 q -0.68792,0 -1.04775,-0.34925 -0.34925,-0.34925 -0.34925,-1.005417 v -2.434167 q 0,-0.09525 -0.0741,-0.137583 -0.0741,-0.04233 -0.254,-0.05292 h -0.13759 q -0.0635,0 -0.11641,-0.116416 -0.0529,-0.116417 -0.0529,-0.22225 0,-0.07408 0.0635,-0.105834 0.52917,-0.1905 1.54517,-1.0795 0.0212,-0.02117 0.0741,-0.05292 0.0529,-0.04233 0.0952,-0.0635 0.0423,-0.02117 0.0953,-0.02117 0.10583,0 0.13758,0.04233 0.0318,0.04233 0.0212,0.169334 l -0.0635,0.624416 v 0.04233 q 0,0.179916 0.254,0.179916 h 1.25942 q 0.0318,0 0.0635,0.07408 0.0318,0.07408 0.0318,0.137583 0,0.15875 -0.0423,0.296333 -0.0423,0.127 -0.0953,0.127 h -0.98425 q -0.24341,0 -0.33866,0.0635 -0.0847,0.05292 -0.0847,0.201084 v 2.00025 q 0,0.47625 0.17992,0.719666 0.17991,0.243417 0.49741,0.243417 0.24342,0 0.37042,-0.03175 0.13758,-0.04233 0.22225,-0.08467 0.0953,-0.04233 0.11642,-0.05292 0.0423,-0.02117 0.0635,-0.02117 0.0529,0 0.0847,0.0635 0.0317,0.05292 0.0317,0.148167 0,0.07408 -0.24341,0.254 -0.23284,0.169333 -0.59267,0.306916 -0.35983,0.137584 -0.73025,0.137584 z" />
    <path
       id="path958"
       style="font-style:normal;font-variant:normal;font-weight:bold;font-stretch:normal;font-family:'EB Garamond';-inkscape-font-specification:'EB Garamond Bold';text-align:center;text-anchor:middle;fill:#ffffff;stroke-width:0.26458332"
       d="m 117.26889,56.963305 q -0.56091,0 -1.016,-0.296334 -0.45508,-0.306916 -0.71966,-0.836083 -0.254,-0.529167 -0.254,-1.185333 0,-0.656167 0.30691,-1.2065 0.30692,-0.550334 0.83609,-0.867834 0.53975,-0.328083 1.16416,-0.328083 0.4445,0 0.81492,0.1905 0.37042,0.1905 0.58208,0.529167 0.21167,0.338666 0.21167,0.740833 0,0.211667 -0.0847,0.306917 -0.0741,0.09525 -0.24341,0.09525 h -2.11667 q -0.14817,0 -0.22225,0.08467 -0.0635,0.08467 -0.0635,0.28575 0,0.613834 0.39158,1.037167 0.39159,0.41275 0.98425,0.41275 0.29634,0 0.55034,-0.105833 0.254,-0.116417 0.52916,-0.328084 0.10584,-0.08467 0.14817,-0.08467 0.10583,0 0.10583,0.137583 0,0.137583 -0.0847,0.3175 -0.16934,0.4445 -0.66675,0.772583 -0.48684,0.328084 -1.15359,0.328084 z m 0.11642,-3.302 q 0.24342,0 0.381,-0.01058 0.13758,-0.01058 0.24342,-0.04233 0.0529,-0.02117 0.0847,-0.105833 0.0318,-0.08467 0.0318,-0.1905 0,-0.275167 -0.20108,-0.455084 -0.1905,-0.1905 -0.47625,-0.1905 -0.32808,0 -0.59267,0.275167 -0.26458,0.264583 -0.254,0.5715 0,0.148167 0.14817,0.148167 z" />
    <path
       id="path960"
       style="font-style:normal;font-variant:normal;font-weight:bold;font-stretch:normal;font-family:'EB Garamond';-inkscape-font-specification:'EB Garamond Bold';text-align:center;text-anchor:middle;fill:#ffffff;stroke-width:0.26458332"
       d="m 119.90381,56.846888 q -0.0952,0 -0.15875,-0.03175 -0.0529,-0.04233 -0.0529,-0.116417 0,-0.08467 0.0529,-0.127 0.0635,-0.05292 0.1905,-0.08467 0.23283,-0.07408 0.30692,-0.15875 0.0847,-0.08467 0.0847,-0.243417 v -2.434167 q 0,-0.243416 -0.0741,-0.370416 -0.0635,-0.137584 -0.24342,-0.1905 -0.13758,-0.04233 -0.13758,-0.1905 0,-0.148167 0.127,-0.179917 0.33867,-0.07408 0.74083,-0.211667 0.41275,-0.148166 0.6985,-0.28575 0.15875,-0.116416 0.24342,-0.116416 0.0953,0 0.0953,0.116416 l -0.0318,0.836084 q 0,0.09525 0.0423,0.09525 0.27517,-0.381 0.635,-0.645584 0.35984,-0.275166 0.70909,-0.275166 0.34925,0 0.508,0.137583 0.16933,0.127 0.16933,0.359833 0,0.254 -0.20108,0.53975 -0.1905,0.275167 -0.41275,0.275167 -0.13759,0 -0.41275,-0.148167 -0.0423,-0.02117 -0.17992,-0.07408 -0.127,-0.0635 -0.21167,-0.0635 -0.67733,0 -0.67733,1.005417 v 1.725083 q 0,0.201083 0.127,0.306917 0.127,0.105833 0.43392,0.1905 0.23283,0.0635 0.23283,0.211666 0,0.0635 -0.0529,0.105834 -0.0529,0.04233 -0.127,0.04233 -0.33866,0 -0.67733,-0.03175 -0.42333,-0.02117 -0.59267,-0.02117 -0.17991,0 -0.53975,0.02117 -0.28575,0.03175 -0.61383,0.03175 z" />
    <path
       id="path962"
       style="font-style:normal;font-variant:normal;font-weight:bold;font-stretch:normal;font-family:'EB Garamond';-inkscape-font-specification:'EB Garamond Bold';text-align:center;text-anchor:middle;fill:#ffffff;stroke-width:0.26458332"
       d="m 124.27539,56.846888 q -0.0741,0 -0.14817,-0.04233 -0.0635,-0.04233 -0.0635,-0.105834 0,-0.127 0.24342,-0.211666 0.21167,-0.0635 0.30692,-0.137584 0.0953,-0.07408 0.0953,-0.264583 v -2.423583 q 0,-0.53975 -0.32809,-0.592667 -0.11641,-0.02117 -0.11641,-0.1905 0,-0.148167 0.10583,-0.179917 1.06892,-0.264583 1.5875,-0.560916 0.0212,-0.01058 0.0529,-0.03175 0.0423,-0.02117 0.0741,-0.02117 0.0953,0 0.0953,0.116417 l -0.0212,0.232833 q -0.0106,0.07408 -0.0212,0.179917 -0.0106,0.09525 -0.0106,0.22225 0,0.105833 0.0212,0.127 h 0.0212 q 0.34925,-0.338667 0.73025,-0.529167 0.39158,-0.1905 0.84666,-0.1905 0.3175,0 0.59267,0.232833 0.28575,0.22225 0.42333,0.582084 h 0.0423 q 0.67733,-0.814917 1.60866,-0.814917 0.508,0 0.83609,0.41275 0.33866,0.41275 0.33866,1.100667 v 2.328333 q 0,0.1905 0.0952,0.264583 0.0952,0.07408 0.30692,0.137584 0.21167,0.07408 0.21167,0.211666 0,0.0635 -0.0529,0.105834 -0.0529,0.04233 -0.127,0.04233 -0.3175,0 -0.60325,-0.03175 -0.33867,-0.02117 -0.51858,-0.02117 -0.17992,0 -0.47625,0.02117 -0.23284,0.03175 -0.55034,0.03175 -0.0741,0 -0.127,-0.04233 -0.0529,-0.04233 -0.0529,-0.105834 0,-0.15875 0.21166,-0.211666 0.14817,-0.04233 0.21167,-0.105834 0.0741,-0.07408 0.0741,-0.232833 v -2.169583 q 0,-0.381 -0.16933,-0.613834 -0.15875,-0.243416 -0.41275,-0.254 -0.32808,0 -0.62442,0.254 -0.14816,0.137584 -0.14816,0.4445 v 2.275417 q 0,0.201083 0.0741,0.275167 0.0741,0.07408 0.254,0.127 0.21167,0.05292 0.21167,0.211666 0,0.0635 -0.0529,0.105834 -0.0529,0.04233 -0.127,0.04233 -0.30692,0 -0.56092,-0.03175 -0.3175,-0.02117 -0.48683,-0.02117 -0.17992,0 -0.47625,0.02117 -0.23283,0.03175 -0.55033,0.03175 -0.0635,0 -0.11642,-0.04233 -0.0529,-0.04233 -0.0529,-0.105834 0,-0.137583 0.20109,-0.211666 0.15875,-0.05292 0.22225,-0.116417 0.0741,-0.0635 0.0741,-0.22225 v -2.169583 q 0,-0.391584 -0.15875,-0.613834 -0.15875,-0.232833 -0.42333,-0.243416 -0.3175,0 -0.635,0.232833 -0.13759,0.105833 -0.13759,0.41275 v 2.31775 q 0,0.179917 0.0635,0.264583 0.0635,0.08467 0.23284,0.137584 0.20108,0.07408 0.20108,0.211666 0,0.0635 -0.0529,0.105834 -0.0529,0.04233 -0.11641,0.04233 -0.30692,0 -0.55034,-0.03175 -0.3175,-0.02117 -0.48683,-0.02117 -0.17992,0 -0.51858,0.02117 -0.26459,0.03175 -0.59267,0.03175 z" />
    <path
       id="path964"
       style="font-style:normal;font-variant:normal;font-weight:bold;font-stretch:normal;font-family:'EB Garamond';-inkscape-font-specification:'EB Garamond Bold';text-align:center;text-anchor:middle;fill:#ffffff;stroke-width:0.26458332"
       d="m 132.77,56.846888 q -0.0635,0 -0.11642,-0.03175 -0.0529,-0.04233 -0.0529,-0.105833 0,-0.15875 0.1905,-0.211667 0.28575,-0.0635 0.39158,-0.137583 0.10583,-0.08467 0.10583,-0.254 v -2.286 q 0,-0.34925 -0.10583,-0.508 -0.10583,-0.15875 -0.34925,-0.1905 -0.0635,-0.01058 -0.0952,-0.0635 -0.0317,-0.05292 -0.0317,-0.127 0,-0.0635 0.0317,-0.116417 0.0423,-0.05292 0.0847,-0.0635 0.47625,-0.08467 0.83608,-0.232833 0.37042,-0.148167 0.80433,-0.359834 0.14817,-0.08467 0.21167,-0.08467 0.0635,0 0.0952,0.04233 0.0423,0.03175 0.0423,0.08467 l -0.0423,0.391583 q -0.0952,0.804333 -0.0952,1.164167 v 2.338916 q 0,0.148167 0.10583,0.232834 0.10584,0.08467 0.40217,0.169333 0.0953,0.03175 0.13758,0.07408 0.0529,0.04233 0.0529,0.127 0,0.137584 -0.15875,0.137584 -0.22225,0 -0.64558,-0.02117 -0.42334,-0.02117 -0.60325,-0.02117 -0.17992,0 -0.56092,0.02117 -0.3175,0.03175 -0.635,0.03175 z m 1.16417,-5.249333 q -0.33867,0 -0.58209,-0.243417 -0.24341,-0.243417 -0.24341,-0.582083 0,-0.359834 0.24341,-0.60325 0.24342,-0.243417 0.58209,-0.243417 0.35983,0 0.60325,0.243417 0.254,0.243416 0.254,0.60325 0,0.338666 -0.254,0.582083 -0.24342,0.243417 -0.60325,0.243417 z" />
    <path
       id="path966"
       style="font-style:normal;font-variant:normal;font-weight:bold;font-stretch:normal;font-family:'EB Garamond';-inkscape-font-specification:'EB Garamond Bold';text-align:center;text-anchor:middle;fill:#ffffff;stroke-width:0.26458332"
       d="m 135.93359,56.846888 q -0.0741,0 -0.14816,-0.04233 -0.0635,-0.04233 -0.0635,-0.105834 0,-0.127 0.24341,-0.211666 0.21167,-0.0635 0.30692,-0.137584 0.0953,-0.07408 0.0953,-0.264583 v -2.423583 q 0,-0.529167 -0.32808,-0.592667 -0.11642,-0.02117 -0.11642,-0.1905 0,-0.148167 0.10583,-0.179917 0.37042,-0.08467 0.80434,-0.232833 0.43391,-0.148167 0.71966,-0.296333 0.13759,-0.08467 0.1905,-0.08467 0.0953,0 0.0953,0.127 l -0.0212,0.211667 q -0.0317,0.381 -0.0317,0.391583 0,0.137583 0.0212,0.15875 0.39159,-0.370417 0.75142,-0.550333 0.37042,-0.179917 0.83608,-0.179917 0.5715,0 0.93134,0.41275 0.37041,0.41275 0.37041,1.100667 v 2.328333 q 0,0.1905 0.0952,0.264583 0.0953,0.07408 0.30692,0.137584 0.21167,0.07408 0.21167,0.211666 0,0.0635 -0.0529,0.105834 -0.0529,0.04233 -0.127,0.04233 -0.3175,0 -0.60325,-0.03175 -0.33867,-0.02117 -0.51858,-0.02117 -0.17992,0 -0.51859,0.02117 -0.26458,0.03175 -0.59266,0.03175 -0.0741,0 -0.127,-0.04233 -0.0529,-0.04233 -0.0529,-0.105834 0,-0.137583 0.21167,-0.211666 0.20108,-0.0635 0.28575,-0.137584 0.0847,-0.07408 0.0847,-0.264583 v -2.106083 q 0,-0.402167 -0.17991,-0.624417 -0.17992,-0.232833 -0.49742,-0.243417 -0.22225,0 -0.40217,0.07408 -0.17991,0.0635 -0.381,0.201083 -0.0847,0.07408 -0.0847,0.201083 v 2.497667 q 0,0.1905 0.0847,0.264583 0.0847,0.0635 0.29634,0.137584 0.21166,0.07408 0.21166,0.211666 0,0.0635 -0.0529,0.105834 -0.0529,0.04233 -0.127,0.04233 -0.3175,0 -0.5715,-0.03175 -0.33867,-0.02117 -0.508,-0.02117 -0.17992,0 -0.53975,0.02117 -0.28575,0.03175 -0.61384,0.03175 z" />
    <path
       id="path968"
       style="font-style:normal;font-variant:normal;font-weight:bold;font-stretch:normal;font-family:'EB Garamond';-inkscape-font-specification:'EB Garamond Bold';text-align:center;text-anchor:middle;fill:#ffffff;stroke-width:0.26458332"
       d="m 142.85939,56.963305 q -0.42333,0 -0.74083,-0.28575 -0.3175,-0.296334 -0.3175,-0.6985 0,-0.359834 0.21166,-0.592667 0.22225,-0.243417 0.68792,-0.4445 l 0.94192,-0.41275 q 0.21166,-0.09525 0.254,-0.169333 0.0529,-0.07408 0.0529,-0.275167 l 0.0106,-0.60325 q 0.0106,-0.306917 -0.10584,-0.47625 -0.11641,-0.169333 -0.34925,-0.169333 -0.127,0 -0.27516,0.0635 -0.13759,0.05292 -0.21167,0.127 -0.0635,0.07408 -0.0635,0.22225 0,0.07408 0.0106,0.15875 0.0106,0.07408 0.0106,0.148166 0,0.105834 -0.35984,0.264584 -0.34925,0.15875 -0.58208,0.15875 -0.0847,0 -0.13758,-0.0635 -0.0529,-0.0635 -0.0529,-0.15875 0,-0.169334 0.11642,-0.328084 0.11641,-0.15875 0.381,-0.381 0.41275,-0.338666 0.93133,-0.5715 0.51858,-0.232833 0.86783,-0.232833 0.56092,0 0.89959,0.370417 0.33866,0.359833 0.32808,0.963083 l -0.0529,2.137833 q -0.0106,0.243417 0.0847,0.41275 0.0952,0.169334 0.23283,0.169334 0.20109,0 0.34925,-0.137584 0.0317,-0.03175 0.0635,-0.03175 0.0529,0 0.0847,0.04233 0.0423,0.03175 0.0423,0.07408 0,0.137583 -0.1905,0.328083 -0.39158,0.391584 -0.889,0.391584 -0.30691,0 -0.53975,-0.148167 -0.23283,-0.137583 -0.4445,-0.455083 h -0.0212 q -0.34925,0.328083 -0.635,0.465666 -0.27517,0.137584 -0.59267,0.137584 z m 0.635,-0.687917 q 0.20108,0 0.33867,-0.15875 0.0741,-0.116417 0.0741,-0.275167 l 0.0317,-0.762 q 0,-0.169333 -0.10583,-0.169333 -0.0529,0 -0.127,0.04233 -0.33867,0.15875 -0.47625,0.3175 -0.127,0.15875 -0.127,0.47625 0,0.275167 0.11641,0.402167 0.11642,0.127 0.27517,0.127 z" />
    <path
       id="path970"
       style="font-style:normal;font-variant:normal;font-weight:bold;font-stretch:normal;font-family:'EB Garamond';-inkscape-font-specification:'EB Garamond Bold';text-align:center;text-anchor:middle;fill:#ffffff;stroke-width:0.26458332"
       d="m 146.50535,56.846888 q -0.0952,0 -0.15875,-0.03175 -0.0529,-0.04233 -0.0529,-0.116417 0,-0.148166 0.24342,-0.211666 0.23283,-0.08467 0.3175,-0.148167 0.0847,-0.0635 0.0847,-0.254 v -5.090583 q 0,-0.3175 -0.0952,-0.508 -0.0847,-0.201084 -0.32808,-0.254 -0.10583,-0.02117 -0.10583,-0.15875 0,-0.137584 0.0952,-0.15875 0.28575,-0.05292 0.68791,-0.1905 0.41275,-0.137584 0.73025,-0.254 l 0.22225,-0.08467 q 0.0741,-0.03175 0.13759,-0.03175 0.10583,0 0.10583,0.127 0,0.08467 -0.0318,0.306917 -0.0212,0.22225 -0.0317,0.423333 v 5.852583 q 0,0.179917 0.0741,0.254 0.0847,0.0635 0.1905,0.105834 0.10584,0.03175 0.13759,0.04233 0.127,0.04233 0.17991,0.09525 0.0635,0.04233 0.0635,0.116417 0,0.07408 -0.0635,0.116416 -0.0529,0.03175 -0.14816,0.03175 -0.22225,0 -0.60325,-0.02117 l -0.55034,-0.01058 q -0.16933,0 -0.508,0.02117 -0.28575,0.03175 -0.59266,0.03175 z" />
    <path
       id="path972"
       style="font-style:normal;font-variant:normal;font-weight:bold;font-stretch:normal;font-family:'EB Garamond';-inkscape-font-specification:'EB Garamond Bold';text-align:center;text-anchor:middle;fill:#ffffff;stroke-width:0.26458332"
       d="m 153.87647,56.963305 q -0.56091,0 -1.016,-0.296334 -0.45508,-0.306916 -0.71966,-0.836083 -0.254,-0.529167 -0.254,-1.185333 0,-0.656167 0.30691,-1.2065 0.30692,-0.550334 0.83609,-0.867834 0.53975,-0.328083 1.16416,-0.328083 0.4445,0 0.81492,0.1905 0.37042,0.1905 0.58208,0.529167 0.21167,0.338666 0.21167,0.740833 0,0.211667 -0.0847,0.306917 -0.0741,0.09525 -0.24341,0.09525 h -2.11667 q -0.14817,0 -0.22225,0.08467 -0.0635,0.08467 -0.0635,0.28575 0,0.613834 0.39158,1.037167 0.39159,0.41275 0.98425,0.41275 0.29634,0 0.55034,-0.105833 0.254,-0.116417 0.52916,-0.328084 0.10584,-0.08467 0.14817,-0.08467 0.10583,0 0.10583,0.137583 0,0.137583 -0.0847,0.3175 -0.16934,0.4445 -0.66675,0.772583 -0.48684,0.328084 -1.15359,0.328084 z m 0.11642,-3.302 q 0.24342,0 0.381,-0.01058 0.13758,-0.01058 0.24342,-0.04233 0.0529,-0.02117 0.0847,-0.105833 0.0318,-0.08467 0.0318,-0.1905 0,-0.275167 -0.20108,-0.455084 -0.1905,-0.1905 -0.47625,-0.1905 -0.32808,0 -0.59267,0.275167 -0.26458,0.264583 -0.254,0.5715 0,0.148167 0.14817,0.148167 z" />
    <path
       id="path974"
       style="font-style:normal;font-variant:normal;font-weight:bold;font-stretch:normal;font-family:'EB Garamond';-inkscape-font-specification:'EB Garamond Bold';text-align:center;text-anchor:middle;fill:#ffffff;stroke-width:0.26458332"
       d="m 156.50081,56.846888 q -0.0741,0 -0.14817,-0.04233 -0.0635,-0.04233 -0.0635,-0.105834 0,-0.127 0.24342,-0.211666 0.21167,-0.0635 0.30692,-0.137584 0.0952,-0.07408 0.0952,-0.264583 v -2.423583 q 0,-0.53975 -0.32809,-0.592667 -0.11641,-0.02117 -0.11641,-0.1905 0,-0.148167 0.10583,-0.179917 1.06892,-0.264583 1.5875,-0.560916 0.0212,-0.01058 0.0529,-0.03175 0.0423,-0.02117 0.0741,-0.02117 0.0952,0 0.0952,0.116417 l -0.0212,0.232833 q -0.0106,0.07408 -0.0212,0.179917 -0.0106,0.09525 -0.0106,0.22225 0,0.105833 0.0212,0.127 h 0.0212 q 0.34925,-0.338667 0.73025,-0.529167 0.39158,-0.1905 0.84666,-0.1905 0.3175,0 0.59267,0.232833 0.28575,0.22225 0.42333,0.582084 h 0.0423 q 0.67733,-0.814917 1.60866,-0.814917 0.508,0 0.83609,0.41275 0.33866,0.41275 0.33866,1.100667 v 2.328333 q 0,0.1905 0.0953,0.264583 0.0952,0.07408 0.30692,0.137584 0.21167,0.07408 0.21167,0.211666 0,0.0635 -0.0529,0.105834 -0.0529,0.04233 -0.127,0.04233 -0.3175,0 -0.60325,-0.03175 -0.33867,-0.02117 -0.51858,-0.02117 -0.17992,0 -0.47625,0.02117 -0.23284,0.03175 -0.55034,0.03175 -0.0741,0 -0.127,-0.04233 -0.0529,-0.04233 -0.0529,-0.105834 0,-0.15875 0.21166,-0.211666 0.14817,-0.04233 0.21167,-0.105834 0.0741,-0.07408 0.0741,-0.232833 v -2.169583 q 0,-0.381 -0.16933,-0.613834 -0.15875,-0.243416 -0.41275,-0.254 -0.32808,0 -0.62442,0.254 -0.14816,0.137584 -0.14816,0.4445 v 2.275417 q 0,0.201083 0.0741,0.275167 0.0741,0.07408 0.254,0.127 0.21167,0.05292 0.21167,0.211666 0,0.0635 -0.0529,0.105834 -0.0529,0.04233 -0.127,0.04233 -0.30692,0 -0.56092,-0.03175 -0.3175,-0.02117 -0.48683,-0.02117 -0.17992,0 -0.47625,0.02117 -0.23283,0.03175 -0.55033,0.03175 -0.0635,0 -0.11642,-0.04233 -0.0529,-0.04233 -0.0529,-0.105834 0,-0.137583 0.20109,-0.211666 0.15875,-0.05292 0.22225,-0.116417 0.0741,-0.0635 0.0741,-0.22225 v -2.169583 q 0,-0.391584 -0.15875,-0.613834 -0.15875,-0.232833 -0.42333,-0.243416 -0.3175,0 -0.635,0.232833 -0.13759,0.105833 -0.13759,0.41275 v 2.31775 q 0,0.179917 0.0635,0.264583 0.0635,0.08467 0.23284,0.137584 0.20108,0.07408 0.20108,0.211666 0,0.0635 -0.0529,0.105834 -0.0529,0.04233 -0.11641,0.04233 -0.30692,0 -0.55034,-0.03175 -0.3175,-0.02117 -0.48683,-0.02117 -0.17992,0 -0.51858,0.02117 -0.26459,0.03175 -0.59267,0.03175 z" />
    <path
       id="path976"
       style="font-style:normal;font-variant:normal;font-weight:bold;font-stretch:normal;font-family:'EB Garamond';-inkscape-font-specification:'EB Garamond Bold';text-align:center;text-anchor:middle;fill:#ffffff;stroke-width:0.26458332"
       d="m 168.26567,57.037388 q -0.0847,0 -0.0847,-0.105833 0,-0.148167 0.0318,-0.338667 l 0.0212,-0.328083 q 0,-0.09525 -0.0212,-0.116417 -0.29634,0.359833 -0.75142,0.592667 -0.4445,0.232833 -0.92075,0.232833 -0.49742,0 -0.83608,-0.423333 -0.32809,-0.433917 -0.32809,-1.068917 v -1.979083 q 0,-0.264584 -0.0952,-0.402167 -0.0952,-0.148167 -0.32808,-0.1905 -0.0635,-0.01058 -0.11642,-0.05292 -0.0423,-0.05292 -0.0423,-0.148166 0,-0.169334 0.15875,-0.179917 0.68792,-0.03175 1.53458,-0.254 0.0423,-0.01058 0.10584,-0.02117 0.0741,-0.02117 0.11641,-0.02117 0.14817,0 0.13759,0.148166 -0.0847,0.433917 -0.0847,0.814917 v 2.032 q 0,0.381 0.17992,0.613833 0.17991,0.232834 0.46566,0.243417 0.41275,0 0.64559,-0.232833 0.0847,-0.07408 0.14816,-0.232834 0.0635,-0.169333 0.0635,-0.423333 v -1.703917 q 0,-0.264583 -0.15875,-0.41275 -0.15875,-0.15875 -0.41275,-0.179916 -0.127,-0.01058 -0.1905,-0.0635 -0.0635,-0.05292 -0.0635,-0.169334 0,-0.105833 0.0741,-0.15875 0.0741,-0.05292 0.17991,-0.05292 0.80434,-0.05292 1.143,-0.08467 0.33867,-0.03175 0.635,-0.105833 0.127,-0.03175 0.13759,-0.03175 0.15875,0 0.15875,0.127 0,0.03175 -0.0423,0.15875 -0.0212,0.127 -0.0529,0.370416 -0.0212,0.243417 -0.0212,0.370417 v 2.455333 q 0,0.402167 0.1905,0.402167 l 0.29633,0.01058 q 0.0952,0 0.14817,0.05292 0.0529,0.05292 0.0529,0.137583 0,0.105834 -0.0423,0.15875 -0.0318,0.05292 -0.13758,0.0635 -0.78317,0.07408 -1.61925,0.423334 -0.0318,0.01058 -0.127,0.04233 -0.0847,0.03175 -0.14817,0.03175 z" />
    <path
       id="path978"
       style="font-style:normal;font-variant:normal;font-weight:bold;font-stretch:normal;font-family:'EB Garamond';-inkscape-font-specification:'EB Garamond Bold';text-align:center;text-anchor:middle;fill:#ffffff;stroke-width:0.26458332"
       d="m 170.81394,56.846888 q -0.0952,0 -0.15875,-0.03175 -0.0529,-0.04233 -0.0529,-0.116417 0,-0.148166 0.24342,-0.211666 0.23283,-0.08467 0.3175,-0.148167 0.0847,-0.0635 0.0847,-0.254 v -5.090583 q 0,-0.3175 -0.0952,-0.508 -0.0847,-0.201084 -0.32809,-0.254 -0.10583,-0.02117 -0.10583,-0.15875 0,-0.137584 0.0952,-0.15875 0.28575,-0.05292 0.68792,-0.1905 0.41275,-0.137584 0.73025,-0.254 l 0.22225,-0.08467 q 0.0741,-0.03175 0.13758,-0.03175 0.10583,0 0.10583,0.127 0,0.08467 -0.0317,0.306917 -0.0212,0.22225 -0.0318,0.423333 v 5.852583 q 0,0.179917 0.0741,0.254 0.0847,0.0635 0.1905,0.105834 0.10583,0.03175 0.13758,0.04233 0.127,0.04233 0.17992,0.09525 0.0635,0.04233 0.0635,0.116417 0,0.07408 -0.0635,0.116416 -0.0529,0.03175 -0.14817,0.03175 -0.22225,0 -0.60325,-0.02117 l -0.55033,-0.01058 q -0.16934,0 -0.508,0.02117 -0.28575,0.03175 -0.59267,0.03175 z" />
    <path
       id="path980"
       style="font-style:normal;font-variant:normal;font-weight:bold;font-stretch:normal;font-family:'EB Garamond';-inkscape-font-specification:'EB Garamond Bold';text-align:center;text-anchor:middle;fill:#ffffff;stroke-width:0.26458332"
       d="m 174.81609,56.963305 q -0.42333,0 -0.74083,-0.28575 -0.3175,-0.296334 -0.3175,-0.6985 0,-0.359834 0.21167,-0.592667 0.22225,-0.243417 0.68791,-0.4445 l 0.94192,-0.41275 q 0.21167,-0.09525 0.254,-0.169333 0.0529,-0.07408 0.0529,-0.275167 l 0.0106,-0.60325 q 0.0106,-0.306917 -0.10583,-0.47625 -0.11642,-0.169333 -0.34925,-0.169333 -0.127,0 -0.27517,0.0635 -0.13758,0.05292 -0.21167,0.127 -0.0635,0.07408 -0.0635,0.22225 0,0.07408 0.0106,0.15875 0.0106,0.07408 0.0106,0.148166 0,0.105834 -0.35983,0.264584 -0.34925,0.15875 -0.58209,0.15875 -0.0847,0 -0.13758,-0.0635 -0.0529,-0.0635 -0.0529,-0.15875 0,-0.169334 0.11642,-0.328084 0.11642,-0.15875 0.381,-0.381 0.41275,-0.338666 0.93133,-0.5715 0.51859,-0.232833 0.86784,-0.232833 0.56091,0 0.89958,0.370417 0.33867,0.359833 0.32808,0.963083 l -0.0529,2.137833 q -0.0106,0.243417 0.0847,0.41275 0.0952,0.169334 0.23284,0.169334 0.20108,0 0.34925,-0.137584 0.0318,-0.03175 0.0635,-0.03175 0.0529,0 0.0847,0.04233 0.0423,0.03175 0.0423,0.07408 0,0.137583 -0.1905,0.328083 -0.39159,0.391584 -0.889,0.391584 -0.30692,0 -0.53975,-0.148167 -0.23284,-0.137583 -0.4445,-0.455083 h -0.0212 q -0.34925,0.328083 -0.635,0.465666 -0.27517,0.137584 -0.59267,0.137584 z m 0.635,-0.687917 q 0.20109,0 0.33867,-0.15875 0.0741,-0.116417 0.0741,-0.275167 l 0.0317,-0.762 q 0,-0.169333 -0.10583,-0.169333 -0.0529,0 -0.127,0.04233 -0.33867,0.15875 -0.47625,0.3175 -0.127,0.15875 -0.127,0.47625 0,0.275167 0.11642,0.402167 0.11641,0.127 0.27516,0.127 z" />
    <path
       id="path982"
       style="font-style:normal;font-variant:normal;font-weight:bold;font-stretch:normal;font-family:'EB Garamond';-inkscape-font-specification:'EB Garamond Bold';text-align:center;text-anchor:middle;fill:#ffffff;stroke-width:0.26458332"
       d="m 180.3988,56.963305 q -0.68792,0 -1.04775,-0.34925 -0.34925,-0.34925 -0.34925,-1.005417 v -2.434167 q 0,-0.09525 -0.0741,-0.137583 -0.0741,-0.04233 -0.254,-0.05292 h -0.13759 q -0.0635,0 -0.11641,-0.116416 -0.0529,-0.116417 -0.0529,-0.22225 0,-0.07408 0.0635,-0.105834 0.52917,-0.1905 1.54517,-1.0795 0.0212,-0.02117 0.0741,-0.05292 0.0529,-0.04233 0.0952,-0.0635 0.0423,-0.02117 0.0952,-0.02117 0.10583,0 0.13758,0.04233 0.0317,0.04233 0.0212,0.169334 l -0.0635,0.624416 v 0.04233 q 0,0.179916 0.254,0.179916 h 1.25942 q 0.0318,0 0.0635,0.07408 0.0318,0.07408 0.0318,0.137583 0,0.15875 -0.0423,0.296333 -0.0423,0.127 -0.0953,0.127 h -0.98425 q -0.24341,0 -0.33866,0.0635 -0.0847,0.05292 -0.0847,0.201084 v 2.00025 q 0,0.47625 0.17992,0.719666 0.17991,0.243417 0.49741,0.243417 0.24342,0 0.37042,-0.03175 0.13758,-0.04233 0.22225,-0.08467 0.0952,-0.04233 0.11642,-0.05292 0.0423,-0.02117 0.0635,-0.02117 0.0529,0 0.0847,0.0635 0.0317,0.05292 0.0317,0.148167 0,0.07408 -0.24341,0.254 -0.23284,0.169333 -0.59267,0.306916 -0.35983,0.137584 -0.73025,0.137584 z" />
    <path
       id="path984"
       style="font-style:normal;font-variant:normal;font-weight:bold;font-stretch:normal;font-family:'EB Garamond';-inkscape-font-specification:'EB Garamond Bold';text-align:center;text-anchor:middle;fill:#ffffff;stroke-width:0.26458332"
       d="m 184.55805,56.963305 q -0.62442,0 -1.143,-0.28575 -0.51858,-0.28575 -0.81492,-0.783167 -0.29633,-0.508 -0.29633,-1.143 0,-0.66675 0.32808,-1.248833 0.33867,-0.582084 0.89959,-0.92075 0.5715,-0.34925 1.25941,-0.34925 0.635,0 1.17475,0.306916 0.53975,0.296334 0.84667,0.814917 0.3175,0.508 0.3175,1.090083 0,0.6985 -0.29633,1.27 -0.29634,0.5715 -0.87842,0.910167 -0.5715,0.338667 -1.397,0.338667 z m 0.21167,-0.465667 q 0.43391,0 0.65616,-0.359833 0.22225,-0.370417 0.22225,-1.439334 0,-0.867833 -0.28575,-1.42875 -0.27516,-0.5715 -0.73025,-0.5715 -0.32808,0 -0.55033,0.22225 -0.17992,0.201084 -0.254,0.582084 -0.0635,0.381 -0.0635,0.98425 0,0.508 0.127,0.973666 0.13758,0.465667 0.35983,0.751417 0.23284,0.28575 0.51859,0.28575 z" />
    <path
       id="path986"
       style="font-style:normal;font-variant:normal;font-weight:bold;font-stretch:normal;font-family:'EB Garamond';-inkscape-font-specification:'EB Garamond Bold';text-align:center;text-anchor:middle;fill:#ffffff;stroke-width:0.26458332"
       d="m 187.82731,56.846888 q -0.0953,0 -0.15875,-0.03175 -0.0529,-0.04233 -0.0529,-0.116417 0,-0.08467 0.0529,-0.127 0.0635,-0.05292 0.1905,-0.08467 0.23283,-0.07408 0.30692,-0.15875 0.0847,-0.08467 0.0847,-0.243417 v -2.434167 q 0,-0.243416 -0.0741,-0.370416 -0.0635,-0.137584 -0.24342,-0.1905 -0.13758,-0.04233 -0.13758,-0.1905 0,-0.148167 0.127,-0.179917 0.33867,-0.07408 0.74083,-0.211667 0.41275,-0.148166 0.6985,-0.28575 0.15875,-0.116416 0.24342,-0.116416 0.0952,0 0.0952,0.116416 l -0.0317,0.836084 q 0,0.09525 0.0423,0.09525 0.27517,-0.381 0.635,-0.645584 0.35984,-0.275166 0.70909,-0.275166 0.34925,0 0.508,0.137583 0.16933,0.127 0.16933,0.359833 0,0.254 -0.20108,0.53975 -0.1905,0.275167 -0.41275,0.275167 -0.13759,0 -0.41275,-0.148167 -0.0423,-0.02117 -0.17992,-0.07408 -0.127,-0.0635 -0.21167,-0.0635 -0.67733,0 -0.67733,1.005417 v 1.725083 q 0,0.201083 0.127,0.306917 0.127,0.105833 0.43392,0.1905 0.23283,0.0635 0.23283,0.211666 0,0.0635 -0.0529,0.105834 -0.0529,0.04233 -0.127,0.04233 -0.33866,0 -0.67733,-0.03175 -0.42333,-0.02117 -0.59267,-0.02117 -0.17991,0 -0.53975,0.02117 -0.28575,0.03175 -0.61383,0.03175 z" />
    <path
       id="path988"
       style="font-style:normal;font-variant:normal;font-weight:bold;font-stretch:normal;font-family:'EB Garamond';-inkscape-font-specification:'EB Garamond Bold';text-align:center;text-anchor:middle;fill:#ffffff;stroke-width:0.26458332"
       d="m 128.46019,70.201804 q -0.0635,0 -0.11642,-0.03175 -0.0529,-0.04233 -0.0529,-0.105834 0,-0.15875 0.1905,-0.211666 0.28575,-0.0635 0.39159,-0.137584 0.10583,-0.08467 0.10583,-0.254 v -2.286 q 0,-0.34925 -0.10583,-0.508 -0.10584,-0.15875 -0.34925,-0.1905 -0.0635,-0.01058 -0.0952,-0.0635 -0.0317,-0.05292 -0.0317,-0.127 0,-0.0635 0.0317,-0.116416 0.0423,-0.05292 0.0847,-0.0635 0.47625,-0.08467 0.83609,-0.232834 0.37041,-0.148166 0.80433,-0.359833 0.14817,-0.08467 0.21167,-0.08467 0.0635,0 0.0952,0.04233 0.0423,0.03175 0.0423,0.08467 l -0.0423,0.391584 q -0.0952,0.804333 -0.0952,1.164166 v 2.338917 q 0,0.148167 0.10583,0.232833 0.10583,0.08467 0.40217,0.169334 0.0952,0.03175 0.13758,0.07408 0.0529,0.04233 0.0529,0.127 0,0.137583 -0.15875,0.137583 -0.22225,0 -0.64559,-0.02117 -0.42333,-0.02117 -0.60325,-0.02117 -0.17991,0 -0.56091,0.02117 -0.3175,0.03175 -0.635,0.03175 z m 1.16416,-5.249334 q -0.33866,0 -0.58208,-0.243416 -0.24342,-0.243417 -0.24342,-0.582084 0,-0.359833 0.24342,-0.60325 0.24342,-0.243416 0.58208,-0.243416 0.35984,0 0.60325,0.243416 0.254,0.243417 0.254,0.60325 0,0.338667 -0.254,0.582084 -0.24341,0.243416 -0.60325,0.243416 z" />
    <path
       id="path990"
       style="font-style:normal;font-variant:normal;font-weight:bold;font-stretch:normal;font-family:'EB Garamond';-inkscape-font-specification:'EB Garamond Bold';text-align:center;text-anchor:middle;fill:#ffffff;stroke-width:0.26458332"
       d="m 131.62378,70.201804 q -0.0741,0 -0.14817,-0.04233 -0.0635,-0.04233 -0.0635,-0.105833 0,-0.127 0.24342,-0.211667 0.21166,-0.0635 0.30691,-0.137583 0.0953,-0.07408 0.0953,-0.264583 V 67.01622 q 0,-0.529166 -0.32808,-0.592666 -0.11642,-0.02117 -0.11642,-0.1905 0,-0.148167 0.10584,-0.179917 0.37041,-0.08467 0.80433,-0.232833 0.43392,-0.148167 0.71967,-0.296334 0.13758,-0.08467 0.1905,-0.08467 0.0953,0 0.0953,0.127 l -0.0212,0.211666 q -0.0317,0.381 -0.0317,0.391584 0,0.137583 0.0212,0.15875 0.39158,-0.370417 0.75141,-0.550334 0.37042,-0.179916 0.83609,-0.179916 0.5715,0 0.93133,0.41275 0.37042,0.41275 0.37042,1.100666 V 69.4398 q 0,0.1905 0.0952,0.264583 0.0953,0.07408 0.30691,0.137583 0.21167,0.07408 0.21167,0.211667 0,0.0635 -0.0529,0.105833 -0.0529,0.04233 -0.127,0.04233 -0.3175,0 -0.60325,-0.03175 -0.33866,-0.02117 -0.51858,-0.02117 -0.17992,0 -0.51858,0.02117 -0.26459,0.03175 -0.59267,0.03175 -0.0741,0 -0.127,-0.04233 -0.0529,-0.04233 -0.0529,-0.105833 0,-0.137583 0.21167,-0.211667 0.20108,-0.0635 0.28575,-0.137583 0.0847,-0.07408 0.0847,-0.264583 v -2.10608 q 0,-0.402166 -0.17992,-0.624416 -0.17992,-0.232834 -0.49742,-0.243417 -0.22225,0 -0.40216,0.07408 -0.17992,0.0635 -0.381,0.201084 -0.0847,0.07408 -0.0847,0.201083 v 2.497667 q 0,0.1905 0.0847,0.264583 0.0847,0.0635 0.29633,0.137583 0.21167,0.07408 0.21167,0.211667 0,0.0635 -0.0529,0.105833 -0.0529,0.04233 -0.127,0.04233 -0.3175,0 -0.5715,-0.03175 -0.33867,-0.02117 -0.508,-0.02117 -0.17992,0 -0.53975,0.02117 -0.28575,0.03175 -0.61383,0.03175 z" />
    <path
       id="path992"
       style="font-style:normal;font-variant:normal;font-weight:bold;font-stretch:normal;font-family:'EB Garamond';-inkscape-font-specification:'EB Garamond Bold';text-align:center;text-anchor:middle;fill:#ffffff;stroke-width:0.26458332"
       d="m 143.63305,70.31822 q -1.4605,0 -2.23308,-0.762 -0.762,-0.762 -0.762,-2.06375 v -3.01625 q 0,-0.306916 -0.14817,-0.53975 -0.13758,-0.232833 -0.39158,-0.306916 -0.29634,-0.08467 -0.29634,-0.232834 0,-0.07408 0.0741,-0.116416 0.0847,-0.04233 0.20108,-0.04233 0.35983,0 0.70908,0.03175 0.46567,0.02117 0.66675,0.02117 0.1905,0 0.71967,-0.02117 0.508,-0.02117 0.70908,-0.02117 0.28575,0 0.28575,0.15875 0,0.07408 -0.0847,0.127 -0.0741,0.04233 -0.20109,0.09525 -0.127,0.04233 -0.21166,0.08467 -0.17992,0.07408 -0.28575,0.275167 -0.10584,0.201083 -0.10584,0.53975 v 2.772833 q 0,1.037167 0.47625,1.566334 0.48684,0.529166 1.23825,0.529166 0.96309,0 1.42875,-0.5715 0.47625,-0.582083 0.47625,-1.74625 l 0.0106,-1.3335 q 0,-0.47625 -0.0106,-0.687916 -0.0106,-0.687917 -0.13758,-0.963084 -0.11642,-0.275166 -0.42333,-0.433916 -0.0635,-0.03175 -0.17992,-0.0635 -0.11642,-0.04233 -0.17992,-0.08467 -0.0635,-0.04233 -0.0635,-0.105833 0,-0.148167 0.3175,-0.148167 l 0.62442,0.01058 q 0.127,0.01058 0.39158,0.01058 0.1905,0 0.46567,-0.02117 0.29633,-0.02117 0.48683,-0.02117 0.27517,0 0.27517,0.15875 0,0.137584 -0.28575,0.22225 -0.34925,0.09525 -0.49742,0.3175 -0.13758,0.22225 -0.15875,0.613834 -0.0529,1.3335 -0.0529,2.846916 0,0.846667 -0.381,1.513417 -0.381,0.66675 -1.03717,1.037167 -0.64558,0.370416 -1.42875,0.370416 z" />
    <path
       id="path994"
       style="font-style:normal;font-variant:normal;font-weight:bold;font-stretch:normal;font-family:'EB Garamond';-inkscape-font-specification:'EB Garamond Bold';text-align:center;text-anchor:middle;fill:#ffffff;stroke-width:0.26458332"
       d="m 150.47137,70.31822 q -0.42333,0 -1.03717,-0.15875 -0.40216,-0.116416 -0.508,-0.116416 -0.16933,0 -0.381,0.137583 -0.0952,0.07408 -0.14816,0.07408 -0.0952,0 -0.14817,-0.04233 -0.0423,-0.03175 -0.0423,-0.09525 0,-0.07408 0.0529,-0.370417 0.0635,-0.306916 0.0529,-0.687916 l -0.0423,-4.709584 q 0,-0.3175 -0.0952,-0.508 -0.0847,-0.201083 -0.3175,-0.254 -0.127,-0.02117 -0.127,-0.169333 0,-0.05292 0.0318,-0.09525 0.0317,-0.04233 0.0847,-0.05292 0.46567,-0.08467 1.5875,-0.518583 0.10584,-0.04233 0.14817,-0.04233 0.11642,0 0.11642,0.127 0,0.07408 -0.0318,0.28575 -0.0212,0.211666 -0.0212,0.381 v 2.264833 q 0,0.296333 0.0952,0.296333 0.32808,-0.22225 0.67733,-0.338666 0.35984,-0.127 0.67734,-0.127 0.55033,0 0.99483,0.28575 0.4445,0.28575 0.6985,0.79375 0.26458,0.497416 0.26458,1.11125 0,0.740833 -0.32808,1.322916 -0.3175,0.5715 -0.91017,0.889 -0.58208,0.3175 -1.34408,0.3175 z m 0.1905,-0.4445 q 0.41275,0 0.65617,-0.518583 0.254,-0.529167 0.254,-1.291167 0,-0.73025 -0.27517,-1.30175 -0.27517,-0.5715 -0.79375,-0.5715 -0.22225,0 -0.46567,0.0635 -0.24341,0.0635 -0.39158,0.179917 v 2.25425 q 0,0.508 0.29633,0.846667 0.30692,0.338666 0.71967,0.338666 z" />
    <path
       id="path996"
       style="font-style:normal;font-variant:normal;font-weight:bold;font-stretch:normal;font-family:'EB Garamond';-inkscape-font-specification:'EB Garamond Bold';text-align:center;text-anchor:middle;fill:#ffffff;stroke-width:0.26458332"
       d="m 156.96921,70.392304 q -0.0847,0 -0.0847,-0.105834 0,-0.148166 0.0318,-0.338666 l 0.0212,-0.328084 q 0,-0.09525 -0.0212,-0.116416 -0.29633,0.359833 -0.75142,0.592666 -0.4445,0.232834 -0.92075,0.232834 -0.49741,0 -0.83608,-0.423334 -0.32808,-0.433916 -0.32808,-1.068916 V 66.85747 q 0,-0.264583 -0.0952,-0.402166 -0.0952,-0.148167 -0.32809,-0.1905 -0.0635,-0.01058 -0.11641,-0.05292 -0.0423,-0.05292 -0.0423,-0.148167 0,-0.169333 0.15875,-0.179916 0.68792,-0.03175 1.53459,-0.254 0.0423,-0.01058 0.10583,-0.02117 0.0741,-0.02117 0.11642,-0.02117 0.14816,0 0.13758,0.148167 -0.0847,0.433917 -0.0847,0.814917 v 2.032 q 0,0.381 0.17992,0.613833 0.17992,0.232833 0.46567,0.243417 0.41275,0 0.64558,-0.232834 0.0847,-0.07408 0.14817,-0.232833 0.0635,-0.169333 0.0635,-0.423333 v -1.703917 q 0,-0.264583 -0.15875,-0.41275 -0.15875,-0.15875 -0.41275,-0.179917 -0.127,-0.01058 -0.1905,-0.0635 -0.0635,-0.05292 -0.0635,-0.169333 0,-0.105833 0.0741,-0.15875 0.0741,-0.05292 0.17992,-0.05292 0.80433,-0.05292 1.143,-0.08467 0.33866,-0.03175 0.635,-0.105834 0.127,-0.03175 0.13758,-0.03175 0.15875,0 0.15875,0.127 0,0.03175 -0.0423,0.15875 -0.0212,0.127 -0.0529,0.370417 -0.0212,0.243417 -0.0212,0.370417 v 2.455333 q 0,0.402167 0.1905,0.402167 l 0.29634,0.01058 q 0.0953,0 0.14816,0.05292 0.0529,0.05292 0.0529,0.137583 0,0.105833 -0.0423,0.15875 -0.0317,0.05292 -0.13759,0.0635 -0.78316,0.07408 -1.61925,0.423333 -0.0318,0.01058 -0.127,0.04233 -0.0847,0.03175 -0.14816,0.03175 z" />
    <path
       id="path998"
       style="font-style:normal;font-variant:normal;font-weight:bold;font-stretch:normal;font-family:'EB Garamond';-inkscape-font-specification:'EB Garamond Bold';text-align:center;text-anchor:middle;fill:#ffffff;stroke-width:0.26458332"
       d="m 159.57039,70.201804 q -0.0741,0 -0.14816,-0.04233 -0.0635,-0.04233 -0.0635,-0.105833 0,-0.127 0.24341,-0.211667 0.21167,-0.0635 0.30692,-0.137583 0.0952,-0.07408 0.0952,-0.264583 V 67.01622 q 0,-0.529166 -0.32808,-0.592666 -0.11642,-0.02117 -0.11642,-0.1905 0,-0.148167 0.10583,-0.179917 0.37042,-0.08467 0.80434,-0.232833 0.43391,-0.148167 0.71966,-0.296334 0.13759,-0.08467 0.1905,-0.08467 0.0952,0 0.0952,0.127 l -0.0212,0.211666 q -0.0317,0.381 -0.0317,0.391584 0,0.137583 0.0212,0.15875 0.39159,-0.370417 0.75142,-0.550334 0.37042,-0.179916 0.83608,-0.179916 0.5715,0 0.93134,0.41275 0.37041,0.41275 0.37041,1.100666 V 69.4398 q 0,0.1905 0.0953,0.264583 0.0952,0.07408 0.30692,0.137583 0.21167,0.07408 0.21167,0.211667 0,0.0635 -0.0529,0.105833 -0.0529,0.04233 -0.127,0.04233 -0.3175,0 -0.60325,-0.03175 -0.33867,-0.02117 -0.51858,-0.02117 -0.17992,0 -0.51859,0.02117 -0.26458,0.03175 -0.59266,0.03175 -0.0741,0 -0.127,-0.04233 -0.0529,-0.04233 -0.0529,-0.105833 0,-0.137583 0.21167,-0.211667 0.20108,-0.0635 0.28575,-0.137583 0.0847,-0.07408 0.0847,-0.264583 v -2.10608 q 0,-0.402166 -0.17991,-0.624416 -0.17992,-0.232834 -0.49742,-0.243417 -0.22225,0 -0.40217,0.07408 -0.17991,0.0635 -0.381,0.201084 -0.0847,0.07408 -0.0847,0.201083 v 2.497667 q 0,0.1905 0.0847,0.264583 0.0847,0.0635 0.29634,0.137583 0.21166,0.07408 0.21166,0.211667 0,0.0635 -0.0529,0.105833 -0.0529,0.04233 -0.127,0.04233 -0.3175,0 -0.5715,-0.03175 -0.33867,-0.02117 -0.508,-0.02117 -0.17992,0 -0.53975,0.02117 -0.28575,0.03175 -0.61384,0.03175 z" />
    <path
       id="path1000"
       style="font-style:normal;font-variant:normal;font-weight:bold;font-stretch:normal;font-family:'EB Garamond';-inkscape-font-specification:'EB Garamond Bold';text-align:center;text-anchor:middle;fill:#ffffff;stroke-width:0.26458332"
       d="m 167.28333,70.31822 q -0.68792,0 -1.04775,-0.34925 -0.34925,-0.34925 -0.34925,-1.005416 v -2.434167 q 0,-0.09525 -0.0741,-0.137583 -0.0741,-0.04233 -0.254,-0.05292 h -0.13758 q -0.0635,0 -0.11642,-0.116417 -0.0529,-0.116416 -0.0529,-0.22225 0,-0.07408 0.0635,-0.105833 0.52916,-0.1905 1.54516,-1.0795 0.0212,-0.02117 0.0741,-0.05292 0.0529,-0.04233 0.0952,-0.0635 0.0423,-0.02117 0.0953,-0.02117 0.10583,0 0.13758,0.04233 0.0318,0.04233 0.0212,0.169333 l -0.0635,0.624417 v 0.04233 q 0,0.179917 0.254,0.179917 h 1.25941 q 0.0318,0 0.0635,0.07408 0.0317,0.07408 0.0317,0.137584 0,0.15875 -0.0423,0.296333 -0.0423,0.127 -0.0952,0.127 h -0.98425 q -0.24342,0 -0.33867,0.0635 -0.0847,0.05292 -0.0847,0.201083 v 2.00025 q 0,0.47625 0.17991,0.719667 0.17992,0.243417 0.49742,0.243417 0.24342,0 0.37042,-0.03175 0.13758,-0.04233 0.22225,-0.08467 0.0953,-0.04233 0.11641,-0.05292 0.0423,-0.02117 0.0635,-0.02117 0.0529,0 0.0847,0.0635 0.0317,0.05292 0.0317,0.148166 0,0.07408 -0.24342,0.254 -0.23283,0.169334 -0.59266,0.306917 -0.35984,0.137583 -0.73025,0.137583 z" />
    <path
       id="path1002"
       style="font-style:normal;font-variant:normal;font-weight:bold;font-stretch:normal;font-family:'EB Garamond';-inkscape-font-specification:'EB Garamond Bold';text-align:center;text-anchor:middle;fill:#ffffff;stroke-width:0.26458332"
       d="m 172.59616,70.392304 q -0.0847,0 -0.0847,-0.105834 0,-0.148166 0.0317,-0.338666 l 0.0212,-0.328084 q 0,-0.09525 -0.0212,-0.116416 -0.29633,0.359833 -0.75141,0.592666 -0.4445,0.232834 -0.92075,0.232834 -0.49742,0 -0.83609,-0.423334 -0.32808,-0.433916 -0.32808,-1.068916 V 66.85747 q 0,-0.264583 -0.0952,-0.402166 -0.0952,-0.148167 -0.32808,-0.1905 -0.0635,-0.01058 -0.11642,-0.05292 -0.0423,-0.05292 -0.0423,-0.148167 0,-0.169333 0.15875,-0.179916 0.68791,-0.03175 1.53458,-0.254 0.0423,-0.01058 0.10583,-0.02117 0.0741,-0.02117 0.11642,-0.02117 0.14817,0 0.13758,0.148167 -0.0847,0.433917 -0.0847,0.814917 v 2.032 q 0,0.381 0.17991,0.613833 0.17992,0.232833 0.46567,0.243417 0.41275,0 0.64558,-0.232834 0.0847,-0.07408 0.14817,-0.232833 0.0635,-0.169333 0.0635,-0.423333 v -1.703917 q 0,-0.264583 -0.15875,-0.41275 -0.15875,-0.15875 -0.41275,-0.179917 -0.127,-0.01058 -0.1905,-0.0635 -0.0635,-0.05292 -0.0635,-0.169333 0,-0.105833 0.0741,-0.15875 0.0741,-0.05292 0.17992,-0.05292 0.80433,-0.05292 1.143,-0.08467 0.33867,-0.03175 0.635,-0.105834 0.127,-0.03175 0.13758,-0.03175 0.15875,0 0.15875,0.127 0,0.03175 -0.0423,0.15875 -0.0212,0.127 -0.0529,0.370417 -0.0212,0.243417 -0.0212,0.370417 v 2.455333 q 0,0.402167 0.1905,0.402167 l 0.29633,0.01058 q 0.0952,0 0.14817,0.05292 0.0529,0.05292 0.0529,0.137583 0,0.105833 -0.0423,0.15875 -0.0318,0.05292 -0.13758,0.0635 -0.78317,0.07408 -1.61925,0.423333 -0.0317,0.01058 -0.127,0.04233 -0.0847,0.03175 -0.14817,0.03175 z" />
  </g>
</svg>
