<?xml version="1.0" encoding="UTF-8" standalone="no"?>
<svg
   xmlns:dc="http://purl.org/dc/elements/1.1/"
   xmlns:cc="http://creativecommons.org/ns#"
   xmlns:rdf="http://www.w3.org/1999/02/22-rdf-syntax-ns#"
   xmlns:svg="http://www.w3.org/2000/svg"
   xmlns="http://www.w3.org/2000/svg"
   xmlns:xlink="http://www.w3.org/1999/xlink"
   id="svg3357"
   version="1.1"
   viewBox="0 0 211.40207 119.0625"
   height="119.0625mm"
   width="211.40207mm">
  <defs
     id="defs3351">
    <linearGradient
       id="linearGradient6114">
      <stop
         id="stop6110"
         offset="0"
         style="stop-color:#6f7c91;stop-opacity:1;" />
      <stop
         id="stop6112"
         offset="1"
         style="stop-color:#162d50;stop-opacity:1" />
    </linearGradient>
    <radialGradient
       gradientUnits="userSpaceOnUse"
       gradientTransform="matrix(3.0071285,0,0,1.83657,-125.12732,-58.151445)"
       r="31.67275"
       fy="66.986313"
       fx="73.77433"
       cy="66.986313"
       cx="73.77433"
       id="radialGradient6126"
       xlink:href="#linearGradient6114" />
  </defs>
  <metadata
     id="metadata3354">
    <rdf:RDF>
      <cc:Work
         rdf:about="">
        <dc:format>image/svg+xml</dc:format>
        <dc:type
           rdf:resource="http://purl.org/dc/dcmitype/StillImage" />
        <dc:title></dc:title>
      </cc:Work>
    </rdf:RDF>
  </metadata>
  <path
     style="opacity:1;fill:#c83737;fill-opacity:1;stroke:none;stroke-width:4.38045835;stroke-miterlimit:4;stroke-dasharray:none;paint-order:stroke markers fill"
     d="M 0,0 H 211.40207 V 119.0625 H 0 Z"
     id="rect6108" />
  <g
     transform="matrix(1.1097917,0,0,1.0234149,-1.6397721,-6.8613634)"
     style="font-style:normal;font-weight:normal;font-size:40px;line-height:1.25;font-family:sans-serif;letter-spacing:0px;word-spacing:0px;fill:#000000;fill-opacity:1;stroke:none"
     id="flowRoot874" />
  <g
     style="font-style:normal;font-weight:normal;font-size:40px;line-height:1.25;font-family:sans-serif;letter-spacing:0px;word-spacing:0px;fill:#000000;fill-opacity:1;stroke:none"
     id="flowRoot1087"
     transform="translate(-1.4775493,-3.9803138)" />
  <path
     id="rect815"
     d="m 27.019458,34.3215 h 50.071653 c 1.26634,0 2.285814,0.870605 2.285814,1.95203 v 47.095939 c 0,1.081427 -1.019474,1.95203 -2.285814,1.95203 H 27.019458 c -1.266341,0 -2.285814,-0.870603 -2.285814,-1.95203 V 36.27353 c 0,-1.081425 1.019473,-1.95203 2.285814,-1.95203 z"
     style="opacity:1;fill:#333366;fill-opacity:1;stroke:none;stroke-width:0.83657879;stroke-linecap:round;stroke-linejoin:round;stroke-miterlimit:4;stroke-dasharray:none;stroke-opacity:1;paint-order:stroke markers fill" />
  <path
     id="rect918"
     d="m 26.495794,34.3215 h 51.07241 c 1.002073,0 1.808793,0.688921 1.808793,1.544666 v 8.319077 c 0,0.855744 -0.80672,1.544665 -1.808793,1.544665 h -51.07241 c -1.002072,0 -1.808794,-0.688921 -1.808794,-1.544665 v -8.319077 c 0,-0.855745 0.806722,-1.544666 1.808794,-1.544666 z"
     style="opacity:1;fill:#666666;fill-opacity:1;stroke:none;stroke-width:0.74304688;stroke-linecap:round;stroke-linejoin:round;stroke-miterlimit:4;stroke-dasharray:none;stroke-opacity:1;paint-order:stroke markers fill" />
  <path
     id="rect817"
     d="m 41.051806,38.702394 h 22.006956 c 1.00207,0 1.808791,0.68892 1.808791,1.544664 0,0.855743 -0.806721,1.544663 -1.808791,1.544663 H 41.051806 c -1.00207,0 -1.808791,-0.68892 -1.808791,-1.544663 0,-0.855744 0.806721,-1.544664 1.808791,-1.544664 z"
     style="opacity:1;fill:#ffffff;fill-opacity:1;stroke:none;stroke-width:0.73056543;stroke-linecap:round;stroke-linejoin:round;stroke-miterlimit:4;stroke-dasharray:none;stroke-opacity:1;paint-order:stroke markers fill" />
  <path
     id="rect914"
     d="m 33.034094,70.107617 h 38.04238 c 0.652986,0 1.178675,0.448926 1.178675,1.006562 v 0.930596 c 0,0.557636 -0.525689,1.006561 -1.178675,1.006561 h -38.04238 c -0.652987,0 -1.178677,-0.448925 -1.178677,-1.006561 v -0.930596 c 0,-0.557636 0.52569,-1.006562 1.178677,-1.006562 z"
     style="opacity:1;fill:#ef2929;fill-opacity:1;stroke:none;stroke-width:0.74243265;stroke-linecap:round;stroke-linejoin:round;stroke-miterlimit:4;stroke-dasharray:none;stroke-opacity:1;paint-order:stroke markers fill" />
  <path
     id="rect916"
     d="m 33.034094,75.829231 h 38.04238 c 0.652986,0 1.178675,0.448925 1.178675,1.006562 v 0.930598 c 0,0.557633 -0.525689,1.006559 -1.178675,1.006559 h -38.04238 c -0.652987,0 -1.178677,-0.448926 -1.178677,-1.006559 v -0.930598 c 0,-0.557637 0.52569,-1.006562 1.178677,-1.006562 z"
     style="opacity:1;fill:#ef2929;fill-opacity:1;stroke:none;stroke-width:0.74243265;stroke-linecap:round;stroke-linejoin:round;stroke-miterlimit:4;stroke-dasharray:none;stroke-opacity:1;paint-order:stroke markers fill" />
  <g
     id="g164">
    <path
       d="m 33.631078,65.487375 q 0.834217,-0.09114 1.357647,-1.093681 0.539788,-1.01773 1.030504,-3.356994 l 1.586647,-7.670956 h 3.549511 L 39.568739,61.0367 q -0.605216,2.977245 -1.603004,4.146874 -0.523431,0.607602 -1.194076,0.850641 -0.654287,0.24304 -1.374004,0.24304 -0.719716,0 -1.177718,-0.24304 -0.474358,-0.243039 -0.588859,-0.54684 z"
       style="font-style:normal;font-variant:normal;font-weight:normal;font-stretch:normal;font-size:56.58139038px;line-height:1.25;font-family:'Sansita One';-inkscape-font-specification:'Sansita One';text-align:center;letter-spacing:0px;word-spacing:0px;text-anchor:middle;fill:#ffffff;fill-opacity:1;stroke:none;stroke-width:0.39407006"
       id="path1045" />
    <path
       d="m 42.209915,62.935454 q -0.376216,-0.394942 -0.556145,-1.017731 -0.163572,-0.622791 -0.163572,-1.640524 0,-1.01773 0.376216,-1.944319 0.376215,-0.926593 1.063217,-1.594953 1.406719,-1.397482 3.72944,-1.397482 0.834217,0 1.439433,0.258232 l 2.797079,-0.258232 -1.210431,5.924108 q -0.04907,0.182278 -0.04907,0.516458 0,0.33418 0.212644,0.546841 0.229,0.21266 0.556144,0.243039 -0.163572,0.516462 -0.768788,0.820262 -0.588859,0.303801 -1.259504,0.303801 -0.670645,0 -1.128646,-0.243039 -0.441644,-0.227853 -0.572502,-0.622792 -0.261715,0.379749 -0.817859,0.622792 -0.556145,0.243039 -1.308576,0.243039 -0.736073,0 -1.341289,-0.182281 -0.605217,-0.182281 -0.997789,-0.577219 z m 3.451367,-6.167148 q -0.179929,0.273422 -0.343501,0.744312 -0.163572,0.4557 -0.441644,1.701282 -0.261715,1.230391 -0.261715,2.111411 0,0.881021 0.147215,1.139253 0.147214,0.258229 0.40893,0.258229 0.52343,0 0.899645,-0.4557 0.392573,-0.470892 0.539788,-1.291151 l 0.866931,-4.450675 Q 47.13343,56.251848 46.7245,56.251848 q -0.392573,0 -0.637931,0.12152 -0.229,0.12152 -0.425287,0.394938 z"
       style="font-style:normal;font-variant:normal;font-weight:normal;font-stretch:normal;font-size:56.58139038px;line-height:1.25;font-family:'Sansita One';-inkscape-font-specification:'Sansita One';text-align:center;letter-spacing:0px;word-spacing:0px;text-anchor:middle;fill:#ffffff;fill-opacity:1;stroke:none;stroke-width:0.39407006"
       id="path1047" />
    <path
       d="m 57.731357,55.902475 q 0.539786,-0.56203 1.472146,-0.56203 0.572502,0 1.014147,0.288612 0.441642,0.288611 0.441642,0.835451 0,0.531648 -0.179928,1.108871 -0.17993,0.57722 -0.458001,1.169629 -0.556146,1.154442 -1.324932,2.111414 -1.079574,1.382289 -2.126435,2.111411 -1.030504,0.729121 -2.159151,0.729121 -0.916001,0 -1.472146,-0.19747 -0.09814,-3.189903 -0.229001,-4.329155 -0.1145,-1.13925 -0.212644,-1.762042 -0.163571,-1.2152 -0.654286,-1.503812 0.376215,-0.303798 0.736073,-0.425318 0.376215,-0.136712 1.128645,-0.136712 0.768789,0 1.308575,0.56203 0.539788,0.546841 0.637932,1.534192 0.1145,0.972161 0.1145,2.156982 0,1.184822 -0.09814,2.612683 0.507073,-0.33418 1.046861,-1.35191 0.736073,-1.412672 0.997787,-3.113954 0.08179,-0.516459 0.08179,-1.063299 0,-0.546841 -0.06543,-0.774694 z"
       style="font-style:normal;font-variant:normal;font-weight:normal;font-stretch:normal;font-size:56.58139038px;line-height:1.25;font-family:'Sansita One';-inkscape-font-specification:'Sansita One';text-align:center;letter-spacing:0px;word-spacing:0px;text-anchor:middle;fill:#ffffff;fill-opacity:1;stroke:none;stroke-width:0.39407006"
       id="path1049" />
    <path
       d="m 61.793819,62.935454 q -0.376214,-0.394942 -0.556145,-1.017731 -0.163571,-0.622791 -0.163571,-1.640524 0,-1.01773 0.376215,-1.944319 0.376215,-0.926593 1.063218,-1.594953 1.406718,-1.397482 3.72944,-1.397482 0.834217,0 1.439433,0.258232 l 2.79708,-0.258232 -1.210431,5.924108 q -0.04907,0.182278 -0.04907,0.516458 0,0.33418 0.212644,0.546841 0.229001,0.21266 0.556146,0.243039 -0.163574,0.516462 -0.76879,0.820262 -0.588858,0.303801 -1.259504,0.303801 -0.670643,0 -1.128645,-0.243039 -0.441645,-0.227853 -0.572502,-0.622792 -0.261714,0.379749 -0.81786,0.622792 -0.556145,0.243039 -1.308575,0.243039 -0.736073,0 -1.341291,-0.182281 -0.605216,-0.182281 -0.997788,-0.577219 z m 3.451367,-6.167148 q -0.179928,0.273422 -0.343501,0.744312 -0.163571,0.4557 -0.441642,1.701282 -0.261718,1.230391 -0.261718,2.111411 0,0.881021 0.147217,1.139253 0.147214,0.258229 0.408929,0.258229 0.523432,0 0.899646,-0.4557 0.392572,-0.470892 0.539786,-1.291151 l 0.866933,-4.450675 q -0.343501,-0.273419 -0.752433,-0.273419 -0.392571,0 -0.637929,0.12152 -0.229001,0.12152 -0.425288,0.394938 z"
       style="font-style:normal;font-variant:normal;font-weight:normal;font-stretch:normal;font-size:56.58139038px;line-height:1.25;font-family:'Sansita One';-inkscape-font-specification:'Sansita One';text-align:center;letter-spacing:0px;word-spacing:0px;text-anchor:middle;fill:#ffffff;fill-opacity:1;stroke:none;stroke-width:0.39407006"
       id="path1051" />
  </g>
  <g
     id="flowRoot43"
     style="font-style:normal;font-weight:normal;font-size:40px;line-height:1.25;font-family:sans-serif;letter-spacing:0px;word-spacing:0px;fill:#ffffff;fill-opacity:1;stroke:none"
     transform="matrix(0.55664386,0,0,0.49477852,298.42534,-4.6097238)"
     aria-label="Your first 
code in
Java">
    <path
       id="path63"
       style="font-style:italic;font-variant:normal;font-weight:500;font-stretch:normal;font-family:Ubuntu;-inkscape-font-specification:'Ubuntu Medium Italic';text-align:center;text-anchor:middle;fill:#ffffff"
       d="m -372.36355,72.319688 q 2.48,-3 4.8,-6 2.36,-3.04 4.4,-6.24 h 5.68 q -1.56,2.2 -3.12,4.28 -1.56,2.08 -3.2,4.16 -1.6,2.04 -3.32,4.08 -1.72,2.04 -3.56,4.16 l -2.64,11.04 h -5.04 l 2.64,-11.04 q -1.64,-4.2 -3,-8.32 -1.32,-4.16 -2.48,-8.36 h 5.36 q 0.68,3.08 1.56,6.16 0.88,3.08 1.92,6.08 z" />
    <path
       id="path65"
       style="font-style:italic;font-variant:normal;font-weight:500;font-stretch:normal;font-family:Ubuntu;-inkscape-font-specification:'Ubuntu Medium Italic';text-align:center;text-anchor:middle;fill:#ffffff"
       d="m -354.79543,88.359688 q -3.72,0 -5.68,-2.2 -1.96,-2.2 -1.96,-5.8 0,-2.32 0.72,-4.8 0.72,-2.48 2.2,-4.52 1.48,-2.04 3.72,-3.36 2.24,-1.32 5.28,-1.32 3.72,0 5.68,2.2 1.96,2.16 1.96,5.76 0,2.36 -0.72,4.84 -0.68,2.48 -2.16,4.52 -1.44,2.04 -3.72,3.36 -2.24,1.32 -5.32,1.32 z m 3.68,-17.92 q -1.56,0 -2.8,0.92 -1.2,0.88 -2.04,2.28 -0.8,1.4 -1.24,3.08 -0.44,1.64 -0.44,3.2 0,2 0.76,3.16 0.76,1.16 2.68,1.16 1.56,0 2.76,-0.88 1.24,-0.92 2.04,-2.28 0.84,-1.4 1.28,-3.08 0.44,-1.68 0.44,-3.2 0,-2 -0.76,-3.16 -0.76,-1.2 -2.68,-1.2 z" />
    <path
       id="path67"
       style="font-style:italic;font-variant:normal;font-weight:500;font-stretch:normal;font-family:Ubuntu;-inkscape-font-specification:'Ubuntu Medium Italic';text-align:center;text-anchor:middle;fill:#ffffff"
       d="m -319.49543,66.879688 -2.96,12.44 q -0.2,0.92 -0.32,1.84 -0.08,0.92 -0.08,1.84 0,1.16 0.16,2.28 0.2,1.12 0.64,2.2 l -4.32,0.64 q -0.24,-0.44 -0.44,-0.96 -0.16,-0.56 -0.32,-1.12 -1,0.8 -2.48,1.56 -1.48,0.72 -3.44,0.72 -1.76,0 -3,-0.52 -1.24,-0.52 -2.04,-1.4 -0.76,-0.92 -1.12,-2.12 -0.32,-1.24 -0.32,-2.6 0,-1.76 0.48,-3.8 l 2.64,-11 h 4.84 l -2.6,10.88 q -0.52,2.08 -0.52,3.4 0,0.64 0.12,1.2 0.12,0.56 0.4,1 0.32,0.4 0.84,0.64 0.56,0.24 1.36,0.24 1.32,0 2.36,-0.52 1.04,-0.56 1.92,-1.48 0.12,-1.72 0.56,-3.52 l 2.8,-11.84 z" />
    <path
       id="path69"
       style="font-style:italic;font-variant:normal;font-weight:500;font-stretch:normal;font-family:Ubuntu;-inkscape-font-specification:'Ubuntu Medium Italic';text-align:center;text-anchor:middle;fill:#ffffff"
       d="m -302.75918,71.159688 q -0.8,-0.28 -1.72,-0.44 -0.92,-0.16 -2.16,-0.16 -0.68,0 -1.44,0.12 -0.76,0.08 -1.28,0.24 l -4.04,16.88 h -4.84 l 4.8,-19.96 q 1.68,-0.56 3.64,-0.96 1.96,-0.44 4.24,-0.44 0.48,0 1.08,0.08 0.6,0.04 1.16,0.12 0.6,0.08 1.08,0.2 0.52,0.12 0.88,0.28 z" />
    <path
       id="path71"
       style="font-style:italic;font-variant:normal;font-weight:500;font-stretch:normal;font-family:Ubuntu;-inkscape-font-specification:'Ubuntu Medium Italic';text-align:center;text-anchor:middle;fill:#ffffff"
       d="m -272.20855,87.799688 h -4.8 l 5,-20.92 h 4.84 z m 3.6,-24.08 q -1.08,0 -1.88,-0.64 -0.8,-0.64 -0.8,-1.92 0,-1.48 1,-2.44 1.04,-0.96 2.36,-0.96 1.08,0 1.88,0.68 0.84,0.64 0.84,1.92 0,1.48 -1.04,2.44 -1.04,0.92 -2.36,0.92 z m -14.28,3.16 h 7 l -0.96,4 h -7 l -3,12.52 q -0.52,2.16 -1,3.84 -0.44,1.68 -1.04,3.08 -0.6,1.4 -1.44,2.6 -0.8,1.24 -2.04,2.44 l -4.2,-0.64 q 0.76,-0.96 1.4,-1.96 0.68,-0.96 1.2,-2.08 0.56,-1.08 1,-2.4 0.48,-1.28 0.84,-2.88 l 4.76,-20 q 0.48,-2.04 1.28,-3.64 0.84,-1.64 2.04,-2.72 1.24,-1.12 2.92,-1.68 1.72,-0.6 3.96,-0.6 1.4,0 2.52,0.28 1.12,0.24 1.8,0.56 l -1.8,3.8 q -0.36,-0.12 -1.04,-0.32 -0.68,-0.2 -1.76,-0.2 -1.2,0 -2.04,0.36 -0.84,0.32 -1.44,0.92 -0.6,0.6 -1,1.48 -0.36,0.84 -0.6,1.84 z" />
    <path
       id="path73"
       style="font-style:italic;font-variant:normal;font-weight:500;font-stretch:normal;font-family:Ubuntu;-inkscape-font-specification:'Ubuntu Medium Italic';text-align:center;text-anchor:middle;fill:#ffffff"
       d="m -250.6498,71.159688 q -0.8,-0.28 -1.72,-0.44 -0.92,-0.16 -2.16,-0.16 -0.68,0 -1.44,0.12 -0.76,0.08 -1.28,0.24 l -4.04,16.88 h -4.84 l 4.8,-19.96 q 1.68,-0.56 3.64,-0.96 1.96,-0.44 4.24,-0.44 0.48,0 1.08,0.08 0.6,0.04 1.16,0.12 0.6,0.08 1.08,0.2 0.52,0.12 0.88,0.28 z" />
    <path
       id="path75"
       style="font-style:italic;font-variant:normal;font-weight:500;font-stretch:normal;font-family:Ubuntu;-inkscape-font-specification:'Ubuntu Medium Italic';text-align:center;text-anchor:middle;fill:#ffffff"
       d="m -244.1523,84.399688 q 1.92,0 3.04,-0.6 1.12,-0.64 1.12,-1.92 0,-1.04 -0.72,-1.64 -0.72,-0.64 -2.52,-1.48 -0.96,-0.44 -1.8,-0.92 -0.8,-0.48 -1.4,-1.12 -0.6,-0.64 -0.96,-1.48 -0.36,-0.88 -0.36,-2.08 0,-3.12 2.28,-4.96 2.28,-1.84 6.6,-1.84 2,0 3.56,0.44 1.6,0.4 2.4,0.84 l -1.72,3.76 q -0.68,-0.4 -1.96,-0.76 -1.28,-0.4 -2.68,-0.4 -0.68,0 -1.36,0.12 -0.64,0.12 -1.16,0.4 -0.52,0.28 -0.88,0.8 -0.32,0.48 -0.32,1.2 0,0.92 0.72,1.52 0.76,0.56 2.16,1.2 1.32,0.6 2.24,1.16 0.92,0.56 1.52,1.28 0.6,0.68 0.88,1.56 0.28,0.84 0.28,2.04 0,1.48 -0.6,2.76 -0.6,1.24 -1.76,2.16 -1.12,0.88 -2.8,1.4 -1.68,0.52 -3.84,0.52 -1.48,0 -2.68,-0.2 -1.16,-0.2 -2.04,-0.44 -0.88,-0.28 -1.48,-0.56 -0.6,-0.28 -0.92,-0.48 l 1.72,-3.8 q 0.28,0.16 0.8,0.44 0.56,0.24 1.24,0.48 0.72,0.24 1.56,0.44 0.88,0.16 1.84,0.16 z" />
    <path
       id="path77"
       style="font-style:italic;font-variant:normal;font-weight:500;font-stretch:normal;font-family:Ubuntu;-inkscape-font-specification:'Ubuntu Medium Italic';text-align:center;text-anchor:middle;fill:#ffffff"
       d="m -226.8923,61.359688 5.04,-0.8 -1.52,6.32 h 6.84 l -0.96,4 h -6.84 l -2,8.28 q -0.2,0.88 -0.28,1.48 -0.08,0.56 -0.08,1.04 0,0.48 0.08,0.96 0.12,0.44 0.4,0.8 0.32,0.32 0.88,0.56 0.6,0.2 1.6,0.2 1.08,0 2.08,-0.28 1,-0.28 1.76,-0.6 l 0.36,3.88 q -0.92,0.4 -2.32,0.76 -1.4,0.36 -3.28,0.36 -3.44,0 -4.92,-1.48 -1.48,-1.52 -1.48,-4.12 0,-0.96 0.12,-1.96 0.16,-1.04 0.44,-2.2 z" />
    <path
       id="path79"
       style="font-style:italic;font-variant:normal;font-weight:500;font-stretch:normal;font-family:Ubuntu;-inkscape-font-specification:'Ubuntu Medium Italic';text-align:center;text-anchor:middle;fill:#ffffff"
       d="m -363.25574,131.78875 q 0,-2.72 0.84,-5.16 0.88,-2.48 2.48,-4.32 1.6,-1.88 3.92,-2.96 2.32,-1.08 5.28,-1.08 1.56,0 2.84,0.28 1.32,0.24 2.48,0.76 l -1.72,3.88 q -0.72,-0.32 -1.6,-0.56 -0.88,-0.24 -2.16,-0.24 -1.72,0 -3.12,0.72 -1.36,0.68 -2.32,1.88 -0.96,1.2 -1.48,2.84 -0.52,1.64 -0.52,3.48 0,1.04 0.2,1.92 0.24,0.84 0.72,1.52 0.52,0.64 1.4,1 0.88,0.36 2.2,0.36 1.36,0 2.6,-0.36 1.28,-0.36 1.96,-0.72 l 0.4,3.96 q -0.92,0.44 -2.44,0.84 -1.52,0.44 -3.44,0.44 -2.2,0 -3.8,-0.64 -1.6,-0.68 -2.68,-1.8 -1.04,-1.16 -1.56,-2.68 -0.48,-1.56 -0.48,-3.36 z" />
    <path
       id="path81"
       style="font-style:italic;font-variant:normal;font-weight:500;font-stretch:normal;font-family:Ubuntu;-inkscape-font-specification:'Ubuntu Medium Italic';text-align:center;text-anchor:middle;fill:#ffffff"
       d="m -337.72512,140.26875 q -3.72,0 -5.68,-2.2 -1.96,-2.2 -1.96,-5.8 0,-2.32 0.72,-4.8 0.72,-2.48 2.2,-4.52 1.48,-2.04 3.72,-3.36 2.24,-1.32 5.28,-1.32 3.72,0 5.68,2.2 1.96,2.16 1.96,5.76 0,2.36 -0.72,4.84 -0.68,2.48 -2.16,4.52 -1.44,2.04 -3.72,3.36 -2.24,1.32 -5.32,1.32 z m 3.68,-17.92 q -1.56,0 -2.8,0.92 -1.2,0.88 -2.04,2.28 -0.8,1.4 -1.24,3.08 -0.44,1.64 -0.44,3.2 0,2 0.76,3.16 0.76,1.16 2.68,1.16 1.56,0 2.76,-0.88 1.24,-0.92 2.04,-2.28 0.84,-1.4 1.28,-3.08 0.44,-1.68 0.44,-3.2 0,-2 -0.76,-3.16 -0.76,-1.2 -2.68,-1.2 z" />
    <path
       id="path83"
       style="font-style:italic;font-variant:normal;font-weight:500;font-stretch:normal;font-family:Ubuntu;-inkscape-font-specification:'Ubuntu Medium Italic';text-align:center;text-anchor:middle;fill:#ffffff"
       d="m -315.82512,140.26875 q -1.88,0 -3.24,-0.6 -1.36,-0.64 -2.24,-1.72 -0.84,-1.08 -1.24,-2.56 -0.4,-1.48 -0.4,-3.2 0,-2.68 0.92,-5.16 0.96,-2.52 2.68,-4.4 1.76,-1.92 4.28,-3.04 2.52,-1.16 5.72,-1.16 0.4,0 0.96,0.04 0.56,0.04 1.24,0.2 l 2.2,-9.2 5.04,-0.8 -5.48,22.68 q -0.2,0.92 -0.32,1.88 -0.08,0.92 -0.08,1.76 0,1.08 0.2,2.16 0.2,1.08 0.64,2.24 l -4.32,0.64 q -0.44,-0.84 -0.76,-2.04 -1,0.88 -2.44,1.6 -1.44,0.68 -3.36,0.68 z m 7.72,-17.68 q -0.76,-0.16 -1.84,-0.16 -1.84,0 -3.36,0.8 -1.52,0.76 -2.6,2.08 -1.08,1.28 -1.68,2.96 -0.56,1.68 -0.56,3.48 0,0.92 0.16,1.72 0.2,0.8 0.6,1.4 0.4,0.6 1.04,0.96 0.68,0.36 1.64,0.36 1.28,0 2.24,-0.52 1,-0.52 1.88,-1.44 0.04,-0.84 0.16,-1.76 0.16,-0.92 0.36,-1.8 z" />
    <path
       id="path85"
       style="font-style:italic;font-variant:normal;font-weight:500;font-stretch:normal;font-family:Ubuntu;-inkscape-font-specification:'Ubuntu Medium Italic';text-align:center;text-anchor:middle;fill:#ffffff"
       d="m -299.97449,132.14875 q 0,-2.68 0.84,-5.16 0.88,-2.52 2.48,-4.44 1.64,-1.96 3.92,-3.12 2.28,-1.16 5.12,-1.16 3.04,0 4.72,1.56 1.68,1.56 1.68,4 0,2.52 -1.24,4.08 -1.24,1.56 -3.24,2.44 -1.96,0.88 -4.48,1.2 -2.48,0.32 -5.04,0.4 -0.04,0.08 -0.04,0.16 v 0.4 q 0,3.64 4.6,3.64 2.72,0 5.44,-1.12 l 0.4,3.92 q -0.96,0.44 -2.72,0.88 -1.76,0.44 -4,0.44 -2.24,0 -3.84,-0.64 -1.6,-0.64 -2.64,-1.76 -1,-1.12 -1.48,-2.56 -0.48,-1.48 -0.48,-3.16 z m 11.64,-9.92 q -1.2,0 -2.28,0.48 -1.08,0.48 -1.92,1.32 -0.84,0.84 -1.48,2 -0.6,1.12 -0.88,2.44 4.8,-0.16 6.96,-1.16 2.2,-1 2.2,-3 0,-0.8 -0.6,-1.44 -0.56,-0.64 -2,-0.64 z" />
    <path
       id="path87"
       style="font-style:italic;font-variant:normal;font-weight:500;font-stretch:normal;font-family:Ubuntu;-inkscape-font-specification:'Ubuntu Medium Italic';text-align:center;text-anchor:middle;fill:#ffffff"
       d="m -265.74387,139.70875 h -4.8 l 5,-20.92 h 4.84 z m 3.6,-24.08 q -1.08,0 -1.88,-0.64 -0.8,-0.64 -0.8,-1.92 0,-1.48 1,-2.44 1.04,-0.96 2.36,-0.96 1.08,0 1.88,0.68 0.84,0.64 0.84,1.92 0,1.48 -1.04,2.44 -1.04,0.92 -2.36,0.92 z" />
    <path
       id="path89"
       style="font-style:italic;font-variant:normal;font-weight:500;font-stretch:normal;font-family:Ubuntu;-inkscape-font-specification:'Ubuntu Medium Italic';text-align:center;text-anchor:middle;fill:#ffffff"
       d="m -254.88449,119.66875 q 1.6,-0.48 3.64,-0.88 2.08,-0.44 4.52,-0.44 3.68,0 5.4,1.8 1.72,1.8 1.72,4.84 0,0.84 -0.16,1.8 -0.12,0.92 -0.32,1.92 l -2.64,11 h -4.84 l 2.48,-10.48 q 0.2,-0.88 0.4,-1.8 0.2,-0.92 0.24,-1.76 0.04,-1.4 -0.68,-2.32 -0.68,-0.92 -2.72,-0.92 -1.72,0 -2.96,0.36 l -4.04,16.92 h -4.84 z" />
    <path
       id="path91"
       style="font-style:italic;font-variant:normal;font-weight:500;font-stretch:normal;font-family:Ubuntu;-inkscape-font-specification:'Ubuntu Medium Italic';text-align:center;text-anchor:middle;fill:#ffffff"
       d="m -327.32105,182.9778 q -0.48,2 -1.2,3.72 -0.68,1.68 -1.88,2.92 -1.2,1.2 -3.04,1.92 -1.8,0.68 -4.56,0.68 -2.44,0 -4.32,-0.76 -1.88,-0.8 -2.92,-1.72 l 2.32,-3.8 q 0.8,0.68 2,1.32 1.2,0.6 3,0.6 1.24,0 2.16,-0.28 0.92,-0.32 1.56,-1 0.68,-0.68 1.16,-1.76 0.48,-1.08 0.84,-2.64 l 4.36,-18.28 h 5.08 z" />
    <path
       id="path93"
       style="font-style:italic;font-variant:normal;font-weight:500;font-stretch:normal;font-family:Ubuntu;-inkscape-font-specification:'Ubuntu Medium Italic';text-align:center;text-anchor:middle;fill:#ffffff"
       d="m -305.11543,183.4978 q -0.12,0.44 -0.24,1.44 -0.12,1 -0.12,1.88 0,1.16 0.2,2.28 0.2,1.08 0.64,2.2 l -4.32,0.64 q -0.48,-0.96 -0.76,-2.04 -1,0.88 -2.48,1.6 -1.44,0.68 -3.28,0.68 -1.88,0 -3.24,-0.6 -1.32,-0.64 -2.16,-1.72 -0.84,-1.12 -1.24,-2.6 -0.4,-1.48 -0.4,-3.2 0,-2.92 1.04,-5.44 1.04,-2.52 2.88,-4.36 1.88,-1.84 4.44,-2.88 2.56,-1.08 5.6,-1.08 1.56,0 3.12,0.28 1.6,0.24 3.2,0.96 z m -2.64,-9.04 q -0.76,-0.16 -1.72,-0.16 -1.8,0 -3.32,0.8 -1.52,0.76 -2.64,2.08 -1.08,1.28 -1.68,2.96 -0.6,1.68 -0.6,3.52 0,0.92 0.16,1.72 0.16,0.8 0.52,1.4 0.4,0.6 1.04,0.96 0.64,0.36 1.64,0.36 1.28,0 2.24,-0.52 1,-0.56 1.84,-1.48 0.04,-1.04 0.16,-1.96 0.16,-0.92 0.4,-1.84 z" />
    <path
       id="path95"
       style="font-style:italic;font-variant:normal;font-weight:500;font-stretch:normal;font-family:Ubuntu;-inkscape-font-specification:'Ubuntu Medium Italic';text-align:center;text-anchor:middle;fill:#ffffff"
       d="m -296.17168,191.6178 q -1,-4.08 -1.8,-9.44 -0.8,-5.4 -1.04,-11.48 h 4.96 q 0.04,1.76 0.12,3.8 0.12,2.04 0.28,4.12 0.16,2.04 0.36,3.96 0.24,1.92 0.52,3.48 1.04,-1.36 2.24,-3.24 1.2,-1.92 2.32,-4 1.12,-2.12 2.04,-4.24 0.92,-2.12 1.48,-3.88 h 5.04 q -0.96,2.76 -2.4,5.68 -1.44,2.92 -3.12,5.68 -1.68,2.76 -3.48,5.24 -1.76,2.48 -3.36,4.32 z" />
    <path
       id="path97"
       style="font-style:italic;font-variant:normal;font-weight:500;font-stretch:normal;font-family:Ubuntu;-inkscape-font-specification:'Ubuntu Medium Italic';text-align:center;text-anchor:middle;fill:#ffffff"
       d="m -262.30293,183.4978 q -0.12,0.44 -0.24,1.44 -0.12,1 -0.12,1.88 0,1.16 0.2,2.28 0.2,1.08 0.64,2.2 l -4.32,0.64 q -0.48,-0.96 -0.76,-2.04 -1,0.88 -2.48,1.6 -1.44,0.68 -3.28,0.68 -1.88,0 -3.24,-0.6 -1.32,-0.64 -2.16,-1.72 -0.84,-1.12 -1.24,-2.6 -0.4,-1.48 -0.4,-3.2 0,-2.92 1.04,-5.44 1.04,-2.52 2.88,-4.36 1.88,-1.84 4.44,-2.88 2.56,-1.08 5.6,-1.08 1.56,0 3.12,0.28 1.6,0.24 3.2,0.96 z m -2.64,-9.04 q -0.76,-0.16 -1.72,-0.16 -1.8,0 -3.32,0.8 -1.52,0.76 -2.64,2.08 -1.08,1.28 -1.68,2.96 -0.6,1.68 -0.6,3.52 0,0.92 0.16,1.72 0.16,0.8 0.52,1.4 0.4,0.6 1.04,0.96 0.64,0.36 1.64,0.36 1.28,0 2.24,-0.52 1,-0.56 1.84,-1.48 0.04,-1.04 0.16,-1.96 0.16,-0.92 0.4,-1.84 z" />
  </g>
</svg>
