<?xml version="1.0" encoding="UTF-8" standalone="no"?>
<svg
   xmlns:dc="http://purl.org/dc/elements/1.1/"
   xmlns:cc="http://creativecommons.org/ns#"
   xmlns:rdf="http://www.w3.org/1999/02/22-rdf-syntax-ns#"
   xmlns:svg="http://www.w3.org/2000/svg"
   xmlns="http://www.w3.org/2000/svg"
   xmlns:xlink="http://www.w3.org/1999/xlink"
   id="svg3357"
   version="1.1"
   viewBox="0 0 211.40207 119.0625"
   height="119.0625mm"
   width="211.40207mm">
  <defs
     id="defs3351">
    <linearGradient
       id="linearGradient6114">
      <stop
         id="stop6110"
         offset="0"
         style="stop-color:#6f7c91;stop-opacity:1;" />
      <stop
         id="stop6112"
         offset="1"
         style="stop-color:#162d50;stop-opacity:1" />
    </linearGradient>
    <radialGradient
       gradientUnits="userSpaceOnUse"
       gradientTransform="matrix(3.0071285,0,0,1.83657,-125.12732,-58.151445)"
       r="31.67275"
       fy="66.986313"
       fx="73.77433"
       cy="66.986313"
       cx="73.77433"
       id="radialGradient6126"
       xlink:href="#linearGradient6114" />
  </defs>
  <metadata
     id="metadata3354">
    <rdf:RDF>
      <cc:Work
         rdf:about="">
        <dc:format>image/svg+xml</dc:format>
        <dc:type
           rdf:resource="http://purl.org/dc/dcmitype/StillImage" />
        <dc:title></dc:title>
      </cc:Work>
    </rdf:RDF>
  </metadata>
  <g
     transform="translate(-1.4775493,-3.9803138)"
     style="display:inline"
     id="layer1">
    <path
       id="rect6108"
       d="M 1.4775493,3.9803138 H 212.87962 V 123.04281 H 1.4775493 Z"
       style="opacity:1;fill:#c83737;fill-opacity:1;stroke:none;stroke-width:4.38045835;stroke-miterlimit:4;stroke-dasharray:none;paint-order:stroke markers fill" />
    <g
       id="flowRoot874"
       style="font-style:normal;font-weight:normal;font-size:40px;line-height:1.25;font-family:sans-serif;letter-spacing:0px;word-spacing:0px;fill:#000000;fill-opacity:1;stroke:none"
       transform="matrix(1.1097917,0,0,1.0234149,-0.16222283,-2.8810496)" />
    <g
       id="flowRoot1087"
       style="font-style:normal;font-weight:normal;font-size:40px;line-height:1.25;font-family:sans-serif;letter-spacing:0px;word-spacing:0px;fill:#000000;fill-opacity:1;stroke:none" />
    <g
       transform="matrix(0.30146514,0,0,0.2574439,22.285899,29.772509)"
       id="layer1-6"
       style="display:inline">
      <path
         id="rect815"
         d="M 20.603072,33.130733 H 186.69741 c 4.20062,0 7.58235,3.381728 7.58235,7.58235 V 223.64979 c 0,4.20063 -3.38173,7.58235 -7.58235,7.58235 H 20.603072 c -4.200622,0 -7.58235,-3.38172 -7.58235,-7.58235 V 40.713083 c 0,-4.200622 3.381728,-7.58235 7.58235,-7.58235 z"
         style="opacity:1;fill:#ffcc00;fill-opacity:1;stroke:none;stroke-width:3.00294232;stroke-linecap:round;stroke-linejoin:round;stroke-miterlimit:4;stroke-dasharray:none;stroke-opacity:1;paint-order:stroke markers fill" />
      <path
         id="rect918"
         d="M 18.866009,33.130733 H 188.27999 c 3.32401,0 6.00001,2.676005 6.00001,6.00001 v 32.314133 c 0,3.324005 -2.676,6.000009 -6.00001,6.000009 H 18.866009 c -3.324005,0 -6.000009,-2.676004 -6.000009,-6.000009 V 39.130743 c 0,-3.324005 2.676004,-6.00001 6.000009,-6.00001 z"
         style="opacity:1;fill:#666666;fill-opacity:1;stroke:none;stroke-width:2.66720486;stroke-linecap:round;stroke-linejoin:round;stroke-miterlimit:4;stroke-dasharray:none;stroke-opacity:1;paint-order:stroke markers fill" />
      <path
         id="rect817"
         d="m 67.150238,50.147621 h 73.000002 c 3.324,0 6,2.676 6,6 0,3.324 -2.676,6 -6,6 H 67.150238 c -3.324,0 -6,-2.676 -6,-6 0,-3.324 2.676,-6 6,-6 z"
         style="opacity:1;fill:#ffffff;fill-opacity:1;stroke:none;stroke-width:2.62240195;stroke-linecap:round;stroke-linejoin:round;stroke-miterlimit:4;stroke-dasharray:none;stroke-opacity:1;paint-order:stroke markers fill" />
      <path
         id="rect914"
         d="m 40.55442,172.13623 h 126.19164 c 2.16604,0 3.90982,1.74378 3.90982,3.90983 v 3.61475 c 0,2.16605 -1.74378,3.90983 -3.90982,3.90983 H 40.55442 c -2.166045,0 -3.909828,-1.74378 -3.909828,-3.90983 v -3.61475 c 0,-2.16605 1.743783,-3.90983 3.909828,-3.90983 z"
         style="opacity:1;fill:#ef2929;fill-opacity:1;stroke:none;stroke-width:2.66499996;stroke-linecap:round;stroke-linejoin:round;stroke-miterlimit:4;stroke-dasharray:none;stroke-opacity:1;paint-order:stroke markers fill" />
      <path
         id="rect916"
         d="m 40.55442,194.36093 h 126.19164 c 2.16604,0 3.90982,1.74378 3.90982,3.90983 v 3.61476 c 0,2.16604 -1.74378,3.90982 -3.90982,3.90982 H 40.55442 c -2.166045,0 -3.909828,-1.74378 -3.909828,-3.90982 v -3.61476 c 0,-2.16605 1.743783,-3.90983 3.909828,-3.90983 z"
         style="opacity:1;fill:#ef2929;fill-opacity:1;stroke:none;stroke-width:2.66499996;stroke-linecap:round;stroke-linejoin:round;stroke-miterlimit:4;stroke-dasharray:none;stroke-opacity:1;paint-order:stroke markers fill" />
      <g
         id="g900"
         transform="translate(2.8394891,-0.48188993)">
        <g
           id="text878"
           style="font-style:normal;font-weight:normal;font-size:56.58139038px;line-height:1.25;font-family:sans-serif;text-align:center;letter-spacing:0px;word-spacing:0px;text-anchor:middle;fill:#16502d;fill-opacity:1;stroke:#16502d;stroke-width:6.15733385;stroke-linecap:round;stroke-linejoin:round;stroke-miterlimit:4;stroke-dasharray:none;stroke-opacity:1"
           transform="scale(0.9589546,1.0428022)"
           aria-label="Java">
          <path
             id="path1036"
             style="font-style:normal;font-variant:normal;font-weight:normal;font-stretch:normal;font-family:'Sansita One';-inkscape-font-specification:'Sansita One';text-align:center;text-anchor:middle;fill:#16502d;stroke:#16502d;stroke-width:6.15733385;stroke-linecap:round;stroke-linejoin:round;stroke-miterlimit:4;stroke-dasharray:none;stroke-opacity:1"
             d="m 41.394252,148.32297 q 2.885651,-0.33949 4.696255,-4.07386 1.867186,-3.79095 3.564628,-12.50449 l 5.488395,-28.5736 h 12.278162 l -5.488395,28.5736 q -2.093512,11.08996 -5.544976,15.44672 -1.810605,2.26326 -4.130442,3.16856 -2.263256,0.9053 -4.752837,0.9053 -2.489581,0 -4.07386,-0.9053 -1.64086,-0.9053 -2.03693,-2.03693 z" />
          <path
             id="path1038"
             style="font-style:normal;font-variant:normal;font-weight:normal;font-stretch:normal;font-family:'Sansita One';-inkscape-font-specification:'Sansita One';text-align:center;text-anchor:middle;fill:#16502d;stroke:#16502d;stroke-width:6.15733385;stroke-linecap:round;stroke-linejoin:round;stroke-miterlimit:4;stroke-dasharray:none;stroke-opacity:1"
             d="m 71.069424,138.8173 q -1.301372,-1.47112 -1.923767,-3.79095 -0.565814,-2.31984 -0.565814,-6.1108 0,-3.79095 1.301372,-7.24241 1.301372,-3.45147 3.67779,-5.94105 4.866,-5.20549 12.900557,-5.20549 2.885651,0 4.979163,0.96189 l 9.675415,-0.96189 -4.187021,22.06675 q -0.169744,0.67897 -0.169744,1.92376 0,1.24479 0.735558,2.03693 0.79214,0.79214 1.923768,0.9053 -0.565814,1.92377 -2.659326,3.0554 -2.03693,1.13163 -4.356767,1.13163 -2.319837,0 -3.904116,-0.9053 -1.527697,-0.84873 -1.980348,-2.31984 -0.905303,1.41453 -2.82907,2.31984 -1.923767,0.9053 -4.526511,0.9053 -2.546163,0 -4.639674,-0.67898 -2.093512,-0.67898 -3.451465,-2.15009 z m 11.938673,-22.97205 q -0.622395,1.01847 -1.188209,2.77249 -0.565814,1.69744 -1.527697,6.33712 -0.905303,4.58309 -0.905303,7.86481 0,3.28172 0.509233,4.24361 0.509232,0.96188 1.414535,0.96188 1.810604,0 3.111976,-1.69744 1.357953,-1.75403 1.867186,-4.80942 l 2.998814,-16.57835 q -1.18821,-1.01846 -2.602744,-1.01846 -1.357954,0 -2.206675,0.45265 -0.792139,0.45265 -1.471116,1.47111 z" />
          <path
             id="path1040"
             style="font-style:normal;font-variant:normal;font-weight:normal;font-stretch:normal;font-family:'Sansita One';-inkscape-font-specification:'Sansita One';text-align:center;text-anchor:middle;fill:#16502d;stroke:#16502d;stroke-width:6.15733385;stroke-linecap:round;stroke-linejoin:round;stroke-miterlimit:4;stroke-dasharray:none;stroke-opacity:1"
             d="m 124.75986,112.62011 q 1.86718,-2.09351 5.09232,-2.09351 1.98035,0 3.50805,1.07505 1.52769,1.07505 1.52769,3.11198 0,1.98034 -0.62239,4.13044 -0.6224,2.15009 -1.58428,4.35676 -1.92377,4.30019 -4.58309,7.86482 -3.73437,5.1489 -7.35558,7.86481 -3.56463,2.71591 -7.46875,2.71591 -3.16855,0 -5.09232,-0.73556 -0.33949,-11.88209 -0.79214,-16.1257 -0.39607,-4.2436 -0.73556,-6.56344 -0.56581,-4.52651 -2.26325,-5.60156 1.30137,-1.13162 2.54616,-1.58427 1.30137,-0.50924 3.90411,-0.50924 2.65933,0 4.52651,2.09351 1.86719,2.03693 2.20668,5.71472 0.39607,3.62121 0.39607,8.03456 0,4.41335 -0.33949,9.732 1.75402,-1.24479 3.62121,-5.03574 2.54616,-5.26207 3.45146,-11.59919 0.28291,-1.92376 0.28291,-3.96069 0,-2.03693 -0.22632,-2.88566 z" />
          <path
             id="path1042"
             style="font-style:normal;font-variant:normal;font-weight:normal;font-stretch:normal;font-family:'Sansita One';-inkscape-font-specification:'Sansita One';text-align:center;text-anchor:middle;fill:#16502d;stroke:#16502d;stroke-width:6.15733385;stroke-linecap:round;stroke-linejoin:round;stroke-miterlimit:4;stroke-dasharray:none;stroke-opacity:1"
             d="m 138.81238,138.8173 q -1.30137,-1.47112 -1.92377,-3.79095 -0.56581,-2.31984 -0.56581,-6.1108 0,-3.79095 1.30137,-7.24241 1.30137,-3.45147 3.67779,-5.94105 4.866,-5.20549 12.90056,-5.20549 2.88565,0 4.97916,0.96189 l 9.67542,-0.96189 -4.18702,22.06675 q -0.16975,0.67897 -0.16975,1.92376 0,1.24479 0.73556,2.03693 0.79214,0.79214 1.92377,0.9053 -0.56582,1.92377 -2.65933,3.0554 -2.03693,1.13163 -4.35677,1.13163 -2.31983,0 -3.90411,-0.9053 -1.5277,-0.84873 -1.98035,-2.31984 -0.9053,1.41453 -2.82907,2.31984 -1.92377,0.9053 -4.52651,0.9053 -2.54616,0 -4.63968,-0.67898 -2.09351,-0.67898 -3.45146,-2.15009 z m 11.93867,-22.97205 q -0.62239,1.01847 -1.18821,2.77249 -0.56581,1.69744 -1.52769,6.33712 -0.90531,4.58309 -0.90531,7.86481 0,3.28172 0.50924,4.24361 0.50923,0.96188 1.41453,0.96188 1.81061,0 3.11198,-1.69744 1.35795,-1.75403 1.86718,-4.80942 l 2.99882,-16.57835 q -1.18821,-1.01846 -2.60275,-1.01846 -1.35795,0 -2.20667,0.45265 -0.79214,0.45265 -1.47112,1.47111 z" />
        </g>
        <g
           id="text866"
           style="font-style:normal;font-weight:normal;font-size:56.58139038px;line-height:1.25;font-family:sans-serif;text-align:center;letter-spacing:0px;word-spacing:0px;text-anchor:middle;fill:#ffffff;fill-opacity:1;stroke:none;stroke-width:1.41453469"
           transform="scale(0.9589546,1.0428022)"
           aria-label="Java">
          <path
             id="path1045"
             style="font-style:normal;font-variant:normal;font-weight:normal;font-stretch:normal;font-family:'Sansita One';-inkscape-font-specification:'Sansita One';text-align:center;text-anchor:middle;fill:#ffffff;stroke-width:1.41453469"
             d="m 41.394252,148.32297 q 2.885651,-0.33949 4.696255,-4.07386 1.867186,-3.79095 3.564628,-12.50449 l 5.488395,-28.5736 h 12.278162 l -5.488395,28.5736 q -2.093512,11.08996 -5.544976,15.44672 -1.810605,2.26326 -4.130442,3.16856 -2.263256,0.9053 -4.752837,0.9053 -2.489581,0 -4.07386,-0.9053 -1.64086,-0.9053 -2.03693,-2.03693 z" />
          <path
             id="path1047"
             style="font-style:normal;font-variant:normal;font-weight:normal;font-stretch:normal;font-family:'Sansita One';-inkscape-font-specification:'Sansita One';text-align:center;text-anchor:middle;fill:#ffffff;stroke-width:1.41453469"
             d="m 71.069424,138.8173 q -1.301372,-1.47112 -1.923767,-3.79095 -0.565814,-2.31984 -0.565814,-6.1108 0,-3.79095 1.301372,-7.24241 1.301372,-3.45147 3.67779,-5.94105 4.866,-5.20549 12.900557,-5.20549 2.885651,0 4.979163,0.96189 l 9.675415,-0.96189 -4.187021,22.06675 q -0.169744,0.67897 -0.169744,1.92376 0,1.24479 0.735558,2.03693 0.79214,0.79214 1.923768,0.9053 -0.565814,1.92377 -2.659326,3.0554 -2.03693,1.13163 -4.356767,1.13163 -2.319837,0 -3.904116,-0.9053 -1.527697,-0.84873 -1.980348,-2.31984 -0.905303,1.41453 -2.82907,2.31984 -1.923767,0.9053 -4.526511,0.9053 -2.546163,0 -4.639674,-0.67898 -2.093512,-0.67898 -3.451465,-2.15009 z m 11.938673,-22.97205 q -0.622395,1.01847 -1.188209,2.77249 -0.565814,1.69744 -1.527697,6.33712 -0.905303,4.58309 -0.905303,7.86481 0,3.28172 0.509233,4.24361 0.509232,0.96188 1.414535,0.96188 1.810604,0 3.111976,-1.69744 1.357953,-1.75403 1.867186,-4.80942 l 2.998814,-16.57835 q -1.18821,-1.01846 -2.602744,-1.01846 -1.357954,0 -2.206675,0.45265 -0.792139,0.45265 -1.471116,1.47111 z" />
          <path
             id="path1049"
             style="font-style:normal;font-variant:normal;font-weight:normal;font-stretch:normal;font-family:'Sansita One';-inkscape-font-specification:'Sansita One';text-align:center;text-anchor:middle;fill:#ffffff;stroke-width:1.41453469"
             d="m 124.75986,112.62011 q 1.86718,-2.09351 5.09232,-2.09351 1.98035,0 3.50805,1.07505 1.52769,1.07505 1.52769,3.11198 0,1.98034 -0.62239,4.13044 -0.6224,2.15009 -1.58428,4.35676 -1.92377,4.30019 -4.58309,7.86482 -3.73437,5.1489 -7.35558,7.86481 -3.56463,2.71591 -7.46875,2.71591 -3.16855,0 -5.09232,-0.73556 -0.33949,-11.88209 -0.79214,-16.1257 -0.39607,-4.2436 -0.73556,-6.56344 -0.56581,-4.52651 -2.26325,-5.60156 1.30137,-1.13162 2.54616,-1.58427 1.30137,-0.50924 3.90411,-0.50924 2.65933,0 4.52651,2.09351 1.86719,2.03693 2.20668,5.71472 0.39607,3.62121 0.39607,8.03456 0,4.41335 -0.33949,9.732 1.75402,-1.24479 3.62121,-5.03574 2.54616,-5.26207 3.45146,-11.59919 0.28291,-1.92376 0.28291,-3.96069 0,-2.03693 -0.22632,-2.88566 z" />
          <path
             id="path1051"
             style="font-style:normal;font-variant:normal;font-weight:normal;font-stretch:normal;font-family:'Sansita One';-inkscape-font-specification:'Sansita One';text-align:center;text-anchor:middle;fill:#ffffff;stroke-width:1.41453469"
             d="m 138.81238,138.8173 q -1.30137,-1.47112 -1.92377,-3.79095 -0.56581,-2.31984 -0.56581,-6.1108 0,-3.79095 1.30137,-7.24241 1.30137,-3.45147 3.67779,-5.94105 4.866,-5.20549 12.90056,-5.20549 2.88565,0 4.97916,0.96189 l 9.67542,-0.96189 -4.18702,22.06675 q -0.16975,0.67897 -0.16975,1.92376 0,1.24479 0.73556,2.03693 0.79214,0.79214 1.92377,0.9053 -0.56582,1.92377 -2.65933,3.0554 -2.03693,1.13163 -4.35677,1.13163 -2.31983,0 -3.90411,-0.9053 -1.5277,-0.84873 -1.98035,-2.31984 -0.9053,1.41453 -2.82907,2.31984 -1.92377,0.9053 -4.52651,0.9053 -2.54616,0 -4.63968,-0.67898 -2.09351,-0.67898 -3.45146,-2.15009 z m 11.93867,-22.97205 q -0.62239,1.01847 -1.18821,2.77249 -0.56581,1.69744 -1.52769,6.33712 -0.90531,4.58309 -0.90531,7.86481 0,3.28172 0.50924,4.24361 0.50923,0.96188 1.41453,0.96188 1.81061,0 3.11198,-1.69744 1.35795,-1.75403 1.86718,-4.80942 l 2.99882,-16.57835 q -1.18821,-1.01846 -2.60275,-1.01846 -1.35795,0 -2.20667,0.45265 -0.79214,0.45265 -1.47112,1.47111 z" />
        </g>
      </g>
    </g>
    <g
       id="g1026">
      <g
         id="text948"
         style="font-style:normal;font-weight:normal;font-size:19.03845406px;line-height:1.25;font-family:sans-serif;text-align:center;letter-spacing:0px;word-spacing:0px;text-anchor:middle;fill:#aa0000;fill-opacity:1;stroke:#aa0000;stroke-width:2.35500002;stroke-miterlimit:4;stroke-dasharray:none"
         transform="scale(1.0727429,0.93218979)"
         aria-label="Your first
Java
Code!">
        <path
           id="path1054"
           style="font-style:normal;font-variant:normal;font-weight:normal;font-stretch:normal;font-family:'Sansita One';-inkscape-font-specification:'Sansita One';text-align:center;text-anchor:middle;fill:#aa0000;stroke:#aa0000;stroke-width:2.35500002;stroke-miterlimit:4;stroke-dasharray:none"
           d="m 90.923937,42.976013 q -0.552115,-5.159421 -2.494037,-6.263651 0.399807,-0.495 1.047115,-0.761539 0.647307,-0.285576 1.427884,-0.285576 0.780576,0 1.370768,0.285576 0.590193,0.266539 0.970962,0.856731 0.723461,1.123269 0.723461,3.807691 v 1.370768 q 1.142307,-3.350768 2.284614,-4.79769 1.161346,-1.484999 2.608269,-1.484999 0.571153,0 0.951922,0.304615 0.380765,0.285577 0.571155,0.723461 -1.465962,0.647307 -2.874808,2.513076 -1.408845,1.865768 -2.322691,4.474037 l -1.123269,4.854805 h -4.245575 z" />
        <path
           id="path1056"
           style="font-style:normal;font-variant:normal;font-weight:normal;font-stretch:normal;font-family:'Sansita One';-inkscape-font-specification:'Sansita One';text-align:center;text-anchor:middle;fill:#aa0000;stroke:#aa0000;stroke-width:2.35500002;stroke-miterlimit:4;stroke-dasharray:none"
           d="m 102.57309,48.954088 q -4.188459,0 -4.188459,-3.94096 0,-2.798653 1.542115,-4.607306 1.637304,-1.922884 4.474034,-1.922884 2.05616,0 3.10327,0.951923 1.04712,0.951922 1.04712,2.95096 0,3.046153 -1.63731,4.816729 -1.59923,1.751538 -4.34077,1.751538 z m 0.495,-8.281728 q -0.22846,0.514038 -0.41884,1.294615 -0.17135,0.761538 -0.39981,1.979999 -0.22846,1.218461 -0.22846,2.722499 0,0.495 0.1523,0.818654 0.17135,0.323653 0.60923,0.323653 0.43789,0 0.70443,-0.209423 0.28557,-0.209423 0.495,-0.704422 0.38077,-0.875769 0.68538,-2.494038 0.30462,-1.637307 0.32365,-2.34173 0.0381,-0.704423 0.0381,-1.218461 0,-0.533077 -0.15231,-0.875769 -0.1523,-0.342692 -0.59019,-0.342692 -0.41884,0 -0.70442,0.266538 -0.28558,0.266539 -0.51404,0.780577 z" />
        <path
           id="path1058"
           style="font-style:normal;font-variant:normal;font-weight:normal;font-stretch:normal;font-family:'Sansita One';-inkscape-font-specification:'Sansita One';text-align:center;text-anchor:middle;fill:#aa0000;stroke:#aa0000;stroke-width:2.35500002;stroke-miterlimit:4;stroke-dasharray:none"
           d="m 115.80095,47.773703 q -0.91385,1.180385 -3.17942,1.180385 -1.18039,0 -2.03712,-0.704423 -0.85673,-0.723461 -0.85673,-1.751538 0,-0.571154 0.0571,-0.85673 l 1.27557,-6.77769 3.86481,-0.380769 -1.38981,7.348843 q -0.0761,0.418846 -0.0761,0.666346 0,1.10423 0.66634,1.10423 0.7425,0 1.27558,-1.009038 0.17135,-0.323653 0.2475,-0.742499 l 1.35173,-6.987113 3.75058,-0.380769 -1.40885,7.424997 q -0.0571,0.285577 -0.0571,0.590192 0,0.304615 0.17134,0.647307 0.17135,0.323654 0.72346,0.399808 -0.11423,0.456923 -0.51404,0.761538 -0.83769,0.647308 -1.75153,0.647308 -0.89481,0 -1.42789,-0.323654 -0.53307,-0.323654 -0.68538,-0.856731 z" />
        <path
           id="path1060"
           style="font-style:normal;font-variant:normal;font-weight:normal;font-stretch:normal;font-family:'Sansita One';-inkscape-font-specification:'Sansita One';text-align:center;text-anchor:middle;fill:#aa0000;stroke:#aa0000;stroke-width:2.35500002;stroke-miterlimit:4;stroke-dasharray:none"
           d="m 127.7336,43.223513 q 0.68538,-1.218461 0.68538,-2.455961 0,-0.818653 -0.59019,-0.818653 -0.45692,0 -0.93288,0.780576 -0.495,0.780577 -0.64731,1.789615 l -0.99,6.054228 -3.94096,0.38077 1.94192,-10.090381 3.14135,-0.380769 -0.3427,1.922884 q 0.93289,-1.922884 3.02712,-1.922884 1.10423,0 1.69442,0.571153 0.60923,0.571154 0.60923,1.751538 0,1.161346 -0.78058,1.903846 -0.76153,0.742499 -2.07519,0.742499 -0.57115,0 -0.79961,-0.228461 z" />
        <path
           id="path1062"
           style="font-style:normal;font-variant:normal;font-weight:normal;font-stretch:normal;font-family:'Sansita One';-inkscape-font-specification:'Sansita One';text-align:center;text-anchor:middle;fill:#aa0000;stroke:#aa0000;stroke-width:2.35500002;stroke-miterlimit:4;stroke-dasharray:none"
           d="m 143.03219,37.531015 q 0.26653,-0.456923 0.26653,-0.951923 0,-0.875768 -0.53307,-0.875768 -0.81866,0 -1.16135,1.675383 l -0.28558,1.485 h 1.7325 l -0.11423,0.85673 h -1.78961 l -1.71346,8.852881 -3.84577,0.38077 1.82769,-9.233651 h -1.35173 l 0.17135,-0.85673 h 1.33269 l 0.39981,-1.504038 q 0.34269,-1.389807 1.80865,-2.037115 1.06615,-0.456922 2.85577,-0.456922 1.78961,0 2.58923,0.456922 0.79961,0.456923 0.79961,1.066154 0,0.60923 -0.47596,0.989999 -0.47596,0.38077 -1.00904,0.38077 -1.04711,0 -1.50403,-0.228462 z" />
        <path
           id="path1064"
           style="font-style:normal;font-variant:normal;font-weight:normal;font-stretch:normal;font-family:'Sansita One';-inkscape-font-specification:'Sansita One';text-align:center;text-anchor:middle;fill:#aa0000;stroke:#aa0000;stroke-width:2.35500002;stroke-miterlimit:4;stroke-dasharray:none"
           d="m 149.10069,47.526204 q -0.59019,1.427884 -2.475,1.427884 -0.97096,0 -1.58019,-0.666346 -0.51404,-0.590192 -0.51404,-1.180384 0,-1.542115 0.70443,-4.550191 l 0.70442,-3.69346 3.8648,-0.380769 -1.16134,6.016151 q -0.32366,1.408846 -0.32366,1.903846 0,1.085192 0.78058,1.123269 z M 146.283,36.217362 q 0,-0.7425 0.60923,-1.142307 0.62827,-0.399808 1.52308,-0.399808 0.8948,0 1.42788,0.399808 0.55212,0.399807 0.55212,1.142307 0,0.7425 -0.60923,1.123269 -0.5902,0.380769 -1.485,0.380769 -0.89481,0 -1.46596,-0.380769 -0.55212,-0.380769 -0.55212,-1.123269 z" />
        <path
           id="path1066"
           style="font-style:normal;font-variant:normal;font-weight:normal;font-stretch:normal;font-family:'Sansita One';-inkscape-font-specification:'Sansita One';text-align:center;text-anchor:middle;fill:#aa0000;stroke:#aa0000;stroke-width:2.35500002;stroke-miterlimit:4;stroke-dasharray:none"
           d="m 156.66313,43.223513 q 0.68538,-1.218461 0.68538,-2.455961 0,-0.818653 -0.59019,-0.818653 -0.45693,0 -0.93289,0.780576 -0.495,0.780577 -0.6473,1.789615 l -0.99,6.054228 -3.94096,0.38077 1.94192,-10.090381 3.14134,-0.380769 -0.34269,1.922884 q 0.93289,-1.922884 3.02712,-1.922884 1.10423,0 1.69442,0.571153 0.60923,0.571154 0.60923,1.751538 0,1.161346 -0.78058,1.903846 -0.76154,0.742499 -2.07519,0.742499 -0.57115,0 -0.79961,-0.228461 z" />
        <path
           id="path1068"
           style="font-style:normal;font-variant:normal;font-weight:normal;font-stretch:normal;font-family:'Sansita One';-inkscape-font-specification:'Sansita One';text-align:center;text-anchor:middle;fill:#aa0000;stroke:#aa0000;stroke-width:2.35500002;stroke-miterlimit:4;stroke-dasharray:none"
           d="m 166.32484,41.890821 q 0.26654,-0.704423 0.26654,-1.313653 0,-1.123269 -0.91384,-1.123269 -0.47597,0 -0.87577,0.437884 -0.38077,0.418846 -0.38077,0.951923 0,0.380769 0.30461,0.685384 0.43789,0.418846 1.56116,1.104231 1.12327,0.685384 1.54211,1.256538 0.43789,0.552115 0.43789,1.332692 0,0.761538 -0.38077,1.465961 -0.36173,0.704422 -1.02808,1.199422 -1.42788,1.066154 -3.7125,1.066154 -1.2375,0 -2.18942,-0.647308 -0.95192,-0.628269 -0.95192,-1.370769 0,-0.742499 0.53307,-1.180384 0.55212,-0.437884 1.35173,-0.437884 0.79962,0 1.29462,0.304615 -0.2475,0.628269 -0.2475,1.047115 0,1.256538 1.06615,1.256538 0.45693,0 0.76154,-0.285577 0.30462,-0.285577 0.30462,-0.780576 0,-0.970962 -1.63731,-1.999038 -1.33269,-0.875769 -1.63731,-1.218461 -0.51404,-0.609231 -0.51404,-1.370769 0,-0.761538 0.36173,-1.484999 0.36173,-0.723461 1.02808,-1.2375 1.38981,-1.066153 3.80769,-1.066153 1.2375,0 1.96096,0.495 0.7425,0.494999 0.7425,1.332691 0,0.837692 -0.51404,1.313654 -0.495,0.475961 -1.40884,0.475961 -0.62827,0 -0.93289,-0.209423 z" />
        <path
           id="path1070"
           style="font-style:normal;font-variant:normal;font-weight:normal;font-stretch:normal;font-family:'Sansita One';-inkscape-font-specification:'Sansita One';text-align:center;text-anchor:middle;fill:#aa0000;stroke:#aa0000;stroke-width:2.35500002;stroke-miterlimit:4;stroke-dasharray:none"
           d="m 170.1959,46.669473 q 0,-0.514038 0.26653,-1.808653 l 1.00904,-5.140383 h -1.12327 l 0.0762,-0.571153 q 2.28461,-0.685385 4.49307,-2.360769 h 0.91385 l -0.45693,2.075192 h 1.485 l -0.17134,0.85673 h -1.46596 l -0.97096,5.140383 q -0.2475,1.180384 -0.2475,1.580192 0,0.913845 0.79961,1.10423 -0.19038,0.647307 -0.87577,1.028076 -0.68538,0.38077 -1.65634,0.38077 -0.97096,0 -1.52308,-0.609231 -0.55211,-0.60923 -0.55211,-1.675384 z" />
        <path
           id="path1072"
           style="font-style:normal;font-variant:normal;font-weight:normal;font-stretch:normal;font-family:'Sansita One';-inkscape-font-specification:'Sansita One';text-align:center;text-anchor:middle;fill:#aa0000;stroke:#aa0000;stroke-width:2.35500002;stroke-miterlimit:4;stroke-dasharray:none"
           d="m 109.22435,75.356143 q 0.97096,-0.114231 1.5802,-1.370769 0.62826,-1.275576 1.19942,-4.207498 l 1.84673,-9.61442 h 4.13134 l -1.84673,9.61442 q -0.70442,3.731537 -1.86577,5.197498 -0.60923,0.761538 -1.3898,1.066153 -0.76154,0.304615 -1.59923,0.304615 -0.8377,0 -1.37077,-0.304615 -0.55212,-0.304615 -0.68539,-0.685384 z" />
        <path
           id="path1074"
           style="font-style:normal;font-variant:normal;font-weight:normal;font-stretch:normal;font-family:'Sansita One';-inkscape-font-specification:'Sansita One';text-align:center;text-anchor:middle;fill:#aa0000;stroke:#aa0000;stroke-width:2.35500002;stroke-miterlimit:4;stroke-dasharray:none"
           d="m 119.20943,72.157682 q -0.43789,-0.494999 -0.64731,-1.275576 -0.19038,-0.780577 -0.19038,-2.056153 0,-1.275576 0.43788,-2.436922 0.43788,-1.161346 1.2375,-1.999038 1.63731,-1.751538 4.34077,-1.751538 0.97096,0 1.67538,0.323654 l 3.25558,-0.323654 -1.40885,7.424997 q -0.0571,0.228462 -0.0571,0.647308 0,0.418846 0.2475,0.685384 0.26653,0.266539 0.6473,0.304616 -0.19038,0.647307 -0.8948,1.028076 -0.68539,0.380769 -1.46597,0.380769 -0.78057,0 -1.31365,-0.304615 -0.51404,-0.285577 -0.66634,-0.780577 -0.30462,0.475962 -0.95193,0.780577 -0.6473,0.304615 -1.52307,0.304615 -0.85673,0 -1.56116,-0.228461 -0.70442,-0.228462 -1.16134,-0.723462 z m 4.01711,-7.729612 q -0.20942,0.342692 -0.39981,0.932884 -0.19038,0.571154 -0.51403,2.132307 -0.30462,1.542115 -0.30462,2.646345 0,1.104231 0.17135,1.427884 0.17134,0.323654 0.47596,0.323654 0.60923,0 1.04711,-0.571154 0.45693,-0.590192 0.62827,-1.618268 l 1.00904,-5.578267 q -0.39981,-0.342692 -0.87577,-0.342692 -0.45692,0 -0.7425,0.152307 -0.26654,0.152308 -0.495,0.495 z" />
        <path
           id="path1076"
           style="font-style:normal;font-variant:normal;font-weight:normal;font-stretch:normal;font-family:'Sansita One';-inkscape-font-specification:'Sansita One';text-align:center;text-anchor:middle;fill:#aa0000;stroke:#aa0000;stroke-width:2.35500002;stroke-miterlimit:4;stroke-dasharray:none"
           d="m 137.27514,63.342878 q 0.62827,-0.704423 1.71346,-0.704423 0.66634,0 1.18038,0.361731 0.51404,0.361731 0.51404,1.047115 0,0.666346 -0.20942,1.389807 -0.20943,0.723461 -0.53308,1.465961 -0.64731,1.446923 -1.54212,2.646345 -1.25653,1.7325 -2.47499,2.646345 -1.19943,0.913846 -2.51308,0.913846 -1.06615,0 -1.71346,-0.2475 -0.11423,-3.998075 -0.26654,-5.425959 -0.13327,-1.427884 -0.2475,-2.208461 -0.19038,-1.523076 -0.76154,-1.884807 0.43789,-0.380769 0.85673,-0.533077 0.43789,-0.171346 1.31366,-0.171346 0.8948,0 1.52307,0.704423 0.62827,0.685385 0.7425,1.922884 0.13327,1.218461 0.13327,2.703461 0,1.484999 -0.11423,3.274614 0.59019,-0.418846 1.21846,-1.694423 0.85673,-1.770576 1.16135,-3.902883 0.0952,-0.647307 0.0952,-1.332692 0,-0.685384 -0.0762,-0.970961 z" />
        <path
           id="path1078"
           style="font-style:normal;font-variant:normal;font-weight:normal;font-stretch:normal;font-family:'Sansita One';-inkscape-font-specification:'Sansita One';text-align:center;text-anchor:middle;fill:#aa0000;stroke:#aa0000;stroke-width:2.35500002;stroke-miterlimit:4;stroke-dasharray:none"
           d="m 142.00351,72.157682 q -0.43788,-0.494999 -0.6473,-1.275576 -0.19039,-0.780577 -0.19039,-2.056153 0,-1.275576 0.43789,-2.436922 0.43788,-1.161346 1.2375,-1.999038 1.6373,-1.751538 4.34076,-1.751538 0.97096,0 1.67539,0.323654 l 3.25557,-0.323654 -1.40884,7.424997 q -0.0571,0.228462 -0.0571,0.647308 0,0.418846 0.2475,0.685384 0.26654,0.266539 0.64731,0.304616 -0.19039,0.647307 -0.89481,1.028076 -0.68538,0.380769 -1.46596,0.380769 -0.78058,0 -1.31365,-0.304615 -0.51404,-0.285577 -0.66635,-0.780577 -0.30461,0.475962 -0.95192,0.780577 -0.64731,0.304615 -1.52308,0.304615 -0.85673,0 -1.56115,-0.228461 -0.70442,-0.228462 -1.16135,-0.723462 z m 4.01712,-7.729612 q -0.20943,0.342692 -0.39981,0.932884 -0.19039,0.571154 -0.51404,2.132307 -0.30461,1.542115 -0.30461,2.646345 0,1.104231 0.17134,1.427884 0.17135,0.323654 0.47596,0.323654 0.60923,0 1.04712,-0.571154 0.45692,-0.590192 0.62827,-1.618268 l 1.00904,-5.578267 q -0.39981,-0.342692 -0.87577,-0.342692 -0.45693,0 -0.7425,0.152307 -0.26654,0.152308 -0.495,0.495 z" />
        <path
           id="path1080"
           style="font-style:normal;font-variant:normal;font-weight:normal;font-stretch:normal;font-family:'Sansita One';-inkscape-font-specification:'Sansita One';text-align:center;text-anchor:middle;fill:#aa0000;stroke:#aa0000;stroke-width:2.35500002;stroke-miterlimit:4;stroke-dasharray:none"
           d="m 116.9318,92.943401 q 0.495,0.361731 0.495,1.142308 0,0.761538 -0.34269,1.313653 -0.32365,0.533077 -0.97096,0.951923 -1.38981,0.894807 -3.82673,0.894807 -2.41788,0 -3.75057,-1.256538 -1.31366,-1.275576 -1.31366,-3.522114 0,-3.179422 1.65635,-5.597306 1.25654,-1.789614 3.50307,-2.551152 1.16135,-0.380769 2.30366,-0.380769 1.1423,0 1.84673,0.152307 0.70442,0.152308 1.2375,0.456923 1.16134,0.666346 1.16134,1.732499 0,0.970962 -0.91384,1.694423 -0.8377,0.647307 -1.52308,0.647307 -0.68538,0 -0.97096,-0.09519 0.0761,-0.685384 0.0761,-1.123269 0,-0.456923 -0.019,-0.780576 -0.019,-0.323654 -0.11423,-0.628269 -0.19038,-0.704423 -0.78057,-0.704423 -0.57116,0 -1.16135,0.552115 -0.57115,0.533077 -1.06615,1.446922 -1.12327,2.075192 -1.12327,4.531152 0,1.180385 0.66634,1.865769 0.66635,0.666346 2.09423,0.666346 1.06616,0 2.0752,-0.704423 0.43788,-0.304615 0.76153,-0.704423 z" />
        <path
           id="path1082"
           style="font-style:normal;font-variant:normal;font-weight:normal;font-stretch:normal;font-family:'Sansita One';-inkscape-font-specification:'Sansita One';text-align:center;text-anchor:middle;fill:#aa0000;stroke:#aa0000;stroke-width:2.35500002;stroke-miterlimit:4;stroke-dasharray:none"
           d="m 123.1547,97.26513 q -4.18846,0 -4.18846,-3.94096 0,-2.798652 1.54212,-4.607306 1.6373,-1.922883 4.47403,-1.922883 2.05616,0 3.10327,0.951922 1.04712,0.951923 1.04712,2.950961 0,3.046152 -1.63731,4.816729 -1.59923,1.751537 -4.34077,1.751537 z m 0.495,-8.281727 q -0.22846,0.514038 -0.41884,1.294615 -0.17135,0.761538 -0.39981,1.979999 -0.22846,1.218461 -0.22846,2.722499 0,0.495 0.1523,0.818653 0.17135,0.323654 0.60923,0.323654 0.43789,0 0.70443,-0.209423 0.28557,-0.209423 0.495,-0.704423 0.38077,-0.875769 0.68538,-2.494037 0.30462,-1.637307 0.32366,-2.34173 0.0381,-0.704423 0.0381,-1.218461 0,-0.533077 -0.15231,-0.875769 -0.1523,-0.342692 -0.59019,-0.342692 -0.41884,0 -0.70442,0.266538 -0.28558,0.266539 -0.51404,0.780577 z" />
        <path
           id="path1084"
           style="font-style:normal;font-variant:normal;font-weight:normal;font-stretch:normal;font-family:'Sansita One';-inkscape-font-specification:'Sansita One';text-align:center;text-anchor:middle;fill:#aa0000;stroke:#aa0000;stroke-width:2.35500002;stroke-miterlimit:4;stroke-dasharray:none"
           d="m 136.26833,86.793981 q 0.68538,0 1.21846,0.152307 0.019,-0.07615 0.0571,-0.285577 l 0.0952,-0.590192 q 0.0761,-0.380769 0.19038,-1.009038 l 0.30462,-1.504038 3.78865,-0.380769 -2.11327,11.042304 q -0.019,0.11423 -0.019,0.304615 v 0.304615 q 0,0.418846 0.20943,0.7425 0.20942,0.304615 0.55211,0.304615 -0.38077,0.894808 -1.54211,1.275577 -0.39981,0.11423 -0.97096,0.11423 -0.55212,0 -1.06616,-0.304615 -0.51404,-0.285577 -0.66634,-0.780577 -0.30462,0.495 -0.91385,0.780577 -0.60923,0.304615 -1.50404,0.304615 -0.87577,0 -1.61827,-0.228461 -0.72346,-0.228462 -1.18038,-0.723461 -0.83769,-0.970962 -0.83769,-3.179422 0,-2.855768 1.67538,-4.588268 1.67539,-1.751537 4.34077,-1.751537 z m -0.13327,1.142307 q -0.70442,0 -1.08519,0.761538 -0.38077,0.761538 -0.78058,2.646345 -0.38077,1.884807 -0.38077,3.579229 0,1.161346 0.68539,1.161346 0.60923,0 1.02807,-0.60923 0.43789,-0.609231 0.60923,-1.618269 l 1.02808,-5.578267 q -0.39981,-0.342692 -1.10423,-0.342692 z" />
        <path
           id="path1086"
           style="font-style:normal;font-variant:normal;font-weight:normal;font-stretch:normal;font-family:'Sansita One';-inkscape-font-specification:'Sansita One';text-align:center;text-anchor:middle;fill:#aa0000;stroke:#aa0000;stroke-width:2.35500002;stroke-miterlimit:4;stroke-dasharray:none"
           d="m 149.88082,93.666863 q 0.47596,0.323653 0.47596,1.047115 0,0.704422 -0.36173,1.161345 -0.36173,0.456923 -0.95192,0.761538 -1.21846,0.628269 -2.53211,0.628269 -1.31366,0 -2.09423,-0.285576 -0.76154,-0.285577 -1.27558,-0.818654 -1.00904,-1.009038 -1.00904,-2.855768 0,-2.874807 1.56115,-4.626344 1.67539,-1.884807 4.58827,-1.884807 1.80866,0 2.70346,0.761538 0.66635,0.571153 0.66635,1.504038 0,3.350768 -5.78769,3.350768 -0.0762,0.494999 -0.0762,0.913845 0,0.875769 0.38077,1.218461 0.39981,0.323654 1.12327,0.323654 0.72346,0 1.485,-0.323654 0.78058,-0.342692 1.10423,-0.875768 z m -3.88384,-2.075192 q 1.35173,0 2.1323,-0.837692 0.78058,-0.799615 0.78058,-2.075191 0,-0.437885 -0.17134,-0.666346 -0.15231,-0.2475 -0.47597,-0.2475 -0.32365,0 -0.60923,0.133269 -0.26653,0.114231 -0.55211,0.533077 -0.70442,0.951922 -1.10423,3.160383 z" />
        <path
           id="path1088"
           style="font-style:normal;font-variant:normal;font-weight:normal;font-stretch:normal;font-family:'Sansita One';-inkscape-font-specification:'Sansita One';text-align:center;text-anchor:middle;fill:#aa0000;stroke:#aa0000;stroke-width:2.35500002;stroke-miterlimit:4;stroke-dasharray:none"
           d="m 151.77039,95.761092 q 0,-0.723461 0.53307,-1.10423 0.55212,-0.399807 1.35174,-0.399807 0.79961,0 1.29461,0.399807 0.51404,0.380769 0.51404,1.10423 0,0.723462 -0.57116,1.123269 -0.55211,0.399808 -1.35173,0.399808 -0.79961,0 -1.29461,-0.399808 -0.47596,-0.399807 -0.47596,-1.123269 z m 1.02807,-3.579229 q 0,-0.133269 0.0381,-0.323654 l 1.485,-7.653458 q 0.70442,-0.266538 1.54212,-0.266538 0.83769,0 1.27557,0.533076 0.43789,0.533077 0.43789,1.332692 0,0.780577 -0.30462,1.675384 -0.30461,0.875769 -0.68538,1.770576 -0.36173,0.894808 -0.68539,1.827692 -0.30461,0.913846 -0.32365,1.884807 -0.43789,0.495 -1.19942,0.495 -0.76154,0 -1.18039,-0.342693 -0.39981,-0.36173 -0.39981,-0.932884 z" />
      </g>
      <g
         id="text930"
         style="font-style:normal;font-weight:normal;font-size:19.03845406px;line-height:1.25;font-family:sans-serif;text-align:center;letter-spacing:0px;word-spacing:0px;text-anchor:middle;fill:#ffffff;fill-opacity:1;stroke:none;stroke-width:0.47596133"
         transform="scale(1.0727429,0.93218979)"
         aria-label="Your first
Java
Code!">
        <path
           id="path1091"
           style="font-style:normal;font-variant:normal;font-weight:normal;font-stretch:normal;font-family:'Sansita One';-inkscape-font-specification:'Sansita One';text-align:center;text-anchor:middle;fill:#ffffff;stroke-width:0.47596133"
           d="m 90.923937,42.976013 q -0.552115,-5.159421 -2.494037,-6.263651 0.399807,-0.495 1.047115,-0.761539 0.647307,-0.285576 1.427884,-0.285576 0.780576,0 1.370768,0.285576 0.590193,0.266539 0.970962,0.856731 0.723461,1.123269 0.723461,3.807691 v 1.370768 q 1.142307,-3.350768 2.284614,-4.79769 1.161346,-1.484999 2.608269,-1.484999 0.571153,0 0.951922,0.304615 0.380765,0.285577 0.571155,0.723461 -1.465962,0.647307 -2.874808,2.513076 -1.408845,1.865768 -2.322691,4.474037 l -1.123269,4.854805 h -4.245575 z" />
        <path
           id="path1093"
           style="font-style:normal;font-variant:normal;font-weight:normal;font-stretch:normal;font-family:'Sansita One';-inkscape-font-specification:'Sansita One';text-align:center;text-anchor:middle;fill:#ffffff;stroke-width:0.47596133"
           d="m 102.57309,48.954088 q -4.188459,0 -4.188459,-3.94096 0,-2.798653 1.542115,-4.607306 1.637304,-1.922884 4.474034,-1.922884 2.05616,0 3.10327,0.951923 1.04712,0.951922 1.04712,2.95096 0,3.046153 -1.63731,4.816729 -1.59923,1.751538 -4.34077,1.751538 z m 0.495,-8.281728 q -0.22846,0.514038 -0.41884,1.294615 -0.17135,0.761538 -0.39981,1.979999 -0.22846,1.218461 -0.22846,2.722499 0,0.495 0.1523,0.818654 0.17135,0.323653 0.60923,0.323653 0.43789,0 0.70443,-0.209423 0.28557,-0.209423 0.495,-0.704422 0.38077,-0.875769 0.68538,-2.494038 0.30462,-1.637307 0.32365,-2.34173 0.0381,-0.704423 0.0381,-1.218461 0,-0.533077 -0.15231,-0.875769 -0.1523,-0.342692 -0.59019,-0.342692 -0.41884,0 -0.70442,0.266538 -0.28558,0.266539 -0.51404,0.780577 z" />
        <path
           id="path1095"
           style="font-style:normal;font-variant:normal;font-weight:normal;font-stretch:normal;font-family:'Sansita One';-inkscape-font-specification:'Sansita One';text-align:center;text-anchor:middle;fill:#ffffff;stroke-width:0.47596133"
           d="m 115.80095,47.773703 q -0.91385,1.180385 -3.17942,1.180385 -1.18039,0 -2.03712,-0.704423 -0.85673,-0.723461 -0.85673,-1.751538 0,-0.571154 0.0571,-0.85673 l 1.27557,-6.77769 3.86481,-0.380769 -1.38981,7.348843 q -0.0761,0.418846 -0.0761,0.666346 0,1.10423 0.66634,1.10423 0.7425,0 1.27558,-1.009038 0.17135,-0.323653 0.2475,-0.742499 l 1.35173,-6.987113 3.75058,-0.380769 -1.40885,7.424997 q -0.0571,0.285577 -0.0571,0.590192 0,0.304615 0.17134,0.647307 0.17135,0.323654 0.72346,0.399808 -0.11423,0.456923 -0.51404,0.761538 -0.83769,0.647308 -1.75153,0.647308 -0.89481,0 -1.42789,-0.323654 -0.53307,-0.323654 -0.68538,-0.856731 z" />
        <path
           id="path1097"
           style="font-style:normal;font-variant:normal;font-weight:normal;font-stretch:normal;font-family:'Sansita One';-inkscape-font-specification:'Sansita One';text-align:center;text-anchor:middle;fill:#ffffff;stroke-width:0.47596133"
           d="m 127.7336,43.223513 q 0.68538,-1.218461 0.68538,-2.455961 0,-0.818653 -0.59019,-0.818653 -0.45692,0 -0.93288,0.780576 -0.495,0.780577 -0.64731,1.789615 l -0.99,6.054228 -3.94096,0.38077 1.94192,-10.090381 3.14135,-0.380769 -0.3427,1.922884 q 0.93289,-1.922884 3.02712,-1.922884 1.10423,0 1.69442,0.571153 0.60923,0.571154 0.60923,1.751538 0,1.161346 -0.78058,1.903846 -0.76153,0.742499 -2.07519,0.742499 -0.57115,0 -0.79961,-0.228461 z" />
        <path
           id="path1099"
           style="font-style:normal;font-variant:normal;font-weight:normal;font-stretch:normal;font-family:'Sansita One';-inkscape-font-specification:'Sansita One';text-align:center;text-anchor:middle;fill:#ffffff;stroke-width:0.47596133"
           d="m 143.03219,37.531015 q 0.26653,-0.456923 0.26653,-0.951923 0,-0.875768 -0.53307,-0.875768 -0.81866,0 -1.16135,1.675383 l -0.28558,1.485 h 1.7325 l -0.11423,0.85673 h -1.78961 l -1.71346,8.852881 -3.84577,0.38077 1.82769,-9.233651 h -1.35173 l 0.17135,-0.85673 h 1.33269 l 0.39981,-1.504038 q 0.34269,-1.389807 1.80865,-2.037115 1.06615,-0.456922 2.85577,-0.456922 1.78961,0 2.58923,0.456922 0.79961,0.456923 0.79961,1.066154 0,0.60923 -0.47596,0.989999 -0.47596,0.38077 -1.00904,0.38077 -1.04711,0 -1.50403,-0.228462 z" />
        <path
           id="path1101"
           style="font-style:normal;font-variant:normal;font-weight:normal;font-stretch:normal;font-family:'Sansita One';-inkscape-font-specification:'Sansita One';text-align:center;text-anchor:middle;fill:#ffffff;stroke-width:0.47596133"
           d="m 149.10069,47.526204 q -0.59019,1.427884 -2.475,1.427884 -0.97096,0 -1.58019,-0.666346 -0.51404,-0.590192 -0.51404,-1.180384 0,-1.542115 0.70443,-4.550191 l 0.70442,-3.69346 3.8648,-0.380769 -1.16134,6.016151 q -0.32366,1.408846 -0.32366,1.903846 0,1.085192 0.78058,1.123269 z M 146.283,36.217362 q 0,-0.7425 0.60923,-1.142307 0.62827,-0.399808 1.52308,-0.399808 0.8948,0 1.42788,0.399808 0.55212,0.399807 0.55212,1.142307 0,0.7425 -0.60923,1.123269 -0.5902,0.380769 -1.485,0.380769 -0.89481,0 -1.46596,-0.380769 -0.55212,-0.380769 -0.55212,-1.123269 z" />
        <path
           id="path1103"
           style="font-style:normal;font-variant:normal;font-weight:normal;font-stretch:normal;font-family:'Sansita One';-inkscape-font-specification:'Sansita One';text-align:center;text-anchor:middle;fill:#ffffff;stroke-width:0.47596133"
           d="m 156.66313,43.223513 q 0.68538,-1.218461 0.68538,-2.455961 0,-0.818653 -0.59019,-0.818653 -0.45693,0 -0.93289,0.780576 -0.495,0.780577 -0.6473,1.789615 l -0.99,6.054228 -3.94096,0.38077 1.94192,-10.090381 3.14134,-0.380769 -0.34269,1.922884 q 0.93289,-1.922884 3.02712,-1.922884 1.10423,0 1.69442,0.571153 0.60923,0.571154 0.60923,1.751538 0,1.161346 -0.78058,1.903846 -0.76154,0.742499 -2.07519,0.742499 -0.57115,0 -0.79961,-0.228461 z" />
        <path
           id="path1105"
           style="font-style:normal;font-variant:normal;font-weight:normal;font-stretch:normal;font-family:'Sansita One';-inkscape-font-specification:'Sansita One';text-align:center;text-anchor:middle;fill:#ffffff;stroke-width:0.47596133"
           d="m 166.32484,41.890821 q 0.26654,-0.704423 0.26654,-1.313653 0,-1.123269 -0.91384,-1.123269 -0.47597,0 -0.87577,0.437884 -0.38077,0.418846 -0.38077,0.951923 0,0.380769 0.30461,0.685384 0.43789,0.418846 1.56116,1.104231 1.12327,0.685384 1.54211,1.256538 0.43789,0.552115 0.43789,1.332692 0,0.761538 -0.38077,1.465961 -0.36173,0.704422 -1.02808,1.199422 -1.42788,1.066154 -3.7125,1.066154 -1.2375,0 -2.18942,-0.647308 -0.95192,-0.628269 -0.95192,-1.370769 0,-0.742499 0.53307,-1.180384 0.55212,-0.437884 1.35173,-0.437884 0.79962,0 1.29462,0.304615 -0.2475,0.628269 -0.2475,1.047115 0,1.256538 1.06615,1.256538 0.45693,0 0.76154,-0.285577 0.30462,-0.285577 0.30462,-0.780576 0,-0.970962 -1.63731,-1.999038 -1.33269,-0.875769 -1.63731,-1.218461 -0.51404,-0.609231 -0.51404,-1.370769 0,-0.761538 0.36173,-1.484999 0.36173,-0.723461 1.02808,-1.2375 1.38981,-1.066153 3.80769,-1.066153 1.2375,0 1.96096,0.495 0.7425,0.494999 0.7425,1.332691 0,0.837692 -0.51404,1.313654 -0.495,0.475961 -1.40884,0.475961 -0.62827,0 -0.93289,-0.209423 z" />
        <path
           id="path1107"
           style="font-style:normal;font-variant:normal;font-weight:normal;font-stretch:normal;font-family:'Sansita One';-inkscape-font-specification:'Sansita One';text-align:center;text-anchor:middle;fill:#ffffff;stroke-width:0.47596133"
           d="m 170.1959,46.669473 q 0,-0.514038 0.26653,-1.808653 l 1.00904,-5.140383 h -1.12327 l 0.0762,-0.571153 q 2.28461,-0.685385 4.49307,-2.360769 h 0.91385 l -0.45693,2.075192 h 1.485 l -0.17134,0.85673 h -1.46596 l -0.97096,5.140383 q -0.2475,1.180384 -0.2475,1.580192 0,0.913845 0.79961,1.10423 -0.19038,0.647307 -0.87577,1.028076 -0.68538,0.38077 -1.65634,0.38077 -0.97096,0 -1.52308,-0.609231 -0.55211,-0.60923 -0.55211,-1.675384 z" />
        <path
           id="path1109"
           style="font-style:normal;font-variant:normal;font-weight:normal;font-stretch:normal;font-family:'Sansita One';-inkscape-font-specification:'Sansita One';text-align:center;text-anchor:middle;fill:#ffffff;stroke-width:0.47596133"
           d="m 109.22435,75.356143 q 0.97096,-0.114231 1.5802,-1.370769 0.62826,-1.275576 1.19942,-4.207498 l 1.84673,-9.61442 h 4.13134 l -1.84673,9.61442 q -0.70442,3.731537 -1.86577,5.197498 -0.60923,0.761538 -1.3898,1.066153 -0.76154,0.304615 -1.59923,0.304615 -0.8377,0 -1.37077,-0.304615 -0.55212,-0.304615 -0.68539,-0.685384 z" />
        <path
           id="path1111"
           style="font-style:normal;font-variant:normal;font-weight:normal;font-stretch:normal;font-family:'Sansita One';-inkscape-font-specification:'Sansita One';text-align:center;text-anchor:middle;fill:#ffffff;stroke-width:0.47596133"
           d="m 119.20943,72.157682 q -0.43789,-0.494999 -0.64731,-1.275576 -0.19038,-0.780577 -0.19038,-2.056153 0,-1.275576 0.43788,-2.436922 0.43788,-1.161346 1.2375,-1.999038 1.63731,-1.751538 4.34077,-1.751538 0.97096,0 1.67538,0.323654 l 3.25558,-0.323654 -1.40885,7.424997 q -0.0571,0.228462 -0.0571,0.647308 0,0.418846 0.2475,0.685384 0.26653,0.266539 0.6473,0.304616 -0.19038,0.647307 -0.8948,1.028076 -0.68539,0.380769 -1.46597,0.380769 -0.78057,0 -1.31365,-0.304615 -0.51404,-0.285577 -0.66634,-0.780577 -0.30462,0.475962 -0.95193,0.780577 -0.6473,0.304615 -1.52307,0.304615 -0.85673,0 -1.56116,-0.228461 -0.70442,-0.228462 -1.16134,-0.723462 z m 4.01711,-7.729612 q -0.20942,0.342692 -0.39981,0.932884 -0.19038,0.571154 -0.51403,2.132307 -0.30462,1.542115 -0.30462,2.646345 0,1.104231 0.17135,1.427884 0.17134,0.323654 0.47596,0.323654 0.60923,0 1.04711,-0.571154 0.45693,-0.590192 0.62827,-1.618268 l 1.00904,-5.578267 q -0.39981,-0.342692 -0.87577,-0.342692 -0.45692,0 -0.7425,0.152307 -0.26654,0.152308 -0.495,0.495 z" />
        <path
           id="path1113"
           style="font-style:normal;font-variant:normal;font-weight:normal;font-stretch:normal;font-family:'Sansita One';-inkscape-font-specification:'Sansita One';text-align:center;text-anchor:middle;fill:#ffffff;stroke-width:0.47596133"
           d="m 137.27514,63.342878 q 0.62827,-0.704423 1.71346,-0.704423 0.66634,0 1.18038,0.361731 0.51404,0.361731 0.51404,1.047115 0,0.666346 -0.20942,1.389807 -0.20943,0.723461 -0.53308,1.465961 -0.64731,1.446923 -1.54212,2.646345 -1.25653,1.7325 -2.47499,2.646345 -1.19943,0.913846 -2.51308,0.913846 -1.06615,0 -1.71346,-0.2475 -0.11423,-3.998075 -0.26654,-5.425959 -0.13327,-1.427884 -0.2475,-2.208461 -0.19038,-1.523076 -0.76154,-1.884807 0.43789,-0.380769 0.85673,-0.533077 0.43789,-0.171346 1.31366,-0.171346 0.8948,0 1.52307,0.704423 0.62827,0.685385 0.7425,1.922884 0.13327,1.218461 0.13327,2.703461 0,1.484999 -0.11423,3.274614 0.59019,-0.418846 1.21846,-1.694423 0.85673,-1.770576 1.16135,-3.902883 0.0952,-0.647307 0.0952,-1.332692 0,-0.685384 -0.0762,-0.970961 z" />
        <path
           id="path1115"
           style="font-style:normal;font-variant:normal;font-weight:normal;font-stretch:normal;font-family:'Sansita One';-inkscape-font-specification:'Sansita One';text-align:center;text-anchor:middle;fill:#ffffff;stroke-width:0.47596133"
           d="m 142.00351,72.157682 q -0.43788,-0.494999 -0.6473,-1.275576 -0.19039,-0.780577 -0.19039,-2.056153 0,-1.275576 0.43789,-2.436922 0.43788,-1.161346 1.2375,-1.999038 1.6373,-1.751538 4.34076,-1.751538 0.97096,0 1.67539,0.323654 l 3.25557,-0.323654 -1.40884,7.424997 q -0.0571,0.228462 -0.0571,0.647308 0,0.418846 0.2475,0.685384 0.26654,0.266539 0.64731,0.304616 -0.19039,0.647307 -0.89481,1.028076 -0.68538,0.380769 -1.46596,0.380769 -0.78058,0 -1.31365,-0.304615 -0.51404,-0.285577 -0.66635,-0.780577 -0.30461,0.475962 -0.95192,0.780577 -0.64731,0.304615 -1.52308,0.304615 -0.85673,0 -1.56115,-0.228461 -0.70442,-0.228462 -1.16135,-0.723462 z m 4.01712,-7.729612 q -0.20943,0.342692 -0.39981,0.932884 -0.19039,0.571154 -0.51404,2.132307 -0.30461,1.542115 -0.30461,2.646345 0,1.104231 0.17134,1.427884 0.17135,0.323654 0.47596,0.323654 0.60923,0 1.04712,-0.571154 0.45692,-0.590192 0.62827,-1.618268 l 1.00904,-5.578267 q -0.39981,-0.342692 -0.87577,-0.342692 -0.45693,0 -0.7425,0.152307 -0.26654,0.152308 -0.495,0.495 z" />
        <path
           id="path1117"
           style="font-style:normal;font-variant:normal;font-weight:normal;font-stretch:normal;font-family:'Sansita One';-inkscape-font-specification:'Sansita One';text-align:center;text-anchor:middle;fill:#ffffff;stroke-width:0.47596133"
           d="m 116.9318,92.943401 q 0.495,0.361731 0.495,1.142308 0,0.761538 -0.34269,1.313653 -0.32365,0.533077 -0.97096,0.951923 -1.38981,0.894807 -3.82673,0.894807 -2.41788,0 -3.75057,-1.256538 -1.31366,-1.275576 -1.31366,-3.522114 0,-3.179422 1.65635,-5.597306 1.25654,-1.789614 3.50307,-2.551152 1.16135,-0.380769 2.30366,-0.380769 1.1423,0 1.84673,0.152307 0.70442,0.152308 1.2375,0.456923 1.16134,0.666346 1.16134,1.732499 0,0.970962 -0.91384,1.694423 -0.8377,0.647307 -1.52308,0.647307 -0.68538,0 -0.97096,-0.09519 0.0761,-0.685384 0.0761,-1.123269 0,-0.456923 -0.019,-0.780576 -0.019,-0.323654 -0.11423,-0.628269 -0.19038,-0.704423 -0.78057,-0.704423 -0.57116,0 -1.16135,0.552115 -0.57115,0.533077 -1.06615,1.446922 -1.12327,2.075192 -1.12327,4.531152 0,1.180385 0.66634,1.865769 0.66635,0.666346 2.09423,0.666346 1.06616,0 2.0752,-0.704423 0.43788,-0.304615 0.76153,-0.704423 z" />
        <path
           id="path1119"
           style="font-style:normal;font-variant:normal;font-weight:normal;font-stretch:normal;font-family:'Sansita One';-inkscape-font-specification:'Sansita One';text-align:center;text-anchor:middle;fill:#ffffff;stroke-width:0.47596133"
           d="m 123.1547,97.26513 q -4.18846,0 -4.18846,-3.94096 0,-2.798652 1.54212,-4.607306 1.6373,-1.922883 4.47403,-1.922883 2.05616,0 3.10327,0.951922 1.04712,0.951923 1.04712,2.950961 0,3.046152 -1.63731,4.816729 -1.59923,1.751537 -4.34077,1.751537 z m 0.495,-8.281727 q -0.22846,0.514038 -0.41884,1.294615 -0.17135,0.761538 -0.39981,1.979999 -0.22846,1.218461 -0.22846,2.722499 0,0.495 0.1523,0.818653 0.17135,0.323654 0.60923,0.323654 0.43789,0 0.70443,-0.209423 0.28557,-0.209423 0.495,-0.704423 0.38077,-0.875769 0.68538,-2.494037 0.30462,-1.637307 0.32366,-2.34173 0.0381,-0.704423 0.0381,-1.218461 0,-0.533077 -0.15231,-0.875769 -0.1523,-0.342692 -0.59019,-0.342692 -0.41884,0 -0.70442,0.266538 -0.28558,0.266539 -0.51404,0.780577 z" />
        <path
           id="path1121"
           style="font-style:normal;font-variant:normal;font-weight:normal;font-stretch:normal;font-family:'Sansita One';-inkscape-font-specification:'Sansita One';text-align:center;text-anchor:middle;fill:#ffffff;stroke-width:0.47596133"
           d="m 136.26833,86.793981 q 0.68538,0 1.21846,0.152307 0.019,-0.07615 0.0571,-0.285577 l 0.0952,-0.590192 q 0.0761,-0.380769 0.19038,-1.009038 l 0.30462,-1.504038 3.78865,-0.380769 -2.11327,11.042304 q -0.019,0.11423 -0.019,0.304615 v 0.304615 q 0,0.418846 0.20943,0.7425 0.20942,0.304615 0.55211,0.304615 -0.38077,0.894808 -1.54211,1.275577 -0.39981,0.11423 -0.97096,0.11423 -0.55212,0 -1.06616,-0.304615 -0.51404,-0.285577 -0.66634,-0.780577 -0.30462,0.495 -0.91385,0.780577 -0.60923,0.304615 -1.50404,0.304615 -0.87577,0 -1.61827,-0.228461 -0.72346,-0.228462 -1.18038,-0.723461 -0.83769,-0.970962 -0.83769,-3.179422 0,-2.855768 1.67538,-4.588268 1.67539,-1.751537 4.34077,-1.751537 z m -0.13327,1.142307 q -0.70442,0 -1.08519,0.761538 -0.38077,0.761538 -0.78058,2.646345 -0.38077,1.884807 -0.38077,3.579229 0,1.161346 0.68539,1.161346 0.60923,0 1.02807,-0.60923 0.43789,-0.609231 0.60923,-1.618269 l 1.02808,-5.578267 q -0.39981,-0.342692 -1.10423,-0.342692 z" />
        <path
           id="path1123"
           style="font-style:normal;font-variant:normal;font-weight:normal;font-stretch:normal;font-family:'Sansita One';-inkscape-font-specification:'Sansita One';text-align:center;text-anchor:middle;fill:#ffffff;stroke-width:0.47596133"
           d="m 149.88082,93.666863 q 0.47596,0.323653 0.47596,1.047115 0,0.704422 -0.36173,1.161345 -0.36173,0.456923 -0.95192,0.761538 -1.21846,0.628269 -2.53211,0.628269 -1.31366,0 -2.09423,-0.285576 -0.76154,-0.285577 -1.27558,-0.818654 -1.00904,-1.009038 -1.00904,-2.855768 0,-2.874807 1.56115,-4.626344 1.67539,-1.884807 4.58827,-1.884807 1.80866,0 2.70346,0.761538 0.66635,0.571153 0.66635,1.504038 0,3.350768 -5.78769,3.350768 -0.0762,0.494999 -0.0762,0.913845 0,0.875769 0.38077,1.218461 0.39981,0.323654 1.12327,0.323654 0.72346,0 1.485,-0.323654 0.78058,-0.342692 1.10423,-0.875768 z m -3.88384,-2.075192 q 1.35173,0 2.1323,-0.837692 0.78058,-0.799615 0.78058,-2.075191 0,-0.437885 -0.17134,-0.666346 -0.15231,-0.2475 -0.47597,-0.2475 -0.32365,0 -0.60923,0.133269 -0.26653,0.114231 -0.55211,0.533077 -0.70442,0.951922 -1.10423,3.160383 z" />
        <path
           id="path1125"
           style="font-style:normal;font-variant:normal;font-weight:normal;font-stretch:normal;font-family:'Sansita One';-inkscape-font-specification:'Sansita One';text-align:center;text-anchor:middle;fill:#ffffff;stroke-width:0.47596133"
           d="m 151.77039,95.761092 q 0,-0.723461 0.53307,-1.10423 0.55212,-0.399807 1.35174,-0.399807 0.79961,0 1.29461,0.399807 0.51404,0.380769 0.51404,1.10423 0,0.723462 -0.57116,1.123269 -0.55211,0.399808 -1.35173,0.399808 -0.79961,0 -1.29461,-0.399808 -0.47596,-0.399807 -0.47596,-1.123269 z m 1.02807,-3.579229 q 0,-0.133269 0.0381,-0.323654 l 1.485,-7.653458 q 0.70442,-0.266538 1.54212,-0.266538 0.83769,0 1.27557,0.533076 0.43789,0.533077 0.43789,1.332692 0,0.780577 -0.30462,1.675384 -0.30461,0.875769 -0.68538,1.770576 -0.36173,0.894808 -0.68539,1.827692 -0.30461,0.913846 -0.32365,1.884807 -0.43789,0.495 -1.19942,0.495 -0.76154,0 -1.18039,-0.342693 -0.39981,-0.36173 -0.39981,-0.932884 z" />
      </g>
    </g>
  </g>
</svg>
