<?xml version="1.0" encoding="UTF-8" standalone="no"?>
<svg
   xmlns:dc="http://purl.org/dc/elements/1.1/"
   xmlns:cc="http://creativecommons.org/ns#"
   xmlns:rdf="http://www.w3.org/1999/02/22-rdf-syntax-ns#"
   xmlns:svg="http://www.w3.org/2000/svg"
   xmlns="http://www.w3.org/2000/svg"
   xmlns:xlink="http://www.w3.org/1999/xlink"
   width="211.40207mm"
   height="119.0625mm"
   viewBox="0 0 211.40207 119.0625"
   version="1.1"
   id="svg3357">
  <defs
     id="defs3351">
    <linearGradient
       id="linearGradient6114">
      <stop
         style="stop-color:#6f7c91;stop-opacity:1;"
         offset="0"
         id="stop6110" />
      <stop
         style="stop-color:#162d50;stop-opacity:1"
         offset="1"
         id="stop6112" />
    </linearGradient>
    <radialGradient
       xlink:href="#linearGradient6114"
       id="radialGradient6126"
       cx="73.77433"
       cy="66.986313"
       fx="73.77433"
       fy="66.986313"
       r="31.67275"
       gradientTransform="matrix(3.0071285,0,0,1.83657,-125.12732,-58.151445)"
       gradientUnits="userSpaceOnUse" />
  </defs>
  <metadata
     id="metadata3354">
    <rdf:RDF>
      <cc:Work
         rdf:about="">
        <dc:format>image/svg+xml</dc:format>
        <dc:type
           rdf:resource="http://purl.org/dc/dcmitype/StillImage" />
        <dc:title></dc:title>
      </cc:Work>
    </rdf:RDF>
  </metadata>
  <path
     id="rect6108"
     d="M 0,0 H 211.40207 V 119.0625 H 0 Z"
     style="opacity:1;fill:#c83737;fill-opacity:1;stroke:none;stroke-width:4.38045835;stroke-miterlimit:4;stroke-dasharray:none;paint-order:stroke markers fill" />
  <g
     id="flowRoot874"
     style="font-style:normal;font-weight:normal;font-size:40px;line-height:1.25;font-family:sans-serif;letter-spacing:0px;word-spacing:0px;fill:#000000;fill-opacity:1;stroke:none"
     transform="matrix(1.1097917,0,0,1.0234149,-1.6397721,-6.8613634)" />
  <g
     transform="translate(-1.4775493,-3.9803138)"
     id="flowRoot1087"
     style="font-style:normal;font-weight:normal;font-size:40px;line-height:1.25;font-family:sans-serif;letter-spacing:0px;word-spacing:0px;fill:#000000;fill-opacity:1;stroke:none" />
  <path
     style="opacity:1;fill:#333366;fill-opacity:1;stroke:none;stroke-width:0.83657879;stroke-linecap:round;stroke-linejoin:round;stroke-miterlimit:4;stroke-dasharray:none;stroke-opacity:1;paint-order:stroke markers fill"
     d="m 27.019458,34.3215 h 50.071653 c 1.26634,0 2.285814,0.870605 2.285814,1.95203 v 47.095939 c 0,1.081427 -1.019474,1.95203 -2.285814,1.95203 H 27.019458 c -1.266341,0 -2.285814,-0.870603 -2.285814,-1.95203 V 36.27353 c 0,-1.081425 1.019473,-1.95203 2.285814,-1.95203 z"
     id="rect815" />
  <path
     style="opacity:1;fill:#666666;fill-opacity:1;stroke:none;stroke-width:0.74304688;stroke-linecap:round;stroke-linejoin:round;stroke-miterlimit:4;stroke-dasharray:none;stroke-opacity:1;paint-order:stroke markers fill"
     d="m 26.495794,34.3215 h 51.07241 c 1.002073,0 1.808793,0.688921 1.808793,1.544666 v 8.319077 c 0,0.855744 -0.80672,1.544665 -1.808793,1.544665 h -51.07241 c -1.002072,0 -1.808794,-0.688921 -1.808794,-1.544665 v -8.319077 c 0,-0.855745 0.806722,-1.544666 1.808794,-1.544666 z"
     id="rect918" />
  <path
     style="opacity:1;fill:#ffffff;fill-opacity:1;stroke:none;stroke-width:0.73056543;stroke-linecap:round;stroke-linejoin:round;stroke-miterlimit:4;stroke-dasharray:none;stroke-opacity:1;paint-order:stroke markers fill"
     d="m 41.051806,38.702394 h 22.006956 c 1.00207,0 1.808791,0.68892 1.808791,1.544664 0,0.855743 -0.806721,1.544663 -1.808791,1.544663 H 41.051806 c -1.00207,0 -1.808791,-0.68892 -1.808791,-1.544663 0,-0.855744 0.806721,-1.544664 1.808791,-1.544664 z"
     id="rect817" />
  <path
     style="opacity:1;fill:#ef2929;fill-opacity:1;stroke:none;stroke-width:0.74243265;stroke-linecap:round;stroke-linejoin:round;stroke-miterlimit:4;stroke-dasharray:none;stroke-opacity:1;paint-order:stroke markers fill"
     d="m 33.034094,70.107617 h 38.04238 c 0.652986,0 1.178675,0.448926 1.178675,1.006562 v 0.930596 c 0,0.557636 -0.525689,1.006561 -1.178675,1.006561 h -38.04238 c -0.652987,0 -1.178677,-0.448925 -1.178677,-1.006561 v -0.930596 c 0,-0.557636 0.52569,-1.006562 1.178677,-1.006562 z"
     id="rect914" />
  <path
     style="opacity:1;fill:#ef2929;fill-opacity:1;stroke:none;stroke-width:0.74243265;stroke-linecap:round;stroke-linejoin:round;stroke-miterlimit:4;stroke-dasharray:none;stroke-opacity:1;paint-order:stroke markers fill"
     d="m 33.034094,75.829231 h 38.04238 c 0.652986,0 1.178675,0.448925 1.178675,1.006562 v 0.930598 c 0,0.557633 -0.525689,1.006559 -1.178675,1.006559 h -38.04238 c -0.652987,0 -1.178677,-0.448926 -1.178677,-1.006559 v -0.930598 c 0,-0.557637 0.52569,-1.006562 1.178677,-1.006562 z"
     id="rect916" />
  <g
     id="g164">
    <path
       id="path1045"
       style="font-style:normal;font-variant:normal;font-weight:normal;font-stretch:normal;font-size:56.58139038px;line-height:1.25;font-family:'Sansita One';-inkscape-font-specification:'Sansita One';text-align:center;letter-spacing:0px;word-spacing:0px;text-anchor:middle;fill:#ffffff;fill-opacity:1;stroke:none;stroke-width:0.39407006"
       d="m 33.631078,65.487375 q 0.834217,-0.09114 1.357647,-1.093681 0.539788,-1.01773 1.030504,-3.356994 l 1.586647,-7.670956 h 3.549511 L 39.568739,61.0367 q -0.605216,2.977245 -1.603004,4.146874 -0.523431,0.607602 -1.194076,0.850641 -0.654287,0.24304 -1.374004,0.24304 -0.719716,0 -1.177718,-0.24304 -0.474358,-0.243039 -0.588859,-0.54684 z" />
    <path
       id="path1047"
       style="font-style:normal;font-variant:normal;font-weight:normal;font-stretch:normal;font-size:56.58139038px;line-height:1.25;font-family:'Sansita One';-inkscape-font-specification:'Sansita One';text-align:center;letter-spacing:0px;word-spacing:0px;text-anchor:middle;fill:#ffffff;fill-opacity:1;stroke:none;stroke-width:0.39407006"
       d="m 42.209915,62.935454 q -0.376216,-0.394942 -0.556145,-1.017731 -0.163572,-0.622791 -0.163572,-1.640524 0,-1.01773 0.376216,-1.944319 0.376215,-0.926593 1.063217,-1.594953 1.406719,-1.397482 3.72944,-1.397482 0.834217,0 1.439433,0.258232 l 2.797079,-0.258232 -1.210431,5.924108 q -0.04907,0.182278 -0.04907,0.516458 0,0.33418 0.212644,0.546841 0.229,0.21266 0.556144,0.243039 -0.163572,0.516462 -0.768788,0.820262 -0.588859,0.303801 -1.259504,0.303801 -0.670645,0 -1.128646,-0.243039 -0.441644,-0.227853 -0.572502,-0.622792 -0.261715,0.379749 -0.817859,0.622792 -0.556145,0.243039 -1.308576,0.243039 -0.736073,0 -1.341289,-0.182281 -0.605217,-0.182281 -0.997789,-0.577219 z m 3.451367,-6.167148 q -0.179929,0.273422 -0.343501,0.744312 -0.163572,0.4557 -0.441644,1.701282 -0.261715,1.230391 -0.261715,2.111411 0,0.881021 0.147215,1.139253 0.147214,0.258229 0.40893,0.258229 0.52343,0 0.899645,-0.4557 0.392573,-0.470892 0.539788,-1.291151 l 0.866931,-4.450675 Q 47.13343,56.251848 46.7245,56.251848 q -0.392573,0 -0.637931,0.12152 -0.229,0.12152 -0.425287,0.394938 z" />
    <path
       id="path1049"
       style="font-style:normal;font-variant:normal;font-weight:normal;font-stretch:normal;font-size:56.58139038px;line-height:1.25;font-family:'Sansita One';-inkscape-font-specification:'Sansita One';text-align:center;letter-spacing:0px;word-spacing:0px;text-anchor:middle;fill:#ffffff;fill-opacity:1;stroke:none;stroke-width:0.39407006"
       d="m 57.731357,55.902475 q 0.539786,-0.56203 1.472146,-0.56203 0.572502,0 1.014147,0.288612 0.441642,0.288611 0.441642,0.835451 0,0.531648 -0.179928,1.108871 -0.17993,0.57722 -0.458001,1.169629 -0.556146,1.154442 -1.324932,2.111414 -1.079574,1.382289 -2.126435,2.111411 -1.030504,0.729121 -2.159151,0.729121 -0.916001,0 -1.472146,-0.19747 -0.09814,-3.189903 -0.229001,-4.329155 -0.1145,-1.13925 -0.212644,-1.762042 -0.163571,-1.2152 -0.654286,-1.503812 0.376215,-0.303798 0.736073,-0.425318 0.376215,-0.136712 1.128645,-0.136712 0.768789,0 1.308575,0.56203 0.539788,0.546841 0.637932,1.534192 0.1145,0.972161 0.1145,2.156982 0,1.184822 -0.09814,2.612683 0.507073,-0.33418 1.046861,-1.35191 0.736073,-1.412672 0.997787,-3.113954 0.08179,-0.516459 0.08179,-1.063299 0,-0.546841 -0.06543,-0.774694 z" />
    <path
       id="path1051"
       style="font-style:normal;font-variant:normal;font-weight:normal;font-stretch:normal;font-size:56.58139038px;line-height:1.25;font-family:'Sansita One';-inkscape-font-specification:'Sansita One';text-align:center;letter-spacing:0px;word-spacing:0px;text-anchor:middle;fill:#ffffff;fill-opacity:1;stroke:none;stroke-width:0.39407006"
       d="m 61.793819,62.935454 q -0.376214,-0.394942 -0.556145,-1.017731 -0.163571,-0.622791 -0.163571,-1.640524 0,-1.01773 0.376215,-1.944319 0.376215,-0.926593 1.063218,-1.594953 1.406718,-1.397482 3.72944,-1.397482 0.834217,0 1.439433,0.258232 l 2.79708,-0.258232 -1.210431,5.924108 q -0.04907,0.182278 -0.04907,0.516458 0,0.33418 0.212644,0.546841 0.229001,0.21266 0.556146,0.243039 -0.163574,0.516462 -0.76879,0.820262 -0.588858,0.303801 -1.259504,0.303801 -0.670643,0 -1.128645,-0.243039 -0.441645,-0.227853 -0.572502,-0.622792 -0.261714,0.379749 -0.81786,0.622792 -0.556145,0.243039 -1.308575,0.243039 -0.736073,0 -1.341291,-0.182281 -0.605216,-0.182281 -0.997788,-0.577219 z m 3.451367,-6.167148 q -0.179928,0.273422 -0.343501,0.744312 -0.163571,0.4557 -0.441642,1.701282 -0.261718,1.230391 -0.261718,2.111411 0,0.881021 0.147217,1.139253 0.147214,0.258229 0.408929,0.258229 0.523432,0 0.899646,-0.4557 0.392572,-0.470892 0.539786,-1.291151 l 0.866933,-4.450675 q -0.343501,-0.273419 -0.752433,-0.273419 -0.392571,0 -0.637929,0.12152 -0.229001,0.12152 -0.425288,0.394938 z" />
  </g>
  <g
     aria-label="Your first Java Code!"
     transform="matrix(1.0727429,0,0,0.93218979,-1.4775493,-3.9803138)"
     style="font-style:normal;font-weight:normal;font-size:19.03845406px;line-height:1.25;font-family:sans-serif;text-align:center;letter-spacing:0px;word-spacing:0px;text-anchor:middle;fill:#ffffff;fill-opacity:1;stroke:none;stroke-width:0.47596133"
     id="text930">
    <path
       d="m 90.923937,42.976013 q -0.552115,-5.159421 -2.494037,-6.263651 0.399807,-0.495 1.047115,-0.761539 0.647307,-0.285576 1.427884,-0.285576 0.780576,0 1.370768,0.285576 0.590193,0.266539 0.970962,0.856731 0.723461,1.123269 0.723461,3.807691 v 1.370768 q 1.142307,-3.350768 2.284614,-4.79769 1.161346,-1.484999 2.608269,-1.484999 0.571153,0 0.951922,0.304615 0.380765,0.285577 0.571155,0.723461 -1.465962,0.647307 -2.874808,2.513076 -1.408845,1.865768 -2.322691,4.474037 l -1.123269,4.854805 h -4.245575 z"
       style="font-style:normal;font-variant:normal;font-weight:normal;font-stretch:normal;font-family:'Sansita One';-inkscape-font-specification:'Sansita One';text-align:center;text-anchor:middle;fill:#ffffff;stroke-width:0.47596133"
       id="path1091" />
    <path
       d="m 102.57309,48.954088 q -4.188459,0 -4.188459,-3.94096 0,-2.798653 1.542115,-4.607306 1.637304,-1.922884 4.474034,-1.922884 2.05616,0 3.10327,0.951923 1.04712,0.951922 1.04712,2.95096 0,3.046153 -1.63731,4.816729 -1.59923,1.751538 -4.34077,1.751538 z m 0.495,-8.281728 q -0.22846,0.514038 -0.41884,1.294615 -0.17135,0.761538 -0.39981,1.979999 -0.22846,1.218461 -0.22846,2.722499 0,0.495 0.1523,0.818654 0.17135,0.323653 0.60923,0.323653 0.43789,0 0.70443,-0.209423 0.28557,-0.209423 0.495,-0.704422 0.38077,-0.875769 0.68538,-2.494038 0.30462,-1.637307 0.32365,-2.34173 0.0381,-0.704423 0.0381,-1.218461 0,-0.533077 -0.15231,-0.875769 -0.1523,-0.342692 -0.59019,-0.342692 -0.41884,0 -0.70442,0.266538 -0.28558,0.266539 -0.51404,0.780577 z"
       style="font-style:normal;font-variant:normal;font-weight:normal;font-stretch:normal;font-family:'Sansita One';-inkscape-font-specification:'Sansita One';text-align:center;text-anchor:middle;fill:#ffffff;stroke-width:0.47596133"
       id="path1093" />
    <path
       d="m 115.80095,47.773703 q -0.91385,1.180385 -3.17942,1.180385 -1.18039,0 -2.03712,-0.704423 -0.85673,-0.723461 -0.85673,-1.751538 0,-0.571154 0.0571,-0.85673 l 1.27557,-6.77769 3.86481,-0.380769 -1.38981,7.348843 q -0.0761,0.418846 -0.0761,0.666346 0,1.10423 0.66634,1.10423 0.7425,0 1.27558,-1.009038 0.17135,-0.323653 0.2475,-0.742499 l 1.35173,-6.987113 3.75058,-0.380769 -1.40885,7.424997 q -0.0571,0.285577 -0.0571,0.590192 0,0.304615 0.17134,0.647307 0.17135,0.323654 0.72346,0.399808 -0.11423,0.456923 -0.51404,0.761538 -0.83769,0.647308 -1.75153,0.647308 -0.89481,0 -1.42789,-0.323654 -0.53307,-0.323654 -0.68538,-0.856731 z"
       style="font-style:normal;font-variant:normal;font-weight:normal;font-stretch:normal;font-family:'Sansita One';-inkscape-font-specification:'Sansita One';text-align:center;text-anchor:middle;fill:#ffffff;stroke-width:0.47596133"
       id="path1095" />
    <path
       d="m 127.7336,43.223513 q 0.68538,-1.218461 0.68538,-2.455961 0,-0.818653 -0.59019,-0.818653 -0.45692,0 -0.93288,0.780576 -0.495,0.780577 -0.64731,1.789615 l -0.99,6.054228 -3.94096,0.38077 1.94192,-10.090381 3.14135,-0.380769 -0.3427,1.922884 q 0.93289,-1.922884 3.02712,-1.922884 1.10423,0 1.69442,0.571153 0.60923,0.571154 0.60923,1.751538 0,1.161346 -0.78058,1.903846 -0.76153,0.742499 -2.07519,0.742499 -0.57115,0 -0.79961,-0.228461 z"
       style="font-style:normal;font-variant:normal;font-weight:normal;font-stretch:normal;font-family:'Sansita One';-inkscape-font-specification:'Sansita One';text-align:center;text-anchor:middle;fill:#ffffff;stroke-width:0.47596133"
       id="path1097" />
    <path
       d="m 143.03219,37.531015 q 0.26653,-0.456923 0.26653,-0.951923 0,-0.875768 -0.53307,-0.875768 -0.81866,0 -1.16135,1.675383 l -0.28558,1.485 h 1.7325 l -0.11423,0.85673 h -1.78961 l -1.71346,8.852881 -3.84577,0.38077 1.82769,-9.233651 h -1.35173 l 0.17135,-0.85673 h 1.33269 l 0.39981,-1.504038 q 0.34269,-1.389807 1.80865,-2.037115 1.06615,-0.456922 2.85577,-0.456922 1.78961,0 2.58923,0.456922 0.79961,0.456923 0.79961,1.066154 0,0.60923 -0.47596,0.989999 -0.47596,0.38077 -1.00904,0.38077 -1.04711,0 -1.50403,-0.228462 z"
       style="font-style:normal;font-variant:normal;font-weight:normal;font-stretch:normal;font-family:'Sansita One';-inkscape-font-specification:'Sansita One';text-align:center;text-anchor:middle;fill:#ffffff;stroke-width:0.47596133"
       id="path1099" />
    <path
       d="m 149.10069,47.526204 q -0.59019,1.427884 -2.475,1.427884 -0.97096,0 -1.58019,-0.666346 -0.51404,-0.590192 -0.51404,-1.180384 0,-1.542115 0.70443,-4.550191 l 0.70442,-3.69346 3.8648,-0.380769 -1.16134,6.016151 q -0.32366,1.408846 -0.32366,1.903846 0,1.085192 0.78058,1.123269 z M 146.283,36.217362 q 0,-0.7425 0.60923,-1.142307 0.62827,-0.399808 1.52308,-0.399808 0.8948,0 1.42788,0.399808 0.55212,0.399807 0.55212,1.142307 0,0.7425 -0.60923,1.123269 -0.5902,0.380769 -1.485,0.380769 -0.89481,0 -1.46596,-0.380769 -0.55212,-0.380769 -0.55212,-1.123269 z"
       style="font-style:normal;font-variant:normal;font-weight:normal;font-stretch:normal;font-family:'Sansita One';-inkscape-font-specification:'Sansita One';text-align:center;text-anchor:middle;fill:#ffffff;stroke-width:0.47596133"
       id="path1101" />
    <path
       d="m 156.66313,43.223513 q 0.68538,-1.218461 0.68538,-2.455961 0,-0.818653 -0.59019,-0.818653 -0.45693,0 -0.93289,0.780576 -0.495,0.780577 -0.6473,1.789615 l -0.99,6.054228 -3.94096,0.38077 1.94192,-10.090381 3.14134,-0.380769 -0.34269,1.922884 q 0.93289,-1.922884 3.02712,-1.922884 1.10423,0 1.69442,0.571153 0.60923,0.571154 0.60923,1.751538 0,1.161346 -0.78058,1.903846 -0.76154,0.742499 -2.07519,0.742499 -0.57115,0 -0.79961,-0.228461 z"
       style="font-style:normal;font-variant:normal;font-weight:normal;font-stretch:normal;font-family:'Sansita One';-inkscape-font-specification:'Sansita One';text-align:center;text-anchor:middle;fill:#ffffff;stroke-width:0.47596133"
       id="path1103" />
    <path
       d="m 166.32484,41.890821 q 0.26654,-0.704423 0.26654,-1.313653 0,-1.123269 -0.91384,-1.123269 -0.47597,0 -0.87577,0.437884 -0.38077,0.418846 -0.38077,0.951923 0,0.380769 0.30461,0.685384 0.43789,0.418846 1.56116,1.104231 1.12327,0.685384 1.54211,1.256538 0.43789,0.552115 0.43789,1.332692 0,0.761538 -0.38077,1.465961 -0.36173,0.704422 -1.02808,1.199422 -1.42788,1.066154 -3.7125,1.066154 -1.2375,0 -2.18942,-0.647308 -0.95192,-0.628269 -0.95192,-1.370769 0,-0.742499 0.53307,-1.180384 0.55212,-0.437884 1.35173,-0.437884 0.79962,0 1.29462,0.304615 -0.2475,0.628269 -0.2475,1.047115 0,1.256538 1.06615,1.256538 0.45693,0 0.76154,-0.285577 0.30462,-0.285577 0.30462,-0.780576 0,-0.970962 -1.63731,-1.999038 -1.33269,-0.875769 -1.63731,-1.218461 -0.51404,-0.609231 -0.51404,-1.370769 0,-0.761538 0.36173,-1.484999 0.36173,-0.723461 1.02808,-1.2375 1.38981,-1.066153 3.80769,-1.066153 1.2375,0 1.96096,0.495 0.7425,0.494999 0.7425,1.332691 0,0.837692 -0.51404,1.313654 -0.495,0.475961 -1.40884,0.475961 -0.62827,0 -0.93289,-0.209423 z"
       style="font-style:normal;font-variant:normal;font-weight:normal;font-stretch:normal;font-family:'Sansita One';-inkscape-font-specification:'Sansita One';text-align:center;text-anchor:middle;fill:#ffffff;stroke-width:0.47596133"
       id="path1105" />
    <path
       d="m 170.1959,46.669473 q 0,-0.514038 0.26653,-1.808653 l 1.00904,-5.140383 h -1.12327 l 0.0762,-0.571153 q 2.28461,-0.685385 4.49307,-2.360769 h 0.91385 l -0.45693,2.075192 h 1.485 l -0.17134,0.85673 h -1.46596 l -0.97096,5.140383 q -0.2475,1.180384 -0.2475,1.580192 0,0.913845 0.79961,1.10423 -0.19038,0.647307 -0.87577,1.028076 -0.68538,0.38077 -1.65634,0.38077 -0.97096,0 -1.52308,-0.609231 -0.55211,-0.60923 -0.55211,-1.675384 z"
       style="font-style:normal;font-variant:normal;font-weight:normal;font-stretch:normal;font-family:'Sansita One';-inkscape-font-specification:'Sansita One';text-align:center;text-anchor:middle;fill:#ffffff;stroke-width:0.47596133"
       id="path1107" />
    <path
       d="m 109.22435,75.356143 q 0.97096,-0.114231 1.5802,-1.370769 0.62826,-1.275576 1.19942,-4.207498 l 1.84673,-9.61442 h 4.13134 l -1.84673,9.61442 q -0.70442,3.731537 -1.86577,5.197498 -0.60923,0.761538 -1.3898,1.066153 -0.76154,0.304615 -1.59923,0.304615 -0.8377,0 -1.37077,-0.304615 -0.55212,-0.304615 -0.68539,-0.685384 z"
       style="font-style:normal;font-variant:normal;font-weight:normal;font-stretch:normal;font-family:'Sansita One';-inkscape-font-specification:'Sansita One';text-align:center;text-anchor:middle;fill:#ffffff;stroke-width:0.47596133"
       id="path1109" />
    <path
       d="m 119.20943,72.157682 q -0.43789,-0.494999 -0.64731,-1.275576 -0.19038,-0.780577 -0.19038,-2.056153 0,-1.275576 0.43788,-2.436922 0.43788,-1.161346 1.2375,-1.999038 1.63731,-1.751538 4.34077,-1.751538 0.97096,0 1.67538,0.323654 l 3.25558,-0.323654 -1.40885,7.424997 q -0.0571,0.228462 -0.0571,0.647308 0,0.418846 0.2475,0.685384 0.26653,0.266539 0.6473,0.304616 -0.19038,0.647307 -0.8948,1.028076 -0.68539,0.380769 -1.46597,0.380769 -0.78057,0 -1.31365,-0.304615 -0.51404,-0.285577 -0.66634,-0.780577 -0.30462,0.475962 -0.95193,0.780577 -0.6473,0.304615 -1.52307,0.304615 -0.85673,0 -1.56116,-0.228461 -0.70442,-0.228462 -1.16134,-0.723462 z m 4.01711,-7.729612 q -0.20942,0.342692 -0.39981,0.932884 -0.19038,0.571154 -0.51403,2.132307 -0.30462,1.542115 -0.30462,2.646345 0,1.104231 0.17135,1.427884 0.17134,0.323654 0.47596,0.323654 0.60923,0 1.04711,-0.571154 0.45693,-0.590192 0.62827,-1.618268 l 1.00904,-5.578267 q -0.39981,-0.342692 -0.87577,-0.342692 -0.45692,0 -0.7425,0.152307 -0.26654,0.152308 -0.495,0.495 z"
       style="font-style:normal;font-variant:normal;font-weight:normal;font-stretch:normal;font-family:'Sansita One';-inkscape-font-specification:'Sansita One';text-align:center;text-anchor:middle;fill:#ffffff;stroke-width:0.47596133"
       id="path1111" />
    <path
       d="m 137.27514,63.342878 q 0.62827,-0.704423 1.71346,-0.704423 0.66634,0 1.18038,0.361731 0.51404,0.361731 0.51404,1.047115 0,0.666346 -0.20942,1.389807 -0.20943,0.723461 -0.53308,1.465961 -0.64731,1.446923 -1.54212,2.646345 -1.25653,1.7325 -2.47499,2.646345 -1.19943,0.913846 -2.51308,0.913846 -1.06615,0 -1.71346,-0.2475 -0.11423,-3.998075 -0.26654,-5.425959 -0.13327,-1.427884 -0.2475,-2.208461 -0.19038,-1.523076 -0.76154,-1.884807 0.43789,-0.380769 0.85673,-0.533077 0.43789,-0.171346 1.31366,-0.171346 0.8948,0 1.52307,0.704423 0.62827,0.685385 0.7425,1.922884 0.13327,1.218461 0.13327,2.703461 0,1.484999 -0.11423,3.274614 0.59019,-0.418846 1.21846,-1.694423 0.85673,-1.770576 1.16135,-3.902883 0.0952,-0.647307 0.0952,-1.332692 0,-0.685384 -0.0762,-0.970961 z"
       style="font-style:normal;font-variant:normal;font-weight:normal;font-stretch:normal;font-family:'Sansita One';-inkscape-font-specification:'Sansita One';text-align:center;text-anchor:middle;fill:#ffffff;stroke-width:0.47596133"
       id="path1113" />
    <path
       d="m 142.00351,72.157682 q -0.43788,-0.494999 -0.6473,-1.275576 -0.19039,-0.780577 -0.19039,-2.056153 0,-1.275576 0.43789,-2.436922 0.43788,-1.161346 1.2375,-1.999038 1.6373,-1.751538 4.34076,-1.751538 0.97096,0 1.67539,0.323654 l 3.25557,-0.323654 -1.40884,7.424997 q -0.0571,0.228462 -0.0571,0.647308 0,0.418846 0.2475,0.685384 0.26654,0.266539 0.64731,0.304616 -0.19039,0.647307 -0.89481,1.028076 -0.68538,0.380769 -1.46596,0.380769 -0.78058,0 -1.31365,-0.304615 -0.51404,-0.285577 -0.66635,-0.780577 -0.30461,0.475962 -0.95192,0.780577 -0.64731,0.304615 -1.52308,0.304615 -0.85673,0 -1.56115,-0.228461 -0.70442,-0.228462 -1.16135,-0.723462 z m 4.01712,-7.729612 q -0.20943,0.342692 -0.39981,0.932884 -0.19039,0.571154 -0.51404,2.132307 -0.30461,1.542115 -0.30461,2.646345 0,1.104231 0.17134,1.427884 0.17135,0.323654 0.47596,0.323654 0.60923,0 1.04712,-0.571154 0.45692,-0.590192 0.62827,-1.618268 l 1.00904,-5.578267 q -0.39981,-0.342692 -0.87577,-0.342692 -0.45693,0 -0.7425,0.152307 -0.26654,0.152308 -0.495,0.495 z"
       style="font-style:normal;font-variant:normal;font-weight:normal;font-stretch:normal;font-family:'Sansita One';-inkscape-font-specification:'Sansita One';text-align:center;text-anchor:middle;fill:#ffffff;stroke-width:0.47596133"
       id="path1115" />
    <path
       d="m 116.9318,92.943401 q 0.495,0.361731 0.495,1.142308 0,0.761538 -0.34269,1.313653 -0.32365,0.533077 -0.97096,0.951923 -1.38981,0.894807 -3.82673,0.894807 -2.41788,0 -3.75057,-1.256538 -1.31366,-1.275576 -1.31366,-3.522114 0,-3.179422 1.65635,-5.597306 1.25654,-1.789614 3.50307,-2.551152 1.16135,-0.380769 2.30366,-0.380769 1.1423,0 1.84673,0.152307 0.70442,0.152308 1.2375,0.456923 1.16134,0.666346 1.16134,1.732499 0,0.970962 -0.91384,1.694423 -0.8377,0.647307 -1.52308,0.647307 -0.68538,0 -0.97096,-0.09519 0.0761,-0.685384 0.0761,-1.123269 0,-0.456923 -0.019,-0.780576 -0.019,-0.323654 -0.11423,-0.628269 -0.19038,-0.704423 -0.78057,-0.704423 -0.57116,0 -1.16135,0.552115 -0.57115,0.533077 -1.06615,1.446922 -1.12327,2.075192 -1.12327,4.531152 0,1.180385 0.66634,1.865769 0.66635,0.666346 2.09423,0.666346 1.06616,0 2.0752,-0.704423 0.43788,-0.304615 0.76153,-0.704423 z"
       style="font-style:normal;font-variant:normal;font-weight:normal;font-stretch:normal;font-family:'Sansita One';-inkscape-font-specification:'Sansita One';text-align:center;text-anchor:middle;fill:#ffffff;stroke-width:0.47596133"
       id="path1117" />
    <path
       d="m 123.1547,97.26513 q -4.18846,0 -4.18846,-3.94096 0,-2.798652 1.54212,-4.607306 1.6373,-1.922883 4.47403,-1.922883 2.05616,0 3.10327,0.951922 1.04712,0.951923 1.04712,2.950961 0,3.046152 -1.63731,4.816729 -1.59923,1.751537 -4.34077,1.751537 z m 0.495,-8.281727 q -0.22846,0.514038 -0.41884,1.294615 -0.17135,0.761538 -0.39981,1.979999 -0.22846,1.218461 -0.22846,2.722499 0,0.495 0.1523,0.818653 0.17135,0.323654 0.60923,0.323654 0.43789,0 0.70443,-0.209423 0.28557,-0.209423 0.495,-0.704423 0.38077,-0.875769 0.68538,-2.494037 0.30462,-1.637307 0.32366,-2.34173 0.0381,-0.704423 0.0381,-1.218461 0,-0.533077 -0.15231,-0.875769 -0.1523,-0.342692 -0.59019,-0.342692 -0.41884,0 -0.70442,0.266538 -0.28558,0.266539 -0.51404,0.780577 z"
       style="font-style:normal;font-variant:normal;font-weight:normal;font-stretch:normal;font-family:'Sansita One';-inkscape-font-specification:'Sansita One';text-align:center;text-anchor:middle;fill:#ffffff;stroke-width:0.47596133"
       id="path1119" />
    <path
       d="m 136.26833,86.793981 q 0.68538,0 1.21846,0.152307 0.019,-0.07615 0.0571,-0.285577 l 0.0952,-0.590192 q 0.0761,-0.380769 0.19038,-1.009038 l 0.30462,-1.504038 3.78865,-0.380769 -2.11327,11.042304 q -0.019,0.11423 -0.019,0.304615 v 0.304615 q 0,0.418846 0.20943,0.7425 0.20942,0.304615 0.55211,0.304615 -0.38077,0.894808 -1.54211,1.275577 -0.39981,0.11423 -0.97096,0.11423 -0.55212,0 -1.06616,-0.304615 -0.51404,-0.285577 -0.66634,-0.780577 -0.30462,0.495 -0.91385,0.780577 -0.60923,0.304615 -1.50404,0.304615 -0.87577,0 -1.61827,-0.228461 -0.72346,-0.228462 -1.18038,-0.723461 -0.83769,-0.970962 -0.83769,-3.179422 0,-2.855768 1.67538,-4.588268 1.67539,-1.751537 4.34077,-1.751537 z m -0.13327,1.142307 q -0.70442,0 -1.08519,0.761538 -0.38077,0.761538 -0.78058,2.646345 -0.38077,1.884807 -0.38077,3.579229 0,1.161346 0.68539,1.161346 0.60923,0 1.02807,-0.60923 0.43789,-0.609231 0.60923,-1.618269 l 1.02808,-5.578267 q -0.39981,-0.342692 -1.10423,-0.342692 z"
       style="font-style:normal;font-variant:normal;font-weight:normal;font-stretch:normal;font-family:'Sansita One';-inkscape-font-specification:'Sansita One';text-align:center;text-anchor:middle;fill:#ffffff;stroke-width:0.47596133"
       id="path1121" />
    <path
       d="m 149.88082,93.666863 q 0.47596,0.323653 0.47596,1.047115 0,0.704422 -0.36173,1.161345 -0.36173,0.456923 -0.95192,0.761538 -1.21846,0.628269 -2.53211,0.628269 -1.31366,0 -2.09423,-0.285576 -0.76154,-0.285577 -1.27558,-0.818654 -1.00904,-1.009038 -1.00904,-2.855768 0,-2.874807 1.56115,-4.626344 1.67539,-1.884807 4.58827,-1.884807 1.80866,0 2.70346,0.761538 0.66635,0.571153 0.66635,1.504038 0,3.350768 -5.78769,3.350768 -0.0762,0.494999 -0.0762,0.913845 0,0.875769 0.38077,1.218461 0.39981,0.323654 1.12327,0.323654 0.72346,0 1.485,-0.323654 0.78058,-0.342692 1.10423,-0.875768 z m -3.88384,-2.075192 q 1.35173,0 2.1323,-0.837692 0.78058,-0.799615 0.78058,-2.075191 0,-0.437885 -0.17134,-0.666346 -0.15231,-0.2475 -0.47597,-0.2475 -0.32365,0 -0.60923,0.133269 -0.26653,0.114231 -0.55211,0.533077 -0.70442,0.951922 -1.10423,3.160383 z"
       style="font-style:normal;font-variant:normal;font-weight:normal;font-stretch:normal;font-family:'Sansita One';-inkscape-font-specification:'Sansita One';text-align:center;text-anchor:middle;fill:#ffffff;stroke-width:0.47596133"
       id="path1123" />
    <path
       d="m 151.77039,95.761092 q 0,-0.723461 0.53307,-1.10423 0.55212,-0.399807 1.35174,-0.399807 0.79961,0 1.29461,0.399807 0.51404,0.380769 0.51404,1.10423 0,0.723462 -0.57116,1.123269 -0.55211,0.399808 -1.35173,0.399808 -0.79961,0 -1.29461,-0.399808 -0.47596,-0.399807 -0.47596,-1.123269 z m 1.02807,-3.579229 q 0,-0.133269 0.0381,-0.323654 l 1.485,-7.653458 q 0.70442,-0.266538 1.54212,-0.266538 0.83769,0 1.27557,0.533076 0.43789,0.533077 0.43789,1.332692 0,0.780577 -0.30462,1.675384 -0.30461,0.875769 -0.68538,1.770576 -0.36173,0.894808 -0.68539,1.827692 -0.30461,0.913846 -0.32365,1.884807 -0.43789,0.495 -1.19942,0.495 -0.76154,0 -1.18039,-0.342693 -0.39981,-0.36173 -0.39981,-0.932884 z"
       style="font-style:normal;font-variant:normal;font-weight:normal;font-stretch:normal;font-family:'Sansita One';-inkscape-font-specification:'Sansita One';text-align:center;text-anchor:middle;fill:#ffffff;stroke-width:0.47596133"
       id="path1125" />
  </g>
</svg>
