<?xml version="1.0" encoding="UTF-8" standalone="no"?>
<svg
   xmlns:osb="http://www.openswatchbook.org/uri/2009/osb"
   xmlns:dc="http://purl.org/dc/elements/1.1/"
   xmlns:cc="http://creativecommons.org/ns#"
   xmlns:rdf="http://www.w3.org/1999/02/22-rdf-syntax-ns#"
   xmlns:svg="http://www.w3.org/2000/svg"
   xmlns="http://www.w3.org/2000/svg"
   xmlns:xlink="http://www.w3.org/1999/xlink"
   id="svg3357"
   version="1.1"
   viewBox="0 0 211.40208 119.0625"
   height="119.0625mm"
   width="211.40208mm">
  <defs
     id="defs3351">
    <linearGradient
       osb:paint="solid"
       id="linearGradient4115">
      <stop
         id="stop4113"
         offset="0"
         style="stop-color:#000000;stop-opacity:1;" />
    </linearGradient>
    <linearGradient
       id="linearGradient6114">
      <stop
         id="stop6110"
         offset="0"
         style="stop-color:#6f7c91;stop-opacity:1;" />
      <stop
         id="stop6112"
         offset="1"
         style="stop-color:#162d50;stop-opacity:1" />
    </linearGradient>
    <radialGradient
       gradientUnits="userSpaceOnUse"
       gradientTransform="matrix(3.0071285,0,0,1.83657,-125.12732,-58.151445)"
       r="31.67275"
       fy="66.986313"
       fx="73.77433"
       cy="66.986313"
       cx="73.77433"
       id="radialGradient6126"
       xlink:href="#linearGradient6114" />
  </defs>
  <metadata
     id="metadata3354">
    <rdf:RDF>
      <cc:Work
         rdf:about="">
        <dc:format>image/svg+xml</dc:format>
        <dc:type
           rdf:resource="http://purl.org/dc/dcmitype/StillImage" />
        <dc:title></dc:title>
      </cc:Work>
    </rdf:RDF>
  </metadata>
  <g
     id="flowRoot874"
     style="font-style:normal;font-weight:normal;font-size:40px;line-height:1.25;font-family:sans-serif;letter-spacing:0px;word-spacing:0px;fill:#000000;fill-opacity:1;stroke:none"
     transform="matrix(1.1097917,0,0,1.0234149,-1.6397722,-7.1516095)" />
  <g
     id="flowRoot1713"
     style="font-style:normal;font-weight:normal;font-size:40px;line-height:1.25;font-family:sans-serif;letter-spacing:0px;word-spacing:0px;fill:#000000;fill-opacity:1;stroke:none"
     transform="translate(-1.4775493,-4.2705599)" />
  <path
     id="rect6108"
     d="M 0,0 H 211.40208 V 119.0625 H 0 Z"
     style="opacity:1;fill:#555753;fill-opacity:1;stroke:none;stroke-width:4.38045835;stroke-miterlimit:4;stroke-dasharray:none;paint-order:stroke markers fill" />
  <path
     style="opacity:1;fill:#333366;fill-opacity:1;stroke:none;stroke-width:0.83657879;stroke-linecap:round;stroke-linejoin:round;stroke-miterlimit:4;stroke-dasharray:none;stroke-opacity:1;paint-order:stroke markers fill"
     d="m 27.019457,34.3215 h 50.071655 c 1.26634,0 2.285814,0.870605 2.285814,1.95203 v 47.095939 c 0,1.081427 -1.019474,1.95203 -2.285814,1.95203 H 27.019457 c -1.266341,0 -2.285814,-0.870603 -2.285814,-1.95203 V 36.27353 c 0,-1.081425 1.019473,-1.95203 2.285814,-1.95203 z"
     id="rect815" />
  <path
     style="opacity:1;fill:#666666;fill-opacity:1;stroke:none;stroke-width:0.74304694;stroke-linecap:round;stroke-linejoin:round;stroke-miterlimit:4;stroke-dasharray:none;stroke-opacity:1;paint-order:stroke markers fill"
     d="m 26.495793,34.3215 h 51.072411 c 1.002074,0 1.808794,0.688921 1.808794,1.544666 v 8.319077 c 0,0.855744 -0.80672,1.544665 -1.808794,1.544665 H 26.495793 c -1.002071,0 -1.808793,-0.688921 -1.808793,-1.544665 v -8.319077 c 0,-0.855745 0.806722,-1.544666 1.808793,-1.544666 z"
     id="rect918" />
  <path
     style="opacity:1;fill:#ffffff;fill-opacity:1;stroke:none;stroke-width:0.73056543;stroke-linecap:round;stroke-linejoin:round;stroke-miterlimit:4;stroke-dasharray:none;stroke-opacity:1;paint-order:stroke markers fill"
     d="m 41.051806,38.702394 h 22.006956 c 1.00207,0 1.808791,0.68892 1.808791,1.544664 0,0.855743 -0.806721,1.544663 -1.808791,1.544663 H 41.051806 c -1.002071,0 -1.808791,-0.68892 -1.808791,-1.544663 0,-0.855744 0.80672,-1.544664 1.808791,-1.544664 z"
     id="rect817" />
  <path
     style="opacity:1;fill:#ef2929;fill-opacity:1;stroke:none;stroke-width:0.74243265;stroke-linecap:round;stroke-linejoin:round;stroke-miterlimit:4;stroke-dasharray:none;stroke-opacity:1;paint-order:stroke markers fill"
     d="m 33.034093,70.107617 h 38.042382 c 0.652986,0 1.178674,0.448926 1.178674,1.006562 v 0.930596 c 0,0.557636 -0.525688,1.006561 -1.178674,1.006561 H 33.034093 c -0.652987,0 -1.178677,-0.448925 -1.178677,-1.006561 v -0.930596 c 0,-0.557636 0.52569,-1.006562 1.178677,-1.006562 z"
     id="rect914" />
  <path
     style="opacity:1;fill:#ef2929;fill-opacity:1;stroke:none;stroke-width:0.74243265;stroke-linecap:round;stroke-linejoin:round;stroke-miterlimit:4;stroke-dasharray:none;stroke-opacity:1;paint-order:stroke markers fill"
     d="m 33.034093,75.829231 h 38.042382 c 0.652986,0 1.178674,0.448925 1.178674,1.006562 v 0.930598 c 0,0.557633 -0.525688,1.006559 -1.178674,1.006559 H 33.034093 c -0.652987,0 -1.178677,-0.448926 -1.178677,-1.006559 v -0.930598 c 0,-0.557637 0.52569,-1.006562 1.178677,-1.006562 z"
     id="rect916" />
  <g
     id="text866"
     style="font-style:normal;font-weight:normal;font-size:56.58139038px;line-height:1.25;font-family:sans-serif;text-align:center;letter-spacing:0px;word-spacing:0px;text-anchor:middle;fill:#ffffff;fill-opacity:1;stroke:none;stroke-width:1.41453469"
     transform="matrix(0.28909139,0,0,0.26846307,21.664356,25.668135)"
     aria-label="Java">
    <path
       id="path1199"
       style="font-style:normal;font-variant:normal;font-weight:normal;font-stretch:normal;font-family:'Sansita One';-inkscape-font-specification:'Sansita One';text-align:center;text-anchor:middle;fill:#ffffff;stroke-width:1.41453469"
       d="m 41.394252,148.32297 q 2.885651,-0.33949 4.696255,-4.07386 1.867186,-3.79095 3.564628,-12.50449 l 5.488395,-28.5736 h 12.278162 l -5.488395,28.5736 q -2.093512,11.08996 -5.544976,15.44672 -1.810605,2.26326 -4.130442,3.16856 -2.263256,0.9053 -4.752837,0.9053 -2.489581,0 -4.07386,-0.9053 -1.64086,-0.9053 -2.03693,-2.03693 z" />
    <path
       id="path1201"
       style="font-style:normal;font-variant:normal;font-weight:normal;font-stretch:normal;font-family:'Sansita One';-inkscape-font-specification:'Sansita One';text-align:center;text-anchor:middle;fill:#ffffff;stroke-width:1.41453469"
       d="m 71.069424,138.8173 q -1.301372,-1.47112 -1.923767,-3.79095 -0.565814,-2.31984 -0.565814,-6.1108 0,-3.79095 1.301372,-7.24241 1.301372,-3.45147 3.67779,-5.94105 4.866,-5.20549 12.900557,-5.20549 2.885651,0 4.979163,0.96189 l 9.675415,-0.96189 -4.187021,22.06675 q -0.169744,0.67897 -0.169744,1.92376 0,1.24479 0.735558,2.03693 0.79214,0.79214 1.923768,0.9053 -0.565814,1.92377 -2.659326,3.0554 -2.03693,1.13163 -4.356767,1.13163 -2.319837,0 -3.904116,-0.9053 -1.527697,-0.84873 -1.980348,-2.31984 -0.905303,1.41453 -2.82907,2.31984 -1.923767,0.9053 -4.526511,0.9053 -2.546163,0 -4.639674,-0.67898 -2.093512,-0.67898 -3.451465,-2.15009 z m 11.938673,-22.97205 q -0.622395,1.01847 -1.188209,2.77249 -0.565814,1.69744 -1.527697,6.33712 -0.905303,4.58309 -0.905303,7.86481 0,3.28172 0.509233,4.24361 0.509232,0.96188 1.414535,0.96188 1.810604,0 3.111976,-1.69744 1.357953,-1.75403 1.867186,-4.80942 l 2.998814,-16.57835 q -1.18821,-1.01846 -2.602744,-1.01846 -1.357954,0 -2.206675,0.45265 -0.792139,0.45265 -1.471116,1.47111 z" />
    <path
       id="path1203"
       style="font-style:normal;font-variant:normal;font-weight:normal;font-stretch:normal;font-family:'Sansita One';-inkscape-font-specification:'Sansita One';text-align:center;text-anchor:middle;fill:#ffffff;stroke-width:1.41453469"
       d="m 124.75986,112.62011 q 1.86718,-2.09351 5.09232,-2.09351 1.98035,0 3.50805,1.07505 1.52769,1.07505 1.52769,3.11198 0,1.98034 -0.62239,4.13044 -0.6224,2.15009 -1.58428,4.35676 -1.92377,4.30019 -4.58309,7.86482 -3.73437,5.1489 -7.35558,7.86481 -3.56463,2.71591 -7.46875,2.71591 -3.16855,0 -5.09232,-0.73556 -0.33949,-11.88209 -0.79214,-16.1257 -0.39607,-4.2436 -0.73556,-6.56344 -0.56581,-4.52651 -2.26325,-5.60156 1.30137,-1.13162 2.54616,-1.58427 1.30137,-0.50924 3.90411,-0.50924 2.65933,0 4.52651,2.09351 1.86719,2.03693 2.20668,5.71472 0.39607,3.62121 0.39607,8.03456 0,4.41335 -0.33949,9.732 1.75402,-1.24479 3.62121,-5.03574 2.54616,-5.26207 3.45146,-11.59919 0.28291,-1.92376 0.28291,-3.96069 0,-2.03693 -0.22632,-2.88566 z" />
    <path
       id="path1205"
       style="font-style:normal;font-variant:normal;font-weight:normal;font-stretch:normal;font-family:'Sansita One';-inkscape-font-specification:'Sansita One';text-align:center;text-anchor:middle;fill:#ffffff;stroke-width:1.41453469"
       d="m 138.81238,138.8173 q -1.30137,-1.47112 -1.92377,-3.79095 -0.56581,-2.31984 -0.56581,-6.1108 0,-3.79095 1.30137,-7.24241 1.30137,-3.45147 3.67779,-5.94105 4.866,-5.20549 12.90056,-5.20549 2.88565,0 4.97916,0.96189 l 9.67542,-0.96189 -4.18702,22.06675 q -0.16975,0.67897 -0.16975,1.92376 0,1.24479 0.73556,2.03693 0.79214,0.79214 1.92377,0.9053 -0.56582,1.92377 -2.65933,3.0554 -2.03693,1.13163 -4.35677,1.13163 -2.31983,0 -3.90411,-0.9053 -1.5277,-0.84873 -1.98035,-2.31984 -0.9053,1.41453 -2.82907,2.31984 -1.92377,0.9053 -4.52651,0.9053 -2.54616,0 -4.63968,-0.67898 -2.09351,-0.67898 -3.45146,-2.15009 z m 11.93867,-22.97205 q -0.62239,1.01847 -1.18821,2.77249 -0.56581,1.69744 -1.52769,6.33712 -0.90531,4.58309 -0.90531,7.86481 0,3.28172 0.50924,4.24361 0.50923,0.96188 1.41453,0.96188 1.81061,0 3.11198,-1.69744 1.35795,-1.75403 1.86718,-4.80942 l 2.99882,-16.57835 q -1.18821,-1.01846 -2.60275,-1.01846 -1.35795,0 -2.20667,0.45265 -0.79214,0.45265 -1.47112,1.47111 z" />
  </g>
  <g
     id="flowRoot56"
     style="font-style:normal;font-weight:normal;font-size:40px;line-height:1.25;font-family:sans-serif;letter-spacing:0px;word-spacing:0px;fill:#ffffff;fill-opacity:1;stroke:none"
     transform="matrix(0.36869023,0,0,0.50258175,269.9396,-52.764844)"
     aria-label="Install OpenJDK
JRE / JDK in
Ubuntu">
    <path
       id="path68"
       style="font-style:italic;font-variant:normal;font-weight:500;font-stretch:normal;font-family:Ubuntu;-inkscape-font-specification:'Ubuntu Medium Italic';text-align:center;text-anchor:middle;fill:#ffffff"
       d="m -499.80055,153.9625 h 5.04 l -6.64,27.72 h -5.04 z" />
    <path
       id="path70"
       style="font-style:italic;font-variant:normal;font-weight:500;font-stretch:normal;font-family:Ubuntu;-inkscape-font-specification:'Ubuntu Medium Italic';text-align:center;text-anchor:middle;fill:#ffffff"
       d="m -490.4343,161.6425 q 1.6,-0.48 3.64,-0.88 2.08,-0.44 4.52,-0.44 3.68,0 5.4,1.8 1.72,1.8 1.72,4.84 0,0.84 -0.16,1.8 -0.12,0.92 -0.32,1.92 l -2.64,11 h -4.84 l 2.48,-10.48 q 0.2,-0.88 0.4,-1.8 0.2,-0.92 0.24,-1.76 0.04,-1.4 -0.68,-2.32 -0.68,-0.92 -2.72,-0.92 -1.72,0 -2.96,0.36 l -4.04,16.92 h -4.84 z" />
    <path
       id="path72"
       style="font-style:italic;font-variant:normal;font-weight:500;font-stretch:normal;font-family:Ubuntu;-inkscape-font-specification:'Ubuntu Medium Italic';text-align:center;text-anchor:middle;fill:#ffffff"
       d="m -466.6943,178.2825 q 1.92,0 3.04,-0.6 1.12,-0.64 1.12,-1.92 0,-1.04 -0.72,-1.64 -0.72,-0.64 -2.52,-1.48 -0.96,-0.44 -1.8,-0.92 -0.8,-0.48 -1.4,-1.12 -0.6,-0.64 -0.96,-1.48 -0.36,-0.88 -0.36,-2.08 0,-3.12 2.28,-4.96 2.28,-1.84 6.6,-1.84 2,0 3.56,0.44 1.6,0.4 2.4,0.84 l -1.72,3.76 q -0.68,-0.4 -1.96,-0.76 -1.28,-0.4 -2.68,-0.4 -0.68,0 -1.36,0.12 -0.64,0.12 -1.16,0.4 -0.52,0.28 -0.88,0.8 -0.32,0.48 -0.32,1.2 0,0.92 0.72,1.52 0.76,0.56 2.16,1.2 1.32,0.6 2.24,1.16 0.92,0.56 1.52,1.28 0.6,0.68 0.88,1.56 0.28,0.84 0.28,2.04 0,1.48 -0.6,2.76 -0.6,1.24 -1.76,2.16 -1.12,0.88 -2.8,1.4 -1.68,0.52 -3.84,0.52 -1.48,0 -2.68,-0.2 -1.16,-0.2 -2.04,-0.44 -0.88,-0.28 -1.48,-0.56 -0.6,-0.28 -0.92,-0.48 l 1.72,-3.8 q 0.28,0.16 0.8,0.44 0.56,0.24 1.24,0.48 0.72,0.24 1.56,0.44 0.88,0.16 1.84,0.16 z" />
    <path
       id="path74"
       style="font-style:italic;font-variant:normal;font-weight:500;font-stretch:normal;font-family:Ubuntu;-inkscape-font-specification:'Ubuntu Medium Italic';text-align:center;text-anchor:middle;fill:#ffffff"
       d="m -449.4343,155.2425 5.04,-0.8 -1.52,6.32 h 6.84 l -0.96,4 h -6.84 l -2,8.28 q -0.2,0.88 -0.28,1.48 -0.08,0.56 -0.08,1.04 0,0.48 0.08,0.96 0.12,0.44 0.4,0.8 0.32,0.32 0.88,0.56 0.6,0.2 1.6,0.2 1.08,0 2.08,-0.28 1,-0.28 1.76,-0.6 l 0.36,3.88 q -0.92,0.4 -2.32,0.76 -1.4,0.36 -3.28,0.36 -3.44,0 -4.92,-1.48 -1.48,-1.52 -1.48,-4.12 0,-0.96 0.12,-1.96 0.16,-1.04 0.44,-2.2 z" />
    <path
       id="path76"
       style="font-style:italic;font-variant:normal;font-weight:500;font-stretch:normal;font-family:Ubuntu;-inkscape-font-specification:'Ubuntu Medium Italic';text-align:center;text-anchor:middle;fill:#ffffff"
       d="m -420.93867,173.5625 q -0.12,0.44 -0.24,1.44 -0.12,1 -0.12,1.88 0,1.16 0.2,2.28 0.2,1.08 0.64,2.2 l -4.32,0.64 q -0.48,-0.96 -0.76,-2.04 -1,0.88 -2.48,1.6 -1.44,0.68 -3.28,0.68 -1.88,0 -3.24,-0.6 -1.32,-0.64 -2.16,-1.72 -0.84,-1.12 -1.24,-2.6 -0.4,-1.48 -0.4,-3.2 0,-2.92 1.04,-5.44 1.04,-2.52 2.88,-4.36 1.88,-1.84 4.44,-2.88 2.56,-1.08 5.6,-1.08 1.56,0 3.12,0.28 1.6,0.24 3.2,0.96 z m -2.64,-9.04 q -0.76,-0.16 -1.72,-0.16 -1.8,0 -3.32,0.8 -1.52,0.76 -2.64,2.08 -1.08,1.28 -1.68,2.96 -0.6,1.68 -0.6,3.52 0,0.92 0.16,1.72 0.16,0.8 0.52,1.4 0.4,0.6 1.04,0.96 0.64,0.36 1.64,0.36 1.28,0 2.24,-0.52 1,-0.56 1.84,-1.48 0.04,-1.04 0.16,-1.96 0.16,-0.92 0.4,-1.84 z" />
    <path
       id="path78"
       style="font-style:italic;font-variant:normal;font-weight:500;font-stretch:normal;font-family:Ubuntu;-inkscape-font-specification:'Ubuntu Medium Italic';text-align:center;text-anchor:middle;fill:#ffffff"
       d="m -408.87492,182.0825 q -1.88,-0.04 -3.2,-0.48 -1.28,-0.44 -2.08,-1.2 -0.76,-0.76 -1.12,-1.8 -0.32,-1.04 -0.32,-2.28 0,-1.28 0.28,-2.68 0.32,-1.44 0.68,-2.84 l 4.64,-19.36 5.04,-0.8 q -1.24,5.24 -2.48,10.44 -1.24,5.16 -2.52,10.4 -0.2,0.84 -0.44,1.68 -0.24,0.8 -0.24,1.6 0,0.68 0,1.28 0.04,0.56 0.32,1 0.32,0.4 0.92,0.68 0.6,0.28 1.56,0.36 z" />
    <path
       id="path80"
       style="font-style:italic;font-variant:normal;font-weight:500;font-stretch:normal;font-family:Ubuntu;-inkscape-font-specification:'Ubuntu Medium Italic';text-align:center;text-anchor:middle;fill:#ffffff"
       d="m -396.9218,182.0825 q -1.88,-0.04 -3.2,-0.48 -1.28,-0.44 -2.08,-1.2 -0.76,-0.76 -1.12,-1.8 -0.32,-1.04 -0.32,-2.28 0,-1.28 0.28,-2.68 0.32,-1.44 0.68,-2.84 l 4.64,-19.36 5.04,-0.8 q -1.24,5.24 -2.48,10.44 -1.24,5.16 -2.52,10.4 -0.2,0.84 -0.44,1.68 -0.24,0.8 -0.24,1.6 0,0.68 0,1.28 0.04,0.56 0.32,1 0.32,0.4 0.92,0.68 0.6,0.28 1.56,0.36 z" />
    <path
       id="path82"
       style="font-style:italic;font-variant:normal;font-weight:500;font-stretch:normal;font-family:Ubuntu;-inkscape-font-specification:'Ubuntu Medium Italic';text-align:center;text-anchor:middle;fill:#ffffff"
       d="m -366.23555,157.6825 q -2.28,0 -4.16,1.16 -1.84,1.12 -3.16,2.96 -1.32,1.84 -2.08,4.2 -0.72,2.32 -0.72,4.72 0,3.28 1.4,5.24 1.4,1.96 4.48,1.96 2.28,0 4.16,-1.12 1.88,-1.16 3.2,-3 1.32,-1.84 2.04,-4.16 0.76,-2.36 0.76,-4.76 0,-3.28 -1.44,-5.24 -1.4,-1.96 -4.48,-1.96 z m -4.76,24.6 q -2.32,0 -4.28,-0.72 -1.92,-0.76 -3.36,-2.16 -1.4,-1.4 -2.2,-3.48 -0.76,-2.08 -0.76,-4.76 0,-3.2 1.04,-6.4 1.04,-3.2 3.04,-5.72 2.04,-2.56 5,-4.12 2.96,-1.6 6.8,-1.6 2.32,0 4.28,0.76 1.96,0.72 3.36,2.12 1.4,1.4 2.16,3.48 0.8,2.08 0.8,4.76 0,3.2 -1.04,6.4 -1.04,3.2 -3.04,5.76 -2,2.52 -5,4.12 -2.96,1.56 -6.8,1.56 z" />
    <path
       id="path84"
       style="font-style:italic;font-variant:normal;font-weight:500;font-stretch:normal;font-family:Ubuntu;-inkscape-font-specification:'Ubuntu Medium Italic';text-align:center;text-anchor:middle;fill:#ffffff"
       d="m -348.06805,177.9225 q 0.4,0.08 0.84,0.12 0.44,0 0.88,0 1.92,0 3.44,-0.72 1.56,-0.76 2.64,-2 1.08,-1.28 1.64,-2.96 0.6,-1.72 0.6,-3.64 0,-0.88 -0.2,-1.64 -0.2,-0.8 -0.68,-1.4 -0.44,-0.6 -1.24,-0.96 -0.76,-0.36 -1.96,-0.36 -0.8,0 -1.52,0.12 -0.72,0.08 -1.28,0.24 z m 14.88,-9.64 q 0,2.84 -0.92,5.36 -0.88,2.48 -2.64,4.36 -1.72,1.88 -4.24,3 -2.48,1.08 -5.72,1.08 -0.56,0 -1.16,-0.08 -0.56,-0.04 -1.12,-0.12 l -1.76,7.2 h -4.84 l 6.6,-27.48 q 1.64,-0.6 3.64,-0.96 2.04,-0.36 4.08,-0.36 2.08,0 3.6,0.64 1.56,0.6 2.52,1.68 1,1.08 1.48,2.56 0.48,1.44 0.48,3.12 z" />
    <path
       id="path86"
       style="font-style:italic;font-variant:normal;font-weight:500;font-stretch:normal;font-family:Ubuntu;-inkscape-font-specification:'Ubuntu Medium Italic';text-align:center;text-anchor:middle;fill:#ffffff"
       d="m -330.28992,174.1225 q 0,-2.68 0.84,-5.16 0.88,-2.52 2.48,-4.44 1.64,-1.96 3.92,-3.12 2.28,-1.16 5.12,-1.16 3.04,0 4.72,1.56 1.68,1.56 1.68,4 0,2.52 -1.24,4.08 -1.24,1.56 -3.24,2.44 -1.96,0.88 -4.48,1.2 -2.48,0.32 -5.04,0.4 -0.04,0.08 -0.04,0.16 v 0.4 q 0,3.64 4.6,3.64 2.72,0 5.44,-1.12 l 0.4,3.92 q -0.96,0.44 -2.72,0.88 -1.76,0.44 -4,0.44 -2.24,0 -3.84,-0.64 -1.6,-0.64 -2.64,-1.76 -1,-1.12 -1.48,-2.56 -0.48,-1.48 -0.48,-3.16 z m 11.64,-9.92 q -1.2,0 -2.28,0.48 -1.08,0.48 -1.92,1.32 -0.84,0.84 -1.48,2 -0.6,1.12 -0.88,2.44 4.8,-0.16 6.96,-1.16 2.2,-1 2.2,-3 0,-0.8 -0.6,-1.44 -0.56,-0.64 -2,-0.64 z" />
    <path
       id="path88"
       style="font-style:italic;font-variant:normal;font-weight:500;font-stretch:normal;font-family:Ubuntu;-inkscape-font-specification:'Ubuntu Medium Italic';text-align:center;text-anchor:middle;fill:#ffffff"
       d="m -305.51242,161.6425 q 1.6,-0.48 3.64,-0.88 2.08,-0.44 4.52,-0.44 3.68,0 5.4,1.8 1.72,1.8 1.72,4.84 0,0.84 -0.16,1.8 -0.12,0.92 -0.32,1.92 l -2.64,11 h -4.84 l 2.48,-10.48 q 0.2,-0.88 0.4,-1.8 0.2,-0.92 0.24,-1.76 0.04,-1.4 -0.68,-2.32 -0.68,-0.92 -2.72,-0.92 -1.72,0 -2.96,0.36 l -4.04,16.92 h -4.84 z" />
    <path
       id="path90"
       style="font-style:italic;font-variant:normal;font-weight:500;font-stretch:normal;font-family:Ubuntu;-inkscape-font-specification:'Ubuntu Medium Italic';text-align:center;text-anchor:middle;fill:#ffffff"
       d="m -271.97242,173.0425 q -0.48,2 -1.2,3.72 -0.68,1.68 -1.88,2.92 -1.2,1.2 -3.04,1.92 -1.8,0.68 -4.56,0.68 -2.44,0 -4.32,-0.76 -1.88,-0.8 -2.92,-1.72 l 2.32,-3.8 q 0.8,0.68 2,1.32 1.2,0.6 3,0.6 1.24,0 2.16,-0.28 0.92,-0.32 1.56,-1 0.68,-0.68 1.16,-1.76 0.48,-1.08 0.84,-2.64 l 4.36,-18.28 h 5.08 z" />
    <path
       id="path92"
       style="font-style:italic;font-variant:normal;font-weight:500;font-stretch:normal;font-family:Ubuntu;-inkscape-font-specification:'Ubuntu Medium Italic';text-align:center;text-anchor:middle;fill:#ffffff"
       d="m -261.8068,177.5625 q 0.44,0.08 1,0.12 0.6,0 1.84,0 2.88,0 5.2,-0.92 2.32,-0.92 3.92,-2.6 1.64,-1.72 2.52,-4.08 0.88,-2.4 0.88,-5.32 0,-3.16 -1.8,-5 -1.8,-1.84 -5.88,-1.84 -1.04,0 -1.68,0.04 -0.6,0.04 -1.32,0.12 z m 20.56,-12.96 q 0,3.72 -1.2,6.92 -1.2,3.2 -3.56,5.52 -2.36,2.32 -5.92,3.64 -3.52,1.32 -8.2,1.32 -1.68,0 -3.76,-0.2 -2.08,-0.16 -3.84,-0.56 l 6.44,-26.84 q 1.96,-0.44 3.96,-0.56 2,-0.16 3.68,-0.16 3.04,0 5.36,0.8 2.32,0.76 3.88,2.2 1.56,1.4 2.36,3.44 0.8,2 0.8,4.48 z" />
    <path
       id="path94"
       style="font-style:italic;font-variant:normal;font-weight:500;font-stretch:normal;font-family:Ubuntu;-inkscape-font-specification:'Ubuntu Medium Italic';text-align:center;text-anchor:middle;fill:#ffffff"
       d="m -223.15992,181.6825 q -0.8,-1.6 -1.8,-3.32 -0.96,-1.76 -2.08,-3.4 -1.08,-1.68 -2.32,-3.16 -1.2,-1.48 -2.4,-2.6 l -3,12.48 h -5.04 l 6.64,-27.72 h 5.04 l -2.68,11.08 q 1.64,-1.32 3.4,-2.8 1.76,-1.48 3.44,-2.96 1.68,-1.48 3.16,-2.84 1.52,-1.36 2.68,-2.48 h 6.12 q -1.64,1.52 -3.52,3.2 -1.84,1.68 -3.8,3.44 -1.92,1.72 -3.92,3.44 -1.96,1.68 -3.88,3.2 1.24,1.28 2.56,2.92 1.32,1.64 2.56,3.52 1.24,1.88 2.36,3.92 1.12,2.04 2.04,4.08 z" />
    <path
       id="path96"
       style="font-style:italic;font-variant:normal;font-weight:500;font-stretch:normal;font-family:Ubuntu;-inkscape-font-specification:'Ubuntu Medium Italic';text-align:center;text-anchor:middle;fill:#ffffff"
       d="m -454.00367,224.95156 q -0.48,2 -1.2,3.72 -0.68,1.68 -1.88,2.92 -1.2,1.2 -3.04,1.92 -1.8,0.68 -4.56,0.68 -2.44,0 -4.32,-0.76 -1.88,-0.8 -2.92,-1.72 l 2.32,-3.8 q 0.8,0.68 2,1.32 1.2,0.6 3,0.6 1.24,0 2.16,-0.28 0.92,-0.32 1.56,-1 0.68,-0.68 1.16,-1.76 0.48,-1.08 0.84,-2.64 l 4.36,-18.28 h 5.08 z" />
    <path
       id="path98"
       style="font-style:italic;font-variant:normal;font-weight:500;font-stretch:normal;font-family:Ubuntu;-inkscape-font-specification:'Ubuntu Medium Italic';text-align:center;text-anchor:middle;fill:#ffffff"
       d="m -435.83805,205.59156 q 4.96,0 7.52,2.08 2.6,2.04 2.6,5.44 0,1.52 -0.44,2.92 -0.4,1.36 -1.32,2.56 -0.88,1.16 -2.32,2.08 -1.4,0.92 -3.4,1.52 0.52,0.92 1.12,2.24 0.6,1.28 1.24,2.8 0.64,1.48 1.24,3.12 0.6,1.64 1.08,3.24 h -5.32 q -0.48,-1.44 -1,-2.92 -0.52,-1.48 -1.08,-2.84 -0.56,-1.4 -1.16,-2.6 -0.56,-1.24 -1.12,-2.2 -0.36,0.04 -0.88,0.04 -0.52,0 -0.92,0 h -2.32 l -2.52,10.52 h -5.04 l 6.52,-27.32 q 1.92,-0.4 3.88,-0.52 2,-0.16 3.64,-0.16 z m 5,8.08 q 0,-2.2 -1.6,-3 -1.6,-0.84 -4.28,-0.84 -0.56,0 -1.2,0.04 -0.64,0.04 -1.28,0.12 l -2.16,9.04 h 2.24 q 1.8,0 3.32,-0.28 1.52,-0.32 2.6,-0.96 1.12,-0.64 1.72,-1.64 0.64,-1.04 0.64,-2.48 z" />
    <path
       id="path100"
       style="font-style:italic;font-variant:normal;font-weight:500;font-stretch:normal;font-family:Ubuntu;-inkscape-font-specification:'Ubuntu Medium Italic';text-align:center;text-anchor:middle;fill:#ffffff"
       d="m -424.95617,233.59156 6.64,-27.72 h 17.2 l -1,4.2 h -12.2 l -1.64,6.96 h 10.8 l -1,4.12 h -10.76 l -2,8.24 h 13.12 l -1,4.2 z" />
    <path
       id="path102"
       style="font-style:italic;font-variant:normal;font-weight:500;font-stretch:normal;font-family:Ubuntu;-inkscape-font-specification:'Ubuntu Medium Italic';text-align:center;text-anchor:middle;fill:#ffffff"
       d="m -393.61242,240.99156 h -4.88 l 22.36,-38.72 h 4.88 z" />
    <path
       id="path104"
       style="font-style:italic;font-variant:normal;font-weight:500;font-stretch:normal;font-family:Ubuntu;-inkscape-font-specification:'Ubuntu Medium Italic';text-align:center;text-anchor:middle;fill:#ffffff"
       d="m -351.5818,224.95156 q -0.48,2 -1.2,3.72 -0.68,1.68 -1.88,2.92 -1.2,1.2 -3.04,1.92 -1.8,0.68 -4.56,0.68 -2.44,0 -4.32,-0.76 -1.88,-0.8 -2.92,-1.72 l 2.32,-3.8 q 0.8,0.68 2,1.32 1.2,0.6 3,0.6 1.24,0 2.16,-0.28 0.92,-0.32 1.56,-1 0.68,-0.68 1.16,-1.76 0.48,-1.08 0.84,-2.64 l 4.36,-18.28 h 5.08 z" />
    <path
       id="path106"
       style="font-style:italic;font-variant:normal;font-weight:500;font-stretch:normal;font-family:Ubuntu;-inkscape-font-specification:'Ubuntu Medium Italic';text-align:center;text-anchor:middle;fill:#ffffff"
       d="m -341.41617,229.47156 q 0.44,0.08 1,0.12 0.6,0 1.84,0 2.88,0 5.2,-0.92 2.32,-0.92 3.92,-2.6 1.64,-1.72 2.52,-4.08 0.88,-2.4 0.88,-5.32 0,-3.16 -1.8,-5 -1.8,-1.84 -5.88,-1.84 -1.04,0 -1.68,0.04 -0.6,0.04 -1.32,0.12 z m 20.56,-12.96 q 0,3.72 -1.2,6.92 -1.2,3.2 -3.56,5.52 -2.36,2.32 -5.92,3.64 -3.52,1.32 -8.2,1.32 -1.68,0 -3.76,-0.2 -2.08,-0.16 -3.84,-0.56 l 6.44,-26.84 q 1.96,-0.44 3.96,-0.56 2,-0.16 3.68,-0.16 3.04,0 5.36,0.8 2.32,0.76 3.88,2.2 1.56,1.4 2.36,3.44 0.8,2 0.8,4.48 z" />
    <path
       id="path108"
       style="font-style:italic;font-variant:normal;font-weight:500;font-stretch:normal;font-family:Ubuntu;-inkscape-font-specification:'Ubuntu Medium Italic';text-align:center;text-anchor:middle;fill:#ffffff"
       d="m -302.7693,233.59156 q -0.8,-1.6 -1.8,-3.32 -0.96,-1.76 -2.08,-3.4 -1.08,-1.68 -2.32,-3.16 -1.2,-1.48 -2.4,-2.6 l -3,12.48 h -5.04 l 6.64,-27.72 h 5.04 l -2.68,11.08 q 1.64,-1.32 3.4,-2.8 1.76,-1.48 3.44,-2.96 1.68,-1.48 3.16,-2.84 1.52,-1.36 2.68,-2.48 h 6.12 q -1.64,1.52 -3.52,3.2 -1.84,1.68 -3.8,3.44 -1.92,1.72 -3.92,3.44 -1.96,1.68 -3.88,3.2 1.24,1.28 2.56,2.92 1.32,1.64 2.56,3.52 1.24,1.88 2.36,3.92 1.12,2.04 2.04,4.08 z" />
    <path
       id="path110"
       style="font-style:italic;font-variant:normal;font-weight:500;font-stretch:normal;font-family:Ubuntu;-inkscape-font-specification:'Ubuntu Medium Italic';text-align:center;text-anchor:middle;fill:#ffffff"
       d="m -279.96555,233.59156 h -4.8 l 5,-20.92 h 4.84 z m 3.6,-24.08 q -1.08,0 -1.88,-0.64 -0.8,-0.64 -0.8,-1.92 0,-1.48 1,-2.44 1.04,-0.96 2.36,-0.96 1.08,0 1.88,0.68 0.84,0.64 0.84,1.92 0,1.48 -1.04,2.44 -1.04,0.92 -2.36,0.92 z" />
    <path
       id="path112"
       style="font-style:italic;font-variant:normal;font-weight:500;font-stretch:normal;font-family:Ubuntu;-inkscape-font-specification:'Ubuntu Medium Italic';text-align:center;text-anchor:middle;fill:#ffffff"
       d="m -269.10617,213.55156 q 1.6,-0.48 3.64,-0.88 2.08,-0.44 4.52,-0.44 3.68,0 5.4,1.8 1.72,1.8 1.72,4.84 0,0.84 -0.16,1.8 -0.12,0.92 -0.32,1.92 l -2.64,11 h -4.84 l 2.48,-10.48 q 0.2,-0.88 0.4,-1.8 0.2,-0.92 0.24,-1.76 0.04,-1.4 -0.68,-2.32 -0.68,-0.92 -2.72,-0.92 -1.72,0 -2.96,0.36 l -4.04,16.92 h -4.84 z" />
    <path
       id="path114"
       style="font-style:italic;font-variant:normal;font-weight:500;font-stretch:normal;font-family:Ubuntu;-inkscape-font-specification:'Ubuntu Medium Italic';text-align:center;text-anchor:middle;fill:#ffffff"
       d="m -403.98086,275.30062 q -0.6,2.56 -1.52,4.56 -0.92,2 -2.4,3.4 -1.44,1.36 -3.56,2.12 -2.08,0.72 -5.04,0.72 -2.32,0 -4,-0.6 -1.64,-0.64 -2.68,-1.72 -1.04,-1.08 -1.56,-2.56 -0.48,-1.52 -0.48,-3.28 0,-0.92 0.12,-2.04 0.16,-1.12 0.44,-2.16 l 3.8,-15.96 h 5.08 l -3.96,16.52 q -0.2,0.76 -0.32,1.6 -0.12,0.8 -0.12,1.56 0,0.88 0.2,1.68 0.24,0.76 0.76,1.32 0.52,0.56 1.36,0.92 0.84,0.32 2.08,0.32 2.92,0 4.48,-1.72 1.56,-1.72 2.36,-5.16 l 4.08,-17.04 h 5.08 z" />
    <path
       id="path116"
       style="font-style:italic;font-variant:normal;font-weight:500;font-stretch:normal;font-family:Ubuntu;-inkscape-font-specification:'Ubuntu Medium Italic';text-align:center;text-anchor:middle;fill:#ffffff"
       d="m -386.67148,264.10062 q 1.84,0 3.16,0.64 1.36,0.6 2.24,1.68 0.88,1.08 1.32,2.56 0.44,1.44 0.44,3.12 0,2.76 -0.96,5.28 -0.96,2.52 -2.76,4.44 -1.76,1.92 -4.32,3.08 -2.56,1.12 -5.76,1.12 -0.48,0 -1.28,-0.04 -0.8,-0.04 -1.76,-0.2 -0.96,-0.16 -1.96,-0.44 -1,-0.28 -1.84,-0.72 l 7,-29.36 5.04,-0.8 -2.56,10.72 q 0.88,-0.44 1.88,-0.76 1,-0.32 2.12,-0.32 z m -6,17.84 q 1.84,0 3.36,-0.76 1.56,-0.8 2.64,-2.12 1.12,-1.32 1.72,-3 0.6,-1.72 0.6,-3.56 0,-0.92 -0.16,-1.68 -0.16,-0.8 -0.56,-1.36 -0.4,-0.6 -1.08,-0.92 -0.68,-0.36 -1.72,-0.36 -0.88,0 -1.92,0.32 -1.04,0.32 -1.92,1 l -2.92,12.24 q 0.36,0.08 0.8,0.16 0.48,0.04 1.16,0.04 z" />
    <path
       id="path118"
       style="font-style:italic;font-variant:normal;font-weight:500;font-stretch:normal;font-family:Ubuntu;-inkscape-font-specification:'Ubuntu Medium Italic';text-align:center;text-anchor:middle;fill:#ffffff"
       d="m -356.21711,264.58062 -2.96,12.44 q -0.2,0.92 -0.32,1.84 -0.08,0.92 -0.08,1.84 0,1.16 0.16,2.28 0.2,1.12 0.64,2.2 l -4.32,0.64 q -0.24,-0.44 -0.44,-0.96 -0.16,-0.56 -0.32,-1.12 -1,0.8 -2.48,1.56 -1.48,0.72 -3.44,0.72 -1.76,0 -3,-0.52 -1.24,-0.52 -2.04,-1.4 -0.76,-0.92 -1.12,-2.12 -0.32,-1.24 -0.32,-2.6 0,-1.76 0.48,-3.8 l 2.64,-11 h 4.84 l -2.6,10.88 q -0.52,2.08 -0.52,3.4 0,0.64 0.12,1.2 0.12,0.56 0.4,1 0.32,0.4 0.84,0.64 0.56,0.24 1.36,0.24 1.32,0 2.36,-0.52 1.04,-0.56 1.92,-1.48 0.12,-1.72 0.56,-3.52 l 2.8,-11.84 z" />
    <path
       id="path120"
       style="font-style:italic;font-variant:normal;font-weight:500;font-stretch:normal;font-family:Ubuntu;-inkscape-font-specification:'Ubuntu Medium Italic';text-align:center;text-anchor:middle;fill:#ffffff"
       d="m -350.16086,265.46062 q 1.6,-0.48 3.64,-0.88 2.08,-0.44 4.52,-0.44 3.68,0 5.4,1.8 1.72,1.8 1.72,4.84 0,0.84 -0.16,1.8 -0.12,0.92 -0.32,1.92 l -2.64,11 h -4.84 l 2.48,-10.48 q 0.2,-0.88 0.4,-1.8 0.2,-0.92 0.24,-1.76 0.04,-1.4 -0.68,-2.32 -0.68,-0.92 -2.72,-0.92 -1.72,0 -2.96,0.36 l -4.04,16.92 h -4.84 z" />
    <path
       id="path122"
       style="font-style:italic;font-variant:normal;font-weight:500;font-stretch:normal;font-family:Ubuntu;-inkscape-font-specification:'Ubuntu Medium Italic';text-align:center;text-anchor:middle;fill:#ffffff"
       d="m -326.66086,259.06062 5.04,-0.8 -1.52,6.32 h 6.84 l -0.96,4 h -6.84 l -2,8.28 q -0.2,0.88 -0.28,1.48 -0.08,0.56 -0.08,1.04 0,0.48 0.08,0.96 0.12,0.44 0.4,0.8 0.32,0.32 0.88,0.56 0.6,0.2 1.6,0.2 1.08,0 2.08,-0.28 1,-0.28 1.76,-0.6 l 0.36,3.88 q -0.92,0.4 -2.32,0.76 -1.4,0.36 -3.28,0.36 -3.44,0 -4.92,-1.48 -1.48,-1.52 -1.48,-4.12 0,-0.96 0.12,-1.96 0.16,-1.04 0.44,-2.2 z" />
    <path
       id="path124"
       style="font-style:italic;font-variant:normal;font-weight:500;font-stretch:normal;font-family:Ubuntu;-inkscape-font-specification:'Ubuntu Medium Italic';text-align:center;text-anchor:middle;fill:#ffffff"
       d="m -295.04523,264.58062 -2.96,12.44 q -0.2,0.92 -0.32,1.84 -0.08,0.92 -0.08,1.84 0,1.16 0.16,2.28 0.2,1.12 0.64,2.2 l -4.32,0.64 q -0.24,-0.44 -0.44,-0.96 -0.16,-0.56 -0.32,-1.12 -1,0.8 -2.48,1.56 -1.48,0.72 -3.44,0.72 -1.76,0 -3,-0.52 -1.24,-0.52 -2.04,-1.4 -0.76,-0.92 -1.12,-2.12 -0.32,-1.24 -0.32,-2.6 0,-1.76 0.48,-3.8 l 2.64,-11 h 4.84 l -2.6,10.88 q -0.52,2.08 -0.52,3.4 0,0.64 0.12,1.2 0.12,0.56 0.4,1 0.32,0.4 0.84,0.64 0.56,0.24 1.36,0.24 1.32,0 2.36,-0.52 1.04,-0.56 1.92,-1.48 0.12,-1.72 0.56,-3.52 l 2.8,-11.84 z" />
  </g>
</svg>
