<?xml version="1.0" encoding="UTF-8" standalone="no"?>
<svg
   xmlns:osb="http://www.openswatchbook.org/uri/2009/osb"
   xmlns:dc="http://purl.org/dc/elements/1.1/"
   xmlns:cc="http://creativecommons.org/ns#"
   xmlns:rdf="http://www.w3.org/1999/02/22-rdf-syntax-ns#"
   xmlns:svg="http://www.w3.org/2000/svg"
   xmlns="http://www.w3.org/2000/svg"
   xmlns:xlink="http://www.w3.org/1999/xlink"
   id="svg3357"
   version="1.1"
   viewBox="0 0 444.49999 277.8125"
   height="277.8125mm"
   width="444.5mm">
  <defs
     id="defs3351">
    <linearGradient
       id="linearGradient868">
      <stop
         id="stop864"
         offset="0"
         style="stop-color:#db4437;stop-opacity:1;" />
      <stop
         style="stop-color:#de685e;stop-opacity:1"
         offset="0"
         id="stop872" />
      <stop
         id="stop866"
         offset="1"
         style="stop-color:#db4438;stop-opacity:1" />
    </linearGradient>
    <linearGradient
       osb:paint="solid"
       id="linearGradient4115">
      <stop
         id="stop4113"
         offset="0"
         style="stop-color:#000000;stop-opacity:1;" />
    </linearGradient>
    <linearGradient
       id="linearGradient6114">
      <stop
         id="stop6110"
         offset="0"
         style="stop-color:#6f7c91;stop-opacity:1;" />
      <stop
         id="stop6112"
         offset="1"
         style="stop-color:#162d50;stop-opacity:1" />
    </linearGradient>
    <radialGradient
       gradientUnits="userSpaceOnUse"
       gradientTransform="matrix(3.0071285,0,0,1.83657,-125.12732,-58.151445)"
       r="31.67275"
       fy="66.986313"
       fx="73.77433"
       cy="66.986313"
       cx="73.77433"
       id="radialGradient6126"
       xlink:href="#linearGradient6114" />
    <radialGradient
       gradientUnits="userSpaceOnUse"
       gradientTransform="matrix(0.87499999,0,0,0.54687499,0,60.771483)"
       r="254"
       fy="142.875"
       fx="254"
       cy="142.875"
       cx="254"
       id="radialGradient870"
       xlink:href="#linearGradient868" />
  </defs>
  <metadata
     id="metadata3354">
    <rdf:RDF>
      <cc:Work
         rdf:about="">
        <dc:format>image/svg+xml</dc:format>
        <dc:type
           rdf:resource="http://purl.org/dc/dcmitype/StillImage" />
        <dc:title></dc:title>
      </cc:Work>
    </rdf:RDF>
  </metadata>
  <g
     id="flowRoot874"
     style="font-style:normal;font-weight:normal;font-size:40px;line-height:1.25;font-family:sans-serif;letter-spacing:0px;word-spacing:0px;fill:#000000;fill-opacity:1;stroke:none"
     transform="matrix(2.3334794,0,0,2.387968,-3.4478314,-16.687086)" />
  <g
     id="flowRoot1713"
     style="font-style:normal;font-weight:normal;font-size:40px;line-height:1.25;font-family:sans-serif;letter-spacing:0px;word-spacing:0px;fill:#000000;fill-opacity:1;stroke:none"
     transform="matrix(2.1026283,0,0,2.3333333,-3.1067369,-9.964636)" />
  <path
     id="rect6108"
     d="M 0,0 H 444.5 V 277.8125 H 0 Z"
     style="opacity:1;fill:url(#radialGradient870);fill-opacity:1;stroke:none;stroke-width:9.70262432;stroke-miterlimit:4;stroke-dasharray:none;paint-order:stroke markers fill" />
  <g
     transform="matrix(0.73390244,0,0,0.81900984,31.357528,29.731544)"
     id="g897">
    <path
       id="rect815"
       d="m 75.51119,82.371602 h 120.32237 c 3.04302,0 5.49282,2.089452 5.49282,4.684872 V 200.08673 c 0,2.59542 -2.4498,4.68487 -5.49282,4.68487 H 75.51119 c -3.043022,0 -5.49282,-2.08945 -5.49282,-4.68487 V 87.056474 c 0,-2.59542 2.449798,-4.684872 5.49282,-4.684872 z"
       style="opacity:1;fill:#999999;fill-opacity:1;stroke:none;stroke-width:2.00904512;stroke-linecap:round;stroke-linejoin:round;stroke-miterlimit:4;stroke-dasharray:none;stroke-opacity:1;paint-order:stroke markers fill" />
    <path
       id="rect918"
       d="M 74.252824,82.371602 H 196.98002 c 2.40798,0 4.34654,1.65341 4.34654,3.707198 v 19.96578 c 0,2.05379 -1.93856,3.7072 -4.34654,3.7072 H 74.252824 c -2.407981,0 -4.346537,-1.65341 -4.346537,-3.7072 V 86.0788 c 0,-2.053788 1.938556,-3.707198 4.346537,-3.707198 z"
       style="opacity:1;fill:#666666;fill-opacity:1;stroke:none;stroke-width:1.78442836;stroke-linecap:round;stroke-linejoin:round;stroke-miterlimit:4;stroke-dasharray:none;stroke-opacity:1;paint-order:stroke markers fill" />
    <path
       id="rect817"
       d="m 109.23098,92.885747 h 52.88279 c 2.40798,0 4.34653,1.653408 4.34653,3.707194 0,2.053783 -1.93855,3.707189 -4.34653,3.707189 h -52.88279 c -2.40798,0 -4.34653,-1.653406 -4.34653,-3.707189 0,-2.053786 1.93855,-3.707194 4.34653,-3.707194 z"
       style="opacity:1;fill:#ffffff;fill-opacity:1;stroke:none;stroke-width:1.75445402;stroke-linecap:round;stroke-linejoin:round;stroke-miterlimit:4;stroke-dasharray:none;stroke-opacity:1;paint-order:stroke markers fill" />
    <path
       id="rect914"
       d="m 89.964383,168.25828 h 91.415987 c 1.56913,0 2.83236,1.07742 2.83236,2.41575 v 2.23343 c 0,1.33833 -1.26323,2.41575 -2.83236,2.41575 H 89.964383 c -1.56913,0 -2.832365,-1.07742 -2.832365,-2.41575 v -2.23343 c 0,-1.33833 1.263235,-2.41575 2.832365,-2.41575 z"
       style="opacity:1;fill:#364e59;fill-opacity:1;stroke:none;stroke-width:1.78295314;stroke-linecap:round;stroke-linejoin:round;stroke-miterlimit:4;stroke-dasharray:none;stroke-opacity:1;paint-order:stroke markers fill" />
    <path
       id="rect916"
       d="m 89.964383,181.99015 h 91.415987 c 1.56913,0 2.83236,1.07742 2.83236,2.41575 v 2.23344 c 0,1.33832 -1.26323,2.41574 -2.83236,2.41574 H 89.964383 c -1.56913,0 -2.832365,-1.07742 -2.832365,-2.41574 v -2.23344 c 0,-1.33833 1.263235,-2.41575 2.832365,-2.41575 z"
       style="opacity:1;fill:#364e59;fill-opacity:1;stroke:none;stroke-width:1.78295314;stroke-linecap:round;stroke-linejoin:round;stroke-miterlimit:4;stroke-dasharray:none;stroke-opacity:1;paint-order:stroke markers fill" />
    <g
       aria-label="Java"
       transform="matrix(0.6946877,0,0,0.64431136,62.642862,61.60353)"
       style="font-style:normal;font-weight:normal;font-size:56.58139038px;line-height:1.25;font-family:sans-serif;text-align:center;letter-spacing:0px;word-spacing:0px;text-anchor:middle;fill:#ffffff;fill-opacity:1;stroke:none;stroke-width:1.41453469"
       id="text866">
      <path
         d="m 41.394252,148.32297 q 2.885651,-0.33949 4.696255,-4.07386 1.867186,-3.79095 3.564628,-12.50449 l 5.488395,-28.5736 h 12.278162 l -5.488395,28.5736 q -2.093512,11.08996 -5.544976,15.44672 -1.810605,2.26326 -4.130442,3.16856 -2.263256,0.9053 -4.752837,0.9053 -2.489581,0 -4.07386,-0.9053 -1.64086,-0.9053 -2.03693,-2.03693 z"
         style="font-style:normal;font-variant:normal;font-weight:normal;font-stretch:normal;font-family:'Sansita One';-inkscape-font-specification:'Sansita One';text-align:center;text-anchor:middle;fill:#ffffff;stroke-width:1.41453469"
         id="path1199" />
      <path
         d="m 71.069424,138.8173 q -1.301372,-1.47112 -1.923767,-3.79095 -0.565814,-2.31984 -0.565814,-6.1108 0,-3.79095 1.301372,-7.24241 1.301372,-3.45147 3.67779,-5.94105 4.866,-5.20549 12.900557,-5.20549 2.885651,0 4.979163,0.96189 l 9.675415,-0.96189 -4.187021,22.06675 q -0.169744,0.67897 -0.169744,1.92376 0,1.24479 0.735558,2.03693 0.79214,0.79214 1.923768,0.9053 -0.565814,1.92377 -2.659326,3.0554 -2.03693,1.13163 -4.356767,1.13163 -2.319837,0 -3.904116,-0.9053 -1.527697,-0.84873 -1.980348,-2.31984 -0.905303,1.41453 -2.82907,2.31984 -1.923767,0.9053 -4.526511,0.9053 -2.546163,0 -4.639674,-0.67898 -2.093512,-0.67898 -3.451465,-2.15009 z m 11.938673,-22.97205 q -0.622395,1.01847 -1.188209,2.77249 -0.565814,1.69744 -1.527697,6.33712 -0.905303,4.58309 -0.905303,7.86481 0,3.28172 0.509233,4.24361 0.509232,0.96188 1.414535,0.96188 1.810604,0 3.111976,-1.69744 1.357953,-1.75403 1.867186,-4.80942 l 2.998814,-16.57835 q -1.18821,-1.01846 -2.602744,-1.01846 -1.357954,0 -2.206675,0.45265 -0.792139,0.45265 -1.471116,1.47111 z"
         style="font-style:normal;font-variant:normal;font-weight:normal;font-stretch:normal;font-family:'Sansita One';-inkscape-font-specification:'Sansita One';text-align:center;text-anchor:middle;fill:#ffffff;stroke-width:1.41453469"
         id="path1201" />
      <path
         d="m 124.75986,112.62011 q 1.86718,-2.09351 5.09232,-2.09351 1.98035,0 3.50805,1.07505 1.52769,1.07505 1.52769,3.11198 0,1.98034 -0.62239,4.13044 -0.6224,2.15009 -1.58428,4.35676 -1.92377,4.30019 -4.58309,7.86482 -3.73437,5.1489 -7.35558,7.86481 -3.56463,2.71591 -7.46875,2.71591 -3.16855,0 -5.09232,-0.73556 -0.33949,-11.88209 -0.79214,-16.1257 -0.39607,-4.2436 -0.73556,-6.56344 -0.56581,-4.52651 -2.26325,-5.60156 1.30137,-1.13162 2.54616,-1.58427 1.30137,-0.50924 3.90411,-0.50924 2.65933,0 4.52651,2.09351 1.86719,2.03693 2.20668,5.71472 0.39607,3.62121 0.39607,8.03456 0,4.41335 -0.33949,9.732 1.75402,-1.24479 3.62121,-5.03574 2.54616,-5.26207 3.45146,-11.59919 0.28291,-1.92376 0.28291,-3.96069 0,-2.03693 -0.22632,-2.88566 z"
         style="font-style:normal;font-variant:normal;font-weight:normal;font-stretch:normal;font-family:'Sansita One';-inkscape-font-specification:'Sansita One';text-align:center;text-anchor:middle;fill:#ffffff;stroke-width:1.41453469"
         id="path1203" />
      <path
         d="m 138.81238,138.8173 q -1.30137,-1.47112 -1.92377,-3.79095 -0.56581,-2.31984 -0.56581,-6.1108 0,-3.79095 1.30137,-7.24241 1.30137,-3.45147 3.67779,-5.94105 4.866,-5.20549 12.90056,-5.20549 2.88565,0 4.97916,0.96189 l 9.67542,-0.96189 -4.18702,22.06675 q -0.16975,0.67897 -0.16975,1.92376 0,1.24479 0.73556,2.03693 0.79214,0.79214 1.92377,0.9053 -0.56582,1.92377 -2.65933,3.0554 -2.03693,1.13163 -4.35677,1.13163 -2.31983,0 -3.90411,-0.9053 -1.5277,-0.84873 -1.98035,-2.31984 -0.9053,1.41453 -2.82907,2.31984 -1.92377,0.9053 -4.52651,0.9053 -2.54616,0 -4.63968,-0.67898 -2.09351,-0.67898 -3.45146,-2.15009 z m 11.93867,-22.97205 q -0.62239,1.01847 -1.18821,2.77249 -0.56581,1.69744 -1.52769,6.33712 -0.90531,4.58309 -0.90531,7.86481 0,3.28172 0.50924,4.24361 0.50923,0.96188 1.41453,0.96188 1.81061,0 3.11198,-1.69744 1.35795,-1.75403 1.86718,-4.80942 l 2.99882,-16.57835 q -1.18821,-1.01846 -2.60275,-1.01846 -1.35795,0 -2.20667,0.45265 -0.79214,0.45265 -1.47112,1.47111 z"
         style="font-style:normal;font-variant:normal;font-weight:normal;font-stretch:normal;font-family:'Sansita One';-inkscape-font-specification:'Sansita One';text-align:center;text-anchor:middle;fill:#ffffff;stroke-width:1.41453469"
         id="path1205" />
    </g>
  </g>
  <g
     id="flowRoot875"
     style="font-style:normal;font-weight:normal;font-size:40px;line-height:1.25;font-family:sans-serif;letter-spacing:0px;word-spacing:0px;fill:#000000;fill-opacity:1;stroke:none"
     transform="matrix(0.7416226,0,0,1.2910523,-702.45133,-258.78875)"
     aria-label="Install OpenJDK  JRE / JDK in Ubuntu">
    <path
       id="path899"
       style="font-style:normal;font-variant:normal;font-weight:bold;font-stretch:normal;font-family:'EB Garamond';-inkscape-font-specification:'EB Garamond Bold';text-align:center;text-anchor:middle;fill:#ffffff"
       d="m 1195.7867,267.94684 q -0.32,0 -0.56,-0.16 -0.24,-0.16 -0.24,-0.4 0,-0.68 0.84,-0.84 1.56,-0.36 2.12,-0.84 0.6,-0.52 0.6,-1.76 v -18.16 q 0,-1.32 -0.52,-1.84 -0.52,-0.52 -2.12,-0.88 -0.84,-0.2 -0.84,-0.84 0,-0.28 0.24,-0.44 0.24,-0.16 0.56,-0.16 1.44,0 3,0.12 2,0.08 2.76,0.08 0.68,0 2.76,-0.08 2.16,-0.08 3.08,-0.08 0.76,0 0.76,0.56 0,0.36 -0.2,0.56 -0.2,0.16 -0.68,0.28 -1.6,0.44 -2.12,1 -0.52,0.52 -0.52,1.76 v 18.08 q 0,1.16 0.56,1.68 0.56,0.52 2.16,0.96 0.44,0.12 0.64,0.28 0.2,0.16 0.2,0.52 0,0.6 -0.72,0.6 -1.44,0 -3.08,-0.12 -2.08,-0.08 -2.84,-0.08 -0.8,0 -2.8,0.08 -1.56,0.12 -3.04,0.12 z" />
    <path
       id="path901"
       style="font-style:normal;font-variant:normal;font-weight:bold;font-stretch:normal;font-family:'EB Garamond';-inkscape-font-specification:'EB Garamond Bold';text-align:center;text-anchor:middle;fill:#ffffff"
       d="m 1210.5179,267.94684 q -0.28,0 -0.56,-0.16 -0.24,-0.16 -0.24,-0.4 0,-0.48 0.92,-0.8 0.8,-0.24 1.16,-0.52 0.36,-0.28 0.36,-1 v -9.16 q 0,-2 -1.24,-2.24 -0.44,-0.08 -0.44,-0.72 0,-0.56 0.4,-0.68 1.4,-0.32 3.04,-0.88 1.64,-0.56 2.72,-1.12 0.52,-0.32 0.72,-0.32 0.36,0 0.36,0.48 l -0.08,0.8 q -0.12,1.44 -0.12,1.48 0,0.52 0.08,0.6 1.48,-1.4 2.84,-2.08 1.4,-0.68 3.16,-0.68 2.16,0 3.52,1.56 1.4,1.56 1.4,4.16 v 8.8 q 0,0.72 0.36,1 0.36,0.28 1.16,0.52 0.8,0.28 0.8,0.8 0,0.24 -0.2,0.4 -0.2,0.16 -0.48,0.16 -1.2,0 -2.28,-0.12 -1.28,-0.08 -1.96,-0.08 -0.68,0 -1.96,0.08 -1,0.12 -2.24,0.12 -0.28,0 -0.48,-0.16 -0.2,-0.16 -0.2,-0.4 0,-0.52 0.8,-0.8 0.76,-0.24 1.08,-0.52 0.32,-0.28 0.32,-1 v -7.96 q 0,-1.52 -0.68,-2.36 -0.68,-0.88 -1.88,-0.92 -0.84,0 -1.52,0.28 -0.68,0.24 -1.44,0.76 -0.32,0.28 -0.32,0.76 v 9.44 q 0,0.72 0.32,1 0.32,0.24 1.12,0.52 0.8,0.28 0.8,0.8 0,0.24 -0.2,0.4 -0.2,0.16 -0.48,0.16 -1.2,0 -2.16,-0.12 -1.28,-0.08 -1.92,-0.08 -0.68,0 -2.04,0.08 -1.08,0.12 -2.32,0.12 z" />
    <path
       id="path903"
       style="font-style:normal;font-variant:normal;font-weight:bold;font-stretch:normal;font-family:'EB Garamond';-inkscape-font-specification:'EB Garamond Bold';text-align:center;text-anchor:middle;fill:#ffffff"
       d="m 1238.1342,268.38684 q -2.88,0 -4.8,-1.36 -0.36,-0.56 -0.52,-1.8 -0.16,-1.28 -0.12,-2.76 0,-0.48 0.8,-0.48 0.28,0 0.52,0.2 0.24,0.16 0.32,0.4 0.84,1.92 1.84,3 1,1.04 2.32,1.04 1,0 1.6,-0.64 0.6,-0.64 0.6,-1.52 0,-0.96 -0.72,-1.64 -0.72,-0.68 -2.08,-1.4 -2.12,-1.08 -3.36,-2.4 -1.2,-1.32 -1.2,-3.32 0,-2.32 1.84,-3.76 1.84,-1.44 4.6,-1.44 1.2,0 2.32,0.28 1.16,0.28 1.64,0.6 0.32,0.4 0.52,1.52 0.2,1.08 0.2,2.4 0,0.2 -0.24,0.32 -0.2,0.12 -0.48,0.12 -0.28,0 -0.6,-0.2 -0.28,-0.2 -0.36,-0.4 -0.52,-1.56 -1.36,-2.32 -0.8,-0.8 -1.8,-0.8 -0.92,0 -1.64,0.6 -0.68,0.56 -0.68,1.48 0,0.76 0.68,1.44 0.72,0.64 2.04,1.36 2.72,1.44 3.76,2.68 1.08,1.24 1.08,3.28 0,2.64 -1.76,4.08 -1.72,1.44 -4.96,1.44 z" />
    <path
       id="path905"
       style="font-style:normal;font-variant:normal;font-weight:bold;font-stretch:normal;font-family:'EB Garamond';-inkscape-font-specification:'EB Garamond Bold';text-align:center;text-anchor:middle;fill:#ffffff"
       d="m 1254.6692,268.38684 q -2.6,0 -3.96,-1.32 -1.32,-1.32 -1.32,-3.8 v -9.2 q 0,-0.36 -0.28,-0.52 -0.28,-0.16 -0.96,-0.2 h -0.52 q -0.24,0 -0.44,-0.44 -0.2,-0.44 -0.2,-0.84 0,-0.28 0.24,-0.4 2,-0.72 5.84,-4.08 0.08,-0.08 0.28,-0.2 0.2,-0.16 0.36,-0.24 0.16,-0.08 0.36,-0.08 0.4,0 0.52,0.16 0.12,0.16 0.08,0.64 l -0.24,2.36 v 0.16 q 0,0.68 0.96,0.68 h 4.76 q 0.12,0 0.24,0.28 0.12,0.28 0.12,0.52 0,0.6 -0.16,1.12 -0.16,0.48 -0.36,0.48 h -3.72 q -0.92,0 -1.28,0.24 -0.32,0.2 -0.32,0.76 v 7.56 q 0,1.8 0.68,2.72 0.68,0.92 1.88,0.92 0.92,0 1.4,-0.12 0.52,-0.16 0.84,-0.32 0.36,-0.16 0.44,-0.2 0.16,-0.08 0.24,-0.08 0.2,0 0.32,0.24 0.12,0.2 0.12,0.56 0,0.28 -0.92,0.96 -0.88,0.64 -2.24,1.16 -1.36,0.52 -2.76,0.52 z" />
    <path
       id="path907"
       style="font-style:normal;font-variant:normal;font-weight:bold;font-stretch:normal;font-family:'EB Garamond';-inkscape-font-specification:'EB Garamond Bold';text-align:center;text-anchor:middle;fill:#ffffff"
       d="m 1266.0692,268.38684 q -1.6,0 -2.8,-1.08 -1.2,-1.12 -1.2,-2.64 0,-1.36 0.8,-2.24 0.84,-0.92 2.6,-1.68 l 3.56,-1.56 q 0.8,-0.36 0.96,-0.64 0.2,-0.28 0.2,-1.04 l 0.04,-2.28 q 0.04,-1.16 -0.4,-1.8 -0.44,-0.64 -1.32,-0.64 -0.48,0 -1.04,0.24 -0.52,0.2 -0.8,0.48 -0.24,0.28 -0.24,0.84 0,0.28 0.04,0.6 0.04,0.28 0.04,0.56 0,0.4 -1.36,1 -1.32,0.6 -2.2,0.6 -0.32,0 -0.52,-0.24 -0.2,-0.24 -0.2,-0.6 0,-0.64 0.44,-1.24 0.44,-0.6 1.44,-1.44 1.56,-1.28 3.52,-2.16 1.96,-0.88 3.28,-0.88 2.12,0 3.4,1.4 1.28,1.36 1.24,3.64 l -0.2,8.08 q -0.04,0.92 0.32,1.56 0.36,0.64 0.88,0.64 0.76,0 1.32,-0.52 0.12,-0.12 0.24,-0.12 0.2,0 0.32,0.16 0.16,0.12 0.16,0.28 0,0.52 -0.72,1.24 -1.48,1.48 -3.36,1.48 -1.16,0 -2.04,-0.56 -0.88,-0.52 -1.68,-1.72 h -0.08 q -1.32,1.24 -2.4,1.76 -1.04,0.52 -2.24,0.52 z m 2.4,-2.6 q 0.76,0 1.28,-0.6 0.28,-0.44 0.28,-1.04 l 0.12,-2.88 q 0,-0.64 -0.4,-0.64 -0.2,0 -0.48,0.16 -1.28,0.6 -1.8,1.2 -0.48,0.6 -0.48,1.8 0,1.04 0.44,1.52 0.44,0.48 1.04,0.48 z" />
    <path
       id="path909"
       style="font-style:normal;font-variant:normal;font-weight:bold;font-stretch:normal;font-family:'EB Garamond';-inkscape-font-specification:'EB Garamond Bold';text-align:center;text-anchor:middle;fill:#ffffff"
       d="m 1279.8492,267.94684 q -0.36,0 -0.6,-0.12 -0.2,-0.16 -0.2,-0.44 0,-0.56 0.92,-0.8 0.88,-0.32 1.2,-0.56 0.32,-0.24 0.32,-0.96 v -19.24 q 0,-1.2 -0.36,-1.92 -0.32,-0.76 -1.24,-0.96 -0.4,-0.08 -0.4,-0.6 0,-0.52 0.36,-0.6 1.08,-0.2 2.6,-0.72 1.56,-0.52 2.76,-0.96 l 0.84,-0.32 q 0.28,-0.12 0.52,-0.12 0.4,0 0.4,0.48 0,0.32 -0.12,1.16 -0.08,0.84 -0.12,1.6 v 22.12 q 0,0.68 0.28,0.96 0.32,0.24 0.72,0.4 0.4,0.12 0.52,0.16 0.48,0.16 0.68,0.36 0.24,0.16 0.24,0.44 0,0.28 -0.24,0.44 -0.2,0.12 -0.56,0.12 -0.84,0 -2.28,-0.08 l -2.08,-0.04 q -0.64,0 -1.92,0.08 -1.08,0.12 -2.24,0.12 z" />
    <path
       id="path911"
       style="font-style:normal;font-variant:normal;font-weight:bold;font-stretch:normal;font-family:'EB Garamond';-inkscape-font-specification:'EB Garamond Bold';text-align:center;text-anchor:middle;fill:#ffffff"
       d="m 1291.2554,267.94684 q -0.36,0 -0.6,-0.12 -0.2,-0.16 -0.2,-0.44 0,-0.56 0.92,-0.8 0.88,-0.32 1.2,-0.56 0.32,-0.24 0.32,-0.96 v -19.24 q 0,-1.2 -0.36,-1.92 -0.32,-0.76 -1.24,-0.96 -0.4,-0.08 -0.4,-0.6 0,-0.52 0.36,-0.6 1.08,-0.2 2.6,-0.72 1.56,-0.52 2.76,-0.96 l 0.84,-0.32 q 0.28,-0.12 0.52,-0.12 0.4,0 0.4,0.48 0,0.32 -0.12,1.16 -0.08,0.84 -0.12,1.6 v 22.12 q 0,0.68 0.28,0.96 0.32,0.24 0.72,0.4 0.4,0.12 0.52,0.16 0.48,0.16 0.68,0.36 0.24,0.16 0.24,0.44 0,0.28 -0.24,0.44 -0.2,0.12 -0.56,0.12 -0.84,0 -2.28,-0.08 l -2.08,-0.04 q -0.64,0 -1.92,0.08 -1.08,0.12 -2.24,0.12 z" />
    <path
       id="path913"
       style="font-style:normal;font-variant:normal;font-weight:bold;font-stretch:normal;font-family:'EB Garamond';-inkscape-font-specification:'EB Garamond Bold';text-align:center;text-anchor:middle;fill:#ffffff"
       d="m 1325.6748,268.38684 q -3.68,0 -6.88,-1.64 -3.16,-1.68 -5.08,-4.68 -1.88,-3 -1.88,-6.84 0,-3.68 1.64,-6.88 1.68,-3.2 4.88,-5.12 3.24,-1.96 7.68,-1.96 3.72,0 6.88,1.68 3.2,1.64 5.08,4.64 1.92,3 1.92,6.84 0,3.68 -1.68,6.88 -1.64,3.2 -4.88,5.16 -3.24,1.92 -7.68,1.92 z m 0.72,-1.84 q 3.32,0 5.08,-2.72 1.8,-2.76 1.8,-7.36 0,-3.44 -0.88,-6.48 -0.88,-3.04 -2.68,-4.92 -1.8,-1.92 -4.44,-1.92 -3.32,0 -5.08,2.72 -1.76,2.72 -1.76,7.28 0,3.44 0.88,6.52 0.88,3.04 2.64,4.96 1.8,1.92 4.44,1.92 z" />
    <path
       id="path915"
       style="font-style:normal;font-variant:normal;font-weight:bold;font-stretch:normal;font-family:'EB Garamond';-inkscape-font-specification:'EB Garamond Bold';text-align:center;text-anchor:middle;fill:#ffffff"
       d="m 1342.5054,278.30684 q -0.32,0 -0.56,-0.16 -0.24,-0.16 -0.24,-0.4 0,-0.32 0.2,-0.52 0.24,-0.16 0.72,-0.28 0.88,-0.28 1.2,-0.6 0.32,-0.28 0.32,-0.92 v -19.16 q 0,-0.76 -0.48,-1.44 -0.44,-0.72 -1.2,-0.88 -0.24,-0.08 -0.36,-0.2 -0.12,-0.16 -0.12,-0.52 0,-0.56 0.44,-0.68 1.44,-0.32 3.04,-0.84 1.6,-0.52 2.72,-1.08 0.12,-0.04 0.32,-0.16 0.24,-0.12 0.36,-0.12 0.36,0 0.36,0.48 l -0.08,0.88 q -0.12,1.44 -0.12,1.44 0,0.4 0.08,0.48 0.44,-0.48 1.48,-1.12 1.08,-0.68 2.36,-1.16 1.32,-0.52 2.48,-0.52 2.04,0 3.56,1.12 1.56,1.12 2.36,2.92 0.84,1.76 0.84,3.76 0,2.48 -1.24,4.8 -1.24,2.28 -3.4,3.72 -2.12,1.4 -4.6,1.4 -0.68,0 -1.68,-0.24 -1,-0.24 -1.76,-0.6 -0.16,0 -0.16,0.72 v 6.64 q 0,0.76 0.48,1.16 0.52,0.4 1.68,0.72 0.88,0.28 0.88,0.8 0,0.24 -0.24,0.4 -0.2,0.16 -0.44,0.16 -1.28,0 -2.56,-0.12 -1.68,-0.08 -2.28,-0.08 -0.68,0 -2.04,0.08 -1.08,0.12 -2.32,0.12 z m 10.32,-11.6 q 0.68,0 1.56,-0.68 0.88,-0.68 1.52,-2.16 0.68,-1.48 0.68,-3.8 0,-3.8 -1.28,-5.16 -1.24,-1.36 -2.68,-1.36 -0.72,0 -1.48,0.32 -0.72,0.32 -1.24,0.8 -0.48,0.44 -0.48,0.76 l -0.08,6.56 q 0,1 0.4,2.12 0.44,1.12 1.24,1.88 0.8,0.72 1.84,0.72 z" />
    <path
       id="path917"
       style="font-style:normal;font-variant:normal;font-weight:bold;font-stretch:normal;font-family:'EB Garamond';-inkscape-font-specification:'EB Garamond Bold';text-align:center;text-anchor:middle;fill:#ffffff"
       d="m 1371.5367,268.38684 q -2.12,0 -3.84,-1.12 -1.72,-1.16 -2.72,-3.16 -0.96,-2 -0.96,-4.48 0,-2.48 1.16,-4.56 1.16,-2.08 3.16,-3.28 2.04,-1.24 4.4,-1.24 1.68,0 3.08,0.72 1.4,0.72 2.2,2 0.8,1.28 0.8,2.8 0,0.8 -0.32,1.16 -0.28,0.36 -0.92,0.36 h -8 q -0.56,0 -0.84,0.32 -0.24,0.32 -0.24,1.08 0,2.32 1.48,3.92 1.48,1.56 3.72,1.56 1.12,0 2.08,-0.4 0.96,-0.44 2,-1.24 0.4,-0.32 0.56,-0.32 0.4,0 0.4,0.52 0,0.52 -0.32,1.2 -0.64,1.68 -2.52,2.92 -1.84,1.24 -4.36,1.24 z m 0.44,-12.48 q 0.92,0 1.44,-0.04 0.52,-0.04 0.92,-0.16 0.2,-0.08 0.32,-0.4 0.12,-0.32 0.12,-0.72 0,-1.04 -0.76,-1.72 -0.72,-0.72 -1.8,-0.72 -1.24,0 -2.24,1.04 -1,1 -0.96,2.16 0,0.56 0.56,0.56 z" />
    <path
       id="path919"
       style="font-style:normal;font-variant:normal;font-weight:bold;font-stretch:normal;font-family:'EB Garamond';-inkscape-font-specification:'EB Garamond Bold';text-align:center;text-anchor:middle;fill:#ffffff"
       d="m 1381.4554,267.94684 q -0.28,0 -0.56,-0.16 -0.24,-0.16 -0.24,-0.4 0,-0.48 0.92,-0.8 0.8,-0.24 1.16,-0.52 0.36,-0.28 0.36,-1 v -9.16 q 0,-2 -1.24,-2.24 -0.44,-0.08 -0.44,-0.72 0,-0.56 0.4,-0.68 1.4,-0.32 3.04,-0.88 1.64,-0.56 2.72,-1.12 0.52,-0.32 0.72,-0.32 0.36,0 0.36,0.48 l -0.08,0.8 q -0.12,1.44 -0.12,1.48 0,0.52 0.08,0.6 1.48,-1.4 2.84,-2.08 1.4,-0.68 3.16,-0.68 2.16,0 3.52,1.56 1.4,1.56 1.4,4.16 v 8.8 q 0,0.72 0.36,1 0.36,0.28 1.16,0.52 0.8,0.28 0.8,0.8 0,0.24 -0.2,0.4 -0.2,0.16 -0.48,0.16 -1.2,0 -2.28,-0.12 -1.28,-0.08 -1.96,-0.08 -0.68,0 -1.96,0.08 -1,0.12 -2.24,0.12 -0.28,0 -0.48,-0.16 -0.2,-0.16 -0.2,-0.4 0,-0.52 0.8,-0.8 0.76,-0.24 1.08,-0.52 0.32,-0.28 0.32,-1 v -7.96 q 0,-1.52 -0.68,-2.36 -0.68,-0.88 -1.88,-0.92 -0.84,0 -1.52,0.28 -0.68,0.24 -1.44,0.76 -0.32,0.28 -0.32,0.76 v 9.44 q 0,0.72 0.32,1 0.32,0.24 1.12,0.52 0.8,0.28 0.8,0.8 0,0.24 -0.2,0.4 -0.2,0.16 -0.48,0.16 -1.2,0 -2.16,-0.12 -1.28,-0.08 -1.92,-0.08 -0.68,0 -2.04,0.08 -1.08,0.12 -2.32,0.12 z" />
    <path
       id="path921"
       style="font-style:normal;font-variant:normal;font-weight:bold;font-stretch:normal;font-family:'EB Garamond';-inkscape-font-specification:'EB Garamond Bold';text-align:center;text-anchor:middle;fill:#ffffff"
       d="m 1404.7517,275.82684 q -2.76,0 -4.16,-0.6 -1.4,-0.6 -1.4,-1.72 0,-0.8 0.68,-1.56 0.68,-0.76 1.36,-0.76 0.84,0 1.68,0.96 l 0.72,0.88 q 0.48,0.64 0.72,0.88 0.24,0.24 0.56,0.24 2.48,0 2.48,-6.6 v -21.76 q 0,-1.32 -0.52,-1.84 -0.52,-0.52 -2.12,-0.88 -0.84,-0.2 -0.84,-0.84 0,-0.28 0.24,-0.44 0.24,-0.16 0.56,-0.16 1.48,0 3.04,0.12 1.92,0.08 2.72,0.08 0.72,0 2.72,-0.08 2.08,-0.08 3.04,-0.08 0.72,0 0.72,0.56 0,0.36 -0.2,0.56 -0.2,0.16 -0.64,0.28 -1.6,0.44 -2.08,1 -0.48,0.52 -0.48,1.76 v 18.56 q 0,1.6 -0.92,3.72 -0.88,2.16 -2.28,3.96 -2.92,3.76 -5.6,3.76 z" />
    <path
       id="path923"
       style="font-style:normal;font-variant:normal;font-weight:bold;font-stretch:normal;font-family:'EB Garamond';-inkscape-font-specification:'EB Garamond Bold';text-align:center;text-anchor:middle;fill:#ffffff"
       d="m 1432.5173,268.10684 q -1.92,0 -5.28,-0.16 -1.8,-0.12 -2.84,-0.12 l -2.64,0.04 q -2.08,0.08 -3,0.08 -0.32,0 -0.56,-0.16 -0.24,-0.16 -0.24,-0.4 0,-0.68 0.84,-0.84 1.56,-0.32 2.08,-0.84 0.56,-0.52 0.56,-1.76 v -18.16 q 0,-1.32 -0.52,-1.84 -0.52,-0.52 -2.12,-0.88 -0.84,-0.2 -0.84,-0.84 0,-0.28 0.24,-0.44 0.24,-0.16 0.56,-0.16 1.48,0 2.96,0.12 1.92,0.08 2.72,0.08 0.68,0 3.72,-0.16 2.72,-0.2 4.44,-0.2 4,0 7.24,1.64 3.28,1.64 5.12,4.6 1.88,2.96 1.88,6.68 0,3.64 -1.72,6.8 -1.72,3.12 -5,5.04 -3.24,1.88 -7.6,1.88 z m -0.6,-2.04 q 4,0 6.08,-2.84 2.12,-2.84 2.12,-7.76 0,-3.56 -1.04,-6.24 -1,-2.68 -2.96,-4.16 -1.96,-1.48 -4.64,-1.48 -2.2,0 -3.04,0.28 -0.84,0.24 -0.84,1.24 v 17.44 q 0,1.92 1.08,2.72 1.08,0.8 3.24,0.8 z" />
    <path
       id="path925"
       style="font-style:normal;font-variant:normal;font-weight:bold;font-stretch:normal;font-family:'EB Garamond';-inkscape-font-specification:'EB Garamond Bold';text-align:center;text-anchor:middle;fill:#ffffff"
       d="m 1449.7023,268.06684 q -0.4,0 -0.76,-0.2 -0.36,-0.2 -0.36,-0.48 0,-0.64 1.04,-0.84 1.52,-0.28 2,-0.8 0.48,-0.52 0.48,-1.84 v -18.12 q 0,-1.32 -0.56,-1.84 -0.52,-0.52 -2.12,-0.88 -0.84,-0.2 -0.84,-0.84 0,-0.28 0.24,-0.44 0.24,-0.16 0.56,-0.16 1.48,0 3.04,0.12 1.92,0.08 2.68,0.08 0.76,0 2.68,-0.08 2.16,-0.08 3.12,-0.08 0.72,0 0.72,0.56 0,0.36 -0.2,0.56 -0.2,0.16 -0.68,0.28 -1.56,0.44 -2.04,1 -0.48,0.52 -0.48,1.76 v 8.12 q 0,0.64 0.4,0.64 0.28,0 1,-0.64 l 7.68,-8.28 q 0.76,-0.84 0.76,-1.24 0,-0.84 -1.64,-1.2 -0.88,-0.24 -0.88,-0.88 0,-0.24 0.24,-0.4 0.28,-0.16 0.56,-0.16 h 2.76 l 3.92,-0.04 q 2.56,-0.08 4,-0.08 0.4,0 0.72,0.16 0.32,0.16 0.32,0.4 0,0.32 -0.36,0.56 -0.36,0.2 -0.84,0.28 -3.56,0.48 -6.16,2.48 -1.12,0.88 -2.36,2.04 -1.24,1.16 -2.4,2.32 -0.68,0.68 -2.16,2.12 -0.28,0.28 -0.28,0.52 0,0.28 0.32,0.68 l 9.56,10.72 q 0.96,1.04 1.8,1.64 0.84,0.56 2.32,0.96 0.64,0.2 0.92,0.36 0.32,0.12 0.32,0.44 0,0.32 -0.4,0.48 -0.4,0.2 -1.12,0.2 -0.8,0 -1.88,-0.04 -1.08,-0.04 -1.64,-0.08 -2.4,-0.16 -3.64,-0.16 -0.88,0 -2.4,0.08 -1.24,0.12 -2.6,0.12 -0.32,0 -0.56,-0.16 -0.24,-0.2 -0.24,-0.44 0,-0.64 0.8,-0.84 1.6,-0.32 1.68,-1.08 0,-0.44 -0.68,-1.32 l -6.52,-7.56 q -0.52,-0.64 -0.96,-0.64 -0.36,0 -0.36,0.64 0,4.72 0.12,7.28 0.08,1.24 0.48,1.8 0.4,0.52 1.84,0.92 0.56,0.16 0.8,0.32 0.28,0.16 0.28,0.48 0,0.28 -0.36,0.48 -0.36,0.16 -0.8,0.16 -1.04,0 -3.36,-0.2 -0.36,-0.04 -0.84,-0.08 -0.48,-0.04 -1.16,-0.04 -0.68,0 -2.12,0.16 -1.84,0.24 -3.4,0.24 z" />
    <path
       id="path927"
       style="font-style:normal;font-variant:normal;font-weight:bold;font-stretch:normal;font-family:'EB Garamond';-inkscape-font-specification:'EB Garamond Bold';text-align:center;text-anchor:middle;fill:#ffffff"
       d="m 1227.0954,326.30212 q -2.76,0 -4.16,-0.6 -1.4,-0.6 -1.4,-1.72 0,-0.8 0.68,-1.56 0.68,-0.76 1.36,-0.76 0.84,0 1.68,0.96 l 0.72,0.88 q 0.48,0.64 0.72,0.88 0.24,0.24 0.56,0.24 2.48,0 2.48,-6.6 v -21.76 q 0,-1.32 -0.52,-1.84 -0.52,-0.52 -2.12,-0.88 -0.84,-0.2 -0.84,-0.84 0,-0.28 0.24,-0.44 0.24,-0.16 0.56,-0.16 1.48,0 3.04,0.12 1.92,0.08 2.72,0.08 0.72,0 2.72,-0.08 2.08,-0.08 3.04,-0.08 0.72,0 0.72,0.56 0,0.36 -0.2,0.56 -0.2,0.16 -0.64,0.28 -1.6,0.44 -2.08,1 -0.48,0.52 -0.48,1.76 v 18.56 q 0,1.6 -0.92,3.72 -0.88,2.16 -2.28,3.96 -2.92,3.76 -5.6,3.76 z" />
    <path
       id="path929"
       style="font-style:normal;font-variant:normal;font-weight:bold;font-stretch:normal;font-family:'EB Garamond';-inkscape-font-specification:'EB Garamond Bold';text-align:center;text-anchor:middle;fill:#ffffff"
       d="m 1265.3811,319.14212 q -2.84,0 -4.52,-0.92 -1.68,-0.96 -3.04,-2.76 -1.48,-1.88 -2.64,-3.68 -1.12,-1.8 -2.36,-4.28 -0.4,-0.88 -1.08,-1.24 -0.68,-0.4 -1.36,-0.4 -0.44,0 -0.44,0.8 v 7.64 q 0,1.24 0.64,1.8 0.68,0.56 2.4,0.92 0.44,0.08 0.64,0.28 0.24,0.16 0.24,0.52 0,0.6 -0.76,0.6 -1.52,0 -3.28,-0.12 -2.16,-0.08 -2.92,-0.08 -0.76,0 -2.84,0.08 -1.56,0.12 -3,0.12 -0.32,0 -0.56,-0.16 -0.24,-0.16 -0.24,-0.4 0,-0.68 0.84,-0.84 1.56,-0.32 2.12,-0.84 0.56,-0.56 0.56,-1.8 v -17.96 q 0,-1.44 -0.48,-2 -0.44,-0.6 -1.92,-0.88 -0.92,-0.16 -0.92,-0.84 0,-0.24 0.24,-0.4 0.24,-0.2 0.64,-0.2 1.36,0 3.04,0.16 0.32,0 1,0.08 0.68,0.04 1.36,0.04 0.76,0 2.12,-0.16 2.08,-0.2 3.4,-0.2 4.72,0 7.2,1.64 2.52,1.6 2.52,4.8 0,2.44 -1.48,3.96 -1.48,1.52 -3.64,2.24 -0.28,0.12 -0.04,0.48 2,3.04 3.68,5.24 1.68,2.2 3.48,3.88 1.16,1.12 2.44,1.44 1.32,0.28 3.16,0.28 0.6,0 0.6,0.72 0,1.24 -1.32,1.84 -1.28,0.6 -3.48,0.6 z m -13.92,-14.56 q 2.2,0 3.36,-1.44 1.2,-1.44 1.2,-3.8 0,-5.56 -4.4,-5.56 -0.92,0 -1.28,0.76 -0.36,0.72 -0.36,2.92 -0.04,1.2 -0.04,5.64 0,0.8 0.36,1.16 0.4,0.32 1.16,0.32 z" />
    <path
       id="path931"
       style="font-style:normal;font-variant:normal;font-weight:bold;font-stretch:normal;font-family:'EB Garamond';-inkscape-font-specification:'EB Garamond Bold';text-align:center;text-anchor:middle;fill:#ffffff"
       d="m 1271.6117,318.50212 q -0.36,0 -0.6,-0.2 -0.24,-0.16 -0.24,-0.4 0,-0.24 0.2,-0.48 0.24,-0.24 0.68,-0.36 1.44,-0.4 1.96,-0.88 0.56,-0.48 0.56,-1.72 v -18.2 q 0,-1.32 -0.52,-1.84 -0.48,-0.56 -1.96,-0.88 -0.92,-0.2 -0.92,-0.84 0,-0.24 0.24,-0.4 0.24,-0.2 0.64,-0.2 1.52,0 3.08,0.12 2.08,0.08 2.92,0.08 4.92,0 8.64,-0.12 1.24,0 2.12,-0.12 0.88,-0.16 1,-0.16 0.32,0 0.64,0.2 0.32,0.16 0.36,0.56 0.08,0.76 0.32,2.28 0.32,2.16 0.32,2.92 0,0.36 -0.16,0.56 -0.16,0.2 -0.36,0.2 -0.52,0 -0.76,-0.64 -0.12,-0.28 -0.44,-1 -0.28,-0.72 -0.52,-1.16 -0.2,-0.44 -0.48,-0.72 -1.24,-1.24 -2.88,-1.24 h -3 q -0.88,0 -1.52,0.48 -0.64,0.48 -0.64,1.28 v 7.56 q 0,0.96 1,0.96 h 3.52 q 0.96,0 1.4,-0.56 0.48,-0.6 0.92,-1.84 0.24,-0.76 0.8,-0.76 0.2,0 0.36,0.24 0.16,0.24 0.12,0.64 -0.16,2 -0.16,3.24 0,1.68 0.12,3.24 l 0.04,0.32 q 0,0.72 -0.44,0.72 -0.28,0 -0.56,-0.28 -0.24,-0.28 -0.36,-0.72 -0.36,-1.28 -0.84,-1.88 -0.44,-0.6 -1.2,-0.6 h -3.72 q -1,0 -1,0.92 v 7.6 q 0,1.16 0.52,1.68 0.52,0.48 1.6,0.48 h 3.44 q 1.92,0 3.04,-0.88 1.12,-0.88 2.28,-3.2 0.28,-0.48 0.76,-0.48 0.2,0 0.28,0.24 0.12,0.2 0.12,0.52 0,0.72 -0.24,1.72 -0.24,0.96 -0.72,2.44 -0.2,0.56 -0.32,1 -0.08,0.24 -0.36,0.36 -0.24,0.16 -0.52,0.16 -1.64,0 -3.16,-0.04 -8.4,-0.12 -9.88,-0.12 -1.32,0 -2.76,0.12 -1.92,0.08 -2.76,0.08 z" />
    <path
       id="path933"
       style="font-style:normal;font-variant:normal;font-weight:bold;font-stretch:normal;font-family:'EB Garamond';-inkscape-font-specification:'EB Garamond Bold';text-align:center;text-anchor:middle;fill:#ffffff"
       d="m 1303.8736,320.78212 q -0.44,0 -0.68,-0.24 -0.24,-0.2 -0.12,-0.52 l 12.36,-27.56 q 0.24,-0.52 0.64,-0.68 0.44,-0.16 1.16,-0.16 0.48,0 0.72,0.28 0.24,0.28 0.12,0.56 l -12.4,27.56 q -0.2,0.44 -0.68,0.6 -0.44,0.16 -1.12,0.16 z" />
    <path
       id="path935"
       style="font-style:normal;font-variant:normal;font-weight:bold;font-stretch:normal;font-family:'EB Garamond';-inkscape-font-specification:'EB Garamond Bold';text-align:center;text-anchor:middle;fill:#ffffff"
       d="m 1330.3767,326.30212 q -2.76,0 -4.16,-0.6 -1.4,-0.6 -1.4,-1.72 0,-0.8 0.68,-1.56 0.68,-0.76 1.36,-0.76 0.84,0 1.68,0.96 l 0.72,0.88 q 0.48,0.64 0.72,0.88 0.24,0.24 0.56,0.24 2.48,0 2.48,-6.6 v -21.76 q 0,-1.32 -0.52,-1.84 -0.52,-0.52 -2.12,-0.88 -0.84,-0.2 -0.84,-0.84 0,-0.28 0.24,-0.44 0.24,-0.16 0.56,-0.16 1.48,0 3.04,0.12 1.92,0.08 2.72,0.08 0.72,0 2.72,-0.08 2.08,-0.08 3.04,-0.08 0.72,0 0.72,0.56 0,0.36 -0.2,0.56 -0.2,0.16 -0.64,0.28 -1.6,0.44 -2.08,1 -0.48,0.52 -0.48,1.76 v 18.56 q 0,1.6 -0.92,3.72 -0.88,2.16 -2.28,3.96 -2.92,3.76 -5.6,3.76 z" />
    <path
       id="path937"
       style="font-style:normal;font-variant:normal;font-weight:bold;font-stretch:normal;font-family:'EB Garamond';-inkscape-font-specification:'EB Garamond Bold';text-align:center;text-anchor:middle;fill:#ffffff"
       d="m 1358.1423,318.58212 q -1.92,0 -5.28,-0.16 -1.8,-0.12 -2.84,-0.12 l -2.64,0.04 q -2.08,0.08 -3,0.08 -0.32,0 -0.56,-0.16 -0.24,-0.16 -0.24,-0.4 0,-0.68 0.84,-0.84 1.56,-0.32 2.08,-0.84 0.56,-0.52 0.56,-1.76 v -18.16 q 0,-1.32 -0.52,-1.84 -0.52,-0.52 -2.12,-0.88 -0.84,-0.2 -0.84,-0.84 0,-0.28 0.24,-0.44 0.24,-0.16 0.56,-0.16 1.48,0 2.96,0.12 1.92,0.08 2.72,0.08 0.68,0 3.72,-0.16 2.72,-0.2 4.44,-0.2 4,0 7.24,1.64 3.28,1.64 5.12,4.6 1.88,2.96 1.88,6.68 0,3.64 -1.72,6.8 -1.72,3.12 -5,5.04 -3.24,1.88 -7.6,1.88 z m -0.6,-2.04 q 4,0 6.08,-2.84 2.12,-2.84 2.12,-7.76 0,-3.56 -1.04,-6.24 -1,-2.68 -2.96,-4.16 -1.96,-1.48 -4.64,-1.48 -2.2,0 -3.04,0.28 -0.84,0.24 -0.84,1.24 v 17.44 q 0,1.92 1.08,2.72 1.08,0.8 3.24,0.8 z" />
    <path
       id="path939"
       style="font-style:normal;font-variant:normal;font-weight:bold;font-stretch:normal;font-family:'EB Garamond';-inkscape-font-specification:'EB Garamond Bold';text-align:center;text-anchor:middle;fill:#ffffff"
       d="m 1375.3273,318.54212 q -0.4,0 -0.76,-0.2 -0.36,-0.2 -0.36,-0.48 0,-0.64 1.04,-0.84 1.52,-0.28 2,-0.8 0.48,-0.52 0.48,-1.84 v -18.12 q 0,-1.32 -0.56,-1.84 -0.52,-0.52 -2.12,-0.88 -0.84,-0.2 -0.84,-0.84 0,-0.28 0.24,-0.44 0.24,-0.16 0.56,-0.16 1.48,0 3.04,0.12 1.92,0.08 2.68,0.08 0.76,0 2.68,-0.08 2.16,-0.08 3.12,-0.08 0.72,0 0.72,0.56 0,0.36 -0.2,0.56 -0.2,0.16 -0.68,0.28 -1.56,0.44 -2.04,1 -0.48,0.52 -0.48,1.76 v 8.12 q 0,0.64 0.4,0.64 0.28,0 1,-0.64 l 7.68,-8.28 q 0.76,-0.84 0.76,-1.24 0,-0.84 -1.64,-1.2 -0.88,-0.24 -0.88,-0.88 0,-0.24 0.24,-0.4 0.28,-0.16 0.56,-0.16 h 2.76 l 3.92,-0.04 q 2.56,-0.08 4,-0.08 0.4,0 0.72,0.16 0.32,0.16 0.32,0.4 0,0.32 -0.36,0.56 -0.36,0.2 -0.84,0.28 -3.56,0.48 -6.16,2.48 -1.12,0.88 -2.36,2.04 -1.24,1.16 -2.4,2.32 -0.68,0.68 -2.16,2.12 -0.28,0.28 -0.28,0.52 0,0.28 0.32,0.68 l 9.56,10.72 q 0.96,1.04 1.8,1.64 0.84,0.56 2.32,0.96 0.64,0.2 0.92,0.36 0.32,0.12 0.32,0.44 0,0.32 -0.4,0.48 -0.4,0.2 -1.12,0.2 -0.8,0 -1.88,-0.04 -1.08,-0.04 -1.64,-0.08 -2.4,-0.16 -3.64,-0.16 -0.88,0 -2.4,0.08 -1.24,0.12 -2.6,0.12 -0.32,0 -0.56,-0.16 -0.24,-0.2 -0.24,-0.44 0,-0.64 0.8,-0.84 1.6,-0.32 1.68,-1.08 0,-0.44 -0.68,-1.32 l -6.52,-7.56 q -0.52,-0.64 -0.96,-0.64 -0.36,0 -0.36,0.64 0,4.72 0.12,7.28 0.08,1.24 0.48,1.8 0.4,0.52 1.84,0.92 0.56,0.16 0.8,0.32 0.28,0.16 0.28,0.48 0,0.28 -0.36,0.48 -0.36,0.16 -0.8,0.16 -1.04,0 -3.36,-0.2 -0.36,-0.04 -0.84,-0.08 -0.48,-0.04 -1.16,-0.04 -0.68,0 -2.12,0.16 -1.84,0.24 -3.4,0.24 z" />
    <path
       id="path941"
       style="font-style:normal;font-variant:normal;font-weight:bold;font-stretch:normal;font-family:'EB Garamond';-inkscape-font-specification:'EB Garamond Bold';text-align:center;text-anchor:middle;fill:#ffffff"
       d="m 1414.9673,318.42212 q -0.24,0 -0.44,-0.12 -0.2,-0.16 -0.2,-0.4 0,-0.6 0.72,-0.8 1.08,-0.24 1.48,-0.52 0.4,-0.32 0.4,-0.96 v -8.64 q 0,-1.32 -0.4,-1.92 -0.4,-0.6 -1.32,-0.72 -0.24,-0.04 -0.36,-0.24 -0.12,-0.2 -0.12,-0.48 0,-0.24 0.12,-0.44 0.16,-0.2 0.32,-0.24 1.8,-0.32 3.16,-0.88 1.4,-0.56 3.04,-1.36 0.56,-0.32 0.8,-0.32 0.24,0 0.36,0.16 0.16,0.12 0.16,0.32 l -0.16,1.48 q -0.36,3.04 -0.36,4.4 v 8.84 q 0,0.56 0.4,0.88 0.4,0.32 1.52,0.64 0.36,0.12 0.52,0.28 0.2,0.16 0.2,0.48 0,0.52 -0.6,0.52 -0.84,0 -2.44,-0.08 -1.6,-0.08 -2.28,-0.08 -0.68,0 -2.12,0.08 -1.2,0.12 -2.4,0.12 z m 4.4,-19.84 q -1.28,0 -2.2,-0.92 -0.92,-0.92 -0.92,-2.2 0,-1.36 0.92,-2.28 0.92,-0.92 2.2,-0.92 1.36,0 2.28,0.92 0.96,0.92 0.96,2.28 0,1.28 -0.96,2.2 -0.92,0.92 -2.28,0.92 z" />
    <path
       id="path943"
       style="font-style:normal;font-variant:normal;font-weight:bold;font-stretch:normal;font-family:'EB Garamond';-inkscape-font-specification:'EB Garamond Bold';text-align:center;text-anchor:middle;fill:#ffffff"
       d="m 1426.9242,318.42212 q -0.28,0 -0.56,-0.16 -0.24,-0.16 -0.24,-0.4 0,-0.48 0.92,-0.8 0.8,-0.24 1.16,-0.52 0.36,-0.28 0.36,-1 v -9.16 q 0,-2 -1.24,-2.24 -0.44,-0.08 -0.44,-0.72 0,-0.56 0.4,-0.68 1.4,-0.32 3.04,-0.88 1.64,-0.56 2.72,-1.12 0.52,-0.32 0.72,-0.32 0.36,0 0.36,0.48 l -0.08,0.8 q -0.12,1.44 -0.12,1.48 0,0.52 0.08,0.6 1.48,-1.4 2.84,-2.08 1.4,-0.68 3.16,-0.68 2.16,0 3.52,1.56 1.4,1.56 1.4,4.16 v 8.8 q 0,0.72 0.36,1 0.36,0.28 1.16,0.52 0.8,0.28 0.8,0.8 0,0.24 -0.2,0.4 -0.2,0.16 -0.48,0.16 -1.2,0 -2.28,-0.12 -1.28,-0.08 -1.96,-0.08 -0.68,0 -1.96,0.08 -1,0.12 -2.24,0.12 -0.28,0 -0.48,-0.16 -0.2,-0.16 -0.2,-0.4 0,-0.52 0.8,-0.8 0.76,-0.24 1.08,-0.52 0.32,-0.28 0.32,-1 v -7.96 q 0,-1.52 -0.68,-2.36 -0.68,-0.88 -1.88,-0.92 -0.84,0 -1.52,0.28 -0.68,0.24 -1.44,0.76 -0.32,0.28 -0.32,0.76 v 9.44 q 0,0.72 0.32,1 0.32,0.24 1.12,0.52 0.8,0.28 0.8,0.8 0,0.24 -0.2,0.4 -0.2,0.16 -0.48,0.16 -1.2,0 -2.16,-0.12 -1.28,-0.08 -1.92,-0.08 -0.68,0 -2.04,0.08 -1.08,0.12 -2.32,0.12 z" />
    <path
       id="path945"
       style="font-style:normal;font-variant:normal;font-weight:bold;font-stretch:normal;font-family:'EB Garamond';-inkscape-font-specification:'EB Garamond Bold';text-align:center;text-anchor:middle;fill:#ffffff"
       d="m 1285.0089,369.3374 q -5.52,0 -8.44,-2.88 -2.88,-2.88 -2.88,-7.8 v -11.4 q 0,-1.16 -0.56,-2.04 -0.52,-0.88 -1.48,-1.16 -1.12,-0.32 -1.12,-0.88 0,-0.28 0.28,-0.44 0.32,-0.16 0.76,-0.16 1.36,0 2.68,0.12 1.76,0.08 2.52,0.08 0.72,0 2.72,-0.08 1.92,-0.08 2.68,-0.08 1.08,0 1.08,0.6 0,0.28 -0.32,0.48 -0.28,0.16 -0.76,0.36 -0.48,0.16 -0.8,0.32 -0.68,0.28 -1.08,1.04 -0.4,0.76 -0.4,2.04 v 10.48 q 0,3.92 1.8,5.92 1.84,2 4.68,2 3.64,0 5.4,-2.16 1.8,-2.2 1.8,-6.6 l 0.04,-5.04 q 0,-1.8 -0.04,-2.6 -0.04,-2.6 -0.52,-3.64 -0.44,-1.04 -1.6,-1.64 -0.24,-0.12 -0.68,-0.24 -0.44,-0.16 -0.68,-0.32 -0.24,-0.16 -0.24,-0.4 0,-0.56 1.2,-0.56 l 2.36,0.04 q 0.48,0.04 1.48,0.04 0.72,0 1.76,-0.08 1.12,-0.08 1.84,-0.08 1.04,0 1.04,0.6 0,0.52 -1.08,0.84 -1.32,0.36 -1.88,1.2 -0.52,0.84 -0.6,2.32 -0.2,5.04 -0.2,10.76 0,3.2 -1.44,5.72 -1.44,2.52 -3.92,3.92 -2.44,1.4 -5.4,1.4 z" />
    <path
       id="path947"
       style="font-style:normal;font-variant:normal;font-weight:bold;font-stretch:normal;font-family:'EB Garamond';-inkscape-font-specification:'EB Garamond Bold';text-align:center;text-anchor:middle;fill:#ffffff"
       d="m 1310.8545,369.3374 q -1.6,0 -3.92,-0.6 -1.52,-0.44 -1.92,-0.44 -0.64,0 -1.44,0.52 -0.36,0.28 -0.56,0.28 -0.36,0 -0.56,-0.16 -0.16,-0.12 -0.16,-0.36 0,-0.28 0.2,-1.4 0.24,-1.16 0.2,-2.6 l -0.16,-17.8 q 0,-1.2 -0.36,-1.92 -0.32,-0.76 -1.2,-0.96 -0.48,-0.08 -0.48,-0.64 0,-0.2 0.12,-0.36 0.12,-0.16 0.32,-0.2 1.76,-0.32 6,-1.96 0.4,-0.16 0.56,-0.16 0.44,0 0.44,0.48 0,0.28 -0.12,1.08 -0.08,0.8 -0.08,1.44 v 8.56 q 0,1.12 0.36,1.12 1.24,-0.84 2.56,-1.28 1.36,-0.48 2.56,-0.48 2.08,0 3.76,1.08 1.68,1.08 2.64,3 1,1.88 1,4.2 0,2.8 -1.24,5 -1.2,2.16 -3.44,3.36 -2.2,1.2 -5.08,1.2 z m 0.72,-1.68 q 1.56,0 2.48,-1.96 0.96,-2 0.96,-4.88 0,-2.76 -1.04,-4.92 -1.04,-2.16 -3,-2.16 -0.84,0 -1.76,0.24 -0.92,0.24 -1.48,0.68 v 8.52 q 0,1.92 1.12,3.2 1.16,1.28 2.72,1.28 z" />
    <path
       id="path949"
       style="font-style:normal;font-variant:normal;font-weight:bold;font-stretch:normal;font-family:'EB Garamond';-inkscape-font-specification:'EB Garamond Bold';text-align:center;text-anchor:middle;fill:#ffffff"
       d="m 1335.4132,369.6174 q -0.32,0 -0.32,-0.4 0,-0.56 0.12,-1.28 l 0.08,-1.24 q 0,-0.36 -0.08,-0.44 -1.12,1.36 -2.84,2.24 -1.68,0.88 -3.48,0.88 -1.88,0 -3.16,-1.6 -1.24,-1.64 -1.24,-4.04 v -7.48 q 0,-1 -0.36,-1.52 -0.36,-0.56 -1.24,-0.72 -0.24,-0.04 -0.44,-0.2 -0.16,-0.2 -0.16,-0.56 0,-0.64 0.6,-0.68 2.6,-0.12 5.8,-0.96 0.16,-0.04 0.4,-0.08 0.28,-0.08 0.44,-0.08 0.56,0 0.52,0.56 -0.32,1.64 -0.32,3.08 v 7.68 q 0,1.44 0.68,2.32 0.68,0.88 1.76,0.92 1.56,0 2.44,-0.88 0.32,-0.28 0.56,-0.88 0.24,-0.64 0.24,-1.6 v -6.44 q 0,-1 -0.6,-1.56 -0.6,-0.6 -1.56,-0.68 -0.48,-0.04 -0.72,-0.24 -0.24,-0.2 -0.24,-0.64 0,-0.4 0.28,-0.6 0.28,-0.2 0.68,-0.2 3.04,-0.2 4.32,-0.32 1.28,-0.12 2.4,-0.4 0.48,-0.12 0.52,-0.12 0.6,0 0.6,0.48 0,0.12 -0.16,0.6 -0.08,0.48 -0.2,1.4 -0.08,0.92 -0.08,1.4 v 9.28 q 0,1.52 0.72,1.52 l 1.12,0.04 q 0.36,0 0.56,0.2 0.2,0.2 0.2,0.52 0,0.4 -0.16,0.6 -0.12,0.2 -0.52,0.24 -2.96,0.28 -6.12,1.6 -0.12,0.04 -0.48,0.16 -0.32,0.12 -0.56,0.12 z" />
    <path
       id="path951"
       style="font-style:normal;font-variant:normal;font-weight:bold;font-stretch:normal;font-family:'EB Garamond';-inkscape-font-specification:'EB Garamond Bold';text-align:center;text-anchor:middle;fill:#ffffff"
       d="m 1345.2445,368.8974 q -0.28,0 -0.56,-0.16 -0.24,-0.16 -0.24,-0.4 0,-0.48 0.92,-0.8 0.8,-0.24 1.16,-0.52 0.36,-0.28 0.36,-1 v -9.16 q 0,-2 -1.24,-2.24 -0.44,-0.08 -0.44,-0.72 0,-0.56 0.4,-0.68 1.4,-0.32 3.04,-0.88 1.64,-0.56 2.72,-1.12 0.52,-0.32 0.72,-0.32 0.36,0 0.36,0.48 l -0.08,0.8 q -0.12,1.44 -0.12,1.48 0,0.52 0.08,0.6 1.48,-1.4 2.84,-2.08 1.4,-0.68 3.16,-0.68 2.16,0 3.52,1.56 1.4,1.56 1.4,4.16 v 8.8 q 0,0.72 0.36,1 0.36,0.28 1.16,0.52 0.8,0.28 0.8,0.8 0,0.24 -0.2,0.4 -0.2,0.16 -0.48,0.16 -1.2,0 -2.28,-0.12 -1.28,-0.08 -1.96,-0.08 -0.68,0 -1.96,0.08 -1,0.12 -2.24,0.12 -0.28,0 -0.48,-0.16 -0.2,-0.16 -0.2,-0.4 0,-0.52 0.8,-0.8 0.76,-0.24 1.08,-0.52 0.32,-0.28 0.32,-1 v -7.96 q 0,-1.52 -0.68,-2.36 -0.68,-0.88 -1.88,-0.92 -0.84,0 -1.52,0.28 -0.68,0.24 -1.44,0.76 -0.32,0.28 -0.32,0.76 v 9.44 q 0,0.72 0.32,1 0.32,0.24 1.12,0.52 0.8,0.28 0.8,0.8 0,0.24 -0.2,0.4 -0.2,0.16 -0.48,0.16 -1.2,0 -2.16,-0.12 -1.28,-0.08 -1.92,-0.08 -0.68,0 -2.04,0.08 -1.08,0.12 -2.32,0.12 z" />
    <path
       id="path953"
       style="font-style:normal;font-variant:normal;font-weight:bold;font-stretch:normal;font-family:'EB Garamond';-inkscape-font-specification:'EB Garamond Bold';text-align:center;text-anchor:middle;fill:#ffffff"
       d="m 1374.3957,369.3374 q -2.6,0 -3.96,-1.32 -1.32,-1.32 -1.32,-3.8 v -9.2 q 0,-0.36 -0.28,-0.52 -0.28,-0.16 -0.96,-0.2 h -0.52 q -0.24,0 -0.44,-0.44 -0.2,-0.44 -0.2,-0.84 0,-0.28 0.24,-0.4 2,-0.72 5.84,-4.08 0.08,-0.08 0.28,-0.2 0.2,-0.16 0.36,-0.24 0.16,-0.08 0.36,-0.08 0.4,0 0.52,0.16 0.12,0.16 0.08,0.64 l -0.24,2.36 v 0.16 q 0,0.68 0.96,0.68 h 4.76 q 0.12,0 0.24,0.28 0.12,0.28 0.12,0.52 0,0.6 -0.16,1.12 -0.16,0.48 -0.36,0.48 h -3.72 q -0.92,0 -1.28,0.24 -0.32,0.2 -0.32,0.76 v 7.56 q 0,1.8 0.68,2.72 0.68,0.92 1.88,0.92 0.92,0 1.4,-0.12 0.52,-0.16 0.84,-0.32 0.36,-0.16 0.44,-0.2 0.16,-0.08 0.24,-0.08 0.2,0 0.32,0.24 0.12,0.2 0.12,0.56 0,0.28 -0.92,0.96 -0.88,0.64 -2.24,1.16 -1.36,0.52 -2.76,0.52 z" />
    <path
       id="path955"
       style="font-style:normal;font-variant:normal;font-weight:bold;font-stretch:normal;font-family:'EB Garamond';-inkscape-font-specification:'EB Garamond Bold';text-align:center;text-anchor:middle;fill:#ffffff"
       d="m 1394.4757,369.6174 q -0.32,0 -0.32,-0.4 0,-0.56 0.12,-1.28 l 0.08,-1.24 q 0,-0.36 -0.08,-0.44 -1.12,1.36 -2.84,2.24 -1.68,0.88 -3.48,0.88 -1.88,0 -3.16,-1.6 -1.24,-1.64 -1.24,-4.04 v -7.48 q 0,-1 -0.36,-1.52 -0.36,-0.56 -1.24,-0.72 -0.24,-0.04 -0.44,-0.2 -0.16,-0.2 -0.16,-0.56 0,-0.64 0.6,-0.68 2.6,-0.12 5.8,-0.96 0.16,-0.04 0.4,-0.08 0.28,-0.08 0.44,-0.08 0.56,0 0.52,0.56 -0.32,1.64 -0.32,3.08 v 7.68 q 0,1.44 0.68,2.32 0.68,0.88 1.76,0.92 1.56,0 2.44,-0.88 0.32,-0.28 0.56,-0.88 0.24,-0.64 0.24,-1.6 v -6.44 q 0,-1 -0.6,-1.56 -0.6,-0.6 -1.56,-0.68 -0.48,-0.04 -0.72,-0.24 -0.24,-0.2 -0.24,-0.64 0,-0.4 0.28,-0.6 0.28,-0.2 0.68,-0.2 3.04,-0.2 4.32,-0.32 1.28,-0.12 2.4,-0.4 0.48,-0.12 0.52,-0.12 0.6,0 0.6,0.48 0,0.12 -0.16,0.6 -0.08,0.48 -0.2,1.4 -0.08,0.92 -0.08,1.4 v 9.28 q 0,1.52 0.72,1.52 l 1.12,0.04 q 0.36,0 0.56,0.2 0.2,0.2 0.2,0.52 0,0.4 -0.16,0.6 -0.12,0.2 -0.52,0.24 -2.96,0.28 -6.12,1.6 -0.12,0.04 -0.48,0.16 -0.32,0.12 -0.56,0.12 z" />
  </g>
</svg>
