<?xml version="1.0" encoding="UTF-8" standalone="no"?>
<svg
   xmlns:osb="http://www.openswatchbook.org/uri/2009/osb"
   xmlns:dc="http://purl.org/dc/elements/1.1/"
   xmlns:cc="http://creativecommons.org/ns#"
   xmlns:rdf="http://www.w3.org/1999/02/22-rdf-syntax-ns#"
   xmlns:svg="http://www.w3.org/2000/svg"
   xmlns="http://www.w3.org/2000/svg"
   xmlns:xlink="http://www.w3.org/1999/xlink"
   id="svg3357"
   version="1.1"
   viewBox="0 0 444.49999 277.8125"
   height="277.8125mm"
   width="444.5mm">
  <defs
     id="defs3351">
    <linearGradient
       id="linearGradient891">
      <stop
         id="stop887"
         offset="0"
         style="stop-color:#f4b400;stop-opacity:1;" />
      <stop
         style="stop-color:#face54;stop-opacity:1"
         offset="0"
         id="stop895" />
      <stop
         id="stop889"
         offset="1"
         style="stop-color:#ffc82e;stop-opacity:1" />
    </linearGradient>
    <linearGradient
       osb:paint="solid"
       id="linearGradient4115">
      <stop
         id="stop4113"
         offset="0"
         style="stop-color:#000000;stop-opacity:1;" />
    </linearGradient>
    <linearGradient
       id="linearGradient6114">
      <stop
         id="stop6110"
         offset="0"
         style="stop-color:#6f7c91;stop-opacity:1;" />
      <stop
         id="stop6112"
         offset="1"
         style="stop-color:#162d50;stop-opacity:1" />
    </linearGradient>
    <radialGradient
       gradientUnits="userSpaceOnUse"
       gradientTransform="matrix(3.0071285,0,0,1.83657,-125.12732,-58.151445)"
       r="31.67275"
       fy="66.986313"
       fx="73.77433"
       cy="66.986313"
       cx="73.77433"
       id="radialGradient6126"
       xlink:href="#linearGradient6114" />
    <radialGradient
       gradientUnits="userSpaceOnUse"
       gradientTransform="matrix(2.1026282,0,0,1.3141426,-3.106737,55.061563)"
       r="105.70104"
       fy="63.801815"
       fx="107.17859"
       cy="63.801815"
       cx="107.17859"
       id="radialGradient893"
       xlink:href="#linearGradient891" />
    <linearGradient
       xlink:href="#linearGradient866"
       id="linearGradient868"
       x1="443.93756"
       y1="139.69971"
       x2="444.5"
       y2="138.90625"
       gradientUnits="userSpaceOnUse"
       gradientTransform="translate(9.9999999e-6)" />
    <linearGradient
       id="linearGradient866">
      <stop
         style="stop-color:#6e7078;stop-opacity:1;"
         offset="0"
         id="stop862" />
      <stop
         style="stop-color:#6e7078;stop-opacity:0;"
         offset="1"
         id="stop864" />
    </linearGradient>
    <linearGradient
       gradientUnits="userSpaceOnUse"
       y2="138.90625"
       x2="465.91299"
       y1="139.3998"
       x1="444.19131"
       id="linearGradient1019-7"
       xlink:href="#linearGradient866"
       gradientTransform="translate(-1.5e-4,4.6e-4)" />
  </defs>
  <metadata
     id="metadata3354">
    <rdf:RDF>
      <cc:Work
         rdf:about="">
        <dc:format>image/svg+xml</dc:format>
        <dc:type
           rdf:resource="http://purl.org/dc/dcmitype/StillImage" />
        <dc:title></dc:title>
      </cc:Work>
    </rdf:RDF>
  </metadata>
  <g
     id="flowRoot985"
     style="font-style:normal;font-weight:normal;font-size:40px;line-height:1.25;font-family:sans-serif;letter-spacing:0px;word-spacing:0px;fill:#000000;fill-opacity:1;stroke:none"
     transform="matrix(0.26458333,0,0,0.26458333,-475.23522,222.84806)" />
  <g
     id="flowRoot993"
     style="font-style:normal;font-weight:normal;font-size:40px;line-height:1.25;font-family:sans-serif;letter-spacing:0px;word-spacing:0px;fill:#000000;fill-opacity:1;stroke:none"
     transform="matrix(0.26458333,0,0,0.26458333,-475.23522,222.84806)" />
  <path
     style="opacity:1;fill:url(#linearGradient1019-7);fill-opacity:1;stroke:none;stroke-width:9.70262432;stroke-miterlimit:4;stroke-dasharray:none;paint-order:stroke markers fill"
     d="M 286.33187,0 H 0 V 277.8125 H 444.49999 V 132.71902 Z"
     id="path1098" />
  <g
     id="flowRoot2445"
     style="font-style:normal;font-weight:normal;font-size:40px;line-height:1.25;font-family:sans-serif;letter-spacing:0px;word-spacing:0px;fill:#ffffff;fill-opacity:1;stroke:none"
     transform="matrix(1.0642366,0,0,1.4657924,-444.52237,-265.58001)"
     aria-label="Key Bindings in OpenBox">
    <path
       id="path2459"
       style="font-style:normal;font-variant:normal;font-weight:bold;font-stretch:normal;font-family:'EB Garamond';-inkscape-font-specification:'EB Garamond Bold';text-align:center;text-anchor:middle;fill:#ffffff"
       d="m 505.86138,261.07465 q -0.4,0 -0.76,-0.2 -0.36,-0.2 -0.36,-0.48 0,-0.64 1.04,-0.84 1.52,-0.32 2,-0.84 0.48,-0.52 0.48,-1.8 v -18.12 q 0,-1.32 -0.56,-1.84 -0.52,-0.52 -2.12,-0.88 -0.84,-0.2 -0.84,-0.84 0,-0.28 0.24,-0.44 0.28,-0.16 0.56,-0.16 0.92,0 1.92,0.04 1.04,0.04 2,0.12 1,0.04 1.8,0.04 0.8,0 1.8,-0.04 1,-0.04 2.04,-0.08 1.08,-0.04 1.96,-0.04 0.32,0 0.52,0.16 0.2,0.12 0.2,0.4 0,0.4 -0.24,0.56 -0.2,0.16 -0.64,0.28 -1.6,0.44 -2.08,1 -0.44,0.56 -0.44,1.76 v 8.12 q 0,0.32 0.12,0.48 0.12,0.16 0.28,0.16 0.2,0 0.44,-0.16 0.24,-0.2 0.56,-0.48 l 7.68,-8.28 q 0.32,-0.36 0.52,-0.64 0.24,-0.32 0.24,-0.6 0,-0.84 -1.64,-1.2 -0.44,-0.12 -0.68,-0.32 -0.2,-0.2 -0.2,-0.56 0,-0.28 0.24,-0.4 0.28,-0.16 0.56,-0.16 h 2.76 q 1.36,0 2.64,0 1.28,-0.04 2.6,-0.08 1.32,-0.04 2.68,-0.04 0.4,0 0.72,0.16 0.32,0.12 0.32,0.4 0,0.4 -0.4,0.6 -0.4,0.16 -0.8,0.24 -2,0.28 -3.52,0.92 -1.48,0.64 -2.64,1.56 -1.2,0.92 -2.32,2 -1.12,1.04 -2.24,2.2 -1.12,1.12 -2.36,2.28 -0.56,0.52 0.04,1.2 l 9.56,10.72 q 0.56,0.6 1.08,1.08 0.56,0.48 1.28,0.84 0.72,0.36 1.76,0.68 0.44,0.12 0.84,0.28 0.4,0.16 0.4,0.52 0,0.28 -0.4,0.48 -0.4,0.2 -1.12,0.2 -1.2,0 -2.4,-0.08 -1.16,-0.08 -2.32,-0.12 -1.16,-0.08 -2.44,-0.08 -1.32,0 -2.48,0.08 -1.12,0.12 -2.52,0.12 -0.28,0 -0.56,-0.16 -0.24,-0.16 -0.24,-0.44 0,-0.64 0.8,-0.84 1.6,-0.32 1.68,-1.08 0,-0.32 -0.2,-0.6 -0.16,-0.32 -0.48,-0.72 l -6.52,-7.56 q -0.28,-0.32 -0.52,-0.48 -0.24,-0.16 -0.44,-0.16 -0.16,0 -0.28,0.2 -0.08,0.16 -0.08,0.48 0,1.8 0,3.56 0.04,1.76 0.12,3.68 0.04,0.72 0.2,1.24 0.16,0.52 0.6,0.84 0.48,0.32 1.52,0.64 0.44,0.12 0.76,0.28 0.32,0.16 0.32,0.52 0,0.28 -0.36,0.48 -0.36,0.16 -0.8,0.16 -1.24,0 -2.16,-0.08 -0.92,-0.08 -1.68,-0.16 -0.76,-0.08 -1.52,-0.08 -0.84,0 -1.6,0.12 -0.76,0.08 -1.68,0.16 -0.88,0.12 -2.24,0.12 z" />
    <path
       id="path2461"
       style="font-style:normal;font-variant:normal;font-weight:bold;font-stretch:normal;font-family:'EB Garamond';-inkscape-font-specification:'EB Garamond Bold';text-align:center;text-anchor:middle;fill:#ffffff"
       d="m 542.14125,261.39465 q -2.16,0 -3.88,-1.12 -1.68,-1.16 -2.68,-3.12 -0.96,-2 -0.96,-4.52 0,-2.52 1.16,-4.56 1.16,-2.08 3.16,-3.28 2,-1.24 4.4,-1.24 1.72,0 3.08,0.76 1.36,0.72 2.16,1.96 0.84,1.24 0.84,2.8 0,1.52 -1.24,1.52 h -8 q -0.56,0 -0.84,0.32 -0.24,0.32 -0.24,1.08 0,1.52 0.68,2.8 0.68,1.24 1.84,1.96 1.16,0.72 2.68,0.72 1.16,0 2.12,-0.44 1,-0.44 1.96,-1.2 0.16,-0.12 0.28,-0.2 0.16,-0.12 0.28,-0.12 0.4,0 0.4,0.52 0,0.44 -0.32,1.2 -0.4,1 -1.36,2 -0.92,0.96 -2.32,1.56 -1.4,0.6 -3.2,0.6 z m -1.96,-12.48 h 2.4 q 1.12,0 1.56,-0.04 0.44,-0.04 0.8,-0.16 0.2,-0.08 0.32,-0.4 0.12,-0.32 0.12,-0.72 0,-1.08 -0.76,-1.76 -0.72,-0.68 -1.8,-0.68 -0.84,0 -1.6,0.48 -0.72,0.44 -1.2,1.2 -0.44,0.72 -0.4,1.52 0,0.56 0.56,0.56 z" />
    <path
       id="path2463"
       style="font-style:normal;font-variant:normal;font-weight:bold;font-stretch:normal;font-family:'EB Garamond';-inkscape-font-specification:'EB Garamond Bold';text-align:center;text-anchor:middle;fill:#ffffff"
       d="m 553.78124,272.15465 q -1.04,0 -2,-0.72 -0.96,-0.72 -0.96,-1.8 0,-0.76 0.4,-1.52 0.4,-0.72 1.24,-0.72 0.64,0 1.28,0.2 0.68,0.24 1.28,0.2 0.6,-0.08 0.84,-0.32 0.24,-0.2 0.56,-0.8 0.28,-0.48 0.52,-0.96 0.28,-0.44 0.6,-1.16 0.36,-0.68 0.88,-1.8 0.48,-1.08 0.48,-1.92 0,-0.6 -0.2,-1.08 -0.16,-0.52 -0.36,-1 l -4.92,-11.16 q -0.36,-0.92 -0.8,-1.52 -0.44,-0.6 -1.2,-0.84 -0.36,-0.16 -0.56,-0.32 -0.2,-0.2 -0.2,-0.56 0,-0.28 0.36,-0.36 0.36,-0.08 0.64,-0.08 0.96,0 1.6,0.04 0.68,0.04 1.2,0.08 0.52,0.04 1.04,0.04 0.88,0 1.48,-0.04 0.6,-0.04 1.28,-0.08 0.68,-0.04 1.6,-0.04 0.28,0 0.6,0.12 0.32,0.12 0.32,0.4 0,0.36 -0.32,0.52 -0.28,0.12 -0.6,0.28 -0.44,0.16 -0.68,0.48 -0.24,0.32 -0.24,1.04 0,0.32 0.08,0.76 0.12,0.44 0.36,1.08 l 2.48,6.04 q 0.04,0.12 0.12,0.12 0.04,0 0.12,-0.12 l 2.04,-6.12 q 0.12,-0.32 0.2,-0.76 0.12,-0.48 0.12,-0.84 0,-0.68 -0.4,-1.08 -0.4,-0.44 -0.84,-0.6 -0.32,-0.12 -0.64,-0.28 -0.28,-0.16 -0.28,-0.52 0,-0.28 0.32,-0.4 0.32,-0.12 0.6,-0.12 1.08,0.04 1.68,0.12 0.6,0.04 1.24,0.04 0.4,0 0.72,0 0.36,-0.04 0.84,-0.08 0.48,-0.04 1.16,-0.08 0.28,0 0.6,0.08 0.36,0.08 0.36,0.36 0,0.36 -0.2,0.56 -0.16,0.16 -0.52,0.32 -0.76,0.24 -1.36,0.92 -0.6,0.64 -1,1.56 l -5.96,14.32 q -0.32,0.8 -0.72,1.72 -0.4,0.96 -0.84,1.96 -0.4,1 -0.84,2.04 -0.44,1.04 -0.88,2.04 -0.48,1.16 -1.48,1.76 -1,0.6 -2.24,0.6 z" />
    <path
       id="path2465"
       style="font-style:normal;font-variant:normal;font-weight:bold;font-stretch:normal;font-family:'EB Garamond';-inkscape-font-specification:'EB Garamond Bold';text-align:center;text-anchor:middle;fill:#ffffff"
       d="m 580.26113,261.03465 q -0.36,0 -0.6,-0.2 -0.2,-0.16 -0.2,-0.4 0,-0.6 0.88,-0.84 1.36,-0.36 1.92,-0.84 0.6,-0.48 0.6,-1.76 v -18.2 q 0,-1.28 -0.52,-1.84 -0.52,-0.6 -1.92,-0.88 -0.52,-0.12 -0.72,-0.32 -0.2,-0.24 -0.2,-0.52 0,-0.24 0.24,-0.4 0.24,-0.2 0.6,-0.2 1.28,0 2.12,0.08 0.84,0.08 1.56,0.16 0.76,0.04 1.76,0.04 0.92,0 1.68,-0.08 0.76,-0.12 1.68,-0.2 0.96,-0.08 2.32,-0.08 4.76,0 7.2,1.36 2.48,1.32 2.48,4.6 0,1.24 -0.56,2.36 -0.56,1.08 -1.44,1.8 -0.64,0.56 -1.36,0.92 -0.68,0.36 -1.56,0.6 -0.16,0.04 -0.16,0.2 0,0.16 0.16,0.2 1.04,0.24 2.16,0.64 1.12,0.36 2.08,1.08 1,0.72 1.56,1.88 0.6,1.12 0.6,2.88 0,2.24 -0.72,3.56 -0.68,1.28 -1.68,1.96 -0.96,0.68 -1.8,1.12 -1.32,0.64 -3,0.96 -1.68,0.32 -4,0.32 -1.32,0 -2.68,-0.08 -1.32,-0.08 -2.8,-0.08 -0.84,0 -1.84,0.04 -1,0.04 -2,0.08 -0.96,0.08 -1.84,0.08 z m 11.2,-2.24 q 1.2,0 2.24,-0.72 1.08,-0.72 1.68,-1.92 0.64,-1.24 0.64,-2.8 0,-1.36 -0.36,-2.28 -0.32,-0.92 -0.8,-1.48 -0.44,-0.56 -0.84,-0.84 -0.32,-0.28 -1.16,-0.56 -0.8,-0.32 -2,-0.32 -0.68,0 -1.28,0.36 -0.56,0.32 -0.56,0.96 v 7.04 q 0,1.32 0.64,1.96 0.64,0.6 1.8,0.6 z m -0.84,-12.72 q 0.96,0 1.76,-0.2 0.8,-0.24 1.64,-0.88 0.28,-0.28 0.76,-1.12 0.52,-0.88 0.52,-2.52 0,-1.68 -0.44,-2.8 -0.44,-1.12 -1.36,-1.68 -0.88,-0.56 -2.36,-0.56 -1.12,0 -1.64,0.44 -0.48,0.4 -0.48,1.24 v 6.68 q 0,0.8 0.56,1.12 0.56,0.28 1.04,0.28 z" />
    <path
       id="path2467"
       style="font-style:normal;font-variant:normal;font-weight:bold;font-stretch:normal;font-family:'EB Garamond';-inkscape-font-specification:'EB Garamond Bold';text-align:center;text-anchor:middle;fill:#ffffff"
       d="m 605.30111,260.95465 q -0.24,0 -0.44,-0.12 -0.2,-0.16 -0.2,-0.4 0,-0.32 0.2,-0.52 0.2,-0.2 0.52,-0.28 1.04,-0.24 1.44,-0.52 0.44,-0.32 0.44,-0.96 v -8.64 q 0,-1.36 -0.44,-1.92 -0.4,-0.6 -1.28,-0.72 -0.24,-0.04 -0.36,-0.24 -0.12,-0.2 -0.12,-0.48 0,-0.6 0.44,-0.68 2.08,-0.4 3.68,-1.12 1.64,-0.72 2.52,-1.12 0.64,-0.32 0.8,-0.32 0.52,0 0.52,0.48 -0.04,0.68 -0.2,1.72 -0.12,1 -0.24,2.08 -0.08,1.08 -0.08,2.08 v 8.84 q 0,0.56 0.4,0.88 0.44,0.32 1.52,0.64 0.32,0.12 0.52,0.28 0.2,0.16 0.2,0.48 0,0.52 -0.6,0.52 -0.76,0 -1.6,-0.04 -0.84,-0.04 -1.64,-0.08 -0.76,-0.04 -1.48,-0.04 -0.68,0 -1.44,0.04 -0.72,0.04 -1.52,0.08 -0.76,0.08 -1.56,0.08 z m 4.4,-19.84 q -1.24,0 -2.2,-0.92 -0.92,-0.92 -0.92,-2.2 0,-1.36 0.92,-2.28 0.96,-0.92 2.2,-0.92 1.4,0 2.32,0.92 0.92,0.92 0.92,2.28 0,1.28 -0.92,2.2 -0.92,0.92 -2.32,0.92 z" />
    <path
       id="path2469"
       style="font-style:normal;font-variant:normal;font-weight:bold;font-stretch:normal;font-family:'EB Garamond';-inkscape-font-specification:'EB Garamond Bold';text-align:center;text-anchor:middle;fill:#ffffff"
       d="m 617.26103,260.95465 q -0.28,0 -0.56,-0.12 -0.24,-0.16 -0.24,-0.44 0,-0.32 0.28,-0.48 0.28,-0.2 0.64,-0.32 0.6,-0.2 1.04,-0.44 0.48,-0.28 0.48,-1.08 v -9.16 q 0,-0.88 -0.28,-1.48 -0.24,-0.6 -0.96,-0.76 -0.16,-0.04 -0.32,-0.2 -0.12,-0.16 -0.12,-0.52 0,-0.56 0.4,-0.68 1.36,-0.32 2.96,-0.84 1.64,-0.56 2.8,-1.16 0.16,-0.08 0.36,-0.2 0.2,-0.12 0.36,-0.12 0.24,0 0.28,0.16 0.08,0.12 0.08,0.32 0,0.32 -0.12,1.04 -0.08,0.68 -0.08,1.24 0,0.16 0,0.36 0.04,0.2 0.08,0.24 1.36,-1.32 2.76,-2.04 1.4,-0.72 3.24,-0.72 2.08,0 3.48,1.56 1.44,1.52 1.44,4.16 v 8.8 q 0,0.8 0.44,1.08 0.48,0.24 1.08,0.44 0.32,0.12 0.56,0.32 0.24,0.16 0.24,0.48 0,0.28 -0.24,0.44 -0.2,0.12 -0.44,0.12 -0.8,0 -1.52,-0.08 -0.68,-0.04 -1.36,-0.08 -0.64,-0.04 -1.36,-0.04 -0.68,0 -1.36,0.04 -0.68,0.04 -1.36,0.08 -0.68,0.08 -1.48,0.08 -0.24,0 -0.48,-0.12 -0.2,-0.16 -0.2,-0.44 0,-0.32 0.24,-0.48 0.24,-0.2 0.56,-0.32 0.6,-0.2 1,-0.44 0.4,-0.28 0.4,-1.08 v -7.96 q 0,-1.52 -0.72,-2.36 -0.68,-0.88 -1.84,-0.92 -0.88,0 -1.56,0.28 -0.68,0.28 -1.4,0.76 -0.16,0.16 -0.24,0.36 -0.08,0.2 -0.08,0.4 v 9.44 q 0,0.8 0.44,1.08 0.44,0.24 1,0.44 0.8,0.24 0.8,0.8 0,0.24 -0.2,0.4 -0.2,0.16 -0.48,0.16 -0.8,0 -1.48,-0.08 -0.68,-0.04 -1.28,-0.08 -0.6,-0.04 -1.32,-0.04 -0.68,0 -1.4,0.04 -0.68,0.04 -1.44,0.08 -0.72,0.08 -1.52,0.08 z" />
    <path
       id="path2471"
       style="font-style:normal;font-variant:normal;font-weight:bold;font-stretch:normal;font-family:'EB Garamond';-inkscape-font-specification:'EB Garamond Bold';text-align:center;text-anchor:middle;fill:#ffffff"
       d="m 652.58103,261.59465 q -0.12,0 -0.36,-0.28 -0.2,-0.24 -0.2,-0.4 0.08,-0.6 0.12,-1.12 0.08,-0.56 0.08,-1 v -0.24 q -0.8,1.24 -2.24,2.04 -1.4,0.8 -3.04,0.8 -2.24,0 -4,-1.12 -1.72,-1.12 -2.72,-3.04 -1,-1.92 -1,-4.2 0,-2.72 1.2,-4.84 1.2,-2.12 3.36,-3.32 2.16,-1.24 5,-1.24 0.6,0 1.24,0.12 0.68,0.08 1.24,0.24 0.56,0.12 0.52,0.12 0.16,0 0.16,-0.52 v -4.76 q 0,-1.44 -0.36,-2.08 -0.36,-0.64 -1.2,-0.8 -0.48,-0.12 -0.48,-0.6 0,-0.52 0.44,-0.6 1.48,-0.32 3.04,-0.8 1.6,-0.52 2.6,-0.96 0.52,-0.24 0.72,-0.28 0.2,-0.08 0.24,-0.08 0.44,0 0.44,0.48 0,-0.12 -0.04,0.32 -0.04,0.4 -0.08,1.08 -0.04,0.68 -0.08,1.36 l -0.2,20.16 q 0,1.36 0.2,1.96 0.2,0.6 0.72,0.6 0.2,0 0.4,-0.04 0.24,-0.04 1.16,-0.08 0.56,-0.04 0.56,0.4 0,0.32 -0.24,0.68 -0.24,0.36 -0.44,0.36 -1.44,0.16 -3.04,0.52 -1.56,0.36 -3.04,0.92 -0.24,0.12 -0.4,0.16 -0.16,0.08 -0.28,0.08 z m -3.6,-2.92 q 0.6,0 1.48,-0.32 0.92,-0.32 1.48,-0.92 l -0.04,-8.84 q 0,-0.72 -0.56,-1.4 -0.52,-0.72 -1.36,-1.2 -0.8,-0.48 -1.6,-0.48 -0.96,0 -1.8,0.8 -0.8,0.76 -1.32,2.2 -0.48,1.4 -0.48,3.44 0,1.64 0.32,2.88 0.36,1.24 0.96,2.12 0.6,0.84 1.36,1.28 0.76,0.44 1.56,0.44 z" />
    <path
       id="path2473"
       style="font-style:normal;font-variant:normal;font-weight:bold;font-stretch:normal;font-family:'EB Garamond';-inkscape-font-specification:'EB Garamond Bold';text-align:center;text-anchor:middle;fill:#ffffff"
       d="m 661.86101,260.95465 q -0.24,0 -0.44,-0.12 -0.2,-0.16 -0.2,-0.4 0,-0.32 0.2,-0.52 0.2,-0.2 0.52,-0.28 1.04,-0.24 1.44,-0.52 0.44,-0.32 0.44,-0.96 v -8.64 q 0,-1.36 -0.44,-1.92 -0.4,-0.6 -1.28,-0.72 -0.24,-0.04 -0.36,-0.24 -0.12,-0.2 -0.12,-0.48 0,-0.6 0.44,-0.68 2.08,-0.4 3.68,-1.12 1.64,-0.72 2.52,-1.12 0.64,-0.32 0.8,-0.32 0.52,0 0.52,0.48 -0.04,0.68 -0.2,1.72 -0.12,1 -0.24,2.08 -0.08,1.08 -0.08,2.08 v 8.84 q 0,0.56 0.4,0.88 0.44,0.32 1.52,0.64 0.32,0.12 0.52,0.28 0.2,0.16 0.2,0.48 0,0.52 -0.6,0.52 -0.76,0 -1.6,-0.04 -0.84,-0.04 -1.64,-0.08 -0.76,-0.04 -1.48,-0.04 -0.68,0 -1.44,0.04 -0.72,0.04 -1.52,0.08 -0.76,0.08 -1.56,0.08 z m 4.4,-19.84 q -1.24,0 -2.2,-0.92 -0.92,-0.92 -0.92,-2.2 0,-1.36 0.92,-2.28 0.96,-0.92 2.2,-0.92 1.4,0 2.32,0.92 0.92,0.92 0.92,2.28 0,1.28 -0.92,2.2 -0.92,0.92 -2.32,0.92 z" />
    <path
       id="path2475"
       style="font-style:normal;font-variant:normal;font-weight:bold;font-stretch:normal;font-family:'EB Garamond';-inkscape-font-specification:'EB Garamond Bold';text-align:center;text-anchor:middle;fill:#ffffff"
       d="m 673.82094,260.95465 q -0.28,0 -0.56,-0.12 -0.24,-0.16 -0.24,-0.44 0,-0.32 0.28,-0.48 0.28,-0.2 0.64,-0.32 0.6,-0.2 1.04,-0.44 0.48,-0.28 0.48,-1.08 v -9.16 q 0,-0.88 -0.28,-1.48 -0.24,-0.6 -0.96,-0.76 -0.16,-0.04 -0.32,-0.2 -0.12,-0.16 -0.12,-0.52 0,-0.56 0.4,-0.68 1.36,-0.32 2.96,-0.84 1.64,-0.56 2.8,-1.16 0.16,-0.08 0.36,-0.2 0.2,-0.12 0.36,-0.12 0.24,0 0.28,0.16 0.08,0.12 0.08,0.32 0,0.32 -0.12,1.04 -0.08,0.68 -0.08,1.24 0,0.16 0,0.36 0.04,0.2 0.08,0.24 1.36,-1.32 2.76,-2.04 1.4,-0.72 3.24,-0.72 2.08,0 3.48,1.56 1.44,1.52 1.44,4.16 v 8.8 q 0,0.8 0.44,1.08 0.48,0.24 1.08,0.44 0.32,0.12 0.56,0.32 0.24,0.16 0.24,0.48 0,0.28 -0.24,0.44 -0.2,0.12 -0.44,0.12 -0.8,0 -1.52,-0.08 -0.68,-0.04 -1.36,-0.08 -0.64,-0.04 -1.36,-0.04 -0.68,0 -1.36,0.04 -0.68,0.04 -1.36,0.08 -0.68,0.08 -1.48,0.08 -0.24,0 -0.48,-0.12 -0.2,-0.16 -0.2,-0.44 0,-0.32 0.24,-0.48 0.24,-0.2 0.56,-0.32 0.6,-0.2 1,-0.44 0.4,-0.28 0.4,-1.08 v -7.96 q 0,-1.52 -0.72,-2.36 -0.68,-0.88 -1.84,-0.92 -0.88,0 -1.56,0.28 -0.68,0.28 -1.4,0.76 -0.16,0.16 -0.24,0.36 -0.08,0.2 -0.08,0.4 v 9.44 q 0,0.8 0.44,1.08 0.44,0.24 1,0.44 0.8,0.24 0.8,0.8 0,0.24 -0.2,0.4 -0.2,0.16 -0.48,0.16 -0.8,0 -1.48,-0.08 -0.68,-0.04 -1.28,-0.08 -0.6,-0.04 -1.32,-0.04 -0.68,0 -1.4,0.04 -0.68,0.04 -1.44,0.08 -0.72,0.08 -1.52,0.08 z" />
    <path
       id="path2477"
       style="font-style:normal;font-variant:normal;font-weight:bold;font-stretch:normal;font-family:'EB Garamond';-inkscape-font-specification:'EB Garamond Bold';text-align:center;text-anchor:middle;fill:#ffffff"
       d="m 703.46094,272.39465 q -3.92,0 -6.12,-1.24 -2.16,-1.2 -2.16,-3.32 0,-1.2 0.28,-1.96 0.28,-0.72 1.28,-1.44 0.76,-0.56 1.48,-1.12 0.72,-0.56 1.24,-0.92 l 1.96,0.68 q -1.24,0.72 -1.96,1.56 -0.68,0.84 -0.68,1.96 0,1.64 1.36,2.72 1.4,1.08 3.48,1.08 2.76,0 3.92,-1.08 0.72,-0.72 1.16,-1.64 0.44,-0.88 0.44,-1.8 0,-0.64 -0.44,-1.04 -0.44,-0.4 -1.6,-0.68 -1.12,-0.28 -3.16,-0.48 -4.16,-0.4 -5.92,-1.56 -1.76,-1.16 -1.76,-3.08 0,-0.36 0.2,-0.72 0.24,-0.4 0.88,-0.84 0.64,-0.48 1.16,-0.84 0.52,-0.4 0.88,-0.72 0.36,-0.36 0.48,-0.64 l 2,0.68 q -0.8,0.28 -1.32,0.76 -0.48,0.48 -0.48,0.84 0,0.44 0.52,0.72 0.52,0.28 1.76,0.48 1.24,0.16 3.4,0.32 4.32,0.36 6.28,1.36 1.96,0.96 1.96,2.84 0,1.64 -0.92,3.24 -0.92,1.64 -2.44,2.96 -1.52,1.36 -3.4,2.12 -1.84,0.8 -3.76,0.8 z m 0.52,-17.16 q 1.28,0 2,-1.4 0.76,-1.44 0.76,-3.76 0,-1.48 -0.4,-2.56 -0.36,-1.12 -1,-1.72 -0.64,-0.64 -1.52,-0.64 -0.76,0 -1.4,0.64 -0.64,0.64 -1.04,1.72 -0.36,1.04 -0.36,2.44 0,1.48 0.4,2.68 0.4,1.2 1.08,1.92 0.68,0.68 1.48,0.68 z m -0.44,1.76 q -1.76,0 -3.48,-0.84 -1.68,-0.88 -2.8,-2.4 -1.08,-1.52 -1.08,-3.4 0,-2 1.12,-3.56 1.16,-1.56 3,-2.4 1.88,-0.88 3.96,-0.88 1.24,0 2.32,0.28 1.12,0.28 2.44,0.48 0.76,0.16 1.52,0.24 0.76,0.08 1.68,0.08 0.6,0 1.2,-0.04 0.6,-0.08 1,-0.08 0.64,0 0.64,0.88 0,0.76 -0.52,1.44 -0.24,0.28 -0.52,0.28 h -1.08 q -1.04,0 -1.4,0.32 -0.08,0.08 -0.12,0.2 -0.04,0.08 -0.08,0.44 0,0.32 0,1.24 0,2.08 -1.08,3.84 -1.08,1.76 -2.84,2.84 -1.76,1.04 -3.88,1.04 z" />
    <path
       id="path2479"
       style="font-style:normal;font-variant:normal;font-weight:bold;font-stretch:normal;font-family:'EB Garamond';-inkscape-font-specification:'EB Garamond Bold';text-align:center;text-anchor:middle;fill:#ffffff"
       d="m 721.42086,261.39465 q -1.32,0 -2.56,-0.32 -1.24,-0.32 -2.24,-1.04 -0.36,-0.6 -0.52,-1.88 -0.16,-1.28 -0.12,-2.68 0,-0.48 0.8,-0.48 0.32,0 0.56,0.2 0.24,0.2 0.28,0.4 0.76,1.68 1.76,2.88 1,1.16 2.4,1.16 1.08,0 1.64,-0.64 0.56,-0.68 0.56,-1.52 0,-1.04 -0.84,-1.72 -0.8,-0.72 -1.96,-1.32 -1.16,-0.6 -2.2,-1.36 -1.04,-0.76 -1.72,-1.8 -0.64,-1.08 -0.64,-2.56 0,-1.56 0.84,-2.72 0.88,-1.16 2.32,-1.8 1.48,-0.68 3.28,-0.68 1.32,0 2.44,0.32 1.12,0.28 1.52,0.56 0.32,0.4 0.52,1.52 0.2,1.08 0.2,2.4 0,0.44 -0.72,0.44 -0.28,0 -0.6,-0.2 -0.28,-0.2 -0.36,-0.4 -0.52,-1.56 -1.36,-2.32 -0.8,-0.8 -1.8,-0.8 -0.88,0 -1.6,0.56 -0.72,0.56 -0.72,1.52 0,0.84 0.76,1.52 0.8,0.64 1.96,1.28 2.6,1.36 3.72,2.64 1.12,1.24 1.12,3.32 0,2.6 -1.72,4.08 -1.68,1.44 -5,1.44 z" />
    <path
       id="path2481"
       style="font-style:normal;font-variant:normal;font-weight:bold;font-stretch:normal;font-family:'EB Garamond';-inkscape-font-specification:'EB Garamond Bold';text-align:center;text-anchor:middle;fill:#ffffff"
       d="m 518.12127,311.42993 q -0.24,0 -0.44,-0.12 -0.2,-0.16 -0.2,-0.4 0,-0.32 0.2,-0.52 0.2,-0.2 0.52,-0.28 1.04,-0.24 1.44,-0.52 0.44,-0.32 0.44,-0.96 v -8.64 q 0,-1.36 -0.44,-1.92 -0.4,-0.6 -1.28,-0.72 -0.24,-0.04 -0.36,-0.24 -0.12,-0.2 -0.12,-0.48 0,-0.6 0.44,-0.68 2.08,-0.4 3.68,-1.12 1.64,-0.72 2.52,-1.12 0.64,-0.32 0.8,-0.32 0.52,0 0.52,0.48 -0.04,0.68 -0.2,1.72 -0.12,1 -0.24,2.08 -0.08,1.08 -0.08,2.08 v 8.84 q 0,0.56 0.4,0.88 0.44,0.32 1.52,0.64 0.32,0.12 0.52,0.28 0.2,0.16 0.2,0.48 0,0.52 -0.6,0.52 -0.76,0 -1.6,-0.04 -0.84,-0.04 -1.64,-0.08 -0.76,-0.04 -1.48,-0.04 -0.68,0 -1.44,0.04 -0.72,0.04 -1.52,0.08 -0.76,0.08 -1.56,0.08 z m 4.4,-19.84 q -1.24,0 -2.2,-0.92 -0.92,-0.92 -0.92,-2.2 0,-1.36 0.92,-2.28 0.96,-0.92 2.2,-0.92 1.4,0 2.32,0.92 0.92,0.92 0.92,2.28 0,1.28 -0.92,2.2 -0.92,0.92 -2.32,0.92 z" />
    <path
       id="path2483"
       style="font-style:normal;font-variant:normal;font-weight:bold;font-stretch:normal;font-family:'EB Garamond';-inkscape-font-specification:'EB Garamond Bold';text-align:center;text-anchor:middle;fill:#ffffff"
       d="m 530.0812,311.42993 q -0.28,0 -0.56,-0.12 -0.24,-0.16 -0.24,-0.44 0,-0.32 0.28,-0.48 0.28,-0.2 0.64,-0.32 0.6,-0.2 1.04,-0.44 0.48,-0.28 0.48,-1.08 v -9.16 q 0,-0.88 -0.28,-1.48 -0.24,-0.6 -0.96,-0.76 -0.16,-0.04 -0.32,-0.2 -0.12,-0.16 -0.12,-0.52 0,-0.56 0.4,-0.68 1.36,-0.32 2.96,-0.84 1.64,-0.56 2.8,-1.16 0.16,-0.08 0.36,-0.2 0.2,-0.12 0.36,-0.12 0.24,0 0.28,0.16 0.08,0.12 0.08,0.32 0,0.32 -0.12,1.04 -0.08,0.68 -0.08,1.24 0,0.16 0,0.36 0.04,0.2 0.08,0.24 1.36,-1.32 2.76,-2.04 1.4,-0.72 3.24,-0.72 2.08,0 3.48,1.56 1.44,1.52 1.44,4.16 v 8.8 q 0,0.8 0.44,1.08 0.48,0.24 1.08,0.44 0.32,0.12 0.56,0.32 0.24,0.16 0.24,0.48 0,0.28 -0.24,0.44 -0.2,0.12 -0.44,0.12 -0.8,0 -1.52,-0.08 -0.68,-0.04 -1.36,-0.08 -0.64,-0.04 -1.36,-0.04 -0.68,0 -1.36,0.04 -0.68,0.04 -1.36,0.08 -0.68,0.08 -1.48,0.08 -0.24,0 -0.48,-0.12 -0.2,-0.16 -0.2,-0.44 0,-0.32 0.24,-0.48 0.24,-0.2 0.56,-0.32 0.6,-0.2 1,-0.44 0.4,-0.28 0.4,-1.08 v -7.96 q 0,-1.52 -0.72,-2.36 -0.68,-0.88 -1.84,-0.92 -0.88,0 -1.56,0.28 -0.68,0.28 -1.4,0.76 -0.16,0.16 -0.24,0.36 -0.08,0.2 -0.08,0.4 v 9.44 q 0,0.8 0.44,1.08 0.44,0.24 1,0.44 0.8,0.24 0.8,0.8 0,0.24 -0.2,0.4 -0.2,0.16 -0.48,0.16 -0.8,0 -1.48,-0.08 -0.68,-0.04 -1.28,-0.08 -0.6,-0.04 -1.32,-0.04 -0.68,0 -1.4,0.04 -0.68,0.04 -1.44,0.08 -0.72,0.08 -1.52,0.08 z" />
    <path
       id="path2485"
       style="font-style:normal;font-variant:normal;font-weight:bold;font-stretch:normal;font-family:'EB Garamond';-inkscape-font-specification:'EB Garamond Bold';text-align:center;text-anchor:middle;fill:#ffffff"
       d="m 575.56118,311.86993 q -2.76,0 -5.28,-0.92 -2.48,-0.96 -4.44,-2.68 -1.92,-1.76 -3.04,-4.16 -1.08,-2.44 -1.08,-5.4 0,-2.72 0.88,-5.2 0.92,-2.52 2.72,-4.48 1.8,-1.96 4.44,-3.12 2.68,-1.16 6.16,-1.16 2.8,0 5.28,0.96 2.52,0.92 4.44,2.68 1.92,1.72 3.04,4.16 1.12,2.4 1.12,5.36 0,2.68 -0.92,5.2 -0.92,2.52 -2.72,4.48 -1.8,1.96 -4.48,3.12 -2.64,1.16 -6.12,1.16 z m 0.72,-1.84 q 2.28,0 3.8,-1.28 1.56,-1.28 2.32,-3.56 0.76,-2.28 0.76,-5.24 0,-2.44 -0.48,-4.8 -0.44,-2.4 -1.44,-4.32 -0.96,-1.92 -2.48,-3.04 -1.52,-1.16 -3.6,-1.16 -2.24,0 -3.8,1.28 -1.52,1.28 -2.28,3.52 -0.76,2.24 -0.76,5.2 0,2.48 0.48,4.88 0.48,2.36 1.44,4.28 0.96,1.92 2.44,3.08 1.52,1.16 3.6,1.16 z" />
    <path
       id="path2487"
       style="font-style:normal;font-variant:normal;font-weight:bold;font-stretch:normal;font-family:'EB Garamond';-inkscape-font-specification:'EB Garamond Bold';text-align:center;text-anchor:middle;fill:#ffffff"
       d="m 592.40111,321.78993 q -0.28,0 -0.56,-0.16 -0.24,-0.12 -0.24,-0.4 0,-0.32 0.24,-0.52 0.28,-0.16 0.68,-0.28 0.84,-0.28 1.16,-0.6 0.36,-0.28 0.36,-0.92 v -19.16 q 0,-0.52 -0.2,-1 -0.2,-0.48 -0.56,-0.84 -0.36,-0.4 -0.92,-0.48 -0.24,-0.08 -0.36,-0.2 -0.12,-0.16 -0.12,-0.52 0,-0.32 0.12,-0.48 0.12,-0.16 0.32,-0.2 1.4,-0.32 3,-0.84 1.6,-0.52 2.76,-1.08 0.16,-0.08 0.32,-0.16 0.2,-0.12 0.36,-0.12 0.24,0 0.28,0.16 0.08,0.12 0.08,0.32 0,0.32 -0.12,1.08 -0.08,0.72 -0.08,1.24 0,0.4 0.08,0.48 0.4,-0.4 1.4,-1.08 1.04,-0.68 2.36,-1.2 1.32,-0.52 2.56,-0.52 2.16,0 3.64,1.16 1.52,1.12 2.32,2.92 0.8,1.76 0.8,3.72 0,1.88 -0.72,3.64 -0.68,1.76 -1.96,3.2 -1.28,1.4 -2.96,2.24 -1.68,0.84 -3.6,0.84 -0.44,0 -1.08,-0.12 -0.6,-0.12 -1.24,-0.32 -0.6,-0.2 -1.12,-0.4 -0.04,0 -0.08,0.12 -0.04,0.12 -0.08,0.28 0,0.16 0,0.32 v 6.64 q 0,0.52 0.24,0.88 0.28,0.36 0.76,0.56 0.48,0.24 1.16,0.44 0.4,0.12 0.64,0.28 0.24,0.2 0.24,0.52 0,0.24 -0.24,0.4 -0.2,0.16 -0.44,0.16 -1.2,0 -2.52,-0.12 -1.28,-0.08 -2.32,-0.08 -0.68,0 -1.4,0.04 -0.68,0.04 -1.44,0.08 -0.72,0.08 -1.52,0.08 z m 10.32,-11.6 q 0.44,0 1.04,-0.32 0.64,-0.36 1.24,-1.12 0.64,-0.76 1.04,-2.04 0.44,-1.28 0.44,-3.16 0,-2.2 -0.44,-3.48 -0.44,-1.32 -1.08,-1.96 -0.64,-0.64 -1.32,-0.84 -0.64,-0.24 -1.12,-0.24 -0.72,0 -1.48,0.32 -0.76,0.32 -1.24,0.76 -0.48,0.44 -0.48,0.8 0,0.32 0,1.24 0,0.92 -0.04,2.04 0,1.12 -0.04,2.04 0,0.92 0,1.28 0,0.92 0.4,2.04 0.44,1.08 1.2,1.88 0.8,0.76 1.88,0.76 z" />
    <path
       id="path2489"
       style="font-style:normal;font-variant:normal;font-weight:bold;font-stretch:normal;font-family:'EB Garamond';-inkscape-font-specification:'EB Garamond Bold';text-align:center;text-anchor:middle;fill:#ffffff"
       d="m 621.44106,311.86993 q -2.16,0 -3.88,-1.12 -1.68,-1.16 -2.68,-3.12 -0.96,-2 -0.96,-4.52 0,-2.52 1.16,-4.56 1.16,-2.08 3.16,-3.28 2,-1.24 4.4,-1.24 1.72,0 3.08,0.76 1.36,0.72 2.16,1.96 0.84,1.24 0.84,2.8 0,1.52 -1.24,1.52 h -8 q -0.56,0 -0.84,0.32 -0.24,0.32 -0.24,1.08 0,1.52 0.68,2.8 0.68,1.24 1.84,1.96 1.16,0.72 2.68,0.72 1.16,0 2.12,-0.44 1,-0.44 1.96,-1.2 0.16,-0.12 0.28,-0.2 0.16,-0.12 0.28,-0.12 0.4,0 0.4,0.52 0,0.44 -0.32,1.2 -0.4,1 -1.36,2 -0.92,0.96 -2.32,1.56 -1.4,0.6 -3.2,0.6 z m -1.96,-12.48 h 2.4 q 1.12,0 1.56,-0.04 0.44,-0.04 0.8,-0.16 0.2,-0.08 0.32,-0.4 0.12,-0.32 0.12,-0.72 0,-1.08 -0.76,-1.76 -0.72,-0.68 -1.8,-0.68 -0.84,0 -1.6,0.48 -0.72,0.44 -1.2,1.2 -0.44,0.72 -0.4,1.52 0,0.56 0.56,0.56 z" />
    <path
       id="path2491"
       style="font-style:normal;font-variant:normal;font-weight:bold;font-stretch:normal;font-family:'EB Garamond';-inkscape-font-specification:'EB Garamond Bold';text-align:center;text-anchor:middle;fill:#ffffff"
       d="m 631.32105,311.42993 q -0.28,0 -0.56,-0.12 -0.24,-0.16 -0.24,-0.44 0,-0.32 0.28,-0.48 0.28,-0.2 0.64,-0.32 0.6,-0.2 1.04,-0.44 0.48,-0.28 0.48,-1.08 v -9.16 q 0,-0.88 -0.28,-1.48 -0.24,-0.6 -0.96,-0.76 -0.16,-0.04 -0.32,-0.2 -0.12,-0.16 -0.12,-0.52 0,-0.56 0.4,-0.68 1.36,-0.32 2.96,-0.84 1.64,-0.56 2.8,-1.16 0.16,-0.08 0.36,-0.2 0.2,-0.12 0.36,-0.12 0.24,0 0.28,0.16 0.08,0.12 0.08,0.32 0,0.32 -0.12,1.04 -0.08,0.68 -0.08,1.24 0,0.16 0,0.36 0.04,0.2 0.08,0.24 1.36,-1.32 2.76,-2.04 1.4,-0.72 3.24,-0.72 2.08,0 3.48,1.56 1.44,1.52 1.44,4.16 v 8.8 q 0,0.8 0.44,1.08 0.48,0.24 1.08,0.44 0.32,0.12 0.56,0.32 0.24,0.16 0.24,0.48 0,0.28 -0.24,0.44 -0.2,0.12 -0.44,0.12 -0.8,0 -1.52,-0.08 -0.68,-0.04 -1.36,-0.08 -0.64,-0.04 -1.36,-0.04 -0.68,0 -1.36,0.04 -0.68,0.04 -1.36,0.08 -0.68,0.08 -1.48,0.08 -0.24,0 -0.48,-0.12 -0.2,-0.16 -0.2,-0.44 0,-0.32 0.24,-0.48 0.24,-0.2 0.56,-0.32 0.6,-0.2 1,-0.44 0.4,-0.28 0.4,-1.08 v -7.96 q 0,-1.52 -0.72,-2.36 -0.68,-0.88 -1.84,-0.92 -0.88,0 -1.56,0.28 -0.68,0.28 -1.4,0.76 -0.16,0.16 -0.24,0.36 -0.08,0.2 -0.08,0.4 v 9.44 q 0,0.8 0.44,1.08 0.44,0.24 1,0.44 0.8,0.24 0.8,0.8 0,0.24 -0.2,0.4 -0.2,0.16 -0.48,0.16 -0.8,0 -1.48,-0.08 -0.68,-0.04 -1.28,-0.08 -0.6,-0.04 -1.32,-0.04 -0.68,0 -1.4,0.04 -0.68,0.04 -1.44,0.08 -0.72,0.08 -1.52,0.08 z" />
    <path
       id="path2493"
       style="font-style:normal;font-variant:normal;font-weight:bold;font-stretch:normal;font-family:'EB Garamond';-inkscape-font-specification:'EB Garamond Bold';text-align:center;text-anchor:middle;fill:#ffffff"
       d="m 653.80105,311.50993 q -0.36,0 -0.6,-0.2 -0.2,-0.16 -0.2,-0.4 0,-0.6 0.88,-0.84 1.36,-0.36 1.92,-0.84 0.6,-0.48 0.6,-1.76 v -18.2 q 0,-1.28 -0.52,-1.84 -0.52,-0.6 -1.92,-0.88 -0.52,-0.12 -0.72,-0.32 -0.2,-0.24 -0.2,-0.52 0,-0.24 0.24,-0.4 0.24,-0.2 0.6,-0.2 1.28,0 2.12,0.08 0.84,0.08 1.56,0.16 0.76,0.04 1.76,0.04 0.92,0 1.68,-0.08 0.76,-0.12 1.68,-0.2 0.96,-0.08 2.32,-0.08 4.76,0 7.2,1.36 2.48,1.32 2.48,4.6 0,1.24 -0.56,2.36 -0.56,1.08 -1.44,1.8 -0.64,0.56 -1.36,0.92 -0.68,0.36 -1.56,0.6 -0.16,0.04 -0.16,0.2 0,0.16 0.16,0.2 1.04,0.24 2.16,0.64 1.12,0.36 2.08,1.08 1,0.72 1.56,1.88 0.6,1.12 0.6,2.88 0,2.24 -0.72,3.56 -0.68,1.28 -1.68,1.96 -0.96,0.68 -1.8,1.12 -1.32,0.64 -3,0.96 -1.68,0.32 -4,0.32 -1.32,0 -2.68,-0.08 -1.32,-0.08 -2.8,-0.08 -0.84,0 -1.84,0.04 -1,0.04 -2,0.08 -0.96,0.08 -1.84,0.08 z m 11.2,-2.24 q 1.2,0 2.24,-0.72 1.08,-0.72 1.68,-1.92 0.64,-1.24 0.64,-2.8 0,-1.36 -0.36,-2.28 -0.32,-0.92 -0.8,-1.48 -0.44,-0.56 -0.84,-0.84 -0.32,-0.28 -1.16,-0.56 -0.8,-0.32 -2,-0.32 -0.68,0 -1.28,0.36 -0.56,0.32 -0.56,0.96 v 7.04 q 0,1.32 0.64,1.96 0.64,0.6 1.8,0.6 z m -0.84,-12.72 q 0.96,0 1.76,-0.2 0.8,-0.24 1.64,-0.88 0.28,-0.28 0.76,-1.12 0.52,-0.88 0.52,-2.52 0,-1.68 -0.44,-2.8 -0.44,-1.12 -1.36,-1.68 -0.88,-0.56 -2.36,-0.56 -1.12,0 -1.64,0.44 -0.48,0.4 -0.48,1.24 v 6.68 q 0,0.8 0.56,1.12 0.56,0.28 1.04,0.28 z" />
    <path
       id="path2495"
       style="font-style:normal;font-variant:normal;font-weight:bold;font-stretch:normal;font-family:'EB Garamond';-inkscape-font-specification:'EB Garamond Bold';text-align:center;text-anchor:middle;fill:#ffffff"
       d="m 686.84103,311.86993 q -2.4,0 -4.32,-1.08 -1.92,-1.08 -3.08,-2.96 -1.12,-1.92 -1.12,-4.32 0,-1.92 0.72,-3.64 0.72,-1.72 2,-3.04 1.28,-1.32 3,-2.08 1.72,-0.76 3.68,-0.76 2.48,0 4.48,1.16 2,1.16 3.16,3.08 1.2,1.88 1.2,4.12 0,2.56 -1.12,4.76 -1.08,2.16 -3.24,3.48 -2.12,1.28 -5.36,1.28 z m 0.8,-1.76 q 0.84,0 1.44,-0.32 0.64,-0.36 1.04,-1.04 0.48,-0.8 0.64,-2.16 0.2,-1.4 0.2,-3.28 0,-2.16 -0.48,-3.84 -0.48,-1.72 -1.36,-2.72 -0.84,-1 -2,-1 -0.64,0 -1.16,0.24 -0.52,0.2 -0.92,0.6 -0.68,0.8 -0.96,2.28 -0.24,1.48 -0.24,3.64 0,1.92 0.48,3.68 0.52,1.72 1.36,2.84 0.88,1.08 1.96,1.08 z" />
    <path
       id="path2497"
       style="font-style:normal;font-variant:normal;font-weight:bold;font-stretch:normal;font-family:'EB Garamond';-inkscape-font-specification:'EB Garamond Bold';text-align:center;text-anchor:middle;fill:#ffffff"
       d="m 697.60095,311.46993 q -0.28,0 -0.64,-0.08 -0.32,-0.08 -0.32,-0.36 0,-0.36 0.16,-0.52 0.2,-0.2 0.6,-0.36 0.44,-0.16 0.88,-0.56 0.48,-0.4 1.28,-1.44 l 3.68,-5.04 q 0.24,-0.32 0.24,-0.52 0,-0.2 -0.2,-0.52 l -3,-4.44 q -0.52,-0.8 -0.92,-1.28 -0.4,-0.48 -1.04,-0.72 -0.4,-0.12 -0.6,-0.28 -0.16,-0.2 -0.16,-0.56 0,-0.32 0.36,-0.4 0.36,-0.08 0.6,-0.08 1,0 1.52,0.08 0.52,0.04 1.04,0.12 0.56,0.04 1.44,0.04 1.16,0 1.92,-0.08 0.8,-0.12 2.12,-0.12 0.24,0 0.6,0.12 0.36,0.08 0.36,0.4 0,0.32 -0.32,0.44 -0.28,0.12 -0.6,0.28 -0.4,0.16 -0.76,0.36 -0.36,0.2 -0.36,0.6 0,0.24 0.16,0.56 0.16,0.32 0.36,0.68 l 1.84,2.68 q 0.2,0.36 0.36,0 l 1.24,-2.12 q 0.2,-0.4 0.36,-0.88 0.2,-0.48 0.16,-0.88 0,-0.64 -0.72,-0.92 -0.32,-0.16 -0.6,-0.28 -0.24,-0.12 -0.24,-0.48 0,-0.32 0.36,-0.4 0.36,-0.12 0.6,-0.12 1,0.04 1.52,0.08 0.56,0 1.08,0 0.6,0 1.04,-0.04 0.48,-0.08 1.52,-0.12 0.28,0 0.6,0.08 0.36,0.08 0.36,0.4 0,0.32 -0.2,0.52 -0.16,0.16 -0.56,0.32 -0.44,0.16 -0.96,0.56 -0.48,0.4 -1.24,1.4 l -2.88,3.84 q -0.24,0.36 -0.24,0.56 0.04,0.2 0.24,0.48 l 3.36,5.28 q 0.52,0.84 1.2,1.44 0.68,0.6 1.4,0.88 0.4,0.12 0.56,0.32 0.2,0.16 0.2,0.52 0,0.32 -0.36,0.4 -0.32,0.08 -0.6,0.08 -0.96,0 -1.68,-0.08 -0.68,-0.04 -1.36,-0.08 -0.68,-0.08 -1.56,-0.08 -1.2,0 -2.2,0.12 -0.96,0.08 -2.32,0.08 -0.96,0 -0.96,-0.52 0,-0.36 0.24,-0.48 0.28,-0.16 0.68,-0.28 0.52,-0.16 0.84,-0.48 0.32,-0.32 0.32,-1.04 0,-0.4 -0.08,-0.68 -0.08,-0.32 -0.4,-0.76 l -2.04,-3 q -0.12,-0.12 -0.24,0 l -1.88,3.32 q -0.12,0.24 -0.36,0.68 -0.2,0.44 -0.2,0.88 0,0.4 0.16,0.72 0.2,0.28 0.56,0.48 0.32,0.12 0.6,0.28 0.28,0.12 0.28,0.44 0,0.32 -0.36,0.4 -0.32,0.12 -0.6,0.12 -1.04,0 -1.48,-0.04 -0.44,-0.04 -0.96,-0.04 -0.6,0 -1.2,0 -0.56,0.04 -1.6,0.12 z" />
  </g>
</svg>
