<?xml version="1.0" encoding="UTF-8" standalone="no"?>
<svg
   xmlns:dc="http://purl.org/dc/elements/1.1/"
   xmlns:cc="http://creativecommons.org/ns#"
   xmlns:rdf="http://www.w3.org/1999/02/22-rdf-syntax-ns#"
   xmlns:svg="http://www.w3.org/2000/svg"
   xmlns="http://www.w3.org/2000/svg"
   xmlns:xlink="http://www.w3.org/1999/xlink"
   width="48.90501mm"
   height="8.1682768mm"
   viewBox="0 0 48.905011 8.1682768"
   version="1.1"
   id="svg8">
  <defs
     id="defs2">
    <linearGradient
       id="linearGradient833">
      <stop
         id="stop829"
         offset="0"
         style="stop-color:#000000;stop-opacity:1;" />
      <stop
         id="stop831"
         offset="1"
         style="stop-color:#000000;stop-opacity:0;" />
    </linearGradient>
    <linearGradient
       gradientUnits="userSpaceOnUse"
       y2="4.3656254"
       x2="44.40659"
       y1="4.3656254"
       x1="0.036792073"
       id="linearGradient835"
       xlink:href="#linearGradient833" />
  </defs>
  <metadata
     id="metadata5">
    <rdf:RDF>
      <cc:Work
         rdf:about="">
        <dc:format>image/svg+xml</dc:format>
        <dc:type
           rdf:resource="http://purl.org/dc/dcmitype/StillImage" />
        <dc:title></dc:title>
      </cc:Work>
    </rdf:RDF>
  </metadata>
  <g
     id="text844"
     style="font-style:normal;font-weight:normal;font-size:11.51184559px;line-height:1.25;font-family:sans-serif;letter-spacing:0px;word-spacing:0px;fill:#00a562;fill-opacity:1;stroke:none;stroke-width:0.28779614"
     transform="matrix(1.0133126,0,0,0.98686226,0.04974952,-0.11679925)"
     aria-label="TechPiezo">
    <path
       id="path854"
       style="font-style:normal;font-variant:normal;font-weight:bold;font-stretch:normal;font-family:'EB Garamond';-inkscape-font-specification:'EB Garamond Bold';text-align:center;text-anchor:middle;fill:#00a562;fill-opacity:1;stroke-width:0.28779614"
       d="m 2.0921073,8.2687408 q -0.092095,0 -0.1841895,-0.046047 -0.080583,-0.046047 -0.080583,-0.1151185 0,-0.1841895 0.2762843,-0.2417487 Q 2.564093,7.7622196 2.7482825,7.6125656 2.9439839,7.4513997 2.9439839,7.1060444 V 2.3516522 q 0,-0.6216397 -0.046047,-0.8058292 Q 2.863401,1.3501216 2.7597944,1.3040742 2.6216522,1.2350031 2.2187376,1.2350031 H 1.965477 q -0.3568672,0 -0.6907107,0.1726777 Q 0.94092279,1.5803585 0.74522141,1.8566428 0.57254373,2.1099034 0.41137789,2.2825811 0.2617239,2.4437469 0.11206991,2.4437469 q -0.16116584,0 -0.16116584,-0.2072132 0,-0.1726777 0.06907107,-0.2877961 Q 0.25021205,1.4997756 0.34230682,1.1889557 0.44591343,0.87813591 0.48044897,0.48673316 0.5149845,0.18742518 0.7682451,0.18742518 q 0.0575592,0 0.11511846,0.0805829 0.0690711,0.0805829 0.0805829,0.10360661 0.0920947,0.1266303 0.17267774,0.20721322 0.1036066,0.0805829 0.3568672,0.13814215 0.2647724,0.0460474 0.4719856,0.0460474 h 4.328454 q 0.2647724,0 0.4719857,-0.0460474 0.218725,-0.0575592 0.3223316,-0.1266303 0.080583,-0.0575592 0.2417488,-0.18418953 0.069071,-0.0690711 0.149654,-0.11511846 0.080583,-0.0575592 0.1611658,-0.0575592 0.1266303,0 0.1266303,0.19570138 0,0.0805829 -0.023024,0.24174875 -0.057559,0.20721322 -0.080583,0.2762843 -0.011512,0.0690711 -0.092095,0.368379 -0.069071,0.2877962 -0.069071,0.5410568 v 0.2187251 q 0,0.4259382 -0.1957014,0.4259382 -0.1036066,0 -0.1726777,-0.1036066 Q 7.0652246,2.2940929 6.9846417,2.0408323 6.8464996,1.614894 6.593239,1.4307045 6.3399784,1.2350031 5.8564809,1.2350031 h -0.598616 q -0.2187251,0 -0.3338435,0.092095 -0.1151185,0.080583 -0.1726777,0.3453554 -0.046047,0.2532606 -0.046047,0.7828055 v 4.6392737 q 0,0.3223317 0.1841895,0.4834975 0.1841896,0.1611659 0.6446634,0.2877962 0.1381421,0.046047 0.2072132,0.092095 0.069071,0.046047 0.069071,0.1381421 0,0.080583 -0.069071,0.1266303 -0.069071,0.046047 -0.1726777,0.046047 -0.4259383,0 -0.9094358,-0.034536 -0.6216396,-0.023024 -0.8403647,-0.023024 -0.2302369,0 -0.8288529,0.023024 -0.4719857,0.034536 -0.8979244,0.034536 z" />
    <path
       id="path856"
       style="font-style:normal;font-variant:normal;font-weight:bold;font-stretch:normal;font-family:'EB Garamond';-inkscape-font-specification:'EB Garamond Bold';text-align:center;text-anchor:middle;fill:#00a562;fill-opacity:1;stroke-width:0.28779614"
       d="m 9.0297931,8.3953711 q -0.6101279,0 -1.1051372,-0.3223317 Q 7.4296465,7.7391959 7.1418504,7.1636036 6.8655661,6.5880113 6.8655661,5.8742769 q 0,-0.7137344 0.3338435,-1.3123504 0.3338435,-0.598616 0.9094358,-0.9439713 0.5871041,-0.3568672 1.266303,-0.3568672 0.4834975,0 0.8864126,0.2072132 0.402914,0.2072132 0.633151,0.5755923 0.230237,0.368379 0.230237,0.8058291 0,0.230237 -0.0921,0.3338436 -0.08058,0.1036066 -0.264772,0.1036066 H 8.4657126 q -0.1611658,0 -0.2417487,0.092095 -0.069071,0.092095 -0.069071,0.3108199 0,0.667687 0.4259383,1.1281608 0.4259383,0.448962 1.0706016,0.448962 0.3223317,0 0.5986162,-0.1151184 0.276284,-0.1266303 0.575592,-0.3568673 0.115118,-0.092095 0.161166,-0.092095 0.115118,0 0.115118,0.149654 0,0.149654 -0.0921,0.3453553 Q 10.825641,7.6816367 10.284584,8.0385039 9.7550393,8.3953711 9.0297931,8.3953711 Z M 9.1564234,4.8036753 q 0.2647724,0 0.4144264,-0.011512 0.149654,-0.011512 0.2647724,-0.046047 0.057559,-0.023024 0.092095,-0.1151184 0.034536,-0.092095 0.034536,-0.2072132 0,-0.299308 -0.218725,-0.4950094 Q 9.536315,3.7215621 9.2254951,3.7215621 q -0.3568672,0 -0.6446633,0.299308 -0.2877962,0.2877961 -0.2762843,0.6216396 0,0.1611659 0.1611658,0.1611659 z" />
    <path
       id="path858"
       style="font-style:normal;font-variant:normal;font-weight:bold;font-stretch:normal;font-family:'EB Garamond';-inkscape-font-specification:'EB Garamond Bold';text-align:center;text-anchor:middle;fill:#00a562;fill-opacity:1;stroke-width:0.28779614"
       d="m 13.818901,8.3953711 q -0.598616,0 -1.093625,-0.3223317 Q 12.230266,7.7391959 11.94247,7.1751155 11.666186,6.611035 11.666186,5.9203243 q 0,-0.7367581 0.333843,-1.3353741 0.345356,-0.6101278 0.93246,-0.966995 0.587104,-0.3568672 1.300838,-0.3568672 0.460474,0 0.863389,0.1611658 0.414426,0.1611658 0.702222,0.4604738 0.103607,0.1036066 0.103607,0.2072132 0,0.1151185 -0.218725,0.3338436 -0.207213,0.2072132 -0.333844,0.2072132 -0.103606,0 -0.184189,-0.046047 -0.06907,-0.046047 -0.207213,-0.1611658 -0.299308,-0.2532606 -0.610128,-0.4029146 -0.299308,-0.1611659 -0.518033,-0.1611659 -0.448962,0 -0.667687,0.3683791 -0.218725,0.368379 -0.218725,1.1742082 0,0.8518766 0.391402,1.3353741 0.391403,0.4834975 1.105138,0.4834975 0.333843,0 0.587104,-0.1036066 0.25326,-0.1036066 0.541056,-0.3453553 0.03454,-0.023024 0.09209,-0.057559 0.05756,-0.046047 0.103607,-0.046047 0.138142,0 0.138142,0.1841896 0,0.1381421 -0.0921,0.3223317 -0.12663,0.2532606 -0.425938,0.5410567 -0.287796,0.2877961 -0.702223,0.4834975 -0.414426,0.1957014 -0.863388,0.1957014 z" />
    <path
       id="path860"
       style="font-style:normal;font-variant:normal;font-weight:bold;font-stretch:normal;font-family:'EB Garamond';-inkscape-font-specification:'EB Garamond Bold';text-align:center;text-anchor:middle;fill:#00a562;fill-opacity:1;stroke-width:0.28779614"
       d="m 16.447558,8.2687408 q -0.230237,0 -0.230237,-0.1611659 0,-0.080583 0.05756,-0.1266303 0.06907,-0.057559 0.207213,-0.1036066 0.241749,-0.080583 0.333843,-0.149654 0.09209,-0.080583 0.103607,-0.2993079 V 1.9026902 q 0,-0.3568672 -0.09209,-0.5640805 -0.0921,-0.2072132 -0.356867,-0.2647724 -0.12663,-0.023024 -0.12663,-0.17267769 0,-0.149654 0.115118,-0.17267769 0.368379,-0.0805829 0.897924,-0.26477245 0.541057,-0.19570137 0.644664,-0.23023691 l 0.218725,-0.0805829 q 0.08058,-0.0345355 0.149654,-0.0345355 0.115118,0 0.115118,0.13814214 0,0.0805829 -0.03454,0.31081983 Q 18.4276,0.79755305 18.41609,1.0508137 V 3.71005 q 0,0.2762843 0.06907,0.3338435 0.402915,-0.3453553 0.782806,-0.5640805 0.391402,-0.218725 0.897923,-0.218725 0.633152,0 1.036067,0.4489619 0.402914,0.4374502 0.402914,1.1857201 v 2.5095824 q 0,0.218725 0.0921,0.3108198 0.103607,0.080583 0.322332,0.1611658 0.12663,0.034536 0.184189,0.092095 0.06907,0.046047 0.06907,0.1381421 0,0.1611659 -0.25326,0.1611659 -0.379891,0 -0.633152,-0.034536 -0.322332,-0.023024 -0.541057,-0.023024 -0.230237,0 -0.529545,0.023024 -0.207213,0.034536 -0.575592,0.034536 -0.287796,0 -0.287796,-0.1726776 0,-0.1496541 0.241749,-0.2187252 0.195692,-0.069071 0.299299,-0.161166 0.103606,-0.1036066 0.103606,-0.3338435 V 5.1144951 q 0,-0.3683791 -0.230237,-0.6331515 -0.218725,-0.2647725 -0.506521,-0.2647725 -0.43745,0 -0.782805,0.2532606 -0.0921,0.069071 -0.126631,0.1611659 -0.02302,0.080583 -0.02302,0.2532606 v 2.5210942 q 0,0.2072132 0.0921,0.2993079 0.103606,0.092095 0.287796,0.1611659 0.241748,0.092095 0.241748,0.2302369 0,0.1726777 -0.207213,0.1726777 -0.333843,0 -0.644663,-0.034536 -0.368379,-0.023024 -0.552569,-0.023024 -0.184189,0 -0.552568,0.023024 -0.31082,0.034536 -0.644664,0.034536 z" />
    <path
       id="path862"
       style="font-style:normal;font-variant:normal;font-weight:bold;font-stretch:normal;font-family:'EB Garamond';-inkscape-font-specification:'EB Garamond Bold';text-align:center;text-anchor:middle;fill:#00a562;fill-opacity:1;stroke-width:0.28779614"
       d="m 22.878005,8.2687408 q -0.0921,0 -0.161166,-0.046047 -0.06907,-0.046047 -0.06907,-0.1151185 0,-0.1957013 0.241749,-0.2417487 0.448962,-0.092095 0.610128,-0.2417488 0.161165,-0.1611658 0.161165,-0.518033 V 1.9487376 q 0,-0.4029146 -0.138142,-0.5755923 Q 23.384526,1.2004676 22.9701,1.1083728 22.705327,1.0508136 22.705327,0.86662407 q 0,-0.0690711 0.06907,-0.11511846 0.06907,-0.0575592 0.18419,-0.0575592 0.425938,0 0.817341,0.0345355 0.529545,0.0230237 0.736758,0.0230237 0.218725,0 0.656175,-0.0460474 0.483498,-0.0690711 0.93246,-0.0690711 1.404445,0 2.221786,0.59861589 0.828853,0.598616 0.828853,1.6231704 0,0.7482699 -0.31082,1.3583976 -0.31082,0.6101279 -0.943971,0.9669951 -0.62164,0.3568672 -1.531076,0.3568672 -0.287796,0 -0.448962,-0.080583 -0.161166,-0.080583 -0.161166,-0.2187251 0,-0.080583 0.06907,-0.1266303 0.06907,-0.057559 0.138143,-0.057559 0.06907,0 0.207213,0.034535 0.149654,0.023024 0.264772,0.023024 0.471986,0 0.725247,-0.5295449 0.25326,-0.5295449 0.25326,-1.4389807 0,-2.0030611 -1.31235,-2.0030611 -0.656175,0 -0.656175,0.5871041 l -0.01151,5.3530082 q 0,0.3568672 0.184189,0.518033 0.18419,0.1611659 0.690711,0.2647725 0.12663,0.023024 0.184189,0.080583 0.06907,0.046047 0.06907,0.1496541 0,0.1726776 -0.218725,0.1726776 -0.437451,0 -0.943972,-0.034536 -0.621639,-0.023024 -0.840365,-0.023024 -0.218725,0 -0.817341,0.023024 -0.448962,0.034536 -0.863388,0.034536 z" />
    <path
       id="path864"
       style="font-style:normal;font-variant:normal;font-weight:bold;font-stretch:normal;font-family:'EB Garamond';-inkscape-font-specification:'EB Garamond Bold';text-align:center;text-anchor:middle;fill:#00a562;fill-opacity:1;stroke-width:0.28779614"
       d="m 29.870551,8.2687408 q -0.06907,0 -0.12663,-0.034536 -0.05756,-0.046047 -0.05756,-0.1151184 0,-0.1726777 0.207213,-0.2302369 0.31082,-0.069071 0.425938,-0.149654 0.115118,-0.092095 0.115118,-0.2762843 V 4.9763529 q 0,-0.3798909 -0.115118,-0.5525685 -0.115118,-0.1726777 -0.379891,-0.2072133 -0.06907,-0.011512 -0.103606,-0.069071 -0.03454,-0.057559 -0.03454,-0.1381422 0,-0.069071 0.03454,-0.1266303 0.04605,-0.057559 0.09209,-0.069071 0.518033,-0.092095 0.909436,-0.2532606 0.402915,-0.1611658 0.8749,-0.3914027 0.161166,-0.092095 0.230237,-0.092095 0.06907,0 0.103607,0.046047 0.04605,0.034536 0.04605,0.092095 l -0.04605,0.4259383 q -0.103607,0.8749002 -0.103607,1.266303 v 2.5441178 q 0,0.1611659 0.115119,0.2532606 0.115118,0.092095 0.43745,0.1841896 0.103606,0.034535 0.149654,0.080583 0.05756,0.046047 0.05756,0.1381421 0,0.149654 -0.172678,0.149654 -0.241748,0 -0.702222,-0.023024 -0.460474,-0.023024 -0.656175,-0.023024 -0.195702,0 -0.610128,0.023024 -0.345356,0.034536 -0.690711,0.034536 z m 1.266303,-5.7098754 q -0.368379,0 -0.633151,-0.2647725 -0.264773,-0.2647724 -0.264773,-0.6331515 0,-0.3914027 0.264773,-0.6561752 0.264772,-0.26477243 0.633151,-0.26477243 0.391403,0 0.656175,0.26477243 0.276285,0.2647725 0.276285,0.6561752 0,0.3683791 -0.276285,0.6331515 -0.264772,0.2647725 -0.656175,0.2647725 z" />
    <path
       id="path866"
       style="font-style:normal;font-variant:normal;font-weight:bold;font-stretch:normal;font-family:'EB Garamond';-inkscape-font-specification:'EB Garamond Bold';text-align:center;text-anchor:middle;fill:#00a562;fill-opacity:1;stroke-width:0.28779614"
       d="m 35.268708,8.3953711 q -0.610128,0 -1.105137,-0.3223317 -0.49501,-0.3338435 -0.782806,-0.9094358 -0.276284,-0.5755923 -0.276284,-1.2893267 0,-0.7137344 0.333844,-1.3123504 0.333843,-0.598616 0.909435,-0.9439713 0.587104,-0.3568672 1.266303,-0.3568672 0.483498,0 0.886412,0.2072132 0.402915,0.2072132 0.633152,0.5755923 0.230237,0.368379 0.230237,0.8058291 0,0.230237 -0.0921,0.3338436 -0.08058,0.1036066 -0.264772,0.1036066 h -2.302369 q -0.161166,0 -0.241749,0.092095 -0.06907,0.092095 -0.06907,0.3108199 0,0.667687 0.425938,1.1281608 0.425938,0.448962 1.070602,0.448962 0.322331,0 0.598616,-0.1151184 0.276284,-0.1266303 0.575592,-0.3568673 0.115118,-0.092095 0.161166,-0.092095 0.115118,0 0.115118,0.149654 0,0.149654 -0.0921,0.3453553 -0.184189,0.4834976 -0.725246,0.8403648 -0.529545,0.3568672 -1.254791,0.3568672 z m 0.12663,-3.5916958 q 0.264773,0 0.414427,-0.011512 0.149654,-0.011512 0.264772,-0.046047 0.05756,-0.023024 0.0921,-0.1151184 0.03454,-0.092095 0.03454,-0.2072132 0,-0.299308 -0.218726,-0.4950094 -0.207213,-0.2072132 -0.518033,-0.2072132 -0.356867,0 -0.644663,0.299308 -0.287796,0.2877961 -0.276284,0.6216396 0,0.1611659 0.161166,0.1611659 z" />
    <path
       id="path868"
       style="font-style:normal;font-variant:normal;font-weight:bold;font-stretch:normal;font-family:'EB Garamond';-inkscape-font-specification:'EB Garamond Bold';text-align:center;text-anchor:middle;fill:#00a562;fill-opacity:1;stroke-width:0.28779614"
       d="m 38.157822,8.2917645 q -0.05756,0 -0.161166,-0.1151185 -0.103607,-0.1151184 -0.103607,-0.2072132 0,-0.1036066 0.287797,-0.5065212 0.138142,-0.1841895 0.184189,-0.2647725 l 0.368379,-0.5755922 q 0.736758,-1.1281609 1.600147,-2.5326061 0.02302,-0.046047 0.02302,-0.069071 0,-0.069071 -0.138142,-0.069071 l -0.633151,-0.011512 q -0.299308,0 -0.518033,0.2187251 -0.06907,0.069071 -0.241749,0.3108198 -0.172678,0.2417488 -0.253261,0.3568673 L 38.3305,5.1605425 q -0.05756,0.057559 -0.126631,0.057559 -0.09209,0 -0.172677,-0.046047 -0.06907,-0.057559 -0.05756,-0.1266303 0.08058,-0.2762843 0.18419,-0.7597818 0.103607,-0.4950094 0.103607,-0.7828055 0,-0.1151184 0.08058,-0.2072132 0.0921,-0.092095 0.18419,-0.092095 0.103607,0 0.218725,0.1151185 0.08058,0.080583 0.552569,0.080583 l 0.471985,-0.011512 q 1.404445,0 2.417488,-0.046047 0.0921,0 0.161166,0.1151184 0.06907,0.1036066 0.06907,0.2302369 0,0.080583 -0.02302,0.1036066 -0.195701,0.230237 -0.483497,0.6216397 l -1.910967,3.0851746 q -0.03453,0.046047 -0.03453,0.092095 0,0.080583 0.195701,0.080583 h 0.725246 q 0.172678,0 0.31082,-0.057559 0.138142,-0.057559 0.264773,-0.2072132 0.161165,-0.1726777 0.264772,-0.3338436 0.115118,-0.1726776 0.356867,-0.6101278 0.06907,-0.1036066 0.18419,-0.1036066 0.0921,0 0.149654,0.046047 0.06907,0.046047 0.06907,0.1266303 0,0.149654 -0.12663,0.6561752 -0.126631,0.4950094 -0.253261,0.9209476 -0.01151,0.080583 -0.08058,0.1266303 -0.05756,0.057559 -0.138142,0.057559 l -0.575592,-0.023024 q -0.218725,0 -0.851877,-0.023024 -0.633151,-0.023024 -1.289327,-0.023024 -0.230237,0 -0.621639,0.046047 z" />
    <path
       id="path870"
       style="font-style:normal;font-variant:normal;font-weight:bold;font-stretch:normal;font-family:'EB Garamond';-inkscape-font-specification:'EB Garamond Bold';text-align:center;text-anchor:middle;fill:#00a562;fill-opacity:1;stroke-width:0.28779614"
       d="m 45.416038,8.3953711 q -0.679198,0 -1.243279,-0.3108198 -0.56408,-0.3108199 -0.886412,-0.8518766 -0.322332,-0.5525686 -0.322332,-1.2432793 0,-0.7252463 0.356868,-1.3583978 0.368379,-0.6331515 0.978506,-1.0015306 0.62164,-0.3798909 1.36991,-0.3798909 0.690711,0 1.277815,0.3338435 0.587104,0.3223317 0.920948,0.8864121 0.345355,0.5525686 0.345355,1.1857201 0,0.7597818 -0.322332,1.3814215 -0.322331,0.6216397 -0.955483,0.9900187 -0.62164,0.3683791 -1.519564,0.3683791 z m 0.230237,-0.5065212 q 0.471986,0 0.713735,-0.3914028 0.241749,-0.4029146 0.241749,-1.565611 0,-0.9439713 -0.31082,-1.5540991 -0.299308,-0.6216397 -0.794318,-0.6216397 -0.356867,0 -0.598616,0.2417488 -0.195701,0.218725 -0.276284,0.6331515 -0.06907,0.4144264 -0.06907,1.0706016 0,0.5525686 0.138142,1.0590898 0.149654,0.5065212 0.391403,0.817341 0.253261,0.3108199 0.564079,0.3108199 z" />
  </g>
</svg>
