<?xml version="1.0" encoding="UTF-8" standalone="no"?>
<svg
   xmlns:dc="http://purl.org/dc/elements/1.1/"
   xmlns:cc="http://creativecommons.org/ns#"
   xmlns:rdf="http://www.w3.org/1999/02/22-rdf-syntax-ns#"
   xmlns:svg="http://www.w3.org/2000/svg"
   xmlns="http://www.w3.org/2000/svg"
   xmlns:xlink="http://www.w3.org/1999/xlink"
   width="45.834229mm"
   height="7.6094174mm"
   viewBox="0 0 45.834229 7.6094175"
   version="1.1"
   id="svg8">
  <defs
     id="defs2">
    <linearGradient
       id="linearGradient833">
      <stop
         id="stop829"
         offset="0"
         style="stop-color:#000000;stop-opacity:1;" />
      <stop
         id="stop831"
         offset="1"
         style="stop-color:#000000;stop-opacity:0;" />
    </linearGradient>
    <linearGradient
       gradientUnits="userSpaceOnUse"
       y2="4.3656254"
       x2="44.40659"
       y1="4.3656254"
       x1="0.036792073"
       id="linearGradient835"
       xlink:href="#linearGradient833" />
  </defs>
  <metadata
     id="metadata5">
    <rdf:RDF>
      <cc:Work
         rdf:about="">
        <dc:format>image/svg+xml</dc:format>
        <dc:type
           rdf:resource="http://purl.org/dc/dcmitype/StillImage" />
        <dc:title></dc:title>
      </cc:Work>
    </rdf:RDF>
  </metadata>
  <g
     transform="translate(-0.48826609,-0.43042697)"
     id="text862"
     style="font-style:normal;font-weight:normal;font-size:10.58333397px;line-height:1.25;font-family:sans-serif;letter-spacing:0px;word-spacing:0px;fill:#f68700;fill-opacity:1;stroke:none;stroke-width:0.26458335"
     aria-label="Tech">
    <path
       id="path884"
       style="font-style:normal;font-variant:normal;font-weight:bold;font-stretch:normal;font-family:'EB Garamond';-inkscape-font-specification:'EB Garamond Bold';fill:#f68700;fill-opacity:1;stroke:none;stroke-width:0.26458335"
       d="m 2.4567662,7.9234274 q -0.084667,0 -0.1693333,-0.042333 -0.074083,-0.042333 -0.074083,-0.1058333 0,-0.1693333 0.254,-0.22225 0.4233334,-0.09525 0.5926667,-0.2328334 0.1799167,-0.1481666 0.1799167,-0.4656666 v -4.370917 q 0,-0.5715 -0.042333,-0.7408334 -0.03175,-0.1799166 -0.127,-0.22225 -0.127,-0.0635 -0.4974167,-0.0635 H 2.3403495 q -0.3280833,0 -0.635,0.15875 -0.3069167,0.15875 -0.4868334,0.4127501 -0.15875,0.2328333 -0.30691665,0.3915833 -0.13758335,0.1481667 -0.27516669,0.1481667 -0.14816667,0 -0.14816667,-0.1905 0,-0.15875 0.0635,-0.2645834 0.21166668,-0.41275 0.29633335,-0.6985 0.09525,-0.28575 0.12700001,-0.64558338 0.0317499,-0.27516668 0.26458335,-0.27516668 0.052917,0 0.1058333,0.0740833 0.0635,0.0740833 0.074083,0.09525 0.084667,0.11641667 0.15875,0.19050001 0.09525,0.0740833 0.3280833,0.12700001 0.2434167,0.0423333 0.4339167,0.0423333 h 3.9793336 q 0.2434167,0 0.4339167,-0.0423333 0.2010833,-0.0529167 0.2963333,-0.11641668 0.074083,-0.0529167 0.2222501,-0.16933334 0.0635,-0.0635 0.1375833,-0.10583334 0.074083,-0.0529167 0.1481667,-0.0529167 0.1164167,0 0.1164167,0.17991668 0,0.0740833 -0.021167,0.22225001 -0.052917,0.19050001 -0.074083,0.25400001 -0.010583,0.0635 -0.084667,0.3386667 -0.0635,0.2645833 -0.0635,0.4974167 V 2.229594 q 0,0.3915834 -0.1799167,0.3915834 -0.09525,0 -0.15875,-0.09525 Q 7.0287658,2.4306774 6.9546824,2.197844 6.8276831,1.8062603 6.5948498,1.636927 6.3620164,1.4570103 5.9175164,1.4570103 H 5.367183 q -0.2010833,0 -0.3069166,0.084667 -0.1058334,0.074083 -0.15875,0.3175 -0.042333,0.2328334 -0.042333,0.7196667 v 4.2650836 q 0,0.2963334 0.1693334,0.4445 0.1693333,0.1481667 0.5926667,0.2645834 0.127,0.042333 0.1905,0.084667 0.0635,0.042333 0.0635,0.127 0,0.074083 -0.0635,0.1164166 -0.0635,0.042333 -0.15875,0.042333 -0.3915834,0 -0.8360834,-0.03175 -0.5715001,-0.021167 -0.7725834,-0.021167 -0.2116667,0 -0.762,0.021167 -0.4339167,0.03175 -0.8255005,0.03175 z" />
    <path
       id="path886"
       style="font-style:normal;font-variant:normal;font-weight:bold;font-stretch:normal;font-family:'EB Garamond';-inkscape-font-specification:'EB Garamond Bold';fill:#f68700;fill-opacity:1;stroke:none;stroke-width:0.26458335"
       d="m 8.8348787,8.0398441 q -0.5609167,0 -1.0160001,-0.2963334 Q 7.3637952,7.436594 7.0992119,6.9074273 q -0.254,-0.5291667 -0.254,-1.1853334 0,-0.6561667 0.3069167,-1.2065001 Q 7.4590452,3.9652605 7.9882119,3.6477605 8.527962,3.3196771 9.1523787,3.3196771 q 0.4445,0 0.8149167,0.1905 0.3704166,0.1905 0.5820836,0.5291667 0.211666,0.3386667 0.211666,0.7408334 0,0.2116667 -0.08467,0.3069167 -0.07408,0.09525 -0.243417,0.09525 H 8.3162953 q -0.1481667,0 -0.22225,0.084667 -0.0635,0.084667 -0.0635,0.28575 0,0.6138333 0.3915833,1.0371667 0.3915834,0.41275 0.9842501,0.41275 0.2963333,0 0.5503334,-0.1058333 0.2539999,-0.1164167 0.5291669,-0.3280834 0.105833,-0.084667 0.148166,-0.084667 0.105834,0 0.105834,0.1375833 0,0.1375833 -0.08467,0.3175 -0.169333,0.4445 -0.6667499,0.7725834 Q 9.5016287,8.0398441 8.8348787,8.0398441 Z M 8.9512953,4.7378439 q 0.2434167,0 0.3810001,-0.010583 0.1375833,-0.010583 0.2434166,-0.042333 0.052917,-0.021167 0.084667,-0.1058334 0.03175,-0.084667 0.03175,-0.1905 0,-0.2751666 -0.2010833,-0.4550833 -0.1905,-0.1905 -0.4762501,-0.1905 -0.3280833,0 -0.5926667,0.2751666 -0.2645833,0.2645834 -0.254,0.5715001 0,0.1481667 0.1481667,0.1481667 z" />
    <path
       id="path888"
       style="font-style:normal;font-variant:normal;font-weight:bold;font-stretch:normal;font-family:'EB Garamond';-inkscape-font-specification:'EB Garamond Bold';fill:#f68700;fill-opacity:1;stroke:none;stroke-width:0.26458335"
       d="m 13.237711,8.0398441 q -0.550333,0 -1.005417,-0.2963334 -0.455083,-0.3069167 -0.719666,-0.8255 -0.254,-0.5185834 -0.254,-1.1535834 0,-0.6773334 0.306916,-1.2276668 0.3175,-0.5609167 0.85725,-0.889 0.53975,-0.3280834 1.195917,-0.3280834 0.423334,0 0.79375,0.1481667 0.381,0.1481667 0.645584,0.4233333 0.09525,0.09525 0.09525,0.1905001 0,0.1058333 -0.201084,0.3069166 -0.1905,0.1905 -0.306916,0.1905 -0.09525,0 -0.169334,-0.042333 -0.0635,-0.042333 -0.1905,-0.1481667 -0.275166,-0.2328333 -0.560916,-0.3704167 -0.275167,-0.1481666 -0.47625,-0.1481666 -0.412751,0 -0.613834,0.3386667 -0.201083,0.3386666 -0.201083,1.0795 0,0.7831667 0.359833,1.2276668 0.359834,0.4445 1.016,0.4445 0.306917,0 0.53975,-0.09525 0.232834,-0.09525 0.497417,-0.3175 0.03175,-0.021167 0.08467,-0.052917 0.05292,-0.042333 0.09525,-0.042333 0.127,0 0.127,0.1693333 0,0.127 -0.08467,0.2963334 -0.116417,0.2328333 -0.391583,0.4974167 -0.264584,0.2645833 -0.645584,0.4445 -0.381,0.1799167 -0.79375,0.1799164 z" />
    <path
       id="path890"
       style="font-style:normal;font-variant:normal;font-weight:bold;font-stretch:normal;font-family:'EB Garamond';-inkscape-font-specification:'EB Garamond Bold';fill:#f68700;fill-opacity:1;stroke:none;stroke-width:0.26458335"
       d="m 15.654349,7.9234274 q -0.211667,0 -0.211667,-0.1481667 0,-0.074083 0.05292,-0.1164167 0.0635,-0.052917 0.1905,-0.09525 0.22225,-0.074083 0.306916,-0.1375833 0.08467,-0.074083 0.09525,-0.2751667 V 2.0708437 q 0,-0.3280834 -0.08467,-0.5185834 -0.08467,-0.1905 -0.328084,-0.2434166 -0.116416,-0.021167 -0.116416,-0.1587501 0,-0.1375833 0.105833,-0.15874997 0.338667,-0.0740833 0.8255,-0.24341668 0.497417,-0.17991668 0.592667,-0.21166668 l 0.201083,-0.0740833 q 0.07408,-0.03175 0.137584,-0.03175 0.105833,0 0.105833,0.12700001 0,0.0740833 -0.03175,0.28575002 -0.02117,0.2116666 -0.03175,0.4445 v 2.4447501 q 0,0.254 0.0635,0.3069167 0.370417,-0.3175 0.719667,-0.5185833 0.359833,-0.2010834 0.8255,-0.2010834 0.582083,0 0.9525,0.41275 0.370416,0.4021667 0.370416,1.0900834 v 2.3071668 q 0,0.2010834 0.08467,0.2857501 0.09525,0.074083 0.296333,0.1481666 0.116417,0.03175 0.169334,0.084667 0.0635,0.042333 0.0635,0.127 0,0.1481667 -0.232834,0.1481667 -0.34925,0 -0.582083,-0.03175 -0.296333,-0.021167 -0.497417,-0.021167 -0.211666,0 -0.486833,0.021167 -0.1905,0.03175 -0.529167,0.03175 -0.264583,0 -0.264583,-0.15875 0,-0.1375834 0.22225,-0.2010834 0.179917,-0.0635 0.275167,-0.1481666 0.09525,-0.09525 0.09525,-0.3069167 V 5.0235939 q 0,-0.3386667 -0.211667,-0.5820834 -0.201083,-0.2434167 -0.465667,-0.2434167 -0.402166,0 -0.719666,0.2328334 -0.08467,0.0635 -0.116417,0.1481666 -0.02117,0.074083 -0.02117,0.2328334 v 2.3177501 q 0,0.1905 0.08467,0.2751667 0.09525,0.084667 0.264583,0.1481667 0.22225,0.084667 0.22225,0.2116667 0,0.15875 -0.1905,0.15875 -0.306916,0 -0.592666,-0.03175 -0.338667,-0.021167 -0.508001,-0.021167 -0.169333,0 -0.508,0.021167 -0.28575,0.03175 -0.592666,0.03175 z" />
  </g>
  <g
     id="text874"
     style="font-style:normal;font-weight:normal;font-size:11.12221241px;line-height:1.25;font-family:sans-serif;letter-spacing:0px;word-spacing:0px;fill:#da4c3f;fill-opacity:1;stroke:none;stroke-width:0.27805531"
     transform="matrix(0.98514394,0,0,1.0150801,-0.48826609,-0.43042697)"
     aria-label="Piezo">
    <path
       id="path893"
       style="font-style:normal;font-variant:normal;font-weight:bold;font-stretch:normal;font-family:'EB Garamond';-inkscape-font-specification:'EB Garamond Bold';fill:#da4c3f;fill-opacity:1;stroke-width:0.27805531"
       d="m 22.543138,7.7980594 q -0.08898,0 -0.155711,-0.044489 -0.06673,-0.044489 -0.06673,-0.1112222 0,-0.1890776 0.233567,-0.2335664 0.433766,-0.088978 0.589477,-0.2335665 0.155711,-0.1557109 0.155711,-0.5004995 v -4.982751 q 0,-0.3892774 -0.133467,-0.5561106 Q 23.032519,0.969021 22.632119,0.8800433 22.376308,0.8244322 22.376308,0.64647684 q 0,-0.0667333 0.06673,-0.11122212 0.06673,-0.0556111 0.177955,-0.0556111 0.411522,0 0.789677,0.0333666 0.511622,0.0222444 0.711822,0.0222444 0.211322,0 0.633966,-0.0444888 0.467133,-0.0667333 0.900899,-0.0667333 1.35691,0 2.146587,0.57835498 0.800799,0.5783551 0.800799,1.568232 0,0.7229438 -0.3003,1.3124211 -0.300299,0.5894772 -0.912021,0.9342658 -0.600599,0.3447886 -1.479254,0.3447886 -0.278055,0 -0.433766,-0.077856 -0.155711,-0.077856 -0.155711,-0.211322 0,-0.077856 0.06673,-0.1223444 0.06673,-0.055611 0.133466,-0.055611 0.06673,0 0.2002,0.033367 0.144589,0.022244 0.255811,0.022244 0.456011,0 0.700699,-0.5116218 0.244689,-0.5116217 0.244689,-1.3902765 0,-1.93526493 -1.267932,-1.93526493 -0.633966,0 -0.633966,0.56723283 l -0.01112,5.1718287 q 0,0.3447886 0.177955,0.5004996 0.177955,0.155711 0.667333,0.2558109 0.122344,0.022244 0.177955,0.077855 0.06673,0.044489 0.06673,0.1445887 0,0.1668332 -0.211322,0.1668332 -0.422644,0 -0.912021,-0.033367 -0.6006,-0.022244 -0.811922,-0.022244 -0.211322,0 -0.789677,0.022244 -0.433766,0.033367 -0.834166,0.033367 z" />
    <path
       id="path895"
       style="font-style:normal;font-variant:normal;font-weight:bold;font-stretch:normal;font-family:'EB Garamond';-inkscape-font-specification:'EB Garamond Bold';fill:#da4c3f;fill-opacity:1;stroke-width:0.27805531"
       d="m 29.299014,7.7980594 q -0.06673,0 -0.122345,-0.033367 -0.05561,-0.044489 -0.05561,-0.1112221 0,-0.1668332 0.2002,-0.2224443 0.3003,-0.066733 0.411522,-0.1445888 0.111222,-0.088978 0.111222,-0.266933 V 4.6171067 q 0,-0.367033 -0.111222,-0.5338662 -0.111222,-0.1668332 -0.367033,-0.2001998 -0.06673,-0.011122 -0.1001,-0.066733 -0.03337,-0.055611 -0.03337,-0.1334666 0,-0.066733 0.03337,-0.1223443 0.04449,-0.055611 0.08898,-0.066733 0.500499,-0.088978 0.878654,-0.2446887 0.389278,-0.1557109 0.845289,-0.3781552 0.155711,-0.088978 0.222444,-0.088978 0.06673,0 0.1001,0.044489 0.04449,0.033367 0.04449,0.088978 L 31.401112,3.32693 q -0.1001,0.8452882 -0.1001,1.2234434 v 2.4580089 q 0,0.155711 0.111222,0.2446887 0.111222,0.088978 0.422644,0.1779554 0.1001,0.033367 0.144589,0.077856 0.05561,0.044489 0.05561,0.1334665 0,0.1445888 -0.166833,0.1445888 -0.233567,0 -0.678455,-0.022244 -0.444889,-0.022244 -0.633966,-0.022244 -0.189078,0 -0.589478,0.022244 -0.333666,0.033367 -0.667332,0.033367 z m 1.223443,-5.5166173 q -0.355911,0 -0.611722,-0.2558109 -0.255811,-0.2558109 -0.255811,-0.6117217 0,-0.3781552 0.255811,-0.63396611 0.255811,-0.25581089 0.611722,-0.25581089 0.378155,0 0.633966,0.25581089 0.266933,0.25581091 0.266933,0.63396611 0,0.3559108 -0.266933,0.6117217 -0.255811,0.2558109 -0.633966,0.2558109 z" />
    <path
       id="path897"
       style="font-style:normal;font-variant:normal;font-weight:bold;font-stretch:normal;font-family:'EB Garamond';-inkscape-font-specification:'EB Garamond Bold';fill:#da4c3f;fill-opacity:1;stroke-width:0.27805531"
       d="m 34.514462,7.9204038 q -0.589477,0 -1.067733,-0.311422 -0.478255,-0.3225442 -0.75631,-0.8786548 -0.266933,-0.5561106 -0.266933,-1.2456878 0,-0.6895771 0.322544,-1.2679322 0.322544,-0.578355 0.878655,-0.9120214 0.567233,-0.3447886 1.223443,-0.3447886 0.467133,0 0.856411,0.2001998 0.389277,0.2001999 0.611721,0.5561107 0.222444,0.3559108 0.222444,0.7785548 0,0.2224443 -0.08898,0.3225442 -0.07786,0.1000999 -0.255811,0.1000999 H 33.96947 q -0.155711,0 -0.233566,0.088978 -0.06673,0.088978 -0.06673,0.3002997 0,0.6450884 0.411522,1.0899769 0.411521,0.4337662 1.034365,0.4337662 0.311422,0 0.578355,-0.1112221 0.266933,-0.1223443 0.556111,-0.3447886 0.111222,-0.088978 0.155711,-0.088978 0.111222,0 0.111222,0.1445888 0,0.1445888 -0.08898,0.3336664 -0.177955,0.4671329 -0.700699,0.8119215 -0.511622,0.3447886 -1.212321,0.3447886 z m 0.122344,-3.4701303 q 0.255811,0 0.4004,-0.011122 0.144589,-0.011122 0.255811,-0.044489 0.05561,-0.022244 0.08898,-0.1112221 0.03337,-0.088978 0.03337,-0.2001998 0,-0.2891775 -0.211322,-0.4782552 -0.2002,-0.2001998 -0.5005,-0.2001998 -0.344788,0 -0.622843,0.2891775 -0.278056,0.2780554 -0.266934,0.6005995 0,0.155711 0.155711,0.155711 z" />
    <path
       id="path899"
       style="font-style:normal;font-variant:normal;font-weight:bold;font-stretch:normal;font-family:'EB Garamond';-inkscape-font-specification:'EB Garamond Bold';fill:#da4c3f;fill-opacity:1;stroke-width:0.27805531"
       d="m 37.30579,7.8203038 q -0.05561,0 -0.155711,-0.1112221 -0.1001,-0.1112221 -0.1001,-0.2001998 0,-0.1000999 0.278056,-0.4893773 0.133466,-0.1779554 0.177955,-0.2558109 L 37.861901,6.207583 q 0.711821,-1.0899768 1.545987,-2.4468867 0.02224,-0.044489 0.02224,-0.066733 0,-0.066733 -0.133467,-0.066733 L 38.68494,3.6161083 q -0.289178,0 -0.5005,0.211322 -0.06673,0.066733 -0.233566,0.3002997 -0.166834,0.2335665 -0.244689,0.3447886 l -0.233567,0.3225442 q -0.05561,0.055611 -0.122344,0.055611 -0.08898,0 -0.166833,-0.044489 -0.06673,-0.055611 -0.05561,-0.1223444 0.07785,-0.2669331 0.177955,-0.734066 0.1001,-0.4782551 0.1001,-0.7563104 0,-0.1112221 0.07786,-0.2001998 0.08898,-0.088978 0.177955,-0.088978 0.1001,0 0.211322,0.1112221 0.07786,0.077856 0.533866,0.077856 L 38.8629,3.0822414 q 1.35691,0 2.335665,-0.044489 0.08898,0 0.155711,0.1112221 0.06673,0.1000999 0.06673,0.2224443 0,0.077856 -0.02224,0.1000999 -0.189077,0.2224442 -0.467132,0.6005995 l -1.846288,2.9807529 q -0.03337,0.044489 -0.03337,0.088978 0,0.077856 0.189077,0.077856 h 0.7007 q 0.166833,0 0.300299,-0.055611 0.133467,-0.055611 0.255811,-0.2001998 0.155711,-0.1668332 0.255811,-0.3225442 0.111222,-0.1668332 0.344789,-0.5894772 0.06673,-0.1000999 0.177955,-0.1000999 0.08898,0 0.144589,0.044489 0.06673,0.044489 0.06673,0.1223443 0,0.1445888 -0.122344,0.6339662 -0.122345,0.4782551 -0.244689,0.8897769 -0.01112,0.077855 -0.07785,0.1223444 -0.05561,0.055611 -0.133467,0.055611 l -0.556111,-0.022244 q -0.211322,0 -0.823043,-0.022244 -0.611722,-0.022244 -1.245688,-0.022244 -0.222444,0 -0.6006,0.044489 z" />
    <path
       id="path901"
       style="font-style:normal;font-variant:normal;font-weight:bold;font-stretch:normal;font-family:'EB Garamond';-inkscape-font-specification:'EB Garamond Bold';fill:#da4c3f;fill-opacity:1;stroke-width:0.27805531"
       d="m 44.318345,7.9204038 q -0.656211,0 -1.201199,-0.3002998 -0.544988,-0.3002997 -0.85641,-0.8230437 -0.311422,-0.5338662 -0.311422,-1.2011989 0,-0.7006994 0.344788,-1.3124211 0.355911,-0.6117217 0.945388,-0.9676325 0.6006,-0.367033 1.323544,-0.367033 0.667332,0 1.234565,0.3225442 0.567233,0.3114219 0.889777,0.8564103 0.333667,0.5338662 0.333667,1.1455879 0,0.734066 -0.311422,1.3346655 -0.311422,0.6005995 -0.923144,0.9565103 -0.600599,0.3559108 -1.468132,0.3559108 z m 0.222444,-0.4893774 q 0.456011,0 0.689577,-0.3781552 0.233567,-0.3892774 0.233567,-1.5126209 0,-0.9120214 -0.3003,-1.5014987 -0.289177,-0.6005994 -0.767432,-0.6005994 -0.344789,0 -0.578356,0.2335664 -0.189077,0.2113221 -0.266933,0.6117217 -0.06673,0.4003996 -0.06673,1.0343658 0,0.5338661 0.133467,1.0232435 0.144588,0.4893773 0.378155,0.7896771 0.244689,0.3002997 0.544988,0.3002997 z" />
  </g>
</svg>
