<?xml version="1.0" encoding="UTF-8" standalone="no"?>
<svg
   xmlns:dc="http://purl.org/dc/elements/1.1/"
   xmlns:cc="http://creativecommons.org/ns#"
   xmlns:rdf="http://www.w3.org/1999/02/22-rdf-syntax-ns#"
   xmlns:svg="http://www.w3.org/2000/svg"
   xmlns="http://www.w3.org/2000/svg"
   xmlns:xlink="http://www.w3.org/1999/xlink"
   width="44.369797mm"
   height="7.6094165mm"
   viewBox="0 0 44.369797 7.6094165"
   version="1.1"
   id="svg8">
  <defs
     id="defs2">
    <linearGradient
       id="linearGradient833">
      <stop
         id="stop829"
         offset="0"
         style="stop-color:#000000;stop-opacity:1;" />
      <stop
         id="stop831"
         offset="1"
         style="stop-color:#000000;stop-opacity:0;" />
    </linearGradient>
    <linearGradient
       gradientUnits="userSpaceOnUse"
       y2="4.3656254"
       x2="44.40659"
       y1="4.3656254"
       x1="0.036792073"
       id="linearGradient835"
       xlink:href="#linearGradient833" />
  </defs>
  <metadata
     id="metadata5">
    <rdf:RDF>
      <cc:Work
         rdf:about="">
        <dc:format>image/svg+xml</dc:format>
        <dc:type
           rdf:resource="http://purl.org/dc/dcmitype/StillImage" />
        <dc:title></dc:title>
      </cc:Work>
    </rdf:RDF>
  </metadata>
  <g
     transform="translate(-0.03679207,-0.56091746)"
     id="text827"
     style="font-style:normal;font-weight:normal;font-size:10.58333302px;line-height:1.25;font-family:sans-serif;letter-spacing:0px;word-spacing:0px;fill:url(#linearGradient835);fill-opacity:1;stroke:none;stroke-width:0.26458332"
     aria-label="TechPiezo">
    <path
       id="path837"
       style="font-style:normal;font-variant:normal;font-weight:bold;font-stretch:normal;font-family:'EB Garamond';-inkscape-font-specification:'EB Garamond Bold';text-align:center;text-anchor:middle;fill:#3897f0;fill-opacity:1;stroke-width:0.26458332"
       d="m 2.005292,8.0539172 q -0.084667,0 -0.1693333,-0.042333 -0.074083,-0.042333 -0.074083,-0.1058334 0,-0.1693333 0.2539999,-0.22225 Q 2.4392087,7.5882506 2.608542,7.4506672 2.7884587,7.3025006 2.7884587,6.9850006 V 2.614084 q 0,-0.5714999 -0.042333,-0.7408333 -0.03175,-0.1799166 -0.127,-0.22225 -0.127,-0.0635 -0.4974166,-0.0635 H 1.8888754 q -0.3280834,0 -0.635,0.15875 -0.30691669,0.15875 -0.48683335,0.41275 Q 0.60829206,2.391834 0.46012539,2.550584 0.32254207,2.6987507 0.18495874,2.6987507 q -0.14816667,0 -0.14816667,-0.1905 0,-0.15875 0.0635,-0.2645833 0.21166666,-0.41275 0.29633333,-0.6985 0.09525,-0.28575 0.12699999,-0.64558331 0.03175,-0.27516666 0.26458333,-0.27516666 0.0529167,0 0.10583333,0.0740833 0.0635,0.0740833 0.0740833,0.09525 0.0846665,0.11641666 0.15875005,0.19049999 0.09525,0.0740833 0.3280833,0.12699998 0.2434167,0.042333 0.4339167,0.042333 h 3.9793332 q 0.2434166,0 0.4339166,-0.042333 0.2010833,-0.052917 0.2963333,-0.11641665 0.074083,-0.0529167 0.22225,-0.16933332 0.0635,-0.0635 0.1375834,-0.10583333 0.074083,-0.0529167 0.1481666,-0.0529167 0.1164167,0 0.1164167,0.17991666 0,0.0740833 -0.021167,0.22224994 -0.052917,0.1905 -0.074083,0.254 -0.010583,0.0635 -0.084667,0.3386667 -0.0635,0.2645833 -0.0635,0.4974166 V 2.360084 q 0,0.3915834 -0.1799166,0.3915834 -0.09525,0 -0.15875,-0.09525 Q 6.5772919,2.5611674 6.5032085,2.328334 6.3762086,1.9367507 6.1433752,1.7674174 5.9105419,1.5875007 5.4660419,1.5875007 H 4.9157086 q -0.2010833,0 -0.3069167,0.084667 -0.1058333,0.074083 -0.15875,0.3175 -0.042333,0.2328333 -0.042333,0.7196666 v 4.2650832 q 0,0.2963334 0.1693333,0.4445 0.1693334,0.1481667 0.5926667,0.2645833 0.127,0.042333 0.1905,0.084667 0.0635,0.042333 0.0635,0.127 0,0.074083 -0.0635,0.1164167 -0.0635,0.042333 -0.15875,0.042333 -0.3915833,0 -0.8360833,-0.03175 -0.5715,-0.021167 -0.7725833,-0.021167 -0.2116667,0 -0.762,0.021167 -0.4339167,0.03175 -0.8255003,0.03175 z" />
    <path
       id="path839"
       style="font-style:normal;font-variant:normal;font-weight:bold;font-stretch:normal;font-family:'EB Garamond';-inkscape-font-specification:'EB Garamond Bold';text-align:center;text-anchor:middle;fill:#3897f0;fill-opacity:1;stroke-width:0.26458332"
       d="m 8.383404,8.1703339 q -0.5609167,0 -1.016,-0.2963334 -0.4550833,-0.3069166 -0.7196666,-0.8360833 -0.254,-0.5291666 -0.254,-1.1853333 0,-0.6561666 0.3069166,-1.2064999 Q 7.0075707,4.0957507 7.5367374,3.7782507 8.0764873,3.4501673 8.700904,3.4501673 q 0.4445,0 0.8149166,0.1905 0.3704167,0.1905 0.5820834,0.5291667 0.211667,0.3386666 0.211667,0.7408333 0,0.2116667 -0.08467,0.3069167 -0.07408,0.09525 -0.2434167,0.09525 H 7.8648207 q -0.1481667,0 -0.22225,0.084667 -0.0635,0.084667 -0.0635,0.28575 0,0.6138333 0.3915833,1.0371666 0.3915833,0.41275 0.98425,0.41275 0.2963333,0 0.5503333,-0.1058333 0.254,-0.1164167 0.5291667,-0.3280833 0.105833,-0.084667 0.148167,-0.084667 0.105833,0 0.105833,0.1375833 0,0.1375834 -0.08467,0.3175 -0.169333,0.4445 -0.6667497,0.7725833 Q 9.050154,8.1703339 8.383404,8.1703339 Z M 8.4998207,4.868334 q 0.2434166,0 0.3809999,-0.010583 0.1375834,-0.010583 0.2434167,-0.042333 0.052917,-0.021167 0.084667,-0.1058333 0.03175,-0.084667 0.03175,-0.1905 0,-0.2751667 -0.2010834,-0.4550833 -0.1905,-0.1905 -0.4762499,-0.1905 -0.3280834,0 -0.5926667,0.2751666 -0.2645833,0.2645833 -0.254,0.5715 0,0.1481667 0.1481667,0.1481667 z" />
    <path
       id="path841"
       style="font-style:normal;font-variant:normal;font-weight:bold;font-stretch:normal;font-family:'EB Garamond';-inkscape-font-specification:'EB Garamond Bold';text-align:center;text-anchor:middle;fill:#3897f0;fill-opacity:1;stroke-width:0.26458332"
       d="m 12.786236,8.1703339 q -0.550333,0 -1.005417,-0.2963334 -0.455083,-0.3069166 -0.719666,-0.8254999 -0.254,-0.5185833 -0.254,-1.1535833 0,-0.6773333 0.306916,-1.2276667 0.3175,-0.5609166 0.85725,-0.8889999 0.53975,-0.3280834 1.195917,-0.3280834 0.423333,0 0.79375,0.1481667 0.381,0.1481667 0.645583,0.4233333 0.09525,0.09525 0.09525,0.1905 0,0.1058334 -0.201083,0.3069167 -0.1905,0.1905 -0.306917,0.1905 -0.09525,0 -0.169333,-0.042333 -0.0635,-0.042333 -0.1905,-0.1481666 -0.275167,-0.2328333 -0.560917,-0.3704167 -0.275166,-0.1481666 -0.47625,-0.1481666 -0.41275,0 -0.613833,0.3386666 -0.201083,0.3386667 -0.201083,1.0795 0,0.7831666 0.359833,1.2276666 0.359833,0.4445 1.016,0.4445 0.306917,0 0.53975,-0.09525 0.232833,-0.09525 0.497417,-0.3175 0.03175,-0.021167 0.08467,-0.052917 0.05292,-0.042333 0.09525,-0.042333 0.127,0 0.127,0.1693333 0,0.127 -0.08467,0.2963334 -0.116417,0.2328333 -0.391584,0.4974166 -0.264583,0.2645833 -0.645583,0.4445 -0.381,0.1799167 -0.79375,0.1799163 z" />
    <path
       id="path843"
       style="font-style:normal;font-variant:normal;font-weight:bold;font-stretch:normal;font-family:'EB Garamond';-inkscape-font-specification:'EB Garamond Bold';text-align:center;text-anchor:middle;fill:#3897f0;fill-opacity:1;stroke-width:0.26458332"
       d="m 15.202874,8.0539172 q -0.211667,0 -0.211667,-0.1481667 0,-0.074083 0.05292,-0.1164166 0.0635,-0.052917 0.1905,-0.09525 0.22225,-0.074083 0.306916,-0.1375833 0.08467,-0.074083 0.09525,-0.2751667 V 2.201334 q 0,-0.3280833 -0.08467,-0.5185833 -0.08467,-0.1905 -0.328084,-0.2434166 -0.116416,-0.021167 -0.116416,-0.15875 0,-0.1375834 0.105833,-0.15875 0.338667,-0.074083 0.8255,-0.24341668 0.497417,-0.17991666 0.592667,-0.21166666 l 0.201083,-0.0740833 q 0.07408,-0.03175 0.137583,-0.03175 0.105834,0 0.105834,0.127 0,0.0740833 -0.03175,0.28574999 -0.02117,0.21166665 -0.03175,0.44449995 v 2.4447499 q 0,0.254 0.0635,0.3069167 0.370416,-0.3175 0.719666,-0.5185833 0.359834,-0.2010834 0.8255,-0.2010834 0.582084,0 0.9525,0.41275 0.370417,0.4021667 0.370417,1.0900833 v 2.3071666 q 0,0.2010834 0.08467,0.28575 0.09525,0.074083 0.296333,0.1481667 0.116417,0.03175 0.169333,0.084667 0.0635,0.042333 0.0635,0.127 0,0.1481667 -0.232833,0.1481667 -0.34925,0 -0.582083,-0.03175 -0.296334,-0.021167 -0.497417,-0.021167 -0.211667,0 -0.486833,0.021167 -0.1905,0.03175 -0.529167,0.03175 -0.264583,0 -0.264583,-0.15875 0,-0.1375833 0.22225,-0.2010833 0.179916,-0.0635 0.275166,-0.1481667 0.09525,-0.09525 0.09525,-0.3069166 V 5.154084 q 0,-0.3386667 -0.211666,-0.5820834 Q 18.14504,4.328584 17.880457,4.328584 q -0.402167,0 -0.719667,0.2328333 -0.08467,0.0635 -0.116416,0.1481667 -0.02117,0.074083 -0.02117,0.2328333 v 2.3177499 q 0,0.1905 0.08467,0.2751667 0.09525,0.084667 0.264583,0.1481666 0.22225,0.084667 0.22225,0.2116667 0,0.15875 -0.1905,0.15875 -0.306917,0 -0.592667,-0.03175 -0.338666,-0.021167 -0.508,-0.021167 -0.169333,0 -0.508,0.021167 -0.28575,0.03175 -0.592666,0.03175 z" />
    <path
       id="path845"
       style="font-style:normal;font-variant:normal;font-weight:bold;font-stretch:normal;font-family:'EB Garamond';-inkscape-font-specification:'EB Garamond Bold';text-align:center;text-anchor:middle;fill:#3897f0;fill-opacity:1;stroke-width:0.26458332"
       d="m 21.114658,8.0539172 q -0.08467,0 -0.148167,-0.042333 -0.0635,-0.042333 -0.0635,-0.1058334 0,-0.1799166 0.22225,-0.22225 0.41275,-0.084667 0.560917,-0.2222499 0.148167,-0.1481667 0.148167,-0.47625 V 2.2436674 q 0,-0.3704167 -0.127,-0.5291667 -0.127,-0.15875 -0.508,-0.2434166 -0.243417,-0.052917 -0.243417,-0.22225 0,-0.0635 0.0635,-0.1058334 0.0635,-0.052917 0.169333,-0.052917 0.391584,0 0.751417,0.03175 0.486833,0.021167 0.677333,0.021167 0.201084,0 0.60325,-0.042333 0.4445,-0.0635 0.85725,-0.0635 1.291167,0 2.042583,0.5503333 0.762,0.5503333 0.762,1.49225 0,0.6879166 -0.28575,1.2488333 -0.28575,0.5609166 -0.867833,0.889 -0.5715,0.3280833 -1.407583,0.3280833 -0.264583,0 -0.41275,-0.074083 -0.148167,-0.074083 -0.148167,-0.2010833 0,-0.074083 0.0635,-0.1164166 0.0635,-0.052917 0.127,-0.052917 0.0635,0 0.1905,0.03175 0.137584,0.021167 0.243417,0.021167 0.433917,0 0.66675,-0.4868334 0.232833,-0.4868333 0.232833,-1.3229166 0,-1.8414999 -1.2065,-1.8414999 -0.60325,0 -0.60325,0.53975 l -0.01058,4.9212498 q 0,0.3280833 0.169333,0.47625 0.169334,0.1481667 0.635,0.2434166 0.116417,0.021167 0.169334,0.074083 0.0635,0.042333 0.0635,0.1375833 0,0.15875 -0.201084,0.15875 -0.402166,0 -0.867833,-0.03175 -0.5715,-0.021167 -0.772583,-0.021167 -0.201084,0 -0.751417,0.021167 -0.41275,0.03175 -0.79375,0.03175 z" />
    <path
       id="path847"
       style="font-style:normal;font-variant:normal;font-weight:bold;font-stretch:normal;font-family:'EB Garamond';-inkscape-font-specification:'EB Garamond Bold';text-align:center;text-anchor:middle;fill:#3897f0;fill-opacity:1;stroke-width:0.26458332"
       d="m 27.543205,8.0539172 q -0.0635,0 -0.116417,-0.03175 -0.05292,-0.042333 -0.05292,-0.1058333 0,-0.15875 0.1905,-0.2116667 0.28575,-0.0635 0.391583,-0.1375833 0.105833,-0.084667 0.105833,-0.254 V 5.027084 q 0,-0.34925 -0.105833,-0.508 -0.105833,-0.15875 -0.34925,-0.1905 -0.0635,-0.010583 -0.09525,-0.0635 -0.03175,-0.052917 -0.03175,-0.127 0,-0.0635 0.03175,-0.1164167 0.04233,-0.052917 0.08467,-0.0635 0.47625,-0.084667 0.836083,-0.2328333 0.370416,-0.1481667 0.804333,-0.3598333 0.148167,-0.084667 0.211667,-0.084667 0.0635,0 0.09525,0.042333 0.04233,0.03175 0.04233,0.084667 l -0.04233,0.3915833 q -0.09525,0.8043333 -0.09525,1.1641667 v 2.3389166 q 0,0.1481666 0.105833,0.2328333 0.105833,0.084667 0.402167,0.1693333 0.09525,0.03175 0.137583,0.074083 0.05292,0.042333 0.05292,0.127 0,0.1375834 -0.15875,0.1375834 -0.22225,0 -0.645584,-0.021167 -0.423333,-0.021167 -0.60325,-0.021167 -0.179916,0 -0.560916,0.021167 -0.3175,0.03175 -0.635,0.03175 z M 28.707371,2.804584 q -0.338666,0 -0.582083,-0.2434166 -0.243416,-0.2434167 -0.243416,-0.5820833 0,-0.3598334 0.243416,-0.60325 0.243417,-0.2434167 0.582083,-0.2434167 0.359834,0 0.60325,0.2434167 0.254,0.2434166 0.254,0.60325 0,0.3386666 -0.254,0.5820833 -0.243416,0.2434166 -0.60325,0.2434166 z" />
    <path
       id="path849"
       style="font-style:normal;font-variant:normal;font-weight:bold;font-stretch:normal;font-family:'EB Garamond';-inkscape-font-specification:'EB Garamond Bold';text-align:center;text-anchor:middle;fill:#3897f0;fill-opacity:1;stroke-width:0.26458332"
       d="m 32.505963,8.1703339 q -0.560917,0 -1.016,-0.2963334 -0.455084,-0.3069166 -0.719667,-0.8360833 -0.254,-0.5291666 -0.254,-1.1853333 0,-0.6561666 0.306917,-1.2064999 0.306916,-0.5503333 0.836083,-0.8678333 0.53975,-0.3280834 1.164167,-0.3280834 0.4445,0 0.814916,0.1905 0.370417,0.1905 0.582084,0.5291667 0.211666,0.3386666 0.211666,0.7408333 0,0.2116667 -0.08467,0.3069167 -0.07408,0.09525 -0.243417,0.09525 h -2.116667 q -0.148166,0 -0.22225,0.084667 -0.0635,0.084667 -0.0635,0.28575 0,0.6138333 0.391584,1.0371666 0.391583,0.41275 0.98425,0.41275 0.296333,0 0.550333,-0.1058333 0.254,-0.1164167 0.529167,-0.3280833 0.105833,-0.084667 0.148166,-0.084667 0.105834,0 0.105834,0.1375833 0,0.1375834 -0.08467,0.3175 -0.169333,0.4445 -0.66675,0.7725833 Q 33.172706,8.170334 32.505956,8.170334 Z M 32.622379,4.868334 q 0.243417,0 0.381,-0.010583 0.137584,-0.010583 0.243417,-0.042333 0.05292,-0.021167 0.08467,-0.1058333 0.03175,-0.084667 0.03175,-0.1905 0,-0.2751667 -0.201084,-0.4550833 -0.1905,-0.1905 -0.47625,-0.1905 -0.328083,0 -0.592666,0.2751666 -0.264584,0.2645833 -0.254,0.5715 0,0.1481667 0.148166,0.1481667 z" />
    <path
       id="path851"
       style="font-style:normal;font-variant:normal;font-weight:bold;font-stretch:normal;font-family:'EB Garamond';-inkscape-font-specification:'EB Garamond Bold';text-align:center;text-anchor:middle;fill:#3897f0;fill-opacity:1;stroke-width:0.26458332"
       d="m 35.162046,8.0750839 q -0.05292,0 -0.148167,-0.1058334 -0.09525,-0.1058333 -0.09525,-0.1905 0,-0.09525 0.264584,-0.4656666 0.127,-0.1693333 0.169333,-0.2434167 l 0.338667,-0.5291666 q 0.677333,-1.0371667 1.471083,-2.3283333 0.02117,-0.042333 0.02117,-0.0635 0,-0.0635 -0.127,-0.0635 L 36.474379,4.074584 q -0.275166,0 -0.47625,0.2010833 -0.0635,0.0635 -0.22225,0.28575 -0.15875,0.22225 -0.232833,0.3280833 l -0.22225,0.3069167 q -0.05292,0.052917 -0.116417,0.052917 -0.08467,0 -0.15875,-0.042333 -0.0635,-0.052917 -0.05292,-0.1164166 0.07408,-0.254 0.169333,-0.6985 0.09525,-0.4550833 0.09525,-0.7196667 0,-0.1058333 0.07408,-0.1905 0.08467,-0.084667 0.169334,-0.084667 0.09525,0 0.201083,0.1058333 0.07408,0.074083 0.508,0.074083 l 0.433917,-0.010583 q 1.291166,0 2.2225,-0.042333 0.08467,0 0.148166,0.1058333 0.0635,0.09525 0.0635,0.2116667 0,0.074083 -0.02117,0.09525 -0.179917,0.2116666 -0.4445,0.5714999 l -1.756834,2.8363333 q -0.03175,0.042333 -0.03175,0.084667 0,0.074083 0.179917,0.074083 h 0.66675 q 0.15875,0 0.28575,-0.052917 0.127,-0.052917 0.243417,-0.1905 0.148166,-0.15875 0.243416,-0.3069166 0.105834,-0.15875 0.328084,-0.5609167 0.0635,-0.09525 0.169333,-0.09525 0.08467,0 0.137583,0.042333 0.0635,0.042333 0.0635,0.1164166 0,0.1375833 -0.116416,0.60325 -0.116417,0.4550833 -0.232834,0.8466666 -0.01058,0.074083 -0.07408,0.1164167 -0.05292,0.052917 -0.127,0.052917 l -0.529167,-0.021167 q -0.201083,0 -0.783166,-0.021167 -0.582084,-0.021167 -1.185334,-0.021167 -0.211666,0 -0.5715,0.042333 z" />
    <path
       id="path853"
       style="font-style:normal;font-variant:normal;font-weight:bold;font-stretch:normal;font-family:'EB Garamond';-inkscape-font-specification:'EB Garamond Bold';text-align:center;text-anchor:middle;fill:#3897f0;fill-opacity:1;stroke-width:0.26458332"
       d="m 41.83484,8.1703339 q -0.624416,0 -1.143,-0.28575 -0.518583,-0.28575 -0.814916,-0.7831667 -0.296334,-0.508 -0.296334,-1.1429999 0,-0.66675 0.328084,-1.2488333 0.338666,-0.5820833 0.899583,-0.92075 0.5715,-0.34925 1.259417,-0.34925 0.634999,0 1.174749,0.3069167 0.53975,0.2963333 0.846667,0.8149166 0.3175,0.508 0.3175,1.0900833 0,0.6985 -0.296333,1.27 -0.296334,0.5715 -0.878417,0.9101666 -0.5715,0.3386667 -1.397,0.3386667 z m 0.211667,-0.4656667 q 0.433916,0 0.656166,-0.3598333 0.22225,-0.3704167 0.22225,-1.4393333 0,-0.8678333 -0.28575,-1.42875 -0.275166,-0.5714999 -0.730249,-0.5714999 -0.328084,0 -0.550334,0.22225 -0.179916,0.2010833 -0.254,0.5820833 -0.0635,0.381 -0.0635,0.9842499 0,0.508 0.127,0.9736667 0.137584,0.4656666 0.359834,0.7514166 0.232833,0.28575 0.518583,0.28575 z" />
  </g>
</svg>
