<?xml version="1.0" encoding="UTF-8" standalone="no"?>
<svg
   xmlns:dc="http://purl.org/dc/elements/1.1/"
   xmlns:cc="http://creativecommons.org/ns#"
   xmlns:rdf="http://www.w3.org/1999/02/22-rdf-syntax-ns#"
   xmlns:svg="http://www.w3.org/2000/svg"
   xmlns="http://www.w3.org/2000/svg"
   xmlns:xlink="http://www.w3.org/1999/xlink"
   id="svg8"
   version="1.1"
   viewBox="0 0 48.905419 8.3608332"
   height="8.3608332mm"
   width="48.905418mm">
  <defs
     id="defs2">
    <linearGradient
       id="linearGradient833">
      <stop
         style="stop-color:#000000;stop-opacity:1;"
         offset="0"
         id="stop829" />
      <stop
         style="stop-color:#000000;stop-opacity:0;"
         offset="1"
         id="stop831" />
    </linearGradient>
    <linearGradient
       xlink:href="#linearGradient833"
       id="linearGradient835"
       x1="0.036792073"
       y1="4.3656254"
       x2="44.40659"
       y2="4.3656254"
       gradientUnits="userSpaceOnUse" />
  </defs>
  <metadata
     id="metadata5">
    <rdf:RDF>
      <cc:Work
         rdf:about="">
        <dc:format>image/svg+xml</dc:format>
        <dc:type
           rdf:resource="http://purl.org/dc/dcmitype/StillImage" />
        <dc:title></dc:title>
      </cc:Work>
    </rdf:RDF>
  </metadata>
  <g
     transform="translate(-0.46787961,0.4931511)"
     id="text828"
     style="font-style:normal;font-weight:normal;font-size:10.58333302px;line-height:1.25;font-family:sans-serif;letter-spacing:0px;word-spacing:0px;fill:#3897f0;fill-opacity:1;stroke:none;stroke-width:0.26458332"
     aria-label="TechPiezo">
    <path
       id="path838"
       style="font-style:normal;font-variant:normal;font-weight:500;font-stretch:normal;font-family:Ubuntu;-inkscape-font-specification:'Ubuntu Medium';fill:#3897f0;fill-opacity:1;stroke-width:0.26458332"
       d="M 6.3204628,0.38526554 V 1.5388488 h -2.25425 V 7.7195153 H 2.7221295 V 1.5388488 H 0.46787961 V 0.38526554 Z" />
    <path
       id="path840"
       style="font-style:normal;font-variant:normal;font-weight:500;font-stretch:normal;font-family:Ubuntu;-inkscape-font-specification:'Ubuntu Medium';fill:#3897f0;fill-opacity:1;stroke-width:0.26458332"
       d="m 6.3780096,4.9784321 q 0,-0.73025 0.2116667,-1.2805833 0.22225,-0.5503333 0.5820833,-0.9101667 0.3598333,-0.3704166 0.8255,-0.5503333 0.4656666,-0.1905 0.9525,-0.1905 1.1430004,0 1.7780004,0.7090833 0.645583,0.7090834 0.645583,2.1166666 0,0.1058334 -0.01058,0.2434167 0,0.127 -0.01058,0.2328333 H 7.7009263 q 0.052917,0.66675 0.4656666,1.0371667 0.4233333,0.3598333 1.2170833,0.3598333 0.4656667,0 0.8466668,-0.084667 0.391583,-0.084667 0.613833,-0.1799166 L 11.01351,7.529015 q -0.105834,0.052917 -0.296334,0.1164167 -0.179916,0.052917 -0.423333,0.09525 -0.232833,0.052917 -0.5080001,0.084667 -0.2751667,0.03175 -0.5609167,0.03175 -0.73025,0 -1.2699999,-0.2116667 -0.53975,-0.22225 -0.889,-0.60325 Q 6.7166763,6.6505987 6.547343,6.1320154 6.3780096,5.6028487 6.3780096,4.9784321 Z m 3.7147504,-0.5715 q 0,-0.2645833 -0.07408,-0.4974167 Q 9.9445929,3.6660988 9.7964262,3.4967655 9.6588429,3.3168488 9.4471762,3.2215988 9.2460929,3.1157655 8.9603429,3.1157655 q -0.2963333,0 -0.5185833,0.1164166 -0.22225,0.1058334 -0.381,0.28575 -0.1481667,0.1799167 -0.2328333,0.41275 -0.084667,0.2328333 -0.1164167,0.47625 z" />
    <path
       id="path842"
       style="font-style:normal;font-variant:normal;font-weight:500;font-stretch:normal;font-family:Ubuntu;-inkscape-font-specification:'Ubuntu Medium';fill:#3897f0;fill-opacity:1;stroke-width:0.26458332"
       d="m 12.413817,4.9572654 q 0,-0.6138333 0.1905,-1.143 0.1905,-0.5397499 0.53975,-0.9313333 0.359833,-0.3915833 0.867833,-0.6138333 0.508,-0.22225 1.143,-0.22225 0.783167,0 1.481667,0.28575 l -0.275167,1.04775 q -0.22225,-0.09525 -0.508,-0.15875 -0.275167,-0.0635 -0.592667,-0.0635 -0.751416,0 -1.143,0.47625 -0.391583,0.4656666 -0.391583,1.3229166 0,0.8255 0.370417,1.3123333 0.370416,0.47625 1.248833,0.47625 0.328083,0 0.645583,-0.0635 0.3175,-0.0635 0.550334,-0.15875 l 0.179916,1.0583333 q -0.211666,0.1058333 -0.645583,0.1905 -0.423333,0.084667 -0.878417,0.084667 -0.709083,0 -1.23825,-0.2116667 Q 13.4404,7.423182 13.09115,7.042182 12.752483,6.6505987 12.58315,6.121432 12.413817,5.5816821 12.413817,4.9572654 Z" />
    <path
       id="path844"
       style="font-style:normal;font-variant:normal;font-weight:500;font-stretch:normal;font-family:Ubuntu;-inkscape-font-specification:'Ubuntu Medium';fill:#3897f0;fill-opacity:1;stroke-width:0.26458332"
       d="m 17.723012,7.7195153 v -8.00099974 l 1.280583,-0.21166666 v 2.7410833 q 0.211667,-0.074083 0.486833,-0.127 0.28575,-0.052917 0.560917,-0.052917 0.66675,0 1.100667,0.1905 0.4445,0.1799166 0.709083,0.5185833 0.264583,0.3280833 0.370417,0.79375 0.116416,0.4656666 0.116416,1.0371666 V 7.7195153 H 21.067345 V 4.8090987 q 0,-0.4444999 -0.0635,-0.7514166 -0.05292,-0.3175 -0.1905,-0.508 -0.127,-0.2010833 -0.34925,-0.28575 -0.22225,-0.09525 -0.550333,-0.09525 -0.254,0 -0.518584,0.052917 -0.264583,0.052917 -0.391583,0.09525 v 4.4026665 z" />
    <path
       id="path846"
       style="font-style:normal;font-variant:normal;font-weight:500;font-stretch:normal;font-family:Ubuntu;-inkscape-font-specification:'Ubuntu Medium';fill:#3897f0;fill-opacity:1;stroke-width:0.26458332"
       d="m 26.020675,0.31118221 q 1.598083,0 2.44475,0.58208332 0.85725,0.58208327 0.85725,1.82033327 0,0.6455833 -0.232833,1.11125 -0.22225,0.4550833 -0.656167,0.7514166 -0.433917,0.28575 -1.058333,0.4233333 -0.624417,0.1375834 -1.42875,0.1375834 h -0.66675 v 2.5823332 h -1.3335 V 0.49109887 q 0.465667,-0.10583333 1.026583,-0.13758333 0.5715,-0.0423333 1.04775,-0.0423333 z m 0.09525,1.15358329 q -0.508,0 -0.836083,0.03175 v 2.4976666 h 0.645583 q 0.963083,0 1.481667,-0.2645833 0.518583,-0.2751667 0.518583,-1.0265833 0,-0.3598333 -0.137583,-0.60325 -0.137584,-0.2434167 -0.381,-0.381 -0.243417,-0.1375833 -0.582084,-0.1905 -0.328083,-0.0635 -0.709083,-0.0635 z" />
    <path
       id="path848"
       style="font-style:normal;font-variant:normal;font-weight:500;font-stretch:normal;font-family:Ubuntu;-inkscape-font-specification:'Ubuntu Medium';fill:#3897f0;fill-opacity:1;stroke-width:0.26458332"
       d="M 31.767923,7.7195153 H 30.487339 V 2.1844322 h 1.280584 z m 0.137583,-7.15433309 q 0,0.35983332 -0.232833,0.57149999 -0.232834,0.2116666 -0.550334,0.2116666 -0.328083,0 -0.560916,-0.2116666 -0.232834,-0.21166667 -0.232834,-0.57149999 0,-0.37041666 0.232834,-0.58208332 0.232833,-0.21166666 0.560916,-0.21166666 0.3175,0 0.550334,0.21166666 0.232833,0.21166666 0.232833,0.58208332 z" />
    <path
       id="path850"
       style="font-style:normal;font-variant:normal;font-weight:500;font-stretch:normal;font-family:Ubuntu;-inkscape-font-specification:'Ubuntu Medium';fill:#3897f0;fill-opacity:1;stroke-width:0.26458332"
       d="m 33.08439,4.9784321 q 0,-0.73025 0.211667,-1.2805833 0.22225,-0.5503333 0.582083,-0.9101667 0.359833,-0.3704166 0.8255,-0.5503333 0.465667,-0.1905 0.9525,-0.1905 1.143,0 1.778,0.7090833 0.645583,0.7090834 0.645583,2.1166666 0,0.1058334 -0.01058,0.2434167 0,0.127 -0.01058,0.2328333 h -3.65125 q 0.05292,0.66675 0.465666,1.0371667 0.423334,0.3598333 1.217084,0.3598333 0.465666,0 0.846666,-0.084667 0.391584,-0.084667 0.613834,-0.1799166 l 0.169333,1.0477499 q -0.105833,0.052917 -0.296333,0.1164167 -0.179917,0.052917 -0.423334,0.09525 -0.232833,0.052917 -0.508,0.084667 -0.275166,0.03175 -0.560916,0.03175 -0.73025,0 -1.27,-0.2116667 -0.53975,-0.22225 -0.889,-0.60325 Q 33.423057,6.6505987 33.253723,6.1320154 33.08439,5.6028487 33.08439,4.9784321 Z m 3.71475,-0.5715 q 0,-0.2645833 -0.07408,-0.4974167 Q 36.65098,3.6660988 36.50281,3.4967655 36.365226,3.3168488 36.15356,3.2215988 35.952476,3.1157655 35.666726,3.1157655 q -0.296333,0 -0.518583,0.1164166 -0.22225,0.1058334 -0.381,0.28575 -0.148167,0.1799167 -0.232833,0.41275 -0.08467,0.2328333 -0.116417,0.47625 z" />
    <path
       id="path852"
       style="font-style:normal;font-variant:normal;font-weight:500;font-stretch:normal;font-family:Ubuntu;-inkscape-font-specification:'Ubuntu Medium';fill:#3897f0;fill-opacity:1;stroke-width:0.26458332"
       d="m 43.300611,3.0840155 q -0.211666,0.22225 -0.560916,0.6244166 -0.338667,0.4021667 -0.73025,0.8995833 -0.391584,0.4868333 -0.79375,1.0265833 -0.391584,0.5291667 -0.709084,1.016 h 2.8575 v 1.0689166 h -4.402666 v -0.79375 q 0.232833,-0.4233333 0.582083,-0.9207499 0.34925,-0.4974167 0.719667,-0.9948333 0.370416,-0.508 0.73025,-0.9630833 0.370416,-0.4550834 0.656166,-0.79375 H 39.099028 V 2.1844322 h 4.201583 z" />
    <path
       id="path854"
       style="font-style:normal;font-variant:normal;font-weight:500;font-stretch:normal;font-family:Ubuntu;-inkscape-font-specification:'Ubuntu Medium';fill:#3897f0;fill-opacity:1;stroke-width:0.26458332"
       d="m 49.373297,4.9466821 q 0,0.6561666 -0.1905,1.1959166 -0.1905,0.53975 -0.53975,0.92075 -0.34925,0.381 -0.846666,0.5926666 -0.486834,0.2116667 -1.0795,0.2116667 -0.592667,0 -1.0795,-0.2116667 -0.486833,-0.2116666 -0.836083,-0.5926666 -0.34925,-0.381 -0.550334,-0.92075 -0.1905,-0.53975 -0.1905,-1.1959166 0,-0.6561667 0.1905,-1.1853333 0.201084,-0.53975 0.550334,-0.92075 0.359833,-0.381 0.846666,-0.5820833 0.486834,-0.2116667 1.068917,-0.2116667 0.582083,0 1.068916,0.2116667 0.497417,0.2010833 0.846667,0.5820833 0.34925,0.381 0.53975,0.92075 0.201083,0.5291666 0.201083,1.1853333 z m -1.312333,0 q 0,-0.8255 -0.359833,-1.30175 -0.34925,-0.4868333 -0.98425,-0.4868333 -0.635,0 -0.994833,0.4868333 -0.34925,0.47625 -0.34925,1.30175 0,0.8360833 0.34925,1.3229166 0.359833,0.4868333 0.994833,0.4868333 0.635,0 0.98425,-0.4868333 0.359833,-0.4868333 0.359833,-1.3229166 z" />
  </g>
</svg>
