<?xml version="1.0" encoding="UTF-8" standalone="no"?>
<svg
   xmlns:dc="http://purl.org/dc/elements/1.1/"
   xmlns:cc="http://creativecommons.org/ns#"
   xmlns:rdf="http://www.w3.org/1999/02/22-rdf-syntax-ns#"
   xmlns:svg="http://www.w3.org/2000/svg"
   xmlns="http://www.w3.org/2000/svg"
   id="svg8"
   version="1.1"
   viewBox="0 0 44.352936 8.0221672"
   height="8.0221672mm"
   width="44.352936mm">
  <defs
     id="defs2" />
  <metadata
     id="metadata5">
    <rdf:RDF>
      <cc:Work
         rdf:about="">
        <dc:format>image/svg+xml</dc:format>
        <dc:type
           rdf:resource="http://purl.org/dc/dcmitype/StillImage" />
        <dc:title></dc:title>
      </cc:Work>
    </rdf:RDF>
  </metadata>
  <g
     transform="translate(-0.21050012,-0.47273304)"
     id="text877"
     style="font-style:normal;font-weight:normal;font-size:10.58333397px;line-height:1.25;font-family:sans-serif;letter-spacing:0px;word-spacing:0px;fill:#3897f0;fill-opacity:1;stroke:none;stroke-width:0.26458335"
     aria-label="TechPiezo">
    <path
       id="path887"
       style="font-style:normal;font-variant:normal;font-weight:bold;font-stretch:normal;font-family:Sansita;-inkscape-font-specification:'Sansita Bold';fill:#3897f0;fill-opacity:1;stroke-width:0.26458335"
       d="M 5.1211671,1.2770664 5.0470837,2.1131498 H 3.533667 v 6.148917 H 1.7768335 V 2.1131498 H 0.21050012 V 1.2770664 Z" />
    <path
       id="path889"
       style="font-style:normal;font-variant:normal;font-weight:bold;font-stretch:normal;font-family:Sansita;-inkscape-font-specification:'Sansita Bold';fill:#3897f0;fill-opacity:1;stroke-width:0.26458335"
       d="m 9.0723886,6.6110667 q 0.2751667,0.127 0.2751667,0.5185834 0,0.4339167 -0.2857501,0.7408334 -0.28575,0.3069167 -0.7408333,0.4656667 -0.4445001,0.15875 -0.9207501,0.15875 -1.2700001,0 -1.9261668,-0.7725834 Q 4.8284717,6.9497334 4.8284717,5.60565 q 0,-1.3864167 0.6985,-2.1695834 0.7090834,-0.7831668 2.0425835,-0.7831668 0.85725,0 1.4181667,0.3915834 0.5609167,0.3915834 0.5609167,1.1535834 0,0.9419167 -0.66675,1.3017501 Q 8.2151385,5.85965 7.0615551,5.85965 q -0.3598333,0 -0.5609167,-0.03175 0.03175,0.7514167 0.28575,1.1853334 0.2645834,0.4339167 0.8784168,0.4339167 0.4550833,0 0.8255,-0.2116667 0.381,-0.22225 0.5820834,-0.6244167 z M 7.4108051,3.2773165 q -0.508,0 -0.7090833,0.6244167 -0.1905,0.6138334 -0.2010834,1.4393335 h 0.2116667 q 0.66675,0.010583 1.0054167,-0.2434167 0.34925,-0.254 0.34925,-0.8678334 0,-0.4021667 -0.1693333,-0.6773334 -0.15875,-0.2751667 -0.4868334,-0.2751667 z" />
    <path
       id="path891"
       style="font-style:normal;font-variant:normal;font-weight:bold;font-stretch:normal;font-family:Sansita;-inkscape-font-specification:'Sansita Bold';fill:#3897f0;fill-opacity:1;stroke-width:0.26458335"
       d="m 12.639468,3.2878999 q -0.867833,0 -0.867833,2.2330834 0,0.8890001 0.243417,1.4075835 0.243416,0.5185833 0.92075,0.5185833 0.4445,0 0.751416,-0.2328333 0.3175,-0.2328334 0.465667,-0.6561667 0.179917,0.0635 0.275167,0.2116667 0.09525,0.1375833 0.09525,0.3280833 0,0.4445 -0.264584,0.7620001 -0.264583,0.3069166 -0.687916,0.4656666 -0.423334,0.1693334 -0.899584,0.1693334 -1.27,0 -1.926166,-0.7725834 -0.645584,-0.7725834 -0.645584,-2.1166668 0,-1.3758334 0.687917,-2.1590001 0.687917,-0.7937501 2.010833,-0.7937501 0.804334,0 1.322917,0.3069167 0.529167,0.2963334 0.529167,0.9630834 0,0.4021667 -0.28575,0.6032501 -0.28575,0.2010833 -0.73025,0.2010833 -0.127,0 -0.275167,-0.021167 -0.137583,-0.03175 -0.211667,-0.084667 0.0635,-0.3175001 0.0635,-0.4974167 0,-0.8360834 -0.5715,-0.8360827 z" />
    <path
       id="path893"
       style="font-style:normal;font-variant:normal;font-weight:bold;font-stretch:normal;font-family:Sansita;-inkscape-font-specification:'Sansita Bold';fill:#3897f0;fill-opacity:1;stroke-width:0.26458335"
       d="m 17.101005,1.9120665 q 0,1.0795 -0.105833,1.5345834 0.243416,-0.4021667 0.635,-0.5926667 0.402167,-0.2010834 0.899583,-0.2010834 0.92075,0 1.312334,0.4974167 0.391583,0.4868334 0.391583,1.4922501 v 2.5611668 q 0,0.2963334 0.07408,0.5185834 0.07408,0.22225 0.254,0.3915834 -0.116416,0.1481666 -0.359833,0.22225 -0.232833,0.084667 -0.465667,0.084667 -0.550333,0 -0.836083,-0.2751667 -0.28575,-0.28575 -0.28575,-0.8360834 V 4.7272333 q 0,-0.6138334 -0.127,-0.9419167 -0.116417,-0.3280834 -0.53975,-0.3280834 -0.518584,0 -0.687917,0.47625 -0.15875,0.4762501 -0.15875,1.2594168 v 3.0691668 h -1.61925 V 0.85373306 l 1.61925,-0.16933334 z" />
    <path
       id="path895"
       style="font-style:normal;font-variant:normal;font-weight:bold;font-stretch:normal;font-family:Sansita;-inkscape-font-specification:'Sansita Bold';fill:#3897f0;fill-opacity:1;stroke-width:0.26458335"
       d="m 26.587971,3.2984832 q 0,0.9419167 -0.5715,1.5240001 -0.5715,0.5715 -1.502833,0.5715 -0.433917,0 -0.719667,-0.1481666 -0.28575,-0.15875 -0.28575,-0.4974167 0.6985,0 1.005417,-0.3386667 0.3175,-0.34925 0.3175,-1.0795001 0,-1.3335001 -1.121834,-1.3335001 -0.264583,0 -0.550333,0.052917 v 6.212417 h -1.756833 v -6.910917 q 1.36525,-0.127 2.3495,-0.127 1.322916,0 2.074333,0.47625 0.762,0.4656667 0.762,1.5980831 z" />
    <path
       id="path897"
       style="font-style:normal;font-variant:normal;font-weight:bold;font-stretch:normal;font-family:Sansita;-inkscape-font-specification:'Sansita Bold';fill:#3897f0;fill-opacity:1;stroke-width:0.26458335"
       d="m 28.150503,0.47273304 q 0.433916,0 0.687916,0.20108335 0.264584,0.20108334 0.264584,0.56091671 0,0.3704167 -0.275167,0.5715 -0.275167,0.1905 -0.709083,0.1905 -0.423334,0 -0.6985,-0.1905 -0.264584,-0.2010833 -0.264584,-0.5503333 0,-0.37041674 0.275167,-0.57150008 0.28575,-0.21166668 0.719667,-0.21166668 z m 0.762,6.73100036 q 0,0.2963334 0.07408,0.5185834 0.07408,0.22225 0.254,0.3915834 -0.116417,0.1481666 -0.359833,0.22225 -0.232834,0.084667 -0.465667,0.084667 -0.550333,0 -0.836083,-0.2751667 -0.28575,-0.28575 -0.28575,-0.8360834 V 2.8645665 h 1.61925 z" />
    <path
       id="path899"
       style="font-style:normal;font-variant:normal;font-weight:bold;font-stretch:normal;font-family:Sansita;-inkscape-font-specification:'Sansita Bold';fill:#3897f0;fill-opacity:1;stroke-width:0.26458335"
       d="m 34.125125,6.6110667 q 0.275167,0.127 0.275167,0.5185834 0,0.4339167 -0.28575,0.7408334 -0.28575,0.3069167 -0.740833,0.4656667 -0.4445,0.15875 -0.92075,0.15875 -1.270001,0 -1.926167,-0.7725834 -0.645584,-0.7725834 -0.645584,-2.1166668 0,-1.3864167 0.6985,-2.1695834 0.709084,-0.7831668 2.042584,-0.7831668 0.85725,0 1.418167,0.3915834 0.560916,0.3915834 0.560916,1.1535834 0,0.9419167 -0.66675,1.3017501 -0.66675,0.3598333 -1.820333,0.3598333 -0.359833,0 -0.560917,-0.03175 0.03175,0.7514167 0.28575,1.1853334 0.264584,0.4339167 0.878417,0.4339167 0.455083,0 0.8255,-0.2116667 0.381,-0.22225 0.582083,-0.6244167 z M 32.463542,3.2773165 q -0.508,0 -0.709083,0.6244167 -0.1905,0.6138334 -0.201084,1.4393335 h 0.211667 q 0.66675,0.010583 1.005417,-0.2434167 0.34925,-0.254 0.34925,-0.8678334 0,-0.4021667 -0.169334,-0.6773334 -0.15875,-0.2751667 -0.486833,-0.2751667 z" />
    <path
       id="path901"
       style="font-style:normal;font-variant:normal;font-weight:bold;font-stretch:normal;font-family:Sansita;-inkscape-font-specification:'Sansita Bold';fill:#3897f0;fill-opacity:1;stroke-width:0.26458335"
       d="m 38.888121,2.8645665 0.07408,0.6244167 -2.25425,3.9687503 2.296583,-0.1164167 -0.08467,0.92075 h -3.958167 l -0.07408,-0.635 2.243667,-3.9475836 -2.084917,0.1375834 0.09525,-0.9525001 z" />
    <path
       id="path903"
       style="font-style:normal;font-variant:normal;font-weight:bold;font-stretch:normal;font-family:Sansita;-inkscape-font-specification:'Sansita Bold';fill:#3897f0;fill-opacity:1;stroke-width:0.26458335"
       d="m 42.012852,2.6528998 q 1.27,0 1.905,0.7514167 0.645583,0.7514168 0.645583,2.0849168 0,1.3758335 -0.645583,2.1907502 -0.645583,0.8149167 -1.905,0.8149167 -1.248834,0 -1.905,-0.7831667 -0.656167,-0.7831667 -0.656167,-2.1166668 0,-1.3546668 0.645583,-2.1484168 0.656167,-0.7937501 1.915584,-0.7937501 z m 0,5.2070004 q 0.550333,0 0.709083,-0.6455834 0.15875,-0.6455834 0.15875,-1.6721668 0,-0.9736667 -0.169333,-1.6086668 -0.169334,-0.6455833 -0.6985,-0.6455833 -0.529167,0 -0.6985,0.6455833 -0.169334,0.6455834 -0.169334,1.6086668 0,1.0265834 0.15875,1.6721668 0.15875,0.6455834 0.709084,0.6455834 z" />
  </g>
</svg>
