<?xml version="1.0" encoding="UTF-8" standalone="no"?>
<svg
   xmlns:dc="http://purl.org/dc/elements/1.1/"
   xmlns:cc="http://creativecommons.org/ns#"
   xmlns:rdf="http://www.w3.org/1999/02/22-rdf-syntax-ns#"
   xmlns:svg="http://www.w3.org/2000/svg"
   xmlns="http://www.w3.org/2000/svg"
   id="svg8"
   version="1.1"
   viewBox="0 0 444.49999 277.81249"
   height="277.8125mm"
   width="444.5mm">
  <defs
     id="defs2" />
  <metadata
     id="metadata5">
    <rdf:RDF>
      <cc:Work
         rdf:about="">
        <dc:format>image/svg+xml</dc:format>
        <dc:type
           rdf:resource="http://purl.org/dc/dcmitype/StillImage" />
        <dc:title></dc:title>
      </cc:Work>
    </rdf:RDF>
  </metadata>
  <path
     style="opacity:1;fill:#6e7078;fill-opacity:1;fill-rule:nonzero;stroke:none;stroke-width:2.78795314;stroke-linejoin:round;stroke-miterlimit:4;stroke-dasharray:none;stroke-opacity:1"
     d="M 0,0 H 444.49998 V 277.81248 H 0 Z"
     id="rect941" />
  <g
     style="font-style:normal;font-weight:normal;font-size:40px;line-height:1.25;font-family:sans-serif;letter-spacing:0px;word-spacing:0px;fill:#000000;fill-opacity:1;stroke:none"
     id="flowRoot985"
     transform="matrix(2.490629,0,0,2.2450931,27.401766,-104.05517)" />
  <g
     style="font-style:normal;font-weight:normal;font-size:40px;line-height:1.25;font-family:sans-serif;letter-spacing:0px;word-spacing:0px;fill:#000000;fill-opacity:1;stroke:none"
     id="flowRoot993"
     transform="matrix(2.490629,0,0,2.2450931,27.401766,-104.05517)" />
  <g
     transform="translate(0,19.060813)"
     id="g870">
    <g
       id="g898"
       transform="matrix(1.1624531,0,0,1.321886,-3.9930729,-56.774231)"
       style="fill:#37abc8">
      <path
         id="ellipse890"
         d="M 95.08383,139.75145 A 23.208532,20.629807 0 0 1 71.875298,160.38126 23.208532,20.629807 0 0 1 48.666765,139.75145 23.208532,20.629807 0 0 1 71.875298,119.12164 23.208532,20.629807 0 0 1 95.08383,139.75145 Z"
         style="opacity:1;fill:#37abc8;fill-opacity:1;fill-rule:nonzero;stroke:none;stroke-width:1.1789999;stroke-linejoin:round;stroke-miterlimit:4;stroke-dasharray:none;stroke-opacity:1" />
      <path
         id="rect892"
         d="m 57.525418,129.43655 h 74.981402 c 8.79147,0 15.86908,7.07761 15.86908,15.86908 v 1e-5 c 0,8.79147 -7.07761,15.86908 -15.86908,15.86908 H 57.525418 c -8.79147,0 -15.86908,-7.07761 -15.86908,-15.86908 v -1e-5 c 0,-8.79147 7.07761,-15.86908 15.86908,-15.86908 z"
         style="opacity:1;fill:#37abc8;fill-opacity:1;fill-rule:nonzero;stroke:none;stroke-width:1.1789999;stroke-linejoin:round;stroke-miterlimit:4;stroke-dasharray:none;stroke-opacity:1" />
      <path
         id="ellipse894"
         d="m 119.42552,123.87665 a 23.208532,20.629807 0 0 1 -23.208532,20.6298 23.208532,20.629807 0 0 1 -23.208533,-20.6298 23.208532,20.629807 0 0 1 23.208533,-20.62981 23.208532,20.629807 0 0 1 23.208532,20.62981 z"
         style="opacity:1;fill:#37abc8;fill-opacity:1;fill-rule:nonzero;stroke:none;stroke-width:1.1789999;stroke-linejoin:round;stroke-miterlimit:4;stroke-dasharray:none;stroke-opacity:1" />
      <path
         id="ellipse896"
         d="m 145.35472,129.16829 a 23.208532,20.629807 0 0 1 -23.20853,20.62981 23.208532,20.629807 0 0 1 -23.208536,-20.62981 23.208532,20.629807 0 0 1 23.208536,-20.62981 23.208532,20.629807 0 0 1 23.20853,20.62981 z"
         style="opacity:1;fill:#37abc8;fill-opacity:1;fill-rule:nonzero;stroke:none;stroke-width:1.1789999;stroke-linejoin:round;stroke-miterlimit:4;stroke-dasharray:none;stroke-opacity:1" />
    </g>
    <path
       id="path874"
       d="m 114.99071,131.66542 a 26.97883,27.270252 0 0 1 -26.978831,27.27025 26.97883,27.270252 0 0 1 -26.97883,-27.27025 26.97883,27.270252 0 0 1 26.97883,-27.27025 26.97883,27.270252 0 0 1 26.978831,27.27025 z"
       style="opacity:1;fill:#ffffff;fill-opacity:1;fill-rule:nonzero;stroke:none;stroke-width:1.46149886;stroke-linejoin:round;stroke-miterlimit:4;stroke-dasharray:none;stroke-opacity:1" />
    <path
       id="rect876"
       d="m 73.86087,118.0303 h 82.10226 c 11.62132,0 20.97711,9.35579 20.97711,20.97711 v 1e-5 c 0,11.62132 -9.35579,20.97711 -20.97711,20.97711 H 73.86087 c -11.621322,0 -20.977115,-9.35579 -20.977115,-20.97711 v -1e-5 c 0,-11.62132 9.355793,-20.97711 20.977115,-20.97711 z"
       style="opacity:1;fill:#ffffff;fill-opacity:1;fill-rule:nonzero;stroke:none;stroke-width:1.46149886;stroke-linejoin:round;stroke-miterlimit:4;stroke-dasharray:none;stroke-opacity:1" />
    <path
       id="ellipse880"
       d="M 143.28678,110.68075 A 26.97883,27.270252 0 0 1 116.30795,137.951 26.97883,27.270252 0 0 1 89.329123,110.68075 26.97883,27.270252 0 0 1 116.30795,83.410496 26.97883,27.270252 0 0 1 143.28678,110.68075 Z"
       style="opacity:1;fill:#ffffff;fill-opacity:1;fill-rule:nonzero;stroke:none;stroke-width:1.46149886;stroke-linejoin:round;stroke-miterlimit:4;stroke-dasharray:none;stroke-opacity:1" />
    <path
       id="ellipse882"
       d="m 173.42826,117.67569 a 26.97883,27.270252 0 0 1 -26.97883,27.27025 26.97883,27.270252 0 0 1 -26.97883,-27.27025 26.97883,27.270252 0 0 1 26.97883,-27.270253 26.97883,27.270252 0 0 1 26.97883,27.270253 z"
       style="opacity:1;fill:#ffffff;fill-opacity:1;fill-rule:nonzero;stroke:none;stroke-width:1.46149886;stroke-linejoin:round;stroke-miterlimit:4;stroke-dasharray:none;stroke-opacity:1" />
  </g>
  <g
     id="flowRoot872"
     style="font-style:normal;font-weight:normal;font-size:40px;line-height:1.25;font-family:sans-serif;letter-spacing:0px;word-spacing:0px;fill:#37abc8;fill-opacity:1;stroke:none"
     transform="matrix(2.5719946,0,0,1.7686343,-1125.526,-630.69313)"
     aria-label="#">
    <path
       id="path889"
       style="font-style:normal;font-variant:normal;font-weight:800;font-stretch:normal;font-family:'EB Garamond';-inkscape-font-specification:'EB Garamond Ultra-Bold';text-align:center;text-anchor:middle;fill:#37abc8"
       d="m 477.06436,451.86801 q -0.28,0 -0.48,-0.24 -0.16,-0.24 -0.16,-0.52 v -0.2 l 1.56,-6.28 -2.28,0.08 q -0.44,0.04 -0.68,-0.24 -0.24,-0.32 -0.24,-0.6 0,-1.12 0.2,-1.72 0.24,-0.64 0.6,-0.92 0.36,-0.28 0.76,-0.28 l 2.56,-0.12 1.04,-4.24 -2.68,0.12 q -0.44,0.04 -0.68,-0.24 -0.24,-0.32 -0.24,-0.6 0,-1.12 0.2,-1.72 0.24,-0.64 0.6,-0.92 0.36,-0.28 0.76,-0.28 l 3,-0.12 1.4,-5.72 q 0.12,-0.68 0.52,-0.88 0.44,-0.2 1.12,-0.2 0.24,0 0.36,0.24 0.16,0.24 0.16,0.52 0,0.12 -0.04,0.2 -0.04,0.04 -0.04,0.12 l -1.36,5.6 4.56,-0.16 1.44,-5.88 q 0.12,-0.68 0.52,-0.88 0.44,-0.2 1.12,-0.2 0.24,0 0.36,0.24 0.16,0.24 0.16,0.52 0,0.12 -0.04,0.2 -0.04,0.04 -0.04,0.12 l -1.4,5.76 2.36,-0.12 q 0.52,-0.04 0.8,0.24 0.28,0.24 0.28,0.64 0,0.68 -0.28,1.36 -0.24,0.64 -0.64,1.08 -0.36,0.4 -0.76,0.44 l -2.72,0.12 -1.04,4.28 2.8,-0.12 q 0.52,-0.04 0.8,0.24 0.28,0.24 0.28,0.64 0,0.68 -0.28,1.36 -0.24,0.64 -0.64,1.08 -0.36,0.4 -0.76,0.44 l -3.12,0.12 -1.48,6.04 q -0.16,0.64 -0.52,0.8 -0.32,0.16 -0.96,0.16 -0.28,0 -0.48,-0.24 -0.16,-0.24 -0.16,-0.52 v -0.2 l 1.48,-5.92 -4.56,0.16 -1.56,6.4 q -0.16,0.64 -0.52,0.8 -0.32,0.16 -0.96,0.16 z m 3.96,-11.12 4.56,-0.16 1.04,-4.28 -4.52,0.16 z" />
  </g>
  <g
     id="flowRoot4570"
     style="font-style:normal;font-weight:normal;font-size:40px;line-height:1.25;font-family:sans-serif;letter-spacing:0px;word-spacing:0px;fill:#ffffff;fill-opacity:1;stroke:none"
     transform="matrix(0.83042489,0,0,1.2023467,-672.47478,-201.54941)"
     aria-label="Install
Notepad++
in Ubuntu 20.04 ">
    <path
       id="path4582"
       style="font-style:normal;font-variant:normal;font-weight:bold;font-stretch:normal;font-family:'EB Garamond';-inkscape-font-specification:'EB Garamond Bold';text-align:center;text-anchor:middle;fill:#ffffff"
       d="m 1115.776,243.24567 q -0.32,0 -0.56,-0.12 -0.24,-0.16 -0.24,-0.44 0,-0.64 0.84,-0.84 1.52,-0.32 2.12,-0.8 0.6,-0.52 0.6,-1.8 v -18.16 q 0,-1.28 -0.52,-1.8 -0.52,-0.56 -2.12,-0.92 -0.84,-0.2 -0.84,-0.84 0,-0.28 0.24,-0.44 0.24,-0.16 0.56,-0.16 0.92,0 1.92,0.04 1.04,0.04 2,0.12 1,0.04 1.84,0.04 0.8,0 1.8,-0.04 1.04,-0.04 2.08,-0.08 1.08,-0.04 1.96,-0.04 0.36,0 0.56,0.16 0.2,0.12 0.2,0.4 0,0.4 -0.24,0.56 -0.2,0.16 -0.64,0.28 -1.6,0.44 -2.12,1 -0.52,0.52 -0.52,1.76 v 18.08 q 0,1.16 0.56,1.72 0.6,0.52 2.16,0.92 0.4,0.12 0.6,0.28 0.24,0.16 0.24,0.52 0,0.28 -0.2,0.44 -0.16,0.16 -0.52,0.16 -0.88,0 -1.96,-0.08 -1.08,-0.04 -2.12,-0.08 -1.04,-0.04 -1.84,-0.04 -0.84,0 -1.84,0.04 -1,0.04 -2.04,0.08 -1.04,0.08 -1.96,0.08 z" />
    <path
       id="path4584"
       style="font-style:normal;font-variant:normal;font-weight:bold;font-stretch:normal;font-family:'EB Garamond';-inkscape-font-specification:'EB Garamond Bold';text-align:center;text-anchor:middle;fill:#ffffff"
       d="m 1130.5359,243.24567 q -0.28,0 -0.56,-0.12 -0.24,-0.16 -0.24,-0.44 0,-0.32 0.28,-0.48 0.28,-0.2 0.64,-0.32 0.6,-0.2 1.04,-0.44 0.48,-0.28 0.48,-1.08 v -9.16 q 0,-0.88 -0.28,-1.48 -0.24,-0.6 -0.96,-0.76 -0.16,-0.04 -0.32,-0.2 -0.12,-0.16 -0.12,-0.52 0,-0.56 0.4,-0.68 1.36,-0.32 2.96,-0.84 1.64,-0.56 2.8,-1.16 0.16,-0.08 0.36,-0.2 0.2,-0.12 0.36,-0.12 0.24,0 0.28,0.16 0.08,0.12 0.08,0.32 0,0.32 -0.12,1.04 -0.08,0.68 -0.08,1.24 0,0.16 0,0.36 0.04,0.2 0.08,0.24 1.36,-1.32 2.76,-2.04 1.4,-0.72 3.24,-0.72 2.08,0 3.48,1.56 1.44,1.52 1.44,4.16 v 8.8 q 0,0.8 0.44,1.08 0.48,0.24 1.08,0.44 0.32,0.12 0.56,0.32 0.24,0.16 0.24,0.48 0,0.28 -0.24,0.44 -0.2,0.12 -0.44,0.12 -0.8,0 -1.52,-0.08 -0.68,-0.04 -1.36,-0.08 -0.64,-0.04 -1.36,-0.04 -0.68,0 -1.36,0.04 -0.68,0.04 -1.36,0.08 -0.68,0.08 -1.48,0.08 -0.24,0 -0.48,-0.12 -0.2,-0.16 -0.2,-0.44 0,-0.32 0.24,-0.48 0.24,-0.2 0.56,-0.32 0.6,-0.2 1,-0.44 0.4,-0.28 0.4,-1.08 v -7.96 q 0,-1.52 -0.72,-2.36 -0.68,-0.88 -1.84,-0.92 -0.88,0 -1.56,0.28 -0.68,0.28 -1.4,0.76 -0.16,0.16 -0.24,0.36 -0.08,0.2 -0.08,0.4 v 9.44 q 0,0.8 0.44,1.08 0.44,0.24 1,0.44 0.8,0.24 0.8,0.8 0,0.24 -0.2,0.4 -0.2,0.16 -0.48,0.16 -0.8,0 -1.48,-0.08 -0.68,-0.04 -1.28,-0.08 -0.6,-0.04 -1.32,-0.04 -0.68,0 -1.4,0.04 -0.68,0.04 -1.44,0.08 -0.72,0.08 -1.52,0.08 z" />
    <path
       id="path4586"
       style="font-style:normal;font-variant:normal;font-weight:bold;font-stretch:normal;font-family:'EB Garamond';-inkscape-font-specification:'EB Garamond Bold';text-align:center;text-anchor:middle;fill:#ffffff"
       d="m 1158.1359,243.68567 q -1.32,0 -2.56,-0.32 -1.24,-0.32 -2.24,-1.04 -0.36,-0.6 -0.52,-1.88 -0.16,-1.28 -0.12,-2.68 0,-0.48 0.8,-0.48 0.32,0 0.56,0.2 0.24,0.2 0.28,0.4 0.76,1.68 1.76,2.88 1,1.16 2.4,1.16 1.08,0 1.64,-0.64 0.56,-0.68 0.56,-1.52 0,-1.04 -0.84,-1.72 -0.8,-0.72 -1.96,-1.32 -1.16,-0.6 -2.2,-1.36 -1.04,-0.76 -1.72,-1.8 -0.64,-1.08 -0.64,-2.56 0,-1.56 0.84,-2.72 0.88,-1.16 2.32,-1.8 1.48,-0.68 3.28,-0.68 1.32,0 2.44,0.32 1.12,0.28 1.52,0.56 0.32,0.4 0.52,1.52 0.2,1.08 0.2,2.4 0,0.44 -0.72,0.44 -0.28,0 -0.6,-0.2 -0.28,-0.2 -0.36,-0.4 -0.52,-1.56 -1.36,-2.32 -0.8,-0.8 -1.8,-0.8 -0.88,0 -1.6,0.56 -0.72,0.56 -0.72,1.52 0,0.84 0.76,1.52 0.8,0.64 1.96,1.28 2.6,1.36 3.72,2.64 1.12,1.24 1.12,3.32 0,2.6 -1.72,4.08 -1.68,1.44 -5,1.44 z" />
    <path
       id="path4588"
       style="font-style:normal;font-variant:normal;font-weight:bold;font-stretch:normal;font-family:'EB Garamond';-inkscape-font-specification:'EB Garamond Bold';text-align:center;text-anchor:middle;fill:#ffffff"
       d="m 1174.6959,243.68567 q -2.64,0 -3.96,-1.32 -1.32,-1.36 -1.32,-3.8 v -9.2 q 0,-0.36 -0.28,-0.52 -0.24,-0.16 -0.96,-0.2 h -0.52 q -0.28,0 -0.48,-0.44 -0.16,-0.48 -0.16,-0.84 0,-0.08 0.04,-0.2 0.08,-0.16 0.2,-0.2 0.96,-0.36 2.04,-1.08 1.12,-0.76 2.12,-1.6 1.04,-0.84 1.68,-1.4 0.28,-0.2 0.48,-0.36 0.2,-0.16 0.52,-0.16 0.36,0 0.52,0.16 0.16,0.12 0.08,0.64 l -0.24,2.36 q -0.04,0.48 0.2,0.68 0.28,0.16 0.76,0.16 h 4.76 q 0.12,0 0.24,0.28 0.12,0.28 0.12,0.52 0,0.56 -0.16,1.08 -0.16,0.52 -0.36,0.52 h -3.72 q -0.92,0 -1.28,0.24 -0.32,0.2 -0.32,0.76 v 7.56 q 0,1.84 0.68,2.76 0.72,0.88 1.88,0.88 1.16,0 1.68,-0.24 0.56,-0.24 1,-0.4 0.16,-0.08 0.24,-0.08 0.2,0 0.32,0.24 0.12,0.24 0.12,0.56 0,0.24 -0.84,0.88 -0.84,0.64 -2.2,1.2 -1.32,0.56 -2.88,0.56 z" />
    <path
       id="path4590"
       style="font-style:normal;font-variant:normal;font-weight:bold;font-stretch:normal;font-family:'EB Garamond';-inkscape-font-specification:'EB Garamond Bold';text-align:center;text-anchor:middle;fill:#ffffff"
       d="m 1186.0958,243.68567 q -1.08,0 -2,-0.52 -0.92,-0.52 -1.48,-1.36 -0.52,-0.84 -0.52,-1.84 0,-1.36 0.84,-2.28 0.88,-0.92 2.56,-1.64 l 3.56,-1.56 q 0.8,-0.36 0.96,-0.64 0.2,-0.28 0.2,-1.04 l 0.04,-2.28 q 0.04,-1.12 -0.4,-1.76 -0.44,-0.68 -1.32,-0.68 -0.52,0 -1.04,0.24 -0.52,0.2 -0.8,0.48 -0.12,0.16 -0.2,0.4 -0.04,0.2 -0.04,0.44 0,0.24 0.04,0.6 0.04,0.32 0.04,0.56 0,0.24 -0.64,0.64 -0.64,0.36 -1.48,0.68 -0.84,0.28 -1.44,0.28 -0.28,0 -0.52,-0.24 -0.2,-0.24 -0.2,-0.6 0,-0.64 0.44,-1.24 0.44,-0.64 1.44,-1.44 1.04,-0.88 2.28,-1.56 1.24,-0.68 2.44,-1.08 1.24,-0.4 2.08,-0.4 2.16,0 3.44,1.4 1.28,1.36 1.2,3.64 l -0.2,8.08 q -0.04,0.92 0.32,1.56 0.36,0.64 0.88,0.64 0.76,0 1.32,-0.52 0.12,-0.12 0.24,-0.12 0.2,0 0.32,0.12 0.16,0.12 0.16,0.32 0,0.48 -0.72,1.24 -0.76,0.72 -1.6,1.08 -0.84,0.4 -1.76,0.4 -2.24,0 -3.72,-2.28 h -0.08 q -1.32,1.2 -2.4,1.72 -1.04,0.56 -2.24,0.56 z m 2.4,-2.6 q 0.44,0 0.72,-0.12 0.28,-0.16 0.56,-0.48 0.12,-0.16 0.2,-0.4 0.08,-0.28 0.08,-0.64 l 0.12,-2.88 q 0,-0.4 -0.12,-0.52 -0.12,-0.12 -0.28,-0.12 -0.08,0 -0.2,0.04 -0.12,0.04 -0.28,0.12 -1.16,0.56 -1.72,1.16 -0.56,0.56 -0.56,1.84 0,1.16 0.48,1.6 0.48,0.4 1,0.4 z" />
    <path
       id="path4592"
       style="font-style:normal;font-variant:normal;font-weight:bold;font-stretch:normal;font-family:'EB Garamond';-inkscape-font-specification:'EB Garamond Bold';text-align:center;text-anchor:middle;fill:#ffffff"
       d="m 1199.8958,243.24567 q -0.36,0 -0.6,-0.12 -0.2,-0.16 -0.2,-0.44 0,-0.32 0.24,-0.48 0.24,-0.2 0.68,-0.32 0.6,-0.2 1.04,-0.44 0.48,-0.24 0.48,-1.08 v -19.24 q 0,-1.08 -0.32,-1.88 -0.28,-0.8 -1.28,-1 -0.4,-0.08 -0.4,-0.6 0,-0.52 0.36,-0.6 1.04,-0.2 2.24,-0.56 1.2,-0.4 2.28,-0.8 1.08,-0.44 1.68,-0.64 0.32,-0.12 0.52,-0.12 0.24,0 0.32,0.16 0.08,0.12 0.08,0.32 0,0.28 -0.12,1.04 -0.08,0.76 -0.12,1.72 v 22.12 q 0,0.88 0.44,1.12 0.48,0.2 1.08,0.4 0.44,0.16 0.68,0.32 0.24,0.16 0.24,0.48 0,0.28 -0.24,0.44 -0.2,0.12 -0.56,0.12 -0.76,0 -1.52,-0.04 -0.72,-0.04 -1.44,-0.04 -0.68,-0.04 -1.4,-0.04 -0.68,0 -1.36,0.04 -0.64,0.04 -1.32,0.08 -0.68,0.08 -1.48,0.08 z" />
    <path
       id="path4594"
       style="font-style:normal;font-variant:normal;font-weight:bold;font-stretch:normal;font-family:'EB Garamond';-inkscape-font-specification:'EB Garamond Bold';text-align:center;text-anchor:middle;fill:#ffffff"
       d="m 1211.2958,243.24567 q -0.36,0 -0.6,-0.12 -0.2,-0.16 -0.2,-0.44 0,-0.32 0.24,-0.48 0.24,-0.2 0.68,-0.32 0.6,-0.2 1.04,-0.44 0.48,-0.24 0.48,-1.08 v -19.24 q 0,-1.08 -0.32,-1.88 -0.28,-0.8 -1.28,-1 -0.4,-0.08 -0.4,-0.6 0,-0.52 0.36,-0.6 1.04,-0.2 2.24,-0.56 1.2,-0.4 2.28,-0.8 1.08,-0.44 1.68,-0.64 0.32,-0.12 0.52,-0.12 0.24,0 0.32,0.16 0.08,0.12 0.08,0.32 0,0.28 -0.12,1.04 -0.08,0.76 -0.12,1.72 v 22.12 q 0,0.88 0.44,1.12 0.48,0.2 1.08,0.4 0.44,0.16 0.68,0.32 0.24,0.16 0.24,0.48 0,0.28 -0.24,0.44 -0.2,0.12 -0.56,0.12 -0.76,0 -1.52,-0.04 -0.72,-0.04 -1.44,-0.04 -0.68,-0.04 -1.4,-0.04 -0.68,0 -1.36,0.04 -0.64,0.04 -1.32,0.08 -0.68,0.08 -1.48,0.08 z" />
    <path
       id="path4596"
       style="font-style:normal;font-variant:normal;font-weight:bold;font-stretch:normal;font-family:'EB Garamond';-inkscape-font-specification:'EB Garamond Bold';text-align:center;text-anchor:middle;fill:#ffffff"
       d="m 1097.4561,294.36095 q -0.52,0 -1.68,-0.64 -1.16,-0.6 -2.4,-2.16 -0.96,-1 -2,-2.16 -1.04,-1.16 -2.2,-2.4 -1.16,-1.24 -2.36,-2.52 -1.16,-1.28 -2.32,-2.52 -1.16,-1.28 -2.32,-2.52 -1.16,-1.24 -2.2,-2.4 -1.04,-1.16 -2,-2.16 -0.08,-0.16 -0.28,-0.28 -0.16,-0.16 -0.24,-0.16 -0.16,0 -0.24,0.28 -0.04,0.28 -0.04,0.48 -0.04,1.84 0,4.32 0.04,2.48 0.08,5.04 0.08,2.52 0.08,4.6 0,1.28 0.8,2.04 0.8,0.72 2.36,1.12 0.44,0.08 0.76,0.28 0.36,0.16 0.36,0.52 0,0.28 -0.32,0.44 -0.32,0.16 -0.68,0.16 -1.08,0 -1.76,-0.08 -0.68,-0.04 -1.28,-0.04 -0.56,-0.04 -1.4,-0.04 -0.88,0 -1.68,0.04 -0.76,0.04 -1.32,0.08 -0.52,0.04 -0.72,0.04 -0.28,0 -0.64,-0.12 -0.32,-0.16 -0.32,-0.44 0,-0.36 0.32,-0.52 0.32,-0.16 0.72,-0.32 0.96,-0.36 1.44,-1.2 0.52,-0.84 0.6,-2.08 0.16,-1.48 0.32,-3.92 0.2,-2.44 0.36,-5.48 0.16,-3.08 0.16,-6.36 0,-2.08 -1.08,-3 -1.04,-0.92 -2.56,-1.48 -0.32,-0.08 -0.72,-0.28 -0.4,-0.24 -0.4,-0.6 0,-0.36 0.32,-0.48 0.32,-0.16 0.72,-0.16 0.72,0 1.6,0.04 0.92,0.04 1.92,0.08 1,0 2.08,0.04 1.08,0.04 2.16,0.04 0.32,0 0.48,0.12 0.2,0.12 0.36,0.32 0.88,1 1.88,2.16 1.04,1.16 2.16,2.44 1.12,1.24 2.28,2.56 1.16,1.28 2.28,2.6 1.16,1.32 2.24,2.56 1.12,1.24 2.16,2.4 1.04,1.16 1.92,2.16 0.12,0.16 0.28,0.36 0.2,0.16 0.36,0.16 0.32,0 0.32,-0.6 0,-1.24 0,-2.88 0.04,-1.64 0.04,-3.48 0,-1.84 -0.04,-3.64 0,-1.8 -0.08,-3.32 -0.04,-1.08 -0.84,-1.6 -0.76,-0.56 -2.12,-0.92 -0.44,-0.08 -0.76,-0.28 -0.32,-0.2 -0.32,-0.56 0,-0.28 0.32,-0.4 0.32,-0.16 0.68,-0.16 0.92,0 1.56,0.04 0.64,0 1.16,0 0.52,0 1.16,0 0.8,0 1.36,0 0.56,-0.04 1.2,-0.08 0.68,-0.04 1.72,-0.04 0.48,0 0.72,0.16 0.28,0.16 0.28,0.44 0,0.6 -1.04,0.8 -1.4,0.28 -2,0.8 -0.6,0.52 -0.64,1.68 0,1.44 -0.04,3.08 0,1.64 -0.08,3.36 -0.08,1.72 -0.16,3.44 -0.04,1.68 -0.08,3.24 -0.04,1.56 -0.04,2.88 0,0.92 0.12,2.04 0.12,1.08 0.2,2 0.12,0.88 0.12,1.24 0,1 -0.32,1.4 -0.28,0.4 -0.8,0.4 z" />
    <path
       id="path4598"
       style="font-style:normal;font-variant:normal;font-weight:bold;font-stretch:normal;font-family:'EB Garamond';-inkscape-font-specification:'EB Garamond Bold';text-align:center;text-anchor:middle;fill:#ffffff"
       d="m 1111.096,294.16095 q -2.4,0 -4.32,-1.08 -1.92,-1.08 -3.08,-2.96 -1.12,-1.92 -1.12,-4.32 0,-1.92 0.72,-3.64 0.72,-1.72 2,-3.04 1.28,-1.32 3,-2.08 1.72,-0.76 3.68,-0.76 2.48,0 4.48,1.16 2,1.16 3.16,3.08 1.2,1.88 1.2,4.12 0,2.56 -1.12,4.76 -1.08,2.16 -3.24,3.48 -2.12,1.28 -5.36,1.28 z m 0.8,-1.76 q 0.84,0 1.44,-0.32 0.64,-0.36 1.04,-1.04 0.48,-0.8 0.64,-2.16 0.2,-1.4 0.2,-3.28 0,-2.16 -0.48,-3.84 -0.48,-1.72 -1.36,-2.72 -0.84,-1 -2,-1 -0.64,0 -1.16,0.24 -0.52,0.2 -0.92,0.6 -0.68,0.8 -0.96,2.28 -0.24,1.48 -0.24,3.64 0,1.92 0.48,3.68 0.52,1.72 1.36,2.84 0.88,1.08 1.96,1.08 z" />
    <path
       id="path4600"
       style="font-style:normal;font-variant:normal;font-weight:bold;font-stretch:normal;font-family:'EB Garamond';-inkscape-font-specification:'EB Garamond Bold';text-align:center;text-anchor:middle;fill:#ffffff"
       d="m 1130.1759,294.16095 q -2.64,0 -3.96,-1.32 -1.32,-1.36 -1.32,-3.8 v -9.2 q 0,-0.36 -0.28,-0.52 -0.24,-0.16 -0.96,-0.2 h -0.52 q -0.28,0 -0.48,-0.44 -0.16,-0.48 -0.16,-0.84 0,-0.08 0.04,-0.2 0.08,-0.16 0.2,-0.2 0.96,-0.36 2.04,-1.08 1.12,-0.76 2.12,-1.6 1.04,-0.84 1.68,-1.4 0.28,-0.2 0.48,-0.36 0.2,-0.16 0.52,-0.16 0.36,0 0.52,0.16 0.16,0.12 0.08,0.64 l -0.24,2.36 q -0.04,0.48 0.2,0.68 0.28,0.16 0.76,0.16 h 4.76 q 0.12,0 0.24,0.28 0.12,0.28 0.12,0.52 0,0.56 -0.16,1.08 -0.16,0.52 -0.36,0.52 h -3.72 q -0.92,0 -1.28,0.24 -0.32,0.2 -0.32,0.76 v 7.56 q 0,1.84 0.68,2.76 0.72,0.88 1.88,0.88 1.16,0 1.68,-0.24 0.56,-0.24 1,-0.4 0.16,-0.08 0.24,-0.08 0.2,0 0.32,0.24 0.12,0.24 0.12,0.56 0,0.24 -0.84,0.88 -0.84,0.64 -2.2,1.2 -1.32,0.56 -2.88,0.56 z" />
    <path
       id="path4602"
       style="font-style:normal;font-variant:normal;font-weight:bold;font-stretch:normal;font-family:'EB Garamond';-inkscape-font-specification:'EB Garamond Bold';text-align:center;text-anchor:middle;fill:#ffffff"
       d="m 1144.8558,294.16095 q -2.16,0 -3.88,-1.12 -1.68,-1.16 -2.68,-3.12 -0.96,-2 -0.96,-4.52 0,-2.52 1.16,-4.56 1.16,-2.08 3.16,-3.28 2,-1.24 4.4,-1.24 1.72,0 3.08,0.76 1.36,0.72 2.16,1.96 0.84,1.24 0.84,2.8 0,1.52 -1.24,1.52 h -8 q -0.56,0 -0.84,0.32 -0.24,0.32 -0.24,1.08 0,1.52 0.68,2.8 0.68,1.24 1.84,1.96 1.16,0.72 2.68,0.72 1.16,0 2.12,-0.44 1,-0.44 1.96,-1.2 0.16,-0.12 0.28,-0.2 0.16,-0.12 0.28,-0.12 0.4,0 0.4,0.52 0,0.44 -0.32,1.2 -0.4,1 -1.36,2 -0.92,0.96 -2.32,1.56 -1.4,0.6 -3.2,0.6 z m -1.96,-12.48 h 2.4 q 1.12,0 1.56,-0.04 0.44,-0.04 0.8,-0.16 0.2,-0.08 0.32,-0.4 0.12,-0.32 0.12,-0.72 0,-1.08 -0.76,-1.76 -0.72,-0.68 -1.8,-0.68 -0.84,0 -1.6,0.48 -0.72,0.44 -1.2,1.2 -0.44,0.72 -0.4,1.52 0,0.56 0.56,0.56 z" />
    <path
       id="path4604"
       style="font-style:normal;font-variant:normal;font-weight:bold;font-stretch:normal;font-family:'EB Garamond';-inkscape-font-specification:'EB Garamond Bold';text-align:center;text-anchor:middle;fill:#ffffff"
       d="m 1154.5358,304.08095 q -0.28,0 -0.56,-0.16 -0.24,-0.12 -0.24,-0.4 0,-0.32 0.24,-0.52 0.28,-0.16 0.68,-0.28 0.84,-0.28 1.16,-0.6 0.36,-0.28 0.36,-0.92 v -19.16 q 0,-0.52 -0.2,-1 -0.2,-0.48 -0.56,-0.84 -0.36,-0.4 -0.92,-0.48 -0.24,-0.08 -0.36,-0.2 -0.12,-0.16 -0.12,-0.52 0,-0.32 0.12,-0.48 0.12,-0.16 0.32,-0.2 1.4,-0.32 3,-0.84 1.6,-0.52 2.76,-1.08 0.16,-0.08 0.32,-0.16 0.2,-0.12 0.36,-0.12 0.24,0 0.28,0.16 0.08,0.12 0.08,0.32 0,0.32 -0.12,1.08 -0.08,0.72 -0.08,1.24 0,0.4 0.08,0.48 0.4,-0.4 1.4,-1.08 1.04,-0.68 2.36,-1.2 1.32,-0.52 2.56,-0.52 2.16,0 3.64,1.16 1.52,1.12 2.32,2.92 0.8,1.76 0.8,3.72 0,1.88 -0.72,3.64 -0.68,1.76 -1.96,3.2 -1.28,1.4 -2.96,2.24 -1.68,0.84 -3.6,0.84 -0.44,0 -1.08,-0.12 -0.6,-0.12 -1.24,-0.32 -0.6,-0.2 -1.12,-0.4 -0.04,0 -0.08,0.12 -0.04,0.12 -0.08,0.28 0,0.16 0,0.32 v 6.64 q 0,0.52 0.24,0.88 0.28,0.36 0.76,0.56 0.48,0.24 1.16,0.44 0.4,0.12 0.64,0.28 0.24,0.2 0.24,0.52 0,0.24 -0.24,0.4 -0.2,0.16 -0.44,0.16 -1.2,0 -2.52,-0.12 -1.28,-0.08 -2.32,-0.08 -0.68,0 -1.4,0.04 -0.68,0.04 -1.44,0.08 -0.72,0.08 -1.52,0.08 z m 10.32,-11.6 q 0.44,0 1.04,-0.32 0.64,-0.36 1.24,-1.12 0.64,-0.76 1.04,-2.04 0.44,-1.28 0.44,-3.16 0,-2.2 -0.44,-3.48 -0.44,-1.32 -1.08,-1.96 -0.64,-0.64 -1.32,-0.84 -0.64,-0.24 -1.12,-0.24 -0.72,0 -1.48,0.32 -0.76,0.32 -1.24,0.76 -0.48,0.44 -0.48,0.8 0,0.32 0,1.24 0,0.92 -0.04,2.04 0,1.12 -0.04,2.04 0,0.92 0,1.28 0,0.92 0.4,2.04 0.44,1.08 1.2,1.88 0.8,0.76 1.88,0.76 z" />
    <path
       id="path4606"
       style="font-style:normal;font-variant:normal;font-weight:bold;font-stretch:normal;font-family:'EB Garamond';-inkscape-font-specification:'EB Garamond Bold';text-align:center;text-anchor:middle;fill:#ffffff"
       d="m 1180.1357,294.16095 q -1.08,0 -2,-0.52 -0.92,-0.52 -1.48,-1.36 -0.52,-0.84 -0.52,-1.84 0,-1.36 0.84,-2.28 0.88,-0.92 2.56,-1.64 l 3.56,-1.56 q 0.8,-0.36 0.96,-0.64 0.2,-0.28 0.2,-1.04 l 0.04,-2.28 q 0.04,-1.12 -0.4,-1.76 -0.44,-0.68 -1.32,-0.68 -0.52,0 -1.04,0.24 -0.52,0.2 -0.8,0.48 -0.12,0.16 -0.2,0.4 -0.04,0.2 -0.04,0.44 0,0.24 0.04,0.6 0.04,0.32 0.04,0.56 0,0.24 -0.64,0.64 -0.64,0.36 -1.48,0.68 -0.84,0.28 -1.44,0.28 -0.28,0 -0.52,-0.24 -0.2,-0.24 -0.2,-0.6 0,-0.64 0.44,-1.24 0.44,-0.64 1.44,-1.44 1.04,-0.88 2.28,-1.56 1.24,-0.68 2.44,-1.08 1.24,-0.4 2.08,-0.4 2.16,0 3.44,1.4 1.28,1.36 1.2,3.64 l -0.2,8.08 q -0.04,0.92 0.32,1.56 0.36,0.64 0.88,0.64 0.76,0 1.32,-0.52 0.12,-0.12 0.24,-0.12 0.2,0 0.32,0.12 0.16,0.12 0.16,0.32 0,0.48 -0.72,1.24 -0.76,0.72 -1.6,1.08 -0.84,0.4 -1.76,0.4 -2.24,0 -3.72,-2.28 h -0.08 q -1.32,1.2 -2.4,1.72 -1.04,0.56 -2.24,0.56 z m 2.4,-2.6 q 0.44,0 0.72,-0.12 0.28,-0.16 0.56,-0.48 0.12,-0.16 0.2,-0.4 0.08,-0.28 0.08,-0.64 l 0.12,-2.88 q 0,-0.4 -0.12,-0.52 -0.12,-0.12 -0.28,-0.12 -0.08,0 -0.2,0.04 -0.12,0.04 -0.28,0.12 -1.16,0.56 -1.72,1.16 -0.56,0.56 -0.56,1.84 0,1.16 0.48,1.6 0.48,0.4 1,0.4 z" />
    <path
       id="path4608"
       style="font-style:normal;font-variant:normal;font-weight:bold;font-stretch:normal;font-family:'EB Garamond';-inkscape-font-specification:'EB Garamond Bold';text-align:center;text-anchor:middle;fill:#ffffff"
       d="m 1206.8157,294.36095 q -0.12,0 -0.36,-0.28 -0.2,-0.24 -0.2,-0.4 0.08,-0.6 0.12,-1.12 0.08,-0.56 0.08,-1 v -0.24 q -0.8,1.24 -2.24,2.04 -1.4,0.8 -3.04,0.8 -2.24,0 -4,-1.12 -1.72,-1.12 -2.72,-3.04 -1,-1.92 -1,-4.2 0,-2.72 1.2,-4.84 1.2,-2.12 3.36,-3.32 2.16,-1.24 5,-1.24 0.6,0 1.24,0.12 0.68,0.08 1.24,0.24 0.56,0.12 0.52,0.12 0.16,0 0.16,-0.52 v -4.76 q 0,-1.44 -0.36,-2.08 -0.36,-0.64 -1.2,-0.8 -0.48,-0.12 -0.48,-0.6 0,-0.52 0.44,-0.6 1.48,-0.32 3.04,-0.8 1.6,-0.52 2.6,-0.96 0.52,-0.24 0.72,-0.28 0.2,-0.08 0.24,-0.08 0.44,0 0.44,0.48 0,-0.12 -0.04,0.32 -0.04,0.4 -0.08,1.08 -0.04,0.68 -0.08,1.36 l -0.2,20.16 q 0,1.36 0.2,1.96 0.2,0.6 0.72,0.6 0.2,0 0.4,-0.04 0.24,-0.04 1.16,-0.08 0.56,-0.04 0.56,0.4 0,0.32 -0.24,0.68 -0.24,0.36 -0.44,0.36 -1.44,0.16 -3.04,0.52 -1.56,0.36 -3.04,0.92 -0.24,0.12 -0.4,0.16 -0.16,0.08 -0.28,0.08 z m -3.6,-2.92 q 0.6,0 1.48,-0.32 0.92,-0.32 1.48,-0.92 l -0.04,-8.84 q 0,-0.72 -0.56,-1.4 -0.52,-0.72 -1.36,-1.2 -0.8,-0.48 -1.6,-0.48 -0.96,0 -1.8,0.8 -0.8,0.76 -1.32,2.2 -0.48,1.4 -0.48,3.44 0,1.64 0.32,2.88 0.36,1.24 0.96,2.12 0.6,0.84 1.36,1.28 0.76,0.44 1.56,0.44 z" />
    <path
       id="path4610"
       style="font-style:normal;font-variant:normal;font-weight:bold;font-stretch:normal;font-family:'EB Garamond';-inkscape-font-specification:'EB Garamond Bold';text-align:center;text-anchor:middle;fill:#ffffff"
       d="m 1228.6157,294.04095 q -0.16,0 -0.36,-0.2 -0.16,-0.2 -0.16,-0.44 v -8.12 q 0,-0.48 -0.48,-0.48 h -8.36 q -0.28,0 -0.48,-0.16 -0.16,-0.16 -0.16,-0.32 0,-0.32 0.08,-0.76 0.12,-0.44 0.36,-0.8 0.28,-0.36 0.68,-0.36 h 7.84 q 0.36,0 0.44,-0.12 0.08,-0.16 0.08,-0.4 v -7.2 q 0,-0.4 0.32,-0.68 0.36,-0.32 0.8,-0.48 0.48,-0.2 0.76,-0.2 0.28,0 0.44,0.28 0.16,0.24 0.16,0.6 v 7.68 q 0,0.52 0.44,0.52 h 8.16 q 0.36,0 0.6,0.16 0.28,0.12 0.28,0.44 0,0.52 -0.4,1.16 -0.4,0.64 -0.96,0.64 h -7.64 q -0.48,0 -0.48,0.48 v 7.64 q 0,0.4 -0.4,0.68 -0.36,0.24 -0.84,0.32 -0.44,0.12 -0.72,0.12 z" />
    <path
       id="path4612"
       style="font-style:normal;font-variant:normal;font-weight:bold;font-stretch:normal;font-family:'EB Garamond';-inkscape-font-specification:'EB Garamond Bold';text-align:center;text-anchor:middle;fill:#ffffff"
       d="m 1252.6557,294.04095 q -0.16,0 -0.36,-0.2 -0.16,-0.2 -0.16,-0.44 v -8.12 q 0,-0.48 -0.48,-0.48 h -8.36 q -0.28,0 -0.48,-0.16 -0.16,-0.16 -0.16,-0.32 0,-0.32 0.08,-0.76 0.12,-0.44 0.36,-0.8 0.28,-0.36 0.68,-0.36 h 7.84 q 0.36,0 0.44,-0.12 0.08,-0.16 0.08,-0.4 v -7.2 q 0,-0.4 0.32,-0.68 0.36,-0.32 0.8,-0.48 0.48,-0.2 0.76,-0.2 0.28,0 0.44,0.28 0.16,0.24 0.16,0.6 v 7.68 q 0,0.52 0.44,0.52 h 8.16 q 0.36,0 0.6,0.16 0.28,0.12 0.28,0.44 0,0.52 -0.4,1.16 -0.4,0.64 -0.96,0.64 h -7.64 q -0.48,0 -0.48,0.48 v 7.64 q 0,0.4 -0.4,0.68 -0.36,0.24 -0.84,0.32 -0.44,0.12 -0.72,0.12 z" />
    <path
       id="path4614"
       style="font-style:normal;font-variant:normal;font-weight:bold;font-stretch:normal;font-family:'EB Garamond';-inkscape-font-specification:'EB Garamond Bold';text-align:center;text-anchor:middle;fill:#ffffff"
       d="m 1029.3562,344.19623 q -0.24,0 -0.44,-0.12 -0.2,-0.16 -0.2,-0.4 0,-0.32 0.2,-0.52 0.2,-0.2 0.52,-0.28 1.04,-0.24 1.44,-0.52 0.44,-0.32 0.44,-0.96 v -8.64 q 0,-1.36 -0.44,-1.92 -0.4,-0.6 -1.28,-0.72 -0.24,-0.04 -0.36,-0.24 -0.12,-0.2 -0.12,-0.48 0,-0.6 0.44,-0.68 2.08,-0.4 3.68,-1.12 1.64,-0.72 2.52,-1.12 0.64,-0.32 0.8,-0.32 0.52,0 0.52,0.48 -0.04,0.68 -0.2,1.72 -0.12,1 -0.24,2.08 -0.08,1.08 -0.08,2.08 v 8.84 q 0,0.56 0.4,0.88 0.44,0.32 1.52,0.64 0.32,0.12 0.52,0.28 0.2,0.16 0.2,0.48 0,0.52 -0.6,0.52 -0.76,0 -1.6,-0.04 -0.84,-0.04 -1.64,-0.08 -0.76,-0.04 -1.48,-0.04 -0.68,0 -1.44,0.04 -0.72,0.04 -1.52,0.08 -0.76,0.08 -1.56,0.08 z m 4.4,-19.84 q -1.24,0 -2.2,-0.92 -0.92,-0.92 -0.92,-2.2 0,-1.36 0.92,-2.28 0.96,-0.92 2.2,-0.92 1.4,0 2.32,0.92 0.92,0.92 0.92,2.28 0,1.28 -0.92,2.2 -0.92,0.92 -2.32,0.92 z" />
    <path
       id="path4616"
       style="font-style:normal;font-variant:normal;font-weight:bold;font-stretch:normal;font-family:'EB Garamond';-inkscape-font-specification:'EB Garamond Bold';text-align:center;text-anchor:middle;fill:#ffffff"
       d="m 1041.3161,344.19623 q -0.28,0 -0.56,-0.12 -0.24,-0.16 -0.24,-0.44 0,-0.32 0.28,-0.48 0.28,-0.2 0.64,-0.32 0.6,-0.2 1.04,-0.44 0.48,-0.28 0.48,-1.08 v -9.16 q 0,-0.88 -0.28,-1.48 -0.24,-0.6 -0.96,-0.76 -0.16,-0.04 -0.32,-0.2 -0.12,-0.16 -0.12,-0.52 0,-0.56 0.4,-0.68 1.36,-0.32 2.96,-0.84 1.64,-0.56 2.8,-1.16 0.16,-0.08 0.36,-0.2 0.2,-0.12 0.36,-0.12 0.24,0 0.28,0.16 0.08,0.12 0.08,0.32 0,0.32 -0.12,1.04 -0.08,0.68 -0.08,1.24 0,0.16 0,0.36 0.04,0.2 0.08,0.24 1.36,-1.32 2.76,-2.04 1.4,-0.72 3.24,-0.72 2.08,0 3.48,1.56 1.44,1.52 1.44,4.16 v 8.8 q 0,0.8 0.44,1.08 0.48,0.24 1.08,0.44 0.32,0.12 0.56,0.32 0.24,0.16 0.24,0.48 0,0.28 -0.24,0.44 -0.2,0.12 -0.44,0.12 -0.8,0 -1.52,-0.08 -0.68,-0.04 -1.36,-0.08 -0.64,-0.04 -1.36,-0.04 -0.68,0 -1.36,0.04 -0.68,0.04 -1.36,0.08 -0.68,0.08 -1.48,0.08 -0.24,0 -0.48,-0.12 -0.2,-0.16 -0.2,-0.44 0,-0.32 0.24,-0.48 0.24,-0.2 0.56,-0.32 0.6,-0.2 1,-0.44 0.4,-0.28 0.4,-1.08 v -7.96 q 0,-1.52 -0.72,-2.36 -0.68,-0.88 -1.84,-0.92 -0.88,0 -1.56,0.28 -0.68,0.28 -1.4,0.76 -0.16,0.16 -0.24,0.36 -0.08,0.2 -0.08,0.4 v 9.44 q 0,0.8 0.44,1.08 0.44,0.24 1,0.44 0.8,0.24 0.8,0.8 0,0.24 -0.2,0.4 -0.2,0.16 -0.48,0.16 -0.8,0 -1.48,-0.08 -0.68,-0.04 -1.28,-0.08 -0.6,-0.04 -1.32,-0.04 -0.68,0 -1.4,0.04 -0.68,0.04 -1.44,0.08 -0.72,0.08 -1.52,0.08 z" />
    <path
       id="path4618"
       style="font-style:normal;font-variant:normal;font-weight:bold;font-stretch:normal;font-family:'EB Garamond';-inkscape-font-specification:'EB Garamond Bold';text-align:center;text-anchor:middle;fill:#ffffff"
       d="m 1086.7161,344.63623 q -3.76,0 -6.28,-1.32 -2.52,-1.36 -3.8,-3.76 -1.24,-2.4 -1.24,-5.6 v -11.4 q 0,-1.12 -0.52,-2.04 -0.52,-0.92 -1.52,-1.16 -1.12,-0.32 -1.12,-0.88 0,-0.28 0.28,-0.44 0.32,-0.16 0.76,-0.16 1.28,0 2.64,0.12 1.36,0.08 2.56,0.08 1.12,0 2.68,-0.08 1.6,-0.08 2.72,-0.08 0.48,0 0.76,0.16 0.32,0.12 0.32,0.44 0,0.44 -0.6,0.64 -0.6,0.2 -1.28,0.52 -0.6,0.24 -1.04,1 -0.44,0.72 -0.44,2.08 v 10.48 q 0,2.72 0.88,4.48 0.88,1.76 2.32,2.6 1.48,0.84 3.28,0.84 3.64,0 5.4,-2.16 1.8,-2.16 1.8,-6.6 0,-1.04 0,-2.32 0.04,-1.32 0.04,-2.68 0,-1.4 -0.04,-2.64 -0.04,-1.8 -0.28,-2.8 -0.2,-1 -0.64,-1.56 -0.44,-0.56 -1.2,-0.92 -0.44,-0.24 -1.04,-0.4 -0.56,-0.2 -0.56,-0.56 0,-0.32 0.32,-0.44 0.32,-0.12 0.88,-0.12 1.44,0 2.16,0.04 0.76,0.04 1.68,0.04 0.76,0 1.24,-0.04 0.52,-0.04 1.04,-0.08 0.56,-0.04 1.32,-0.04 0.48,0 0.76,0.12 0.28,0.12 0.28,0.48 0,0.52 -1.08,0.84 -1.32,0.36 -1.88,1.24 -0.52,0.84 -0.6,2.28 -0.12,3.04 -0.16,5.6 -0.04,2.52 -0.04,5.16 -0.04,3.24 -1.48,5.76 -1.4,2.48 -3.84,3.88 -2.44,1.4 -5.44,1.4 z" />
    <path
       id="path4620"
       style="font-style:normal;font-variant:normal;font-weight:bold;font-stretch:normal;font-family:'EB Garamond';-inkscape-font-specification:'EB Garamond Bold';text-align:center;text-anchor:middle;fill:#ffffff"
       d="m 1112.596,344.63623 q -1.16,0 -2.16,-0.2 -0.96,-0.2 -1.76,-0.4 -0.6,-0.2 -1.12,-0.32 -0.48,-0.12 -0.8,-0.12 -0.4,0 -0.76,0.16 -0.36,0.12 -0.68,0.36 -0.36,0.28 -0.56,0.28 -0.36,0 -0.56,-0.16 -0.16,-0.16 -0.16,-0.36 0,-0.36 0.2,-1.4 0.24,-1.04 0.2,-2.6 l -0.16,-17.8 q 0,-1.04 -0.32,-1.84 -0.28,-0.84 -1.24,-1.04 -0.2,-0.04 -0.36,-0.2 -0.12,-0.16 -0.12,-0.44 0,-0.2 0.12,-0.36 0.12,-0.16 0.32,-0.2 0.88,-0.16 2.04,-0.52 1.16,-0.4 2.24,-0.8 1.12,-0.44 1.72,-0.64 0.4,-0.16 0.56,-0.16 0.24,0 0.32,0.16 0.12,0.12 0.12,0.32 0,0.24 -0.12,1 -0.08,0.76 -0.08,1.52 v 8.56 q 0,0.52 0.08,0.84 0.08,0.28 0.28,0.28 1.24,-0.84 2.56,-1.28 1.36,-0.48 2.56,-0.48 2.08,0 3.76,1.08 1.68,1.08 2.64,2.96 1,1.88 1,4.24 0,2.8 -1.24,5 -1.24,2.16 -3.44,3.36 -2.16,1.2 -5.08,1.2 z m 0.72,-1.68 q 1.08,0 1.84,-0.92 0.76,-0.96 1.16,-2.52 0.44,-1.56 0.44,-3.4 0,-1.6 -0.44,-3.24 -0.4,-1.64 -1.32,-2.72 -0.88,-1.12 -2.28,-1.12 -0.72,0 -1.68,0.24 -0.96,0.2 -1.56,0.68 v 8.52 q 0,1.28 0.52,2.32 0.56,1.04 1.44,1.6 0.88,0.56 1.88,0.56 z" />
    <path
       id="path4622"
       style="font-style:normal;font-variant:normal;font-weight:bold;font-stretch:normal;font-family:'EB Garamond';-inkscape-font-specification:'EB Garamond Bold';text-align:center;text-anchor:middle;fill:#ffffff"
       d="m 1136.476,344.91623 q -0.32,0 -0.32,-0.4 0,-0.48 0.08,-1.28 0.12,-0.8 0.12,-1.24 0,-0.16 -0.04,-0.28 0,-0.12 -0.04,-0.16 -1.08,1.32 -2.76,2.24 -1.68,0.88 -3.56,0.88 -1.24,0 -2.24,-0.72 -1,-0.76 -1.6,-2.04 -0.56,-1.28 -0.56,-2.88 v -7.48 q 0,-0.92 -0.36,-1.48 -0.32,-0.56 -1.24,-0.76 -0.24,-0.04 -0.44,-0.2 -0.16,-0.2 -0.16,-0.56 0,-0.28 0.16,-0.44 0.16,-0.2 0.44,-0.24 1.68,-0.08 3.04,-0.32 1.36,-0.28 2.76,-0.64 0.2,-0.04 0.4,-0.08 0.24,-0.08 0.44,-0.08 0.56,0 0.52,0.56 -0.16,0.92 -0.24,1.56 -0.08,0.6 -0.08,1.52 v 7.68 q 0,0.96 0.32,1.68 0.32,0.72 0.88,1.12 0.56,0.4 1.24,0.44 0.64,0 1.24,-0.16 0.64,-0.16 1.2,-0.72 0.24,-0.2 0.52,-0.8 0.28,-0.64 0.28,-1.68 v -6.44 q 0,-0.72 -0.28,-1.16 -0.28,-0.48 -0.76,-0.76 -0.48,-0.28 -1.12,-0.32 -0.44,-0.04 -0.72,-0.2 -0.24,-0.2 -0.24,-0.68 0,-0.4 0.28,-0.6 0.28,-0.2 0.68,-0.2 2.04,-0.12 3.24,-0.2 1.2,-0.12 1.96,-0.24 0.76,-0.12 1.52,-0.28 0.12,-0.04 0.28,-0.08 0.16,-0.04 0.24,-0.04 0.6,0 0.6,0.48 0,0.12 -0.04,0.28 -0.04,0.16 -0.12,0.32 -0.04,0.16 -0.12,0.72 -0.04,0.52 -0.12,1.12 -0.04,0.6 -0.04,0.96 v 9.28 q 0,0.92 0.2,1.24 0.24,0.28 0.52,0.28 0.2,0 0.6,0.04 0.4,0 0.52,0 0.36,0 0.56,0.2 0.2,0.2 0.2,0.52 0,0.36 -0.16,0.6 -0.12,0.2 -0.52,0.24 -1.92,0.16 -3.48,0.68 -1.52,0.48 -2.64,0.92 -0.24,0.08 -0.52,0.16 -0.28,0.12 -0.52,0.12 z" />
    <path
       id="path4624"
       style="font-style:normal;font-variant:normal;font-weight:bold;font-stretch:normal;font-family:'EB Garamond';-inkscape-font-specification:'EB Garamond Bold';text-align:center;text-anchor:middle;fill:#ffffff"
       d="m 1146.3159,344.19623 q -0.28,0 -0.56,-0.12 -0.24,-0.16 -0.24,-0.44 0,-0.32 0.28,-0.48 0.28,-0.2 0.64,-0.32 0.6,-0.2 1.04,-0.44 0.48,-0.28 0.48,-1.08 v -9.16 q 0,-0.88 -0.28,-1.48 -0.24,-0.6 -0.96,-0.76 -0.16,-0.04 -0.32,-0.2 -0.12,-0.16 -0.12,-0.52 0,-0.56 0.4,-0.68 1.36,-0.32 2.96,-0.84 1.64,-0.56 2.8,-1.16 0.16,-0.08 0.36,-0.2 0.2,-0.12 0.36,-0.12 0.24,0 0.28,0.16 0.08,0.12 0.08,0.32 0,0.32 -0.12,1.04 -0.08,0.68 -0.08,1.24 0,0.16 0,0.36 0.04,0.2 0.08,0.24 1.36,-1.32 2.76,-2.04 1.4,-0.72 3.24,-0.72 2.08,0 3.48,1.56 1.44,1.52 1.44,4.16 v 8.8 q 0,0.8 0.44,1.08 0.48,0.24 1.08,0.44 0.32,0.12 0.56,0.32 0.24,0.16 0.24,0.48 0,0.28 -0.24,0.44 -0.2,0.12 -0.44,0.12 -0.8,0 -1.52,-0.08 -0.68,-0.04 -1.36,-0.08 -0.64,-0.04 -1.36,-0.04 -0.68,0 -1.36,0.04 -0.68,0.04 -1.36,0.08 -0.68,0.08 -1.48,0.08 -0.24,0 -0.48,-0.12 -0.2,-0.16 -0.2,-0.44 0,-0.32 0.24,-0.48 0.24,-0.2 0.56,-0.32 0.6,-0.2 1,-0.44 0.4,-0.28 0.4,-1.08 v -7.96 q 0,-1.52 -0.72,-2.36 -0.68,-0.88 -1.84,-0.92 -0.88,0 -1.56,0.28 -0.68,0.28 -1.4,0.76 -0.16,0.16 -0.24,0.36 -0.08,0.2 -0.08,0.4 v 9.44 q 0,0.8 0.44,1.08 0.44,0.24 1,0.44 0.8,0.24 0.8,0.8 0,0.24 -0.2,0.4 -0.2,0.16 -0.48,0.16 -0.8,0 -1.48,-0.08 -0.68,-0.04 -1.28,-0.08 -0.6,-0.04 -1.32,-0.04 -0.68,0 -1.4,0.04 -0.68,0.04 -1.44,0.08 -0.72,0.08 -1.52,0.08 z" />
    <path
       id="path4626"
       style="font-style:normal;font-variant:normal;font-weight:bold;font-stretch:normal;font-family:'EB Garamond';-inkscape-font-specification:'EB Garamond Bold';text-align:center;text-anchor:middle;fill:#ffffff"
       d="m 1175.4359,344.63623 q -2.64,0 -3.96,-1.32 -1.32,-1.36 -1.32,-3.8 v -9.2 q 0,-0.36 -0.28,-0.52 -0.24,-0.16 -0.96,-0.2 h -0.52 q -0.28,0 -0.48,-0.44 -0.16,-0.48 -0.16,-0.84 0,-0.08 0.04,-0.2 0.08,-0.16 0.2,-0.2 0.96,-0.36 2.04,-1.08 1.12,-0.76 2.12,-1.6 1.04,-0.84 1.68,-1.4 0.28,-0.2 0.48,-0.36 0.2,-0.16 0.52,-0.16 0.36,0 0.52,0.16 0.16,0.12 0.08,0.64 l -0.24,2.36 q -0.04,0.48 0.2,0.68 0.28,0.16 0.76,0.16 h 4.76 q 0.12,0 0.24,0.28 0.12,0.28 0.12,0.52 0,0.56 -0.16,1.08 -0.16,0.52 -0.36,0.52 h -3.72 q -0.92,0 -1.28,0.24 -0.32,0.2 -0.32,0.76 v 7.56 q 0,1.84 0.68,2.76 0.72,0.88 1.88,0.88 1.16,0 1.68,-0.24 0.56,-0.24 1,-0.4 0.16,-0.08 0.24,-0.08 0.2,0 0.32,0.24 0.12,0.24 0.12,0.56 0,0.24 -0.84,0.88 -0.84,0.64 -2.2,1.2 -1.32,0.56 -2.88,0.56 z" />
    <path
       id="path4628"
       style="font-style:normal;font-variant:normal;font-weight:bold;font-stretch:normal;font-family:'EB Garamond';-inkscape-font-specification:'EB Garamond Bold';text-align:center;text-anchor:middle;fill:#ffffff"
       d="m 1195.5158,344.91623 q -0.32,0 -0.32,-0.4 0,-0.48 0.08,-1.28 0.12,-0.8 0.12,-1.24 0,-0.16 -0.04,-0.28 0,-0.12 -0.04,-0.16 -1.08,1.32 -2.76,2.24 -1.68,0.88 -3.56,0.88 -1.24,0 -2.24,-0.72 -1,-0.76 -1.6,-2.04 -0.56,-1.28 -0.56,-2.88 v -7.48 q 0,-0.92 -0.36,-1.48 -0.32,-0.56 -1.24,-0.76 -0.24,-0.04 -0.44,-0.2 -0.16,-0.2 -0.16,-0.56 0,-0.28 0.16,-0.44 0.16,-0.2 0.44,-0.24 1.68,-0.08 3.04,-0.32 1.36,-0.28 2.76,-0.64 0.2,-0.04 0.4,-0.08 0.24,-0.08 0.44,-0.08 0.56,0 0.52,0.56 -0.16,0.92 -0.24,1.56 -0.08,0.6 -0.08,1.52 v 7.68 q 0,0.96 0.32,1.68 0.32,0.72 0.88,1.12 0.56,0.4 1.24,0.44 0.64,0 1.24,-0.16 0.64,-0.16 1.2,-0.72 0.24,-0.2 0.52,-0.8 0.28,-0.64 0.28,-1.68 v -6.44 q 0,-0.72 -0.28,-1.16 -0.28,-0.48 -0.76,-0.76 -0.48,-0.28 -1.12,-0.32 -0.44,-0.04 -0.72,-0.2 -0.24,-0.2 -0.24,-0.68 0,-0.4 0.28,-0.6 0.28,-0.2 0.68,-0.2 2.04,-0.12 3.24,-0.2 1.2,-0.12 1.96,-0.24 0.76,-0.12 1.52,-0.28 0.12,-0.04 0.28,-0.08 0.16,-0.04 0.24,-0.04 0.6,0 0.6,0.48 0,0.12 -0.04,0.28 -0.04,0.16 -0.12,0.32 -0.04,0.16 -0.12,0.72 -0.04,0.52 -0.12,1.12 -0.04,0.6 -0.04,0.96 v 9.28 q 0,0.92 0.2,1.24 0.24,0.28 0.52,0.28 0.2,0 0.6,0.04 0.4,0 0.52,0 0.36,0 0.56,0.2 0.2,0.2 0.2,0.52 0,0.36 -0.16,0.6 -0.12,0.2 -0.52,0.24 -1.92,0.16 -3.48,0.68 -1.52,0.48 -2.64,0.92 -0.24,0.08 -0.52,0.16 -0.28,0.12 -0.52,0.12 z" />
    <path
       id="path4630"
       style="font-style:normal;font-variant:normal;font-weight:bold;font-stretch:normal;font-family:'EB Garamond';-inkscape-font-specification:'EB Garamond Bold';text-align:center;text-anchor:middle;fill:#ffffff"
       d="m 1231.1958,344.23623 q -0.24,0 -1.2,-0.04 -0.92,0 -2.2,-0.04 -1.24,-0.04 -2.56,-0.08 -1.32,-0.04 -2.32,-0.04 -0.92,0 -2.04,0.04 -1.08,0.04 -2.08,0.04 -0.96,0.04 -1.64,0.04 -0.64,0.04 -0.76,0.04 -0.12,0 -0.48,-0.2 -0.32,-0.24 -0.32,-0.48 0,-0.32 0.16,-0.52 0.16,-0.2 0.32,-0.36 l 5.84,-6.48 q 2.12,-2.32 3.16,-4.64 1.04,-2.36 1.04,-5.12 0,-1.68 -0.88,-2.8 -0.84,-1.16 -2.4,-1.16 -1.4,0 -2.64,0.8 -1.24,0.8 -2.12,1.72 -0.2,0.24 -0.56,0.56 -0.36,0.28 -0.72,0.28 -0.32,0 -0.44,-0.24 -0.12,-0.28 -0.12,-0.68 0,-0.68 0.64,-1.64 0.68,-1 1.84,-2 1.2,-1 2.72,-1.68 1.56,-0.68 3.28,-0.68 2.08,0 3.48,0.92 1.44,0.92 2.2,2.44 0.76,1.52 0.76,3.32 0,1.12 -0.52,2.48 -0.48,1.32 -1.2,2.56 -0.72,1.2 -1.48,2.08 -0.6,0.68 -1.52,1.6 -0.88,0.88 -1.84,1.8 -0.96,0.92 -1.84,1.72 -0.88,0.8 -1.4,1.32 -0.52,0.52 -0.52,0.6 0,0.16 0.6,0.24 0.72,0.08 1.72,0.12 1.04,0.04 1.88,0.04 0.92,0 1.8,-0.04 0.88,-0.04 1.76,-0.12 0.88,-0.08 1.52,-0.32 0.68,-0.28 1.16,-0.76 0.52,-0.52 0.92,-1.32 0.12,-0.28 0.4,-0.56 0.32,-0.32 0.72,-0.32 0.32,0 0.44,0.28 0.12,0.24 0,0.52 -0.36,1.04 -0.76,2.28 -0.36,1.2 -0.64,2.2 -0.28,0.96 -0.32,1.36 -0.04,0.48 -0.4,0.72 -0.36,0.2 -0.44,0.2 z" />
    <path
       id="path4632"
       style="font-style:normal;font-variant:normal;font-weight:bold;font-stretch:normal;font-family:'EB Garamond';-inkscape-font-specification:'EB Garamond Bold';text-align:center;text-anchor:middle;fill:#ffffff"
       d="m 1244.7957,344.63623 q -2.4,0 -4.16,-1.12 -1.76,-1.12 -2.96,-2.96 -1.16,-1.88 -1.72,-4.12 -0.56,-2.24 -0.56,-4.44 0,-2.28 0.56,-4.6 0.56,-2.32 1.76,-4.24 1.2,-1.96 3.08,-3.12 1.88,-1.2 4.44,-1.2 2.4,0 4.16,1.12 1.8,1.12 2.92,3 1.16,1.84 1.72,4.08 0.6,2.2 0.6,4.36 0,2.28 -0.56,4.6 -0.56,2.32 -1.76,4.28 -1.16,1.96 -3.04,3.16 -1.84,1.2 -4.48,1.2 z m 0.6,-1.8 q 1.28,0 2.04,-1.48 0.8,-1.52 1.16,-3.96 0.36,-2.44 0.36,-5.28 0,-2.12 -0.28,-4.16 -0.28,-2.04 -0.84,-3.68 -0.56,-1.68 -1.36,-2.64 -0.8,-1 -1.88,-1 -1.28,0 -2.04,1.52 -0.76,1.48 -1.12,3.92 -0.32,2.4 -0.32,5.24 0,2.12 0.24,4.16 0.28,2.04 0.8,3.72 0.56,1.64 1.36,2.64 0.8,1 1.88,1 z" />
    <path
       id="path4634"
       style="font-style:normal;font-variant:normal;font-weight:bold;font-stretch:normal;font-family:'EB Garamond';-inkscape-font-specification:'EB Garamond Bold';text-align:center;text-anchor:middle;fill:#ffffff"
       d="m 1260.3957,345.27623 q -1.28,0 -2.24,-0.96 -0.96,-0.92 -0.96,-2.24 0,-1.4 0.96,-2.36 0.96,-0.96 2.24,-0.96 1.44,0 2.36,0.96 0.96,0.96 0.96,2.36 0,1.32 -0.96,2.24 -0.92,0.96 -2.36,0.96 z" />
    <path
       id="path4636"
       style="font-style:normal;font-variant:normal;font-weight:bold;font-stretch:normal;font-family:'EB Garamond';-inkscape-font-specification:'EB Garamond Bold';text-align:center;text-anchor:middle;fill:#ffffff"
       d="m 1275.8357,344.63623 q -2.4,0 -4.16,-1.12 -1.76,-1.12 -2.96,-2.96 -1.16,-1.88 -1.72,-4.12 -0.56,-2.24 -0.56,-4.44 0,-2.28 0.56,-4.6 0.56,-2.32 1.76,-4.24 1.2,-1.96 3.08,-3.12 1.88,-1.2 4.44,-1.2 2.4,0 4.16,1.12 1.8,1.12 2.92,3 1.16,1.84 1.72,4.08 0.6,2.2 0.6,4.36 0,2.28 -0.56,4.6 -0.56,2.32 -1.76,4.28 -1.16,1.96 -3.04,3.16 -1.84,1.2 -4.48,1.2 z m 0.6,-1.8 q 1.28,0 2.04,-1.48 0.8,-1.52 1.16,-3.96 0.36,-2.44 0.36,-5.28 0,-2.12 -0.28,-4.16 -0.28,-2.04 -0.84,-3.68 -0.56,-1.68 -1.36,-2.64 -0.8,-1 -1.88,-1 -1.28,0 -2.04,1.52 -0.76,1.48 -1.12,3.92 -0.32,2.4 -0.32,5.24 0,2.12 0.24,4.16 0.28,2.04 0.8,3.72 0.56,1.64 1.36,2.64 0.8,1 1.88,1 z" />
    <path
       id="path4638"
       style="font-style:normal;font-variant:normal;font-weight:bold;font-stretch:normal;font-family:'EB Garamond';-inkscape-font-specification:'EB Garamond Bold';text-align:center;text-anchor:middle;fill:#ffffff"
       d="m 1295.1557,344.19623 q -0.24,0 -0.56,-0.16 -0.32,-0.16 -0.32,-0.44 0,-0.4 0.28,-0.56 0.28,-0.16 0.64,-0.24 1.6,-0.28 2.16,-0.76 0.56,-0.52 0.56,-1.72 v -2.28 q 0,-0.2 -0.24,-0.28 -0.24,-0.12 -0.44,-0.12 -1.24,0 -2.84,0.08 -1.6,0.08 -3.28,0.16 -1.64,0.08 -3.12,0.08 -0.2,0 -0.4,-0.08 -0.2,-0.08 -0.2,-0.24 0,-0.16 0.2,-0.44 0.28,-0.36 0.44,-0.56 0.2,-0.24 0.36,-0.48 0.2,-0.28 0.4,-0.56 l 9.88,-15.8 q 0.32,-0.52 0.8,-0.96 0.52,-0.44 0.96,-0.44 h 0.36 q 0.32,0 0.36,0.32 0.08,0.28 -0.08,0.52 l -9.4,14.92 q -0.16,0.32 -0.04,0.44 0.12,0.12 0.36,0.12 h 5.6 q 0.12,0 0.2,-0.08 0.12,-0.08 0.12,-0.2 v -4.8 q 0,-0.72 0.08,-0.96 0.12,-0.28 0.56,-0.44 1.08,-0.52 2.32,-0.68 1.24,-0.16 1.72,-0.16 0.8,0 0.92,0.8 0.16,0.76 0.16,2.28 v 4.2 q 0,0.28 0.2,0.28 0.52,0.04 0.76,0.04 0.28,0 0.68,0 0.6,0 1.08,0 0.48,-0.04 1.2,-0.08 0.48,0 0.48,0.28 0,0.32 -0.16,0.92 -0.16,0.6 -0.4,1.12 -0.2,0.48 -0.36,0.48 -0.48,0 -0.92,0 -0.44,-0.04 -0.96,-0.04 -0.4,0 -0.6,0.04 -0.16,0 -0.44,0.04 -0.16,0.04 -0.36,0.12 -0.2,0.08 -0.2,0.12 v 2.28 q 0,1.12 0.52,1.6 0.52,0.48 2.08,0.92 0.36,0.12 0.64,0.28 0.32,0.16 0.32,0.52 0,0.24 -0.28,0.4 -0.24,0.16 -0.56,0.16 -0.88,0 -1.92,-0.04 -1,-0.04 -1.96,-0.08 -0.96,-0.04 -1.8,-0.04 -0.84,0 -1.8,0.04 -0.92,0.04 -1.88,0.08 -0.96,0.08 -1.88,0.08 z" />
  </g>
</svg>
