<?xml version="1.0" encoding="UTF-8" standalone="no"?>
<svg
   xmlns:osb="http://www.openswatchbook.org/uri/2009/osb"
   xmlns:dc="http://purl.org/dc/elements/1.1/"
   xmlns:cc="http://creativecommons.org/ns#"
   xmlns:rdf="http://www.w3.org/1999/02/22-rdf-syntax-ns#"
   xmlns:svg="http://www.w3.org/2000/svg"
   xmlns="http://www.w3.org/2000/svg"
   xmlns:xlink="http://www.w3.org/1999/xlink"
   width="444.5mm"
   height="277.8125mm"
   viewBox="0 0 444.5 277.8125"
   version="1.1"
   id="svg8">
  <defs
     id="defs2">
    <linearGradient
       id="linearGradient2485"
       osb:paint="solid">
      <stop
         style="stop-color:#0090e6;stop-opacity:1;"
         offset="0"
         id="stop2483" />
    </linearGradient>
    <linearGradient
       id="linearGradient2439"
       osb:paint="solid">
      <stop
         style="stop-color:#000000;stop-opacity:1;"
         offset="0"
         id="stop2437" />
    </linearGradient>
    <linearGradient
       id="linearGradient899">
      <stop
         style="stop-color:#00a562;stop-opacity:1;"
         offset="0"
         id="stop895" />
      <stop
         style="stop-color:#00a562;stop-opacity:0;"
         offset="1"
         id="stop897" />
    </linearGradient>
    <linearGradient
       xlink:href="#linearGradient899"
       id="linearGradient903"
       x1="1689.3649"
       y1="-377.6445"
       x2="1691.1647"
       y2="-379.54852"
       gradientUnits="userSpaceOnUse"
       gradientTransform="matrix(0.26458332,0,0,0.26458333,-420.8499,-29.066667)" />
    <linearGradient
       xlink:href="#linearGradient866"
       id="linearGradient868"
       x1="443.93756"
       y1="139.69971"
       x2="444.5"
       y2="138.90625"
       gradientUnits="userSpaceOnUse"
       gradientTransform="translate(-151.85513,282.52119)" />
    <linearGradient
       id="linearGradient866">
      <stop
         style="stop-color:#6e7078;stop-opacity:1;"
         offset="0"
         id="stop862" />
      <stop
         style="stop-color:#6e7078;stop-opacity:0;"
         offset="1"
         id="stop864" />
    </linearGradient>
    <linearGradient
       xlink:href="#1200"
       id="linearGradient882"
       x1="444.12201"
       y1="139.37872"
       x2="444.5"
       y2="138.90625"
       gradientUnits="userSpaceOnUse"
       gradientTransform="translate(-455.5654,-147.14645)" />
    <linearGradient
       id="1200">
      <stop
         style="stop-color:#e16459;stop-opacity:1"
         offset="0"
         id="stop872" />
      <stop
         style="stop-color:#db4437;stop-opacity:0;"
         offset="1"
         id="stop874" />
    </linearGradient>
    <linearGradient
       gradientTransform="translate(-1.4248e-4,4.547e-4)"
       xlink:href="#linearGradient1017"
       id="linearGradient1019"
       x1="444.19131"
       y1="139.3998"
       x2="465.91299"
       y2="138.90625"
       gradientUnits="userSpaceOnUse" />
    <linearGradient
       id="linearGradient1017">
      <stop
         style="stop-color:#0090e6;stop-opacity:1;"
         offset="0"
         id="stop1013" />
      <stop
         style="stop-color:#0090e6;stop-opacity:0;"
         offset="1"
         id="stop1015" />
    </linearGradient>
  </defs>
  <metadata
     id="metadata5">
    <rdf:RDF>
      <cc:Work
         rdf:about="">
        <dc:format>image/svg+xml</dc:format>
        <dc:type
           rdf:resource="http://purl.org/dc/dcmitype/StillImage" />
        <dc:title></dc:title>
      </cc:Work>
    </rdf:RDF>
  </metadata>
  <path
     id="path1098"
     d="M 286.33188,0 H 0 V 277.8125 H 444.49999 V 132.71902 Z"
     style="opacity:1;fill:url(#linearGradient1019);fill-opacity:1;stroke:none;stroke-width:9.70262432;stroke-miterlimit:4;stroke-dasharray:none;paint-order:stroke markers fill" />
  <g
     id="flowRoot907"
     style="font-style:normal;font-weight:normal;font-size:40px;line-height:1.25;font-family:sans-serif;letter-spacing:0px;word-spacing:0px;fill:#ffffff;fill-opacity:1;stroke:none"
     transform="matrix(1.0619415,0,0,1.171558,-499.74756,-245.52652)"
     aria-label="Install Pidgin in Ubuntu 20.04">
    <path
       id="path923"
       style="font-style:normal;font-variant:normal;font-weight:bold;font-stretch:normal;font-family:'EB Garamond';-inkscape-font-specification:'EB Garamond Bold';text-align:center;text-anchor:middle;fill:#ffffff"
       d="m 623.47815,291.28278 q -0.32,0 -0.56,-0.12 -0.24,-0.16 -0.24,-0.44 0,-0.64 0.84,-0.84 1.52,-0.32 2.12,-0.8 0.6,-0.52 0.6,-1.8 v -18.16 q 0,-1.28 -0.52,-1.8 -0.52,-0.56 -2.12,-0.92 -0.84,-0.2 -0.84,-0.84 0,-0.28 0.24,-0.44 0.24,-0.16 0.56,-0.16 0.92,0 1.92,0.04 1.04,0.04 2,0.12 1,0.04 1.84,0.04 0.8,0 1.8,-0.04 1.04,-0.04 2.08,-0.08 1.08,-0.04 1.96,-0.04 0.36,0 0.56,0.16 0.2,0.12 0.2,0.4 0,0.4 -0.24,0.56 -0.2,0.16 -0.64,0.28 -1.6,0.44 -2.12,1 -0.52,0.52 -0.52,1.76 v 18.08 q 0,1.16 0.56,1.72 0.6,0.52 2.16,0.92 0.4,0.12 0.6,0.28 0.24,0.16 0.24,0.52 0,0.28 -0.2,0.44 -0.16,0.16 -0.52,0.16 -0.88,0 -1.96,-0.08 -1.08,-0.04 -2.12,-0.08 -1.04,-0.04 -1.84,-0.04 -0.84,0 -1.84,0.04 -1,0.04 -2.04,0.08 -1.04,0.08 -1.96,0.08 z" />
    <path
       id="path925"
       style="font-style:normal;font-variant:normal;font-weight:bold;font-stretch:normal;font-family:'EB Garamond';-inkscape-font-specification:'EB Garamond Bold';text-align:center;text-anchor:middle;fill:#ffffff"
       d="m 638.23809,291.28278 q -0.28,0 -0.56,-0.12 -0.24,-0.16 -0.24,-0.44 0,-0.32 0.28,-0.48 0.28,-0.2 0.64,-0.32 0.6,-0.2 1.04,-0.44 0.48,-0.28 0.48,-1.08 v -9.16 q 0,-0.88 -0.28,-1.48 -0.24,-0.6 -0.96,-0.76 -0.16,-0.04 -0.32,-0.2 -0.12,-0.16 -0.12,-0.52 0,-0.56 0.4,-0.68 1.36,-0.32 2.96,-0.84 1.64,-0.56 2.8,-1.16 0.16,-0.08 0.36,-0.2 0.2,-0.12 0.36,-0.12 0.24,0 0.28,0.16 0.08,0.12 0.08,0.32 0,0.32 -0.12,1.04 -0.08,0.68 -0.08,1.24 0,0.16 0,0.36 0.04,0.2 0.08,0.24 1.36,-1.32 2.76,-2.04 1.4,-0.72 3.24,-0.72 2.08,0 3.48,1.56 1.44,1.52 1.44,4.16 v 8.8 q 0,0.8 0.44,1.08 0.48,0.24 1.08,0.44 0.32,0.12 0.56,0.32 0.24,0.16 0.24,0.48 0,0.28 -0.24,0.44 -0.2,0.12 -0.44,0.12 -0.8,0 -1.52,-0.08 -0.68,-0.04 -1.36,-0.08 -0.64,-0.04 -1.36,-0.04 -0.68,0 -1.36,0.04 -0.68,0.04 -1.36,0.08 -0.68,0.08 -1.48,0.08 -0.24,0 -0.48,-0.12 -0.2,-0.16 -0.2,-0.44 0,-0.32 0.24,-0.48 0.24,-0.2 0.56,-0.32 0.6,-0.2 1,-0.44 0.4,-0.28 0.4,-1.08 v -7.96 q 0,-1.52 -0.72,-2.36 -0.68,-0.88 -1.84,-0.92 -0.88,0 -1.56,0.28 -0.68,0.28 -1.4,0.76 -0.16,0.16 -0.24,0.36 -0.08,0.2 -0.08,0.4 v 9.44 q 0,0.8 0.44,1.08 0.44,0.24 1,0.44 0.8,0.24 0.8,0.8 0,0.24 -0.2,0.4 -0.2,0.16 -0.48,0.16 -0.8,0 -1.48,-0.08 -0.68,-0.04 -1.28,-0.08 -0.6,-0.04 -1.32,-0.04 -0.68,0 -1.4,0.04 -0.68,0.04 -1.44,0.08 -0.72,0.08 -1.52,0.08 z" />
    <path
       id="path927"
       style="font-style:normal;font-variant:normal;font-weight:bold;font-stretch:normal;font-family:'EB Garamond';-inkscape-font-specification:'EB Garamond Bold';text-align:center;text-anchor:middle;fill:#ffffff"
       d="m 665.83809,291.72278 q -1.32,0 -2.56,-0.32 -1.24,-0.32 -2.24,-1.04 -0.36,-0.6 -0.52,-1.88 -0.16,-1.28 -0.12,-2.68 0,-0.48 0.8,-0.48 0.32,0 0.56,0.2 0.24,0.2 0.28,0.4 0.76,1.68 1.76,2.88 1,1.16 2.4,1.16 1.08,0 1.64,-0.64 0.56,-0.68 0.56,-1.52 0,-1.04 -0.84,-1.72 -0.8,-0.72 -1.96,-1.32 -1.16,-0.6 -2.2,-1.36 -1.04,-0.76 -1.72,-1.8 -0.64,-1.08 -0.64,-2.56 0,-1.56 0.84,-2.72 0.88,-1.16 2.32,-1.8 1.48,-0.68 3.28,-0.68 1.32,0 2.44,0.32 1.12,0.28 1.52,0.56 0.32,0.4 0.52,1.52 0.2,1.08 0.2,2.4 0,0.44 -0.72,0.44 -0.28,0 -0.6,-0.2 -0.28,-0.2 -0.36,-0.4 -0.52,-1.56 -1.36,-2.32 -0.8,-0.8 -1.8,-0.8 -0.88,0 -1.6,0.56 -0.72,0.56 -0.72,1.52 0,0.84 0.76,1.52 0.8,0.64 1.96,1.28 2.6,1.36 3.72,2.64 1.12,1.24 1.12,3.32 0,2.6 -1.72,4.08 -1.68,1.44 -5,1.44 z" />
    <path
       id="path929"
       style="font-style:normal;font-variant:normal;font-weight:bold;font-stretch:normal;font-family:'EB Garamond';-inkscape-font-specification:'EB Garamond Bold';text-align:center;text-anchor:middle;fill:#ffffff"
       d="m 682.39804,291.72278 q -2.64,0 -3.96,-1.32 -1.32,-1.36 -1.32,-3.8 v -9.2 q 0,-0.36 -0.28,-0.52 -0.24,-0.16 -0.96,-0.2 h -0.52 q -0.28,0 -0.48,-0.44 -0.16,-0.48 -0.16,-0.84 0,-0.08 0.04,-0.2 0.08,-0.16 0.2,-0.2 0.96,-0.36 2.04,-1.08 1.12,-0.76 2.12,-1.6 1.04,-0.84 1.68,-1.4 0.28,-0.2 0.48,-0.36 0.2,-0.16 0.52,-0.16 0.36,0 0.52,0.16 0.16,0.12 0.08,0.64 l -0.24,2.36 q -0.04,0.48 0.2,0.68 0.28,0.16 0.76,0.16 h 4.76 q 0.12,0 0.24,0.28 0.12,0.28 0.12,0.52 0,0.56 -0.16,1.08 -0.16,0.52 -0.36,0.52 h -3.72 q -0.92,0 -1.28,0.24 -0.32,0.2 -0.32,0.76 v 7.56 q 0,1.84 0.68,2.76 0.72,0.88 1.88,0.88 1.16,0 1.68,-0.24 0.56,-0.24 1,-0.4 0.16,-0.08 0.24,-0.08 0.2,0 0.32,0.24 0.12,0.24 0.12,0.56 0,0.24 -0.84,0.88 -0.84,0.64 -2.2,1.2 -1.32,0.56 -2.88,0.56 z" />
    <path
       id="path931"
       style="font-style:normal;font-variant:normal;font-weight:bold;font-stretch:normal;font-family:'EB Garamond';-inkscape-font-specification:'EB Garamond Bold';text-align:center;text-anchor:middle;fill:#ffffff"
       d="m 693.79796,291.72278 q -1.08,0 -2,-0.52 -0.92,-0.52 -1.48,-1.36 -0.52,-0.84 -0.52,-1.84 0,-1.36 0.84,-2.28 0.88,-0.92 2.56,-1.64 l 3.56,-1.56 q 0.8,-0.36 0.96,-0.64 0.2,-0.28 0.2,-1.04 l 0.04,-2.28 q 0.04,-1.12 -0.4,-1.76 -0.44,-0.68 -1.32,-0.68 -0.52,0 -1.04,0.24 -0.52,0.2 -0.8,0.48 -0.12,0.16 -0.2,0.4 -0.04,0.2 -0.04,0.44 0,0.24 0.04,0.6 0.04,0.32 0.04,0.56 0,0.24 -0.64,0.64 -0.64,0.36 -1.48,0.68 -0.84,0.28 -1.44,0.28 -0.28,0 -0.52,-0.24 -0.2,-0.24 -0.2,-0.6 0,-0.64 0.44,-1.24 0.44,-0.64 1.44,-1.44 1.04,-0.88 2.28,-1.56 1.24,-0.68 2.44,-1.08 1.24,-0.4 2.08,-0.4 2.16,0 3.44,1.4 1.28,1.36 1.2,3.64 l -0.2,8.08 q -0.04,0.92 0.32,1.56 0.36,0.64 0.88,0.64 0.76,0 1.32,-0.52 0.12,-0.12 0.24,-0.12 0.2,0 0.32,0.12 0.16,0.12 0.16,0.32 0,0.48 -0.72,1.24 -0.76,0.72 -1.6,1.08 -0.84,0.4 -1.76,0.4 -2.24,0 -3.72,-2.28 h -0.08 q -1.32,1.2 -2.4,1.72 -1.04,0.56 -2.24,0.56 z m 2.4,-2.6 q 0.44,0 0.72,-0.12 0.28,-0.16 0.56,-0.48 0.12,-0.16 0.2,-0.4 0.08,-0.28 0.08,-0.64 l 0.12,-2.88 q 0,-0.4 -0.12,-0.52 -0.12,-0.12 -0.28,-0.12 -0.08,0 -0.2,0.04 -0.12,0.04 -0.28,0.12 -1.16,0.56 -1.72,1.16 -0.56,0.56 -0.56,1.84 0,1.16 0.48,1.6 0.48,0.4 1,0.4 z" />
    <path
       id="path933"
       style="font-style:normal;font-variant:normal;font-weight:bold;font-stretch:normal;font-family:'EB Garamond';-inkscape-font-specification:'EB Garamond Bold';text-align:center;text-anchor:middle;fill:#ffffff"
       d="m 707.59795,291.28278 q -0.36,0 -0.6,-0.12 -0.2,-0.16 -0.2,-0.44 0,-0.32 0.24,-0.48 0.24,-0.2 0.68,-0.32 0.6,-0.2 1.04,-0.44 0.48,-0.24 0.48,-1.08 v -19.24 q 0,-1.08 -0.32,-1.88 -0.28,-0.8 -1.28,-1 -0.4,-0.08 -0.4,-0.6 0,-0.52 0.36,-0.6 1.04,-0.2 2.24,-0.56 1.2,-0.4 2.28,-0.8 1.08,-0.44 1.68,-0.64 0.32,-0.12 0.52,-0.12 0.24,0 0.32,0.16 0.08,0.12 0.08,0.32 0,0.28 -0.12,1.04 -0.08,0.76 -0.12,1.72 v 22.12 q 0,0.88 0.44,1.12 0.48,0.2 1.08,0.4 0.44,0.16 0.68,0.32 0.24,0.16 0.24,0.48 0,0.28 -0.24,0.44 -0.2,0.12 -0.56,0.12 -0.76,0 -1.52,-0.04 -0.72,-0.04 -1.44,-0.04 -0.68,-0.04 -1.4,-0.04 -0.68,0 -1.36,0.04 -0.64,0.04 -1.32,0.08 -0.68,0.08 -1.48,0.08 z" />
    <path
       id="path935"
       style="font-style:normal;font-variant:normal;font-weight:bold;font-stretch:normal;font-family:'EB Garamond';-inkscape-font-specification:'EB Garamond Bold';text-align:center;text-anchor:middle;fill:#ffffff"
       d="m 718.99795,291.28278 q -0.36,0 -0.6,-0.12 -0.2,-0.16 -0.2,-0.44 0,-0.32 0.24,-0.48 0.24,-0.2 0.68,-0.32 0.6,-0.2 1.04,-0.44 0.48,-0.24 0.48,-1.08 v -19.24 q 0,-1.08 -0.32,-1.88 -0.28,-0.8 -1.28,-1 -0.4,-0.08 -0.4,-0.6 0,-0.52 0.36,-0.6 1.04,-0.2 2.24,-0.56 1.2,-0.4 2.28,-0.8 1.08,-0.44 1.68,-0.64 0.32,-0.12 0.52,-0.12 0.24,0 0.32,0.16 0.08,0.12 0.08,0.32 0,0.28 -0.12,1.04 -0.08,0.76 -0.12,1.72 v 22.12 q 0,0.88 0.44,1.12 0.48,0.2 1.08,0.4 0.44,0.16 0.68,0.32 0.24,0.16 0.24,0.48 0,0.28 -0.24,0.44 -0.2,0.12 -0.56,0.12 -0.76,0 -1.52,-0.04 -0.72,-0.04 -1.44,-0.04 -0.68,-0.04 -1.4,-0.04 -0.68,0 -1.36,0.04 -0.64,0.04 -1.32,0.08 -0.68,0.08 -1.48,0.08 z" />
    <path
       id="path937"
       style="font-style:normal;font-variant:normal;font-weight:bold;font-stretch:normal;font-family:'EB Garamond';-inkscape-font-specification:'EB Garamond Bold';text-align:center;text-anchor:middle;fill:#ffffff"
       d="m 597.37825,341.75806 q -0.32,0 -0.56,-0.12 -0.24,-0.16 -0.24,-0.44 0,-0.64 0.84,-0.84 1.52,-0.32 2.08,-0.8 0.6,-0.52 0.6,-1.84 v -17.92 q 0,-1.36 -0.48,-1.96 -0.48,-0.64 -1.92,-0.96 -0.52,-0.12 -0.72,-0.32 -0.2,-0.24 -0.2,-0.52 0,-0.24 0.24,-0.4 0.24,-0.2 0.64,-0.2 0.92,0 1.84,0.04 0.96,0.04 1.84,0.12 0.92,0.04 1.72,0.04 0.96,0 1.68,-0.08 0.76,-0.12 1.64,-0.2 0.92,-0.12 2.2,-0.12 4.88,0 7.72,2.08 2.88,2.04 2.88,5.64 0,2.52 -1.08,4.64 -1.04,2.12 -3.2,3.44 -2.12,1.28 -5.4,1.28 -1.04,0 -1.6,-0.32 -0.52,-0.32 -0.52,-0.76 0,-0.28 0.24,-0.44 0.28,-0.2 0.48,-0.2 0.44,0 0.76,0.12 0.32,0.08 0.88,0.08 1.68,0 2.52,-1.88 0.88,-1.88 0.88,-4.96 0,-3.68 -1.2,-5.32 -1.2,-1.64 -3.36,-1.64 -1.12,0 -1.72,0.52 -0.56,0.48 -0.56,1.52 l -0.04,18.6 q 0,1.28 0.68,1.84 0.68,0.52 2.36,0.88 0.44,0.08 0.64,0.28 0.24,0.16 0.24,0.52 0,0.28 -0.2,0.44 -0.2,0.16 -0.56,0.16 -0.88,0 -2.04,-0.08 -1.12,-0.04 -2.24,-0.08 -1.12,-0.04 -1.92,-0.04 -0.84,0 -1.84,0.04 -1,0.04 -2.08,0.08 -1.04,0.08 -1.92,0.08 z" />
    <path
       id="path939"
       style="font-style:normal;font-variant:normal;font-weight:bold;font-stretch:normal;font-family:'EB Garamond';-inkscape-font-specification:'EB Garamond Bold';text-align:center;text-anchor:middle;fill:#ffffff"
       d="m 621.65818,341.75806 q -0.24,0 -0.44,-0.12 -0.2,-0.16 -0.2,-0.4 0,-0.32 0.2,-0.52 0.2,-0.2 0.52,-0.28 1.04,-0.24 1.44,-0.52 0.44,-0.32 0.44,-0.96 v -8.64 q 0,-1.36 -0.44,-1.92 -0.4,-0.6 -1.28,-0.72 -0.24,-0.04 -0.36,-0.24 -0.12,-0.2 -0.12,-0.48 0,-0.6 0.44,-0.68 2.08,-0.4 3.68,-1.12 1.64,-0.72 2.52,-1.12 0.64,-0.32 0.8,-0.32 0.52,0 0.52,0.48 -0.04,0.68 -0.2,1.72 -0.12,1 -0.24,2.08 -0.08,1.08 -0.08,2.08 v 8.84 q 0,0.56 0.4,0.88 0.44,0.32 1.52,0.64 0.32,0.12 0.52,0.28 0.2,0.16 0.2,0.48 0,0.52 -0.6,0.52 -0.76,0 -1.6,-0.04 -0.84,-0.04 -1.64,-0.08 -0.76,-0.04 -1.48,-0.04 -0.68,0 -1.44,0.04 -0.72,0.04 -1.52,0.08 -0.76,0.08 -1.56,0.08 z m 4.4,-19.84 q -1.24,0 -2.2,-0.92 -0.92,-0.92 -0.92,-2.2 0,-1.36 0.92,-2.28 0.96,-0.92 2.2,-0.92 1.4,0 2.32,0.92 0.92,0.92 0.92,2.28 0,1.28 -0.92,2.2 -0.92,0.92 -2.32,0.92 z" />
    <path
       id="path941"
       style="font-style:normal;font-variant:normal;font-weight:bold;font-stretch:normal;font-family:'EB Garamond';-inkscape-font-specification:'EB Garamond Bold';text-align:center;text-anchor:middle;fill:#ffffff"
       d="m 646.29811,342.39806 q -0.12,0 -0.36,-0.28 -0.2,-0.24 -0.2,-0.4 0.08,-0.6 0.12,-1.12 0.08,-0.56 0.08,-1 v -0.24 q -0.8,1.24 -2.24,2.04 -1.4,0.8 -3.04,0.8 -2.24,0 -4,-1.12 -1.72,-1.12 -2.72,-3.04 -1,-1.92 -1,-4.2 0,-2.72 1.2,-4.84 1.2,-2.12 3.36,-3.32 2.16,-1.24 5,-1.24 0.6,0 1.24,0.12 0.68,0.08 1.24,0.24 0.56,0.12 0.52,0.12 0.16,0 0.16,-0.52 v -4.76 q 0,-1.44 -0.36,-2.08 -0.36,-0.64 -1.2,-0.8 -0.48,-0.12 -0.48,-0.6 0,-0.52 0.44,-0.6 1.48,-0.32 3.04,-0.8 1.6,-0.52 2.6,-0.96 0.52,-0.24 0.72,-0.28 0.2,-0.08 0.24,-0.08 0.44,0 0.44,0.48 0,-0.12 -0.04,0.32 -0.04,0.4 -0.08,1.08 -0.04,0.68 -0.08,1.36 l -0.2,20.16 q 0,1.36 0.2,1.96 0.2,0.6 0.72,0.6 0.2,0 0.4,-0.04 0.24,-0.04 1.16,-0.08 0.56,-0.04 0.56,0.4 0,0.32 -0.24,0.68 -0.24,0.36 -0.44,0.36 -1.44,0.16 -3.04,0.52 -1.56,0.36 -3.04,0.92 -0.24,0.12 -0.4,0.16 -0.16,0.08 -0.28,0.08 z m -3.6,-2.92 q 0.6,0 1.48,-0.32 0.92,-0.32 1.48,-0.92 l -0.04,-8.84 q 0,-0.72 -0.56,-1.4 -0.52,-0.72 -1.36,-1.2 -0.8,-0.48 -1.6,-0.48 -0.96,0 -1.8,0.8 -0.8,0.76 -1.32,2.2 -0.48,1.4 -0.48,3.44 0,1.64 0.32,2.88 0.36,1.24 0.96,2.12 0.6,0.84 1.36,1.28 0.76,0.44 1.56,0.44 z" />
    <path
       id="path943"
       style="font-style:normal;font-variant:normal;font-weight:bold;font-stretch:normal;font-family:'EB Garamond';-inkscape-font-specification:'EB Garamond Bold';text-align:center;text-anchor:middle;fill:#ffffff"
       d="m 665.37809,353.19806 q -3.92,0 -6.12,-1.24 -2.16,-1.2 -2.16,-3.32 0,-1.2 0.28,-1.96 0.28,-0.72 1.28,-1.44 0.76,-0.56 1.48,-1.12 0.72,-0.56 1.24,-0.92 l 1.96,0.68 q -1.24,0.72 -1.96,1.56 -0.68,0.84 -0.68,1.96 0,1.64 1.36,2.72 1.4,1.08 3.48,1.08 2.76,0 3.92,-1.08 0.72,-0.72 1.16,-1.64 0.44,-0.88 0.44,-1.8 0,-0.64 -0.44,-1.04 -0.44,-0.4 -1.6,-0.68 -1.12,-0.28 -3.16,-0.48 -4.16,-0.4 -5.92,-1.56 -1.76,-1.16 -1.76,-3.08 0,-0.36 0.2,-0.72 0.24,-0.4 0.88,-0.84 0.64,-0.48 1.16,-0.84 0.52,-0.4 0.88,-0.72 0.36,-0.36 0.48,-0.64 l 2,0.68 q -0.8,0.28 -1.32,0.76 -0.48,0.48 -0.48,0.84 0,0.44 0.52,0.72 0.52,0.28 1.76,0.48 1.24,0.16 3.4,0.32 4.32,0.36 6.28,1.36 1.96,0.96 1.96,2.84 0,1.64 -0.92,3.24 -0.92,1.64 -2.44,2.96 -1.52,1.36 -3.4,2.12 -1.84,0.8 -3.76,0.8 z m 0.52,-17.16 q 1.28,0 2,-1.4 0.76,-1.44 0.76,-3.76 0,-1.48 -0.4,-2.56 -0.36,-1.12 -1,-1.72 -0.64,-0.64 -1.52,-0.64 -0.76,0 -1.4,0.64 -0.64,0.64 -1.04,1.72 -0.36,1.04 -0.36,2.44 0,1.48 0.4,2.68 0.4,1.2 1.08,1.92 0.68,0.68 1.48,0.68 z m -0.44,1.76 q -1.76,0 -3.48,-0.84 -1.68,-0.88 -2.8,-2.4 -1.08,-1.52 -1.08,-3.4 0,-2 1.12,-3.56 1.16,-1.56 3,-2.4 1.88,-0.88 3.96,-0.88 1.24,0 2.32,0.28 1.12,0.28 2.44,0.48 0.76,0.16 1.52,0.24 0.76,0.08 1.68,0.08 0.6,0 1.2,-0.04 0.6,-0.08 1,-0.08 0.64,0 0.64,0.88 0,0.76 -0.52,1.44 -0.24,0.28 -0.52,0.28 h -1.08 q -1.04,0 -1.4,0.32 -0.08,0.08 -0.12,0.2 -0.04,0.08 -0.08,0.44 0,0.32 0,1.24 0,2.08 -1.08,3.84 -1.08,1.76 -2.84,2.84 -1.76,1.04 -3.88,1.04 z" />
    <path
       id="path945"
       style="font-style:normal;font-variant:normal;font-weight:bold;font-stretch:normal;font-family:'EB Garamond';-inkscape-font-specification:'EB Garamond Bold';text-align:center;text-anchor:middle;fill:#ffffff"
       d="m 678.21801,341.75806 q -0.24,0 -0.44,-0.12 -0.2,-0.16 -0.2,-0.4 0,-0.32 0.2,-0.52 0.2,-0.2 0.52,-0.28 1.04,-0.24 1.44,-0.52 0.44,-0.32 0.44,-0.96 v -8.64 q 0,-1.36 -0.44,-1.92 -0.4,-0.6 -1.28,-0.72 -0.24,-0.04 -0.36,-0.24 -0.12,-0.2 -0.12,-0.48 0,-0.6 0.44,-0.68 2.08,-0.4 3.68,-1.12 1.64,-0.72 2.52,-1.12 0.64,-0.32 0.8,-0.32 0.52,0 0.52,0.48 -0.04,0.68 -0.2,1.72 -0.12,1 -0.24,2.08 -0.08,1.08 -0.08,2.08 v 8.84 q 0,0.56 0.4,0.88 0.44,0.32 1.52,0.64 0.32,0.12 0.52,0.28 0.2,0.16 0.2,0.48 0,0.52 -0.6,0.52 -0.76,0 -1.6,-0.04 -0.84,-0.04 -1.64,-0.08 -0.76,-0.04 -1.48,-0.04 -0.68,0 -1.44,0.04 -0.72,0.04 -1.52,0.08 -0.76,0.08 -1.56,0.08 z m 4.4,-19.84 q -1.24,0 -2.2,-0.92 -0.92,-0.92 -0.92,-2.2 0,-1.36 0.92,-2.28 0.96,-0.92 2.2,-0.92 1.4,0 2.32,0.92 0.92,0.92 0.92,2.28 0,1.28 -0.92,2.2 -0.92,0.92 -2.32,0.92 z" />
    <path
       id="path947"
       style="font-style:normal;font-variant:normal;font-weight:bold;font-stretch:normal;font-family:'EB Garamond';-inkscape-font-specification:'EB Garamond Bold';text-align:center;text-anchor:middle;fill:#ffffff"
       d="m 690.17794,341.75806 q -0.28,0 -0.56,-0.12 -0.24,-0.16 -0.24,-0.44 0,-0.32 0.28,-0.48 0.28,-0.2 0.64,-0.32 0.6,-0.2 1.04,-0.44 0.48,-0.28 0.48,-1.08 v -9.16 q 0,-0.88 -0.28,-1.48 -0.24,-0.6 -0.96,-0.76 -0.16,-0.04 -0.32,-0.2 -0.12,-0.16 -0.12,-0.52 0,-0.56 0.4,-0.68 1.36,-0.32 2.96,-0.84 1.64,-0.56 2.8,-1.16 0.16,-0.08 0.36,-0.2 0.2,-0.12 0.36,-0.12 0.24,0 0.28,0.16 0.08,0.12 0.08,0.32 0,0.32 -0.12,1.04 -0.08,0.68 -0.08,1.24 0,0.16 0,0.36 0.04,0.2 0.08,0.24 1.36,-1.32 2.76,-2.04 1.4,-0.72 3.24,-0.72 2.08,0 3.48,1.56 1.44,1.52 1.44,4.16 v 8.8 q 0,0.8 0.44,1.08 0.48,0.24 1.08,0.44 0.32,0.12 0.56,0.32 0.24,0.16 0.24,0.48 0,0.28 -0.24,0.44 -0.2,0.12 -0.44,0.12 -0.8,0 -1.52,-0.08 -0.68,-0.04 -1.36,-0.08 -0.64,-0.04 -1.36,-0.04 -0.68,0 -1.36,0.04 -0.68,0.04 -1.36,0.08 -0.68,0.08 -1.48,0.08 -0.24,0 -0.48,-0.12 -0.2,-0.16 -0.2,-0.44 0,-0.32 0.24,-0.48 0.24,-0.2 0.56,-0.32 0.6,-0.2 1,-0.44 0.4,-0.28 0.4,-1.08 v -7.96 q 0,-1.52 -0.72,-2.36 -0.68,-0.88 -1.84,-0.92 -0.88,0 -1.56,0.28 -0.68,0.28 -1.4,0.76 -0.16,0.16 -0.24,0.36 -0.08,0.2 -0.08,0.4 v 9.44 q 0,0.8 0.44,1.08 0.44,0.24 1,0.44 0.8,0.24 0.8,0.8 0,0.24 -0.2,0.4 -0.2,0.16 -0.48,0.16 -0.8,0 -1.48,-0.08 -0.68,-0.04 -1.28,-0.08 -0.6,-0.04 -1.32,-0.04 -0.68,0 -1.4,0.04 -0.68,0.04 -1.44,0.08 -0.72,0.08 -1.52,0.08 z" />
    <path
       id="path949"
       style="font-style:normal;font-variant:normal;font-weight:bold;font-stretch:normal;font-family:'EB Garamond';-inkscape-font-specification:'EB Garamond Bold';text-align:center;text-anchor:middle;fill:#ffffff"
       d="m 722.13792,341.75806 q -0.24,0 -0.44,-0.12 -0.2,-0.16 -0.2,-0.4 0,-0.32 0.2,-0.52 0.2,-0.2 0.52,-0.28 1.04,-0.24 1.44,-0.52 0.44,-0.32 0.44,-0.96 v -8.64 q 0,-1.36 -0.44,-1.92 -0.4,-0.6 -1.28,-0.72 -0.24,-0.04 -0.36,-0.24 -0.12,-0.2 -0.12,-0.48 0,-0.6 0.44,-0.68 2.08,-0.4 3.68,-1.12 1.64,-0.72 2.52,-1.12 0.64,-0.32 0.8,-0.32 0.52,0 0.52,0.48 -0.04,0.68 -0.2,1.72 -0.12,1 -0.24,2.08 -0.08,1.08 -0.08,2.08 v 8.84 q 0,0.56 0.4,0.88 0.44,0.32 1.52,0.64 0.32,0.12 0.52,0.28 0.2,0.16 0.2,0.48 0,0.52 -0.6,0.52 -0.76,0 -1.6,-0.04 -0.84,-0.04 -1.64,-0.08 -0.76,-0.04 -1.48,-0.04 -0.68,0 -1.44,0.04 -0.72,0.04 -1.52,0.08 -0.76,0.08 -1.56,0.08 z m 4.4,-19.84 q -1.24,0 -2.2,-0.92 -0.92,-0.92 -0.92,-2.2 0,-1.36 0.92,-2.28 0.96,-0.92 2.2,-0.92 1.4,0 2.32,0.92 0.92,0.92 0.92,2.28 0,1.28 -0.92,2.2 -0.92,0.92 -2.32,0.92 z" />
    <path
       id="path951"
       style="font-style:normal;font-variant:normal;font-weight:bold;font-stretch:normal;font-family:'EB Garamond';-inkscape-font-specification:'EB Garamond Bold';text-align:center;text-anchor:middle;fill:#ffffff"
       d="m 734.09785,341.75806 q -0.28,0 -0.56,-0.12 -0.24,-0.16 -0.24,-0.44 0,-0.32 0.28,-0.48 0.28,-0.2 0.64,-0.32 0.6,-0.2 1.04,-0.44 0.48,-0.28 0.48,-1.08 v -9.16 q 0,-0.88 -0.28,-1.48 -0.24,-0.6 -0.96,-0.76 -0.16,-0.04 -0.32,-0.2 -0.12,-0.16 -0.12,-0.52 0,-0.56 0.4,-0.68 1.36,-0.32 2.96,-0.84 1.64,-0.56 2.8,-1.16 0.16,-0.08 0.36,-0.2 0.2,-0.12 0.36,-0.12 0.24,0 0.28,0.16 0.08,0.12 0.08,0.32 0,0.32 -0.12,1.04 -0.08,0.68 -0.08,1.24 0,0.16 0,0.36 0.04,0.2 0.08,0.24 1.36,-1.32 2.76,-2.04 1.4,-0.72 3.24,-0.72 2.08,0 3.48,1.56 1.44,1.52 1.44,4.16 v 8.8 q 0,0.8 0.44,1.08 0.48,0.24 1.08,0.44 0.32,0.12 0.56,0.32 0.24,0.16 0.24,0.48 0,0.28 -0.24,0.44 -0.2,0.12 -0.44,0.12 -0.8,0 -1.52,-0.08 -0.68,-0.04 -1.36,-0.08 -0.64,-0.04 -1.36,-0.04 -0.68,0 -1.36,0.04 -0.68,0.04 -1.36,0.08 -0.68,0.08 -1.48,0.08 -0.24,0 -0.48,-0.12 -0.2,-0.16 -0.2,-0.44 0,-0.32 0.24,-0.48 0.24,-0.2 0.56,-0.32 0.6,-0.2 1,-0.44 0.4,-0.28 0.4,-1.08 v -7.96 q 0,-1.52 -0.72,-2.36 -0.68,-0.88 -1.84,-0.92 -0.88,0 -1.56,0.28 -0.68,0.28 -1.4,0.76 -0.16,0.16 -0.24,0.36 -0.08,0.2 -0.08,0.4 v 9.44 q 0,0.8 0.44,1.08 0.44,0.24 1,0.44 0.8,0.24 0.8,0.8 0,0.24 -0.2,0.4 -0.2,0.16 -0.48,0.16 -0.8,0 -1.48,-0.08 -0.68,-0.04 -1.28,-0.08 -0.6,-0.04 -1.32,-0.04 -0.68,0 -1.4,0.04 -0.68,0.04 -1.44,0.08 -0.72,0.08 -1.52,0.08 z" />
    <path
       id="path953"
       style="font-style:normal;font-variant:normal;font-weight:bold;font-stretch:normal;font-family:'EB Garamond';-inkscape-font-specification:'EB Garamond Bold';text-align:center;text-anchor:middle;fill:#ffffff"
       d="m 572.45826,392.67334 q -3.76,0 -6.28,-1.32 -2.52,-1.36 -3.8,-3.76 -1.24,-2.4 -1.24,-5.6 v -11.4 q 0,-1.12 -0.52,-2.04 -0.52,-0.92 -1.52,-1.16 -1.12,-0.32 -1.12,-0.88 0,-0.28 0.28,-0.44 0.32,-0.16 0.76,-0.16 1.28,0 2.64,0.12 1.36,0.08 2.56,0.08 1.12,0 2.68,-0.08 1.6,-0.08 2.72,-0.08 0.48,0 0.76,0.16 0.32,0.12 0.32,0.44 0,0.44 -0.6,0.64 -0.6,0.2 -1.28,0.52 -0.6,0.24 -1.04,1 -0.44,0.72 -0.44,2.08 v 10.48 q 0,2.72 0.88,4.48 0.88,1.76 2.32,2.6 1.48,0.84 3.28,0.84 3.64,0 5.4,-2.16 1.8,-2.16 1.8,-6.6 0,-1.04 0,-2.32 0.04,-1.32 0.04,-2.68 0,-1.4 -0.04,-2.64 -0.04,-1.8 -0.28,-2.8 -0.2,-1 -0.64,-1.56 -0.44,-0.56 -1.2,-0.92 -0.44,-0.24 -1.04,-0.4 -0.56,-0.2 -0.56,-0.56 0,-0.32 0.32,-0.44 0.32,-0.12 0.88,-0.12 1.44,0 2.16,0.04 0.76,0.04 1.68,0.04 0.76,0 1.24,-0.04 0.52,-0.04 1.04,-0.08 0.56,-0.04 1.32,-0.04 0.48,0 0.76,0.12 0.28,0.12 0.28,0.48 0,0.52 -1.08,0.84 -1.32,0.36 -1.88,1.24 -0.52,0.84 -0.6,2.28 -0.12,3.04 -0.16,5.6 -0.04,2.52 -0.04,5.16 -0.04,3.24 -1.48,5.76 -1.4,2.48 -3.84,3.88 -2.44,1.4 -5.44,1.4 z" />
    <path
       id="path955"
       style="font-style:normal;font-variant:normal;font-weight:bold;font-stretch:normal;font-family:'EB Garamond';-inkscape-font-specification:'EB Garamond Bold';text-align:center;text-anchor:middle;fill:#ffffff"
       d="m 598.33822,392.67334 q -1.16,0 -2.16,-0.2 -0.96,-0.2 -1.76,-0.4 -0.6,-0.2 -1.12,-0.32 -0.48,-0.12 -0.8,-0.12 -0.4,0 -0.76,0.16 -0.36,0.12 -0.68,0.36 -0.36,0.28 -0.56,0.28 -0.36,0 -0.56,-0.16 -0.16,-0.16 -0.16,-0.36 0,-0.36 0.2,-1.4 0.24,-1.04 0.2,-2.6 l -0.16,-17.8 q 0,-1.04 -0.32,-1.84 -0.28,-0.84 -1.24,-1.04 -0.2,-0.04 -0.36,-0.2 -0.12,-0.16 -0.12,-0.44 0,-0.2 0.12,-0.36 0.12,-0.16 0.32,-0.2 0.88,-0.16 2.04,-0.52 1.16,-0.4 2.24,-0.8 1.12,-0.44 1.72,-0.64 0.4,-0.16 0.56,-0.16 0.24,0 0.32,0.16 0.12,0.12 0.12,0.32 0,0.24 -0.12,1 -0.08,0.76 -0.08,1.52 v 8.56 q 0,0.52 0.08,0.84 0.08,0.28 0.28,0.28 1.24,-0.84 2.56,-1.28 1.36,-0.48 2.56,-0.48 2.08,0 3.76,1.08 1.68,1.08 2.64,2.96 1,1.88 1,4.24 0,2.8 -1.24,5 -1.24,2.16 -3.44,3.36 -2.16,1.2 -5.08,1.2 z m 0.72,-1.68 q 1.08,0 1.84,-0.92 0.76,-0.96 1.16,-2.52 0.44,-1.56 0.44,-3.4 0,-1.6 -0.44,-3.24 -0.4,-1.64 -1.32,-2.72 -0.88,-1.12 -2.28,-1.12 -0.72,0 -1.68,0.24 -0.96,0.2 -1.56,0.68 v 8.52 q 0,1.28 0.52,2.32 0.56,1.04 1.44,1.6 0.88,0.56 1.88,0.56 z" />
    <path
       id="path957"
       style="font-style:normal;font-variant:normal;font-weight:bold;font-stretch:normal;font-family:'EB Garamond';-inkscape-font-specification:'EB Garamond Bold';text-align:center;text-anchor:middle;fill:#ffffff"
       d="m 622.21818,392.95334 q -0.32,0 -0.32,-0.4 0,-0.48 0.08,-1.28 0.12,-0.8 0.12,-1.24 0,-0.16 -0.04,-0.28 0,-0.12 -0.04,-0.16 -1.08,1.32 -2.76,2.24 -1.68,0.88 -3.56,0.88 -1.24,0 -2.24,-0.72 -1,-0.76 -1.6,-2.04 -0.56,-1.28 -0.56,-2.88 v -7.48 q 0,-0.92 -0.36,-1.48 -0.32,-0.56 -1.24,-0.76 -0.24,-0.04 -0.44,-0.2 -0.16,-0.2 -0.16,-0.56 0,-0.28 0.16,-0.44 0.16,-0.2 0.44,-0.24 1.68,-0.08 3.04,-0.32 1.36,-0.28 2.76,-0.64 0.2,-0.04 0.4,-0.08 0.24,-0.08 0.44,-0.08 0.56,0 0.52,0.56 -0.16,0.92 -0.24,1.56 -0.08,0.6 -0.08,1.52 v 7.68 q 0,0.96 0.32,1.68 0.32,0.72 0.88,1.12 0.56,0.4 1.24,0.44 0.64,0 1.24,-0.16 0.64,-0.16 1.2,-0.72 0.24,-0.2 0.52,-0.8 0.28,-0.64 0.28,-1.68 v -6.44 q 0,-0.72 -0.28,-1.16 -0.28,-0.48 -0.76,-0.76 -0.48,-0.28 -1.12,-0.32 -0.44,-0.04 -0.72,-0.2 -0.24,-0.2 -0.24,-0.68 0,-0.4 0.28,-0.6 0.28,-0.2 0.68,-0.2 2.04,-0.12 3.24,-0.2 1.2,-0.12 1.96,-0.24 0.76,-0.12 1.52,-0.28 0.12,-0.04 0.28,-0.08 0.16,-0.04 0.24,-0.04 0.6,0 0.6,0.48 0,0.12 -0.04,0.28 -0.04,0.16 -0.12,0.32 -0.04,0.16 -0.12,0.72 -0.04,0.52 -0.12,1.12 -0.04,0.6 -0.04,0.96 v 9.28 q 0,0.92 0.2,1.24 0.24,0.28 0.52,0.28 0.2,0 0.6,0.04 0.4,0 0.52,0 0.36,0 0.56,0.2 0.2,0.2 0.2,0.52 0,0.36 -0.16,0.6 -0.12,0.2 -0.52,0.24 -1.92,0.16 -3.48,0.68 -1.52,0.48 -2.64,0.92 -0.24,0.08 -0.52,0.16 -0.28,0.12 -0.52,0.12 z" />
    <path
       id="path959"
       style="font-style:normal;font-variant:normal;font-weight:bold;font-stretch:normal;font-family:'EB Garamond';-inkscape-font-specification:'EB Garamond Bold';text-align:center;text-anchor:middle;fill:#ffffff"
       d="m 632.05813,392.23334 q -0.28,0 -0.56,-0.12 -0.24,-0.16 -0.24,-0.44 0,-0.32 0.28,-0.48 0.28,-0.2 0.64,-0.32 0.6,-0.2 1.04,-0.44 0.48,-0.28 0.48,-1.08 v -9.16 q 0,-0.88 -0.28,-1.48 -0.24,-0.6 -0.96,-0.76 -0.16,-0.04 -0.32,-0.2 -0.12,-0.16 -0.12,-0.52 0,-0.56 0.4,-0.68 1.36,-0.32 2.96,-0.84 1.64,-0.56 2.8,-1.16 0.16,-0.08 0.36,-0.2 0.2,-0.12 0.36,-0.12 0.24,0 0.28,0.16 0.08,0.12 0.08,0.32 0,0.32 -0.12,1.04 -0.08,0.68 -0.08,1.24 0,0.16 0,0.36 0.04,0.2 0.08,0.24 1.36,-1.32 2.76,-2.04 1.4,-0.72 3.24,-0.72 2.08,0 3.48,1.56 1.44,1.52 1.44,4.16 v 8.8 q 0,0.8 0.44,1.08 0.48,0.24 1.08,0.44 0.32,0.12 0.56,0.32 0.24,0.16 0.24,0.48 0,0.28 -0.24,0.44 -0.2,0.12 -0.44,0.12 -0.8,0 -1.52,-0.08 -0.68,-0.04 -1.36,-0.08 -0.64,-0.04 -1.36,-0.04 -0.68,0 -1.36,0.04 -0.68,0.04 -1.36,0.08 -0.68,0.08 -1.48,0.08 -0.24,0 -0.48,-0.12 -0.2,-0.16 -0.2,-0.44 0,-0.32 0.24,-0.48 0.24,-0.2 0.56,-0.32 0.6,-0.2 1,-0.44 0.4,-0.28 0.4,-1.08 v -7.96 q 0,-1.52 -0.72,-2.36 -0.68,-0.88 -1.84,-0.92 -0.88,0 -1.56,0.28 -0.68,0.28 -1.4,0.76 -0.16,0.16 -0.24,0.36 -0.08,0.2 -0.08,0.4 v 9.44 q 0,0.8 0.44,1.08 0.44,0.24 1,0.44 0.8,0.24 0.8,0.8 0,0.24 -0.2,0.4 -0.2,0.16 -0.48,0.16 -0.8,0 -1.48,-0.08 -0.68,-0.04 -1.28,-0.08 -0.6,-0.04 -1.32,-0.04 -0.68,0 -1.4,0.04 -0.68,0.04 -1.44,0.08 -0.72,0.08 -1.52,0.08 z" />
    <path
       id="path961"
       style="font-style:normal;font-variant:normal;font-weight:bold;font-stretch:normal;font-family:'EB Garamond';-inkscape-font-specification:'EB Garamond Bold';text-align:center;text-anchor:middle;fill:#ffffff"
       d="m 661.1781,392.67334 q -2.64,0 -3.96,-1.32 -1.32,-1.36 -1.32,-3.8 v -9.2 q 0,-0.36 -0.28,-0.52 -0.24,-0.16 -0.96,-0.2 h -0.52 q -0.28,0 -0.48,-0.44 -0.16,-0.48 -0.16,-0.84 0,-0.08 0.04,-0.2 0.08,-0.16 0.2,-0.2 0.96,-0.36 2.04,-1.08 1.12,-0.76 2.12,-1.6 1.04,-0.84 1.68,-1.4 0.28,-0.2 0.48,-0.36 0.2,-0.16 0.52,-0.16 0.36,0 0.52,0.16 0.16,0.12 0.08,0.64 l -0.24,2.36 q -0.04,0.48 0.2,0.68 0.28,0.16 0.76,0.16 h 4.76 q 0.12,0 0.24,0.28 0.12,0.28 0.12,0.52 0,0.56 -0.16,1.08 -0.16,0.52 -0.36,0.52 h -3.72 q -0.92,0 -1.28,0.24 -0.32,0.2 -0.32,0.76 v 7.56 q 0,1.84 0.68,2.76 0.72,0.88 1.88,0.88 1.16,0 1.68,-0.24 0.56,-0.24 1,-0.4 0.16,-0.08 0.24,-0.08 0.2,0 0.32,0.24 0.12,0.24 0.12,0.56 0,0.24 -0.84,0.88 -0.84,0.64 -2.2,1.2 -1.32,0.56 -2.88,0.56 z" />
    <path
       id="path963"
       style="font-style:normal;font-variant:normal;font-weight:bold;font-stretch:normal;font-family:'EB Garamond';-inkscape-font-specification:'EB Garamond Bold';text-align:center;text-anchor:middle;fill:#ffffff"
       d="m 681.25802,392.95334 q -0.32,0 -0.32,-0.4 0,-0.48 0.08,-1.28 0.12,-0.8 0.12,-1.24 0,-0.16 -0.04,-0.28 0,-0.12 -0.04,-0.16 -1.08,1.32 -2.76,2.24 -1.68,0.88 -3.56,0.88 -1.24,0 -2.24,-0.72 -1,-0.76 -1.6,-2.04 -0.56,-1.28 -0.56,-2.88 v -7.48 q 0,-0.92 -0.36,-1.48 -0.32,-0.56 -1.24,-0.76 -0.24,-0.04 -0.44,-0.2 -0.16,-0.2 -0.16,-0.56 0,-0.28 0.16,-0.44 0.16,-0.2 0.44,-0.24 1.68,-0.08 3.04,-0.32 1.36,-0.28 2.76,-0.64 0.2,-0.04 0.4,-0.08 0.24,-0.08 0.44,-0.08 0.56,0 0.52,0.56 -0.16,0.92 -0.24,1.56 -0.08,0.6 -0.08,1.52 v 7.68 q 0,0.96 0.32,1.68 0.32,0.72 0.88,1.12 0.56,0.4 1.24,0.44 0.64,0 1.24,-0.16 0.64,-0.16 1.2,-0.72 0.24,-0.2 0.52,-0.8 0.28,-0.64 0.28,-1.68 v -6.44 q 0,-0.72 -0.28,-1.16 -0.28,-0.48 -0.76,-0.76 -0.48,-0.28 -1.12,-0.32 -0.44,-0.04 -0.72,-0.2 -0.24,-0.2 -0.24,-0.68 0,-0.4 0.28,-0.6 0.28,-0.2 0.68,-0.2 2.04,-0.12 3.24,-0.2 1.2,-0.12 1.96,-0.24 0.76,-0.12 1.52,-0.28 0.12,-0.04 0.28,-0.08 0.16,-0.04 0.24,-0.04 0.6,0 0.6,0.48 0,0.12 -0.04,0.28 -0.04,0.16 -0.12,0.32 -0.04,0.16 -0.12,0.72 -0.04,0.52 -0.12,1.12 -0.04,0.6 -0.04,0.96 v 9.28 q 0,0.92 0.2,1.24 0.24,0.28 0.52,0.28 0.2,0 0.6,0.04 0.4,0 0.52,0 0.36,0 0.56,0.2 0.2,0.2 0.2,0.52 0,0.36 -0.16,0.6 -0.12,0.2 -0.52,0.24 -1.92,0.16 -3.48,0.68 -1.52,0.48 -2.64,0.92 -0.24,0.08 -0.52,0.16 -0.28,0.12 -0.52,0.12 z" />
    <path
       id="path965"
       style="font-style:normal;font-variant:normal;font-weight:bold;font-stretch:normal;font-family:'EB Garamond';-inkscape-font-specification:'EB Garamond Bold';text-align:center;text-anchor:middle;fill:#ffffff"
       d="m 716.93795,392.27334 q -0.24,0 -1.2,-0.04 -0.92,0 -2.2,-0.04 -1.24,-0.04 -2.56,-0.08 -1.32,-0.04 -2.32,-0.04 -0.92,0 -2.04,0.04 -1.08,0.04 -2.08,0.04 -0.96,0.04 -1.64,0.04 -0.64,0.04 -0.76,0.04 -0.12,0 -0.48,-0.2 -0.32,-0.24 -0.32,-0.48 0,-0.32 0.16,-0.52 0.16,-0.2 0.32,-0.36 l 5.84,-6.48 q 2.12,-2.32 3.16,-4.64 1.04,-2.36 1.04,-5.12 0,-1.68 -0.88,-2.8 -0.84,-1.16 -2.4,-1.16 -1.4,0 -2.64,0.8 -1.24,0.8 -2.12,1.72 -0.2,0.24 -0.56,0.56 -0.36,0.28 -0.72,0.28 -0.32,0 -0.44,-0.24 -0.12,-0.28 -0.12,-0.68 0,-0.68 0.64,-1.64 0.68,-1 1.84,-2 1.2,-1 2.72,-1.68 1.56,-0.68 3.28,-0.68 2.08,0 3.48,0.92 1.44,0.92 2.2,2.44 0.76,1.52 0.76,3.32 0,1.12 -0.52,2.48 -0.48,1.32 -1.2,2.56 -0.72,1.2 -1.48,2.08 -0.6,0.68 -1.52,1.6 -0.88,0.88 -1.84,1.8 -0.96,0.92 -1.84,1.72 -0.88,0.8 -1.4,1.32 -0.52,0.52 -0.52,0.6 0,0.16 0.6,0.24 0.72,0.08 1.72,0.12 1.04,0.04 1.88,0.04 0.92,0 1.8,-0.04 0.88,-0.04 1.76,-0.12 0.88,-0.08 1.52,-0.32 0.68,-0.28 1.16,-0.76 0.52,-0.52 0.92,-1.32 0.12,-0.28 0.4,-0.56 0.32,-0.32 0.72,-0.32 0.32,0 0.44,0.28 0.12,0.24 0,0.52 -0.36,1.04 -0.76,2.28 -0.36,1.2 -0.64,2.2 -0.28,0.96 -0.32,1.36 -0.04,0.48 -0.4,0.72 -0.36,0.2 -0.44,0.2 z" />
    <path
       id="path967"
       style="font-style:normal;font-variant:normal;font-weight:bold;font-stretch:normal;font-family:'EB Garamond';-inkscape-font-specification:'EB Garamond Bold';text-align:center;text-anchor:middle;fill:#ffffff"
       d="m 730.53792,392.67334 q -2.4,0 -4.16,-1.12 -1.76,-1.12 -2.96,-2.96 -1.16,-1.88 -1.72,-4.12 -0.56,-2.24 -0.56,-4.44 0,-2.28 0.56,-4.6 0.56,-2.32 1.76,-4.24 1.2,-1.96 3.08,-3.12 1.88,-1.2 4.44,-1.2 2.4,0 4.16,1.12 1.8,1.12 2.92,3 1.16,1.84 1.72,4.08 0.6,2.2 0.6,4.36 0,2.28 -0.56,4.6 -0.56,2.32 -1.76,4.28 -1.16,1.96 -3.04,3.16 -1.84,1.2 -4.48,1.2 z m 0.6,-1.8 q 1.28,0 2.04,-1.48 0.8,-1.52 1.16,-3.96 0.36,-2.44 0.36,-5.28 0,-2.12 -0.28,-4.16 -0.28,-2.04 -0.84,-3.68 -0.56,-1.68 -1.36,-2.64 -0.8,-1 -1.88,-1 -1.28,0 -2.04,1.52 -0.76,1.48 -1.12,3.92 -0.32,2.4 -0.32,5.24 0,2.12 0.24,4.16 0.28,2.04 0.8,3.72 0.56,1.64 1.36,2.64 0.8,1 1.88,1 z" />
    <path
       id="path969"
       style="font-style:normal;font-variant:normal;font-weight:bold;font-stretch:normal;font-family:'EB Garamond';-inkscape-font-specification:'EB Garamond Bold';text-align:center;text-anchor:middle;fill:#ffffff"
       d="m 746.1379,393.31334 q -1.28,0 -2.24,-0.96 -0.96,-0.92 -0.96,-2.24 0,-1.4 0.96,-2.36 0.96,-0.96 2.24,-0.96 1.44,0 2.36,0.96 0.96,0.96 0.96,2.36 0,1.32 -0.96,2.24 -0.92,0.96 -2.36,0.96 z" />
    <path
       id="path971"
       style="font-style:normal;font-variant:normal;font-weight:bold;font-stretch:normal;font-family:'EB Garamond';-inkscape-font-specification:'EB Garamond Bold';text-align:center;text-anchor:middle;fill:#ffffff"
       d="m 761.57789,392.67334 q -2.4,0 -4.16,-1.12 -1.76,-1.12 -2.96,-2.96 -1.16,-1.88 -1.72,-4.12 -0.56,-2.24 -0.56,-4.44 0,-2.28 0.56,-4.6 0.56,-2.32 1.76,-4.24 1.2,-1.96 3.08,-3.12 1.88,-1.2 4.44,-1.2 2.4,0 4.16,1.12 1.8,1.12 2.92,3 1.16,1.84 1.72,4.08 0.6,2.2 0.6,4.36 0,2.28 -0.56,4.6 -0.56,2.32 -1.76,4.28 -1.16,1.96 -3.04,3.16 -1.84,1.2 -4.48,1.2 z m 0.6,-1.8 q 1.28,0 2.04,-1.48 0.8,-1.52 1.16,-3.96 0.36,-2.44 0.36,-5.28 0,-2.12 -0.28,-4.16 -0.28,-2.04 -0.84,-3.68 -0.56,-1.68 -1.36,-2.64 -0.8,-1 -1.88,-1 -1.28,0 -2.04,1.52 -0.76,1.48 -1.12,3.92 -0.32,2.4 -0.32,5.24 0,2.12 0.24,4.16 0.28,2.04 0.8,3.72 0.56,1.64 1.36,2.64 0.8,1 1.88,1 z" />
    <path
       id="path973"
       style="font-style:normal;font-variant:normal;font-weight:bold;font-stretch:normal;font-family:'EB Garamond';-inkscape-font-specification:'EB Garamond Bold';text-align:center;text-anchor:middle;fill:#ffffff"
       d="m 780.89786,392.23334 q -0.24,0 -0.56,-0.16 -0.32,-0.16 -0.32,-0.44 0,-0.4 0.28,-0.56 0.28,-0.16 0.64,-0.24 1.6,-0.28 2.16,-0.76 0.56,-0.52 0.56,-1.72 v -2.28 q 0,-0.2 -0.24,-0.28 -0.24,-0.12 -0.44,-0.12 -1.24,0 -2.84,0.08 -1.6,0.08 -3.28,0.16 -1.64,0.08 -3.12,0.08 -0.2,0 -0.4,-0.08 -0.2,-0.08 -0.2,-0.24 0,-0.16 0.2,-0.44 0.28,-0.36 0.44,-0.56 0.2,-0.24 0.36,-0.48 0.2,-0.28 0.4,-0.56 l 9.88,-15.8 q 0.32,-0.52 0.8,-0.96 0.52,-0.44 0.96,-0.44 h 0.36 q 0.32,0 0.36,0.32 0.08,0.28 -0.08,0.52 l -9.4,14.92 q -0.16,0.32 -0.04,0.44 0.12,0.12 0.36,0.12 h 5.6 q 0.12,0 0.2,-0.08 0.12,-0.08 0.12,-0.2 v -4.8 q 0,-0.72 0.08,-0.96 0.12,-0.28 0.56,-0.44 1.08,-0.52 2.32,-0.68 1.24,-0.16 1.72,-0.16 0.8,0 0.92,0.8 0.16,0.76 0.16,2.28 v 4.2 q 0,0.28 0.2,0.28 0.52,0.04 0.76,0.04 0.28,0 0.68,0 0.6,0 1.08,0 0.48,-0.04 1.2,-0.08 0.48,0 0.48,0.28 0,0.32 -0.16,0.92 -0.16,0.6 -0.4,1.12 -0.2,0.48 -0.36,0.48 -0.48,0 -0.92,0 -0.44,-0.04 -0.96,-0.04 -0.4,0 -0.6,0.04 -0.16,0 -0.44,0.04 -0.16,0.04 -0.36,0.12 -0.2,0.08 -0.2,0.12 v 2.28 q 0,1.12 0.52,1.6 0.52,0.48 2.08,0.92 0.36,0.12 0.64,0.28 0.32,0.16 0.32,0.52 0,0.24 -0.28,0.4 -0.24,0.16 -0.56,0.16 -0.88,0 -1.92,-0.04 -1,-0.04 -1.96,-0.08 -0.96,-0.04 -1.8,-0.04 -0.84,0 -1.8,0.04 -0.92,0.04 -1.88,0.08 -0.96,0.08 -1.88,0.08 z" />
  </g>
</svg>
