<?xml version="1.0" encoding="UTF-8" standalone="no"?>
<svg
   xmlns:dc="http://purl.org/dc/elements/1.1/"
   xmlns:cc="http://creativecommons.org/ns#"
   xmlns:rdf="http://www.w3.org/1999/02/22-rdf-syntax-ns#"
   xmlns:svg="http://www.w3.org/2000/svg"
   xmlns="http://www.w3.org/2000/svg"
   width="444.5mm"
   height="277.8125mm"
   viewBox="0 0 444.49999 277.81249"
   version="1.1"
   id="svg8">
  <defs
     id="defs2" />
  <metadata
     id="metadata5">
    <rdf:RDF>
      <cc:Work
         rdf:about="">
        <dc:format>image/svg+xml</dc:format>
        <dc:type
           rdf:resource="http://purl.org/dc/dcmitype/StillImage" />
        <dc:title></dc:title>
      </cc:Work>
    </rdf:RDF>
  </metadata>
  <path
     id="rect941"
     d="M 0,0 H 444.49998 V 277.81248 H 0 Z"
     style="opacity:1;fill:#6e7078;fill-opacity:1;fill-rule:nonzero;stroke:none;stroke-width:2.78795314;stroke-linejoin:round;stroke-miterlimit:4;stroke-dasharray:none;stroke-opacity:1" />
  <g
     transform="matrix(2.490629,0,0,2.2450931,27.401766,-104.05517)"
     id="flowRoot985"
     style="font-style:normal;font-weight:normal;font-size:40px;line-height:1.25;font-family:sans-serif;letter-spacing:0px;word-spacing:0px;fill:#000000;fill-opacity:1;stroke:none" />
  <g
     transform="matrix(2.490629,0,0,2.2450931,27.401766,-104.05517)"
     id="flowRoot993"
     style="font-style:normal;font-weight:normal;font-size:40px;line-height:1.25;font-family:sans-serif;letter-spacing:0px;word-spacing:0px;fill:#000000;fill-opacity:1;stroke:none" />
  <g
     id="g870"
     transform="translate(0,19.060813)">
    <g
       style="fill:#37abc8"
       transform="matrix(1.1624531,0,0,1.321886,-3.9930729,-56.774231)"
       id="g898">
      <path
         style="opacity:1;fill:#37abc8;fill-opacity:1;fill-rule:nonzero;stroke:none;stroke-width:1.1789999;stroke-linejoin:round;stroke-miterlimit:4;stroke-dasharray:none;stroke-opacity:1"
         d="M 95.08383,139.75145 A 23.208532,20.629807 0 0 1 71.875298,160.38126 23.208532,20.629807 0 0 1 48.666765,139.75145 23.208532,20.629807 0 0 1 71.875298,119.12164 23.208532,20.629807 0 0 1 95.08383,139.75145 Z"
         id="ellipse890" />
      <path
         style="opacity:1;fill:#37abc8;fill-opacity:1;fill-rule:nonzero;stroke:none;stroke-width:1.1789999;stroke-linejoin:round;stroke-miterlimit:4;stroke-dasharray:none;stroke-opacity:1"
         d="m 57.525418,129.43655 h 74.981402 c 8.79147,0 15.86908,7.07761 15.86908,15.86908 v 1e-5 c 0,8.79147 -7.07761,15.86908 -15.86908,15.86908 H 57.525418 c -8.79147,0 -15.86908,-7.07761 -15.86908,-15.86908 v -1e-5 c 0,-8.79147 7.07761,-15.86908 15.86908,-15.86908 z"
         id="rect892" />
      <path
         style="opacity:1;fill:#37abc8;fill-opacity:1;fill-rule:nonzero;stroke:none;stroke-width:1.1789999;stroke-linejoin:round;stroke-miterlimit:4;stroke-dasharray:none;stroke-opacity:1"
         d="m 119.42552,123.87665 a 23.208532,20.629807 0 0 1 -23.208532,20.6298 23.208532,20.629807 0 0 1 -23.208533,-20.6298 23.208532,20.629807 0 0 1 23.208533,-20.62981 23.208532,20.629807 0 0 1 23.208532,20.62981 z"
         id="ellipse894" />
      <path
         style="opacity:1;fill:#37abc8;fill-opacity:1;fill-rule:nonzero;stroke:none;stroke-width:1.1789999;stroke-linejoin:round;stroke-miterlimit:4;stroke-dasharray:none;stroke-opacity:1"
         d="m 145.35472,129.16829 a 23.208532,20.629807 0 0 1 -23.20853,20.62981 23.208532,20.629807 0 0 1 -23.208536,-20.62981 23.208532,20.629807 0 0 1 23.208536,-20.62981 23.208532,20.629807 0 0 1 23.20853,20.62981 z"
         id="ellipse896" />
    </g>
    <path
       style="opacity:1;fill:#ffffff;fill-opacity:1;fill-rule:nonzero;stroke:none;stroke-width:1.46149886;stroke-linejoin:round;stroke-miterlimit:4;stroke-dasharray:none;stroke-opacity:1"
       d="m 114.99071,131.66542 a 26.97883,27.270252 0 0 1 -26.978831,27.27025 26.97883,27.270252 0 0 1 -26.97883,-27.27025 26.97883,27.270252 0 0 1 26.97883,-27.27025 26.97883,27.270252 0 0 1 26.978831,27.27025 z"
       id="path874" />
    <path
       style="opacity:1;fill:#ffffff;fill-opacity:1;fill-rule:nonzero;stroke:none;stroke-width:1.46149886;stroke-linejoin:round;stroke-miterlimit:4;stroke-dasharray:none;stroke-opacity:1"
       d="m 73.86087,118.0303 h 82.10226 c 11.62132,0 20.97711,9.35579 20.97711,20.97711 v 1e-5 c 0,11.62132 -9.35579,20.97711 -20.97711,20.97711 H 73.86087 c -11.621322,0 -20.977115,-9.35579 -20.977115,-20.97711 v -1e-5 c 0,-11.62132 9.355793,-20.97711 20.977115,-20.97711 z"
       id="rect876" />
    <path
       style="opacity:1;fill:#ffffff;fill-opacity:1;fill-rule:nonzero;stroke:none;stroke-width:1.46149886;stroke-linejoin:round;stroke-miterlimit:4;stroke-dasharray:none;stroke-opacity:1"
       d="M 143.28678,110.68075 A 26.97883,27.270252 0 0 1 116.30795,137.951 26.97883,27.270252 0 0 1 89.329123,110.68075 26.97883,27.270252 0 0 1 116.30795,83.410496 26.97883,27.270252 0 0 1 143.28678,110.68075 Z"
       id="ellipse880" />
    <path
       style="opacity:1;fill:#ffffff;fill-opacity:1;fill-rule:nonzero;stroke:none;stroke-width:1.46149886;stroke-linejoin:round;stroke-miterlimit:4;stroke-dasharray:none;stroke-opacity:1"
       d="m 173.42826,117.67569 a 26.97883,27.270252 0 0 1 -26.97883,27.27025 26.97883,27.270252 0 0 1 -26.97883,-27.27025 26.97883,27.270252 0 0 1 26.97883,-27.270253 26.97883,27.270252 0 0 1 26.97883,27.270253 z"
       id="ellipse882" />
  </g>
  <g
     aria-label="#"
     transform="matrix(2.5719946,0,0,1.7686343,-1125.526,-630.69313)"
     style="font-style:normal;font-weight:normal;font-size:40px;line-height:1.25;font-family:sans-serif;letter-spacing:0px;word-spacing:0px;fill:#37abc8;fill-opacity:1;stroke:none"
     id="flowRoot872">
    <path
       d="m 477.06436,451.86801 q -0.28,0 -0.48,-0.24 -0.16,-0.24 -0.16,-0.52 v -0.2 l 1.56,-6.28 -2.28,0.08 q -0.44,0.04 -0.68,-0.24 -0.24,-0.32 -0.24,-0.6 0,-1.12 0.2,-1.72 0.24,-0.64 0.6,-0.92 0.36,-0.28 0.76,-0.28 l 2.56,-0.12 1.04,-4.24 -2.68,0.12 q -0.44,0.04 -0.68,-0.24 -0.24,-0.32 -0.24,-0.6 0,-1.12 0.2,-1.72 0.24,-0.64 0.6,-0.92 0.36,-0.28 0.76,-0.28 l 3,-0.12 1.4,-5.72 q 0.12,-0.68 0.52,-0.88 0.44,-0.2 1.12,-0.2 0.24,0 0.36,0.24 0.16,0.24 0.16,0.52 0,0.12 -0.04,0.2 -0.04,0.04 -0.04,0.12 l -1.36,5.6 4.56,-0.16 1.44,-5.88 q 0.12,-0.68 0.52,-0.88 0.44,-0.2 1.12,-0.2 0.24,0 0.36,0.24 0.16,0.24 0.16,0.52 0,0.12 -0.04,0.2 -0.04,0.04 -0.04,0.12 l -1.4,5.76 2.36,-0.12 q 0.52,-0.04 0.8,0.24 0.28,0.24 0.28,0.64 0,0.68 -0.28,1.36 -0.24,0.64 -0.64,1.08 -0.36,0.4 -0.76,0.44 l -2.72,0.12 -1.04,4.28 2.8,-0.12 q 0.52,-0.04 0.8,0.24 0.28,0.24 0.28,0.64 0,0.68 -0.28,1.36 -0.24,0.64 -0.64,1.08 -0.36,0.4 -0.76,0.44 l -3.12,0.12 -1.48,6.04 q -0.16,0.64 -0.52,0.8 -0.32,0.16 -0.96,0.16 -0.28,0 -0.48,-0.24 -0.16,-0.24 -0.16,-0.52 v -0.2 l 1.48,-5.92 -4.56,0.16 -1.56,6.4 q -0.16,0.64 -0.52,0.8 -0.32,0.16 -0.96,0.16 z m 3.96,-11.12 4.56,-0.16 1.04,-4.28 -4.52,0.16 z"
       style="font-style:normal;font-variant:normal;font-weight:800;font-stretch:normal;font-family:'EB Garamond';-inkscape-font-specification:'EB Garamond Ultra-Bold';text-align:center;text-anchor:middle;fill:#37abc8"
       id="path889" />
  </g>
  <g
     id="flowRoot853"
     style="font-style:normal;font-weight:normal;font-size:40px;line-height:1.25;font-family:sans-serif;letter-spacing:0px;word-spacing:0px;fill:#ffffff;fill-opacity:1;stroke:none"
     transform="matrix(0.82445629,0,0,0.99487535,-614.78535,-175.71599)"
     aria-label="Convert 
PDF to various 
image formats">
    <path
       id="path865"
       style="font-style:normal;font-variant:normal;font-weight:bold;font-stretch:normal;font-family:'EB Garamond';-inkscape-font-specification:'EB Garamond Bold';text-align:center;text-anchor:middle;fill:#ffffff"
       d="m 1041.5429,267.73059 q -3.12,0 -5.84,-0.92 -2.72,-0.96 -4.8,-2.68 -2.08,-1.76 -3.24,-4.2 -1.16,-2.44 -1.16,-5.4 0,-2.76 1.08,-5.24 1.12,-2.52 3.24,-4.44 2.12,-1.96 5.08,-3.08 3,-1.16 6.76,-1.16 1.28,0 2.56,0.2 1.32,0.16 2.52,0.48 1.24,0.32 2.24,0.68 0.36,0.16 0.6,0.44 0.28,0.24 0.32,0.72 0.16,1.32 0.24,2.56 0.08,1.24 0.08,2.24 0,0.44 -0.32,0.6 -0.32,0.16 -0.72,0.04 -0.36,-0.16 -0.52,-0.64 -0.28,-0.92 -0.68,-1.84 -0.36,-0.92 -1.12,-1.6 -0.8,-0.8 -2.24,-1.32 -1.4,-0.52 -3.4,-0.52 -2.04,0 -3.72,0.88 -1.64,0.88 -2.84,2.4 -1.16,1.52 -1.8,3.44 -0.64,1.92 -0.64,4 0,2.64 0.56,4.92 0.56,2.24 1.72,3.88 1.16,1.64 2.84,2.56 1.68,0.92 3.96,0.92 2.96,0 4.8,-1.24 1.84,-1.28 3.08,-3.88 0.32,-0.72 0.88,-0.68 0.6,0.04 0.6,0.68 0,0.52 -0.12,1.28 -0.08,0.72 -0.28,1.56 -0.2,0.84 -0.48,1.72 -0.16,0.48 -0.44,0.76 -0.24,0.24 -0.64,0.44 -1.52,0.64 -3.6,1.04 -2.08,0.4 -4.56,0.4 z" />
    <path
       id="path867"
       style="font-style:normal;font-variant:normal;font-weight:bold;font-stretch:normal;font-family:'EB Garamond';-inkscape-font-specification:'EB Garamond Bold';text-align:center;text-anchor:middle;fill:#ffffff"
       d="m 1063.1829,267.73059 q -2.4,0 -4.32,-1.08 -1.92,-1.08 -3.08,-2.96 -1.12,-1.92 -1.12,-4.32 0,-1.92 0.72,-3.64 0.72,-1.72 2,-3.04 1.28,-1.32 3,-2.08 1.72,-0.76 3.68,-0.76 2.48,0 4.48,1.16 2,1.16 3.16,3.08 1.2,1.88 1.2,4.12 0,2.56 -1.12,4.76 -1.08,2.16 -3.24,3.48 -2.12,1.28 -5.36,1.28 z m 0.8,-1.76 q 0.84,0 1.44,-0.32 0.64,-0.36 1.04,-1.04 0.48,-0.8 0.64,-2.16 0.2,-1.4 0.2,-3.28 0,-2.16 -0.48,-3.84 -0.48,-1.72 -1.36,-2.72 -0.84,-1 -2,-1 -0.64,0 -1.16,0.24 -0.52,0.2 -0.92,0.6 -0.68,0.8 -0.96,2.28 -0.24,1.48 -0.24,3.64 0,1.92 0.48,3.68 0.52,1.72 1.36,2.84 0.88,1.08 1.96,1.08 z" />
    <path
       id="path869"
       style="font-style:normal;font-variant:normal;font-weight:bold;font-stretch:normal;font-family:'EB Garamond';-inkscape-font-specification:'EB Garamond Bold';text-align:center;text-anchor:middle;fill:#ffffff"
       d="m 1075.4628,267.29059 q -0.28,0 -0.56,-0.12 -0.24,-0.16 -0.24,-0.44 0,-0.32 0.28,-0.48 0.28,-0.2 0.64,-0.32 0.6,-0.2 1.04,-0.44 0.48,-0.28 0.48,-1.08 v -9.16 q 0,-0.88 -0.28,-1.48 -0.24,-0.6 -0.96,-0.76 -0.16,-0.04 -0.32,-0.2 -0.12,-0.16 -0.12,-0.52 0,-0.56 0.4,-0.68 1.36,-0.32 2.96,-0.84 1.64,-0.56 2.8,-1.16 0.16,-0.08 0.36,-0.2 0.2,-0.12 0.36,-0.12 0.24,0 0.28,0.16 0.08,0.12 0.08,0.32 0,0.32 -0.12,1.04 -0.08,0.68 -0.08,1.24 0,0.16 0,0.36 0.04,0.2 0.08,0.24 1.36,-1.32 2.76,-2.04 1.4,-0.72 3.24,-0.72 2.08,0 3.48,1.56 1.44,1.52 1.44,4.16 v 8.8 q 0,0.8 0.44,1.08 0.48,0.24 1.08,0.44 0.32,0.12 0.56,0.32 0.24,0.16 0.24,0.48 0,0.28 -0.24,0.44 -0.2,0.12 -0.44,0.12 -0.8,0 -1.52,-0.08 -0.68,-0.04 -1.36,-0.08 -0.64,-0.04 -1.36,-0.04 -0.68,0 -1.36,0.04 -0.68,0.04 -1.36,0.08 -0.68,0.08 -1.48,0.08 -0.24,0 -0.48,-0.12 -0.2,-0.16 -0.2,-0.44 0,-0.32 0.24,-0.48 0.24,-0.2 0.56,-0.32 0.6,-0.2 1,-0.44 0.4,-0.28 0.4,-1.08 v -7.96 q 0,-1.52 -0.72,-2.36 -0.68,-0.88 -1.84,-0.92 -0.88,0 -1.56,0.28 -0.68,0.28 -1.4,0.76 -0.16,0.16 -0.24,0.36 -0.08,0.2 -0.08,0.4 v 9.44 q 0,0.8 0.44,1.08 0.44,0.24 1,0.44 0.8,0.24 0.8,0.8 0,0.24 -0.2,0.4 -0.2,0.16 -0.48,0.16 -0.8,0 -1.48,-0.08 -0.68,-0.04 -1.28,-0.08 -0.6,-0.04 -1.32,-0.04 -0.68,0 -1.4,0.04 -0.68,0.04 -1.44,0.08 -0.72,0.08 -1.52,0.08 z" />
    <path
       id="path871"
       style="font-style:normal;font-variant:normal;font-weight:bold;font-stretch:normal;font-family:'EB Garamond';-inkscape-font-specification:'EB Garamond Bold';text-align:center;text-anchor:middle;fill:#ffffff"
       d="m 1105.0628,268.01059 q -0.24,0 -0.52,-0.52 -0.24,-0.52 -0.56,-1.24 -0.32,-0.72 -0.68,-1.6 -0.36,-0.92 -0.68,-1.64 -1,-2.36 -2.08,-4.6 -1.08,-2.24 -2.12,-4.56 -0.36,-0.88 -0.84,-1.48 -0.48,-0.64 -1.2,-0.88 -0.4,-0.16 -0.56,-0.32 -0.16,-0.2 -0.16,-0.52 0,-0.32 0.32,-0.4 0.36,-0.08 0.64,-0.08 0.96,0 1.48,0.08 0.56,0.04 1.08,0.12 0.52,0.04 1.4,0.04 0.84,0 1.48,-0.04 0.68,-0.08 1.36,-0.12 0.72,-0.08 1.64,-0.08 0.28,0 0.6,0.12 0.36,0.12 0.36,0.4 0,0.36 -0.28,0.48 -0.28,0.12 -0.64,0.28 -0.4,0.16 -0.68,0.6 -0.24,0.44 -0.24,1.12 0,0.36 0,0.68 0,0.28 0.16,0.6 l 2.68,6.6 q 0.04,0 0.04,0 0.04,0 0.08,0 l 2.36,-6.32 q 0.16,-0.36 0.2,-0.68 0.04,-0.32 0.04,-0.6 0,-0.72 -0.32,-1.2 -0.28,-0.52 -0.96,-0.76 -0.36,-0.12 -0.64,-0.24 -0.24,-0.16 -0.24,-0.52 0,-0.28 0.32,-0.4 0.32,-0.12 0.6,-0.12 1.08,0.04 1.6,0.08 0.56,0.04 1.16,0.04 0.6,0 1.16,-0.04 0.56,-0.04 1.6,-0.08 0.28,0 0.6,0.08 0.36,0.08 0.36,0.4 0,0.56 -0.76,0.84 -0.72,0.24 -1.36,0.92 -0.6,0.64 -1,1.56 l -3.12,7.84 q -0.08,0.28 -0.28,0.68 -0.16,0.4 -0.36,0.84 -0.16,0.4 -0.32,0.76 -0.16,0.36 -0.32,0.64 -0.12,0.28 -0.4,0.92 -0.28,0.64 -0.56,1.28 -0.28,0.64 -0.52,1.04 z" />
    <path
       id="path873"
       style="font-style:normal;font-variant:normal;font-weight:bold;font-stretch:normal;font-family:'EB Garamond';-inkscape-font-specification:'EB Garamond Bold';text-align:center;text-anchor:middle;fill:#ffffff"
       d="m 1122.5427,267.73059 q -2.16,0 -3.88,-1.12 -1.68,-1.16 -2.68,-3.12 -0.96,-2 -0.96,-4.52 0,-2.52 1.16,-4.56 1.16,-2.08 3.16,-3.28 2,-1.24 4.4,-1.24 1.72,0 3.08,0.76 1.36,0.72 2.16,1.96 0.84,1.24 0.84,2.8 0,1.52 -1.24,1.52 h -8 q -0.56,0 -0.84,0.32 -0.24,0.32 -0.24,1.08 0,1.52 0.68,2.8 0.68,1.24 1.84,1.96 1.16,0.72 2.68,0.72 1.16,0 2.12,-0.44 1,-0.44 1.96,-1.2 0.16,-0.12 0.28,-0.2 0.16,-0.12 0.28,-0.12 0.4,0 0.4,0.52 0,0.44 -0.32,1.2 -0.4,1 -1.36,2 -0.92,0.96 -2.32,1.56 -1.4,0.6 -3.2,0.6 z m -1.96,-12.48 h 2.4 q 1.12,0 1.56,-0.04 0.44,-0.04 0.8,-0.16 0.2,-0.08 0.32,-0.4 0.12,-0.32 0.12,-0.72 0,-1.08 -0.76,-1.76 -0.72,-0.68 -1.8,-0.68 -0.84,0 -1.6,0.48 -0.72,0.44 -1.2,1.2 -0.44,0.72 -0.4,1.52 0,0.56 0.56,0.56 z" />
    <path
       id="path875"
       style="font-style:normal;font-variant:normal;font-weight:bold;font-stretch:normal;font-family:'EB Garamond';-inkscape-font-specification:'EB Garamond Bold';text-align:center;text-anchor:middle;fill:#ffffff"
       d="m 1132.4627,267.29059 q -0.32,0 -0.56,-0.12 -0.24,-0.16 -0.24,-0.44 0,-0.32 0.24,-0.48 0.24,-0.2 0.68,-0.32 0.88,-0.28 1.16,-0.6 0.32,-0.32 0.32,-0.92 v -9.2 q 0,-0.84 -0.24,-1.36 -0.2,-0.56 -0.96,-0.76 -0.2,-0.08 -0.36,-0.2 -0.16,-0.16 -0.16,-0.52 0,-0.56 0.48,-0.68 1.28,-0.32 2.8,-0.84 1.56,-0.52 2.64,-1.04 0.2,-0.16 0.48,-0.28 0.32,-0.16 0.44,-0.16 0.36,0 0.36,0.44 0,0.2 -0.04,0.84 0,0.6 -0.04,1.24 0,0.64 -0.04,1.08 0,0.36 0.16,0.36 0.6,-0.84 1.4,-1.64 0.84,-0.8 1.8,-1.32 0.96,-0.52 1.88,-0.52 1.4,0 1.96,0.52 0.6,0.52 0.6,1.36 0,0.6 -0.36,1.32 -0.32,0.72 -0.84,1.24 -0.52,0.52 -1.12,0.52 -0.36,0 -0.76,-0.16 -0.4,-0.2 -0.8,-0.4 -0.4,-0.16 -0.8,-0.32 -0.36,-0.2 -0.68,-0.2 -1.04,0 -1.8,0.76 -0.76,0.76 -0.76,3.04 v 6.52 q 0,0.8 0.48,1.2 0.52,0.36 1.64,0.68 0.44,0.12 0.64,0.32 0.24,0.16 0.24,0.48 0,0.56 -0.68,0.56 -1.2,0 -2.48,-0.12 -1.28,-0.08 -2.32,-0.08 -0.68,0 -1.4,0.04 -0.68,0.04 -1.44,0.08 -0.72,0.08 -1.52,0.08 z" />
    <path
       id="path877"
       style="font-style:normal;font-variant:normal;font-weight:bold;font-stretch:normal;font-family:'EB Garamond';-inkscape-font-specification:'EB Garamond Bold';text-align:center;text-anchor:middle;fill:#ffffff"
       d="m 1156.1027,267.73059 q -2.64,0 -3.96,-1.32 -1.32,-1.36 -1.32,-3.8 v -9.2 q 0,-0.36 -0.28,-0.52 -0.24,-0.16 -0.96,-0.2 h -0.52 q -0.28,0 -0.48,-0.44 -0.16,-0.48 -0.16,-0.84 0,-0.08 0.04,-0.2 0.08,-0.16 0.2,-0.2 0.96,-0.36 2.04,-1.08 1.12,-0.76 2.12,-1.6 1.04,-0.84 1.68,-1.4 0.28,-0.2 0.48,-0.36 0.2,-0.16 0.52,-0.16 0.36,0 0.52,0.16 0.16,0.12 0.08,0.64 l -0.24,2.36 q -0.04,0.48 0.2,0.68 0.28,0.16 0.76,0.16 h 4.76 q 0.12,0 0.24,0.28 0.12,0.28 0.12,0.52 0,0.56 -0.16,1.08 -0.16,0.52 -0.36,0.52 h -3.72 q -0.92,0 -1.28,0.24 -0.32,0.2 -0.32,0.76 v 7.56 q 0,1.84 0.68,2.76 0.72,0.88 1.88,0.88 1.16,0 1.68,-0.24 0.56,-0.24 1,-0.4 0.16,-0.08 0.24,-0.08 0.2,0 0.32,0.24 0.12,0.24 0.12,0.56 0,0.24 -0.84,0.88 -0.84,0.64 -2.2,1.2 -1.32,0.56 -2.88,0.56 z" />
    <path
       id="path879"
       style="font-style:normal;font-variant:normal;font-weight:bold;font-stretch:normal;font-family:'EB Garamond';-inkscape-font-specification:'EB Garamond Bold';text-align:center;text-anchor:middle;fill:#ffffff"
       d="m 970.62314,317.76587 q -0.32,0 -0.56,-0.12 -0.24,-0.16 -0.24,-0.44 0,-0.64 0.84,-0.84 1.52,-0.32 2.08,-0.8 0.6,-0.52 0.6,-1.84 v -17.92 q 0,-1.36 -0.48,-1.96 -0.48,-0.64 -1.92,-0.96 -0.52,-0.12 -0.72,-0.32 -0.2,-0.24 -0.2,-0.52 0,-0.24 0.24,-0.4 0.24,-0.2 0.64,-0.2 0.92,0 1.84,0.04 0.96,0.04 1.84,0.12 0.92,0.04 1.72,0.04 0.96,0 1.68,-0.08 0.76,-0.12 1.64,-0.2 0.92,-0.12 2.2,-0.12 4.88,0 7.72,2.08 2.88,2.04 2.88,5.64 0,2.52 -1.08,4.64 -1.04,2.12 -3.2,3.44 -2.12,1.28 -5.4,1.28 -1.04,0 -1.6,-0.32 -0.52,-0.32 -0.52,-0.76 0,-0.28 0.24,-0.44 0.28,-0.2 0.48,-0.2 0.44,0 0.76,0.12 0.32,0.08 0.88,0.08 1.68,0 2.52,-1.88 0.88,-1.88 0.88,-4.96 0,-3.68 -1.2,-5.32 -1.2,-1.64 -3.36,-1.64 -1.12,0 -1.72,0.52 -0.56,0.48 -0.56,1.52 l -0.04,18.6 q 0,1.28 0.68,1.84 0.68,0.52 2.36,0.88 0.44,0.08 0.64,0.28 0.24,0.16 0.24,0.52 0,0.28 -0.2,0.44 -0.2,0.16 -0.56,0.16 -0.88,0 -2.04,-0.08 -1.12,-0.04 -2.24,-0.08 -1.12,-0.04 -1.92,-0.04 -0.84,0 -1.84,0.04 -1,0.04 -2.08,0.08 -1.04,0.08 -1.92,0.08 z" />
    <path
       id="path881"
       style="font-style:normal;font-variant:normal;font-weight:bold;font-stretch:normal;font-family:'EB Garamond';-inkscape-font-specification:'EB Garamond Bold';text-align:center;text-anchor:middle;fill:#ffffff"
       d="m 1008.7031,317.92587 q -1.36,0 -3,-0.08 -1.6,-0.08 -3,-0.16 -1.4,-0.04 -2.12,-0.04 -0.80002,0 -1.76002,0 -0.96,0.04 -2,0.08 -1,0.04 -1.92,0.04 -0.28,0 -0.52,-0.12 -0.24,-0.16 -0.24,-0.44 0,-0.36 0.2,-0.56 0.24,-0.2 0.64,-0.28 1.52,-0.32 2.08,-0.8 0.56,-0.52 0.56,-1.8 v -18.16 q 0,-1.28 -0.52,-1.8 -0.52,-0.56 -2.12,-0.92 -0.4,-0.08 -0.64,-0.28 -0.2,-0.2 -0.2,-0.56 0,-0.28 0.24,-0.44 0.24,-0.16 0.52,-0.16 0.92,0 1.92,0.04 1.04,0.04 2,0.12 1,0.04 1.80002,0.04 0.64,0 1.68,-0.04 1.04,-0.08 2.24,-0.12 1.24,-0.08 2.36,-0.12 1.16,-0.08 1.88,-0.08 3.04,0 5.6,0.96 2.6,0.92 4.52,2.68 1.96,1.72 3.04,4.08 1.08,2.36 1.08,5.2 0,2.68 -0.96,5.16 -0.96,2.44 -2.8,4.4 -1.84,1.92 -4.48,3.04 -2.64,1.12 -6.08,1.12 z m -0.6,-2.04 q 2.72,0 4.56,-1.32 1.84,-1.36 2.72,-3.72 0.92,-2.4 0.92,-5.56 0,-2.68 -0.6,-4.84 -0.56,-2.2 -1.68,-3.76 -1.08,-1.56 -2.72,-2.4 -1.6,-0.88 -3.64,-0.88 -1.28,0 -2.16,0.08 -0.84,0.08 -1.28,0.4 -0.44,0.32 -0.44,1.04 v 17.44 q 0,1.32 0.48,2.08 0.52,0.76 1.48,1.12 1,0.32 2.36,0.32 z" />
    <path
       id="path883"
       style="font-style:normal;font-variant:normal;font-weight:bold;font-stretch:normal;font-family:'EB Garamond';-inkscape-font-specification:'EB Garamond Bold';text-align:center;text-anchor:middle;fill:#ffffff"
       d="m 1025.583,317.76587 q -0.32,0 -0.56,-0.12 -0.24,-0.16 -0.24,-0.44 0,-0.64 0.84,-0.84 1.52,-0.32 2.08,-0.8 0.56,-0.52 0.56,-1.84 v -17.92 q 0,-1.36 -0.48,-1.96 -0.48,-0.64 -1.92,-0.96 -0.52,-0.12 -0.72,-0.32 -0.2,-0.24 -0.2,-0.52 0,-0.24 0.24,-0.4 0.24,-0.2 0.64,-0.2 0.96,0 2,0.04 1.04,0.04 2.04,0.12 1,0.04 1.92,0.04 1.56,0 3.4,0 1.88,0 3.6,0 1.64,0 2.96,-0.2 1.36,-0.24 2.2,-0.24 0.32,0 0.64,0.16 0.32,0.16 0.36,0.6 0.08,0.92 0.12,1.92 0.04,1 0.04,1.92 0.04,0.92 0.04,1.56 0,0.8 -0.48,0.8 -0.2,0 -0.48,-0.16 -0.24,-0.16 -0.32,-0.48 -0.28,-1 -0.6,-1.76 -0.32,-0.8 -0.84,-1.32 -0.52,-0.56 -1.24,-0.8 -0.68,-0.24 -1.64,-0.24 h -3 q -1,0 -1.56,0.52 -0.56,0.48 -0.56,1.32 0,0.72 0,1.68 0,0.96 0,1.72 0,0.88 0,1.92 0,1.04 0,1.92 0,0.52 0.24,0.76 0.24,0.2 0.68,0.2 1,0 2,0 1,0 1.88,0 1.04,0 1.52,-0.6 0.48,-0.64 0.84,-1.48 0.16,-0.32 0.36,-0.52 0.24,-0.2 0.44,-0.2 0.2,0 0.36,0.24 0.2,0.24 0.16,0.64 -0.08,0.84 -0.16,1.6 -0.04,0.72 -0.04,1.28 0,0.76 0.04,1.32 0.04,0.52 0.12,1.44 0.04,0.52 -0.08,0.8 -0.12,0.24 -0.32,0.24 -0.32,0 -0.6,-0.28 -0.24,-0.32 -0.36,-0.68 -0.32,-1.2 -0.8,-1.6 -0.48,-0.44 -1.2,-0.44 -0.44,0 -0.96,0 -0.48,0 -0.92,0 -0.56,0 -1.2,0 -0.6,0 -1.16,0.04 -0.44,0 -0.68,0.24 -0.2,0.24 -0.2,0.68 0,1.8 0,3.76 0.04,1.96 0.08,3.76 0,1.28 0.68,1.8 0.68,0.52 2.36,0.88 0.4,0.08 0.6,0.28 0.24,0.16 0.24,0.52 0,0.28 -0.2,0.44 -0.16,0.16 -0.52,0.16 -0.88,0 -2.04,-0.08 -1.16,-0.04 -2.28,-0.08 -1.12,-0.04 -1.92,-0.04 -0.8,0 -1.8,0.04 -1,0.04 -2.04,0.08 -1.04,0.08 -1.96,0.08 z" />
    <path
       id="path885"
       style="font-style:normal;font-variant:normal;font-weight:bold;font-stretch:normal;font-family:'EB Garamond';-inkscape-font-specification:'EB Garamond Bold';text-align:center;text-anchor:middle;fill:#ffffff"
       d="m 1063.1429,318.20587 q -2.64,0 -3.96,-1.32 -1.32,-1.36 -1.32,-3.8 v -9.2 q 0,-0.36 -0.28,-0.52 -0.24,-0.16 -0.96,-0.2 h -0.52 q -0.28,0 -0.48,-0.44 -0.16,-0.48 -0.16,-0.84 0,-0.08 0.04,-0.2 0.08,-0.16 0.2,-0.2 0.96,-0.36 2.04,-1.08 1.12,-0.76 2.12,-1.6 1.04,-0.84 1.68,-1.4 0.28,-0.2 0.48,-0.36 0.2,-0.16 0.52,-0.16 0.36,0 0.52,0.16 0.16,0.12 0.08,0.64 l -0.24,2.36 q -0.04,0.48 0.2,0.68 0.28,0.16 0.76,0.16 h 4.76 q 0.12,0 0.24,0.28 0.12,0.28 0.12,0.52 0,0.56 -0.16,1.08 -0.16,0.52 -0.36,0.52 h -3.72 q -0.92,0 -1.28,0.24 -0.32,0.2 -0.32,0.76 v 7.56 q 0,1.84 0.68,2.76 0.72,0.88 1.88,0.88 1.16,0 1.68,-0.24 0.56,-0.24 1,-0.4 0.16,-0.08 0.24,-0.08 0.2,0 0.32,0.24 0.12,0.24 0.12,0.56 0,0.24 -0.84,0.88 -0.84,0.64 -2.2,1.2 -1.32,0.56 -2.88,0.56 z" />
    <path
       id="path887"
       style="font-style:normal;font-variant:normal;font-weight:bold;font-stretch:normal;font-family:'EB Garamond';-inkscape-font-specification:'EB Garamond Bold';text-align:center;text-anchor:middle;fill:#ffffff"
       d="m 1078.8629,318.20587 q -2.4,0 -4.32,-1.08 -1.92,-1.08 -3.08,-2.96 -1.12,-1.92 -1.12,-4.32 0,-1.92 0.72,-3.64 0.72,-1.72 2,-3.04 1.28,-1.32 3,-2.08 1.72,-0.76 3.68,-0.76 2.48,0 4.48,1.16 2,1.16 3.16,3.08 1.2,1.88 1.2,4.12 0,2.56 -1.12,4.76 -1.08,2.16 -3.24,3.48 -2.12,1.28 -5.36,1.28 z m 0.8,-1.76 q 0.84,0 1.44,-0.32 0.64,-0.36 1.04,-1.04 0.48,-0.8 0.64,-2.16 0.2,-1.4 0.2,-3.28 0,-2.16 -0.48,-3.84 -0.48,-1.72 -1.36,-2.72 -0.84,-1 -2,-1 -0.64,0 -1.16,0.24 -0.52,0.2 -0.92,0.6 -0.68,0.8 -0.96,2.28 -0.24,1.48 -0.24,3.64 0,1.92 0.48,3.68 0.52,1.72 1.36,2.84 0.88,1.08 1.96,1.08 z" />
    <path
       id="path890"
       style="font-style:normal;font-variant:normal;font-weight:bold;font-stretch:normal;font-family:'EB Garamond';-inkscape-font-specification:'EB Garamond Bold';text-align:center;text-anchor:middle;fill:#ffffff"
       d="m 1107.9427,318.48587 q -0.24,0 -0.52,-0.52 -0.24,-0.52 -0.56,-1.24 -0.32,-0.72 -0.68,-1.6 -0.36,-0.92 -0.68,-1.64 -1,-2.36 -2.08,-4.6 -1.08,-2.24 -2.12,-4.56 -0.36,-0.88 -0.84,-1.48 -0.48,-0.64 -1.2,-0.88 -0.4,-0.16 -0.56,-0.32 -0.16,-0.2 -0.16,-0.52 0,-0.32 0.32,-0.4 0.36,-0.08 0.64,-0.08 0.96,0 1.48,0.08 0.56,0.04 1.08,0.12 0.52,0.04 1.4,0.04 0.84,0 1.48,-0.04 0.68,-0.08 1.36,-0.12 0.72,-0.08 1.64,-0.08 0.28,0 0.6,0.12 0.36,0.12 0.36,0.4 0,0.36 -0.28,0.48 -0.28,0.12 -0.64,0.28 -0.4,0.16 -0.68,0.6 -0.24,0.44 -0.24,1.12 0,0.36 0,0.68 0,0.28 0.16,0.6 l 2.68,6.6 q 0.04,0 0.04,0 0.04,0 0.08,0 l 2.36,-6.32 q 0.16,-0.36 0.2,-0.68 0.04,-0.32 0.04,-0.6 0,-0.72 -0.32,-1.2 -0.28,-0.52 -0.96,-0.76 -0.36,-0.12 -0.64,-0.24 -0.24,-0.16 -0.24,-0.52 0,-0.28 0.32,-0.4 0.32,-0.12 0.6,-0.12 1.08,0.04 1.6,0.08 0.56,0.04 1.16,0.04 0.6,0 1.16,-0.04 0.56,-0.04 1.6,-0.08 0.28,0 0.6,0.08 0.36,0.08 0.36,0.4 0,0.56 -0.76,0.84 -0.72,0.24 -1.36,0.92 -0.6,0.64 -1,1.56 l -3.12,7.84 q -0.08,0.28 -0.28,0.68 -0.16,0.4 -0.36,0.84 -0.16,0.4 -0.32,0.76 -0.16,0.36 -0.32,0.64 -0.12,0.28 -0.4,0.92 -0.28,0.64 -0.56,1.28 -0.28,0.64 -0.52,1.04 z" />
    <path
       id="path892"
       style="font-style:normal;font-variant:normal;font-weight:bold;font-stretch:normal;font-family:'EB Garamond';-inkscape-font-specification:'EB Garamond Bold';text-align:center;text-anchor:middle;fill:#ffffff"
       d="m 1121.9027,318.20587 q -1.08,0 -2,-0.52 -0.92,-0.52 -1.48,-1.36 -0.52,-0.84 -0.52,-1.84 0,-1.36 0.84,-2.28 0.88,-0.92 2.56,-1.64 l 3.56,-1.56 q 0.8,-0.36 0.96,-0.64 0.2,-0.28 0.2,-1.04 l 0.04,-2.28 q 0.04,-1.12 -0.4,-1.76 -0.44,-0.68 -1.32,-0.68 -0.52,0 -1.04,0.24 -0.52,0.2 -0.8,0.48 -0.12,0.16 -0.2,0.4 -0.04,0.2 -0.04,0.44 0,0.24 0.04,0.6 0.04,0.32 0.04,0.56 0,0.24 -0.64,0.64 -0.64,0.36 -1.48,0.68 -0.84,0.28 -1.44,0.28 -0.28,0 -0.52,-0.24 -0.2,-0.24 -0.2,-0.6 0,-0.64 0.44,-1.24 0.44,-0.64 1.44,-1.44 1.04,-0.88 2.28,-1.56 1.24,-0.68 2.44,-1.08 1.24,-0.4 2.08,-0.4 2.16,0 3.44,1.4 1.28,1.36 1.2,3.64 l -0.2,8.08 q -0.04,0.92 0.32,1.56 0.36,0.64 0.88,0.64 0.76,0 1.32,-0.52 0.12,-0.12 0.24,-0.12 0.2,0 0.32,0.12 0.16,0.12 0.16,0.32 0,0.48 -0.72,1.24 -0.76,0.72 -1.6,1.08 -0.84,0.4 -1.76,0.4 -2.24,0 -3.72,-2.28 h -0.08 q -1.32,1.2 -2.4,1.72 -1.04,0.56 -2.24,0.56 z m 2.4,-2.6 q 0.44,0 0.72,-0.12 0.28,-0.16 0.56,-0.48 0.12,-0.16 0.2,-0.4 0.08,-0.28 0.08,-0.64 l 0.12,-2.88 q 0,-0.4 -0.12,-0.52 -0.12,-0.12 -0.28,-0.12 -0.08,0 -0.2,0.04 -0.12,0.04 -0.28,0.12 -1.16,0.56 -1.72,1.16 -0.56,0.56 -0.56,1.84 0,1.16 0.48,1.6 0.48,0.4 1,0.4 z" />
    <path
       id="path894"
       style="font-style:normal;font-variant:normal;font-weight:bold;font-stretch:normal;font-family:'EB Garamond';-inkscape-font-specification:'EB Garamond Bold';text-align:center;text-anchor:middle;fill:#ffffff"
       d="m 1135.9427,317.76587 q -0.32,0 -0.56,-0.12 -0.24,-0.16 -0.24,-0.44 0,-0.32 0.24,-0.48 0.24,-0.2 0.68,-0.32 0.88,-0.28 1.16,-0.6 0.32,-0.32 0.32,-0.92 v -9.2 q 0,-0.84 -0.24,-1.36 -0.2,-0.56 -0.96,-0.76 -0.2,-0.08 -0.36,-0.2 -0.16,-0.16 -0.16,-0.52 0,-0.56 0.48,-0.68 1.28,-0.32 2.8,-0.84 1.56,-0.52 2.64,-1.04 0.2,-0.16 0.48,-0.28 0.32,-0.16 0.44,-0.16 0.36,0 0.36,0.44 0,0.2 -0.04,0.84 0,0.6 -0.04,1.24 0,0.64 -0.04,1.08 0,0.36 0.16,0.36 0.6,-0.84 1.4,-1.64 0.84,-0.8 1.8,-1.32 0.96,-0.52 1.88,-0.52 1.4,0 1.96,0.52 0.6,0.52 0.6,1.36 0,0.6 -0.36,1.32 -0.32,0.72 -0.84,1.24 -0.52,0.52 -1.12,0.52 -0.36,0 -0.76,-0.16 -0.4,-0.2 -0.8,-0.4 -0.4,-0.16 -0.8,-0.32 -0.36,-0.2 -0.68,-0.2 -1.04,0 -1.8,0.76 -0.76,0.76 -0.76,3.04 v 6.52 q 0,0.8 0.48,1.2 0.52,0.36 1.64,0.68 0.44,0.12 0.64,0.32 0.24,0.16 0.24,0.48 0,0.56 -0.68,0.56 -1.2,0 -2.48,-0.12 -1.28,-0.08 -2.32,-0.08 -0.68,0 -1.4,0.04 -0.68,0.04 -1.44,0.08 -0.72,0.08 -1.52,0.08 z" />
    <path
       id="path896"
       style="font-style:normal;font-variant:normal;font-weight:bold;font-stretch:normal;font-family:'EB Garamond';-inkscape-font-specification:'EB Garamond Bold';text-align:center;text-anchor:middle;fill:#ffffff"
       d="m 1152.3027,317.76587 q -0.24,0 -0.44,-0.12 -0.2,-0.16 -0.2,-0.4 0,-0.32 0.2,-0.52 0.2,-0.2 0.52,-0.28 1.04,-0.24 1.44,-0.52 0.44,-0.32 0.44,-0.96 v -8.64 q 0,-1.36 -0.44,-1.92 -0.4,-0.6 -1.28,-0.72 -0.24,-0.04 -0.36,-0.24 -0.12,-0.2 -0.12,-0.48 0,-0.6 0.44,-0.68 2.08,-0.4 3.68,-1.12 1.64,-0.72 2.52,-1.12 0.64,-0.32 0.8,-0.32 0.52,0 0.52,0.48 -0.04,0.68 -0.2,1.72 -0.12,1 -0.24,2.08 -0.08,1.08 -0.08,2.08 v 8.84 q 0,0.56 0.4,0.88 0.44,0.32 1.52,0.64 0.32,0.12 0.52,0.28 0.2,0.16 0.2,0.48 0,0.52 -0.6,0.52 -0.76,0 -1.6,-0.04 -0.84,-0.04 -1.64,-0.08 -0.76,-0.04 -1.48,-0.04 -0.68,0 -1.44,0.04 -0.72,0.04 -1.52,0.08 -0.76,0.08 -1.56,0.08 z m 4.4,-19.84 q -1.24,0 -2.2,-0.92 -0.92,-0.92 -0.92,-2.2 0,-1.36 0.92,-2.28 0.96,-0.92 2.2,-0.92 1.4,0 2.32,0.92 0.92,0.92 0.92,2.28 0,1.28 -0.92,2.2 -0.92,0.92 -2.32,0.92 z" />
    <path
       id="path898"
       style="font-style:normal;font-variant:normal;font-weight:bold;font-stretch:normal;font-family:'EB Garamond';-inkscape-font-specification:'EB Garamond Bold';text-align:center;text-anchor:middle;fill:#ffffff"
       d="m 1172.1026,318.20587 q -2.4,0 -4.32,-1.08 -1.92,-1.08 -3.08,-2.96 -1.12,-1.92 -1.12,-4.32 0,-1.92 0.72,-3.64 0.72,-1.72 2,-3.04 1.28,-1.32 3,-2.08 1.72,-0.76 3.68,-0.76 2.48,0 4.48,1.16 2,1.16 3.16,3.08 1.2,1.88 1.2,4.12 0,2.56 -1.12,4.76 -1.08,2.16 -3.24,3.48 -2.12,1.28 -5.36,1.28 z m 0.8,-1.76 q 0.84,0 1.44,-0.32 0.64,-0.36 1.04,-1.04 0.48,-0.8 0.64,-2.16 0.2,-1.4 0.2,-3.28 0,-2.16 -0.48,-3.84 -0.48,-1.72 -1.36,-2.72 -0.84,-1 -2,-1 -0.64,0 -1.16,0.24 -0.52,0.2 -0.92,0.6 -0.68,0.8 -0.96,2.28 -0.24,1.48 -0.24,3.64 0,1.92 0.48,3.68 0.52,1.72 1.36,2.84 0.88,1.08 1.96,1.08 z" />
    <path
       id="path900"
       style="font-style:normal;font-variant:normal;font-weight:bold;font-stretch:normal;font-family:'EB Garamond';-inkscape-font-specification:'EB Garamond Bold';text-align:center;text-anchor:middle;fill:#ffffff"
       d="m 1195.9425,318.48587 q -0.32,0 -0.32,-0.4 0,-0.48 0.08,-1.28 0.12,-0.8 0.12,-1.24 0,-0.16 -0.04,-0.28 0,-0.12 -0.04,-0.16 -1.08,1.32 -2.76,2.24 -1.68,0.88 -3.56,0.88 -1.24,0 -2.24,-0.72 -1,-0.76 -1.6,-2.04 -0.56,-1.28 -0.56,-2.88 v -7.48 q 0,-0.92 -0.36,-1.48 -0.32,-0.56 -1.24,-0.76 -0.24,-0.04 -0.44,-0.2 -0.16,-0.2 -0.16,-0.56 0,-0.28 0.16,-0.44 0.16,-0.2 0.44,-0.24 1.68,-0.08 3.04,-0.32 1.36,-0.28 2.76,-0.64 0.2,-0.04 0.4,-0.08 0.24,-0.08 0.44,-0.08 0.56,0 0.52,0.56 -0.16,0.92 -0.24,1.56 -0.08,0.6 -0.08,1.52 v 7.68 q 0,0.96 0.32,1.68 0.32,0.72 0.88,1.12 0.56,0.4 1.24,0.44 0.64,0 1.24,-0.16 0.64,-0.16 1.2,-0.72 0.24,-0.2 0.52,-0.8 0.28,-0.64 0.28,-1.68 v -6.44 q 0,-0.72 -0.28,-1.16 -0.28,-0.48 -0.76,-0.76 -0.48,-0.28 -1.12,-0.32 -0.44,-0.04 -0.72,-0.2 -0.24,-0.2 -0.24,-0.68 0,-0.4 0.28,-0.6 0.28,-0.2 0.68,-0.2 2.04,-0.12 3.24,-0.2 1.2,-0.12 1.96,-0.24 0.76,-0.12 1.52,-0.28 0.12,-0.04 0.28,-0.08 0.16,-0.04 0.24,-0.04 0.6,0 0.6,0.48 0,0.12 -0.04,0.28 -0.04,0.16 -0.12,0.32 -0.04,0.16 -0.12,0.72 -0.04,0.52 -0.12,1.12 -0.04,0.6 -0.04,0.96 v 9.28 q 0,0.92 0.2,1.24 0.24,0.28 0.52,0.28 0.2,0 0.6,0.04 0.4,0 0.52,0 0.36,0 0.56,0.2 0.2,0.2 0.2,0.52 0,0.36 -0.16,0.6 -0.12,0.2 -0.52,0.24 -1.92,0.16 -3.48,0.68 -1.52,0.48 -2.64,0.92 -0.24,0.08 -0.52,0.16 -0.28,0.12 -0.52,0.12 z" />
    <path
       id="path902"
       style="font-style:normal;font-variant:normal;font-weight:bold;font-stretch:normal;font-family:'EB Garamond';-inkscape-font-specification:'EB Garamond Bold';text-align:center;text-anchor:middle;fill:#ffffff"
       d="m 1210.7425,318.20587 q -1.32,0 -2.56,-0.32 -1.24,-0.32 -2.24,-1.04 -0.36,-0.6 -0.52,-1.88 -0.16,-1.28 -0.12,-2.68 0,-0.48 0.8,-0.48 0.32,0 0.56,0.2 0.24,0.2 0.28,0.4 0.76,1.68 1.76,2.88 1,1.16 2.4,1.16 1.08,0 1.64,-0.64 0.56,-0.68 0.56,-1.52 0,-1.04 -0.84,-1.72 -0.8,-0.72 -1.96,-1.32 -1.16,-0.6 -2.2,-1.36 -1.04,-0.76 -1.72,-1.8 -0.64,-1.08 -0.64,-2.56 0,-1.56 0.84,-2.72 0.88,-1.16 2.32,-1.8 1.48,-0.68 3.28,-0.68 1.32,0 2.44,0.32 1.12,0.28 1.52,0.56 0.32,0.4 0.52,1.52 0.2,1.08 0.2,2.4 0,0.44 -0.72,0.44 -0.28,0 -0.6,-0.2 -0.28,-0.2 -0.36,-0.4 -0.52,-1.56 -1.36,-2.32 -0.8,-0.8 -1.8,-0.8 -0.88,0 -1.6,0.56 -0.72,0.56 -0.72,1.52 0,0.84 0.76,1.52 0.8,0.64 1.96,1.28 2.6,1.36 3.72,2.64 1.12,1.24 1.12,3.32 0,2.6 -1.72,4.08 -1.68,1.44 -5,1.44 z" />
    <path
       id="path904"
       style="font-style:normal;font-variant:normal;font-weight:bold;font-stretch:normal;font-family:'EB Garamond';-inkscape-font-specification:'EB Garamond Bold';text-align:center;text-anchor:middle;fill:#ffffff"
       d="m 976.8031,368.24115 q -0.24,0 -0.44,-0.12 -0.2,-0.16 -0.2,-0.4 0,-0.32 0.2,-0.52 0.2,-0.2 0.52,-0.28 1.04,-0.24 1.44,-0.52 0.44,-0.32 0.44,-0.96 v -8.64 q 0,-1.36 -0.44,-1.92 -0.4,-0.6 -1.28,-0.72 -0.24,-0.04 -0.36,-0.24 -0.12,-0.2 -0.12,-0.48 0,-0.6 0.44,-0.68 2.08,-0.4 3.68,-1.12 1.64,-0.72 2.52,-1.12 0.64,-0.32 0.8,-0.32 0.52,0 0.52,0.48 -0.04,0.68 -0.2,1.72 -0.12,1 -0.24,2.08 -0.08,1.08 -0.08,2.08 v 8.84 q 0,0.56 0.4,0.88 0.44,0.32 1.52,0.64 0.32,0.12 0.52,0.28 0.2,0.16 0.2,0.48 0,0.52 -0.6,0.52 -0.76,0 -1.6,-0.04 -0.84,-0.04 -1.64,-0.08 -0.76,-0.04 -1.48,-0.04 -0.68,0 -1.44,0.04 -0.72,0.04 -1.52,0.08 -0.76,0.08 -1.56,0.08 z m 4.4,-19.84 q -1.24,0 -2.2,-0.92 -0.92,-0.92 -0.92,-2.2 0,-1.36 0.92,-2.28 0.96,-0.92 2.2,-0.92 1.4,0 2.32,0.92 0.92,0.92 0.92,2.28 0,1.28 -0.92,2.2 -0.92,0.92 -2.32,0.92 z" />
    <path
       id="path906"
       style="font-style:normal;font-variant:normal;font-weight:bold;font-stretch:normal;font-family:'EB Garamond';-inkscape-font-specification:'EB Garamond Bold';text-align:center;text-anchor:middle;fill:#ffffff"
       d="m 988.76303,368.24115 q -0.28,0 -0.56,-0.12 -0.24,-0.16 -0.24,-0.44 0,-0.32 0.28,-0.48 0.28,-0.2 0.64,-0.32 0.6,-0.2 1.04,-0.44 0.48,-0.28 0.48,-1.08 v -9.16 q 0,-0.88 -0.24,-1.48 -0.24,-0.64 -1,-0.76 -0.16,-0.04 -0.32,-0.2 -0.12,-0.16 -0.12,-0.52 0,-0.56 0.4,-0.68 1,-0.24 2.08,-0.56 1.12,-0.36 2.12,-0.72 1.04,-0.4 1.8,-0.84 0.12,-0.04 0.24,-0.12 0.12,-0.08 0.24,-0.08 0.36,0 0.36,0.44 0,0.32 -0.12,1.08 -0.08,0.76 -0.08,1.32 0,0.4 0.08,0.48 h 0.08 q 1.24,-1.2 2.68,-1.96 1.43997,-0.76 3.27997,-0.76 1.24,0 2.28,0.88 1.04,0.84 1.56,2.2 h 0.16 q 1.2,-1.44 2.68,-2.24 1.52,-0.84 3.4,-0.84 1.24,0 2.24,0.72 1,0.68 1.6,1.96 0.6,1.28 0.6,3.04 v 8.8 q 0,0.8 0.44,1.08 0.48,0.24 1.08,0.44 0.32,0.12 0.56,0.32 0.24,0.16 0.24,0.48 0,0.28 -0.2,0.44 -0.2,0.12 -0.48,0.12 -0.8,0 -1.52,-0.08 -0.68,-0.04 -1.36,-0.08 -0.64,-0.04 -1.36,-0.04 -0.68,0 -1.28,0.04 -0.6,0.04 -1.2,0.08 -0.6,0.08 -1.4,0.08 -0.28,0 -0.48,-0.12 -0.2,-0.16 -0.2,-0.44 0,-0.32 0.2,-0.52 0.24,-0.2 0.6,-0.28 0.52,-0.16 0.8,-0.4 0.28,-0.28 0.28,-0.88 v -8.2 q 0,-1 -0.28,-1.72 -0.28,-0.72 -0.8,-1.12 -0.48,-0.44 -1.12,-0.44 -0.52,0 -1.16,0.24 -0.6,0.2 -1.2,0.72 -0.56,0.48 -0.56,1.68 v 8.6 q 0,0.8 0.32,1.08 0.32,0.24 0.92,0.44 0.32,0.08 0.56,0.28 0.24,0.2 0.24,0.52 0,0.28 -0.24,0.44 -0.2,0.12 -0.44,0.12 -0.8,0 -1.44,-0.08 -0.64,-0.04 -1.24,-0.08 -0.56,-0.04 -1.28,-0.04 -0.68,0 -1.28,0.04 -0.56,0.04 -1.2,0.08 -0.6,0.08 -1.39997,0.08 -0.24,0 -0.44,-0.12 -0.2,-0.16 -0.2,-0.44 0,-0.32 0.2,-0.48 0.24,-0.2 0.56,-0.32 0.55997,-0.2 0.83997,-0.44 0.28,-0.24 0.28,-0.84 v -8.2 q 0,-1 -0.28,-1.68 -0.28,-0.72 -0.75997,-1.12 -0.48,-0.44 -1.16,-0.44 -0.48,0 -1.12,0.2 -0.6,0.2 -1.28,0.68 -0.52,0.36 -0.52,1.56 v 8.76 q 0,0.72 0.24,1.04 0.28,0.28 0.88,0.48 0.32,0.12 0.52,0.32 0.24,0.16 0.24,0.48 0,0.24 -0.2,0.4 -0.2,0.16 -0.44,0.16 -0.8,0 -1.44,-0.08 -0.6,-0.04 -1.2,-0.08 -0.56,-0.04 -1.28,-0.04 -0.68,0 -1.36,0.04 -0.64,0.04 -1.36,0.08 -0.68,0.08 -1.48,0.08 z" />
    <path
       id="path908"
       style="font-style:normal;font-variant:normal;font-weight:bold;font-stretch:normal;font-family:'EB Garamond';-inkscape-font-specification:'EB Garamond Bold';text-align:center;text-anchor:middle;fill:#ffffff"
       d="m 1024.563,368.68115 q -1.08,0 -2,-0.52 -0.92,-0.52 -1.48,-1.36 -0.52,-0.84 -0.52,-1.84 0,-1.36 0.84,-2.28 0.88,-0.92 2.56,-1.64 l 3.56,-1.56 q 0.8,-0.36 0.96,-0.64 0.2,-0.28 0.2,-1.04 l 0.04,-2.28 q 0.04,-1.12 -0.4,-1.76 -0.44,-0.68 -1.32,-0.68 -0.52,0 -1.04,0.24 -0.52,0.2 -0.8,0.48 -0.12,0.16 -0.2,0.4 -0.04,0.2 -0.04,0.44 0,0.24 0.04,0.6 0.04,0.32 0.04,0.56 0,0.24 -0.64,0.64 -0.64,0.36 -1.48,0.68 -0.84,0.28 -1.44,0.28 -0.28,0 -0.52,-0.24 -0.2,-0.24 -0.2,-0.6 0,-0.64 0.44,-1.24 0.44,-0.64 1.44,-1.44 1.04,-0.88 2.28,-1.56 1.24,-0.68 2.44,-1.08 1.24,-0.4 2.08,-0.4 2.16,0 3.44,1.4 1.28,1.36 1.2,3.64 l -0.2,8.08 q -0.04,0.92 0.32,1.56 0.36,0.64 0.88,0.64 0.76,0 1.32,-0.52 0.12,-0.12 0.24,-0.12 0.2,0 0.32,0.12 0.16,0.12 0.16,0.32 0,0.48 -0.72,1.24 -0.76,0.72 -1.6,1.08 -0.84,0.4 -1.76,0.4 -2.24,0 -3.72,-2.28 h -0.08 q -1.32,1.2 -2.4,1.72 -1.04,0.56 -2.24,0.56 z m 2.4,-2.6 q 0.44,0 0.72,-0.12 0.28,-0.16 0.56,-0.48 0.12,-0.16 0.2,-0.4 0.08,-0.28 0.08,-0.64 l 0.12,-2.88 q 0,-0.4 -0.12,-0.52 -0.12,-0.12 -0.28,-0.12 -0.08,0 -0.2,0.04 -0.12,0.04 -0.28,0.12 -1.16,0.56 -1.72,1.16 -0.56,0.56 -0.56,1.84 0,1.16 0.48,1.6 0.48,0.4 1,0.4 z" />
    <path
       id="path910"
       style="font-style:normal;font-variant:normal;font-weight:bold;font-stretch:normal;font-family:'EB Garamond';-inkscape-font-specification:'EB Garamond Bold';text-align:center;text-anchor:middle;fill:#ffffff"
       d="m 1045.563,379.68115 q -3.92,0 -6.12,-1.24 -2.16,-1.2 -2.16,-3.32 0,-1.2 0.28,-1.96 0.28,-0.72 1.28,-1.44 0.76,-0.56 1.48,-1.12 0.72,-0.56 1.24,-0.92 l 1.96,0.68 q -1.24,0.72 -1.96,1.56 -0.68,0.84 -0.68,1.96 0,1.64 1.36,2.72 1.4,1.08 3.48,1.08 2.76,0 3.92,-1.08 0.72,-0.72 1.16,-1.64 0.44,-0.88 0.44,-1.8 0,-0.64 -0.44,-1.04 -0.44,-0.4 -1.6,-0.68 -1.12,-0.28 -3.16,-0.48 -4.16,-0.4 -5.92,-1.56 -1.76,-1.16 -1.76,-3.08 0,-0.36 0.2,-0.72 0.24,-0.4 0.88,-0.84 0.64,-0.48 1.16,-0.84 0.52,-0.4 0.88,-0.72 0.36,-0.36 0.48,-0.64 l 2,0.68 q -0.8,0.28 -1.32,0.76 -0.48,0.48 -0.48,0.84 0,0.44 0.52,0.72 0.52,0.28 1.76,0.48 1.24,0.16 3.4,0.32 4.32,0.36 6.28,1.36 1.96,0.96 1.96,2.84 0,1.64 -0.92,3.24 -0.92,1.64 -2.44,2.96 -1.52,1.36 -3.4,2.12 -1.84,0.8 -3.76,0.8 z m 0.52,-17.16 q 1.28,0 2,-1.4 0.76,-1.44 0.76,-3.76 0,-1.48 -0.4,-2.56 -0.36,-1.12 -1,-1.72 -0.64,-0.64 -1.52,-0.64 -0.76,0 -1.4,0.64 -0.64,0.64 -1.04,1.72 -0.36,1.04 -0.36,2.44 0,1.48 0.4,2.68 0.4,1.2 1.08,1.92 0.68,0.68 1.48,0.68 z m -0.44,1.76 q -1.76,0 -3.48,-0.84 -1.68,-0.88 -2.8,-2.4 -1.08,-1.52 -1.08,-3.4 0,-2 1.12,-3.56 1.16,-1.56 3,-2.4 1.88,-0.88 3.96,-0.88 1.24,0 2.32,0.28 1.12,0.28 2.44,0.48 0.76,0.16 1.52,0.24 0.76,0.08 1.68,0.08 0.6,0 1.2,-0.04 0.6,-0.08 1,-0.08 0.64,0 0.64,0.88 0,0.76 -0.52,1.44 -0.24,0.28 -0.52,0.28 h -1.08 q -1.04,0 -1.4,0.32 -0.08,0.08 -0.12,0.2 -0.04,0.08 -0.08,0.44 0,0.32 0,1.24 0,2.08 -1.08,3.84 -1.08,1.76 -2.84,2.84 -1.76,1.04 -3.88,1.04 z" />
    <path
       id="path912"
       style="font-style:normal;font-variant:normal;font-weight:bold;font-stretch:normal;font-family:'EB Garamond';-inkscape-font-specification:'EB Garamond Bold';text-align:center;text-anchor:middle;fill:#ffffff"
       d="m 1065.0429,368.68115 q -2.16,0 -3.88,-1.12 -1.68,-1.16 -2.68,-3.12 -0.96,-2 -0.96,-4.52 0,-2.52 1.16,-4.56 1.16,-2.08 3.16,-3.28 2,-1.24 4.4,-1.24 1.72,0 3.08,0.76 1.36,0.72 2.16,1.96 0.84,1.24 0.84,2.8 0,1.52 -1.24,1.52 h -8 q -0.56,0 -0.84,0.32 -0.24,0.32 -0.24,1.08 0,1.52 0.68,2.8 0.68,1.24 1.84,1.96 1.16,0.72 2.68,0.72 1.16,0 2.12,-0.44 1,-0.44 1.96,-1.2 0.16,-0.12 0.28,-0.2 0.16,-0.12 0.28,-0.12 0.4,0 0.4,0.52 0,0.44 -0.32,1.2 -0.4,1 -1.36,2 -0.92,0.96 -2.32,1.56 -1.4,0.6 -3.2,0.6 z m -1.96,-12.48 h 2.4 q 1.12,0 1.56,-0.04 0.44,-0.04 0.8,-0.16 0.2,-0.08 0.32,-0.4 0.12,-0.32 0.12,-0.72 0,-1.08 -0.76,-1.76 -0.72,-0.68 -1.8,-0.68 -0.84,0 -1.6,0.48 -0.72,0.44 -1.2,1.2 -0.44,0.72 -0.4,1.52 0,0.56 0.56,0.56 z" />
    <path
       id="path914"
       style="font-style:normal;font-variant:normal;font-weight:bold;font-stretch:normal;font-family:'EB Garamond';-inkscape-font-specification:'EB Garamond Bold';text-align:center;text-anchor:middle;fill:#ffffff"
       d="m 1084.7228,368.24115 q -0.28,0 -0.56,-0.12 -0.24,-0.16 -0.24,-0.44 0,-0.32 0.2,-0.48 0.2,-0.2 0.56,-0.32 1.12,-0.32 1.4,-0.6 0.28,-0.32 0.28,-0.96 v -11.4 q -0.4,0 -0.92,0 -0.52,-0.04 -1.16,-0.08 -0.24,-0.04 -0.4,-0.44 -0.16,-0.44 -0.16,-0.72 0,-0.16 0.12,-0.24 0.12,-0.12 0.24,-0.16 0.52,-0.2 1.08,-0.44 0.56,-0.24 1.2,-0.52 0.16,-3.24 1.2,-5.44 1.04,-2.2 2.56,-3.52 1.56,-1.32 3.28,-1.88 1.72,-0.6 3.24,-0.6 2.72,0 3.92,0.76 1.24,0.76 1.24,2.36 0,0.92 -0.4,1.48 -0.4,0.52 -1.16,0.52 -0.36,0 -0.72,-0.32 -0.36,-0.32 -0.76,-0.8 -0.68,-0.76 -1.6,-1.44 -0.92,-0.72 -2.2,-0.72 -1.64,0 -2.52,1.4 -0.84,1.36 -0.84,4.4 v 3.28 q 0,0.32 0.2,0.44 0.2,0.12 0.44,0.12 h 4.52 q 0.32,0 0.48,0.2 0.16,0.2 0.16,0.44 0,0.36 -0.08,0.76 -0.08,0.4 -0.24,0.68 -0.2,0.32 -0.32,0.32 h -3.68 q -0.88,0 -1.2,0.2 -0.28,0.2 -0.28,0.68 v 10 q 0,1.04 0.48,1.48 0.48,0.4 2.12,0.76 0.8,0.12 0.8,0.72 0,0.24 -0.2,0.44 -0.2,0.2 -0.48,0.2 -1.2,0 -2.72,-0.12 -1.48,-0.08 -2.52,-0.08 -0.68,0 -1.4,0.04 -0.68,0.04 -1.44,0.08 -0.72,0.08 -1.52,0.08 z" />
    <path
       id="path916"
       style="font-style:normal;font-variant:normal;font-weight:bold;font-stretch:normal;font-family:'EB Garamond';-inkscape-font-specification:'EB Garamond Bold';text-align:center;text-anchor:middle;fill:#ffffff"
       d="m 1105.9627,368.68115 q -2.4,0 -4.32,-1.08 -1.92,-1.08 -3.08,-2.96 -1.12,-1.92 -1.12,-4.32 0,-1.92 0.72,-3.64 0.72,-1.72 2,-3.04 1.28,-1.32 3,-2.08 1.72,-0.76 3.68,-0.76 2.48,0 4.48,1.16 2,1.16 3.16,3.08 1.2,1.88 1.2,4.12 0,2.56 -1.12,4.76 -1.08,2.16 -3.24,3.48 -2.12,1.28 -5.36,1.28 z m 0.8,-1.76 q 0.84,0 1.44,-0.32 0.64,-0.36 1.04,-1.04 0.48,-0.8 0.64,-2.16 0.2,-1.4 0.2,-3.28 0,-2.16 -0.48,-3.84 -0.48,-1.72 -1.36,-2.72 -0.84,-1 -2,-1 -0.64,0 -1.16,0.24 -0.52,0.2 -0.92,0.6 -0.68,0.8 -0.96,2.28 -0.24,1.48 -0.24,3.64 0,1.92 0.48,3.68 0.52,1.72 1.36,2.84 0.88,1.08 1.96,1.08 z" />
    <path
       id="path918"
       style="font-style:normal;font-variant:normal;font-weight:bold;font-stretch:normal;font-family:'EB Garamond';-inkscape-font-specification:'EB Garamond Bold';text-align:center;text-anchor:middle;fill:#ffffff"
       d="m 1118.2826,368.24115 q -0.32,0 -0.56,-0.12 -0.24,-0.16 -0.24,-0.44 0,-0.32 0.24,-0.48 0.24,-0.2 0.68,-0.32 0.88,-0.28 1.16,-0.6 0.32,-0.32 0.32,-0.92 v -9.2 q 0,-0.84 -0.24,-1.36 -0.2,-0.56 -0.96,-0.76 -0.2,-0.08 -0.36,-0.2 -0.16,-0.16 -0.16,-0.52 0,-0.56 0.48,-0.68 1.28,-0.32 2.8,-0.84 1.56,-0.52 2.64,-1.04 0.2,-0.16 0.48,-0.28 0.32,-0.16 0.44,-0.16 0.36,0 0.36,0.44 0,0.2 -0.04,0.84 0,0.6 -0.04,1.24 0,0.64 -0.04,1.08 0,0.36 0.16,0.36 0.6,-0.84 1.4,-1.64 0.84,-0.8 1.8,-1.32 0.96,-0.52 1.88,-0.52 1.4,0 1.96,0.52 0.6,0.52 0.6,1.36 0,0.6 -0.36,1.32 -0.32,0.72 -0.84,1.24 -0.52,0.52 -1.12,0.52 -0.36,0 -0.76,-0.16 -0.4,-0.2 -0.8,-0.4 -0.4,-0.16 -0.8,-0.32 -0.36,-0.2 -0.68,-0.2 -1.04,0 -1.8,0.76 -0.76,0.76 -0.76,3.04 v 6.52 q 0,0.8 0.48,1.2 0.52,0.36 1.64,0.68 0.44,0.12 0.64,0.32 0.24,0.16 0.24,0.48 0,0.56 -0.68,0.56 -1.2,0 -2.48,-0.12 -1.28,-0.08 -2.32,-0.08 -0.68,0 -1.4,0.04 -0.68,0.04 -1.44,0.08 -0.72,0.08 -1.52,0.08 z" />
    <path
       id="path920"
       style="font-style:normal;font-variant:normal;font-weight:bold;font-stretch:normal;font-family:'EB Garamond';-inkscape-font-specification:'EB Garamond Bold';text-align:center;text-anchor:middle;fill:#ffffff"
       d="m 1134.8026,368.24115 q -0.28,0 -0.56,-0.12 -0.24,-0.16 -0.24,-0.44 0,-0.32 0.28,-0.48 0.28,-0.2 0.64,-0.32 0.6,-0.2 1.04,-0.44 0.48,-0.28 0.48,-1.08 v -9.16 q 0,-0.88 -0.24,-1.48 -0.24,-0.64 -1,-0.76 -0.16,-0.04 -0.32,-0.2 -0.12,-0.16 -0.12,-0.52 0,-0.56 0.4,-0.68 1,-0.24 2.08,-0.56 1.12,-0.36 2.12,-0.72 1.04,-0.4 1.8,-0.84 0.12,-0.04 0.24,-0.12 0.12,-0.08 0.24,-0.08 0.36,0 0.36,0.44 0,0.32 -0.12,1.08 -0.08,0.76 -0.08,1.32 0,0.4 0.08,0.48 h 0.08 q 1.24,-1.2 2.68,-1.96 1.44,-0.76 3.28,-0.76 1.24,0 2.28,0.88 1.04,0.84 1.56,2.2 h 0.16 q 1.2,-1.44 2.68,-2.24 1.52,-0.84 3.4,-0.84 1.24,0 2.24,0.72 1,0.68 1.6,1.96 0.6,1.28 0.6,3.04 v 8.8 q 0,0.8 0.44,1.08 0.48,0.24 1.08,0.44 0.32,0.12 0.56,0.32 0.24,0.16 0.24,0.48 0,0.28 -0.2,0.44 -0.2,0.12 -0.48,0.12 -0.8,0 -1.52,-0.08 -0.68,-0.04 -1.36,-0.08 -0.64,-0.04 -1.36,-0.04 -0.68,0 -1.28,0.04 -0.6,0.04 -1.2,0.08 -0.6,0.08 -1.4,0.08 -0.28,0 -0.48,-0.12 -0.2,-0.16 -0.2,-0.44 0,-0.32 0.2,-0.52 0.24,-0.2 0.6,-0.28 0.52,-0.16 0.8,-0.4 0.28,-0.28 0.28,-0.88 v -8.2 q 0,-1 -0.28,-1.72 -0.28,-0.72 -0.8,-1.12 -0.48,-0.44 -1.12,-0.44 -0.52,0 -1.16,0.24 -0.6,0.2 -1.2,0.72 -0.56,0.48 -0.56,1.68 v 8.6 q 0,0.8 0.32,1.08 0.32,0.24 0.92,0.44 0.32,0.08 0.56,0.28 0.24,0.2 0.24,0.52 0,0.28 -0.24,0.44 -0.2,0.12 -0.44,0.12 -0.8,0 -1.44,-0.08 -0.64,-0.04 -1.24,-0.08 -0.56,-0.04 -1.28,-0.04 -0.68,0 -1.28,0.04 -0.56,0.04 -1.2,0.08 -0.6,0.08 -1.4,0.08 -0.24,0 -0.44,-0.12 -0.2,-0.16 -0.2,-0.44 0,-0.32 0.2,-0.48 0.24,-0.2 0.56,-0.32 0.56,-0.2 0.84,-0.44 0.28,-0.24 0.28,-0.84 v -8.2 q 0,-1 -0.28,-1.68 -0.28,-0.72 -0.76,-1.12 -0.48,-0.44 -1.16,-0.44 -0.48,0 -1.12,0.2 -0.6,0.2 -1.28,0.68 -0.52,0.36 -0.52,1.56 v 8.76 q 0,0.72 0.24,1.04 0.28,0.28 0.88,0.48 0.32,0.12 0.52,0.32 0.24,0.16 0.24,0.48 0,0.24 -0.2,0.4 -0.2,0.16 -0.44,0.16 -0.8,0 -1.44,-0.08 -0.6,-0.04 -1.2,-0.08 -0.56,-0.04 -1.28,-0.04 -0.68,0 -1.36,0.04 -0.64,0.04 -1.36,0.08 -0.68,0.08 -1.48,0.08 z" />
    <path
       id="path922"
       style="font-style:normal;font-variant:normal;font-weight:bold;font-stretch:normal;font-family:'EB Garamond';-inkscape-font-specification:'EB Garamond Bold';text-align:center;text-anchor:middle;fill:#ffffff"
       d="m 1170.6026,368.68115 q -1.08,0 -2,-0.52 -0.92,-0.52 -1.48,-1.36 -0.52,-0.84 -0.52,-1.84 0,-1.36 0.84,-2.28 0.88,-0.92 2.56,-1.64 l 3.56,-1.56 q 0.8,-0.36 0.96,-0.64 0.2,-0.28 0.2,-1.04 l 0.04,-2.28 q 0.04,-1.12 -0.4,-1.76 -0.44,-0.68 -1.32,-0.68 -0.52,0 -1.04,0.24 -0.52,0.2 -0.8,0.48 -0.12,0.16 -0.2,0.4 -0.04,0.2 -0.04,0.44 0,0.24 0.04,0.6 0.04,0.32 0.04,0.56 0,0.24 -0.64,0.64 -0.64,0.36 -1.48,0.68 -0.84,0.28 -1.44,0.28 -0.28,0 -0.52,-0.24 -0.2,-0.24 -0.2,-0.6 0,-0.64 0.44,-1.24 0.44,-0.64 1.44,-1.44 1.04,-0.88 2.28,-1.56 1.24,-0.68 2.44,-1.08 1.24,-0.4 2.08,-0.4 2.16,0 3.44,1.4 1.28,1.36 1.2,3.64 l -0.2,8.08 q -0.04,0.92 0.32,1.56 0.36,0.64 0.88,0.64 0.76,0 1.32,-0.52 0.12,-0.12 0.24,-0.12 0.2,0 0.32,0.12 0.16,0.12 0.16,0.32 0,0.48 -0.72,1.24 -0.76,0.72 -1.6,1.08 -0.84,0.4 -1.76,0.4 -2.24,0 -3.72,-2.28 h -0.08 q -1.32,1.2 -2.4,1.72 -1.04,0.56 -2.24,0.56 z m 2.4,-2.6 q 0.44,0 0.72,-0.12 0.28,-0.16 0.56,-0.48 0.12,-0.16 0.2,-0.4 0.08,-0.28 0.08,-0.64 l 0.12,-2.88 q 0,-0.4 -0.12,-0.52 -0.12,-0.12 -0.28,-0.12 -0.08,0 -0.2,0.04 -0.12,0.04 -0.28,0.12 -1.16,0.56 -1.72,1.16 -0.56,0.56 -0.56,1.84 0,1.16 0.48,1.6 0.48,0.4 1,0.4 z" />
    <path
       id="path924"
       style="font-style:normal;font-variant:normal;font-weight:bold;font-stretch:normal;font-family:'EB Garamond';-inkscape-font-specification:'EB Garamond Bold';text-align:center;text-anchor:middle;fill:#ffffff"
       d="m 1191.7226,368.68115 q -2.64,0 -3.96,-1.32 -1.32,-1.36 -1.32,-3.8 v -9.2 q 0,-0.36 -0.28,-0.52 -0.24,-0.16 -0.96,-0.2 h -0.52 q -0.28,0 -0.48,-0.44 -0.16,-0.48 -0.16,-0.84 0,-0.08 0.04,-0.2 0.08,-0.16 0.2,-0.2 0.96,-0.36 2.04,-1.08 1.12,-0.76 2.12,-1.6 1.04,-0.84 1.68,-1.4 0.28,-0.2 0.48,-0.36 0.2,-0.16 0.52,-0.16 0.36,0 0.52,0.16 0.16,0.12 0.08,0.64 l -0.24,2.36 q -0.04,0.48 0.2,0.68 0.28,0.16 0.76,0.16 h 4.76 q 0.12,0 0.24,0.28 0.12,0.28 0.12,0.52 0,0.56 -0.16,1.08 -0.16,0.52 -0.36,0.52 h -3.72 q -0.92,0 -1.28,0.24 -0.32,0.2 -0.32,0.76 v 7.56 q 0,1.84 0.68,2.76 0.72,0.88 1.88,0.88 1.16,0 1.68,-0.24 0.56,-0.24 1,-0.4 0.16,-0.08 0.24,-0.08 0.2,0 0.32,0.24 0.12,0.24 0.12,0.56 0,0.24 -0.84,0.88 -0.84,0.64 -2.2,1.2 -1.32,0.56 -2.88,0.56 z" />
    <path
       id="path926"
       style="font-style:normal;font-variant:normal;font-weight:bold;font-stretch:normal;font-family:'EB Garamond';-inkscape-font-specification:'EB Garamond Bold';text-align:center;text-anchor:middle;fill:#ffffff"
       d="m 1204.5625,368.68115 q -1.32,0 -2.56,-0.32 -1.24,-0.32 -2.24,-1.04 -0.36,-0.6 -0.52,-1.88 -0.16,-1.28 -0.12,-2.68 0,-0.48 0.8,-0.48 0.32,0 0.56,0.2 0.24,0.2 0.28,0.4 0.76,1.68 1.76,2.88 1,1.16 2.4,1.16 1.08,0 1.64,-0.64 0.56,-0.68 0.56,-1.52 0,-1.04 -0.84,-1.72 -0.8,-0.72 -1.96,-1.32 -1.16,-0.6 -2.2,-1.36 -1.04,-0.76 -1.72,-1.8 -0.64,-1.08 -0.64,-2.56 0,-1.56 0.84,-2.72 0.88,-1.16 2.32,-1.8 1.48,-0.68 3.28,-0.68 1.32,0 2.44,0.32 1.12,0.28 1.52,0.56 0.32,0.4 0.52,1.52 0.2,1.08 0.2,2.4 0,0.44 -0.72,0.44 -0.28,0 -0.6,-0.2 -0.28,-0.2 -0.36,-0.4 -0.52,-1.56 -1.36,-2.32 -0.8,-0.8 -1.8,-0.8 -0.88,0 -1.6,0.56 -0.72,0.56 -0.72,1.52 0,0.84 0.76,1.52 0.8,0.64 1.96,1.28 2.6,1.36 3.72,2.64 1.12,1.24 1.12,3.32 0,2.6 -1.72,4.08 -1.68,1.44 -5,1.44 z" />
  </g>
</svg>
