<?xml version="1.0" encoding="UTF-8" standalone="no"?>
<svg
   xmlns:dc="http://purl.org/dc/elements/1.1/"
   xmlns:cc="http://creativecommons.org/ns#"
   xmlns:rdf="http://www.w3.org/1999/02/22-rdf-syntax-ns#"
   xmlns:svg="http://www.w3.org/2000/svg"
   xmlns="http://www.w3.org/2000/svg"
   xmlns:xlink="http://www.w3.org/1999/xlink"
   width="444.5mm"
   height="277.8125mm"
   viewBox="0 0 444.5 277.8125"
   version="1.1"
   id="svg8">
  <defs
     id="defs2">
    <linearGradient
       id="linearGradient899">
      <stop
         style="stop-color:#00a562;stop-opacity:1;"
         offset="0"
         id="stop895" />
      <stop
         style="stop-color:#00a562;stop-opacity:0;"
         offset="1"
         id="stop897" />
    </linearGradient>
    <linearGradient
       xlink:href="#linearGradient899"
       id="linearGradient903"
       x1="1689.3649"
       y1="-377.6445"
       x2="1691.1647"
       y2="-379.54852"
       gradientUnits="userSpaceOnUse"
       gradientTransform="matrix(0.26458332,0,0,0.26458333,-2.9539799,239.32846)" />
    <linearGradient
       gradientUnits="userSpaceOnUse"
       y2="138.90625"
       x2="465.91299"
       y1="139.3998"
       x1="444.19131"
       id="linearGradient1019"
       xlink:href="#linearGradient899"
       gradientTransform="translate(8e-5,2.1e-4)" />
    <linearGradient
       gradientUnits="userSpaceOnUse"
       y2="138.90625"
       x2="465.91299"
       y1="139.3998"
       x1="444.19131"
       id="linearGradient1019-9"
       xlink:href="#linearGradient899"
       gradientTransform="translate(-1.43e-4,4.5e-4)" />
  </defs>
  <metadata
     id="metadata5">
    <rdf:RDF>
      <cc:Work
         rdf:about="">
        <dc:format>image/svg+xml</dc:format>
        <dc:type
           rdf:resource="http://purl.org/dc/dcmitype/StillImage" />
        <dc:title></dc:title>
      </cc:Work>
    </rdf:RDF>
  </metadata>
  <path
     style="opacity:1;fill:url(#linearGradient1019-9);fill-opacity:1;stroke:none;stroke-width:9.70262432;stroke-miterlimit:4;stroke-dasharray:none;paint-order:stroke markers fill"
     d="M 286.33187,0 H 0 V 277.8125 H 444.5 V 132.71902 Z"
     id="path1098" />
  <g
     id="flowRoot822"
     style="font-style:normal;font-weight:normal;font-size:40px;line-height:1.25;font-family:sans-serif;letter-spacing:0px;word-spacing:0px;fill:#ffffff;fill-opacity:1;stroke:none"
     transform="matrix(0.81187278,0,0,1.3939693,-154.07978,-291.04302)"
     aria-label="Convert WOFF2/TTF
to TTF/WOFF2
in Ubuntu">
    <path
       id="path834"
       style="font-style:normal;font-variant:normal;font-weight:bold;font-stretch:normal;font-family:'EB Garamond';-inkscape-font-specification:'EB Garamond Bold';fill:#ffffff"
       d="m 257.22539,273.60559 q -3.12,0 -5.84,-0.92 -2.72,-0.96 -4.8,-2.68 -2.08,-1.76 -3.24,-4.2 -1.16,-2.44 -1.16,-5.4 0,-2.76 1.08,-5.24 1.12,-2.52 3.24,-4.44 2.12,-1.96 5.08,-3.08 3,-1.16 6.76,-1.16 1.28,0 2.56,0.2 1.32,0.16 2.52,0.48 1.24,0.32 2.24,0.68 0.36,0.16 0.6,0.44 0.28,0.24 0.32,0.72 0.16,1.32 0.24,2.56 0.08,1.24 0.08,2.24 0,0.44 -0.32,0.6 -0.32,0.16 -0.72,0.04 -0.36,-0.16 -0.52,-0.64 -0.28,-0.92 -0.68,-1.84 -0.36,-0.92 -1.12,-1.6 -0.8,-0.8 -2.24,-1.32 -1.4,-0.52 -3.4,-0.52 -2.04,0 -3.72,0.88 -1.64,0.88 -2.84,2.4 -1.16,1.52 -1.8,3.44 -0.64,1.92 -0.64,4 0,2.64 0.56,4.92 0.56,2.24 1.72,3.88 1.16,1.64 2.84,2.56 1.68,0.92 3.96,0.92 2.96,0 4.8,-1.24 1.84,-1.28 3.08,-3.88 0.32,-0.72 0.88,-0.68 0.6,0.04 0.6,0.68 0,0.52 -0.12,1.28 -0.08,0.72 -0.28,1.56 -0.2,0.84 -0.48,1.72 -0.16,0.48 -0.44,0.76 -0.24,0.24 -0.64,0.44 -1.52,0.64 -3.6,1.04 -2.08,0.4 -4.56,0.4 z" />
    <path
       id="path836"
       style="font-style:normal;font-variant:normal;font-weight:bold;font-stretch:normal;font-family:'EB Garamond';-inkscape-font-specification:'EB Garamond Bold';fill:#ffffff"
       d="m 278.86538,273.60559 q -2.4,0 -4.32,-1.08 -1.92,-1.08 -3.08,-2.96 -1.12,-1.92 -1.12,-4.32 0,-1.92 0.72,-3.64 0.72,-1.72 2,-3.04 1.28,-1.32 3,-2.08 1.72,-0.76 3.68,-0.76 2.48,0 4.48,1.16 2,1.16 3.16,3.08 1.2,1.88 1.2,4.12 0,2.56 -1.12,4.76 -1.08,2.16 -3.24,3.48 -2.12,1.28 -5.36,1.28 z m 0.8,-1.76 q 0.84,0 1.44,-0.32 0.64,-0.36 1.04,-1.04 0.48,-0.8 0.64,-2.16 0.2,-1.4 0.2,-3.28 0,-2.16 -0.48,-3.84 -0.48,-1.72 -1.36,-2.72 -0.84,-1 -2,-1 -0.64,0 -1.16,0.24 -0.52,0.2 -0.92,0.6 -0.68,0.8 -0.96,2.28 -0.24,1.48 -0.24,3.64 0,1.92 0.48,3.68 0.52,1.72 1.36,2.84 0.88,1.08 1.96,1.08 z" />
    <path
       id="path838"
       style="font-style:normal;font-variant:normal;font-weight:bold;font-stretch:normal;font-family:'EB Garamond';-inkscape-font-specification:'EB Garamond Bold';fill:#ffffff"
       d="m 291.14531,273.16559 q -0.28,0 -0.56,-0.12 -0.24,-0.16 -0.24,-0.44 0,-0.32 0.28,-0.48 0.28,-0.2 0.64,-0.32 0.6,-0.2 1.04,-0.44 0.48,-0.28 0.48,-1.08 v -9.16 q 0,-0.88 -0.28,-1.48 -0.24,-0.6 -0.96,-0.76 -0.16,-0.04 -0.32,-0.2 -0.12,-0.16 -0.12,-0.52 0,-0.56 0.4,-0.68 1.36,-0.32 2.96,-0.84 1.64,-0.56 2.8,-1.16 0.16,-0.08 0.36,-0.2 0.2,-0.12 0.36,-0.12 0.24,0 0.28,0.16 0.08,0.12 0.08,0.32 0,0.32 -0.12,1.04 -0.08,0.68 -0.08,1.24 0,0.16 0,0.36 0.04,0.2 0.08,0.24 1.36,-1.32 2.76,-2.04 1.4,-0.72 3.24,-0.72 2.08,0 3.48,1.56 1.44,1.52 1.44,4.16 v 8.8 q 0,0.8 0.44,1.08 0.48,0.24 1.08,0.44 0.32,0.12 0.56,0.32 0.24,0.16 0.24,0.48 0,0.28 -0.24,0.44 -0.2,0.12 -0.44,0.12 -0.8,0 -1.52,-0.08 -0.68,-0.04 -1.36,-0.08 -0.64,-0.04 -1.36,-0.04 -0.68,0 -1.36,0.04 -0.68,0.04 -1.36,0.08 -0.68,0.08 -1.48,0.08 -0.24,0 -0.48,-0.12 -0.2,-0.16 -0.2,-0.44 0,-0.32 0.24,-0.48 0.24,-0.2 0.56,-0.32 0.6,-0.2 1,-0.44 0.4,-0.28 0.4,-1.08 v -7.96 q 0,-1.52 -0.72,-2.36 -0.68,-0.88 -1.84,-0.92 -0.88,0 -1.56,0.28 -0.68,0.28 -1.4,0.76 -0.16,0.16 -0.24,0.36 -0.08,0.2 -0.08,0.4 v 9.44 q 0,0.8 0.44,1.08 0.44,0.24 1,0.44 0.8,0.24 0.8,0.8 0,0.24 -0.2,0.4 -0.2,0.16 -0.48,0.16 -0.8,0 -1.48,-0.08 -0.68,-0.04 -1.28,-0.08 -0.6,-0.04 -1.32,-0.04 -0.68,0 -1.4,0.04 -0.68,0.04 -1.44,0.08 -0.72,0.08 -1.52,0.08 z" />
    <path
       id="path840"
       style="font-style:normal;font-variant:normal;font-weight:bold;font-stretch:normal;font-family:'EB Garamond';-inkscape-font-specification:'EB Garamond Bold';fill:#ffffff"
       d="m 320.74525,273.88559 q -0.24,0 -0.52,-0.52 -0.24,-0.52 -0.56,-1.24 -0.32,-0.72 -0.68,-1.6 -0.36,-0.92 -0.68,-1.64 -1,-2.36 -2.08,-4.6 -1.08,-2.24 -2.12,-4.56 -0.36,-0.88 -0.84,-1.48 -0.48,-0.64 -1.2,-0.88 -0.4,-0.16 -0.56,-0.32 -0.16,-0.2 -0.16,-0.52 0,-0.32 0.32,-0.4 0.36,-0.08 0.64,-0.08 0.96,0 1.48,0.08 0.56,0.04 1.08,0.12 0.52,0.04 1.4,0.04 0.84,0 1.48,-0.04 0.68,-0.08 1.36,-0.12 0.72,-0.08 1.64,-0.08 0.28,0 0.6,0.12 0.36,0.12 0.36,0.4 0,0.36 -0.28,0.48 -0.28,0.12 -0.64,0.28 -0.4,0.16 -0.68,0.6 -0.24,0.44 -0.24,1.12 0,0.36 0,0.68 0,0.28 0.16,0.6 l 2.68,6.6 q 0.04,0 0.04,0 0.04,0 0.08,0 l 2.36,-6.32 q 0.16,-0.36 0.2,-0.68 0.04,-0.32 0.04,-0.6 0,-0.72 -0.32,-1.2 -0.28,-0.52 -0.96,-0.76 -0.36,-0.12 -0.64,-0.24 -0.24,-0.16 -0.24,-0.52 0,-0.28 0.32,-0.4 0.32,-0.12 0.6,-0.12 1.08,0.04 1.6,0.08 0.56,0.04 1.16,0.04 0.6,0 1.16,-0.04 0.56,-0.04 1.6,-0.08 0.28,0 0.6,0.08 0.36,0.08 0.36,0.4 0,0.56 -0.76,0.84 -0.72,0.24 -1.36,0.92 -0.6,0.64 -1,1.56 l -3.12,7.84 q -0.08,0.28 -0.28,0.68 -0.16,0.4 -0.36,0.84 -0.16,0.4 -0.32,0.76 -0.16,0.36 -0.32,0.64 -0.12,0.28 -0.4,0.92 -0.28,0.64 -0.56,1.28 -0.28,0.64 -0.52,1.04 z" />
    <path
       id="path842"
       style="font-style:normal;font-variant:normal;font-weight:bold;font-stretch:normal;font-family:'EB Garamond';-inkscape-font-specification:'EB Garamond Bold';fill:#ffffff"
       d="m 338.22523,273.60559 q -2.16,0 -3.88,-1.12 -1.68,-1.16 -2.68,-3.12 -0.96,-2 -0.96,-4.52 0,-2.52 1.16,-4.56 1.16,-2.08 3.16,-3.28 2,-1.24 4.4,-1.24 1.72,0 3.08,0.76 1.36,0.72 2.16,1.96 0.84,1.24 0.84,2.8 0,1.52 -1.24,1.52 h -8 q -0.56,0 -0.84,0.32 -0.24,0.32 -0.24,1.08 0,1.52 0.68,2.8 0.68,1.24 1.84,1.96 1.16,0.72 2.68,0.72 1.16,0 2.12,-0.44 1,-0.44 1.96,-1.2 0.16,-0.12 0.28,-0.2 0.16,-0.12 0.28,-0.12 0.4,0 0.4,0.52 0,0.44 -0.32,1.2 -0.4,1 -1.36,2 -0.92,0.96 -2.32,1.56 -1.4,0.6 -3.2,0.6 z m -1.96,-12.48 h 2.4 q 1.12,0 1.56,-0.04 0.44,-0.04 0.8,-0.16 0.2,-0.08 0.32,-0.4 0.12,-0.32 0.12,-0.72 0,-1.08 -0.76,-1.76 -0.72,-0.68 -1.8,-0.68 -0.84,0 -1.6,0.48 -0.72,0.44 -1.2,1.2 -0.44,0.72 -0.4,1.52 0,0.56 0.56,0.56 z" />
    <path
       id="path844"
       style="font-style:normal;font-variant:normal;font-weight:bold;font-stretch:normal;font-family:'EB Garamond';-inkscape-font-specification:'EB Garamond Bold';fill:#ffffff"
       d="m 348.14523,273.16559 q -0.32,0 -0.56,-0.12 -0.24,-0.16 -0.24,-0.44 0,-0.32 0.24,-0.48 0.24,-0.2 0.68,-0.32 0.88,-0.28 1.16,-0.6 0.32,-0.32 0.32,-0.92 v -9.2 q 0,-0.84 -0.24,-1.36 -0.2,-0.56 -0.96,-0.76 -0.2,-0.08 -0.36,-0.2 -0.16,-0.16 -0.16,-0.52 0,-0.56 0.48,-0.68 1.28,-0.32 2.8,-0.84 1.56,-0.52 2.64,-1.04 0.2,-0.16 0.48,-0.28 0.32,-0.16 0.44,-0.16 0.36,0 0.36,0.44 0,0.2 -0.04,0.84 0,0.6 -0.04,1.24 0,0.64 -0.04,1.08 0,0.36 0.16,0.36 0.6,-0.84 1.4,-1.64 0.84,-0.8 1.8,-1.32 0.96,-0.52 1.88,-0.52 1.4,0 1.96,0.52 0.6,0.52 0.6,1.36 0,0.6 -0.36,1.32 -0.32,0.72 -0.84,1.24 -0.52,0.52 -1.12,0.52 -0.36,0 -0.76,-0.16 -0.4,-0.2 -0.8,-0.4 -0.4,-0.16 -0.8,-0.32 -0.36,-0.2 -0.68,-0.2 -1.04,0 -1.8,0.76 -0.76,0.76 -0.76,3.04 v 6.52 q 0,0.8 0.48,1.2 0.52,0.36 1.64,0.68 0.44,0.12 0.64,0.32 0.24,0.16 0.24,0.48 0,0.56 -0.68,0.56 -1.2,0 -2.48,-0.12 -1.28,-0.08 -2.32,-0.08 -0.68,0 -1.4,0.04 -0.68,0.04 -1.44,0.08 -0.72,0.08 -1.52,0.08 z" />
    <path
       id="path846"
       style="font-style:normal;font-variant:normal;font-weight:bold;font-stretch:normal;font-family:'EB Garamond';-inkscape-font-specification:'EB Garamond Bold';fill:#ffffff"
       d="m 371.78521,273.60559 q -2.64,0 -3.96,-1.32 -1.32,-1.36 -1.32,-3.8 v -9.2 q 0,-0.36 -0.28,-0.52 -0.24,-0.16 -0.96,-0.2 h -0.52 q -0.28,0 -0.48,-0.44 -0.16,-0.48 -0.16,-0.84 0,-0.08 0.04,-0.2 0.08,-0.16 0.2,-0.2 0.96,-0.36 2.04,-1.08 1.12,-0.76 2.12,-1.6 1.04,-0.84 1.68,-1.4 0.28,-0.2 0.48,-0.36 0.2,-0.16 0.52,-0.16 0.36,0 0.52,0.16 0.16,0.12 0.08,0.64 l -0.24,2.36 q -0.04,0.48 0.2,0.68 0.28,0.16 0.76,0.16 h 4.76 q 0.12,0 0.24,0.28 0.12,0.28 0.12,0.52 0,0.56 -0.16,1.08 -0.16,0.52 -0.36,0.52 h -3.72 q -0.92,0 -1.28,0.24 -0.32,0.2 -0.32,0.76 v 7.56 q 0,1.84 0.68,2.76 0.72,0.88 1.88,0.88 1.16,0 1.68,-0.24 0.56,-0.24 1,-0.4 0.16,-0.08 0.24,-0.08 0.2,0 0.32,0.24 0.12,0.24 0.12,0.56 0,0.24 -0.84,0.88 -0.84,0.64 -2.2,1.2 -1.32,0.56 -2.88,0.56 z" />
    <path
       id="path848"
       style="font-style:normal;font-variant:normal;font-weight:bold;font-stretch:normal;font-family:'EB Garamond';-inkscape-font-specification:'EB Garamond Bold';fill:#ffffff"
       d="m 402.30511,273.72559 q -0.32,0 -0.48,-0.32 -0.16,-0.32 -0.36,-0.72 l -10.08,-21.8 q -0.44,-0.96 -1,-1.6 -0.56,-0.68 -1.72,-0.96 -0.4,-0.16 -0.8,-0.32 -0.36,-0.16 -0.36,-0.56 0,-0.28 0.36,-0.4 0.36,-0.16 0.68,-0.16 1.2,0 2.68,0.08 1.52,0.08 2.64,0.08 1.2,0 2.44,-0.08 1.24,-0.08 2.44,-0.08 0.52,0 0.84,0.16 0.36,0.12 0.36,0.4 0,0.36 -0.32,0.56 -0.32,0.16 -0.96,0.28 -0.64,0.16 -0.76,0.48 -0.12,0.32 -0.12,0.76 0,0.24 0.08,0.64 0.08,0.4 0.12,0.52 0.8,1.88 1.6,3.72 0.8,1.8 1.56,3.64 0.76,1.8 1.56,3.64 0.8,1.8 1.56,3.72 0.2,0.44 0.32,0.48 0.12,0.04 0.36,-0.44 l 2.2,-4.16 q 0.12,-0.24 0.16,-0.4 0.08,-0.2 0.08,-0.36 0,-0.16 -0.08,-0.32 -0.04,-0.2 -0.12,-0.44 l -4.12,-8.76 q -0.4,-1 -1.2,-1.68 -0.8,-0.72 -2,-1 -0.4,-0.16 -0.68,-0.32 -0.24,-0.16 -0.24,-0.56 0,-0.28 0.24,-0.4 0.24,-0.16 0.56,-0.16 0.8,0 1.84,0.04 1.04,0.04 2.04,0.08 1.04,0.04 1.8,0.04 1.16,0 2.36,-0.08 1.24,-0.08 2.44,-0.08 0.6,0 0.96,0.16 0.36,0.12 0.36,0.4 0,0.24 -0.2,0.44 -0.2,0.16 -0.56,0.28 -0.32,0.12 -0.68,0.28 -0.72,0.16 -0.84,0.56 -0.08,0.4 0.08,0.88 0.16,0.36 0.36,1.04 0.24,0.64 0.52,1.4 0.32,0.72 0.56,1.4 0.28,0.68 0.44,1.08 0.28,0.6 0.4,0.48 0.16,-0.12 0.32,-0.48 0.28,-0.56 0.64,-1.44 0.36,-0.92 0.68,-1.8 0.32,-0.88 0.48,-1.32 0.2,-0.32 0.2,-0.76 0,-0.6 -0.52,-0.84 -0.48,-0.28 -0.96,-0.48 -0.48,-0.24 -0.48,-0.68 0,-0.24 0.12,-0.4 0.16,-0.16 0.8,-0.16 1.08,0 1.4,0.08 0.36,0.04 0.92,0.04 0.64,-0.04 1.2,-0.12 0.56,-0.08 1.72,-0.08 0.48,0 0.84,0.16 0.36,0.12 0.36,0.48 0,0.4 -0.36,0.56 -0.32,0.12 -0.72,0.24 -1.24,0.32 -1.8,0.96 -0.56,0.64 -1.04,1.56 -0.4,0.76 -0.88,1.72 -0.48,0.96 -0.96,1.96 -0.44,1 -0.88,1.88 -0.2,0.48 -0.16,1 0.04,0.48 0.24,1 l 3.08,7.08 q 0.12,0.36 0.24,0.28 0.16,-0.12 0.24,-0.36 1.52,-3.4 3,-7.08 1.48,-3.68 2.64,-6.8 0.4,-1 0.44,-1.36 0.08,-0.4 0.04,-0.6 -0.04,-0.44 -0.32,-0.76 -0.28,-0.32 -0.8,-0.44 -0.4,-0.12 -0.84,-0.32 -0.4,-0.2 -0.4,-0.56 0,-0.28 0.36,-0.4 0.36,-0.12 0.8,-0.12 1.2,0 1.68,0.08 0.52,0.04 1.12,0 0.64,-0.04 1.32,-0.12 0.68,-0.08 1.8,-0.08 0.56,0 0.96,0.12 0.4,0.12 0.4,0.52 0,0.36 -0.44,0.52 -0.4,0.12 -0.8,0.28 -0.84,0.2 -1.4,0.64 -0.56,0.44 -0.92,1 -0.36,0.52 -0.64,1.16 l -9.32,21.84 q -0.12,0.32 -0.32,0.52 -0.2,0.2 -0.48,0.2 -0.32,0 -0.56,-0.2 -0.2,-0.16 -0.4,-0.56 -0.44,-1 -1.08,-2.32 -0.64,-1.32 -1.48,-3.12 -0.84,-1.84 -1.96,-4.32 -0.12,-0.28 -0.28,-0.24 -0.16,0.04 -0.28,0.28 -0.8,1.6 -1.64,3.2 -0.84,1.6 -1.68,3.24 -0.84,1.6 -1.68,3.2 -0.16,0.4 -0.36,0.68 -0.16,0.28 -0.52,0.28 z" />
    <path
       id="path850"
       style="font-style:normal;font-variant:normal;font-weight:bold;font-stretch:normal;font-family:'EB Garamond';-inkscape-font-specification:'EB Garamond Bold';fill:#ffffff"
       d="m 441.58501,273.60559 q -2.76,0 -5.28,-0.92 -2.48,-0.96 -4.44,-2.68 -1.92,-1.76 -3.04,-4.16 -1.08,-2.44 -1.08,-5.4 0,-2.72 0.88,-5.2 0.92,-2.52 2.72,-4.48 1.8,-1.96 4.44,-3.12 2.68,-1.16 6.16,-1.16 2.8,0 5.28,0.96 2.52,0.92 4.44,2.68 1.92,1.72 3.04,4.16 1.12,2.4 1.12,5.36 0,2.68 -0.92,5.2 -0.92,2.52 -2.72,4.48 -1.8,1.96 -4.48,3.12 -2.64,1.16 -6.12,1.16 z m 0.72,-1.84 q 2.28,0 3.8,-1.28 1.56,-1.28 2.32,-3.56 0.76,-2.28 0.76,-5.24 0,-2.44 -0.48,-4.8 -0.44,-2.4 -1.44,-4.32 -0.96,-1.92 -2.48,-3.04 -1.52,-1.16 -3.6,-1.16 -2.24,0 -3.8,1.28 -1.52,1.28 -2.28,3.52 -0.76,2.24 -0.76,5.2 0,2.48 0.48,4.88 0.48,2.36 1.44,4.28 0.96,1.92 2.44,3.08 1.52,1.16 3.6,1.16 z" />
    <path
       id="path852"
       style="font-style:normal;font-variant:normal;font-weight:bold;font-stretch:normal;font-family:'EB Garamond';-inkscape-font-specification:'EB Garamond Bold';fill:#ffffff"
       d="m 458.50494,273.16559 q -0.32,0 -0.56,-0.12 -0.24,-0.16 -0.24,-0.44 0,-0.64 0.84,-0.84 1.52,-0.32 2.08,-0.8 0.56,-0.52 0.56,-1.84 v -17.92 q 0,-1.36 -0.48,-1.96 -0.48,-0.64 -1.92,-0.96 -0.52,-0.12 -0.72,-0.32 -0.2,-0.24 -0.2,-0.52 0,-0.24 0.24,-0.4 0.24,-0.2 0.64,-0.2 0.96,0 2,0.04 1.04,0.04 2.04,0.12 1,0.04 1.92,0.04 1.56,0 3.4,0 1.88,0 3.6,0 1.64,0 2.96,-0.2 1.36,-0.24 2.2,-0.24 0.32,0 0.64,0.16 0.32,0.16 0.36,0.6 0.08,0.92 0.12,1.92 0.04,1 0.04,1.92 0.04,0.92 0.04,1.56 0,0.8 -0.48,0.8 -0.2,0 -0.48,-0.16 -0.24,-0.16 -0.32,-0.48 -0.28,-1 -0.6,-1.76 -0.32,-0.8 -0.84,-1.32 -0.52,-0.56 -1.24,-0.8 -0.68,-0.24 -1.64,-0.24 h -3 q -1,0 -1.56,0.52 -0.56,0.48 -0.56,1.32 0,0.72 0,1.68 0,0.96 0,1.72 0,0.88 0,1.92 0,1.04 0,1.92 0,0.52 0.24,0.76 0.24,0.2 0.68,0.2 1,0 2,0 1,0 1.88,0 1.04,0 1.52,-0.6 0.48,-0.64 0.84,-1.48 0.16,-0.32 0.36,-0.52 0.24,-0.2 0.44,-0.2 0.2,0 0.36,0.24 0.2,0.24 0.16,0.64 -0.08,0.84 -0.16,1.6 -0.04,0.72 -0.04,1.28 0,0.76 0.04,1.32 0.04,0.52 0.12,1.44 0.04,0.52 -0.08,0.8 -0.12,0.24 -0.32,0.24 -0.32,0 -0.6,-0.28 -0.24,-0.32 -0.36,-0.68 -0.32,-1.2 -0.8,-1.6 -0.48,-0.44 -1.2,-0.44 -0.44,0 -0.96,0 -0.48,0 -0.92,0 -0.56,0 -1.2,0 -0.6,0 -1.16,0.04 -0.44,0 -0.68,0.24 -0.2,0.24 -0.2,0.68 0,1.8 0,3.76 0.04,1.96 0.08,3.76 0,1.28 0.68,1.8 0.68,0.52 2.36,0.88 0.4,0.08 0.6,0.28 0.24,0.16 0.24,0.52 0,0.28 -0.2,0.44 -0.16,0.16 -0.52,0.16 -0.88,0 -2.04,-0.08 -1.16,-0.04 -2.28,-0.08 -1.12,-0.04 -1.92,-0.04 -0.8,0 -1.8,0.04 -1,0.04 -2.04,0.08 -1.04,0.08 -1.96,0.08 z" />
    <path
       id="path854"
       style="font-style:normal;font-variant:normal;font-weight:bold;font-stretch:normal;font-family:'EB Garamond';-inkscape-font-specification:'EB Garamond Bold';fill:#ffffff"
       d="m 480.34492,273.16559 q -0.32,0 -0.56,-0.12 -0.24,-0.16 -0.24,-0.44 0,-0.64 0.84,-0.84 1.52,-0.32 2.08,-0.8 0.56,-0.52 0.56,-1.84 v -17.92 q 0,-1.36 -0.48,-1.96 -0.48,-0.64 -1.92,-0.96 -0.52,-0.12 -0.72,-0.32 -0.2,-0.24 -0.2,-0.52 0,-0.24 0.24,-0.4 0.24,-0.2 0.64,-0.2 0.96,0 2,0.04 1.04,0.04 2.04,0.12 1,0.04 1.92,0.04 1.56,0 3.4,0 1.88,0 3.6,0 1.64,0 2.96,-0.2 1.36,-0.24 2.2,-0.24 0.32,0 0.64,0.16 0.32,0.16 0.36,0.6 0.08,0.92 0.12,1.92 0.04,1 0.04,1.92 0.04,0.92 0.04,1.56 0,0.8 -0.48,0.8 -0.2,0 -0.48,-0.16 -0.24,-0.16 -0.32,-0.48 -0.28,-1 -0.6,-1.76 -0.32,-0.8 -0.84,-1.32 -0.52,-0.56 -1.24,-0.8 -0.68,-0.24 -1.64,-0.24 h -3 q -1,0 -1.56,0.52 -0.56,0.48 -0.56,1.32 0,0.72 0,1.68 0,0.96 0,1.72 0,0.88 0,1.92 0,1.04 0,1.92 0,0.52 0.24,0.76 0.24,0.2 0.68,0.2 1,0 2,0 1,0 1.88,0 1.04,0 1.52,-0.6 0.48,-0.64 0.84,-1.48 0.16,-0.32 0.36,-0.52 0.24,-0.2 0.44,-0.2 0.2,0 0.36,0.24 0.2,0.24 0.16,0.64 -0.08,0.84 -0.16,1.6 -0.04,0.72 -0.04,1.28 0,0.76 0.04,1.32 0.04,0.52 0.12,1.44 0.04,0.52 -0.08,0.8 -0.12,0.24 -0.32,0.24 -0.32,0 -0.6,-0.28 -0.24,-0.32 -0.36,-0.68 -0.32,-1.2 -0.8,-1.6 -0.48,-0.44 -1.2,-0.44 -0.44,0 -0.96,0 -0.48,0 -0.92,0 -0.56,0 -1.2,0 -0.6,0 -1.16,0.04 -0.44,0 -0.68,0.24 -0.2,0.24 -0.2,0.68 0,1.8 0,3.76 0.04,1.96 0.08,3.76 0,1.28 0.68,1.8 0.68,0.52 2.36,0.88 0.4,0.08 0.6,0.28 0.24,0.16 0.24,0.52 0,0.28 -0.2,0.44 -0.16,0.16 -0.52,0.16 -0.88,0 -2.04,-0.08 -1.16,-0.04 -2.28,-0.08 -1.12,-0.04 -1.92,-0.04 -0.8,0 -1.8,0.04 -1,0.04 -2.04,0.08 -1.04,0.08 -1.96,0.08 z" />
    <path
       id="path856"
       style="font-style:normal;font-variant:normal;font-weight:bold;font-stretch:normal;font-family:'EB Garamond';-inkscape-font-specification:'EB Garamond Bold';fill:#ffffff"
       d="m 517.66486,273.20559 q -0.24,0 -1.2,-0.04 -0.92,0 -2.2,-0.04 -1.24,-0.04 -2.56,-0.08 -1.32,-0.04 -2.32,-0.04 -0.92,0 -2.04,0.04 -1.08,0.04 -2.08,0.04 -0.96,0.04 -1.64,0.04 -0.64,0.04 -0.76,0.04 -0.12,0 -0.48,-0.2 -0.32,-0.24 -0.32,-0.48 0,-0.32 0.16,-0.52 0.16,-0.2 0.32,-0.36 l 5.84,-6.48 q 2.12,-2.32 3.16,-4.64 1.04,-2.36 1.04,-5.12 0,-1.68 -0.88,-2.8 -0.84,-1.16 -2.4,-1.16 -1.4,0 -2.64,0.8 -1.24,0.8 -2.12,1.72 -0.2,0.24 -0.56,0.56 -0.36,0.28 -0.72,0.28 -0.32,0 -0.44,-0.24 -0.12,-0.28 -0.12,-0.68 0,-0.68 0.64,-1.64 0.68,-1 1.84,-2 1.2,-1 2.72,-1.68 1.56,-0.68 3.28,-0.68 2.08,0 3.48,0.92 1.44,0.92 2.2,2.44 0.76,1.52 0.76,3.32 0,1.12 -0.52,2.48 -0.48,1.32 -1.2,2.56 -0.72,1.2 -1.48,2.08 -0.6,0.68 -1.52,1.6 -0.88,0.88 -1.84,1.8 -0.96,0.92 -1.84,1.72 -0.88,0.8 -1.4,1.32 -0.52,0.52 -0.52,0.6 0,0.16 0.6,0.24 0.72,0.08 1.72,0.12 1.04,0.04 1.88,0.04 0.92,0 1.8,-0.04 0.88,-0.04 1.76,-0.12 0.88,-0.08 1.52,-0.32 0.68,-0.28 1.16,-0.76 0.52,-0.52 0.92,-1.32 0.12,-0.28 0.4,-0.56 0.32,-0.32 0.72,-0.32 0.32,0 0.44,0.28 0.12,0.24 0,0.52 -0.36,1.04 -0.76,2.28 -0.36,1.2 -0.64,2.2 -0.28,0.96 -0.32,1.36 -0.04,0.48 -0.4,0.72 -0.36,0.2 -0.44,0.2 z" />
    <path
       id="path858"
       style="font-style:normal;font-variant:normal;font-weight:bold;font-stretch:normal;font-family:'EB Garamond';-inkscape-font-specification:'EB Garamond Bold';fill:#ffffff"
       d="m 522.30483,275.52559 q 0.52,0 1.04,-0.16 0.52,-0.12 0.76,-0.6 l 12.4,-27.56 q 0.12,-0.28 -0.12,-0.56 -0.2,-0.28 -0.72,-0.28 -0.64,0 -1.12,0.16 -0.44,0.16 -0.68,0.68 l -12.36,27.56 q -0.12,0.28 0.12,0.52 0.24,0.24 0.68,0.24 z" />
    <path
       id="path860"
       style="font-style:normal;font-variant:normal;font-weight:bold;font-stretch:normal;font-family:'EB Garamond';-inkscape-font-specification:'EB Garamond Bold';fill:#ffffff"
       d="m 545.30476,273.16559 q -0.28,0 -0.6,-0.12 -0.32,-0.16 -0.32,-0.44 0,-0.36 0.28,-0.56 0.28,-0.2 0.68,-0.28 1.52,-0.32 2.2,-0.84 0.72,-0.52 0.72,-1.8 v -16.52 q 0,-1.56 -0.08,-2.28 -0.08,-0.76 -0.24,-1 -0.12,-0.28 -0.32,-0.36 -0.36,-0.2 -0.96,-0.2 -0.56,-0.04 -0.92,-0.04 h -0.88 q -1.28,0 -2.44,0.64 -1.12,0.6 -1.8,1.52 -0.2,0.28 -0.6,0.8 -0.36,0.48 -0.8,0.88 -0.4,0.36 -0.8,0.36 -0.32,0 -0.44,-0.2 -0.12,-0.24 -0.12,-0.52 0,-0.48 0.24,-1 0.76,-1.52 1.12,-2.6 0.36,-1.08 0.48,-2.48 0.08,-0.6 0.36,-0.8 0.28,-0.24 0.64,-0.24 0.28,0 0.6,0.52 0.32,0.52 0.68,0.84 0.4,0.32 1.32,0.48 0.96,0.16 1.56,0.16 h 15.04 q 1,0 1.68,-0.2 0.72,-0.2 1.08,-0.4 0.64,-0.36 1,-0.8 0.4,-0.44 0.92,-0.44 0.24,0 0.32,0.2 0.12,0.16 0.12,0.48 0,0.16 -0.04,0.4 0,0.24 -0.04,0.44 -0.2,0.76 -0.4,1.48 -0.2,0.68 -0.32,1.32 -0.12,0.64 -0.12,1.32 v 0.8 q 0,0.64 -0.16,1.04 -0.12,0.4 -0.52,0.4 -0.36,0 -0.6,-0.36 -0.24,-0.4 -0.52,-1.24 -0.44,-1.44 -1.32,-2.12 -0.84,-0.68 -2.6,-0.68 h -2.08 q -0.68,0 -1.12,0.32 -0.4,0.28 -0.6,1.2 -0.2,0.88 -0.2,2.72 v 16.12 q 0,1.2 0.64,1.76 0.68,0.52 2.24,0.92 0.4,0.12 0.68,0.28 0.28,0.16 0.28,0.52 0,0.28 -0.24,0.44 -0.24,0.16 -0.6,0.16 -0.88,0 -2,-0.08 -1.08,-0.04 -2.2,-0.08 -1.08,-0.04 -1.88,-0.04 -0.84,0 -1.92,0.04 -1.04,0.04 -2.12,0.08 -1.04,0.08 -1.96,0.08 z" />
    <path
       id="path862"
       style="font-style:normal;font-variant:normal;font-weight:bold;font-stretch:normal;font-family:'EB Garamond';-inkscape-font-specification:'EB Garamond Bold';fill:#ffffff"
       d="m 573.10475,273.16559 q -0.28,0 -0.6,-0.12 -0.32,-0.16 -0.32,-0.44 0,-0.36 0.28,-0.56 0.28,-0.2 0.68,-0.28 1.52,-0.32 2.2,-0.84 0.72,-0.52 0.72,-1.8 v -16.52 q 0,-1.56 -0.08,-2.28 -0.08,-0.76 -0.24,-1 -0.12,-0.28 -0.32,-0.36 -0.36,-0.2 -0.96,-0.2 -0.56,-0.04 -0.92,-0.04 h -0.88 q -1.28,0 -2.44,0.64 -1.12,0.6 -1.8,1.52 -0.2,0.28 -0.6,0.8 -0.36,0.48 -0.8,0.88 -0.4,0.36 -0.8,0.36 -0.32,0 -0.44,-0.2 -0.12,-0.24 -0.12,-0.52 0,-0.48 0.24,-1 0.76,-1.52 1.12,-2.6 0.36,-1.08 0.48,-2.48 0.08,-0.6 0.36,-0.8 0.28,-0.24 0.64,-0.24 0.28,0 0.6,0.52 0.32,0.52 0.68,0.84 0.4,0.32 1.32,0.48 0.96,0.16 1.56,0.16 h 15.04 q 1,0 1.68,-0.2 0.72,-0.2 1.08,-0.4 0.64,-0.36 1,-0.8 0.4,-0.44 0.92,-0.44 0.24,0 0.32,0.2 0.12,0.16 0.12,0.48 0,0.16 -0.04,0.4 0,0.24 -0.04,0.44 -0.2,0.76 -0.4,1.48 -0.2,0.68 -0.32,1.32 -0.12,0.64 -0.12,1.32 v 0.8 q 0,0.64 -0.16,1.04 -0.12,0.4 -0.52,0.4 -0.36,0 -0.6,-0.36 -0.24,-0.4 -0.52,-1.24 -0.44,-1.44 -1.32,-2.12 -0.84,-0.68 -2.6,-0.68 h -2.08 q -0.68,0 -1.12,0.32 -0.4,0.28 -0.6,1.2 -0.2,0.88 -0.2,2.72 v 16.12 q 0,1.2 0.64,1.76 0.68,0.52 2.24,0.92 0.4,0.12 0.68,0.28 0.28,0.16 0.28,0.52 0,0.28 -0.24,0.44 -0.24,0.16 -0.6,0.16 -0.88,0 -2,-0.08 -1.08,-0.04 -2.2,-0.08 -1.08,-0.04 -1.88,-0.04 -0.84,0 -1.92,0.04 -1.04,0.04 -2.12,0.08 -1.04,0.08 -1.96,0.08 z" />
    <path
       id="path864"
       style="font-style:normal;font-variant:normal;font-weight:bold;font-stretch:normal;font-family:'EB Garamond';-inkscape-font-specification:'EB Garamond Bold';fill:#ffffff"
       d="m 594.18473,273.16559 q -0.32,0 -0.56,-0.12 -0.24,-0.16 -0.24,-0.44 0,-0.64 0.84,-0.84 1.52,-0.32 2.08,-0.8 0.56,-0.52 0.56,-1.84 v -17.92 q 0,-1.36 -0.48,-1.96 -0.48,-0.64 -1.92,-0.96 -0.52,-0.12 -0.72,-0.32 -0.2,-0.24 -0.2,-0.52 0,-0.24 0.24,-0.4 0.24,-0.2 0.64,-0.2 0.96,0 2,0.04 1.04,0.04 2.04,0.12 1,0.04 1.92,0.04 1.56,0 3.4,0 1.88,0 3.6,0 1.64,0 2.96,-0.2 1.36,-0.24 2.2,-0.24 0.32,0 0.64,0.16 0.32,0.16 0.36,0.6 0.08,0.92 0.12,1.92 0.04,1 0.04,1.92 0.04,0.92 0.04,1.56 0,0.8 -0.48,0.8 -0.2,0 -0.48,-0.16 -0.24,-0.16 -0.32,-0.48 -0.28,-1 -0.6,-1.76 -0.32,-0.8 -0.84,-1.32 -0.52,-0.56 -1.24,-0.8 -0.68,-0.24 -1.64,-0.24 h -3 q -1,0 -1.56,0.52 -0.56,0.48 -0.56,1.32 0,0.72 0,1.68 0,0.96 0,1.72 0,0.88 0,1.92 0,1.04 0,1.92 0,0.52 0.24,0.76 0.24,0.2 0.68,0.2 1,0 2,0 1,0 1.88,0 1.04,0 1.52,-0.6 0.48,-0.64 0.84,-1.48 0.16,-0.32 0.36,-0.52 0.24,-0.2 0.44,-0.2 0.2,0 0.36,0.24 0.2,0.24 0.16,0.64 -0.08,0.84 -0.16,1.6 -0.04,0.72 -0.04,1.28 0,0.76 0.04,1.32 0.04,0.52 0.12,1.44 0.04,0.52 -0.08,0.8 -0.12,0.24 -0.32,0.24 -0.32,0 -0.6,-0.28 -0.24,-0.32 -0.36,-0.68 -0.32,-1.2 -0.8,-1.6 -0.48,-0.44 -1.2,-0.44 -0.44,0 -0.96,0 -0.48,0 -0.92,0 -0.56,0 -1.2,0 -0.6,0 -1.16,0.04 -0.44,0 -0.68,0.24 -0.2,0.24 -0.2,0.68 0,1.8 0,3.76 0.04,1.96 0.08,3.76 0,1.28 0.68,1.8 0.68,0.52 2.36,0.88 0.4,0.08 0.6,0.28 0.24,0.16 0.24,0.52 0,0.28 -0.2,0.44 -0.16,0.16 -0.52,0.16 -0.88,0 -2.04,-0.08 -1.16,-0.04 -2.28,-0.08 -1.12,-0.04 -1.92,-0.04 -0.8,0 -1.8,0.04 -1,0.04 -2.04,0.08 -1.04,0.08 -1.96,0.08 z" />
    <path
       id="path866"
       style="font-style:normal;font-variant:normal;font-weight:bold;font-stretch:normal;font-family:'EB Garamond';-inkscape-font-specification:'EB Garamond Bold';fill:#ffffff"
       d="m 249.78539,324.08087 q -2.64,0 -3.96,-1.32 -1.32,-1.36 -1.32,-3.8 v -9.2 q 0,-0.36 -0.28,-0.52 -0.24,-0.16 -0.96,-0.2 h -0.52 q -0.28,0 -0.48,-0.44 -0.16,-0.48 -0.16,-0.84 0,-0.08 0.04,-0.2 0.08,-0.16 0.2,-0.2 0.96,-0.36 2.04,-1.08 1.12,-0.76 2.12,-1.6 1.04,-0.84 1.68,-1.4 0.28,-0.2 0.48,-0.36 0.2,-0.16 0.52,-0.16 0.36,0 0.52,0.16 0.16,0.12 0.08,0.64 l -0.24,2.36 q -0.04,0.48 0.2,0.68 0.28,0.16 0.76,0.16 h 4.76 q 0.12,0 0.24,0.28 0.12,0.28 0.12,0.52 0,0.56 -0.16,1.08 -0.16,0.52 -0.36,0.52 h -3.72 q -0.92,0 -1.28,0.24 -0.32,0.2 -0.32,0.76 v 7.56 q 0,1.84 0.68,2.76 0.72,0.88 1.88,0.88 1.16,0 1.68,-0.24 0.56,-0.24 1,-0.4 0.16,-0.08 0.24,-0.08 0.2,0 0.32,0.24 0.12,0.24 0.12,0.56 0,0.24 -0.84,0.88 -0.84,0.64 -2.2,1.2 -1.32,0.56 -2.88,0.56 z" />
    <path
       id="path868"
       style="font-style:normal;font-variant:normal;font-weight:bold;font-stretch:normal;font-family:'EB Garamond';-inkscape-font-specification:'EB Garamond Bold';fill:#ffffff"
       d="m 265.50531,324.08087 q -2.4,0 -4.32,-1.08 -1.92,-1.08 -3.08,-2.96 -1.12,-1.92 -1.12,-4.32 0,-1.92 0.72,-3.64 0.72,-1.72 2,-3.04 1.28,-1.32 3,-2.08 1.72,-0.76 3.68,-0.76 2.48,0 4.48,1.16 2,1.16 3.16,3.08 1.2,1.88 1.2,4.12 0,2.56 -1.12,4.76 -1.08,2.16 -3.24,3.48 -2.12,1.28 -5.36,1.28 z m 0.8,-1.76 q 0.84,0 1.44,-0.32 0.64,-0.36 1.04,-1.04 0.48,-0.8 0.64,-2.16 0.2,-1.4 0.2,-3.28 0,-2.16 -0.48,-3.84 -0.48,-1.72 -1.36,-2.72 -0.84,-1 -2,-1 -0.64,0 -1.16,0.24 -0.52,0.2 -0.92,0.6 -0.68,0.8 -0.96,2.28 -0.24,1.48 -0.24,3.64 0,1.92 0.48,3.68 0.52,1.72 1.36,2.84 0.88,1.08 1.96,1.08 z" />
    <path
       id="path870"
       style="font-style:normal;font-variant:normal;font-weight:bold;font-stretch:normal;font-family:'EB Garamond';-inkscape-font-specification:'EB Garamond Bold';fill:#ffffff"
       d="m 293.2252,323.64087 q -0.28,0 -0.6,-0.12 -0.32,-0.16 -0.32,-0.44 0,-0.36 0.28,-0.56 0.28,-0.2 0.68,-0.28 1.52,-0.32 2.2,-0.84 0.72,-0.52 0.72,-1.8 v -16.52 q 0,-1.56 -0.08,-2.28 -0.08,-0.76 -0.24,-1 -0.12,-0.28 -0.32,-0.36 -0.36,-0.2 -0.96,-0.2 -0.56,-0.04 -0.92,-0.04 h -0.88 q -1.28,0 -2.44,0.64 -1.12,0.6 -1.8,1.52 -0.2,0.28 -0.6,0.8 -0.36,0.48 -0.8,0.88 -0.4,0.36 -0.8,0.36 -0.32,0 -0.44,-0.2 -0.12,-0.24 -0.12,-0.52 0,-0.48 0.24,-1 0.76,-1.52 1.12,-2.6 0.36,-1.08 0.48,-2.48 0.08,-0.6 0.36,-0.8 0.28,-0.24 0.64,-0.24 0.28,0 0.6,0.52 0.32,0.52 0.68,0.84 0.4,0.32 1.32,0.48 0.96,0.16 1.56,0.16 h 15.04 q 1,0 1.68,-0.2 0.72,-0.2 1.08,-0.4 0.64,-0.36 1,-0.8 0.4,-0.44 0.92,-0.44 0.24,0 0.32,0.2 0.12,0.16 0.12,0.48 0,0.16 -0.04,0.4 0,0.24 -0.04,0.44 -0.2,0.76 -0.4,1.48 -0.2,0.68 -0.32,1.32 -0.12,0.64 -0.12,1.32 v 0.8 q 0,0.64 -0.16,1.04 -0.12,0.4 -0.52,0.4 -0.36,0 -0.6,-0.36 -0.24,-0.4 -0.52,-1.24 -0.44,-1.44 -1.32,-2.12 -0.84,-0.68 -2.6,-0.68 h -2.08 q -0.68,0 -1.12,0.32 -0.4,0.28 -0.6,1.2 -0.2,0.88 -0.2,2.72 v 16.12 q 0,1.2 0.64,1.76 0.68,0.52 2.24,0.92 0.4,0.12 0.68,0.28 0.28,0.16 0.28,0.52 0,0.28 -0.24,0.44 -0.24,0.16 -0.6,0.16 -0.88,0 -2,-0.08 -1.08,-0.04 -2.2,-0.08 -1.08,-0.04 -1.88,-0.04 -0.84,0 -1.92,0.04 -1.04,0.04 -2.12,0.08 -1.04,0.08 -1.96,0.08 z" />
    <path
       id="path872"
       style="font-style:normal;font-variant:normal;font-weight:bold;font-stretch:normal;font-family:'EB Garamond';-inkscape-font-specification:'EB Garamond Bold';fill:#ffffff"
       d="m 321.02519,323.64087 q -0.28,0 -0.6,-0.12 -0.32,-0.16 -0.32,-0.44 0,-0.36 0.28,-0.56 0.28,-0.2 0.68,-0.28 1.52,-0.32 2.2,-0.84 0.72,-0.52 0.72,-1.8 v -16.52 q 0,-1.56 -0.08,-2.28 -0.08,-0.76 -0.24,-1 -0.12,-0.28 -0.32,-0.36 -0.36,-0.2 -0.96,-0.2 -0.56,-0.04 -0.92,-0.04 h -0.88 q -1.28,0 -2.44,0.64 -1.12,0.6 -1.8,1.52 -0.2,0.28 -0.6,0.8 -0.36,0.48 -0.8,0.88 -0.4,0.36 -0.8,0.36 -0.32,0 -0.44,-0.2 -0.12,-0.24 -0.12,-0.52 0,-0.48 0.24,-1 0.76,-1.52 1.12,-2.6 0.36,-1.08 0.48,-2.48 0.08,-0.6 0.36,-0.8 0.28,-0.24 0.64,-0.24 0.28,0 0.6,0.52 0.32,0.52 0.68,0.84 0.4,0.32 1.32,0.48 0.96,0.16 1.56,0.16 h 15.04 q 1,0 1.68,-0.2 0.72,-0.2 1.08,-0.4 0.64,-0.36 1,-0.8 0.4,-0.44 0.92,-0.44 0.24,0 0.32,0.2 0.12,0.16 0.12,0.48 0,0.16 -0.04,0.4 0,0.24 -0.04,0.44 -0.2,0.76 -0.4,1.48 -0.2,0.68 -0.32,1.32 -0.12,0.64 -0.12,1.32 v 0.8 q 0,0.64 -0.16,1.04 -0.12,0.4 -0.52,0.4 -0.36,0 -0.6,-0.36 -0.24,-0.4 -0.52,-1.24 -0.44,-1.44 -1.32,-2.12 -0.84,-0.68 -2.6,-0.68 h -2.08 q -0.68,0 -1.12,0.32 -0.4,0.28 -0.6,1.2 -0.2,0.88 -0.2,2.72 v 16.12 q 0,1.2 0.64,1.76 0.68,0.52 2.24,0.92 0.4,0.12 0.68,0.28 0.28,0.16 0.28,0.52 0,0.28 -0.24,0.44 -0.24,0.16 -0.6,0.16 -0.88,0 -2,-0.08 -1.08,-0.04 -2.2,-0.08 -1.08,-0.04 -1.88,-0.04 -0.84,0 -1.92,0.04 -1.04,0.04 -2.12,0.08 -1.04,0.08 -1.96,0.08 z" />
    <path
       id="path874"
       style="font-style:normal;font-variant:normal;font-weight:bold;font-stretch:normal;font-family:'EB Garamond';-inkscape-font-specification:'EB Garamond Bold';fill:#ffffff"
       d="m 342.10517,323.64087 q -0.32,0 -0.56,-0.12 -0.24,-0.16 -0.24,-0.44 0,-0.64 0.84,-0.84 1.52,-0.32 2.08,-0.8 0.56,-0.52 0.56,-1.84 v -17.92 q 0,-1.36 -0.48,-1.96 -0.48,-0.64 -1.92,-0.96 -0.52,-0.12 -0.72,-0.32 -0.2,-0.24 -0.2,-0.52 0,-0.24 0.24,-0.4 0.24,-0.2 0.64,-0.2 0.96,0 2,0.04 1.04,0.04 2.04,0.12 1,0.04 1.92,0.04 1.56,0 3.4,0 1.88,0 3.6,0 1.64,0 2.96,-0.2 1.36,-0.24 2.2,-0.24 0.32,0 0.64,0.16 0.32,0.16 0.36,0.6 0.08,0.92 0.12,1.92 0.04,1 0.04,1.92 0.04,0.92 0.04,1.56 0,0.8 -0.48,0.8 -0.2,0 -0.48,-0.16 -0.24,-0.16 -0.32,-0.48 -0.28,-1 -0.6,-1.76 -0.32,-0.8 -0.84,-1.32 -0.52,-0.56 -1.24,-0.8 -0.68,-0.24 -1.64,-0.24 h -3 q -1,0 -1.56,0.52 -0.56,0.48 -0.56,1.32 0,0.72 0,1.68 0,0.96 0,1.72 0,0.88 0,1.92 0,1.04 0,1.92 0,0.52 0.24,0.76 0.24,0.2 0.68,0.2 1,0 2,0 1,0 1.88,0 1.04,0 1.52,-0.6 0.48,-0.64 0.84,-1.48 0.16,-0.32 0.36,-0.52 0.24,-0.2 0.44,-0.2 0.2,0 0.36,0.24 0.2,0.24 0.16,0.64 -0.08,0.84 -0.16,1.6 -0.04,0.72 -0.04,1.28 0,0.76 0.04,1.32 0.04,0.52 0.12,1.44 0.04,0.52 -0.08,0.8 -0.12,0.24 -0.32,0.24 -0.32,0 -0.6,-0.28 -0.24,-0.32 -0.36,-0.68 -0.32,-1.2 -0.8,-1.6 -0.48,-0.44 -1.2,-0.44 -0.44,0 -0.96,0 -0.48,0 -0.92,0 -0.56,0 -1.2,0 -0.6,0 -1.16,0.04 -0.44,0 -0.68,0.24 -0.2,0.24 -0.2,0.68 0,1.8 0,3.76 0.04,1.96 0.08,3.76 0,1.28 0.68,1.8 0.68,0.52 2.36,0.88 0.4,0.08 0.6,0.28 0.24,0.16 0.24,0.52 0,0.28 -0.2,0.44 -0.16,0.16 -0.52,0.16 -0.88,0 -2.04,-0.08 -1.16,-0.04 -2.28,-0.08 -1.12,-0.04 -1.92,-0.04 -0.8,0 -1.8,0.04 -1,0.04 -2.04,0.08 -1.04,0.08 -1.96,0.08 z" />
    <path
       id="path876"
       style="font-style:normal;font-variant:normal;font-weight:bold;font-stretch:normal;font-family:'EB Garamond';-inkscape-font-specification:'EB Garamond Bold';fill:#ffffff"
       d="m 362.42513,326.00087 q 0.52,0 1.04,-0.16 0.52,-0.12 0.76,-0.6 l 12.4,-27.56 q 0.12,-0.28 -0.12,-0.56 -0.2,-0.28 -0.72,-0.28 -0.64,0 -1.12,0.16 -0.44,0.16 -0.68,0.68 l -12.36,27.56 q -0.12,0.28 0.12,0.52 0.24,0.24 0.68,0.24 z" />
    <path
       id="path878"
       style="font-style:normal;font-variant:normal;font-weight:bold;font-stretch:normal;font-family:'EB Garamond';-inkscape-font-specification:'EB Garamond Bold';fill:#ffffff"
       d="m 391.98506,324.20087 q -0.32,0 -0.48,-0.32 -0.16,-0.32 -0.36,-0.72 l -10.08,-21.8 q -0.44,-0.96 -1,-1.6 -0.56,-0.68 -1.72,-0.96 -0.4,-0.16 -0.8,-0.32 -0.36,-0.16 -0.36,-0.56 0,-0.28 0.36,-0.4 0.36,-0.16 0.68,-0.16 1.2,0 2.68,0.08 1.52,0.08 2.64,0.08 1.2,0 2.44,-0.08 1.24,-0.08 2.44,-0.08 0.52,0 0.84,0.16 0.36,0.12 0.36,0.4 0,0.36 -0.32,0.56 -0.32,0.16 -0.96,0.28 -0.64,0.16 -0.76,0.48 -0.12,0.32 -0.12,0.76 0,0.24 0.08,0.64 0.08,0.4 0.12,0.52 0.8,1.88 1.6,3.72 0.8,1.8 1.56,3.64 0.76,1.8 1.56,3.64 0.8,1.8 1.56,3.72 0.2,0.44 0.32,0.48 0.12,0.04 0.36,-0.44 l 2.2,-4.16 q 0.12,-0.24 0.16,-0.4 0.08,-0.2 0.08,-0.36 0,-0.16 -0.08,-0.32 -0.04,-0.2 -0.12,-0.44 l -4.12,-8.76 q -0.4,-1 -1.2,-1.68 -0.8,-0.72 -2,-1 -0.4,-0.16 -0.68,-0.32 -0.24,-0.16 -0.24,-0.56 0,-0.28 0.24,-0.4 0.24,-0.16 0.56,-0.16 0.8,0 1.84,0.04 1.04,0.04 2.04,0.08 1.04,0.04 1.8,0.04 1.16,0 2.36,-0.08 1.24,-0.08 2.44,-0.08 0.6,0 0.96,0.16 0.36,0.12 0.36,0.4 0,0.24 -0.2,0.44 -0.2,0.16 -0.56,0.28 -0.32,0.12 -0.68,0.28 -0.72,0.16 -0.84,0.56 -0.08,0.4 0.08,0.88 0.16,0.36 0.36,1.04 0.24,0.64 0.52,1.4 0.32,0.72 0.56,1.4 0.28,0.68 0.44,1.08 0.28,0.6 0.4,0.48 0.16,-0.12 0.32,-0.48 0.28,-0.56 0.64,-1.44 0.36,-0.92 0.68,-1.8 0.32,-0.88 0.48,-1.32 0.2,-0.32 0.2,-0.76 0,-0.6 -0.52,-0.84 -0.48,-0.28 -0.96,-0.48 -0.48,-0.24 -0.48,-0.68 0,-0.24 0.12,-0.4 0.16,-0.16 0.8,-0.16 1.08,0 1.4,0.08 0.36,0.04 0.92,0.04 0.64,-0.04 1.2,-0.12 0.56,-0.08 1.72,-0.08 0.48,0 0.84,0.16 0.36,0.12 0.36,0.48 0,0.4 -0.36,0.56 -0.32,0.12 -0.72,0.24 -1.24,0.32 -1.8,0.96 -0.56,0.64 -1.04,1.56 -0.4,0.76 -0.88,1.72 -0.48,0.96 -0.96,1.96 -0.44,1 -0.88,1.88 -0.2,0.48 -0.16,1 0.04,0.48 0.24,1 l 3.08,7.08 q 0.12,0.36 0.24,0.28 0.16,-0.12 0.24,-0.36 1.52,-3.4 3,-7.08 1.48,-3.68 2.64,-6.8 0.4,-1 0.44,-1.36 0.08,-0.4 0.04,-0.6 -0.04,-0.44 -0.32,-0.76 -0.28,-0.32 -0.8,-0.44 -0.4,-0.12 -0.84,-0.32 -0.4,-0.2 -0.4,-0.56 0,-0.28 0.36,-0.4 0.36,-0.12 0.8,-0.12 1.2,0 1.68,0.08 0.52,0.04 1.12,0 0.64,-0.04 1.32,-0.12 0.68,-0.08 1.8,-0.08 0.56,0 0.96,0.12 0.4,0.12 0.4,0.52 0,0.36 -0.44,0.52 -0.4,0.12 -0.8,0.28 -0.84,0.2 -1.4,0.64 -0.56,0.44 -0.92,1 -0.36,0.52 -0.64,1.16 l -9.32,21.84 q -0.12,0.32 -0.32,0.52 -0.2,0.2 -0.48,0.2 -0.32,0 -0.56,-0.2 -0.2,-0.16 -0.4,-0.56 -0.44,-1 -1.08,-2.32 -0.64,-1.32 -1.48,-3.12 -0.84,-1.84 -1.96,-4.32 -0.12,-0.28 -0.28,-0.24 -0.16,0.04 -0.28,0.28 -0.8,1.6 -1.64,3.2 -0.84,1.6 -1.68,3.24 -0.84,1.6 -1.68,3.2 -0.16,0.4 -0.36,0.68 -0.16,0.28 -0.52,0.28 z" />
    <path
       id="path880"
       style="font-style:normal;font-variant:normal;font-weight:bold;font-stretch:normal;font-family:'EB Garamond';-inkscape-font-specification:'EB Garamond Bold';fill:#ffffff"
       d="m 431.26495,324.08087 q -2.76,0 -5.28,-0.92 -2.48,-0.96 -4.44,-2.68 -1.92,-1.76 -3.04,-4.16 -1.08,-2.44 -1.08,-5.4 0,-2.72 0.88,-5.2 0.92,-2.52 2.72,-4.48 1.8,-1.96 4.44,-3.12 2.68,-1.16 6.16,-1.16 2.8,0 5.28,0.96 2.52,0.92 4.44,2.68 1.92,1.72 3.04,4.16 1.12,2.4 1.12,5.36 0,2.68 -0.92,5.2 -0.92,2.52 -2.72,4.48 -1.8,1.96 -4.48,3.12 -2.64,1.16 -6.12,1.16 z m 0.72,-1.84 q 2.28,0 3.8,-1.28 1.56,-1.28 2.32,-3.56 0.76,-2.28 0.76,-5.24 0,-2.44 -0.48,-4.8 -0.44,-2.4 -1.44,-4.32 -0.96,-1.92 -2.48,-3.04 -1.52,-1.16 -3.6,-1.16 -2.24,0 -3.8,1.28 -1.52,1.28 -2.28,3.52 -0.76,2.24 -0.76,5.2 0,2.48 0.48,4.88 0.48,2.36 1.44,4.28 0.96,1.92 2.44,3.08 1.52,1.16 3.6,1.16 z" />
    <path
       id="path882"
       style="font-style:normal;font-variant:normal;font-weight:bold;font-stretch:normal;font-family:'EB Garamond';-inkscape-font-specification:'EB Garamond Bold';fill:#ffffff"
       d="m 448.18489,323.64087 q -0.32,0 -0.56,-0.12 -0.24,-0.16 -0.24,-0.44 0,-0.64 0.84,-0.84 1.52,-0.32 2.08,-0.8 0.56,-0.52 0.56,-1.84 v -17.92 q 0,-1.36 -0.48,-1.96 -0.48,-0.64 -1.92,-0.96 -0.52,-0.12 -0.72,-0.32 -0.2,-0.24 -0.2,-0.52 0,-0.24 0.24,-0.4 0.24,-0.2 0.64,-0.2 0.96,0 2,0.04 1.04,0.04 2.04,0.12 1,0.04 1.92,0.04 1.56,0 3.4,0 1.88,0 3.6,0 1.64,0 2.96,-0.2 1.36,-0.24 2.2,-0.24 0.32,0 0.64,0.16 0.32,0.16 0.36,0.6 0.08,0.92 0.12,1.92 0.04,1 0.04,1.92 0.04,0.92 0.04,1.56 0,0.8 -0.48,0.8 -0.2,0 -0.48,-0.16 -0.24,-0.16 -0.32,-0.48 -0.28,-1 -0.6,-1.76 -0.32,-0.8 -0.84,-1.32 -0.52,-0.56 -1.24,-0.8 -0.68,-0.24 -1.64,-0.24 h -3 q -1,0 -1.56,0.52 -0.56,0.48 -0.56,1.32 0,0.72 0,1.68 0,0.96 0,1.72 0,0.88 0,1.92 0,1.04 0,1.92 0,0.52 0.24,0.76 0.24,0.2 0.68,0.2 1,0 2,0 1,0 1.88,0 1.04,0 1.52,-0.6 0.48,-0.64 0.84,-1.48 0.16,-0.32 0.36,-0.52 0.24,-0.2 0.44,-0.2 0.2,0 0.36,0.24 0.2,0.24 0.16,0.64 -0.08,0.84 -0.16,1.6 -0.04,0.72 -0.04,1.28 0,0.76 0.04,1.32 0.04,0.52 0.12,1.44 0.04,0.52 -0.08,0.8 -0.12,0.24 -0.32,0.24 -0.32,0 -0.6,-0.28 -0.24,-0.32 -0.36,-0.68 -0.32,-1.2 -0.8,-1.6 -0.48,-0.44 -1.2,-0.44 -0.44,0 -0.96,0 -0.48,0 -0.92,0 -0.56,0 -1.2,0 -0.6,0 -1.16,0.04 -0.44,0 -0.68,0.24 -0.2,0.24 -0.2,0.68 0,1.8 0,3.76 0.04,1.96 0.08,3.76 0,1.28 0.68,1.8 0.68,0.52 2.36,0.88 0.4,0.08 0.6,0.28 0.24,0.16 0.24,0.52 0,0.28 -0.2,0.44 -0.16,0.16 -0.52,0.16 -0.88,0 -2.04,-0.08 -1.16,-0.04 -2.28,-0.08 -1.12,-0.04 -1.92,-0.04 -0.8,0 -1.8,0.04 -1,0.04 -2.04,0.08 -1.04,0.08 -1.96,0.08 z" />
    <path
       id="path884"
       style="font-style:normal;font-variant:normal;font-weight:bold;font-stretch:normal;font-family:'EB Garamond';-inkscape-font-specification:'EB Garamond Bold';fill:#ffffff"
       d="m 470.02487,323.64087 q -0.32,0 -0.56,-0.12 -0.24,-0.16 -0.24,-0.44 0,-0.64 0.84,-0.84 1.52,-0.32 2.08,-0.8 0.56,-0.52 0.56,-1.84 v -17.92 q 0,-1.36 -0.48,-1.96 -0.48,-0.64 -1.92,-0.96 -0.52,-0.12 -0.72,-0.32 -0.2,-0.24 -0.2,-0.52 0,-0.24 0.24,-0.4 0.24,-0.2 0.64,-0.2 0.96,0 2,0.04 1.04,0.04 2.04,0.12 1,0.04 1.92,0.04 1.56,0 3.4,0 1.88,0 3.6,0 1.64,0 2.96,-0.2 1.36,-0.24 2.2,-0.24 0.32,0 0.64,0.16 0.32,0.16 0.36,0.6 0.08,0.92 0.12,1.92 0.04,1 0.04,1.92 0.04,0.92 0.04,1.56 0,0.8 -0.48,0.8 -0.2,0 -0.48,-0.16 -0.24,-0.16 -0.32,-0.48 -0.28,-1 -0.6,-1.76 -0.32,-0.8 -0.84,-1.32 -0.52,-0.56 -1.24,-0.8 -0.68,-0.24 -1.64,-0.24 h -3 q -1,0 -1.56,0.52 -0.56,0.48 -0.56,1.32 0,0.72 0,1.68 0,0.96 0,1.72 0,0.88 0,1.92 0,1.04 0,1.92 0,0.52 0.24,0.76 0.24,0.2 0.68,0.2 1,0 2,0 1,0 1.88,0 1.04,0 1.52,-0.6 0.48,-0.64 0.84,-1.48 0.16,-0.32 0.36,-0.52 0.24,-0.2 0.44,-0.2 0.2,0 0.36,0.24 0.2,0.24 0.16,0.64 -0.08,0.84 -0.16,1.6 -0.04,0.72 -0.04,1.28 0,0.76 0.04,1.32 0.04,0.52 0.12,1.44 0.04,0.52 -0.08,0.8 -0.12,0.24 -0.32,0.24 -0.32,0 -0.6,-0.28 -0.24,-0.32 -0.36,-0.68 -0.32,-1.2 -0.8,-1.6 -0.48,-0.44 -1.2,-0.44 -0.44,0 -0.96,0 -0.48,0 -0.92,0 -0.56,0 -1.2,0 -0.6,0 -1.16,0.04 -0.44,0 -0.68,0.24 -0.2,0.24 -0.2,0.68 0,1.8 0,3.76 0.04,1.96 0.08,3.76 0,1.28 0.68,1.8 0.68,0.52 2.36,0.88 0.4,0.08 0.6,0.28 0.24,0.16 0.24,0.52 0,0.28 -0.2,0.44 -0.16,0.16 -0.52,0.16 -0.88,0 -2.04,-0.08 -1.16,-0.04 -2.28,-0.08 -1.12,-0.04 -1.92,-0.04 -0.8,0 -1.8,0.04 -1,0.04 -2.04,0.08 -1.04,0.08 -1.96,0.08 z" />
    <path
       id="path886"
       style="font-style:normal;font-variant:normal;font-weight:bold;font-stretch:normal;font-family:'EB Garamond';-inkscape-font-specification:'EB Garamond Bold';fill:#ffffff"
       d="m 507.34479,323.68087 q -0.24,0 -1.2,-0.04 -0.92,0 -2.2,-0.04 -1.24,-0.04 -2.56,-0.08 -1.32,-0.04 -2.32,-0.04 -0.92,0 -2.04,0.04 -1.08,0.04 -2.08,0.04 -0.96,0.04 -1.64,0.04 -0.64,0.04 -0.76,0.04 -0.12,0 -0.48,-0.2 -0.32,-0.24 -0.32,-0.48 0,-0.32 0.16,-0.52 0.16,-0.2 0.32,-0.36 l 5.84,-6.48 q 2.12,-2.32 3.16,-4.64 1.04,-2.36 1.04,-5.12 0,-1.68 -0.88,-2.8 -0.84,-1.16 -2.4,-1.16 -1.4,0 -2.64,0.8 -1.24,0.8 -2.12,1.72 -0.2,0.24 -0.56,0.56 -0.36,0.28 -0.72,0.28 -0.32,0 -0.44,-0.24 -0.12,-0.28 -0.12,-0.68 0,-0.68 0.64,-1.64 0.68,-1 1.84,-2 1.2,-1 2.72,-1.68 1.56,-0.68 3.28,-0.68 2.08,0 3.48,0.92 1.44,0.92 2.2,2.44 0.76,1.52 0.76,3.32 0,1.12 -0.52,2.48 -0.48,1.32 -1.2,2.56 -0.72,1.2 -1.48,2.08 -0.6,0.68 -1.52,1.6 -0.88,0.88 -1.84,1.8 -0.96,0.92 -1.84,1.72 -0.88,0.8 -1.4,1.32 -0.52,0.52 -0.52,0.6 0,0.16 0.6,0.24 0.72,0.08 1.72,0.12 1.04,0.04 1.88,0.04 0.92,0 1.8,-0.04 0.88,-0.04 1.76,-0.12 0.88,-0.08 1.52,-0.32 0.68,-0.28 1.16,-0.76 0.52,-0.52 0.92,-1.32 0.12,-0.28 0.4,-0.56 0.32,-0.32 0.72,-0.32 0.32,0 0.44,0.28 0.12,0.24 0,0.52 -0.36,1.04 -0.76,2.28 -0.36,1.2 -0.64,2.2 -0.28,0.96 -0.32,1.36 -0.04,0.48 -0.4,0.72 -0.36,0.2 -0.44,0.2 z" />
    <path
       id="path888"
       style="font-style:normal;font-variant:normal;font-weight:bold;font-stretch:normal;font-family:'EB Garamond';-inkscape-font-specification:'EB Garamond Bold';fill:#ffffff"
       d="m 242.50539,374.11615 q -0.24,0 -0.44,-0.12 -0.2,-0.16 -0.2,-0.4 0,-0.32 0.2,-0.52 0.2,-0.2 0.52,-0.28 1.04,-0.24 1.44,-0.52 0.44,-0.32 0.44,-0.96 v -8.64 q 0,-1.36 -0.44,-1.92 -0.4,-0.6 -1.28,-0.72 -0.24,-0.04 -0.36,-0.24 -0.12,-0.2 -0.12,-0.48 0,-0.6 0.44,-0.68 2.08,-0.4 3.68,-1.12 1.64,-0.72 2.52,-1.12 0.64,-0.32 0.8,-0.32 0.52,0 0.52,0.48 -0.04,0.68 -0.2,1.72 -0.12,1 -0.24,2.08 -0.08,1.08 -0.08,2.08 v 8.84 q 0,0.56 0.4,0.88 0.44,0.32 1.52,0.64 0.32,0.12 0.52,0.28 0.2,0.16 0.2,0.48 0,0.52 -0.6,0.52 -0.76,0 -1.6,-0.04 -0.84,-0.04 -1.64,-0.08 -0.76,-0.04 -1.48,-0.04 -0.68,0 -1.44,0.04 -0.72,0.04 -1.52,0.08 -0.76,0.08 -1.56,0.08 z m 4.4,-19.84 q -1.24,0 -2.2,-0.92 -0.92,-0.92 -0.92,-2.2 0,-1.36 0.92,-2.28 0.96,-0.92 2.2,-0.92 1.4,0 2.32,0.92 0.92,0.92 0.92,2.28 0,1.28 -0.92,2.2 -0.92,0.92 -2.32,0.92 z" />
    <path
       id="path890"
       style="font-style:normal;font-variant:normal;font-weight:bold;font-stretch:normal;font-family:'EB Garamond';-inkscape-font-specification:'EB Garamond Bold';fill:#ffffff"
       d="m 254.46532,374.11615 q -0.28,0 -0.56,-0.12 -0.24,-0.16 -0.24,-0.44 0,-0.32 0.28,-0.48 0.28,-0.2 0.64,-0.32 0.6,-0.2 1.04,-0.44 0.48,-0.28 0.48,-1.08 v -9.16 q 0,-0.88 -0.28,-1.48 -0.24,-0.6 -0.96,-0.76 -0.16,-0.04 -0.32,-0.2 -0.12,-0.16 -0.12,-0.52 0,-0.56 0.4,-0.68 1.36,-0.32 2.96,-0.84 1.64,-0.56 2.8,-1.16 0.16,-0.08 0.36,-0.2 0.2,-0.12 0.36,-0.12 0.24,0 0.28,0.16 0.08,0.12 0.08,0.32 0,0.32 -0.12,1.04 -0.08,0.68 -0.08,1.24 0,0.16 0,0.36 0.04,0.2 0.08,0.24 1.36,-1.32 2.76,-2.04 1.4,-0.72 3.24,-0.72 2.08,0 3.48,1.56 1.44,1.52 1.44,4.16 v 8.8 q 0,0.8 0.44,1.08 0.48,0.24 1.08,0.44 0.32,0.12 0.56,0.32 0.24,0.16 0.24,0.48 0,0.28 -0.24,0.44 -0.2,0.12 -0.44,0.12 -0.8,0 -1.52,-0.08 -0.68,-0.04 -1.36,-0.08 -0.64,-0.04 -1.36,-0.04 -0.68,0 -1.36,0.04 -0.68,0.04 -1.36,0.08 -0.68,0.08 -1.48,0.08 -0.24,0 -0.48,-0.12 -0.2,-0.16 -0.2,-0.44 0,-0.32 0.24,-0.48 0.24,-0.2 0.56,-0.32 0.6,-0.2 1,-0.44 0.4,-0.28 0.4,-1.08 v -7.96 q 0,-1.52 -0.72,-2.36 -0.68,-0.88 -1.84,-0.92 -0.88,0 -1.56,0.28 -0.68,0.28 -1.4,0.76 -0.16,0.16 -0.24,0.36 -0.08,0.2 -0.08,0.4 v 9.44 q 0,0.8 0.44,1.08 0.44,0.24 1,0.44 0.8,0.24 0.8,0.8 0,0.24 -0.2,0.4 -0.2,0.16 -0.48,0.16 -0.8,0 -1.48,-0.08 -0.68,-0.04 -1.28,-0.08 -0.6,-0.04 -1.32,-0.04 -0.68,0 -1.4,0.04 -0.68,0.04 -1.44,0.08 -0.72,0.08 -1.52,0.08 z" />
    <path
       id="path892"
       style="font-style:normal;font-variant:normal;font-weight:bold;font-stretch:normal;font-family:'EB Garamond';-inkscape-font-specification:'EB Garamond Bold';fill:#ffffff"
       d="m 299.8653,374.55615 q -3.76,0 -6.28,-1.32 -2.52,-1.36 -3.8,-3.76 -1.24,-2.4 -1.24,-5.6 v -11.4 q 0,-1.12 -0.52,-2.04 -0.52,-0.92 -1.52,-1.16 -1.12,-0.32 -1.12,-0.88 0,-0.28 0.28,-0.44 0.32,-0.16 0.76,-0.16 1.28,0 2.64,0.12 1.36,0.08 2.56,0.08 1.12,0 2.68,-0.08 1.6,-0.08 2.72,-0.08 0.48,0 0.76,0.16 0.32,0.12 0.32,0.44 0,0.44 -0.6,0.64 -0.6,0.2 -1.28,0.52 -0.6,0.24 -1.04,1 -0.44,0.72 -0.44,2.08 v 10.48 q 0,2.72 0.88,4.48 0.88,1.76 2.32,2.6 1.48,0.84 3.28,0.84 3.64,0 5.4,-2.16 1.8,-2.16 1.8,-6.6 0,-1.04 0,-2.32 0.04,-1.32 0.04,-2.68 0,-1.4 -0.04,-2.64 -0.04,-1.8 -0.28,-2.8 -0.2,-1 -0.64,-1.56 -0.44,-0.56 -1.2,-0.92 -0.44,-0.24 -1.04,-0.4 -0.56,-0.2 -0.56,-0.56 0,-0.32 0.32,-0.44 0.32,-0.12 0.88,-0.12 1.44,0 2.16,0.04 0.76,0.04 1.68,0.04 0.76,0 1.24,-0.04 0.52,-0.04 1.04,-0.08 0.56,-0.04 1.32,-0.04 0.48,0 0.76,0.12 0.28,0.12 0.28,0.48 0,0.52 -1.08,0.84 -1.32,0.36 -1.88,1.24 -0.52,0.84 -0.6,2.28 -0.12,3.04 -0.16,5.6 -0.04,2.52 -0.04,5.16 -0.04,3.24 -1.48,5.76 -1.4,2.48 -3.84,3.88 -2.44,1.4 -5.44,1.4 z" />
    <path
       id="path894"
       style="font-style:normal;font-variant:normal;font-weight:bold;font-stretch:normal;font-family:'EB Garamond';-inkscape-font-specification:'EB Garamond Bold';fill:#ffffff"
       d="m 325.74525,374.55615 q -1.16,0 -2.16,-0.2 -0.96,-0.2 -1.76,-0.4 -0.6,-0.2 -1.12,-0.32 -0.48,-0.12 -0.8,-0.12 -0.4,0 -0.76,0.16 -0.36,0.12 -0.68,0.36 -0.36,0.28 -0.56,0.28 -0.36,0 -0.56,-0.16 -0.16,-0.16 -0.16,-0.36 0,-0.36 0.2,-1.4 0.24,-1.04 0.2,-2.6 l -0.16,-17.8 q 0,-1.04 -0.32,-1.84 -0.28,-0.84 -1.24,-1.04 -0.2,-0.04 -0.36,-0.2 -0.12,-0.16 -0.12,-0.44 0,-0.2 0.12,-0.36 0.12,-0.16 0.32,-0.2 0.88,-0.16 2.04,-0.52 1.16,-0.4 2.24,-0.8 1.12,-0.44 1.72,-0.64 0.4,-0.16 0.56,-0.16 0.24,0 0.32,0.16 0.12,0.12 0.12,0.32 0,0.24 -0.12,1 -0.08,0.76 -0.08,1.52 v 8.56 q 0,0.52 0.08,0.84 0.08,0.28 0.28,0.28 1.24,-0.84 2.56,-1.28 1.36,-0.48 2.56,-0.48 2.08,0 3.76,1.08 1.68,1.08 2.64,2.96 1,1.88 1,4.24 0,2.8 -1.24,5 -1.24,2.16 -3.44,3.36 -2.16,1.2 -5.08,1.2 z m 0.72,-1.68 q 1.08,0 1.84,-0.92 0.76,-0.96 1.16,-2.52 0.44,-1.56 0.44,-3.4 0,-1.6 -0.44,-3.24 -0.4,-1.64 -1.32,-2.72 -0.88,-1.12 -2.28,-1.12 -0.72,0 -1.68,0.24 -0.96,0.2 -1.56,0.68 v 8.52 q 0,1.28 0.52,2.32 0.56,1.04 1.44,1.6 0.88,0.56 1.88,0.56 z" />
    <path
       id="path896"
       style="font-style:normal;font-variant:normal;font-weight:bold;font-stretch:normal;font-family:'EB Garamond';-inkscape-font-specification:'EB Garamond Bold';fill:#ffffff"
       d="m 349.62522,374.83615 q -0.32,0 -0.32,-0.4 0,-0.48 0.08,-1.28 0.12,-0.8 0.12,-1.24 0,-0.16 -0.04,-0.28 0,-0.12 -0.04,-0.16 -1.08,1.32 -2.76,2.24 -1.68,0.88 -3.56,0.88 -1.24,0 -2.24,-0.72 -1,-0.76 -1.6,-2.04 -0.56,-1.28 -0.56,-2.88 v -7.48 q 0,-0.92 -0.36,-1.48 -0.32,-0.56 -1.24,-0.76 -0.24,-0.04 -0.44,-0.2 -0.16,-0.2 -0.16,-0.56 0,-0.28 0.16,-0.44 0.16,-0.2 0.44,-0.24 1.68,-0.08 3.04,-0.32 1.36,-0.28 2.76,-0.64 0.2,-0.04 0.4,-0.08 0.24,-0.08 0.44,-0.08 0.56,0 0.52,0.56 -0.16,0.92 -0.24,1.56 -0.08,0.6 -0.08,1.52 v 7.68 q 0,0.96 0.32,1.68 0.32,0.72 0.88,1.12 0.56,0.4 1.24,0.44 0.64,0 1.24,-0.16 0.64,-0.16 1.2,-0.72 0.24,-0.2 0.52,-0.8 0.28,-0.64 0.28,-1.68 v -6.44 q 0,-0.72 -0.28,-1.16 -0.28,-0.48 -0.76,-0.76 -0.48,-0.28 -1.12,-0.32 -0.44,-0.04 -0.72,-0.2 -0.24,-0.2 -0.24,-0.68 0,-0.4 0.28,-0.6 0.28,-0.2 0.68,-0.2 2.04,-0.12 3.24,-0.2 1.2,-0.12 1.96,-0.24 0.76,-0.12 1.52,-0.28 0.12,-0.04 0.28,-0.08 0.16,-0.04 0.24,-0.04 0.6,0 0.6,0.48 0,0.12 -0.04,0.28 -0.04,0.16 -0.12,0.32 -0.04,0.16 -0.12,0.72 -0.04,0.52 -0.12,1.12 -0.04,0.6 -0.04,0.96 v 9.28 q 0,0.92 0.2,1.24 0.24,0.28 0.52,0.28 0.2,0 0.6,0.04 0.4,0 0.52,0 0.36,0 0.56,0.2 0.2,0.2 0.2,0.52 0,0.36 -0.16,0.6 -0.12,0.2 -0.52,0.24 -1.92,0.16 -3.48,0.68 -1.52,0.48 -2.64,0.92 -0.24,0.08 -0.52,0.16 -0.28,0.12 -0.52,0.12 z" />
    <path
       id="path898"
       style="font-style:normal;font-variant:normal;font-weight:bold;font-stretch:normal;font-family:'EB Garamond';-inkscape-font-specification:'EB Garamond Bold';fill:#ffffff"
       d="m 359.46516,374.11615 q -0.28,0 -0.56,-0.12 -0.24,-0.16 -0.24,-0.44 0,-0.32 0.28,-0.48 0.28,-0.2 0.64,-0.32 0.6,-0.2 1.04,-0.44 0.48,-0.28 0.48,-1.08 v -9.16 q 0,-0.88 -0.28,-1.48 -0.24,-0.6 -0.96,-0.76 -0.16,-0.04 -0.32,-0.2 -0.12,-0.16 -0.12,-0.52 0,-0.56 0.4,-0.68 1.36,-0.32 2.96,-0.84 1.64,-0.56 2.8,-1.16 0.16,-0.08 0.36,-0.2 0.2,-0.12 0.36,-0.12 0.24,0 0.28,0.16 0.08,0.12 0.08,0.32 0,0.32 -0.12,1.04 -0.08,0.68 -0.08,1.24 0,0.16 0,0.36 0.04,0.2 0.08,0.24 1.36,-1.32 2.76,-2.04 1.4,-0.72 3.24,-0.72 2.08,0 3.48,1.56 1.44,1.52 1.44,4.16 v 8.8 q 0,0.8 0.44,1.08 0.48,0.24 1.08,0.44 0.32,0.12 0.56,0.32 0.24,0.16 0.24,0.48 0,0.28 -0.24,0.44 -0.2,0.12 -0.44,0.12 -0.8,0 -1.52,-0.08 -0.68,-0.04 -1.36,-0.08 -0.64,-0.04 -1.36,-0.04 -0.68,0 -1.36,0.04 -0.68,0.04 -1.36,0.08 -0.68,0.08 -1.48,0.08 -0.24,0 -0.48,-0.12 -0.2,-0.16 -0.2,-0.44 0,-0.32 0.24,-0.48 0.24,-0.2 0.56,-0.32 0.6,-0.2 1,-0.44 0.4,-0.28 0.4,-1.08 v -7.96 q 0,-1.52 -0.72,-2.36 -0.68,-0.88 -1.84,-0.92 -0.88,0 -1.56,0.28 -0.68,0.28 -1.4,0.76 -0.16,0.16 -0.24,0.36 -0.08,0.2 -0.08,0.4 v 9.44 q 0,0.8 0.44,1.08 0.44,0.24 1,0.44 0.8,0.24 0.8,0.8 0,0.24 -0.2,0.4 -0.2,0.16 -0.48,0.16 -0.8,0 -1.48,-0.08 -0.68,-0.04 -1.28,-0.08 -0.6,-0.04 -1.32,-0.04 -0.68,0 -1.4,0.04 -0.68,0.04 -1.44,0.08 -0.72,0.08 -1.52,0.08 z" />
    <path
       id="path900"
       style="font-style:normal;font-variant:normal;font-weight:bold;font-stretch:normal;font-family:'EB Garamond';-inkscape-font-specification:'EB Garamond Bold';fill:#ffffff"
       d="m 388.58513,374.55615 q -2.64,0 -3.96,-1.32 -1.32,-1.36 -1.32,-3.8 v -9.2 q 0,-0.36 -0.28,-0.52 -0.24,-0.16 -0.96,-0.2 h -0.52 q -0.28,0 -0.48,-0.44 -0.16,-0.48 -0.16,-0.84 0,-0.08 0.04,-0.2 0.08,-0.16 0.2,-0.2 0.96,-0.36 2.04,-1.08 1.12,-0.76 2.12,-1.6 1.04,-0.84 1.68,-1.4 0.28,-0.2 0.48,-0.36 0.2,-0.16 0.52,-0.16 0.36,0 0.52,0.16 0.16,0.12 0.08,0.64 l -0.24,2.36 q -0.04,0.48 0.2,0.68 0.28,0.16 0.76,0.16 h 4.76 q 0.12,0 0.24,0.28 0.12,0.28 0.12,0.52 0,0.56 -0.16,1.08 -0.16,0.52 -0.36,0.52 h -3.72 q -0.92,0 -1.28,0.24 -0.32,0.2 -0.32,0.76 v 7.56 q 0,1.84 0.68,2.76 0.72,0.88 1.88,0.88 1.16,0 1.68,-0.24 0.56,-0.24 1,-0.4 0.16,-0.08 0.24,-0.08 0.2,0 0.32,0.24 0.12,0.24 0.12,0.56 0,0.24 -0.84,0.88 -0.84,0.64 -2.2,1.2 -1.32,0.56 -2.88,0.56 z" />
    <path
       id="path902"
       style="font-style:normal;font-variant:normal;font-weight:bold;font-stretch:normal;font-family:'EB Garamond';-inkscape-font-specification:'EB Garamond Bold';fill:#ffffff"
       d="m 408.66506,374.83615 q -0.32,0 -0.32,-0.4 0,-0.48 0.08,-1.28 0.12,-0.8 0.12,-1.24 0,-0.16 -0.04,-0.28 0,-0.12 -0.04,-0.16 -1.08,1.32 -2.76,2.24 -1.68,0.88 -3.56,0.88 -1.24,0 -2.24,-0.72 -1,-0.76 -1.6,-2.04 -0.56,-1.28 -0.56,-2.88 v -7.48 q 0,-0.92 -0.36,-1.48 -0.32,-0.56 -1.24,-0.76 -0.24,-0.04 -0.44,-0.2 -0.16,-0.2 -0.16,-0.56 0,-0.28 0.16,-0.44 0.16,-0.2 0.44,-0.24 1.68,-0.08 3.04,-0.32 1.36,-0.28 2.76,-0.64 0.2,-0.04 0.4,-0.08 0.24,-0.08 0.44,-0.08 0.56,0 0.52,0.56 -0.16,0.92 -0.24,1.56 -0.08,0.6 -0.08,1.52 v 7.68 q 0,0.96 0.32,1.68 0.32,0.72 0.88,1.12 0.56,0.4 1.24,0.44 0.64,0 1.24,-0.16 0.64,-0.16 1.2,-0.72 0.24,-0.2 0.52,-0.8 0.28,-0.64 0.28,-1.68 v -6.44 q 0,-0.72 -0.28,-1.16 -0.28,-0.48 -0.76,-0.76 -0.48,-0.28 -1.12,-0.32 -0.44,-0.04 -0.72,-0.2 -0.24,-0.2 -0.24,-0.68 0,-0.4 0.28,-0.6 0.28,-0.2 0.68,-0.2 2.04,-0.12 3.24,-0.2 1.2,-0.12 1.96,-0.24 0.76,-0.12 1.52,-0.28 0.12,-0.04 0.28,-0.08 0.16,-0.04 0.24,-0.04 0.6,0 0.6,0.48 0,0.12 -0.04,0.28 -0.04,0.16 -0.12,0.32 -0.04,0.16 -0.12,0.72 -0.04,0.52 -0.12,1.12 -0.04,0.6 -0.04,0.96 v 9.28 q 0,0.92 0.2,1.24 0.24,0.28 0.52,0.28 0.2,0 0.6,0.04 0.4,0 0.52,0 0.36,0 0.56,0.2 0.2,0.2 0.2,0.52 0,0.36 -0.16,0.6 -0.12,0.2 -0.52,0.24 -1.92,0.16 -3.48,0.68 -1.52,0.48 -2.64,0.92 -0.24,0.08 -0.52,0.16 -0.28,0.12 -0.52,0.12 z" />
  </g>
</svg>
