<?xml version="1.0" encoding="UTF-8" standalone="no"?>
<svg
   xmlns:osb="http://www.openswatchbook.org/uri/2009/osb"
   xmlns:dc="http://purl.org/dc/elements/1.1/"
   xmlns:cc="http://creativecommons.org/ns#"
   xmlns:rdf="http://www.w3.org/1999/02/22-rdf-syntax-ns#"
   xmlns:svg="http://www.w3.org/2000/svg"
   xmlns="http://www.w3.org/2000/svg"
   xmlns:xlink="http://www.w3.org/1999/xlink"
   width="444.5mm"
   height="277.8125mm"
   viewBox="0 0 444.49999 277.8125"
   version="1.1"
   id="svg3357">
  <defs
     id="defs3351">
    <linearGradient
       id="linearGradient874">
      <stop
         style="stop-color:#43b1f4;stop-opacity:1"
         offset="0"
         id="stop870" />
      <stop
         style="stop-color:#2ba6f2;stop-opacity:1"
         offset="1"
         id="stop872" />
    </linearGradient>
    <linearGradient
       id="linearGradient902">
      <stop
         id="stop898"
         offset="0"
         style="stop-color:#00a562;stop-opacity:1;" />
      <stop
         style="stop-color:#00b96e;stop-opacity:1"
         offset="0"
         id="stop908" />
      <stop
         id="stop900"
         offset="1"
         style="stop-color:#00ac66;stop-opacity:1" />
    </linearGradient>
    <linearGradient
       id="linearGradient4115"
       osb:paint="solid">
      <stop
         style="stop-color:#000000;stop-opacity:1;"
         offset="0"
         id="stop4113" />
    </linearGradient>
    <linearGradient
       id="linearGradient6114">
      <stop
         style="stop-color:#6f7c91;stop-opacity:1;"
         offset="0"
         id="stop6110" />
      <stop
         style="stop-color:#162d50;stop-opacity:1"
         offset="1"
         id="stop6112" />
    </linearGradient>
    <radialGradient
       xlink:href="#linearGradient6114"
       id="radialGradient6126"
       cx="73.77433"
       cy="66.986313"
       fx="73.77433"
       fy="66.986313"
       r="31.67275"
       gradientTransform="matrix(3.0071285,0,0,1.83657,-125.12732,-58.151445)"
       gradientUnits="userSpaceOnUse" />
    <radialGradient
       gradientUnits="userSpaceOnUse"
       gradientTransform="matrix(2.1026283,0,0,1.3141426,-1.4498902e-8,60.673694)"
       r="105.70104"
       fy="59.53125"
       fx="105.70104"
       cy="59.53125"
       cx="105.70104"
       id="radialGradient904"
       xlink:href="#linearGradient902" />
    <radialGradient
       xlink:href="#linearGradient874"
       id="radialGradient876"
       cx="222.25"
       cy="138.90625"
       fx="222.25"
       fy="138.90625"
       r="222.25"
       gradientTransform="matrix(1,0,0,0.625,0,52.089844)"
       gradientUnits="userSpaceOnUse" />
  </defs>
  <metadata
     id="metadata3354">
    <rdf:RDF>
      <cc:Work
         rdf:about="">
        <dc:format>image/svg+xml</dc:format>
        <dc:type
           rdf:resource="http://purl.org/dc/dcmitype/StillImage" />
        <dc:title></dc:title>
      </cc:Work>
    </rdf:RDF>
  </metadata>
  <g
     transform="matrix(2.3334794,0,0,2.3879681,-3.4478314,-16.68709)"
     style="font-style:normal;font-weight:normal;font-size:40px;line-height:1.25;font-family:sans-serif;letter-spacing:0px;word-spacing:0px;fill:#000000;fill-opacity:1;stroke:none"
     id="flowRoot874" />
  <g
     transform="matrix(2.1026283,0,0,2.3333333,-3.1067369,-9.96464)"
     style="font-style:normal;font-weight:normal;font-size:40px;line-height:1.25;font-family:sans-serif;letter-spacing:0px;word-spacing:0px;fill:#000000;fill-opacity:1;stroke:none"
     id="flowRoot1713" />
  <path
     style="opacity:1;fill:#0090e6;fill-opacity:1;stroke:none;stroke-width:9.70262337;stroke-miterlimit:4;stroke-dasharray:none;paint-order:stroke markers fill"
     d="M 0,0 H 444.5 V 277.8125 H 0 Z"
     id="rect6108" />
  <path
     style="opacity:1;fill:#373e48;fill-opacity:1;stroke:none;stroke-width:1.85300457;stroke-linecap:round;stroke-linejoin:round;stroke-miterlimit:4;stroke-dasharray:none;stroke-opacity:1;paint-order:stroke markers fill"
     d="M 56.560393,79.40625 H 162.34543 c 2.52332,0 4.55474,2.031412 4.55474,4.554736 V 193.85151 c 0,2.52333 -2.03142,4.55474 -4.55474,4.55474 H 56.560393 c -2.523324,0 -4.554736,-2.03141 -4.554736,-4.55474 V 83.960986 c 0,-2.523324 2.031412,-4.554736 4.554736,-4.554736 z"
     id="rect815" />
  <path
     style="opacity:1;fill:#666666;fill-opacity:1;stroke:none;stroke-width:1.64583337;stroke-linecap:round;stroke-linejoin:round;stroke-miterlimit:4;stroke-dasharray:none;stroke-opacity:1;paint-order:stroke markers fill"
     d="M 55.511805,80.083496 H 163.2961 c 1.99674,0 3.60422,1.607482 3.60422,3.60422 V 103.0989 c 0,1.99673 -1.60748,3.60421 -3.60422,3.60421 H 55.511805 c -1.996738,0 -3.60422,-1.60748 -3.60422,-3.60421 V 83.687716 c 0,-1.996738 1.607482,-3.60422 3.60422,-3.60422 z"
     id="rect918" />
  <path
     style="opacity:1;fill:#ffffff;fill-opacity:1;stroke:none;stroke-width:1.61818719;stroke-linecap:round;stroke-linejoin:round;stroke-miterlimit:4;stroke-dasharray:none;stroke-opacity:1;paint-order:stroke markers fill"
     d="m 86.117681,90.305588 h 46.670449 c 1.99674,0 3.60422,1.60748 3.60422,3.604214 0,1.996735 -1.60748,3.604215 -3.60422,3.604215 H 86.117681 c -1.996735,0 -3.604215,-1.60748 -3.604215,-3.604215 0,-1.996734 1.60748,-3.604214 3.604215,-3.604214 z"
     id="rect817" />
  <path
     style="opacity:1;fill:#aa4400;fill-opacity:1;stroke:none;stroke-width:1.64447272;stroke-linecap:round;stroke-linejoin:round;stroke-miterlimit:4;stroke-dasharray:none;stroke-opacity:1;paint-order:stroke markers fill"
     d="m 69.328745,163.58445 h 80.248345 c 1.30114,0 2.34864,1.04749 2.34864,2.34864 v 2.17139 c 0,1.30115 -1.0475,2.34865 -2.34864,2.34865 H 69.328745 c -1.301148,0 -2.348642,-1.0475 -2.348642,-2.34865 v -2.17139 c 0,-1.30115 1.047494,-2.34864 2.348642,-2.34864 z"
     id="rect914" />
  <path
     style="opacity:1;fill:#aa4400;fill-opacity:1;stroke:none;stroke-width:1.64447272;stroke-linecap:round;stroke-linejoin:round;stroke-miterlimit:4;stroke-dasharray:none;stroke-opacity:1;paint-order:stroke markers fill"
     d="m 69.328745,176.93487 h 80.248345 c 1.30114,0 2.34864,1.0475 2.34864,2.34865 v 2.17139 c 0,1.30115 -1.0475,2.34864 -2.34864,2.34864 H 69.328745 c -1.301148,0 -2.348642,-1.04749 -2.348642,-2.34864 v -2.17139 c 0,-1.30115 1.047494,-2.34865 2.348642,-2.34865 z"
     id="rect916" />
  <g
     id="flowRoot875"
     style="font-style:normal;font-weight:normal;font-size:40px;line-height:1.25;font-family:sans-serif;letter-spacing:0px;word-spacing:0px;fill:#ffffff;fill-opacity:1;stroke:none"
     transform="matrix(1.5959663,0,0,1.443992,-542.06609,-542.79863)"
     aria-label="C">
    <path
       id="path883"
       style="font-style:normal;font-variant:normal;font-weight:normal;font-stretch:normal;font-family:'Sansita One';-inkscape-font-specification:'Sansita One';text-align:center;text-anchor:middle;fill:#ffffff"
       d="m 416.32855,477.03741 q 1.04,0.76 1.04,2.4 0,1.6 -0.72,2.76 -0.68,1.12 -2.04,2 -2.92,1.88 -8.04,1.88 -5.08,0 -7.88,-2.64 -2.76,-2.68 -2.76,-7.4 0,-6.68 3.48,-11.76 2.64,-3.76 7.36,-5.36 2.44,-0.8 4.84,-0.8 2.4,0 3.88,0.32 1.48,0.32 2.6,0.96 2.44,1.4 2.44,3.64 0,2.04 -1.92,3.56 -1.76,1.36 -3.2,1.36 -1.44,0 -2.04,-0.2 0.16,-1.44 0.16,-2.36 0,-0.96 -0.04,-1.64 -0.04,-0.68 -0.24,-1.32 -0.4,-1.48 -1.64,-1.48 -1.2,0 -2.44,1.16 -1.2,1.12 -2.24,3.04 -2.36,4.36 -2.36,9.52 0,2.48 1.4,3.92 1.4,1.4 4.4,1.4 2.24,0 4.36,-1.48 0.92,-0.64 1.6,-1.48 z" />
  </g>
  <g
     id="flowRoot4567"
     style="font-style:normal;font-weight:normal;font-size:40px;line-height:1.25;font-family:sans-serif;letter-spacing:0px;word-spacing:0px;fill:#ffffff;fill-opacity:1;stroke:none"
     transform="matrix(1.2857043,0,0,1.1968037,-741.44389,-234.74933)"
     aria-label="Convert 
Fahrenheit 
to Celsius">
    <path
       id="path842"
       style="font-style:normal;font-variant:normal;font-weight:600;font-stretch:normal;font-family:'EB Garamond';-inkscape-font-specification:'EB Garamond Semi-Bold';fill:#ffffff"
       d="m 734.95,271.84192 q -3,0 -5.68,-0.92 -2.68,-0.96 -4.76,-2.72 -2.04,-1.76 -3.24,-4.2 -1.16,-2.48 -1.16,-5.48 0,-2.8 1.16,-5.28 1.16,-2.48 3.28,-4.4 2.12,-1.92 5.04,-3 2.96,-1.12 6.48,-1.12 1.36,0 2.56,0.2 1.24,0.16 2.4,0.44 1.16,0.24 2.28,0.64 0.44,0.16 0.68,0.44 0.28,0.28 0.32,0.76 0.16,1.2 0.24,2.4 0.08,1.16 0.08,2.32 0.04,0.4 -0.28,0.6 -0.32,0.16 -0.68,0.04 -0.36,-0.16 -0.52,-0.6 -0.32,-1.12 -0.76,-2.08 -0.4,-1 -1.24,-1.68 -0.92,-0.76 -2.32,-1.2 -1.4,-0.48 -3.28,-0.48 -2.16,0 -3.92,0.88 -1.76,0.88 -3.04,2.44 -1.24,1.56 -1.92,3.52 -0.68,1.96 -0.68,4.12 0,2.56 0.6,4.84 0.64,2.28 1.88,4.04 1.28,1.72 3.08,2.72 1.8,0.96 4.12,0.96 2.96,0 4.8,-1.28 1.84,-1.28 3.12,-3.8 0.32,-0.64 0.88,-0.6 0.56,0 0.56,0.64 0,0.48 -0.12,1.2 -0.12,0.72 -0.36,1.56 -0.2,0.8 -0.48,1.6 -0.16,0.48 -0.4,0.72 -0.24,0.24 -0.72,0.44 -1.52,0.64 -3.6,0.96 -2.04,0.36 -4.4,0.36 z" />
    <path
       id="path844"
       style="font-style:normal;font-variant:normal;font-weight:600;font-stretch:normal;font-family:'EB Garamond';-inkscape-font-specification:'EB Garamond Semi-Bold';fill:#ffffff"
       d="m 756.54999,271.84192 q -2.36,0 -4.24,-1.04 -1.88,-1.08 -3,-2.96 -1.12,-1.88 -1.12,-4.24 0,-1.84 0.72,-3.52 0.72,-1.68 1.96,-3 1.24,-1.32 2.92,-2.08 1.68,-0.8 3.6,-0.8 2.44,0 4.36,1.16 1.96,1.12 3.12,3 1.16,1.88 1.16,4.12 0,2.48 -1.08,4.64 -1.04,2.12 -3.16,3.44 -2.08,1.28 -5.24,1.28 z m 0.8,-1.56 q 1,0 1.76,-0.4 0.8,-0.4 1.28,-1.24 0.48,-0.84 0.64,-2.2 0.2,-1.4 0.2,-3 0,-2.12 -0.56,-3.84 -0.56,-1.72 -1.56,-2.76 -1,-1.04 -2.36,-1.04 -0.76,0 -1.4,0.28 -0.6,0.24 -1.12,0.84 -0.72,0.84 -1,2.32 -0.24,1.44 -0.24,3.36 0,1.92 0.56,3.68 0.6,1.76 1.56,2.88 1,1.12 2.24,1.12 z" />
    <path
       id="path846"
       style="font-style:normal;font-variant:normal;font-weight:600;font-stretch:normal;font-family:'EB Garamond';-inkscape-font-specification:'EB Garamond Semi-Bold';fill:#ffffff"
       d="m 768.78991,271.40192 q -0.32,0 -0.56,-0.12 -0.24,-0.16 -0.24,-0.4 0,-0.32 0.24,-0.48 0.28,-0.16 0.68,-0.28 0.6,-0.16 1.08,-0.44 0.52,-0.28 0.52,-1.08 v -8.96 q 0,-0.92 -0.28,-1.56 -0.24,-0.68 -1.08,-0.88 -0.16,-0.08 -0.28,-0.2 -0.12,-0.16 -0.12,-0.48 0,-0.52 0.36,-0.6 1.4,-0.32 2.76,-0.84 1.4,-0.56 2.44,-1.16 0.16,-0.08 0.32,-0.2 0.16,-0.12 0.32,-0.12 0.2,0 0.24,0.16 0.08,0.12 0.08,0.28 0,0.28 -0.12,1.04 -0.08,0.76 -0.08,1.32 0,0.16 0,0.36 0.04,0.16 0.08,0.2 1.36,-1.28 2.8,-2 1.48,-0.72 3.32,-0.72 2.04,0 3.4,1.56 1.4,1.56 1.4,4.12 v 8.72 q 0,0.8 0.48,1.04 0.48,0.24 1.08,0.44 0.32,0.12 0.6,0.32 0.28,0.16 0.28,0.48 0,0.24 -0.28,0.36 -0.24,0.12 -0.48,0.12 -0.8,0 -1.4,-0.08 -0.6,-0.04 -1.2,-0.08 -0.56,-0.04 -1.28,-0.04 -0.68,0 -1.28,0.04 -0.6,0.04 -1.24,0.08 -0.6,0.08 -1.4,0.08 -0.2,0 -0.44,-0.12 -0.24,-0.12 -0.24,-0.36 0,-0.32 0.24,-0.48 0.24,-0.2 0.56,-0.32 0.6,-0.2 1.04,-0.44 0.48,-0.24 0.48,-1.04 v -8.12 q 0,-1.6 -0.8,-2.52 -0.76,-0.92 -2.08,-0.92 -1.08,0 -1.88,0.32 -0.8,0.32 -1.56,0.92 -0.16,0.12 -0.24,0.36 -0.08,0.2 -0.08,0.44 v 9.52 q 0,0.8 0.44,1.08 0.48,0.24 1.08,0.4 0.84,0.28 0.84,0.76 0,0.24 -0.2,0.4 -0.2,0.12 -0.52,0.12 -0.8,0 -1.4,-0.08 -0.6,-0.04 -1.16,-0.08 -0.56,-0.04 -1.28,-0.04 -0.68,0 -1.28,0.04 -0.6,0.04 -1.24,0.08 -0.64,0.08 -1.44,0.08 z" />
    <path
       id="path848"
       style="font-style:normal;font-variant:normal;font-weight:600;font-stretch:normal;font-family:'EB Garamond';-inkscape-font-specification:'EB Garamond Semi-Bold';fill:#ffffff"
       d="m 797.50983,272.12192 q -0.24,0 -0.52,-0.56 -0.24,-0.56 -0.44,-1.12 -0.32,-0.68 -0.64,-1.52 -0.32,-0.88 -0.64,-1.6 -0.96,-2.36 -2,-4.64 -1.04,-2.28 -2.08,-4.68 -0.36,-0.8 -0.88,-1.4 -0.48,-0.64 -1.16,-0.84 -0.36,-0.16 -0.56,-0.28 -0.16,-0.16 -0.16,-0.52 0,-0.28 0.32,-0.32 0.36,-0.08 0.6,-0.08 0.88,0 1.36,0.04 0.52,0.04 0.96,0.12 0.48,0.04 1.28,0.04 0.8,0 1.36,-0.04 0.56,-0.08 1.16,-0.12 0.6,-0.04 1.48,-0.04 0.24,0 0.56,0.08 0.32,0.08 0.32,0.4 0,0.32 -0.28,0.48 -0.28,0.12 -0.6,0.24 -0.44,0.16 -0.68,0.6 -0.2,0.44 -0.2,1.08 0,0.32 0,0.64 0.04,0.28 0.16,0.6 l 2.8,7.16 q 0.04,0.04 0.04,0.04 0.04,0 0.08,-0.04 l 2.6,-6.8 q 0.16,-0.36 0.2,-0.72 0.08,-0.36 0.08,-0.68 0,-0.72 -0.28,-1.16 -0.28,-0.48 -0.92,-0.68 -0.4,-0.16 -0.68,-0.28 -0.24,-0.16 -0.24,-0.48 0,-0.28 0.32,-0.36 0.32,-0.12 0.6,-0.12 0.84,0.04 1.44,0.12 0.6,0.04 1.36,0.04 0.72,0 1.2,-0.04 0.52,-0.08 1.4,-0.12 0.32,0 0.6,0.08 0.32,0.08 0.32,0.36 0,0.52 -0.8,0.8 -0.68,0.24 -1.36,0.92 -0.64,0.68 -1.04,1.64 l -3.12,7.72 q -0.08,0.28 -0.28,0.76 -0.2,0.44 -0.44,0.96 -0.2,0.52 -0.4,0.96 -0.16,0.4 -0.24,0.6 -0.08,0.2 -0.32,0.76 -0.24,0.52 -0.52,1.12 -0.24,0.56 -0.44,0.88 z" />
    <path
       id="path850"
       style="font-style:normal;font-variant:normal;font-weight:600;font-stretch:normal;font-family:'EB Garamond';-inkscape-font-specification:'EB Garamond Semi-Bold';fill:#ffffff"
       d="m 814.62975,271.84192 q -2.2,0 -3.88,-1.12 -1.68,-1.12 -2.64,-3.08 -0.96,-2 -0.96,-4.52 0,-2.44 1.12,-4.44 1.16,-2.04 3.08,-3.24 1.92,-1.2 4.2,-1.2 1.68,0 3,0.72 1.32,0.68 2.08,1.92 0.8,1.2 0.8,2.72 0,1.44 -1.24,1.44 h -8.12 q -0.56,0 -0.84,0.32 -0.24,0.28 -0.24,1.08 0,1.68 0.72,3.04 0.76,1.36 2,2.16 1.24,0.8 2.84,0.8 1.16,0 2.12,-0.44 1,-0.48 1.88,-1.28 0.16,-0.12 0.28,-0.2 0.12,-0.12 0.24,-0.12 0.4,0 0.4,0.48 0,0.56 -0.48,1.36 -0.48,0.92 -1.4,1.76 -0.88,0.84 -2.16,1.32 -1.28,0.52 -2.8,0.52 z m -2.56,-12.36 h 2.84 q 1.04,0 1.56,-0.04 0.52,-0.04 1,-0.16 0.2,-0.04 0.28,-0.32 0.08,-0.32 0.08,-0.72 0,-1.08 -0.84,-1.8 -0.8,-0.76 -2,-0.76 -0.84,0 -1.64,0.52 -0.8,0.48 -1.32,1.24 -0.52,0.76 -0.48,1.56 0,0.48 0.52,0.48 z" />
    <path
       id="path852"
       style="font-style:normal;font-variant:normal;font-weight:600;font-stretch:normal;font-family:'EB Garamond';-inkscape-font-specification:'EB Garamond Semi-Bold';fill:#ffffff"
       d="m 824.22971,271.40192 q -0.32,0 -0.56,-0.12 -0.24,-0.16 -0.24,-0.4 0,-0.32 0.24,-0.48 0.28,-0.16 0.68,-0.28 0.84,-0.24 1.16,-0.56 0.36,-0.36 0.36,-0.96 v -9 q 0,-0.92 -0.28,-1.52 -0.24,-0.64 -1.08,-0.84 -0.16,-0.08 -0.32,-0.2 -0.16,-0.16 -0.16,-0.44 0,-0.52 0.44,-0.64 1.2,-0.32 2.6,-0.84 1.4,-0.56 2.36,-1.08 0.2,-0.12 0.44,-0.24 0.24,-0.12 0.36,-0.12 0.32,0 0.32,0.4 0,0.16 -0.04,0.72 0,0.56 -0.04,1.24 0,0.64 -0.04,1.16 0,0.24 0.12,0.24 0.64,-0.84 1.44,-1.56 0.8,-0.72 1.68,-1.2 0.92,-0.48 1.84,-0.48 1.16,0 1.72,0.48 0.6,0.48 0.6,1.2 0,0.56 -0.32,1.2 -0.28,0.64 -0.76,1.12 -0.44,0.44 -1,0.44 -0.32,0 -0.68,-0.12 -0.36,-0.16 -0.72,-0.36 -0.36,-0.16 -0.76,-0.32 -0.36,-0.16 -0.68,-0.16 -1,0 -1.8,0.76 -0.8,0.72 -0.8,2.88 v 7.04 q 0,0.72 0.52,1.12 0.52,0.36 1.6,0.68 0.44,0.12 0.64,0.28 0.24,0.12 0.24,0.44 0,0.52 -0.72,0.52 -1.2,0 -2.28,-0.12 -1.04,-0.08 -2.08,-0.08 -0.68,0 -1.32,0.04 -0.6,0.04 -1.24,0.08 -0.64,0.08 -1.44,0.08 z" />
    <path
       id="path854"
       style="font-style:normal;font-variant:normal;font-weight:600;font-stretch:normal;font-family:'EB Garamond';-inkscape-font-specification:'EB Garamond Semi-Bold';fill:#ffffff"
       d="m 846.34965,271.84192 q -2.4,0 -3.64,-1.28 -1.24,-1.28 -1.24,-3.72 v -9.24 q 0,-0.32 -0.28,-0.48 -0.24,-0.16 -1,-0.2 h -0.44 q -0.24,0 -0.4,-0.36 -0.16,-0.4 -0.16,-0.76 0,-0.08 0.04,-0.2 0.08,-0.16 0.2,-0.2 0.92,-0.4 1.88,-1.08 0.96,-0.72 1.8,-1.44 0.84,-0.76 1.4,-1.28 0.28,-0.2 0.44,-0.36 0.2,-0.16 0.44,-0.16 0.32,0 0.48,0.16 0.2,0.12 0.12,0.52 l -0.24,2.2 q -0.04,0.48 0.2,0.64 0.28,0.16 0.76,0.16 h 4.72 q 0.12,0 0.24,0.28 0.12,0.28 0.12,0.56 0,0.52 -0.16,0.96 -0.12,0.44 -0.32,0.44 h -3.8 q -0.92,0 -1.28,0.2 -0.32,0.2 -0.32,0.84 v 7.68 q 0,1.76 0.68,2.68 0.68,0.88 1.92,0.88 1.12,0 1.68,-0.2 0.6,-0.2 1.08,-0.48 0.12,-0.08 0.2,-0.08 0.2,0 0.28,0.24 0.12,0.24 0.12,0.52 0,0.2 -0.8,0.84 -0.76,0.64 -2.04,1.16 -1.24,0.56 -2.68,0.56 z" />
    <path
       id="path856"
       style="font-style:normal;font-variant:normal;font-weight:600;font-stretch:normal;font-family:'EB Garamond';-inkscape-font-specification:'EB Garamond Semi-Bold';fill:#ffffff"
       d="m 720.55,321.9172 q -0.36,0 -0.64,-0.16 -0.28,-0.12 -0.28,-0.36 0,-0.6 1,-0.8 1.52,-0.32 2.08,-0.88 0.6,-0.56 0.6,-1.88 v -17.6 q 0,-1.52 -0.52,-2.24 -0.48,-0.72 -1.92,-1.04 -0.56,-0.12 -0.8,-0.32 -0.24,-0.24 -0.24,-0.48 0,-0.28 0.24,-0.4 0.28,-0.16 0.72,-0.16 1.12,0 2.16,0.04 1.04,0.04 2.04,0.08 1,0.04 2.04,0.04 1.44,0 3.12,0 1.72,0 3.24,0 1.52,0 2.72,-0.2 1.24,-0.24 2.08,-0.24 0.24,0 0.52,0.16 0.32,0.12 0.36,0.48 0.08,0.76 0.12,1.72 0.04,0.96 0.04,1.84 0.04,0.88 0.04,1.4 0,0.8 -0.44,0.8 -0.2,0 -0.44,-0.16 -0.2,-0.16 -0.28,-0.44 -0.24,-0.88 -0.56,-1.56 -0.28,-0.72 -0.72,-1.12 -0.52,-0.6 -1.24,-0.84 -0.68,-0.24 -1.6,-0.24 h -3.64 q -0.96,0 -1.44,0.56 -0.44,0.52 -0.44,1.36 0,0.72 0,1.72 0,1 0,1.88 0,0.92 0,1.96 0,1.04 0,1.88 0,0.4 0.16,0.68 0.2,0.24 0.6,0.24 1.08,0 2.16,-0.04 1.12,-0.04 1.96,-0.04 0.96,0 1.48,-0.56 0.56,-0.56 0.88,-1.36 0.16,-0.28 0.36,-0.48 0.24,-0.2 0.44,-0.2 0.2,0 0.36,0.2 0.2,0.2 0.16,0.6 -0.08,0.76 -0.16,1.44 -0.04,0.64 -0.04,1.2 0,0.72 0.04,1.28 0.04,0.56 0.12,1.48 0.04,0.44 -0.08,0.68 -0.08,0.24 -0.32,0.24 -0.32,0 -0.6,-0.32 -0.24,-0.32 -0.32,-0.64 -0.32,-1.08 -0.84,-1.48 -0.48,-0.4 -1.12,-0.4 -0.48,0 -1,0 -0.48,-0.04 -0.92,-0.04 -0.6,0 -1.24,0 -0.6,0 -1.2,0.04 -0.44,0.04 -0.68,0.28 -0.24,0.2 -0.24,0.68 0,1.84 0,3.76 0.04,1.92 0.08,3.84 0.04,1.24 0.68,1.84 0.64,0.6 2.24,0.96 0.52,0.08 0.76,0.28 0.24,0.16 0.24,0.48 0,0.28 -0.24,0.4 -0.2,0.12 -0.64,0.12 -0.92,0 -1.92,-0.08 -0.96,-0.04 -1.88,-0.08 -0.88,-0.04 -1.64,-0.04 -0.88,0 -1.8,0.04 -0.92,0.04 -1.88,0.12 -0.92,0.08 -1.88,0.08 z" />
    <path
       id="path858"
       style="font-style:normal;font-variant:normal;font-weight:600;font-stretch:normal;font-family:'EB Garamond';-inkscape-font-specification:'EB Garamond Semi-Bold';fill:#ffffff"
       d="m 744.14993,322.3172 q -0.96,0 -1.84,-0.52 -0.84,-0.52 -1.36,-1.36 -0.52,-0.84 -0.52,-1.72 0,-1.36 0.8,-2.2 0.8,-0.88 2.4,-1.56 l 3.72,-1.6 q 0.8,-0.32 0.96,-0.6 0.2,-0.28 0.2,-1.04 l 0.08,-2.36 q 0.04,-1.12 -0.48,-1.8 -0.48,-0.68 -1.48,-0.68 -0.52,0 -1.08,0.2 -0.56,0.2 -0.88,0.52 -0.16,0.16 -0.24,0.44 -0.04,0.24 -0.04,0.48 0,0.2 0,0.52 0.04,0.28 0.04,0.52 0,0.24 -0.6,0.6 -0.6,0.36 -1.36,0.64 -0.76,0.28 -1.28,0.28 -0.28,0 -0.44,-0.2 -0.16,-0.2 -0.16,-0.48 0,-0.64 0.4,-1.28 0.44,-0.68 1.36,-1.44 1,-0.84 2.2,-1.48 1.2,-0.68 2.32,-1.08 1.16,-0.4 2,-0.4 1.92,0 3.08,1.28 1.16,1.24 1.12,3.28 l -0.2,8.56 q -0.04,0.88 0.32,1.48 0.4,0.6 0.96,0.6 0.84,0 1.36,-0.48 0.16,-0.16 0.28,-0.16 0.2,0 0.32,0.16 0.16,0.12 0.16,0.32 0,0.44 -0.64,1.08 -0.72,0.72 -1.56,1.08 -0.8,0.4 -1.6,0.4 -2.12,0 -3.44,-2.2 h -0.12 q -1.32,1.16 -2.44,1.68 -1.08,0.52 -2.32,0.52 z m 2.2,-2.4 q 0.56,0 0.96,-0.16 0.4,-0.2 0.68,-0.52 0.16,-0.2 0.24,-0.48 0.12,-0.28 0.16,-0.8 l 0.08,-2.56 q 0.04,-0.4 -0.08,-0.52 -0.12,-0.16 -0.28,-0.16 -0.08,0 -0.24,0.04 -0.16,0 -0.36,0.12 -1.48,0.6 -2.12,1.28 -0.64,0.68 -0.64,1.76 0,1.08 0.52,1.56 0.52,0.44 1.08,0.44 z" />
    <path
       id="path860"
       style="font-style:normal;font-variant:normal;font-weight:600;font-stretch:normal;font-family:'EB Garamond';-inkscape-font-specification:'EB Garamond Semi-Bold';fill:#ffffff"
       d="m 757.6299,321.8772 q -0.8,0 -0.8,-0.52 0,-0.44 0.92,-0.76 0.6,-0.2 1.08,-0.44 0.52,-0.28 0.52,-1.12 v -19.48 q 0,-1.08 -0.32,-1.88 -0.28,-0.8 -1.32,-1 -0.4,-0.08 -0.4,-0.6 0,-0.44 0.36,-0.56 0.8,-0.2 1.84,-0.52 1.08,-0.36 2.08,-0.72 1.04,-0.4 1.68,-0.6 0.28,-0.12 0.4,-0.12 0.24,0 0.32,0.12 0.08,0.12 0.08,0.28 0,0.24 -0.08,0.64 -0.08,0.4 -0.16,1.12 -0.04,0.68 -0.04,1.88 v 8.52 q 0,0.48 0.04,0.8 0.04,0.28 0.2,0.44 0.6,-0.48 1.48,-1.08 0.88,-0.64 2,-1.08 1.12,-0.48 2.44,-0.48 2.08,0 3.44,1.52 1.4,1.52 1.4,4.08 v 8.6 q 0,0.84 0.48,1.16 0.48,0.32 1.04,0.52 0.44,0.16 0.64,0.32 0.24,0.16 0.24,0.44 0,0.52 -0.84,0.52 -0.92,0 -1.48,-0.08 -0.52,-0.04 -1,-0.08 -0.48,-0.04 -1.32,-0.04 -0.8,0 -1.28,0.04 -0.44,0.04 -0.92,0.08 -0.48,0.08 -1.4,0.08 -0.88,0 -0.88,-0.56 0,-0.28 0.24,-0.44 0.24,-0.16 0.6,-0.28 0.56,-0.16 1,-0.52 0.44,-0.36 0.44,-1.2 v -7.96 q 0,-0.92 -0.44,-1.64 -0.44,-0.76 -1.12,-1.2 -0.64,-0.44 -1.4,-0.44 -0.64,0 -1.44,0.2 -0.8,0.2 -1.44,0.68 -0.44,0.32 -0.6,0.72 -0.12,0.36 -0.12,1.2 v 8.56 q 0.04,0.8 0.44,1.12 0.44,0.28 0.96,0.48 0.4,0.12 0.6,0.28 0.24,0.16 0.24,0.44 0,0.56 -0.72,0.56 -0.8,0 -1.4,-0.08 -0.6,-0.04 -1.16,-0.08 -0.52,-0.04 -1.24,-0.04 -0.68,0 -1.28,0.04 -0.56,0.04 -1.2,0.08 -0.6,0.08 -1.4,0.08 z" />
    <path
       id="path862"
       style="font-style:normal;font-variant:normal;font-weight:600;font-stretch:normal;font-family:'EB Garamond';-inkscape-font-specification:'EB Garamond Semi-Bold';fill:#ffffff"
       d="m 779.70983,321.8772 q -0.32,0 -0.56,-0.12 -0.24,-0.16 -0.24,-0.4 0,-0.32 0.24,-0.48 0.28,-0.16 0.68,-0.28 0.84,-0.24 1.16,-0.56 0.36,-0.36 0.36,-0.96 v -9 q 0,-0.92 -0.28,-1.52 -0.24,-0.64 -1.08,-0.84 -0.16,-0.08 -0.32,-0.2 -0.16,-0.16 -0.16,-0.44 0,-0.52 0.44,-0.64 1.2,-0.32 2.6,-0.84 1.4,-0.56 2.36,-1.08 0.2,-0.12 0.44,-0.24 0.24,-0.12 0.36,-0.12 0.32,0 0.32,0.4 0,0.16 -0.04,0.72 0,0.56 -0.04,1.24 0,0.64 -0.04,1.16 0,0.24 0.12,0.24 0.64,-0.84 1.44,-1.56 0.8,-0.72 1.68,-1.2 0.92,-0.48 1.84,-0.48 1.16,0 1.72,0.48 0.6,0.48 0.6,1.2 0,0.56 -0.32,1.2 -0.28,0.64 -0.76,1.12 -0.44,0.44 -1,0.44 -0.32,0 -0.68,-0.12 -0.36,-0.16 -0.72,-0.36 -0.36,-0.16 -0.76,-0.32 -0.36,-0.16 -0.68,-0.16 -1,0 -1.8,0.76 -0.8,0.72 -0.8,2.88 v 7.04 q 0,0.72 0.52,1.12 0.52,0.36 1.6,0.68 0.44,0.12 0.64,0.28 0.24,0.12 0.24,0.44 0,0.52 -0.72,0.52 -1.2,0 -2.28,-0.12 -1.04,-0.08 -2.08,-0.08 -0.68,0 -1.32,0.04 -0.6,0.04 -1.24,0.08 -0.64,0.08 -1.44,0.08 z" />
    <path
       id="path864"
       style="font-style:normal;font-variant:normal;font-weight:600;font-stretch:normal;font-family:'EB Garamond';-inkscape-font-specification:'EB Garamond Semi-Bold';fill:#ffffff"
       d="m 801.62972,322.3172 q -2.2,0 -3.88,-1.12 -1.68,-1.12 -2.64,-3.08 -0.96,-2 -0.96,-4.52 0,-2.44 1.12,-4.44 1.16,-2.04 3.08,-3.24 1.92,-1.2 4.2,-1.2 1.68,0 3,0.72 1.32,0.68 2.08,1.92 0.8,1.2 0.8,2.72 0,1.44 -1.24,1.44 h -8.12 q -0.56,0 -0.84,0.32 -0.24,0.28 -0.24,1.08 0,1.68 0.72,3.04 0.76,1.36 2,2.16 1.24,0.8 2.84,0.8 1.16,0 2.12,-0.44 1,-0.48 1.88,-1.28 0.16,-0.12 0.28,-0.2 0.12,-0.12 0.24,-0.12 0.4,0 0.4,0.48 0,0.56 -0.48,1.36 -0.48,0.92 -1.4,1.76 -0.88,0.84 -2.16,1.32 -1.28,0.52 -2.8,0.52 z m -2.56,-12.36 h 2.84 q 1.04,0 1.56,-0.04 0.52,-0.04 1,-0.16 0.2,-0.04 0.28,-0.32 0.08,-0.32 0.08,-0.72 0,-1.08 -0.84,-1.8 -0.8,-0.76 -2,-0.76 -0.84,0 -1.64,0.52 -0.8,0.48 -1.32,1.24 -0.52,0.76 -0.48,1.56 0,0.48 0.52,0.48 z" />
    <path
       id="path866"
       style="font-style:normal;font-variant:normal;font-weight:600;font-stretch:normal;font-family:'EB Garamond';-inkscape-font-specification:'EB Garamond Semi-Bold';fill:#ffffff"
       d="m 811.14968,321.8772 q -0.32,0 -0.56,-0.12 -0.24,-0.16 -0.24,-0.4 0,-0.32 0.24,-0.48 0.28,-0.16 0.68,-0.28 0.6,-0.16 1.08,-0.44 0.52,-0.28 0.52,-1.08 v -8.96 q 0,-0.92 -0.28,-1.56 -0.24,-0.68 -1.08,-0.88 -0.16,-0.08 -0.28,-0.2 -0.12,-0.16 -0.12,-0.48 0,-0.52 0.36,-0.6 1.4,-0.32 2.76,-0.84 1.4,-0.56 2.44,-1.16 0.16,-0.08 0.32,-0.2 0.16,-0.12 0.32,-0.12 0.2,0 0.24,0.16 0.08,0.12 0.08,0.28 0,0.28 -0.12,1.04 -0.08,0.76 -0.08,1.32 0,0.16 0,0.36 0.04,0.16 0.08,0.2 1.36,-1.28 2.8,-2 1.48,-0.72 3.32,-0.72 2.04,0 3.4,1.56 1.4,1.56 1.4,4.12 v 8.72 q 0,0.8 0.48,1.04 0.48,0.24 1.08,0.44 0.32,0.12 0.6,0.32 0.28,0.16 0.28,0.48 0,0.24 -0.28,0.36 -0.24,0.12 -0.48,0.12 -0.8,0 -1.4,-0.08 -0.6,-0.04 -1.2,-0.08 -0.56,-0.04 -1.28,-0.04 -0.68,0 -1.28,0.04 -0.6,0.04 -1.24,0.08 -0.6,0.08 -1.4,0.08 -0.2,0 -0.44,-0.12 -0.24,-0.12 -0.24,-0.36 0,-0.32 0.24,-0.48 0.24,-0.2 0.56,-0.32 0.6,-0.2 1.04,-0.44 0.48,-0.24 0.48,-1.04 v -8.12 q 0,-1.6 -0.8,-2.52 -0.76,-0.92 -2.08,-0.92 -1.08,0 -1.88,0.32 -0.8,0.32 -1.56,0.92 -0.16,0.12 -0.24,0.36 -0.08,0.2 -0.08,0.44 v 9.52 q 0,0.8 0.44,1.08 0.48,0.24 1.08,0.4 0.84,0.28 0.84,0.76 0,0.24 -0.2,0.4 -0.2,0.12 -0.52,0.12 -0.8,0 -1.4,-0.08 -0.6,-0.04 -1.16,-0.08 -0.56,-0.04 -1.28,-0.04 -0.68,0 -1.28,0.04 -0.6,0.04 -1.24,0.08 -0.64,0.08 -1.44,0.08 z" />
    <path
       id="path868"
       style="font-style:normal;font-variant:normal;font-weight:600;font-stretch:normal;font-family:'EB Garamond';-inkscape-font-specification:'EB Garamond Semi-Bold';fill:#ffffff"
       d="m 833.06966,321.8772 q -0.8,0 -0.8,-0.52 0,-0.44 0.92,-0.76 0.6,-0.2 1.08,-0.44 0.52,-0.28 0.52,-1.12 v -19.48 q 0,-1.08 -0.32,-1.88 -0.28,-0.8 -1.32,-1 -0.4,-0.08 -0.4,-0.6 0,-0.44 0.36,-0.56 0.8,-0.2 1.84,-0.52 1.08,-0.36 2.08,-0.72 1.04,-0.4 1.68,-0.6 0.28,-0.12 0.4,-0.12 0.24,0 0.32,0.12 0.08,0.12 0.08,0.28 0,0.24 -0.08,0.64 -0.08,0.4 -0.16,1.12 -0.04,0.68 -0.04,1.88 v 8.52 q 0,0.48 0.04,0.8 0.04,0.28 0.2,0.44 0.6,-0.48 1.48,-1.08 0.88,-0.64 2,-1.08 1.12,-0.48 2.44,-0.48 2.08,0 3.44,1.52 1.4,1.52 1.4,4.08 v 8.6 q 0,0.84 0.48,1.16 0.48,0.32 1.04,0.52 0.44,0.16 0.64,0.32 0.24,0.16 0.24,0.44 0,0.52 -0.84,0.52 -0.92,0 -1.48,-0.08 -0.52,-0.04 -1,-0.08 -0.48,-0.04 -1.32,-0.04 -0.8,0 -1.28,0.04 -0.44,0.04 -0.92,0.08 -0.48,0.08 -1.4,0.08 -0.88,0 -0.88,-0.56 0,-0.28 0.24,-0.44 0.24,-0.16 0.6,-0.28 0.56,-0.16 1,-0.52 0.44,-0.36 0.44,-1.2 v -7.96 q 0,-0.92 -0.44,-1.64 -0.44,-0.76 -1.12,-1.2 -0.64,-0.44 -1.4,-0.44 -0.64,0 -1.44,0.2 -0.8,0.2 -1.44,0.68 -0.44,0.32 -0.6,0.72 -0.12,0.36 -0.12,1.2 v 8.56 q 0.04,0.8 0.44,1.12 0.44,0.28 0.96,0.48 0.4,0.12 0.6,0.28 0.24,0.16 0.24,0.44 0,0.56 -0.72,0.56 -0.8,0 -1.4,-0.08 -0.6,-0.04 -1.16,-0.08 -0.52,-0.04 -1.24,-0.04 -0.68,0 -1.28,0.04 -0.56,0.04 -1.2,0.08 -0.6,0.08 -1.4,0.08 z" />
    <path
       id="path870"
       style="font-style:normal;font-variant:normal;font-weight:600;font-stretch:normal;font-family:'EB Garamond';-inkscape-font-specification:'EB Garamond Semi-Bold';fill:#ffffff"
       d="m 861.86959,322.3172 q -2.2,0 -3.88,-1.12 -1.68,-1.12 -2.64,-3.08 -0.96,-2 -0.96,-4.52 0,-2.44 1.12,-4.44 1.16,-2.04 3.08,-3.24 1.92,-1.2 4.2,-1.2 1.68,0 3,0.72 1.32,0.68 2.08,1.92 0.8,1.2 0.8,2.72 0,1.44 -1.24,1.44 h -8.12 q -0.56,0 -0.84,0.32 -0.24,0.28 -0.24,1.08 0,1.68 0.72,3.04 0.76,1.36 2,2.16 1.24,0.8 2.84,0.8 1.16,0 2.12,-0.44 1,-0.48 1.88,-1.28 0.16,-0.12 0.28,-0.2 0.12,-0.12 0.24,-0.12 0.4,0 0.4,0.48 0,0.56 -0.48,1.36 -0.48,0.92 -1.4,1.76 -0.88,0.84 -2.16,1.32 -1.28,0.52 -2.8,0.52 z m -2.56,-12.36 h 2.84 q 1.04,0 1.56,-0.04 0.52,-0.04 1,-0.16 0.2,-0.04 0.28,-0.32 0.08,-0.32 0.08,-0.72 0,-1.08 -0.84,-1.8 -0.8,-0.76 -2,-0.76 -0.84,0 -1.64,0.52 -0.8,0.48 -1.32,1.24 -0.52,0.76 -0.48,1.56 0,0.48 0.52,0.48 z" />
    <path
       id="path872"
       style="font-style:normal;font-variant:normal;font-weight:600;font-stretch:normal;font-family:'EB Garamond';-inkscape-font-specification:'EB Garamond Semi-Bold';fill:#ffffff"
       d="m 871.30955,321.8772 q -0.32,0 -0.52,-0.12 -0.2,-0.16 -0.2,-0.4 0,-0.32 0.24,-0.48 0.24,-0.16 0.56,-0.24 0.96,-0.24 1.36,-0.52 0.44,-0.28 0.44,-0.96 v -8.68 q 0,-1.28 -0.4,-1.92 -0.4,-0.64 -1.36,-0.8 -0.2,-0.04 -0.32,-0.2 -0.12,-0.2 -0.12,-0.44 0,-0.56 0.44,-0.6 1.92,-0.4 3.32,-1.08 1.44,-0.72 2.2,-1.12 0.56,-0.28 0.72,-0.28 0.44,0 0.44,0.4 -0.04,0.56 -0.16,1.56 -0.12,0.96 -0.24,2.08 -0.08,1.08 -0.08,2.04 v 9 q 0,0.6 0.44,0.92 0.44,0.32 1.4,0.6 0.32,0.12 0.56,0.28 0.24,0.12 0.24,0.44 0,0.48 -0.68,0.48 -0.76,0 -1.48,-0.04 -0.68,-0.04 -1.36,-0.08 -0.64,-0.04 -1.36,-0.04 -0.68,0 -1.32,0.04 -0.64,0.04 -1.32,0.08 -0.64,0.08 -1.44,0.08 z m 4,-20.16 q -1.16,0 -1.96,-0.8 -0.8,-0.8 -0.8,-1.92 0,-1.24 0.8,-2.04 0.8,-0.8 1.96,-0.8 1.2,0 2,0.8 0.8,0.8 0.8,2.04 0,1.12 -0.8,1.92 -0.8,0.8 -2,0.8 z" />
    <path
       id="path874"
       style="font-style:normal;font-variant:normal;font-weight:600;font-stretch:normal;font-family:'EB Garamond';-inkscape-font-specification:'EB Garamond Semi-Bold';fill:#ffffff"
       d="m 889.22952,322.3172 q -2.4,0 -3.64,-1.28 -1.24,-1.28 -1.24,-3.72 v -9.24 q 0,-0.32 -0.28,-0.48 -0.24,-0.16 -1,-0.2 h -0.44 q -0.24,0 -0.4,-0.36 -0.16,-0.4 -0.16,-0.76 0,-0.08 0.04,-0.2 0.08,-0.16 0.2,-0.2 0.92,-0.4 1.88,-1.08 0.96,-0.72 1.8,-1.44 0.84,-0.76 1.4,-1.28 0.28,-0.2 0.44,-0.36 0.2,-0.16 0.44,-0.16 0.32,0 0.48,0.16 0.2,0.12 0.12,0.52 l -0.24,2.2 q -0.04,0.48 0.2,0.64 0.28,0.16 0.76,0.16 h 4.72 q 0.12,0 0.24,0.28 0.12,0.28 0.12,0.56 0,0.52 -0.16,0.96 -0.12,0.44 -0.32,0.44 h -3.8 q -0.92,0 -1.28,0.2 -0.32,0.2 -0.32,0.84 v 7.68 q 0,1.76 0.68,2.68 0.68,0.88 1.92,0.88 1.12,0 1.68,-0.2 0.6,-0.2 1.08,-0.48 0.12,-0.08 0.2,-0.08 0.2,0 0.28,0.24 0.12,0.24 0.12,0.52 0,0.2 -0.8,0.84 -0.76,0.64 -2.04,1.16 -1.24,0.56 -2.68,0.56 z" />
    <path
       id="path876"
       style="font-style:normal;font-variant:normal;font-weight:600;font-stretch:normal;font-family:'EB Garamond';-inkscape-font-specification:'EB Garamond Semi-Bold';fill:#ffffff"
       d="m 727.11,372.79248 q -2.4,0 -3.64,-1.28 -1.24,-1.28 -1.24,-3.72 v -9.24 q 0,-0.32 -0.28,-0.48 -0.24,-0.16 -1,-0.2 h -0.44 q -0.24,0 -0.4,-0.36 -0.16,-0.4 -0.16,-0.76 0,-0.08 0.04,-0.2 0.08,-0.16 0.2,-0.2 0.92,-0.4 1.88,-1.08 0.96,-0.72 1.8,-1.44 0.84,-0.76 1.4,-1.28 0.28,-0.2 0.44,-0.36 0.2,-0.16 0.44,-0.16 0.32,0 0.48,0.16 0.2,0.12 0.12,0.52 l -0.24,2.2 q -0.04,0.48 0.2,0.64 0.28,0.16 0.76,0.16 h 4.72 q 0.12,0 0.24,0.28 0.12,0.28 0.12,0.56 0,0.52 -0.16,0.96 -0.12,0.44 -0.32,0.44 h -3.8 q -0.92,0 -1.28,0.2 -0.32,0.2 -0.32,0.84 v 7.68 q 0,1.76 0.68,2.68 0.68,0.88 1.92,0.88 1.12,0 1.68,-0.2 0.6,-0.2 1.08,-0.48 0.12,-0.08 0.2,-0.08 0.2,0 0.28,0.24 0.12,0.24 0.12,0.52 0,0.2 -0.8,0.84 -0.76,0.64 -2.04,1.16 -1.24,0.56 -2.68,0.56 z" />
    <path
       id="path878"
       style="font-style:normal;font-variant:normal;font-weight:600;font-stretch:normal;font-family:'EB Garamond';-inkscape-font-specification:'EB Garamond Semi-Bold';fill:#ffffff"
       d="m 742.38998,372.79248 q -2.36,0 -4.24,-1.04 -1.88,-1.08 -3,-2.96 -1.12,-1.88 -1.12,-4.24 0,-1.84 0.72,-3.52 0.72,-1.68 1.96,-3 1.24,-1.32 2.92,-2.08 1.68,-0.8 3.6,-0.8 2.44,0 4.36,1.16 1.96,1.12 3.12,3 1.16,1.88 1.16,4.12 0,2.48 -1.08,4.64 -1.04,2.12 -3.16,3.44 -2.08,1.28 -5.24,1.28 z m 0.8,-1.56 q 1,0 1.76,-0.4 0.8,-0.4 1.28,-1.24 0.48,-0.84 0.64,-2.2 0.2,-1.4 0.2,-3 0,-2.12 -0.56,-3.84 -0.56,-1.72 -1.56,-2.76 -1,-1.04 -2.36,-1.04 -0.76,0 -1.4,0.28 -0.6,0.24 -1.12,0.84 -0.72,0.84 -1,2.32 -0.24,1.44 -0.24,3.36 0,1.92 0.56,3.68 0.6,1.76 1.56,2.88 1,1.12 2.24,1.12 z" />
    <path
       id="path880"
       style="font-style:normal;font-variant:normal;font-weight:600;font-stretch:normal;font-family:'EB Garamond';-inkscape-font-specification:'EB Garamond Semi-Bold';fill:#ffffff"
       d="m 777.70978,372.79248 q -3,0 -5.68,-0.92 -2.68,-0.96 -4.76,-2.72 -2.04,-1.76 -3.24,-4.2 -1.16,-2.48 -1.16,-5.48 0,-2.8 1.16,-5.28 1.16,-2.48 3.28,-4.4 2.12,-1.92 5.04,-3 2.96,-1.12 6.48,-1.12 1.36,0 2.56,0.2 1.24,0.16 2.4,0.44 1.16,0.24 2.28,0.64 0.44,0.16 0.68,0.44 0.28,0.28 0.32,0.76 0.16,1.2 0.24,2.4 0.08,1.16 0.08,2.32 0.04,0.4 -0.28,0.6 -0.32,0.16 -0.68,0.04 -0.36,-0.16 -0.52,-0.6 -0.32,-1.12 -0.76,-2.08 -0.4,-1 -1.24,-1.68 -0.92,-0.76 -2.32,-1.2 -1.4,-0.48 -3.28,-0.48 -2.16,0 -3.92,0.88 -1.76,0.88 -3.04,2.44 -1.24,1.56 -1.92,3.52 -0.68,1.96 -0.68,4.12 0,2.56 0.6,4.84 0.64,2.28 1.88,4.04 1.28,1.72 3.08,2.72 1.8,0.96 4.12,0.96 2.96,0 4.8,-1.28 1.84,-1.28 3.12,-3.8 0.32,-0.64 0.88,-0.6 0.56,0 0.56,0.64 0,0.48 -0.12,1.2 -0.12,0.72 -0.36,1.56 -0.2,0.8 -0.48,1.6 -0.16,0.48 -0.4,0.72 -0.24,0.24 -0.72,0.44 -1.52,0.64 -3.6,0.96 -2.04,0.36 -4.4,0.36 z" />
    <path
       id="path882"
       style="font-style:normal;font-variant:normal;font-weight:600;font-stretch:normal;font-family:'EB Garamond';-inkscape-font-specification:'EB Garamond Semi-Bold';fill:#ffffff"
       d="m 798.34977,372.79248 q -2.2,0 -3.88,-1.12 -1.68,-1.12 -2.64,-3.08 -0.96,-2 -0.96,-4.52 0,-2.44 1.12,-4.44 1.16,-2.04 3.08,-3.24 1.92,-1.2 4.2,-1.2 1.68,0 3,0.72 1.32,0.68 2.08,1.92 0.8,1.2 0.8,2.72 0,1.44 -1.24,1.44 h -8.12 q -0.56,0 -0.84,0.32 -0.24,0.28 -0.24,1.08 0,1.68 0.72,3.04 0.76,1.36 2,2.16 1.24,0.8 2.84,0.8 1.16,0 2.12,-0.44 1,-0.48 1.88,-1.28 0.16,-0.12 0.28,-0.2 0.12,-0.12 0.24,-0.12 0.4,0 0.4,0.48 0,0.56 -0.48,1.36 -0.48,0.92 -1.4,1.76 -0.88,0.84 -2.16,1.32 -1.28,0.52 -2.8,0.52 z m -2.56,-12.36 h 2.84 q 1.04,0 1.56,-0.04 0.52,-0.04 1,-0.16 0.2,-0.04 0.28,-0.32 0.08,-0.32 0.08,-0.72 0,-1.08 -0.84,-1.8 -0.8,-0.76 -2,-0.76 -0.84,0 -1.64,0.52 -0.8,0.48 -1.32,1.24 -0.52,0.76 -0.48,1.56 0,0.48 0.52,0.48 z" />
    <path
       id="path884"
       style="font-style:normal;font-variant:normal;font-weight:600;font-stretch:normal;font-family:'EB Garamond';-inkscape-font-specification:'EB Garamond Semi-Bold';fill:#ffffff"
       d="m 807.66973,372.35248 q -0.32,0 -0.56,-0.12 -0.24,-0.12 -0.24,-0.36 0,-0.32 0.24,-0.48 0.28,-0.16 0.68,-0.32 0.6,-0.2 1.08,-0.44 0.52,-0.24 0.52,-1.08 v -19.52 q 0,-1.12 -0.36,-1.88 -0.32,-0.8 -1.32,-1 -0.4,-0.08 -0.4,-0.6 0,-0.48 0.36,-0.56 1,-0.2 2.04,-0.56 1.08,-0.36 2,-0.72 0.96,-0.36 1.6,-0.56 0.28,-0.12 0.4,-0.12 0.2,0 0.28,0.16 0.08,0.12 0.08,0.24 0,0.32 -0.12,1.24 -0.12,0.88 -0.12,2.4 v 21.44 q 0,0.84 0.48,1.08 0.48,0.24 1.08,0.44 0.4,0.16 0.64,0.32 0.28,0.16 0.28,0.48 0,0.24 -0.24,0.36 -0.24,0.12 -0.56,0.12 -0.76,0 -1.4,-0.08 -0.64,-0.04 -1.28,-0.04 -0.6,-0.04 -1.32,-0.04 -0.68,0 -1.28,0.04 -0.56,0.04 -1.16,0.08 -0.6,0.08 -1.4,0.08 z" />
    <path
       id="path886"
       style="font-style:normal;font-variant:normal;font-weight:600;font-stretch:normal;font-family:'EB Garamond';-inkscape-font-specification:'EB Garamond Semi-Bold';fill:#ffffff"
       d="m 823.30967,372.79248 q -1.28,0 -2.48,-0.36 -1.16,-0.32 -2.12,-1 -0.28,-0.56 -0.44,-1.76 -0.12,-1.2 -0.12,-2.36 0,-0.48 0.68,-0.48 0.28,0 0.48,0.16 0.2,0.16 0.28,0.36 0.68,1.76 1.72,2.84 1.04,1.04 2.36,1.04 1.12,0 1.76,-0.68 0.64,-0.72 0.64,-1.64 0,-1.08 -0.8,-1.8 -0.76,-0.72 -2.12,-1.48 -1.24,-0.68 -2.24,-1.44 -0.96,-0.76 -1.52,-1.72 -0.56,-1 -0.56,-2.32 0,-1.48 0.76,-2.6 0.76,-1.12 2.12,-1.76 1.4,-0.64 3.2,-0.64 1.28,0 2.28,0.28 1.04,0.28 1.44,0.56 0.32,0.4 0.52,1.48 0.2,1.04 0.2,2.2 0,0.36 -0.6,0.36 -0.28,0 -0.56,-0.16 -0.28,-0.16 -0.36,-0.32 -0.52,-1.48 -1.32,-2.24 -0.8,-0.76 -1.84,-0.76 -0.92,0 -1.68,0.6 -0.72,0.56 -0.72,1.6 0,0.84 0.68,1.52 0.72,0.68 2.04,1.4 2.52,1.36 3.64,2.6 1.12,1.2 1.12,3.24 0,2.44 -1.68,3.88 -1.68,1.4 -4.76,1.4 z" />
    <path
       id="path888"
       style="font-style:normal;font-variant:normal;font-weight:600;font-stretch:normal;font-family:'EB Garamond';-inkscape-font-specification:'EB Garamond Semi-Bold';fill:#ffffff"
       d="m 832.50965,372.35248 q -0.32,0 -0.52,-0.12 -0.2,-0.16 -0.2,-0.4 0,-0.32 0.24,-0.48 0.24,-0.16 0.56,-0.24 0.96,-0.24 1.36,-0.52 0.44,-0.28 0.44,-0.96 v -8.68 q 0,-1.28 -0.4,-1.92 -0.4,-0.64 -1.36,-0.8 -0.2,-0.04 -0.32,-0.2 -0.12,-0.2 -0.12,-0.44 0,-0.56 0.44,-0.6 1.92,-0.4 3.32,-1.08 1.44,-0.72 2.2,-1.12 0.56,-0.28 0.72,-0.28 0.44,0 0.44,0.4 -0.04,0.56 -0.16,1.56 -0.12,0.96 -0.24,2.08 -0.08,1.08 -0.08,2.04 v 9 q 0,0.6 0.44,0.92 0.44,0.32 1.4,0.6 0.32,0.12 0.56,0.28 0.24,0.12 0.24,0.44 0,0.48 -0.68,0.48 -0.76,0 -1.48,-0.04 -0.68,-0.04 -1.36,-0.08 -0.64,-0.04 -1.36,-0.04 -0.68,0 -1.32,0.04 -0.64,0.04 -1.32,0.08 -0.64,0.08 -1.44,0.08 z m 4,-20.16 q -1.16,0 -1.96,-0.8 -0.8,-0.8 -0.8,-1.92 0,-1.24 0.8,-2.04 0.8,-0.8 1.96,-0.8 1.2,0 2,0.8 0.8,0.8 0.8,2.04 0,1.12 -0.8,1.92 -0.8,0.8 -2,0.8 z" />
    <path
       id="path890"
       style="font-style:normal;font-variant:normal;font-weight:600;font-stretch:normal;font-family:'EB Garamond';-inkscape-font-specification:'EB Garamond Semi-Bold';fill:#ffffff"
       d="m 856.18963,373.03248 q -0.32,0 -0.32,-0.36 0,-0.44 0.08,-1.24 0.12,-0.8 0.12,-1.28 0,-0.12 -0.04,-0.2 0,-0.12 0,-0.16 -1.24,1.36 -2.92,2.2 -1.64,0.84 -3.48,0.84 -1.28,0 -2.32,-0.68 -1,-0.68 -1.6,-1.88 -0.56,-1.2 -0.56,-2.8 v -7.68 q 0,-0.92 -0.36,-1.44 -0.36,-0.56 -1.28,-0.84 -0.24,-0.04 -0.44,-0.2 -0.16,-0.16 -0.16,-0.48 0,-0.32 0.16,-0.48 0.2,-0.16 0.44,-0.2 1.6,-0.08 2.76,-0.28 1.16,-0.24 2.48,-0.56 0.16,-0.08 0.32,-0.12 0.16,-0.04 0.32,-0.04 0.52,0 0.48,0.56 -0.12,0.92 -0.2,1.56 -0.08,0.6 -0.08,1.52 v 7.72 q 0,0.96 0.36,1.72 0.36,0.76 1,1.2 0.64,0.44 1.4,0.48 0.76,0 1.4,-0.16 0.68,-0.16 1.32,-0.72 0.32,-0.24 0.72,-0.88 0.4,-0.68 0.4,-1.76 v -6.72 q 0,-0.76 -0.36,-1.2 -0.32,-0.48 -0.88,-0.72 -0.52,-0.24 -1.08,-0.24 -0.44,-0.04 -0.68,-0.2 -0.24,-0.16 -0.24,-0.64 0,-0.4 0.28,-0.56 0.28,-0.16 0.64,-0.16 1.76,-0.12 2.84,-0.2 1.08,-0.08 1.8,-0.2 0.76,-0.12 1.48,-0.32 0.12,-0.04 0.24,-0.04 0.16,-0.04 0.24,-0.04 0.56,0 0.56,0.44 0,0.12 -0.04,0.28 0,0.12 -0.08,0.28 -0.04,0.12 -0.12,0.68 -0.04,0.56 -0.12,1.16 -0.04,0.6 -0.04,0.92 v 9.28 q 0,0.96 0.2,1.32 0.24,0.36 0.52,0.36 0.24,0 0.68,0 0.48,-0.04 0.68,-0.04 0.32,0 0.52,0.16 0.2,0.16 0.2,0.52 0,0.36 -0.16,0.56 -0.12,0.16 -0.48,0.2 -1.8,0.16 -3.2,0.64 -1.4,0.44 -2.44,0.88 -0.24,0.08 -0.52,0.16 -0.24,0.08 -0.44,0.08 z" />
    <path
       id="path892"
       style="font-style:normal;font-variant:normal;font-weight:600;font-stretch:normal;font-family:'EB Garamond';-inkscape-font-specification:'EB Garamond Semi-Bold';fill:#ffffff"
       d="m 870.1096,372.79248 q -1.28,0 -2.48,-0.36 -1.16,-0.32 -2.12,-1 -0.28,-0.56 -0.44,-1.76 -0.12,-1.2 -0.12,-2.36 0,-0.48 0.68,-0.48 0.28,0 0.48,0.16 0.2,0.16 0.28,0.36 0.68,1.76 1.72,2.84 1.04,1.04 2.36,1.04 1.12,0 1.76,-0.68 0.64,-0.72 0.64,-1.64 0,-1.08 -0.8,-1.8 -0.76,-0.72 -2.12,-1.48 -1.24,-0.68 -2.24,-1.44 -0.96,-0.76 -1.52,-1.72 -0.56,-1 -0.56,-2.32 0,-1.48 0.76,-2.6 0.76,-1.12 2.12,-1.76 1.4,-0.64 3.2,-0.64 1.28,0 2.28,0.28 1.04,0.28 1.44,0.56 0.32,0.4 0.52,1.48 0.2,1.04 0.2,2.2 0,0.36 -0.6,0.36 -0.28,0 -0.56,-0.16 -0.28,-0.16 -0.36,-0.32 -0.52,-1.48 -1.32,-2.24 -0.8,-0.76 -1.84,-0.76 -0.92,0 -1.68,0.6 -0.72,0.56 -0.72,1.6 0,0.84 0.68,1.52 0.72,0.68 2.04,1.4 2.52,1.36 3.64,2.6 1.12,1.2 1.12,3.24 0,2.44 -1.68,3.88 -1.68,1.4 -4.76,1.4 z" />
  </g>
</svg>
