<?xml version="1.0" encoding="UTF-8" standalone="no"?>
<svg
   xmlns:dc="http://purl.org/dc/elements/1.1/"
   xmlns:cc="http://creativecommons.org/ns#"
   xmlns:rdf="http://www.w3.org/1999/02/22-rdf-syntax-ns#"
   xmlns:svg="http://www.w3.org/2000/svg"
   xmlns="http://www.w3.org/2000/svg"
   xmlns:xlink="http://www.w3.org/1999/xlink"
   id="svg8"
   version="1.1"
   viewBox="0 0 444.5 277.8125"
   height="277.8125mm"
   width="444.5mm">
  <defs
     id="defs2">
    <linearGradient
       id="linearGradient899">
      <stop
         id="stop895"
         offset="0"
         style="stop-color:#00a562;stop-opacity:1;" />
      <stop
         id="stop897"
         offset="1"
         style="stop-color:#00a562;stop-opacity:0;" />
    </linearGradient>
    <linearGradient
       gradientUnits="userSpaceOnUse"
       y2="-379.54852"
       x2="1691.1647"
       y1="-377.6445"
       x1="1689.3649"
       id="linearGradient903"
       xlink:href="#linearGradient899" />
    <radialGradient
       xlink:href="#linearGradient944"
       id="radialGradient948"
       cx="107.17859"
       cy="63.511749"
       fx="107.17859"
       fy="63.511749"
       r="105.70104"
       gradientTransform="matrix(2.1026283,0,0,1.3141426,-3.1067338,55.44271)"
       gradientUnits="userSpaceOnUse" />
    <linearGradient
       id="linearGradient944">
      <stop
         style="stop-color:#db4437;stop-opacity:1;"
         offset="0"
         id="stop940" />
      <stop
         id="stop950"
         offset="0"
         style="stop-color:#e5776d;stop-opacity:1" />
      <stop
         style="stop-color:#e16459;stop-opacity:1"
         offset="1"
         id="stop942" />
    </linearGradient>
  </defs>
  <metadata
     id="metadata5">
    <rdf:RDF>
      <cc:Work
         rdf:about="">
        <dc:format>image/svg+xml</dc:format>
        <dc:type
           rdf:resource="http://purl.org/dc/dcmitype/StillImage" />
        <dc:title></dc:title>
      </cc:Work>
    </rdf:RDF>
  </metadata>
  <path
     id="rect6108"
     d="M 0,0 H 444.49999 V 277.8125 H 0 Z"
     style="opacity:1;fill:url(#radialGradient948);fill-opacity:1;stroke:none;stroke-width:9.70262432;stroke-miterlimit:4;stroke-dasharray:none;paint-order:stroke markers fill" />
  <g
     id="g994"
     transform="matrix(-1,0,0,1,199.02218,4.7021898)">
    <path
       style="opacity:1;fill:#cccccc;fill-opacity:1;fill-rule:nonzero;stroke:none;stroke-width:1.1789999;stroke-linejoin:round;stroke-miterlimit:4;stroke-dasharray:none;stroke-opacity:1"
       d="m 36.622939,73.855003 h 46.892683 c 7.036765,0 12.701741,5.664977 12.701741,12.701742 v 89.212405 c 0,7.03676 -5.664976,12.70174 -12.701741,12.70174 H 36.622939 c -7.036765,0 -12.701741,-5.66498 -12.701741,-12.70174 V 86.556745 c 0,-7.036765 5.664976,-12.701742 12.701741,-12.701742 z"
       id="rect960" />
    <path
       style="opacity:1;fill:#ffffff;fill-opacity:1;fill-rule:nonzero;stroke:none;stroke-width:1.1789999;stroke-linejoin:round;stroke-miterlimit:4;stroke-dasharray:none;stroke-opacity:1"
       d="m 40.327109,73.855003 h 46.892683 c 7.036765,0 12.701742,5.664977 12.701742,12.701742 v 89.212405 c 0,7.03676 -5.664977,12.70174 -12.701742,12.70174 H 40.327109 c -7.036764,0 -12.701741,-5.66498 -12.701741,-12.70174 V 86.556745 c 0,-7.036765 5.664977,-12.701742 12.701741,-12.701742 z"
       id="rect938" />
    <path
       style="opacity:1;fill:#b3b3b3;fill-opacity:1;fill-rule:nonzero;stroke:none;stroke-width:1.17445648;stroke-linejoin:round;stroke-miterlimit:4;stroke-dasharray:none;stroke-opacity:1"
       d="m 40.556391,95.654465 h 44.874264 c 1.302506,0 2.351095,1.048588 2.351095,2.351095 0,1.302506 -1.048589,2.35109 -2.351095,2.35109 H 40.556391 c -1.302507,0 -2.351095,-1.048584 -2.351095,-2.35109 0,-1.302507 1.048588,-2.351095 2.351095,-2.351095 z"
       id="rect942" />
    <path
       style="opacity:1;fill:#b3b3b3;fill-opacity:1;fill-rule:nonzero;stroke:none;stroke-width:1.1789999;stroke-linejoin:round;stroke-miterlimit:4;stroke-dasharray:none;stroke-opacity:1"
       d="M 40.556391,105.70863 H 85.81497 c 1.302507,0 2.351095,1.04859 2.351095,2.3511 0,1.3025 -1.048588,2.35109 -2.351095,2.35109 H 40.556391 c -1.302507,0 -2.351095,-1.04859 -2.351095,-2.35109 0,-1.30251 1.048588,-2.3511 2.351095,-2.3511 z"
       id="rect944" />
    <path
       style="opacity:1;fill:#b3b3b3;fill-opacity:1;fill-rule:nonzero;stroke:none;stroke-width:1.1789999;stroke-linejoin:round;stroke-miterlimit:4;stroke-dasharray:none;stroke-opacity:1"
       d="M 40.556391,116.82111 H 85.81497 c 1.302507,0 2.351095,1.04859 2.351095,2.3511 0,1.30251 -1.048588,2.35109 -2.351095,2.35109 H 40.556391 c -1.302507,0 -2.351095,-1.04858 -2.351095,-2.35109 0,-1.30251 1.048588,-2.3511 2.351095,-2.3511 z"
       id="rect946" />
    <path
       style="opacity:1;fill:#b3b3b3;fill-opacity:1;fill-rule:nonzero;stroke:none;stroke-width:1.1789999;stroke-linejoin:round;stroke-miterlimit:4;stroke-dasharray:none;stroke-opacity:1"
       d="M 40.556391,127.93362 H 85.81497 c 1.302507,0 2.351095,1.04858 2.351095,2.35109 0,1.30251 -1.048588,2.3511 -2.351095,2.3511 H 40.556391 c -1.302507,0 -2.351095,-1.04859 -2.351095,-2.3511 0,-1.30251 1.048588,-2.35109 2.351095,-2.35109 z"
       id="rect948" />
    <path
       style="opacity:1;fill:#b3b3b3;fill-opacity:1;fill-rule:nonzero;stroke:none;stroke-width:1.1789999;stroke-linejoin:round;stroke-miterlimit:4;stroke-dasharray:none;stroke-opacity:1"
       d="M 40.556391,138.51682 H 85.81497 c 1.302507,0 2.351095,1.04858 2.351095,2.35109 0,1.30251 -1.048588,2.3511 -2.351095,2.3511 H 40.556391 c -1.302507,0 -2.351095,-1.04859 -2.351095,-2.3511 0,-1.30251 1.048588,-2.35109 2.351095,-2.35109 z"
       id="rect950" />
    <path
       style="opacity:1;fill:#b3b3b3;fill-opacity:1;fill-rule:nonzero;stroke:none;stroke-width:1.1789999;stroke-linejoin:round;stroke-miterlimit:4;stroke-dasharray:none;stroke-opacity:1"
       d="M 40.556391,150.15833 H 85.81497 c 1.302507,0 2.351095,1.04858 2.351095,2.35109 0,1.30251 -1.048588,2.3511 -2.351095,2.3511 H 40.556391 c -1.302507,0 -2.351095,-1.04859 -2.351095,-2.3511 0,-1.30251 1.048588,-2.35109 2.351095,-2.35109 z"
       id="rect952" />
    <path
       style="opacity:1;fill:#b3b3b3;fill-opacity:1;fill-rule:nonzero;stroke:none;stroke-width:1.1789999;stroke-linejoin:round;stroke-miterlimit:4;stroke-dasharray:none;stroke-opacity:1"
       d="M 40.556391,160.21236 H 85.81497 c 1.302507,0 2.351095,1.04858 2.351095,2.35109 0,1.30251 -1.048588,2.3511 -2.351095,2.3511 H 40.556391 c -1.302507,0 -2.351095,-1.04859 -2.351095,-2.3511 0,-1.30251 1.048588,-2.35109 2.351095,-2.35109 z"
       id="rect954" />
    <path
       style="opacity:1;fill:#b3b3b3;fill-opacity:1;fill-rule:nonzero;stroke:none;stroke-width:1.1789999;stroke-linejoin:round;stroke-miterlimit:4;stroke-dasharray:none;stroke-opacity:1"
       d="M 40.556391,172.38303 H 85.81497 c 1.302507,0 2.351095,1.04858 2.351095,2.35109 0,1.30251 -1.048588,2.3511 -2.351095,2.3511 H 40.556391 c -1.302507,0 -2.351095,-1.04859 -2.351095,-2.3511 0,-1.30251 1.048588,-2.35109 2.351095,-2.35109 z"
       id="rect956" />
  </g>
  <g
     transform="translate(0.23745002,4.7021898)"
     id="g1016">
    <path
       style="opacity:1;fill:#cccccc;fill-opacity:1;fill-rule:nonzero;stroke:none;stroke-width:1.1789999;stroke-linejoin:round;stroke-miterlimit:4;stroke-dasharray:none;stroke-opacity:1"
       d="m 36.622939,73.855003 h 46.892683 c 7.036765,0 12.701741,5.664977 12.701741,12.701742 v 89.212405 c 0,7.03676 -5.664976,12.70174 -12.701741,12.70174 H 36.622939 c -7.036765,0 -12.701741,-5.66498 -12.701741,-12.70174 V 86.556745 c 0,-7.036765 5.664976,-12.701742 12.701741,-12.701742 z"
       id="rect996" />
    <path
       style="opacity:1;fill:#ffffff;fill-opacity:1;fill-rule:nonzero;stroke:none;stroke-width:1.1789999;stroke-linejoin:round;stroke-miterlimit:4;stroke-dasharray:none;stroke-opacity:1"
       d="m 40.327109,73.855003 h 46.892683 c 7.036765,0 12.701742,5.664977 12.701742,12.701742 v 89.212405 c 0,7.03676 -5.664977,12.70174 -12.701742,12.70174 H 40.327109 c -7.036764,0 -12.701741,-5.66498 -12.701741,-12.70174 V 86.556745 c 0,-7.036765 5.664977,-12.701742 12.701741,-12.701742 z"
       id="rect998" />
    <path
       style="opacity:1;fill:#b3b3b3;fill-opacity:1;fill-rule:nonzero;stroke:none;stroke-width:1.17445648;stroke-linejoin:round;stroke-miterlimit:4;stroke-dasharray:none;stroke-opacity:1"
       d="m 40.556391,95.654465 h 44.874264 c 1.302506,0 2.351095,1.048588 2.351095,2.351095 0,1.302506 -1.048589,2.35109 -2.351095,2.35109 H 40.556391 c -1.302507,0 -2.351095,-1.048584 -2.351095,-2.35109 0,-1.302507 1.048588,-2.351095 2.351095,-2.351095 z"
       id="rect1000" />
    <path
       style="opacity:1;fill:#b3b3b3;fill-opacity:1;fill-rule:nonzero;stroke:none;stroke-width:1.1789999;stroke-linejoin:round;stroke-miterlimit:4;stroke-dasharray:none;stroke-opacity:1"
       d="M 40.556391,105.70863 H 85.81497 c 1.302507,0 2.351095,1.04859 2.351095,2.3511 0,1.3025 -1.048588,2.35109 -2.351095,2.35109 H 40.556391 c -1.302507,0 -2.351095,-1.04859 -2.351095,-2.35109 0,-1.30251 1.048588,-2.3511 2.351095,-2.3511 z"
       id="rect1002" />
    <path
       style="opacity:1;fill:#b3b3b3;fill-opacity:1;fill-rule:nonzero;stroke:none;stroke-width:1.1789999;stroke-linejoin:round;stroke-miterlimit:4;stroke-dasharray:none;stroke-opacity:1"
       d="M 40.556391,116.82111 H 85.81497 c 1.302507,0 2.351095,1.04859 2.351095,2.3511 0,1.30251 -1.048588,2.35109 -2.351095,2.35109 H 40.556391 c -1.302507,0 -2.351095,-1.04858 -2.351095,-2.35109 0,-1.30251 1.048588,-2.3511 2.351095,-2.3511 z"
       id="rect1004" />
    <path
       style="opacity:1;fill:#b3b3b3;fill-opacity:1;fill-rule:nonzero;stroke:none;stroke-width:1.1789999;stroke-linejoin:round;stroke-miterlimit:4;stroke-dasharray:none;stroke-opacity:1"
       d="M 40.556391,127.93362 H 85.81497 c 1.302507,0 2.351095,1.04858 2.351095,2.35109 0,1.30251 -1.048588,2.3511 -2.351095,2.3511 H 40.556391 c -1.302507,0 -2.351095,-1.04859 -2.351095,-2.3511 0,-1.30251 1.048588,-2.35109 2.351095,-2.35109 z"
       id="rect1006" />
    <path
       style="opacity:1;fill:#b3b3b3;fill-opacity:1;fill-rule:nonzero;stroke:none;stroke-width:1.1789999;stroke-linejoin:round;stroke-miterlimit:4;stroke-dasharray:none;stroke-opacity:1"
       d="M 40.556391,138.51682 H 85.81497 c 1.302507,0 2.351095,1.04858 2.351095,2.35109 0,1.30251 -1.048588,2.3511 -2.351095,2.3511 H 40.556391 c -1.302507,0 -2.351095,-1.04859 -2.351095,-2.3511 0,-1.30251 1.048588,-2.35109 2.351095,-2.35109 z"
       id="rect1008" />
    <path
       style="opacity:1;fill:#b3b3b3;fill-opacity:1;fill-rule:nonzero;stroke:none;stroke-width:1.1789999;stroke-linejoin:round;stroke-miterlimit:4;stroke-dasharray:none;stroke-opacity:1"
       d="M 40.556391,150.15833 H 85.81497 c 1.302507,0 2.351095,1.04858 2.351095,2.35109 0,1.30251 -1.048588,2.3511 -2.351095,2.3511 H 40.556391 c -1.302507,0 -2.351095,-1.04859 -2.351095,-2.3511 0,-1.30251 1.048588,-2.35109 2.351095,-2.35109 z"
       id="rect1010" />
    <path
       style="opacity:1;fill:#b3b3b3;fill-opacity:1;fill-rule:nonzero;stroke:none;stroke-width:1.1789999;stroke-linejoin:round;stroke-miterlimit:4;stroke-dasharray:none;stroke-opacity:1"
       d="M 40.556391,160.21236 H 85.81497 c 1.302507,0 2.351095,1.04858 2.351095,2.35109 0,1.30251 -1.048588,2.3511 -2.351095,2.3511 H 40.556391 c -1.302507,0 -2.351095,-1.04859 -2.351095,-2.3511 0,-1.30251 1.048588,-2.35109 2.351095,-2.35109 z"
       id="rect1012" />
    <path
       style="opacity:1;fill:#b3b3b3;fill-opacity:1;fill-rule:nonzero;stroke:none;stroke-width:1.1789999;stroke-linejoin:round;stroke-miterlimit:4;stroke-dasharray:none;stroke-opacity:1"
       d="M 40.556391,172.38303 H 85.81497 c 1.302507,0 2.351095,1.04858 2.351095,2.35109 0,1.30251 -1.048588,2.3511 -2.351095,2.3511 H 40.556391 c -1.302507,0 -2.351095,-1.04859 -2.351095,-2.3511 0,-1.30251 1.048588,-2.35109 2.351095,-2.35109 z"
       id="rect1014" />
  </g>
  <g
     id="g1024"
     style="fill:#5599ff"
     transform="matrix(0.99999745,0,0,0.67553365,-409.40576,83.064996)">
    <path
       id="rect1018"
       transform="scale(0.26458333)"
       d="m 2124.5703,-24.808594 c -4.9228,0 -8.8848,3.963858 -8.8848,8.886719 V 172.90625 c 0,2.4834 1.0091,4.7207 2.6407,6.33008 l 8.4218,-13.86524 9.9629,-16.40234 9.9805,16.39453 8.4863,13.94141 c 1.674,-1.61415 2.7149,-3.87859 2.7149,-6.39844 V -15.921875 c 0,-4.922861 -3.9619,-8.886719 -8.8848,-8.886719 z m 25.0801,206.568364 -12.9219,0.006 -12.5723,0.006 c 0.1384,0.006 0.2742,0.0195 0.4141,0.0195 h 24.4375 c 0.2172,0 0.4294,-0.0161 0.6426,-0.0312 z"
       style="opacity:1;fill:#5599ff;fill-opacity:1;fill-rule:nonzero;stroke:none;stroke-width:4.45606279;stroke-linejoin:round;stroke-miterlimit:4;stroke-dasharray:none;stroke-opacity:1" />
  </g>
  <g
     id="flowRoot872"
     style="font-style:normal;font-weight:normal;font-size:40px;line-height:1.25;font-family:sans-serif;letter-spacing:0px;word-spacing:0px;fill:#ffffff;fill-opacity:1;stroke:none"
     transform="matrix(0.9138459,0,0,1.1421066,-738.14882,-195.07228)"
     aria-label="Install 
Anbox in
Ubuntu 20.04">
    <path
       id="path884"
       style="font-style:normal;font-variant:normal;font-weight:bold;font-stretch:normal;font-family:'EB Garamond';-inkscape-font-specification:'EB Garamond Bold';text-align:center;text-anchor:middle;fill:#ffffff"
       d="m 1070.5292,250.61871 q -0.32,0 -0.56,-0.12 -0.24,-0.16 -0.24,-0.44 0,-0.64 0.84,-0.84 1.52,-0.32 2.12,-0.8 0.6,-0.52 0.6,-1.8 v -18.16 q 0,-1.28 -0.52,-1.8 -0.52,-0.56 -2.12,-0.92 -0.84,-0.2 -0.84,-0.84 0,-0.28 0.24,-0.44 0.24,-0.16 0.56,-0.16 0.92,0 1.92,0.04 1.04,0.04 2,0.12 1,0.04 1.84,0.04 0.8,0 1.8,-0.04 1.04,-0.04 2.08,-0.08 1.08,-0.04 1.96,-0.04 0.36,0 0.56,0.16 0.2,0.12 0.2,0.4 0,0.4 -0.24,0.56 -0.2,0.16 -0.64,0.28 -1.6,0.44 -2.12,1 -0.52,0.52 -0.52,1.76 v 18.08 q 0,1.16 0.56,1.72 0.6,0.52 2.16,0.92 0.4,0.12 0.6,0.28 0.24,0.16 0.24,0.52 0,0.28 -0.2,0.44 -0.16,0.16 -0.52,0.16 -0.88,0 -1.96,-0.08 -1.08,-0.04 -2.12,-0.08 -1.04,-0.04 -1.84,-0.04 -0.84,0 -1.84,0.04 -1,0.04 -2.04,0.08 -1.04,0.08 -1.96,0.08 z" />
    <path
       id="path886"
       style="font-style:normal;font-variant:normal;font-weight:bold;font-stretch:normal;font-family:'EB Garamond';-inkscape-font-specification:'EB Garamond Bold';text-align:center;text-anchor:middle;fill:#ffffff"
       d="m 1085.2892,250.61871 q -0.28,0 -0.56,-0.12 -0.24,-0.16 -0.24,-0.44 0,-0.32 0.28,-0.48 0.28,-0.2 0.64,-0.32 0.6,-0.2 1.04,-0.44 0.48,-0.28 0.48,-1.08 v -9.16 q 0,-0.88 -0.28,-1.48 -0.24,-0.6 -0.96,-0.76 -0.16,-0.04 -0.32,-0.2 -0.12,-0.16 -0.12,-0.52 0,-0.56 0.4,-0.68 1.36,-0.32 2.96,-0.84 1.64,-0.56 2.8,-1.16 0.16,-0.08 0.36,-0.2 0.2,-0.12 0.36,-0.12 0.24,0 0.28,0.16 0.08,0.12 0.08,0.32 0,0.32 -0.12,1.04 -0.08,0.68 -0.08,1.24 0,0.16 0,0.36 0.04,0.2 0.08,0.24 1.36,-1.32 2.76,-2.04 1.4,-0.72 3.24,-0.72 2.08,0 3.48,1.56 1.44,1.52 1.44,4.16 v 8.8 q 0,0.8 0.44,1.08 0.48,0.24 1.08,0.44 0.32,0.12 0.56,0.32 0.24,0.16 0.24,0.48 0,0.28 -0.24,0.44 -0.2,0.12 -0.44,0.12 -0.8,0 -1.52,-0.08 -0.68,-0.04 -1.36,-0.08 -0.64,-0.04 -1.36,-0.04 -0.68,0 -1.36,0.04 -0.68,0.04 -1.36,0.08 -0.68,0.08 -1.48,0.08 -0.24,0 -0.48,-0.12 -0.2,-0.16 -0.2,-0.44 0,-0.32 0.24,-0.48 0.24,-0.2 0.56,-0.32 0.6,-0.2 1,-0.44 0.4,-0.28 0.4,-1.08 v -7.96 q 0,-1.52 -0.72,-2.36 -0.68,-0.88 -1.84,-0.92 -0.88,0 -1.56,0.28 -0.68,0.28 -1.4,0.76 -0.16,0.16 -0.24,0.36 -0.08,0.2 -0.08,0.4 v 9.44 q 0,0.8 0.44,1.08 0.44,0.24 1,0.44 0.8,0.24 0.8,0.8 0,0.24 -0.2,0.4 -0.2,0.16 -0.48,0.16 -0.8,0 -1.48,-0.08 -0.68,-0.04 -1.28,-0.08 -0.6,-0.04 -1.32,-0.04 -0.68,0 -1.4,0.04 -0.68,0.04 -1.44,0.08 -0.72,0.08 -1.52,0.08 z" />
    <path
       id="path888"
       style="font-style:normal;font-variant:normal;font-weight:bold;font-stretch:normal;font-family:'EB Garamond';-inkscape-font-specification:'EB Garamond Bold';text-align:center;text-anchor:middle;fill:#ffffff"
       d="m 1112.8892,251.05871 q -1.32,0 -2.56,-0.32 -1.24,-0.32 -2.24,-1.04 -0.36,-0.6 -0.52,-1.88 -0.16,-1.28 -0.12,-2.68 0,-0.48 0.8,-0.48 0.32,0 0.56,0.2 0.24,0.2 0.28,0.4 0.76,1.68 1.76,2.88 1,1.16 2.4,1.16 1.08,0 1.64,-0.64 0.56,-0.68 0.56,-1.52 0,-1.04 -0.84,-1.72 -0.8,-0.72 -1.96,-1.32 -1.16,-0.6 -2.2,-1.36 -1.04,-0.76 -1.72,-1.8 -0.64,-1.08 -0.64,-2.56 0,-1.56 0.84,-2.72 0.88,-1.16 2.32,-1.8 1.48,-0.68 3.28,-0.68 1.32,0 2.44,0.32 1.12,0.28 1.52,0.56 0.32,0.4 0.52,1.52 0.2,1.08 0.2,2.4 0,0.44 -0.72,0.44 -0.28,0 -0.6,-0.2 -0.28,-0.2 -0.36,-0.4 -0.52,-1.56 -1.36,-2.32 -0.8,-0.8 -1.8,-0.8 -0.88,0 -1.6,0.56 -0.72,0.56 -0.72,1.52 0,0.84 0.76,1.52 0.8,0.64 1.96,1.28 2.6,1.36 3.72,2.64 1.12,1.24 1.12,3.32 0,2.6 -1.72,4.08 -1.68,1.44 -5,1.44 z" />
    <path
       id="path890"
       style="font-style:normal;font-variant:normal;font-weight:bold;font-stretch:normal;font-family:'EB Garamond';-inkscape-font-specification:'EB Garamond Bold';text-align:center;text-anchor:middle;fill:#ffffff"
       d="m 1129.4491,251.05871 q -2.64,0 -3.96,-1.32 -1.32,-1.36 -1.32,-3.8 v -9.2 q 0,-0.36 -0.28,-0.52 -0.24,-0.16 -0.96,-0.2 h -0.52 q -0.28,0 -0.48,-0.44 -0.16,-0.48 -0.16,-0.84 0,-0.08 0.04,-0.2 0.08,-0.16 0.2,-0.2 0.96,-0.36 2.04,-1.08 1.12,-0.76 2.12,-1.6 1.04,-0.84 1.68,-1.4 0.28,-0.2 0.48,-0.36 0.2,-0.16 0.52,-0.16 0.36,0 0.52,0.16 0.16,0.12 0.08,0.64 l -0.24,2.36 q -0.04,0.48 0.2,0.68 0.28,0.16 0.76,0.16 h 4.76 q 0.12,0 0.24,0.28 0.12,0.28 0.12,0.52 0,0.56 -0.16,1.08 -0.16,0.52 -0.36,0.52 h -3.72 q -0.92,0 -1.28,0.24 -0.32,0.2 -0.32,0.76 v 7.56 q 0,1.84 0.68,2.76 0.72,0.88 1.88,0.88 1.16,0 1.68,-0.24 0.56,-0.24 1,-0.4 0.16,-0.08 0.24,-0.08 0.2,0 0.32,0.24 0.12,0.24 0.12,0.56 0,0.24 -0.84,0.88 -0.84,0.64 -2.2,1.2 -1.32,0.56 -2.88,0.56 z" />
    <path
       id="path892"
       style="font-style:normal;font-variant:normal;font-weight:bold;font-stretch:normal;font-family:'EB Garamond';-inkscape-font-specification:'EB Garamond Bold';text-align:center;text-anchor:middle;fill:#ffffff"
       d="m 1140.8491,251.05871 q -1.08,0 -2,-0.52 -0.92,-0.52 -1.48,-1.36 -0.52,-0.84 -0.52,-1.84 0,-1.36 0.84,-2.28 0.88,-0.92 2.56,-1.64 l 3.56,-1.56 q 0.8,-0.36 0.96,-0.64 0.2,-0.28 0.2,-1.04 l 0.04,-2.28 q 0.04,-1.12 -0.4,-1.76 -0.44,-0.68 -1.32,-0.68 -0.52,0 -1.04,0.24 -0.52,0.2 -0.8,0.48 -0.12,0.16 -0.2,0.4 -0.04,0.2 -0.04,0.44 0,0.24 0.04,0.6 0.04,0.32 0.04,0.56 0,0.24 -0.64,0.64 -0.64,0.36 -1.48,0.68 -0.84,0.28 -1.44,0.28 -0.28,0 -0.52,-0.24 -0.2,-0.24 -0.2,-0.6 0,-0.64 0.44,-1.24 0.44,-0.64 1.44,-1.44 1.04,-0.88 2.28,-1.56 1.24,-0.68 2.44,-1.08 1.24,-0.4 2.08,-0.4 2.16,0 3.44,1.4 1.28,1.36 1.2,3.64 l -0.2,8.08 q -0.04,0.92 0.32,1.56 0.36,0.64 0.88,0.64 0.76,0 1.32,-0.52 0.12,-0.12 0.24,-0.12 0.2,0 0.32,0.12 0.16,0.12 0.16,0.32 0,0.48 -0.72,1.24 -0.76,0.72 -1.6,1.08 -0.84,0.4 -1.76,0.4 -2.24,0 -3.72,-2.28 h -0.08 q -1.32,1.2 -2.4,1.72 -1.04,0.56 -2.24,0.56 z m 2.4,-2.6 q 0.44,0 0.72,-0.12 0.28,-0.16 0.56,-0.48 0.12,-0.16 0.2,-0.4 0.08,-0.28 0.08,-0.64 l 0.12,-2.88 q 0,-0.4 -0.12,-0.52 -0.12,-0.12 -0.28,-0.12 -0.08,0 -0.2,0.04 -0.12,0.04 -0.28,0.12 -1.16,0.56 -1.72,1.16 -0.56,0.56 -0.56,1.84 0,1.16 0.48,1.6 0.48,0.4 1,0.4 z" />
    <path
       id="path894"
       style="font-style:normal;font-variant:normal;font-weight:bold;font-stretch:normal;font-family:'EB Garamond';-inkscape-font-specification:'EB Garamond Bold';text-align:center;text-anchor:middle;fill:#ffffff"
       d="m 1154.649,250.61871 q -0.36,0 -0.6,-0.12 -0.2,-0.16 -0.2,-0.44 0,-0.32 0.24,-0.48 0.24,-0.2 0.68,-0.32 0.6,-0.2 1.04,-0.44 0.48,-0.24 0.48,-1.08 v -19.24 q 0,-1.08 -0.32,-1.88 -0.28,-0.8 -1.28,-1 -0.4,-0.08 -0.4,-0.6 0,-0.52 0.36,-0.6 1.04,-0.2 2.24,-0.56 1.2,-0.4 2.28,-0.8 1.08,-0.44 1.68,-0.64 0.32,-0.12 0.52,-0.12 0.24,0 0.32,0.16 0.08,0.12 0.08,0.32 0,0.28 -0.12,1.04 -0.08,0.76 -0.12,1.72 v 22.12 q 0,0.88 0.44,1.12 0.48,0.2 1.08,0.4 0.44,0.16 0.68,0.32 0.24,0.16 0.24,0.48 0,0.28 -0.24,0.44 -0.2,0.12 -0.56,0.12 -0.76,0 -1.52,-0.04 -0.72,-0.04 -1.44,-0.04 -0.68,-0.04 -1.4,-0.04 -0.68,0 -1.36,0.04 -0.64,0.04 -1.32,0.08 -0.68,0.08 -1.48,0.08 z" />
    <path
       id="path896"
       style="font-style:normal;font-variant:normal;font-weight:bold;font-stretch:normal;font-family:'EB Garamond';-inkscape-font-specification:'EB Garamond Bold';text-align:center;text-anchor:middle;fill:#ffffff"
       d="m 1166.049,250.61871 q -0.36,0 -0.6,-0.12 -0.2,-0.16 -0.2,-0.44 0,-0.32 0.24,-0.48 0.24,-0.2 0.68,-0.32 0.6,-0.2 1.04,-0.44 0.48,-0.24 0.48,-1.08 v -19.24 q 0,-1.08 -0.32,-1.88 -0.28,-0.8 -1.28,-1 -0.4,-0.08 -0.4,-0.6 0,-0.52 0.36,-0.6 1.04,-0.2 2.24,-0.56 1.2,-0.4 2.28,-0.8 1.08,-0.44 1.68,-0.64 0.32,-0.12 0.52,-0.12 0.24,0 0.32,0.16 0.08,0.12 0.08,0.32 0,0.28 -0.12,1.04 -0.08,0.76 -0.12,1.72 v 22.12 q 0,0.88 0.44,1.12 0.48,0.2 1.08,0.4 0.44,0.16 0.68,0.32 0.24,0.16 0.24,0.48 0,0.28 -0.24,0.44 -0.2,0.12 -0.56,0.12 -0.76,0 -1.52,-0.04 -0.72,-0.04 -1.44,-0.04 -0.68,-0.04 -1.4,-0.04 -0.68,0 -1.36,0.04 -0.64,0.04 -1.32,0.08 -0.68,0.08 -1.48,0.08 z" />
    <path
       id="path898"
       style="font-style:normal;font-variant:normal;font-weight:bold;font-stretch:normal;font-family:'EB Garamond';-inkscape-font-specification:'EB Garamond Bold';text-align:center;text-anchor:middle;fill:#ffffff"
       d="m 1047.0893,301.17399 q -0.44,0 -0.76,-0.16 -0.28,-0.12 -0.28,-0.48 0,-0.4 0.24,-0.56 0.28,-0.2 0.72,-0.32 1.16,-0.32 2,-1 0.88,-0.68 1.32,-1.68 1,-2.24 1.88,-4.4 0.88,-2.2 1.72,-4.32 0.84,-2.16 1.68,-4.36 0.84,-2.24 1.68,-4.52 0.6,-1.64 0.76,-2.36 0.16,-0.76 0.24,-0.88 0.72,-0.2 1.36,-0.36 0.64,-0.16 1.36,-0.44 0.72,-0.28 1.2,-0.72 0.52,-0.44 0.76,-0.68 0.16,-0.12 0.32,-0.12 0.16,-0.04 0.32,0.24 0.12,0.24 0.2,0.52 0.12,0.24 0.2,0.56 0.84,2.68 1.72,5.48 0.88,2.76 1.76,5.52 0.92,2.76 1.8,5.48 0.88,2.68 1.72,5.24 0.24,0.8 0.72,1.36 0.52,0.56 1.16,0.88 0.64,0.32 1.44,0.56 0.44,0.12 0.68,0.32 0.28,0.16 0.28,0.52 0,0.28 -0.24,0.44 -0.24,0.16 -0.56,0.16 -0.8,0 -2,-0.08 -1.16,-0.04 -2.36,-0.08 -1.2,-0.04 -2.12,-0.04 -0.76,0 -1.88,0.04 -1.08,0.04 -2.2,0.08 -1.12,0.04 -1.92,0.04 -0.36,0 -0.64,-0.12 -0.24,-0.16 -0.24,-0.44 0,-0.36 0.28,-0.56 0.28,-0.2 0.68,-0.28 1.48,-0.32 2.16,-0.84 0.68,-0.52 0.44,-1.56 -0.16,-0.76 -0.4,-1.6 -0.24,-0.84 -0.48,-1.68 -0.2,-0.88 -0.44,-1.68 -0.08,-0.32 -0.2,-0.48 -0.12,-0.16 -0.48,-0.16 h -7.08 q -0.28,0 -0.44,0.16 -0.16,0.16 -0.24,0.52 -0.16,0.56 -0.36,1.12 -0.2,0.56 -0.4,1.12 -0.16,0.56 -0.32,1.12 -0.16,0.56 -0.32,1.08 -0.28,1.2 0.24,1.84 0.52,0.64 2.24,1.04 0.96,0.2 0.96,0.84 0,0.28 -0.24,0.44 -0.2,0.12 -0.68,0.12 -1.16,0 -2.16,-0.08 -1,-0.04 -2.2,-0.04 -1.2,0 -2.28,0.12 -1.08,0.12 -2.32,0.12 z m 9.64,-11.68 h 5.2 q 0.6,0 0.6,-0.28 0,-0.12 -0.04,-0.2 0,-0.08 -0.04,-0.2 l -2.68,-9.04 q -0.12,-0.44 -0.24,-0.44 -0.08,0 -0.28,0.44 l -3.16,9.04 q -0.08,0.16 -0.08,0.32 0,0.2 0.2,0.28 0.24,0.08 0.52,0.08 z" />
    <path
       id="path900"
       style="font-style:normal;font-variant:normal;font-weight:bold;font-stretch:normal;font-family:'EB Garamond';-inkscape-font-specification:'EB Garamond Bold';text-align:center;text-anchor:middle;fill:#ffffff"
       d="m 1076.6493,301.09399 q -0.28,0 -0.56,-0.12 -0.24,-0.16 -0.24,-0.44 0,-0.32 0.28,-0.48 0.28,-0.2 0.64,-0.32 0.6,-0.2 1.04,-0.44 0.48,-0.28 0.48,-1.08 v -9.16 q 0,-0.88 -0.28,-1.48 -0.24,-0.6 -0.96,-0.76 -0.16,-0.04 -0.32,-0.2 -0.12,-0.16 -0.12,-0.52 0,-0.56 0.4,-0.68 1.36,-0.32 2.96,-0.84 1.64,-0.56 2.8,-1.16 0.16,-0.08 0.36,-0.2 0.2,-0.12 0.36,-0.12 0.24,0 0.28,0.16 0.08,0.12 0.08,0.32 0,0.32 -0.12,1.04 -0.08,0.68 -0.08,1.24 0,0.16 0,0.36 0.04,0.2 0.08,0.24 1.36,-1.32 2.76,-2.04 1.4,-0.72 3.24,-0.72 2.08,0 3.48,1.56 1.44,1.52 1.44,4.16 v 8.8 q 0,0.8 0.44,1.08 0.48,0.24 1.08,0.44 0.32,0.12 0.56,0.32 0.24,0.16 0.24,0.48 0,0.28 -0.24,0.44 -0.2,0.12 -0.44,0.12 -0.8,0 -1.52,-0.08 -0.68,-0.04 -1.36,-0.08 -0.64,-0.04 -1.36,-0.04 -0.68,0 -1.36,0.04 -0.68,0.04 -1.36,0.08 -0.68,0.08 -1.48,0.08 -0.24,0 -0.48,-0.12 -0.2,-0.16 -0.2,-0.44 0,-0.32 0.24,-0.48 0.24,-0.2 0.56,-0.32 0.6,-0.2 1,-0.44 0.4,-0.28 0.4,-1.08 v -7.96 q 0,-1.52 -0.72,-2.36 -0.68,-0.88 -1.84,-0.92 -0.88,0 -1.56,0.28 -0.68,0.28 -1.4,0.76 -0.16,0.16 -0.24,0.36 -0.08,0.2 -0.08,0.4 v 9.44 q 0,0.8 0.44,1.08 0.44,0.24 1,0.44 0.8,0.24 0.8,0.8 0,0.24 -0.2,0.4 -0.2,0.16 -0.48,0.16 -0.8,0 -1.48,-0.08 -0.68,-0.04 -1.28,-0.08 -0.6,-0.04 -1.32,-0.04 -0.68,0 -1.4,0.04 -0.68,0.04 -1.44,0.08 -0.72,0.08 -1.52,0.08 z" />
    <path
       id="path902"
       style="font-style:normal;font-variant:normal;font-weight:bold;font-stretch:normal;font-family:'EB Garamond';-inkscape-font-specification:'EB Garamond Bold';text-align:center;text-anchor:middle;fill:#ffffff"
       d="m 1108.1692,301.53399 q -1.16,0 -2.16,-0.2 -0.96,-0.2 -1.76,-0.4 -0.6,-0.2 -1.12,-0.32 -0.48,-0.12 -0.8,-0.12 -0.4,0 -0.76,0.16 -0.36,0.12 -0.68,0.36 -0.36,0.28 -0.56,0.28 -0.36,0 -0.56,-0.16 -0.16,-0.16 -0.16,-0.36 0,-0.36 0.2,-1.4 0.24,-1.04 0.2,-2.6 l -0.16,-17.8 q 0,-1.04 -0.32,-1.84 -0.28,-0.84 -1.24,-1.04 -0.2,-0.04 -0.36,-0.2 -0.12,-0.16 -0.12,-0.44 0,-0.2 0.12,-0.36 0.12,-0.16 0.32,-0.2 0.88,-0.16 2.04,-0.52 1.16,-0.4 2.24,-0.8 1.12,-0.44 1.72,-0.64 0.4,-0.16 0.56,-0.16 0.24,0 0.32,0.16 0.12,0.12 0.12,0.32 0,0.24 -0.12,1 -0.08,0.76 -0.08,1.52 v 8.56 q 0,0.52 0.08,0.84 0.08,0.28 0.28,0.28 1.24,-0.84 2.56,-1.28 1.36,-0.48 2.56,-0.48 2.08,0 3.76,1.08 1.68,1.08 2.64,2.96 1,1.88 1,4.24 0,2.8 -1.24,5 -1.24,2.16 -3.44,3.36 -2.16,1.2 -5.08,1.2 z m 0.72,-1.68 q 1.08,0 1.84,-0.92 0.76,-0.96 1.16,-2.52 0.44,-1.56 0.44,-3.4 0,-1.6 -0.44,-3.24 -0.4,-1.64 -1.32,-2.72 -0.88,-1.12 -2.28,-1.12 -0.72,0 -1.68,0.24 -0.96,0.2 -1.56,0.68 v 8.52 q 0,1.28 0.52,2.32 0.56,1.04 1.44,1.6 0.88,0.56 1.88,0.56 z" />
    <path
       id="path904"
       style="font-style:normal;font-variant:normal;font-weight:bold;font-stretch:normal;font-family:'EB Garamond';-inkscape-font-specification:'EB Garamond Bold';text-align:center;text-anchor:middle;fill:#ffffff"
       d="m 1128.3292,301.53399 q -2.4,0 -4.32,-1.08 -1.92,-1.08 -3.08,-2.96 -1.12,-1.92 -1.12,-4.32 0,-1.92 0.72,-3.64 0.72,-1.72 2,-3.04 1.28,-1.32 3,-2.08 1.72,-0.76 3.68,-0.76 2.48,0 4.48,1.16 2,1.16 3.16,3.08 1.2,1.88 1.2,4.12 0,2.56 -1.12,4.76 -1.08,2.16 -3.24,3.48 -2.12,1.28 -5.36,1.28 z m 0.8,-1.76 q 0.84,0 1.44,-0.32 0.64,-0.36 1.04,-1.04 0.48,-0.8 0.64,-2.16 0.2,-1.4 0.2,-3.28 0,-2.16 -0.48,-3.84 -0.48,-1.72 -1.36,-2.72 -0.84,-1 -2,-1 -0.64,0 -1.16,0.24 -0.52,0.2 -0.92,0.6 -0.68,0.8 -0.96,2.28 -0.24,1.48 -0.24,3.64 0,1.92 0.48,3.68 0.52,1.72 1.36,2.84 0.88,1.08 1.96,1.08 z" />
    <path
       id="path906"
       style="font-style:normal;font-variant:normal;font-weight:bold;font-stretch:normal;font-family:'EB Garamond';-inkscape-font-specification:'EB Garamond Bold';text-align:center;text-anchor:middle;fill:#ffffff"
       d="m 1139.0891,301.13399 q -0.28,0 -0.64,-0.08 -0.32,-0.08 -0.32,-0.36 0,-0.36 0.16,-0.52 0.2,-0.2 0.6,-0.36 0.44,-0.16 0.88,-0.56 0.48,-0.4 1.28,-1.44 l 3.68,-5.04 q 0.24,-0.32 0.24,-0.52 0,-0.2 -0.2,-0.52 l -3,-4.44 q -0.52,-0.8 -0.92,-1.28 -0.4,-0.48 -1.04,-0.72 -0.4,-0.12 -0.6,-0.28 -0.16,-0.2 -0.16,-0.56 0,-0.32 0.36,-0.4 0.36,-0.08 0.6,-0.08 1,0 1.52,0.08 0.52,0.04 1.04,0.12 0.56,0.04 1.44,0.04 1.16,0 1.92,-0.08 0.8,-0.12 2.12,-0.12 0.24,0 0.6,0.12 0.36,0.08 0.36,0.4 0,0.32 -0.32,0.44 -0.28,0.12 -0.6,0.28 -0.4,0.16 -0.76,0.36 -0.36,0.2 -0.36,0.6 0,0.24 0.16,0.56 0.16,0.32 0.36,0.68 l 1.84,2.68 q 0.2,0.36 0.36,0 l 1.24,-2.12 q 0.2,-0.4 0.36,-0.88 0.2,-0.48 0.16,-0.88 0,-0.64 -0.72,-0.92 -0.32,-0.16 -0.6,-0.28 -0.24,-0.12 -0.24,-0.48 0,-0.32 0.36,-0.4 0.36,-0.12 0.6,-0.12 1,0.04 1.52,0.08 0.56,0 1.08,0 0.6,0 1.04,-0.04 0.48,-0.08 1.52,-0.12 0.28,0 0.6,0.08 0.36,0.08 0.36,0.4 0,0.32 -0.2,0.52 -0.16,0.16 -0.56,0.32 -0.44,0.16 -0.96,0.56 -0.48,0.4 -1.24,1.4 l -2.88,3.84 q -0.24,0.36 -0.24,0.56 0.04,0.2 0.24,0.48 l 3.36,5.28 q 0.52,0.84 1.2,1.44 0.68,0.6 1.4,0.88 0.4,0.12 0.56,0.32 0.2,0.16 0.2,0.52 0,0.32 -0.36,0.4 -0.32,0.08 -0.6,0.08 -0.96,0 -1.68,-0.08 -0.68,-0.04 -1.36,-0.08 -0.68,-0.08 -1.56,-0.08 -1.2,0 -2.2,0.12 -0.96,0.08 -2.32,0.08 -0.96,0 -0.96,-0.52 0,-0.36 0.24,-0.48 0.28,-0.16 0.68,-0.28 0.52,-0.16 0.84,-0.48 0.32,-0.32 0.32,-1.04 0,-0.4 -0.08,-0.68 -0.08,-0.32 -0.4,-0.76 l -2.04,-3 q -0.12,-0.12 -0.24,0 l -1.88,3.32 q -0.12,0.24 -0.36,0.68 -0.2,0.44 -0.2,0.88 0,0.4 0.16,0.72 0.2,0.28 0.56,0.48 0.32,0.12 0.6,0.28 0.28,0.12 0.28,0.44 0,0.32 -0.36,0.4 -0.32,0.12 -0.6,0.12 -1.04,0 -1.48,-0.04 -0.44,-0.04 -0.96,-0.04 -0.6,0 -1.2,0 -0.56,0.04 -1.6,0.12 z" />
    <path
       id="path908"
       style="font-style:normal;font-variant:normal;font-weight:bold;font-stretch:normal;font-family:'EB Garamond';-inkscape-font-specification:'EB Garamond Bold';text-align:center;text-anchor:middle;fill:#ffffff"
       d="m 1168.5691,301.09399 q -0.24,0 -0.44,-0.12 -0.2,-0.16 -0.2,-0.4 0,-0.32 0.2,-0.52 0.2,-0.2 0.52,-0.28 1.04,-0.24 1.44,-0.52 0.44,-0.32 0.44,-0.96 v -8.64 q 0,-1.36 -0.44,-1.92 -0.4,-0.6 -1.28,-0.72 -0.24,-0.04 -0.36,-0.24 -0.12,-0.2 -0.12,-0.48 0,-0.6 0.44,-0.68 2.08,-0.4 3.68,-1.12 1.64,-0.72 2.52,-1.12 0.64,-0.32 0.8,-0.32 0.52,0 0.52,0.48 -0.04,0.68 -0.2,1.72 -0.12,1 -0.24,2.08 -0.08,1.08 -0.08,2.08 v 8.84 q 0,0.56 0.4,0.88 0.44,0.32 1.52,0.64 0.32,0.12 0.52,0.28 0.2,0.16 0.2,0.48 0,0.52 -0.6,0.52 -0.76,0 -1.6,-0.04 -0.84,-0.04 -1.64,-0.08 -0.76,-0.04 -1.48,-0.04 -0.68,0 -1.44,0.04 -0.72,0.04 -1.52,0.08 -0.76,0.08 -1.56,0.08 z m 4.4,-19.84 q -1.24,0 -2.2,-0.92 -0.92,-0.92 -0.92,-2.2 0,-1.36 0.92,-2.28 0.96,-0.92 2.2,-0.92 1.4,0 2.32,0.92 0.92,0.92 0.92,2.28 0,1.28 -0.92,2.2 -0.92,0.92 -2.32,0.92 z" />
    <path
       id="path910"
       style="font-style:normal;font-variant:normal;font-weight:bold;font-stretch:normal;font-family:'EB Garamond';-inkscape-font-specification:'EB Garamond Bold';text-align:center;text-anchor:middle;fill:#ffffff"
       d="m 1180.529,301.09399 q -0.28,0 -0.56,-0.12 -0.24,-0.16 -0.24,-0.44 0,-0.32 0.28,-0.48 0.28,-0.2 0.64,-0.32 0.6,-0.2 1.04,-0.44 0.48,-0.28 0.48,-1.08 v -9.16 q 0,-0.88 -0.28,-1.48 -0.24,-0.6 -0.96,-0.76 -0.16,-0.04 -0.32,-0.2 -0.12,-0.16 -0.12,-0.52 0,-0.56 0.4,-0.68 1.36,-0.32 2.96,-0.84 1.64,-0.56 2.8,-1.16 0.16,-0.08 0.36,-0.2 0.2,-0.12 0.36,-0.12 0.24,0 0.28,0.16 0.08,0.12 0.08,0.32 0,0.32 -0.12,1.04 -0.08,0.68 -0.08,1.24 0,0.16 0,0.36 0.04,0.2 0.08,0.24 1.36,-1.32 2.76,-2.04 1.4,-0.72 3.24,-0.72 2.08,0 3.48,1.56 1.44,1.52 1.44,4.16 v 8.8 q 0,0.8 0.44,1.08 0.48,0.24 1.08,0.44 0.32,0.12 0.56,0.32 0.24,0.16 0.24,0.48 0,0.28 -0.24,0.44 -0.2,0.12 -0.44,0.12 -0.8,0 -1.52,-0.08 -0.68,-0.04 -1.36,-0.08 -0.64,-0.04 -1.36,-0.04 -0.68,0 -1.36,0.04 -0.68,0.04 -1.36,0.08 -0.68,0.08 -1.48,0.08 -0.24,0 -0.48,-0.12 -0.2,-0.16 -0.2,-0.44 0,-0.32 0.24,-0.48 0.24,-0.2 0.56,-0.32 0.6,-0.2 1,-0.44 0.4,-0.28 0.4,-1.08 v -7.96 q 0,-1.52 -0.72,-2.36 -0.68,-0.88 -1.84,-0.92 -0.88,0 -1.56,0.28 -0.68,0.28 -1.4,0.76 -0.16,0.16 -0.24,0.36 -0.08,0.2 -0.08,0.4 v 9.44 q 0,0.8 0.44,1.08 0.44,0.24 1,0.44 0.8,0.24 0.8,0.8 0,0.24 -0.2,0.4 -0.2,0.16 -0.48,0.16 -0.8,0 -1.48,-0.08 -0.68,-0.04 -1.28,-0.08 -0.6,-0.04 -1.32,-0.04 -0.68,0 -1.4,0.04 -0.68,0.04 -1.44,0.08 -0.72,0.08 -1.52,0.08 z" />
    <path
       id="path912"
       style="font-style:normal;font-variant:normal;font-weight:bold;font-stretch:normal;font-family:'EB Garamond';-inkscape-font-specification:'EB Garamond Bold';text-align:center;text-anchor:middle;fill:#ffffff"
       d="m 1020.8294,352.00927 q -3.76,0 -6.28,-1.32 -2.52,-1.36 -3.8,-3.76 -1.24,-2.4 -1.24,-5.6 v -11.4 q 0,-1.12 -0.52,-2.04 -0.52,-0.92 -1.52,-1.16 -1.12,-0.32 -1.12,-0.88 0,-0.28 0.28,-0.44 0.32,-0.16 0.76,-0.16 1.28,0 2.64,0.12 1.36,0.08 2.56,0.08 1.12,0 2.68,-0.08 1.6,-0.08 2.72,-0.08 0.48,0 0.76,0.16 0.32,0.12 0.32,0.44 0,0.44 -0.6,0.64 -0.6,0.2 -1.28,0.52 -0.6,0.24 -1.04,1 -0.44,0.72 -0.44,2.08 v 10.48 q 0,2.72 0.88,4.48 0.88,1.76 2.32,2.6 1.48,0.84 3.28,0.84 3.64,0 5.4,-2.16 1.8,-2.16 1.8,-6.6 0,-1.04 0,-2.32 0.04,-1.32 0.04,-2.68 0,-1.4 -0.04,-2.64 -0.04,-1.8 -0.28,-2.8 -0.2,-1 -0.64,-1.56 -0.44,-0.56 -1.2,-0.92 -0.44,-0.24 -1.04,-0.4 -0.56,-0.2 -0.56,-0.56 0,-0.32 0.32,-0.44 0.32,-0.12 0.88,-0.12 1.44,0 2.16,0.04 0.76,0.04 1.68,0.04 0.76,0 1.24,-0.04 0.52,-0.04 1.04,-0.08 0.56,-0.04 1.32,-0.04 0.48,0 0.76,0.12 0.28,0.12 0.28,0.48 0,0.52 -1.08,0.84 -1.32,0.36 -1.88,1.24 -0.52,0.84 -0.6,2.28 -0.12,3.04 -0.16,5.6 -0.04,2.52 -0.04,5.16 -0.04,3.24 -1.48,5.76 -1.4,2.48 -3.84,3.88 -2.44,1.4 -5.44,1.4 z" />
    <path
       id="path914"
       style="font-style:normal;font-variant:normal;font-weight:bold;font-stretch:normal;font-family:'EB Garamond';-inkscape-font-specification:'EB Garamond Bold';text-align:center;text-anchor:middle;fill:#ffffff"
       d="m 1046.7093,352.00927 q -1.16,0 -2.16,-0.2 -0.96,-0.2 -1.76,-0.4 -0.6,-0.2 -1.12,-0.32 -0.48,-0.12 -0.8,-0.12 -0.4,0 -0.76,0.16 -0.36,0.12 -0.68,0.36 -0.36,0.28 -0.56,0.28 -0.36,0 -0.56,-0.16 -0.16,-0.16 -0.16,-0.36 0,-0.36 0.2,-1.4 0.24,-1.04 0.2,-2.6 l -0.16,-17.8 q 0,-1.04 -0.32,-1.84 -0.28,-0.84 -1.24,-1.04 -0.2,-0.04 -0.36,-0.2 -0.12,-0.16 -0.12,-0.44 0,-0.2 0.12,-0.36 0.12,-0.16 0.32,-0.2 0.88,-0.16 2.04,-0.52 1.16,-0.4 2.24,-0.8 1.12,-0.44 1.72,-0.64 0.4,-0.16 0.56,-0.16 0.24,0 0.32,0.16 0.12,0.12 0.12,0.32 0,0.24 -0.12,1 -0.08,0.76 -0.08,1.52 v 8.56 q 0,0.52 0.08,0.84 0.08,0.28 0.28,0.28 1.24,-0.84 2.56,-1.28 1.36,-0.48 2.56,-0.48 2.08,0 3.76,1.08 1.68,1.08 2.64,2.96 1,1.88 1,4.24 0,2.8 -1.24,5 -1.24,2.16 -3.44,3.36 -2.16,1.2 -5.08,1.2 z m 0.72,-1.68 q 1.08,0 1.84,-0.92 0.76,-0.96 1.16,-2.52 0.44,-1.56 0.44,-3.4 0,-1.6 -0.44,-3.24 -0.4,-1.64 -1.32,-2.72 -0.88,-1.12 -2.28,-1.12 -0.72,0 -1.68,0.24 -0.96,0.2 -1.56,0.68 v 8.52 q 0,1.28 0.52,2.32 0.56,1.04 1.44,1.6 0.88,0.56 1.88,0.56 z" />
    <path
       id="path916"
       style="font-style:normal;font-variant:normal;font-weight:bold;font-stretch:normal;font-family:'EB Garamond';-inkscape-font-specification:'EB Garamond Bold';text-align:center;text-anchor:middle;fill:#ffffff"
       d="m 1070.5893,352.28927 q -0.32,0 -0.32,-0.4 0,-0.48 0.08,-1.28 0.12,-0.8 0.12,-1.24 0,-0.16 -0.04,-0.28 0,-0.12 -0.04,-0.16 -1.08,1.32 -2.76,2.24 -1.68,0.88 -3.56,0.88 -1.24,0 -2.24,-0.72 -1,-0.76 -1.6,-2.04 -0.56,-1.28 -0.56,-2.88 v -7.48 q 0,-0.92 -0.36,-1.48 -0.32,-0.56 -1.24,-0.76 -0.24,-0.04 -0.44,-0.2 -0.16,-0.2 -0.16,-0.56 0,-0.28 0.16,-0.44 0.16,-0.2 0.44,-0.24 1.68,-0.08 3.04,-0.32 1.36,-0.28 2.76,-0.64 0.2,-0.04 0.4,-0.08 0.24,-0.08 0.44,-0.08 0.56,0 0.52,0.56 -0.16,0.92 -0.24,1.56 -0.08,0.6 -0.08,1.52 v 7.68 q 0,0.96 0.32,1.68 0.32,0.72 0.88,1.12 0.56,0.4 1.24,0.44 0.64,0 1.24,-0.16 0.64,-0.16 1.2,-0.72 0.24,-0.2 0.52,-0.8 0.28,-0.64 0.28,-1.68 v -6.44 q 0,-0.72 -0.28,-1.16 -0.28,-0.48 -0.76,-0.76 -0.48,-0.28 -1.12,-0.32 -0.44,-0.04 -0.72,-0.2 -0.24,-0.2 -0.24,-0.68 0,-0.4 0.28,-0.6 0.28,-0.2 0.68,-0.2 2.04,-0.12 3.24,-0.2 1.2,-0.12 1.96,-0.24 0.76,-0.12 1.52,-0.28 0.12,-0.04 0.28,-0.08 0.16,-0.04 0.24,-0.04 0.6,0 0.6,0.48 0,0.12 -0.04,0.28 -0.04,0.16 -0.12,0.32 -0.04,0.16 -0.12,0.72 -0.04,0.52 -0.12,1.12 -0.04,0.6 -0.04,0.96 v 9.28 q 0,0.92 0.2,1.24 0.24,0.28 0.52,0.28 0.2,0 0.6,0.04 0.4,0 0.52,0 0.36,0 0.56,0.2 0.2,0.2 0.2,0.52 0,0.36 -0.16,0.6 -0.12,0.2 -0.52,0.24 -1.92,0.16 -3.48,0.68 -1.52,0.48 -2.64,0.92 -0.24,0.08 -0.52,0.16 -0.28,0.12 -0.52,0.12 z" />
    <path
       id="path918"
       style="font-style:normal;font-variant:normal;font-weight:bold;font-stretch:normal;font-family:'EB Garamond';-inkscape-font-specification:'EB Garamond Bold';text-align:center;text-anchor:middle;fill:#ffffff"
       d="m 1080.4292,351.56927 q -0.28,0 -0.56,-0.12 -0.24,-0.16 -0.24,-0.44 0,-0.32 0.28,-0.48 0.28,-0.2 0.64,-0.32 0.6,-0.2 1.04,-0.44 0.48,-0.28 0.48,-1.08 v -9.16 q 0,-0.88 -0.28,-1.48 -0.24,-0.6 -0.96,-0.76 -0.16,-0.04 -0.32,-0.2 -0.12,-0.16 -0.12,-0.52 0,-0.56 0.4,-0.68 1.36,-0.32 2.96,-0.84 1.64,-0.56 2.8,-1.16 0.16,-0.08 0.36,-0.2 0.2,-0.12 0.36,-0.12 0.24,0 0.28,0.16 0.08,0.12 0.08,0.32 0,0.32 -0.12,1.04 -0.08,0.68 -0.08,1.24 0,0.16 0,0.36 0.04,0.2 0.08,0.24 1.36,-1.32 2.76,-2.04 1.4,-0.72 3.24,-0.72 2.08,0 3.48,1.56 1.44,1.52 1.44,4.16 v 8.8 q 0,0.8 0.44,1.08 0.48,0.24 1.08,0.44 0.32,0.12 0.56,0.32 0.24,0.16 0.24,0.48 0,0.28 -0.24,0.44 -0.2,0.12 -0.44,0.12 -0.8,0 -1.52,-0.08 -0.68,-0.04 -1.36,-0.08 -0.64,-0.04 -1.36,-0.04 -0.68,0 -1.36,0.04 -0.68,0.04 -1.36,0.08 -0.68,0.08 -1.48,0.08 -0.24,0 -0.48,-0.12 -0.2,-0.16 -0.2,-0.44 0,-0.32 0.24,-0.48 0.24,-0.2 0.56,-0.32 0.6,-0.2 1,-0.44 0.4,-0.28 0.4,-1.08 v -7.96 q 0,-1.52 -0.72,-2.36 -0.68,-0.88 -1.84,-0.92 -0.88,0 -1.56,0.28 -0.68,0.28 -1.4,0.76 -0.16,0.16 -0.24,0.36 -0.08,0.2 -0.08,0.4 v 9.44 q 0,0.8 0.44,1.08 0.44,0.24 1,0.44 0.8,0.24 0.8,0.8 0,0.24 -0.2,0.4 -0.2,0.16 -0.48,0.16 -0.8,0 -1.48,-0.08 -0.68,-0.04 -1.28,-0.08 -0.6,-0.04 -1.32,-0.04 -0.68,0 -1.4,0.04 -0.68,0.04 -1.44,0.08 -0.72,0.08 -1.52,0.08 z" />
    <path
       id="path920"
       style="font-style:normal;font-variant:normal;font-weight:bold;font-stretch:normal;font-family:'EB Garamond';-inkscape-font-specification:'EB Garamond Bold';text-align:center;text-anchor:middle;fill:#ffffff"
       d="m 1109.5492,352.00927 q -2.64,0 -3.96,-1.32 -1.32,-1.36 -1.32,-3.8 v -9.2 q 0,-0.36 -0.28,-0.52 -0.24,-0.16 -0.96,-0.2 h -0.52 q -0.28,0 -0.48,-0.44 -0.16,-0.48 -0.16,-0.84 0,-0.08 0.04,-0.2 0.08,-0.16 0.2,-0.2 0.96,-0.36 2.04,-1.08 1.12,-0.76 2.12,-1.6 1.04,-0.84 1.68,-1.4 0.28,-0.2 0.48,-0.36 0.2,-0.16 0.52,-0.16 0.36,0 0.52,0.16 0.16,0.12 0.08,0.64 l -0.24,2.36 q -0.04,0.48 0.2,0.68 0.28,0.16 0.76,0.16 h 4.76 q 0.12,0 0.24,0.28 0.12,0.28 0.12,0.52 0,0.56 -0.16,1.08 -0.16,0.52 -0.36,0.52 h -3.72 q -0.92,0 -1.28,0.24 -0.32,0.2 -0.32,0.76 v 7.56 q 0,1.84 0.68,2.76 0.72,0.88 1.88,0.88 1.16,0 1.68,-0.24 0.56,-0.24 1,-0.4 0.16,-0.08 0.24,-0.08 0.2,0 0.32,0.24 0.12,0.24 0.12,0.56 0,0.24 -0.84,0.88 -0.84,0.64 -2.2,1.2 -1.32,0.56 -2.88,0.56 z" />
    <path
       id="path922"
       style="font-style:normal;font-variant:normal;font-weight:bold;font-stretch:normal;font-family:'EB Garamond';-inkscape-font-specification:'EB Garamond Bold';text-align:center;text-anchor:middle;fill:#ffffff"
       d="m 1129.6291,352.28927 q -0.32,0 -0.32,-0.4 0,-0.48 0.08,-1.28 0.12,-0.8 0.12,-1.24 0,-0.16 -0.04,-0.28 0,-0.12 -0.04,-0.16 -1.08,1.32 -2.76,2.24 -1.68,0.88 -3.56,0.88 -1.24,0 -2.24,-0.72 -1,-0.76 -1.6,-2.04 -0.56,-1.28 -0.56,-2.88 v -7.48 q 0,-0.92 -0.36,-1.48 -0.32,-0.56 -1.24,-0.76 -0.24,-0.04 -0.44,-0.2 -0.16,-0.2 -0.16,-0.56 0,-0.28 0.16,-0.44 0.16,-0.2 0.44,-0.24 1.68,-0.08 3.04,-0.32 1.36,-0.28 2.76,-0.64 0.2,-0.04 0.4,-0.08 0.24,-0.08 0.44,-0.08 0.56,0 0.52,0.56 -0.16,0.92 -0.24,1.56 -0.08,0.6 -0.08,1.52 v 7.68 q 0,0.96 0.32,1.68 0.32,0.72 0.88,1.12 0.56,0.4 1.24,0.44 0.64,0 1.24,-0.16 0.64,-0.16 1.2,-0.72 0.24,-0.2 0.52,-0.8 0.28,-0.64 0.28,-1.68 v -6.44 q 0,-0.72 -0.28,-1.16 -0.28,-0.48 -0.76,-0.76 -0.48,-0.28 -1.12,-0.32 -0.44,-0.04 -0.72,-0.2 -0.24,-0.2 -0.24,-0.68 0,-0.4 0.28,-0.6 0.28,-0.2 0.68,-0.2 2.04,-0.12 3.24,-0.2 1.2,-0.12 1.96,-0.24 0.76,-0.12 1.52,-0.28 0.12,-0.04 0.28,-0.08 0.16,-0.04 0.24,-0.04 0.6,0 0.6,0.48 0,0.12 -0.04,0.28 -0.04,0.16 -0.12,0.32 -0.04,0.16 -0.12,0.72 -0.04,0.52 -0.12,1.12 -0.04,0.6 -0.04,0.96 v 9.28 q 0,0.92 0.2,1.24 0.24,0.28 0.52,0.28 0.2,0 0.6,0.04 0.4,0 0.52,0 0.36,0 0.56,0.2 0.2,0.2 0.2,0.52 0,0.36 -0.16,0.6 -0.12,0.2 -0.52,0.24 -1.92,0.16 -3.48,0.68 -1.52,0.48 -2.64,0.92 -0.24,0.08 -0.52,0.16 -0.28,0.12 -0.52,0.12 z" />
    <path
       id="path924"
       style="font-style:normal;font-variant:normal;font-weight:bold;font-stretch:normal;font-family:'EB Garamond';-inkscape-font-specification:'EB Garamond Bold';text-align:center;text-anchor:middle;fill:#ffffff"
       d="m 1165.309,351.60927 q -0.24,0 -1.2,-0.04 -0.92,0 -2.2,-0.04 -1.24,-0.04 -2.56,-0.08 -1.32,-0.04 -2.32,-0.04 -0.92,0 -2.04,0.04 -1.08,0.04 -2.08,0.04 -0.96,0.04 -1.64,0.04 -0.64,0.04 -0.76,0.04 -0.12,0 -0.48,-0.2 -0.32,-0.24 -0.32,-0.48 0,-0.32 0.16,-0.52 0.16,-0.2 0.32,-0.36 l 5.84,-6.48 q 2.12,-2.32 3.16,-4.64 1.04,-2.36 1.04,-5.12 0,-1.68 -0.88,-2.8 -0.84,-1.16 -2.4,-1.16 -1.4,0 -2.64,0.8 -1.24,0.8 -2.12,1.72 -0.2,0.24 -0.56,0.56 -0.36,0.28 -0.72,0.28 -0.32,0 -0.44,-0.24 -0.12,-0.28 -0.12,-0.68 0,-0.68 0.64,-1.64 0.68,-1 1.84,-2 1.2,-1 2.72,-1.68 1.56,-0.68 3.28,-0.68 2.08,0 3.48,0.92 1.44,0.92 2.2,2.44 0.76,1.52 0.76,3.32 0,1.12 -0.52,2.48 -0.48,1.32 -1.2,2.56 -0.72,1.2 -1.48,2.08 -0.6,0.68 -1.52,1.6 -0.88,0.88 -1.84,1.8 -0.96,0.92 -1.84,1.72 -0.88,0.8 -1.4,1.32 -0.52,0.52 -0.52,0.6 0,0.16 0.6,0.24 0.72,0.08 1.72,0.12 1.04,0.04 1.88,0.04 0.92,0 1.8,-0.04 0.88,-0.04 1.76,-0.12 0.88,-0.08 1.52,-0.32 0.68,-0.28 1.16,-0.76 0.52,-0.52 0.92,-1.32 0.12,-0.28 0.4,-0.56 0.32,-0.32 0.72,-0.32 0.32,0 0.44,0.28 0.12,0.24 0,0.52 -0.36,1.04 -0.76,2.28 -0.36,1.2 -0.64,2.2 -0.28,0.96 -0.32,1.36 -0.04,0.48 -0.4,0.72 -0.36,0.2 -0.44,0.2 z" />
    <path
       id="path926"
       style="font-style:normal;font-variant:normal;font-weight:bold;font-stretch:normal;font-family:'EB Garamond';-inkscape-font-specification:'EB Garamond Bold';text-align:center;text-anchor:middle;fill:#ffffff"
       d="m 1178.909,352.00927 q -2.4,0 -4.16,-1.12 -1.76,-1.12 -2.96,-2.96 -1.16,-1.88 -1.72,-4.12 -0.56,-2.24 -0.56,-4.44 0,-2.28 0.56,-4.6 0.56,-2.32 1.76,-4.24 1.2,-1.96 3.08,-3.12 1.88,-1.2 4.44,-1.2 2.4,0 4.16,1.12 1.8,1.12 2.92,3 1.16,1.84 1.72,4.08 0.6,2.2 0.6,4.36 0,2.28 -0.56,4.6 -0.56,2.32 -1.76,4.28 -1.16,1.96 -3.04,3.16 -1.84,1.2 -4.48,1.2 z m 0.6,-1.8 q 1.28,0 2.04,-1.48 0.8,-1.52 1.16,-3.96 0.36,-2.44 0.36,-5.28 0,-2.12 -0.28,-4.16 -0.28,-2.04 -0.84,-3.68 -0.56,-1.68 -1.36,-2.64 -0.8,-1 -1.88,-1 -1.28,0 -2.04,1.52 -0.76,1.48 -1.12,3.92 -0.32,2.4 -0.32,5.24 0,2.12 0.24,4.16 0.28,2.04 0.8,3.72 0.56,1.64 1.36,2.64 0.8,1 1.88,1 z" />
    <path
       id="path928"
       style="font-style:normal;font-variant:normal;font-weight:bold;font-stretch:normal;font-family:'EB Garamond';-inkscape-font-specification:'EB Garamond Bold';text-align:center;text-anchor:middle;fill:#ffffff"
       d="m 1194.509,352.64927 q -1.28,0 -2.24,-0.96 -0.96,-0.92 -0.96,-2.24 0,-1.4 0.96,-2.36 0.96,-0.96 2.24,-0.96 1.44,0 2.36,0.96 0.96,0.96 0.96,2.36 0,1.32 -0.96,2.24 -0.92,0.96 -2.36,0.96 z" />
    <path
       id="path930"
       style="font-style:normal;font-variant:normal;font-weight:bold;font-stretch:normal;font-family:'EB Garamond';-inkscape-font-specification:'EB Garamond Bold';text-align:center;text-anchor:middle;fill:#ffffff"
       d="m 1209.949,352.00927 q -2.4,0 -4.16,-1.12 -1.76,-1.12 -2.96,-2.96 -1.16,-1.88 -1.72,-4.12 -0.56,-2.24 -0.56,-4.44 0,-2.28 0.56,-4.6 0.56,-2.32 1.76,-4.24 1.2,-1.96 3.08,-3.12 1.88,-1.2 4.44,-1.2 2.4,0 4.16,1.12 1.8,1.12 2.92,3 1.16,1.84 1.72,4.08 0.6,2.2 0.6,4.36 0,2.28 -0.56,4.6 -0.56,2.32 -1.76,4.28 -1.16,1.96 -3.04,3.16 -1.84,1.2 -4.48,1.2 z m 0.6,-1.8 q 1.28,0 2.04,-1.48 0.8,-1.52 1.16,-3.96 0.36,-2.44 0.36,-5.28 0,-2.12 -0.28,-4.16 -0.28,-2.04 -0.84,-3.68 -0.56,-1.68 -1.36,-2.64 -0.8,-1 -1.88,-1 -1.28,0 -2.04,1.52 -0.76,1.48 -1.12,3.92 -0.32,2.4 -0.32,5.24 0,2.12 0.24,4.16 0.28,2.04 0.8,3.72 0.56,1.64 1.36,2.64 0.8,1 1.88,1 z" />
    <path
       id="path932"
       style="font-style:normal;font-variant:normal;font-weight:bold;font-stretch:normal;font-family:'EB Garamond';-inkscape-font-specification:'EB Garamond Bold';text-align:center;text-anchor:middle;fill:#ffffff"
       d="m 1229.269,351.56927 q -0.24,0 -0.56,-0.16 -0.32,-0.16 -0.32,-0.44 0,-0.4 0.28,-0.56 0.28,-0.16 0.64,-0.24 1.6,-0.28 2.16,-0.76 0.56,-0.52 0.56,-1.72 v -2.28 q 0,-0.2 -0.24,-0.28 -0.24,-0.12 -0.44,-0.12 -1.24,0 -2.84,0.08 -1.6,0.08 -3.28,0.16 -1.64,0.08 -3.12,0.08 -0.2,0 -0.4,-0.08 -0.2,-0.08 -0.2,-0.24 0,-0.16 0.2,-0.44 0.28,-0.36 0.44,-0.56 0.2,-0.24 0.36,-0.48 0.2,-0.28 0.4,-0.56 l 9.88,-15.8 q 0.32,-0.52 0.8,-0.96 0.52,-0.44 0.96,-0.44 h 0.36 q 0.32,0 0.36,0.32 0.08,0.28 -0.08,0.52 l -9.4,14.92 q -0.16,0.32 -0.04,0.44 0.12,0.12 0.36,0.12 h 5.6 q 0.12,0 0.2,-0.08 0.12,-0.08 0.12,-0.2 v -4.8 q 0,-0.72 0.08,-0.96 0.12,-0.28 0.56,-0.44 1.08,-0.52 2.32,-0.68 1.24,-0.16 1.72,-0.16 0.8,0 0.92,0.8 0.16,0.76 0.16,2.28 v 4.2 q 0,0.28 0.2,0.28 0.52,0.04 0.76,0.04 0.28,0 0.68,0 0.6,0 1.08,0 0.48,-0.04 1.2,-0.08 0.48,0 0.48,0.28 0,0.32 -0.16,0.92 -0.16,0.6 -0.4,1.12 -0.2,0.48 -0.36,0.48 -0.48,0 -0.92,0 -0.44,-0.04 -0.96,-0.04 -0.4,0 -0.6,0.04 -0.16,0 -0.44,0.04 -0.16,0.04 -0.36,0.12 -0.2,0.08 -0.2,0.12 v 2.28 q 0,1.12 0.52,1.6 0.52,0.48 2.08,0.92 0.36,0.12 0.64,0.28 0.32,0.16 0.32,0.52 0,0.24 -0.28,0.4 -0.24,0.16 -0.56,0.16 -0.88,0 -1.92,-0.04 -1,-0.04 -1.96,-0.08 -0.96,-0.04 -1.8,-0.04 -0.84,0 -1.8,0.04 -0.92,0.04 -1.88,0.08 -0.96,0.08 -1.88,0.08 z" />
  </g>
</svg>
