<?xml version="1.0" encoding="UTF-8" standalone="no"?>
<svg
   xmlns:osb="http://www.openswatchbook.org/uri/2009/osb"
   xmlns:dc="http://purl.org/dc/elements/1.1/"
   xmlns:cc="http://creativecommons.org/ns#"
   xmlns:rdf="http://www.w3.org/1999/02/22-rdf-syntax-ns#"
   xmlns:svg="http://www.w3.org/2000/svg"
   xmlns="http://www.w3.org/2000/svg"
   xmlns:xlink="http://www.w3.org/1999/xlink"
   id="svg3357"
   version="1.1"
   viewBox="0 0 211.40208 119.0625"
   height="119.0625mm"
   width="211.40208mm">
  <defs
     id="defs3351">
    <linearGradient
       osb:paint="solid"
       id="linearGradient4115">
      <stop
         id="stop4113"
         offset="0"
         style="stop-color:#000000;stop-opacity:1;" />
    </linearGradient>
    <linearGradient
       id="linearGradient6114">
      <stop
         id="stop6110"
         offset="0"
         style="stop-color:#6f7c91;stop-opacity:1;" />
      <stop
         id="stop6112"
         offset="1"
         style="stop-color:#162d50;stop-opacity:1" />
    </linearGradient>
    <radialGradient
       gradientUnits="userSpaceOnUse"
       gradientTransform="matrix(3.0071285,0,0,1.83657,-125.12732,-58.151445)"
       r="31.67275"
       fy="66.986313"
       fx="73.77433"
       cy="66.986313"
       cx="73.77433"
       id="radialGradient6126"
       xlink:href="#linearGradient6114" />
  </defs>
  <metadata
     id="metadata3354">
    <rdf:RDF>
      <cc:Work
         rdf:about="">
        <dc:format>image/svg+xml</dc:format>
        <dc:type
           rdf:resource="http://purl.org/dc/dcmitype/StillImage" />
        <dc:title></dc:title>
      </cc:Work>
    </rdf:RDF>
  </metadata>
  <g
     id="flowRoot874"
     style="font-style:normal;font-weight:normal;font-size:40px;line-height:1.25;font-family:sans-serif;letter-spacing:0px;word-spacing:0px;fill:#000000;fill-opacity:1;stroke:none"
     transform="matrix(1.1097917,0,0,1.0234149,-1.6397722,-7.1516095)" />
  <g
     id="flowRoot1713"
     style="font-style:normal;font-weight:normal;font-size:40px;line-height:1.25;font-family:sans-serif;letter-spacing:0px;word-spacing:0px;fill:#000000;fill-opacity:1;stroke:none"
     transform="translate(-1.4775493,-4.2705599)" />
  <path
     id="rect6108"
     d="M 0,0 H 211.40208 V 119.0625 H 0 Z"
     style="opacity:1;fill:#555753;fill-opacity:1;stroke:none;stroke-width:4.38045835;stroke-miterlimit:4;stroke-dasharray:none;paint-order:stroke markers fill" />
  <g
     id="g4921"
     transform="matrix(1.1825108,0,0,1.2934259,-94.586312,-87.173686)">
    <g
       transform="translate(50.270828)"
       id="g4720">
      <g
         id="g4694"
         transform="translate(-47.638093,1.3360133)"
         style="fill:#333333">
        <path
           style="fill:#333333;stroke:none;stroke-width:0.26458347px;stroke-linecap:butt;stroke-linejoin:miter;stroke-opacity:1"
           d="m 144.21101,139.55982 c 0,0 5.43081,5.83681 7.33498,3.79847 2.22288,-2.37952 -12.62665,-36.87139 -12.62665,-36.87139"
           id="path835" />
        <path
           id="path817"
           d="m 97.450493,140.21473 c 7.815327,4.80271 15.630577,9.60538 23.402247,9.51796 7.77167,-0.0874 15.49967,-5.06478 19.38543,-7.57529 3.88576,-2.5105 3.92946,-2.5542 3.97284,-2.59758"
           style="fill:#333333;stroke:none;stroke-width:0.26458332px;stroke-linecap:butt;stroke-linejoin:miter;stroke-opacity:1" />
        <path
           id="path825"
           d="m 97.450491,140.21473 c 0,0 -5.430812,5.83681 -7.33498,3.79847 -2.222882,-2.37952 12.820499,-36.99713 12.820499,-36.99713"
           style="fill:#333333;stroke:none;stroke-width:0.26458332px;stroke-linecap:butt;stroke-linejoin:miter;stroke-opacity:1" />
        <path
           transform="matrix(1.0226412,0,0,1.0473654,-2.3339152,-3.6688483)"
           id="path831"
           d="m 102.93926,105.67937 c 0.0862,-6.905162 0.17248,-13.810016 1.50935,-18.736088 1.33687,-4.926072 3.92412,-7.873272 9.74546,-9.346742 5.82134,-1.473471 14.87673,-1.473471 19.40429,3.368239 4.52756,4.84171 4.52756,14.525398 4.52756,24.209361"
           style="fill:#333333;stroke:none;stroke-width:0.26458332px;stroke-linecap:butt;stroke-linejoin:miter;stroke-opacity:1" />
      </g>
      <g
         id="g4708">
        <path
           id="path4696"
           d="m 49.741667,141.68958 c 0,0 3.615973,-22.40139 5.55625,-33.60208 l 35.983333,-0.26458 6.614583,33.07291 z"
           style="fill:#333333;stroke:none;stroke-width:0.26458332px;stroke-linecap:butt;stroke-linejoin:miter;stroke-opacity:1" />
        <path
           id="rect4698"
           d="m 55.5625,138.25 h 37.041668 v 3.96875 H 55.5625 Z"
           style="opacity:1;fill:#333333;fill-opacity:1;stroke:none;stroke-width:0.26458332" />
        <path
           id="rect4700"
           d="m 59.53125,106.5 h 30.427082 v 3.96875 H 59.53125 Z"
           style="opacity:1;fill:#333333;fill-opacity:1;stroke:none;stroke-width:0.26458332" />
        <path
           id="rect4702"
           d="m 84.666664,105.17708 h 5.291669 v 3.96875 h -5.291669 z"
           style="opacity:1;fill:#333333;fill-opacity:1;stroke:none;stroke-width:0.26458332" />
      </g>
    </g>
    <path
       d="m 138.70455,126.61246 a 15.239734,15.867999 0 0 1 -15.17522,15.86785 15.239734,15.867999 0 0 1 -15.3037,-15.73349 15.239734,15.867999 0 0 1 15.04563,-16.00108 15.239734,15.867999 0 0 1 15.4311,15.59801"
       id="path843"
       style="opacity:1;fill:#e6e6e6;fill-opacity:1;stroke:none;stroke-width:0.26458332" />
    <g
       transform="translate(44.751274,16.383515)"
       id="g4688">
      <g
         id="g4596"
         transform="translate(-41.01042,-15.875)"
         style="fill:#ff6600;stroke:none">
        <path
           id="path4585"
           d="m 111.125,110.46875 c 2.9216,-2.67614 5.84316,-5.35225 8.7091,-5.35212 2.86595,1.3e-4 5.6775,2.67624 8.48882,5.35212"
           style="fill:#ff6600;stroke:none;stroke-width:0.26458332px;stroke-linecap:butt;stroke-linejoin:miter;stroke-opacity:1" />
        <path
           id="path4589"
           d="m 111.125,110.46875 c 2.77957,3.92198 5.48174,5.31906 8.73125,6.61458"
           style="fill:#ff6600;stroke:none;stroke-width:0.26458332px;stroke-linecap:butt;stroke-linejoin:miter;stroke-opacity:1" />
        <path
           id="path4591"
           d="m 128.32292,110.46875 c -1.04604,3.82945 -4.9192,5.32533 -8.46667,6.61458"
           style="fill:#ff6600;stroke:none;stroke-width:0.26458332px;stroke-linecap:butt;stroke-linejoin:miter;stroke-opacity:1" />
      </g>
      <g
         style="fill:#ff6600;stroke:none"
         transform="translate(-41.01042,-15.875)"
         id="g4661">
        <path
           style="fill:#ff6600;stroke:none;stroke-width:0.26458332px;stroke-linecap:butt;stroke-linejoin:miter;stroke-opacity:1"
           d="m 111.125,110.46875 c 2.9216,-2.67614 5.84316,-5.35225 8.7091,-5.35212 2.86595,1.3e-4 5.6775,2.67624 8.48882,5.35212"
           id="path4655" />
        <path
           style="fill:#ff6600;stroke:none;stroke-width:0.26458332px;stroke-linecap:butt;stroke-linejoin:miter;stroke-opacity:1"
           d="m 111.125,110.46875 c 2.77957,3.92198 5.48174,5.31906 8.73125,6.61458"
           id="path4657" />
        <path
           style="fill:#ff6600;stroke:none;stroke-width:0.26458332px;stroke-linecap:butt;stroke-linejoin:miter;stroke-opacity:1"
           d="m 128.32292,110.46875 c -1.04604,3.82945 -4.9192,5.32533 -8.46667,6.61458"
           id="path4659" />
      </g>
      <path
         style="opacity:1;fill:#ff6600;fill-opacity:1;stroke:none;stroke-width:0.26458332"
         id="path4671"
         d="m 78.845833,101.20833 -4.582718,-2.645833 v -5.291666 l 4.582718,-2.645833 4.582717,2.645833 v 5.291666 z" />
      <path
         style="opacity:1;fill:#ff6600;fill-opacity:1;stroke:none;stroke-width:0.26458332"
         id="path4673"
         d="m 83.608335,99.620834 2.319854,-2.397701 0.916543,3.207907 z"
         transform="matrix(0.94729327,-1.274616,1.0295753,1.1727506,-98.356248,87.506876)" />
      <path
         style="opacity:1;fill:#ff6600;fill-opacity:1;stroke:none;stroke-width:0.26458332"
         id="path4675"
         d="m 74.536294,98.196559 -3.844516,-2.340158 3.948894,-2.159369 z"
         transform="matrix(1.141627,0.11210349,-0.08749549,1.2944633,-2.2020547,-37.413635)" />
    </g>
    <path
       transform="scale(0.26458333)"
       id="path4722"
       d="m 457.97263,570.35612 c -18.79507,-2.12161 -40.18257,-11.27811 -71.63974,-30.67068 -8.13959,-5.01787 -8.02372,-4.97631 -9.49602,-3.40625 -1.98328,2.11498 -9.29175,8.28788 -11.94887,10.09229 -7.55689,5.13179 -13.40276,5.68891 -14.83103,1.41342 -1.63872,-4.90546 5.4376,-28.95935 18.84332,-64.05245 9.54282,-24.98091 28.41577,-70.80369 29.41653,-71.42219 0.22811,-0.14098 0.37499,-0.42288 0.3264,-0.62644 -0.0486,-0.20356 0.0318,-0.82849 0.17857,-1.38874 0.14681,-0.56024 0.45269,-8.53609 0.67974,-17.7241 0.63732,-25.79 1.66538,-38.59108 4.07232,-50.7069 4.32594,-21.77558 13.30666,-33.82393 30.11939,-40.40761 16.87389,-6.60764 39.99439,-8.13907 57.78976,-3.82784 20.7168,5.019 32.64507,17.2536 38.14208,39.1216 3.4588,13.75967 4.66657,26.50558 4.98055,52.56114 0.20469,16.98608 0.39447,21.14579 0.94912,20.80299 0.62648,-0.38718 21.06718,49.83231 30.13912,74.04694 11.92704,31.8354 17.56985,50.7662 17.56985,58.9443 0,2.59002 -0.1133,3.01447 -1.03188,3.86578 -3.15357,2.92263 -9.30891,0.77622 -18.04824,-6.29354 -2.16747,-1.75339 -5.03522,-4.30389 -6.3728,-5.66777 -1.33757,-1.36388 -2.56841,-2.47978 -2.7352,-2.47978 -0.16679,0 -5.21474,3.17625 -11.21765,7.05833 -6.00292,3.88209 -13.48133,8.58639 -16.6187,10.45401 -26.52636,15.79064 -49.54126,22.54011 -69.26662,20.31349 z m 19.96508,-32.86866 c 5.28911,-1.14072 8.32959,-2.22946 13.85333,-4.9606 18.43404,-9.11449 30.90578,-28.24854 32.34892,-49.62947 0.94243,-13.9626 -2.58151,-27.3736 -10.20264,-38.82794 -3.0137,-4.52952 -10.61003,-12.34927 -14.86401,-15.30119 l -2.90399,-2.01514 0.75119,-1.40422 c 0.41315,-0.77232 1.12926,-2.38761 1.59134,-3.58952 1.00562,-2.61573 1.41642,-1.9763 -5.09101,-7.92451 -5.72644,-5.23434 -11.15932,-9.40512 -14.87195,-11.41709 -10.91899,-5.91728 -20.15604,-3.88649 -33.81841,7.43508 -3.40229,2.81937 -10.37133,9.1079 -10.53264,9.50415 -0.0784,0.19273 0.9084,1.72266 2.19301,3.39982 1.28461,1.67718 2.26556,3.10249 2.1799,3.16736 -0.0857,0.0649 -1.43922,0.95947 -3.00791,1.98798 -15.62369,10.24371 -25.66261,28.29897 -26.56551,47.77875 -1.32187,28.5191 16.86115,54.02186 43.57738,61.11985 2.07246,0.55061 5.05159,1.17715 6.62027,1.39232 4.35042,0.59669 14.44506,0.21127 18.74273,-0.71563 z m 70.79456,-4.85226 c -1.62471,-0.0773 -4.28333,-0.0773 -5.90804,0 -1.62471,0.0773 -0.2954,0.14062 2.95402,0.14062 3.24942,0 4.57873,-0.0633 2.95402,-0.14062 z m -16.9092,-125.06569 c -0.39218,-0.10248 -1.03391,-0.10248 -1.42608,0 -0.39217,0.10248 -0.0713,0.18634 0.71304,0.18634 0.78434,0 1.10521,-0.0839 0.71304,-0.18634 z"
       style="opacity:1;fill:#333333;fill-opacity:1;stroke:none;stroke-width:0.40745068" />
    <path
       id="rect4846"
       d="m 139.81281,107.16256 h 1.38157 v 1.25205 h -1.38157 z"
       style="opacity:1;fill:#333333;fill-opacity:1;stroke:none;stroke-width:0.26458332" />
    <g
       id="g4877">
      <path
         d="m 133.36974,95.882912 a 3.0704114,3.0704114 0 0 1 -3.05741,3.070384 3.0704114,3.0704114 0 0 1 -3.0833,-3.044394 3.0704114,3.0704114 0 0 1 3.03132,-3.096154 3.0704114,3.0704114 0 0 1 3.10895,3.018185"
         id="path4860"
         style="opacity:1;fill:#e6e6e6;fill-opacity:1;stroke:none;stroke-width:0.26458332" />
      <g
         id="g4864"
         transform="matrix(0.80841168,0,0,1,68.549895,-7.3051882)">
        <path
           style="opacity:1;fill:#000000;fill-opacity:1;stroke:none;stroke-width:0.26458332"
           id="path4862"
           d="m 77.375031,103.39364 a 1.6372987,1.2321938 0 0 1 -1.630369,1.23218 1.6372987,1.2321938 0 0 1 -1.64417,-1.22175 1.6372987,1.2321938 0 0 1 1.616451,-1.24253 1.6372987,1.2321938 0 0 1 1.657853,1.21124" />
      </g>
    </g>
    <g
       transform="matrix(-1,0,0,1,248.68829,0.27470384)"
       id="g4885">
      <path
         style="opacity:1;fill:#e6e6e6;fill-opacity:1;stroke:none;stroke-width:0.26458332"
         id="path4879"
         d="m 133.36974,95.882912 a 3.0704114,3.0704114 0 0 1 -3.05741,3.070384 3.0704114,3.0704114 0 0 1 -3.0833,-3.044394 3.0704114,3.0704114 0 0 1 3.03132,-3.096154 3.0704114,3.0704114 0 0 1 3.10895,3.018185" />
      <g
         transform="matrix(0.80841168,0,0,1,68.549895,-7.3051882)"
         id="g4883">
        <path
           d="m 77.375031,103.39364 a 1.6372987,1.2321938 0 0 1 -1.630369,1.23218 1.6372987,1.2321938 0 0 1 -1.64417,-1.22175 1.6372987,1.2321938 0 0 1 1.616451,-1.24253 1.6372987,1.2321938 0 0 1 1.657853,1.21124"
           id="path4881"
           style="opacity:1;fill:#000000;fill-opacity:1;stroke:none;stroke-width:0.26458332" />
      </g>
    </g>
  </g>
  <g
     transform="matrix(1.0026669,0,0,1.5452714,144.09914,-189.33957)"
     id="text917"
     style="font-style:normal;font-variant:normal;font-weight:normal;font-stretch:normal;font-size:10.58333302px;line-height:1.25;font-family:'Sansita One';-inkscape-font-specification:'Sansita One';text-align:center;letter-spacing:0px;word-spacing:0px;text-anchor:middle;fill:#ffffff;fill-opacity:1;stroke:none;stroke-width:0.26458332"
     aria-label="5  Things  to  Knowbefore  DownloadingUbuntu">
    <path
       id="path1018"
       style="font-style:normal;font-variant:normal;font-weight:normal;font-stretch:normal;font-family:'Sansita One';-inkscape-font-specification:'Sansita One';text-align:center;text-anchor:middle;fill:#ffffff;stroke-width:0.26458332"
       d="m -52.371648,148.70707 q 0.613833,-0.0529 0.994833,-0.0529 0.381,0 0.783167,0.13758 0.402166,0.13758 0.6985,0.37042 0.656166,0.51858 0.656166,1.18533 0,0.65617 -0.243416,1.18533 -0.232834,0.52917 -0.645584,0.91017 -0.878416,0.8255 -2.211916,0.8255 -0.963084,0 -1.471084,-0.30692 -0.508,-0.30691 -0.508,-0.889 0,-0.59266 0.370417,-0.91016 0.4445,0.75141 1.386417,0.75141 0.5715,0 0.889,-0.26458 0.3175,-0.26458 0.3175,-0.77258 0,-1.016 -1.471084,-1.016 -0.560916,0 -0.92075,0.0423 l 0.994834,-3.83117 h 2.487083 q 0.836083,0 1.100667,-0.37041 0.275166,0.24341 0.275166,0.78316 0,0.508 -0.402166,0.86784 -0.402167,0.35983 -0.973667,0.35983 h -1.80975 z" />
    <path
       id="path1020"
       style="font-style:normal;font-variant:normal;font-weight:normal;font-stretch:normal;font-family:'Sansita One';-inkscape-font-specification:'Sansita One';text-align:center;text-anchor:middle;fill:#ffffff;stroke-width:0.26458332"
       d="m -43.389706,147.90274 q -0.359833,-0.27517 -0.359833,-0.85725 0,-0.59267 0.381,-0.89958 0.391583,-0.30692 1.058333,-0.30692 0.423333,0 1.42875,0.14817 l 0.719667,0.10583 q 0.359833,0.0423 0.73025,0.0423 0.381,0 0.635,-0.15875 0.381,0.33867 0.381,0.8255 0,0.48684 -0.433917,0.83609 -0.4445,0.37041 -1.016,0.37041 -0.275167,0 -0.719667,-0.0741 -0.518583,1.62983 -0.518583,2.76225 0,1.13242 0.5715,1.72508 -0.264583,0.47625 -0.656167,0.65617 -0.391583,0.1905 -0.98425,0.1905 -0.582083,0 -0.9525,-0.3175 -0.359833,-0.32808 -0.359833,-0.99483 0,-0.77259 0.423333,-2.04259 0.423334,-1.25941 1.058334,-2.2225 -0.306917,-0.0317 -0.624417,-0.0317 -0.656167,0 -0.762,0.24342 z" />
    <path
       id="path1022"
       style="font-style:normal;font-variant:normal;font-weight:normal;font-stretch:normal;font-family:'Sansita One';-inkscape-font-specification:'Sansita One';text-align:center;text-anchor:middle;fill:#ffffff;stroke-width:0.26458332"
       d="m -33.435254,151.88207 q 0,0.46567 0.47625,0.60325 -0.116417,0.39159 -0.5715,0.60325 -0.381,0.17992 -0.804333,0.17992 -0.41275,0 -0.635,-0.11642 -0.211667,-0.10583 -0.328084,-0.28575 -0.1905,-0.27516 -0.1905,-0.79375 0,-0.30691 0.169334,-1.15358 l 0.148166,-0.80433 q 0.179917,-0.92075 0.179917,-1.25942 0,-0.59267 -0.328083,-0.59267 -0.41275,0 -0.677334,0.60325 -0.105833,0.23284 -0.179916,0.58209 l -0.719667,3.60891 -2.12725,0.21167 1.49225,-7.62 2.12725,-0.21167 -0.08467,0.42334 q -0.296333,1.62983 -0.550333,2.18016 0.592667,-0.59266 1.68275,-0.59266 1.153583,0 1.36525,0.762 0.07408,0.24341 0.07408,0.45508 0,0.21167 -0.02117,0.381 -0.01058,0.15875 -0.0635,0.45508 l -0.137584,0.762 -0.243416,1.19592 q -0.05292,0.24342 -0.05292,0.42333 z" />
    <path
       id="path1024"
       style="font-style:normal;font-variant:normal;font-weight:normal;font-stretch:normal;font-family:'Sansita One';-inkscape-font-specification:'Sansita One';text-align:center;text-anchor:middle;fill:#ffffff;stroke-width:0.26458332"
       d="m -29.562747,152.47474 q -0.328083,0.79375 -1.375833,0.79375 -0.53975,0 -0.878417,-0.37042 -0.28575,-0.32808 -0.28575,-0.65616 0,-0.85725 0.391584,-2.52942 l 0.391583,-2.05317 2.148417,-0.21166 -0.645584,3.34433 q -0.179916,0.78317 -0.179916,1.05833 0,0.60325 0.433916,0.62442 z m -1.566333,-6.2865 q 0,-0.41275 0.338667,-0.635 0.34925,-0.22225 0.846666,-0.22225 0.497417,0 0.79375,0.22225 0.306917,0.22225 0.306917,0.635 0,0.41275 -0.338667,0.62442 -0.328083,0.21166 -0.8255,0.21166 -0.497416,0 -0.814916,-0.21166 -0.306917,-0.21167 -0.306917,-0.62442 z" />
    <path
       id="path1026"
       style="font-style:normal;font-variant:normal;font-weight:normal;font-stretch:normal;font-family:'Sansita One';-inkscape-font-specification:'Sansita One';text-align:center;text-anchor:middle;fill:#ffffff;stroke-width:0.26458332"
       d="m -24.194682,153.26849 q -1.280584,0 -1.280584,-0.99483 0.01058,-0.27517 0.09525,-0.74084 l 0.1905,-0.97366 q 0.28575,-1.37584 0.28575,-1.68275 0,-0.61384 -0.359833,-0.61384 -0.60325,0 -0.92075,1.57692 l -0.624416,3.21733 -2.12725,0.21167 1.100666,-5.61975 1.735667,-0.20108 -0.169334,1.03716 q 0.497417,-1.03716 2.021417,-1.03716 0.740833,0 1.04775,0.3175 0.3175,0.30691 0.3175,1.00541 0,0.65617 -0.338667,2.19075 -0.15875,0.68792 -0.15875,0.9525 0,0.254 0.137584,0.40217 0.148166,0.14817 0.359833,0.16933 -0.105833,0.35984 -0.47625,0.5715 -0.359833,0.21167 -0.836083,0.21167 z" />
    <path
       id="path1028"
       style="font-style:normal;font-variant:normal;font-weight:normal;font-stretch:normal;font-family:'Sansita One';-inkscape-font-specification:'Sansita One';text-align:center;text-anchor:middle;fill:#ffffff;stroke-width:0.26458332"
       d="m -21.284762,148.63299 q 0.359834,-0.508 0.899584,-0.84667 0.550333,-0.33866 1.217083,-0.33866 0.66675,0 0.98425,0.21166 l 2.074333,-0.21166 -0.719666,4.064 q -0.370417,2.07433 -1.153584,2.88925 -0.751416,0.77258 -2.211916,0.77258 -1.11125,0 -1.74625,-0.34925 -0.635,-0.34925 -0.635,-0.93133 0,-0.43392 0.328083,-0.68792 0.328083,-0.24342 0.836083,-0.24342 0.4445,0 0.783167,0.20109 0.201083,0.10583 0.296333,0.254 -0.243416,0.21166 -0.243416,0.56091 0,0.45509 0.423333,0.45509 0.709083,0 1.11125,-1.67217 0.116417,-0.45508 0.211667,-0.91017 -0.47625,0.58209 -1.55575,0.58209 -0.751417,0 -1.185334,-0.35984 -0.433916,-0.35983 -0.433916,-1.2065 0,-0.52916 0.179916,-1.12183 0.179917,-0.60325 0.53975,-1.11125 z m 1.375834,2.26483 q 0,0.71967 0.370416,0.71967 0.254,0 0.497417,-0.27517 0.1905,-0.22225 0.264583,-0.55033 l 0.53975,-2.71992 q -0.05292,-0.0106 -0.105833,-0.0317 -0.105833,-0.0423 -0.243417,-0.0423 -0.645583,0 -1.026583,1.05833 -0.296333,0.8255 -0.296333,1.8415 z" />
    <path
       id="path1030"
       style="font-style:normal;font-variant:normal;font-weight:normal;font-stretch:normal;font-family:'Sansita One';-inkscape-font-specification:'Sansita One';text-align:center;text-anchor:middle;fill:#ffffff;stroke-width:0.26458332"
       d="m -12.525894,149.34207 q 0.148166,-0.39158 0.148166,-0.73025 0,-0.62441 -0.508,-0.62441 -0.264583,0 -0.486833,0.24341 -0.211667,0.23284 -0.211667,0.52917 0,0.21167 0.169334,0.381 0.243416,0.23283 0.867833,0.61383 0.624417,0.381 0.85725,0.6985 0.243416,0.30692 0.243416,0.74084 0,0.42333 -0.211666,0.81491 -0.201083,0.39159 -0.5715,0.66675 -0.79375,0.59267 -2.06375,0.59267 -0.687917,0 -1.217083,-0.35983 -0.529167,-0.34925 -0.529167,-0.762 0,-0.41275 0.296333,-0.65617 0.306917,-0.24342 0.751417,-0.24342 0.4445,0 0.719667,0.16934 -0.137584,0.34925 -0.137584,0.58208 0,0.6985 0.592667,0.6985 0.254,0 0.423333,-0.15875 0.169334,-0.15875 0.169334,-0.43392 0,-0.53975 -0.910167,-1.11125 -0.740833,-0.48683 -0.910167,-0.67733 -0.28575,-0.33867 -0.28575,-0.762 0,-0.42333 0.201084,-0.8255 0.201083,-0.40217 0.5715,-0.68792 0.772583,-0.59266 2.116666,-0.59266 0.687917,0 1.090083,0.27516 0.41275,0.27517 0.41275,0.74084 0,0.46566 -0.28575,0.73025 -0.275166,0.26458 -0.783166,0.26458 -0.34925,0 -0.518583,-0.11642 z" />
    <path
       id="path1032"
       style="font-style:normal;font-variant:normal;font-weight:normal;font-stretch:normal;font-family:'Sansita One';-inkscape-font-specification:'Sansita One';text-align:center;text-anchor:middle;fill:#ffffff;stroke-width:0.26458332"
       d="m -6.0331847,151.99849 q 0,-0.28575 0.1481666,-1.00542 l 0.5609167,-2.8575 h -0.6244167 l 0.042333,-0.3175 q 1.27,-0.381 2.4976666,-1.31233 h 0.508 l -0.254,1.15358 h 0.8255 l -0.09525,0.47625 h -0.8149166 l -0.53975,2.8575 q -0.1375833,0.65617 -0.1375833,0.87842 0,0.508 0.4444999,0.61383 -0.1058333,0.35984 -0.4868333,0.5715 -0.381,0.21167 -0.9207499,0.21167 -0.53975,0 -0.8466667,-0.33867 -0.3069166,-0.33866 -0.3069163,-0.93133 z" />
    <path
       id="path1034"
       style="font-style:normal;font-variant:normal;font-weight:normal;font-stretch:normal;font-family:'Sansita One';-inkscape-font-specification:'Sansita One';text-align:center;text-anchor:middle;fill:#ffffff;stroke-width:0.26458332"
       d="m -0.11263663,153.26849 q -2.32833327,0 -2.32833327,-2.19075 0,-1.55575 0.85725,-2.56117 0.91016662,-1.06891 2.48708323,-1.06891 1.14299997,0 1.72508327,0.52916 0.5820833,0.52917 0.5820833,1.64042 0,1.69333 -0.9101666,2.67758 -0.889,0.97367 -2.41299993,0.97367 z m 0.27516665,-4.60375 q -0.12699999,0.28575 -0.23283332,0.71967 -0.09525,0.42333 -0.22225,1.10066 -0.12699999,0.67734 -0.12699999,1.51342 0,0.27517 0.0846667,0.45508 0.09525,0.17992 0.33866666,0.17992 0.24341666,0 0.39158332,-0.11642 0.15875,-0.11641 0.27516666,-0.39158 0.21166666,-0.48683 0.38099995,-1.38642 0.1693333,-0.91016 0.1799167,-1.30175 0.021167,-0.39158 0.021167,-0.67733 0,-0.29633 -0.084667,-0.48683 -0.084667,-0.1905 -0.32808332,-0.1905 -0.23283333,0 -0.39158332,0.14816 -0.15875,0.14817 -0.28575004,0.43392 z" />
    <path
       id="path1036"
       style="font-style:normal;font-variant:normal;font-weight:normal;font-stretch:normal;font-family:'Sansita One';-inkscape-font-specification:'Sansita One';text-align:center;text-anchor:middle;fill:#ffffff;stroke-width:0.26458332"
       d="m 8.0889507,153.05682 1.2064999,-6.43466 0.1164167,-0.55034 h 2.2648337 l -1.3335,6.985 z m 6.5510833,-0.62441 q -0.28575,0.83608 -1.386417,0.83608 -0.814916,0 -1.375833,-0.97367 -0.5715,-0.97366 -0.677333,-2.56116 1.164166,-2.12725 1.9685,-3.00567 0.772583,-0.83608 1.576916,-0.83608 0.433917,0 0.740833,0.23283 0.3175,0.23283 0.391584,0.60325 -0.359834,0.14817 -0.529167,0.26458 -0.423333,0.3175 -0.994833,1.02659 l -0.963083,1.15358 q -0.232834,0.27517 -0.328084,0.40217 0.15875,0.889 0.635,1.76741 0.455083,0.83609 0.941917,1.09009 z" />
    <path
       id="path1038"
       style="font-style:normal;font-variant:normal;font-weight:normal;font-stretch:normal;font-family:'Sansita One';-inkscape-font-specification:'Sansita One';text-align:center;text-anchor:middle;fill:#ffffff;stroke-width:0.26458332"
       d="m 20.019669,153.26849 q -1.280583,0 -1.280583,-0.99483 0.01058,-0.27517 0.09525,-0.74084 l 0.1905,-0.97366 q 0.28575,-1.37584 0.28575,-1.68275 0,-0.61384 -0.359833,-0.61384 -0.60325,0 -0.92075,1.57692 l -0.624417,3.21733 -2.12725,0.21167 1.100667,-5.61975 1.735666,-0.20108 -0.169333,1.03716 q 0.497417,-1.03716 2.021417,-1.03716 0.740833,0 1.04775,0.3175 0.3175,0.30691 0.3175,1.00541 0,0.65617 -0.338667,2.19075 -0.15875,0.68792 -0.15875,0.9525 0,0.254 0.137583,0.40217 0.148167,0.14817 0.359834,0.16933 -0.105834,0.35984 -0.47625,0.5715 -0.359834,0.21167 -0.836084,0.21167 z" />
    <path
       id="path1040"
       style="font-style:normal;font-variant:normal;font-weight:normal;font-stretch:normal;font-family:'Sansita One';-inkscape-font-specification:'Sansita One';text-align:center;text-anchor:middle;fill:#ffffff;stroke-width:0.26458332"
       d="m 24.48534,153.26849 q -2.328333,0 -2.328333,-2.19075 0,-1.55575 0.85725,-2.56117 0.910166,-1.06891 2.487083,-1.06891 1.143,0 1.725083,0.52916 0.582084,0.52917 0.582084,1.64042 0,1.69333 -0.910167,2.67758 -0.889,0.97367 -2.413,0.97367 z m 0.275167,-4.60375 q -0.127,0.28575 -0.232834,0.71967 -0.09525,0.42333 -0.22225,1.10066 -0.127,0.67734 -0.127,1.51342 0,0.27517 0.08467,0.45508 0.09525,0.17992 0.338667,0.17992 0.243416,0 0.391583,-0.11642 0.15875,-0.11641 0.275167,-0.39158 0.211666,-0.48683 0.381,-1.38642 0.169333,-0.91016 0.179916,-1.30175 0.02117,-0.39158 0.02117,-0.67733 0,-0.29633 -0.08467,-0.48683 -0.08467,-0.1905 -0.328083,-0.1905 -0.232833,0 -0.391583,0.14816 -0.15875,0.14817 -0.28575,0.43392 z" />
    <path
       id="path1042"
       style="font-style:normal;font-variant:normal;font-weight:normal;font-stretch:normal;font-family:'Sansita One';-inkscape-font-specification:'Sansita One';text-align:center;text-anchor:middle;fill:#ffffff;stroke-width:0.26458332"
       d="m 36.253844,151.28941 q -0.6985,0.96308 -1.375834,1.47108 -0.66675,0.508 -1.36525,0.508 -0.687916,0 -0.931333,-0.13758 v -2.32834 q -0.60325,1.60867 -1.68275,2.23309 -0.391583,0.23283 -0.762,0.23283 -0.709083,0 -1.016,-0.13758 -0.07408,-2.42359 -0.137583,-3.09034 -0.0635,-0.67733 -0.116417,-1.09008 -0.105833,-0.8255 -0.465666,-1.16417 0.455083,-0.33866 1.090083,-0.33866 1.227667,0 1.397,1.524 0.04233,0.35983 0.04233,0.74083 0,0.5715 -0.127,2.56117 0.254,-0.11642 0.518584,-0.52917 0.275166,-0.42333 0.497416,-0.99483 0.497417,-1.32292 0.497417,-2.46592 0,-0.17992 -0.05292,-0.37042 -0.04233,-0.1905 -0.09525,-0.24341 0.370417,-0.22225 0.931333,-0.22225 0.5715,0 0.836084,0.39158 0.275166,0.381 0.34925,1.09008 0.08467,0.89959 0.08467,1.43934 0,0.75141 -0.07408,1.86266 0.529167,-0.381 0.963083,-1.62983 0.433917,-1.24883 0.433917,-2.13783 0,-0.39159 -0.0635,-0.62442 0.34925,-0.39158 0.9525,-0.39158 0.370417,0 0.635,0.20108 0.275167,0.20108 0.275167,0.58208 0,0.37042 -0.116417,0.77259 -0.105833,0.40216 -0.28575,0.81491 -0.34925,0.8255 -0.836083,1.47109 z" />
    <path
       id="path1044"
       style="font-style:normal;font-variant:normal;font-weight:normal;font-stretch:normal;font-family:'Sansita One';-inkscape-font-specification:'Sansita One';text-align:center;text-anchor:middle;fill:#ffffff;stroke-width:0.26458332"
       d="m -61.68556,165.778 1.312333,-6.90034 2.148417,-0.21166 -0.328084,1.61925 q -0.116416,0.49741 -0.264583,0.84666 0.232833,-0.29633 0.740833,-0.41275 0.148167,-0.0423 0.328084,-0.0423 0.98425,0 1.524,0.60325 0.53975,0.59267 0.53975,1.74625 0,1.50283 -0.85725,2.44475 -0.92075,1.02658 -2.592917,1.02658 -1.153583,0 -2.021417,-0.381 -0.306916,-0.13758 -0.529166,-0.33866 z m 2.12725,-0.0952 q 0.22225,0.1905 0.497416,0.1905 0.275167,0 0.433917,-0.10584 0.15875,-0.10583 0.275167,-0.3175 0.3175,-0.5715 0.5715,-2.31775 0.07408,-0.49741 0.07408,-0.99483 0,-0.49742 -0.116417,-0.65617 -0.105833,-0.15875 -0.3175,-0.15875 -0.645583,0 -0.85725,1.25942 z" />
    <path
       id="path1046"
       style="font-style:normal;font-variant:normal;font-weight:normal;font-stretch:normal;font-family:'Sansita One';-inkscape-font-specification:'Sansita One';text-align:center;text-anchor:middle;fill:#ffffff;stroke-width:0.26458332"
       d="m -50.771167,164.49741 q 0.264583,0.17992 0.264583,0.58209 0,0.39158 -0.201083,0.64558 -0.201084,0.254 -0.529167,0.42333 -0.677333,0.34925 -1.407583,0.34925 -0.73025,0 -1.164167,-0.15875 -0.423333,-0.15875 -0.709083,-0.45508 -0.560917,-0.56092 -0.560917,-1.5875 0,-1.59808 0.867833,-2.57175 0.931334,-1.04775 2.550584,-1.04775 1.005416,0 1.502833,0.42333 0.370417,0.3175 0.370417,0.83609 0,1.86266 -3.217334,1.86266 -0.04233,0.27517 -0.04233,0.508 0,0.48684 0.211667,0.67734 0.22225,0.17991 0.624416,0.17991 0.402167,0 0.8255,-0.17991 0.433917,-0.1905 0.613834,-0.48684 z m -2.159,-1.15358 q 0.751416,0 1.185333,-0.46567 0.433917,-0.4445 0.433917,-1.15358 0,-0.24342 -0.09525,-0.37042 -0.08467,-0.13758 -0.264584,-0.13758 -0.179916,0 -0.338666,0.0741 -0.148167,0.0635 -0.306917,0.29634 -0.391583,0.52916 -0.613833,1.75683 z" />
    <path
       id="path1048"
       style="font-style:normal;font-variant:normal;font-weight:normal;font-stretch:normal;font-family:'Sansita One';-inkscape-font-specification:'Sansita One';text-align:center;text-anchor:middle;fill:#ffffff;stroke-width:0.26458332"
       d="m -45.307522,160.14766 q 0.148167,-0.254 0.148167,-0.52916 0,-0.48684 -0.296334,-0.48684 -0.455083,0 -0.645583,0.93134 l -0.15875,0.8255 h 0.963083 l -0.0635,0.47625 h -0.994833 l -0.9525,4.92125 -2.137833,0.21166 1.016,-5.13291 h -0.751417 l 0.09525,-0.47625 h 0.740834 l 0.22225,-0.83609 q 0.1905,-0.77258 1.005416,-1.13241 0.592667,-0.254 1.5875,-0.254 0.994833,0 1.439333,0.254 0.4445,0.254 0.4445,0.59266 0,0.33867 -0.264583,0.55034 -0.264583,0.21166 -0.560917,0.21166 -0.582083,0 -0.836083,-0.127 z" />
    <path
       id="path1050"
       style="font-style:normal;font-variant:normal;font-weight:normal;font-stretch:normal;font-family:'Sansita One';-inkscape-font-specification:'Sansita One';text-align:center;text-anchor:middle;fill:#ffffff;stroke-width:0.26458332"
       d="m -43.159105,166.49766 q -2.328333,0 -2.328333,-2.19075 0,-1.55575 0.85725,-2.56116 0.910166,-1.06892 2.487083,-1.06892 1.143,0 1.725083,0.52917 0.582083,0.52916 0.582083,1.64041 0,1.69334 -0.910166,2.67759 -0.889,0.97366 -2.413,0.97366 z m 0.275167,-4.60375 q -0.127,0.28575 -0.232834,0.71967 -0.09525,0.42333 -0.22225,1.10067 -0.127,0.67733 -0.127,1.51341 0,0.27517 0.08467,0.45509 0.09525,0.17991 0.338667,0.17991 0.243416,0 0.391583,-0.11641 0.15875,-0.11642 0.275166,-0.39159 0.211667,-0.48683 0.381,-1.38641 0.169334,-0.91017 0.179917,-1.30175 0.02117,-0.39159 0.02117,-0.67734 0,-0.29633 -0.08467,-0.48683 -0.08467,-0.1905 -0.328083,-0.1905 -0.232833,0 -0.391583,0.14817 -0.15875,0.14816 -0.28575,0.43391 z" />
    <path
       id="path1052"
       style="font-style:normal;font-variant:normal;font-weight:normal;font-stretch:normal;font-family:'Sansita One';-inkscape-font-specification:'Sansita One';text-align:center;text-anchor:middle;fill:#ffffff;stroke-width:0.26458332"
       d="m -35.890505,163.31208 q 0.381,-0.67733 0.381,-1.36525 0,-0.45508 -0.328083,-0.45508 -0.254,0 -0.518584,0.43391 -0.275166,0.43392 -0.359833,0.99484 l -0.550333,3.3655 -2.19075,0.21166 1.0795,-5.60916 1.74625,-0.21167 -0.1905,1.06892 q 0.518583,-1.06892 1.68275,-1.06892 0.613833,0 0.941916,0.3175 0.338667,0.3175 0.338667,0.97367 0,0.64558 -0.433917,1.05833 -0.423333,0.41275 -1.153583,0.41275 -0.3175,0 -0.4445,-0.127 z" />
    <path
       id="path1054"
       style="font-style:normal;font-variant:normal;font-weight:normal;font-stretch:normal;font-family:'Sansita One';-inkscape-font-specification:'Sansita One';text-align:center;text-anchor:middle;fill:#ffffff;stroke-width:0.26458332"
       d="m -29.397795,164.49741 q 0.264583,0.17992 0.264583,0.58209 0,0.39158 -0.201083,0.64558 -0.201084,0.254 -0.529167,0.42333 -0.677333,0.34925 -1.407583,0.34925 -0.73025,0 -1.164167,-0.15875 -0.423333,-0.15875 -0.709083,-0.45508 -0.560917,-0.56092 -0.560917,-1.5875 0,-1.59808 0.867833,-2.57175 0.931334,-1.04775 2.550584,-1.04775 1.005416,0 1.502833,0.42333 0.370417,0.3175 0.370417,0.83609 0,1.86266 -3.217334,1.86266 -0.04233,0.27517 -0.04233,0.508 0,0.48684 0.211667,0.67734 0.22225,0.17991 0.624416,0.17991 0.402167,0 0.8255,-0.17991 0.433917,-0.1905 0.613834,-0.48684 z m -2.159,-1.15358 q 0.751416,0 1.185333,-0.46567 0.433917,-0.4445 0.433917,-1.15358 0,-0.24342 -0.09525,-0.37042 -0.08467,-0.13758 -0.264584,-0.13758 -0.179916,0 -0.338666,0.0741 -0.148167,0.0635 -0.306917,0.29634 -0.391583,0.52916 -0.613833,1.75683 z" />
    <path
       id="path1056"
       style="font-style:normal;font-variant:normal;font-weight:normal;font-stretch:normal;font-family:'Sansita One';-inkscape-font-specification:'Sansita One';text-align:center;text-anchor:middle;fill:#ffffff;stroke-width:0.26458332"
       d="m -16.852245,161.89391 q 0,4.5085 -4.8895,4.5085 -0.783167,0 -2.074333,-0.1905 l 1.185333,-6.25475 q 0.08467,-0.42333 0.137583,-0.66675 1.608667,-0.11641 2.31775,-0.11641 0.719667,0 1.375833,0.14816 0.656167,0.14817 1.090084,0.47625 0.85725,0.64559 0.85725,2.0955 z m -2.180167,-0.39158 q 0,-1.57692 -1.132417,-1.57692 h -0.105833 q -0.05292,0 -0.105833,0.0106 l -1.090083,5.68325 q 0.04233,0.0212 0.08467,0.0212 h 0.08467 q 0.391583,0 0.79375,-0.24341 0.41275,-0.24342 0.73025,-0.74084 0.740833,-1.15358 0.740833,-3.15383 z" />
    <path
       id="path1058"
       style="font-style:normal;font-variant:normal;font-weight:normal;font-stretch:normal;font-family:'Sansita One';-inkscape-font-specification:'Sansita One';text-align:center;text-anchor:middle;fill:#ffffff;stroke-width:0.26458332"
       d="m -14.013599,166.49766 q -2.328334,0 -2.328334,-2.19075 0,-1.55575 0.85725,-2.56116 0.910167,-1.06892 2.487084,-1.06892 1.143,0 1.725083,0.52917 0.582083,0.52916 0.582083,1.64041 0,1.69334 -0.910166,2.67759 -0.889,0.97366 -2.413,0.97366 z m 0.275166,-4.60375 q -0.127,0.28575 -0.232833,0.71967 -0.09525,0.42333 -0.22225,1.10067 -0.127,0.67733 -0.127,1.51341 0,0.27517 0.08467,0.45509 0.09525,0.17991 0.338666,0.17991 0.243417,0 0.391584,-0.11641 0.15875,-0.11642 0.275166,-0.39159 0.211667,-0.48683 0.381,-1.38641 0.169334,-0.91017 0.179917,-1.30175 0.02117,-0.39159 0.02117,-0.67734 0,-0.29633 -0.08467,-0.48683 -0.08467,-0.1905 -0.328083,-0.1905 -0.232834,0 -0.391584,0.14817 -0.15875,0.14816 -0.28575,0.43391 z" />
    <path
       id="path1060"
       style="font-style:normal;font-variant:normal;font-weight:normal;font-stretch:normal;font-family:'Sansita One';-inkscape-font-specification:'Sansita One';text-align:center;text-anchor:middle;fill:#ffffff;stroke-width:0.26458332"
       d="m -2.2450956,164.51858 q -0.6984999,0.96308 -1.3758333,1.47108 -0.6667499,0.508 -1.3652499,0.508 -0.6879167,0 -0.9313333,-0.13758 v -2.32833 q -0.60325,1.60866 -1.68275,2.23308 -0.3915833,0.23283 -0.7619999,0.23283 -0.7090834,0 -1.016,-0.13758 -0.074083,-2.42358 -0.1375833,-3.09033 -0.0635,-0.67734 -0.1164167,-1.09009 -0.1058333,-0.8255 -0.465667,-1.16416 0.4550837,-0.33867 1.0900836,-0.33867 1.2276667,0 1.397,1.524 0.042333,0.35983 0.042333,0.74083 0,0.5715 -0.127,2.56117 0.254,-0.11642 0.5185834,-0.52917 0.2751666,-0.42333 0.4974166,-0.99483 0.4974167,-1.32292 0.4974167,-2.46592 0,-0.17991 -0.052917,-0.37041 -0.042333,-0.1905 -0.09525,-0.24342 0.3704166,-0.22225 0.9313333,-0.22225 0.5715,0 0.8360833,0.39158 0.2751667,0.381 0.34925,1.09009 0.084667,0.89958 0.084667,1.43933 0,0.75142 -0.074083,1.86267 0.5291667,-0.381 0.9630833,-1.62984 0.4339167,-1.24883 0.4339167,-2.13783 0,-0.39158 -0.0635,-0.62442 0.34925,-0.39158 0.9525,-0.39158 0.3704166,0 0.6349999,0.20108 0.2751667,0.20109 0.2751667,0.58209 0,0.37041 -0.1164167,0.77258 -0.1058333,0.40217 -0.28575,0.81492 -0.3492499,0.8255 -0.8360834,1.47108 z" />
    <path
       id="path1062"
       style="font-style:normal;font-variant:normal;font-weight:normal;font-stretch:normal;font-family:'Sansita One';-inkscape-font-specification:'Sansita One';text-align:center;text-anchor:middle;fill:#ffffff;stroke-width:0.26458332"
       d="m 3.7622691,166.49766 q -1.2805833,0 -1.2805833,-0.99483 0.010583,-0.27517 0.09525,-0.74083 l 0.1905,-0.97367 q 0.28575,-1.37583 0.28575,-1.68275 0,-0.61383 -0.3598333,-0.61383 -0.60325,0 -0.92075,1.57691 l -0.6244166,3.21734 -2.12724997,0.21166 1.10066664,-5.61975 1.73566663,-0.20108 -0.1693333,1.03717 q 0.4974166,-1.03717 2.0214166,-1.03717 0.7408333,0 1.0477499,0.3175 0.3175,0.30692 0.3175,1.00542 0,0.65616 -0.3386666,2.19075 -0.15875,0.68791 -0.15875,0.9525 0,0.254 0.1375833,0.40216 0.1481667,0.14817 0.3598333,0.16934 -0.1058333,0.35983 -0.47625,0.5715 -0.3598333,0.21166 -0.8360833,0.21166 z" />
    <path
       id="path1064"
       style="font-style:normal;font-variant:normal;font-weight:normal;font-stretch:normal;font-family:'Sansita One';-inkscape-font-specification:'Sansita One';text-align:center;text-anchor:middle;fill:#ffffff;stroke-width:0.26458332"
       d="m 8.4501898,165.70391 q -0.3280834,0.79375 -1.3758333,0.79375 -0.5291667,0 -0.8678333,-0.37041 -0.2751667,-0.30692 -0.2751667,-0.65617 0,-0.79375 0.3704167,-2.52942 l 0.7725833,-4.064 2.1484166,-0.21166 -1.0265833,5.35516 q -0.1799167,0.78317 -0.1799167,1.05834 0,0.60325 0.4339167,0.62441 z" />
    <path
       id="path1066"
       style="font-style:normal;font-variant:normal;font-weight:normal;font-stretch:normal;font-family:'Sansita One';-inkscape-font-specification:'Sansita One';text-align:center;text-anchor:middle;fill:#ffffff;stroke-width:0.26458332"
       d="m 11.659252,166.49766 q -2.3283329,0 -2.3283329,-2.19075 0,-1.55575 0.8572499,-2.56116 0.910167,-1.06892 2.487083,-1.06892 1.143,0 1.725084,0.52917 0.582083,0.52916 0.582083,1.64041 0,1.69334 -0.910167,2.67759 -0.889,0.97366 -2.413,0.97366 z m 0.275167,-4.60375 q -0.127,0.28575 -0.232833,0.71967 -0.09525,0.42333 -0.22225,1.10067 -0.127,0.67733 -0.127,1.51341 0,0.27517 0.08467,0.45509 0.09525,0.17991 0.338667,0.17991 0.243417,0 0.391583,-0.11641 0.15875,-0.11642 0.275167,-0.39159 0.211667,-0.48683 0.381,-1.38641 0.169333,-0.91017 0.179917,-1.30175 0.02117,-0.39159 0.02117,-0.67734 0,-0.29633 -0.08467,-0.48683 -0.08467,-0.1905 -0.328084,-0.1905 -0.232833,0 -0.391583,0.14817 -0.15875,0.14816 -0.28575,0.43391 z" />
    <path
       id="path1068"
       style="font-style:normal;font-variant:normal;font-weight:normal;font-stretch:normal;font-family:'Sansita One';-inkscape-font-specification:'Sansita One';text-align:center;text-anchor:middle;fill:#ffffff;stroke-width:0.26458332"
       d="m 16.070353,165.9685 q -0.243417,-0.27517 -0.359834,-0.70909 -0.105833,-0.43391 -0.105833,-1.143 0,-0.70908 0.243417,-1.35466 0.243416,-0.64559 0.687916,-1.11125 0.910167,-0.97367 2.413,-0.97367 0.53975,0 0.931334,0.17992 l 1.809749,-0.17992 -0.783166,4.1275 q -0.03175,0.127 -0.03175,0.35983 0,0.23284 0.137583,0.381 0.148167,0.14817 0.359833,0.16934 -0.105833,0.35983 -0.497416,0.5715 -0.381,0.21166 -0.814917,0.21166 -0.433916,0 -0.73025,-0.16933 -0.28575,-0.15875 -0.370416,-0.43392 -0.169334,0.26459 -0.529167,0.43392 -0.359833,0.16933 -0.846667,0.16933 -0.47625,0 -0.867833,-0.127 -0.391583,-0.127 -0.645583,-0.40216 z m 2.233083,-4.29684 q -0.116417,0.1905 -0.22225,0.51859 -0.105833,0.3175 -0.28575,1.18533 -0.169333,0.85725 -0.169333,1.47108 0,0.61384 0.09525,0.79375 0.09525,0.17992 0.264583,0.17992 0.338667,0 0.582083,-0.3175 0.254,-0.32808 0.34925,-0.89958 l 0.560917,-3.10092 q -0.22225,-0.1905 -0.486833,-0.1905 -0.254,0 -0.41275,0.0847 -0.148167,0.0847 -0.275167,0.27516 z" />
    <path
       id="path1070"
       style="font-style:normal;font-variant:normal;font-weight:normal;font-stretch:normal;font-family:'Sansita One';-inkscape-font-specification:'Sansita One';text-align:center;text-anchor:middle;fill:#ffffff;stroke-width:0.26458332"
       d="m 25.563605,160.67683 q 0.381,0 0.677333,0.0847 0.01058,-0.0423 0.03175,-0.15875 l 0.05292,-0.32809 q 0.04233,-0.21166 0.105833,-0.56091 l 0.169334,-0.83609 2.106083,-0.21166 -1.17475,6.13833 q -0.01058,0.0635 -0.01058,0.16933 v 0.16934 q 0,0.23283 0.116416,0.41275 0.116417,0.16933 0.306917,0.16933 -0.211667,0.49742 -0.85725,0.70908 -0.22225,0.0635 -0.53975,0.0635 -0.306917,0 -0.592667,-0.16933 -0.28575,-0.15875 -0.370416,-0.43392 -0.169334,0.27517 -0.508,0.43392 -0.338667,0.16933 -0.836084,0.16933 -0.486833,0 -0.899583,-0.127 -0.402166,-0.127 -0.656166,-0.40216 -0.465667,-0.53975 -0.465667,-1.76742 0,-1.5875 0.931333,-2.55058 0.931333,-0.97367 2.413,-0.97367 z m -0.07408,0.635 q -0.391584,0 -0.60325,0.42333 -0.211667,0.42334 -0.433917,1.47109 -0.211667,1.04775 -0.211667,1.98966 0,0.64559 0.381,0.64559 0.338667,0 0.5715,-0.33867 0.243417,-0.33867 0.338667,-0.89958 l 0.5715,-3.10092 q -0.22225,-0.1905 -0.613833,-0.1905 z" />
    <path
       id="path1072"
       style="font-style:normal;font-variant:normal;font-weight:normal;font-stretch:normal;font-family:'Sansita One';-inkscape-font-specification:'Sansita One';text-align:center;text-anchor:middle;fill:#ffffff;stroke-width:0.26458332"
       d="m 31.384433,165.70391 q -0.328083,0.79375 -1.375833,0.79375 -0.53975,0 -0.878417,-0.37041 -0.28575,-0.32809 -0.28575,-0.65617 0,-0.85725 0.391584,-2.52942 l 0.391583,-2.05316 2.148417,-0.21167 -0.645584,3.34433 q -0.179916,0.78317 -0.179916,1.05834 0,0.60325 0.433916,0.62441 z m -1.566333,-6.2865 q 0,-0.41275 0.338667,-0.635 0.34925,-0.22225 0.846666,-0.22225 0.497417,0 0.79375,0.22225 0.306917,0.22225 0.306917,0.635 0,0.41275 -0.338667,0.62442 -0.328083,0.21167 -0.8255,0.21167 -0.497416,0 -0.814916,-0.21167 -0.306917,-0.21167 -0.306917,-0.62442 z" />
    <path
       id="path1074"
       style="font-style:normal;font-variant:normal;font-weight:normal;font-stretch:normal;font-family:'Sansita One';-inkscape-font-specification:'Sansita One';text-align:center;text-anchor:middle;fill:#ffffff;stroke-width:0.26458332"
       d="m 36.752503,166.49766 q -1.280583,0 -1.280583,-0.99483 0.01058,-0.27517 0.09525,-0.74083 l 0.1905,-0.97367 q 0.28575,-1.37583 0.28575,-1.68275 0,-0.61383 -0.359833,-0.61383 -0.60325,0 -0.92075,1.57691 l -0.624417,3.21734 -2.12725,0.21166 1.100667,-5.61975 1.735667,-0.20108 -0.169334,1.03717 q 0.497417,-1.03717 2.021417,-1.03717 0.740833,0 1.04775,0.3175 0.3175,0.30692 0.3175,1.00542 0,0.65616 -0.338667,2.19075 -0.15875,0.68791 -0.15875,0.9525 0,0.254 0.137583,0.40216 0.148167,0.14817 0.359834,0.16934 -0.105834,0.35983 -0.47625,0.5715 -0.359834,0.21166 -0.836084,0.21166 z" />
    <path
       id="path1076"
       style="font-style:normal;font-variant:normal;font-weight:normal;font-stretch:normal;font-family:'Sansita One';-inkscape-font-specification:'Sansita One';text-align:center;text-anchor:middle;fill:#ffffff;stroke-width:0.26458332"
       d="m 39.662424,161.86216 q 0.359834,-0.508 0.899583,-0.84666 0.550334,-0.33867 1.217084,-0.33867 0.66675,0 0.98425,0.21167 l 2.074333,-0.21167 -0.719667,4.064 q -0.370416,2.07433 -1.153583,2.88925 -0.751417,0.77258 -2.211917,0.77258 -1.111249,0 -1.746249,-0.34925 -0.635,-0.34925 -0.635,-0.93133 0,-0.43392 0.328083,-0.68792 0.328083,-0.24341 0.836083,-0.24341 0.4445,0 0.783167,0.20108 0.201083,0.10583 0.296333,0.254 -0.243417,0.21167 -0.243417,0.56092 0,0.45508 0.423334,0.45508 0.709083,0 1.11125,-1.67217 0.116416,-0.45508 0.211666,-0.91016 -0.47625,0.58208 -1.55575,0.58208 -0.751416,0 -1.185333,-0.35983 -0.433916,-0.35984 -0.433916,-1.2065 0,-0.52917 0.179916,-1.12184 0.179917,-0.60325 0.53975,-1.11125 z m 1.375833,2.26484 q 0,0.71966 0.370417,0.71966 0.254,0 0.497417,-0.27516 0.1905,-0.22225 0.264583,-0.55034 l 0.53975,-2.71991 q -0.05292,-0.0106 -0.105833,-0.0318 -0.105834,-0.0423 -0.243417,-0.0423 -0.645583,0 -1.026583,1.05834 -0.296334,0.8255 -0.296334,1.8415 z" />
    <path
       id="path1078"
       style="font-style:normal;font-variant:normal;font-weight:normal;font-stretch:normal;font-family:'Sansita One';-inkscape-font-specification:'Sansita One';text-align:center;text-anchor:middle;fill:#ffffff;stroke-width:0.26458332"
       d="m -26.682344,177.94883 q 0,-0.41275 0.105834,-0.94191 l 0.85725,-4.47675 h 2.338916 l -0.846667,4.5085 q -0.09525,0.49741 -0.09525,0.86783 0,0.35983 0.148167,0.55033 0.15875,0.1905 0.4445,0.1905 0.28575,0 0.465667,-0.0741 0.179916,-0.0741 0.328083,-0.254 0.28575,-0.35983 0.465667,-1.28058 l 0.85725,-4.5085 h 1.598083 l -0.846667,4.49791 q -0.296333,1.50284 -1.11125,2.10609 -0.79375,0.59266 -2.360083,0.59266 -1.17475,0 -1.799166,-0.508 -0.550334,-0.4445 -0.550334,-1.27 z" />
    <path
       id="path1080"
       style="font-style:normal;font-variant:normal;font-weight:normal;font-stretch:normal;font-family:'Sansita One';-inkscape-font-specification:'Sansita One';text-align:center;text-anchor:middle;fill:#ffffff;stroke-width:0.26458332"
       d="m -19.931004,179.00717 1.312333,-6.90034 2.148417,-0.21166 -0.328084,1.61925 q -0.116416,0.49741 -0.264583,0.84666 0.232834,-0.29633 0.740833,-0.41275 0.148167,-0.0423 0.328084,-0.0423 0.98425,0 1.524,0.60325 0.53975,0.59267 0.53975,1.74625 0,1.50283 -0.85725,2.44475 -0.92075,1.02658 -2.592917,1.02658 -1.153583,0 -2.021416,-0.381 -0.306917,-0.13758 -0.529167,-0.33866 z m 2.12725,-0.0952 q 0.22225,0.1905 0.497417,0.1905 0.275166,0 0.433916,-0.10584 0.15875,-0.10583 0.275167,-0.3175 0.3175,-0.5715 0.5715,-2.31775 0.07408,-0.49741 0.07408,-0.99483 0,-0.49742 -0.116417,-0.65617 -0.105833,-0.15875 -0.3175,-0.15875 -0.645583,0 -0.857249,1.25942 z" />
    <path
       id="path1082"
       style="font-style:normal;font-variant:normal;font-weight:normal;font-stretch:normal;font-family:'Sansita One';-inkscape-font-specification:'Sansita One';text-align:center;text-anchor:middle;fill:#ffffff;stroke-width:0.26458332"
       d="m -9.9056108,179.07067 q -0.5080002,0.65616 -1.7674162,0.65616 -0.656167,0 -1.132417,-0.39158 -0.47625,-0.40217 -0.47625,-0.97367 0,-0.3175 0.03175,-0.47625 l 0.709083,-3.76766 2.148417,-0.21167 -0.772583,4.08517 q -0.04233,0.23283 -0.04233,0.37041 0,0.61384 0.370417,0.61384 0.41275,0 0.709083,-0.56092 0.09525,-0.17992 0.1375835,-0.41275 l 0.7514167,-3.88408 2.0849166,-0.21167 -0.7831667,4.1275 q -0.03175,0.15875 -0.03175,0.32808 0,0.16934 0.09525,0.35984 0.09525,0.17991 0.4021667,0.22225 -0.0635,0.254 -0.28575,0.42333 -0.4656666,0.35983 -0.9736666,0.35983 -0.4974167,0 -0.79375,-0.17991 -0.2963333,-0.17992 -0.381,-0.47625 z" />
    <path
       id="path1084"
       style="font-style:normal;font-variant:normal;font-weight:normal;font-stretch:normal;font-family:'Sansita One';-inkscape-font-specification:'Sansita One';text-align:center;text-anchor:middle;fill:#ffffff;stroke-width:0.26458332"
       d="m -2.1081753,179.72683 q -1.2805833,0 -1.2805833,-0.99483 0.010583,-0.27517 0.09525,-0.74083 l 0.1905,-0.97367 q 0.28575,-1.37583 0.28575,-1.68275 0,-0.61383 -0.3598333,-0.61383 -0.60325,0 -0.92075,1.57691 l -0.6244166,3.21734 -2.12725,0.21166 1.1006667,-5.61975 1.7356666,-0.20108 -0.1693333,1.03717 q 0.4974166,-1.03717 2.0214166,-1.03717 0.7408333,0 1.0477499,0.3175 0.31750003,0.30692 0.31750003,1.00542 0,0.65616 -0.33866663,2.19075 -0.15875,0.68791 -0.15875,0.9525 0,0.254 0.1375833,0.40216 0.1481667,0.14817 0.35983333,0.16934 -0.10583333,0.35983 -0.47625003,0.5715 -0.3598333,0.21166 -0.8360833,0.21166 z" />
    <path
       id="path1086"
       style="font-style:normal;font-variant:normal;font-weight:normal;font-stretch:normal;font-family:'Sansita One';-inkscape-font-specification:'Sansita One';text-align:center;text-anchor:middle;fill:#ffffff;stroke-width:0.26458332"
       d="m 0.21966211,178.45683 q 0,-0.28575 0.14816666,-1.00541 l 0.56091665,-2.8575 H 0.30432877 l 0.0423333,-0.3175 q 1.27000003,-0.381 2.49766663,-1.31234 h 0.508 l -0.254,1.15359 h 0.8255 l -0.09525,0.47625 H 3.013662 l -0.53975,2.8575 q -0.1375833,0.65616 -0.1375833,0.87841 0,0.508 0.4445,0.61384 -0.1058333,0.35983 -0.4868333,0.5715 -0.381,0.21166 -0.92075,0.21166 -0.53974998,0 -0.84666664,-0.33866 -0.30691665,-0.33867 -0.30691665,-0.93134 z" />
    <path
       id="path1088"
       style="font-style:normal;font-variant:normal;font-weight:normal;font-stretch:normal;font-family:'Sansita One';-inkscape-font-specification:'Sansita One';text-align:center;text-anchor:middle;fill:#ffffff;stroke-width:0.26458332"
       d="m 7.2716353,179.07067 q -0.508,0.65616 -1.7674166,0.65616 -0.6561667,0 -1.1324166,-0.39158 -0.47625,-0.40217 -0.47625,-0.97367 0,-0.3175 0.03175,-0.47625 l 0.7090833,-3.76766 2.1484166,-0.21167 -0.7725833,4.08517 q -0.042333,0.23283 -0.042333,0.37041 0,0.61384 0.3704167,0.61384 0.41275,0 0.7090833,-0.56092 0.09525,-0.17992 0.1375833,-0.41275 l 0.7514167,-3.88408 2.0849163,-0.21167 -0.7831664,4.1275 q -0.03175,0.15875 -0.03175,0.32808 0,0.16934 0.09525,0.35984 0.09525,0.17991 0.4021667,0.22225 -0.0635,0.254 -0.28575,0.42333 -0.4656666,0.35983 -0.9736666,0.35983 -0.4974167,0 -0.79375,-0.17991 -0.2963333,-0.17992 -0.3810004,-0.47625 z" />
  </g>
</svg>
