<?xml version="1.0" encoding="UTF-8" standalone="no"?>
<svg
   xmlns:dc="http://purl.org/dc/elements/1.1/"
   xmlns:cc="http://creativecommons.org/ns#"
   xmlns:rdf="http://www.w3.org/1999/02/22-rdf-syntax-ns#"
   xmlns:svg="http://www.w3.org/2000/svg"
   xmlns="http://www.w3.org/2000/svg"
   xmlns:xlink="http://www.w3.org/1999/xlink"
   width="444.5mm"
   height="277.8125mm"
   viewBox="0 0 444.5 277.8125"
   version="1.1"
   id="svg3357">
  <defs
     id="defs3351">
    <linearGradient
       id="linearGradient882">
      <stop
         style="stop-color:#db4437;stop-opacity:1;"
         offset="0"
         id="stop878" />
      <stop
         id="stop886"
         offset="0"
         style="stop-color:#db6359;stop-opacity:1" />
      <stop
         style="stop-color:#e16357;stop-opacity:1"
         offset="1"
         id="stop880" />
    </linearGradient>
    <linearGradient
       id="linearGradient6114">
      <stop
         style="stop-color:#6f7c91;stop-opacity:1;"
         offset="0"
         id="stop6110" />
      <stop
         style="stop-color:#162d50;stop-opacity:1"
         offset="1"
         id="stop6112" />
    </linearGradient>
    <radialGradient
       xlink:href="#linearGradient6114"
       id="radialGradient6126"
       cx="73.77433"
       cy="66.986313"
       fx="73.77433"
       fy="66.986313"
       r="31.67275"
       gradientTransform="matrix(3.0071285,0,0,1.83657,-125.12732,-58.151445)"
       gradientUnits="userSpaceOnUse" />
    <radialGradient
       xlink:href="#linearGradient882"
       id="radialGradient884"
       cx="105.70104"
       cy="59.53125"
       fx="105.70104"
       fy="59.53125"
       r="105.70104"
       gradientTransform="matrix(2.1026284,0,0,1.3141428,0,60.673686)"
       gradientUnits="userSpaceOnUse" />
    <linearGradient
       xlink:href="#1200"
       id="linearGradient882-3"
       x1="444.12201"
       y1="139.37872"
       x2="444.5"
       y2="138.90625"
       gradientUnits="userSpaceOnUse"
       gradientTransform="translate(1e-5)" />
    <linearGradient
       id="1200">
      <stop
         style="stop-color:#e16459;stop-opacity:1"
         offset="0"
         id="stop872" />
      <stop
         style="stop-color:#db4437;stop-opacity:0;"
         offset="1"
         id="stop874" />
    </linearGradient>
    <linearGradient
       gradientUnits="userSpaceOnUse"
       y2="138.90625"
       x2="465.91299"
       y1="139.3998"
       x1="444.19131"
       id="linearGradient1019-7"
       xlink:href="#1200"
       gradientTransform="translate(-1.4e-4,4.6e-4)" />
  </defs>
  <metadata
     id="metadata3354">
    <rdf:RDF>
      <cc:Work
         rdf:about="">
        <dc:format>image/svg+xml</dc:format>
        <dc:type
           rdf:resource="http://purl.org/dc/dcmitype/StillImage" />
        <dc:title></dc:title>
      </cc:Work>
    </rdf:RDF>
  </metadata>
  <g
     id="flowRoot985"
     style="font-style:normal;font-weight:normal;font-size:40px;line-height:1.25;font-family:sans-serif;letter-spacing:0px;word-spacing:0px;fill:#000000;fill-opacity:1;stroke:none"
     transform="matrix(0.26458333,0,0,0.26458333,-483.71086,245.21432)" />
  <g
     id="flowRoot993"
     style="font-style:normal;font-weight:normal;font-size:40px;line-height:1.25;font-family:sans-serif;letter-spacing:0px;word-spacing:0px;fill:#000000;fill-opacity:1;stroke:none"
     transform="matrix(0.26458333,0,0,0.26458333,-483.71086,245.21432)" />
  <path
     style="opacity:1;fill:url(#linearGradient1019-7);fill-opacity:1;stroke:none;stroke-width:9.70262432;stroke-miterlimit:4;stroke-dasharray:none;paint-order:stroke markers fill"
     d="M 286.33187,0 H 0 V 277.8125 H 444.5 V 132.71902 Z"
     id="path1098" />
  <g
     aria-label="Antivirus in Ubuntu / Linux"
     transform="matrix(0.98207084,0,0,1.5294027,-229.76272,-749.7619)"
     style="font-style:normal;font-weight:normal;font-size:40px;line-height:1.25;font-family:sans-serif;letter-spacing:0px;word-spacing:0px;fill:#ffffff;fill-opacity:1;stroke:none"
     id="flowRoot888">
    <path
       d="m 353.36535,571.38035 q -1.04,0 -1.04,-0.64 0,-0.36 0.24,-0.56 0.24,-0.2 0.72,-0.32 2.44,-0.72 3.32,-2.68 3.6,-8.36 6.96,-17.6 0.48,-1.32 0.72,-2.24 0.24,-0.92 0.28,-1 1.48,-0.36 2.72,-0.8 1.08,-0.44 1.96,-1.4 0.2,-0.12 0.32,-0.12 0.24,0 0.32,0.24 0.28,0.6 0.4,1.08 2.64,8.48 7,21.72 0.68,2.16 3.32,2.8 0.48,0.12 0.72,0.32 0.24,0.2 0.24,0.52 0,0.28 -0.24,0.44 -0.2,0.16 -0.56,0.16 l -3.04,-0.08 q -1.84,-0.12 -3.44,-0.12 -0.76,0 -2.92,0.08 -2.24,0.08 -3.08,0.08 -0.36,0 -0.64,-0.12 -0.24,-0.16 -0.24,-0.44 0,-0.6 0.96,-0.84 1.4,-0.28 2.04,-0.68 0.64,-0.44 0.64,-1.16 0,-0.16 -0.08,-0.56 l -0.72,-2.88 -0.56,-2.12 q -0.08,-0.32 -0.24,-0.44 -0.16,-0.16 -0.48,-0.16 h -7.08 q -0.28,0 -0.44,0.16 -0.16,0.16 -0.24,0.52 -1.08,3.28 -1.4,4.44 -0.12,0.4 -0.12,0.8 0,0.8 0.6,1.28 0.6,0.48 2,0.8 0.96,0.2 0.96,0.84 0,0.56 -0.92,0.56 l -2.16,-0.04 q -1.36,-0.08 -2.2,-0.08 -0.56,0 -1.28,0.04 -0.68,0.08 -1,0.08 -1.12,0.12 -2.32,0.12 z m 14.84,-11.68 q 0.6,0 0.6,-0.28 0,-0.08 -0.08,-0.4 l -2.68,-9.04 q -0.12,-0.44 -0.24,-0.44 -0.04,0 -0.28,0.44 l -3.16,9.04 q -0.08,0.16 -0.08,0.32 0,0.36 0.72,0.36 z"
       style="font-style:normal;font-variant:normal;font-weight:bold;font-stretch:normal;font-family:'EB Garamond';-inkscape-font-specification:'EB Garamond Bold';text-align:center;text-anchor:middle;fill:#ffffff"
       id="path898" />
    <path
       d="m 382.95348,571.30035 q -0.28,0 -0.56,-0.16 -0.24,-0.16 -0.24,-0.4 0,-0.48 0.92,-0.8 0.8,-0.24 1.16,-0.52 0.36,-0.28 0.36,-1 v -9.16 q 0,-2 -1.24,-2.24 -0.44,-0.08 -0.44,-0.72 0,-0.56 0.4,-0.68 1.4,-0.32 3.04,-0.88 1.64,-0.56 2.72,-1.12 0.52,-0.32 0.72,-0.32 0.36,0 0.36,0.48 l -0.08,0.8 q -0.12,1.44 -0.12,1.48 0,0.52 0.08,0.6 1.48,-1.4 2.84,-2.08 1.4,-0.68 3.16,-0.68 2.16,0 3.52,1.56 1.4,1.56 1.4,4.16 v 8.8 q 0,0.72 0.36,1 0.36,0.28 1.16,0.52 0.8,0.28 0.8,0.8 0,0.24 -0.2,0.4 -0.2,0.16 -0.48,0.16 -1.2,0 -2.28,-0.12 -1.28,-0.08 -1.96,-0.08 -0.68,0 -1.96,0.08 -1,0.12 -2.24,0.12 -0.28,0 -0.48,-0.16 -0.2,-0.16 -0.2,-0.4 0,-0.52 0.8,-0.8 0.76,-0.24 1.08,-0.52 0.32,-0.28 0.32,-1 v -7.96 q 0,-1.52 -0.68,-2.36 -0.68,-0.88 -1.88,-0.92 -0.84,0 -1.52,0.28 -0.68,0.24 -1.44,0.76 -0.32,0.28 -0.32,0.76 v 9.44 q 0,0.72 0.32,1 0.32,0.24 1.12,0.52 0.8,0.28 0.8,0.8 0,0.24 -0.2,0.4 -0.2,0.16 -0.48,0.16 -1.2,0 -2.16,-0.12 -1.28,-0.08 -1.92,-0.08 -0.68,0 -2.04,0.08 -1.08,0.12 -2.32,0.12 z"
       style="font-style:normal;font-variant:normal;font-weight:bold;font-stretch:normal;font-family:'EB Garamond';-inkscape-font-specification:'EB Garamond Bold';text-align:center;text-anchor:middle;fill:#ffffff"
       id="path900" />
    <path
       d="m 412.10473,571.74035 q -2.6,0 -3.96,-1.32 -1.32,-1.32 -1.32,-3.8 v -9.2 q 0,-0.36 -0.28,-0.52 -0.28,-0.16 -0.96,-0.2 h -0.52 q -0.24,0 -0.44,-0.44 -0.2,-0.44 -0.2,-0.84 0,-0.28 0.24,-0.4 2,-0.72 5.84,-4.08 0.08,-0.08 0.28,-0.2 0.2,-0.16 0.36,-0.24 0.16,-0.08 0.36,-0.08 0.4,0 0.52,0.16 0.12,0.16 0.08,0.64 l -0.24,2.36 v 0.16 q 0,0.68 0.96,0.68 h 4.76 q 0.12,0 0.24,0.28 0.12,0.28 0.12,0.52 0,0.6 -0.16,1.12 -0.16,0.48 -0.36,0.48 h -3.72 q -0.92,0 -1.28,0.24 -0.32,0.2 -0.32,0.76 v 7.56 q 0,1.8 0.68,2.72 0.68,0.92 1.88,0.92 0.92,0 1.4,-0.12 0.52,-0.16 0.84,-0.32 0.36,-0.16 0.44,-0.2 0.16,-0.08 0.24,-0.08 0.2,0 0.32,0.24 0.12,0.2 0.12,0.56 0,0.28 -0.92,0.96 -0.88,0.64 -2.24,1.16 -1.36,0.52 -2.76,0.52 z"
       style="font-style:normal;font-variant:normal;font-weight:bold;font-stretch:normal;font-family:'EB Garamond';-inkscape-font-specification:'EB Garamond Bold';text-align:center;text-anchor:middle;fill:#ffffff"
       id="path902" />
    <path
       d="m 419.82473,571.30035 q -0.24,0 -0.44,-0.12 -0.2,-0.16 -0.2,-0.4 0,-0.6 0.72,-0.8 1.08,-0.24 1.48,-0.52 0.4,-0.32 0.4,-0.96 v -8.64 q 0,-1.32 -0.4,-1.92 -0.4,-0.6 -1.32,-0.72 -0.24,-0.04 -0.36,-0.24 -0.12,-0.2 -0.12,-0.48 0,-0.24 0.12,-0.44 0.16,-0.2 0.32,-0.24 1.8,-0.32 3.16,-0.88 1.4,-0.56 3.04,-1.36 0.56,-0.32 0.8,-0.32 0.24,0 0.36,0.16 0.16,0.12 0.16,0.32 l -0.16,1.48 q -0.36,3.04 -0.36,4.4 v 8.84 q 0,0.56 0.4,0.88 0.4,0.32 1.52,0.64 0.36,0.12 0.52,0.28 0.2,0.16 0.2,0.48 0,0.52 -0.6,0.52 -0.84,0 -2.44,-0.08 -1.6,-0.08 -2.28,-0.08 -0.68,0 -2.12,0.08 -1.2,0.12 -2.4,0.12 z m 4.4,-19.84 q -1.28,0 -2.2,-0.92 -0.92,-0.92 -0.92,-2.2 0,-1.36 0.92,-2.28 0.92,-0.92 2.2,-0.92 1.36,0 2.28,0.92 0.96,0.92 0.96,2.28 0,1.28 -0.96,2.2 -0.92,0.92 -2.28,0.92 z"
       style="font-style:normal;font-variant:normal;font-weight:bold;font-stretch:normal;font-family:'EB Garamond';-inkscape-font-specification:'EB Garamond Bold';text-align:center;text-anchor:middle;fill:#ffffff"
       id="path904" />
    <path
       d="m 439.7416,572.02035 q -0.2,0 -0.4,-0.32 -0.16,-0.28 -0.36,-0.72 -0.2,-0.48 -0.32,-0.72 l -0.56,-1.32 q -0.12,-0.32 -0.8,-1.92 -0.96,-2.2 -2.36,-5.16 -0.36,-0.8 -0.84,-1.8 -0.48,-1 -1,-2.2 -0.44,-0.96 -0.92,-1.52 -0.44,-0.6 -1.12,-0.84 -0.4,-0.16 -0.56,-0.32 -0.16,-0.2 -0.16,-0.52 0,-0.48 0.96,-0.48 0.4,0 2.08,0.12 0.76,0.12 1.88,0.12 1.12,0 2.08,-0.12 0.32,0 1,-0.04 0.72,-0.08 1.4,-0.08 0.36,0 0.64,0.12 0.32,0.12 0.32,0.4 0,0.28 -0.16,0.4 -0.16,0.12 -0.4,0.24 -0.24,0.08 -0.36,0.12 -0.92,0.4 -0.92,1.72 v 0.36 q 0,0.6 0.16,0.92 l 2.68,6.6 h 0.12 l 2.36,-6.32 q 0.24,-0.52 0.24,-1.28 0,-1.48 -1.28,-1.96 -0.48,-0.16 -0.68,-0.28 -0.2,-0.16 -0.2,-0.48 0,-0.28 0.28,-0.4 0.28,-0.12 0.64,-0.12 0.8,0 1.6,0.08 l 1.16,0.04 q 0.68,0 2.76,-0.12 0.96,0 0.96,0.48 0,0.32 -0.16,0.52 -0.16,0.16 -0.6,0.32 -0.72,0.24 -1.36,0.92 -0.6,0.64 -1,1.56 l -3.12,7.84 q -0.52,1.32 -1.28,2.92 -0.88,2.2 -1.48,3.24 z"
       style="font-style:normal;font-variant:normal;font-weight:bold;font-stretch:normal;font-family:'EB Garamond';-inkscape-font-specification:'EB Garamond Bold';text-align:center;text-anchor:middle;fill:#ffffff"
       id="path906" />
    <path
       d="m 450.91848,571.30035 q -0.24,0 -0.44,-0.12 -0.2,-0.16 -0.2,-0.4 0,-0.6 0.72,-0.8 1.08,-0.24 1.48,-0.52 0.4,-0.32 0.4,-0.96 v -8.64 q 0,-1.32 -0.4,-1.92 -0.4,-0.6 -1.32,-0.72 -0.24,-0.04 -0.36,-0.24 -0.12,-0.2 -0.12,-0.48 0,-0.24 0.12,-0.44 0.16,-0.2 0.32,-0.24 1.8,-0.32 3.16,-0.88 1.4,-0.56 3.04,-1.36 0.56,-0.32 0.8,-0.32 0.24,0 0.36,0.16 0.16,0.12 0.16,0.32 l -0.16,1.48 q -0.36,3.04 -0.36,4.4 v 8.84 q 0,0.56 0.4,0.88 0.4,0.32 1.52,0.64 0.36,0.12 0.52,0.28 0.2,0.16 0.2,0.48 0,0.52 -0.6,0.52 -0.84,0 -2.44,-0.08 -1.6,-0.08 -2.28,-0.08 -0.68,0 -2.12,0.08 -1.2,0.12 -2.4,0.12 z m 4.4,-19.84 q -1.28,0 -2.2,-0.92 -0.92,-0.92 -0.92,-2.2 0,-1.36 0.92,-2.28 0.92,-0.92 2.2,-0.92 1.36,0 2.28,0.92 0.96,0.92 0.96,2.28 0,1.28 -0.96,2.2 -0.92,0.92 -2.28,0.92 z"
       style="font-style:normal;font-variant:normal;font-weight:bold;font-stretch:normal;font-family:'EB Garamond';-inkscape-font-specification:'EB Garamond Bold';text-align:center;text-anchor:middle;fill:#ffffff"
       id="path908" />
    <path
       d="m 462.91535,571.30035 q -0.36,0 -0.6,-0.12 -0.2,-0.16 -0.2,-0.44 0,-0.32 0.2,-0.48 0.24,-0.2 0.72,-0.32 0.88,-0.28 1.16,-0.6 0.32,-0.32 0.32,-0.92 v -9.2 q 0,-0.92 -0.28,-1.4 -0.24,-0.52 -0.92,-0.72 -0.52,-0.16 -0.52,-0.72 0,-0.56 0.48,-0.68 1.28,-0.28 2.8,-0.8 1.56,-0.56 2.64,-1.08 0.6,-0.44 0.92,-0.44 0.36,0 0.36,0.44 l -0.12,3.16 q 0,0.36 0.16,0.36 1.04,-1.44 2.4,-2.44 1.36,-1.04 2.68,-1.04 1.32,0 1.92,0.52 0.64,0.48 0.64,1.36 0,0.96 -0.76,2.04 -0.72,1.04 -1.56,1.04 -0.52,0 -1.56,-0.56 -0.16,-0.08 -0.68,-0.28 -0.48,-0.24 -0.8,-0.24 -2.56,0 -2.56,3.8 v 6.52 q 0,0.76 0.48,1.16 0.48,0.4 1.64,0.72 0.88,0.24 0.88,0.8 0,0.24 -0.2,0.4 -0.2,0.16 -0.48,0.16 -1.28,0 -2.56,-0.12 -1.6,-0.08 -2.24,-0.08 -0.68,0 -2.04,0.08 -1.08,0.12 -2.32,0.12 z"
       style="font-style:normal;font-variant:normal;font-weight:bold;font-stretch:normal;font-family:'EB Garamond';-inkscape-font-specification:'EB Garamond Bold';text-align:center;text-anchor:middle;fill:#ffffff"
       id="path910" />
    <path
       d="m 491.63785,572.02035 q -0.32,0 -0.32,-0.4 0,-0.56 0.12,-1.28 l 0.08,-1.24 q 0,-0.36 -0.08,-0.44 -1.12,1.36 -2.84,2.24 -1.68,0.88 -3.48,0.88 -1.88,0 -3.16,-1.6 -1.24,-1.64 -1.24,-4.04 v -7.48 q 0,-1 -0.36,-1.52 -0.36,-0.56 -1.24,-0.72 -0.24,-0.04 -0.44,-0.2 -0.16,-0.2 -0.16,-0.56 0,-0.64 0.6,-0.68 2.6,-0.12 5.8,-0.96 0.16,-0.04 0.4,-0.08 0.28,-0.08 0.44,-0.08 0.56,0 0.52,0.56 -0.32,1.64 -0.32,3.08 v 7.68 q 0,1.44 0.68,2.32 0.68,0.88 1.76,0.92 1.56,0 2.44,-0.88 0.32,-0.28 0.56,-0.88 0.24,-0.64 0.24,-1.6 v -6.44 q 0,-1 -0.6,-1.56 -0.6,-0.6 -1.56,-0.68 -0.48,-0.04 -0.72,-0.24 -0.24,-0.2 -0.24,-0.64 0,-0.4 0.28,-0.6 0.28,-0.2 0.68,-0.2 3.04,-0.2 4.32,-0.32 1.28,-0.12 2.4,-0.4 0.48,-0.12 0.52,-0.12 0.6,0 0.6,0.48 0,0.12 -0.16,0.6 -0.08,0.48 -0.2,1.4 -0.08,0.92 -0.08,1.4 v 9.28 q 0,1.52 0.72,1.52 l 1.12,0.04 q 0.36,0 0.56,0.2 0.2,0.2 0.2,0.52 0,0.4 -0.16,0.6 -0.12,0.2 -0.52,0.24 -2.96,0.28 -6.12,1.6 -0.12,0.04 -0.48,0.16 -0.32,0.12 -0.56,0.12 z"
       style="font-style:normal;font-variant:normal;font-weight:bold;font-stretch:normal;font-family:'EB Garamond';-inkscape-font-specification:'EB Garamond Bold';text-align:center;text-anchor:middle;fill:#ffffff"
       id="path912" />
    <path
       d="m 506.4291,571.74035 q -2.88,0 -4.8,-1.36 -0.36,-0.56 -0.52,-1.8 -0.16,-1.28 -0.12,-2.76 0,-0.48 0.8,-0.48 0.28,0 0.52,0.2 0.24,0.16 0.32,0.4 0.84,1.92 1.84,3 1,1.04 2.32,1.04 1,0 1.6,-0.64 0.6,-0.64 0.6,-1.52 0,-0.96 -0.72,-1.64 -0.72,-0.68 -2.08,-1.4 -2.12,-1.08 -3.36,-2.4 -1.2,-1.32 -1.2,-3.32 0,-2.32 1.84,-3.76 1.84,-1.44 4.6,-1.44 1.2,0 2.32,0.28 1.16,0.28 1.64,0.6 0.32,0.4 0.52,1.52 0.2,1.08 0.2,2.4 0,0.2 -0.24,0.32 -0.2,0.12 -0.48,0.12 -0.28,0 -0.6,-0.2 -0.28,-0.2 -0.36,-0.4 -0.52,-1.56 -1.36,-2.32 -0.8,-0.8 -1.8,-0.8 -0.92,0 -1.64,0.6 -0.68,0.56 -0.68,1.48 0,0.76 0.68,1.44 0.72,0.64 2.04,1.36 2.72,1.44 3.76,2.68 1.08,1.24 1.08,3.28 0,2.64 -1.76,4.08 -1.72,1.44 -4.96,1.44 z"
       style="font-style:normal;font-variant:normal;font-weight:bold;font-stretch:normal;font-family:'EB Garamond';-inkscape-font-specification:'EB Garamond Bold';text-align:center;text-anchor:middle;fill:#ffffff"
       id="path914" />
    <path
       d="m 525.13723,571.30035 q -0.24,0 -0.44,-0.12 -0.2,-0.16 -0.2,-0.4 0,-0.6 0.72,-0.8 1.08,-0.24 1.48,-0.52 0.4,-0.32 0.4,-0.96 v -8.64 q 0,-1.32 -0.4,-1.92 -0.4,-0.6 -1.32,-0.72 -0.24,-0.04 -0.36,-0.24 -0.12,-0.2 -0.12,-0.48 0,-0.24 0.12,-0.44 0.16,-0.2 0.32,-0.24 1.8,-0.32 3.16,-0.88 1.4,-0.56 3.04,-1.36 0.56,-0.32 0.8,-0.32 0.24,0 0.36,0.16 0.16,0.12 0.16,0.32 l -0.16,1.48 q -0.36,3.04 -0.36,4.4 v 8.84 q 0,0.56 0.4,0.88 0.4,0.32 1.52,0.64 0.36,0.12 0.52,0.28 0.2,0.16 0.2,0.48 0,0.52 -0.6,0.52 -0.84,0 -2.44,-0.08 -1.6,-0.08 -2.28,-0.08 -0.68,0 -2.12,0.08 -1.2,0.12 -2.4,0.12 z m 4.4,-19.84 q -1.28,0 -2.2,-0.92 -0.92,-0.92 -0.92,-2.2 0,-1.36 0.92,-2.28 0.92,-0.92 2.2,-0.92 1.36,0 2.28,0.92 0.96,0.92 0.96,2.28 0,1.28 -0.96,2.2 -0.92,0.92 -2.28,0.92 z"
       style="font-style:normal;font-variant:normal;font-weight:bold;font-stretch:normal;font-family:'EB Garamond';-inkscape-font-specification:'EB Garamond Bold';text-align:center;text-anchor:middle;fill:#ffffff"
       id="path916" />
    <path
       d="m 537.0941,571.30035 q -0.28,0 -0.56,-0.16 -0.24,-0.16 -0.24,-0.4 0,-0.48 0.92,-0.8 0.8,-0.24 1.16,-0.52 0.36,-0.28 0.36,-1 v -9.16 q 0,-2 -1.24,-2.24 -0.44,-0.08 -0.44,-0.72 0,-0.56 0.4,-0.68 1.4,-0.32 3.04,-0.88 1.64,-0.56 2.72,-1.12 0.52,-0.32 0.72,-0.32 0.36,0 0.36,0.48 l -0.08,0.8 q -0.12,1.44 -0.12,1.48 0,0.52 0.08,0.6 1.48,-1.4 2.84,-2.08 1.4,-0.68 3.16,-0.68 2.16,0 3.52,1.56 1.4,1.56 1.4,4.16 v 8.8 q 0,0.72 0.36,1 0.36,0.28 1.16,0.52 0.8,0.28 0.8,0.8 0,0.24 -0.2,0.4 -0.2,0.16 -0.48,0.16 -1.2,0 -2.28,-0.12 -1.28,-0.08 -1.96,-0.08 -0.68,0 -1.96,0.08 -1,0.12 -2.24,0.12 -0.28,0 -0.48,-0.16 -0.2,-0.16 -0.2,-0.4 0,-0.52 0.8,-0.8 0.76,-0.24 1.08,-0.52 0.32,-0.28 0.32,-1 v -7.96 q 0,-1.52 -0.68,-2.36 -0.68,-0.88 -1.88,-0.92 -0.84,0 -1.52,0.28 -0.68,0.24 -1.44,0.76 -0.32,0.28 -0.32,0.76 v 9.44 q 0,0.72 0.32,1 0.32,0.24 1.12,0.52 0.8,0.28 0.8,0.8 0,0.24 -0.2,0.4 -0.2,0.16 -0.48,0.16 -1.2,0 -2.16,-0.12 -1.28,-0.08 -1.92,-0.08 -0.68,0 -2.04,0.08 -1.08,0.12 -2.32,0.12 z"
       style="font-style:normal;font-variant:normal;font-weight:bold;font-stretch:normal;font-family:'EB Garamond';-inkscape-font-specification:'EB Garamond Bold';text-align:center;text-anchor:middle;fill:#ffffff"
       id="path918" />
    <path
       d="m 336.27254,622.21563 q -5.52,0 -8.44,-2.88 -2.88,-2.88 -2.88,-7.8 v -11.4 q 0,-1.16 -0.56,-2.04 -0.52,-0.88 -1.48,-1.16 -1.12,-0.32 -1.12,-0.88 0,-0.28 0.28,-0.44 0.32,-0.16 0.76,-0.16 1.36,0 2.68,0.12 1.76,0.08 2.52,0.08 0.72,0 2.72,-0.08 1.92,-0.08 2.68,-0.08 1.08,0 1.08,0.6 0,0.28 -0.32,0.48 -0.28,0.16 -0.76,0.36 -0.48,0.16 -0.8,0.32 -0.68,0.28 -1.08,1.04 -0.4,0.76 -0.4,2.04 v 10.48 q 0,3.92 1.8,5.92 1.84,2 4.68,2 3.64,0 5.4,-2.16 1.8,-2.2 1.8,-6.6 l 0.04,-5.04 q 0,-1.8 -0.04,-2.6 -0.04,-2.6 -0.52,-3.64 -0.44,-1.04 -1.6,-1.64 -0.24,-0.12 -0.68,-0.24 -0.44,-0.16 -0.68,-0.32 -0.24,-0.16 -0.24,-0.4 0,-0.56 1.2,-0.56 l 2.36,0.04 q 0.48,0.04 1.48,0.04 0.72,0 1.76,-0.08 1.12,-0.08 1.84,-0.08 1.04,0 1.04,0.6 0,0.52 -1.08,0.84 -1.32,0.36 -1.88,1.2 -0.52,0.84 -0.6,2.32 -0.2,5.04 -0.2,10.76 0,3.2 -1.44,5.72 -1.44,2.52 -3.92,3.92 -2.44,1.4 -5.4,1.4 z"
       style="font-style:normal;font-variant:normal;font-weight:bold;font-stretch:normal;font-family:'EB Garamond';-inkscape-font-specification:'EB Garamond Bold';text-align:center;text-anchor:middle;fill:#ffffff"
       id="path920" />
    <path
       d="m 362.11816,622.21563 q -1.6,0 -3.92,-0.6 -1.52,-0.44 -1.92,-0.44 -0.64,0 -1.44,0.52 -0.36,0.28 -0.56,0.28 -0.36,0 -0.56,-0.16 -0.16,-0.12 -0.16,-0.36 0,-0.28 0.2,-1.4 0.24,-1.16 0.2,-2.6 l -0.16,-17.8 q 0,-1.2 -0.36,-1.92 -0.32,-0.76 -1.2,-0.96 -0.48,-0.08 -0.48,-0.64 0,-0.2 0.12,-0.36 0.12,-0.16 0.32,-0.2 1.76,-0.32 6,-1.96 0.4,-0.16 0.56,-0.16 0.44,0 0.44,0.48 0,0.28 -0.12,1.08 -0.08,0.8 -0.08,1.44 v 8.56 q 0,1.12 0.36,1.12 1.24,-0.84 2.56,-1.28 1.36,-0.48 2.56,-0.48 2.08,0 3.76,1.08 1.68,1.08 2.64,3 1,1.88 1,4.2 0,2.8 -1.24,5 -1.2,2.16 -3.44,3.36 -2.2,1.2 -5.08,1.2 z m 0.72,-1.68 q 1.56,0 2.48,-1.96 0.96,-2 0.96,-4.88 0,-2.76 -1.04,-4.92 -1.04,-2.16 -3,-2.16 -0.84,0 -1.76,0.24 -0.92,0.24 -1.48,0.68 v 8.52 q 0,1.92 1.12,3.2 1.16,1.28 2.72,1.28 z"
       style="font-style:normal;font-variant:normal;font-weight:bold;font-stretch:normal;font-family:'EB Garamond';-inkscape-font-specification:'EB Garamond Bold';text-align:center;text-anchor:middle;fill:#ffffff"
       id="path922" />
    <path
       d="m 386.67691,622.49563 q -0.32,0 -0.32,-0.4 0,-0.56 0.12,-1.28 l 0.08,-1.24 q 0,-0.36 -0.08,-0.44 -1.12,1.36 -2.84,2.24 -1.68,0.88 -3.48,0.88 -1.88,0 -3.16,-1.6 -1.24,-1.64 -1.24,-4.04 v -7.48 q 0,-1 -0.36,-1.52 -0.36,-0.56 -1.24,-0.72 -0.24,-0.04 -0.44,-0.2 -0.16,-0.2 -0.16,-0.56 0,-0.64 0.6,-0.68 2.6,-0.12 5.8,-0.96 0.16,-0.04 0.4,-0.08 0.28,-0.08 0.44,-0.08 0.56,0 0.52,0.56 -0.32,1.64 -0.32,3.08 v 7.68 q 0,1.44 0.68,2.32 0.68,0.88 1.76,0.92 1.56,0 2.44,-0.88 0.32,-0.28 0.56,-0.88 0.24,-0.64 0.24,-1.6 v -6.44 q 0,-1 -0.6,-1.56 -0.6,-0.6 -1.56,-0.68 -0.48,-0.04 -0.72,-0.24 -0.24,-0.2 -0.24,-0.64 0,-0.4 0.28,-0.6 0.28,-0.2 0.68,-0.2 3.04,-0.2 4.32,-0.32 1.28,-0.12 2.4,-0.4 0.48,-0.12 0.52,-0.12 0.6,0 0.6,0.48 0,0.12 -0.16,0.6 -0.08,0.48 -0.2,1.4 -0.08,0.92 -0.08,1.4 v 9.28 q 0,1.52 0.72,1.52 l 1.12,0.04 q 0.36,0 0.56,0.2 0.2,0.2 0.2,0.52 0,0.4 -0.16,0.6 -0.12,0.2 -0.52,0.24 -2.96,0.28 -6.12,1.6 -0.12,0.04 -0.48,0.16 -0.32,0.12 -0.56,0.12 z"
       style="font-style:normal;font-variant:normal;font-weight:bold;font-stretch:normal;font-family:'EB Garamond';-inkscape-font-specification:'EB Garamond Bold';text-align:center;text-anchor:middle;fill:#ffffff"
       id="path924" />
    <path
       d="m 396.50816,621.77563 q -0.28,0 -0.56,-0.16 -0.24,-0.16 -0.24,-0.4 0,-0.48 0.92,-0.8 0.8,-0.24 1.16,-0.52 0.36,-0.28 0.36,-1 v -9.16 q 0,-2 -1.24,-2.24 -0.44,-0.08 -0.44,-0.72 0,-0.56 0.4,-0.68 1.4,-0.32 3.04,-0.88 1.64,-0.56 2.72,-1.12 0.52,-0.32 0.72,-0.32 0.36,0 0.36,0.48 l -0.08,0.8 q -0.12,1.44 -0.12,1.48 0,0.52 0.08,0.6 1.48,-1.4 2.84,-2.08 1.4,-0.68 3.16,-0.68 2.16,0 3.52,1.56 1.4,1.56 1.4,4.16 v 8.8 q 0,0.72 0.36,1 0.36,0.28 1.16,0.52 0.8,0.28 0.8,0.8 0,0.24 -0.2,0.4 -0.2,0.16 -0.48,0.16 -1.2,0 -2.28,-0.12 -1.28,-0.08 -1.96,-0.08 -0.68,0 -1.96,0.08 -1,0.12 -2.24,0.12 -0.28,0 -0.48,-0.16 -0.2,-0.16 -0.2,-0.4 0,-0.52 0.8,-0.8 0.76,-0.24 1.08,-0.52 0.32,-0.28 0.32,-1 v -7.96 q 0,-1.52 -0.68,-2.36 -0.68,-0.88 -1.88,-0.92 -0.84,0 -1.52,0.28 -0.68,0.24 -1.44,0.76 -0.32,0.28 -0.32,0.76 v 9.44 q 0,0.72 0.32,1 0.32,0.24 1.12,0.52 0.8,0.28 0.8,0.8 0,0.24 -0.2,0.4 -0.2,0.16 -0.48,0.16 -1.2,0 -2.16,-0.12 -1.28,-0.08 -1.92,-0.08 -0.68,0 -2.04,0.08 -1.08,0.12 -2.32,0.12 z"
       style="font-style:normal;font-variant:normal;font-weight:bold;font-stretch:normal;font-family:'EB Garamond';-inkscape-font-specification:'EB Garamond Bold';text-align:center;text-anchor:middle;fill:#ffffff"
       id="path926" />
    <path
       d="m 425.65941,622.21563 q -2.6,0 -3.96,-1.32 -1.32,-1.32 -1.32,-3.8 v -9.2 q 0,-0.36 -0.28,-0.52 -0.28,-0.16 -0.96,-0.2 h -0.52 q -0.24,0 -0.44,-0.44 -0.2,-0.44 -0.2,-0.84 0,-0.28 0.24,-0.4 2,-0.72 5.84,-4.08 0.08,-0.08 0.28,-0.2 0.2,-0.16 0.36,-0.24 0.16,-0.08 0.36,-0.08 0.4,0 0.52,0.16 0.12,0.16 0.08,0.64 l -0.24,2.36 v 0.16 q 0,0.68 0.96,0.68 h 4.76 q 0.12,0 0.24,0.28 0.12,0.28 0.12,0.52 0,0.6 -0.16,1.12 -0.16,0.48 -0.36,0.48 h -3.72 q -0.92,0 -1.28,0.24 -0.32,0.2 -0.32,0.76 v 7.56 q 0,1.8 0.68,2.72 0.68,0.92 1.88,0.92 0.92,0 1.4,-0.12 0.52,-0.16 0.84,-0.32 0.36,-0.16 0.44,-0.2 0.16,-0.08 0.24,-0.08 0.2,0 0.32,0.24 0.12,0.2 0.12,0.56 0,0.28 -0.92,0.96 -0.88,0.64 -2.24,1.16 -1.36,0.52 -2.76,0.52 z"
       style="font-style:normal;font-variant:normal;font-weight:bold;font-stretch:normal;font-family:'EB Garamond';-inkscape-font-specification:'EB Garamond Bold';text-align:center;text-anchor:middle;fill:#ffffff"
       id="path928" />
    <path
       d="m 445.73941,622.49563 q -0.32,0 -0.32,-0.4 0,-0.56 0.12,-1.28 l 0.08,-1.24 q 0,-0.36 -0.08,-0.44 -1.12,1.36 -2.84,2.24 -1.68,0.88 -3.48,0.88 -1.88,0 -3.16,-1.6 -1.24,-1.64 -1.24,-4.04 v -7.48 q 0,-1 -0.36,-1.52 -0.36,-0.56 -1.24,-0.72 -0.24,-0.04 -0.44,-0.2 -0.16,-0.2 -0.16,-0.56 0,-0.64 0.6,-0.68 2.6,-0.12 5.8,-0.96 0.16,-0.04 0.4,-0.08 0.28,-0.08 0.44,-0.08 0.56,0 0.52,0.56 -0.32,1.64 -0.32,3.08 v 7.68 q 0,1.44 0.68,2.32 0.68,0.88 1.76,0.92 1.56,0 2.44,-0.88 0.32,-0.28 0.56,-0.88 0.24,-0.64 0.24,-1.6 v -6.44 q 0,-1 -0.6,-1.56 -0.6,-0.6 -1.56,-0.68 -0.48,-0.04 -0.72,-0.24 -0.24,-0.2 -0.24,-0.64 0,-0.4 0.28,-0.6 0.28,-0.2 0.68,-0.2 3.04,-0.2 4.32,-0.32 1.28,-0.12 2.4,-0.4 0.48,-0.12 0.52,-0.12 0.6,0 0.6,0.48 0,0.12 -0.16,0.6 -0.08,0.48 -0.2,1.4 -0.08,0.92 -0.08,1.4 v 9.28 q 0,1.52 0.72,1.52 l 1.12,0.04 q 0.36,0 0.56,0.2 0.2,0.2 0.2,0.52 0,0.4 -0.16,0.6 -0.12,0.2 -0.52,0.24 -2.96,0.28 -6.12,1.6 -0.12,0.04 -0.48,0.16 -0.32,0.12 -0.56,0.12 z"
       style="font-style:normal;font-variant:normal;font-weight:bold;font-stretch:normal;font-family:'EB Garamond';-inkscape-font-specification:'EB Garamond Bold';text-align:center;text-anchor:middle;fill:#ffffff"
       id="path930" />
    <path
       d="m 464.86379,624.13563 q -0.44,0 -0.68,-0.24 -0.24,-0.2 -0.12,-0.52 l 12.36,-27.56 q 0.24,-0.52 0.64,-0.68 0.44,-0.16 1.16,-0.16 0.48,0 0.72,0.28 0.24,0.28 0.12,0.56 l -12.4,27.56 q -0.2,0.44 -0.68,0.6 -0.44,0.16 -1.12,0.16 z"
       style="font-style:normal;font-variant:normal;font-weight:bold;font-stretch:normal;font-family:'EB Garamond';-inkscape-font-specification:'EB Garamond Bold';text-align:center;text-anchor:middle;fill:#ffffff"
       id="path932" />
    <path
       d="m 490.76691,621.85563 q -0.36,0 -0.6,-0.2 -0.24,-0.16 -0.24,-0.4 0,-0.28 0.24,-0.48 0.24,-0.24 0.6,-0.36 1.44,-0.4 1.96,-0.88 0.56,-0.52 0.56,-1.68 v -18.32 q 0,-1.32 -0.52,-1.8 -0.48,-0.48 -2.08,-0.84 -0.84,-0.2 -0.84,-0.84 0,-0.28 0.24,-0.44 0.24,-0.16 0.56,-0.16 1.48,0 3.04,0.12 1.92,0.08 2.68,0.08 0.8,0 2.88,-0.08 2.24,-0.08 3.12,-0.08 0.72,0 0.72,0.56 0,0.36 -0.2,0.56 -0.2,0.16 -0.64,0.28 -1.68,0.48 -2.24,1 -0.56,0.48 -0.56,1.64 v 18 q 0,1.12 0.48,1.6 0.48,0.48 1.68,0.48 h 4.08 q 1.64,0 2.84,-1.08 1.2,-1.16 2.12,-3.16 0.36,-0.76 0.6,-1 0.24,-0.28 0.48,-0.28 0.28,0 0.4,0.28 0.16,0.24 0.16,0.52 0,0.12 -0.08,0.36 -0.08,0.2 -0.08,0.44 -0.6,2.16 -0.84,3.12 -0.2,0.96 -0.32,2.28 -0.08,0.76 -0.64,0.76 l -4.6,-0.08 q -8.76,-0.12 -9.28,-0.12 -1.52,0 -3.2,0.12 z"
       style="font-style:normal;font-variant:normal;font-weight:bold;font-stretch:normal;font-family:'EB Garamond';-inkscape-font-specification:'EB Garamond Bold';text-align:center;text-anchor:middle;fill:#ffffff"
       id="path934" />
    <path
       d="m 514.00441,621.77563 q -0.24,0 -0.44,-0.12 -0.2,-0.16 -0.2,-0.4 0,-0.6 0.72,-0.8 1.08,-0.24 1.48,-0.52 0.4,-0.32 0.4,-0.96 v -8.64 q 0,-1.32 -0.4,-1.92 -0.4,-0.6 -1.32,-0.72 -0.24,-0.04 -0.36,-0.24 -0.12,-0.2 -0.12,-0.48 0,-0.24 0.12,-0.44 0.16,-0.2 0.32,-0.24 1.8,-0.32 3.16,-0.88 1.4,-0.56 3.04,-1.36 0.56,-0.32 0.8,-0.32 0.24,0 0.36,0.16 0.16,0.12 0.16,0.32 l -0.16,1.48 q -0.36,3.04 -0.36,4.4 v 8.84 q 0,0.56 0.4,0.88 0.4,0.32 1.52,0.64 0.36,0.12 0.52,0.28 0.2,0.16 0.2,0.48 0,0.52 -0.6,0.52 -0.84,0 -2.44,-0.08 -1.6,-0.08 -2.28,-0.08 -0.68,0 -2.12,0.08 -1.2,0.12 -2.4,0.12 z m 4.4,-19.84 q -1.28,0 -2.2,-0.92 -0.92,-0.92 -0.92,-2.2 0,-1.36 0.92,-2.28 0.92,-0.92 2.2,-0.92 1.36,0 2.28,0.92 0.96,0.92 0.96,2.28 0,1.28 -0.96,2.2 -0.92,0.92 -2.28,0.92 z"
       style="font-style:normal;font-variant:normal;font-weight:bold;font-stretch:normal;font-family:'EB Garamond';-inkscape-font-specification:'EB Garamond Bold';text-align:center;text-anchor:middle;fill:#ffffff"
       id="path936" />
    <path
       d="m 525.96129,621.77563 q -0.28,0 -0.56,-0.16 -0.24,-0.16 -0.24,-0.4 0,-0.48 0.92,-0.8 0.8,-0.24 1.16,-0.52 0.36,-0.28 0.36,-1 v -9.16 q 0,-2 -1.24,-2.24 -0.44,-0.08 -0.44,-0.72 0,-0.56 0.4,-0.68 1.4,-0.32 3.04,-0.88 1.64,-0.56 2.72,-1.12 0.52,-0.32 0.72,-0.32 0.36,0 0.36,0.48 l -0.08,0.8 q -0.12,1.44 -0.12,1.48 0,0.52 0.08,0.6 1.48,-1.4 2.84,-2.08 1.4,-0.68 3.16,-0.68 2.16,0 3.52,1.56 1.4,1.56 1.4,4.16 v 8.8 q 0,0.72 0.36,1 0.36,0.28 1.16,0.52 0.8,0.28 0.8,0.8 0,0.24 -0.2,0.4 -0.2,0.16 -0.48,0.16 -1.2,0 -2.28,-0.12 -1.28,-0.08 -1.96,-0.08 -0.68,0 -1.96,0.08 -1,0.12 -2.24,0.12 -0.28,0 -0.48,-0.16 -0.2,-0.16 -0.2,-0.4 0,-0.52 0.8,-0.8 0.76,-0.24 1.08,-0.52 0.32,-0.28 0.32,-1 v -7.96 q 0,-1.52 -0.68,-2.36 -0.68,-0.88 -1.88,-0.92 -0.84,0 -1.52,0.28 -0.68,0.24 -1.44,0.76 -0.32,0.28 -0.32,0.76 v 9.44 q 0,0.72 0.32,1 0.32,0.24 1.12,0.52 0.8,0.28 0.8,0.8 0,0.24 -0.2,0.4 -0.2,0.16 -0.48,0.16 -1.2,0 -2.16,-0.12 -1.28,-0.08 -1.92,-0.08 -0.68,0 -2.04,0.08 -1.08,0.12 -2.32,0.12 z"
       style="font-style:normal;font-variant:normal;font-weight:bold;font-stretch:normal;font-family:'EB Garamond';-inkscape-font-specification:'EB Garamond Bold';text-align:center;text-anchor:middle;fill:#ffffff"
       id="path938" />
    <path
       d="m 560.81754,622.49563 q -0.32,0 -0.32,-0.4 0,-0.56 0.12,-1.28 l 0.08,-1.24 q 0,-0.36 -0.08,-0.44 -1.12,1.36 -2.84,2.24 -1.68,0.88 -3.48,0.88 -1.88,0 -3.16,-1.6 -1.24,-1.64 -1.24,-4.04 v -7.48 q 0,-1 -0.36,-1.52 -0.36,-0.56 -1.24,-0.72 -0.24,-0.04 -0.44,-0.2 -0.16,-0.2 -0.16,-0.56 0,-0.64 0.6,-0.68 2.6,-0.12 5.8,-0.96 0.16,-0.04 0.4,-0.08 0.28,-0.08 0.44,-0.08 0.56,0 0.52,0.56 -0.32,1.64 -0.32,3.08 v 7.68 q 0,1.44 0.68,2.32 0.68,0.88 1.76,0.92 1.56,0 2.44,-0.88 0.32,-0.28 0.56,-0.88 0.24,-0.64 0.24,-1.6 v -6.44 q 0,-1 -0.6,-1.56 -0.6,-0.6 -1.56,-0.68 -0.48,-0.04 -0.72,-0.24 -0.24,-0.2 -0.24,-0.64 0,-0.4 0.28,-0.6 0.28,-0.2 0.68,-0.2 3.04,-0.2 4.32,-0.32 1.28,-0.12 2.4,-0.4 0.48,-0.12 0.52,-0.12 0.6,0 0.6,0.48 0,0.12 -0.16,0.6 -0.08,0.48 -0.2,1.4 -0.08,0.92 -0.08,1.4 v 9.28 q 0,1.52 0.72,1.52 l 1.12,0.04 q 0.36,0 0.56,0.2 0.2,0.2 0.2,0.52 0,0.4 -0.16,0.6 -0.12,0.2 -0.52,0.24 -2.96,0.28 -6.12,1.6 -0.12,0.04 -0.48,0.16 -0.32,0.12 -0.56,0.12 z"
       style="font-style:normal;font-variant:normal;font-weight:bold;font-stretch:normal;font-family:'EB Garamond';-inkscape-font-specification:'EB Garamond Bold';text-align:center;text-anchor:middle;fill:#ffffff"
       id="path940" />
    <path
       d="m 570.20879,621.81563 q -0.96,0 -0.96,-0.44 0,-0.36 0.16,-0.52 0.2,-0.2 0.6,-0.36 0.48,-0.16 0.92,-0.56 0.48,-0.44 1.24,-1.44 l 3.68,-5.04 q 0.24,-0.32 0.24,-0.52 0,-0.2 -0.2,-0.52 l -3,-4.44 q -0.68,-1 -1.04,-1.4 -0.36,-0.4 -0.92,-0.6 -0.4,-0.12 -0.6,-0.28 -0.16,-0.2 -0.16,-0.56 0,-0.48 0.96,-0.48 0.4,0 2.08,0.12 0.76,0.12 1.92,0.12 0.8,0 1.92,-0.08 0.92,-0.12 2.12,-0.12 0.36,0 0.64,0.12 0.32,0.12 0.32,0.4 0,0.24 -0.16,0.36 -0.16,0.12 -0.4,0.24 -0.24,0.08 -0.36,0.12 -0.56,0.2 -0.84,0.4 -0.28,0.2 -0.28,0.56 0,0.36 0.52,1.24 l 1.84,2.68 q 0.2,0.28 0.36,0 l 1.24,-2.12 q 0.56,-1.12 0.52,-1.76 0,-0.64 -0.72,-0.92 -0.12,-0.04 -0.36,-0.12 -0.24,-0.12 -0.36,-0.24 -0.12,-0.16 -0.12,-0.4 0,-0.28 0.32,-0.4 0.32,-0.12 0.64,-0.12 l 1.28,0.04 q 0.52,0.04 1.32,0.04 0.28,0 1.24,-0.08 l 1.32,-0.08 q 0.96,0 0.96,0.48 0,0.32 -0.2,0.52 -0.16,0.16 -0.56,0.32 -0.48,0.16 -1,0.6 -0.48,0.4 -1.2,1.36 l -2.88,3.84 q -0.24,0.36 -0.24,0.52 0,0.2 0.24,0.52 l 3.36,5.28 q 0.52,0.84 1.2,1.44 0.68,0.6 1.4,0.88 0.4,0.12 0.56,0.32 0.2,0.16 0.2,0.52 0,0.48 -0.96,0.48 -0.32,0 -2.36,-0.12 -1,-0.12 -2.24,-0.12 -0.76,0 -2.12,0.08 -1.08,0.12 -2.4,0.12 -0.44,0 -0.72,-0.12 -0.24,-0.16 -0.24,-0.4 0,-0.32 0.2,-0.44 0.24,-0.16 0.72,-0.32 0.56,-0.16 0.84,-0.48 0.32,-0.36 0.32,-1.04 0,-0.44 -0.08,-0.72 -0.08,-0.32 -0.4,-0.72 l -2.04,-3 q -0.04,-0.04 -0.12,-0.04 -0.08,0 -0.12,0.04 l -1.88,3.32 q -0.56,0.88 -0.56,1.56 0,0.88 0.72,1.2 0.48,0.16 0.68,0.32 0.2,0.12 0.2,0.4 0,0.52 -0.96,0.52 -0.8,0 -1.44,-0.04 -0.6,-0.04 -1,-0.04 -0.68,0 -2.8,0.12 z"
       style="font-style:normal;font-variant:normal;font-weight:bold;font-stretch:normal;font-family:'EB Garamond';-inkscape-font-specification:'EB Garamond Bold';text-align:center;text-anchor:middle;fill:#ffffff"
       id="path942" />
  </g>
</svg>
