<?xml version="1.0" encoding="UTF-8" standalone="no"?>
<svg
   xmlns:dc="http://purl.org/dc/elements/1.1/"
   xmlns:cc="http://creativecommons.org/ns#"
   xmlns:rdf="http://www.w3.org/1999/02/22-rdf-syntax-ns#"
   xmlns:svg="http://www.w3.org/2000/svg"
   xmlns="http://www.w3.org/2000/svg"
   xmlns:xlink="http://www.w3.org/1999/xlink"
   id="svg3357"
   version="1.1"
   viewBox="0 0 211.40207 119.0625"
   height="119.0625mm"
   width="211.40207mm">
  <defs
     id="defs3351">
    <linearGradient
       id="linearGradient6114">
      <stop
         id="stop6110"
         offset="0"
         style="stop-color:#6f7c91;stop-opacity:1;" />
      <stop
         id="stop6112"
         offset="1"
         style="stop-color:#162d50;stop-opacity:1" />
    </linearGradient>
    <radialGradient
       gradientUnits="userSpaceOnUse"
       gradientTransform="matrix(3.0071285,0,0,1.83657,-125.12732,-58.151445)"
       r="31.67275"
       fy="66.986313"
       fx="73.77433"
       cy="66.986313"
       cx="73.77433"
       id="radialGradient6126"
       xlink:href="#linearGradient6114" />
  </defs>
  <metadata
     id="metadata3354">
    <rdf:RDF>
      <cc:Work
         rdf:about="">
        <dc:format>image/svg+xml</dc:format>
        <dc:type
           rdf:resource="http://purl.org/dc/dcmitype/StillImage" />
        <dc:title></dc:title>
      </cc:Work>
    </rdf:RDF>
  </metadata>
  <rect
     style="opacity:1;fill:#c83737;fill-opacity:1;stroke:none;stroke-width:4.38045835;stroke-miterlimit:4;stroke-dasharray:none;paint-order:stroke markers fill"
     id="rect6108"
     width="211.40207"
     height="119.0625"
     x="1.4498902e-08"
     y="-2.2076415e-08"
     ry="0" />
  <flowRoot
     xml:space="preserve"
     id="flowRoot874"
     style="font-style:normal;font-weight:normal;font-size:40px;line-height:1.25;font-family:sans-serif;letter-spacing:0px;word-spacing:0px;fill:#000000;fill-opacity:1;stroke:none"
     transform="matrix(1.1097917,0,0,1.0234149,-1.6397721,-6.8613634)"><flowRegion
       id="flowRegion876"><rect
         id="rect878"
         width="166.0584"
         height="44.525547"
         x="200.72992"
         y="215.22041" /></flowRegion><flowPara
       id="flowPara880" /></flowRoot>  <flowRoot
     transform="translate(-1.4775493,-3.9803138)"
     xml:space="preserve"
     id="flowRoot1087"
     style="font-style:normal;font-weight:normal;font-size:40px;line-height:1.25;font-family:sans-serif;letter-spacing:0px;word-spacing:0px;fill:#000000;fill-opacity:1;stroke:none"><flowRegion
       id="flowRegion1089"><rect
         id="rect1091"
         width="296.88928"
         height="216.1263"
         x="459.55276"
         y="161.32643" /></flowRegion><flowPara
       id="flowPara1093" /></flowRoot>  <g
     style="display:inline"
     id="g4921"
     transform="matrix(1.1825108,0,0,1.2934259,-97.668834,-89.71389)">
    <g
       transform="translate(50.270828)"
       id="g4720">
      <g
         id="g4694"
         transform="translate(-47.638093,1.3360133)"
         style="fill:#333333">
        <path
           style="fill:#333333;stroke:none;stroke-width:0.26458347px;stroke-linecap:butt;stroke-linejoin:miter;stroke-opacity:1"
           d="m 144.21101,139.55982 c 0,0 5.43081,5.83681 7.33498,3.79847 2.22288,-2.37952 -12.62665,-36.87139 -12.62665,-36.87139"
           id="path835" />
        <path
           id="path817"
           d="m 97.450493,140.21473 c 7.815327,4.80271 15.630577,9.60538 23.402247,9.51796 7.77167,-0.0874 15.49967,-5.06478 19.38543,-7.57529 3.88576,-2.5105 3.92946,-2.5542 3.97284,-2.59758"
           style="fill:#333333;stroke:none;stroke-width:0.26458332px;stroke-linecap:butt;stroke-linejoin:miter;stroke-opacity:1" />
        <path
           id="path825"
           d="m 97.450491,140.21473 c 0,0 -5.430812,5.83681 -7.33498,3.79847 -2.222882,-2.37952 12.820499,-36.99713 12.820499,-36.99713"
           style="fill:#333333;stroke:none;stroke-width:0.26458332px;stroke-linecap:butt;stroke-linejoin:miter;stroke-opacity:1" />
        <path
           transform="matrix(1.0226412,0,0,1.0473654,-2.3339152,-3.6688483)"
           id="path831"
           d="m 102.93926,105.67937 c 0.0862,-6.905162 0.17248,-13.810016 1.50935,-18.736088 1.33687,-4.926072 3.92412,-7.873272 9.74546,-9.346742 5.82134,-1.473471 14.87673,-1.473471 19.40429,3.368239 4.52756,4.84171 4.52756,14.525398 4.52756,24.209361"
           style="fill:#333333;stroke:none;stroke-width:0.26458332px;stroke-linecap:butt;stroke-linejoin:miter;stroke-opacity:1" />
      </g>
      <g
         id="g4708">
        <path
           id="path4696"
           d="m 49.741667,141.68958 c 0,0 3.615973,-22.40139 5.55625,-33.60208 l 35.983333,-0.26458 6.614583,33.07291 z"
           style="fill:#333333;stroke:none;stroke-width:0.26458332px;stroke-linecap:butt;stroke-linejoin:miter;stroke-opacity:1" />
        <rect
           y="138.25"
           x="55.5625"
           height="3.96875"
           width="37.041668"
           id="rect4698"
           style="opacity:1;fill:#333333;fill-opacity:1;stroke:none;stroke-width:0.26458332" />
        <rect
           y="106.5"
           x="59.53125"
           height="3.96875"
           width="30.427082"
           id="rect4700"
           style="opacity:1;fill:#333333;fill-opacity:1;stroke:none;stroke-width:0.26458332" />
        <rect
           y="105.17708"
           x="84.666664"
           height="3.968755"
           width="5.2916694"
           id="rect4702"
           style="opacity:1;fill:#333333;fill-opacity:1;stroke:none;stroke-width:0.26458332" />
      </g>
    </g>
    <path
       d="m 138.70455,126.61246 a 15.239734,15.867999 0 0 1 -15.17522,15.86785 15.239734,15.867999 0 0 1 -15.3037,-15.73349 15.239734,15.867999 0 0 1 15.04563,-16.00108 15.239734,15.867999 0 0 1 15.4311,15.59801"
       id="path843"
       style="opacity:1;fill:#e6e6e6;fill-opacity:1;stroke:none;stroke-width:0.26458332" />
    <g
       transform="translate(44.751274,16.383515)"
       id="g4688">
      <g
         id="g4596"
         transform="translate(-41.01042,-15.875)"
         style="fill:#ff6600;stroke:none">
        <path
           id="path4585"
           d="m 111.125,110.46875 c 2.9216,-2.67614 5.84316,-5.35225 8.7091,-5.35212 2.86595,1.3e-4 5.6775,2.67624 8.48882,5.35212"
           style="fill:#ff6600;stroke:none;stroke-width:0.26458332px;stroke-linecap:butt;stroke-linejoin:miter;stroke-opacity:1" />
        <path
           id="path4589"
           d="m 111.125,110.46875 c 2.77957,3.92198 5.48174,5.31906 8.73125,6.61458"
           style="fill:#ff6600;stroke:none;stroke-width:0.26458332px;stroke-linecap:butt;stroke-linejoin:miter;stroke-opacity:1" />
        <path
           id="path4591"
           d="m 128.32292,110.46875 c -1.04604,3.82945 -4.9192,5.32533 -8.46667,6.61458"
           style="fill:#ff6600;stroke:none;stroke-width:0.26458332px;stroke-linecap:butt;stroke-linejoin:miter;stroke-opacity:1" />
      </g>
      <g
         style="fill:#ff6600;stroke:none"
         transform="translate(-41.01042,-15.875)"
         id="g4661">
        <path
           style="fill:#ff6600;stroke:none;stroke-width:0.26458332px;stroke-linecap:butt;stroke-linejoin:miter;stroke-opacity:1"
           d="m 111.125,110.46875 c 2.9216,-2.67614 5.84316,-5.35225 8.7091,-5.35212 2.86595,1.3e-4 5.6775,2.67624 8.48882,5.35212"
           id="path4655" />
        <path
           style="fill:#ff6600;stroke:none;stroke-width:0.26458332px;stroke-linecap:butt;stroke-linejoin:miter;stroke-opacity:1"
           d="m 111.125,110.46875 c 2.77957,3.92198 5.48174,5.31906 8.73125,6.61458"
           id="path4657" />
        <path
           style="fill:#ff6600;stroke:none;stroke-width:0.26458332px;stroke-linecap:butt;stroke-linejoin:miter;stroke-opacity:1"
           d="m 128.32292,110.46875 c -1.04604,3.82945 -4.9192,5.32533 -8.46667,6.61458"
           id="path4659" />
      </g>
      <path
         style="opacity:1;fill:#ff6600;fill-opacity:1;stroke:none;stroke-width:0.26458332"
         id="path4671"
         d="m 78.845833,101.20833 -4.582718,-2.645833 v -5.291666 l 4.582718,-2.645833 4.582717,2.645833 v 5.291666 z" />
      <path
         style="opacity:1;fill:#ff6600;fill-opacity:1;stroke:none;stroke-width:0.26458332"
         id="path4673"
         d="m 83.608335,99.620834 2.319854,-2.397701 0.916543,3.207907 z"
         transform="matrix(0.94729327,-1.274616,1.0295753,1.1727506,-98.356248,87.506876)" />
      <path
         style="opacity:1;fill:#ff6600;fill-opacity:1;stroke:none;stroke-width:0.26458332"
         id="path4675"
         d="m 74.536294,98.196559 -3.844516,-2.340158 3.948894,-2.159369 z"
         transform="matrix(1.141627,0.11210349,-0.08749549,1.2944633,-2.2020547,-37.413635)" />
    </g>
    <path
       transform="scale(0.26458333)"
       id="path4722"
       d="m 457.97263,570.35612 c -18.79507,-2.12161 -40.18257,-11.27811 -71.63974,-30.67068 -8.13959,-5.01787 -8.02372,-4.97631 -9.49602,-3.40625 -1.98328,2.11498 -9.29175,8.28788 -11.94887,10.09229 -7.55689,5.13179 -13.40276,5.68891 -14.83103,1.41342 -1.63872,-4.90546 5.4376,-28.95935 18.84332,-64.05245 9.54282,-24.98091 28.41577,-70.80369 29.41653,-71.42219 0.22811,-0.14098 0.37499,-0.42288 0.3264,-0.62644 -0.0486,-0.20356 0.0318,-0.82849 0.17857,-1.38874 0.14681,-0.56024 0.45269,-8.53609 0.67974,-17.7241 0.63732,-25.79 1.66538,-38.59108 4.07232,-50.7069 4.32594,-21.77558 13.30666,-33.82393 30.11939,-40.40761 16.87389,-6.60764 39.99439,-8.13907 57.78976,-3.82784 20.7168,5.019 32.64507,17.2536 38.14208,39.1216 3.4588,13.75967 4.66657,26.50558 4.98055,52.56114 0.20469,16.98608 0.39447,21.14579 0.94912,20.80299 0.62648,-0.38718 21.06718,49.83231 30.13912,74.04694 11.92704,31.8354 17.56985,50.7662 17.56985,58.9443 0,2.59002 -0.1133,3.01447 -1.03188,3.86578 -3.15357,2.92263 -9.30891,0.77622 -18.04824,-6.29354 -2.16747,-1.75339 -5.03522,-4.30389 -6.3728,-5.66777 -1.33757,-1.36388 -2.56841,-2.47978 -2.7352,-2.47978 -0.16679,0 -5.21474,3.17625 -11.21765,7.05833 -6.00292,3.88209 -13.48133,8.58639 -16.6187,10.45401 -26.52636,15.79064 -49.54126,22.54011 -69.26662,20.31349 z m 19.96508,-32.86866 c 5.28911,-1.14072 8.32959,-2.22946 13.85333,-4.9606 18.43404,-9.11449 30.90578,-28.24854 32.34892,-49.62947 0.94243,-13.9626 -2.58151,-27.3736 -10.20264,-38.82794 -3.0137,-4.52952 -10.61003,-12.34927 -14.86401,-15.30119 l -2.90399,-2.01514 0.75119,-1.40422 c 0.41315,-0.77232 1.12926,-2.38761 1.59134,-3.58952 1.00562,-2.61573 1.41642,-1.9763 -5.09101,-7.92451 -5.72644,-5.23434 -11.15932,-9.40512 -14.87195,-11.41709 -10.91899,-5.91728 -20.15604,-3.88649 -33.81841,7.43508 -3.40229,2.81937 -10.37133,9.1079 -10.53264,9.50415 -0.0784,0.19273 0.9084,1.72266 2.19301,3.39982 1.28461,1.67718 2.26556,3.10249 2.1799,3.16736 -0.0857,0.0649 -1.43922,0.95947 -3.00791,1.98798 -15.62369,10.24371 -25.66261,28.29897 -26.56551,47.77875 -1.32187,28.5191 16.86115,54.02186 43.57738,61.11985 2.07246,0.55061 5.05159,1.17715 6.62027,1.39232 4.35042,0.59669 14.44506,0.21127 18.74273,-0.71563 z m 70.79456,-4.85226 c -1.62471,-0.0773 -4.28333,-0.0773 -5.90804,0 -1.62471,0.0773 -0.2954,0.14062 2.95402,0.14062 3.24942,0 4.57873,-0.0633 2.95402,-0.14062 z m -16.9092,-125.06569 c -0.39218,-0.10248 -1.03391,-0.10248 -1.42608,0 -0.39217,0.10248 -0.0713,0.18634 0.71304,0.18634 0.78434,0 1.10521,-0.0839 0.71304,-0.18634 z"
       style="opacity:1;fill:#333333;fill-opacity:1;stroke:none;stroke-width:0.40745068" />
    <rect
       y="107.16256"
       x="139.81281"
       height="1.2520549"
       width="1.3815778"
       id="rect4846"
       style="opacity:1;fill:#333333;fill-opacity:1;stroke:none;stroke-width:0.26458332" />
    <g
       id="g4877">
      <path
         d="m 133.36974,95.882912 a 3.0704114,3.0704114 0 0 1 -3.05741,3.070384 3.0704114,3.0704114 0 0 1 -3.0833,-3.044394 3.0704114,3.0704114 0 0 1 3.03132,-3.096154 3.0704114,3.0704114 0 0 1 3.10895,3.018185"
         id="path4860"
         style="opacity:1;fill:#e6e6e6;fill-opacity:1;stroke:none;stroke-width:0.26458332" />
      <g
         id="g4864"
         transform="matrix(0.80841168,0,0,1,68.549895,-7.3051882)">
        <path
           style="opacity:1;fill:#000000;fill-opacity:1;stroke:none;stroke-width:0.26458332"
           id="path4862"
           d="m 77.375031,103.39364 a 1.6372987,1.2321938 0 0 1 -1.630369,1.23218 1.6372987,1.2321938 0 0 1 -1.64417,-1.22175 1.6372987,1.2321938 0 0 1 1.616451,-1.24253 1.6372987,1.2321938 0 0 1 1.657853,1.21124" />
      </g>
    </g>
    <g
       transform="matrix(-1,0,0,1,248.68829,0.27470384)"
       id="g4885">
      <path
         style="opacity:1;fill:#e6e6e6;fill-opacity:1;stroke:none;stroke-width:0.26458332"
         id="path4879"
         d="m 133.36974,95.882912 a 3.0704114,3.0704114 0 0 1 -3.05741,3.070384 3.0704114,3.0704114 0 0 1 -3.0833,-3.044394 3.0704114,3.0704114 0 0 1 3.03132,-3.096154 3.0704114,3.0704114 0 0 1 3.10895,3.018185" />
      <g
         transform="matrix(0.80841168,0,0,1,68.549895,-7.3051882)"
         id="g4883">
        <path
           d="m 77.375031,103.39364 a 1.6372987,1.2321938 0 0 1 -1.630369,1.23218 1.6372987,1.2321938 0 0 1 -1.64417,-1.22175 1.6372987,1.2321938 0 0 1 1.616451,-1.24253 1.6372987,1.2321938 0 0 1 1.657853,1.21124"
           id="path4881"
           style="opacity:1;fill:#000000;fill-opacity:1;stroke:none;stroke-width:0.26458332" />
      </g>
    </g>
  </g>
  <g
     id="g984"
     transform="matrix(1.1601798,0,0,2.2118605,142.12549,-315.11827)">
    <g
       id="text972"
       style="font-style:normal;font-weight:normal;font-size:10.58333302px;line-height:1.25;font-family:sans-serif;letter-spacing:0px;word-spacing:0px;fill:#a02c2c;fill-opacity:1;stroke:#a02c2c;stroke-width:0.82583064;stroke-miterlimit:4;stroke-dasharray:none"
       aria-label="Command  Line  Calendar - Debian">
      <path
         id="path927"
         style="font-style:normal;font-variant:normal;font-weight:normal;font-stretch:normal;font-family:'Sansita One';-inkscape-font-specification:'Sansita One';text-align:center;text-anchor:middle;fill:#a02c2c;stroke:#a02c2c;stroke-width:0.82583064;stroke-miterlimit:4;stroke-dasharray:none"
         d="m -40.756709,162.68051 q 0.275167,0.20108 0.275167,0.635 0,0.42333 -0.1905,0.73025 -0.179917,0.29633 -0.53975,0.52917 -0.772584,0.49741 -2.12725,0.49741 -1.344083,0 -2.084917,-0.6985 -0.73025,-0.70908 -0.73025,-1.95791 0,-1.76742 0.92075,-3.1115 0.6985,-0.99483 1.947333,-1.41817 0.645584,-0.21166 1.280584,-0.21166 0.635,0 1.026583,0.0847 0.391583,0.0847 0.687917,0.254 0.645583,0.37042 0.645583,0.96309 0,0.53975 -0.508,0.94191 -0.465667,0.35984 -0.846667,0.35984 -0.381,0 -0.53975,-0.0529 0.04233,-0.381 0.04233,-0.62442 0,-0.254 -0.01058,-0.43391 -0.01058,-0.17992 -0.0635,-0.34925 -0.105833,-0.39159 -0.433916,-0.39159 -0.3175,0 -0.645584,0.30692 -0.3175,0.29633 -0.592666,0.80433 -0.624417,1.15359 -0.624417,2.51884 0,0.65616 0.370417,1.03716 0.370416,0.37042 1.164166,0.37042 0.592667,0 1.153584,-0.39159 0.243416,-0.16933 0.423333,-0.39158 z" />
      <path
         id="path929"
         style="font-style:normal;font-variant:normal;font-weight:normal;font-stretch:normal;font-family:'Sansita One';-inkscape-font-specification:'Sansita One';text-align:center;text-anchor:middle;fill:#a02c2c;stroke:#a02c2c;stroke-width:0.82583064;stroke-miterlimit:4;stroke-dasharray:none"
         d="m -37.297447,165.08293 q -2.328334,0 -2.328334,-2.19075 0,-1.55575 0.85725,-2.56117 0.910167,-1.06891 2.487084,-1.06891 1.143,0 1.725083,0.52916 0.582083,0.52917 0.582083,1.64042 0,1.69333 -0.910166,2.67758 -0.889,0.97367 -2.413,0.97367 z m 0.275166,-4.60375 q -0.127,0.28575 -0.232833,0.71967 -0.09525,0.42333 -0.22225,1.10066 -0.127,0.67733 -0.127,1.51342 0,0.27516 0.08467,0.45508 0.09525,0.17992 0.338666,0.17992 0.243417,0 0.391584,-0.11642 0.15875,-0.11642 0.275166,-0.39158 0.211667,-0.48684 0.381,-1.38642 0.169334,-0.91016 0.179917,-1.30175 0.02117,-0.39158 0.02117,-0.67733 0,-0.29633 -0.08467,-0.48683 -0.08467,-0.1905 -0.328083,-0.1905 -0.232834,0 -0.391584,0.14816 -0.15875,0.14817 -0.28575,0.43392 z" />
      <path
         id="path931"
         style="font-style:normal;font-variant:normal;font-weight:normal;font-stretch:normal;font-family:'Sansita One';-inkscape-font-specification:'Sansita One';text-align:center;text-anchor:middle;fill:#a02c2c;stroke:#a02c2c;stroke-width:0.82583064;stroke-miterlimit:4;stroke-dasharray:none"
         d="m -25.721431,165.08293 q -1.280583,0 -1.280583,-0.99484 0,-0.43391 0.179917,-1.27 0.1905,-0.84666 0.254,-1.18533 0.148166,-0.77258 0.148166,-1.016 0,-0.53975 -0.402166,-0.53975 -0.264584,0 -0.518584,0.37042 -0.254,0.35983 -0.370416,1.09008 l -0.656167,3.33375 -2.06375,0.21167 0.5715,-2.87867 q 0.09525,-0.47625 0.179917,-1.016 0.08467,-0.53975 0.08467,-0.62441 0,-0.48684 -0.359833,-0.48684 -0.243417,0 -0.508,0.35984 -0.264583,0.35983 -0.41275,1.10066 l -0.645583,3.33375 -2.084917,0.21167 1.11125,-5.60917 1.725083,-0.21166 -0.179916,1.06891 q 0.275166,-0.5715 0.783166,-0.81491 0.508,-0.254 1.30175,-0.254 0.455084,0 0.751417,0.22225 0.296333,0.22225 0.391583,0.58208 0.179917,-0.37042 0.635,-0.58208 0.465667,-0.22225 1.026584,-0.22225 0.5715,0 0.846666,0.127 0.28575,0.11641 0.455084,0.3175 0.28575,0.37041 0.28575,1.04775 0,0.66675 -0.28575,2.05316 -0.148167,0.67733 -0.148167,0.93133 0,0.24342 0.137583,0.39159 0.148167,0.14816 0.359834,0.16933 -0.105834,0.35983 -0.47625,0.5715 -0.359834,0.21167 -0.836084,0.21167 z" />
      <path
         id="path933"
         style="font-style:normal;font-variant:normal;font-weight:normal;font-stretch:normal;font-family:'Sansita One';-inkscape-font-specification:'Sansita One';text-align:center;text-anchor:middle;fill:#a02c2c;stroke:#a02c2c;stroke-width:0.82583064;stroke-miterlimit:4;stroke-dasharray:none"
         d="m -15.96492,165.08293 q -1.280583,0 -1.280583,-0.99484 0,-0.43391 0.179916,-1.27 0.1905,-0.84666 0.254,-1.18533 0.148167,-0.77258 0.148167,-1.016 0,-0.53975 -0.402167,-0.53975 -0.264583,0 -0.518583,0.37042 -0.254,0.35983 -0.370417,1.09008 l -0.656166,3.33375 -2.06375,0.21167 0.5715,-2.87867 q 0.09525,-0.47625 0.179917,-1.016 0.08467,-0.53975 0.08467,-0.62441 0,-0.48684 -0.359833,-0.48684 -0.243417,0 -0.508,0.35984 -0.264583,0.35983 -0.41275,1.10066 l -0.645583,3.33375 -2.084917,0.21167 1.11125,-5.60917 1.725083,-0.21166 -0.179916,1.06891 q 0.275166,-0.5715 0.783166,-0.81491 0.508,-0.254 1.30175,-0.254 0.455083,0 0.751417,0.22225 0.296333,0.22225 0.391583,0.58208 0.179917,-0.37042 0.635,-0.58208 0.465667,-0.22225 1.026583,-0.22225 0.5715,0 0.846667,0.127 0.28575,0.11641 0.455083,0.3175 0.28575,0.37041 0.28575,1.04775 0,0.66675 -0.28575,2.05316 -0.148166,0.67733 -0.148166,0.93133 0,0.24342 0.137583,0.39159 0.148167,0.14816 0.359833,0.16933 -0.105833,0.35983 -0.47625,0.5715 -0.359833,0.21167 -0.836083,0.21167 z" />
      <path
         id="path935"
         style="font-style:normal;font-variant:normal;font-weight:normal;font-stretch:normal;font-family:'Sansita One';-inkscape-font-specification:'Sansita One';text-align:center;text-anchor:middle;fill:#a02c2c;stroke:#a02c2c;stroke-width:0.82583064;stroke-miterlimit:4;stroke-dasharray:none"
         d="m -13.373328,164.55376 q -0.243417,-0.27517 -0.359834,-0.70908 -0.105833,-0.43392 -0.105833,-1.143 0,-0.70908 0.243417,-1.35467 0.243416,-0.64558 0.687916,-1.11125 0.910167,-0.97366 2.413,-0.97366 0.5397501,0 0.9313334,0.17991 l 1.8097499,-0.17991 -0.7831666,4.12749 q -0.03175,0.127 -0.03175,0.35984 0,0.23283 0.1375833,0.381 0.1481667,0.14816 0.3598333,0.16933 -0.1058333,0.35983 -0.4974166,0.5715 -0.381,0.21167 -0.8149166,0.21167 -0.4339167,0 -0.7302501,-0.16934 -0.28575,-0.15875 -0.370417,-0.43391 -0.169333,0.26458 -0.529166,0.43391 -0.359834,0.16934 -0.846667,0.16934 -0.47625,0 -0.867833,-0.127 -0.391584,-0.127 -0.645583,-0.40217 z m 2.233083,-4.29683 q -0.116417,0.1905 -0.22225,0.51858 -0.105834,0.3175 -0.28575,1.18534 -0.169334,0.85724 -0.169334,1.47108 0,0.61383 0.09525,0.79375 0.09525,0.17991 0.264584,0.17991 0.338666,0 0.582083,-0.3175 0.254,-0.32808 0.34925,-0.89958 l 0.5609167,-3.10091 q -0.2222497,-0.1905 -0.4868337,-0.1905 -0.254,0 -0.41275,0.0847 -0.148166,0.0847 -0.275166,0.27517 z" />
      <path
         id="path937"
         style="font-style:normal;font-variant:normal;font-weight:normal;font-stretch:normal;font-family:'Sansita One';-inkscape-font-specification:'Sansita One';text-align:center;text-anchor:middle;fill:#a02c2c;stroke:#a02c2c;stroke-width:0.82583064;stroke-miterlimit:4;stroke-dasharray:none"
         d="m -2.6957362,165.08293 q -1.2805833,0 -1.2805833,-0.99484 0.010583,-0.27516 0.09525,-0.74083 l 0.1905,-0.97366 q 0.28575,-1.37584 0.28575,-1.68275 0,-0.61384 -0.3598333,-0.61384 -0.60325,0 -0.92075,1.57692 l -0.6244167,3.21733 -2.1272499,0.21167 1.1006666,-5.61975 1.7356667,-0.20108 -0.1693334,1.03716 q 0.4974167,-1.03716 2.0214166,-1.03716 0.7408333,0 1.04775,0.3175 0.3175,0.30691 0.3175,1.00541 0,0.65617 -0.3386667,2.19075 -0.15875,0.68792 -0.15875,0.9525 0,0.254 0.1375834,0.40217 0.1481666,0.14816 0.3598333,0.16933 -0.1058333,0.35983 -0.47625,0.5715 -0.3598333,0.21167 -0.8360833,0.21167 z" />
      <path
         id="path939"
         style="font-style:normal;font-variant:normal;font-weight:normal;font-stretch:normal;font-family:'Sansita One';-inkscape-font-specification:'Sansita One';text-align:center;text-anchor:middle;fill:#a02c2c;stroke:#a02c2c;stroke-width:0.82583064;stroke-miterlimit:4;stroke-dasharray:none"
         d="m 2.7965177,159.2621 q 0.381,0 0.6773334,0.0847 0.010583,-0.0423 0.03175,-0.15875 l 0.052917,-0.32808 q 0.042333,-0.21167 0.1058333,-0.56092 l 0.1693334,-0.83608 2.1060832,-0.21167 -1.1747499,6.13833 q -0.010583,0.0635 -0.010583,0.16934 v 0.16933 q 0,0.23283 0.1164167,0.41275 0.1164167,0.16933 0.3069167,0.16933 -0.2116667,0.49742 -0.85725,0.70909 -0.22225,0.0635 -0.53975,0.0635 -0.3069166,0 -0.5926666,-0.16934 -0.28575,-0.15875 -0.3704167,-0.43391 -0.1693333,0.27516 -0.508,0.43391 -0.3386666,0.16934 -0.8360833,0.16934 -0.4868333,0 -0.89958329,-0.127 -0.40216666,-0.127 -0.65616665,-0.40217 -0.46566665,-0.53975 -0.46566665,-1.76742 0,-1.58749 0.9313333,-2.55058 0.93133329,-0.97366 2.41299989,-0.97366 z m -0.074083,0.635 q -0.3915833,0 -0.60325,0.42333 -0.2116666,0.42333 -0.4339166,1.47108 -0.2116667,1.04775 -0.2116667,1.98967 0,0.64558 0.381,0.64558 0.3386667,0 0.5715,-0.33867 0.2434166,-0.33866 0.3386666,-0.89958 l 0.5715,-3.10091 q -0.22225,-0.1905 -0.6138333,-0.1905 z" />
      <path
         id="path941"
         style="font-style:normal;font-variant:normal;font-weight:normal;font-stretch:normal;font-family:'Sansita One';-inkscape-font-specification:'Sansita One';text-align:center;text-anchor:middle;fill:#a02c2c;stroke:#a02c2c;stroke-width:0.82583064;stroke-miterlimit:4;stroke-dasharray:none"
         d="m 14.842003,163.24143 q 0.201084,0.254 0.201084,0.75141 0,0.48684 -0.381,0.79375 -0.370417,0.29634 -1.026584,0.29634 -0.381,0 -0.973666,-0.0847 -1.164167,-0.17992 -1.502833,-0.17992 -0.328084,0 -0.465667,0.0212 -0.137583,0.0106 -0.359833,0.0318 l 1.280583,-6.985 h 2.31775 l -1.058334,5.82083 q 0.137584,0.0212 0.264584,0.0212 h 0.264583 q 0.889,0 1.439333,-0.48683 z" />
      <path
         id="path943"
         style="font-style:normal;font-variant:normal;font-weight:normal;font-stretch:normal;font-family:'Sansita One';-inkscape-font-specification:'Sansita One';text-align:center;text-anchor:middle;fill:#a02c2c;stroke:#a02c2c;stroke-width:0.82583064;stroke-miterlimit:4;stroke-dasharray:none"
         d="m 18.291178,164.28918 q -0.328083,0.79375 -1.375833,0.79375 -0.53975,0 -0.878417,-0.37042 -0.28575,-0.32808 -0.28575,-0.65617 0,-0.85725 0.391583,-2.52941 l 0.391584,-2.05317 2.148416,-0.21166 -0.645583,3.34433 q -0.179917,0.78316 -0.179917,1.05833 0,0.60325 0.433917,0.62442 z m -1.566333,-6.2865 q 0,-0.41275 0.338666,-0.635 0.34925,-0.22225 0.846667,-0.22225 0.497417,0 0.79375,0.22225 0.306917,0.22225 0.306917,0.635 0,0.41275 -0.338667,0.62442 -0.328083,0.21166 -0.8255,0.21166 -0.497417,0 -0.814917,-0.21166 -0.306916,-0.21167 -0.306916,-0.62442 z" />
      <path
         id="path945"
         style="font-style:normal;font-variant:normal;font-weight:normal;font-stretch:normal;font-family:'Sansita One';-inkscape-font-specification:'Sansita One';text-align:center;text-anchor:middle;fill:#a02c2c;stroke:#a02c2c;stroke-width:0.82583064;stroke-miterlimit:4;stroke-dasharray:none"
         d="m 23.65924,165.08293 q -1.280583,0 -1.280583,-0.99484 0.01058,-0.27516 0.09525,-0.74083 l 0.1905,-0.97366 q 0.28575,-1.37584 0.28575,-1.68275 0,-0.61384 -0.359833,-0.61384 -0.60325,0 -0.92075,1.57692 l -0.624417,3.21733 -2.12725,0.21167 1.100667,-5.61975 1.735667,-0.20108 -0.169334,1.03716 q 0.497417,-1.03716 2.021417,-1.03716 0.740833,0 1.04775,0.3175 0.3175,0.30691 0.3175,1.00541 0,0.65617 -0.338667,2.19075 -0.15875,0.68792 -0.15875,0.9525 0,0.254 0.137583,0.40217 0.148167,0.14816 0.359834,0.16933 -0.105834,0.35983 -0.47625,0.5715 -0.359834,0.21167 -0.836084,0.21167 z" />
      <path
         id="path947"
         style="font-style:normal;font-variant:normal;font-weight:normal;font-stretch:normal;font-family:'Sansita One';-inkscape-font-specification:'Sansita One';text-align:center;text-anchor:middle;fill:#a02c2c;stroke:#a02c2c;stroke-width:0.82583064;stroke-miterlimit:4;stroke-dasharray:none"
         d="m 30.103994,163.08268 q 0.264584,0.17991 0.264584,0.58208 0,0.39158 -0.201084,0.64558 -0.201083,0.254 -0.529166,0.42334 -0.677334,0.34925 -1.407584,0.34925 -0.73025,0 -1.164166,-0.15875 -0.423334,-0.15875 -0.709084,-0.45509 -0.560916,-0.56091 -0.560916,-1.5875 0,-1.59808 0.867833,-2.57174 0.931333,-1.04775 2.550583,-1.04775 1.005417,0 1.502834,0.42333 0.370416,0.3175 0.370416,0.83608 0,1.86267 -3.217333,1.86267 -0.04233,0.27516 -0.04233,0.508 0,0.48683 0.211666,0.67733 0.22225,0.17992 0.624417,0.17992 0.402167,0 0.8255,-0.17992 0.433917,-0.1905 0.613833,-0.48683 z m -2.159,-1.15358 q 0.751417,0 1.185334,-0.46567 0.433916,-0.4445 0.433916,-1.15358 0,-0.24342 -0.09525,-0.37042 -0.08467,-0.13758 -0.264583,-0.13758 -0.179917,0 -0.338667,0.0741 -0.148166,0.0635 -0.306916,0.29633 -0.391584,0.52917 -0.613834,1.75684 z" />
      <path
         id="path949"
         style="font-style:normal;font-variant:normal;font-weight:normal;font-stretch:normal;font-family:'Sansita One';-inkscape-font-specification:'Sansita One';text-align:center;text-anchor:middle;fill:#a02c2c;stroke:#a02c2c;stroke-width:0.82583064;stroke-miterlimit:4;stroke-dasharray:none"
         d="m -45.996699,175.90968 q 0.275167,0.20109 0.275167,0.635 0,0.42334 -0.1905,0.73025 -0.179917,0.29634 -0.53975,0.52917 -0.772584,0.49742 -2.12725,0.49742 -1.344084,0 -2.084917,-0.6985 -0.73025,-0.70909 -0.73025,-1.95792 0,-1.76742 0.92075,-3.1115 0.6985,-0.99483 1.947333,-1.41817 0.645584,-0.21166 1.280584,-0.21166 0.635,0 1.026583,0.0847 0.391583,0.0847 0.687917,0.254 0.645583,0.37042 0.645583,0.96309 0,0.53975 -0.508,0.94191 -0.465667,0.35984 -0.846667,0.35984 -0.381,0 -0.53975,-0.0529 0.04233,-0.381 0.04233,-0.62442 0,-0.254 -0.01058,-0.43391 -0.01058,-0.17992 -0.0635,-0.34925 -0.105833,-0.39159 -0.433916,-0.39159 -0.3175,0 -0.645584,0.30692 -0.3175,0.29633 -0.592666,0.80433 -0.624417,1.15359 -0.624417,2.51884 0,0.65616 0.370417,1.03716 0.370416,0.37042 1.164166,0.37042 0.592667,0 1.153584,-0.39158 0.243416,-0.16934 0.423333,-0.39159 z" />
      <path
         id="path951"
         style="font-style:normal;font-variant:normal;font-weight:normal;font-stretch:normal;font-family:'Sansita One';-inkscape-font-specification:'Sansita One';text-align:center;text-anchor:middle;fill:#a02c2c;stroke:#a02c2c;stroke-width:0.82583064;stroke-miterlimit:4;stroke-dasharray:none"
         d="m -44.389521,177.78293 q -0.243416,-0.27516 -0.359833,-0.70908 -0.105833,-0.43392 -0.105833,-1.143 0,-0.70908 0.243416,-1.35467 0.243417,-0.64558 0.687917,-1.11125 0.910167,-0.97366 2.413,-0.97366 0.53975,0 0.931333,0.17991 l 1.80975,-0.17991 -0.783167,4.1275 q -0.03175,0.127 -0.03175,0.35983 0,0.23283 0.137584,0.381 0.148166,0.14817 0.359833,0.16933 -0.105833,0.35984 -0.497417,0.5715 -0.381,0.21167 -0.814916,0.21167 -0.433917,0 -0.73025,-0.16933 -0.28575,-0.15875 -0.370417,-0.43392 -0.169333,0.26458 -0.529167,0.43392 -0.359833,0.16933 -0.846666,0.16933 -0.47625,0 -0.867833,-0.127 -0.391584,-0.127 -0.645584,-0.40217 z m 2.233083,-4.29683 q -0.116416,0.1905 -0.22225,0.51858 -0.105833,0.3175 -0.285749,1.18534 -0.169334,0.85725 -0.169334,1.47108 0,0.61383 0.09525,0.79375 0.09525,0.17992 0.264584,0.17992 0.338666,0 0.582083,-0.3175 0.254,-0.32809 0.34925,-0.89959 l 0.560916,-3.10091 q -0.22225,-0.1905 -0.486833,-0.1905 -0.254,0 -0.41275,0.0847 -0.148167,0.0847 -0.275167,0.27517 z" />
      <path
         id="path953"
         style="font-style:normal;font-variant:normal;font-weight:normal;font-stretch:normal;font-family:'Sansita One';-inkscape-font-specification:'Sansita One';text-align:center;text-anchor:middle;fill:#a02c2c;stroke:#a02c2c;stroke-width:0.82583064;stroke-miterlimit:4;stroke-dasharray:none"
         d="m -35.659263,177.51835 q -0.328083,0.79375 -1.375833,0.79375 -0.529167,0 -0.867833,-0.37042 -0.275167,-0.30691 -0.275167,-0.65616 0,-0.79375 0.370417,-2.52942 l 0.772583,-4.064 2.148417,-0.21167 -1.026584,5.35517 q -0.179916,0.78317 -0.179916,1.05833 0,0.60325 0.433916,0.62442 z" />
      <path
         id="path955"
         style="font-style:normal;font-variant:normal;font-weight:normal;font-stretch:normal;font-family:'Sansita One';-inkscape-font-specification:'Sansita One';text-align:center;text-anchor:middle;fill:#a02c2c;stroke:#a02c2c;stroke-width:0.82583064;stroke-miterlimit:4;stroke-dasharray:none"
         d="m -30.471115,176.31185 q 0.264583,0.17992 0.264583,0.58208 0,0.39159 -0.201083,0.64559 -0.201083,0.254 -0.529167,0.42333 -0.677333,0.34925 -1.407583,0.34925 -0.73025,0 -1.164167,-0.15875 -0.423333,-0.15875 -0.709083,-0.45508 -0.560916,-0.56092 -0.560916,-1.5875 0,-1.59809 0.867833,-2.57175 0.931333,-1.04775 2.550583,-1.04775 1.005417,0 1.502833,0.42333 0.370417,0.3175 0.370417,0.83608 0,1.86267 -3.217333,1.86267 -0.04233,0.27517 -0.04233,0.508 0,0.48683 0.211667,0.67733 0.22225,0.17992 0.624417,0.17992 0.402166,0 0.8255,-0.17992 0.433916,-0.1905 0.613833,-0.48683 z m -2.159,-1.15358 q 0.751417,0 1.185333,-0.46567 0.433917,-0.4445 0.433917,-1.15358 0,-0.24342 -0.09525,-0.37042 -0.08467,-0.13758 -0.264583,-0.13758 -0.179917,0 -0.338667,0.0741 -0.148167,0.0635 -0.306917,0.29633 -0.391583,0.52917 -0.613833,1.75684 z" />
      <path
         id="path957"
         style="font-style:normal;font-variant:normal;font-weight:normal;font-stretch:normal;font-family:'Sansita One';-inkscape-font-specification:'Sansita One';text-align:center;text-anchor:middle;fill:#a02c2c;stroke:#a02c2c;stroke-width:0.82583064;stroke-miterlimit:4;stroke-dasharray:none"
         d="m -24.658218,178.3121 q -1.280584,0 -1.280584,-0.99483 0.01058,-0.27517 0.09525,-0.74084 l 0.1905,-0.97366 q 0.28575,-1.37584 0.28575,-1.68275 0,-0.61384 -0.359833,-0.61384 -0.60325,0 -0.92075,1.57692 l -0.624417,3.21733 -2.12725,0.21167 1.100667,-5.61975 1.735667,-0.20108 -0.169334,1.03716 q 0.497417,-1.03716 2.021417,-1.03716 0.740833,0 1.04775,0.3175 0.3175,0.30691 0.3175,1.00541 0,0.65617 -0.338667,2.19075 -0.15875,0.68792 -0.15875,0.9525 0,0.254 0.137583,0.40217 0.148167,0.14817 0.359834,0.16933 -0.105834,0.35984 -0.47625,0.5715 -0.359834,0.21167 -0.836083,0.21167 z" />
      <path
         id="path959"
         style="font-style:normal;font-variant:normal;font-weight:normal;font-stretch:normal;font-family:'Sansita One';-inkscape-font-specification:'Sansita One';text-align:center;text-anchor:middle;fill:#a02c2c;stroke:#a02c2c;stroke-width:0.82583064;stroke-miterlimit:4;stroke-dasharray:none"
         d="m -19.165965,172.49127 q 0.381,0 0.677334,0.0847 0.01058,-0.0423 0.03175,-0.15875 l 0.05292,-0.32808 q 0.04233,-0.21167 0.105834,-0.56092 l 0.169333,-0.83608 2.106083,-0.21167 -1.17475,6.13834 q -0.01058,0.0635 -0.01058,0.16933 v 0.16933 q 0,0.23284 0.116417,0.41275 0.116416,0.16934 0.306916,0.16934 -0.211666,0.49741 -0.85725,0.70908 -0.22225,0.0635 -0.53975,0.0635 -0.306916,0 -0.592666,-0.16933 -0.28575,-0.15875 -0.370417,-0.43392 -0.169333,0.27517 -0.508,0.43392 -0.338667,0.16933 -0.836083,0.16933 -0.486833,0 -0.899583,-0.127 -0.402167,-0.127 -0.656167,-0.40217 -0.465667,-0.53975 -0.465667,-1.76741 0,-1.5875 0.931334,-2.55059 0.931333,-0.97366 2.412999,-0.97366 z m -0.07408,0.635 q -0.391583,0 -0.60325,0.42333 -0.211667,0.42333 -0.433917,1.47108 -0.211666,1.04775 -0.211666,1.98967 0,0.64558 0.381,0.64558 0.338666,0 0.5715,-0.33866 0.243416,-0.33867 0.338666,-0.89959 l 0.5715,-3.10091 q -0.22225,-0.1905 -0.613833,-0.1905 z" />
      <path
         id="path961"
         style="font-style:normal;font-variant:normal;font-weight:normal;font-stretch:normal;font-family:'Sansita One';-inkscape-font-specification:'Sansita One';text-align:center;text-anchor:middle;fill:#a02c2c;stroke:#a02c2c;stroke-width:0.82583064;stroke-miterlimit:4;stroke-dasharray:none"
         d="m -15.430049,177.78293 q -0.243417,-0.27516 -0.359833,-0.70908 -0.105834,-0.43392 -0.105834,-1.143 0,-0.70908 0.243417,-1.35467 0.243417,-0.64558 0.687917,-1.11125 0.910166,-0.97366 2.413,-0.97366 0.539749,0 0.931333,0.17991 l 1.8097498,-0.17991 -0.7831668,4.1275 q -0.03175,0.127 -0.03175,0.35983 0,0.23283 0.137583,0.381 0.148167,0.14817 0.359834,0.16933 -0.105834,0.35984 -0.497417,0.5715 -0.381,0.21167 -0.814917,0.21167 -0.433916,0 -0.73025,-0.16933 -0.285749,-0.15875 -0.370416,-0.43392 -0.169333,0.26458 -0.529167,0.43392 -0.359833,0.16933 -0.846666,0.16933 -0.47625,0 -0.867834,-0.127 -0.391583,-0.127 -0.645583,-0.40217 z m 2.233083,-4.29683 q -0.116416,0.1905 -0.22225,0.51858 -0.105833,0.3175 -0.28575,1.18534 -0.169333,0.85725 -0.169333,1.47108 0,0.61383 0.09525,0.79375 0.09525,0.17992 0.264583,0.17992 0.338667,0 0.582084,-0.3175 0.254,-0.32809 0.34925,-0.89959 l 0.560916,-3.10091 q -0.22225,-0.1905 -0.486833,-0.1905 -0.254,0 -0.41275,0.0847 -0.148167,0.0847 -0.275167,0.27517 z" />
      <path
         id="path963"
         style="font-style:normal;font-variant:normal;font-weight:normal;font-stretch:normal;font-family:'Sansita One';-inkscape-font-specification:'Sansita One';text-align:center;text-anchor:middle;fill:#a02c2c;stroke:#a02c2c;stroke-width:0.82583064;stroke-miterlimit:4;stroke-dasharray:none"
         d="m -5.9166234,175.12652 q 0.381,-0.67734 0.381,-1.36525 0,-0.45509 -0.3280833,-0.45509 -0.254,0 -0.5185834,0.43392 -0.2751666,0.43392 -0.3598333,0.99483 l -0.5503333,3.3655 -2.1907499,0.21167 1.0794999,-5.60917 1.74625,-0.21166 -0.1905,1.06891 q 0.5185833,-1.06891 1.6827499,-1.06891 0.6138334,0 0.9419167,0.3175 0.3386666,0.3175 0.3386666,0.97366 0,0.64559 -0.4339166,1.05834 -0.4233333,0.41275 -1.1535833,0.41275 -0.3175,0 -0.4445,-0.127 z" />
      <path
         id="path965"
         style="font-style:normal;font-variant:normal;font-weight:normal;font-stretch:normal;font-family:'Sansita One';-inkscape-font-specification:'Sansita One';text-align:center;text-anchor:middle;fill:#a02c2c;stroke:#a02c2c;stroke-width:0.82583064;stroke-miterlimit:4;stroke-dasharray:none"
         d="m -1.1481702,176.38593 q -0.3386667,-0.24341 -0.3386667,-0.70908 0,-0.254 0.127,-0.45508 0.127,-0.21167 0.38100003,-0.24342 H 1.1060797 q 0.34925,0 0.4550834,-0.21167 0.1693333,0.0952 0.2434166,0.29634 0.074083,0.20108 0.074083,0.41275 0,0.21166 -0.1693333,0.42333 -0.15875,0.20108 -0.4021666,0.22225 h -1.93674998 q -0.22224999,0 -0.32808332,0.0741 -0.1058333,0.0635 -0.1905,0.1905 z" />
      <path
         id="path967"
         style="font-style:normal;font-variant:normal;font-weight:normal;font-stretch:normal;font-family:'Sansita One';-inkscape-font-specification:'Sansita One';text-align:center;text-anchor:middle;fill:#a02c2c;stroke:#a02c2c;stroke-width:0.82583064;stroke-miterlimit:4;stroke-dasharray:none"
         d="m 11.654025,173.70835 q 0,4.5085 -4.8894999,4.5085 -0.7831667,0 -2.0743333,-0.1905 l 1.1853333,-6.25475 q 0.084667,-0.42333 0.1375833,-0.66675 1.6086666,-0.11642 2.31775,-0.11642 0.7196666,0 1.3758332,0.14817 0.6561664,0.14817 1.0900834,0.47625 0.85725,0.64558 0.85725,2.0955 z m -2.1801667,-0.39158 q 0,-1.57692 -1.1324166,-1.57692 H 8.2356084 q -0.052917,0 -0.1058334,0.0106 l -1.0900833,5.68325 q 0.042333,0.0212 0.084667,0.0212 h 0.084667 q 0.3915833,0 0.7937499,-0.24342 0.41275,-0.24341 0.73025,-0.74083 0.7408333,-1.15358 0.7408333,-3.15383 z" />
      <path
         id="path969"
         style="font-style:normal;font-variant:normal;font-weight:normal;font-stretch:normal;font-family:'Sansita One';-inkscape-font-specification:'Sansita One';text-align:center;text-anchor:middle;fill:#a02c2c;stroke:#a02c2c;stroke-width:0.82583064;stroke-miterlimit:4;stroke-dasharray:none"
         d="m 16.471754,176.31185 q 0.264584,0.17992 0.264584,0.58208 0,0.39159 -0.201084,0.64559 -0.201083,0.254 -0.529166,0.42333 -0.677334,0.34925 -1.407584,0.34925 -0.73025,0 -1.164166,-0.15875 -0.423334,-0.15875 -0.709084,-0.45508 -0.560916,-0.56092 -0.560916,-1.5875 0,-1.59809 0.867833,-2.57175 0.931333,-1.04775 2.550583,-1.04775 1.005417,0 1.502834,0.42333 0.370416,0.3175 0.370416,0.83608 0,1.86267 -3.217333,1.86267 -0.04233,0.27517 -0.04233,0.508 0,0.48683 0.211666,0.67733 0.22225,0.17992 0.624417,0.17992 0.402167,0 0.8255,-0.17992 0.433917,-0.1905 0.613833,-0.48683 z m -2.159,-1.15358 q 0.751417,0 1.185334,-0.46567 0.433916,-0.4445 0.433916,-1.15358 0,-0.24342 -0.09525,-0.37042 -0.08467,-0.13758 -0.264583,-0.13758 -0.179917,0 -0.338667,0.0741 -0.148166,0.0635 -0.306916,0.29633 -0.391584,0.52917 -0.613834,1.75684 z" />
      <path
         id="path971"
         style="font-style:normal;font-variant:normal;font-weight:normal;font-stretch:normal;font-family:'Sansita One';-inkscape-font-specification:'Sansita One';text-align:center;text-anchor:middle;fill:#a02c2c;stroke:#a02c2c;stroke-width:0.82583064;stroke-miterlimit:4;stroke-dasharray:none"
         d="m 17.670319,177.59243 1.312334,-6.90033 2.148416,-0.21167 -0.328083,1.61925 q -0.116417,0.49742 -0.264583,0.84667 0.232833,-0.29633 0.740833,-0.41275 0.148167,-0.0423 0.328083,-0.0423 0.98425,0 1.524,0.60325 0.53975,0.59266 0.53975,1.74625 0,1.50283 -0.85725,2.44475 -0.92075,1.02658 -2.592916,1.02658 -1.153584,0 -2.021417,-0.381 -0.306917,-0.13758 -0.529167,-0.33867 z m 2.12725,-0.0953 q 0.22225,0.1905 0.497417,0.1905 0.275167,0 0.433917,-0.10583 0.15875,-0.10583 0.275166,-0.3175 0.3175,-0.5715 0.5715,-2.31775 0.07408,-0.49742 0.07408,-0.99483 0,-0.49742 -0.116417,-0.65617 -0.105833,-0.15875 -0.3175,-0.15875 -0.645583,0 -0.85725,1.25942 z" />
      <path
         id="path973"
         style="font-style:normal;font-variant:normal;font-weight:normal;font-stretch:normal;font-family:'Sansita One';-inkscape-font-specification:'Sansita One';text-align:center;text-anchor:middle;fill:#a02c2c;stroke:#a02c2c;stroke-width:0.82583064;stroke-miterlimit:4;stroke-dasharray:none"
         d="m 26.838457,177.51835 q -0.328083,0.79375 -1.375833,0.79375 -0.53975,0 -0.878416,-0.37042 -0.28575,-0.32808 -0.28575,-0.65616 0,-0.85725 0.391583,-2.52942 l 0.391583,-2.05317 2.148417,-0.21166 -0.645584,3.34433 q -0.179916,0.78317 -0.179916,1.05833 0,0.60325 0.433916,0.62442 z m -1.566333,-6.2865 q 0,-0.41275 0.338667,-0.635 0.34925,-0.22225 0.846666,-0.22225 0.497417,0 0.79375,0.22225 0.306917,0.22225 0.306917,0.635 0,0.41275 -0.338667,0.62442 -0.328083,0.21166 -0.8255,0.21166 -0.497416,0 -0.814916,-0.21166 -0.306917,-0.21167 -0.306917,-0.62442 z" />
      <path
         id="path975"
         style="font-style:normal;font-variant:normal;font-weight:normal;font-stretch:normal;font-family:'Sansita One';-inkscape-font-specification:'Sansita One';text-align:center;text-anchor:middle;fill:#a02c2c;stroke:#a02c2c;stroke-width:0.82583064;stroke-miterlimit:4;stroke-dasharray:none"
         d="m 28.184861,177.78293 q -0.243417,-0.27516 -0.359833,-0.70908 -0.105834,-0.43392 -0.105834,-1.143 0,-0.70908 0.243417,-1.35467 0.243417,-0.64558 0.687917,-1.11125 0.910166,-0.97366 2.413,-0.97366 0.53975,0 0.931333,0.17991 l 1.80975,-0.17991 -0.783167,4.1275 q -0.03175,0.127 -0.03175,0.35983 0,0.23283 0.137584,0.381 0.148166,0.14817 0.359833,0.16933 -0.105833,0.35984 -0.497417,0.5715 -0.381,0.21167 -0.814916,0.21167 -0.433917,0 -0.73025,-0.16933 -0.28575,-0.15875 -0.370417,-0.43392 -0.169333,0.26458 -0.529167,0.43392 -0.359833,0.16933 -0.846666,0.16933 -0.47625,0 -0.867834,-0.127 -0.391583,-0.127 -0.645583,-0.40217 z m 2.233083,-4.29683 q -0.116416,0.1905 -0.22225,0.51858 -0.105833,0.3175 -0.28575,1.18534 -0.169333,0.85725 -0.169333,1.47108 0,0.61383 0.09525,0.79375 0.09525,0.17992 0.264583,0.17992 0.338667,0 0.582084,-0.3175 0.254,-0.32809 0.34925,-0.89959 l 0.560916,-3.10091 q -0.22225,-0.1905 -0.486833,-0.1905 -0.254,0 -0.41275,0.0847 -0.148167,0.0847 -0.275167,0.27517 z" />
      <path
         id="path977"
         style="font-style:normal;font-variant:normal;font-weight:normal;font-stretch:normal;font-family:'Sansita One';-inkscape-font-specification:'Sansita One';text-align:center;text-anchor:middle;fill:#a02c2c;stroke:#a02c2c;stroke-width:0.82583064;stroke-miterlimit:4;stroke-dasharray:none"
         d="m 38.86245,178.3121 q -1.280584,0 -1.280584,-0.99483 0.01058,-0.27517 0.09525,-0.74084 l 0.1905,-0.97366 q 0.28575,-1.37584 0.28575,-1.68275 0,-0.61384 -0.359833,-0.61384 -0.60325,0 -0.92075,1.57692 l -0.624417,3.21733 -2.12725,0.21167 1.100667,-5.61975 1.735667,-0.20108 -0.169334,1.03716 q 0.497417,-1.03716 2.021417,-1.03716 0.740833,0 1.04775,0.3175 0.3175,0.30691 0.3175,1.00541 0,0.65617 -0.338667,2.19075 -0.15875,0.68792 -0.15875,0.9525 0,0.254 0.137584,0.40217 0.148166,0.14817 0.359833,0.16933 -0.105834,0.35984 -0.47625,0.5715 -0.359833,0.21167 -0.836083,0.21167 z" />
    </g>
    <g
       id="text962"
       style="font-style:normal;font-weight:normal;font-size:10.58333302px;line-height:1.25;font-family:sans-serif;letter-spacing:0px;word-spacing:0px;fill:#ffffff;fill-opacity:1;stroke:none;stroke-width:0.26458332"
       aria-label="Command  Line  Calendar - Debian">
      <path
         id="path980"
         style="font-style:normal;font-variant:normal;font-weight:normal;font-stretch:normal;font-family:'Sansita One';-inkscape-font-specification:'Sansita One';text-align:center;text-anchor:middle;fill:#ffffff;stroke-width:0.26458332"
         d="m -40.756709,162.68051 q 0.275167,0.20108 0.275167,0.635 0,0.42333 -0.1905,0.73025 -0.179917,0.29633 -0.53975,0.52917 -0.772584,0.49741 -2.12725,0.49741 -1.344083,0 -2.084917,-0.6985 -0.73025,-0.70908 -0.73025,-1.95791 0,-1.76742 0.92075,-3.1115 0.6985,-0.99483 1.947333,-1.41817 0.645584,-0.21166 1.280584,-0.21166 0.635,0 1.026583,0.0847 0.391583,0.0847 0.687917,0.254 0.645583,0.37042 0.645583,0.96309 0,0.53975 -0.508,0.94191 -0.465667,0.35984 -0.846667,0.35984 -0.381,0 -0.53975,-0.0529 0.04233,-0.381 0.04233,-0.62442 0,-0.254 -0.01058,-0.43391 -0.01058,-0.17992 -0.0635,-0.34925 -0.105833,-0.39159 -0.433916,-0.39159 -0.3175,0 -0.645584,0.30692 -0.3175,0.29633 -0.592666,0.80433 -0.624417,1.15359 -0.624417,2.51884 0,0.65616 0.370417,1.03716 0.370416,0.37042 1.164166,0.37042 0.592667,0 1.153584,-0.39159 0.243416,-0.16933 0.423333,-0.39158 z" />
      <path
         id="path982"
         style="font-style:normal;font-variant:normal;font-weight:normal;font-stretch:normal;font-family:'Sansita One';-inkscape-font-specification:'Sansita One';text-align:center;text-anchor:middle;fill:#ffffff;stroke-width:0.26458332"
         d="m -37.297447,165.08293 q -2.328334,0 -2.328334,-2.19075 0,-1.55575 0.85725,-2.56117 0.910167,-1.06891 2.487084,-1.06891 1.143,0 1.725083,0.52916 0.582083,0.52917 0.582083,1.64042 0,1.69333 -0.910166,2.67758 -0.889,0.97367 -2.413,0.97367 z m 0.275166,-4.60375 q -0.127,0.28575 -0.232833,0.71967 -0.09525,0.42333 -0.22225,1.10066 -0.127,0.67733 -0.127,1.51342 0,0.27516 0.08467,0.45508 0.09525,0.17992 0.338666,0.17992 0.243417,0 0.391584,-0.11642 0.15875,-0.11642 0.275166,-0.39158 0.211667,-0.48684 0.381,-1.38642 0.169334,-0.91016 0.179917,-1.30175 0.02117,-0.39158 0.02117,-0.67733 0,-0.29633 -0.08467,-0.48683 -0.08467,-0.1905 -0.328083,-0.1905 -0.232834,0 -0.391584,0.14816 -0.15875,0.14817 -0.28575,0.43392 z" />
      <path
         id="path984"
         style="font-style:normal;font-variant:normal;font-weight:normal;font-stretch:normal;font-family:'Sansita One';-inkscape-font-specification:'Sansita One';text-align:center;text-anchor:middle;fill:#ffffff;stroke-width:0.26458332"
         d="m -25.721431,165.08293 q -1.280583,0 -1.280583,-0.99484 0,-0.43391 0.179917,-1.27 0.1905,-0.84666 0.254,-1.18533 0.148166,-0.77258 0.148166,-1.016 0,-0.53975 -0.402166,-0.53975 -0.264584,0 -0.518584,0.37042 -0.254,0.35983 -0.370416,1.09008 l -0.656167,3.33375 -2.06375,0.21167 0.5715,-2.87867 q 0.09525,-0.47625 0.179917,-1.016 0.08467,-0.53975 0.08467,-0.62441 0,-0.48684 -0.359833,-0.48684 -0.243417,0 -0.508,0.35984 -0.264583,0.35983 -0.41275,1.10066 l -0.645583,3.33375 -2.084917,0.21167 1.11125,-5.60917 1.725083,-0.21166 -0.179916,1.06891 q 0.275166,-0.5715 0.783166,-0.81491 0.508,-0.254 1.30175,-0.254 0.455084,0 0.751417,0.22225 0.296333,0.22225 0.391583,0.58208 0.179917,-0.37042 0.635,-0.58208 0.465667,-0.22225 1.026584,-0.22225 0.5715,0 0.846666,0.127 0.28575,0.11641 0.455084,0.3175 0.28575,0.37041 0.28575,1.04775 0,0.66675 -0.28575,2.05316 -0.148167,0.67733 -0.148167,0.93133 0,0.24342 0.137583,0.39159 0.148167,0.14816 0.359834,0.16933 -0.105834,0.35983 -0.47625,0.5715 -0.359834,0.21167 -0.836084,0.21167 z" />
      <path
         id="path986"
         style="font-style:normal;font-variant:normal;font-weight:normal;font-stretch:normal;font-family:'Sansita One';-inkscape-font-specification:'Sansita One';text-align:center;text-anchor:middle;fill:#ffffff;stroke-width:0.26458332"
         d="m -15.96492,165.08293 q -1.280583,0 -1.280583,-0.99484 0,-0.43391 0.179916,-1.27 0.1905,-0.84666 0.254,-1.18533 0.148167,-0.77258 0.148167,-1.016 0,-0.53975 -0.402167,-0.53975 -0.264583,0 -0.518583,0.37042 -0.254,0.35983 -0.370417,1.09008 l -0.656166,3.33375 -2.06375,0.21167 0.5715,-2.87867 q 0.09525,-0.47625 0.179917,-1.016 0.08467,-0.53975 0.08467,-0.62441 0,-0.48684 -0.359833,-0.48684 -0.243417,0 -0.508,0.35984 -0.264583,0.35983 -0.41275,1.10066 l -0.645583,3.33375 -2.084917,0.21167 1.11125,-5.60917 1.725083,-0.21166 -0.179916,1.06891 q 0.275166,-0.5715 0.783166,-0.81491 0.508,-0.254 1.30175,-0.254 0.455083,0 0.751417,0.22225 0.296333,0.22225 0.391583,0.58208 0.179917,-0.37042 0.635,-0.58208 0.465667,-0.22225 1.026583,-0.22225 0.5715,0 0.846667,0.127 0.28575,0.11641 0.455083,0.3175 0.28575,0.37041 0.28575,1.04775 0,0.66675 -0.28575,2.05316 -0.148166,0.67733 -0.148166,0.93133 0,0.24342 0.137583,0.39159 0.148167,0.14816 0.359833,0.16933 -0.105833,0.35983 -0.47625,0.5715 -0.359833,0.21167 -0.836083,0.21167 z" />
      <path
         id="path988"
         style="font-style:normal;font-variant:normal;font-weight:normal;font-stretch:normal;font-family:'Sansita One';-inkscape-font-specification:'Sansita One';text-align:center;text-anchor:middle;fill:#ffffff;stroke-width:0.26458332"
         d="m -13.373328,164.55376 q -0.243417,-0.27517 -0.359834,-0.70908 -0.105833,-0.43392 -0.105833,-1.143 0,-0.70908 0.243417,-1.35467 0.243416,-0.64558 0.687916,-1.11125 0.910167,-0.97366 2.413,-0.97366 0.5397501,0 0.9313334,0.17991 l 1.8097499,-0.17991 -0.7831666,4.12749 q -0.03175,0.127 -0.03175,0.35984 0,0.23283 0.1375833,0.381 0.1481667,0.14816 0.3598333,0.16933 -0.1058333,0.35983 -0.4974166,0.5715 -0.381,0.21167 -0.8149166,0.21167 -0.4339167,0 -0.7302501,-0.16934 -0.28575,-0.15875 -0.370417,-0.43391 -0.169333,0.26458 -0.529166,0.43391 -0.359834,0.16934 -0.846667,0.16934 -0.47625,0 -0.867833,-0.127 -0.391584,-0.127 -0.645583,-0.40217 z m 2.233083,-4.29683 q -0.116417,0.1905 -0.22225,0.51858 -0.105834,0.3175 -0.28575,1.18534 -0.169334,0.85724 -0.169334,1.47108 0,0.61383 0.09525,0.79375 0.09525,0.17991 0.264584,0.17991 0.338666,0 0.582083,-0.3175 0.254,-0.32808 0.34925,-0.89958 l 0.5609167,-3.10091 q -0.2222497,-0.1905 -0.4868337,-0.1905 -0.254,0 -0.41275,0.0847 -0.148166,0.0847 -0.275166,0.27517 z" />
      <path
         id="path990"
         style="font-style:normal;font-variant:normal;font-weight:normal;font-stretch:normal;font-family:'Sansita One';-inkscape-font-specification:'Sansita One';text-align:center;text-anchor:middle;fill:#ffffff;stroke-width:0.26458332"
         d="m -2.6957362,165.08293 q -1.2805833,0 -1.2805833,-0.99484 0.010583,-0.27516 0.09525,-0.74083 l 0.1905,-0.97366 q 0.28575,-1.37584 0.28575,-1.68275 0,-0.61384 -0.3598333,-0.61384 -0.60325,0 -0.92075,1.57692 l -0.6244167,3.21733 -2.1272499,0.21167 1.1006666,-5.61975 1.7356667,-0.20108 -0.1693334,1.03716 q 0.4974167,-1.03716 2.0214166,-1.03716 0.7408333,0 1.04775,0.3175 0.3175,0.30691 0.3175,1.00541 0,0.65617 -0.3386667,2.19075 -0.15875,0.68792 -0.15875,0.9525 0,0.254 0.1375834,0.40217 0.1481666,0.14816 0.3598333,0.16933 -0.1058333,0.35983 -0.47625,0.5715 -0.3598333,0.21167 -0.8360833,0.21167 z" />
      <path
         id="path992"
         style="font-style:normal;font-variant:normal;font-weight:normal;font-stretch:normal;font-family:'Sansita One';-inkscape-font-specification:'Sansita One';text-align:center;text-anchor:middle;fill:#ffffff;stroke-width:0.26458332"
         d="m 2.7965177,159.2621 q 0.381,0 0.6773334,0.0847 0.010583,-0.0423 0.03175,-0.15875 l 0.052917,-0.32808 q 0.042333,-0.21167 0.1058333,-0.56092 l 0.1693334,-0.83608 2.1060832,-0.21167 -1.1747499,6.13833 q -0.010583,0.0635 -0.010583,0.16934 v 0.16933 q 0,0.23283 0.1164167,0.41275 0.1164167,0.16933 0.3069167,0.16933 -0.2116667,0.49742 -0.85725,0.70909 -0.22225,0.0635 -0.53975,0.0635 -0.3069166,0 -0.5926666,-0.16934 -0.28575,-0.15875 -0.3704167,-0.43391 -0.1693333,0.27516 -0.508,0.43391 -0.3386666,0.16934 -0.8360833,0.16934 -0.4868333,0 -0.89958329,-0.127 -0.40216666,-0.127 -0.65616665,-0.40217 -0.46566665,-0.53975 -0.46566665,-1.76742 0,-1.58749 0.9313333,-2.55058 0.93133329,-0.97366 2.41299989,-0.97366 z m -0.074083,0.635 q -0.3915833,0 -0.60325,0.42333 -0.2116666,0.42333 -0.4339166,1.47108 -0.2116667,1.04775 -0.2116667,1.98967 0,0.64558 0.381,0.64558 0.3386667,0 0.5715,-0.33867 0.2434166,-0.33866 0.3386666,-0.89958 l 0.5715,-3.10091 q -0.22225,-0.1905 -0.6138333,-0.1905 z" />
      <path
         id="path994"
         style="font-style:normal;font-variant:normal;font-weight:normal;font-stretch:normal;font-family:'Sansita One';-inkscape-font-specification:'Sansita One';text-align:center;text-anchor:middle;fill:#ffffff;stroke-width:0.26458332"
         d="m 14.842003,163.24143 q 0.201084,0.254 0.201084,0.75141 0,0.48684 -0.381,0.79375 -0.370417,0.29634 -1.026584,0.29634 -0.381,0 -0.973666,-0.0847 -1.164167,-0.17992 -1.502833,-0.17992 -0.328084,0 -0.465667,0.0212 -0.137583,0.0106 -0.359833,0.0318 l 1.280583,-6.985 h 2.31775 l -1.058334,5.82083 q 0.137584,0.0212 0.264584,0.0212 h 0.264583 q 0.889,0 1.439333,-0.48683 z" />
      <path
         id="path996"
         style="font-style:normal;font-variant:normal;font-weight:normal;font-stretch:normal;font-family:'Sansita One';-inkscape-font-specification:'Sansita One';text-align:center;text-anchor:middle;fill:#ffffff;stroke-width:0.26458332"
         d="m 18.291178,164.28918 q -0.328083,0.79375 -1.375833,0.79375 -0.53975,0 -0.878417,-0.37042 -0.28575,-0.32808 -0.28575,-0.65617 0,-0.85725 0.391583,-2.52941 l 0.391584,-2.05317 2.148416,-0.21166 -0.645583,3.34433 q -0.179917,0.78316 -0.179917,1.05833 0,0.60325 0.433917,0.62442 z m -1.566333,-6.2865 q 0,-0.41275 0.338666,-0.635 0.34925,-0.22225 0.846667,-0.22225 0.497417,0 0.79375,0.22225 0.306917,0.22225 0.306917,0.635 0,0.41275 -0.338667,0.62442 -0.328083,0.21166 -0.8255,0.21166 -0.497417,0 -0.814917,-0.21166 -0.306916,-0.21167 -0.306916,-0.62442 z" />
      <path
         id="path998"
         style="font-style:normal;font-variant:normal;font-weight:normal;font-stretch:normal;font-family:'Sansita One';-inkscape-font-specification:'Sansita One';text-align:center;text-anchor:middle;fill:#ffffff;stroke-width:0.26458332"
         d="m 23.65924,165.08293 q -1.280583,0 -1.280583,-0.99484 0.01058,-0.27516 0.09525,-0.74083 l 0.1905,-0.97366 q 0.28575,-1.37584 0.28575,-1.68275 0,-0.61384 -0.359833,-0.61384 -0.60325,0 -0.92075,1.57692 l -0.624417,3.21733 -2.12725,0.21167 1.100667,-5.61975 1.735667,-0.20108 -0.169334,1.03716 q 0.497417,-1.03716 2.021417,-1.03716 0.740833,0 1.04775,0.3175 0.3175,0.30691 0.3175,1.00541 0,0.65617 -0.338667,2.19075 -0.15875,0.68792 -0.15875,0.9525 0,0.254 0.137583,0.40217 0.148167,0.14816 0.359834,0.16933 -0.105834,0.35983 -0.47625,0.5715 -0.359834,0.21167 -0.836084,0.21167 z" />
      <path
         id="path1000"
         style="font-style:normal;font-variant:normal;font-weight:normal;font-stretch:normal;font-family:'Sansita One';-inkscape-font-specification:'Sansita One';text-align:center;text-anchor:middle;fill:#ffffff;stroke-width:0.26458332"
         d="m 30.103994,163.08268 q 0.264584,0.17991 0.264584,0.58208 0,0.39158 -0.201084,0.64558 -0.201083,0.254 -0.529166,0.42334 -0.677334,0.34925 -1.407584,0.34925 -0.73025,0 -1.164166,-0.15875 -0.423334,-0.15875 -0.709084,-0.45509 -0.560916,-0.56091 -0.560916,-1.5875 0,-1.59808 0.867833,-2.57174 0.931333,-1.04775 2.550583,-1.04775 1.005417,0 1.502834,0.42333 0.370416,0.3175 0.370416,0.83608 0,1.86267 -3.217333,1.86267 -0.04233,0.27516 -0.04233,0.508 0,0.48683 0.211666,0.67733 0.22225,0.17992 0.624417,0.17992 0.402167,0 0.8255,-0.17992 0.433917,-0.1905 0.613833,-0.48683 z m -2.159,-1.15358 q 0.751417,0 1.185334,-0.46567 0.433916,-0.4445 0.433916,-1.15358 0,-0.24342 -0.09525,-0.37042 -0.08467,-0.13758 -0.264583,-0.13758 -0.179917,0 -0.338667,0.0741 -0.148166,0.0635 -0.306916,0.29633 -0.391584,0.52917 -0.613834,1.75684 z" />
      <path
         id="path1002"
         style="font-style:normal;font-variant:normal;font-weight:normal;font-stretch:normal;font-family:'Sansita One';-inkscape-font-specification:'Sansita One';text-align:center;text-anchor:middle;fill:#ffffff;stroke-width:0.26458332"
         d="m -45.996699,175.90968 q 0.275167,0.20109 0.275167,0.635 0,0.42334 -0.1905,0.73025 -0.179917,0.29634 -0.53975,0.52917 -0.772584,0.49742 -2.12725,0.49742 -1.344084,0 -2.084917,-0.6985 -0.73025,-0.70909 -0.73025,-1.95792 0,-1.76742 0.92075,-3.1115 0.6985,-0.99483 1.947333,-1.41817 0.645584,-0.21166 1.280584,-0.21166 0.635,0 1.026583,0.0847 0.391583,0.0847 0.687917,0.254 0.645583,0.37042 0.645583,0.96309 0,0.53975 -0.508,0.94191 -0.465667,0.35984 -0.846667,0.35984 -0.381,0 -0.53975,-0.0529 0.04233,-0.381 0.04233,-0.62442 0,-0.254 -0.01058,-0.43391 -0.01058,-0.17992 -0.0635,-0.34925 -0.105833,-0.39159 -0.433916,-0.39159 -0.3175,0 -0.645584,0.30692 -0.3175,0.29633 -0.592666,0.80433 -0.624417,1.15359 -0.624417,2.51884 0,0.65616 0.370417,1.03716 0.370416,0.37042 1.164166,0.37042 0.592667,0 1.153584,-0.39158 0.243416,-0.16934 0.423333,-0.39159 z" />
      <path
         id="path1004"
         style="font-style:normal;font-variant:normal;font-weight:normal;font-stretch:normal;font-family:'Sansita One';-inkscape-font-specification:'Sansita One';text-align:center;text-anchor:middle;fill:#ffffff;stroke-width:0.26458332"
         d="m -44.389521,177.78293 q -0.243416,-0.27516 -0.359833,-0.70908 -0.105833,-0.43392 -0.105833,-1.143 0,-0.70908 0.243416,-1.35467 0.243417,-0.64558 0.687917,-1.11125 0.910167,-0.97366 2.413,-0.97366 0.53975,0 0.931333,0.17991 l 1.80975,-0.17991 -0.783167,4.1275 q -0.03175,0.127 -0.03175,0.35983 0,0.23283 0.137584,0.381 0.148166,0.14817 0.359833,0.16933 -0.105833,0.35984 -0.497417,0.5715 -0.381,0.21167 -0.814916,0.21167 -0.433917,0 -0.73025,-0.16933 -0.28575,-0.15875 -0.370417,-0.43392 -0.169333,0.26458 -0.529167,0.43392 -0.359833,0.16933 -0.846666,0.16933 -0.47625,0 -0.867833,-0.127 -0.391584,-0.127 -0.645584,-0.40217 z m 2.233083,-4.29683 q -0.116416,0.1905 -0.22225,0.51858 -0.105833,0.3175 -0.285749,1.18534 -0.169334,0.85725 -0.169334,1.47108 0,0.61383 0.09525,0.79375 0.09525,0.17992 0.264584,0.17992 0.338666,0 0.582083,-0.3175 0.254,-0.32809 0.34925,-0.89959 l 0.560916,-3.10091 q -0.22225,-0.1905 -0.486833,-0.1905 -0.254,0 -0.41275,0.0847 -0.148167,0.0847 -0.275167,0.27517 z" />
      <path
         id="path1006"
         style="font-style:normal;font-variant:normal;font-weight:normal;font-stretch:normal;font-family:'Sansita One';-inkscape-font-specification:'Sansita One';text-align:center;text-anchor:middle;fill:#ffffff;stroke-width:0.26458332"
         d="m -35.659263,177.51835 q -0.328083,0.79375 -1.375833,0.79375 -0.529167,0 -0.867833,-0.37042 -0.275167,-0.30691 -0.275167,-0.65616 0,-0.79375 0.370417,-2.52942 l 0.772583,-4.064 2.148417,-0.21167 -1.026584,5.35517 q -0.179916,0.78317 -0.179916,1.05833 0,0.60325 0.433916,0.62442 z" />
      <path
         id="path1008"
         style="font-style:normal;font-variant:normal;font-weight:normal;font-stretch:normal;font-family:'Sansita One';-inkscape-font-specification:'Sansita One';text-align:center;text-anchor:middle;fill:#ffffff;stroke-width:0.26458332"
         d="m -30.471115,176.31185 q 0.264583,0.17992 0.264583,0.58208 0,0.39159 -0.201083,0.64559 -0.201083,0.254 -0.529167,0.42333 -0.677333,0.34925 -1.407583,0.34925 -0.73025,0 -1.164167,-0.15875 -0.423333,-0.15875 -0.709083,-0.45508 -0.560916,-0.56092 -0.560916,-1.5875 0,-1.59809 0.867833,-2.57175 0.931333,-1.04775 2.550583,-1.04775 1.005417,0 1.502833,0.42333 0.370417,0.3175 0.370417,0.83608 0,1.86267 -3.217333,1.86267 -0.04233,0.27517 -0.04233,0.508 0,0.48683 0.211667,0.67733 0.22225,0.17992 0.624417,0.17992 0.402166,0 0.8255,-0.17992 0.433916,-0.1905 0.613833,-0.48683 z m -2.159,-1.15358 q 0.751417,0 1.185333,-0.46567 0.433917,-0.4445 0.433917,-1.15358 0,-0.24342 -0.09525,-0.37042 -0.08467,-0.13758 -0.264583,-0.13758 -0.179917,0 -0.338667,0.0741 -0.148167,0.0635 -0.306917,0.29633 -0.391583,0.52917 -0.613833,1.75684 z" />
      <path
         id="path1010"
         style="font-style:normal;font-variant:normal;font-weight:normal;font-stretch:normal;font-family:'Sansita One';-inkscape-font-specification:'Sansita One';text-align:center;text-anchor:middle;fill:#ffffff;stroke-width:0.26458332"
         d="m -24.658218,178.3121 q -1.280584,0 -1.280584,-0.99483 0.01058,-0.27517 0.09525,-0.74084 l 0.1905,-0.97366 q 0.28575,-1.37584 0.28575,-1.68275 0,-0.61384 -0.359833,-0.61384 -0.60325,0 -0.92075,1.57692 l -0.624417,3.21733 -2.12725,0.21167 1.100667,-5.61975 1.735667,-0.20108 -0.169334,1.03716 q 0.497417,-1.03716 2.021417,-1.03716 0.740833,0 1.04775,0.3175 0.3175,0.30691 0.3175,1.00541 0,0.65617 -0.338667,2.19075 -0.15875,0.68792 -0.15875,0.9525 0,0.254 0.137583,0.40217 0.148167,0.14817 0.359834,0.16933 -0.105834,0.35984 -0.47625,0.5715 -0.359834,0.21167 -0.836083,0.21167 z" />
      <path
         id="path1012"
         style="font-style:normal;font-variant:normal;font-weight:normal;font-stretch:normal;font-family:'Sansita One';-inkscape-font-specification:'Sansita One';text-align:center;text-anchor:middle;fill:#ffffff;stroke-width:0.26458332"
         d="m -19.165965,172.49127 q 0.381,0 0.677334,0.0847 0.01058,-0.0423 0.03175,-0.15875 l 0.05292,-0.32808 q 0.04233,-0.21167 0.105834,-0.56092 l 0.169333,-0.83608 2.106083,-0.21167 -1.17475,6.13834 q -0.01058,0.0635 -0.01058,0.16933 v 0.16933 q 0,0.23284 0.116417,0.41275 0.116416,0.16934 0.306916,0.16934 -0.211666,0.49741 -0.85725,0.70908 -0.22225,0.0635 -0.53975,0.0635 -0.306916,0 -0.592666,-0.16933 -0.28575,-0.15875 -0.370417,-0.43392 -0.169333,0.27517 -0.508,0.43392 -0.338667,0.16933 -0.836083,0.16933 -0.486833,0 -0.899583,-0.127 -0.402167,-0.127 -0.656167,-0.40217 -0.465667,-0.53975 -0.465667,-1.76741 0,-1.5875 0.931334,-2.55059 0.931333,-0.97366 2.412999,-0.97366 z m -0.07408,0.635 q -0.391583,0 -0.60325,0.42333 -0.211667,0.42333 -0.433917,1.47108 -0.211666,1.04775 -0.211666,1.98967 0,0.64558 0.381,0.64558 0.338666,0 0.5715,-0.33866 0.243416,-0.33867 0.338666,-0.89959 l 0.5715,-3.10091 q -0.22225,-0.1905 -0.613833,-0.1905 z" />
      <path
         id="path1014"
         style="font-style:normal;font-variant:normal;font-weight:normal;font-stretch:normal;font-family:'Sansita One';-inkscape-font-specification:'Sansita One';text-align:center;text-anchor:middle;fill:#ffffff;stroke-width:0.26458332"
         d="m -15.430049,177.78293 q -0.243417,-0.27516 -0.359833,-0.70908 -0.105834,-0.43392 -0.105834,-1.143 0,-0.70908 0.243417,-1.35467 0.243417,-0.64558 0.687917,-1.11125 0.910166,-0.97366 2.413,-0.97366 0.539749,0 0.931333,0.17991 l 1.8097498,-0.17991 -0.7831668,4.1275 q -0.03175,0.127 -0.03175,0.35983 0,0.23283 0.137583,0.381 0.148167,0.14817 0.359834,0.16933 -0.105834,0.35984 -0.497417,0.5715 -0.381,0.21167 -0.814917,0.21167 -0.433916,0 -0.73025,-0.16933 -0.285749,-0.15875 -0.370416,-0.43392 -0.169333,0.26458 -0.529167,0.43392 -0.359833,0.16933 -0.846666,0.16933 -0.47625,0 -0.867834,-0.127 -0.391583,-0.127 -0.645583,-0.40217 z m 2.233083,-4.29683 q -0.116416,0.1905 -0.22225,0.51858 -0.105833,0.3175 -0.28575,1.18534 -0.169333,0.85725 -0.169333,1.47108 0,0.61383 0.09525,0.79375 0.09525,0.17992 0.264583,0.17992 0.338667,0 0.582084,-0.3175 0.254,-0.32809 0.34925,-0.89959 l 0.560916,-3.10091 q -0.22225,-0.1905 -0.486833,-0.1905 -0.254,0 -0.41275,0.0847 -0.148167,0.0847 -0.275167,0.27517 z" />
      <path
         id="path1016"
         style="font-style:normal;font-variant:normal;font-weight:normal;font-stretch:normal;font-family:'Sansita One';-inkscape-font-specification:'Sansita One';text-align:center;text-anchor:middle;fill:#ffffff;stroke-width:0.26458332"
         d="m -5.9166234,175.12652 q 0.381,-0.67734 0.381,-1.36525 0,-0.45509 -0.3280833,-0.45509 -0.254,0 -0.5185834,0.43392 -0.2751666,0.43392 -0.3598333,0.99483 l -0.5503333,3.3655 -2.1907499,0.21167 1.0794999,-5.60917 1.74625,-0.21166 -0.1905,1.06891 q 0.5185833,-1.06891 1.6827499,-1.06891 0.6138334,0 0.9419167,0.3175 0.3386666,0.3175 0.3386666,0.97366 0,0.64559 -0.4339166,1.05834 -0.4233333,0.41275 -1.1535833,0.41275 -0.3175,0 -0.4445,-0.127 z" />
      <path
         id="path1018"
         style="font-style:normal;font-variant:normal;font-weight:normal;font-stretch:normal;font-family:'Sansita One';-inkscape-font-specification:'Sansita One';text-align:center;text-anchor:middle;fill:#ffffff;stroke-width:0.26458332"
         d="m -1.1481702,176.38593 q -0.3386667,-0.24341 -0.3386667,-0.70908 0,-0.254 0.127,-0.45508 0.127,-0.21167 0.38100003,-0.24342 H 1.1060797 q 0.34925,0 0.4550834,-0.21167 0.1693333,0.0952 0.2434166,0.29634 0.074083,0.20108 0.074083,0.41275 0,0.21166 -0.1693333,0.42333 -0.15875,0.20108 -0.4021666,0.22225 h -1.93674998 q -0.22224999,0 -0.32808332,0.0741 -0.1058333,0.0635 -0.1905,0.1905 z" />
      <path
         id="path1020"
         style="font-style:normal;font-variant:normal;font-weight:normal;font-stretch:normal;font-family:'Sansita One';-inkscape-font-specification:'Sansita One';text-align:center;text-anchor:middle;fill:#ffffff;stroke-width:0.26458332"
         d="m 11.654025,173.70835 q 0,4.5085 -4.8894999,4.5085 -0.7831667,0 -2.0743333,-0.1905 l 1.1853333,-6.25475 q 0.084667,-0.42333 0.1375833,-0.66675 1.6086666,-0.11642 2.31775,-0.11642 0.7196666,0 1.3758332,0.14817 0.6561664,0.14817 1.0900834,0.47625 0.85725,0.64558 0.85725,2.0955 z m -2.1801667,-0.39158 q 0,-1.57692 -1.1324166,-1.57692 H 8.2356084 q -0.052917,0 -0.1058334,0.0106 l -1.0900833,5.68325 q 0.042333,0.0212 0.084667,0.0212 h 0.084667 q 0.3915833,0 0.7937499,-0.24342 0.41275,-0.24341 0.73025,-0.74083 0.7408333,-1.15358 0.7408333,-3.15383 z" />
      <path
         id="path1022"
         style="font-style:normal;font-variant:normal;font-weight:normal;font-stretch:normal;font-family:'Sansita One';-inkscape-font-specification:'Sansita One';text-align:center;text-anchor:middle;fill:#ffffff;stroke-width:0.26458332"
         d="m 16.471754,176.31185 q 0.264584,0.17992 0.264584,0.58208 0,0.39159 -0.201084,0.64559 -0.201083,0.254 -0.529166,0.42333 -0.677334,0.34925 -1.407584,0.34925 -0.73025,0 -1.164166,-0.15875 -0.423334,-0.15875 -0.709084,-0.45508 -0.560916,-0.56092 -0.560916,-1.5875 0,-1.59809 0.867833,-2.57175 0.931333,-1.04775 2.550583,-1.04775 1.005417,0 1.502834,0.42333 0.370416,0.3175 0.370416,0.83608 0,1.86267 -3.217333,1.86267 -0.04233,0.27517 -0.04233,0.508 0,0.48683 0.211666,0.67733 0.22225,0.17992 0.624417,0.17992 0.402167,0 0.8255,-0.17992 0.433917,-0.1905 0.613833,-0.48683 z m -2.159,-1.15358 q 0.751417,0 1.185334,-0.46567 0.433916,-0.4445 0.433916,-1.15358 0,-0.24342 -0.09525,-0.37042 -0.08467,-0.13758 -0.264583,-0.13758 -0.179917,0 -0.338667,0.0741 -0.148166,0.0635 -0.306916,0.29633 -0.391584,0.52917 -0.613834,1.75684 z" />
      <path
         id="path1024"
         style="font-style:normal;font-variant:normal;font-weight:normal;font-stretch:normal;font-family:'Sansita One';-inkscape-font-specification:'Sansita One';text-align:center;text-anchor:middle;fill:#ffffff;stroke-width:0.26458332"
         d="m 17.670319,177.59243 1.312334,-6.90033 2.148416,-0.21167 -0.328083,1.61925 q -0.116417,0.49742 -0.264583,0.84667 0.232833,-0.29633 0.740833,-0.41275 0.148167,-0.0423 0.328083,-0.0423 0.98425,0 1.524,0.60325 0.53975,0.59266 0.53975,1.74625 0,1.50283 -0.85725,2.44475 -0.92075,1.02658 -2.592916,1.02658 -1.153584,0 -2.021417,-0.381 -0.306917,-0.13758 -0.529167,-0.33867 z m 2.12725,-0.0953 q 0.22225,0.1905 0.497417,0.1905 0.275167,0 0.433917,-0.10583 0.15875,-0.10583 0.275166,-0.3175 0.3175,-0.5715 0.5715,-2.31775 0.07408,-0.49742 0.07408,-0.99483 0,-0.49742 -0.116417,-0.65617 -0.105833,-0.15875 -0.3175,-0.15875 -0.645583,0 -0.85725,1.25942 z" />
      <path
         id="path1026"
         style="font-style:normal;font-variant:normal;font-weight:normal;font-stretch:normal;font-family:'Sansita One';-inkscape-font-specification:'Sansita One';text-align:center;text-anchor:middle;fill:#ffffff;stroke-width:0.26458332"
         d="m 26.838457,177.51835 q -0.328083,0.79375 -1.375833,0.79375 -0.53975,0 -0.878416,-0.37042 -0.28575,-0.32808 -0.28575,-0.65616 0,-0.85725 0.391583,-2.52942 l 0.391583,-2.05317 2.148417,-0.21166 -0.645584,3.34433 q -0.179916,0.78317 -0.179916,1.05833 0,0.60325 0.433916,0.62442 z m -1.566333,-6.2865 q 0,-0.41275 0.338667,-0.635 0.34925,-0.22225 0.846666,-0.22225 0.497417,0 0.79375,0.22225 0.306917,0.22225 0.306917,0.635 0,0.41275 -0.338667,0.62442 -0.328083,0.21166 -0.8255,0.21166 -0.497416,0 -0.814916,-0.21166 -0.306917,-0.21167 -0.306917,-0.62442 z" />
      <path
         id="path1028"
         style="font-style:normal;font-variant:normal;font-weight:normal;font-stretch:normal;font-family:'Sansita One';-inkscape-font-specification:'Sansita One';text-align:center;text-anchor:middle;fill:#ffffff;stroke-width:0.26458332"
         d="m 28.184861,177.78293 q -0.243417,-0.27516 -0.359833,-0.70908 -0.105834,-0.43392 -0.105834,-1.143 0,-0.70908 0.243417,-1.35467 0.243417,-0.64558 0.687917,-1.11125 0.910166,-0.97366 2.413,-0.97366 0.53975,0 0.931333,0.17991 l 1.80975,-0.17991 -0.783167,4.1275 q -0.03175,0.127 -0.03175,0.35983 0,0.23283 0.137584,0.381 0.148166,0.14817 0.359833,0.16933 -0.105833,0.35984 -0.497417,0.5715 -0.381,0.21167 -0.814916,0.21167 -0.433917,0 -0.73025,-0.16933 -0.28575,-0.15875 -0.370417,-0.43392 -0.169333,0.26458 -0.529167,0.43392 -0.359833,0.16933 -0.846666,0.16933 -0.47625,0 -0.867834,-0.127 -0.391583,-0.127 -0.645583,-0.40217 z m 2.233083,-4.29683 q -0.116416,0.1905 -0.22225,0.51858 -0.105833,0.3175 -0.28575,1.18534 -0.169333,0.85725 -0.169333,1.47108 0,0.61383 0.09525,0.79375 0.09525,0.17992 0.264583,0.17992 0.338667,0 0.582084,-0.3175 0.254,-0.32809 0.34925,-0.89959 l 0.560916,-3.10091 q -0.22225,-0.1905 -0.486833,-0.1905 -0.254,0 -0.41275,0.0847 -0.148167,0.0847 -0.275167,0.27517 z" />
      <path
         id="path1030"
         style="font-style:normal;font-variant:normal;font-weight:normal;font-stretch:normal;font-family:'Sansita One';-inkscape-font-specification:'Sansita One';text-align:center;text-anchor:middle;fill:#ffffff;stroke-width:0.26458332"
         d="m 38.86245,178.3121 q -1.280584,0 -1.280584,-0.99483 0.01058,-0.27517 0.09525,-0.74084 l 0.1905,-0.97366 q 0.28575,-1.37584 0.28575,-1.68275 0,-0.61384 -0.359833,-0.61384 -0.60325,0 -0.92075,1.57692 l -0.624417,3.21733 -2.12725,0.21167 1.100667,-5.61975 1.735667,-0.20108 -0.169334,1.03716 q 0.497417,-1.03716 2.021417,-1.03716 0.740833,0 1.04775,0.3175 0.3175,0.30691 0.3175,1.00541 0,0.65617 -0.338667,2.19075 -0.15875,0.68792 -0.15875,0.9525 0,0.254 0.137584,0.40217 0.148166,0.14817 0.359833,0.16933 -0.105834,0.35984 -0.47625,0.5715 -0.359833,0.21167 -0.836083,0.21167 z" />
    </g>
  </g>
</svg>
