<?xml version="1.0" encoding="UTF-8" standalone="no"?>
<svg
   xmlns:dc="http://purl.org/dc/elements/1.1/"
   xmlns:cc="http://creativecommons.org/ns#"
   xmlns:rdf="http://www.w3.org/1999/02/22-rdf-syntax-ns#"
   xmlns:svg="http://www.w3.org/2000/svg"
   xmlns="http://www.w3.org/2000/svg"
   xmlns:xlink="http://www.w3.org/1999/xlink"
   width="444.5mm"
   height="277.8125mm"
   viewBox="0 0 444.5 277.8125"
   version="1.1"
   id="svg3357">
  <defs
     id="defs3351">
    <linearGradient
       id="linearGradient893">
      <stop
         id="stop889"
         offset="0"
         style="stop-color:#db4437;stop-opacity:1;" />
      <stop
         style="stop-color:#d73526;stop-opacity:0.67450982"
         offset="0"
         id="stop897" />
      <stop
         id="stop891"
         offset="1"
         style="stop-color:#df6156;stop-opacity:1" />
    </linearGradient>
    <linearGradient
       id="linearGradient6114">
      <stop
         style="stop-color:#6f7c91;stop-opacity:1;"
         offset="0"
         id="stop6110" />
      <stop
         style="stop-color:#162d50;stop-opacity:1"
         offset="1"
         id="stop6112" />
    </linearGradient>
    <radialGradient
       xlink:href="#linearGradient6114"
       id="radialGradient6126"
       cx="73.77433"
       cy="66.986313"
       fx="73.77433"
       fy="66.986313"
       r="31.67275"
       gradientTransform="matrix(3.0071285,0,0,1.83657,-125.12732,-58.151445)"
       gradientUnits="userSpaceOnUse" />
    <radialGradient
       gradientUnits="userSpaceOnUse"
       gradientTransform="matrix(0.875,0,0,0.546875,0,60.771484)"
       r="254"
       fy="142.875"
       fx="254"
       cy="142.875"
       cx="254"
       id="radialGradient895"
       xlink:href="#linearGradient893" />
    <linearGradient
       xlink:href="#1200"
       id="linearGradient882"
       x1="444.12201"
       y1="139.37872"
       x2="444.5"
       y2="138.90625"
       gradientUnits="userSpaceOnUse"
       gradientTransform="translate(1e-5)" />
    <linearGradient
       id="1200">
      <stop
         style="stop-color:#e16459;stop-opacity:1"
         offset="0"
         id="stop872" />
      <stop
         style="stop-color:#db4437;stop-opacity:0;"
         offset="1"
         id="stop874" />
    </linearGradient>
    <linearGradient
       gradientUnits="userSpaceOnUse"
       y2="138.90625"
       x2="465.91299"
       y1="139.3998"
       x1="444.19131"
       id="linearGradient1019-7"
       xlink:href="#1200"
       gradientTransform="translate(-1.4e-4,4.6e-4)" />
  </defs>
  <metadata
     id="metadata3354">
    <rdf:RDF>
      <cc:Work
         rdf:about="">
        <dc:format>image/svg+xml</dc:format>
        <dc:type
           rdf:resource="http://purl.org/dc/dcmitype/StillImage" />
        <dc:title></dc:title>
      </cc:Work>
    </rdf:RDF>
  </metadata>
  <g
     id="flowRoot985"
     style="font-style:normal;font-weight:normal;font-size:40px;line-height:1.25;font-family:sans-serif;letter-spacing:0px;word-spacing:0px;fill:#000000;fill-opacity:1;stroke:none"
     transform="matrix(0.26458333,0,0,0.26458333,-495.71801,445.3335)" />
  <g
     id="flowRoot993"
     style="font-style:normal;font-weight:normal;font-size:40px;line-height:1.25;font-family:sans-serif;letter-spacing:0px;word-spacing:0px;fill:#000000;fill-opacity:1;stroke:none"
     transform="matrix(0.26458333,0,0,0.26458333,-495.71801,445.3335)" />
  <path
     style="opacity:1;fill:url(#linearGradient1019-7);fill-opacity:1;stroke:none;stroke-width:9.70262432;stroke-miterlimit:4;stroke-dasharray:none;paint-order:stroke markers fill"
     d="M 286.33187,0 H 0 V 277.8125 H 444.5 V 132.71902 Z"
     id="path1098" />
  <g
     id="flowRoot881"
     style="font-style:normal;font-weight:normal;font-size:40px;line-height:1.25;font-family:sans-serif;letter-spacing:0px;word-spacing:0px;fill:#ffffff;fill-opacity:1;stroke:none"
     transform="matrix(0.95447049,0,0,1.6295764,-620.97535,-968.5056)"
     aria-label="Command Line Calendar - Debian">
    <path
       id="path891"
       style="font-style:normal;font-variant:normal;font-weight:bold;font-stretch:normal;font-family:'EB Garamond';-inkscape-font-specification:'EB Garamond Bold';text-align:center;text-anchor:middle;fill:#ffffff"
       d="m 764.82891,666.59387 q -4.12,0 -7.56,-1.64 -3.44,-1.68 -5.48,-4.68 -2,-3 -2,-6.88 0,-3.68 2,-6.88 2,-3.2 5.68,-5.12 3.68,-1.92 8.48,-1.92 3.48,0 7.32,1.36 0.8,0.36 0.92,1.16 0.32,2.4 0.32,4.8 0,0.32 -0.2,0.52 -0.2,0.16 -0.48,0.16 -0.64,0 -0.88,-0.68 -0.32,-1.16 -0.72,-1.96 -0.4,-0.84 -1.08,-1.48 -1.92,-1.84 -5.64,-1.84 -2.68,0 -4.72,1.48 -2.04,1.48 -3.16,3.96 -1.12,2.44 -1.12,5.28 0,5.52 2.36,8.92 2.36,3.36 6.72,3.36 2.92,0 4.76,-1.2 1.84,-1.24 3.12,-3.92 0.16,-0.32 0.4,-0.48 0.24,-0.2 0.48,-0.2 0.24,0 0.4,0.2 0.2,0.16 0.2,0.48 0,1.8 -0.88,4.56 -0.16,0.48 -0.4,0.76 -0.24,0.24 -0.68,0.44 -3.32,1.44 -8.16,1.44 z" />
    <path
       id="path893"
       style="font-style:normal;font-variant:normal;font-weight:bold;font-stretch:normal;font-family:'EB Garamond';-inkscape-font-specification:'EB Garamond Bold';text-align:center;text-anchor:middle;fill:#ffffff"
       d="m 786.46828,666.59387 q -2.36,0 -4.32,-1.08 -1.96,-1.08 -3.08,-2.96 -1.12,-1.92 -1.12,-4.32 0,-2.52 1.24,-4.72 1.28,-2.2 3.4,-3.48 2.16,-1.32 4.76,-1.32 2.4,0 4.44,1.16 2.04,1.12 3.2,3.08 1.2,1.92 1.2,4.12 0,2.64 -1.12,4.8 -1.12,2.16 -3.32,3.44 -2.16,1.28 -5.28,1.28 z m 0.8,-1.76 q 1.64,0 2.48,-1.36 0.84,-1.4 0.84,-5.44 0,-3.28 -1.08,-5.4 -1.04,-2.16 -2.76,-2.16 -1.24,0 -2.08,0.84 -0.68,0.76 -0.96,2.2 -0.24,1.44 -0.24,3.72 0,1.92 0.48,3.68 0.52,1.76 1.36,2.84 0.88,1.08 1.96,1.08 z" />
    <path
       id="path895"
       style="font-style:normal;font-variant:normal;font-weight:bold;font-stretch:normal;font-family:'EB Garamond';-inkscape-font-specification:'EB Garamond Bold';text-align:center;text-anchor:middle;fill:#ffffff"
       d="m 798.78453,666.15387 q -0.28,0 -0.56,-0.16 -0.24,-0.16 -0.24,-0.4 0,-0.48 0.92,-0.8 0.8,-0.24 1.16,-0.52 0.36,-0.28 0.36,-1 v -9.16 q 0,-2.04 -1.24,-2.24 -0.44,-0.08 -0.44,-0.72 0,-0.56 0.4,-0.68 4.04,-1 6,-2.12 0.08,-0.04 0.2,-0.12 0.16,-0.08 0.28,-0.08 0.36,0 0.36,0.44 l -0.08,0.88 q -0.04,0.28 -0.08,0.68 -0.04,0.36 -0.04,0.84 0,0.4 0.08,0.48 h 0.08 q 1.32,-1.28 2.76,-2 1.48,-0.72 3.2,-0.72 1.2,0 2.24,0.88 1.08,0.84 1.6,2.2 h 0.16 q 2.56,-3.08 6.08,-3.08 1.92,0 3.16,1.56 1.28,1.56 1.28,4.16 v 8.8 q 0,0.72 0.36,1 0.36,0.28 1.16,0.52 0.8,0.28 0.8,0.8 0,0.24 -0.2,0.4 -0.2,0.16 -0.48,0.16 -1.2,0 -2.28,-0.12 -1.28,-0.08 -1.96,-0.08 -0.68,0 -1.8,0.08 -0.88,0.12 -2.08,0.12 -0.28,0 -0.48,-0.16 -0.2,-0.16 -0.2,-0.4 0,-0.6 0.8,-0.8 0.56,-0.16 0.8,-0.4 0.28,-0.28 0.28,-0.88 v -8.2 q 0,-1.44 -0.64,-2.32 -0.6,-0.92 -1.56,-0.96 -1.24,0 -2.36,0.96 -0.56,0.52 -0.56,1.68 v 8.6 q 0,0.76 0.28,1.04 0.28,0.28 0.96,0.48 0.8,0.2 0.8,0.8 0,0.24 -0.2,0.4 -0.2,0.16 -0.48,0.16 -1.16,0 -2.12,-0.12 -1.2,-0.08 -1.84,-0.08 -0.68,0 -1.8,0.08 -0.88,0.12 -2.08,0.12 -0.24,0 -0.44,-0.16 -0.2,-0.16 -0.2,-0.4 0,-0.52 0.76,-0.8 0.6,-0.2 0.84,-0.44 0.28,-0.24 0.28,-0.84 v -8.2 q 0,-1.48 -0.6,-2.32 -0.6,-0.88 -1.6,-0.92 -1.2,0 -2.4,0.88 -0.52,0.4 -0.52,1.56 v 8.76 q 0,0.68 0.24,1 0.24,0.32 0.88,0.52 0.76,0.28 0.76,0.8 0,0.24 -0.2,0.4 -0.2,0.16 -0.44,0.16 -1.16,0 -2.08,-0.12 -1.2,-0.08 -1.84,-0.08 -0.68,0 -1.96,0.08 -1,0.12 -2.24,0.12 z" />
    <path
       id="path897"
       style="font-style:normal;font-variant:normal;font-weight:bold;font-stretch:normal;font-family:'EB Garamond';-inkscape-font-specification:'EB Garamond Bold';text-align:center;text-anchor:middle;fill:#ffffff"
       d="m 831.05016,666.15387 q -0.28,0 -0.56,-0.16 -0.24,-0.16 -0.24,-0.4 0,-0.48 0.92,-0.8 0.8,-0.24 1.16,-0.52 0.36,-0.28 0.36,-1 v -9.16 q 0,-2.04 -1.24,-2.24 -0.44,-0.08 -0.44,-0.72 0,-0.56 0.4,-0.68 4.04,-1 6,-2.12 0.08,-0.04 0.2,-0.12 0.16,-0.08 0.28,-0.08 0.36,0 0.36,0.44 l -0.08,0.88 q -0.04,0.28 -0.08,0.68 -0.04,0.36 -0.04,0.84 0,0.4 0.08,0.48 h 0.08 q 1.32,-1.28 2.76,-2 1.48,-0.72 3.2,-0.72 1.2,0 2.24,0.88 1.08,0.84 1.6,2.2 h 0.16 q 2.56,-3.08 6.08,-3.08 1.92,0 3.16,1.56 1.28,1.56 1.28,4.16 v 8.8 q 0,0.72 0.36,1 0.36,0.28 1.16,0.52 0.8,0.28 0.8,0.8 0,0.24 -0.2,0.4 -0.2,0.16 -0.48,0.16 -1.2,0 -2.28,-0.12 -1.28,-0.08 -1.96,-0.08 -0.68,0 -1.8,0.08 -0.88,0.12 -2.08,0.12 -0.28,0 -0.48,-0.16 -0.2,-0.16 -0.2,-0.4 0,-0.6 0.8,-0.8 0.56,-0.16 0.8,-0.4 0.28,-0.28 0.28,-0.88 v -8.2 q 0,-1.44 -0.64,-2.32 -0.6,-0.92 -1.56,-0.96 -1.24,0 -2.36,0.96 -0.56,0.52 -0.56,1.68 v 8.6 q 0,0.76 0.28,1.04 0.28,0.28 0.96,0.48 0.8,0.2 0.8,0.8 0,0.24 -0.2,0.4 -0.2,0.16 -0.48,0.16 -1.16,0 -2.12,-0.12 -1.2,-0.08 -1.84,-0.08 -0.68,0 -1.8,0.08 -0.88,0.12 -2.08,0.12 -0.24,0 -0.44,-0.16 -0.2,-0.16 -0.2,-0.4 0,-0.52 0.76,-0.8 0.6,-0.2 0.84,-0.44 0.28,-0.24 0.28,-0.84 v -8.2 q 0,-1.48 -0.6,-2.32 -0.6,-0.88 -1.6,-0.92 -1.2,0 -2.4,0.88 -0.52,0.4 -0.52,1.56 v 8.76 q 0,0.68 0.24,1 0.24,0.32 0.88,0.52 0.76,0.28 0.76,0.8 0,0.24 -0.2,0.4 -0.2,0.16 -0.44,0.16 -1.16,0 -2.08,-0.12 -1.2,-0.08 -1.84,-0.08 -0.68,0 -1.96,0.08 -1,0.12 -2.24,0.12 z" />
    <path
       id="path899"
       style="font-style:normal;font-variant:normal;font-weight:bold;font-stretch:normal;font-family:'EB Garamond';-inkscape-font-specification:'EB Garamond Bold';text-align:center;text-anchor:middle;fill:#ffffff"
       d="m 866.83578,666.59387 q -1.6,0 -2.8,-1.08 -1.2,-1.12 -1.2,-2.64 0,-1.36 0.8,-2.24 0.84,-0.92 2.6,-1.68 l 3.56,-1.56 q 0.8,-0.36 0.96,-0.64 0.2,-0.28 0.2,-1.04 l 0.04,-2.28 q 0.04,-1.16 -0.4,-1.8 -0.44,-0.64 -1.32,-0.64 -0.48,0 -1.04,0.24 -0.52,0.2 -0.8,0.48 -0.24,0.28 -0.24,0.84 0,0.28 0.04,0.6 0.04,0.28 0.04,0.56 0,0.4 -1.36,1 -1.32,0.6 -2.2,0.6 -0.32,0 -0.52,-0.24 -0.2,-0.24 -0.2,-0.6 0,-0.64 0.44,-1.24 0.44,-0.6 1.44,-1.44 1.56,-1.28 3.52,-2.16 1.96,-0.88 3.28,-0.88 2.12,0 3.4,1.4 1.28,1.36 1.24,3.64 l -0.2,8.08 q -0.04,0.92 0.32,1.56 0.36,0.64 0.88,0.64 0.76,0 1.32,-0.52 0.12,-0.12 0.24,-0.12 0.2,0 0.32,0.16 0.16,0.12 0.16,0.28 0,0.52 -0.72,1.24 -1.48,1.48 -3.36,1.48 -1.16,0 -2.04,-0.56 -0.88,-0.52 -1.68,-1.72 h -0.08 q -1.32,1.24 -2.4,1.76 -1.04,0.52 -2.24,0.52 z m 2.4,-2.6 q 0.76,0 1.28,-0.6 0.28,-0.44 0.28,-1.04 l 0.12,-2.88 q 0,-0.64 -0.4,-0.64 -0.2,0 -0.48,0.16 -1.28,0.6 -1.8,1.2 -0.48,0.6 -0.48,1.8 0,1.04 0.44,1.52 0.44,0.48 1.04,0.48 z" />
    <path
       id="path901"
       style="font-style:normal;font-variant:normal;font-weight:bold;font-stretch:normal;font-family:'EB Garamond';-inkscape-font-specification:'EB Garamond Bold';text-align:center;text-anchor:middle;fill:#ffffff"
       d="m 880.81578,666.15387 q -0.28,0 -0.56,-0.16 -0.24,-0.16 -0.24,-0.4 0,-0.48 0.92,-0.8 0.8,-0.24 1.16,-0.52 0.36,-0.28 0.36,-1 v -9.16 q 0,-2 -1.24,-2.24 -0.44,-0.08 -0.44,-0.72 0,-0.56 0.4,-0.68 1.4,-0.32 3.04,-0.88 1.64,-0.56 2.72,-1.12 0.52,-0.32 0.72,-0.32 0.36,0 0.36,0.48 l -0.08,0.8 q -0.12,1.44 -0.12,1.48 0,0.52 0.08,0.6 1.48,-1.4 2.84,-2.08 1.4,-0.68 3.16,-0.68 2.16,0 3.52,1.56 1.4,1.56 1.4,4.16 v 8.8 q 0,0.72 0.36,1 0.36,0.28 1.16,0.52 0.8,0.28 0.8,0.8 0,0.24 -0.2,0.4 -0.2,0.16 -0.48,0.16 -1.2,0 -2.28,-0.12 -1.28,-0.08 -1.96,-0.08 -0.68,0 -1.96,0.08 -1,0.12 -2.24,0.12 -0.28,0 -0.48,-0.16 -0.2,-0.16 -0.2,-0.4 0,-0.52 0.8,-0.8 0.76,-0.24 1.08,-0.52 0.32,-0.28 0.32,-1 v -7.96 q 0,-1.52 -0.68,-2.36 -0.68,-0.88 -1.88,-0.92 -0.84,0 -1.52,0.28 -0.68,0.24 -1.44,0.76 -0.32,0.28 -0.32,0.76 v 9.44 q 0,0.72 0.32,1 0.32,0.24 1.12,0.52 0.8,0.28 0.8,0.8 0,0.24 -0.2,0.4 -0.2,0.16 -0.48,0.16 -1.2,0 -2.16,-0.12 -1.28,-0.08 -1.92,-0.08 -0.68,0 -2.04,0.08 -1.08,0.12 -2.32,0.12 z" />
    <path
       id="path903"
       style="font-style:normal;font-variant:normal;font-weight:bold;font-stretch:normal;font-family:'EB Garamond';-inkscape-font-specification:'EB Garamond Bold';text-align:center;text-anchor:middle;fill:#ffffff"
       d="m 923.19203,663.67387 q 0.24,0 0.32,0.08 0.08,0.08 0.08,0.32 0,0.32 -0.24,0.68 -0.24,0.36 -0.44,0.36 -3,0.32 -6.08,1.44 -0.48,0.24 -0.68,0.24 -0.12,0 -0.36,-0.28 -0.2,-0.24 -0.2,-0.4 0.2,-1.4 0.2,-2.12 v -0.24 q -0.84,1.28 -2.28,2.08 -1.4,0.76 -3,0.76 -2.16,0 -3.96,-1.12 -1.76,-1.12 -2.76,-3.04 -1,-1.92 -1,-4.2 0,-2.68 1.2,-4.8 1.2,-2.16 3.36,-3.36 2.2,-1.24 5,-1.24 1.12,0 2.48,0.36 l 0.52,0.12 q 0.16,0 0.16,-0.52 v -4.76 q 0,-1.44 -0.36,-2.04 -0.32,-0.64 -1.2,-0.84 -0.48,-0.12 -0.48,-0.6 0,-0.52 0.44,-0.6 1.44,-0.32 3,-0.8 1.6,-0.52 2.64,-0.96 0.8,-0.36 0.96,-0.36 0.44,0 0.44,0.48 -0.04,0.16 -0.12,0.96 -0.04,0.76 -0.08,1.8 l -0.2,20.16 q 0,1.4 0.2,2 0.2,0.56 0.72,0.56 l 1.56,-0.12 z m -2.24,-25.36 z m -8.4,25.56 q 0.68,0 1.56,-0.32 0.88,-0.36 1.4,-0.92 l -0.04,-8.84 q 0,-0.68 -0.56,-1.4 -0.52,-0.72 -1.36,-1.2 -0.8,-0.48 -1.6,-0.48 -0.96,0 -1.8,0.8 -0.8,0.76 -1.32,2.24 -0.48,1.48 -0.48,3.4 0,2.08 0.56,3.6 0.6,1.52 1.56,2.32 0.96,0.8 2.08,0.8 z" />
    <path
       id="path905"
       style="font-style:normal;font-variant:normal;font-weight:bold;font-stretch:normal;font-family:'EB Garamond';-inkscape-font-specification:'EB Garamond Bold';text-align:center;text-anchor:middle;fill:#ffffff"
       d="m 935.07453,666.23387 q -0.36,0 -0.6,-0.2 -0.24,-0.16 -0.24,-0.4 0,-0.28 0.24,-0.48 0.24,-0.24 0.6,-0.36 1.44,-0.4 1.96,-0.88 0.56,-0.52 0.56,-1.68 v -18.32 q 0,-1.32 -0.52,-1.8 -0.48,-0.48 -2.08,-0.84 -0.84,-0.2 -0.84,-0.84 0,-0.28 0.24,-0.44 0.24,-0.16 0.56,-0.16 1.48,0 3.04,0.12 1.92,0.08 2.68,0.08 0.8,0 2.88,-0.08 2.24,-0.08 3.12,-0.08 0.72,0 0.72,0.56 0,0.36 -0.2,0.56 -0.2,0.16 -0.64,0.28 -1.68,0.48 -2.24,1 -0.56,0.48 -0.56,1.64 v 18 q 0,1.12 0.48,1.6 0.48,0.48 1.68,0.48 h 4.08 q 1.64,0 2.84,-1.08 1.2,-1.16 2.12,-3.16 0.36,-0.76 0.6,-1 0.24,-0.28 0.48,-0.28 0.28,0 0.4,0.28 0.16,0.24 0.16,0.52 0,0.12 -0.08,0.36 -0.08,0.2 -0.08,0.44 -0.6,2.16 -0.84,3.12 -0.2,0.96 -0.32,2.28 -0.08,0.76 -0.64,0.76 l -4.6,-0.08 q -8.76,-0.12 -9.28,-0.12 -1.52,0 -3.2,0.12 z" />
    <path
       id="path907"
       style="font-style:normal;font-variant:normal;font-weight:bold;font-stretch:normal;font-family:'EB Garamond';-inkscape-font-specification:'EB Garamond Bold';text-align:center;text-anchor:middle;fill:#ffffff"
       d="m 958.31203,666.15387 q -0.24,0 -0.44,-0.12 -0.2,-0.16 -0.2,-0.4 0,-0.6 0.72,-0.8 1.08,-0.24 1.48,-0.52 0.4,-0.32 0.4,-0.96 v -8.64 q 0,-1.32 -0.4,-1.92 -0.4,-0.6 -1.32,-0.72 -0.24,-0.04 -0.36,-0.24 -0.12,-0.2 -0.12,-0.48 0,-0.24 0.12,-0.44 0.16,-0.2 0.32,-0.24 1.8,-0.32 3.16,-0.88 1.4,-0.56 3.04,-1.36 0.56,-0.32 0.8,-0.32 0.24,0 0.36,0.16 0.16,0.12 0.16,0.32 l -0.16,1.48 q -0.36,3.04 -0.36,4.4 v 8.84 q 0,0.56 0.4,0.88 0.4,0.32 1.52,0.64 0.36,0.12 0.52,0.28 0.2,0.16 0.2,0.48 0,0.52 -0.6,0.52 -0.84,0 -2.44,-0.08 -1.6,-0.08 -2.28,-0.08 -0.68,0 -2.12,0.08 -1.2,0.12 -2.4,0.12 z m 4.4,-19.84 q -1.28,0 -2.2,-0.92 -0.92,-0.92 -0.92,-2.2 0,-1.36 0.92,-2.28 0.92,-0.92 2.2,-0.92 1.36,0 2.28,0.92 0.96,0.92 0.96,2.28 0,1.28 -0.96,2.2 -0.92,0.92 -2.28,0.92 z" />
    <path
       id="path909"
       style="font-style:normal;font-variant:normal;font-weight:bold;font-stretch:normal;font-family:'EB Garamond';-inkscape-font-specification:'EB Garamond Bold';text-align:center;text-anchor:middle;fill:#ffffff"
       d="m 970.26891,666.15387 q -0.28,0 -0.56,-0.16 -0.24,-0.16 -0.24,-0.4 0,-0.48 0.92,-0.8 0.8,-0.24 1.16,-0.52 0.36,-0.28 0.36,-1 v -9.16 q 0,-2 -1.24,-2.24 -0.44,-0.08 -0.44,-0.72 0,-0.56 0.4,-0.68 1.4,-0.32 3.04,-0.88 1.64,-0.56 2.72,-1.12 0.52,-0.32 0.72,-0.32 0.36,0 0.36,0.48 l -0.08,0.8 q -0.12,1.44 -0.12,1.48 0,0.52 0.08,0.6 1.48,-1.4 2.84,-2.08 1.4,-0.68 3.16,-0.68 2.16,0 3.52,1.56 1.4,1.56 1.4,4.16 v 8.8 q 0,0.72 0.36,1 0.36,0.28 1.16,0.52 0.8,0.28 0.8,0.8 0,0.24 -0.2,0.4 -0.2,0.16 -0.48,0.16 -1.2,0 -2.28,-0.12 -1.28,-0.08 -1.96,-0.08 -0.68,0 -1.96,0.08 -1,0.12 -2.24,0.12 -0.28,0 -0.48,-0.16 -0.2,-0.16 -0.2,-0.4 0,-0.52 0.8,-0.8 0.76,-0.24 1.08,-0.52 0.32,-0.28 0.32,-1 v -7.96 q 0,-1.52 -0.68,-2.36 -0.68,-0.88 -1.88,-0.92 -0.84,0 -1.52,0.28 -0.68,0.24 -1.44,0.76 -0.32,0.28 -0.32,0.76 v 9.44 q 0,0.72 0.32,1 0.32,0.24 1.12,0.52 0.8,0.28 0.8,0.8 0,0.24 -0.2,0.4 -0.2,0.16 -0.48,0.16 -1.2,0 -2.16,-0.12 -1.28,-0.08 -1.92,-0.08 -0.68,0 -2.04,0.08 -1.08,0.12 -2.32,0.12 z" />
    <path
       id="path911"
       style="font-style:normal;font-variant:normal;font-weight:bold;font-stretch:normal;font-family:'EB Garamond';-inkscape-font-specification:'EB Garamond Bold';text-align:center;text-anchor:middle;fill:#ffffff"
       d="m 999.72516,666.59387 q -2.12,0 -3.84,-1.12 -1.72,-1.16 -2.72,-3.16 -0.96,-2 -0.96,-4.48 0,-2.48 1.16,-4.56 1.16,-2.08 3.16,-3.28 2.04,-1.24 4.40004,-1.24 1.68,0 3.08,0.72 1.4,0.72 2.2,2 0.8,1.28 0.8,2.8 0,0.8 -0.32,1.16 -0.28,0.36 -0.92,0.36 h -8.00004 q -0.56,0 -0.84,0.32 -0.24,0.32 -0.24,1.08 0,2.32 1.48,3.92 1.48,1.56 3.72004,1.56 1.12,0 2.08,-0.4 0.96,-0.44 2,-1.24 0.4,-0.32 0.56,-0.32 0.4,0 0.4,0.52 0,0.52 -0.32,1.2 -0.64,1.68 -2.52,2.92 -1.84,1.24 -4.36004,1.24 z m 0.44004,-12.48 q 0.92,0 1.44,-0.04 0.52,-0.04 0.92,-0.16 0.2,-0.08 0.32,-0.4 0.12,-0.32 0.12,-0.72 0,-1.04 -0.76,-1.72 -0.72,-0.72 -1.8,-0.72 -1.24004,0 -2.24004,1.04 -1,1 -0.96,2.16 0,0.56 0.56,0.56 z" />
    <path
       id="path913"
       style="font-style:normal;font-variant:normal;font-weight:bold;font-stretch:normal;font-family:'EB Garamond';-inkscape-font-specification:'EB Garamond Bold';text-align:center;text-anchor:middle;fill:#ffffff"
       d="m 742.60234,717.06915 q -4.12,0 -7.56,-1.64 -3.44,-1.68 -5.48,-4.68 -2,-3 -2,-6.88 0,-3.68 2,-6.88 2,-3.2 5.68,-5.12 3.68,-1.92 8.48,-1.92 3.48,0 7.32,1.36 0.8,0.36 0.92,1.16 0.32,2.4 0.32,4.8 0,0.32 -0.2,0.52 -0.2,0.16 -0.48,0.16 -0.64,0 -0.88,-0.68 -0.32,-1.16 -0.72,-1.96 -0.4,-0.84 -1.08,-1.48 -1.92,-1.84 -5.64,-1.84 -2.68,0 -4.72,1.48 -2.04,1.48 -3.16,3.96 -1.12,2.44 -1.12,5.28 0,5.52 2.36,8.92 2.36,3.36 6.72,3.36 2.92,0 4.76,-1.2 1.84,-1.24 3.12,-3.92 0.16,-0.32 0.4,-0.48 0.24,-0.2 0.48,-0.2 0.24,0 0.4,0.2 0.2,0.16 0.2,0.48 0,1.8 -0.88,4.56 -0.16,0.48 -0.4,0.76 -0.24,0.24 -0.68,0.44 -3.32,1.44 -8.16,1.44 z" />
    <path
       id="path915"
       style="font-style:normal;font-variant:normal;font-weight:bold;font-stretch:normal;font-family:'EB Garamond';-inkscape-font-specification:'EB Garamond Bold';text-align:center;text-anchor:middle;fill:#ffffff"
       d="m 759.45297,717.06915 q -1.6,0 -2.8,-1.08 -1.2,-1.12 -1.2,-2.64 0,-1.36 0.8,-2.24 0.84,-0.92 2.6,-1.68 l 3.56,-1.56 q 0.8,-0.36 0.96,-0.64 0.2,-0.28 0.2,-1.04 l 0.04,-2.28 q 0.04,-1.16 -0.4,-1.8 -0.44,-0.64 -1.32,-0.64 -0.48,0 -1.04,0.24 -0.52,0.2 -0.8,0.48 -0.24,0.28 -0.24,0.84 0,0.28 0.04,0.6 0.04,0.28 0.04,0.56 0,0.4 -1.36,1 -1.32,0.6 -2.2,0.6 -0.32,0 -0.52,-0.24 -0.2,-0.24 -0.2,-0.6 0,-0.64 0.44,-1.24 0.44,-0.6 1.44,-1.44 1.56,-1.28 3.52,-2.16 1.96,-0.88 3.28,-0.88 2.12,0 3.4,1.4 1.28,1.36 1.24,3.64 l -0.2,8.08 q -0.04,0.92 0.32,1.56 0.36,0.64 0.88,0.64 0.76,0 1.32,-0.52 0.12,-0.12 0.24,-0.12 0.2,0 0.32,0.16 0.16,0.12 0.16,0.28 0,0.52 -0.72,1.24 -1.48,1.48 -3.36,1.48 -1.16,0 -2.04,-0.56 -0.88,-0.52 -1.68,-1.72 h -0.08 q -1.32,1.24 -2.4,1.76 -1.04,0.52 -2.24,0.52 z m 2.4,-2.6 q 0.76,0 1.28,-0.6 0.28,-0.44 0.28,-1.04 l 0.12,-2.88 q 0,-0.64 -0.4,-0.64 -0.2,0 -0.48,0.16 -1.28,0.6 -1.8,1.2 -0.48,0.6 -0.48,1.8 0,1.04 0.44,1.52 0.44,0.48 1.04,0.48 z" />
    <path
       id="path917"
       style="font-style:normal;font-variant:normal;font-weight:bold;font-stretch:normal;font-family:'EB Garamond';-inkscape-font-specification:'EB Garamond Bold';text-align:center;text-anchor:middle;fill:#ffffff"
       d="m 773.23297,716.62915 q -0.36,0 -0.6,-0.12 -0.2,-0.16 -0.2,-0.44 0,-0.56 0.92,-0.8 0.88,-0.32 1.2,-0.56 0.32,-0.24 0.32,-0.96 v -19.24 q 0,-1.2 -0.36,-1.92 -0.32,-0.76 -1.24,-0.96 -0.4,-0.08 -0.4,-0.6 0,-0.52 0.36,-0.6 1.08,-0.2 2.6,-0.72 1.56,-0.52 2.76,-0.96 l 0.84,-0.32 q 0.28,-0.12 0.52,-0.12 0.4,0 0.4,0.48 0,0.32 -0.12,1.16 -0.08,0.84 -0.12,1.6 v 22.12 q 0,0.68 0.28,0.96 0.32,0.24 0.72,0.4 0.4,0.12 0.52,0.16 0.48,0.16 0.68,0.36 0.24,0.16 0.24,0.44 0,0.28 -0.24,0.44 -0.2,0.12 -0.56,0.12 -0.84,0 -2.28,-0.08 l -2.08,-0.04 q -0.64,0 -1.92,0.08 -1.08,0.12 -2.24,0.12 z" />
    <path
       id="path919"
       style="font-style:normal;font-variant:normal;font-weight:bold;font-stretch:normal;font-family:'EB Garamond';-inkscape-font-specification:'EB Garamond Bold';text-align:center;text-anchor:middle;fill:#ffffff"
       d="m 791.01422,717.06915 q -2.12,0 -3.84,-1.12 -1.72,-1.16 -2.72,-3.16 -0.96,-2 -0.96,-4.48 0,-2.48 1.16,-4.56 1.16,-2.08 3.16,-3.28 2.04,-1.24 4.4,-1.24 1.68,0 3.08,0.72 1.4,0.72 2.2,2 0.8,1.28 0.8,2.8 0,0.8 -0.32,1.16 -0.28,0.36 -0.92,0.36 h -8 q -0.56,0 -0.84,0.32 -0.24,0.32 -0.24,1.08 0,2.32 1.48,3.92 1.48,1.56 3.72,1.56 1.12,0 2.08,-0.4 0.96,-0.44 2,-1.24 0.4,-0.32 0.56,-0.32 0.4,0 0.4,0.52 0,0.52 -0.32,1.2 -0.64,1.68 -2.52,2.92 -1.84,1.24 -4.36,1.24 z m 0.44,-12.48 q 0.92,0 1.44,-0.04 0.52,-0.04 0.92,-0.16 0.2,-0.08 0.32,-0.4 0.12,-0.32 0.12,-0.72 0,-1.04 -0.76,-1.72 -0.72,-0.72 -1.8,-0.72 -1.24,0 -2.24,1.04 -1,1 -0.96,2.16 0,0.56 0.56,0.56 z" />
    <path
       id="path921"
       style="font-style:normal;font-variant:normal;font-weight:bold;font-stretch:normal;font-family:'EB Garamond';-inkscape-font-specification:'EB Garamond Bold';text-align:center;text-anchor:middle;fill:#ffffff"
       d="m 800.93297,716.62915 q -0.28,0 -0.56,-0.16 -0.24,-0.16 -0.24,-0.4 0,-0.48 0.92,-0.8 0.8,-0.24 1.16,-0.52 0.36,-0.28 0.36,-1 v -9.16 q 0,-2 -1.24,-2.24 -0.44,-0.08 -0.44,-0.72 0,-0.56 0.4,-0.68 1.4,-0.32 3.04,-0.88 1.64,-0.56 2.72,-1.12 0.52,-0.32 0.72,-0.32 0.36,0 0.36,0.48 l -0.08,0.8 q -0.12,1.44 -0.12,1.48 0,0.52 0.08,0.6 1.48,-1.4 2.84,-2.08 1.4,-0.68 3.16,-0.68 2.16,0 3.52,1.56 1.4,1.56 1.4,4.16 v 8.8 q 0,0.72 0.36,1 0.36,0.28 1.16,0.52 0.8,0.28 0.8,0.8 0,0.24 -0.2,0.4 -0.2,0.16 -0.48,0.16 -1.2,0 -2.28,-0.12 -1.28,-0.08 -1.96,-0.08 -0.68,0 -1.96,0.08 -1,0.12 -2.24,0.12 -0.28,0 -0.48,-0.16 -0.2,-0.16 -0.2,-0.4 0,-0.52 0.8,-0.8 0.76,-0.24 1.08,-0.52 0.32,-0.28 0.32,-1 v -7.96 q 0,-1.52 -0.68,-2.36 -0.68,-0.88 -1.88,-0.92 -0.84,0 -1.52,0.28 -0.68,0.24 -1.44,0.76 -0.32,0.28 -0.32,0.76 v 9.44 q 0,0.72 0.32,1 0.32,0.24 1.12,0.52 0.8,0.28 0.8,0.8 0,0.24 -0.2,0.4 -0.2,0.16 -0.48,0.16 -1.2,0 -2.16,-0.12 -1.28,-0.08 -1.92,-0.08 -0.68,0 -2.04,0.08 -1.08,0.12 -2.32,0.12 z" />
    <path
       id="path923"
       style="font-style:normal;font-variant:normal;font-weight:bold;font-stretch:normal;font-family:'EB Garamond';-inkscape-font-specification:'EB Garamond Bold';text-align:center;text-anchor:middle;fill:#ffffff"
       d="m 843.30922,714.14915 q 0.24,0 0.32,0.08 0.08,0.08 0.08,0.32 0,0.32 -0.24,0.68 -0.24,0.36 -0.44,0.36 -3,0.32 -6.08,1.44 -0.48,0.24 -0.68,0.24 -0.12,0 -0.36,-0.28 -0.2,-0.24 -0.2,-0.4 0.2,-1.4 0.2,-2.12 v -0.24 q -0.84,1.28 -2.28,2.08 -1.4,0.76 -3,0.76 -2.16,0 -3.96,-1.12 -1.76,-1.12 -2.76,-3.04 -1,-1.92 -1,-4.2 0,-2.68 1.2,-4.8 1.2,-2.16 3.36,-3.36 2.2,-1.24 5,-1.24 1.12,0 2.48,0.36 l 0.52,0.12 q 0.16,0 0.16,-0.52 v -4.76 q 0,-1.44 -0.36,-2.04 -0.32,-0.64 -1.2,-0.84 -0.48,-0.12 -0.48,-0.6 0,-0.52 0.44,-0.6 1.44,-0.32 3,-0.8 1.6,-0.52 2.64,-0.96 0.8,-0.36 0.96,-0.36 0.44,0 0.44,0.48 -0.04,0.16 -0.12,0.96 -0.04,0.76 -0.08,1.8 l -0.2,20.16 q 0,1.4 0.2,2 0.2,0.56 0.72,0.56 l 1.56,-0.12 z m -2.24,-25.36 z m -8.4,25.56 q 0.68,0 1.56,-0.32 0.88,-0.36 1.4,-0.92 l -0.04,-8.84 q 0,-0.68 -0.56,-1.4 -0.52,-0.72 -1.36,-1.2 -0.8,-0.48 -1.6,-0.48 -0.96,0 -1.8,0.8 -0.8,0.76 -1.32,2.24 -0.48,1.48 -0.48,3.4 0,2.08 0.56,3.6 0.6,1.52 1.56,2.32 0.96,0.8 2.08,0.8 z" />
    <path
       id="path925"
       style="font-style:normal;font-variant:normal;font-weight:bold;font-stretch:normal;font-family:'EB Garamond';-inkscape-font-specification:'EB Garamond Bold';text-align:center;text-anchor:middle;fill:#ffffff"
       d="m 849.21859,717.06915 q -1.6,0 -2.8,-1.08 -1.2,-1.12 -1.2,-2.64 0,-1.36 0.8,-2.24 0.84,-0.92 2.6,-1.68 l 3.56,-1.56 q 0.8,-0.36 0.96,-0.64 0.2,-0.28 0.2,-1.04 l 0.04,-2.28 q 0.04,-1.16 -0.4,-1.8 -0.44,-0.64 -1.32,-0.64 -0.48,0 -1.04,0.24 -0.52,0.2 -0.8,0.48 -0.24,0.28 -0.24,0.84 0,0.28 0.04,0.6 0.04,0.28 0.04,0.56 0,0.4 -1.36,1 -1.32,0.6 -2.2,0.6 -0.32,0 -0.52,-0.24 -0.2,-0.24 -0.2,-0.6 0,-0.64 0.44,-1.24 0.44,-0.6 1.44,-1.44 1.56,-1.28 3.52,-2.16 1.96,-0.88 3.28,-0.88 2.12,0 3.4,1.4 1.28,1.36 1.24,3.64 l -0.2,8.08 q -0.04,0.92 0.32,1.56 0.36,0.64 0.88,0.64 0.76,0 1.32,-0.52 0.12,-0.12 0.24,-0.12 0.2,0 0.32,0.16 0.16,0.12 0.16,0.28 0,0.52 -0.72,1.24 -1.48,1.48 -3.36,1.48 -1.16,0 -2.04,-0.56 -0.88,-0.52 -1.68,-1.72 h -0.08 q -1.32,1.24 -2.4,1.76 -1.04,0.52 -2.24,0.52 z m 2.4,-2.6 q 0.76,0 1.28,-0.6 0.28,-0.44 0.28,-1.04 l 0.12,-2.88 q 0,-0.64 -0.4,-0.64 -0.2,0 -0.48,0.16 -1.28,0.6 -1.8,1.2 -0.48,0.6 -0.48,1.8 0,1.04 0.44,1.52 0.44,0.48 1.04,0.48 z" />
    <path
       id="path927"
       style="font-style:normal;font-variant:normal;font-weight:bold;font-stretch:normal;font-family:'EB Garamond';-inkscape-font-specification:'EB Garamond Bold';text-align:center;text-anchor:middle;fill:#ffffff"
       d="m 863.23859,716.62915 q -0.36,0 -0.6,-0.12 -0.2,-0.16 -0.2,-0.44 0,-0.32 0.2,-0.48 0.24,-0.2 0.72,-0.32 0.88,-0.28 1.16,-0.6 0.32,-0.32 0.32,-0.92 v -9.2 q 0,-0.92 -0.28,-1.4 -0.24,-0.52 -0.92,-0.72 -0.52,-0.16 -0.52,-0.72 0,-0.56 0.48,-0.68 1.28,-0.28 2.8,-0.8 1.56,-0.56 2.64,-1.08 0.6,-0.44 0.92,-0.44 0.36,0 0.36,0.44 l -0.12,3.16 q 0,0.36 0.16,0.36 1.04,-1.44 2.4,-2.44 1.36,-1.04 2.68,-1.04 1.32,0 1.92,0.52 0.64,0.48 0.64,1.36 0,0.96 -0.76,2.04 -0.72,1.04 -1.56,1.04 -0.52,0 -1.56,-0.56 -0.16,-0.08 -0.68,-0.28 -0.48,-0.24 -0.8,-0.24 -2.56,0 -2.56,3.8 v 6.52 q 0,0.76 0.48,1.16 0.48,0.4 1.64,0.72 0.88,0.24 0.88,0.8 0,0.24 -0.2,0.4 -0.2,0.16 -0.48,0.16 -1.28,0 -2.56,-0.12 -1.6,-0.08 -2.24,-0.08 -0.68,0 -2.04,0.08 -1.08,0.12 -2.32,0.12 z" />
    <path
       id="path929"
       style="font-style:normal;font-variant:normal;font-weight:bold;font-stretch:normal;font-family:'EB Garamond';-inkscape-font-specification:'EB Garamond Bold';text-align:center;text-anchor:middle;fill:#ffffff"
       d="m 888.93422,709.94915 q -0.32,0 -0.32,-0.4 0,-2.36 0.88,-2.52 5.24,-0.8 9.08,-1.12 h 0.08 q 0.52,0 0.52,0.6 0,1.2 -0.16,1.68 -0.16,0.48 -0.64,0.56 l -1.24,0.16 q -4.72,0.72 -8.12,1.04 z" />
    <path
       id="path931"
       style="font-style:normal;font-variant:normal;font-weight:bold;font-stretch:normal;font-family:'EB Garamond';-inkscape-font-specification:'EB Garamond Bold';text-align:center;text-anchor:middle;fill:#ffffff"
       d="m 924.96359,716.78915 q -1.92,0 -5.28,-0.16 -1.8,-0.12 -2.84,-0.12 l -2.64,0.04 q -2.08,0.08 -3,0.08 -0.32,0 -0.56,-0.16 -0.24,-0.16 -0.24,-0.4 0,-0.68 0.84,-0.84 1.56,-0.32 2.08,-0.84 0.56,-0.52 0.56,-1.76 v -18.16 q 0,-1.32 -0.52,-1.84 -0.52,-0.52 -2.12,-0.88 -0.84,-0.2 -0.84,-0.84 0,-0.28 0.24,-0.44 0.24,-0.16 0.56,-0.16 1.48,0 2.96,0.12 1.92,0.08 2.72,0.08 0.68,0 3.72,-0.16 2.72,-0.2 4.44,-0.2 4,0 7.24,1.64 3.28,1.64 5.12,4.6 1.88,2.96 1.88,6.68 0,3.64 -1.72,6.8 -1.72,3.12 -5,5.04 -3.24,1.88 -7.6,1.88 z m -0.6,-2.04 q 4,0 6.08,-2.84 2.12,-2.84 2.12,-7.76 0,-3.56 -1.04,-6.24 -1,-2.68 -2.96,-4.16 -1.96,-1.48 -4.64,-1.48 -2.2,0 -3.04,0.28 -0.84,0.24 -0.84,1.24 v 17.44 q 0,1.92 1.08,2.72 1.08,0.8 3.24,0.8 z" />
    <path
       id="path933"
       style="font-style:normal;font-variant:normal;font-weight:bold;font-stretch:normal;font-family:'EB Garamond';-inkscape-font-specification:'EB Garamond Bold';text-align:center;text-anchor:middle;fill:#ffffff"
       d="m 948.74859,717.06915 q -2.12,0 -3.84,-1.12 -1.72,-1.16 -2.72,-3.16 -0.96,-2 -0.96,-4.48 0,-2.48 1.16,-4.56 1.16,-2.08 3.16,-3.28 2.04,-1.24 4.4,-1.24 1.68,0 3.08,0.72 1.4,0.72 2.2,2 0.8,1.28 0.8,2.8 0,0.8 -0.32,1.16 -0.28,0.36 -0.92,0.36 h -8 q -0.56,0 -0.84,0.32 -0.24,0.32 -0.24,1.08 0,2.32 1.48,3.92 1.48,1.56 3.72,1.56 1.12,0 2.08,-0.4 0.96,-0.44 2,-1.24 0.4,-0.32 0.56,-0.32 0.4,0 0.4,0.52 0,0.52 -0.32,1.2 -0.64,1.68 -2.52,2.92 -1.84,1.24 -4.36,1.24 z m 0.44,-12.48 q 0.92,0 1.44,-0.04 0.52,-0.04 0.92,-0.16 0.2,-0.08 0.32,-0.4 0.12,-0.32 0.12,-0.72 0,-1.04 -0.76,-1.72 -0.72,-0.72 -1.8,-0.72 -1.24,0 -2.24,1.04 -1,1 -0.96,2.16 0,0.56 0.56,0.56 z" />
    <path
       id="path935"
       style="font-style:normal;font-variant:normal;font-weight:bold;font-stretch:normal;font-family:'EB Garamond';-inkscape-font-specification:'EB Garamond Bold';text-align:center;text-anchor:middle;fill:#ffffff"
       d="m 967.55859,717.06915 q -1.6,0 -3.92,-0.6 -1.52,-0.44 -1.92,-0.44 -0.64,0 -1.44,0.52 -0.36,0.28 -0.56,0.28 -0.36,0 -0.56,-0.16 -0.16,-0.12 -0.16,-0.36 0,-0.28 0.2,-1.4 0.24,-1.16 0.2,-2.6 l -0.16,-17.8 q 0,-1.2 -0.36,-1.92 -0.32,-0.76 -1.2,-0.96 -0.48,-0.08 -0.48,-0.64 0,-0.2 0.12,-0.36 0.12,-0.16 0.32,-0.2 1.76,-0.32 6,-1.96 0.4,-0.16 0.56,-0.16 0.44,0 0.44,0.48 0,0.28 -0.12,1.08 -0.08,0.8 -0.08,1.44 v 8.56 q 0,1.12 0.36,1.12 1.24,-0.84 2.56,-1.28 1.36,-0.48 2.56,-0.48 2.08,0 3.76,1.08 1.68,1.08 2.64,3 1,1.88 1,4.2 0,2.8 -1.24,5 -1.2,2.16 -3.44,3.36 -2.2,1.2 -5.08,1.2 z m 0.72,-1.68 q 1.56,0 2.48,-1.96 0.96,-2 0.96,-4.88 0,-2.76 -1.04,-4.92 -1.04,-2.16 -3,-2.16 -0.84,0 -1.76,0.24 -0.92,0.24 -1.48,0.68 v 8.52 q 0,1.92 1.12,3.2 1.16,1.28 2.72,1.28 z" />
    <path
       id="path937"
       style="font-style:normal;font-variant:normal;font-weight:bold;font-stretch:normal;font-family:'EB Garamond';-inkscape-font-specification:'EB Garamond Bold';text-align:center;text-anchor:middle;fill:#ffffff"
       d="m 979.75734,716.62915 q -0.24,0 -0.44,-0.12 -0.2,-0.16 -0.2,-0.4 0,-0.6 0.72,-0.8 1.08,-0.24 1.48,-0.52 0.4,-0.32 0.4,-0.96 v -8.64 q 0,-1.32 -0.4,-1.92 -0.4,-0.6 -1.32,-0.72 -0.24,-0.04 -0.36,-0.24 -0.12,-0.2 -0.12,-0.48 0,-0.24 0.12,-0.44 0.16,-0.2 0.32,-0.24 1.8,-0.32 3.16,-0.88 1.4,-0.56 3.04,-1.36 0.56,-0.32 0.8,-0.32 0.24,0 0.36,0.16 0.16,0.12 0.16,0.32 l -0.16,1.48 q -0.36,3.04 -0.36,4.4 v 8.84 q 0,0.56 0.4,0.88 0.4,0.32 1.52,0.64 0.36,0.12 0.52,0.28 0.2,0.16 0.2,0.48 0,0.52 -0.6,0.52 -0.84,0 -2.44,-0.08 -1.6,-0.08 -2.28,-0.08 -0.68,0 -2.12,0.08 -1.2,0.12 -2.4,0.12 z m 4.4,-19.84 q -1.28,0 -2.2,-0.92 -0.92,-0.92 -0.92,-2.2 0,-1.36 0.92,-2.28 0.92,-0.92 2.2,-0.92 1.36,0 2.28,0.92 0.96,0.92 0.96,2.28 0,1.28 -0.96,2.2 -0.92,0.92 -2.28,0.92 z" />
    <path
       id="path939"
       style="font-style:normal;font-variant:normal;font-weight:bold;font-stretch:normal;font-family:'EB Garamond';-inkscape-font-specification:'EB Garamond Bold';text-align:center;text-anchor:middle;fill:#ffffff"
       d="m 995.23422,717.06915 q -1.6,0 -2.8,-1.08 -1.2,-1.12 -1.2,-2.64 0,-1.36 0.8,-2.24 0.84,-0.92 2.6,-1.68 l 3.56,-1.56 q 0.8,-0.36 0.96,-0.64 0.2,-0.28 0.2,-1.04 l 0.04,-2.28 q 0.04,-1.16 -0.4,-1.8 -0.44,-0.64 -1.32,-0.64 -0.48,0 -1.04,0.24 -0.52,0.2 -0.8,0.48 -0.24,0.28 -0.24,0.84 0,0.28 0.04,0.6 0.04,0.28 0.04,0.56 0,0.4 -1.36,1 -1.32,0.6 -2.2,0.6 -0.32,0 -0.52,-0.24 -0.2,-0.24 -0.2,-0.6 0,-0.64 0.44,-1.24 0.44,-0.6 1.44,-1.44 1.56,-1.28 3.52,-2.16 1.96,-0.88 3.27998,-0.88 2.12,0 3.4,1.4 1.28,1.36 1.24,3.64 l -0.2,8.08 q -0.04,0.92 0.32,1.56 0.36,0.64 0.88,0.64 0.76,0 1.32,-0.52 0.12,-0.12 0.24,-0.12 0.2,0 0.32,0.16 0.16,0.12 0.16,0.28 0,0.52 -0.72,1.24 -1.48,1.48 -3.36,1.48 -1.16,0 -2.04,-0.56 -0.88,-0.52 -1.67998,-1.72 h -0.08 q -1.32,1.24 -2.4,1.76 -1.04,0.52 -2.24,0.52 z m 2.4,-2.6 q 0.76,0 1.28,-0.6 0.28,-0.44 0.28,-1.04 l 0.12,-2.88 q 0,-0.64 -0.4,-0.64 -0.2,0 -0.48,0.16 -1.28,0.6 -1.8,1.2 -0.48,0.6 -0.48,1.8 0,1.04 0.44,1.52 0.44,0.48 1.04,0.48 z" />
    <path
       id="path941"
       style="font-style:normal;font-variant:normal;font-weight:bold;font-stretch:normal;font-family:'EB Garamond';-inkscape-font-specification:'EB Garamond Bold';text-align:center;text-anchor:middle;fill:#ffffff"
       d="m 1009.2142,716.62915 q -0.28,0 -0.56,-0.16 -0.24,-0.16 -0.24,-0.4 0,-0.48 0.92,-0.8 0.8,-0.24 1.16,-0.52 0.36,-0.28 0.36,-1 v -9.16 q 0,-2 -1.24,-2.24 -0.44,-0.08 -0.44,-0.72 0,-0.56 0.4,-0.68 1.4,-0.32 3.04,-0.88 1.64,-0.56 2.72,-1.12 0.52,-0.32 0.72,-0.32 0.36,0 0.36,0.48 l -0.08,0.8 q -0.12,1.44 -0.12,1.48 0,0.52 0.08,0.6 1.48,-1.4 2.84,-2.08 1.4,-0.68 3.16,-0.68 2.16,0 3.52,1.56 1.4,1.56 1.4,4.16 v 8.8 q 0,0.72 0.36,1 0.36,0.28 1.16,0.52 0.8,0.28 0.8,0.8 0,0.24 -0.2,0.4 -0.2,0.16 -0.48,0.16 -1.2,0 -2.28,-0.12 -1.28,-0.08 -1.96,-0.08 -0.68,0 -1.96,0.08 -1,0.12 -2.24,0.12 -0.28,0 -0.48,-0.16 -0.2,-0.16 -0.2,-0.4 0,-0.52 0.8,-0.8 0.76,-0.24 1.08,-0.52 0.32,-0.28 0.32,-1 v -7.96 q 0,-1.52 -0.68,-2.36 -0.68,-0.88 -1.88,-0.92 -0.84,0 -1.52,0.28 -0.68,0.24 -1.44,0.76 -0.32,0.28 -0.32,0.76 v 9.44 q 0,0.72 0.32,1 0.32,0.24 1.12,0.52 0.8,0.28 0.8,0.8 0,0.24 -0.2,0.4 -0.2,0.16 -0.48,0.16 -1.2,0 -2.16,-0.12 -1.28,-0.08 -1.92,-0.08 -0.68,0 -2.04,0.08 -1.08,0.12 -2.32,0.12 z" />
  </g>
</svg>
