<?xml version="1.0" encoding="UTF-8" standalone="no"?>
<svg
   xmlns:osb="http://www.openswatchbook.org/uri/2009/osb"
   xmlns:dc="http://purl.org/dc/elements/1.1/"
   xmlns:cc="http://creativecommons.org/ns#"
   xmlns:rdf="http://www.w3.org/1999/02/22-rdf-syntax-ns#"
   xmlns:svg="http://www.w3.org/2000/svg"
   xmlns="http://www.w3.org/2000/svg"
   xmlns:xlink="http://www.w3.org/1999/xlink"
   width="211.40208mm"
   height="119.0625mm"
   viewBox="0 0 211.40208 119.0625"
   version="1.1"
   id="svg3357">
  <defs
     id="defs3351">
    <linearGradient
       id="linearGradient4115"
       osb:paint="solid">
      <stop
         style="stop-color:#000000;stop-opacity:1;"
         offset="0"
         id="stop4113" />
    </linearGradient>
    <linearGradient
       id="linearGradient6114">
      <stop
         style="stop-color:#6f7c91;stop-opacity:1;"
         offset="0"
         id="stop6110" />
      <stop
         style="stop-color:#162d50;stop-opacity:1"
         offset="1"
         id="stop6112" />
    </linearGradient>
    <radialGradient
       xlink:href="#linearGradient6114"
       id="radialGradient6126"
       cx="73.77433"
       cy="66.986313"
       fx="73.77433"
       fy="66.986313"
       r="31.67275"
       gradientTransform="matrix(3.0071285,0,0,1.83657,-125.12732,-58.151445)"
       gradientUnits="userSpaceOnUse" />
  </defs>
  <metadata
     id="metadata3354">
    <rdf:RDF>
      <cc:Work
         rdf:about="">
        <dc:format>image/svg+xml</dc:format>
        <dc:type
           rdf:resource="http://purl.org/dc/dcmitype/StillImage" />
        <dc:title></dc:title>
      </cc:Work>
    </rdf:RDF>
  </metadata>
  <flowRoot
     transform="matrix(1.1097917,0,0,1.0234149,-1.6397722,-7.1516095)"
     style="font-style:normal;font-weight:normal;font-size:40px;line-height:1.25;font-family:sans-serif;letter-spacing:0px;word-spacing:0px;fill:#000000;fill-opacity:1;stroke:none"
     id="flowRoot874"
     xml:space="preserve"><flowRegion
       id="flowRegion876"><rect
         y="215.22041"
         x="200.72992"
         height="44.525547"
         width="166.0584"
         id="rect878" /></flowRegion><flowPara
       id="flowPara880" /></flowRoot>  <flowRoot
     transform="translate(-1.4775493,-4.2705599)"
     style="font-style:normal;font-weight:normal;font-size:40px;line-height:1.25;font-family:sans-serif;letter-spacing:0px;word-spacing:0px;fill:#000000;fill-opacity:1;stroke:none"
     id="flowRoot1713"
     xml:space="preserve"><flowRegion
       id="flowRegion1715"><rect
         y="580.82324"
         x="98.177094"
         height="136.07001"
         width="429.74008"
         id="rect1717" /></flowRegion><flowPara
       id="flowPara1719" /></flowRoot>  <rect
     ry="0"
     y="2.4475098e-09"
     x="1.4498902e-08"
     height="119.0625"
     width="211.40208"
     id="rect6108"
     style="opacity:1;fill:#555753;fill-opacity:1;stroke:none;stroke-width:4.38045835;stroke-miterlimit:4;stroke-dasharray:none;paint-order:stroke markers fill" />
  <g
     transform="matrix(1.1825108,0,0,1.2934259,-94.586312,-87.173686)"
     id="g4921">
    <g
       id="g4720"
       transform="translate(50.270828)">
      <g
         style="fill:#333333"
         transform="translate(-47.638093,1.3360133)"
         id="g4694">
        <path
           id="path835"
           d="m 144.21101,139.55982 c 0,0 5.43081,5.83681 7.33498,3.79847 2.22288,-2.37952 -12.62665,-36.87139 -12.62665,-36.87139"
           style="fill:#333333;stroke:none;stroke-width:0.26458347px;stroke-linecap:butt;stroke-linejoin:miter;stroke-opacity:1" />
        <path
           style="fill:#333333;stroke:none;stroke-width:0.26458332px;stroke-linecap:butt;stroke-linejoin:miter;stroke-opacity:1"
           d="m 97.450493,140.21473 c 7.815327,4.80271 15.630577,9.60538 23.402247,9.51796 7.77167,-0.0874 15.49967,-5.06478 19.38543,-7.57529 3.88576,-2.5105 3.92946,-2.5542 3.97284,-2.59758"
           id="path817" />
        <path
           style="fill:#333333;stroke:none;stroke-width:0.26458332px;stroke-linecap:butt;stroke-linejoin:miter;stroke-opacity:1"
           d="m 97.450491,140.21473 c 0,0 -5.430812,5.83681 -7.33498,3.79847 -2.222882,-2.37952 12.820499,-36.99713 12.820499,-36.99713"
           id="path825" />
        <path
           style="fill:#333333;stroke:none;stroke-width:0.26458332px;stroke-linecap:butt;stroke-linejoin:miter;stroke-opacity:1"
           d="m 102.93926,105.67937 c 0.0862,-6.905162 0.17248,-13.810016 1.50935,-18.736088 1.33687,-4.926072 3.92412,-7.873272 9.74546,-9.346742 5.82134,-1.473471 14.87673,-1.473471 19.40429,3.368239 4.52756,4.84171 4.52756,14.525398 4.52756,24.209361"
           id="path831"
           transform="matrix(1.0226412,0,0,1.0473654,-2.3339152,-3.6688483)" />
      </g>
      <g
         id="g4708">
        <path
           style="fill:#333333;stroke:none;stroke-width:0.26458332px;stroke-linecap:butt;stroke-linejoin:miter;stroke-opacity:1"
           d="m 49.741667,141.68958 c 0,0 3.615973,-22.40139 5.55625,-33.60208 l 35.983333,-0.26458 6.614583,33.07291 z"
           id="path4696" />
        <rect
           style="opacity:1;fill:#333333;fill-opacity:1;stroke:none;stroke-width:0.26458332"
           id="rect4698"
           width="37.041668"
           height="3.96875"
           x="55.5625"
           y="138.25" />
        <rect
           style="opacity:1;fill:#333333;fill-opacity:1;stroke:none;stroke-width:0.26458332"
           id="rect4700"
           width="30.427082"
           height="3.96875"
           x="59.53125"
           y="106.5" />
        <rect
           style="opacity:1;fill:#333333;fill-opacity:1;stroke:none;stroke-width:0.26458332"
           id="rect4702"
           width="5.2916694"
           height="3.968755"
           x="84.666664"
           y="105.17708" />
      </g>
    </g>
    <path
       style="opacity:1;fill:#e6e6e6;fill-opacity:1;stroke:none;stroke-width:0.26458332"
       id="path843"
       d="m 138.70455,126.61246 a 15.239734,15.867999 0 0 1 -15.17522,15.86785 15.239734,15.867999 0 0 1 -15.3037,-15.73349 15.239734,15.867999 0 0 1 15.04563,-16.00108 15.239734,15.867999 0 0 1 15.4311,15.59801" />
    <g
       id="g4688"
       transform="translate(44.751274,16.383515)">
      <g
         style="fill:#ff6600;stroke:none"
         transform="translate(-41.01042,-15.875)"
         id="g4596">
        <path
           style="fill:#ff6600;stroke:none;stroke-width:0.26458332px;stroke-linecap:butt;stroke-linejoin:miter;stroke-opacity:1"
           d="m 111.125,110.46875 c 2.9216,-2.67614 5.84316,-5.35225 8.7091,-5.35212 2.86595,1.3e-4 5.6775,2.67624 8.48882,5.35212"
           id="path4585" />
        <path
           style="fill:#ff6600;stroke:none;stroke-width:0.26458332px;stroke-linecap:butt;stroke-linejoin:miter;stroke-opacity:1"
           d="m 111.125,110.46875 c 2.77957,3.92198 5.48174,5.31906 8.73125,6.61458"
           id="path4589" />
        <path
           style="fill:#ff6600;stroke:none;stroke-width:0.26458332px;stroke-linecap:butt;stroke-linejoin:miter;stroke-opacity:1"
           d="m 128.32292,110.46875 c -1.04604,3.82945 -4.9192,5.32533 -8.46667,6.61458"
           id="path4591" />
      </g>
      <g
         id="g4661"
         transform="translate(-41.01042,-15.875)"
         style="fill:#ff6600;stroke:none">
        <path
           id="path4655"
           d="m 111.125,110.46875 c 2.9216,-2.67614 5.84316,-5.35225 8.7091,-5.35212 2.86595,1.3e-4 5.6775,2.67624 8.48882,5.35212"
           style="fill:#ff6600;stroke:none;stroke-width:0.26458332px;stroke-linecap:butt;stroke-linejoin:miter;stroke-opacity:1" />
        <path
           id="path4657"
           d="m 111.125,110.46875 c 2.77957,3.92198 5.48174,5.31906 8.73125,6.61458"
           style="fill:#ff6600;stroke:none;stroke-width:0.26458332px;stroke-linecap:butt;stroke-linejoin:miter;stroke-opacity:1" />
        <path
           id="path4659"
           d="m 128.32292,110.46875 c -1.04604,3.82945 -4.9192,5.32533 -8.46667,6.61458"
           style="fill:#ff6600;stroke:none;stroke-width:0.26458332px;stroke-linecap:butt;stroke-linejoin:miter;stroke-opacity:1" />
      </g>
      <path
         d="m 78.845833,101.20833 -4.582718,-2.645833 v -5.291666 l 4.582718,-2.645833 4.582717,2.645833 v 5.291666 z"
         id="path4671"
         style="opacity:1;fill:#ff6600;fill-opacity:1;stroke:none;stroke-width:0.26458332" />
      <path
         transform="matrix(0.94729327,-1.274616,1.0295753,1.1727506,-98.356248,87.506876)"
         d="m 83.608335,99.620834 2.319854,-2.397701 0.916543,3.207907 z"
         id="path4673"
         style="opacity:1;fill:#ff6600;fill-opacity:1;stroke:none;stroke-width:0.26458332" />
      <path
         transform="matrix(1.141627,0.11210349,-0.08749549,1.2944633,-2.2020547,-37.413635)"
         d="m 74.536294,98.196559 -3.844516,-2.340158 3.948894,-2.159369 z"
         id="path4675"
         style="opacity:1;fill:#ff6600;fill-opacity:1;stroke:none;stroke-width:0.26458332" />
    </g>
    <path
       style="opacity:1;fill:#333333;fill-opacity:1;stroke:none;stroke-width:0.40745068"
       d="m 457.97263,570.35612 c -18.79507,-2.12161 -40.18257,-11.27811 -71.63974,-30.67068 -8.13959,-5.01787 -8.02372,-4.97631 -9.49602,-3.40625 -1.98328,2.11498 -9.29175,8.28788 -11.94887,10.09229 -7.55689,5.13179 -13.40276,5.68891 -14.83103,1.41342 -1.63872,-4.90546 5.4376,-28.95935 18.84332,-64.05245 9.54282,-24.98091 28.41577,-70.80369 29.41653,-71.42219 0.22811,-0.14098 0.37499,-0.42288 0.3264,-0.62644 -0.0486,-0.20356 0.0318,-0.82849 0.17857,-1.38874 0.14681,-0.56024 0.45269,-8.53609 0.67974,-17.7241 0.63732,-25.79 1.66538,-38.59108 4.07232,-50.7069 4.32594,-21.77558 13.30666,-33.82393 30.11939,-40.40761 16.87389,-6.60764 39.99439,-8.13907 57.78976,-3.82784 20.7168,5.019 32.64507,17.2536 38.14208,39.1216 3.4588,13.75967 4.66657,26.50558 4.98055,52.56114 0.20469,16.98608 0.39447,21.14579 0.94912,20.80299 0.62648,-0.38718 21.06718,49.83231 30.13912,74.04694 11.92704,31.8354 17.56985,50.7662 17.56985,58.9443 0,2.59002 -0.1133,3.01447 -1.03188,3.86578 -3.15357,2.92263 -9.30891,0.77622 -18.04824,-6.29354 -2.16747,-1.75339 -5.03522,-4.30389 -6.3728,-5.66777 -1.33757,-1.36388 -2.56841,-2.47978 -2.7352,-2.47978 -0.16679,0 -5.21474,3.17625 -11.21765,7.05833 -6.00292,3.88209 -13.48133,8.58639 -16.6187,10.45401 -26.52636,15.79064 -49.54126,22.54011 -69.26662,20.31349 z m 19.96508,-32.86866 c 5.28911,-1.14072 8.32959,-2.22946 13.85333,-4.9606 18.43404,-9.11449 30.90578,-28.24854 32.34892,-49.62947 0.94243,-13.9626 -2.58151,-27.3736 -10.20264,-38.82794 -3.0137,-4.52952 -10.61003,-12.34927 -14.86401,-15.30119 l -2.90399,-2.01514 0.75119,-1.40422 c 0.41315,-0.77232 1.12926,-2.38761 1.59134,-3.58952 1.00562,-2.61573 1.41642,-1.9763 -5.09101,-7.92451 -5.72644,-5.23434 -11.15932,-9.40512 -14.87195,-11.41709 -10.91899,-5.91728 -20.15604,-3.88649 -33.81841,7.43508 -3.40229,2.81937 -10.37133,9.1079 -10.53264,9.50415 -0.0784,0.19273 0.9084,1.72266 2.19301,3.39982 1.28461,1.67718 2.26556,3.10249 2.1799,3.16736 -0.0857,0.0649 -1.43922,0.95947 -3.00791,1.98798 -15.62369,10.24371 -25.66261,28.29897 -26.56551,47.77875 -1.32187,28.5191 16.86115,54.02186 43.57738,61.11985 2.07246,0.55061 5.05159,1.17715 6.62027,1.39232 4.35042,0.59669 14.44506,0.21127 18.74273,-0.71563 z m 70.79456,-4.85226 c -1.62471,-0.0773 -4.28333,-0.0773 -5.90804,0 -1.62471,0.0773 -0.2954,0.14062 2.95402,0.14062 3.24942,0 4.57873,-0.0633 2.95402,-0.14062 z m -16.9092,-125.06569 c -0.39218,-0.10248 -1.03391,-0.10248 -1.42608,0 -0.39217,0.10248 -0.0713,0.18634 0.71304,0.18634 0.78434,0 1.10521,-0.0839 0.71304,-0.18634 z"
       id="path4722"
       transform="scale(0.26458333)" />
    <rect
       style="opacity:1;fill:#333333;fill-opacity:1;stroke:none;stroke-width:0.26458332"
       id="rect4846"
       width="1.3815778"
       height="1.2520549"
       x="139.81281"
       y="107.16256" />
    <g
       id="g4877">
      <path
         style="opacity:1;fill:#e6e6e6;fill-opacity:1;stroke:none;stroke-width:0.26458332"
         id="path4860"
         d="m 133.36974,95.882912 a 3.0704114,3.0704114 0 0 1 -3.05741,3.070384 3.0704114,3.0704114 0 0 1 -3.0833,-3.044394 3.0704114,3.0704114 0 0 1 3.03132,-3.096154 3.0704114,3.0704114 0 0 1 3.10895,3.018185" />
      <g
         transform="matrix(0.80841168,0,0,1,68.549895,-7.3051882)"
         id="g4864">
        <path
           d="m 77.375031,103.39364 a 1.6372987,1.2321938 0 0 1 -1.630369,1.23218 1.6372987,1.2321938 0 0 1 -1.64417,-1.22175 1.6372987,1.2321938 0 0 1 1.616451,-1.24253 1.6372987,1.2321938 0 0 1 1.657853,1.21124"
           id="path4862"
           style="opacity:1;fill:#000000;fill-opacity:1;stroke:none;stroke-width:0.26458332" />
      </g>
    </g>
    <g
       id="g4885"
       transform="matrix(-1,0,0,1,248.68829,0.27470384)">
      <path
         d="m 133.36974,95.882912 a 3.0704114,3.0704114 0 0 1 -3.05741,3.070384 3.0704114,3.0704114 0 0 1 -3.0833,-3.044394 3.0704114,3.0704114 0 0 1 3.03132,-3.096154 3.0704114,3.0704114 0 0 1 3.10895,3.018185"
         id="path4879"
         style="opacity:1;fill:#e6e6e6;fill-opacity:1;stroke:none;stroke-width:0.26458332" />
      <g
         id="g4883"
         transform="matrix(0.80841168,0,0,1,68.549895,-7.3051882)">
        <path
           style="opacity:1;fill:#000000;fill-opacity:1;stroke:none;stroke-width:0.26458332"
           id="path4881"
           d="m 77.375031,103.39364 a 1.6372987,1.2321938 0 0 1 -1.630369,1.23218 1.6372987,1.2321938 0 0 1 -1.64417,-1.22175 1.6372987,1.2321938 0 0 1 1.616451,-1.24253 1.6372987,1.2321938 0 0 1 1.657853,1.21124" />
      </g>
    </g>
  </g>
  <g
     transform="matrix(1.8441147,0,0,2.045793,125.18943,-268.42488)"
     id="g933">
    <g
       id="text919"
       style="font-style:normal;font-variant:normal;font-weight:normal;font-stretch:normal;font-size:10.58333302px;line-height:1.25;font-family:'Sansita One';-inkscape-font-specification:'Sansita One';text-align:center;letter-spacing:0px;word-spacing:0px;text-anchor:middle;fill:#373e48;fill-opacity:1;stroke:#373e48;stroke-width:1.23562431;stroke-miterlimit:4;stroke-dasharray:none"
       aria-label="GParted  1.0Released!">
      <path
         id="path933"
         style="font-style:normal;font-variant:normal;font-weight:normal;font-stretch:normal;font-family:'Sansita One';-inkscape-font-specification:'Sansita One';text-align:center;text-anchor:middle;fill:#373e48;stroke:#373e48;stroke-width:1.23562431;stroke-miterlimit:4;stroke-dasharray:none"
         d="m -13.586378,152.00924 q -0.762,1.67217 -0.762,3.60892 -0.28575,0.20108 -0.709083,0.20108 -0.41275,0 -0.677333,-0.20108 -0.264584,-0.1905 -0.3175,-0.39159 -0.264584,0.27517 -0.6985,0.43392 -0.423334,0.15875 -0.878417,0.15875 -0.455083,0 -0.85725,-0.14817 -0.391583,-0.14816 -0.6985,-0.47625 -0.677333,-0.71966 -0.677333,-2.08491 0,-2.11667 1.132416,-3.38667 1.164167,-1.31233 3.227917,-1.31233 1.42875,0 1.93675,0.74083 0.15875,0.23283 0.15875,0.51858 0,0.27517 -0.127,0.51859 -0.116417,0.23283 -0.306917,0.42333 -0.455083,0.42333 -1.016,0.42333 -0.22225,0 -0.433916,-0.0741 0.04233,-0.3175 0.04233,-0.68792 0,-0.37041 -0.03175,-0.53975 -0.02117,-0.16933 -0.08467,-0.30691 -0.137583,-0.28575 -0.4445,-0.28575 -0.296333,0 -0.635,0.32808 -0.328083,0.3175 -0.592666,0.84667 -0.582084,1.18533 -0.582084,2.61408 0,0.65617 0.254,1.12183 0.275167,0.508 0.762,0.508 0.169334,0 0.3175,-0.0847 0.15875,-0.0847 0.22225,-0.14817 l 0.338667,-2.12725 z" />
      <path
         id="path935"
         style="font-style:normal;font-variant:normal;font-weight:normal;font-stretch:normal;font-family:'Sansita One';-inkscape-font-specification:'Sansita One';text-align:center;text-anchor:middle;fill:#373e48;stroke:#373e48;stroke-width:1.23562431;stroke-miterlimit:4;stroke-dasharray:none"
         d="m -8.9270652,148.54849 q 2.5929166,0 2.5929166,1.83092 0,1.00541 -0.6455833,1.60866 -0.635,0.60325 -1.74625,0.60325 -0.5185833,0 -0.92075,-0.29633 -0.1905,-0.127 -0.3175,-0.29633 0.7725834,0 1.17475,-0.46567 0.41275,-0.47625 0.41275,-1.397 0,-0.92075 -0.9101666,-0.92075 h -0.254 q -0.0635,0 -0.1164167,0.0106 l -1.2170828,6.38175 h -2.296584 l 1.30175,-6.93208 q 1.132417,-0.10583 1.788583,-0.11642 0.6561671,-0.0106 1.1535838,-0.0106 z" />
      <path
         id="path937"
         style="font-style:normal;font-variant:normal;font-weight:normal;font-stretch:normal;font-family:'Sansita One';-inkscape-font-specification:'Sansita One';text-align:center;text-anchor:middle;fill:#373e48;stroke:#373e48;stroke-width:1.23562431;stroke-miterlimit:4;stroke-dasharray:none"
         d="m -5.8301178,155.29007 q -0.2434167,-0.27516 -0.3598334,-0.70908 -0.1058333,-0.43392 -0.1058333,-1.143 0,-0.70908 0.2434167,-1.35467 0.2434166,-0.64558 0.6879166,-1.11125 0.9101667,-0.97366 2.4129999,-0.97366 0.53975,0 0.9313334,0.17991 l 1.8097499,-0.17991 -0.78316664,4.1275 q -0.03175,0.127 -0.03175,0.35983 0,0.23283 0.13758329,0.381 0.14816666,0.14817 0.35983332,0.16933 -0.10583333,0.35984 -0.49741661,0.5715 -0.381,0.21167 -0.8149167,0.21167 -0.4339166,0 -0.73025,-0.16933 -0.28575,-0.15875 -0.3704166,-0.43392 -0.1693333,0.26458 -0.5291667,0.43392 -0.3598333,0.16933 -0.8466666,0.16933 -0.47625,0 -0.8678333,-0.127 -0.3915833,-0.127 -0.6455833,-0.40217 z m 2.2330832,-4.29683 q -0.1164166,0.1905 -0.22225,0.51858 -0.1058333,0.3175 -0.28575,1.18534 -0.1693333,0.85725 -0.1693333,1.47108 0,0.61383 0.09525,0.79375 0.09525,0.17992 0.2645833,0.17992 0.3386667,0 0.5820834,-0.3175 0.254,-0.32809 0.3492499,-0.89959 l 0.5609167,-3.10091 q -0.22225,-0.1905 -0.4868333,-0.1905 -0.254,0 -0.41275,0.0847 -0.1481667,0.0847 -0.2751667,0.27517 z" />
      <path
         id="path939"
         style="font-style:normal;font-variant:normal;font-weight:normal;font-stretch:normal;font-family:'Sansita One';-inkscape-font-specification:'Sansita One';text-align:center;text-anchor:middle;fill:#373e48;stroke:#373e48;stroke-width:1.23562431;stroke-miterlimit:4;stroke-dasharray:none"
         d="m 3.6833059,152.63366 q 0.381,-0.67734 0.381,-1.36525 0,-0.45509 -0.3280833,-0.45509 -0.254,0 -0.5185833,0.43392 -0.2751667,0.43392 -0.3598333,0.99483 l -0.5503334,3.3655 -2.1907499,0.21167 1.0795,-5.60917 1.7462499,-0.21166 -0.1905,1.06891 q 0.5185833,-1.06891 1.68275,-1.06891 0.6138333,0 0.9419166,0.3175 0.3386667,0.3175 0.3386667,0.97366 0,0.64559 -0.4339167,1.05834 -0.4233333,0.41275 -1.1535833,0.41275 -0.3175,0 -0.4445,-0.127 z" />
      <path
         id="path941"
         style="font-style:normal;font-variant:normal;font-weight:normal;font-stretch:normal;font-family:'Sansita One';-inkscape-font-specification:'Sansita One';text-align:center;text-anchor:middle;fill:#373e48;stroke:#373e48;stroke-width:1.23562431;stroke-miterlimit:4;stroke-dasharray:none"
         d="m 6.059099,154.54924 q 0,-0.28575 0.1481667,-1.00542 l 0.5609166,-2.8575 H 6.1437657 l 0.042333,-0.3175 q 1.2699999,-0.381 2.4976666,-1.31233 h 0.508 l -0.254,1.15358 h 0.8254999 l -0.09525,0.47625 H 8.8530989 l -0.53975,2.8575 q -0.1375833,0.65617 -0.1375833,0.87842 0,0.508 0.4445,0.61383 -0.1058334,0.35984 -0.4868333,0.5715 -0.381,0.21167 -0.92075,0.21167 -0.53975,0 -0.8466667,-0.33867 -0.3069166,-0.33866 -0.3069166,-0.93133 z" />
      <path
         id="path943"
         style="font-style:normal;font-variant:normal;font-weight:normal;font-stretch:normal;font-family:'Sansita One';-inkscape-font-specification:'Sansita One';text-align:center;text-anchor:middle;fill:#373e48;stroke:#373e48;stroke-width:1.23562431;stroke-miterlimit:4;stroke-dasharray:none"
         d="m 13.95873,153.81899 q 0.264584,0.17992 0.264584,0.58208 0,0.39159 -0.201084,0.64559 -0.201083,0.254 -0.529166,0.42333 -0.677334,0.34925 -1.407584,0.34925 -0.73025,0 -1.164166,-0.15875 -0.423334,-0.15875 -0.709084,-0.45508 -0.5609162,-0.56092 -0.5609162,-1.5875 0,-1.59809 0.8678332,-2.57175 0.931333,-1.04775 2.550583,-1.04775 1.005417,0 1.502834,0.42333 0.370416,0.3175 0.370416,0.83608 0,1.86267 -3.217333,1.86267 -0.04233,0.27517 -0.04233,0.508 0,0.48683 0.211666,0.67733 0.22225,0.17992 0.624417,0.17992 0.402167,0 0.8255,-0.17992 0.433917,-0.1905 0.613833,-0.48683 z m -2.159,-1.15358 q 0.751417,0 1.185334,-0.46567 0.433916,-0.4445 0.433916,-1.15358 0,-0.24342 -0.09525,-0.37042 -0.08467,-0.13758 -0.264583,-0.13758 -0.179917,0 -0.338667,0.0741 -0.148166,0.0635 -0.306916,0.29633 -0.391584,0.52917 -0.613834,1.75684 z" />
      <path
         id="path945"
         style="font-style:normal;font-variant:normal;font-weight:normal;font-stretch:normal;font-family:'Sansita One';-inkscape-font-specification:'Sansita One';text-align:center;text-anchor:middle;fill:#373e48;stroke:#373e48;stroke-width:1.23562431;stroke-miterlimit:4;stroke-dasharray:none"
         d="m 18.628625,149.99841 q 0.381,0 0.677333,0.0847 0.01058,-0.0423 0.03175,-0.15875 l 0.05292,-0.32808 q 0.04233,-0.21167 0.105833,-0.56092 l 0.169334,-0.83608 2.106083,-0.21167 -1.17475,6.13834 q -0.01058,0.0635 -0.01058,0.16933 v 0.16933 q 0,0.23284 0.116416,0.41275 0.116417,0.16934 0.306917,0.16934 -0.211667,0.49741 -0.85725,0.70908 -0.22225,0.0635 -0.53975,0.0635 -0.306917,0 -0.592667,-0.16933 -0.28575,-0.15875 -0.370416,-0.43392 -0.169334,0.27517 -0.508,0.43392 -0.338667,0.16933 -0.836084,0.16933 -0.486833,0 -0.899583,-0.127 -0.402167,-0.127 -0.656167,-0.40217 -0.465666,-0.53975 -0.465666,-1.76741 0,-1.5875 0.931333,-2.55059 0.931333,-0.97366 2.413,-0.97366 z m -0.07408,0.635 q -0.391584,0 -0.60325,0.42333 -0.211667,0.42333 -0.433917,1.47108 -0.211667,1.04775 -0.211667,1.98967 0,0.64558 0.381,0.64558 0.338667,0 0.5715,-0.33866 0.243417,-0.33867 0.338667,-0.89959 l 0.5715,-3.10091 q -0.22225,-0.1905 -0.613833,-0.1905 z" />
      <path
         id="path947"
         style="font-style:normal;font-variant:normal;font-weight:normal;font-stretch:normal;font-family:'Sansita One';-inkscape-font-specification:'Sansita One';text-align:center;text-anchor:middle;fill:#373e48;stroke:#373e48;stroke-width:1.23562431;stroke-miterlimit:4;stroke-dasharray:none"
         d="m 27.530865,155.72399 q -0.328084,-0.0106 -0.677334,-0.0106 -0.338666,0 -0.677333,0.0423 -0.04233,-0.16933 -0.04233,-0.37042 0,-0.42333 0.232833,-0.67733 0.243417,-0.254 0.613833,-0.254 h 0.5715 l 0.889,-4.0005 q -0.328083,0.32808 -1.005416,0.32808 -0.338667,0 -0.60325,-0.3175 -0.264584,-0.29633 -0.306917,-0.71966 1.566333,-0.27517 3.90525,-1.32292 l 0.338666,0.40217 -1.026583,5.63033 h 0.264583 q 0.635,0 0.963084,-0.11642 0.137583,0.23284 0.137583,0.61384 0,0.381 -0.28575,0.61383 -0.275167,0.22225 -0.740833,0.22225 -0.941917,0 -1.87325,-0.0423 z" />
      <path
         id="path949"
         style="font-style:normal;font-variant:normal;font-weight:normal;font-stretch:normal;font-family:'Sansita One';-inkscape-font-specification:'Sansita One';text-align:center;text-anchor:middle;fill:#373e48;stroke:#373e48;stroke-width:1.23562431;stroke-miterlimit:4;stroke-dasharray:none"
         d="m 31.451824,154.98316 q 0,-0.40217 0.306917,-0.62442 0.3175,-0.22225 0.762,-0.22225 0.4445,0 0.709083,0.22225 0.275167,0.22225 0.275167,0.62442 0,0.40216 -0.306917,0.62441 -0.296333,0.21167 -0.740833,0.21167 -0.4445,0 -0.73025,-0.21167 -0.275167,-0.22225 -0.275167,-0.62441 z" />
      <path
         id="path951"
         style="font-style:normal;font-variant:normal;font-weight:normal;font-stretch:normal;font-family:'Sansita One';-inkscape-font-specification:'Sansita One';text-align:center;text-anchor:middle;fill:#373e48;stroke:#373e48;stroke-width:1.23562431;stroke-miterlimit:4;stroke-dasharray:none"
         d="m 34.563818,153.08874 q 0,-2.13783 1.005416,-3.40783 1.005417,-1.27 2.7305,-1.27 0.92075,0 1.449917,0.68791 0.529167,0.68792 0.529167,1.8415 0,1.143 -0.264584,2.04259 -0.254,0.889 -0.719666,1.524 -0.973667,1.32291 -2.592917,1.32291 -1.090083,0 -1.61925,-0.66675 -0.518583,-0.67733 -0.518583,-2.07433 z m 1.87325,0.71967 q 0,1.06891 0.34925,1.06891 0.3175,0 0.60325,-0.37041 0.296333,-0.37042 0.529166,-0.99484 0.497417,-1.36525 0.497417,-3.05858 0,-0.5715 -0.09525,-0.8255 -0.08467,-0.26458 -0.328083,-0.26458 -0.232834,0 -0.518584,0.41275 -0.275166,0.41275 -0.508,1.05833 -0.529166,1.47108 -0.529166,2.97392 z" />
      <path
         id="path953"
         style="font-style:normal;font-variant:normal;font-weight:normal;font-stretch:normal;font-family:'Sansita One';-inkscape-font-specification:'Sansita One';text-align:center;text-anchor:middle;fill:#373e48;stroke:#373e48;stroke-width:1.23562431;stroke-miterlimit:4;stroke-dasharray:none"
         d="m -14.204263,168.83675 1.291167,-6.95325 q 1.04775,-0.11642 2.57175,-0.11642 1.5345833,0 2.2436666,0.4445 0.7090833,0.4445 0.7090833,1.34408 0,0.889 -0.4656666,1.44992 -0.4550833,0.56092 -1.2488333,0.74083 0.1799166,0.87842 0.5926666,1.5875 0.381,0.66675 0.8255,0.87842 -0.15875,0.4445 -0.4868333,0.635 -0.3175,0.20108 -0.7831667,0.20108 -0.4550833,0 -0.8149166,-0.26458 -0.359833,-0.27517 -0.645583,-0.77258 -0.60325,-1.0795 -0.66675,-2.78342 h 0.07408 q 0.783167,-0.0212 1.17475,-0.42333 0.3915833,-0.41275 0.3915833,-1.27 0,-1.06892 -0.8995833,-1.11125 h -0.232833 q -0.09525,0 -0.148167,0.0106 l -1.217083,6.40292 z" />
      <path
         id="path955"
         style="font-style:normal;font-variant:normal;font-weight:normal;font-stretch:normal;font-family:'Sansita One';-inkscape-font-specification:'Sansita One';text-align:center;text-anchor:middle;fill:#373e48;stroke:#373e48;stroke-width:1.23562431;stroke-miterlimit:4;stroke-dasharray:none"
         d="m -2.6087329,167.04816 q 0.2645833,0.17992 0.2645833,0.58209 0,0.39158 -0.2010833,0.64558 -0.2010833,0.254 -0.5291666,0.42333 -0.6773333,0.34925 -1.4075833,0.34925 -0.73025,0 -1.1641667,-0.15875 -0.4233333,-0.15875 -0.7090833,-0.45508 -0.5609166,-0.56092 -0.5609166,-1.5875 0,-1.59808 0.8678333,-2.57175 0.9313333,-1.04775 2.5505832,-1.04775 1.0054167,0 1.5028333,0.42333 0.3704167,0.3175 0.3704167,0.83609 0,1.86266 -3.2173332,1.86266 -0.042333,0.27517 -0.042333,0.508 0,0.48684 0.2116667,0.67734 0.22225,0.17991 0.6244166,0.17991 0.4021667,0 0.8255,-0.17991 0.4339167,-0.1905 0.6138333,-0.48684 z m -2.1589999,-1.15358 q 0.7514166,0 1.1853333,-0.46567 0.4339166,-0.4445 0.4339166,-1.15358 0,-0.24342 -0.09525,-0.37042 -0.084667,-0.13758 -0.2645833,-0.13758 -0.1799166,0 -0.3386666,0.0741 -0.1481667,0.0635 -0.3069167,0.29634 -0.3915833,0.52916 -0.6138333,1.75683 z" />
      <path
         id="path957"
         style="font-style:normal;font-variant:normal;font-weight:normal;font-stretch:normal;font-family:'Sansita One';-inkscape-font-specification:'Sansita One';text-align:center;text-anchor:middle;fill:#373e48;stroke:#373e48;stroke-width:1.23562431;stroke-miterlimit:4;stroke-dasharray:none"
         d="m 1.2568298,168.25466 q -0.32808329,0.79375 -1.37583326,0.79375 -0.52916665,0 -0.86783331,-0.37041 -0.27516663,-0.30692 -0.27516663,-0.65617 0,-0.79375 0.37041663,-2.52942 l 0.77258331,-4.064 2.14841656,-0.21166 -1.0265833,5.35516 q -0.17991662,0.78317 -0.17991662,1.05834 0,0.60325 0.43391662,0.62441 z" />
      <path
         id="path959"
         style="font-style:normal;font-variant:normal;font-weight:normal;font-stretch:normal;font-family:'Sansita One';-inkscape-font-specification:'Sansita One';text-align:center;text-anchor:middle;fill:#373e48;stroke:#373e48;stroke-width:1.23562431;stroke-miterlimit:4;stroke-dasharray:none"
         d="m 6.4449776,167.04816 q 0.2645833,0.17992 0.2645833,0.58209 0,0.39158 -0.2010833,0.64558 -0.2010834,0.254 -0.5291667,0.42333 -0.6773333,0.34925 -1.4075833,0.34925 -0.7302499,0 -1.1641666,-0.15875 -0.4233333,-0.15875 -0.7090833,-0.45508 -0.5609167,-0.56092 -0.5609167,-1.5875 0,-1.59808 0.8678333,-2.57175 0.9313334,-1.04775 2.5505833,-1.04775 1.0054166,0 1.5028333,0.42333 0.3704166,0.3175 0.3704166,0.83609 0,1.86266 -3.2173332,1.86266 -0.042333,0.27517 -0.042333,0.508 0,0.48684 0.2116666,0.67734 0.22225,0.17991 0.6244167,0.17991 0.4021666,0 0.8255,-0.17991 0.4339166,-0.1905 0.6138333,-0.48684 z m -2.159,-1.15358 q 0.7514167,0 1.1853333,-0.46567 0.4339167,-0.4445 0.4339167,-1.15358 0,-0.24342 -0.09525,-0.37042 -0.084667,-0.13758 -0.2645833,-0.13758 -0.1799167,0 -0.3386667,0.0741 -0.1481666,0.0635 -0.3069166,0.29634 -0.3915834,0.52916 -0.6138334,1.75683 z" />
      <path
         id="path961"
         style="font-style:normal;font-variant:normal;font-weight:normal;font-stretch:normal;font-family:'Sansita One';-inkscape-font-specification:'Sansita One';text-align:center;text-anchor:middle;fill:#373e48;stroke:#373e48;stroke-width:1.23562431;stroke-miterlimit:4;stroke-dasharray:none"
         d="m 8.2362075,168.51925 q -0.2434167,-0.27517 -0.3598333,-0.70909 -0.1058334,-0.43391 -0.1058334,-1.143 0,-0.70908 0.2434167,-1.35466 0.2434167,-0.64559 0.6879166,-1.11125 0.9101667,-0.97367 2.4129999,-0.97367 0.53975,0 0.931333,0.17992 l 1.80975,-0.17992 -0.783166,4.1275 q -0.03175,0.127 -0.03175,0.35983 0,0.23284 0.137583,0.381 0.148167,0.14817 0.359833,0.16934 -0.105833,0.35983 -0.497416,0.5715 -0.381,0.21166 -0.814917,0.21166 -0.433917,0 -0.73025,-0.16933 -0.28575,-0.15875 -0.370417,-0.43392 -0.169333,0.26459 -0.529166,0.43392 -0.359834,0.16933 -0.8466669,0.16933 -0.47625,0 -0.8678333,-0.127 -0.3915833,-0.127 -0.6455833,-0.40216 z m 2.2330835,-4.29684 q -0.116417,0.1905 -0.22225,0.51859 -0.105834,0.3175 -0.2857502,1.18533 -0.1693334,0.85725 -0.1693334,1.47108 0,0.61384 0.09525,0.79375 0.09525,0.17992 0.2645836,0.17992 0.338666,0 0.582083,-0.3175 0.254,-0.32808 0.34925,-0.89958 l 0.560917,-3.10092 q -0.22225,-0.1905 -0.486834,-0.1905 -0.254,0 -0.41275,0.0847 -0.148166,0.0847 -0.275166,0.27516 z" />
      <path
         id="path963"
         style="font-style:normal;font-variant:normal;font-weight:normal;font-stretch:normal;font-family:'Sansita One';-inkscape-font-specification:'Sansita One';text-align:center;text-anchor:middle;fill:#373e48;stroke:#373e48;stroke-width:1.23562431;stroke-miterlimit:4;stroke-dasharray:none"
         d="m 17.601465,165.122 q 0.148166,-0.39159 0.148166,-0.73025 0,-0.62442 -0.508,-0.62442 -0.264583,0 -0.486833,0.24342 -0.211667,0.23283 -0.211667,0.52916 0,0.21167 0.169334,0.381 0.243416,0.23284 0.867833,0.61384 0.624417,0.381 0.85725,0.6985 0.243417,0.30691 0.243417,0.74083 0,0.42333 -0.211667,0.81492 -0.201083,0.39158 -0.5715,0.66675 -0.79375,0.59266 -2.06375,0.59266 -0.687917,0 -1.217083,-0.35983 -0.529167,-0.34925 -0.529167,-0.762 0,-0.41275 0.296333,-0.65617 0.306917,-0.24341 0.751417,-0.24341 0.4445,0 0.719667,0.16933 -0.137584,0.34925 -0.137584,0.58208 0,0.6985 0.592667,0.6985 0.254,0 0.423333,-0.15875 0.169334,-0.15875 0.169334,-0.43391 0,-0.53975 -0.910167,-1.11125 -0.740833,-0.48684 -0.910167,-0.67734 -0.28575,-0.33866 -0.28575,-0.762 0,-0.42333 0.201084,-0.8255 0.201083,-0.40216 0.5715,-0.68791 0.772583,-0.59267 2.116666,-0.59267 0.687917,0 1.090084,0.27517 0.41275,0.27516 0.41275,0.74083 0,0.46567 -0.28575,0.73025 -0.275167,0.26458 -0.783167,0.26458 -0.34925,0 -0.518583,-0.11641 z" />
      <path
         id="path965"
         style="font-style:normal;font-variant:normal;font-weight:normal;font-stretch:normal;font-family:'Sansita One';-inkscape-font-specification:'Sansita One';text-align:center;text-anchor:middle;fill:#373e48;stroke:#373e48;stroke-width:1.23562431;stroke-miterlimit:4;stroke-dasharray:none"
         d="m 23.870269,167.04816 q 0.264583,0.17992 0.264583,0.58209 0,0.39158 -0.201083,0.64558 -0.201084,0.254 -0.529167,0.42333 -0.677333,0.34925 -1.407583,0.34925 -0.73025,0 -1.164167,-0.15875 -0.423333,-0.15875 -0.709083,-0.45508 -0.560917,-0.56092 -0.560917,-1.5875 0,-1.59808 0.867833,-2.57175 0.931334,-1.04775 2.550584,-1.04775 1.005416,0 1.502833,0.42333 0.370417,0.3175 0.370417,0.83609 0,1.86266 -3.217334,1.86266 -0.04233,0.27517 -0.04233,0.508 0,0.48684 0.211667,0.67734 0.22225,0.17991 0.624416,0.17991 0.402167,0 0.8255,-0.17991 0.433917,-0.1905 0.613834,-0.48684 z m -2.159,-1.15358 q 0.751416,0 1.185333,-0.46567 0.433917,-0.4445 0.433917,-1.15358 0,-0.24342 -0.09525,-0.37042 -0.08467,-0.13758 -0.264584,-0.13758 -0.179916,0 -0.338666,0.0741 -0.148167,0.0635 -0.306917,0.29634 -0.391583,0.52916 -0.613833,1.75683 z" />
      <path
         id="path967"
         style="font-style:normal;font-variant:normal;font-weight:normal;font-stretch:normal;font-family:'Sansita One';-inkscape-font-specification:'Sansita One';text-align:center;text-anchor:middle;fill:#373e48;stroke:#373e48;stroke-width:1.23562431;stroke-miterlimit:4;stroke-dasharray:none"
         d="m 28.540167,163.22758 q 0.381,0 0.677333,0.0847 0.01058,-0.0423 0.03175,-0.15875 l 0.05292,-0.32809 Q 29.3445,162.61375 29.408,162.2645 l 0.169334,-0.83609 2.106083,-0.21166 -1.17475,6.13833 q -0.01058,0.0635 -0.01058,0.16933 v 0.16934 q 0,0.23283 0.116416,0.41275 0.116417,0.16933 0.306917,0.16933 -0.211667,0.49742 -0.85725,0.70908 -0.22225,0.0635 -0.53975,0.0635 -0.306917,0 -0.592667,-0.16933 -0.28575,-0.15875 -0.370416,-0.43392 -0.169334,0.27517 -0.508,0.43392 -0.338667,0.16933 -0.836084,0.16933 -0.486833,0 -0.899583,-0.127 -0.402167,-0.127 -0.656167,-0.40216 -0.465666,-0.53975 -0.465666,-1.76742 0,-1.5875 0.931333,-2.55058 0.931333,-0.97367 2.413,-0.97367 z m -0.07408,0.635 q -0.391584,0 -0.60325,0.42333 -0.211667,0.42334 -0.433917,1.47109 -0.211667,1.04775 -0.211667,1.98966 0,0.64559 0.381,0.64559 0.338667,0 0.5715,-0.33867 0.243417,-0.33867 0.338667,-0.89958 l 0.5715,-3.10092 q -0.22225,-0.1905 -0.613833,-0.1905 z" />
      <path
         id="path969"
         style="font-style:normal;font-variant:normal;font-weight:normal;font-stretch:normal;font-family:'Sansita One';-inkscape-font-specification:'Sansita One';text-align:center;text-anchor:middle;fill:#373e48;stroke:#373e48;stroke-width:1.23562431;stroke-miterlimit:4;stroke-dasharray:none"
         d="m 31.535249,168.21233 q 0,-0.40217 0.296334,-0.61383 0.306916,-0.22225 0.751416,-0.22225 0.4445,0 0.719667,0.22225 0.28575,0.21166 0.28575,0.61383 0,0.40217 -0.3175,0.62442 -0.306917,0.22225 -0.751417,0.22225 -0.4445,0 -0.719666,-0.22225 -0.264584,-0.22225 -0.264584,-0.62442 z m 0.5715,-1.98967 q 0,-0.0741 0.02117,-0.17991 l 0.8255,-4.2545 q 0.391583,-0.14817 0.85725,-0.14817 0.465666,0 0.709083,0.29633 0.243417,0.29634 0.243417,0.74084 0,0.43391 -0.169334,0.93133 -0.169333,0.48683 -0.381,0.98425 -0.201083,0.49742 -0.381,1.016 -0.169333,0.508 -0.179916,1.04775 -0.243417,0.27517 -0.66675,0.27517 -0.423333,0 -0.656167,-0.1905 -0.22225,-0.20109 -0.22225,-0.51859 z" />
    </g>
    <g
       id="text907"
       style="font-style:normal;font-variant:normal;font-weight:normal;font-stretch:normal;font-size:10.58333302px;line-height:1.25;font-family:'Sansita One';-inkscape-font-specification:'Sansita One';text-align:center;letter-spacing:0px;word-spacing:0px;text-anchor:middle;fill:#ffffff;fill-opacity:1;stroke:none;stroke-width:0.26458332"
       aria-label="GParted  1.0Released!">
      <path
         id="path972"
         style="font-style:normal;font-variant:normal;font-weight:normal;font-stretch:normal;font-family:'Sansita One';-inkscape-font-specification:'Sansita One';text-align:center;text-anchor:middle;fill:#ffffff;stroke-width:0.26458332"
         d="m -13.586378,152.00924 q -0.762,1.67217 -0.762,3.60892 -0.28575,0.20108 -0.709083,0.20108 -0.41275,0 -0.677333,-0.20108 -0.264584,-0.1905 -0.3175,-0.39159 -0.264584,0.27517 -0.6985,0.43392 -0.423334,0.15875 -0.878417,0.15875 -0.455083,0 -0.85725,-0.14817 -0.391583,-0.14816 -0.6985,-0.47625 -0.677333,-0.71966 -0.677333,-2.08491 0,-2.11667 1.132416,-3.38667 1.164167,-1.31233 3.227917,-1.31233 1.42875,0 1.93675,0.74083 0.15875,0.23283 0.15875,0.51858 0,0.27517 -0.127,0.51859 -0.116417,0.23283 -0.306917,0.42333 -0.455083,0.42333 -1.016,0.42333 -0.22225,0 -0.433916,-0.0741 0.04233,-0.3175 0.04233,-0.68792 0,-0.37041 -0.03175,-0.53975 -0.02117,-0.16933 -0.08467,-0.30691 -0.137583,-0.28575 -0.4445,-0.28575 -0.296333,0 -0.635,0.32808 -0.328083,0.3175 -0.592666,0.84667 -0.582084,1.18533 -0.582084,2.61408 0,0.65617 0.254,1.12183 0.275167,0.508 0.762,0.508 0.169334,0 0.3175,-0.0847 0.15875,-0.0847 0.22225,-0.14817 l 0.338667,-2.12725 z" />
      <path
         id="path974"
         style="font-style:normal;font-variant:normal;font-weight:normal;font-stretch:normal;font-family:'Sansita One';-inkscape-font-specification:'Sansita One';text-align:center;text-anchor:middle;fill:#ffffff;stroke-width:0.26458332"
         d="m -8.9270652,148.54849 q 2.5929166,0 2.5929166,1.83092 0,1.00541 -0.6455833,1.60866 -0.635,0.60325 -1.74625,0.60325 -0.5185833,0 -0.92075,-0.29633 -0.1905,-0.127 -0.3175,-0.29633 0.7725834,0 1.17475,-0.46567 0.41275,-0.47625 0.41275,-1.397 0,-0.92075 -0.9101666,-0.92075 h -0.254 q -0.0635,0 -0.1164167,0.0106 l -1.2170828,6.38175 h -2.296584 l 1.30175,-6.93208 q 1.132417,-0.10583 1.788583,-0.11642 0.6561671,-0.0106 1.1535838,-0.0106 z" />
      <path
         id="path976"
         style="font-style:normal;font-variant:normal;font-weight:normal;font-stretch:normal;font-family:'Sansita One';-inkscape-font-specification:'Sansita One';text-align:center;text-anchor:middle;fill:#ffffff;stroke-width:0.26458332"
         d="m -5.8301178,155.29007 q -0.2434167,-0.27516 -0.3598334,-0.70908 -0.1058333,-0.43392 -0.1058333,-1.143 0,-0.70908 0.2434167,-1.35467 0.2434166,-0.64558 0.6879166,-1.11125 0.9101667,-0.97366 2.4129999,-0.97366 0.53975,0 0.9313334,0.17991 l 1.8097499,-0.17991 -0.78316664,4.1275 q -0.03175,0.127 -0.03175,0.35983 0,0.23283 0.13758329,0.381 0.14816666,0.14817 0.35983332,0.16933 -0.10583333,0.35984 -0.49741661,0.5715 -0.381,0.21167 -0.8149167,0.21167 -0.4339166,0 -0.73025,-0.16933 -0.28575,-0.15875 -0.3704166,-0.43392 -0.1693333,0.26458 -0.5291667,0.43392 -0.3598333,0.16933 -0.8466666,0.16933 -0.47625,0 -0.8678333,-0.127 -0.3915833,-0.127 -0.6455833,-0.40217 z m 2.2330832,-4.29683 q -0.1164166,0.1905 -0.22225,0.51858 -0.1058333,0.3175 -0.28575,1.18534 -0.1693333,0.85725 -0.1693333,1.47108 0,0.61383 0.09525,0.79375 0.09525,0.17992 0.2645833,0.17992 0.3386667,0 0.5820834,-0.3175 0.254,-0.32809 0.3492499,-0.89959 l 0.5609167,-3.10091 q -0.22225,-0.1905 -0.4868333,-0.1905 -0.254,0 -0.41275,0.0847 -0.1481667,0.0847 -0.2751667,0.27517 z" />
      <path
         id="path978"
         style="font-style:normal;font-variant:normal;font-weight:normal;font-stretch:normal;font-family:'Sansita One';-inkscape-font-specification:'Sansita One';text-align:center;text-anchor:middle;fill:#ffffff;stroke-width:0.26458332"
         d="m 3.6833059,152.63366 q 0.381,-0.67734 0.381,-1.36525 0,-0.45509 -0.3280833,-0.45509 -0.254,0 -0.5185833,0.43392 -0.2751667,0.43392 -0.3598333,0.99483 l -0.5503334,3.3655 -2.1907499,0.21167 1.0795,-5.60917 1.7462499,-0.21166 -0.1905,1.06891 q 0.5185833,-1.06891 1.68275,-1.06891 0.6138333,0 0.9419166,0.3175 0.3386667,0.3175 0.3386667,0.97366 0,0.64559 -0.4339167,1.05834 -0.4233333,0.41275 -1.1535833,0.41275 -0.3175,0 -0.4445,-0.127 z" />
      <path
         id="path980"
         style="font-style:normal;font-variant:normal;font-weight:normal;font-stretch:normal;font-family:'Sansita One';-inkscape-font-specification:'Sansita One';text-align:center;text-anchor:middle;fill:#ffffff;stroke-width:0.26458332"
         d="m 6.059099,154.54924 q 0,-0.28575 0.1481667,-1.00542 l 0.5609166,-2.8575 H 6.1437657 l 0.042333,-0.3175 q 1.2699999,-0.381 2.4976666,-1.31233 h 0.508 l -0.254,1.15358 h 0.8254999 l -0.09525,0.47625 H 8.8530989 l -0.53975,2.8575 q -0.1375833,0.65617 -0.1375833,0.87842 0,0.508 0.4445,0.61383 -0.1058334,0.35984 -0.4868333,0.5715 -0.381,0.21167 -0.92075,0.21167 -0.53975,0 -0.8466667,-0.33867 -0.3069166,-0.33866 -0.3069166,-0.93133 z" />
      <path
         id="path982"
         style="font-style:normal;font-variant:normal;font-weight:normal;font-stretch:normal;font-family:'Sansita One';-inkscape-font-specification:'Sansita One';text-align:center;text-anchor:middle;fill:#ffffff;stroke-width:0.26458332"
         d="m 13.95873,153.81899 q 0.264584,0.17992 0.264584,0.58208 0,0.39159 -0.201084,0.64559 -0.201083,0.254 -0.529166,0.42333 -0.677334,0.34925 -1.407584,0.34925 -0.73025,0 -1.164166,-0.15875 -0.423334,-0.15875 -0.709084,-0.45508 -0.5609162,-0.56092 -0.5609162,-1.5875 0,-1.59809 0.8678332,-2.57175 0.931333,-1.04775 2.550583,-1.04775 1.005417,0 1.502834,0.42333 0.370416,0.3175 0.370416,0.83608 0,1.86267 -3.217333,1.86267 -0.04233,0.27517 -0.04233,0.508 0,0.48683 0.211666,0.67733 0.22225,0.17992 0.624417,0.17992 0.402167,0 0.8255,-0.17992 0.433917,-0.1905 0.613833,-0.48683 z m -2.159,-1.15358 q 0.751417,0 1.185334,-0.46567 0.433916,-0.4445 0.433916,-1.15358 0,-0.24342 -0.09525,-0.37042 -0.08467,-0.13758 -0.264583,-0.13758 -0.179917,0 -0.338667,0.0741 -0.148166,0.0635 -0.306916,0.29633 -0.391584,0.52917 -0.613834,1.75684 z" />
      <path
         id="path984"
         style="font-style:normal;font-variant:normal;font-weight:normal;font-stretch:normal;font-family:'Sansita One';-inkscape-font-specification:'Sansita One';text-align:center;text-anchor:middle;fill:#ffffff;stroke-width:0.26458332"
         d="m 18.628625,149.99841 q 0.381,0 0.677333,0.0847 0.01058,-0.0423 0.03175,-0.15875 l 0.05292,-0.32808 q 0.04233,-0.21167 0.105833,-0.56092 l 0.169334,-0.83608 2.106083,-0.21167 -1.17475,6.13834 q -0.01058,0.0635 -0.01058,0.16933 v 0.16933 q 0,0.23284 0.116416,0.41275 0.116417,0.16934 0.306917,0.16934 -0.211667,0.49741 -0.85725,0.70908 -0.22225,0.0635 -0.53975,0.0635 -0.306917,0 -0.592667,-0.16933 -0.28575,-0.15875 -0.370416,-0.43392 -0.169334,0.27517 -0.508,0.43392 -0.338667,0.16933 -0.836084,0.16933 -0.486833,0 -0.899583,-0.127 -0.402167,-0.127 -0.656167,-0.40217 -0.465666,-0.53975 -0.465666,-1.76741 0,-1.5875 0.931333,-2.55059 0.931333,-0.97366 2.413,-0.97366 z m -0.07408,0.635 q -0.391584,0 -0.60325,0.42333 -0.211667,0.42333 -0.433917,1.47108 -0.211667,1.04775 -0.211667,1.98967 0,0.64558 0.381,0.64558 0.338667,0 0.5715,-0.33866 0.243417,-0.33867 0.338667,-0.89959 l 0.5715,-3.10091 q -0.22225,-0.1905 -0.613833,-0.1905 z" />
      <path
         id="path986"
         style="font-style:normal;font-variant:normal;font-weight:normal;font-stretch:normal;font-family:'Sansita One';-inkscape-font-specification:'Sansita One';text-align:center;text-anchor:middle;fill:#ffffff;stroke-width:0.26458332"
         d="m 27.530865,155.72399 q -0.328084,-0.0106 -0.677334,-0.0106 -0.338666,0 -0.677333,0.0423 -0.04233,-0.16933 -0.04233,-0.37042 0,-0.42333 0.232833,-0.67733 0.243417,-0.254 0.613833,-0.254 h 0.5715 l 0.889,-4.0005 q -0.328083,0.32808 -1.005416,0.32808 -0.338667,0 -0.60325,-0.3175 -0.264584,-0.29633 -0.306917,-0.71966 1.566333,-0.27517 3.90525,-1.32292 l 0.338666,0.40217 -1.026583,5.63033 h 0.264583 q 0.635,0 0.963084,-0.11642 0.137583,0.23284 0.137583,0.61384 0,0.381 -0.28575,0.61383 -0.275167,0.22225 -0.740833,0.22225 -0.941917,0 -1.87325,-0.0423 z" />
      <path
         id="path988"
         style="font-style:normal;font-variant:normal;font-weight:normal;font-stretch:normal;font-family:'Sansita One';-inkscape-font-specification:'Sansita One';text-align:center;text-anchor:middle;fill:#ffffff;stroke-width:0.26458332"
         d="m 31.451824,154.98316 q 0,-0.40217 0.306917,-0.62442 0.3175,-0.22225 0.762,-0.22225 0.4445,0 0.709083,0.22225 0.275167,0.22225 0.275167,0.62442 0,0.40216 -0.306917,0.62441 -0.296333,0.21167 -0.740833,0.21167 -0.4445,0 -0.73025,-0.21167 -0.275167,-0.22225 -0.275167,-0.62441 z" />
      <path
         id="path990"
         style="font-style:normal;font-variant:normal;font-weight:normal;font-stretch:normal;font-family:'Sansita One';-inkscape-font-specification:'Sansita One';text-align:center;text-anchor:middle;fill:#ffffff;stroke-width:0.26458332"
         d="m 34.563818,153.08874 q 0,-2.13783 1.005416,-3.40783 1.005417,-1.27 2.7305,-1.27 0.92075,0 1.449917,0.68791 0.529167,0.68792 0.529167,1.8415 0,1.143 -0.264584,2.04259 -0.254,0.889 -0.719666,1.524 -0.973667,1.32291 -2.592917,1.32291 -1.090083,0 -1.61925,-0.66675 -0.518583,-0.67733 -0.518583,-2.07433 z m 1.87325,0.71967 q 0,1.06891 0.34925,1.06891 0.3175,0 0.60325,-0.37041 0.296333,-0.37042 0.529166,-0.99484 0.497417,-1.36525 0.497417,-3.05858 0,-0.5715 -0.09525,-0.8255 -0.08467,-0.26458 -0.328083,-0.26458 -0.232834,0 -0.518584,0.41275 -0.275166,0.41275 -0.508,1.05833 -0.529166,1.47108 -0.529166,2.97392 z" />
      <path
         id="path992"
         style="font-style:normal;font-variant:normal;font-weight:normal;font-stretch:normal;font-family:'Sansita One';-inkscape-font-specification:'Sansita One';text-align:center;text-anchor:middle;fill:#ffffff;stroke-width:0.26458332"
         d="m -14.204263,168.83675 1.291167,-6.95325 q 1.04775,-0.11642 2.57175,-0.11642 1.5345833,0 2.2436666,0.4445 0.7090833,0.4445 0.7090833,1.34408 0,0.889 -0.4656666,1.44992 -0.4550833,0.56092 -1.2488333,0.74083 0.1799166,0.87842 0.5926666,1.5875 0.381,0.66675 0.8255,0.87842 -0.15875,0.4445 -0.4868333,0.635 -0.3175,0.20108 -0.7831667,0.20108 -0.4550833,0 -0.8149166,-0.26458 -0.359833,-0.27517 -0.645583,-0.77258 -0.60325,-1.0795 -0.66675,-2.78342 h 0.07408 q 0.783167,-0.0212 1.17475,-0.42333 0.3915833,-0.41275 0.3915833,-1.27 0,-1.06892 -0.8995833,-1.11125 h -0.232833 q -0.09525,0 -0.148167,0.0106 l -1.217083,6.40292 z" />
      <path
         id="path994"
         style="font-style:normal;font-variant:normal;font-weight:normal;font-stretch:normal;font-family:'Sansita One';-inkscape-font-specification:'Sansita One';text-align:center;text-anchor:middle;fill:#ffffff;stroke-width:0.26458332"
         d="m -2.6087329,167.04816 q 0.2645833,0.17992 0.2645833,0.58209 0,0.39158 -0.2010833,0.64558 -0.2010833,0.254 -0.5291666,0.42333 -0.6773333,0.34925 -1.4075833,0.34925 -0.73025,0 -1.1641667,-0.15875 -0.4233333,-0.15875 -0.7090833,-0.45508 -0.5609166,-0.56092 -0.5609166,-1.5875 0,-1.59808 0.8678333,-2.57175 0.9313333,-1.04775 2.5505832,-1.04775 1.0054167,0 1.5028333,0.42333 0.3704167,0.3175 0.3704167,0.83609 0,1.86266 -3.2173332,1.86266 -0.042333,0.27517 -0.042333,0.508 0,0.48684 0.2116667,0.67734 0.22225,0.17991 0.6244166,0.17991 0.4021667,0 0.8255,-0.17991 0.4339167,-0.1905 0.6138333,-0.48684 z m -2.1589999,-1.15358 q 0.7514166,0 1.1853333,-0.46567 0.4339166,-0.4445 0.4339166,-1.15358 0,-0.24342 -0.09525,-0.37042 -0.084667,-0.13758 -0.2645833,-0.13758 -0.1799166,0 -0.3386666,0.0741 -0.1481667,0.0635 -0.3069167,0.29634 -0.3915833,0.52916 -0.6138333,1.75683 z" />
      <path
         id="path996"
         style="font-style:normal;font-variant:normal;font-weight:normal;font-stretch:normal;font-family:'Sansita One';-inkscape-font-specification:'Sansita One';text-align:center;text-anchor:middle;fill:#ffffff;stroke-width:0.26458332"
         d="m 1.2568298,168.25466 q -0.32808329,0.79375 -1.37583326,0.79375 -0.52916665,0 -0.86783331,-0.37041 -0.27516663,-0.30692 -0.27516663,-0.65617 0,-0.79375 0.37041663,-2.52942 l 0.77258331,-4.064 2.14841656,-0.21166 -1.0265833,5.35516 q -0.17991662,0.78317 -0.17991662,1.05834 0,0.60325 0.43391662,0.62441 z" />
      <path
         id="path998"
         style="font-style:normal;font-variant:normal;font-weight:normal;font-stretch:normal;font-family:'Sansita One';-inkscape-font-specification:'Sansita One';text-align:center;text-anchor:middle;fill:#ffffff;stroke-width:0.26458332"
         d="m 6.4449776,167.04816 q 0.2645833,0.17992 0.2645833,0.58209 0,0.39158 -0.2010833,0.64558 -0.2010834,0.254 -0.5291667,0.42333 -0.6773333,0.34925 -1.4075833,0.34925 -0.7302499,0 -1.1641666,-0.15875 -0.4233333,-0.15875 -0.7090833,-0.45508 -0.5609167,-0.56092 -0.5609167,-1.5875 0,-1.59808 0.8678333,-2.57175 0.9313334,-1.04775 2.5505833,-1.04775 1.0054166,0 1.5028333,0.42333 0.3704166,0.3175 0.3704166,0.83609 0,1.86266 -3.2173332,1.86266 -0.042333,0.27517 -0.042333,0.508 0,0.48684 0.2116666,0.67734 0.22225,0.17991 0.6244167,0.17991 0.4021666,0 0.8255,-0.17991 0.4339166,-0.1905 0.6138333,-0.48684 z m -2.159,-1.15358 q 0.7514167,0 1.1853333,-0.46567 0.4339167,-0.4445 0.4339167,-1.15358 0,-0.24342 -0.09525,-0.37042 -0.084667,-0.13758 -0.2645833,-0.13758 -0.1799167,0 -0.3386667,0.0741 -0.1481666,0.0635 -0.3069166,0.29634 -0.3915834,0.52916 -0.6138334,1.75683 z" />
      <path
         id="path1000"
         style="font-style:normal;font-variant:normal;font-weight:normal;font-stretch:normal;font-family:'Sansita One';-inkscape-font-specification:'Sansita One';text-align:center;text-anchor:middle;fill:#ffffff;stroke-width:0.26458332"
         d="m 8.2362075,168.51925 q -0.2434167,-0.27517 -0.3598333,-0.70909 -0.1058334,-0.43391 -0.1058334,-1.143 0,-0.70908 0.2434167,-1.35466 0.2434167,-0.64559 0.6879166,-1.11125 0.9101667,-0.97367 2.4129999,-0.97367 0.53975,0 0.931333,0.17992 l 1.80975,-0.17992 -0.783166,4.1275 q -0.03175,0.127 -0.03175,0.35983 0,0.23284 0.137583,0.381 0.148167,0.14817 0.359833,0.16934 -0.105833,0.35983 -0.497416,0.5715 -0.381,0.21166 -0.814917,0.21166 -0.433917,0 -0.73025,-0.16933 -0.28575,-0.15875 -0.370417,-0.43392 -0.169333,0.26459 -0.529166,0.43392 -0.359834,0.16933 -0.8466669,0.16933 -0.47625,0 -0.8678333,-0.127 -0.3915833,-0.127 -0.6455833,-0.40216 z m 2.2330835,-4.29684 q -0.116417,0.1905 -0.22225,0.51859 -0.105834,0.3175 -0.2857502,1.18533 -0.1693334,0.85725 -0.1693334,1.47108 0,0.61384 0.09525,0.79375 0.09525,0.17992 0.2645836,0.17992 0.338666,0 0.582083,-0.3175 0.254,-0.32808 0.34925,-0.89958 l 0.560917,-3.10092 q -0.22225,-0.1905 -0.486834,-0.1905 -0.254,0 -0.41275,0.0847 -0.148166,0.0847 -0.275166,0.27516 z" />
      <path
         id="path1002"
         style="font-style:normal;font-variant:normal;font-weight:normal;font-stretch:normal;font-family:'Sansita One';-inkscape-font-specification:'Sansita One';text-align:center;text-anchor:middle;fill:#ffffff;stroke-width:0.26458332"
         d="m 17.601465,165.122 q 0.148166,-0.39159 0.148166,-0.73025 0,-0.62442 -0.508,-0.62442 -0.264583,0 -0.486833,0.24342 -0.211667,0.23283 -0.211667,0.52916 0,0.21167 0.169334,0.381 0.243416,0.23284 0.867833,0.61384 0.624417,0.381 0.85725,0.6985 0.243417,0.30691 0.243417,0.74083 0,0.42333 -0.211667,0.81492 -0.201083,0.39158 -0.5715,0.66675 -0.79375,0.59266 -2.06375,0.59266 -0.687917,0 -1.217083,-0.35983 -0.529167,-0.34925 -0.529167,-0.762 0,-0.41275 0.296333,-0.65617 0.306917,-0.24341 0.751417,-0.24341 0.4445,0 0.719667,0.16933 -0.137584,0.34925 -0.137584,0.58208 0,0.6985 0.592667,0.6985 0.254,0 0.423333,-0.15875 0.169334,-0.15875 0.169334,-0.43391 0,-0.53975 -0.910167,-1.11125 -0.740833,-0.48684 -0.910167,-0.67734 -0.28575,-0.33866 -0.28575,-0.762 0,-0.42333 0.201084,-0.8255 0.201083,-0.40216 0.5715,-0.68791 0.772583,-0.59267 2.116666,-0.59267 0.687917,0 1.090084,0.27517 0.41275,0.27516 0.41275,0.74083 0,0.46567 -0.28575,0.73025 -0.275167,0.26458 -0.783167,0.26458 -0.34925,0 -0.518583,-0.11641 z" />
      <path
         id="path1004"
         style="font-style:normal;font-variant:normal;font-weight:normal;font-stretch:normal;font-family:'Sansita One';-inkscape-font-specification:'Sansita One';text-align:center;text-anchor:middle;fill:#ffffff;stroke-width:0.26458332"
         d="m 23.870269,167.04816 q 0.264583,0.17992 0.264583,0.58209 0,0.39158 -0.201083,0.64558 -0.201084,0.254 -0.529167,0.42333 -0.677333,0.34925 -1.407583,0.34925 -0.73025,0 -1.164167,-0.15875 -0.423333,-0.15875 -0.709083,-0.45508 -0.560917,-0.56092 -0.560917,-1.5875 0,-1.59808 0.867833,-2.57175 0.931334,-1.04775 2.550584,-1.04775 1.005416,0 1.502833,0.42333 0.370417,0.3175 0.370417,0.83609 0,1.86266 -3.217334,1.86266 -0.04233,0.27517 -0.04233,0.508 0,0.48684 0.211667,0.67734 0.22225,0.17991 0.624416,0.17991 0.402167,0 0.8255,-0.17991 0.433917,-0.1905 0.613834,-0.48684 z m -2.159,-1.15358 q 0.751416,0 1.185333,-0.46567 0.433917,-0.4445 0.433917,-1.15358 0,-0.24342 -0.09525,-0.37042 -0.08467,-0.13758 -0.264584,-0.13758 -0.179916,0 -0.338666,0.0741 -0.148167,0.0635 -0.306917,0.29634 -0.391583,0.52916 -0.613833,1.75683 z" />
      <path
         id="path1006"
         style="font-style:normal;font-variant:normal;font-weight:normal;font-stretch:normal;font-family:'Sansita One';-inkscape-font-specification:'Sansita One';text-align:center;text-anchor:middle;fill:#ffffff;stroke-width:0.26458332"
         d="m 28.540167,163.22758 q 0.381,0 0.677333,0.0847 0.01058,-0.0423 0.03175,-0.15875 l 0.05292,-0.32809 Q 29.3445,162.61375 29.408,162.2645 l 0.169334,-0.83609 2.106083,-0.21166 -1.17475,6.13833 q -0.01058,0.0635 -0.01058,0.16933 v 0.16934 q 0,0.23283 0.116416,0.41275 0.116417,0.16933 0.306917,0.16933 -0.211667,0.49742 -0.85725,0.70908 -0.22225,0.0635 -0.53975,0.0635 -0.306917,0 -0.592667,-0.16933 -0.28575,-0.15875 -0.370416,-0.43392 -0.169334,0.27517 -0.508,0.43392 -0.338667,0.16933 -0.836084,0.16933 -0.486833,0 -0.899583,-0.127 -0.402167,-0.127 -0.656167,-0.40216 -0.465666,-0.53975 -0.465666,-1.76742 0,-1.5875 0.931333,-2.55058 0.931333,-0.97367 2.413,-0.97367 z m -0.07408,0.635 q -0.391584,0 -0.60325,0.42333 -0.211667,0.42334 -0.433917,1.47109 -0.211667,1.04775 -0.211667,1.98966 0,0.64559 0.381,0.64559 0.338667,0 0.5715,-0.33867 0.243417,-0.33867 0.338667,-0.89958 l 0.5715,-3.10092 q -0.22225,-0.1905 -0.613833,-0.1905 z" />
      <path
         id="path1008"
         style="font-style:normal;font-variant:normal;font-weight:normal;font-stretch:normal;font-family:'Sansita One';-inkscape-font-specification:'Sansita One';text-align:center;text-anchor:middle;fill:#ffffff;stroke-width:0.26458332"
         d="m 31.535249,168.21233 q 0,-0.40217 0.296334,-0.61383 0.306916,-0.22225 0.751416,-0.22225 0.4445,0 0.719667,0.22225 0.28575,0.21166 0.28575,0.61383 0,0.40217 -0.3175,0.62442 -0.306917,0.22225 -0.751417,0.22225 -0.4445,0 -0.719666,-0.22225 -0.264584,-0.22225 -0.264584,-0.62442 z m 0.5715,-1.98967 q 0,-0.0741 0.02117,-0.17991 l 0.8255,-4.2545 q 0.391583,-0.14817 0.85725,-0.14817 0.465666,0 0.709083,0.29633 0.243417,0.29634 0.243417,0.74084 0,0.43391 -0.169334,0.93133 -0.169333,0.48683 -0.381,0.98425 -0.201083,0.49742 -0.381,1.016 -0.169333,0.508 -0.179916,1.04775 -0.243417,0.27517 -0.66675,0.27517 -0.423333,0 -0.656167,-0.1905 -0.22225,-0.20109 -0.22225,-0.51859 z" />
    </g>
  </g>
</svg>
