<?xml version="1.0" encoding="UTF-8" standalone="no"?>
<svg
   xmlns:dc="http://purl.org/dc/elements/1.1/"
   xmlns:cc="http://creativecommons.org/ns#"
   xmlns:rdf="http://www.w3.org/1999/02/22-rdf-syntax-ns#"
   xmlns:svg="http://www.w3.org/2000/svg"
   xmlns="http://www.w3.org/2000/svg"
   xmlns:xlink="http://www.w3.org/1999/xlink"
   width="444.5mm"
   height="277.8125mm"
   viewBox="0 0 444.5 277.8125"
   version="1.1"
   id="svg3357">
  <defs
     id="defs3351">
    <linearGradient
       id="linearGradient879">
      <stop
         style="stop-color:#db4437;stop-opacity:1;"
         offset="0"
         id="stop875" />
      <stop
         id="stop883"
         offset="0"
         style="stop-color:#db685f;stop-opacity:1" />
      <stop
         style="stop-color:#e47167;stop-opacity:1"
         offset="1"
         id="stop877" />
    </linearGradient>
    <linearGradient
       id="linearGradient6114">
      <stop
         style="stop-color:#6f7c91;stop-opacity:1;"
         offset="0"
         id="stop6110" />
      <stop
         style="stop-color:#162d50;stop-opacity:1"
         offset="1"
         id="stop6112" />
    </linearGradient>
    <radialGradient
       xlink:href="#linearGradient6114"
       id="radialGradient6126"
       cx="73.77433"
       cy="66.986313"
       fx="73.77433"
       fy="66.986313"
       r="31.67275"
       gradientTransform="matrix(3.0071285,0,0,1.83657,-125.12732,-58.151445)"
       gradientUnits="userSpaceOnUse" />
    <radialGradient
       xlink:href="#linearGradient879"
       id="radialGradient881"
       cx="254"
       cy="-23.8125"
       fx="254"
       fy="-23.8125"
       r="254"
       gradientTransform="matrix(0.875,0,0,0.546875,0,151.92871)"
       gradientUnits="userSpaceOnUse" />
    <linearGradient
       xlink:href="#1200"
       id="linearGradient882"
       x1="444.12201"
       y1="139.37872"
       x2="444.5"
       y2="138.90625"
       gradientUnits="userSpaceOnUse"
       gradientTransform="translate(1e-5)" />
    <linearGradient
       id="1200">
      <stop
         style="stop-color:#e16459;stop-opacity:1"
         offset="0"
         id="stop872" />
      <stop
         style="stop-color:#db4437;stop-opacity:0;"
         offset="1"
         id="stop874" />
    </linearGradient>
    <linearGradient
       gradientUnits="userSpaceOnUse"
       y2="138.90625"
       x2="465.91299"
       y1="139.3998"
       x1="444.19131"
       id="linearGradient1019-7"
       xlink:href="#1200"
       gradientTransform="translate(-1.4e-4,4.6e-4)" />
  </defs>
  <metadata
     id="metadata3354">
    <rdf:RDF>
      <cc:Work
         rdf:about="">
        <dc:format>image/svg+xml</dc:format>
        <dc:type
           rdf:resource="http://purl.org/dc/dcmitype/StillImage" />
        <dc:title></dc:title>
      </cc:Work>
    </rdf:RDF>
  </metadata>
  <g
     id="flowRoot985"
     style="font-style:normal;font-weight:normal;font-size:40px;line-height:1.25;font-family:sans-serif;letter-spacing:0px;word-spacing:0px;fill:#000000;fill-opacity:1;stroke:none"
     transform="matrix(0.26458333,0,0,0.26458333,-512.19842,234.61978)" />
  <g
     id="flowRoot993"
     style="font-style:normal;font-weight:normal;font-size:40px;line-height:1.25;font-family:sans-serif;letter-spacing:0px;word-spacing:0px;fill:#000000;fill-opacity:1;stroke:none"
     transform="matrix(0.26458333,0,0,0.26458333,-512.19842,234.61978)" />
  <path
     style="opacity:1;fill:url(#linearGradient1019-7);fill-opacity:1;stroke:none;stroke-width:9.70262432;stroke-miterlimit:4;stroke-dasharray:none;paint-order:stroke markers fill"
     d="M 286.33187,0 H 0 V 277.8125 H 444.5 V 132.71902 Z"
     id="path1098" />
  <g
     aria-label="i386 or amd64?"
     transform="matrix(1.0296161,0,0,2.925641,-546.861,-1786.5031)"
     style="font-style:normal;font-weight:normal;font-size:40px;line-height:1.25;font-family:sans-serif;letter-spacing:0px;word-spacing:0px;fill:#ffffff;fill-opacity:1;stroke:none"
     id="flowRoot885">
    <path
       d="m 616.35988,668.73395 q -0.24,0 -0.44,-0.12 -0.2,-0.16 -0.2,-0.4 0,-0.6 0.72,-0.8 1.08,-0.24 1.48,-0.52 0.4,-0.32 0.4,-0.96 v -8.64 q 0,-1.32 -0.4,-1.92 -0.4,-0.6 -1.32,-0.72 -0.24,-0.04 -0.36,-0.24 -0.12,-0.2 -0.12,-0.48 0,-0.24 0.12,-0.44 0.16,-0.2 0.32,-0.24 1.8,-0.32 3.16,-0.88 1.4,-0.56 3.04,-1.36 0.56,-0.32 0.8,-0.32 0.24,0 0.36,0.16 0.16,0.12 0.16,0.32 l -0.16,1.48 q -0.36,3.04 -0.36,4.4 v 8.84 q 0,0.56 0.4,0.88 0.4,0.32 1.52,0.64 0.36,0.12 0.52,0.28 0.2,0.16 0.2,0.48 0,0.52 -0.6,0.52 -0.84,0 -2.44,-0.08 -1.6,-0.08 -2.28,-0.08 -0.68,0 -2.12,0.08 -1.2,0.12 -2.4,0.12 z m 4.4,-19.84 q -1.28,0 -2.2,-0.92 -0.92,-0.92 -0.92,-2.2 0,-1.36 0.92,-2.28 0.92,-0.92 2.2,-0.92 1.36,0 2.28,0.92 0.96,0.92 0.96,2.28 0,1.28 -0.96,2.2 -0.92,0.92 -2.28,0.92 z"
       style="font-style:normal;font-variant:normal;font-weight:bold;font-stretch:normal;font-family:'EB Garamond';-inkscape-font-specification:'EB Garamond Bold';text-align:center;text-anchor:middle;fill:#ffffff"
       id="path893" />
    <path
       d="m 633.55676,670.13395 q -1.44,0 -2.76,-0.6 -1.28,-0.6 -1.28,-1.36 0,-0.8 0.4,-1.6 0.44,-0.84 1,-0.84 0.56,0 1.12,0.64 0.8,0.92 1.48,1.48 0.72,0.56 1.56,0.56 1.96,0 3.28,-1.56 1.32,-1.56 1.32,-4.16 0,-2.52 -1.04,-4.08 -1.04,-1.56 -2.88,-1.56 -0.68,0 -1.2,0.2 -0.48,0.16 -0.88,0.36 -0.36,0.2 -0.52,0.28 -0.16,0.08 -0.28,0.08 -0.32,0 -0.56,-0.2 -0.2,-0.2 -0.16,-0.44 0.36,-1.36 1.68,-2.08 2.52,-1.32 3.64,-2.6 1.12,-1.28 1.12,-3.24 0,-1.32 -0.92,-2.24 -0.88,-0.92 -2.2,-0.92 -1.44,0 -2.36,0.72 -0.88,0.68 -1.8,1.84 -0.48,0.68 -0.68,0.68 -0.28,0 -0.56,-0.32 -0.28,-0.32 -0.28,-0.64 0,-0.68 0.88,-1.88 0.88,-1.24 2.68,-2.2 1.8,-1 4.48,-1 2.44,0 4.12,1.36 1.72,1.32 1.72,3.48 0,1 -0.6,2.2 -0.56,1.16 -1.8,2.16 -1.2,0.96 -3,1.4 -0.12,0.08 -0.12,0.16 0,0.08 0.16,0.08 3.16,0 5.16,1.72 2,1.68 2,4.52 0,2.84 -1.68,5.04 -1.68,2.16 -4.44,3.36 -2.72,1.2 -5.8,1.2 z"
       style="font-style:normal;font-variant:normal;font-weight:bold;font-stretch:normal;font-family:'EB Garamond';-inkscape-font-specification:'EB Garamond Bold';text-align:center;text-anchor:middle;fill:#ffffff"
       id="path895" />
    <path
       d="m 658.44863,669.13395 q -2.24,0 -4.12,-0.8 -1.88,-0.8 -3,-2.2 -1.08,-1.44 -1.08,-3.24 0,-1.8 1.2,-2.92 1.24,-1.12 3.48,-2.32 l 0.96,-0.52 q 0.28,-0.16 0.28,-0.28 0,-0.12 -0.44,-0.4 -2.24,-1.76 -3.48,-3.36 -1.2,-1.64 -1.2,-3.76 0,-1.72 1.2,-3.04 1.24,-1.36 3.2,-2.08 2,-0.76 4.16,-0.76 1.88,0 3.56,0.72 1.68,0.72 2.72,2 1.04,1.28 1.04,2.92 0,1.4 -0.72,2.44 -0.68,1 -1.68,1.52 l -1.76,0.96 q -0.64,0.4 -0.64,0.64 0,0.12 0.4,0.4 2.68,1.76 3.96,3.2 1.28,1.4 1.28,3.4 0,2.24 -1.28,3.96 -1.24,1.68 -3.36,2.6 -2.12,0.92 -4.68,0.92 z m 2.24,-15.72 q 1.16,-1.16 1.16,-4.48 0,-1.68 -0.68,-2.72 -0.68,-1.04 -2.08,-1.04 -1.2,0 -2.08,0.88 -0.84,0.84 -0.84,2.16 0,1.08 0.48,1.96 0.52,0.84 1.2,1.48 0.68,0.6 2.04,1.68 0.24,0.24 0.48,0.24 0.2,0 0.32,-0.16 z m -1.52,14 q 1.44,0 2.36,-1.04 0.92,-1.04 0.92,-2.52 0,-2.4 -4.16,-5.64 -0.04,-0.04 -0.28,-0.2 -0.2,-0.2 -0.36,-0.2 -0.08,0 -0.28,0.12 -0.16,0.12 -0.24,0.2 -0.84,0.8 -1.2,1.84 -0.32,1 -0.32,2.64 0,1.92 1,3.36 1,1.44 2.56,1.44 z"
       style="font-style:normal;font-variant:normal;font-weight:bold;font-stretch:normal;font-family:'EB Garamond';-inkscape-font-specification:'EB Garamond Bold';text-align:center;text-anchor:middle;fill:#ffffff"
       id="path897" />
    <path
       d="m 680.14051,669.17395 q -4.12,0 -6.32,-2.24 -2.16,-2.24 -2.16,-6.04 0,-3.8 1.36,-6.44 1.36,-2.64 3.16,-4.76 1.52,-1.76 4.24,-3.52 2.72,-1.8 5.88,-2.88 0.68,-0.24 1.24,-0.24 0.6,0 0.6,0.28 -0.04,0.4 -0.36,0.64 -0.32,0.24 -1.08,0.6 -2.12,1 -3.64,2.36 -1.48,1.32 -2.8,3.36 -1.2,1.96 -2.2,4.72 -0.96,2.72 -0.96,5.72 0,2.08 0.52,3.6 0.56,1.52 1.44,2.32 0.88,0.76 1.84,0.8 1.24,0 2.04,-1.24 0.84,-1.28 0.84,-3.6 0,-1.16 -0.44,-2.16 -0.4,-1.04 -1.08,-1.64 -0.68,-0.64 -1.36,-0.64 -0.96,0 -1.6,0.32 -0.28,0.16 -0.56,0.16 -0.4,0 -0.4,-0.4 0,-0.4 0.32,-0.72 0.28,-0.28 0.92,-0.84 0.76,-0.64 1.96,-1.2 1.24,-0.56 2.16,-0.56 1.48,0 2.76,0.76 1.32,0.76 2.12,2.08 0.8,1.32 0.8,2.84 0,2.12 -1.2,4.12 -1.16,1.96 -3.28,3.2 -2.12,1.24 -4.76,1.24 z"
       style="font-style:normal;font-variant:normal;font-weight:bold;font-stretch:normal;font-family:'EB Garamond';-inkscape-font-specification:'EB Garamond Bold';text-align:center;text-anchor:middle;fill:#ffffff"
       id="path899" />
    <path
       d="m 709.12551,669.17395 q -2.36,0 -4.32,-1.08 -1.96,-1.08 -3.08,-2.96 -1.12,-1.92 -1.12,-4.32 0,-2.52 1.24,-4.72 1.28,-2.2 3.4,-3.48 2.16,-1.32 4.76,-1.32 2.4,0 4.44,1.16 2.04,1.12 3.2,3.08 1.2,1.92 1.2,4.12 0,2.64 -1.12,4.8 -1.12,2.16 -3.32,3.44 -2.16,1.28 -5.28,1.28 z m 0.8,-1.76 q 1.64,0 2.48,-1.36 0.84,-1.4 0.84,-5.44 0,-3.28 -1.08,-5.4 -1.04,-2.16 -2.76,-2.16 -1.24,0 -2.08,0.84 -0.68,0.76 -0.96,2.2 -0.24,1.44 -0.24,3.72 0,1.92 0.48,3.68 0.52,1.76 1.36,2.84 0.88,1.08 1.96,1.08 z"
       style="font-style:normal;font-variant:normal;font-weight:bold;font-stretch:normal;font-family:'EB Garamond';-inkscape-font-specification:'EB Garamond Bold';text-align:center;text-anchor:middle;fill:#ffffff"
       id="path901" />
    <path
       d="m 721.48176,668.73395 q -0.36,0 -0.6,-0.12 -0.2,-0.16 -0.2,-0.44 0,-0.32 0.2,-0.48 0.24,-0.2 0.72,-0.32 0.88,-0.28 1.16,-0.6 0.32,-0.32 0.32,-0.92 v -9.2 q 0,-0.92 -0.28,-1.4 -0.24,-0.52 -0.92,-0.72 -0.52,-0.16 -0.52,-0.72 0,-0.56 0.48,-0.68 1.28,-0.28 2.8,-0.8 1.56,-0.56 2.64,-1.08 0.6,-0.44 0.92,-0.44 0.36,0 0.36,0.44 l -0.12,3.16 q 0,0.36 0.16,0.36 1.04,-1.44 2.4,-2.44 1.36,-1.04 2.68,-1.04 1.32,0 1.92,0.52 0.64,0.48 0.64,1.36 0,0.96 -0.76,2.04 -0.72,1.04 -1.56,1.04 -0.52,0 -1.56,-0.56 -0.16,-0.08 -0.68,-0.28 -0.48,-0.24 -0.8,-0.24 -2.56,0 -2.56,3.8 v 6.52 q 0,0.76 0.48,1.16 0.48,0.4 1.64,0.72 0.88,0.24 0.88,0.8 0,0.24 -0.2,0.4 -0.2,0.16 -0.48,0.16 -1.28,0 -2.56,-0.12 -1.6,-0.08 -2.24,-0.08 -0.68,0 -2.04,0.08 -1.08,0.12 -2.32,0.12 z"
       style="font-style:normal;font-variant:normal;font-weight:bold;font-stretch:normal;font-family:'EB Garamond';-inkscape-font-specification:'EB Garamond Bold';text-align:center;text-anchor:middle;fill:#ffffff"
       id="path903" />
    <path
       d="m 750.97738,669.17395 q -1.6,0 -2.8,-1.08 -1.2,-1.12 -1.2,-2.64 0,-1.36 0.8,-2.24 0.84,-0.92 2.6,-1.68 l 3.56,-1.56 q 0.8,-0.36 0.96,-0.64 0.2,-0.28 0.2,-1.04 l 0.04,-2.28 q 0.04,-1.16 -0.4,-1.8 -0.44,-0.64 -1.32,-0.64 -0.48,0 -1.04,0.24 -0.52,0.2 -0.8,0.48 -0.24,0.28 -0.24,0.84 0,0.28 0.04,0.6 0.04,0.28 0.04,0.56 0,0.4 -1.36,1 -1.32,0.6 -2.2,0.6 -0.32,0 -0.52,-0.24 -0.2,-0.24 -0.2,-0.6 0,-0.64 0.44,-1.24 0.44,-0.6 1.44,-1.44 1.56,-1.28 3.52,-2.16 1.96,-0.88 3.28,-0.88 2.12,0 3.4,1.4 1.28,1.36 1.24,3.64 l -0.2,8.08 q -0.04,0.92 0.32,1.56 0.36,0.64 0.88,0.64 0.76,0 1.32,-0.52 0.12,-0.12 0.24,-0.12 0.2,0 0.32,0.16 0.16,0.12 0.16,0.28 0,0.52 -0.72,1.24 -1.48,1.48 -3.36,1.48 -1.16,0 -2.04,-0.56 -0.88,-0.52 -1.68,-1.72 h -0.08 q -1.32,1.24 -2.4,1.76 -1.04,0.52 -2.24,0.52 z m 2.4,-2.6 q 0.76,0 1.28,-0.6 0.28,-0.44 0.28,-1.04 l 0.12,-2.88 q 0,-0.64 -0.4,-0.64 -0.2,0 -0.48,0.16 -1.28,0.6 -1.8,1.2 -0.48,0.6 -0.48,1.8 0,1.04 0.44,1.52 0.44,0.48 1.04,0.48 z"
       style="font-style:normal;font-variant:normal;font-weight:bold;font-stretch:normal;font-family:'EB Garamond';-inkscape-font-specification:'EB Garamond Bold';text-align:center;text-anchor:middle;fill:#ffffff"
       id="path905" />
    <path
       d="m 764.95738,668.73395 q -0.28,0 -0.56,-0.16 -0.24,-0.16 -0.24,-0.4 0,-0.48 0.92,-0.8 0.8,-0.24 1.16,-0.52 0.36,-0.28 0.36,-1 v -9.16 q 0,-2.04 -1.24,-2.24 -0.44,-0.08 -0.44,-0.72 0,-0.56 0.4,-0.68 4.04,-1 6,-2.12 0.08,-0.04 0.2,-0.12 0.16,-0.08 0.28,-0.08 0.36,0 0.36,0.44 l -0.08,0.88 q -0.04,0.28 -0.08,0.68 -0.04,0.36 -0.04,0.84 0,0.4 0.08,0.48 h 0.08 q 1.32,-1.28 2.76,-2 1.48,-0.72 3.2,-0.72 1.2,0 2.24,0.88 1.08,0.84 1.6,2.2 h 0.16 q 2.56,-3.08 6.08,-3.08 1.92,0 3.16,1.56 1.28,1.56 1.28,4.16 v 8.8 q 0,0.72 0.36,1 0.36,0.28 1.16,0.52 0.8,0.28 0.8,0.8 0,0.24 -0.2,0.4 -0.2,0.16 -0.48,0.16 -1.2,0 -2.28,-0.12 -1.28,-0.08 -1.96,-0.08 -0.68,0 -1.8,0.08 -0.88,0.12 -2.08,0.12 -0.28,0 -0.48,-0.16 -0.2,-0.16 -0.2,-0.4 0,-0.6 0.8,-0.8 0.56,-0.16 0.8,-0.4 0.28,-0.28 0.28,-0.88 v -8.2 q 0,-1.44 -0.64,-2.32 -0.6,-0.92 -1.56,-0.96 -1.24,0 -2.36,0.96 -0.56,0.52 -0.56,1.68 v 8.6 q 0,0.76 0.28,1.04 0.28,0.28 0.96,0.48 0.8,0.2 0.8,0.8 0,0.24 -0.2,0.4 -0.2,0.16 -0.48,0.16 -1.16,0 -2.12,-0.12 -1.2,-0.08 -1.84,-0.08 -0.68,0 -1.8,0.08 -0.88,0.12 -2.08,0.12 -0.24,0 -0.44,-0.16 -0.2,-0.16 -0.2,-0.4 0,-0.52 0.76,-0.8 0.6,-0.2 0.84,-0.44 0.28,-0.24 0.28,-0.84 v -8.2 q 0,-1.48 -0.6,-2.32 -0.6,-0.88 -1.6,-0.92 -1.2,0 -2.4,0.88 -0.52,0.4 -0.52,1.56 v 8.76 q 0,0.68 0.24,1 0.24,0.32 0.88,0.52 0.76,0.28 0.76,0.8 0,0.24 -0.2,0.4 -0.2,0.16 -0.44,0.16 -1.16,0 -2.08,-0.12 -1.2,-0.08 -1.84,-0.08 -0.68,0 -1.96,0.08 -1,0.12 -2.24,0.12 z"
       style="font-style:normal;font-variant:normal;font-weight:bold;font-stretch:normal;font-family:'EB Garamond';-inkscape-font-specification:'EB Garamond Bold';text-align:center;text-anchor:middle;fill:#ffffff"
       id="path907" />
    <path
       d="m 816.94301,666.25395 q 0.24,0 0.32,0.08 0.08,0.08 0.08,0.32 0,0.32 -0.24,0.68 -0.24,0.36 -0.44,0.36 -3,0.32 -6.08,1.44 -0.48,0.24 -0.68,0.24 -0.12,0 -0.36,-0.28 -0.2,-0.24 -0.2,-0.4 0.2,-1.4 0.2,-2.12 v -0.24 q -0.84,1.28 -2.28,2.08 -1.4,0.76 -3,0.76 -2.16,0 -3.96,-1.12 -1.76,-1.12 -2.76,-3.04 -1,-1.92 -1,-4.2 0,-2.68 1.2,-4.8 1.2,-2.16 3.36,-3.36 2.2,-1.24 5,-1.24 1.12,0 2.48,0.36 l 0.52,0.12 q 0.16,0 0.16,-0.52 v -4.76 q 0,-1.44 -0.36,-2.04 -0.32,-0.64 -1.2,-0.84 -0.48,-0.12 -0.48,-0.6 0,-0.52 0.44,-0.6 1.44,-0.32 3,-0.8 1.6,-0.52 2.64,-0.96 0.8,-0.36 0.96,-0.36 0.44,0 0.44,0.48 -0.04,0.16 -0.12,0.96 -0.04,0.76 -0.08,1.8 l -0.2,20.16 q 0,1.4 0.2,2 0.2,0.56 0.72,0.56 l 1.56,-0.12 z m -2.24,-25.36 z m -8.4,25.56 q 0.68,0 1.56,-0.32 0.88,-0.36 1.4,-0.92 l -0.04,-8.84 q 0,-0.68 -0.56,-1.4 -0.52,-0.72 -1.36,-1.2 -0.8,-0.48 -1.6,-0.48 -0.96,0 -1.8,0.8 -0.8,0.76 -1.32,2.24 -0.48,1.48 -0.48,3.4 0,2.08 0.56,3.6 0.6,1.52 1.56,2.32 0.96,0.8 2.08,0.8 z"
       style="font-style:normal;font-variant:normal;font-weight:bold;font-stretch:normal;font-family:'EB Garamond';-inkscape-font-specification:'EB Garamond Bold';text-align:center;text-anchor:middle;fill:#ffffff"
       id="path909" />
    <path
       d="m 828.81238,669.17395 q -4.12,0 -6.32,-2.24 -2.16,-2.24 -2.16,-6.04 0,-3.8 1.36,-6.44 1.36,-2.64 3.16,-4.76 1.52,-1.76 4.24,-3.52 2.72,-1.8 5.88,-2.88 0.68,-0.24 1.24,-0.24 0.6,0 0.6,0.28 -0.04,0.4 -0.36,0.64 -0.32,0.24 -1.08,0.6 -2.12,1 -3.64,2.36 -1.48,1.32 -2.8,3.36 -1.2,1.96 -2.2,4.72 -0.96,2.72 -0.96,5.72 0,2.08 0.52,3.6 0.56,1.52 1.44,2.32 0.88,0.76 1.84,0.8 1.24,0 2.04,-1.24 0.84,-1.28 0.84,-3.6 0,-1.16 -0.44,-2.16 -0.4,-1.04 -1.08,-1.64 -0.68,-0.64 -1.36,-0.64 -0.96,0 -1.6,0.32 -0.28,0.16 -0.56,0.16 -0.4,0 -0.4,-0.4 0,-0.4 0.32,-0.72 0.28,-0.28 0.92,-0.84 0.76,-0.64 1.96,-1.2 1.24,-0.56 2.16,-0.56 1.48,0 2.76,0.76 1.32,0.76 2.12,2.08 0.8,1.32 0.8,2.84 0,2.12 -1.2,4.12 -1.16,1.96 -3.28,3.2 -2.12,1.24 -4.76,1.24 z"
       style="font-style:normal;font-variant:normal;font-weight:bold;font-stretch:normal;font-family:'EB Garamond';-inkscape-font-specification:'EB Garamond Bold';text-align:center;text-anchor:middle;fill:#ffffff"
       id="path911" />
    <path
       d="m 847.46426,668.73395 q -0.28,0 -0.6,-0.16 -0.28,-0.2 -0.28,-0.44 0,-0.56 0.92,-0.8 1.6,-0.32 2.16,-0.8 0.56,-0.52 0.56,-1.68 v -2.28 q 0,-0.2 -0.24,-0.28 -0.2,-0.12 -0.44,-0.12 -1.12,0 -4.24,0.16 -3.36,0.16 -5,0.16 -0.24,0 -0.44,-0.08 -0.16,-0.08 -0.16,-0.24 0,-0.16 0.2,-0.44 l 1.2,-1.6 9.88,-15.8 q 0.36,-0.56 0.84,-0.96 0.52,-0.44 0.92,-0.44 h 0.36 q 0.4,0 0.4,0.44 0,0.2 -0.12,0.4 l -9.4,14.92 q -0.08,0.12 -0.08,0.28 0,0.28 0.4,0.28 h 5.6 q 0.12,0 0.2,-0.08 0.12,-0.08 0.12,-0.2 v -4.8 q 0,-0.72 0.12,-0.96 0.12,-0.28 0.52,-0.44 0.96,-0.44 2.12,-0.64 1.2,-0.2 1.92,-0.2 0.76,0 0.92,0.64 0.16,0.64 0.16,2.44 v 4.2 q 0,0.08 0.04,0.2 0.08,0.08 0.16,0.08 0.68,0.04 1.44,0.04 0.36,0 2.28,-0.08 0.2,0 0.32,0.08 0.16,0.08 0.16,0.2 0,0.52 -0.36,1.52 -0.32,1 -0.56,1 l -1.88,-0.04 q -0.32,0 -1.04,0.08 -0.16,0.04 -0.36,0.12 -0.16,0.08 -0.2,0.12 v 2.28 q 0,1.08 0.48,1.6 0.52,0.48 2.12,0.92 0.48,0.16 0.72,0.32 0.24,0.16 0.24,0.48 0,0.24 -0.28,0.4 -0.24,0.16 -0.56,0.16 -0.96,0 -2.96,-0.08 -2,-0.08 -2.72,-0.08 -0.8,0 -2.64,0.08 -1.48,0.12 -2.92,0.12 z"
       style="font-style:normal;font-variant:normal;font-weight:bold;font-stretch:normal;font-family:'EB Garamond';-inkscape-font-specification:'EB Garamond Bold';text-align:center;text-anchor:middle;fill:#ffffff"
       id="path913" />
    <path
       d="m 865.87613,661.69395 q -0.64,0 -1.32,-1.2 -0.92,-1.76 -0.92,-3.56 0,-1.32 1.12,-2.36 1.12,-1.04 3.56,-2.16 1.28,-0.56 1.92,-1.28 0.64,-0.72 0.64,-1.76 0,-1.16 -0.88,-1.8 -0.84,-0.64 -2.12,-0.68 -1.08,0 -1.96,0.44 -0.8,0.24 -1.32,0.24 -0.84,0 -1.64,-1.16 -0.76,-1.2 -0.76,-2.28 0,-0.72 0.84,-1.32 0.84,-0.64 1.92,-0.64 1.56,0 3.04,0.8 1.52,0.76 2.84,2.16 1.4,1.48 2.2,3.36 0.84,1.84 0.84,3.6 0,1.52 -0.56,2.48 -0.56,0.96 -1.36,1.32 -0.8,0.4 -2.24,1.28 l -1.36,0.76 q -0.84,0.48 -1.16,1.04 -0.32,0.56 -0.48,1.76 -0.04,0.44 -0.28,0.72 -0.2,0.24 -0.56,0.24 z m -0.04,7.48 q -1.16,0 -2.04,-0.84 -0.84,-0.88 -0.84,-2.04 0,-1.2 0.84,-2.04 0.88,-0.88 2.04,-0.88 1.2,0 2.04,0.88 0.84,0.84 0.84,2.04 0,1.16 -0.84,2.04 -0.84,0.84 -2.04,0.84 z"
       style="font-style:normal;font-variant:normal;font-weight:bold;font-stretch:normal;font-family:'EB Garamond';-inkscape-font-specification:'EB Garamond Bold';text-align:center;text-anchor:middle;fill:#ffffff"
       id="path915" />
  </g>
</svg>
