<?xml version="1.0" encoding="UTF-8" standalone="no"?>
<svg
   xmlns:dc="http://purl.org/dc/elements/1.1/"
   xmlns:cc="http://creativecommons.org/ns#"
   xmlns:rdf="http://www.w3.org/1999/02/22-rdf-syntax-ns#"
   xmlns:svg="http://www.w3.org/2000/svg"
   xmlns="http://www.w3.org/2000/svg"
   xmlns:xlink="http://www.w3.org/1999/xlink"
   width="444.5mm"
   height="277.8125mm"
   viewBox="0 0 444.5 277.8125"
   version="1.1"
   id="svg3357">
  <defs
     id="defs3351">
    <linearGradient
       id="linearGradient949">
      <stop
         id="stop945"
         offset="0"
         style="stop-color:#f4b400;stop-opacity:1;" />
      <stop
         style="stop-color:#ffc31c;stop-opacity:1"
         offset="0"
         id="stop953" />
      <stop
         id="stop947"
         offset="1"
         style="stop-color:#ffca32;stop-opacity:1" />
    </linearGradient>
    <linearGradient
       id="linearGradient6114">
      <stop
         style="stop-color:#6f7c91;stop-opacity:1;"
         offset="0"
         id="stop6110" />
      <stop
         style="stop-color:#162d50;stop-opacity:1"
         offset="1"
         id="stop6112" />
    </linearGradient>
    <radialGradient
       xlink:href="#linearGradient6114"
       id="radialGradient6126"
       cx="73.77433"
       cy="66.986313"
       fx="73.77433"
       fy="66.986313"
       r="31.67275"
       gradientTransform="matrix(3.0071285,0,0,1.83657,-125.12732,-58.151445)"
       gradientUnits="userSpaceOnUse" />
    <filter
       style="color-interpolation-filters:sRGB"
       id="filter2224"
       x="-0.81527042"
       width="2.6305408"
       y="-0.7841419"
       height="2.5682838">
      <feGaussianBlur
         stdDeviation="7.1879676"
         id="feGaussianBlur2226" />
    </filter>
    <filter
       style="color-interpolation-filters:sRGB"
       id="filter2228"
       x="-0.8625561"
       width="2.7251122"
       y="-0.7841419"
       height="2.5682838">
      <feGaussianBlur
         stdDeviation="7.1879676"
         id="feGaussianBlur2230" />
    </filter>
    <filter
       style="color-interpolation-filters:sRGB"
       id="filter2232"
       x="-1.232223"
       width="3.4644461"
       y="-0.67492652"
       height="2.349853">
      <feGaussianBlur
         stdDeviation="7.1879676"
         id="feGaussianBlur2234" />
    </filter>
    <filter
       style="color-interpolation-filters:sRGB"
       id="filter2236"
       x="-0.89476776"
       width="2.7895355"
       y="-0.7841419"
       height="2.5682838">
      <feGaussianBlur
         stdDeviation="7.1879676"
         id="feGaussianBlur2238" />
    </filter>
    <filter
       style="color-interpolation-filters:sRGB"
       id="filter2240"
       x="-0.74486709"
       width="2.4897342"
       y="-0.7841419"
       height="2.5682838">
      <feGaussianBlur
         stdDeviation="7.1879676"
         id="feGaussianBlur2242" />
    </filter>
    <filter
       style="color-interpolation-filters:sRGB"
       id="filter2244"
       x="-0.72728169"
       width="2.4545634"
       y="-0.6342324"
       height="2.2684648">
      <feGaussianBlur
         stdDeviation="7.1879676"
         id="feGaussianBlur2246" />
    </filter>
    <filter
       style="color-interpolation-filters:sRGB"
       id="filter2248"
       x="-0.7539826"
       width="2.5079651"
       y="-0.7841419"
       height="2.5682838">
      <feGaussianBlur
         stdDeviation="7.1879676"
         id="feGaussianBlur2250" />
    </filter>
    <filter
       style="color-interpolation-filters:sRGB"
       id="filter2252"
       x="-0.75004882"
       width="2.5000975"
       y="-0.7841419"
       height="2.5682838">
      <feGaussianBlur
         stdDeviation="7.1879676"
         id="feGaussianBlur2254" />
    </filter>
    <filter
       style="color-interpolation-filters:sRGB"
       id="filter2256"
       x="-1.4002534"
       width="3.8005068"
       y="-0.57503742"
       height="2.1500747">
      <feGaussianBlur
         stdDeviation="7.1879676"
         id="feGaussianBlur2258" />
    </filter>
    <filter
       style="color-interpolation-filters:sRGB"
       id="filter2260"
       x="-0.7606315"
       width="2.5212629"
       y="-0.5828082"
       height="2.1656165">
      <feGaussianBlur
         stdDeviation="7.1879676"
         id="feGaussianBlur2262" />
    </filter>
    <filter
       style="color-interpolation-filters:sRGB"
       id="filter2264"
       x="-0.8625561"
       width="2.7251122"
       y="-0.7841419"
       height="2.5682838">
      <feGaussianBlur
         stdDeviation="7.1879676"
         id="feGaussianBlur2266" />
    </filter>
    <filter
       style="color-interpolation-filters:sRGB"
       id="filter2268"
       x="-0.65543765"
       width="2.3108754"
       y="-0.63144666"
       height="2.2628932">
      <feGaussianBlur
         stdDeviation="7.1879676"
         id="feGaussianBlur2270" />
    </filter>
    <filter
       style="color-interpolation-filters:sRGB"
       id="filter2272"
       x="-0.7539826"
       width="2.5079651"
       y="-0.7841419"
       height="2.5682838">
      <feGaussianBlur
         stdDeviation="7.1879676"
         id="feGaussianBlur2274" />
    </filter>
    <filter
       style="color-interpolation-filters:sRGB"
       id="filter2276"
       x="-1.4002534"
       width="3.8005068"
       y="-0.57503742"
       height="2.1500747">
      <feGaussianBlur
         stdDeviation="7.1879676"
         id="feGaussianBlur2278" />
    </filter>
    <filter
       style="color-interpolation-filters:sRGB"
       id="filter2280"
       x="-0.62685764"
       width="2.2537153"
       y="-0.61787689"
       height="2.2357538">
      <feGaussianBlur
         stdDeviation="7.1879676"
         id="feGaussianBlur2282" />
    </filter>
    <filter
       style="color-interpolation-filters:sRGB"
       id="filter2284"
       x="-0.8076368"
       width="2.6152737"
       y="-0.7841419"
       height="2.5682838">
      <feGaussianBlur
         stdDeviation="7.1879676"
         id="feGaussianBlur2286" />
    </filter>
    <filter
       style="color-interpolation-filters:sRGB"
       id="filter2288"
       x="-0.72728169"
       width="2.4545634"
       y="-0.6342324"
       height="2.2684648">
      <feGaussianBlur
         stdDeviation="7.1879676"
         id="feGaussianBlur2290" />
    </filter>
    <filter
       style="color-interpolation-filters:sRGB"
       id="filter2292"
       x="-1.3867462"
       width="3.7734923"
       y="-0.5828082"
       height="2.1656165">
      <feGaussianBlur
         stdDeviation="7.1879676"
         id="feGaussianBlur2294" />
    </filter>
    <filter
       style="color-interpolation-filters:sRGB"
       id="filter2296"
       x="-0.75004882"
       width="2.5000975"
       y="-0.7841419"
       height="2.5682838">
      <feGaussianBlur
         stdDeviation="7.1879676"
         id="feGaussianBlur2298" />
    </filter>
    <filter
       style="color-interpolation-filters:sRGB"
       id="filter2300"
       x="-0.74486709"
       width="2.4897342"
       y="-0.7841419"
       height="2.5682838">
      <feGaussianBlur
         stdDeviation="7.1879676"
         id="feGaussianBlur2302" />
    </filter>
    <filter
       style="color-interpolation-filters:sRGB"
       id="filter2304"
       x="-1.232223"
       width="3.4644461"
       y="-0.67492652"
       height="2.349853">
      <feGaussianBlur
         stdDeviation="7.1879676"
         id="feGaussianBlur2306" />
    </filter>
    <filter
       style="color-interpolation-filters:sRGB"
       id="filter2308"
       x="-0.81527042"
       width="2.6305408"
       y="-0.7841419"
       height="2.5682838">
      <feGaussianBlur
         stdDeviation="7.1879676"
         id="feGaussianBlur2310" />
    </filter>
    <filter
       style="color-interpolation-filters:sRGB"
       id="filter2312"
       x="-1.4002535"
       width="3.8005068"
       y="-0.57503742"
       height="2.1500747">
      <feGaussianBlur
         stdDeviation="7.1879676"
         id="feGaussianBlur2314" />
    </filter>
    <filter
       style="color-interpolation-filters:sRGB"
       id="filter2316"
       x="-0.6878438"
       width="2.3756876"
       y="-0.6342324"
       height="2.2684648">
      <feGaussianBlur
         stdDeviation="7.1879676"
         id="feGaussianBlur2318" />
    </filter>
    <filter
       style="color-interpolation-filters:sRGB"
       id="filter2320"
       x="-1.3867462"
       width="3.7734923"
       y="-0.5828082"
       height="2.1656165">
      <feGaussianBlur
         stdDeviation="7.1879676"
         id="feGaussianBlur2322" />
    </filter>
    <filter
       style="color-interpolation-filters:sRGB"
       id="filter2324"
       x="-1.3867462"
       width="3.7734923"
       y="-0.5828082"
       height="2.1656165">
      <feGaussianBlur
         stdDeviation="7.1879676"
         id="feGaussianBlur2326" />
    </filter>
    <filter
       style="color-interpolation-filters:sRGB"
       id="filter2328"
       x="-0.75004882"
       width="2.5000975"
       y="-0.7841419"
       height="2.5682838">
      <feGaussianBlur
         stdDeviation="7.1879676"
         id="feGaussianBlur2330" />
    </filter>
    <filter
       style="color-interpolation-filters:sRGB"
       id="filter2332"
       x="-1.232223"
       width="3.4644461"
       y="-0.67492652"
       height="2.349853">
      <feGaussianBlur
         stdDeviation="7.1879676"
         id="feGaussianBlur2334" />
    </filter>
    <filter
       style="color-interpolation-filters:sRGB"
       id="filter2336"
       x="-0.89476776"
       width="2.7895355"
       y="-0.7841419"
       height="2.5682838">
      <feGaussianBlur
         stdDeviation="7.1879676"
         id="feGaussianBlur2338" />
    </filter>
    <filter
       style="color-interpolation-filters:sRGB"
       id="filter2340"
       x="-0.7539826"
       width="2.5079651"
       y="-0.7841419"
       height="2.5682838">
      <feGaussianBlur
         stdDeviation="7.1879676"
         id="feGaussianBlur2342" />
    </filter>
    <filter
       style="color-interpolation-filters:sRGB"
       id="filter2344"
       x="-1.2428762"
       width="3.4857526"
       y="-0.65345162"
       height="2.3069031">
      <feGaussianBlur
         stdDeviation="7.1879676"
         id="feGaussianBlur2346" />
    </filter>
    <filter
       height="2.005337"
       y="-0.50266856"
       width="2.3487632"
       x="-0.67438167"
       id="filter1961"
       style="color-interpolation-filters:sRGB">
      <feGaussianBlur
         id="feGaussianBlur1963"
         stdDeviation="5.8896001" />
    </filter>
    <radialGradient
       gradientUnits="userSpaceOnUse"
       gradientTransform="matrix(0.875,0,0,0.546875,0,151.92871)"
       r="254"
       fy="-23.8125"
       fx="254"
       cy="-23.8125"
       cx="254"
       id="radialGradient951"
       xlink:href="#linearGradient949" />
    <linearGradient
       gradientTransform="translate(1e-5)"
       gradientUnits="userSpaceOnUse"
       y2="138.90625"
       x2="444.5"
       y1="139.69971"
       x1="443.93756"
       id="linearGradient868"
       xlink:href="#linearGradient866" />
    <linearGradient
       id="linearGradient866">
      <stop
         id="stop862"
         offset="0"
         style="stop-color:#6e7078;stop-opacity:1;" />
      <stop
         id="stop864"
         offset="1"
         style="stop-color:#6e7078;stop-opacity:0;" />
    </linearGradient>
    <linearGradient
       gradientTransform="translate(-1.5e-4,4.6e-4)"
       xlink:href="#linearGradient866"
       id="linearGradient1019-7"
       x1="444.19131"
       y1="139.3998"
       x2="465.91299"
       y2="138.90625"
       gradientUnits="userSpaceOnUse" />
  </defs>
  <metadata
     id="metadata3354">
    <rdf:RDF>
      <cc:Work
         rdf:about="">
        <dc:format>image/svg+xml</dc:format>
        <dc:type
           rdf:resource="http://purl.org/dc/dcmitype/StillImage" />
        <dc:title></dc:title>
      </cc:Work>
    </rdf:RDF>
  </metadata>
  <g
     transform="matrix(0.26458333,0,0,0.26458333,-507.25429,134.56018)"
     style="font-style:normal;font-weight:normal;font-size:40px;line-height:1.25;font-family:sans-serif;letter-spacing:0px;word-spacing:0px;fill:#000000;fill-opacity:1;stroke:none"
     id="flowRoot985" />
  <g
     transform="matrix(0.26458333,0,0,0.26458333,-507.25429,134.56018)"
     style="font-style:normal;font-weight:normal;font-size:40px;line-height:1.25;font-family:sans-serif;letter-spacing:0px;word-spacing:0px;fill:#000000;fill-opacity:1;stroke:none"
     id="flowRoot993" />
  <path
     id="path1098"
     d="M 286.33187,0 H 0 V 277.8125 H 444.5 V 132.71902 Z"
     style="opacity:1;fill:url(#linearGradient1019-7);fill-opacity:1;stroke:none;stroke-width:9.70262432;stroke-miterlimit:4;stroke-dasharray:none;paint-order:stroke markers fill" />
  <g
     transform="translate(83.98576,154.67855)"
     id="g1116">
    <path
       style="opacity:1;fill:#ffe680;fill-opacity:1;fill-rule:nonzero;stroke:none;stroke-width:0.15597185;stroke-linejoin:round;stroke-miterlimit:4;stroke-dasharray:none;stroke-opacity:1"
       d="m 294.70637,-44.391006 a 26.458333,26.458332 85.3 0 1 -37.29191,3.065953 26.458333,26.458332 85.3 0 1 -3.06595,-37.291909 26.458333,26.458332 85.3 0 1 37.29191,-3.065953 26.458333,26.458332 85.3 0 1 3.06595,37.291909 z"
       id="circle891-7" />
    <path
       style="opacity:1;fill:#ffd42a;fill-opacity:1;fill-rule:nonzero;stroke:none;stroke-width:0.07798593;stroke-linejoin:round;stroke-miterlimit:4;stroke-dasharray:none;stroke-opacity:1"
       d="m 328.87173,-99.386113 a 13.229167,13.229166 85.3 0 1 -18.64595,1.532975 13.229167,13.229166 85.3 0 1 -1.53294,-18.645962 13.229167,13.229166 85.3 0 1 18.64596,-1.53297 13.229167,13.229166 85.3 0 1 1.53293,18.645957 z"
       id="path889-5" />
    <path
       style="opacity:1;fill:#c87137;fill-opacity:1;fill-rule:nonzero;stroke:none;stroke-width:0.29857224;stroke-linejoin:round;stroke-miterlimit:4;stroke-dasharray:none;stroke-opacity:1"
       d="m 326.77272,-22.27086 a 63.683452,62.98363 39.9 0 0 10.56026,-62.270206 63.683452,62.98363 39.9 0 0 -48.85572,-40.849724 63.683452,62.98363 39.9 0 0 -59.416,21.42047 l 48.85573,40.849731 z"
       id="path954-3" />
    <path
       style="opacity:1;fill:#d4aa00;fill-opacity:1;fill-rule:nonzero;stroke:none;stroke-width:0.31459409;stroke-linejoin:round;stroke-miterlimit:4;stroke-dasharray:none;stroke-opacity:1"
       d="m 225.72933,-97.634083 96.4711,80.662359 c 2.82215,2.359673 6.99381,1.987363 9.3535,-0.834787 l 1.35705,-1.623001 c 2.35967,-2.822138 1.98736,-6.993794 -0.83479,-9.353486 l -96.4711,-80.662362 c -2.82216,-2.35968 -6.99382,-1.98737 -9.35349,0.83476 l -1.35704,1.623 c -2.35969,2.82216 -1.98738,6.993824 0.83469,9.353519 z"
       id="rect956-5" />
  </g>
  <g
     id="flowRoot955"
     style="font-style:normal;font-weight:normal;font-size:40px;line-height:1.25;font-family:sans-serif;letter-spacing:0px;word-spacing:0px;fill:#ffffff;fill-opacity:1;stroke:none"
     transform="matrix(0.72223315,0,0,1.4119624,-729.94889,551.01739)"
     aria-label="Install VirtualBox in Debian 9">
    <path
       id="path965"
       style="font-style:normal;font-variant:normal;font-weight:bold;font-stretch:normal;font-family:'EB Garamond';-inkscape-font-specification:'EB Garamond Bold';text-align:center;text-anchor:middle;fill:#ffffff"
       d="m 1129.9361,-292.70941 q -0.32,0 -0.56,-0.16 -0.24,-0.16 -0.24,-0.4 0,-0.68 0.84,-0.84 1.56,-0.36 2.12,-0.84 0.6,-0.52 0.6,-1.76 v -18.16 q 0,-1.32 -0.52,-1.84 -0.52,-0.52 -2.12,-0.88 -0.84,-0.2 -0.84,-0.84 0,-0.28 0.24,-0.44 0.24,-0.16 0.56,-0.16 1.44,0 3,0.12 2,0.08 2.76,0.08 0.68,0 2.76,-0.08 2.16,-0.08 3.08,-0.08 0.76,0 0.76,0.56 0,0.36 -0.2,0.56 -0.2,0.16 -0.68,0.28 -1.6,0.44 -2.12,1 -0.52,0.52 -0.52,1.76 v 18.08 q 0,1.16 0.56,1.68 0.56,0.52 2.16,0.96 0.44,0.12 0.64,0.28 0.2,0.16 0.2,0.52 0,0.6 -0.72,0.6 -1.44,0 -3.08,-0.12 -2.08,-0.08 -2.84,-0.08 -0.8,0 -2.8,0.08 -1.56,0.12 -3.04,0.12 z" />
    <path
       id="path967"
       style="font-style:normal;font-variant:normal;font-weight:bold;font-stretch:normal;font-family:'EB Garamond';-inkscape-font-specification:'EB Garamond Bold';text-align:center;text-anchor:middle;fill:#ffffff"
       d="m 1144.6673,-292.70941 q -0.28,0 -0.56,-0.16 -0.24,-0.16 -0.24,-0.4 0,-0.48 0.92,-0.8 0.8,-0.24 1.16,-0.52 0.36,-0.28 0.36,-1 v -9.16 q 0,-2 -1.24,-2.24 -0.44,-0.08 -0.44,-0.72 0,-0.56 0.4,-0.68 1.4,-0.32 3.04,-0.88 1.64,-0.56 2.72,-1.12 0.52,-0.32 0.72,-0.32 0.36,0 0.36,0.48 l -0.08,0.8 q -0.12,1.44 -0.12,1.48 0,0.52 0.08,0.6 1.48,-1.4 2.84,-2.08 1.4,-0.68 3.16,-0.68 2.16,0 3.52,1.56 1.4,1.56 1.4,4.16 v 8.8 q 0,0.72 0.36,1 0.36,0.28 1.16,0.52 0.8,0.28 0.8,0.8 0,0.24 -0.2,0.4 -0.2,0.16 -0.48,0.16 -1.2,0 -2.28,-0.12 -1.28,-0.08 -1.96,-0.08 -0.68,0 -1.96,0.08 -1,0.12 -2.24,0.12 -0.28,0 -0.48,-0.16 -0.2,-0.16 -0.2,-0.4 0,-0.52 0.8,-0.8 0.76,-0.24 1.08,-0.52 0.32,-0.28 0.32,-1 v -7.96 q 0,-1.52 -0.68,-2.36 -0.68,-0.88 -1.88,-0.92 -0.84,0 -1.52,0.28 -0.68,0.24 -1.44,0.76 -0.32,0.28 -0.32,0.76 v 9.44 q 0,0.72 0.32,1 0.32,0.24 1.12,0.52 0.8,0.28 0.8,0.8 0,0.24 -0.2,0.4 -0.2,0.16 -0.48,0.16 -1.2,0 -2.16,-0.12 -1.28,-0.08 -1.92,-0.08 -0.68,0 -2.04,0.08 -1.08,0.12 -2.32,0.12 z" />
    <path
       id="path969"
       style="font-style:normal;font-variant:normal;font-weight:bold;font-stretch:normal;font-family:'EB Garamond';-inkscape-font-specification:'EB Garamond Bold';text-align:center;text-anchor:middle;fill:#ffffff"
       d="m 1172.2836,-292.26941 q -2.88,0 -4.8,-1.36 -0.36,-0.56 -0.52,-1.8 -0.16,-1.28 -0.12,-2.76 0,-0.48 0.8,-0.48 0.28,0 0.52,0.2 0.24,0.16 0.32,0.4 0.84,1.92 1.84,3 1,1.04 2.32,1.04 1,0 1.6,-0.64 0.6,-0.64 0.6,-1.52 0,-0.96 -0.72,-1.64 -0.72,-0.68 -2.08,-1.4 -2.12,-1.08 -3.36,-2.4 -1.2,-1.32 -1.2,-3.32 0,-2.32 1.84,-3.76 1.84,-1.44 4.6,-1.44 1.2,0 2.32,0.28 1.16,0.28 1.64,0.6 0.32,0.4 0.52,1.52 0.2,1.08 0.2,2.4 0,0.2 -0.24,0.32 -0.2,0.12 -0.48,0.12 -0.28,0 -0.6,-0.2 -0.28,-0.2 -0.36,-0.4 -0.52,-1.56 -1.36,-2.32 -0.8,-0.8 -1.8,-0.8 -0.92,0 -1.64,0.6 -0.68,0.56 -0.68,1.48 0,0.76 0.68,1.44 0.72,0.64 2.04,1.36 2.72,1.44 3.76,2.68 1.08,1.24 1.08,3.28 0,2.64 -1.76,4.08 -1.72,1.44 -4.96,1.44 z" />
    <path
       id="path971"
       style="font-style:normal;font-variant:normal;font-weight:bold;font-stretch:normal;font-family:'EB Garamond';-inkscape-font-specification:'EB Garamond Bold';text-align:center;text-anchor:middle;fill:#ffffff"
       d="m 1188.8186,-292.26941 q -2.6,0 -3.96,-1.32 -1.32,-1.32 -1.32,-3.8 v -9.2 q 0,-0.36 -0.28,-0.52 -0.28,-0.16 -0.96,-0.2 h -0.52 q -0.24,0 -0.44,-0.44 -0.2,-0.44 -0.2,-0.84 0,-0.28 0.24,-0.4 2,-0.72 5.84,-4.08 0.08,-0.08 0.28,-0.2 0.2,-0.16 0.36,-0.24 0.16,-0.08 0.36,-0.08 0.4,0 0.52,0.16 0.12,0.16 0.08,0.64 l -0.24,2.36 v 0.16 q 0,0.68 0.96,0.68 h 4.76 q 0.12,0 0.24,0.28 0.12,0.28 0.12,0.52 0,0.6 -0.16,1.12 -0.16,0.48 -0.36,0.48 h -3.72 q -0.92,0 -1.28,0.24 -0.32,0.2 -0.32,0.76 v 7.56 q 0,1.8 0.68,2.72 0.68,0.92 1.88,0.92 0.92,0 1.4,-0.12 0.52,-0.16 0.84,-0.32 0.36,-0.16 0.44,-0.2 0.16,-0.08 0.24,-0.08 0.2,0 0.32,0.24 0.12,0.2 0.12,0.56 0,0.28 -0.92,0.96 -0.88,0.64 -2.24,1.16 -1.36,0.52 -2.76,0.52 z" />
    <path
       id="path973"
       style="font-style:normal;font-variant:normal;font-weight:bold;font-stretch:normal;font-family:'EB Garamond';-inkscape-font-specification:'EB Garamond Bold';text-align:center;text-anchor:middle;fill:#ffffff"
       d="m 1200.2186,-292.26941 q -1.6,0 -2.8,-1.08 -1.2,-1.12 -1.2,-2.64 0,-1.36 0.8,-2.24 0.84,-0.92 2.6,-1.68 l 3.56,-1.56 q 0.8,-0.36 0.96,-0.64 0.2,-0.28 0.2,-1.04 l 0.04,-2.28 q 0.04,-1.16 -0.4,-1.8 -0.44,-0.64 -1.32,-0.64 -0.48,0 -1.04,0.24 -0.52,0.2 -0.8,0.48 -0.24,0.28 -0.24,0.84 0,0.28 0.04,0.6 0.04,0.28 0.04,0.56 0,0.4 -1.36,1 -1.32,0.6 -2.2,0.6 -0.32,0 -0.52,-0.24 -0.2,-0.24 -0.2,-0.6 0,-0.64 0.44,-1.24 0.44,-0.6 1.44,-1.44 1.56,-1.28 3.52,-2.16 1.96,-0.88 3.28,-0.88 2.12,0 3.4,1.4 1.28,1.36 1.24,3.64 l -0.2,8.08 q -0.04,0.92 0.32,1.56 0.36,0.64 0.88,0.64 0.76,0 1.32,-0.52 0.12,-0.12 0.24,-0.12 0.2,0 0.32,0.16 0.16,0.12 0.16,0.28 0,0.52 -0.72,1.24 -1.48,1.48 -3.36,1.48 -1.16,0 -2.04,-0.56 -0.88,-0.52 -1.68,-1.72 h -0.08 q -1.32,1.24 -2.4,1.76 -1.04,0.52 -2.24,0.52 z m 2.4,-2.6 q 0.76,0 1.28,-0.6 0.28,-0.44 0.28,-1.04 l 0.12,-2.88 q 0,-0.64 -0.4,-0.64 -0.2,0 -0.48,0.16 -1.28,0.6 -1.8,1.2 -0.48,0.6 -0.48,1.8 0,1.04 0.44,1.52 0.44,0.48 1.04,0.48 z" />
    <path
       id="path975"
       style="font-style:normal;font-variant:normal;font-weight:bold;font-stretch:normal;font-family:'EB Garamond';-inkscape-font-specification:'EB Garamond Bold';text-align:center;text-anchor:middle;fill:#ffffff"
       d="m 1213.9986,-292.70941 q -0.36,0 -0.6,-0.12 -0.2,-0.16 -0.2,-0.44 0,-0.56 0.92,-0.8 0.88,-0.32 1.2,-0.56 0.32,-0.24 0.32,-0.96 v -19.24 q 0,-1.2 -0.36,-1.92 -0.32,-0.76 -1.24,-0.96 -0.4,-0.08 -0.4,-0.6 0,-0.52 0.36,-0.6 1.08,-0.2 2.6,-0.72 1.56,-0.52 2.76,-0.96 l 0.84,-0.32 q 0.28,-0.12 0.52,-0.12 0.4,0 0.4,0.48 0,0.32 -0.12,1.16 -0.08,0.84 -0.12,1.6 v 22.12 q 0,0.68 0.28,0.96 0.32,0.24 0.72,0.4 0.4,0.12 0.52,0.16 0.48,0.16 0.68,0.36 0.24,0.16 0.24,0.44 0,0.28 -0.24,0.44 -0.2,0.12 -0.56,0.12 -0.84,0 -2.28,-0.08 l -2.08,-0.04 q -0.64,0 -1.92,0.08 -1.08,0.12 -2.24,0.12 z" />
    <path
       id="path977"
       style="font-style:normal;font-variant:normal;font-weight:bold;font-stretch:normal;font-family:'EB Garamond';-inkscape-font-specification:'EB Garamond Bold';text-align:center;text-anchor:middle;fill:#ffffff"
       d="m 1225.4048,-292.70941 q -0.36,0 -0.6,-0.12 -0.2,-0.16 -0.2,-0.44 0,-0.56 0.92,-0.8 0.88,-0.32 1.2,-0.56 0.32,-0.24 0.32,-0.96 v -19.24 q 0,-1.2 -0.36,-1.92 -0.32,-0.76 -1.24,-0.96 -0.4,-0.08 -0.4,-0.6 0,-0.52 0.36,-0.6 1.08,-0.2 2.6,-0.72 1.56,-0.52 2.76,-0.96 l 0.84,-0.32 q 0.28,-0.12 0.52,-0.12 0.4,0 0.4,0.48 0,0.32 -0.12,1.16 -0.08,0.84 -0.12,1.6 v 22.12 q 0,0.68 0.28,0.96 0.32,0.24 0.72,0.4 0.4,0.12 0.52,0.16 0.48,0.16 0.68,0.36 0.24,0.16 0.24,0.44 0,0.28 -0.24,0.44 -0.2,0.12 -0.56,0.12 -0.84,0 -2.28,-0.08 l -2.08,-0.04 q -0.64,0 -1.92,0.08 -1.08,0.12 -2.24,0.12 z" />
    <path
       id="path979"
       style="font-style:normal;font-variant:normal;font-weight:bold;font-stretch:normal;font-family:'EB Garamond';-inkscape-font-specification:'EB Garamond Bold';text-align:center;text-anchor:middle;fill:#ffffff"
       d="m 1258.7442,-292.14941 q -0.52,0 -0.8,-0.64 -1.04,-2.28 -1.4,-3.48 l -7.88,-18.56 q -0.44,-1.04 -1.12,-1.72 -0.68,-0.72 -1.76,-1 -0.52,-0.2 -0.76,-0.36 -0.2,-0.16 -0.2,-0.52 0,-0.24 0.24,-0.4 0.24,-0.16 0.6,-0.16 0.84,0 2.92,0.08 2.16,0.08 2.92,0.08 0.8,0 3.12,-0.08 2.32,-0.08 3.12,-0.08 0.4,0 0.72,0.16 0.36,0.16 0.36,0.4 0,0.32 -0.36,0.56 -0.36,0.2 -0.8,0.28 -1.24,0.28 -1.76,0.64 -0.52,0.32 -0.52,0.96 0,0.32 0.2,1.12 l 5.16,14.48 q 0.16,0.28 0.2,0.28 0.08,0 0.2,-0.32 l 4.68,-12.28 q 0.48,-1.28 0.48,-2.28 0,-2.28 -2.4,-2.56 -0.48,-0.12 -0.88,-0.32 -0.36,-0.24 -0.36,-0.56 0,-0.24 0.32,-0.36 0.36,-0.16 0.84,-0.16 l 1.96,0.04 q 0.52,0.04 1.88,0.04 1.12,0 2.2,-0.12 1.44,-0.08 2.2,-0.08 0.52,0 0.84,0.16 0.36,0.16 0.36,0.48 0,0.28 -0.24,0.44 -0.2,0.12 -0.48,0.24 -0.28,0.08 -0.36,0.12 -1.24,0.32 -2.04,1.2 -0.8,0.88 -1.52,2.68 l -6.08,14.56 q -1.88,4.36 -2.88,6.4 -0.16,0.36 -0.36,0.48 -0.2,0.16 -0.56,0.16 z" />
    <path
       id="path981"
       style="font-style:normal;font-variant:normal;font-weight:bold;font-stretch:normal;font-family:'EB Garamond';-inkscape-font-specification:'EB Garamond Bold';text-align:center;text-anchor:middle;fill:#ffffff"
       d="m 1273.4136,-292.70941 q -0.24,0 -0.44,-0.12 -0.2,-0.16 -0.2,-0.4 0,-0.6 0.72,-0.8 1.08,-0.24 1.48,-0.52 0.4,-0.32 0.4,-0.96 v -8.64 q 0,-1.32 -0.4,-1.92 -0.4,-0.6 -1.32,-0.72 -0.24,-0.04 -0.36,-0.24 -0.12,-0.2 -0.12,-0.48 0,-0.24 0.12,-0.44 0.16,-0.2 0.32,-0.24 1.8,-0.32 3.16,-0.88 1.4,-0.56 3.04,-1.36 0.56,-0.32 0.8,-0.32 0.24,0 0.36,0.16 0.16,0.12 0.16,0.32 l -0.16,1.48 q -0.36,3.04 -0.36,4.4 v 8.84 q 0,0.56 0.4,0.88 0.4,0.32 1.52,0.64 0.36,0.12 0.52,0.28 0.2,0.16 0.2,0.48 0,0.52 -0.6,0.52 -0.84,0 -2.44,-0.08 -1.6,-0.08 -2.28,-0.08 -0.68,0 -2.12,0.08 -1.2,0.12 -2.4,0.12 z m 4.4,-19.84 q -1.28,0 -2.2,-0.92 -0.92,-0.92 -0.92,-2.2 0,-1.36 0.92,-2.28 0.92,-0.92 2.2,-0.92 1.36,0 2.28,0.92 0.96,0.92 0.96,2.28 0,1.28 -0.96,2.2 -0.92,0.92 -2.28,0.92 z" />
    <path
       id="path983"
       style="font-style:normal;font-variant:normal;font-weight:bold;font-stretch:normal;font-family:'EB Garamond';-inkscape-font-specification:'EB Garamond Bold';text-align:center;text-anchor:middle;fill:#ffffff"
       d="m 1285.4105,-292.70941 q -0.36,0 -0.6,-0.12 -0.2,-0.16 -0.2,-0.44 0,-0.32 0.2,-0.48 0.24,-0.2 0.72,-0.32 0.88,-0.28 1.16,-0.6 0.32,-0.32 0.32,-0.92 v -9.2 q 0,-0.92 -0.28,-1.4 -0.24,-0.52 -0.92,-0.72 -0.52,-0.16 -0.52,-0.72 0,-0.56 0.48,-0.68 1.28,-0.28 2.8,-0.8 1.56,-0.56 2.64,-1.08 0.6,-0.44 0.92,-0.44 0.36,0 0.36,0.44 l -0.12,3.16 q 0,0.36 0.16,0.36 1.04,-1.44 2.4,-2.44 1.36,-1.04 2.68,-1.04 1.32,0 1.92,0.52 0.64,0.48 0.64,1.36 0,0.96 -0.76,2.04 -0.72,1.04 -1.56,1.04 -0.52,0 -1.56,-0.56 -0.16,-0.08 -0.68,-0.28 -0.48,-0.24 -0.8,-0.24 -2.56,0 -2.56,3.8 v 6.52 q 0,0.76 0.48,1.16 0.48,0.4 1.64,0.72 0.88,0.24 0.88,0.8 0,0.24 -0.2,0.4 -0.2,0.16 -0.48,0.16 -1.28,0 -2.56,-0.12 -1.6,-0.08 -2.24,-0.08 -0.68,0 -2.04,0.08 -1.08,0.12 -2.32,0.12 z" />
    <path
       id="path985"
       style="font-style:normal;font-variant:normal;font-weight:bold;font-stretch:normal;font-family:'EB Garamond';-inkscape-font-specification:'EB Garamond Bold';text-align:center;text-anchor:middle;fill:#ffffff"
       d="m 1309.053,-292.26941 q -2.6,0 -3.96,-1.32 -1.32,-1.32 -1.32,-3.8 v -9.2 q 0,-0.36 -0.28,-0.52 -0.28,-0.16 -0.96,-0.2 h -0.52 q -0.24,0 -0.44,-0.44 -0.2,-0.44 -0.2,-0.84 0,-0.28 0.24,-0.4 2,-0.72 5.84,-4.08 0.08,-0.08 0.28,-0.2 0.2,-0.16 0.36,-0.24 0.16,-0.08 0.36,-0.08 0.4,0 0.52,0.16 0.12,0.16 0.08,0.64 l -0.24,2.36 v 0.16 q 0,0.68 0.96,0.68 h 4.76 q 0.12,0 0.24,0.28 0.12,0.28 0.12,0.52 0,0.6 -0.16,1.12 -0.16,0.48 -0.36,0.48 h -3.72 q -0.92,0 -1.28,0.24 -0.32,0.2 -0.32,0.76 v 7.56 q 0,1.8 0.68,2.72 0.68,0.92 1.88,0.92 0.92,0 1.4,-0.12 0.52,-0.16 0.84,-0.32 0.36,-0.16 0.44,-0.2 0.16,-0.08 0.24,-0.08 0.2,0 0.32,0.24 0.12,0.2 0.12,0.56 0,0.28 -0.92,0.96 -0.88,0.64 -2.24,1.16 -1.36,0.52 -2.76,0.52 z" />
    <path
       id="path987"
       style="font-style:normal;font-variant:normal;font-weight:bold;font-stretch:normal;font-family:'EB Garamond';-inkscape-font-specification:'EB Garamond Bold';text-align:center;text-anchor:middle;fill:#ffffff"
       d="m 1329.133,-291.98941 q -0.32,0 -0.32,-0.4 0,-0.56 0.12,-1.28 l 0.08,-1.24 q 0,-0.36 -0.08,-0.44 -1.12,1.36 -2.84,2.24 -1.68,0.88 -3.48,0.88 -1.88,0 -3.16,-1.6 -1.24,-1.64 -1.24,-4.04 v -7.48 q 0,-1 -0.36,-1.52 -0.36,-0.56 -1.24,-0.72 -0.24,-0.04 -0.44,-0.2 -0.16,-0.2 -0.16,-0.56 0,-0.64 0.6,-0.68 2.6,-0.12 5.8,-0.96 0.16,-0.04 0.4,-0.08 0.28,-0.08 0.44,-0.08 0.56,0 0.52,0.56 -0.32,1.64 -0.32,3.08 v 7.68 q 0,1.44 0.68,2.32 0.68,0.88 1.76,0.92 1.56,0 2.44,-0.88 0.32,-0.28 0.56,-0.88 0.24,-0.64 0.24,-1.6 v -6.44 q 0,-1 -0.6,-1.56 -0.6,-0.6 -1.56,-0.68 -0.48,-0.04 -0.72,-0.24 -0.24,-0.2 -0.24,-0.64 0,-0.4 0.28,-0.6 0.28,-0.2 0.68,-0.2 3.04,-0.2 4.32,-0.32 1.28,-0.12 2.4,-0.4 0.48,-0.12 0.52,-0.12 0.6,0 0.6,0.48 0,0.12 -0.16,0.6 -0.08,0.48 -0.2,1.4 -0.08,0.92 -0.08,1.4 v 9.28 q 0,1.52 0.72,1.52 l 1.12,0.04 q 0.36,0 0.56,0.2 0.2,0.2 0.2,0.52 0,0.4 -0.16,0.6 -0.12,0.2 -0.52,0.24 -2.96,0.28 -6.12,1.6 -0.12,0.04 -0.48,0.16 -0.32,0.12 -0.56,0.12 z" />
    <path
       id="path989"
       style="font-style:normal;font-variant:normal;font-weight:bold;font-stretch:normal;font-family:'EB Garamond';-inkscape-font-specification:'EB Garamond Bold';text-align:center;text-anchor:middle;fill:#ffffff"
       d="m 1342.4842,-292.26941 q -1.6,0 -2.8,-1.08 -1.2,-1.12 -1.2,-2.64 0,-1.36 0.8,-2.24 0.84,-0.92 2.6,-1.68 l 3.56,-1.56 q 0.8,-0.36 0.96,-0.64 0.2,-0.28 0.2,-1.04 l 0.04,-2.28 q 0.04,-1.16 -0.4,-1.8 -0.44,-0.64 -1.32,-0.64 -0.48,0 -1.04,0.24 -0.52,0.2 -0.8,0.48 -0.24,0.28 -0.24,0.84 0,0.28 0.04,0.6 0.04,0.28 0.04,0.56 0,0.4 -1.36,1 -1.32,0.6 -2.2,0.6 -0.32,0 -0.52,-0.24 -0.2,-0.24 -0.2,-0.6 0,-0.64 0.44,-1.24 0.44,-0.6 1.44,-1.44 1.56,-1.28 3.52,-2.16 1.96,-0.88 3.28,-0.88 2.12,0 3.4,1.4 1.28,1.36 1.24,3.64 l -0.2,8.08 q -0.04,0.92 0.32,1.56 0.36,0.64 0.88,0.64 0.76,0 1.32,-0.52 0.12,-0.12 0.24,-0.12 0.2,0 0.32,0.16 0.16,0.12 0.16,0.28 0,0.52 -0.72,1.24 -1.48,1.48 -3.36,1.48 -1.16,0 -2.04,-0.56 -0.88,-0.52 -1.68,-1.72 h -0.08 q -1.32,1.24 -2.4,1.76 -1.04,0.52 -2.24,0.52 z m 2.4,-2.6 q 0.76,0 1.28,-0.6 0.28,-0.44 0.28,-1.04 l 0.12,-2.88 q 0,-0.64 -0.4,-0.64 -0.2,0 -0.48,0.16 -1.28,0.6 -1.8,1.2 -0.48,0.6 -0.48,1.8 0,1.04 0.44,1.52 0.44,0.48 1.04,0.48 z" />
    <path
       id="path991"
       style="font-style:normal;font-variant:normal;font-weight:bold;font-stretch:normal;font-family:'EB Garamond';-inkscape-font-specification:'EB Garamond Bold';text-align:center;text-anchor:middle;fill:#ffffff"
       d="m 1356.2642,-292.70941 q -0.36,0 -0.6,-0.12 -0.2,-0.16 -0.2,-0.44 0,-0.56 0.92,-0.8 0.88,-0.32 1.2,-0.56 0.32,-0.24 0.32,-0.96 v -19.24 q 0,-1.2 -0.36,-1.92 -0.32,-0.76 -1.24,-0.96 -0.4,-0.08 -0.4,-0.6 0,-0.52 0.36,-0.6 1.08,-0.2 2.6,-0.72 1.56,-0.52 2.76,-0.96 l 0.84,-0.32 q 0.28,-0.12 0.52,-0.12 0.4,0 0.4,0.48 0,0.32 -0.12,1.16 -0.08,0.84 -0.12,1.6 v 22.12 q 0,0.68 0.28,0.96 0.32,0.24 0.72,0.4 0.4,0.12 0.52,0.16 0.48,0.16 0.68,0.36 0.24,0.16 0.24,0.44 0,0.28 -0.24,0.44 -0.2,0.12 -0.56,0.12 -0.84,0 -2.28,-0.08 l -2.08,-0.04 q -0.64,0 -1.92,0.08 -1.08,0.12 -2.24,0.12 z" />
    <path
       id="path993"
       style="font-style:normal;font-variant:normal;font-weight:bold;font-stretch:normal;font-family:'EB Garamond';-inkscape-font-specification:'EB Garamond Bold';text-align:center;text-anchor:middle;fill:#ffffff"
       d="m 1367.7105,-292.62941 q -0.36,0 -0.6,-0.2 -0.2,-0.16 -0.2,-0.4 0,-0.24 0.2,-0.48 0.24,-0.24 0.68,-0.36 1.44,-0.4 1.96,-0.88 0.56,-0.48 0.56,-1.72 v -18.2 q 0,-1.32 -0.52,-1.84 -0.48,-0.56 -1.92,-0.88 -0.92,-0.16 -0.92,-0.84 0,-0.24 0.24,-0.4 0.24,-0.2 0.6,-0.2 1.36,0 3.04,0.16 0.36,0 1.04,0.08 0.72,0.04 1.36,0.04 0.8,0 2.24,-0.16 2.28,-0.2 3.44,-0.2 4.92,0 7.28,1.4 2.4,1.36 2.4,4.56 0,1.2 -0.56,2.32 -0.52,1.08 -1.44,1.84 -1.24,1.12 -2.92,1.52 -0.16,0.04 -0.16,0.2 0,0.16 0.16,0.2 2.8,0.6 4.6,2 1.8,1.4 1.8,4.48 0,2.04 -0.68,3.36 -0.64,1.32 -1.48,2 -0.84,0.68 -2.04,1.28 -2.68,1.28 -7,1.28 -0.84,0 -2.6,-0.08 -1.84,-0.08 -2.88,-0.08 -1.32,0 -2.84,0.12 -2,0.08 -2.84,0.08 z m 10.36,-14.96 q 1,0 1.8,-0.24 0.84,-0.24 1.6,-0.84 0.48,-0.4 0.88,-1.28 0.4,-0.92 0.4,-2.36 0,-2.52 -1,-3.76 -1,-1.28 -3.16,-1.28 -1.12,0 -1.64,0.44 -0.48,0.4 -0.48,1.24 v 6.68 q 0,0.72 0.48,1.08 0.52,0.32 1.12,0.32 z m 0.84,12.72 q 1.2,0 2.24,-0.72 1.08,-0.72 1.68,-1.96 0.64,-1.24 0.64,-2.76 0,-2.92 -2,-4.6 -0.44,-0.36 -1.28,-0.6 -0.8,-0.28 -1.88,-0.28 -0.72,0 -1.28,0.36 -0.56,0.36 -0.56,0.96 v 7.04 q 0,2.56 2.44,2.56 z" />
    <path
       id="path995"
       style="font-style:normal;font-variant:normal;font-weight:bold;font-stretch:normal;font-family:'EB Garamond';-inkscape-font-specification:'EB Garamond Bold';text-align:center;text-anchor:middle;fill:#ffffff"
       d="m 1400.7886,-292.26941 q -2.36,0 -4.32,-1.08 -1.96,-1.08 -3.08,-2.96 -1.12,-1.92 -1.12,-4.32 0,-2.52 1.24,-4.72 1.28,-2.2 3.4,-3.48 2.16,-1.32 4.76,-1.32 2.4,0 4.44,1.16 2.04,1.12 3.2,3.08 1.2,1.92 1.2,4.12 0,2.64 -1.12,4.8 -1.12,2.16 -3.32,3.44 -2.16,1.28 -5.28,1.28 z m 0.8,-1.76 q 1.64,0 2.48,-1.36 0.84,-1.4 0.84,-5.44 0,-3.28 -1.08,-5.4 -1.04,-2.16 -2.76,-2.16 -1.24,0 -2.08,0.84 -0.68,0.76 -0.96,2.2 -0.24,1.44 -0.24,3.72 0,1.92 0.48,3.68 0.52,1.76 1.36,2.84 0.88,1.08 1.96,1.08 z" />
    <path
       id="path997"
       style="font-style:normal;font-variant:normal;font-weight:bold;font-stretch:normal;font-family:'EB Garamond';-inkscape-font-specification:'EB Garamond Bold';text-align:center;text-anchor:middle;fill:#ffffff"
       d="m 1411.5711,-292.66941 q -0.96,0 -0.96,-0.44 0,-0.36 0.16,-0.52 0.2,-0.2 0.6,-0.36 0.48,-0.16 0.92,-0.56 0.48,-0.44 1.24,-1.44 l 3.68,-5.04 q 0.24,-0.32 0.24,-0.52 0,-0.2 -0.2,-0.52 l -3,-4.44 q -0.68,-1 -1.04,-1.4 -0.36,-0.4 -0.92,-0.6 -0.4,-0.12 -0.6,-0.28 -0.16,-0.2 -0.16,-0.56 0,-0.48 0.96,-0.48 0.4,0 2.08,0.12 0.76,0.12 1.92,0.12 0.8,0 1.92,-0.08 0.92,-0.12 2.12,-0.12 0.36,0 0.64,0.12 0.32,0.12 0.32,0.4 0,0.24 -0.16,0.36 -0.16,0.12 -0.4,0.24 -0.24,0.08 -0.36,0.12 -0.56,0.2 -0.84,0.4 -0.28,0.2 -0.28,0.56 0,0.36 0.52,1.24 l 1.84,2.68 q 0.2,0.28 0.36,0 l 1.24,-2.12 q 0.56,-1.12 0.52,-1.76 0,-0.64 -0.72,-0.92 -0.12,-0.04 -0.36,-0.12 -0.24,-0.12 -0.36,-0.24 -0.12,-0.16 -0.12,-0.4 0,-0.28 0.32,-0.4 0.32,-0.12 0.64,-0.12 l 1.28,0.04 q 0.52,0.04 1.32,0.04 0.28,0 1.24,-0.08 l 1.32,-0.08 q 0.96,0 0.96,0.48 0,0.32 -0.2,0.52 -0.16,0.16 -0.56,0.32 -0.48,0.16 -1,0.6 -0.48,0.4 -1.2,1.36 l -2.88,3.84 q -0.24,0.36 -0.24,0.52 0,0.2 0.24,0.52 l 3.36,5.28 q 0.52,0.84 1.2,1.44 0.68,0.6 1.4,0.88 0.4,0.12 0.56,0.32 0.2,0.16 0.2,0.52 0,0.48 -0.96,0.48 -0.32,0 -2.36,-0.12 -1,-0.12 -2.24,-0.12 -0.76,0 -2.12,0.08 -1.08,0.12 -2.4,0.12 -0.44,0 -0.72,-0.12 -0.24,-0.16 -0.24,-0.4 0,-0.32 0.2,-0.44 0.24,-0.16 0.72,-0.32 0.56,-0.16 0.84,-0.48 0.32,-0.36 0.32,-1.04 0,-0.44 -0.08,-0.72 -0.08,-0.32 -0.4,-0.72 l -2.04,-3 q -0.04,-0.04 -0.12,-0.04 -0.08,0 -0.12,0.04 l -1.88,3.32 q -0.56,0.88 -0.56,1.56 0,0.88 0.72,1.2 0.48,0.16 0.68,0.32 0.2,0.12 0.2,0.4 0,0.52 -0.96,0.52 -0.8,0 -1.44,-0.04 -0.6,-0.04 -1,-0.04 -0.68,0 -2.8,0.12 z" />
    <path
       id="path999"
       style="font-style:normal;font-variant:normal;font-weight:bold;font-stretch:normal;font-family:'EB Garamond';-inkscape-font-specification:'EB Garamond Bold';text-align:center;text-anchor:middle;fill:#ffffff"
       d="m 1183.4917,-242.23413 q -0.24,0 -0.44,-0.12 -0.2,-0.16 -0.2,-0.4 0,-0.6 0.72,-0.8 1.08,-0.24 1.48,-0.52 0.4,-0.32 0.4,-0.96 v -8.64 q 0,-1.32 -0.4,-1.92 -0.4,-0.6 -1.32,-0.72 -0.24,-0.04 -0.36,-0.24 -0.12,-0.2 -0.12,-0.48 0,-0.24 0.12,-0.44 0.16,-0.2 0.32,-0.24 1.8,-0.32 3.16,-0.88 1.4,-0.56 3.04,-1.36 0.56,-0.32 0.8,-0.32 0.24,0 0.36,0.16 0.16,0.12 0.16,0.32 l -0.16,1.48 q -0.36,3.04 -0.36,4.4 v 8.84 q 0,0.56 0.4,0.88 0.4,0.32 1.52,0.64 0.36,0.12 0.52,0.28 0.2,0.16 0.2,0.48 0,0.52 -0.6,0.52 -0.84,0 -2.44,-0.08 -1.6,-0.08 -2.28,-0.08 -0.68,0 -2.12,0.08 -1.2,0.12 -2.4,0.12 z m 4.4,-19.84 q -1.28,0 -2.2,-0.92 -0.92,-0.92 -0.92,-2.2 0,-1.36 0.92,-2.28 0.92,-0.92 2.2,-0.92 1.36,0 2.28,0.92 0.96,0.92 0.96,2.28 0,1.28 -0.96,2.2 -0.92,0.92 -2.28,0.92 z" />
    <path
       id="path1001"
       style="font-style:normal;font-variant:normal;font-weight:bold;font-stretch:normal;font-family:'EB Garamond';-inkscape-font-specification:'EB Garamond Bold';text-align:center;text-anchor:middle;fill:#ffffff"
       d="m 1195.4486,-242.23413 q -0.28,0 -0.56,-0.16 -0.24,-0.16 -0.24,-0.4 0,-0.48 0.92,-0.8 0.8,-0.24 1.16,-0.52 0.36,-0.28 0.36,-1 v -9.16 q 0,-2 -1.24,-2.24 -0.44,-0.08 -0.44,-0.72 0,-0.56 0.4,-0.68 1.4,-0.32 3.04,-0.88 1.64,-0.56 2.72,-1.12 0.52,-0.32 0.72,-0.32 0.36,0 0.36,0.48 l -0.08,0.8 q -0.12,1.44 -0.12,1.48 0,0.52 0.08,0.6 1.48,-1.4 2.84,-2.08 1.4,-0.68 3.16,-0.68 2.16,0 3.52,1.56 1.4,1.56 1.4,4.16 v 8.8 q 0,0.72 0.36,1 0.36,0.28 1.16,0.52 0.8,0.28 0.8,0.8 0,0.24 -0.2,0.4 -0.2,0.16 -0.48,0.16 -1.2,0 -2.28,-0.12 -1.28,-0.08 -1.96,-0.08 -0.68,0 -1.96,0.08 -1,0.12 -2.24,0.12 -0.28,0 -0.48,-0.16 -0.2,-0.16 -0.2,-0.4 0,-0.52 0.8,-0.8 0.76,-0.24 1.08,-0.52 0.32,-0.28 0.32,-1 v -7.96 q 0,-1.52 -0.68,-2.36 -0.68,-0.88 -1.88,-0.92 -0.84,0 -1.52,0.28 -0.68,0.24 -1.44,0.76 -0.32,0.28 -0.32,0.76 v 9.44 q 0,0.72 0.32,1 0.32,0.24 1.12,0.52 0.8,0.28 0.8,0.8 0,0.24 -0.2,0.4 -0.2,0.16 -0.48,0.16 -1.2,0 -2.16,-0.12 -1.28,-0.08 -1.92,-0.08 -0.68,0 -2.04,0.08 -1.08,0.12 -2.32,0.12 z" />
    <path
       id="path1003"
       style="font-style:normal;font-variant:normal;font-weight:bold;font-stretch:normal;font-family:'EB Garamond';-inkscape-font-specification:'EB Garamond Bold';text-align:center;text-anchor:middle;fill:#ffffff"
       d="m 1241.198,-242.07413 q -1.92,0 -5.28,-0.16 -1.8,-0.12 -2.84,-0.12 l -2.64,0.04 q -2.08,0.08 -3,0.08 -0.32,0 -0.56,-0.16 -0.24,-0.16 -0.24,-0.4 0,-0.68 0.84,-0.84 1.56,-0.32 2.08,-0.84 0.56,-0.52 0.56,-1.76 v -18.16 q 0,-1.32 -0.52,-1.84 -0.52,-0.52 -2.12,-0.88 -0.84,-0.2 -0.84,-0.84 0,-0.28 0.24,-0.44 0.24,-0.16 0.56,-0.16 1.48,0 2.96,0.12 1.92,0.08 2.72,0.08 0.68,0 3.72,-0.16 2.72,-0.2 4.44,-0.2 4,0 7.24,1.64 3.28,1.64 5.12,4.6 1.88,2.96 1.88,6.68 0,3.64 -1.72,6.8 -1.72,3.12 -5,5.04 -3.24,1.88 -7.6,1.88 z m -0.6,-2.04 q 4,0 6.08,-2.84 2.12,-2.84 2.12,-7.76 0,-3.56 -1.04,-6.24 -1,-2.68 -2.96,-4.16 -1.96,-1.48 -4.64,-1.48 -2.2,0 -3.04,0.28 -0.84,0.24 -0.84,1.24 v 17.44 q 0,1.92 1.08,2.72 1.08,0.8 3.24,0.8 z" />
    <path
       id="path1005"
       style="font-style:normal;font-variant:normal;font-weight:bold;font-stretch:normal;font-family:'EB Garamond';-inkscape-font-specification:'EB Garamond Bold';text-align:center;text-anchor:middle;fill:#ffffff"
       d="m 1264.983,-241.79413 q -2.12,0 -3.84,-1.12 -1.72,-1.16 -2.72,-3.16 -0.96,-2 -0.96,-4.48 0,-2.48 1.16,-4.56 1.16,-2.08 3.16,-3.28 2.04,-1.24 4.4,-1.24 1.68,0 3.08,0.72 1.4,0.72 2.2,2 0.8,1.28 0.8,2.8 0,0.8 -0.32,1.16 -0.28,0.36 -0.92,0.36 h -8 q -0.56,0 -0.84,0.32 -0.24,0.32 -0.24,1.08 0,2.32 1.48,3.92 1.48,1.56 3.72,1.56 1.12,0 2.08,-0.4 0.96,-0.44 2,-1.24 0.4,-0.32 0.56,-0.32 0.4,0 0.4,0.52 0,0.52 -0.32,1.2 -0.64,1.68 -2.52,2.92 -1.84,1.24 -4.36,1.24 z m 0.44,-12.48 q 0.92,0 1.44,-0.04 0.52,-0.04 0.92,-0.16 0.2,-0.08 0.32,-0.4 0.12,-0.32 0.12,-0.72 0,-1.04 -0.76,-1.72 -0.72,-0.72 -1.8,-0.72 -1.24,0 -2.24,1.04 -1,1 -0.96,2.16 0,0.56 0.56,0.56 z" />
    <path
       id="path1007"
       style="font-style:normal;font-variant:normal;font-weight:bold;font-stretch:normal;font-family:'EB Garamond';-inkscape-font-specification:'EB Garamond Bold';text-align:center;text-anchor:middle;fill:#ffffff"
       d="m 1283.793,-241.79413 q -1.6,0 -3.92,-0.6 -1.52,-0.44 -1.92,-0.44 -0.64,0 -1.44,0.52 -0.36,0.28 -0.56,0.28 -0.36,0 -0.56,-0.16 -0.16,-0.12 -0.16,-0.36 0,-0.28 0.2,-1.4 0.24,-1.16 0.2,-2.6 l -0.16,-17.8 q 0,-1.2 -0.36,-1.92 -0.32,-0.76 -1.2,-0.96 -0.48,-0.08 -0.48,-0.64 0,-0.2 0.12,-0.36 0.12,-0.16 0.32,-0.2 1.76,-0.32 6,-1.96 0.4,-0.16 0.56,-0.16 0.44,0 0.44,0.48 0,0.28 -0.12,1.08 -0.08,0.8 -0.08,1.44 v 8.56 q 0,1.12 0.36,1.12 1.24,-0.84 2.56,-1.28 1.36,-0.48 2.56,-0.48 2.08,0 3.76,1.08 1.68,1.08 2.64,3 1,1.88 1,4.2 0,2.8 -1.24,5 -1.2,2.16 -3.44,3.36 -2.2,1.2 -5.08,1.2 z m 0.72,-1.68 q 1.56,0 2.48,-1.96 0.96,-2 0.96,-4.88 0,-2.76 -1.04,-4.92 -1.04,-2.16 -3,-2.16 -0.84,0 -1.76,0.24 -0.92,0.24 -1.48,0.68 v 8.52 q 0,1.92 1.12,3.2 1.16,1.28 2.72,1.28 z" />
    <path
       id="path1009"
       style="font-style:normal;font-variant:normal;font-weight:bold;font-stretch:normal;font-family:'EB Garamond';-inkscape-font-specification:'EB Garamond Bold';text-align:center;text-anchor:middle;fill:#ffffff"
       d="m 1295.9917,-242.23413 q -0.24,0 -0.44,-0.12 -0.2,-0.16 -0.2,-0.4 0,-0.6 0.72,-0.8 1.08,-0.24 1.48,-0.52 0.4,-0.32 0.4,-0.96 v -8.64 q 0,-1.32 -0.4,-1.92 -0.4,-0.6 -1.32,-0.72 -0.24,-0.04 -0.36,-0.24 -0.12,-0.2 -0.12,-0.48 0,-0.24 0.12,-0.44 0.16,-0.2 0.32,-0.24 1.8,-0.32 3.16,-0.88 1.4,-0.56 3.04,-1.36 0.56,-0.32 0.8,-0.32 0.24,0 0.36,0.16 0.16,0.12 0.16,0.32 l -0.16,1.48 q -0.36,3.04 -0.36,4.4 v 8.84 q 0,0.56 0.4,0.88 0.4,0.32 1.52,0.64 0.36,0.12 0.52,0.28 0.2,0.16 0.2,0.48 0,0.52 -0.6,0.52 -0.84,0 -2.44,-0.08 -1.6,-0.08 -2.28,-0.08 -0.68,0 -2.12,0.08 -1.2,0.12 -2.4,0.12 z m 4.4,-19.84 q -1.28,0 -2.2,-0.92 -0.92,-0.92 -0.92,-2.2 0,-1.36 0.92,-2.28 0.92,-0.92 2.2,-0.92 1.36,0 2.28,0.92 0.96,0.92 0.96,2.28 0,1.28 -0.96,2.2 -0.92,0.92 -2.28,0.92 z" />
    <path
       id="path1011"
       style="font-style:normal;font-variant:normal;font-weight:bold;font-stretch:normal;font-family:'EB Garamond';-inkscape-font-specification:'EB Garamond Bold';text-align:center;text-anchor:middle;fill:#ffffff"
       d="m 1311.4686,-241.79413 q -1.6,0 -2.8,-1.08 -1.2,-1.12 -1.2,-2.64 0,-1.36 0.8,-2.24 0.84,-0.92 2.6,-1.68 l 3.56,-1.56 q 0.8,-0.36 0.96,-0.64 0.2,-0.28 0.2,-1.04 l 0.04,-2.28 q 0.04,-1.16 -0.4,-1.8 -0.44,-0.64 -1.32,-0.64 -0.48,0 -1.04,0.24 -0.52,0.2 -0.8,0.48 -0.24,0.28 -0.24,0.84 0,0.28 0.04,0.6 0.04,0.28 0.04,0.56 0,0.4 -1.36,1 -1.32,0.6 -2.2,0.6 -0.32,0 -0.52,-0.24 -0.2,-0.24 -0.2,-0.6 0,-0.64 0.44,-1.24 0.44,-0.6 1.44,-1.44 1.56,-1.28 3.52,-2.16 1.96,-0.88 3.28,-0.88 2.12,0 3.4,1.4 1.28,1.36 1.24,3.64 l -0.2,8.08 q -0.04,0.92 0.32,1.56 0.36,0.64 0.88,0.64 0.76,0 1.32,-0.52 0.12,-0.12 0.24,-0.12 0.2,0 0.32,0.16 0.16,0.12 0.16,0.28 0,0.52 -0.72,1.24 -1.48,1.48 -3.36,1.48 -1.16,0 -2.04,-0.56 -0.88,-0.52 -1.68,-1.72 h -0.08 q -1.32,1.24 -2.4,1.76 -1.04,0.52 -2.24,0.52 z m 2.4,-2.6 q 0.76,0 1.28,-0.6 0.28,-0.44 0.28,-1.04 l 0.12,-2.88 q 0,-0.64 -0.4,-0.64 -0.2,0 -0.48,0.16 -1.28,0.6 -1.8,1.2 -0.48,0.6 -0.48,1.8 0,1.04 0.44,1.52 0.44,0.48 1.04,0.48 z" />
    <path
       id="path1013"
       style="font-style:normal;font-variant:normal;font-weight:bold;font-stretch:normal;font-family:'EB Garamond';-inkscape-font-specification:'EB Garamond Bold';text-align:center;text-anchor:middle;fill:#ffffff"
       d="m 1325.4486,-242.23413 q -0.28,0 -0.56,-0.16 -0.24,-0.16 -0.24,-0.4 0,-0.48 0.92,-0.8 0.8,-0.24 1.16,-0.52 0.36,-0.28 0.36,-1 v -9.16 q 0,-2 -1.24,-2.24 -0.44,-0.08 -0.44,-0.72 0,-0.56 0.4,-0.68 1.4,-0.32 3.04,-0.88 1.64,-0.56 2.72,-1.12 0.52,-0.32 0.72,-0.32 0.36,0 0.36,0.48 l -0.08,0.8 q -0.12,1.44 -0.12,1.48 0,0.52 0.08,0.6 1.48,-1.4 2.84,-2.08 1.4,-0.68 3.16,-0.68 2.16,0 3.52,1.56 1.4,1.56 1.4,4.16 v 8.8 q 0,0.72 0.36,1 0.36,0.28 1.16,0.52 0.8,0.28 0.8,0.8 0,0.24 -0.2,0.4 -0.2,0.16 -0.48,0.16 -1.2,0 -2.28,-0.12 -1.28,-0.08 -1.96,-0.08 -0.68,0 -1.96,0.08 -1,0.12 -2.24,0.12 -0.28,0 -0.48,-0.16 -0.2,-0.16 -0.2,-0.4 0,-0.52 0.8,-0.8 0.76,-0.24 1.08,-0.52 0.32,-0.28 0.32,-1 v -7.96 q 0,-1.52 -0.68,-2.36 -0.68,-0.88 -1.88,-0.92 -0.84,0 -1.52,0.28 -0.68,0.24 -1.44,0.76 -0.32,0.28 -0.32,0.76 v 9.44 q 0,0.72 0.32,1 0.32,0.24 1.12,0.52 0.8,0.28 0.8,0.8 0,0.24 -0.2,0.4 -0.2,0.16 -0.48,0.16 -1.2,0 -2.16,-0.12 -1.28,-0.08 -1.92,-0.08 -0.68,0 -2.04,0.08 -1.08,0.12 -2.32,0.12 z" />
    <path
       id="path1015"
       style="font-style:normal;font-variant:normal;font-weight:bold;font-stretch:normal;font-family:'EB Garamond';-inkscape-font-specification:'EB Garamond Bold';text-align:center;text-anchor:middle;fill:#ffffff"
       d="m 1359.158,-240.35413 q -0.56,0 -0.8,-0.2 -0.24,-0.2 -0.24,-0.44 0,-0.4 0.32,-0.64 0.32,-0.24 0.8,-0.28 2.04,-0.24 4.24,-1.88 2.24,-1.68 4,-3.92 3.88,-5 3.88,-10.2 0,-1.76 -0.6,-3.52 -0.6,-1.76 -1.56,-2.88 -0.96,-1.16 -2.04,-1.16 -1.48,0 -2.24,1.16 -0.76,1.12 -0.76,3.32 0,1.2 0.4,2.32 0.44,1.12 1.12,1.84 0.72,0.72 1.48,0.72 0.52,0 0.92,-0.12 0.44,-0.12 0.8,-0.28 0.36,-0.12 0.56,-0.12 0.44,0 0.44,0.4 0,0.32 -0.32,0.72 -0.12,0.16 -0.88,0.92 -0.56,0.52 -1.68,1.04 -1.12,0.52 -2.08,0.52 -1.52,0 -3,-0.76 -1.44,-0.8 -2.4,-2.16 -0.92,-1.4 -0.92,-3.08 0,-1.76 1.32,-3.76 1.32,-2 3.52,-3.36 2.2,-1.36 4.64,-1.36 2.28,0 4.24,1.28 1.96,1.28 3.12,3.4 1.16,2.12 1.16,4.48 0,3.44 -1.72,6.56 -1.72,3.08 -4.2,5.52 -1.32,1.24 -3.48,2.64 -2.16,1.4 -4.36,2.32 -2.2,0.96 -3.68,0.96 z" />
  </g>
</svg>
