<?xml version="1.0" encoding="UTF-8" standalone="no"?>
<svg
   xmlns:dc="http://purl.org/dc/elements/1.1/"
   xmlns:cc="http://creativecommons.org/ns#"
   xmlns:rdf="http://www.w3.org/1999/02/22-rdf-syntax-ns#"
   xmlns:svg="http://www.w3.org/2000/svg"
   xmlns="http://www.w3.org/2000/svg"
   xmlns:xlink="http://www.w3.org/1999/xlink"
   width="211.40207mm"
   height="119.0625mm"
   viewBox="0 0 211.40207 119.0625"
   version="1.1"
   id="svg3357">
  <defs
     id="defs3351">
    <linearGradient
       id="linearGradient6114">
      <stop
         style="stop-color:#6f7c91;stop-opacity:1;"
         offset="0"
         id="stop6110" />
      <stop
         style="stop-color:#162d50;stop-opacity:1"
         offset="1"
         id="stop6112" />
    </linearGradient>
    <radialGradient
       xlink:href="#linearGradient6114"
       id="radialGradient6126"
       cx="73.77433"
       cy="66.986313"
       fx="73.77433"
       fy="66.986313"
       r="31.67275"
       gradientTransform="matrix(3.0071285,0,0,1.83657,-125.12732,-58.151445)"
       gradientUnits="userSpaceOnUse" />
    <filter
       style="color-interpolation-filters:sRGB"
       id="filter2224"
       x="-0.81527042"
       width="2.6305408"
       y="-0.7841419"
       height="2.5682838">
      <feGaussianBlur
         stdDeviation="7.1879676"
         id="feGaussianBlur2226" />
    </filter>
    <filter
       style="color-interpolation-filters:sRGB"
       id="filter2228"
       x="-0.8625561"
       width="2.7251122"
       y="-0.7841419"
       height="2.5682838">
      <feGaussianBlur
         stdDeviation="7.1879676"
         id="feGaussianBlur2230" />
    </filter>
    <filter
       style="color-interpolation-filters:sRGB"
       id="filter2232"
       x="-1.232223"
       width="3.4644461"
       y="-0.67492652"
       height="2.349853">
      <feGaussianBlur
         stdDeviation="7.1879676"
         id="feGaussianBlur2234" />
    </filter>
    <filter
       style="color-interpolation-filters:sRGB"
       id="filter2236"
       x="-0.89476776"
       width="2.7895355"
       y="-0.7841419"
       height="2.5682838">
      <feGaussianBlur
         stdDeviation="7.1879676"
         id="feGaussianBlur2238" />
    </filter>
    <filter
       style="color-interpolation-filters:sRGB"
       id="filter2240"
       x="-0.74486709"
       width="2.4897342"
       y="-0.7841419"
       height="2.5682838">
      <feGaussianBlur
         stdDeviation="7.1879676"
         id="feGaussianBlur2242" />
    </filter>
    <filter
       style="color-interpolation-filters:sRGB"
       id="filter2244"
       x="-0.72728169"
       width="2.4545634"
       y="-0.6342324"
       height="2.2684648">
      <feGaussianBlur
         stdDeviation="7.1879676"
         id="feGaussianBlur2246" />
    </filter>
    <filter
       style="color-interpolation-filters:sRGB"
       id="filter2248"
       x="-0.7539826"
       width="2.5079651"
       y="-0.7841419"
       height="2.5682838">
      <feGaussianBlur
         stdDeviation="7.1879676"
         id="feGaussianBlur2250" />
    </filter>
    <filter
       style="color-interpolation-filters:sRGB"
       id="filter2252"
       x="-0.75004882"
       width="2.5000975"
       y="-0.7841419"
       height="2.5682838">
      <feGaussianBlur
         stdDeviation="7.1879676"
         id="feGaussianBlur2254" />
    </filter>
    <filter
       style="color-interpolation-filters:sRGB"
       id="filter2256"
       x="-1.4002534"
       width="3.8005068"
       y="-0.57503742"
       height="2.1500747">
      <feGaussianBlur
         stdDeviation="7.1879676"
         id="feGaussianBlur2258" />
    </filter>
    <filter
       style="color-interpolation-filters:sRGB"
       id="filter2260"
       x="-0.7606315"
       width="2.5212629"
       y="-0.5828082"
       height="2.1656165">
      <feGaussianBlur
         stdDeviation="7.1879676"
         id="feGaussianBlur2262" />
    </filter>
    <filter
       style="color-interpolation-filters:sRGB"
       id="filter2264"
       x="-0.8625561"
       width="2.7251122"
       y="-0.7841419"
       height="2.5682838">
      <feGaussianBlur
         stdDeviation="7.1879676"
         id="feGaussianBlur2266" />
    </filter>
    <filter
       style="color-interpolation-filters:sRGB"
       id="filter2268"
       x="-0.65543765"
       width="2.3108754"
       y="-0.63144666"
       height="2.2628932">
      <feGaussianBlur
         stdDeviation="7.1879676"
         id="feGaussianBlur2270" />
    </filter>
    <filter
       style="color-interpolation-filters:sRGB"
       id="filter2272"
       x="-0.7539826"
       width="2.5079651"
       y="-0.7841419"
       height="2.5682838">
      <feGaussianBlur
         stdDeviation="7.1879676"
         id="feGaussianBlur2274" />
    </filter>
    <filter
       style="color-interpolation-filters:sRGB"
       id="filter2276"
       x="-1.4002534"
       width="3.8005068"
       y="-0.57503742"
       height="2.1500747">
      <feGaussianBlur
         stdDeviation="7.1879676"
         id="feGaussianBlur2278" />
    </filter>
    <filter
       style="color-interpolation-filters:sRGB"
       id="filter2280"
       x="-0.62685764"
       width="2.2537153"
       y="-0.61787689"
       height="2.2357538">
      <feGaussianBlur
         stdDeviation="7.1879676"
         id="feGaussianBlur2282" />
    </filter>
    <filter
       style="color-interpolation-filters:sRGB"
       id="filter2284"
       x="-0.8076368"
       width="2.6152737"
       y="-0.7841419"
       height="2.5682838">
      <feGaussianBlur
         stdDeviation="7.1879676"
         id="feGaussianBlur2286" />
    </filter>
    <filter
       style="color-interpolation-filters:sRGB"
       id="filter2288"
       x="-0.72728169"
       width="2.4545634"
       y="-0.6342324"
       height="2.2684648">
      <feGaussianBlur
         stdDeviation="7.1879676"
         id="feGaussianBlur2290" />
    </filter>
    <filter
       style="color-interpolation-filters:sRGB"
       id="filter2292"
       x="-1.3867462"
       width="3.7734923"
       y="-0.5828082"
       height="2.1656165">
      <feGaussianBlur
         stdDeviation="7.1879676"
         id="feGaussianBlur2294" />
    </filter>
    <filter
       style="color-interpolation-filters:sRGB"
       id="filter2296"
       x="-0.75004882"
       width="2.5000975"
       y="-0.7841419"
       height="2.5682838">
      <feGaussianBlur
         stdDeviation="7.1879676"
         id="feGaussianBlur2298" />
    </filter>
    <filter
       style="color-interpolation-filters:sRGB"
       id="filter2300"
       x="-0.74486709"
       width="2.4897342"
       y="-0.7841419"
       height="2.5682838">
      <feGaussianBlur
         stdDeviation="7.1879676"
         id="feGaussianBlur2302" />
    </filter>
    <filter
       style="color-interpolation-filters:sRGB"
       id="filter2304"
       x="-1.232223"
       width="3.4644461"
       y="-0.67492652"
       height="2.349853">
      <feGaussianBlur
         stdDeviation="7.1879676"
         id="feGaussianBlur2306" />
    </filter>
    <filter
       style="color-interpolation-filters:sRGB"
       id="filter2308"
       x="-0.81527042"
       width="2.6305408"
       y="-0.7841419"
       height="2.5682838">
      <feGaussianBlur
         stdDeviation="7.1879676"
         id="feGaussianBlur2310" />
    </filter>
    <filter
       style="color-interpolation-filters:sRGB"
       id="filter2312"
       x="-1.4002535"
       width="3.8005068"
       y="-0.57503742"
       height="2.1500747">
      <feGaussianBlur
         stdDeviation="7.1879676"
         id="feGaussianBlur2314" />
    </filter>
    <filter
       style="color-interpolation-filters:sRGB"
       id="filter2316"
       x="-0.6878438"
       width="2.3756876"
       y="-0.6342324"
       height="2.2684648">
      <feGaussianBlur
         stdDeviation="7.1879676"
         id="feGaussianBlur2318" />
    </filter>
    <filter
       style="color-interpolation-filters:sRGB"
       id="filter2320"
       x="-1.3867462"
       width="3.7734923"
       y="-0.5828082"
       height="2.1656165">
      <feGaussianBlur
         stdDeviation="7.1879676"
         id="feGaussianBlur2322" />
    </filter>
    <filter
       style="color-interpolation-filters:sRGB"
       id="filter2324"
       x="-1.3867462"
       width="3.7734923"
       y="-0.5828082"
       height="2.1656165">
      <feGaussianBlur
         stdDeviation="7.1879676"
         id="feGaussianBlur2326" />
    </filter>
    <filter
       style="color-interpolation-filters:sRGB"
       id="filter2328"
       x="-0.75004882"
       width="2.5000975"
       y="-0.7841419"
       height="2.5682838">
      <feGaussianBlur
         stdDeviation="7.1879676"
         id="feGaussianBlur2330" />
    </filter>
    <filter
       style="color-interpolation-filters:sRGB"
       id="filter2332"
       x="-1.232223"
       width="3.4644461"
       y="-0.67492652"
       height="2.349853">
      <feGaussianBlur
         stdDeviation="7.1879676"
         id="feGaussianBlur2334" />
    </filter>
    <filter
       style="color-interpolation-filters:sRGB"
       id="filter2336"
       x="-0.89476776"
       width="2.7895355"
       y="-0.7841419"
       height="2.5682838">
      <feGaussianBlur
         stdDeviation="7.1879676"
         id="feGaussianBlur2338" />
    </filter>
    <filter
       style="color-interpolation-filters:sRGB"
       id="filter2340"
       x="-0.7539826"
       width="2.5079651"
       y="-0.7841419"
       height="2.5682838">
      <feGaussianBlur
         stdDeviation="7.1879676"
         id="feGaussianBlur2342" />
    </filter>
    <filter
       style="color-interpolation-filters:sRGB"
       id="filter2344"
       x="-1.2428762"
       width="3.4857526"
       y="-0.65345162"
       height="2.3069031">
      <feGaussianBlur
         stdDeviation="7.1879676"
         id="feGaussianBlur2346" />
    </filter>
    <filter
       height="2.005337"
       y="-0.50266856"
       width="2.3487632"
       x="-0.67438167"
       id="filter1961"
       style="color-interpolation-filters:sRGB">
      <feGaussianBlur
         id="feGaussianBlur1963"
         stdDeviation="5.8896001" />
    </filter>
  </defs>
  <metadata
     id="metadata3354">
    <rdf:RDF>
      <cc:Work
         rdf:about="">
        <dc:format>image/svg+xml</dc:format>
        <dc:type
           rdf:resource="http://purl.org/dc/dcmitype/StillImage" />
        <dc:title></dc:title>
      </cc:Work>
    </rdf:RDF>
  </metadata>
  <path
     id="rect6108"
     d="M 0,0 H 211.40207 V 119.0625 H 0 Z"
     style="opacity:1;fill:#ff9900;fill-opacity:1;stroke:none;stroke-width:4.38045835;stroke-miterlimit:4;stroke-dasharray:none;paint-order:stroke markers fill" />
  <g
     id="flowRoot874"
     style="font-style:normal;font-weight:normal;font-size:40px;line-height:1.25;font-family:sans-serif;letter-spacing:0px;word-spacing:0px;fill:#000000;fill-opacity:1;stroke:none"
     transform="matrix(1.1097917,0,0,1.0234149,-1.6397721,-6.8613634)" />
  <g
     id="flowRoot1087"
     style="font-style:normal;font-weight:normal;font-size:40px;line-height:1.25;font-family:sans-serif;letter-spacing:0px;word-spacing:0px;fill:#000000;fill-opacity:1;stroke:none"
     transform="translate(-1.4775493,-3.9803138)" />
  <g
     transform="matrix(1.1825108,0,0,1.2934259,-92.395152,-89.411228)"
     id="g4921"
     style="display:inline">
    <g
       id="g4720"
       transform="translate(50.270828)">
      <g
         style="fill:#333333"
         transform="translate(-47.638093,1.3360133)"
         id="g4694">
        <path
           id="path835"
           d="m 144.21101,139.55982 c 0,0 5.43081,5.83681 7.33498,3.79847 2.22288,-2.37952 -12.62665,-36.87139 -12.62665,-36.87139"
           style="fill:#333333;stroke:none;stroke-width:0.26458347px;stroke-linecap:butt;stroke-linejoin:miter;stroke-opacity:1" />
        <path
           style="fill:#333333;stroke:none;stroke-width:0.26458332px;stroke-linecap:butt;stroke-linejoin:miter;stroke-opacity:1"
           d="m 97.450493,140.21473 c 7.815327,4.80271 15.630577,9.60538 23.402247,9.51796 7.77167,-0.0874 15.49967,-5.06478 19.38543,-7.57529 3.88576,-2.5105 3.92946,-2.5542 3.97284,-2.59758"
           id="path817" />
        <path
           style="fill:#333333;stroke:none;stroke-width:0.26458332px;stroke-linecap:butt;stroke-linejoin:miter;stroke-opacity:1"
           d="m 97.450491,140.21473 c 0,0 -5.430812,5.83681 -7.33498,3.79847 -2.222882,-2.37952 12.820499,-36.99713 12.820499,-36.99713"
           id="path825" />
        <path
           style="fill:#333333;stroke:none;stroke-width:0.26458332px;stroke-linecap:butt;stroke-linejoin:miter;stroke-opacity:1"
           d="m 102.93926,105.67937 c 0.0862,-6.905162 0.17248,-13.810016 1.50935,-18.736088 1.33687,-4.926072 3.92412,-7.873272 9.74546,-9.346742 5.82134,-1.473471 14.87673,-1.473471 19.40429,3.368239 4.52756,4.84171 4.52756,14.525398 4.52756,24.209361"
           id="path831"
           transform="matrix(1.0226412,0,0,1.0473654,-2.3339152,-3.6688483)" />
      </g>
      <g
         id="g4708">
        <path
           style="fill:#333333;stroke:none;stroke-width:0.26458332px;stroke-linecap:butt;stroke-linejoin:miter;stroke-opacity:1"
           d="m 49.741667,141.68958 c 0,0 3.615973,-22.40139 5.55625,-33.60208 l 35.983333,-0.26458 6.614583,33.07291 z"
           id="path4696" />
        <path
           id="rect4698"
           d="m 55.5625,138.25 h 37.041668 v 3.96875 H 55.5625 Z"
           style="opacity:1;fill:#333333;fill-opacity:1;stroke:none;stroke-width:0.26458332" />
        <path
           id="rect4700"
           d="m 59.53125,106.5 h 30.427082 v 3.96875 H 59.53125 Z"
           style="opacity:1;fill:#333333;fill-opacity:1;stroke:none;stroke-width:0.26458332" />
        <path
           id="rect4702"
           d="m 84.666664,105.17708 h 5.291669 v 3.96875 h -5.291669 z"
           style="opacity:1;fill:#333333;fill-opacity:1;stroke:none;stroke-width:0.26458332" />
      </g>
    </g>
    <path
       style="opacity:1;fill:#e6e6e6;fill-opacity:1;stroke:none;stroke-width:0.26458332"
       id="path843"
       d="m 138.70455,126.61246 a 15.239734,15.867999 0 0 1 -15.17522,15.86785 15.239734,15.867999 0 0 1 -15.3037,-15.73349 15.239734,15.867999 0 0 1 15.04563,-16.00108 15.239734,15.867999 0 0 1 15.4311,15.59801" />
    <g
       id="g4688"
       transform="translate(44.751274,16.383515)">
      <g
         style="fill:#ff6600;stroke:none"
         transform="translate(-41.01042,-15.875)"
         id="g4596">
        <path
           style="fill:#ff6600;stroke:none;stroke-width:0.26458332px;stroke-linecap:butt;stroke-linejoin:miter;stroke-opacity:1"
           d="m 111.125,110.46875 c 2.9216,-2.67614 5.84316,-5.35225 8.7091,-5.35212 2.86595,1.3e-4 5.6775,2.67624 8.48882,5.35212"
           id="path4585" />
        <path
           style="fill:#ff6600;stroke:none;stroke-width:0.26458332px;stroke-linecap:butt;stroke-linejoin:miter;stroke-opacity:1"
           d="m 111.125,110.46875 c 2.77957,3.92198 5.48174,5.31906 8.73125,6.61458"
           id="path4589" />
        <path
           style="fill:#ff6600;stroke:none;stroke-width:0.26458332px;stroke-linecap:butt;stroke-linejoin:miter;stroke-opacity:1"
           d="m 128.32292,110.46875 c -1.04604,3.82945 -4.9192,5.32533 -8.46667,6.61458"
           id="path4591" />
      </g>
      <g
         id="g4661"
         transform="translate(-41.01042,-15.875)"
         style="fill:#ff6600;stroke:none">
        <path
           id="path4655"
           d="m 111.125,110.46875 c 2.9216,-2.67614 5.84316,-5.35225 8.7091,-5.35212 2.86595,1.3e-4 5.6775,2.67624 8.48882,5.35212"
           style="fill:#ff6600;stroke:none;stroke-width:0.26458332px;stroke-linecap:butt;stroke-linejoin:miter;stroke-opacity:1" />
        <path
           id="path4657"
           d="m 111.125,110.46875 c 2.77957,3.92198 5.48174,5.31906 8.73125,6.61458"
           style="fill:#ff6600;stroke:none;stroke-width:0.26458332px;stroke-linecap:butt;stroke-linejoin:miter;stroke-opacity:1" />
        <path
           id="path4659"
           d="m 128.32292,110.46875 c -1.04604,3.82945 -4.9192,5.32533 -8.46667,6.61458"
           style="fill:#ff6600;stroke:none;stroke-width:0.26458332px;stroke-linecap:butt;stroke-linejoin:miter;stroke-opacity:1" />
      </g>
      <path
         d="m 78.845833,101.20833 -4.582718,-2.645833 v -5.291666 l 4.582718,-2.645833 4.582717,2.645833 v 5.291666 z"
         id="path4671"
         style="opacity:1;fill:#ff6600;fill-opacity:1;stroke:none;stroke-width:0.26458332" />
      <path
         transform="matrix(0.94729327,-1.274616,1.0295753,1.1727506,-98.356248,87.506876)"
         d="m 83.608335,99.620834 2.319854,-2.397701 0.916543,3.207907 z"
         id="path4673"
         style="opacity:1;fill:#ff6600;fill-opacity:1;stroke:none;stroke-width:0.26458332" />
      <path
         transform="matrix(1.141627,0.11210349,-0.08749549,1.2944633,-2.2020547,-37.413635)"
         d="m 74.536294,98.196559 -3.844516,-2.340158 3.948894,-2.159369 z"
         id="path4675"
         style="opacity:1;fill:#ff6600;fill-opacity:1;stroke:none;stroke-width:0.26458332" />
    </g>
    <path
       style="opacity:1;fill:#333333;fill-opacity:1;stroke:none;stroke-width:0.40745068"
       d="m 457.97263,570.35612 c -18.79507,-2.12161 -40.18257,-11.27811 -71.63974,-30.67068 -8.13959,-5.01787 -8.02372,-4.97631 -9.49602,-3.40625 -1.98328,2.11498 -9.29175,8.28788 -11.94887,10.09229 -7.55689,5.13179 -13.40276,5.68891 -14.83103,1.41342 -1.63872,-4.90546 5.4376,-28.95935 18.84332,-64.05245 9.54282,-24.98091 28.41577,-70.80369 29.41653,-71.42219 0.22811,-0.14098 0.37499,-0.42288 0.3264,-0.62644 -0.0486,-0.20356 0.0318,-0.82849 0.17857,-1.38874 0.14681,-0.56024 0.45269,-8.53609 0.67974,-17.7241 0.63732,-25.79 1.66538,-38.59108 4.07232,-50.7069 4.32594,-21.77558 13.30666,-33.82393 30.11939,-40.40761 16.87389,-6.60764 39.99439,-8.13907 57.78976,-3.82784 20.7168,5.019 32.64507,17.2536 38.14208,39.1216 3.4588,13.75967 4.66657,26.50558 4.98055,52.56114 0.20469,16.98608 0.39447,21.14579 0.94912,20.80299 0.62648,-0.38718 21.06718,49.83231 30.13912,74.04694 11.92704,31.8354 17.56985,50.7662 17.56985,58.9443 0,2.59002 -0.1133,3.01447 -1.03188,3.86578 -3.15357,2.92263 -9.30891,0.77622 -18.04824,-6.29354 -2.16747,-1.75339 -5.03522,-4.30389 -6.3728,-5.66777 -1.33757,-1.36388 -2.56841,-2.47978 -2.7352,-2.47978 -0.16679,0 -5.21474,3.17625 -11.21765,7.05833 -6.00292,3.88209 -13.48133,8.58639 -16.6187,10.45401 -26.52636,15.79064 -49.54126,22.54011 -69.26662,20.31349 z m 19.96508,-32.86866 c 5.28911,-1.14072 8.32959,-2.22946 13.85333,-4.9606 18.43404,-9.11449 30.90578,-28.24854 32.34892,-49.62947 0.94243,-13.9626 -2.58151,-27.3736 -10.20264,-38.82794 -3.0137,-4.52952 -10.61003,-12.34927 -14.86401,-15.30119 l -2.90399,-2.01514 0.75119,-1.40422 c 0.41315,-0.77232 1.12926,-2.38761 1.59134,-3.58952 1.00562,-2.61573 1.41642,-1.9763 -5.09101,-7.92451 -5.72644,-5.23434 -11.15932,-9.40512 -14.87195,-11.41709 -10.91899,-5.91728 -20.15604,-3.88649 -33.81841,7.43508 -3.40229,2.81937 -10.37133,9.1079 -10.53264,9.50415 -0.0784,0.19273 0.9084,1.72266 2.19301,3.39982 1.28461,1.67718 2.26556,3.10249 2.1799,3.16736 -0.0857,0.0649 -1.43922,0.95947 -3.00791,1.98798 -15.62369,10.24371 -25.66261,28.29897 -26.56551,47.77875 -1.32187,28.5191 16.86115,54.02186 43.57738,61.11985 2.07246,0.55061 5.05159,1.17715 6.62027,1.39232 4.35042,0.59669 14.44506,0.21127 18.74273,-0.71563 z m 70.79456,-4.85226 c -1.62471,-0.0773 -4.28333,-0.0773 -5.90804,0 -1.62471,0.0773 -0.2954,0.14062 2.95402,0.14062 3.24942,0 4.57873,-0.0633 2.95402,-0.14062 z m -16.9092,-125.06569 c -0.39218,-0.10248 -1.03391,-0.10248 -1.42608,0 -0.39217,0.10248 -0.0713,0.18634 0.71304,0.18634 0.78434,0 1.10521,-0.0839 0.71304,-0.18634 z"
       id="path4722"
       transform="scale(0.26458333)" />
    <path
       id="rect4846"
       d="m 139.81281,107.16256 h 1.38157 v 1.25205 h -1.38157 z"
       style="opacity:1;fill:#333333;fill-opacity:1;stroke:none;stroke-width:0.26458332" />
    <g
       id="g4877">
      <path
         style="opacity:1;fill:#e6e6e6;fill-opacity:1;stroke:none;stroke-width:0.26458332"
         id="path4860"
         d="m 133.36974,95.882912 a 3.0704114,3.0704114 0 0 1 -3.05741,3.070384 3.0704114,3.0704114 0 0 1 -3.0833,-3.044394 3.0704114,3.0704114 0 0 1 3.03132,-3.096154 3.0704114,3.0704114 0 0 1 3.10895,3.018185" />
      <g
         transform="matrix(0.80841168,0,0,1,68.549895,-7.3051882)"
         id="g4864">
        <path
           d="m 77.375031,103.39364 a 1.6372987,1.2321938 0 0 1 -1.630369,1.23218 1.6372987,1.2321938 0 0 1 -1.64417,-1.22175 1.6372987,1.2321938 0 0 1 1.616451,-1.24253 1.6372987,1.2321938 0 0 1 1.657853,1.21124"
           id="path4862"
           style="opacity:1;fill:#000000;fill-opacity:1;stroke:none;stroke-width:0.26458332" />
      </g>
    </g>
    <g
       id="g4885"
       transform="matrix(-1,0,0,1,248.68829,0.27470384)">
      <path
         d="m 133.36974,95.882912 a 3.0704114,3.0704114 0 0 1 -3.05741,3.070384 3.0704114,3.0704114 0 0 1 -3.0833,-3.044394 3.0704114,3.0704114 0 0 1 3.03132,-3.096154 3.0704114,3.0704114 0 0 1 3.10895,3.018185"
         id="path4879"
         style="opacity:1;fill:#e6e6e6;fill-opacity:1;stroke:none;stroke-width:0.26458332" />
      <g
         id="g4883"
         transform="matrix(0.80841168,0,0,1,68.549895,-7.3051882)">
        <path
           style="opacity:1;fill:#000000;fill-opacity:1;stroke:none;stroke-width:0.26458332"
           id="path4881"
           d="m 77.375031,103.39364 a 1.6372987,1.2321938 0 0 1 -1.630369,1.23218 1.6372987,1.2321938 0 0 1 -1.64417,-1.22175 1.6372987,1.2321938 0 0 1 1.616451,-1.24253 1.6372987,1.2321938 0 0 1 1.657853,1.21124" />
      </g>
    </g>
  </g>
  <g
     transform="matrix(1.1775361,0,0,2.158494,-31.921873,-383.79784)"
     id="text984"
     style="font-style:normal;font-weight:normal;font-size:10.58333397px;line-height:1.25;font-family:sans-serif;letter-spacing:0px;word-spacing:0px;fill:#ffffff;fill-opacity:1;stroke:none;stroke-width:0.26458335"
     aria-label="Install  VirtualBox inDebian  9">
    <path
       id="path992"
       style="font-style:normal;font-variant:normal;font-weight:normal;font-stretch:normal;font-family:'Sansita One';-inkscape-font-specification:'Sansita One';text-align:start;text-anchor:start;fill:#ffffff;stroke-width:0.26458335"
       d="m 96.115006,194.53258 1.344083,-6.985 h 2.328334 l -1.36525,6.985 z" />
    <path
       id="path994"
       style="font-style:normal;font-variant:normal;font-weight:normal;font-stretch:normal;font-family:'Sansita One';-inkscape-font-specification:'Sansita One';text-align:start;text-anchor:start;fill:#ffffff;stroke-width:0.26458335"
       d="m 104.49089,194.74424 q -1.28059,0 -1.28059,-0.99483 0.0106,-0.27517 0.0952,-0.74083 l 0.1905,-0.97367 q 0.28575,-1.37583 0.28575,-1.68275 0,-0.61383 -0.35983,-0.61383 -0.60325,0 -0.92075,1.57691 l -0.62442,3.21734 -2.127246,0.21166 1.100666,-5.61975 1.73567,-0.20108 -0.16934,1.03717 q 0.49742,-1.03717 2.02142,-1.03717 0.74083,0 1.04775,0.3175 0.3175,0.30692 0.3175,1.00542 0,0.65616 -0.33867,2.19075 -0.15875,0.68791 -0.15875,0.9525 0,0.254 0.13759,0.40216 0.14816,0.14817 0.35983,0.16934 -0.10583,0.35983 -0.47625,0.5715 -0.35983,0.21166 -0.83608,0.21166 z" />
    <path
       id="path996"
       style="font-style:normal;font-variant:normal;font-weight:normal;font-stretch:normal;font-family:'Sansita One';-inkscape-font-specification:'Sansita One';text-align:start;text-anchor:start;fill:#ffffff;stroke-width:0.26458335"
       d="m 109.81381,190.81783 q 0.14817,-0.39159 0.14817,-0.73025 0,-0.62442 -0.508,-0.62442 -0.26459,0 -0.48684,0.24342 -0.21166,0.23283 -0.21166,0.52916 0,0.21167 0.16933,0.381 0.24342,0.23284 0.86783,0.61384 0.62442,0.381 0.85725,0.6985 0.24342,0.30691 0.24342,0.74083 0,0.42333 -0.21167,0.81492 -0.20108,0.39158 -0.5715,0.66675 -0.79375,0.59266 -2.06375,0.59266 -0.68791,0 -1.21708,-0.35983 -0.52917,-0.34925 -0.52917,-0.762 0,-0.41275 0.29634,-0.65617 0.30691,-0.24341 0.75141,-0.24341 0.4445,0 0.71967,0.16933 -0.13758,0.34925 -0.13758,0.58208 0,0.6985 0.59266,0.6985 0.254,0 0.42334,-0.15875 0.16933,-0.15875 0.16933,-0.43391 0,-0.53975 -0.91017,-1.11125 -0.74083,-0.48684 -0.91016,-0.67734 -0.28575,-0.33866 -0.28575,-0.762 0,-0.42333 0.20108,-0.8255 0.20108,-0.40216 0.5715,-0.68791 0.77258,-0.59267 2.11667,-0.59267 0.68791,0 1.09008,0.27517 0.41275,0.27516 0.41275,0.74083 0,0.46567 -0.28575,0.73025 -0.27517,0.26458 -0.78317,0.26458 -0.34925,0 -0.51858,-0.11641 z" />
    <path
       id="path998"
       style="font-style:normal;font-variant:normal;font-weight:normal;font-stretch:normal;font-family:'Sansita One';-inkscape-font-specification:'Sansita One';text-align:start;text-anchor:start;fill:#ffffff;stroke-width:0.26458335"
       d="m 111.9657,193.47424 q 0,-0.28575 0.14817,-1.00541 l 0.56091,-2.8575 h -0.62441 l 0.0423,-0.3175 q 1.27,-0.381 2.49767,-1.31234 h 0.508 l -0.254,1.15359 h 0.8255 l -0.0953,0.47625 h -0.81492 l -0.53975,2.8575 q -0.13758,0.65616 -0.13758,0.87841 0,0.508 0.4445,0.61384 -0.10584,0.35983 -0.48684,0.5715 -0.381,0.21166 -0.92075,0.21166 -0.53975,0 -0.84666,-0.33866 -0.30692,-0.33867 -0.30692,-0.93134 z" />
    <path
       id="path1000"
       style="font-style:normal;font-variant:normal;font-weight:normal;font-stretch:normal;font-family:'Sansita One';-inkscape-font-specification:'Sansita One';text-align:start;text-anchor:start;fill:#ffffff;stroke-width:0.26458335"
       d="m 116.03416,194.21508 q -0.24341,-0.27517 -0.35983,-0.70909 -0.10583,-0.43391 -0.10583,-1.143 0,-0.70908 0.24341,-1.35466 0.24342,-0.64559 0.68792,-1.11125 0.91017,-0.97367 2.413,-0.97367 0.53975,0 0.93133,0.17992 l 1.80975,-0.17992 -0.78316,4.1275 q -0.0318,0.127 -0.0318,0.35983 0,0.23284 0.13758,0.381 0.14817,0.14817 0.35983,0.16934 -0.10583,0.35983 -0.49741,0.5715 -0.381,0.21166 -0.81492,0.21166 -0.43392,0 -0.73025,-0.16933 -0.28575,-0.15875 -0.37042,-0.43392 -0.16933,0.26459 -0.52916,0.43392 -0.35984,0.16933 -0.84667,0.16933 -0.47625,0 -0.86783,-0.127 -0.39159,-0.127 -0.64559,-0.40216 z m 2.23309,-4.29684 q -0.11642,0.1905 -0.22225,0.51859 -0.10584,0.3175 -0.28575,1.18533 -0.16934,0.85725 -0.16934,1.47108 0,0.61384 0.0952,0.79375 0.0953,0.17992 0.26459,0.17992 0.33866,0 0.58208,-0.3175 0.254,-0.32808 0.34925,-0.89958 l 0.56092,-3.10092 q -0.22225,-0.1905 -0.48684,-0.1905 -0.254,0 -0.41275,0.0847 -0.14816,0.0847 -0.27516,0.27516 z" />
    <path
       id="path1002"
       style="font-style:normal;font-variant:normal;font-weight:normal;font-stretch:normal;font-family:'Sansita One';-inkscape-font-specification:'Sansita One';text-align:start;text-anchor:start;fill:#ffffff;stroke-width:0.26458335"
       d="m 124.76442,193.95049 q -0.32808,0.79375 -1.37583,0.79375 -0.52917,0 -0.86784,-0.37041 -0.27516,-0.30692 -0.27516,-0.65617 0,-0.79375 0.37041,-2.52942 l 0.77259,-4.064 2.14841,-0.21166 -1.02658,5.35516 q -0.17992,0.78317 -0.17992,1.05834 0,0.60325 0.43392,0.62441 z" />
    <path
       id="path1004"
       style="font-style:normal;font-variant:normal;font-weight:normal;font-stretch:normal;font-family:'Sansita One';-inkscape-font-specification:'Sansita One';text-align:start;text-anchor:start;fill:#ffffff;stroke-width:0.26458335"
       d="m 128.19574,193.95049 q -0.32809,0.79375 -1.37584,0.79375 -0.52916,0 -0.86783,-0.37041 -0.27517,-0.30692 -0.27517,-0.65617 0,-0.79375 0.37042,-2.52942 l 0.77258,-4.064 2.14842,-0.21166 -1.02658,5.35516 q -0.17992,0.78317 -0.17992,1.05834 0,0.60325 0.43392,0.62441 z" />
    <path
       id="path1006"
       style="font-style:normal;font-variant:normal;font-weight:normal;font-stretch:normal;font-family:'Sansita One';-inkscape-font-specification:'Sansita One';text-align:start;text-anchor:start;fill:#ffffff;stroke-width:0.26458335"
       d="m 133.70304,187.97091 q 0.30692,-0.635 1.15358,-0.635 0.85725,0 1.24884,0.49742 0.40216,0.48683 0.40216,1.61925 v 3.77825 l 2.57175,-5.67267 h 1.25942 l -3.29142,6.97442 h -2.4765 l -0.3175,-5.08 q -0.0317,-0.56092 -0.1905,-0.94192 -0.14816,-0.381 -0.35983,-0.53975 z" />
    <path
       id="path1008"
       style="font-style:normal;font-variant:normal;font-weight:normal;font-stretch:normal;font-family:'Sansita One';-inkscape-font-specification:'Sansita One';text-align:start;text-anchor:start;fill:#ffffff;stroke-width:0.26458335"
       d="m 142.44835,193.95049 q -0.32808,0.79375 -1.37583,0.79375 -0.53975,0 -0.87842,-0.37041 -0.28575,-0.32809 -0.28575,-0.65617 0,-0.85725 0.39158,-2.52942 l 0.39159,-2.05316 2.14841,-0.21167 -0.64558,3.34433 q -0.17992,0.78317 -0.17992,1.05834 0,0.60325 0.43392,0.62441 z m -1.56633,-6.2865 q 0,-0.41275 0.33866,-0.635 0.34925,-0.22225 0.84667,-0.22225 0.49742,0 0.79375,0.22225 0.30692,0.22225 0.30692,0.635 0,0.41275 -0.33867,0.62442 -0.32808,0.21167 -0.8255,0.21167 -0.49742,0 -0.81492,-0.21167 -0.30691,-0.21167 -0.30691,-0.62442 z" />
    <path
       id="path1010"
       style="font-style:normal;font-variant:normal;font-weight:normal;font-stretch:normal;font-family:'Sansita One';-inkscape-font-specification:'Sansita One';text-align:start;text-anchor:start;fill:#ffffff;stroke-width:0.26458335"
       d="m 146.65224,191.55866 q 0.381,-0.67733 0.381,-1.36525 0,-0.45508 -0.32808,-0.45508 -0.254,0 -0.51858,0.43391 -0.27517,0.43392 -0.35984,0.99484 l -0.55033,3.3655 -2.19075,0.21166 1.0795,-5.60916 1.74625,-0.21167 -0.1905,1.06892 q 0.51858,-1.06892 1.68275,-1.06892 0.61383,0 0.94192,0.3175 0.33866,0.3175 0.33866,0.97367 0,0.64558 -0.43391,1.05833 -0.42334,0.41275 -1.15359,0.41275 -0.3175,0 -0.4445,-0.127 z" />
    <path
       id="path1012"
       style="font-style:normal;font-variant:normal;font-weight:normal;font-stretch:normal;font-family:'Sansita One';-inkscape-font-specification:'Sansita One';text-align:start;text-anchor:start;fill:#ffffff;stroke-width:0.26458335"
       d="m 149.02804,193.47424 q 0,-0.28575 0.14816,-1.00541 l 0.56092,-2.8575 h -0.62442 l 0.0423,-0.3175 q 1.27,-0.381 2.49766,-1.31234 h 0.508 l -0.254,1.15359 h 0.8255 l -0.0952,0.47625 h -0.81491 l -0.53975,2.8575 q -0.13759,0.65616 -0.13759,0.87841 0,0.508 0.4445,0.61384 -0.10583,0.35983 -0.48683,0.5715 -0.381,0.21166 -0.92075,0.21166 -0.53975,0 -0.84667,-0.33866 -0.30691,-0.33867 -0.30691,-0.93134 z" />
    <path
       id="path1014"
       style="font-style:normal;font-variant:normal;font-weight:normal;font-stretch:normal;font-family:'Sansita One';-inkscape-font-specification:'Sansita One';text-align:start;text-anchor:start;fill:#ffffff;stroke-width:0.26458335"
       d="m 156.08001,194.08808 q -0.508,0.65616 -1.76741,0.65616 -0.65617,0 -1.13242,-0.39158 -0.47625,-0.40217 -0.47625,-0.97367 0,-0.3175 0.0317,-0.47625 l 0.70908,-3.76766 2.14842,-0.21167 -0.77258,4.08517 q -0.0423,0.23283 -0.0423,0.37041 0,0.61384 0.37042,0.61384 0.41275,0 0.70908,-0.56092 0.0952,-0.17992 0.13759,-0.41275 l 0.75141,-3.88408 2.08492,-0.21167 -0.78317,4.1275 q -0.0317,0.15875 -0.0317,0.32808 0,0.16934 0.0952,0.35984 0.0952,0.17991 0.40217,0.22225 -0.0635,0.254 -0.28575,0.42333 -0.46567,0.35983 -0.97367,0.35983 -0.49741,0 -0.79375,-0.17991 -0.29633,-0.17992 -0.381,-0.47625 z" />
    <path
       id="path1016"
       style="font-style:normal;font-variant:normal;font-weight:normal;font-stretch:normal;font-family:'Sansita One';-inkscape-font-specification:'Sansita One';text-align:start;text-anchor:start;fill:#ffffff;stroke-width:0.26458335"
       d="m 159.81444,194.21508 q -0.24342,-0.27517 -0.35983,-0.70909 -0.10584,-0.43391 -0.10584,-1.143 0,-0.70908 0.24342,-1.35466 0.24342,-0.64559 0.68792,-1.11125 0.91016,-0.97367 2.413,-0.97367 0.53975,0 0.93133,0.17992 l 1.80975,-0.17992 -0.78317,4.1275 q -0.0317,0.127 -0.0317,0.35983 0,0.23284 0.13759,0.381 0.14816,0.14817 0.35983,0.16934 -0.10583,0.35983 -0.49742,0.5715 -0.381,0.21166 -0.81491,0.21166 -0.43392,0 -0.73025,-0.16933 -0.28575,-0.15875 -0.37042,-0.43392 -0.16933,0.26459 -0.52917,0.43392 -0.35983,0.16933 -0.84666,0.16933 -0.47625,0 -0.86784,-0.127 -0.39158,-0.127 -0.64558,-0.40216 z m 2.23308,-4.29684 q -0.11641,0.1905 -0.22225,0.51859 -0.10583,0.3175 -0.28575,1.18533 -0.16933,0.85725 -0.16933,1.47108 0,0.61384 0.0952,0.79375 0.0952,0.17992 0.26458,0.17992 0.33867,0 0.58209,-0.3175 0.254,-0.32808 0.34925,-0.89958 l 0.56091,-3.10092 q -0.22225,-0.1905 -0.48683,-0.1905 -0.254,0 -0.41275,0.0847 -0.14817,0.0847 -0.27517,0.27516 z" />
    <path
       id="path1018"
       style="font-style:normal;font-variant:normal;font-weight:normal;font-stretch:normal;font-family:'Sansita One';-inkscape-font-specification:'Sansita One';text-align:start;text-anchor:start;fill:#ffffff;stroke-width:0.26458335"
       d="m 168.5447,193.95049 q -0.32808,0.79375 -1.37583,0.79375 -0.52917,0 -0.86784,-0.37041 -0.27516,-0.30692 -0.27516,-0.65617 0,-0.79375 0.37041,-2.52942 l 0.77259,-4.064 2.14841,-0.21166 -1.02658,5.35516 q -0.17992,0.78317 -0.17992,1.05834 0,0.60325 0.43392,0.62441 z" />
    <path
       id="path1020"
       style="font-style:normal;font-variant:normal;font-weight:normal;font-stretch:normal;font-family:'Sansita One';-inkscape-font-specification:'Sansita One';text-align:start;text-anchor:start;fill:#ffffff;stroke-width:0.26458335"
       d="m 169.34076,194.47966 1.3335,-6.93208 q 1.24883,-0.10584 2.05317,-0.10584 0.80433,0 1.32291,0.0741 0.51859,0.0635 0.86784,0.24341 0.6985,0.33867 0.6985,1.27 0,0.53975 -0.46567,0.99484 -0.43392,0.41275 -0.91017,0.508 0.508,0.0847 0.86784,0.46566 0.381,0.40217 0.381,1.02659 0,1.2065 -0.89959,1.91558 -0.89958,0.6985 -2.667,0.6985 -1.21708,0 -2.58233,-0.15875 z m 2.3495,-0.61383 q 0.0952,0.0106 0.11642,0.0106 h 0.0952 q 0.86783,0 1.23825,-0.5715 0.27516,-0.4445 0.27516,-1.25942 0,-0.43391 -0.28575,-0.66675 -0.27516,-0.23283 -0.91016,-0.254 z m 2.13783,-4.826 q 0,-0.87842 -0.84666,-0.87842 h -0.0952 q -0.0423,0 -0.10584,0.0106 l -0.42333,2.23309 h 0.10583 q 1.36525,-0.0317 1.36525,-1.36525 z" />
    <path
       id="path1022"
       style="font-style:normal;font-variant:normal;font-weight:normal;font-stretch:normal;font-family:'Sansita One';-inkscape-font-specification:'Sansita One';text-align:start;text-anchor:start;fill:#ffffff;stroke-width:0.26458335"
       d="m 178.49237,194.74424 q -2.32833,0 -2.32833,-2.19075 0,-1.55575 0.85725,-2.56116 0.91016,-1.06892 2.48708,-1.06892 1.143,0 1.72508,0.52917 0.58209,0.52916 0.58209,1.64041 0,1.69334 -0.91017,2.67759 -0.889,0.97366 -2.413,0.97366 z m 0.27517,-4.60375 q -0.127,0.28575 -0.23284,0.71967 -0.0952,0.42333 -0.22225,1.10067 -0.127,0.67733 -0.127,1.51341 0,0.27517 0.0847,0.45509 0.0953,0.17991 0.33867,0.17991 0.24341,0 0.39158,-0.11641 0.15875,-0.11642 0.27517,-0.39159 0.21166,-0.48683 0.381,-1.38641 0.16933,-0.91017 0.17991,-1.30175 0.0212,-0.39159 0.0212,-0.67734 0,-0.29633 -0.0847,-0.48683 -0.0847,-0.1905 -0.32808,-0.1905 -0.23283,0 -0.39158,0.14817 -0.15875,0.14816 -0.28575,0.43391 z" />
    <path
       id="path1024"
       style="font-style:normal;font-variant:normal;font-weight:normal;font-stretch:normal;font-family:'Sansita One';-inkscape-font-specification:'Sansita One';text-align:start;text-anchor:start;fill:#ffffff;stroke-width:0.26458335"
       d="m 183.81463,194.56433 q -0.33866,0.17991 -0.80433,0.17991 -0.46567,0 -0.71967,-0.23283 -0.254,-0.24342 -0.254,-0.6985 0,-0.46567 0.3175,-0.91017 0.32809,-0.45508 0.80434,-0.70908 0.48683,-0.254 0.8255,-0.40217 l -0.66675,-1.53458 q -0.17992,-0.39158 -0.51859,-0.39158 l -0.0847,0.0106 h -0.0317 q 0.0635,-0.37042 0.49741,-0.65617 0.43392,-0.29633 0.93134,-0.29633 0.80433,0 1.17475,0.80433 l 0.0847,0.16934 0.45509,1.12183 q 0.28575,-0.127 0.40216,-0.35983 0.127,-0.24342 0.127,-0.70909 0,-0.47625 -0.254,-0.77258 0.40217,-0.254 0.93134,-0.254 0.9525,0 0.9525,0.92075 0,1.00542 -1.25942,1.5875 l -0.635,0.29633 0.5715,1.47109 q 0.16933,0.4445 0.47625,0.635 0.127,0.0847 0.27517,0.0952 -0.3175,0.51858 -1.00542,0.75141 -0.21167,0.0635 -0.49742,0.0635 -0.28575,0 -0.61383,-0.20108 -0.32808,-0.1905 -0.4445,-0.49742 l -0.58208,-1.51341 q -0.59267,0.26458 -0.59267,1.22766 0,0.4445 0.13758,0.80434 z" />
    <path
       id="path1026"
       style="font-style:normal;font-variant:normal;font-weight:normal;font-stretch:normal;font-family:'Sansita One';-inkscape-font-specification:'Sansita One';text-align:start;text-anchor:start;fill:#ffffff;stroke-width:0.26458335"
       d="m 139.76116,207.37837 q -0.32808,0.79375 -1.37583,0.79375 -0.53975,0 -0.87842,-0.37042 -0.28575,-0.32808 -0.28575,-0.65617 0,-0.85725 0.39158,-2.52941 l 0.39159,-2.05317 2.14841,-0.21167 -0.64558,3.34434 q -0.17992,0.78316 -0.17992,1.05833 0,0.60325 0.43392,0.62442 z m -1.56633,-6.2865 q 0,-0.41275 0.33866,-0.635 0.34925,-0.22225 0.84667,-0.22225 0.49742,0 0.79375,0.22225 0.30692,0.22225 0.30692,0.635 0,0.41275 -0.33867,0.62441 -0.32808,0.21167 -0.8255,0.21167 -0.49742,0 -0.81492,-0.21167 -0.30691,-0.21166 -0.30691,-0.62441 z" />
    <path
       id="path1028"
       style="font-style:normal;font-variant:normal;font-weight:normal;font-stretch:normal;font-family:'Sansita One';-inkscape-font-specification:'Sansita One';text-align:start;text-anchor:start;fill:#ffffff;stroke-width:0.26458335"
       d="m 145.12923,208.17212 q -1.28059,0 -1.28059,-0.99484 0.0106,-0.27516 0.0953,-0.74083 l 0.1905,-0.97367 q 0.28575,-1.37583 0.28575,-1.68275 0,-0.61383 -0.35983,-0.61383 -0.60325,0 -0.92075,1.57692 l -0.62442,3.21733 -2.12725,0.21167 1.10067,-5.61975 1.73567,-0.20109 -0.16934,1.03717 q 0.49742,-1.03717 2.02142,-1.03717 0.74083,0 1.04775,0.3175 0.3175,0.30692 0.3175,1.00542 0,0.65617 -0.33867,2.19075 -0.15875,0.68792 -0.15875,0.9525 0,0.254 0.13759,0.40217 0.14816,0.14816 0.35983,0.16933 -0.10583,0.35983 -0.47625,0.5715 -0.35983,0.21167 -0.83608,0.21167 z" />
    <path
       id="path1030"
       style="font-style:normal;font-variant:normal;font-weight:normal;font-stretch:normal;font-family:'Sansita One';-inkscape-font-specification:'Sansita One';text-align:start;text-anchor:start;fill:#ffffff;stroke-width:0.26458335"
       d="m 125.80663,216.99622 q 0,4.5085 -4.8895,4.5085 -0.78316,0 -2.07433,-0.1905 l 1.18533,-6.25475 q 0.0847,-0.42333 0.13759,-0.66675 1.60866,-0.11641 2.31775,-0.11641 0.71966,0 1.37583,0.14816 0.65617,0.14817 1.09008,0.47625 0.85725,0.64559 0.85725,2.0955 z m -2.18016,-0.39158 q 0,-1.57692 -1.13242,-1.57692 h -0.10583 q -0.0529,0 -0.10584,0.0106 l -1.09008,5.68325 q 0.0423,0.0212 0.0847,0.0212 h 0.0847 q 0.39159,0 0.79375,-0.24341 0.41275,-0.24342 0.73025,-0.74084 0.74084,-1.15358 0.74084,-3.15383 z" />
    <path
       id="path1032"
       style="font-style:normal;font-variant:normal;font-weight:normal;font-stretch:normal;font-family:'Sansita One';-inkscape-font-specification:'Sansita One';text-align:start;text-anchor:start;fill:#ffffff;stroke-width:0.26458335"
       d="m 130.62437,219.59972 q 0.26458,0.17992 0.26458,0.58209 0,0.39158 -0.20108,0.64558 -0.20109,0.254 -0.52917,0.42333 -0.67733,0.34925 -1.40758,0.34925 -0.73025,0 -1.16417,-0.15875 -0.42333,-0.15875 -0.70908,-0.45508 -0.56092,-0.56092 -0.56092,-1.5875 0,-1.59808 0.86783,-2.57175 0.93134,-1.04775 2.55059,-1.04775 1.00541,0 1.50283,0.42333 0.37042,0.3175 0.37042,0.83609 0,1.86266 -3.21734,1.86266 -0.0423,0.27517 -0.0423,0.508 0,0.48684 0.21167,0.67734 0.22225,0.17991 0.62441,0.17991 0.40217,0 0.8255,-0.17991 0.43392,-0.1905 0.61384,-0.48684 z m -2.159,-1.15358 q 0.75141,0 1.18533,-0.46567 0.43392,-0.4445 0.43392,-1.15358 0,-0.24342 -0.0952,-0.37042 -0.0847,-0.13758 -0.26459,-0.13758 -0.17991,0 -0.33866,0.0741 -0.14817,0.0635 -0.30692,0.29634 -0.39158,0.52916 -0.61383,1.75683 z" />
    <path
       id="path1034"
       style="font-style:normal;font-variant:normal;font-weight:normal;font-stretch:normal;font-family:'Sansita One';-inkscape-font-specification:'Sansita One';text-align:start;text-anchor:start;fill:#ffffff;stroke-width:0.26458335"
       d="m 131.82293,220.88031 1.31233,-6.90034 2.14842,-0.21166 -0.32809,1.61925 q -0.11641,0.49741 -0.26458,0.84666 0.23283,-0.29633 0.74083,-0.41275 0.14817,-0.0423 0.32809,-0.0423 0.98425,0 1.524,0.60325 0.53975,0.59267 0.53975,1.74625 0,1.50283 -0.85725,2.44475 -0.92075,1.02658 -2.59292,1.02658 -1.15358,0 -2.02142,-0.381 -0.30691,-0.13758 -0.52916,-0.33866 z m 2.12725,-0.0953 q 0.22225,0.1905 0.49741,0.1905 0.27517,0 0.43392,-0.10584 0.15875,-0.10583 0.27517,-0.3175 0.3175,-0.5715 0.5715,-2.31775 0.0741,-0.49741 0.0741,-0.99483 0,-0.49742 -0.11642,-0.65617 -0.10583,-0.15875 -0.3175,-0.15875 -0.64558,0 -0.85725,1.25942 z" />
    <path
       id="path1036"
       style="font-style:normal;font-variant:normal;font-weight:normal;font-stretch:normal;font-family:'Sansita One';-inkscape-font-specification:'Sansita One';text-align:start;text-anchor:start;fill:#ffffff;stroke-width:0.26458335"
       d="m 140.99107,220.80622 q -0.32808,0.79375 -1.37583,0.79375 -0.53975,0 -0.87842,-0.37041 -0.28575,-0.32809 -0.28575,-0.65617 0,-0.85725 0.39158,-2.52942 l 0.39159,-2.05316 2.14841,-0.21167 -0.64558,3.34433 q -0.17992,0.78317 -0.17992,1.05834 0,0.60325 0.43392,0.62441 z m -1.56633,-6.2865 q 0,-0.41275 0.33866,-0.635 0.34925,-0.22225 0.84667,-0.22225 0.49742,0 0.79375,0.22225 0.30692,0.22225 0.30692,0.635 0,0.41275 -0.33867,0.62442 -0.32808,0.21167 -0.8255,0.21167 -0.49742,0 -0.81492,-0.21167 -0.30691,-0.21167 -0.30691,-0.62442 z" />
    <path
       id="path1038"
       style="font-style:normal;font-variant:normal;font-weight:normal;font-stretch:normal;font-family:'Sansita One';-inkscape-font-specification:'Sansita One';text-align:start;text-anchor:start;fill:#ffffff;stroke-width:0.26458335"
       d="m 142.33747,221.07081 q -0.24342,-0.27517 -0.35983,-0.70909 -0.10584,-0.43391 -0.10584,-1.143 0,-0.70908 0.24342,-1.35466 0.24342,-0.64559 0.68792,-1.11125 0.91016,-0.97367 2.413,-0.97367 0.53975,0 0.93133,0.17992 l 1.80975,-0.17992 -0.78317,4.1275 q -0.0317,0.127 -0.0317,0.35983 0,0.23284 0.13759,0.381 0.14816,0.14817 0.35983,0.16934 -0.10583,0.35983 -0.49742,0.5715 -0.381,0.21166 -0.81491,0.21166 -0.43392,0 -0.73025,-0.16933 -0.28575,-0.15875 -0.37042,-0.43392 -0.16933,0.26459 -0.52917,0.43392 -0.35983,0.16933 -0.84666,0.16933 -0.47625,0 -0.86784,-0.127 -0.39158,-0.127 -0.64558,-0.40216 z m 2.23308,-4.29684 q -0.11641,0.1905 -0.22225,0.51859 -0.10583,0.3175 -0.28575,1.18533 -0.16933,0.85725 -0.16933,1.47108 0,0.61384 0.0952,0.79375 0.0952,0.17992 0.26458,0.17992 0.33867,0 0.58209,-0.3175 0.254,-0.32808 0.34925,-0.89958 l 0.56091,-3.10092 q -0.22225,-0.1905 -0.48683,-0.1905 -0.254,0 -0.41275,0.0847 -0.14817,0.0847 -0.27517,0.27516 z" />
    <path
       id="path1040"
       style="font-style:normal;font-variant:normal;font-weight:normal;font-stretch:normal;font-family:'Sansita One';-inkscape-font-specification:'Sansita One';text-align:start;text-anchor:start;fill:#ffffff;stroke-width:0.26458335"
       d="m 153.01506,221.59997 q -1.28058,0 -1.28058,-0.99483 0.0106,-0.27517 0.0953,-0.74083 l 0.1905,-0.97367 q 0.28575,-1.37583 0.28575,-1.68275 0,-0.61383 -0.35984,-0.61383 -0.60325,0 -0.92075,1.57691 l -0.62441,3.21734 -2.12725,0.21166 1.10066,-5.61975 1.73567,-0.20108 -0.16933,1.03717 q 0.49741,-1.03717 2.02141,-1.03717 0.74084,0 1.04775,0.3175 0.3175,0.30692 0.3175,1.00542 0,0.65616 -0.33866,2.19075 -0.15875,0.68791 -0.15875,0.9525 0,0.254 0.13758,0.40216 0.14817,0.14817 0.35983,0.16934 -0.10583,0.35983 -0.47625,0.5715 -0.35983,0.21166 -0.83608,0.21166 z" />
    <path
       id="path1042"
       style="font-style:normal;font-variant:normal;font-weight:normal;font-stretch:normal;font-family:'Sansita One';-inkscape-font-specification:'Sansita One';text-align:start;text-anchor:start;fill:#ffffff;stroke-width:0.26458335"
       d="m 159.96947,219.82197 q 0.3175,0.41275 1.06892,0.41275 0.98425,0 1.53458,-0.68791 0.37042,-0.47625 0.53975,-1.3335 -0.27517,0.45508 -0.64558,0.6985 -0.35984,0.23283 -0.86784,0.23283 -0.508,0 -0.83608,-0.17992 -0.3175,-0.17991 -0.51858,-0.47625 -0.381,-0.55033 -0.381,-1.3335 0,-0.78316 0.27516,-1.3335 0.27517,-0.55033 0.71967,-0.92075 0.86783,-0.74083 2.02142,-0.74083 1.00541,0 1.61925,0.65617 0.635,0.6985 0.635,1.94733 0,0.83608 -0.28575,1.69333 -0.28575,0.85725 -0.80434,1.55575 -0.51858,0.6985 -1.22766,1.143 -0.70909,0.4445 -1.51342,0.4445 -0.80433,0 -1.25942,-0.254 -0.45508,-0.254 -0.45508,-0.71966 0,-0.508 0.381,-0.80434 z m 1.92617,-3.78883 q -0.0952,0.28575 -0.13759,0.58208 -0.0317,0.28575 -0.0317,0.5715 0,0.28575 0.15875,0.55034 0.16934,0.26458 0.39159,0.26458 0.22225,0 0.39158,-0.127 0.17992,-0.127 0.32808,-0.34925 0.30692,-0.48683 0.30692,-1.06892 0,-0.58208 -0.1905,-0.84666 -0.17992,-0.27517 -0.47625,-0.27517 -0.29633,0 -0.47625,0.21167 -0.16933,0.20108 -0.26458,0.48683 z" />
  </g>
</svg>
