<?xml version="1.0" encoding="UTF-8" standalone="no"?>
<svg
   xmlns:dc="http://purl.org/dc/elements/1.1/"
   xmlns:cc="http://creativecommons.org/ns#"
   xmlns:rdf="http://www.w3.org/1999/02/22-rdf-syntax-ns#"
   xmlns:svg="http://www.w3.org/2000/svg"
   xmlns="http://www.w3.org/2000/svg"
   xmlns:xlink="http://www.w3.org/1999/xlink"
   id="svg3357"
   version="1.1"
   viewBox="0 0 211.40207 119.0625"
   height="119.0625mm"
   width="211.40207mm">
  <defs
     id="defs3351">
    <linearGradient
       id="linearGradient6114">
      <stop
         id="stop6110"
         offset="0"
         style="stop-color:#6f7c91;stop-opacity:1;" />
      <stop
         id="stop6112"
         offset="1"
         style="stop-color:#162d50;stop-opacity:1" />
    </linearGradient>
    <radialGradient
       gradientUnits="userSpaceOnUse"
       gradientTransform="matrix(3.0071285,0,0,1.83657,-125.12732,-58.151445)"
       r="31.67275"
       fy="66.986313"
       fx="73.77433"
       cy="66.986313"
       cx="73.77433"
       id="radialGradient6126"
       xlink:href="#linearGradient6114" />
    <filter
       height="2.5682838"
       y="-0.7841419"
       width="2.6305408"
       x="-0.81527042"
       id="filter2224"
       style="color-interpolation-filters:sRGB">
      <feGaussianBlur
         id="feGaussianBlur2226"
         stdDeviation="7.1879676" />
    </filter>
    <filter
       height="2.5682838"
       y="-0.7841419"
       width="2.7251122"
       x="-0.8625561"
       id="filter2228"
       style="color-interpolation-filters:sRGB">
      <feGaussianBlur
         id="feGaussianBlur2230"
         stdDeviation="7.1879676" />
    </filter>
    <filter
       height="2.349853"
       y="-0.67492652"
       width="3.4644461"
       x="-1.232223"
       id="filter2232"
       style="color-interpolation-filters:sRGB">
      <feGaussianBlur
         id="feGaussianBlur2234"
         stdDeviation="7.1879676" />
    </filter>
    <filter
       height="2.5682838"
       y="-0.7841419"
       width="2.7895355"
       x="-0.89476776"
       id="filter2236"
       style="color-interpolation-filters:sRGB">
      <feGaussianBlur
         id="feGaussianBlur2238"
         stdDeviation="7.1879676" />
    </filter>
    <filter
       height="2.5682838"
       y="-0.7841419"
       width="2.4897342"
       x="-0.74486709"
       id="filter2240"
       style="color-interpolation-filters:sRGB">
      <feGaussianBlur
         id="feGaussianBlur2242"
         stdDeviation="7.1879676" />
    </filter>
    <filter
       height="2.2684648"
       y="-0.6342324"
       width="2.4545634"
       x="-0.72728169"
       id="filter2244"
       style="color-interpolation-filters:sRGB">
      <feGaussianBlur
         id="feGaussianBlur2246"
         stdDeviation="7.1879676" />
    </filter>
    <filter
       height="2.5682838"
       y="-0.7841419"
       width="2.5079651"
       x="-0.7539826"
       id="filter2248"
       style="color-interpolation-filters:sRGB">
      <feGaussianBlur
         id="feGaussianBlur2250"
         stdDeviation="7.1879676" />
    </filter>
    <filter
       height="2.5682838"
       y="-0.7841419"
       width="2.5000975"
       x="-0.75004882"
       id="filter2252"
       style="color-interpolation-filters:sRGB">
      <feGaussianBlur
         id="feGaussianBlur2254"
         stdDeviation="7.1879676" />
    </filter>
    <filter
       height="2.1500747"
       y="-0.57503742"
       width="3.8005068"
       x="-1.4002534"
       id="filter2256"
       style="color-interpolation-filters:sRGB">
      <feGaussianBlur
         id="feGaussianBlur2258"
         stdDeviation="7.1879676" />
    </filter>
    <filter
       height="2.1656165"
       y="-0.5828082"
       width="2.5212629"
       x="-0.7606315"
       id="filter2260"
       style="color-interpolation-filters:sRGB">
      <feGaussianBlur
         id="feGaussianBlur2262"
         stdDeviation="7.1879676" />
    </filter>
    <filter
       height="2.5682838"
       y="-0.7841419"
       width="2.7251122"
       x="-0.8625561"
       id="filter2264"
       style="color-interpolation-filters:sRGB">
      <feGaussianBlur
         id="feGaussianBlur2266"
         stdDeviation="7.1879676" />
    </filter>
    <filter
       height="2.2628932"
       y="-0.63144666"
       width="2.3108754"
       x="-0.65543765"
       id="filter2268"
       style="color-interpolation-filters:sRGB">
      <feGaussianBlur
         id="feGaussianBlur2270"
         stdDeviation="7.1879676" />
    </filter>
    <filter
       height="2.5682838"
       y="-0.7841419"
       width="2.5079651"
       x="-0.7539826"
       id="filter2272"
       style="color-interpolation-filters:sRGB">
      <feGaussianBlur
         id="feGaussianBlur2274"
         stdDeviation="7.1879676" />
    </filter>
    <filter
       height="2.1500747"
       y="-0.57503742"
       width="3.8005068"
       x="-1.4002534"
       id="filter2276"
       style="color-interpolation-filters:sRGB">
      <feGaussianBlur
         id="feGaussianBlur2278"
         stdDeviation="7.1879676" />
    </filter>
    <filter
       height="2.2357538"
       y="-0.61787689"
       width="2.2537153"
       x="-0.62685764"
       id="filter2280"
       style="color-interpolation-filters:sRGB">
      <feGaussianBlur
         id="feGaussianBlur2282"
         stdDeviation="7.1879676" />
    </filter>
    <filter
       height="2.5682838"
       y="-0.7841419"
       width="2.6152737"
       x="-0.8076368"
       id="filter2284"
       style="color-interpolation-filters:sRGB">
      <feGaussianBlur
         id="feGaussianBlur2286"
         stdDeviation="7.1879676" />
    </filter>
    <filter
       height="2.2684648"
       y="-0.6342324"
       width="2.4545634"
       x="-0.72728169"
       id="filter2288"
       style="color-interpolation-filters:sRGB">
      <feGaussianBlur
         id="feGaussianBlur2290"
         stdDeviation="7.1879676" />
    </filter>
    <filter
       height="2.1656165"
       y="-0.5828082"
       width="3.7734923"
       x="-1.3867462"
       id="filter2292"
       style="color-interpolation-filters:sRGB">
      <feGaussianBlur
         id="feGaussianBlur2294"
         stdDeviation="7.1879676" />
    </filter>
    <filter
       height="2.5682838"
       y="-0.7841419"
       width="2.5000975"
       x="-0.75004882"
       id="filter2296"
       style="color-interpolation-filters:sRGB">
      <feGaussianBlur
         id="feGaussianBlur2298"
         stdDeviation="7.1879676" />
    </filter>
    <filter
       height="2.5682838"
       y="-0.7841419"
       width="2.4897342"
       x="-0.74486709"
       id="filter2300"
       style="color-interpolation-filters:sRGB">
      <feGaussianBlur
         id="feGaussianBlur2302"
         stdDeviation="7.1879676" />
    </filter>
    <filter
       height="2.349853"
       y="-0.67492652"
       width="3.4644461"
       x="-1.232223"
       id="filter2304"
       style="color-interpolation-filters:sRGB">
      <feGaussianBlur
         id="feGaussianBlur2306"
         stdDeviation="7.1879676" />
    </filter>
    <filter
       height="2.5682838"
       y="-0.7841419"
       width="2.6305408"
       x="-0.81527042"
       id="filter2308"
       style="color-interpolation-filters:sRGB">
      <feGaussianBlur
         id="feGaussianBlur2310"
         stdDeviation="7.1879676" />
    </filter>
    <filter
       height="2.1500747"
       y="-0.57503742"
       width="3.8005068"
       x="-1.4002535"
       id="filter2312"
       style="color-interpolation-filters:sRGB">
      <feGaussianBlur
         id="feGaussianBlur2314"
         stdDeviation="7.1879676" />
    </filter>
    <filter
       height="2.2684648"
       y="-0.6342324"
       width="2.3756876"
       x="-0.6878438"
       id="filter2316"
       style="color-interpolation-filters:sRGB">
      <feGaussianBlur
         id="feGaussianBlur2318"
         stdDeviation="7.1879676" />
    </filter>
    <filter
       height="2.1656165"
       y="-0.5828082"
       width="3.7734923"
       x="-1.3867462"
       id="filter2320"
       style="color-interpolation-filters:sRGB">
      <feGaussianBlur
         id="feGaussianBlur2322"
         stdDeviation="7.1879676" />
    </filter>
    <filter
       height="2.1656165"
       y="-0.5828082"
       width="3.7734923"
       x="-1.3867462"
       id="filter2324"
       style="color-interpolation-filters:sRGB">
      <feGaussianBlur
         id="feGaussianBlur2326"
         stdDeviation="7.1879676" />
    </filter>
    <filter
       height="2.5682838"
       y="-0.7841419"
       width="2.5000975"
       x="-0.75004882"
       id="filter2328"
       style="color-interpolation-filters:sRGB">
      <feGaussianBlur
         id="feGaussianBlur2330"
         stdDeviation="7.1879676" />
    </filter>
    <filter
       height="2.349853"
       y="-0.67492652"
       width="3.4644461"
       x="-1.232223"
       id="filter2332"
       style="color-interpolation-filters:sRGB">
      <feGaussianBlur
         id="feGaussianBlur2334"
         stdDeviation="7.1879676" />
    </filter>
    <filter
       height="2.5682838"
       y="-0.7841419"
       width="2.7895355"
       x="-0.89476776"
       id="filter2336"
       style="color-interpolation-filters:sRGB">
      <feGaussianBlur
         id="feGaussianBlur2338"
         stdDeviation="7.1879676" />
    </filter>
    <filter
       height="2.5682838"
       y="-0.7841419"
       width="2.5079651"
       x="-0.7539826"
       id="filter2340"
       style="color-interpolation-filters:sRGB">
      <feGaussianBlur
         id="feGaussianBlur2342"
         stdDeviation="7.1879676" />
    </filter>
    <filter
       height="2.3069031"
       y="-0.65345162"
       width="3.4857526"
       x="-1.2428762"
       id="filter2344"
       style="color-interpolation-filters:sRGB">
      <feGaussianBlur
         id="feGaussianBlur2346"
         stdDeviation="7.1879676" />
    </filter>
    <filter
       style="color-interpolation-filters:sRGB"
       id="filter1961"
       x="-0.67438167"
       width="2.3487632"
       y="-0.50266856"
       height="2.005337">
      <feGaussianBlur
         stdDeviation="5.8896001"
         id="feGaussianBlur1963" />
    </filter>
  </defs>
  <metadata
     id="metadata3354">
    <rdf:RDF>
      <cc:Work
         rdf:about="">
        <dc:format>image/svg+xml</dc:format>
        <dc:type
           rdf:resource="http://purl.org/dc/dcmitype/StillImage" />
        <dc:title></dc:title>
      </cc:Work>
    </rdf:RDF>
  </metadata>
  <path
     style="opacity:1;fill:#ff9900;fill-opacity:1;stroke:none;stroke-width:4.38045835;stroke-miterlimit:4;stroke-dasharray:none;paint-order:stroke markers fill"
     d="M 0,0 H 211.40207 V 119.0625 H 0 Z"
     id="rect6108" />
  <g
     transform="matrix(1.1097917,0,0,1.0234149,-1.6397721,-6.8613634)"
     style="font-style:normal;font-weight:normal;font-size:40px;line-height:1.25;font-family:sans-serif;letter-spacing:0px;word-spacing:0px;fill:#000000;fill-opacity:1;stroke:none"
     id="flowRoot874" />
  <g
     transform="translate(-1.4775493,-3.9803138)"
     style="font-style:normal;font-weight:normal;font-size:40px;line-height:1.25;font-family:sans-serif;letter-spacing:0px;word-spacing:0px;fill:#000000;fill-opacity:1;stroke:none"
     id="flowRoot1087" />
  <g
     style="display:inline"
     id="g4921"
     transform="matrix(1.1825108,0,0,1.2934259,-92.395152,-89.411228)">
    <g
       transform="translate(50.270828)"
       id="g4720">
      <g
         id="g4694"
         transform="translate(-47.638093,1.3360133)"
         style="fill:#333333">
        <path
           style="fill:#333333;stroke:none;stroke-width:0.26458347px;stroke-linecap:butt;stroke-linejoin:miter;stroke-opacity:1"
           d="m 144.21101,139.55982 c 0,0 5.43081,5.83681 7.33498,3.79847 2.22288,-2.37952 -12.62665,-36.87139 -12.62665,-36.87139"
           id="path835" />
        <path
           id="path817"
           d="m 97.450493,140.21473 c 7.815327,4.80271 15.630577,9.60538 23.402247,9.51796 7.77167,-0.0874 15.49967,-5.06478 19.38543,-7.57529 3.88576,-2.5105 3.92946,-2.5542 3.97284,-2.59758"
           style="fill:#333333;stroke:none;stroke-width:0.26458332px;stroke-linecap:butt;stroke-linejoin:miter;stroke-opacity:1" />
        <path
           id="path825"
           d="m 97.450491,140.21473 c 0,0 -5.430812,5.83681 -7.33498,3.79847 -2.222882,-2.37952 12.820499,-36.99713 12.820499,-36.99713"
           style="fill:#333333;stroke:none;stroke-width:0.26458332px;stroke-linecap:butt;stroke-linejoin:miter;stroke-opacity:1" />
        <path
           transform="matrix(1.0226412,0,0,1.0473654,-2.3339152,-3.6688483)"
           id="path831"
           d="m 102.93926,105.67937 c 0.0862,-6.905162 0.17248,-13.810016 1.50935,-18.736088 1.33687,-4.926072 3.92412,-7.873272 9.74546,-9.346742 5.82134,-1.473471 14.87673,-1.473471 19.40429,3.368239 4.52756,4.84171 4.52756,14.525398 4.52756,24.209361"
           style="fill:#333333;stroke:none;stroke-width:0.26458332px;stroke-linecap:butt;stroke-linejoin:miter;stroke-opacity:1" />
      </g>
      <g
         id="g4708">
        <path
           id="path4696"
           d="m 49.741667,141.68958 c 0,0 3.615973,-22.40139 5.55625,-33.60208 l 35.983333,-0.26458 6.614583,33.07291 z"
           style="fill:#333333;stroke:none;stroke-width:0.26458332px;stroke-linecap:butt;stroke-linejoin:miter;stroke-opacity:1" />
        <path
           style="opacity:1;fill:#333333;fill-opacity:1;stroke:none;stroke-width:0.26458332"
           d="m 55.5625,138.25 h 37.041668 v 3.96875 H 55.5625 Z"
           id="rect4698" />
        <path
           style="opacity:1;fill:#333333;fill-opacity:1;stroke:none;stroke-width:0.26458332"
           d="m 59.53125,106.5 h 30.427082 v 3.96875 H 59.53125 Z"
           id="rect4700" />
        <path
           style="opacity:1;fill:#333333;fill-opacity:1;stroke:none;stroke-width:0.26458332"
           d="m 84.666664,105.17708 h 5.291669 v 3.96875 h -5.291669 z"
           id="rect4702" />
      </g>
    </g>
    <path
       d="m 138.70455,126.61246 a 15.239734,15.867999 0 0 1 -15.17522,15.86785 15.239734,15.867999 0 0 1 -15.3037,-15.73349 15.239734,15.867999 0 0 1 15.04563,-16.00108 15.239734,15.867999 0 0 1 15.4311,15.59801"
       id="path843"
       style="opacity:1;fill:#e6e6e6;fill-opacity:1;stroke:none;stroke-width:0.26458332" />
    <g
       transform="translate(44.751274,16.383515)"
       id="g4688">
      <g
         id="g4596"
         transform="translate(-41.01042,-15.875)"
         style="fill:#ff6600;stroke:none">
        <path
           id="path4585"
           d="m 111.125,110.46875 c 2.9216,-2.67614 5.84316,-5.35225 8.7091,-5.35212 2.86595,1.3e-4 5.6775,2.67624 8.48882,5.35212"
           style="fill:#ff6600;stroke:none;stroke-width:0.26458332px;stroke-linecap:butt;stroke-linejoin:miter;stroke-opacity:1" />
        <path
           id="path4589"
           d="m 111.125,110.46875 c 2.77957,3.92198 5.48174,5.31906 8.73125,6.61458"
           style="fill:#ff6600;stroke:none;stroke-width:0.26458332px;stroke-linecap:butt;stroke-linejoin:miter;stroke-opacity:1" />
        <path
           id="path4591"
           d="m 128.32292,110.46875 c -1.04604,3.82945 -4.9192,5.32533 -8.46667,6.61458"
           style="fill:#ff6600;stroke:none;stroke-width:0.26458332px;stroke-linecap:butt;stroke-linejoin:miter;stroke-opacity:1" />
      </g>
      <g
         style="fill:#ff6600;stroke:none"
         transform="translate(-41.01042,-15.875)"
         id="g4661">
        <path
           style="fill:#ff6600;stroke:none;stroke-width:0.26458332px;stroke-linecap:butt;stroke-linejoin:miter;stroke-opacity:1"
           d="m 111.125,110.46875 c 2.9216,-2.67614 5.84316,-5.35225 8.7091,-5.35212 2.86595,1.3e-4 5.6775,2.67624 8.48882,5.35212"
           id="path4655" />
        <path
           style="fill:#ff6600;stroke:none;stroke-width:0.26458332px;stroke-linecap:butt;stroke-linejoin:miter;stroke-opacity:1"
           d="m 111.125,110.46875 c 2.77957,3.92198 5.48174,5.31906 8.73125,6.61458"
           id="path4657" />
        <path
           style="fill:#ff6600;stroke:none;stroke-width:0.26458332px;stroke-linecap:butt;stroke-linejoin:miter;stroke-opacity:1"
           d="m 128.32292,110.46875 c -1.04604,3.82945 -4.9192,5.32533 -8.46667,6.61458"
           id="path4659" />
      </g>
      <path
         style="opacity:1;fill:#ff6600;fill-opacity:1;stroke:none;stroke-width:0.26458332"
         id="path4671"
         d="m 78.845833,101.20833 -4.582718,-2.645833 v -5.291666 l 4.582718,-2.645833 4.582717,2.645833 v 5.291666 z" />
      <path
         style="opacity:1;fill:#ff6600;fill-opacity:1;stroke:none;stroke-width:0.26458332"
         id="path4673"
         d="m 83.608335,99.620834 2.319854,-2.397701 0.916543,3.207907 z"
         transform="matrix(0.94729327,-1.274616,1.0295753,1.1727506,-98.356248,87.506876)" />
      <path
         style="opacity:1;fill:#ff6600;fill-opacity:1;stroke:none;stroke-width:0.26458332"
         id="path4675"
         d="m 74.536294,98.196559 -3.844516,-2.340158 3.948894,-2.159369 z"
         transform="matrix(1.141627,0.11210349,-0.08749549,1.2944633,-2.2020547,-37.413635)" />
    </g>
    <path
       transform="scale(0.26458333)"
       id="path4722"
       d="m 457.97263,570.35612 c -18.79507,-2.12161 -40.18257,-11.27811 -71.63974,-30.67068 -8.13959,-5.01787 -8.02372,-4.97631 -9.49602,-3.40625 -1.98328,2.11498 -9.29175,8.28788 -11.94887,10.09229 -7.55689,5.13179 -13.40276,5.68891 -14.83103,1.41342 -1.63872,-4.90546 5.4376,-28.95935 18.84332,-64.05245 9.54282,-24.98091 28.41577,-70.80369 29.41653,-71.42219 0.22811,-0.14098 0.37499,-0.42288 0.3264,-0.62644 -0.0486,-0.20356 0.0318,-0.82849 0.17857,-1.38874 0.14681,-0.56024 0.45269,-8.53609 0.67974,-17.7241 0.63732,-25.79 1.66538,-38.59108 4.07232,-50.7069 4.32594,-21.77558 13.30666,-33.82393 30.11939,-40.40761 16.87389,-6.60764 39.99439,-8.13907 57.78976,-3.82784 20.7168,5.019 32.64507,17.2536 38.14208,39.1216 3.4588,13.75967 4.66657,26.50558 4.98055,52.56114 0.20469,16.98608 0.39447,21.14579 0.94912,20.80299 0.62648,-0.38718 21.06718,49.83231 30.13912,74.04694 11.92704,31.8354 17.56985,50.7662 17.56985,58.9443 0,2.59002 -0.1133,3.01447 -1.03188,3.86578 -3.15357,2.92263 -9.30891,0.77622 -18.04824,-6.29354 -2.16747,-1.75339 -5.03522,-4.30389 -6.3728,-5.66777 -1.33757,-1.36388 -2.56841,-2.47978 -2.7352,-2.47978 -0.16679,0 -5.21474,3.17625 -11.21765,7.05833 -6.00292,3.88209 -13.48133,8.58639 -16.6187,10.45401 -26.52636,15.79064 -49.54126,22.54011 -69.26662,20.31349 z m 19.96508,-32.86866 c 5.28911,-1.14072 8.32959,-2.22946 13.85333,-4.9606 18.43404,-9.11449 30.90578,-28.24854 32.34892,-49.62947 0.94243,-13.9626 -2.58151,-27.3736 -10.20264,-38.82794 -3.0137,-4.52952 -10.61003,-12.34927 -14.86401,-15.30119 l -2.90399,-2.01514 0.75119,-1.40422 c 0.41315,-0.77232 1.12926,-2.38761 1.59134,-3.58952 1.00562,-2.61573 1.41642,-1.9763 -5.09101,-7.92451 -5.72644,-5.23434 -11.15932,-9.40512 -14.87195,-11.41709 -10.91899,-5.91728 -20.15604,-3.88649 -33.81841,7.43508 -3.40229,2.81937 -10.37133,9.1079 -10.53264,9.50415 -0.0784,0.19273 0.9084,1.72266 2.19301,3.39982 1.28461,1.67718 2.26556,3.10249 2.1799,3.16736 -0.0857,0.0649 -1.43922,0.95947 -3.00791,1.98798 -15.62369,10.24371 -25.66261,28.29897 -26.56551,47.77875 -1.32187,28.5191 16.86115,54.02186 43.57738,61.11985 2.07246,0.55061 5.05159,1.17715 6.62027,1.39232 4.35042,0.59669 14.44506,0.21127 18.74273,-0.71563 z m 70.79456,-4.85226 c -1.62471,-0.0773 -4.28333,-0.0773 -5.90804,0 -1.62471,0.0773 -0.2954,0.14062 2.95402,0.14062 3.24942,0 4.57873,-0.0633 2.95402,-0.14062 z m -16.9092,-125.06569 c -0.39218,-0.10248 -1.03391,-0.10248 -1.42608,0 -0.39217,0.10248 -0.0713,0.18634 0.71304,0.18634 0.78434,0 1.10521,-0.0839 0.71304,-0.18634 z"
       style="opacity:1;fill:#333333;fill-opacity:1;stroke:none;stroke-width:0.40745068" />
    <path
       style="opacity:1;fill:#333333;fill-opacity:1;stroke:none;stroke-width:0.26458332"
       d="m 139.81281,107.16256 h 1.38157 v 1.25205 h -1.38157 z"
       id="rect4846" />
    <g
       id="g4877">
      <path
         d="m 133.36974,95.882912 a 3.0704114,3.0704114 0 0 1 -3.05741,3.070384 3.0704114,3.0704114 0 0 1 -3.0833,-3.044394 3.0704114,3.0704114 0 0 1 3.03132,-3.096154 3.0704114,3.0704114 0 0 1 3.10895,3.018185"
         id="path4860"
         style="opacity:1;fill:#e6e6e6;fill-opacity:1;stroke:none;stroke-width:0.26458332" />
      <g
         id="g4864"
         transform="matrix(0.80841168,0,0,1,68.549895,-7.3051882)">
        <path
           style="opacity:1;fill:#000000;fill-opacity:1;stroke:none;stroke-width:0.26458332"
           id="path4862"
           d="m 77.375031,103.39364 a 1.6372987,1.2321938 0 0 1 -1.630369,1.23218 1.6372987,1.2321938 0 0 1 -1.64417,-1.22175 1.6372987,1.2321938 0 0 1 1.616451,-1.24253 1.6372987,1.2321938 0 0 1 1.657853,1.21124" />
      </g>
    </g>
    <g
       transform="matrix(-1,0,0,1,248.68829,0.27470384)"
       id="g4885">
      <path
         style="opacity:1;fill:#e6e6e6;fill-opacity:1;stroke:none;stroke-width:0.26458332"
         id="path4879"
         d="m 133.36974,95.882912 a 3.0704114,3.0704114 0 0 1 -3.05741,3.070384 3.0704114,3.0704114 0 0 1 -3.0833,-3.044394 3.0704114,3.0704114 0 0 1 3.03132,-3.096154 3.0704114,3.0704114 0 0 1 3.10895,3.018185" />
      <g
         transform="matrix(0.80841168,0,0,1,68.549895,-7.3051882)"
         id="g4883">
        <path
           d="m 77.375031,103.39364 a 1.6372987,1.2321938 0 0 1 -1.630369,1.23218 1.6372987,1.2321938 0 0 1 -1.64417,-1.22175 1.6372987,1.2321938 0 0 1 1.616451,-1.24253 1.6372987,1.2321938 0 0 1 1.657853,1.21124"
           id="path4881"
           style="opacity:1;fill:#000000;fill-opacity:1;stroke:none;stroke-width:0.26458332" />
      </g>
    </g>
  </g>
  <g
     id="flowRoot140"
     style="font-style:normal;font-weight:normal;font-size:40px;line-height:1.25;font-family:sans-serif;letter-spacing:0px;word-spacing:0px;fill:#ffffff;fill-opacity:1;stroke:none"
     transform="matrix(0.36807822,0,0,0.51436034,266.55156,-72.445172)"
     aria-label="Install VirtualBox
in
Debian 9">
    <path
       id="path152"
       style="font-style:italic;font-variant:normal;font-weight:500;font-stretch:normal;font-family:Ubuntu;-inkscape-font-specification:'Ubuntu Medium Italic';text-align:center;text-anchor:middle;fill:#ffffff"
       d="m -510.91187,193.91172 h 5.04 l -6.64001,27.72 h -5.03999 z" />
    <path
       id="path154"
       style="font-style:italic;font-variant:normal;font-weight:500;font-stretch:normal;font-family:Ubuntu;-inkscape-font-specification:'Ubuntu Medium Italic';text-align:center;text-anchor:middle;fill:#ffffff"
       d="m -501.54562,201.59172 q 1.6,-0.48 3.64,-0.88 2.08,-0.44 4.52,-0.44 3.68,0 5.39999,1.8 1.72001,1.8 1.72001,4.84 0,0.84 -0.16,1.8 -0.12,0.92 -0.32001,1.92 l -2.63999,11 h -4.84 l 2.47999,-10.48 q 0.20001,-0.88 0.40001,-1.8 0.2,-0.92 0.24,-1.76 0.04,-1.4 -0.68,-2.32 -0.68,-0.92 -2.72,-0.92 -1.72,0 -2.96,0.36 l -4.04,16.92 h -4.84 z" />
    <path
       id="path156"
       style="font-style:italic;font-variant:normal;font-weight:500;font-stretch:normal;font-family:Ubuntu;-inkscape-font-specification:'Ubuntu Medium Italic';text-align:center;text-anchor:middle;fill:#ffffff"
       d="m -477.80563,218.23172 q 1.92001,0 3.04001,-0.6 1.12,-0.64 1.12,-1.92 0,-1.04 -0.72001,-1.64 -0.71999,-0.64 -2.51999,-1.48 -0.96,-0.44 -1.80001,-0.92 -0.8,-0.48 -1.39999,-1.12 -0.60001,-0.64 -0.96,-1.48 -0.36,-0.88 -0.36,-2.08 0,-3.12 2.27999,-4.96 2.28001,-1.84 6.60001,-1.84 2,0 3.56,0.44 1.59999,0.4 2.4,0.84 l -1.72,3.76 q -0.68,-0.4 -1.96001,-0.76 -1.27999,-0.4 -2.68,-0.4 -0.67999,0 -1.35999,0.12 -0.64001,0.12 -1.16,0.4 -0.52,0.28 -0.88,0.8 -0.32,0.48 -0.32,1.2 0,0.92 0.71999,1.52 0.76001,0.56 2.16001,1.2 1.32,0.6 2.24,1.16 0.92,0.56 1.52,1.28 0.6,0.68 0.87999,1.56 0.28001,0.84 0.28001,2.04 0,1.48 -0.6,2.76 -0.6,1.24 -1.76,2.16 -1.12,0.88 -2.8,1.4 -1.68001,0.52 -3.84,0.52 -1.48,0 -2.68,-0.2 -1.16001,-0.2 -2.04,-0.44 -0.88,-0.28 -1.48,-0.56 -0.6,-0.28 -0.92,-0.48 l 1.71999,-3.8 q 0.28001,0.16 0.80001,0.44 0.56,0.24 1.24,0.48 0.71999,0.24 1.56,0.44 0.88,0.16 1.83999,0.16 z" />
    <path
       id="path158"
       style="font-style:italic;font-variant:normal;font-weight:500;font-stretch:normal;font-family:Ubuntu;-inkscape-font-specification:'Ubuntu Medium Italic';text-align:center;text-anchor:middle;fill:#ffffff"
       d="m -460.54562,195.19172 5.04,-0.8 -1.52,6.32 h 6.83999 l -0.95999,4 h -6.84001 l -2,8.28 q -0.2,0.88 -0.27999,1.48 -0.08,0.56 -0.08,1.04 0,0.48 0.08,0.96 0.12,0.44 0.39999,0.8 0.32001,0.32 0.88,0.56 0.60001,0.2 1.60001,0.2 1.07999,0 2.07999,-0.28 1,-0.28 1.76001,-0.6 l 0.35999,3.88 q -0.91999,0.4 -2.31999,0.76 -1.4,0.36 -3.28,0.36 -3.44,0 -4.92,-1.48 -1.48001,-1.52 -1.48001,-4.12 0,-0.96 0.12001,-1.96 0.16,-1.04 0.43999,-2.2 z" />
    <path
       id="path160"
       style="font-style:italic;font-variant:normal;font-weight:500;font-stretch:normal;font-family:Ubuntu;-inkscape-font-specification:'Ubuntu Medium Italic';text-align:center;text-anchor:middle;fill:#ffffff"
       d="m -432.05,213.51172 q -0.12,0.44 -0.24,1.44 -0.12,1 -0.12,1.88 0,1.16 0.2,2.28 0.2,1.08 0.64,2.2 l -4.32,0.64 q -0.48,-0.96 -0.76,-2.04 -1,0.88 -2.48,1.6 -1.44,0.68 -3.28,0.68 -1.88,0 -3.24,-0.6 -1.32,-0.64 -2.16,-1.72 -0.84,-1.12 -1.24,-2.6 -0.4,-1.48 -0.4,-3.2 0,-2.92 1.04,-5.44 1.04,-2.52 2.88,-4.36 1.88,-1.84 4.44,-2.88 2.56,-1.08 5.6,-1.08 1.56,0 3.12,0.28 1.6,0.24 3.2,0.96 z m -2.64,-9.04 q -0.76,-0.16 -1.72,-0.16 -1.8,0 -3.32,0.8 -1.52,0.76 -2.64,2.08 -1.08,1.28 -1.68,2.96 -0.6,1.68 -0.6,3.52 0,0.92 0.16,1.72 0.16,0.8 0.52,1.4 0.4,0.6 1.04,0.96 0.64,0.36 1.64,0.36 1.28,0 2.24,-0.52 1,-0.56 1.84,-1.48 0.04,-1.04 0.16,-1.96 0.16,-0.92 0.4,-1.84 z" />
    <path
       id="path162"
       style="font-style:italic;font-variant:normal;font-weight:500;font-stretch:normal;font-family:Ubuntu;-inkscape-font-specification:'Ubuntu Medium Italic';text-align:center;text-anchor:middle;fill:#ffffff"
       d="m -419.98625,222.03172 q -1.88,-0.04 -3.2,-0.48 -1.28,-0.44 -2.08,-1.2 -0.76,-0.76 -1.12,-1.8 -0.32,-1.04 -0.32,-2.28 0,-1.28 0.28,-2.68 0.32,-1.44 0.68,-2.84 l 4.64,-19.36 5.04,-0.8 q -1.24,5.24 -2.48,10.44 -1.24,5.16 -2.52,10.4 -0.2,0.84 -0.44,1.68 -0.24,0.8 -0.24,1.6 0,0.68 0,1.28 0.04,0.56 0.32,1 0.32,0.4 0.92,0.68 0.6,0.28 1.56,0.36 z" />
    <path
       id="path164"
       style="font-style:italic;font-variant:normal;font-weight:500;font-stretch:normal;font-family:Ubuntu;-inkscape-font-specification:'Ubuntu Medium Italic';text-align:center;text-anchor:middle;fill:#ffffff"
       d="m -408.03312,222.03172 q -1.88,-0.04 -3.2,-0.48 -1.28,-0.44 -2.08001,-1.2 -0.75999,-0.76 -1.12,-1.8 -0.31999,-1.04 -0.31999,-2.28 0,-1.28 0.28,-2.68 0.32,-1.44 0.68,-2.84 l 4.64,-19.36 5.03999,-0.8 q -1.23999,5.24 -2.47999,10.44 -1.24,5.16 -2.52001,10.4 -0.2,0.84 -0.44,1.68 -0.23999,0.8 -0.23999,1.6 0,0.68 0,1.28 0.04,0.56 0.32,1 0.32,0.4 0.91999,0.68 0.60001,0.28 1.56,0.36 z" />
    <path
       id="path166"
       style="font-style:italic;font-variant:normal;font-weight:500;font-stretch:normal;font-family:Ubuntu;-inkscape-font-specification:'Ubuntu Medium Italic';text-align:center;text-anchor:middle;fill:#ffffff"
       d="m -382.38687,221.63172 h -4.8 q -1.24,-6.44 -2.2,-13.36 -0.96,-6.92 -1.64001,-14.36 h 5.32 q 0.44,5.88 0.96001,11.48 0.56,5.6 1.24,10.28 1.47999,-2.24 3.03999,-4.88 1.60001,-2.64 3.2,-5.44 1.60001,-2.84 3.12,-5.72 1.52001,-2.92 2.88,-5.72 h 5.48001 q -3.76,7.08 -7.84,14.08 -4.04,6.96 -8.76,13.64 z" />
    <path
       id="path168"
       style="font-style:italic;font-variant:normal;font-weight:500;font-stretch:normal;font-family:Ubuntu;-inkscape-font-specification:'Ubuntu Medium Italic';text-align:center;text-anchor:middle;fill:#ffffff"
       d="m -364.28,221.63172 h -4.8 l 5,-20.92 h 4.84 z m 3.6,-24.08 q -1.08,0 -1.88,-0.64 -0.8,-0.64 -0.8,-1.92 0,-1.48 1,-2.44 1.04,-0.96 2.36,-0.96 1.08,0 1.88,0.68 0.84,0.64 0.84,1.92 0,1.48 -1.04,2.44 -1.04,0.92 -2.36,0.92 z" />
    <path
       id="path170"
       style="font-style:italic;font-variant:normal;font-weight:500;font-stretch:normal;font-family:Ubuntu;-inkscape-font-specification:'Ubuntu Medium Italic';text-align:center;text-anchor:middle;fill:#ffffff"
       d="m -342.74063,204.99172 q -0.79999,-0.28 -1.71999,-0.44 -0.92,-0.16 -2.16001,-0.16 -0.68,0 -1.44,0.12 -0.75999,0.08 -1.27999,0.24 l -4.04,16.88 h -4.84 l 4.8,-19.96 q 1.67999,-0.56 3.64,-0.96 1.96,-0.44 4.24,-0.44 0.47999,0 1.08,0.08 0.59999,0.04 1.15999,0.12 0.60001,0.08 1.08001,0.2 0.52,0.12 0.88,0.28 z" />
    <path
       id="path172"
       style="font-style:italic;font-variant:normal;font-weight:500;font-stretch:normal;font-family:Ubuntu;-inkscape-font-specification:'Ubuntu Medium Italic';text-align:center;text-anchor:middle;fill:#ffffff"
       d="m -336.48312,195.19172 5.04,-0.8 -1.52,6.32 h 6.83999 l -0.95999,4 h -6.84001 l -2,8.28 q -0.2,0.88 -0.27999,1.48 -0.08,0.56 -0.08,1.04 0,0.48 0.08,0.96 0.12,0.44 0.39999,0.8 0.32001,0.32 0.88,0.56 0.60001,0.2 1.60001,0.2 1.07999,0 2.07999,-0.28 1,-0.28 1.76001,-0.6 l 0.35999,3.88 q -0.91999,0.4 -2.31999,0.76 -1.4,0.36 -3.28,0.36 -3.44,0 -4.92,-1.48 -1.48001,-1.52 -1.48001,-4.12 0,-0.96 0.12001,-1.96 0.16,-1.04 0.43999,-2.2 z" />
    <path
       id="path174"
       style="font-style:italic;font-variant:normal;font-weight:500;font-stretch:normal;font-family:Ubuntu;-inkscape-font-specification:'Ubuntu Medium Italic';text-align:center;text-anchor:middle;fill:#ffffff"
       d="m -304.8675,200.71172 -2.96,12.44 q -0.2,0.92 -0.32,1.84 -0.08,0.92 -0.08,1.84 0,1.16 0.16,2.28 0.2,1.12 0.64,2.2 l -4.32,0.64 q -0.24,-0.44 -0.44,-0.96 -0.16,-0.56 -0.32,-1.12 -1,0.8 -2.48,1.56 -1.48,0.72 -3.44,0.72 -1.76,0 -3,-0.52 -1.24,-0.52 -2.04,-1.4 -0.76,-0.92 -1.12,-2.12 -0.32,-1.24 -0.32,-2.6 0,-1.76 0.48,-3.8 l 2.64,-11 h 4.84 l -2.6,10.88 q -0.52,2.08 -0.52,3.4 0,0.64 0.12,1.2 0.12,0.56 0.4,1 0.32,0.4 0.84,0.64 0.56,0.24 1.36,0.24 1.32,0 2.36,-0.52 1.04,-0.56 1.92,-1.48 0.12,-1.72 0.56,-3.52 l 2.8,-11.84 z" />
    <path
       id="path176"
       style="font-style:italic;font-variant:normal;font-weight:500;font-stretch:normal;font-family:Ubuntu;-inkscape-font-specification:'Ubuntu Medium Italic';text-align:center;text-anchor:middle;fill:#ffffff"
       d="m -285.33125,213.51172 q -0.12,0.44 -0.24,1.44 -0.12,1 -0.12,1.88 0,1.16 0.2,2.28 0.2,1.08 0.64,2.2 l -4.32,0.64 q -0.48,-0.96 -0.76,-2.04 -1,0.88 -2.48,1.6 -1.44,0.68 -3.28,0.68 -1.88,0 -3.24,-0.6 -1.32,-0.64 -2.16,-1.72 -0.84,-1.12 -1.24,-2.6 -0.4,-1.48 -0.4,-3.2 0,-2.92 1.04,-5.44 1.04,-2.52 2.88,-4.36 1.88,-1.84 4.44,-2.88 2.56,-1.08 5.6,-1.08 1.56,0 3.12,0.28 1.6,0.24 3.2,0.96 z m -2.64,-9.04 q -0.76,-0.16 -1.72,-0.16 -1.8,0 -3.32,0.8 -1.52,0.76 -2.64,2.08 -1.08,1.28 -1.68,2.96 -0.6,1.68 -0.6,3.52 0,0.92 0.16,1.72 0.16,0.8 0.52,1.4 0.4,0.6 1.04,0.96 0.64,0.36 1.64,0.36 1.28,0 2.24,-0.52 1,-0.56 1.84,-1.48 0.04,-1.04 0.16,-1.96 0.16,-0.92 0.4,-1.84 z" />
    <path
       id="path178"
       style="font-style:italic;font-variant:normal;font-weight:500;font-stretch:normal;font-family:Ubuntu;-inkscape-font-specification:'Ubuntu Medium Italic';text-align:center;text-anchor:middle;fill:#ffffff"
       d="m -273.2675,222.03172 q -1.88,-0.04 -3.2,-0.48 -1.28,-0.44 -2.08,-1.2 -0.76,-0.76 -1.12,-1.8 -0.32,-1.04 -0.32,-2.28 0,-1.28 0.28,-2.68 0.32,-1.44 0.68,-2.84 l 4.64,-19.36 5.04,-0.8 q -1.24,5.24 -2.48,10.44 -1.24,5.16 -2.52,10.4 -0.2,0.84 -0.44,1.68 -0.24,0.8 -0.24,1.6 0,0.68 0,1.28 0.04,0.56 0.32,1 0.32,0.4 0.92,0.68 0.6,0.28 1.56,0.36 z" />
    <path
       id="path180"
       style="font-style:italic;font-variant:normal;font-weight:500;font-stretch:normal;font-family:Ubuntu;-inkscape-font-specification:'Ubuntu Medium Italic';text-align:center;text-anchor:middle;fill:#ffffff"
       d="m -260.67437,221.95172 q -2.04001,0 -4.32,-0.2 -2.24,-0.16 -4,-0.56 l 6.44,-26.84 q 1.8,-0.4 3.8,-0.56 2,-0.16 4.04,-0.16 1.68,0 3.4,0.24 1.76,0.24 3.15999,0.96 1.40001,0.68 2.28001,1.92 0.92,1.2 0.92,3.12 0,2.12 -1.2,4 -1.16,1.88 -3.96,3.04 1.76,0.72 2.72,2.08 0.96,1.36 0.96,3.16 0,4.68 -3.68,7.24 -3.64,2.56 -10.56,2.56 z m -0.44,-12.84 -2.04001,8.52 q 0.56,0.08 1.48001,0.16 0.92,0.04 2.04,0.04 1.32,0 2.76,-0.2 1.44,-0.2 2.6,-0.76 1.16,-0.56 1.92,-1.6 0.8,-1.04 0.8,-2.68 0,-1.52 -1.16,-2.48 -1.16,-1 -3.84,-1 z m 0.95999,-3.88 h 3.84001 q 1.24,0 2.4,-0.24 1.16,-0.24 2,-0.76 0.88,-0.56 1.4,-1.36 0.52,-0.8 0.52,-1.96 0,-1.84 -1.4,-2.52 -1.36,-0.68 -3.68,-0.68 -0.92,0 -1.84,0.08 -0.92001,0.04 -1.48001,0.12 z" />
    <path
       id="path182"
       style="font-style:italic;font-variant:normal;font-weight:500;font-stretch:normal;font-family:Ubuntu;-inkscape-font-specification:'Ubuntu Medium Italic';text-align:center;text-anchor:middle;fill:#ffffff"
       d="m -235.32375,222.19172 q -3.72,0 -5.68,-2.2 -1.96,-2.2 -1.96,-5.8 0,-2.32 0.72,-4.8 0.72,-2.48 2.2,-4.52 1.48,-2.04 3.72,-3.36 2.24,-1.32 5.28,-1.32 3.72,0 5.68,2.2 1.96,2.16 1.96,5.76 0,2.36 -0.72,4.84 -0.68,2.48 -2.16,4.52 -1.44,2.04 -3.72,3.36 -2.24,1.32 -5.32,1.32 z m 3.68,-17.92 q -1.56,0 -2.8,0.92 -1.2,0.88 -2.04,2.28 -0.8,1.4 -1.24,3.08 -0.44,1.64 -0.44,3.2 0,2 0.76,3.16 0.76,1.16 2.68,1.16 1.56,0 2.76,-0.88 1.24,-0.92 2.04,-2.28 0.84,-1.4 1.28,-3.08 0.44,-1.68 0.44,-3.2 0,-2 -0.76,-3.16 -0.76,-1.2 -2.68,-1.2 z" />
    <path
       id="path184"
       style="font-style:italic;font-variant:normal;font-weight:500;font-stretch:normal;font-family:Ubuntu;-inkscape-font-specification:'Ubuntu Medium Italic';text-align:center;text-anchor:middle;fill:#ffffff"
       d="m -214.50375,200.71172 3.32,7.04 q 1.52,-1.84 2.84,-3.6 1.32,-1.76 2.4,-3.44 h 5 q -1.68,2.48 -3.72,5.08 -2.04,2.56 -4.44,5.2 1.44,2.76 2.64,5.4 1.2,2.6 2.12,5.24 h -4.88 q -0.64,-1.88 -1.48,-3.76 -0.8,-1.88 -1.64,-3.56 l -6.36,7.32 h -5.28 l 9.56,-10.72 -5.16,-10.2 z" />
    <path
       id="path186"
       style="font-style:italic;font-variant:normal;font-weight:500;font-stretch:normal;font-family:Ubuntu;-inkscape-font-specification:'Ubuntu Medium Italic';text-align:center;text-anchor:middle;fill:#ffffff"
       d="m -371.50656,273.54078 h -4.8 l 5,-20.92 h 4.84 z m 3.6,-24.08 q -1.08,0 -1.88,-0.64 -0.8,-0.64 -0.8,-1.92 0,-1.48 1,-2.44 1.04,-0.96 2.36,-0.96 1.08,0 1.88,0.68 0.84,0.64 0.84,1.92 0,1.48 -1.04,2.44 -1.04,0.92 -2.36,0.92 z" />
    <path
       id="path188"
       style="font-style:italic;font-variant:normal;font-weight:500;font-stretch:normal;font-family:Ubuntu;-inkscape-font-specification:'Ubuntu Medium Italic';text-align:center;text-anchor:middle;fill:#ffffff"
       d="m -360.64719,253.50078 q 1.6,-0.48 3.64,-0.88 2.08,-0.44 4.52,-0.44 3.68,0 5.4,1.8 1.72,1.8 1.72,4.84 0,0.84 -0.16,1.8 -0.12,0.92 -0.32,1.92 l -2.64,11 h -4.84 l 2.48,-10.48 q 0.2,-0.88 0.4,-1.8 0.2,-0.92 0.24,-1.76 0.04,-1.4 -0.68,-2.32 -0.68,-0.92 -2.72,-0.92 -1.72,0 -2.96,0.36 l -4.04,16.92 h -4.84 z" />
    <path
       id="path190"
       style="font-style:italic;font-variant:normal;font-weight:500;font-stretch:normal;font-family:Ubuntu;-inkscape-font-specification:'Ubuntu Medium Italic';text-align:center;text-anchor:middle;fill:#ffffff"
       d="m -433.19156,321.32983 q 0.44,0.08 1,0.12 0.6,0 1.84,0 2.88,0 5.2,-0.92 2.32,-0.92 3.92,-2.6 1.64,-1.72 2.52,-4.08 0.88,-2.4 0.88,-5.32 0,-3.16 -1.8,-5 -1.8,-1.84 -5.88,-1.84 -1.04,0 -1.68,0.04 -0.6,0.04 -1.32,0.12 z m 20.56,-12.96 q 0,3.72 -1.2,6.92 -1.2,3.2 -3.56,5.52 -2.36,2.32 -5.92,3.64 -3.52,1.32 -8.2,1.32 -1.68,0 -3.76,-0.2 -2.08,-0.16 -3.84,-0.56 l 6.44,-26.84 q 1.96,-0.44 3.96,-0.56 2,-0.16 3.68,-0.16 3.04,0 5.36,0.8 2.32,0.76 3.88,2.2 1.56,1.4 2.36,3.44 0.8,2 0.8,4.48 z" />
    <path
       id="path192"
       style="font-style:italic;font-variant:normal;font-weight:500;font-stretch:normal;font-family:Ubuntu;-inkscape-font-specification:'Ubuntu Medium Italic';text-align:center;text-anchor:middle;fill:#ffffff"
       d="m -410.42469,317.88983 q 0,-2.68 0.84,-5.16 0.88,-2.52 2.48,-4.44 1.64,-1.96 3.92,-3.12 2.28,-1.16 5.12,-1.16 3.04,0 4.72,1.56 1.68,1.56 1.68,4 0,2.52 -1.24,4.08 -1.24,1.56 -3.24,2.44 -1.96,0.88 -4.48,1.2 -2.48,0.32 -5.04,0.4 -0.04,0.08 -0.04,0.16 v 0.4 q 0,3.64 4.6,3.64 2.72,0 5.44,-1.12 l 0.4,3.92 q -0.96,0.44 -2.72,0.88 -1.76,0.44 -4,0.44 -2.24,0 -3.84,-0.64 -1.6,-0.64 -2.64,-1.76 -1,-1.12 -1.48,-2.56 -0.48,-1.48 -0.48,-3.16 z m 11.64,-9.92 q -1.2,0 -2.28,0.48 -1.08,0.48 -1.92,1.32 -0.84,0.84 -1.48,2 -0.6,1.12 -0.88,2.44 4.8,-0.16 6.96,-1.16 2.2,-1 2.2,-3 0,-0.8 -0.6,-1.44 -0.56,-0.64 -2,-0.64 z" />
    <path
       id="path194"
       style="font-style:italic;font-variant:normal;font-weight:500;font-stretch:normal;font-family:Ubuntu;-inkscape-font-specification:'Ubuntu Medium Italic';text-align:center;text-anchor:middle;fill:#ffffff"
       d="m -376.76719,304.04983 q 1.84,0 3.16,0.64 1.36,0.6 2.24,1.68 0.88,1.08 1.32,2.56 0.44,1.44 0.44,3.12 0,2.76 -0.96,5.28 -0.96,2.52 -2.76,4.44 -1.76,1.92 -4.32,3.08 -2.56,1.12 -5.76,1.12 -0.48,0 -1.28,-0.04 -0.8,-0.04 -1.76,-0.2 -0.96,-0.16 -1.96,-0.44 -1,-0.28 -1.84,-0.72 l 7,-29.36 5.04,-0.8 -2.56,10.72 q 0.88,-0.44 1.88,-0.76 1,-0.32 2.12,-0.32 z m -6,17.84 q 1.84,0 3.36,-0.76 1.56,-0.8 2.64,-2.12 1.12,-1.32 1.72,-3 0.6,-1.72 0.6,-3.56 0,-0.92 -0.16,-1.68 -0.16,-0.8 -0.56,-1.36 -0.4,-0.6 -1.08,-0.92 -0.68,-0.36 -1.72,-0.36 -0.88,0 -1.92,0.32 -1.04,0.32 -1.92,1 l -2.92,12.24 q 0.36,0.08 0.8,0.16 0.48,0.04 1.16,0.04 z" />
    <path
       id="path196"
       style="font-style:italic;font-variant:normal;font-weight:500;font-stretch:normal;font-family:Ubuntu;-inkscape-font-specification:'Ubuntu Medium Italic';text-align:center;text-anchor:middle;fill:#ffffff"
       d="m -362.91281,325.44983 h -4.8 l 5,-20.92 h 4.84 z m 3.6,-24.08 q -1.08,0 -1.88,-0.64 -0.8,-0.64 -0.8,-1.92 0,-1.48 1,-2.44 1.04,-0.96 2.36,-0.96 1.08,0 1.88,0.68 0.84,0.64 0.84,1.92 0,1.48 -1.04,2.44 -1.04,0.92 -2.36,0.92 z" />
    <path
       id="path198"
       style="font-style:italic;font-variant:normal;font-weight:500;font-stretch:normal;font-family:Ubuntu;-inkscape-font-specification:'Ubuntu Medium Italic';text-align:center;text-anchor:middle;fill:#ffffff"
       d="m -338.57344,317.32983 q -0.12,0.44 -0.24,1.44 -0.12,1 -0.12,1.88 0,1.16 0.2,2.28 0.2,1.08 0.64,2.2 l -4.32,0.64 q -0.48,-0.96 -0.76,-2.04 -1,0.88 -2.48,1.6 -1.44,0.68 -3.28,0.68 -1.88,0 -3.24,-0.6 -1.32,-0.64 -2.16,-1.72 -0.84,-1.12 -1.24,-2.6 -0.4,-1.48 -0.4,-3.2 0,-2.92 1.04,-5.44 1.04,-2.52 2.88,-4.36 1.88,-1.84 4.44,-2.88 2.56,-1.08 5.6,-1.08 1.56,0 3.12,0.28 1.6,0.24 3.2,0.96 z m -2.64,-9.04 q -0.76,-0.16 -1.72,-0.16 -1.8,0 -3.32,0.8 -1.52,0.76 -2.64,2.08 -1.08,1.28 -1.68,2.96 -0.6,1.68 -0.6,3.52 0,0.92 0.16,1.72 0.16,0.8 0.52,1.4 0.4,0.6 1.04,0.96 0.64,0.36 1.64,0.36 1.28,0 2.24,-0.52 1,-0.56 1.84,-1.48 0.04,-1.04 0.16,-1.96 0.16,-0.92 0.4,-1.84 z" />
    <path
       id="path200"
       style="font-style:italic;font-variant:normal;font-weight:500;font-stretch:normal;font-family:Ubuntu;-inkscape-font-specification:'Ubuntu Medium Italic';text-align:center;text-anchor:middle;fill:#ffffff"
       d="m -329.70969,305.40983 q 1.6,-0.48 3.64,-0.88 2.08,-0.44 4.52,-0.44 3.68,0 5.4,1.8 1.72,1.8 1.72,4.84 0,0.84 -0.16,1.8 -0.12,0.92 -0.32,1.92 l -2.64,11 h -4.84 l 2.48,-10.48 q 0.2,-0.88 0.4,-1.8 0.2,-0.92 0.24,-1.76 0.04,-1.4 -0.68,-2.32 -0.68,-0.92 -2.72,-0.92 -1.72,0 -2.96,0.36 l -4.04,16.92 h -4.84 z" />
    <path
       id="path202"
       style="font-style:italic;font-variant:normal;font-weight:500;font-stretch:normal;font-family:Ubuntu;-inkscape-font-specification:'Ubuntu Medium Italic';text-align:center;text-anchor:middle;fill:#ffffff"
       d="m -294.91656,307.48983 q 0,1.92 1,2.76 1,0.84 2.8,0.84 2.4,0 4.8,-1.04 0.32,-1 0.48,-2.04 0.16,-1.08 0.16,-2.12 0,-2.04 -0.92,-3.4 -0.92,-1.4 -2.92,-1.4 -1.28,0 -2.28,0.52 -1,0.52 -1.68,1.4 -0.68,0.84 -1.08,2 -0.36,1.16 -0.36,2.48 z m -6.6,14.16 q 0.56,0.04 1.24,0.04 0.68,-0.04 1,-0.08 4.72,-0.44 7.6,-2.36 2.88,-1.92 4.4,-5.56 -1.16,0.6 -2.6,0.92 -1.44,0.28 -2.72,0.28 -3.32,0 -5.16,-1.88 -1.84,-1.92 -1.84,-5.12 0,-2.28 0.72,-4.24 0.76,-2 2.12,-3.44 1.36,-1.48 3.28,-2.28 1.92,-0.84 4.32,-0.84 3.72,0 5.92,2.32 2.24,2.32 2.24,6.56 0,3.92 -1.28,7.48 -1.28,3.52 -3.8,6.24 -2.48,2.68 -6.2,4.28 -3.72,1.6 -8.6,1.6 -0.28,0 -0.6,0 -0.28,0 -0.72,-0.04 z" />
  </g>
</svg>
