<?xml version="1.0" encoding="UTF-8" standalone="no"?>
<svg
   xmlns:dc="http://purl.org/dc/elements/1.1/"
   xmlns:cc="http://creativecommons.org/ns#"
   xmlns:rdf="http://www.w3.org/1999/02/22-rdf-syntax-ns#"
   xmlns:svg="http://www.w3.org/2000/svg"
   xmlns="http://www.w3.org/2000/svg"
   xmlns:xlink="http://www.w3.org/1999/xlink"
   id="svg3357"
   version="1.1"
   viewBox="0 0 211.40207 119.0625"
   height="119.0625mm"
   width="211.40207mm">
  <defs
     id="defs3351">
    <linearGradient
       id="linearGradient6114">
      <stop
         id="stop6110"
         offset="0"
         style="stop-color:#6f7c91;stop-opacity:1;" />
      <stop
         id="stop6112"
         offset="1"
         style="stop-color:#162d50;stop-opacity:1" />
    </linearGradient>
    <radialGradient
       gradientUnits="userSpaceOnUse"
       gradientTransform="matrix(3.0071285,0,0,1.83657,-125.12732,-58.151445)"
       r="31.67275"
       fy="66.986313"
       fx="73.77433"
       cy="66.986313"
       cx="73.77433"
       id="radialGradient6126"
       xlink:href="#linearGradient6114" />
  </defs>
  <metadata
     id="metadata3354">
    <rdf:RDF>
      <cc:Work
         rdf:about="">
        <dc:format>image/svg+xml</dc:format>
        <dc:type
           rdf:resource="http://purl.org/dc/dcmitype/StillImage" />
        <dc:title></dc:title>
      </cc:Work>
    </rdf:RDF>
  </metadata>
  <g
     id="g964"
     transform="matrix(1.2166076,0,0,2.0631364,60.09391,-297.7481)">
    <g
       id="text956"
       style="font-style:normal;font-variant:normal;font-weight:normal;font-stretch:normal;font-size:10.58333302px;line-height:1.25;font-family:'Sansita One';-inkscape-font-specification:'Sansita One';text-align:center;letter-spacing:0px;word-spacing:0px;text-anchor:middle;fill:#a02c2c;fill-opacity:1;stroke:#a02c2c;stroke-width:1.5;stroke-miterlimit:4;stroke-dasharray:none"
       aria-label="i386  or  amd64?">
      <path
         id="path147"
         style="font-style:normal;font-variant:normal;font-weight:normal;font-stretch:normal;font-family:'Sansita One';-inkscape-font-specification:'Sansita One';text-align:center;text-anchor:middle;fill:#a02c2c;stroke:#a02c2c;stroke-width:1.5;stroke-miterlimit:4;stroke-dasharray:none"
         d="m 21.704925,175.09886 q -0.328084,0.79375 -1.375834,0.79375 -0.539749,0 -0.878416,-0.37042 -0.28575,-0.32808 -0.28575,-0.65617 0,-0.85725 0.391583,-2.52941 l 0.391584,-2.05317 2.148416,-0.21167 -0.645583,3.34434 q -0.179917,0.78316 -0.179917,1.05833 0,0.60325 0.433917,0.62442 z m -1.566333,-6.2865 q 0,-0.41275 0.338666,-0.635 0.34925,-0.22225 0.846667,-0.22225 0.497416,0 0.79375,0.22225 0.306916,0.22225 0.306916,0.635 0,0.41275 -0.338666,0.62441 -0.328084,0.21167 -0.8255,0.21167 -0.497417,0 -0.814917,-0.21167 -0.306916,-0.21166 -0.306916,-0.62441 z" />
      <path
         id="path149"
         style="font-style:normal;font-variant:normal;font-weight:normal;font-stretch:normal;font-family:'Sansita One';-inkscape-font-specification:'Sansita One';text-align:center;text-anchor:middle;fill:#a02c2c;stroke:#a02c2c;stroke-width:1.5;stroke-miterlimit:4;stroke-dasharray:none"
         d="m 26.02524,171.86036 q 1.397,0.35983 1.397,1.72508 0,0.98425 -0.836084,1.62983 -0.889,0.67734 -2.3495,0.67734 -0.867833,0 -1.386416,-0.32809 -0.518584,-0.33866 -0.518584,-0.889 0,-0.55033 0.41275,-0.889 0.211667,0.39159 0.582084,0.5715 0.381,0.17992 0.85725,0.17992 0.486833,0 0.79375,-0.254 0.306916,-0.254 0.306916,-0.75142 0,-0.94191 -1.291166,-0.94191 l 0.179916,-0.9525 q 1.545167,-0.254 1.545167,-1.016 0,-0.30692 -0.211667,-0.47625 -0.211666,-0.16934 -0.613833,-0.16934 -0.709083,0 -1.3335,0.65617 -0.201083,-0.0529 -0.28575,-0.1905 -0.08467,-0.14817 -0.08467,-0.4445 0,-0.29633 0.211667,-0.5715 0.211667,-0.28575 0.582083,-0.49742 0.79375,-0.4445 1.862667,-0.4445 0.814917,0 1.3335,0.42334 0.53975,0.43391 0.53975,1.0795 0,0.58208 -0.465667,1.09008 -0.465666,0.508 -1.227666,0.78317 z" />
      <path
         id="path151"
         style="font-style:normal;font-variant:normal;font-weight:normal;font-stretch:normal;font-family:'Sansita One';-inkscape-font-specification:'Sansita One';text-align:center;text-anchor:middle;fill:#a02c2c;stroke:#a02c2c;stroke-width:1.5;stroke-miterlimit:4;stroke-dasharray:none"
         d="m 28.059886,174.20986 q 0,-1.21709 1.5875,-1.98967 -0.6985,-0.5715 -0.6985,-1.31233 0,-1.016 0.846666,-1.72509 0.836084,-0.6985 2.084917,-0.6985 0.846667,0 1.36525,0.40217 0.518583,0.40217 0.518583,1.00542 0,0.92075 -0.931333,1.55575 -0.264583,0.17991 -0.550333,0.30691 0.687916,0.5715 0.85725,0.81492 0.28575,0.39158 0.28575,0.86783 0,0.47625 -0.243417,0.94192 -0.232833,0.46567 -0.656167,0.79375 -0.889,0.71967 -2.19075,0.71967 -1.037166,0 -1.661583,-0.46567 -0.613833,-0.46567 -0.613833,-1.21708 z m 2.2225,-1.40759 q -0.53975,0.41275 -0.53975,1.11125 0,0.37042 0.169333,0.62442 0.179917,0.254 0.508,0.254 0.328083,0 0.5715,-0.24342 0.254,-0.24341 0.254,-0.61383 0,-0.32808 -0.22225,-0.508 z m 1.344083,-1.56633 q 0.582083,-0.27517 0.582083,-0.92075 0,-0.33867 -0.179916,-0.56092 -0.179917,-0.22225 -0.508,-0.22225 -0.328084,0 -0.550334,0.1905 -0.211666,0.1905 -0.211666,0.43392 0,0.41275 0.243416,0.61383 z" />
      <path
         id="path153"
         style="font-style:normal;font-variant:normal;font-weight:normal;font-stretch:normal;font-family:'Sansita One';-inkscape-font-specification:'Sansita One';text-align:center;text-anchor:middle;fill:#a02c2c;stroke:#a02c2c;stroke-width:1.5;stroke-miterlimit:4;stroke-dasharray:none"
         d="m 39.462434,170.24111 q -0.3175,-0.41275 -1.068917,-0.41275 -0.98425,0 -1.524,0.68791 -0.381,0.47625 -0.550333,1.3335 0.275167,-0.45508 0.635,-0.68791 0.370417,-0.24342 0.878417,-0.24342 0.508,0 0.8255,0.17992 0.328083,0.17991 0.529166,0.47625 0.381,0.55033 0.381,1.3335 0,0.78316 -0.28575,1.3335 -0.275166,0.55033 -0.709083,0.92075 -0.433917,0.37041 -0.973667,0.55033 -0.529166,0.1905 -1.037166,0.1905 -0.497417,0 -0.910167,-0.16933 -0.41275,-0.15875 -0.709083,-0.48684 -0.645584,-0.6985 -0.645584,-1.94733 0,-0.83608 0.28575,-1.69333 0.28575,-0.85725 0.804334,-1.55575 0.518583,-0.6985 1.227666,-1.143 0.709084,-0.4445 1.513417,-0.4445 0.804333,0 1.259417,0.254 0.455083,0.254 0.455083,0.71966 0,0.508 -0.381,0.80434 z m -3.026833,2.29658 q -0.137584,0.22225 -0.22225,0.51858 -0.08467,0.29634 -0.08467,0.71967 0,0.41275 0.179917,0.68792 0.1905,0.26458 0.486833,0.26458 0.296333,0 0.465667,-0.20108 0.179916,-0.21167 0.275166,-0.49742 0.169334,-0.508 0.169334,-0.97367 0,-0.46566 -0.169334,-0.73025 -0.15875,-0.26458 -0.381,-0.26458 -0.22225,0 -0.402166,0.127 -0.169334,0.127 -0.3175,0.34925 z" />
      <path
         id="path155"
         style="font-style:normal;font-variant:normal;font-weight:normal;font-stretch:normal;font-family:'Sansita One';-inkscape-font-specification:'Sansita One';text-align:center;text-anchor:middle;fill:#a02c2c;stroke:#a02c2c;stroke-width:1.5;stroke-miterlimit:4;stroke-dasharray:none"
         d="m 46.917566,175.89261 q -2.328333,0 -2.328333,-2.19075 0,-1.55575 0.85725,-2.56117 0.910166,-1.06892 2.487083,-1.06892 1.143,0 1.725083,0.52917 0.582084,0.52917 0.582084,1.64042 0,1.69333 -0.910167,2.67758 -0.889,0.97367 -2.413,0.97367 z m 0.275167,-4.60375 q -0.127,0.28575 -0.232834,0.71966 -0.09525,0.42334 -0.22225,1.10067 -0.127,0.67733 -0.127,1.51342 0,0.27516 0.08467,0.45508 0.09525,0.17992 0.338667,0.17992 0.243416,0 0.391583,-0.11642 0.15875,-0.11642 0.275167,-0.39158 0.211666,-0.48684 0.381,-1.38642 0.169333,-0.91017 0.179916,-1.30175 0.02117,-0.39158 0.02117,-0.67733 0,-0.29634 -0.08467,-0.48684 -0.08467,-0.1905 -0.328083,-0.1905 -0.232833,0 -0.391583,0.14817 -0.15875,0.14817 -0.28575,0.43392 z" />
      <path
         id="path157"
         style="font-style:normal;font-variant:normal;font-weight:normal;font-stretch:normal;font-family:'Sansita One';-inkscape-font-specification:'Sansita One';text-align:center;text-anchor:middle;fill:#a02c2c;stroke:#a02c2c;stroke-width:1.5;stroke-miterlimit:4;stroke-dasharray:none"
         d="m 54.186166,172.70702 q 0.381,-0.67733 0.381,-1.36525 0,-0.45508 -0.328083,-0.45508 -0.254,0 -0.518583,0.43392 -0.275167,0.43391 -0.359834,0.99483 l -0.550333,3.3655 -2.19075,0.21167 1.0795,-5.60917 1.74625,-0.21167 -0.1905,1.06892 q 0.518583,-1.06892 1.68275,-1.06892 0.613833,0 0.941917,0.3175 0.338666,0.3175 0.338666,0.97367 0,0.64558 -0.433916,1.05833 -0.423334,0.41275 -1.153584,0.41275 -0.3175,0 -0.4445,-0.127 z" />
      <path
         id="path159"
         style="font-style:normal;font-variant:normal;font-weight:normal;font-stretch:normal;font-family:'Sansita One';-inkscape-font-specification:'Sansita One';text-align:center;text-anchor:middle;fill:#a02c2c;stroke:#a02c2c;stroke-width:1.5;stroke-miterlimit:4;stroke-dasharray:none"
         d="m 61.188528,175.36344 q -0.243417,-0.27517 -0.359834,-0.70908 -0.105833,-0.43392 -0.105833,-1.143 0,-0.70909 0.243417,-1.35467 0.243416,-0.64558 0.687916,-1.11125 0.910167,-0.97367 2.413,-0.97367 0.53975,0 0.931334,0.17992 l 1.80975,-0.17992 -0.783167,4.1275 q -0.03175,0.127 -0.03175,0.35984 0,0.23283 0.137583,0.381 0.148167,0.14816 0.359834,0.16933 -0.105834,0.35983 -0.497417,0.5715 -0.381,0.21167 -0.814917,0.21167 -0.433916,0 -0.73025,-0.16934 -0.28575,-0.15875 -0.370416,-0.43391 -0.169334,0.26458 -0.529167,0.43391 -0.359833,0.16934 -0.846667,0.16934 -0.47625,0 -0.867833,-0.127 -0.391583,-0.127 -0.645583,-0.40217 z m 2.233083,-4.29683 q -0.116417,0.1905 -0.22225,0.51858 -0.105833,0.3175 -0.28575,1.18533 -0.169333,0.85725 -0.169333,1.47109 0,0.61383 0.09525,0.79375 0.09525,0.17991 0.264583,0.17991 0.338667,0 0.582083,-0.3175 0.254,-0.32808 0.34925,-0.89958 l 0.560917,-3.10092 q -0.22225,-0.1905 -0.486833,-0.1905 -0.254,0 -0.41275,0.0847 -0.148167,0.0847 -0.275167,0.27517 z" />
      <path
         id="path161"
         style="font-style:normal;font-variant:normal;font-weight:normal;font-stretch:normal;font-family:'Sansita One';-inkscape-font-specification:'Sansita One';text-align:center;text-anchor:middle;fill:#a02c2c;stroke:#a02c2c;stroke-width:1.5;stroke-miterlimit:4;stroke-dasharray:none"
         d="m 75.00937,175.89261 q -1.280583,0 -1.280583,-0.99484 0,-0.43391 0.179916,-1.27 0.1905,-0.84666 0.254,-1.18533 0.148167,-0.77258 0.148167,-1.016 0,-0.53975 -0.402167,-0.53975 -0.264583,0 -0.518583,0.37042 -0.254,0.35983 -0.370417,1.09008 l -0.656166,3.33375 -2.06375,0.21167 0.5715,-2.87867 q 0.09525,-0.47625 0.179916,-1.016 0.08467,-0.53975 0.08467,-0.62442 0,-0.48683 -0.359833,-0.48683 -0.243417,0 -0.508,0.35983 -0.264584,0.35984 -0.41275,1.10067 l -0.645584,3.33375 -2.084916,0.21167 1.11125,-5.60917 1.725083,-0.21167 -0.179917,1.06892 q 0.275167,-0.5715 0.783167,-0.81492 0.508,-0.254 1.30175,-0.254 0.455083,0 0.751417,0.22225 0.296333,0.22225 0.391583,0.58209 0.179917,-0.37042 0.635,-0.58209 0.465667,-0.22225 1.026583,-0.22225 0.5715,0 0.846667,0.127 0.28575,0.11642 0.455083,0.3175 0.28575,0.37042 0.28575,1.04775 0,0.66675 -0.28575,2.05317 -0.148166,0.67733 -0.148166,0.93133 0,0.24342 0.137583,0.39159 0.148167,0.14816 0.359833,0.16933 -0.105833,0.35983 -0.47625,0.5715 -0.359833,0.21167 -0.836083,0.21167 z" />
      <path
         id="path163"
         style="font-style:normal;font-variant:normal;font-weight:normal;font-stretch:normal;font-family:'Sansita One';-inkscape-font-specification:'Sansita One';text-align:center;text-anchor:middle;fill:#a02c2c;stroke:#a02c2c;stroke-width:1.5;stroke-miterlimit:4;stroke-dasharray:none"
         d="m 80.479632,170.07177 q 0.381,0 0.677333,0.0847 0.01058,-0.0423 0.03175,-0.15875 l 0.05292,-0.32808 q 0.04233,-0.21167 0.105833,-0.56092 l 0.169333,-0.83608 2.106084,-0.21167 -1.17475,6.13833 q -0.01058,0.0635 -0.01058,0.16934 v 0.16933 q 0,0.23283 0.116417,0.41275 0.116417,0.16933 0.306917,0.16933 -0.211667,0.49742 -0.85725,0.70909 -0.22225,0.0635 -0.53975,0.0635 -0.306917,0 -0.592667,-0.16934 -0.28575,-0.15875 -0.370417,-0.43391 -0.169333,0.27516 -0.508,0.43391 -0.338666,0.16934 -0.836083,0.16934 -0.486833,0 -0.899583,-0.127 -0.402167,-0.127 -0.656167,-0.40217 -0.465666,-0.53975 -0.465666,-1.76742 0,-1.5875 0.931333,-2.55058 0.931333,-0.97367 2.413,-0.97367 z m -0.07408,0.635 q -0.391583,0 -0.60325,0.42334 -0.211666,0.42333 -0.433916,1.47108 -0.211667,1.04775 -0.211667,1.98967 0,0.64558 0.381,0.64558 0.338667,0 0.5715,-0.33867 0.243417,-0.33866 0.338667,-0.89958 l 0.5715,-3.10092 q -0.22225,-0.1905 -0.613834,-0.1905 z" />
      <path
         id="path165"
         style="font-style:normal;font-variant:normal;font-weight:normal;font-stretch:normal;font-family:'Sansita One';-inkscape-font-specification:'Sansita One';text-align:center;text-anchor:middle;fill:#a02c2c;stroke:#a02c2c;stroke-width:1.5;stroke-miterlimit:4;stroke-dasharray:none"
         d="m 89.009793,170.24111 q -0.3175,-0.41275 -1.068916,-0.41275 -0.98425,0 -1.524,0.68791 -0.381,0.47625 -0.550334,1.3335 0.275167,-0.45508 0.635,-0.68791 0.370417,-0.24342 0.878417,-0.24342 0.508,0 0.8255,0.17992 0.328083,0.17991 0.529167,0.47625 0.381,0.55033 0.381,1.3335 0,0.78316 -0.28575,1.3335 -0.275167,0.55033 -0.709084,0.92075 -0.433916,0.37041 -0.973666,0.55033 -0.529167,0.1905 -1.037167,0.1905 -0.497417,0 -0.910167,-0.16933 -0.41275,-0.15875 -0.709083,-0.48684 -0.645583,-0.6985 -0.645583,-1.94733 0,-0.83608 0.28575,-1.69333 0.28575,-0.85725 0.804333,-1.55575 0.518583,-0.6985 1.227667,-1.143 0.709083,-0.4445 1.513416,-0.4445 0.804334,0 1.259417,0.254 0.455083,0.254 0.455083,0.71966 0,0.508 -0.381,0.80434 z m -3.026833,2.29658 q -0.137583,0.22225 -0.22225,0.51858 -0.08467,0.29634 -0.08467,0.71967 0,0.41275 0.179917,0.68792 0.1905,0.26458 0.486833,0.26458 0.296334,0 0.465667,-0.20108 0.179917,-0.21167 0.275167,-0.49742 0.169333,-0.508 0.169333,-0.97367 0,-0.46566 -0.169333,-0.73025 -0.15875,-0.26458 -0.381,-0.26458 -0.22225,0 -0.402167,0.127 -0.169333,0.127 -0.3175,0.34925 z" />
      <path
         id="path167"
         style="font-style:normal;font-variant:normal;font-weight:normal;font-stretch:normal;font-family:'Sansita One';-inkscape-font-specification:'Sansita One';text-align:center;text-anchor:middle;fill:#a02c2c;stroke:#a02c2c;stroke-width:1.5;stroke-miterlimit:4;stroke-dasharray:none"
         d="m 95.11919,172.89752 q 0.116417,0.22225 0.116417,0.65617 0,0.43392 -0.328083,0.74083 -0.3175,0.29634 -1.026584,0.29634 h -0.0635 l -0.169333,1.09008 q -0.28575,0.21167 -0.79375,0.21167 -0.656167,0 -0.867833,-0.40217 -0.08467,-0.14817 -0.08467,-0.27517 0,-0.14816 0.02117,-0.3175 l 0.07408,-0.40216 -2.434166,-0.254 v -1.3335 l 3.958166,-4.43442 v 0.0106 l 0.01058,-0.0106 1.471084,0.15875 q -0.497417,2.032 -0.92075,4.37092 h 0.243416 q 0.60325,0 0.79375,-0.10584 z m -4.423833,0.0318 1.598083,0.0529 q 0.34925,-1.55575 0.6985,-2.7305 z" />
      <path
         id="path169"
         style="font-style:normal;font-variant:normal;font-weight:normal;font-stretch:normal;font-family:'Sansita One';-inkscape-font-specification:'Sansita One';text-align:center;text-anchor:middle;fill:#a02c2c;stroke:#a02c2c;stroke-width:1.5;stroke-miterlimit:4;stroke-dasharray:none"
         d="m 96.013981,175.05652 q 0,-0.40216 0.306917,-0.62441 0.317499,-0.22225 0.761999,-0.22225 0.4445,0 0.709084,0.22225 0.275166,0.22225 0.275166,0.62441 0,0.40217 -0.306916,0.62442 -0.296334,0.21167 -0.740834,0.21167 -0.4445,0 -0.730249,-0.21167 -0.275167,-0.22225 -0.275167,-0.62442 z m 2.137833,-4.445 q -0.232833,0.0635 -0.6985,0.0635 -0.465667,0 -0.804333,-0.1905 -0.338667,-0.1905 -0.338667,-0.51858 0,-0.33867 0.15875,-0.60325 0.169333,-0.26458 0.518583,-0.45508 0.73025,-0.42334 1.989667,-0.42334 1.259416,0 1.756836,0.34925 0.49741,0.34925 0.49741,0.94192 0,0.89958 -0.89958,1.59808 -0.26458,0.21167 -0.592666,0.42334 l -2.021417,1.31233 q -0.41275,0.27517 -0.41275,0.67733 -0.306916,0 -0.508,-0.26458 -0.201083,-0.26458 -0.201083,-0.635 0,-0.84667 0.804333,-1.34408 l 1.195917,-0.74084 q 0.497417,-0.29633 0.762,-0.81491 0.08467,-0.16934 0.08467,-0.381 0,-0.48684 -0.486834,-0.48684 -0.381,0 -0.645583,0.30692 -0.232833,0.27517 -0.243417,0.635 -0.01058,0.35983 0.08467,0.55033 z" />
    </g>
    <g
       id="text950"
       style="font-style:normal;font-variant:normal;font-weight:normal;font-stretch:normal;font-size:10.58333302px;line-height:1.25;font-family:'Sansita One';-inkscape-font-specification:'Sansita One';text-align:center;letter-spacing:0px;word-spacing:0px;text-anchor:middle;fill:#ffffff;fill-opacity:1;stroke:none;stroke-width:0.26458332"
       aria-label="i386  or  amd64?">
      <path
         id="path172"
         style="font-style:normal;font-variant:normal;font-weight:normal;font-stretch:normal;font-family:'Sansita One';-inkscape-font-specification:'Sansita One';text-align:center;text-anchor:middle;fill:#ffffff;stroke-width:0.26458332"
         d="m 21.704925,175.09886 q -0.328084,0.79375 -1.375834,0.79375 -0.539749,0 -0.878416,-0.37042 -0.28575,-0.32808 -0.28575,-0.65617 0,-0.85725 0.391583,-2.52941 l 0.391584,-2.05317 2.148416,-0.21167 -0.645583,3.34434 q -0.179917,0.78316 -0.179917,1.05833 0,0.60325 0.433917,0.62442 z m -1.566333,-6.2865 q 0,-0.41275 0.338666,-0.635 0.34925,-0.22225 0.846667,-0.22225 0.497416,0 0.79375,0.22225 0.306916,0.22225 0.306916,0.635 0,0.41275 -0.338666,0.62441 -0.328084,0.21167 -0.8255,0.21167 -0.497417,0 -0.814917,-0.21167 -0.306916,-0.21166 -0.306916,-0.62441 z" />
      <path
         id="path174"
         style="font-style:normal;font-variant:normal;font-weight:normal;font-stretch:normal;font-family:'Sansita One';-inkscape-font-specification:'Sansita One';text-align:center;text-anchor:middle;fill:#ffffff;stroke-width:0.26458332"
         d="m 26.02524,171.86036 q 1.397,0.35983 1.397,1.72508 0,0.98425 -0.836084,1.62983 -0.889,0.67734 -2.3495,0.67734 -0.867833,0 -1.386416,-0.32809 -0.518584,-0.33866 -0.518584,-0.889 0,-0.55033 0.41275,-0.889 0.211667,0.39159 0.582084,0.5715 0.381,0.17992 0.85725,0.17992 0.486833,0 0.79375,-0.254 0.306916,-0.254 0.306916,-0.75142 0,-0.94191 -1.291166,-0.94191 l 0.179916,-0.9525 q 1.545167,-0.254 1.545167,-1.016 0,-0.30692 -0.211667,-0.47625 -0.211666,-0.16934 -0.613833,-0.16934 -0.709083,0 -1.3335,0.65617 -0.201083,-0.0529 -0.28575,-0.1905 -0.08467,-0.14817 -0.08467,-0.4445 0,-0.29633 0.211667,-0.5715 0.211667,-0.28575 0.582083,-0.49742 0.79375,-0.4445 1.862667,-0.4445 0.814917,0 1.3335,0.42334 0.53975,0.43391 0.53975,1.0795 0,0.58208 -0.465667,1.09008 -0.465666,0.508 -1.227666,0.78317 z" />
      <path
         id="path176"
         style="font-style:normal;font-variant:normal;font-weight:normal;font-stretch:normal;font-family:'Sansita One';-inkscape-font-specification:'Sansita One';text-align:center;text-anchor:middle;fill:#ffffff;stroke-width:0.26458332"
         d="m 28.059886,174.20986 q 0,-1.21709 1.5875,-1.98967 -0.6985,-0.5715 -0.6985,-1.31233 0,-1.016 0.846666,-1.72509 0.836084,-0.6985 2.084917,-0.6985 0.846667,0 1.36525,0.40217 0.518583,0.40217 0.518583,1.00542 0,0.92075 -0.931333,1.55575 -0.264583,0.17991 -0.550333,0.30691 0.687916,0.5715 0.85725,0.81492 0.28575,0.39158 0.28575,0.86783 0,0.47625 -0.243417,0.94192 -0.232833,0.46567 -0.656167,0.79375 -0.889,0.71967 -2.19075,0.71967 -1.037166,0 -1.661583,-0.46567 -0.613833,-0.46567 -0.613833,-1.21708 z m 2.2225,-1.40759 q -0.53975,0.41275 -0.53975,1.11125 0,0.37042 0.169333,0.62442 0.179917,0.254 0.508,0.254 0.328083,0 0.5715,-0.24342 0.254,-0.24341 0.254,-0.61383 0,-0.32808 -0.22225,-0.508 z m 1.344083,-1.56633 q 0.582083,-0.27517 0.582083,-0.92075 0,-0.33867 -0.179916,-0.56092 -0.179917,-0.22225 -0.508,-0.22225 -0.328084,0 -0.550334,0.1905 -0.211666,0.1905 -0.211666,0.43392 0,0.41275 0.243416,0.61383 z" />
      <path
         id="path178"
         style="font-style:normal;font-variant:normal;font-weight:normal;font-stretch:normal;font-family:'Sansita One';-inkscape-font-specification:'Sansita One';text-align:center;text-anchor:middle;fill:#ffffff;stroke-width:0.26458332"
         d="m 39.462434,170.24111 q -0.3175,-0.41275 -1.068917,-0.41275 -0.98425,0 -1.524,0.68791 -0.381,0.47625 -0.550333,1.3335 0.275167,-0.45508 0.635,-0.68791 0.370417,-0.24342 0.878417,-0.24342 0.508,0 0.8255,0.17992 0.328083,0.17991 0.529166,0.47625 0.381,0.55033 0.381,1.3335 0,0.78316 -0.28575,1.3335 -0.275166,0.55033 -0.709083,0.92075 -0.433917,0.37041 -0.973667,0.55033 -0.529166,0.1905 -1.037166,0.1905 -0.497417,0 -0.910167,-0.16933 -0.41275,-0.15875 -0.709083,-0.48684 -0.645584,-0.6985 -0.645584,-1.94733 0,-0.83608 0.28575,-1.69333 0.28575,-0.85725 0.804334,-1.55575 0.518583,-0.6985 1.227666,-1.143 0.709084,-0.4445 1.513417,-0.4445 0.804333,0 1.259417,0.254 0.455083,0.254 0.455083,0.71966 0,0.508 -0.381,0.80434 z m -3.026833,2.29658 q -0.137584,0.22225 -0.22225,0.51858 -0.08467,0.29634 -0.08467,0.71967 0,0.41275 0.179917,0.68792 0.1905,0.26458 0.486833,0.26458 0.296333,0 0.465667,-0.20108 0.179916,-0.21167 0.275166,-0.49742 0.169334,-0.508 0.169334,-0.97367 0,-0.46566 -0.169334,-0.73025 -0.15875,-0.26458 -0.381,-0.26458 -0.22225,0 -0.402166,0.127 -0.169334,0.127 -0.3175,0.34925 z" />
      <path
         id="path180"
         style="font-style:normal;font-variant:normal;font-weight:normal;font-stretch:normal;font-family:'Sansita One';-inkscape-font-specification:'Sansita One';text-align:center;text-anchor:middle;fill:#ffffff;stroke-width:0.26458332"
         d="m 46.917566,175.89261 q -2.328333,0 -2.328333,-2.19075 0,-1.55575 0.85725,-2.56117 0.910166,-1.06892 2.487083,-1.06892 1.143,0 1.725083,0.52917 0.582084,0.52917 0.582084,1.64042 0,1.69333 -0.910167,2.67758 -0.889,0.97367 -2.413,0.97367 z m 0.275167,-4.60375 q -0.127,0.28575 -0.232834,0.71966 -0.09525,0.42334 -0.22225,1.10067 -0.127,0.67733 -0.127,1.51342 0,0.27516 0.08467,0.45508 0.09525,0.17992 0.338667,0.17992 0.243416,0 0.391583,-0.11642 0.15875,-0.11642 0.275167,-0.39158 0.211666,-0.48684 0.381,-1.38642 0.169333,-0.91017 0.179916,-1.30175 0.02117,-0.39158 0.02117,-0.67733 0,-0.29634 -0.08467,-0.48684 -0.08467,-0.1905 -0.328083,-0.1905 -0.232833,0 -0.391583,0.14817 -0.15875,0.14817 -0.28575,0.43392 z" />
      <path
         id="path182"
         style="font-style:normal;font-variant:normal;font-weight:normal;font-stretch:normal;font-family:'Sansita One';-inkscape-font-specification:'Sansita One';text-align:center;text-anchor:middle;fill:#ffffff;stroke-width:0.26458332"
         d="m 54.186166,172.70702 q 0.381,-0.67733 0.381,-1.36525 0,-0.45508 -0.328083,-0.45508 -0.254,0 -0.518583,0.43392 -0.275167,0.43391 -0.359834,0.99483 l -0.550333,3.3655 -2.19075,0.21167 1.0795,-5.60917 1.74625,-0.21167 -0.1905,1.06892 q 0.518583,-1.06892 1.68275,-1.06892 0.613833,0 0.941917,0.3175 0.338666,0.3175 0.338666,0.97367 0,0.64558 -0.433916,1.05833 -0.423334,0.41275 -1.153584,0.41275 -0.3175,0 -0.4445,-0.127 z" />
      <path
         id="path184"
         style="font-style:normal;font-variant:normal;font-weight:normal;font-stretch:normal;font-family:'Sansita One';-inkscape-font-specification:'Sansita One';text-align:center;text-anchor:middle;fill:#ffffff;stroke-width:0.26458332"
         d="m 61.188528,175.36344 q -0.243417,-0.27517 -0.359834,-0.70908 -0.105833,-0.43392 -0.105833,-1.143 0,-0.70909 0.243417,-1.35467 0.243416,-0.64558 0.687916,-1.11125 0.910167,-0.97367 2.413,-0.97367 0.53975,0 0.931334,0.17992 l 1.80975,-0.17992 -0.783167,4.1275 q -0.03175,0.127 -0.03175,0.35984 0,0.23283 0.137583,0.381 0.148167,0.14816 0.359834,0.16933 -0.105834,0.35983 -0.497417,0.5715 -0.381,0.21167 -0.814917,0.21167 -0.433916,0 -0.73025,-0.16934 -0.28575,-0.15875 -0.370416,-0.43391 -0.169334,0.26458 -0.529167,0.43391 -0.359833,0.16934 -0.846667,0.16934 -0.47625,0 -0.867833,-0.127 -0.391583,-0.127 -0.645583,-0.40217 z m 2.233083,-4.29683 q -0.116417,0.1905 -0.22225,0.51858 -0.105833,0.3175 -0.28575,1.18533 -0.169333,0.85725 -0.169333,1.47109 0,0.61383 0.09525,0.79375 0.09525,0.17991 0.264583,0.17991 0.338667,0 0.582083,-0.3175 0.254,-0.32808 0.34925,-0.89958 l 0.560917,-3.10092 q -0.22225,-0.1905 -0.486833,-0.1905 -0.254,0 -0.41275,0.0847 -0.148167,0.0847 -0.275167,0.27517 z" />
      <path
         id="path186"
         style="font-style:normal;font-variant:normal;font-weight:normal;font-stretch:normal;font-family:'Sansita One';-inkscape-font-specification:'Sansita One';text-align:center;text-anchor:middle;fill:#ffffff;stroke-width:0.26458332"
         d="m 75.00937,175.89261 q -1.280583,0 -1.280583,-0.99484 0,-0.43391 0.179916,-1.27 0.1905,-0.84666 0.254,-1.18533 0.148167,-0.77258 0.148167,-1.016 0,-0.53975 -0.402167,-0.53975 -0.264583,0 -0.518583,0.37042 -0.254,0.35983 -0.370417,1.09008 l -0.656166,3.33375 -2.06375,0.21167 0.5715,-2.87867 q 0.09525,-0.47625 0.179916,-1.016 0.08467,-0.53975 0.08467,-0.62442 0,-0.48683 -0.359833,-0.48683 -0.243417,0 -0.508,0.35983 -0.264584,0.35984 -0.41275,1.10067 l -0.645584,3.33375 -2.084916,0.21167 1.11125,-5.60917 1.725083,-0.21167 -0.179917,1.06892 q 0.275167,-0.5715 0.783167,-0.81492 0.508,-0.254 1.30175,-0.254 0.455083,0 0.751417,0.22225 0.296333,0.22225 0.391583,0.58209 0.179917,-0.37042 0.635,-0.58209 0.465667,-0.22225 1.026583,-0.22225 0.5715,0 0.846667,0.127 0.28575,0.11642 0.455083,0.3175 0.28575,0.37042 0.28575,1.04775 0,0.66675 -0.28575,2.05317 -0.148166,0.67733 -0.148166,0.93133 0,0.24342 0.137583,0.39159 0.148167,0.14816 0.359833,0.16933 -0.105833,0.35983 -0.47625,0.5715 -0.359833,0.21167 -0.836083,0.21167 z" />
      <path
         id="path188"
         style="font-style:normal;font-variant:normal;font-weight:normal;font-stretch:normal;font-family:'Sansita One';-inkscape-font-specification:'Sansita One';text-align:center;text-anchor:middle;fill:#ffffff;stroke-width:0.26458332"
         d="m 80.479632,170.07177 q 0.381,0 0.677333,0.0847 0.01058,-0.0423 0.03175,-0.15875 l 0.05292,-0.32808 q 0.04233,-0.21167 0.105833,-0.56092 l 0.169333,-0.83608 2.106084,-0.21167 -1.17475,6.13833 q -0.01058,0.0635 -0.01058,0.16934 v 0.16933 q 0,0.23283 0.116417,0.41275 0.116417,0.16933 0.306917,0.16933 -0.211667,0.49742 -0.85725,0.70909 -0.22225,0.0635 -0.53975,0.0635 -0.306917,0 -0.592667,-0.16934 -0.28575,-0.15875 -0.370417,-0.43391 -0.169333,0.27516 -0.508,0.43391 -0.338666,0.16934 -0.836083,0.16934 -0.486833,0 -0.899583,-0.127 -0.402167,-0.127 -0.656167,-0.40217 -0.465666,-0.53975 -0.465666,-1.76742 0,-1.5875 0.931333,-2.55058 0.931333,-0.97367 2.413,-0.97367 z m -0.07408,0.635 q -0.391583,0 -0.60325,0.42334 -0.211666,0.42333 -0.433916,1.47108 -0.211667,1.04775 -0.211667,1.98967 0,0.64558 0.381,0.64558 0.338667,0 0.5715,-0.33867 0.243417,-0.33866 0.338667,-0.89958 l 0.5715,-3.10092 q -0.22225,-0.1905 -0.613834,-0.1905 z" />
      <path
         id="path190"
         style="font-style:normal;font-variant:normal;font-weight:normal;font-stretch:normal;font-family:'Sansita One';-inkscape-font-specification:'Sansita One';text-align:center;text-anchor:middle;fill:#ffffff;stroke-width:0.26458332"
         d="m 89.009793,170.24111 q -0.3175,-0.41275 -1.068916,-0.41275 -0.98425,0 -1.524,0.68791 -0.381,0.47625 -0.550334,1.3335 0.275167,-0.45508 0.635,-0.68791 0.370417,-0.24342 0.878417,-0.24342 0.508,0 0.8255,0.17992 0.328083,0.17991 0.529167,0.47625 0.381,0.55033 0.381,1.3335 0,0.78316 -0.28575,1.3335 -0.275167,0.55033 -0.709084,0.92075 -0.433916,0.37041 -0.973666,0.55033 -0.529167,0.1905 -1.037167,0.1905 -0.497417,0 -0.910167,-0.16933 -0.41275,-0.15875 -0.709083,-0.48684 -0.645583,-0.6985 -0.645583,-1.94733 0,-0.83608 0.28575,-1.69333 0.28575,-0.85725 0.804333,-1.55575 0.518583,-0.6985 1.227667,-1.143 0.709083,-0.4445 1.513416,-0.4445 0.804334,0 1.259417,0.254 0.455083,0.254 0.455083,0.71966 0,0.508 -0.381,0.80434 z m -3.026833,2.29658 q -0.137583,0.22225 -0.22225,0.51858 -0.08467,0.29634 -0.08467,0.71967 0,0.41275 0.179917,0.68792 0.1905,0.26458 0.486833,0.26458 0.296334,0 0.465667,-0.20108 0.179917,-0.21167 0.275167,-0.49742 0.169333,-0.508 0.169333,-0.97367 0,-0.46566 -0.169333,-0.73025 -0.15875,-0.26458 -0.381,-0.26458 -0.22225,0 -0.402167,0.127 -0.169333,0.127 -0.3175,0.34925 z" />
      <path
         id="path192"
         style="font-style:normal;font-variant:normal;font-weight:normal;font-stretch:normal;font-family:'Sansita One';-inkscape-font-specification:'Sansita One';text-align:center;text-anchor:middle;fill:#ffffff;stroke-width:0.26458332"
         d="m 95.11919,172.89752 q 0.116417,0.22225 0.116417,0.65617 0,0.43392 -0.328083,0.74083 -0.3175,0.29634 -1.026584,0.29634 h -0.0635 l -0.169333,1.09008 q -0.28575,0.21167 -0.79375,0.21167 -0.656167,0 -0.867833,-0.40217 -0.08467,-0.14817 -0.08467,-0.27517 0,-0.14816 0.02117,-0.3175 l 0.07408,-0.40216 -2.434166,-0.254 v -1.3335 l 3.958166,-4.43442 v 0.0106 l 0.01058,-0.0106 1.471084,0.15875 q -0.497417,2.032 -0.92075,4.37092 h 0.243416 q 0.60325,0 0.79375,-0.10584 z m -4.423833,0.0318 1.598083,0.0529 q 0.34925,-1.55575 0.6985,-2.7305 z" />
      <path
         id="path194"
         style="font-style:normal;font-variant:normal;font-weight:normal;font-stretch:normal;font-family:'Sansita One';-inkscape-font-specification:'Sansita One';text-align:center;text-anchor:middle;fill:#ffffff;stroke-width:0.26458332"
         d="m 96.013981,175.05652 q 0,-0.40216 0.306917,-0.62441 0.317499,-0.22225 0.761999,-0.22225 0.4445,0 0.709084,0.22225 0.275166,0.22225 0.275166,0.62441 0,0.40217 -0.306916,0.62442 -0.296334,0.21167 -0.740834,0.21167 -0.4445,0 -0.730249,-0.21167 -0.275167,-0.22225 -0.275167,-0.62442 z m 2.137833,-4.445 q -0.232833,0.0635 -0.6985,0.0635 -0.465667,0 -0.804333,-0.1905 -0.338667,-0.1905 -0.338667,-0.51858 0,-0.33867 0.15875,-0.60325 0.169333,-0.26458 0.518583,-0.45508 0.73025,-0.42334 1.989667,-0.42334 1.259416,0 1.756836,0.34925 0.49741,0.34925 0.49741,0.94192 0,0.89958 -0.89958,1.59808 -0.26458,0.21167 -0.592666,0.42334 l -2.021417,1.31233 q -0.41275,0.27517 -0.41275,0.67733 -0.306916,0 -0.508,-0.26458 -0.201083,-0.26458 -0.201083,-0.635 0,-0.84667 0.804333,-1.34408 l 1.195917,-0.74084 q 0.497417,-0.29633 0.762,-0.81491 0.08467,-0.16934 0.08467,-0.381 0,-0.48684 -0.486834,-0.48684 -0.381,0 -0.645583,0.30692 -0.232833,0.27517 -0.243417,0.635 -0.01058,0.35983 0.08467,0.55033 z" />
    </g>
  </g>
  <path
     id="rect6108"
     d="M 0,0 H 211.40207 V 119.0625 H 0 Z"
     style="opacity:1;fill:#c83737;fill-opacity:1;stroke:none;stroke-width:4.38045835;stroke-miterlimit:4;stroke-dasharray:none;paint-order:stroke markers fill" />
  <g
     id="flowRoot874"
     style="font-style:normal;font-weight:normal;font-size:40px;line-height:1.25;font-family:sans-serif;letter-spacing:0px;word-spacing:0px;fill:#000000;fill-opacity:1;stroke:none"
     transform="matrix(1.1097917,0,0,1.0234149,-1.6397721,-6.8613634)" />
  <g
     id="flowRoot1087"
     style="font-style:normal;font-weight:normal;font-size:40px;line-height:1.25;font-family:sans-serif;letter-spacing:0px;word-spacing:0px;fill:#000000;fill-opacity:1;stroke:none"
     transform="translate(-1.4775493,-3.9803138)" />
  <g
     style="display:inline"
     id="g4921"
     transform="matrix(1.1825108,0,0,1.2934259,-97.668834,-89.71389)">
    <g
       transform="translate(50.270828)"
       id="g4720">
      <g
         id="g4694"
         transform="translate(-47.638093,1.3360133)"
         style="fill:#333333">
        <path
           style="fill:#333333;stroke:none;stroke-width:0.26458347px;stroke-linecap:butt;stroke-linejoin:miter;stroke-opacity:1"
           d="m 144.21101,139.55982 c 0,0 5.43081,5.83681 7.33498,3.79847 2.22288,-2.37952 -12.62665,-36.87139 -12.62665,-36.87139"
           id="path835" />
        <path
           id="path817"
           d="m 97.450493,140.21473 c 7.815327,4.80271 15.630577,9.60538 23.402247,9.51796 7.77167,-0.0874 15.49967,-5.06478 19.38543,-7.57529 3.88576,-2.5105 3.92946,-2.5542 3.97284,-2.59758"
           style="fill:#333333;stroke:none;stroke-width:0.26458332px;stroke-linecap:butt;stroke-linejoin:miter;stroke-opacity:1" />
        <path
           id="path825"
           d="m 97.450491,140.21473 c 0,0 -5.430812,5.83681 -7.33498,3.79847 -2.222882,-2.37952 12.820499,-36.99713 12.820499,-36.99713"
           style="fill:#333333;stroke:none;stroke-width:0.26458332px;stroke-linecap:butt;stroke-linejoin:miter;stroke-opacity:1" />
        <path
           transform="matrix(1.0226412,0,0,1.0473654,-2.3339152,-3.6688483)"
           id="path831"
           d="m 102.93926,105.67937 c 0.0862,-6.905162 0.17248,-13.810016 1.50935,-18.736088 1.33687,-4.926072 3.92412,-7.873272 9.74546,-9.346742 5.82134,-1.473471 14.87673,-1.473471 19.40429,3.368239 4.52756,4.84171 4.52756,14.525398 4.52756,24.209361"
           style="fill:#333333;stroke:none;stroke-width:0.26458332px;stroke-linecap:butt;stroke-linejoin:miter;stroke-opacity:1" />
      </g>
      <g
         id="g4708">
        <path
           id="path4696"
           d="m 49.741667,141.68958 c 0,0 3.615973,-22.40139 5.55625,-33.60208 l 35.983333,-0.26458 6.614583,33.07291 z"
           style="fill:#333333;stroke:none;stroke-width:0.26458332px;stroke-linecap:butt;stroke-linejoin:miter;stroke-opacity:1" />
        <path
           id="rect4698"
           d="m 55.5625,138.25 h 37.041668 v 3.96875 H 55.5625 Z"
           style="opacity:1;fill:#333333;fill-opacity:1;stroke:none;stroke-width:0.26458332" />
        <path
           id="rect4700"
           d="m 59.53125,106.5 h 30.427082 v 3.96875 H 59.53125 Z"
           style="opacity:1;fill:#333333;fill-opacity:1;stroke:none;stroke-width:0.26458332" />
        <path
           id="rect4702"
           d="m 84.666664,105.17708 h 5.291669 v 3.96875 h -5.291669 z"
           style="opacity:1;fill:#333333;fill-opacity:1;stroke:none;stroke-width:0.26458332" />
      </g>
    </g>
    <path
       d="m 138.70455,126.61246 a 15.239734,15.867999 0 0 1 -15.17522,15.86785 15.239734,15.867999 0 0 1 -15.3037,-15.73349 15.239734,15.867999 0 0 1 15.04563,-16.00108 15.239734,15.867999 0 0 1 15.4311,15.59801"
       id="path843"
       style="opacity:1;fill:#e6e6e6;fill-opacity:1;stroke:none;stroke-width:0.26458332" />
    <g
       transform="translate(44.751274,16.383515)"
       id="g4688">
      <g
         id="g4596"
         transform="translate(-41.01042,-15.875)"
         style="fill:#ff6600;stroke:none">
        <path
           id="path4585"
           d="m 111.125,110.46875 c 2.9216,-2.67614 5.84316,-5.35225 8.7091,-5.35212 2.86595,1.3e-4 5.6775,2.67624 8.48882,5.35212"
           style="fill:#ff6600;stroke:none;stroke-width:0.26458332px;stroke-linecap:butt;stroke-linejoin:miter;stroke-opacity:1" />
        <path
           id="path4589"
           d="m 111.125,110.46875 c 2.77957,3.92198 5.48174,5.31906 8.73125,6.61458"
           style="fill:#ff6600;stroke:none;stroke-width:0.26458332px;stroke-linecap:butt;stroke-linejoin:miter;stroke-opacity:1" />
        <path
           id="path4591"
           d="m 128.32292,110.46875 c -1.04604,3.82945 -4.9192,5.32533 -8.46667,6.61458"
           style="fill:#ff6600;stroke:none;stroke-width:0.26458332px;stroke-linecap:butt;stroke-linejoin:miter;stroke-opacity:1" />
      </g>
      <g
         style="fill:#ff6600;stroke:none"
         transform="translate(-41.01042,-15.875)"
         id="g4661">
        <path
           style="fill:#ff6600;stroke:none;stroke-width:0.26458332px;stroke-linecap:butt;stroke-linejoin:miter;stroke-opacity:1"
           d="m 111.125,110.46875 c 2.9216,-2.67614 5.84316,-5.35225 8.7091,-5.35212 2.86595,1.3e-4 5.6775,2.67624 8.48882,5.35212"
           id="path4655" />
        <path
           style="fill:#ff6600;stroke:none;stroke-width:0.26458332px;stroke-linecap:butt;stroke-linejoin:miter;stroke-opacity:1"
           d="m 111.125,110.46875 c 2.77957,3.92198 5.48174,5.31906 8.73125,6.61458"
           id="path4657" />
        <path
           style="fill:#ff6600;stroke:none;stroke-width:0.26458332px;stroke-linecap:butt;stroke-linejoin:miter;stroke-opacity:1"
           d="m 128.32292,110.46875 c -1.04604,3.82945 -4.9192,5.32533 -8.46667,6.61458"
           id="path4659" />
      </g>
      <path
         style="opacity:1;fill:#ff6600;fill-opacity:1;stroke:none;stroke-width:0.26458332"
         id="path4671"
         d="m 78.845833,101.20833 -4.582718,-2.645833 v -5.291666 l 4.582718,-2.645833 4.582717,2.645833 v 5.291666 z" />
      <path
         style="opacity:1;fill:#ff6600;fill-opacity:1;stroke:none;stroke-width:0.26458332"
         id="path4673"
         d="m 83.608335,99.620834 2.319854,-2.397701 0.916543,3.207907 z"
         transform="matrix(0.94729327,-1.274616,1.0295753,1.1727506,-98.356248,87.506876)" />
      <path
         style="opacity:1;fill:#ff6600;fill-opacity:1;stroke:none;stroke-width:0.26458332"
         id="path4675"
         d="m 74.536294,98.196559 -3.844516,-2.340158 3.948894,-2.159369 z"
         transform="matrix(1.141627,0.11210349,-0.08749549,1.2944633,-2.2020547,-37.413635)" />
    </g>
    <path
       transform="scale(0.26458333)"
       id="path4722"
       d="m 457.97263,570.35612 c -18.79507,-2.12161 -40.18257,-11.27811 -71.63974,-30.67068 -8.13959,-5.01787 -8.02372,-4.97631 -9.49602,-3.40625 -1.98328,2.11498 -9.29175,8.28788 -11.94887,10.09229 -7.55689,5.13179 -13.40276,5.68891 -14.83103,1.41342 -1.63872,-4.90546 5.4376,-28.95935 18.84332,-64.05245 9.54282,-24.98091 28.41577,-70.80369 29.41653,-71.42219 0.22811,-0.14098 0.37499,-0.42288 0.3264,-0.62644 -0.0486,-0.20356 0.0318,-0.82849 0.17857,-1.38874 0.14681,-0.56024 0.45269,-8.53609 0.67974,-17.7241 0.63732,-25.79 1.66538,-38.59108 4.07232,-50.7069 4.32594,-21.77558 13.30666,-33.82393 30.11939,-40.40761 16.87389,-6.60764 39.99439,-8.13907 57.78976,-3.82784 20.7168,5.019 32.64507,17.2536 38.14208,39.1216 3.4588,13.75967 4.66657,26.50558 4.98055,52.56114 0.20469,16.98608 0.39447,21.14579 0.94912,20.80299 0.62648,-0.38718 21.06718,49.83231 30.13912,74.04694 11.92704,31.8354 17.56985,50.7662 17.56985,58.9443 0,2.59002 -0.1133,3.01447 -1.03188,3.86578 -3.15357,2.92263 -9.30891,0.77622 -18.04824,-6.29354 -2.16747,-1.75339 -5.03522,-4.30389 -6.3728,-5.66777 -1.33757,-1.36388 -2.56841,-2.47978 -2.7352,-2.47978 -0.16679,0 -5.21474,3.17625 -11.21765,7.05833 -6.00292,3.88209 -13.48133,8.58639 -16.6187,10.45401 -26.52636,15.79064 -49.54126,22.54011 -69.26662,20.31349 z m 19.96508,-32.86866 c 5.28911,-1.14072 8.32959,-2.22946 13.85333,-4.9606 18.43404,-9.11449 30.90578,-28.24854 32.34892,-49.62947 0.94243,-13.9626 -2.58151,-27.3736 -10.20264,-38.82794 -3.0137,-4.52952 -10.61003,-12.34927 -14.86401,-15.30119 l -2.90399,-2.01514 0.75119,-1.40422 c 0.41315,-0.77232 1.12926,-2.38761 1.59134,-3.58952 1.00562,-2.61573 1.41642,-1.9763 -5.09101,-7.92451 -5.72644,-5.23434 -11.15932,-9.40512 -14.87195,-11.41709 -10.91899,-5.91728 -20.15604,-3.88649 -33.81841,7.43508 -3.40229,2.81937 -10.37133,9.1079 -10.53264,9.50415 -0.0784,0.19273 0.9084,1.72266 2.19301,3.39982 1.28461,1.67718 2.26556,3.10249 2.1799,3.16736 -0.0857,0.0649 -1.43922,0.95947 -3.00791,1.98798 -15.62369,10.24371 -25.66261,28.29897 -26.56551,47.77875 -1.32187,28.5191 16.86115,54.02186 43.57738,61.11985 2.07246,0.55061 5.05159,1.17715 6.62027,1.39232 4.35042,0.59669 14.44506,0.21127 18.74273,-0.71563 z m 70.79456,-4.85226 c -1.62471,-0.0773 -4.28333,-0.0773 -5.90804,0 -1.62471,0.0773 -0.2954,0.14062 2.95402,0.14062 3.24942,0 4.57873,-0.0633 2.95402,-0.14062 z m -16.9092,-125.06569 c -0.39218,-0.10248 -1.03391,-0.10248 -1.42608,0 -0.39217,0.10248 -0.0713,0.18634 0.71304,0.18634 0.78434,0 1.10521,-0.0839 0.71304,-0.18634 z"
       style="opacity:1;fill:#333333;fill-opacity:1;stroke:none;stroke-width:0.40745068" />
    <path
       id="rect4846"
       d="m 139.81281,107.16256 h 1.38157 v 1.25205 h -1.38157 z"
       style="opacity:1;fill:#333333;fill-opacity:1;stroke:none;stroke-width:0.26458332" />
    <g
       id="g4877">
      <path
         d="m 133.36974,95.882912 a 3.0704114,3.0704114 0 0 1 -3.05741,3.070384 3.0704114,3.0704114 0 0 1 -3.0833,-3.044394 3.0704114,3.0704114 0 0 1 3.03132,-3.096154 3.0704114,3.0704114 0 0 1 3.10895,3.018185"
         id="path4860"
         style="opacity:1;fill:#e6e6e6;fill-opacity:1;stroke:none;stroke-width:0.26458332" />
      <g
         id="g4864"
         transform="matrix(0.80841168,0,0,1,68.549895,-7.3051882)">
        <path
           style="opacity:1;fill:#000000;fill-opacity:1;stroke:none;stroke-width:0.26458332"
           id="path4862"
           d="m 77.375031,103.39364 a 1.6372987,1.2321938 0 0 1 -1.630369,1.23218 1.6372987,1.2321938 0 0 1 -1.64417,-1.22175 1.6372987,1.2321938 0 0 1 1.616451,-1.24253 1.6372987,1.2321938 0 0 1 1.657853,1.21124" />
      </g>
    </g>
    <g
       transform="matrix(-1,0,0,1,248.68829,0.27470384)"
       id="g4885">
      <path
         style="opacity:1;fill:#e6e6e6;fill-opacity:1;stroke:none;stroke-width:0.26458332"
         id="path4879"
         d="m 133.36974,95.882912 a 3.0704114,3.0704114 0 0 1 -3.05741,3.070384 3.0704114,3.0704114 0 0 1 -3.0833,-3.044394 3.0704114,3.0704114 0 0 1 3.03132,-3.096154 3.0704114,3.0704114 0 0 1 3.10895,3.018185" />
      <g
         transform="matrix(0.80841168,0,0,1,68.549895,-7.3051882)"
         id="g4883">
        <path
           d="m 77.375031,103.39364 a 1.6372987,1.2321938 0 0 1 -1.630369,1.23218 1.6372987,1.2321938 0 0 1 -1.64417,-1.22175 1.6372987,1.2321938 0 0 1 1.616451,-1.24253 1.6372987,1.2321938 0 0 1 1.657853,1.21124"
           id="path4881"
           style="opacity:1;fill:#000000;fill-opacity:1;stroke:none;stroke-width:0.26458332" />
      </g>
    </g>
  </g>
  <g
     transform="matrix(1.3739172,0,0,2.084456,227.52027,-326.35238)"
     id="text895"
     style="font-style:normal;font-variant:normal;font-weight:normal;font-stretch:normal;font-size:10.58333302px;line-height:1.25;font-family:'Sansita One';-inkscape-font-specification:'Sansita One';text-align:center;letter-spacing:0px;word-spacing:0px;text-anchor:middle;fill:#ffffff;fill-opacity:1;stroke:none;stroke-width:0.26458332"
     aria-label="Introduction  toUbuntu">
    <path
       id="path986"
       style="font-style:normal;font-variant:normal;font-weight:normal;font-stretch:normal;font-family:'Sansita One';-inkscape-font-specification:'Sansita One';text-align:center;text-anchor:middle;fill:#ffffff;stroke-width:0.26458332"
       d="m -108.20471,181.74776 1.34409,-6.985 h 2.32833 l -1.36525,6.985 z" />
    <path
       id="path988"
       style="font-style:normal;font-variant:normal;font-weight:normal;font-stretch:normal;font-family:'Sansita One';-inkscape-font-specification:'Sansita One';text-align:center;text-anchor:middle;fill:#ffffff;stroke-width:0.26458332"
       d="m -99.828826,181.95942 q -1.280584,0 -1.280584,-0.99483 0.0106,-0.27517 0.0952,-0.74083 l 0.1905,-0.97367 q 0.28575,-1.37583 0.28575,-1.68275 0,-0.61383 -0.35983,-0.61383 -0.60325,0 -0.92075,1.57691 l -0.62442,3.21734 -2.12725,0.21166 1.10067,-5.61975 1.73566,-0.20108 -0.16933,1.03717 q 0.49742,-1.03717 2.021417,-1.03717 0.740833,0 1.04775,0.3175 0.3175,0.30692 0.3175,1.00542 0,0.65616 -0.338667,2.19075 -0.15875,0.68791 -0.15875,0.9525 0,0.254 0.137584,0.40216 0.148166,0.14817 0.359833,0.16934 -0.105833,0.35983 -0.47625,0.5715 -0.359833,0.21166 -0.836083,0.21166 z" />
    <path
       id="path990"
       style="font-style:normal;font-variant:normal;font-weight:normal;font-stretch:normal;font-family:'Sansita One';-inkscape-font-specification:'Sansita One';text-align:center;text-anchor:middle;fill:#ffffff;stroke-width:0.26458332"
       d="m -97.500989,180.68942 q 0,-0.28575 0.148167,-1.00541 l 0.560916,-2.8575 h -0.624416 l 0.04233,-0.3175 q 1.27,-0.381 2.497667,-1.31234 h 0.508 l -0.254,1.15359 h 0.8255 l -0.09525,0.47625 h -0.814917 l -0.53975,2.8575 q -0.137583,0.65616 -0.137583,0.87841 0,0.508 0.4445,0.61384 -0.105834,0.35983 -0.486834,0.5715 -0.381,0.21166 -0.92075,0.21166 -0.53975,0 -0.846666,-0.33866 -0.306917,-0.33867 -0.306917,-0.93134 z" />
    <path
       id="path992"
       style="font-style:normal;font-variant:normal;font-weight:normal;font-stretch:normal;font-family:'Sansita One';-inkscape-font-specification:'Sansita One';text-align:center;text-anchor:middle;fill:#ffffff;stroke-width:0.26458332"
       d="m -90.533683,178.77384 q 0.381,-0.67733 0.381,-1.36525 0,-0.45508 -0.328084,-0.45508 -0.254,0 -0.518583,0.43391 -0.275167,0.43392 -0.359833,0.99484 l -0.550334,3.3655 -2.19075,0.21166 1.0795,-5.60916 1.74625,-0.21167 -0.1905,1.06892 q 0.518584,-1.06892 1.68275,-1.06892 0.613834,0 0.941917,0.3175 0.338667,0.3175 0.338667,0.97367 0,0.64558 -0.433917,1.05833 -0.423333,0.41275 -1.153583,0.41275 -0.3175,0 -0.4445,-0.127 z" />
    <path
       id="path994"
       style="font-style:normal;font-variant:normal;font-weight:normal;font-stretch:normal;font-family:'Sansita One';-inkscape-font-specification:'Sansita One';text-align:center;text-anchor:middle;fill:#ffffff;stroke-width:0.26458332"
       d="m -86.020056,181.95942 q -2.328333,0 -2.328333,-2.19075 0,-1.55575 0.85725,-2.56116 0.910166,-1.06892 2.487083,-1.06892 1.143,0 1.725083,0.52917 0.582084,0.52916 0.582084,1.64041 0,1.69334 -0.910167,2.67759 -0.889,0.97366 -2.413,0.97366 z m 0.275167,-4.60375 q -0.127,0.28575 -0.232834,0.71967 -0.09525,0.42333 -0.22225,1.10067 -0.127,0.67733 -0.127,1.51341 0,0.27517 0.08467,0.45509 0.09525,0.17991 0.338667,0.17991 0.243416,0 0.391583,-0.11641 0.15875,-0.11642 0.275167,-0.39159 0.211666,-0.48683 0.381,-1.38641 0.169333,-0.91017 0.179916,-1.30175 0.02117,-0.39159 0.02117,-0.67734 0,-0.29633 -0.08467,-0.48683 -0.08467,-0.1905 -0.328083,-0.1905 -0.232833,0 -0.391583,0.14817 -0.15875,0.14816 -0.28575,0.43391 z" />
    <path
       id="path996"
       style="font-style:normal;font-variant:normal;font-weight:normal;font-stretch:normal;font-family:'Sansita One';-inkscape-font-specification:'Sansita One';text-align:center;text-anchor:middle;fill:#ffffff;stroke-width:0.26458332"
       d="m -78.730289,176.13859 q 0.381,0 0.677333,0.0847 0.01058,-0.0423 0.03175,-0.15875 l 0.05292,-0.32809 q 0.04233,-0.21166 0.105833,-0.56091 l 0.169334,-0.83609 2.106083,-0.21166 -1.17475,6.13833 q -0.01058,0.0635 -0.01058,0.16933 v 0.16934 q 0,0.23283 0.116417,0.41275 0.116417,0.16933 0.306917,0.16933 -0.211667,0.49742 -0.85725,0.70908 -0.22225,0.0635 -0.53975,0.0635 -0.306917,0 -0.592667,-0.16933 -0.28575,-0.15875 -0.370416,-0.43392 -0.169334,0.27517 -0.508,0.43392 -0.338667,0.16933 -0.836084,0.16933 -0.486833,0 -0.899583,-0.127 -0.402167,-0.127 -0.656167,-0.40216 -0.465666,-0.53975 -0.465666,-1.76742 0,-1.5875 0.931333,-2.55058 0.931333,-0.97367 2.413,-0.97367 z m -0.07408,0.635 q -0.391584,0 -0.60325,0.42333 -0.211667,0.42334 -0.433917,1.47109 -0.211667,1.04775 -0.211667,1.98966 0,0.64559 0.381,0.64559 0.338667,0 0.5715,-0.33867 0.243417,-0.33867 0.338667,-0.89958 l 0.5715,-3.10092 q -0.22225,-0.1905 -0.613833,-0.1905 z" />
    <path
       id="path998"
       style="font-style:normal;font-variant:normal;font-weight:normal;font-stretch:normal;font-family:'Sansita One';-inkscape-font-specification:'Sansita One';text-align:center;text-anchor:middle;fill:#ffffff;stroke-width:0.26458332"
       d="m -72.052205,181.30326 q -0.508,0.65616 -1.767417,0.65616 -0.656166,0 -1.132416,-0.39158 -0.47625,-0.40217 -0.47625,-0.97367 0,-0.3175 0.03175,-0.47625 l 0.709083,-3.76766 2.148417,-0.21167 -0.772584,4.08517 q -0.04233,0.23283 -0.04233,0.37041 0,0.61384 0.370417,0.61384 0.41275,0 0.709083,-0.56092 0.09525,-0.17992 0.137583,-0.41275 l 0.751417,-3.88408 2.084916,-0.21167 -0.783166,4.1275 q -0.03175,0.15875 -0.03175,0.32808 0,0.16934 0.09525,0.35984 0.09525,0.17991 0.402166,0.22225 -0.0635,0.254 -0.28575,0.42333 -0.465666,0.35983 -0.973666,0.35983 -0.497417,0 -0.79375,-0.17991 -0.296333,-0.17992 -0.381,-0.47625 z" />
    <path
       id="path1000"
       style="font-style:normal;font-variant:normal;font-weight:normal;font-stretch:normal;font-family:'Sansita One';-inkscape-font-specification:'Sansita One';text-align:center;text-anchor:middle;fill:#ffffff;stroke-width:0.26458332"
       d="m -63.576445,177.34509 q 0,0.4445 -0.370416,0.71967 -0.370417,0.27516 -0.973667,0.27516 -0.254,0 -0.402167,-0.0741 0.116417,-0.27517 0.148167,-0.61383 0.04233,-0.34925 0.04233,-0.4445 0,-0.4445 -0.306916,-0.4445 -0.211667,0 -0.455084,0.26458 -0.232833,0.26458 -0.433916,0.67733 -0.4445,0.9525 -0.4445,1.91559 0,0.52916 0.201083,0.77258 0.201083,0.23283 0.645583,0.23283 0.613834,0 1.100667,-0.508 0.137583,-0.15875 0.211667,-0.33866 0.402166,0.21166 0.402166,0.79375 0,0.59266 -0.656166,0.98425 -0.677334,0.40216 -1.756834,0.40216 -2.148416,0 -2.148416,-2.27541 0,-1.66159 0.941916,-2.61409 0.910167,-0.93133 2.582334,-0.93133 1.672166,0 1.672166,1.2065 z" />
    <path
       id="path1002"
       style="font-style:normal;font-variant:normal;font-weight:normal;font-stretch:normal;font-family:'Sansita One';-inkscape-font-specification:'Sansita One';text-align:center;text-anchor:middle;fill:#ffffff;stroke-width:0.26458332"
       d="m -63.125829,180.68942 q 0,-0.28575 0.148167,-1.00541 l 0.560917,-2.8575 h -0.624417 l 0.04233,-0.3175 q 1.27,-0.381 2.497667,-1.31234 h 0.508 l -0.254,1.15359 h 0.8255 l -0.09525,0.47625 h -0.814917 l -0.53975,2.8575 q -0.137583,0.65616 -0.137583,0.87841 0,0.508 0.4445,0.61384 -0.105833,0.35983 -0.486833,0.5715 -0.381,0.21166 -0.92075,0.21166 -0.53975,0 -0.846667,-0.33866 -0.306917,-0.33867 -0.306917,-0.93134 z" />
    <path
       id="path1004"
       style="font-style:normal;font-variant:normal;font-weight:normal;font-stretch:normal;font-family:'Sansita One';-inkscape-font-specification:'Sansita One';text-align:center;text-anchor:middle;fill:#ffffff;stroke-width:0.26458332"
       d="m -56.931104,181.16567 q -0.328083,0.79375 -1.375833,0.79375 -0.53975,0 -0.878416,-0.37041 -0.28575,-0.32809 -0.28575,-0.65617 0,-0.85725 0.391583,-2.52942 l 0.391583,-2.05316 2.148417,-0.21167 -0.645584,3.34433 q -0.179916,0.78317 -0.179916,1.05834 0,0.60325 0.433916,0.62441 z m -1.566333,-6.2865 q 0,-0.41275 0.338667,-0.635 0.34925,-0.22225 0.846666,-0.22225 0.497417,0 0.79375,0.22225 0.306917,0.22225 0.306917,0.635 0,0.41275 -0.338667,0.62442 -0.328083,0.21167 -0.8255,0.21167 -0.497416,0 -0.814916,-0.21167 -0.306917,-0.21167 -0.306917,-0.62442 z" />
    <path
       id="path1006"
       style="font-style:normal;font-variant:normal;font-weight:normal;font-stretch:normal;font-family:'Sansita One';-inkscape-font-specification:'Sansita One';text-align:center;text-anchor:middle;fill:#ffffff;stroke-width:0.26458332"
       d="m -53.732624,181.95942 q -2.328334,0 -2.328334,-2.19075 0,-1.55575 0.85725,-2.56116 0.910167,-1.06892 2.487084,-1.06892 1.143,0 1.725083,0.52917 0.582083,0.52916 0.582083,1.64041 0,1.69334 -0.910166,2.67759 -0.889,0.97366 -2.413,0.97366 z m 0.275166,-4.60375 q -0.127,0.28575 -0.232833,0.71967 -0.09525,0.42333 -0.22225,1.10067 -0.127,0.67733 -0.127,1.51341 0,0.27517 0.08467,0.45509 0.09525,0.17991 0.338666,0.17991 0.243417,0 0.391584,-0.11641 0.15875,-0.11642 0.275166,-0.39159 0.211667,-0.48683 0.381,-1.38641 0.169334,-0.91017 0.179917,-1.30175 0.02117,-0.39159 0.02117,-0.67734 0,-0.29633 -0.08467,-0.48683 -0.08467,-0.1905 -0.328083,-0.1905 -0.232834,0 -0.391584,0.14817 -0.15875,0.14816 -0.28575,0.43391 z" />
    <path
       id="path1008"
       style="font-style:normal;font-variant:normal;font-weight:normal;font-stretch:normal;font-family:'Sansita One';-inkscape-font-specification:'Sansita One';text-align:center;text-anchor:middle;fill:#ffffff;stroke-width:0.26458332"
       d="m -45.299857,181.95942 q -1.280584,0 -1.280584,-0.99483 0.01058,-0.27517 0.09525,-0.74083 l 0.1905,-0.97367 q 0.28575,-1.37583 0.28575,-1.68275 0,-0.61383 -0.359833,-0.61383 -0.60325,0 -0.92075,1.57691 l -0.624417,3.21734 -2.12725,0.21166 1.100667,-5.61975 1.735667,-0.20108 -0.169334,1.03717 q 0.497417,-1.03717 2.021417,-1.03717 0.740833,0 1.04775,0.3175 0.3175,0.30692 0.3175,1.00542 0,0.65616 -0.338667,2.19075 -0.15875,0.68791 -0.15875,0.9525 0,0.254 0.137584,0.40216 0.148166,0.14817 0.359833,0.16934 -0.105833,0.35983 -0.47625,0.5715 -0.359833,0.21166 -0.836083,0.21166 z" />
    <path
       id="path1010"
       style="font-style:normal;font-variant:normal;font-weight:normal;font-stretch:normal;font-family:'Sansita One';-inkscape-font-specification:'Sansita One';text-align:center;text-anchor:middle;fill:#ffffff;stroke-width:0.26458332"
       d="m -38.6312,180.68942 q 0,-0.28575 0.148167,-1.00541 l 0.560917,-2.8575 h -0.624417 l 0.04233,-0.3175 q 1.27,-0.381 2.497667,-1.31234 h 0.508 l -0.254,1.15359 h 0.8255 l -0.09525,0.47625 H -35.8372 l -0.53975,2.8575 q -0.137583,0.65616 -0.137583,0.87841 0,0.508 0.4445,0.61384 -0.105834,0.35983 -0.486833,0.5715 -0.381,0.21166 -0.92075,0.21166 -0.53975,0 -0.846667,-0.33866 -0.306917,-0.33867 -0.306917,-0.93134 z" />
    <path
       id="path1012"
       style="font-style:normal;font-variant:normal;font-weight:normal;font-stretch:normal;font-family:'Sansita One';-inkscape-font-specification:'Sansita One';text-align:center;text-anchor:middle;fill:#ffffff;stroke-width:0.26458332"
       d="m -32.710652,181.95942 q -2.328333,0 -2.328333,-2.19075 0,-1.55575 0.85725,-2.56116 0.910167,-1.06892 2.487083,-1.06892 1.143,0 1.725084,0.52917 0.582083,0.52916 0.582083,1.64041 0,1.69334 -0.910167,2.67759 -0.889,0.97366 -2.413,0.97366 z m 0.275167,-4.60375 q -0.127,0.28575 -0.232833,0.71967 -0.09525,0.42333 -0.22225,1.10067 -0.127,0.67733 -0.127,1.51341 0,0.27517 0.08467,0.45509 0.09525,0.17991 0.338667,0.17991 0.243417,0 0.391583,-0.11641 0.15875,-0.11642 0.275167,-0.39159 0.211667,-0.48683 0.381,-1.38641 0.169333,-0.91017 0.179917,-1.30175 0.02117,-0.39159 0.02117,-0.67734 0,-0.29633 -0.08467,-0.48683 -0.08467,-0.1905 -0.328084,-0.1905 -0.232833,0 -0.391583,0.14817 -0.15875,0.14816 -0.28575,0.43391 z" />
    <path
       id="path1014"
       style="font-style:normal;font-variant:normal;font-weight:normal;font-stretch:normal;font-family:'Sansita One';-inkscape-font-specification:'Sansita One';text-align:center;text-anchor:middle;fill:#ffffff;stroke-width:0.26458332"
       d="m -86.958253,193.4106 q 0,-0.41275 0.105833,-0.94192 l 0.85725,-4.47675 h 2.338917 l -0.846667,4.5085 q -0.09525,0.49742 -0.09525,0.86783 0,0.35984 0.148167,0.55034 0.15875,0.1905 0.4445,0.1905 0.28575,0 0.465666,-0.0741 0.179917,-0.0741 0.328084,-0.254 0.28575,-0.35983 0.465666,-1.28058 l 0.85725,-4.5085 h 1.598084 l -0.846667,4.49792 q -0.296333,1.50283 -1.11125,2.10608 -0.79375,0.59267 -2.360083,0.59267 -1.17475,0 -1.799167,-0.508 -0.550333,-0.4445 -0.550333,-1.27 z" />
    <path
       id="path1016"
       style="font-style:normal;font-variant:normal;font-weight:normal;font-stretch:normal;font-family:'Sansita One';-inkscape-font-specification:'Sansita One';text-align:center;text-anchor:middle;fill:#ffffff;stroke-width:0.26458332"
       d="m -80.206913,194.46893 1.312333,-6.90033 2.148416,-0.21167 -0.328083,1.61925 q -0.116417,0.49742 -0.264583,0.84667 0.232833,-0.29634 0.740833,-0.41275 0.148167,-0.0423 0.328083,-0.0423 0.98425,0 1.524,0.60325 0.53975,0.59267 0.53975,1.74625 0,1.50284 -0.85725,2.44475 -0.92075,1.02659 -2.592916,1.02659 -1.153584,0 -2.021417,-0.381 -0.306917,-0.13759 -0.529166,-0.33867 z m 2.127249,-0.0952 q 0.22225,0.1905 0.497417,0.1905 0.275167,0 0.433917,-0.10583 0.15875,-0.10584 0.275166,-0.3175 0.3175,-0.5715 0.5715,-2.31775 0.07408,-0.49742 0.07408,-0.99484 0,-0.49741 -0.116417,-0.65616 -0.105833,-0.15875 -0.3175,-0.15875 -0.645583,0 -0.85725,1.25941 z" />
    <path
       id="path1018"
       style="font-style:normal;font-variant:normal;font-weight:normal;font-stretch:normal;font-family:'Sansita One';-inkscape-font-specification:'Sansita One';text-align:center;text-anchor:middle;fill:#ffffff;stroke-width:0.26458332"
       d="m -70.18152,194.53243 q -0.508,0.65617 -1.767417,0.65617 -0.656166,0 -1.132416,-0.39159 -0.47625,-0.40216 -0.47625,-0.97366 0,-0.3175 0.03175,-0.47625 l 0.709083,-3.76767 2.148416,-0.21167 -0.772583,4.08517 q -0.04233,0.23283 -0.04233,0.37042 0,0.61383 0.370416,0.61383 0.41275,0 0.709084,-0.56092 0.09525,-0.17991 0.137583,-0.41275 l 0.751417,-3.88408 2.084916,-0.21167 -0.783166,4.1275 q -0.03175,0.15875 -0.03175,0.32809 0,0.16933 0.09525,0.35983 0.09525,0.17992 0.402166,0.22225 -0.0635,0.254 -0.28575,0.42333 -0.465666,0.35984 -0.973666,0.35984 -0.497417,0 -0.79375,-0.17992 -0.296334,-0.17992 -0.381,-0.47625 z" />
    <path
       id="path1020"
       style="font-style:normal;font-variant:normal;font-weight:normal;font-stretch:normal;font-family:'Sansita One';-inkscape-font-specification:'Sansita One';text-align:center;text-anchor:middle;fill:#ffffff;stroke-width:0.26458332"
       d="m -62.384085,195.1886 q -1.280583,0 -1.280583,-0.99484 0.01058,-0.27516 0.09525,-0.74083 l 0.1905,-0.97367 q 0.28575,-1.37583 0.28575,-1.68275 0,-0.61383 -0.359833,-0.61383 -0.60325,0 -0.92075,1.57692 l -0.624417,3.21733 -2.12725,0.21167 1.100667,-5.61975 1.735666,-0.20109 -0.169333,1.03717 q 0.497417,-1.03717 2.021417,-1.03717 0.740833,0 1.04775,0.3175 0.3175,0.30692 0.3175,1.00542 0,0.65617 -0.338667,2.19075 -0.15875,0.68792 -0.15875,0.9525 0,0.254 0.137583,0.40217 0.148167,0.14816 0.359834,0.16933 -0.105834,0.35983 -0.47625,0.5715 -0.359834,0.21167 -0.836084,0.21167 z" />
    <path
       id="path1022"
       style="font-style:normal;font-variant:normal;font-weight:normal;font-stretch:normal;font-family:'Sansita One';-inkscape-font-specification:'Sansita One';text-align:center;text-anchor:middle;fill:#ffffff;stroke-width:0.26458332"
       d="m -60.056247,193.9186 q 0,-0.28575 0.148166,-1.00542 l 0.560917,-2.8575 h -0.624417 l 0.04233,-0.3175 q 1.27,-0.381 2.497666,-1.31233 h 0.508 l -0.254,1.15358 h 0.8255 l -0.09525,0.47625 h -0.814916 l -0.53975,2.8575 q -0.137584,0.65617 -0.137584,0.87842 0,0.508 0.4445,0.61383 -0.105833,0.35983 -0.486833,0.5715 -0.381,0.21167 -0.92075,0.21167 -0.53975,0 -0.846667,-0.33867 -0.306916,-0.33867 -0.306916,-0.93133 z" />
    <path
       id="path1024"
       style="font-style:normal;font-variant:normal;font-weight:normal;font-stretch:normal;font-family:'Sansita One';-inkscape-font-specification:'Sansita One';text-align:center;text-anchor:middle;fill:#ffffff;stroke-width:0.26458332"
       d="m -53.004274,194.53243 q -0.508,0.65617 -1.767417,0.65617 -0.656166,0 -1.132416,-0.39159 -0.47625,-0.40216 -0.47625,-0.97366 0,-0.3175 0.03175,-0.47625 l 0.709083,-3.76767 2.148417,-0.21167 -0.772584,4.08517 q -0.04233,0.23283 -0.04233,0.37042 0,0.61383 0.370417,0.61383 0.41275,0 0.709083,-0.56092 0.09525,-0.17991 0.137583,-0.41275 l 0.751417,-3.88408 2.084916,-0.21167 -0.783166,4.1275 q -0.03175,0.15875 -0.03175,0.32809 0,0.16933 0.09525,0.35983 0.09525,0.17992 0.402166,0.22225 -0.0635,0.254 -0.28575,0.42333 -0.465666,0.35984 -0.973666,0.35984 -0.497417,0 -0.79375,-0.17992 -0.296333,-0.17992 -0.381,-0.47625 z" />
  </g>
</svg>
