<?xml version="1.0" encoding="UTF-8" standalone="no"?>
<svg
   xmlns:dc="http://purl.org/dc/elements/1.1/"
   xmlns:cc="http://creativecommons.org/ns#"
   xmlns:rdf="http://www.w3.org/1999/02/22-rdf-syntax-ns#"
   xmlns:svg="http://www.w3.org/2000/svg"
   xmlns="http://www.w3.org/2000/svg"
   xmlns:xlink="http://www.w3.org/1999/xlink"
   width="211.40207mm"
   height="119.0625mm"
   viewBox="0 0 211.40207 119.0625"
   version="1.1"
   id="svg3357">
  <defs
     id="defs3351">
    <linearGradient
       id="linearGradient6114">
      <stop
         style="stop-color:#6f7c91;stop-opacity:1;"
         offset="0"
         id="stop6110" />
      <stop
         style="stop-color:#162d50;stop-opacity:1"
         offset="1"
         id="stop6112" />
    </linearGradient>
    <radialGradient
       xlink:href="#linearGradient6114"
       id="radialGradient6126"
       cx="73.77433"
       cy="66.986313"
       fx="73.77433"
       fy="66.986313"
       r="31.67275"
       gradientTransform="matrix(3.0071285,0,0,1.83657,-125.12732,-58.151445)"
       gradientUnits="userSpaceOnUse" />
    <filter
       style="color-interpolation-filters:sRGB"
       id="filter1174"
       x="-0.92336297"
       width="2.8467259"
       y="-0.68460768"
       height="2.3692155">
      <feGaussianBlur
         stdDeviation="7.9870899"
         id="feGaussianBlur1176" />
    </filter>
    <filter
       style="color-interpolation-filters:sRGB"
       id="filter1178"
       x="-0.55788755"
       width="2.1157751"
       y="-0.87131888"
       height="2.7426379">
      <feGaussianBlur
         stdDeviation="7.9870899"
         id="feGaussianBlur1180" />
    </filter>
    <filter
       style="color-interpolation-filters:sRGB"
       id="filter1182"
       x="-0.89742583"
       width="2.7948518"
       y="-0.87131888"
       height="2.7426379">
      <feGaussianBlur
         stdDeviation="7.9870899"
         id="feGaussianBlur1184" />
    </filter>
    <filter
       style="color-interpolation-filters:sRGB"
       id="filter1186"
       x="-0.97601914"
       width="2.9520383"
       y="-0.87131888"
       height="2.7426379">
      <feGaussianBlur
         stdDeviation="7.9870899"
         id="feGaussianBlur1188" />
    </filter>
    <filter
       style="color-interpolation-filters:sRGB"
       id="filter1190"
       x="-0.72172499"
       width="2.44345"
       y="-0.55723882"
       height="2.1144776">
      <feGaussianBlur
         stdDeviation="7.9870899"
         id="feGaussianBlur1192" />
    </filter>
    <filter
       style="color-interpolation-filters:sRGB"
       id="filter1194"
       x="-0.99424356"
       width="2.988487"
       y="-0.87131888"
       height="2.7426379">
      <feGaussianBlur
         stdDeviation="7.9870899"
         id="feGaussianBlur1196" />
    </filter>
    <filter
       style="color-interpolation-filters:sRGB"
       id="filter1198"
       x="-0.88910091"
       width="2.7782018"
       y="-0.87131888"
       height="2.7426379">
      <feGaussianBlur
         stdDeviation="7.9870899"
         id="feGaussianBlur1200" />
    </filter>
    <filter
       style="color-interpolation-filters:sRGB"
       id="filter1202"
       x="-0.55788755"
       width="2.1157751"
       y="-0.87131888"
       height="2.7426379">
      <feGaussianBlur
         stdDeviation="7.9870899"
         id="feGaussianBlur1204" />
    </filter>
    <filter
       style="color-interpolation-filters:sRGB"
       id="filter1206"
       x="-0.83343548"
       width="2.6668708"
       y="-0.87131888"
       height="2.7426379">
      <feGaussianBlur
         stdDeviation="7.9870899"
         id="feGaussianBlur1208" />
    </filter>
    <filter
       style="color-interpolation-filters:sRGB"
       id="filter1210"
       x="-0.74413884"
       width="2.4882777"
       y="-0.69654852"
       height="2.3930972">
      <feGaussianBlur
         stdDeviation="7.9870899"
         id="feGaussianBlur1212" />
    </filter>
  </defs>
  <metadata
     id="metadata3354">
    <rdf:RDF>
      <cc:Work
         rdf:about="">
        <dc:format>image/svg+xml</dc:format>
        <dc:type
           rdf:resource="http://purl.org/dc/dcmitype/StillImage" />
        <dc:title></dc:title>
      </cc:Work>
    </rdf:RDF>
  </metadata>
  <path
     id="rect6108"
     d="M 0,0 H 211.40207 V 119.0625 H 0 Z"
     style="opacity:1;fill:#c83737;fill-opacity:1;stroke:none;stroke-width:4.38045835;stroke-miterlimit:4;stroke-dasharray:none;paint-order:stroke markers fill" />
  <g
     id="flowRoot874"
     style="font-style:normal;font-weight:normal;font-size:40px;line-height:1.25;font-family:sans-serif;letter-spacing:0px;word-spacing:0px;fill:#000000;fill-opacity:1;stroke:none"
     transform="matrix(1.1097917,0,0,1.0234149,-1.6397721,-6.8613634)" />
  <g
     id="flowRoot1087"
     style="font-style:normal;font-weight:normal;font-size:40px;line-height:1.25;font-family:sans-serif;letter-spacing:0px;word-spacing:0px;fill:#000000;fill-opacity:1;stroke:none"
     transform="translate(-1.4775493,-3.9803138)" />
  <g
     transform="matrix(1.1825108,0,0,1.2934259,-97.668834,-89.71389)"
     id="g4921"
     style="display:inline">
    <g
       id="g4720"
       transform="translate(50.270828)">
      <g
         style="fill:#333333"
         transform="translate(-47.638093,1.3360133)"
         id="g4694">
        <path
           id="path835"
           d="m 144.21101,139.55982 c 0,0 5.43081,5.83681 7.33498,3.79847 2.22288,-2.37952 -12.62665,-36.87139 -12.62665,-36.87139"
           style="fill:#333333;stroke:none;stroke-width:0.26458347px;stroke-linecap:butt;stroke-linejoin:miter;stroke-opacity:1" />
        <path
           style="fill:#333333;stroke:none;stroke-width:0.26458332px;stroke-linecap:butt;stroke-linejoin:miter;stroke-opacity:1"
           d="m 97.450493,140.21473 c 7.815327,4.80271 15.630577,9.60538 23.402247,9.51796 7.77167,-0.0874 15.49967,-5.06478 19.38543,-7.57529 3.88576,-2.5105 3.92946,-2.5542 3.97284,-2.59758"
           id="path817" />
        <path
           style="fill:#333333;stroke:none;stroke-width:0.26458332px;stroke-linecap:butt;stroke-linejoin:miter;stroke-opacity:1"
           d="m 97.450491,140.21473 c 0,0 -5.430812,5.83681 -7.33498,3.79847 -2.222882,-2.37952 12.820499,-36.99713 12.820499,-36.99713"
           id="path825" />
        <path
           style="fill:#333333;stroke:none;stroke-width:0.26458332px;stroke-linecap:butt;stroke-linejoin:miter;stroke-opacity:1"
           d="m 102.93926,105.67937 c 0.0862,-6.905162 0.17248,-13.810016 1.50935,-18.736088 1.33687,-4.926072 3.92412,-7.873272 9.74546,-9.346742 5.82134,-1.473471 14.87673,-1.473471 19.40429,3.368239 4.52756,4.84171 4.52756,14.525398 4.52756,24.209361"
           id="path831"
           transform="matrix(1.0226412,0,0,1.0473654,-2.3339152,-3.6688483)" />
      </g>
      <g
         id="g4708">
        <path
           style="fill:#333333;stroke:none;stroke-width:0.26458332px;stroke-linecap:butt;stroke-linejoin:miter;stroke-opacity:1"
           d="m 49.741667,141.68958 c 0,0 3.615973,-22.40139 5.55625,-33.60208 l 35.983333,-0.26458 6.614583,33.07291 z"
           id="path4696" />
        <path
           id="rect4698"
           d="m 55.5625,138.25 h 37.041668 v 3.96875 H 55.5625 Z"
           style="opacity:1;fill:#333333;fill-opacity:1;stroke:none;stroke-width:0.26458332" />
        <path
           id="rect4700"
           d="m 59.53125,106.5 h 30.427082 v 3.96875 H 59.53125 Z"
           style="opacity:1;fill:#333333;fill-opacity:1;stroke:none;stroke-width:0.26458332" />
        <path
           id="rect4702"
           d="m 84.666664,105.17708 h 5.291669 v 3.96875 h -5.291669 z"
           style="opacity:1;fill:#333333;fill-opacity:1;stroke:none;stroke-width:0.26458332" />
      </g>
    </g>
    <path
       style="opacity:1;fill:#e6e6e6;fill-opacity:1;stroke:none;stroke-width:0.26458332"
       id="path843"
       d="m 138.70455,126.61246 a 15.239734,15.867999 0 0 1 -15.17522,15.86785 15.239734,15.867999 0 0 1 -15.3037,-15.73349 15.239734,15.867999 0 0 1 15.04563,-16.00108 15.239734,15.867999 0 0 1 15.4311,15.59801" />
    <g
       id="g4688"
       transform="translate(44.751274,16.383515)">
      <g
         style="fill:#ff6600;stroke:none"
         transform="translate(-41.01042,-15.875)"
         id="g4596">
        <path
           style="fill:#ff6600;stroke:none;stroke-width:0.26458332px;stroke-linecap:butt;stroke-linejoin:miter;stroke-opacity:1"
           d="m 111.125,110.46875 c 2.9216,-2.67614 5.84316,-5.35225 8.7091,-5.35212 2.86595,1.3e-4 5.6775,2.67624 8.48882,5.35212"
           id="path4585" />
        <path
           style="fill:#ff6600;stroke:none;stroke-width:0.26458332px;stroke-linecap:butt;stroke-linejoin:miter;stroke-opacity:1"
           d="m 111.125,110.46875 c 2.77957,3.92198 5.48174,5.31906 8.73125,6.61458"
           id="path4589" />
        <path
           style="fill:#ff6600;stroke:none;stroke-width:0.26458332px;stroke-linecap:butt;stroke-linejoin:miter;stroke-opacity:1"
           d="m 128.32292,110.46875 c -1.04604,3.82945 -4.9192,5.32533 -8.46667,6.61458"
           id="path4591" />
      </g>
      <g
         id="g4661"
         transform="translate(-41.01042,-15.875)"
         style="fill:#ff6600;stroke:none">
        <path
           id="path4655"
           d="m 111.125,110.46875 c 2.9216,-2.67614 5.84316,-5.35225 8.7091,-5.35212 2.86595,1.3e-4 5.6775,2.67624 8.48882,5.35212"
           style="fill:#ff6600;stroke:none;stroke-width:0.26458332px;stroke-linecap:butt;stroke-linejoin:miter;stroke-opacity:1" />
        <path
           id="path4657"
           d="m 111.125,110.46875 c 2.77957,3.92198 5.48174,5.31906 8.73125,6.61458"
           style="fill:#ff6600;stroke:none;stroke-width:0.26458332px;stroke-linecap:butt;stroke-linejoin:miter;stroke-opacity:1" />
        <path
           id="path4659"
           d="m 128.32292,110.46875 c -1.04604,3.82945 -4.9192,5.32533 -8.46667,6.61458"
           style="fill:#ff6600;stroke:none;stroke-width:0.26458332px;stroke-linecap:butt;stroke-linejoin:miter;stroke-opacity:1" />
      </g>
      <path
         d="m 78.845833,101.20833 -4.582718,-2.645833 v -5.291666 l 4.582718,-2.645833 4.582717,2.645833 v 5.291666 z"
         id="path4671"
         style="opacity:1;fill:#ff6600;fill-opacity:1;stroke:none;stroke-width:0.26458332" />
      <path
         transform="matrix(0.94729327,-1.274616,1.0295753,1.1727506,-98.356248,87.506876)"
         d="m 83.608335,99.620834 2.319854,-2.397701 0.916543,3.207907 z"
         id="path4673"
         style="opacity:1;fill:#ff6600;fill-opacity:1;stroke:none;stroke-width:0.26458332" />
      <path
         transform="matrix(1.141627,0.11210349,-0.08749549,1.2944633,-2.2020547,-37.413635)"
         d="m 74.536294,98.196559 -3.844516,-2.340158 3.948894,-2.159369 z"
         id="path4675"
         style="opacity:1;fill:#ff6600;fill-opacity:1;stroke:none;stroke-width:0.26458332" />
    </g>
    <path
       style="opacity:1;fill:#333333;fill-opacity:1;stroke:none;stroke-width:0.40745068"
       d="m 457.97263,570.35612 c -18.79507,-2.12161 -40.18257,-11.27811 -71.63974,-30.67068 -8.13959,-5.01787 -8.02372,-4.97631 -9.49602,-3.40625 -1.98328,2.11498 -9.29175,8.28788 -11.94887,10.09229 -7.55689,5.13179 -13.40276,5.68891 -14.83103,1.41342 -1.63872,-4.90546 5.4376,-28.95935 18.84332,-64.05245 9.54282,-24.98091 28.41577,-70.80369 29.41653,-71.42219 0.22811,-0.14098 0.37499,-0.42288 0.3264,-0.62644 -0.0486,-0.20356 0.0318,-0.82849 0.17857,-1.38874 0.14681,-0.56024 0.45269,-8.53609 0.67974,-17.7241 0.63732,-25.79 1.66538,-38.59108 4.07232,-50.7069 4.32594,-21.77558 13.30666,-33.82393 30.11939,-40.40761 16.87389,-6.60764 39.99439,-8.13907 57.78976,-3.82784 20.7168,5.019 32.64507,17.2536 38.14208,39.1216 3.4588,13.75967 4.66657,26.50558 4.98055,52.56114 0.20469,16.98608 0.39447,21.14579 0.94912,20.80299 0.62648,-0.38718 21.06718,49.83231 30.13912,74.04694 11.92704,31.8354 17.56985,50.7662 17.56985,58.9443 0,2.59002 -0.1133,3.01447 -1.03188,3.86578 -3.15357,2.92263 -9.30891,0.77622 -18.04824,-6.29354 -2.16747,-1.75339 -5.03522,-4.30389 -6.3728,-5.66777 -1.33757,-1.36388 -2.56841,-2.47978 -2.7352,-2.47978 -0.16679,0 -5.21474,3.17625 -11.21765,7.05833 -6.00292,3.88209 -13.48133,8.58639 -16.6187,10.45401 -26.52636,15.79064 -49.54126,22.54011 -69.26662,20.31349 z m 19.96508,-32.86866 c 5.28911,-1.14072 8.32959,-2.22946 13.85333,-4.9606 18.43404,-9.11449 30.90578,-28.24854 32.34892,-49.62947 0.94243,-13.9626 -2.58151,-27.3736 -10.20264,-38.82794 -3.0137,-4.52952 -10.61003,-12.34927 -14.86401,-15.30119 l -2.90399,-2.01514 0.75119,-1.40422 c 0.41315,-0.77232 1.12926,-2.38761 1.59134,-3.58952 1.00562,-2.61573 1.41642,-1.9763 -5.09101,-7.92451 -5.72644,-5.23434 -11.15932,-9.40512 -14.87195,-11.41709 -10.91899,-5.91728 -20.15604,-3.88649 -33.81841,7.43508 -3.40229,2.81937 -10.37133,9.1079 -10.53264,9.50415 -0.0784,0.19273 0.9084,1.72266 2.19301,3.39982 1.28461,1.67718 2.26556,3.10249 2.1799,3.16736 -0.0857,0.0649 -1.43922,0.95947 -3.00791,1.98798 -15.62369,10.24371 -25.66261,28.29897 -26.56551,47.77875 -1.32187,28.5191 16.86115,54.02186 43.57738,61.11985 2.07246,0.55061 5.05159,1.17715 6.62027,1.39232 4.35042,0.59669 14.44506,0.21127 18.74273,-0.71563 z m 70.79456,-4.85226 c -1.62471,-0.0773 -4.28333,-0.0773 -5.90804,0 -1.62471,0.0773 -0.2954,0.14062 2.95402,0.14062 3.24942,0 4.57873,-0.0633 2.95402,-0.14062 z m -16.9092,-125.06569 c -0.39218,-0.10248 -1.03391,-0.10248 -1.42608,0 -0.39217,0.10248 -0.0713,0.18634 0.71304,0.18634 0.78434,0 1.10521,-0.0839 0.71304,-0.18634 z"
       id="path4722"
       transform="scale(0.26458333)" />
    <path
       id="rect4846"
       d="m 139.81281,107.16256 h 1.38157 v 1.25205 h -1.38157 z"
       style="opacity:1;fill:#333333;fill-opacity:1;stroke:none;stroke-width:0.26458332" />
    <g
       id="g4877">
      <path
         style="opacity:1;fill:#e6e6e6;fill-opacity:1;stroke:none;stroke-width:0.26458332"
         id="path4860"
         d="m 133.36974,95.882912 a 3.0704114,3.0704114 0 0 1 -3.05741,3.070384 3.0704114,3.0704114 0 0 1 -3.0833,-3.044394 3.0704114,3.0704114 0 0 1 3.03132,-3.096154 3.0704114,3.0704114 0 0 1 3.10895,3.018185" />
      <g
         transform="matrix(0.80841168,0,0,1,68.549895,-7.3051882)"
         id="g4864">
        <path
           d="m 77.375031,103.39364 a 1.6372987,1.2321938 0 0 1 -1.630369,1.23218 1.6372987,1.2321938 0 0 1 -1.64417,-1.22175 1.6372987,1.2321938 0 0 1 1.616451,-1.24253 1.6372987,1.2321938 0 0 1 1.657853,1.21124"
           id="path4862"
           style="opacity:1;fill:#000000;fill-opacity:1;stroke:none;stroke-width:0.26458332" />
      </g>
    </g>
    <g
       id="g4885"
       transform="matrix(-1,0,0,1,248.68829,0.27470384)">
      <path
         d="m 133.36974,95.882912 a 3.0704114,3.0704114 0 0 1 -3.05741,3.070384 3.0704114,3.0704114 0 0 1 -3.0833,-3.044394 3.0704114,3.0704114 0 0 1 3.03132,-3.096154 3.0704114,3.0704114 0 0 1 3.10895,3.018185"
         id="path4879"
         style="opacity:1;fill:#e6e6e6;fill-opacity:1;stroke:none;stroke-width:0.26458332" />
      <g
         id="g4883"
         transform="matrix(0.80841168,0,0,1,68.549895,-7.3051882)">
        <path
           style="opacity:1;fill:#000000;fill-opacity:1;stroke:none;stroke-width:0.26458332"
           id="path4881"
           d="m 77.375031,103.39364 a 1.6372987,1.2321938 0 0 1 -1.630369,1.23218 1.6372987,1.2321938 0 0 1 -1.64417,-1.22175 1.6372987,1.2321938 0 0 1 1.616451,-1.24253 1.6372987,1.2321938 0 0 1 1.657853,1.21124" />
      </g>
    </g>
  </g>
  <g
     id="text1125"
     style="font-style:normal;font-weight:normal;font-size:22.8146534px;line-height:1.25;font-family:sans-serif;letter-spacing:0px;word-spacing:0px;fill:#ffffff;fill-opacity:1;stroke:none;stroke-width:0.57036638"
     transform="matrix(0.94491786,0,0,0.81796644,31.344527,-0.32221674)"
     aria-label="RawvsQCow2">
    <path
       id="path4622"
       style="font-style:normal;font-variant:normal;font-weight:normal;font-stretch:normal;font-family:'Sansita One';-inkscape-font-specification:'Sansita One';text-align:center;text-anchor:middle;fill:#ffffff;stroke-width:0.57036638"
       d="m 83.631914,48.826221 2.783388,-14.989227 q 2.258651,-0.250961 5.543961,-0.250961 3.308124,0 4.836706,0.958215 1.528582,0.958216 1.528582,2.897461 0,1.916431 -1.003845,3.125608 -0.98103,1.209177 -2.692129,1.597026 0.387849,1.893616 1.277621,3.422198 0.821327,1.437323 1.779543,1.893616 -0.34222,0.958215 -1.049474,1.368879 -0.68444,0.433479 -1.688285,0.433479 -0.98103,0 -1.756728,-0.570367 -0.775698,-0.593181 -1.391694,-1.665469 -1.300435,-2.327095 -1.437323,-6.000254 h 0.159703 q 1.688284,-0.04563 2.532426,-0.912586 0.844142,-0.889772 0.844142,-2.737759 0,-2.30428 -1.939245,-2.395538 H 91.45734 q -0.205332,0 -0.319405,0.02281 L 88.51425,48.826221 Z" />
    <path
       id="path4624"
       style="font-style:normal;font-variant:normal;font-weight:normal;font-stretch:normal;font-family:'Sansita One';-inkscape-font-specification:'Sansita One';text-align:center;text-anchor:middle;fill:#ffffff;stroke-width:0.57036638"
       d="m 100.36967,48.141782 q -0.524736,-0.593181 -0.775698,-1.528582 -0.228146,-0.935401 -0.228146,-2.463982 0,-1.528582 0.524737,-2.920276 0.524737,-1.391694 1.482957,-2.395539 1.96206,-2.098948 5.20174,-2.098948 1.16354,0 2.00769,0.387849 l 3.9013,-0.387849 -1.68828,8.897715 q -0.0684,0.273776 -0.0684,0.775698 0,0.501923 0.29659,0.821328 0.31941,0.319405 0.7757,0.365034 -0.22814,0.775698 -1.07229,1.231991 -0.82132,0.456294 -1.75673,0.456294 -0.9354,0 -1.57421,-0.365035 -0.61599,-0.34222 -0.79851,-0.935401 -0.36503,0.570367 -1.14073,0.935401 -0.7757,0.365035 -1.82517,0.365035 -1.02666,0 -1.87081,-0.273776 -0.84414,-0.273776 -1.39169,-0.866957 z m 4.81389,-9.262749 q -0.25096,0.410663 -0.47911,1.117918 -0.22814,0.684439 -0.61599,2.555241 -0.36504,1.847987 -0.36504,3.171237 0,1.32325 0.20534,1.711099 0.20533,0.387849 0.57036,0.387849 0.73007,0 1.25481,-0.68444 0.54755,-0.707254 0.75288,-1.939245 l 1.20918,-6.684694 q -0.47911,-0.410664 -1.04948,-0.410664 -0.54755,0 -0.88977,0.182518 -0.3194,0.182517 -0.59318,0.593181 z" />
    <path
       id="path4626"
       style="font-style:normal;font-variant:normal;font-weight:normal;font-stretch:normal;font-family:'Sansita One';-inkscape-font-specification:'Sansita One';text-align:center;text-anchor:middle;fill:#ffffff;stroke-width:0.57036638"
       d="m 130.75665,45.016174 q -1.50577,2.076134 -2.9659,3.171237 -1.43733,1.095104 -2.94309,1.095104 -1.48296,0 -2.00769,-0.296591 V 43.9667 q -1.30044,3.467828 -3.62753,4.813892 -0.84415,0.501923 -1.64266,0.501923 -1.52858,0 -2.19021,-0.296591 -0.1597,-5.224556 -0.29659,-6.661879 -0.13688,-1.460138 -0.25096,-2.349909 -0.22814,-1.779543 -1.00384,-2.509612 0.98103,-0.730069 2.34991,-0.730069 2.6465,0 3.01153,3.28531 0.0913,0.775698 0.0913,1.597026 0,1.231991 -0.27378,5.521146 0.54756,-0.250961 1.11792,-1.140733 0.59318,-0.912586 1.07229,-2.144577 1.07229,-2.851832 1.07229,-5.315814 0,-0.387849 -0.11407,-0.798513 -0.0913,-0.410664 -0.20534,-0.524737 0.79852,-0.479108 2.00769,-0.479108 1.232,0 1.80236,0.844142 0.59318,0.821328 0.75289,2.34991 0.18251,1.939245 0.18251,3.102793 0,1.61984 -0.1597,4.015379 1.14073,-0.821328 2.07613,-3.513457 0.9354,-2.692129 0.9354,-4.60856 0,-0.844142 -0.13688,-1.346065 0.75288,-0.844142 2.05332,-0.844142 0.79851,0 1.36887,0.433479 0.59319,0.433478 0.59319,1.254806 0,0.798512 -0.25097,1.665469 -0.22814,0.866957 -0.61599,1.756729 -0.75288,1.779542 -1.80236,3.171236 z" />
    <path
       id="path4628"
       style="font-style:normal;font-variant:normal;font-weight:normal;font-stretch:normal;font-family:'Sansita One';-inkscape-font-specification:'Sansita One';text-align:center;text-anchor:middle;fill:#ffffff;stroke-width:0.57036638"
       d="m 105.19729,66.525203 q 0.75288,-0.844142 2.05332,-0.844142 0.79851,0 1.4145,0.433478 0.616,0.433479 0.616,1.254806 0,0.798513 -0.25096,1.66547 -0.25096,0.866957 -0.63881,1.756728 -0.7757,1.733914 -1.84799,3.171237 -1.50577,2.076133 -2.9659,3.171237 -1.43733,1.095103 -3.01154,1.095103 -1.277618,0 -2.053316,-0.29659 -0.136888,-4.791077 -0.319406,-6.502176 -0.159702,-1.7111 -0.29659,-2.6465 -0.228147,-1.825173 -0.912586,-2.258651 0.524737,-0.456293 1.026659,-0.63881 0.524737,-0.205332 1.574211,-0.205332 1.072288,0 1.825168,0.844142 0.75289,0.821328 0.88978,2.30428 0.1597,1.460138 0.1597,3.239681 0,1.779543 -0.13689,3.92412 0.70726,-0.501922 1.46014,-2.030504 1.02666,-2.121763 1.39169,-4.677004 0.11408,-0.775698 0.11408,-1.597026 0,-0.821327 -0.0913,-1.163547 z" />
    <path
       id="path4630"
       style="font-style:normal;font-variant:normal;font-weight:normal;font-stretch:normal;font-family:'Sansita One';-inkscape-font-specification:'Sansita One';text-align:center;text-anchor:middle;fill:#ffffff;stroke-width:0.57036638"
       d="m 116.70407,69.764884 q 0.31941,-0.844142 0.31941,-1.574211 0,-1.346065 -1.09511,-1.346065 -0.57036,0 -1.04947,0.524737 -0.45629,0.501923 -0.45629,1.140733 0,0.456293 0.36503,0.821327 0.52474,0.501923 1.8708,1.32325 1.34607,0.821328 1.84799,1.505767 0.52474,0.661625 0.52474,1.597026 0,0.912586 -0.4563,1.756728 -0.43348,0.844143 -1.23199,1.437324 -1.7111,1.27762 -4.44886,1.27762 -1.48295,0 -2.62368,-0.775698 -1.14073,-0.752884 -1.14073,-1.642655 0,-0.889772 0.63881,-1.414509 0.66162,-0.524737 1.61984,-0.524737 0.95821,0 1.55139,0.365035 -0.29659,0.752883 -0.29659,1.254806 0,1.505767 1.27762,1.505767 0.54756,0 0.91259,-0.34222 0.36503,-0.34222 0.36503,-0.935401 0,-1.163547 -1.96206,-2.395538 -1.59702,-1.049474 -1.96206,-1.460138 -0.61599,-0.730069 -0.61599,-1.642655 0,-0.912586 0.43348,-1.779543 0.43347,-0.866957 1.23199,-1.482953 1.66547,-1.27762 4.56293,-1.27762 1.48295,0 2.34991,0.593181 0.88977,0.593181 0.88977,1.597026 0,1.003844 -0.616,1.574211 -0.59318,0.570366 -1.68828,0.570366 -0.75288,0 -1.11792,-0.250961 z" />
    <path
       id="path4632"
       style="font-style:normal;font-variant:normal;font-weight:normal;font-stretch:normal;font-family:'Sansita One';-inkscape-font-specification:'Sansita One';text-align:center;text-anchor:middle;fill:#ffffff;stroke-width:0.57036638"
       d="m 73.205974,105.35065 q 0.798513,0.43348 1.984875,0.43348 1.186362,0 2.167392,-0.70726 1.003845,-0.73007 1.711099,-2.05332 1.460138,-2.8062 1.460138,-7.323499 0,-2.874647 -1.300435,-2.874647 -0.68444,0 -1.346065,0.752884 -0.661625,0.752883 -1.186362,1.96206 -1.140733,2.760573 -1.140733,6.000252 0,0.66163 0.319406,1.07229 0.319405,0.38785 0.889771,0.38785 -0.09126,0.70725 -0.707254,1.20918 -0.615996,0.50192 -1.391694,0.50192 -1.847987,0 -2.806202,-1.14073 -0.935401,-1.16355 -0.935401,-3.23968 0,-2.098953 0.63881,-3.741608 0.63881,-1.642655 1.756728,-2.829017 1.117918,-1.209177 2.6465,-1.893616 1.551397,-0.68444 3.376569,-0.68444 6.114327,0 6.114327,5.954625 0,4.289156 -2.053319,6.912836 -2.053319,2.6465 -5.612405,2.96591 2.098949,0.45629 4.220711,0.45629 1.66547,0 2.897461,-0.70725 0.34222,-0.20533 0.479108,-0.43348 0.68444,0.61599 0.68444,1.82517 0,1.23199 -1.095104,1.93925 -1.072288,0.70725 -3.194051,0.70725 -2.098948,0 -4.540116,-0.98103 -2.441168,-0.98103 -4.540116,-2.8062 z" />
    <path
       id="path4634"
       style="font-style:normal;font-variant:normal;font-weight:normal;font-stretch:normal;font-family:'Sansita One';-inkscape-font-specification:'Sansita One';text-align:center;text-anchor:middle;fill:#ffffff;stroke-width:0.57036638"
       d="m 98.464648,101.99689 q 0.593181,0.43348 0.593181,1.36888 0,0.91259 -0.410664,1.57422 -0.387849,0.63881 -1.163548,1.14073 -1.665469,1.07229 -4.585745,1.07229 -2.897461,0 -4.494487,-1.50577 -1.574211,-1.52858 -1.574211,-4.22071 0,-3.810049 1.984875,-6.707509 1.505767,-2.144578 4.197896,-3.057164 1.391694,-0.456293 2.760573,-0.456293 1.36888,0 2.213022,0.182517 0.844142,0.182517 1.482952,0.547552 1.391698,0.798513 1.391698,2.076133 0,1.163548 -1.095107,2.030504 -1.003845,0.775699 -1.825172,0.775699 -0.821328,0 -1.163548,-0.114074 0.09126,-0.821327 0.09126,-1.346064 0,-0.547552 -0.02281,-0.935401 -0.02282,-0.387849 -0.136888,-0.752884 -0.228146,-0.844142 -0.935401,-0.844142 -0.684439,0 -1.391693,0.661625 -0.68444,0.638811 -1.277621,1.733914 -1.346065,2.486797 -1.346065,5.429887 0,1.41451 0.798513,2.23584 0.798513,0.79851 2.509612,0.79851 1.277621,0 2.486797,-0.84414 0.524737,-0.36504 0.912587,-0.84415 z" />
    <path
       id="path4636"
       style="font-style:normal;font-variant:normal;font-weight:normal;font-stretch:normal;font-family:'Sansita One';-inkscape-font-specification:'Sansita One';text-align:center;text-anchor:middle;fill:#ffffff;stroke-width:0.57036638"
       d="m 105.92183,107.17582 q -5.01922,0 -5.01922,-4.72263 0,-3.353756 1.84798,-5.521148 1.96206,-2.30428 5.36145,-2.30428 2.46398,0 3.71879,1.140733 1.2548,1.140732 1.2548,3.536271 0,3.650344 -1.96206,5.772104 -1.91643,2.09895 -5.20174,2.09895 z m 0.59318,-9.924373 q -0.27377,0.615996 -0.50192,1.551396 -0.20533,0.912587 -0.47911,2.372727 -0.27377,1.46014 -0.27377,3.26249 0,0.59318 0.18251,0.98103 0.20533,0.38785 0.73007,0.38785 0.52474,0 0.84414,-0.25096 0.34222,-0.25096 0.59318,-0.84414 0.4563,-1.04948 0.82133,-2.98872 0.36504,-1.962061 0.38785,-2.806203 0.0456,-0.844142 0.0456,-1.460138 0,-0.63881 -0.18252,-1.049474 -0.18251,-0.410664 -0.70725,-0.410664 -0.50192,0 -0.84414,0.319405 -0.34222,0.319405 -0.616,0.935401 z" />
    <path
       id="path4638"
       style="font-style:normal;font-variant:normal;font-weight:normal;font-stretch:normal;font-family:'Sansita One';-inkscape-font-specification:'Sansita One';text-align:center;text-anchor:middle;fill:#ffffff;stroke-width:0.57036638"
       d="m 131.29137,102.90948 q -1.50577,2.07613 -2.96591,3.17124 -1.43732,1.0951 -2.94309,1.0951 -1.48295,0 -2.00768,-0.29659 v -5.01922 q -1.30044,3.46782 -3.62753,4.81389 -0.84415,0.50192 -1.64266,0.50192 -1.52858,0 -2.19021,-0.29659 -0.1597,-5.22455 -0.29659,-6.66188 -0.13688,-1.460136 -0.25096,-2.349907 -0.22814,-1.779543 -1.00384,-2.509612 0.98103,-0.730069 2.34991,-0.730069 2.6465,0 3.01153,3.28531 0.0913,0.775698 0.0913,1.597026 0,1.231992 -0.27378,5.521142 0.54756,-0.25096 1.11792,-1.14073 0.59318,-0.91258 1.07229,-2.14458 1.07229,-2.851828 1.07229,-5.31581 0,-0.38785 -0.11407,-0.798513 -0.0913,-0.410664 -0.20534,-0.524737 0.79852,-0.479108 2.00769,-0.479108 1.23199,0 1.80236,0.844142 0.59318,0.821328 0.75288,2.349909 0.18252,1.939246 0.18252,3.102797 0,1.61984 -0.1597,4.01538 1.14073,-0.82133 2.07613,-3.51346 0.9354,-2.69213 0.9354,-4.608561 0,-0.844143 -0.13688,-1.346065 0.75288,-0.844142 2.05331,-0.844142 0.79852,0 1.36888,0.433478 0.59318,0.433479 0.59318,1.254806 0,0.798513 -0.25096,1.66547 -0.22814,0.866957 -0.61599,1.756728 -0.75289,1.779546 -1.80236,3.171236 z" />
    <path
       id="path4640"
       style="font-style:normal;font-variant:normal;font-weight:normal;font-stretch:normal;font-family:'Sansita One';-inkscape-font-specification:'Sansita One';text-align:center;text-anchor:middle;fill:#ffffff;stroke-width:0.57036638"
       d="m 134.40842,103.34296 2.85183,-2.19021 1.77955,-1.460135 q 0.91258,-0.775698 1.57421,-1.460138 1.20918,-1.209176 1.20918,-2.372724 0,-0.684439 -0.4563,-1.049474 -0.43348,-0.365034 -1.0951,-0.365034 -0.63881,0 -1.11792,0.159702 -0.45629,0.136888 -0.86696,0.387849 -0.86695,0.570367 -1.27762,1.437324 -0.57036,-0.02282 -0.95821,-0.501923 -0.36504,-0.479108 -0.36504,-1.163547 0,-0.707254 0.43348,-1.346065 0.43348,-0.661625 1.20918,-1.163547 1.68828,-1.049474 3.99256,-1.049474 2.3271,0 3.62753,1.003845 1.30044,1.003844 1.30044,2.714943 0,1.277621 -0.63881,2.441168 -0.616,1.163548 -2.28147,2.34991 l -2.46398,1.73391 -1.48295,0.98103 -1.89362,1.16355 0.79851,0.0913 q 0.54756,0.0684 1.50577,0.0684 0.95822,0 1.75673,-0.0913 0.79851,-0.11407 1.48295,-0.3194 1.50577,-0.41066 1.98488,-0.98103 0.25096,0.18252 0.43348,0.66162 0.20533,0.4563 0.20533,1.02666 0,1.7111 -1.30044,2.41836 -1.30043,0.70725 -3.96975,0.70725 -1.39169,0 -3.23968,-0.41066 -1.84799,-0.38785 -2.60087,-0.616 z" />
  </g>
</svg>
