<?xml version="1.0" encoding="UTF-8" standalone="no"?>
<svg
   xmlns:dc="http://purl.org/dc/elements/1.1/"
   xmlns:cc="http://creativecommons.org/ns#"
   xmlns:rdf="http://www.w3.org/1999/02/22-rdf-syntax-ns#"
   xmlns:svg="http://www.w3.org/2000/svg"
   xmlns="http://www.w3.org/2000/svg"
   xmlns:xlink="http://www.w3.org/1999/xlink"
   id="svg3357"
   version="1.1"
   viewBox="0 0 211.40207 119.0625"
   height="119.0625mm"
   width="211.40207mm">
  <defs
     id="defs3351">
    <linearGradient
       id="linearGradient6114">
      <stop
         id="stop6110"
         offset="0"
         style="stop-color:#6f7c91;stop-opacity:1;" />
      <stop
         id="stop6112"
         offset="1"
         style="stop-color:#162d50;stop-opacity:1" />
    </linearGradient>
    <radialGradient
       gradientUnits="userSpaceOnUse"
       gradientTransform="matrix(3.0071285,0,0,1.83657,-125.12732,-58.151445)"
       r="31.67275"
       fy="66.986313"
       fx="73.77433"
       cy="66.986313"
       cx="73.77433"
       id="radialGradient6126"
       xlink:href="#linearGradient6114" />
    <filter
       height="2.3692155"
       y="-0.68460768"
       width="2.8467259"
       x="-0.92336297"
       id="filter1174"
       style="color-interpolation-filters:sRGB">
      <feGaussianBlur
         id="feGaussianBlur1176"
         stdDeviation="7.9870899" />
    </filter>
    <filter
       height="2.7426379"
       y="-0.87131888"
       width="2.1157751"
       x="-0.55788755"
       id="filter1178"
       style="color-interpolation-filters:sRGB">
      <feGaussianBlur
         id="feGaussianBlur1180"
         stdDeviation="7.9870899" />
    </filter>
    <filter
       height="2.7426379"
       y="-0.87131888"
       width="2.7948518"
       x="-0.89742583"
       id="filter1182"
       style="color-interpolation-filters:sRGB">
      <feGaussianBlur
         id="feGaussianBlur1184"
         stdDeviation="7.9870899" />
    </filter>
    <filter
       height="2.7426379"
       y="-0.87131888"
       width="2.9520383"
       x="-0.97601914"
       id="filter1186"
       style="color-interpolation-filters:sRGB">
      <feGaussianBlur
         id="feGaussianBlur1188"
         stdDeviation="7.9870899" />
    </filter>
    <filter
       height="2.1144776"
       y="-0.55723882"
       width="2.44345"
       x="-0.72172499"
       id="filter1190"
       style="color-interpolation-filters:sRGB">
      <feGaussianBlur
         id="feGaussianBlur1192"
         stdDeviation="7.9870899" />
    </filter>
    <filter
       height="2.7426379"
       y="-0.87131888"
       width="2.988487"
       x="-0.99424356"
       id="filter1194"
       style="color-interpolation-filters:sRGB">
      <feGaussianBlur
         id="feGaussianBlur1196"
         stdDeviation="7.9870899" />
    </filter>
    <filter
       height="2.7426379"
       y="-0.87131888"
       width="2.7782018"
       x="-0.88910091"
       id="filter1198"
       style="color-interpolation-filters:sRGB">
      <feGaussianBlur
         id="feGaussianBlur1200"
         stdDeviation="7.9870899" />
    </filter>
    <filter
       height="2.7426379"
       y="-0.87131888"
       width="2.1157751"
       x="-0.55788755"
       id="filter1202"
       style="color-interpolation-filters:sRGB">
      <feGaussianBlur
         id="feGaussianBlur1204"
         stdDeviation="7.9870899" />
    </filter>
    <filter
       height="2.7426379"
       y="-0.87131888"
       width="2.6668708"
       x="-0.83343548"
       id="filter1206"
       style="color-interpolation-filters:sRGB">
      <feGaussianBlur
         id="feGaussianBlur1208"
         stdDeviation="7.9870899" />
    </filter>
    <filter
       height="2.3930972"
       y="-0.69654852"
       width="2.4882777"
       x="-0.74413884"
       id="filter1210"
       style="color-interpolation-filters:sRGB">
      <feGaussianBlur
         id="feGaussianBlur1212"
         stdDeviation="7.9870899" />
    </filter>
  </defs>
  <metadata
     id="metadata3354">
    <rdf:RDF>
      <cc:Work
         rdf:about="">
        <dc:format>image/svg+xml</dc:format>
        <dc:type
           rdf:resource="http://purl.org/dc/dcmitype/StillImage" />
        <dc:title></dc:title>
      </cc:Work>
    </rdf:RDF>
  </metadata>
  <path
     style="opacity:1;fill:#c83737;fill-opacity:1;stroke:none;stroke-width:4.38045835;stroke-miterlimit:4;stroke-dasharray:none;paint-order:stroke markers fill"
     d="M 0,0 H 211.40207 V 119.0625 H 0 Z"
     id="rect6108" />
  <g
     transform="matrix(1.1097917,0,0,1.0234149,-1.6397721,-6.8613634)"
     style="font-style:normal;font-weight:normal;font-size:40px;line-height:1.25;font-family:sans-serif;letter-spacing:0px;word-spacing:0px;fill:#000000;fill-opacity:1;stroke:none"
     id="flowRoot874" />
  <g
     transform="translate(-1.4775493,-3.9803138)"
     style="font-style:normal;font-weight:normal;font-size:40px;line-height:1.25;font-family:sans-serif;letter-spacing:0px;word-spacing:0px;fill:#000000;fill-opacity:1;stroke:none"
     id="flowRoot1087" />
  <g
     style="display:inline"
     id="g4921"
     transform="matrix(1.1825108,0,0,1.2934259,-97.668834,-89.71389)">
    <g
       transform="translate(50.270828)"
       id="g4720">
      <g
         id="g4694"
         transform="translate(-47.638093,1.3360133)"
         style="fill:#333333">
        <path
           style="fill:#333333;stroke:none;stroke-width:0.26458347px;stroke-linecap:butt;stroke-linejoin:miter;stroke-opacity:1"
           d="m 144.21101,139.55982 c 0,0 5.43081,5.83681 7.33498,3.79847 2.22288,-2.37952 -12.62665,-36.87139 -12.62665,-36.87139"
           id="path835" />
        <path
           id="path817"
           d="m 97.450493,140.21473 c 7.815327,4.80271 15.630577,9.60538 23.402247,9.51796 7.77167,-0.0874 15.49967,-5.06478 19.38543,-7.57529 3.88576,-2.5105 3.92946,-2.5542 3.97284,-2.59758"
           style="fill:#333333;stroke:none;stroke-width:0.26458332px;stroke-linecap:butt;stroke-linejoin:miter;stroke-opacity:1" />
        <path
           id="path825"
           d="m 97.450491,140.21473 c 0,0 -5.430812,5.83681 -7.33498,3.79847 -2.222882,-2.37952 12.820499,-36.99713 12.820499,-36.99713"
           style="fill:#333333;stroke:none;stroke-width:0.26458332px;stroke-linecap:butt;stroke-linejoin:miter;stroke-opacity:1" />
        <path
           transform="matrix(1.0226412,0,0,1.0473654,-2.3339152,-3.6688483)"
           id="path831"
           d="m 102.93926,105.67937 c 0.0862,-6.905162 0.17248,-13.810016 1.50935,-18.736088 1.33687,-4.926072 3.92412,-7.873272 9.74546,-9.346742 5.82134,-1.473471 14.87673,-1.473471 19.40429,3.368239 4.52756,4.84171 4.52756,14.525398 4.52756,24.209361"
           style="fill:#333333;stroke:none;stroke-width:0.26458332px;stroke-linecap:butt;stroke-linejoin:miter;stroke-opacity:1" />
      </g>
      <g
         id="g4708">
        <path
           id="path4696"
           d="m 49.741667,141.68958 c 0,0 3.615973,-22.40139 5.55625,-33.60208 l 35.983333,-0.26458 6.614583,33.07291 z"
           style="fill:#333333;stroke:none;stroke-width:0.26458332px;stroke-linecap:butt;stroke-linejoin:miter;stroke-opacity:1" />
        <path
           style="opacity:1;fill:#333333;fill-opacity:1;stroke:none;stroke-width:0.26458332"
           d="m 55.5625,138.25 h 37.041668 v 3.96875 H 55.5625 Z"
           id="rect4698" />
        <path
           style="opacity:1;fill:#333333;fill-opacity:1;stroke:none;stroke-width:0.26458332"
           d="m 59.53125,106.5 h 30.427082 v 3.96875 H 59.53125 Z"
           id="rect4700" />
        <path
           style="opacity:1;fill:#333333;fill-opacity:1;stroke:none;stroke-width:0.26458332"
           d="m 84.666664,105.17708 h 5.291669 v 3.96875 h -5.291669 z"
           id="rect4702" />
      </g>
    </g>
    <path
       d="m 138.70455,126.61246 a 15.239734,15.867999 0 0 1 -15.17522,15.86785 15.239734,15.867999 0 0 1 -15.3037,-15.73349 15.239734,15.867999 0 0 1 15.04563,-16.00108 15.239734,15.867999 0 0 1 15.4311,15.59801"
       id="path843"
       style="opacity:1;fill:#e6e6e6;fill-opacity:1;stroke:none;stroke-width:0.26458332" />
    <g
       transform="translate(44.751274,16.383515)"
       id="g4688">
      <g
         id="g4596"
         transform="translate(-41.01042,-15.875)"
         style="fill:#ff6600;stroke:none">
        <path
           id="path4585"
           d="m 111.125,110.46875 c 2.9216,-2.67614 5.84316,-5.35225 8.7091,-5.35212 2.86595,1.3e-4 5.6775,2.67624 8.48882,5.35212"
           style="fill:#ff6600;stroke:none;stroke-width:0.26458332px;stroke-linecap:butt;stroke-linejoin:miter;stroke-opacity:1" />
        <path
           id="path4589"
           d="m 111.125,110.46875 c 2.77957,3.92198 5.48174,5.31906 8.73125,6.61458"
           style="fill:#ff6600;stroke:none;stroke-width:0.26458332px;stroke-linecap:butt;stroke-linejoin:miter;stroke-opacity:1" />
        <path
           id="path4591"
           d="m 128.32292,110.46875 c -1.04604,3.82945 -4.9192,5.32533 -8.46667,6.61458"
           style="fill:#ff6600;stroke:none;stroke-width:0.26458332px;stroke-linecap:butt;stroke-linejoin:miter;stroke-opacity:1" />
      </g>
      <g
         style="fill:#ff6600;stroke:none"
         transform="translate(-41.01042,-15.875)"
         id="g4661">
        <path
           style="fill:#ff6600;stroke:none;stroke-width:0.26458332px;stroke-linecap:butt;stroke-linejoin:miter;stroke-opacity:1"
           d="m 111.125,110.46875 c 2.9216,-2.67614 5.84316,-5.35225 8.7091,-5.35212 2.86595,1.3e-4 5.6775,2.67624 8.48882,5.35212"
           id="path4655" />
        <path
           style="fill:#ff6600;stroke:none;stroke-width:0.26458332px;stroke-linecap:butt;stroke-linejoin:miter;stroke-opacity:1"
           d="m 111.125,110.46875 c 2.77957,3.92198 5.48174,5.31906 8.73125,6.61458"
           id="path4657" />
        <path
           style="fill:#ff6600;stroke:none;stroke-width:0.26458332px;stroke-linecap:butt;stroke-linejoin:miter;stroke-opacity:1"
           d="m 128.32292,110.46875 c -1.04604,3.82945 -4.9192,5.32533 -8.46667,6.61458"
           id="path4659" />
      </g>
      <path
         style="opacity:1;fill:#ff6600;fill-opacity:1;stroke:none;stroke-width:0.26458332"
         id="path4671"
         d="m 78.845833,101.20833 -4.582718,-2.645833 v -5.291666 l 4.582718,-2.645833 4.582717,2.645833 v 5.291666 z" />
      <path
         style="opacity:1;fill:#ff6600;fill-opacity:1;stroke:none;stroke-width:0.26458332"
         id="path4673"
         d="m 83.608335,99.620834 2.319854,-2.397701 0.916543,3.207907 z"
         transform="matrix(0.94729327,-1.274616,1.0295753,1.1727506,-98.356248,87.506876)" />
      <path
         style="opacity:1;fill:#ff6600;fill-opacity:1;stroke:none;stroke-width:0.26458332"
         id="path4675"
         d="m 74.536294,98.196559 -3.844516,-2.340158 3.948894,-2.159369 z"
         transform="matrix(1.141627,0.11210349,-0.08749549,1.2944633,-2.2020547,-37.413635)" />
    </g>
    <path
       transform="scale(0.26458333)"
       id="path4722"
       d="m 457.97263,570.35612 c -18.79507,-2.12161 -40.18257,-11.27811 -71.63974,-30.67068 -8.13959,-5.01787 -8.02372,-4.97631 -9.49602,-3.40625 -1.98328,2.11498 -9.29175,8.28788 -11.94887,10.09229 -7.55689,5.13179 -13.40276,5.68891 -14.83103,1.41342 -1.63872,-4.90546 5.4376,-28.95935 18.84332,-64.05245 9.54282,-24.98091 28.41577,-70.80369 29.41653,-71.42219 0.22811,-0.14098 0.37499,-0.42288 0.3264,-0.62644 -0.0486,-0.20356 0.0318,-0.82849 0.17857,-1.38874 0.14681,-0.56024 0.45269,-8.53609 0.67974,-17.7241 0.63732,-25.79 1.66538,-38.59108 4.07232,-50.7069 4.32594,-21.77558 13.30666,-33.82393 30.11939,-40.40761 16.87389,-6.60764 39.99439,-8.13907 57.78976,-3.82784 20.7168,5.019 32.64507,17.2536 38.14208,39.1216 3.4588,13.75967 4.66657,26.50558 4.98055,52.56114 0.20469,16.98608 0.39447,21.14579 0.94912,20.80299 0.62648,-0.38718 21.06718,49.83231 30.13912,74.04694 11.92704,31.8354 17.56985,50.7662 17.56985,58.9443 0,2.59002 -0.1133,3.01447 -1.03188,3.86578 -3.15357,2.92263 -9.30891,0.77622 -18.04824,-6.29354 -2.16747,-1.75339 -5.03522,-4.30389 -6.3728,-5.66777 -1.33757,-1.36388 -2.56841,-2.47978 -2.7352,-2.47978 -0.16679,0 -5.21474,3.17625 -11.21765,7.05833 -6.00292,3.88209 -13.48133,8.58639 -16.6187,10.45401 -26.52636,15.79064 -49.54126,22.54011 -69.26662,20.31349 z m 19.96508,-32.86866 c 5.28911,-1.14072 8.32959,-2.22946 13.85333,-4.9606 18.43404,-9.11449 30.90578,-28.24854 32.34892,-49.62947 0.94243,-13.9626 -2.58151,-27.3736 -10.20264,-38.82794 -3.0137,-4.52952 -10.61003,-12.34927 -14.86401,-15.30119 l -2.90399,-2.01514 0.75119,-1.40422 c 0.41315,-0.77232 1.12926,-2.38761 1.59134,-3.58952 1.00562,-2.61573 1.41642,-1.9763 -5.09101,-7.92451 -5.72644,-5.23434 -11.15932,-9.40512 -14.87195,-11.41709 -10.91899,-5.91728 -20.15604,-3.88649 -33.81841,7.43508 -3.40229,2.81937 -10.37133,9.1079 -10.53264,9.50415 -0.0784,0.19273 0.9084,1.72266 2.19301,3.39982 1.28461,1.67718 2.26556,3.10249 2.1799,3.16736 -0.0857,0.0649 -1.43922,0.95947 -3.00791,1.98798 -15.62369,10.24371 -25.66261,28.29897 -26.56551,47.77875 -1.32187,28.5191 16.86115,54.02186 43.57738,61.11985 2.07246,0.55061 5.05159,1.17715 6.62027,1.39232 4.35042,0.59669 14.44506,0.21127 18.74273,-0.71563 z m 70.79456,-4.85226 c -1.62471,-0.0773 -4.28333,-0.0773 -5.90804,0 -1.62471,0.0773 -0.2954,0.14062 2.95402,0.14062 3.24942,0 4.57873,-0.0633 2.95402,-0.14062 z m -16.9092,-125.06569 c -0.39218,-0.10248 -1.03391,-0.10248 -1.42608,0 -0.39217,0.10248 -0.0713,0.18634 0.71304,0.18634 0.78434,0 1.10521,-0.0839 0.71304,-0.18634 z"
       style="opacity:1;fill:#333333;fill-opacity:1;stroke:none;stroke-width:0.40745068" />
    <path
       style="opacity:1;fill:#333333;fill-opacity:1;stroke:none;stroke-width:0.26458332"
       d="m 139.81281,107.16256 h 1.38157 v 1.25205 h -1.38157 z"
       id="rect4846" />
    <g
       id="g4877">
      <path
         d="m 133.36974,95.882912 a 3.0704114,3.0704114 0 0 1 -3.05741,3.070384 3.0704114,3.0704114 0 0 1 -3.0833,-3.044394 3.0704114,3.0704114 0 0 1 3.03132,-3.096154 3.0704114,3.0704114 0 0 1 3.10895,3.018185"
         id="path4860"
         style="opacity:1;fill:#e6e6e6;fill-opacity:1;stroke:none;stroke-width:0.26458332" />
      <g
         id="g4864"
         transform="matrix(0.80841168,0,0,1,68.549895,-7.3051882)">
        <path
           style="opacity:1;fill:#000000;fill-opacity:1;stroke:none;stroke-width:0.26458332"
           id="path4862"
           d="m 77.375031,103.39364 a 1.6372987,1.2321938 0 0 1 -1.630369,1.23218 1.6372987,1.2321938 0 0 1 -1.64417,-1.22175 1.6372987,1.2321938 0 0 1 1.616451,-1.24253 1.6372987,1.2321938 0 0 1 1.657853,1.21124" />
      </g>
    </g>
    <g
       transform="matrix(-1,0,0,1,248.68829,0.27470384)"
       id="g4885">
      <path
         style="opacity:1;fill:#e6e6e6;fill-opacity:1;stroke:none;stroke-width:0.26458332"
         id="path4879"
         d="m 133.36974,95.882912 a 3.0704114,3.0704114 0 0 1 -3.05741,3.070384 3.0704114,3.0704114 0 0 1 -3.0833,-3.044394 3.0704114,3.0704114 0 0 1 3.03132,-3.096154 3.0704114,3.0704114 0 0 1 3.10895,3.018185" />
      <g
         transform="matrix(0.80841168,0,0,1,68.549895,-7.3051882)"
         id="g4883">
        <path
           d="m 77.375031,103.39364 a 1.6372987,1.2321938 0 0 1 -1.630369,1.23218 1.6372987,1.2321938 0 0 1 -1.64417,-1.22175 1.6372987,1.2321938 0 0 1 1.616451,-1.24253 1.6372987,1.2321938 0 0 1 1.657853,1.21124"
           id="path4881"
           style="opacity:1;fill:#000000;fill-opacity:1;stroke:none;stroke-width:0.26458332" />
      </g>
    </g>
  </g>
  <g
     id="flowRoot80"
     style="font-style:normal;font-weight:normal;font-size:40px;line-height:1.25;font-family:sans-serif;letter-spacing:0px;word-spacing:0px;fill:#ffffff;fill-opacity:1;stroke:none"
     transform="matrix(0.62431706,0,0,0.50740307,318.72506,-77.627563)"
     aria-label="Raw 
vs 
Qcow2">
    <path
       id="path92"
       style="font-style:italic;font-variant:normal;font-weight:500;font-stretch:normal;font-family:Ubuntu;-inkscape-font-specification:'Ubuntu Medium Italic';text-align:center;text-anchor:middle;fill:#ffffff"
       d="m -332.06266,195.62977 q 4.96,0 7.52,2.08 2.6,2.04 2.6,5.44 0,1.52 -0.44,2.92 -0.4,1.36 -1.32,2.56 -0.88,1.16 -2.32,2.08 -1.4,0.92 -3.4,1.52 0.52,0.92 1.12,2.24 0.6,1.28 1.24,2.8 0.64,1.48 1.24,3.12 0.6,1.64 1.08,3.24 h -5.32 q -0.48,-1.44 -1,-2.92 -0.52,-1.48 -1.08,-2.84 -0.56,-1.4 -1.16,-2.6 -0.56,-1.24 -1.12,-2.2 -0.36,0.04 -0.88,0.04 -0.52,0 -0.92,0 h -2.32 l -2.52,10.52 h -5.04 l 6.52,-27.32 q 1.92,-0.4 3.88,-0.52 2,-0.16 3.64,-0.16 z m 5,8.08 q 0,-2.2 -1.6,-3 -1.6,-0.84 -4.28,-0.84 -0.56,0 -1.2,0.04 -0.64,0.04 -1.28,0.12 l -2.16,9.04 h 2.24 q 1.8,0 3.32,-0.28 1.52,-0.32 2.6,-0.96 1.12,-0.64 1.72,-1.64 0.64,-1.04 0.64,-2.48 z" />
    <path
       id="path94"
       style="font-style:italic;font-variant:normal;font-weight:500;font-stretch:normal;font-family:Ubuntu;-inkscape-font-specification:'Ubuntu Medium Italic';text-align:center;text-anchor:middle;fill:#ffffff"
       d="m -303.56953,215.50977 q -0.12,0.44 -0.24,1.44 -0.12,1 -0.12,1.88 0,1.16 0.2,2.28 0.2,1.08 0.64,2.2 l -4.32,0.64 q -0.48,-0.96 -0.76,-2.04 -1,0.88 -2.48,1.6 -1.44,0.68 -3.28,0.68 -1.88,0 -3.24,-0.6 -1.32,-0.64 -2.16,-1.72 -0.84,-1.12 -1.24,-2.6 -0.4,-1.48 -0.4,-3.2 0,-2.92 1.04,-5.44 1.04,-2.52 2.88,-4.36 1.88,-1.84 4.44,-2.88 2.56,-1.08 5.6,-1.08 1.56,0 3.12,0.28 1.6,0.24 3.2,0.96 z m -2.64,-9.04 q -0.76,-0.16 -1.72,-0.16 -1.8,0 -3.32,0.8 -1.52,0.76 -2.64,2.08 -1.08,1.28 -1.68,2.96 -0.6,1.68 -0.6,3.52 0,0.92 0.16,1.72 0.16,0.8 0.52,1.4 0.4,0.6 1.04,0.96 0.64,0.36 1.64,0.36 1.28,0 2.24,-0.52 1,-0.56 1.84,-1.48 0.04,-1.04 0.16,-1.96 0.16,-0.92 0.4,-1.84 z" />
    <path
       id="path96"
       style="font-style:italic;font-variant:normal;font-weight:500;font-stretch:normal;font-family:Ubuntu;-inkscape-font-specification:'Ubuntu Medium Italic';text-align:center;text-anchor:middle;fill:#ffffff"
       d="m -282.90578,210.38977 q -0.76,1.72 -1.72,3.56 -0.96,1.8 -2,3.56 -1.04,1.72 -2.08,3.32 -1.04,1.56 -1.92,2.8 h -4 q -0.36,-1.84 -0.72,-4.2 -0.32,-2.36 -0.6,-5.04 -0.28,-2.68 -0.52,-5.64 -0.2,-2.96 -0.28,-6.04 h 4.8 q 0,1.68 0.04,3.64 0.04,1.92 0.12,3.96 0.12,2 0.24,3.96 0.16,1.96 0.4,3.68 1.12,-1.72 2.2,-3.64 1.12,-1.96 2.12,-3.92 1,-2 1.84,-3.96 0.88,-1.96 1.52,-3.72 h 4.16 q 0,1.64 0.04,3.48 0.04,1.84 0.12,3.8 0.12,1.96 0.24,4 0.16,2 0.4,3.96 1.04,-1.52 2.12,-3.48 1.08,-1.96 2.08,-4 1,-2.08 1.8,-4.08 0.84,-2.04 1.36,-3.68 h 5.04 q -0.84,2.4 -2.08,5.12 -1.2,2.68 -2.72,5.44 -1.52,2.76 -3.28,5.44 -1.72,2.64 -3.6,4.92 h -4 q -0.44,-3.36 -0.76,-6.6 -0.28,-3.28 -0.36,-6.64 z" />
    <path
       id="path98"
       style="font-style:italic;font-variant:normal;font-weight:500;font-stretch:normal;font-family:Ubuntu;-inkscape-font-specification:'Ubuntu Medium Italic';text-align:center;text-anchor:middle;fill:#ffffff"
       d="m -320.79766,275.53882 q -1,-4.08 -1.8,-9.44 -0.8,-5.4 -1.04,-11.48 h 4.96 q 0.04,1.76 0.12,3.8 0.12,2.04 0.28,4.12 0.16,2.04 0.36,3.96 0.24,1.92 0.52,3.48 1.04,-1.36 2.24,-3.24 1.2,-1.92 2.32,-4 1.12,-2.12 2.04,-4.24 0.92,-2.12 1.48,-3.88 h 5.04 q -0.96,2.76 -2.4,5.68 -1.44,2.92 -3.12,5.68 -1.68,2.76 -3.48,5.24 -1.76,2.48 -3.36,4.32 z" />
    <path
       id="path100"
       style="font-style:italic;font-variant:normal;font-weight:500;font-stretch:normal;font-family:Ubuntu;-inkscape-font-specification:'Ubuntu Medium Italic';text-align:center;text-anchor:middle;fill:#ffffff"
       d="m -299.16891,272.13882 q 1.92,0 3.04,-0.6 1.12,-0.64 1.12,-1.92 0,-1.04 -0.72,-1.64 -0.72,-0.64 -2.52,-1.48 -0.96,-0.44 -1.8,-0.92 -0.8,-0.48 -1.4,-1.12 -0.6,-0.64 -0.96,-1.48 -0.36,-0.88 -0.36,-2.08 0,-3.12 2.28,-4.96 2.28,-1.84 6.6,-1.84 2,0 3.56,0.44 1.6,0.4 2.4,0.84 l -1.72,3.76 q -0.68,-0.4 -1.96,-0.76 -1.28,-0.4 -2.68,-0.4 -0.68,0 -1.36,0.12 -0.64,0.12 -1.16,0.4 -0.52,0.28 -0.88,0.8 -0.32,0.48 -0.32,1.2 0,0.92 0.72,1.52 0.76,0.56 2.16,1.2 1.32,0.6 2.24,1.16 0.92,0.56 1.52,1.28 0.6,0.68 0.88,1.56 0.28,0.84 0.28,2.04 0,1.48 -0.6,2.76 -0.6,1.24 -1.76,2.16 -1.12,0.88 -2.8,1.4 -1.68,0.52 -3.84,0.52 -1.48,0 -2.68,-0.2 -1.16,-0.2 -2.04,-0.44 -0.88,-0.28 -1.48,-0.56 -0.6,-0.28 -0.92,-0.48 l 1.72,-3.8 q 0.28,0.16 0.8,0.44 0.56,0.24 1.24,0.48 0.72,0.24 1.56,0.44 0.88,0.16 1.84,0.16 z" />
    <path
       id="path102"
       style="font-style:italic;font-variant:normal;font-weight:500;font-stretch:normal;font-family:Ubuntu;-inkscape-font-specification:'Ubuntu Medium Italic';text-align:center;text-anchor:middle;fill:#ffffff"
       d="m -348.47047,334.92788 q -2.32,-0.16 -4.24,-0.6 -1.92,-0.44 -3.32,-1.24 -1.36,-0.76 -2.12,-1.96 -0.76,-1.2 -0.76,-2.88 0,-0.04 0,-0.12 0,-0.08 0.04,-0.28 -1.92,-0.28 -3.52,-1.12 -1.56,-0.88 -2.68,-2.24 -1.08,-1.4 -1.72,-3.28 -0.6,-1.92 -0.6,-4.28 0,-3.2 1.04,-6.4 1.04,-3.2 3.04,-5.72 2.04,-2.56 5,-4.12 2.96,-1.6 6.8,-1.6 2.32,0 4.28,0.76 1.96,0.72 3.36,2.12 1.4,1.4 2.16,3.48 0.8,2.08 0.8,4.76 0,2.92 -0.88,5.84 -0.84,2.88 -2.52,5.32 -1.64,2.44 -4.12,4.2 -2.48,1.72 -5.72,2.24 -0.04,0.12 -0.04,0.32 0,0.84 0.6,1.36 0.6,0.56 1.6,0.88 1.04,0.36 2.36,0.52 1.32,0.2 2.76,0.32 z m -3.56,-31.48 q -2.28,0 -4.16,1.16 -1.84,1.12 -3.16,2.96 -1.32,1.84 -2.08,4.2 -0.72,2.32 -0.72,4.72 0,3.28 1.4,5.24 1.4,1.96 4.48,1.96 2.28,0 4.16,-1.12 1.88,-1.16 3.2,-3 1.32,-1.84 2.04,-4.16 0.76,-2.36 0.76,-4.76 0,-3.28 -1.44,-5.24 -1.4,-1.96 -4.48,-1.96 z" />
    <path
       id="path104"
       style="font-style:italic;font-variant:normal;font-weight:500;font-stretch:normal;font-family:Ubuntu;-inkscape-font-specification:'Ubuntu Medium Italic';text-align:center;text-anchor:middle;fill:#ffffff"
       d="m -338.66297,319.52788 q 0,-2.72 0.84,-5.16 0.88,-2.48 2.48,-4.32 1.6,-1.88 3.92,-2.96 2.32,-1.08 5.28,-1.08 1.56,0 2.84,0.28 1.32,0.24 2.48,0.76 l -1.72,3.88 q -0.72,-0.32 -1.6,-0.56 -0.88,-0.24 -2.16,-0.24 -1.72,0 -3.12,0.72 -1.36,0.68 -2.32,1.88 -0.96,1.2 -1.48,2.84 -0.52,1.64 -0.52,3.48 0,1.04 0.2,1.92 0.24,0.84 0.72,1.52 0.52,0.64 1.4,1 0.88,0.36 2.2,0.36 1.36,0 2.6,-0.36 1.28,-0.36 1.96,-0.72 l 0.4,3.96 q -0.92,0.44 -2.44,0.84 -1.52,0.44 -3.44,0.44 -2.2,0 -3.8,-0.64 -1.6,-0.68 -2.68,-1.8 -1.04,-1.16 -1.56,-2.68 -0.48,-1.56 -0.48,-3.36 z" />
    <path
       id="path106"
       style="font-style:italic;font-variant:normal;font-weight:500;font-stretch:normal;font-family:Ubuntu;-inkscape-font-specification:'Ubuntu Medium Italic';text-align:center;text-anchor:middle;fill:#ffffff"
       d="m -313.13234,328.00788 q -3.72,0 -5.68,-2.2 -1.96,-2.2 -1.96,-5.8 0,-2.32 0.72,-4.8 0.72,-2.48 2.2,-4.52 1.48,-2.04 3.72,-3.36 2.24,-1.32 5.28,-1.32 3.72,0 5.68,2.2 1.96,2.16 1.96,5.76 0,2.36 -0.72,4.84 -0.68,2.48 -2.16,4.52 -1.44,2.04 -3.72,3.36 -2.24,1.32 -5.32,1.32 z m 3.68,-17.92 q -1.56,0 -2.8,0.92 -1.2,0.88 -2.04,2.28 -0.8,1.4 -1.24,3.08 -0.44,1.64 -0.44,3.2 0,2 0.76,3.16 0.76,1.16 2.68,1.16 1.56,0 2.76,-0.88 1.24,-0.92 2.04,-2.28 0.84,-1.4 1.28,-3.08 0.44,-1.68 0.44,-3.2 0,-2 -0.76,-3.16 -0.76,-1.2 -2.68,-1.2 z" />
    <path
       id="path108"
       style="font-style:italic;font-variant:normal;font-weight:500;font-stretch:normal;font-family:Ubuntu;-inkscape-font-specification:'Ubuntu Medium Italic';text-align:center;text-anchor:middle;fill:#ffffff"
       d="m -282.63234,314.20788 q -0.76,1.72 -1.72,3.56 -0.96,1.8 -2,3.56 -1.04,1.72 -2.08,3.32 -1.04,1.56 -1.92,2.8 h -4 q -0.36,-1.84 -0.72,-4.2 -0.32,-2.36 -0.6,-5.04 -0.28,-2.68 -0.52,-5.64 -0.2,-2.96 -0.28,-6.04 h 4.8 q 0,1.68 0.04,3.64 0.04,1.92 0.12,3.96 0.12,2 0.24,3.96 0.16,1.96 0.4,3.68 1.12,-1.72 2.2,-3.64 1.12,-1.96 2.12,-3.92 1,-2 1.84,-3.96 0.88,-1.96 1.52,-3.72 h 4.16 q 0,1.64 0.04,3.48 0.04,1.84 0.12,3.8 0.12,1.96 0.24,4 0.16,2 0.4,3.96 1.04,-1.52 2.12,-3.48 1.08,-1.96 2.08,-4 1,-2.08 1.8,-4.08 0.84,-2.04 1.36,-3.68 h 5.04 q -0.84,2.4 -2.08,5.12 -1.2,2.68 -2.72,5.44 -1.52,2.76 -3.28,5.44 -1.72,2.64 -3.6,4.92 h -4 q -0.44,-3.36 -0.76,-6.6 -0.28,-3.28 -0.36,-6.64 z" />
    <path
       id="path110"
       style="font-style:italic;font-variant:normal;font-weight:500;font-stretch:normal;font-family:Ubuntu;-inkscape-font-specification:'Ubuntu Medium Italic';text-align:center;text-anchor:middle;fill:#ffffff"
       d="m -252.81047,299.08788 q 1.76,0 3.12,0.56 1.4,0.52 2.32,1.4 0.96,0.88 1.44,2.08 0.48,1.16 0.48,2.4 0,1.8 -0.52,3.24 -0.48,1.4 -1.44,2.64 -0.96,1.2 -2.36,2.4 -1.4,1.16 -3.16,2.52 -1.04,0.8 -2.16,1.64 -1.12,0.8 -2.16,1.68 -1,0.84 -1.88,1.8 -0.88,0.92 -1.48,1.96 h 11.96 l -0.96,4.04 h -17.32 q 0.36,-2.32 1.2,-4.08 0.84,-1.8 2.04,-3.24 1.24,-1.48 2.76,-2.72 1.52,-1.28 3.2,-2.56 1.68,-1.28 3.04,-2.32 1.36,-1.08 2.32,-2.08 0.96,-1 1.48,-2 0.52,-1 0.52,-2.16 0,-1.32 -0.84,-2.16 -0.84,-0.84 -2.4,-0.84 -1.96,0 -3.6,0.84 -1.6,0.84 -2.88,1.88 l -1.64,-3.64 q 1.76,-1.48 4.04,-2.36 2.28,-0.92 4.88,-0.92 z" />
  </g>
</svg>
