<?xml version="1.0" encoding="UTF-8" standalone="no"?>
<svg
   xmlns:osb="http://www.openswatchbook.org/uri/2009/osb"
   xmlns:dc="http://purl.org/dc/elements/1.1/"
   xmlns:cc="http://creativecommons.org/ns#"
   xmlns:rdf="http://www.w3.org/1999/02/22-rdf-syntax-ns#"
   xmlns:svg="http://www.w3.org/2000/svg"
   xmlns="http://www.w3.org/2000/svg"
   xmlns:xlink="http://www.w3.org/1999/xlink"
   width="444.5mm"
   height="277.8125mm"
   viewBox="0 0 444.49999 277.8125"
   version="1.1"
   id="svg3357">
  <defs
     id="defs3351">
    <linearGradient
       id="linearGradient902">
      <stop
         id="stop898"
         offset="0"
         style="stop-color:#00a562;stop-opacity:1;" />
      <stop
         style="stop-color:#00b96e;stop-opacity:1"
         offset="0"
         id="stop908" />
      <stop
         id="stop900"
         offset="1"
         style="stop-color:#00ac66;stop-opacity:1" />
    </linearGradient>
    <linearGradient
       id="linearGradient4115"
       osb:paint="solid">
      <stop
         style="stop-color:#000000;stop-opacity:1;"
         offset="0"
         id="stop4113" />
    </linearGradient>
    <linearGradient
       id="linearGradient6114">
      <stop
         style="stop-color:#6f7c91;stop-opacity:1;"
         offset="0"
         id="stop6110" />
      <stop
         style="stop-color:#162d50;stop-opacity:1"
         offset="1"
         id="stop6112" />
    </linearGradient>
    <radialGradient
       xlink:href="#linearGradient6114"
       id="radialGradient6126"
       cx="73.77433"
       cy="66.986313"
       fx="73.77433"
       fy="66.986313"
       r="31.67275"
       gradientTransform="matrix(3.0071285,0,0,1.83657,-125.12732,-58.151445)"
       gradientUnits="userSpaceOnUse" />
    <radialGradient
       gradientUnits="userSpaceOnUse"
       gradientTransform="matrix(2.1026283,0,0,1.3141426,-1.4498902e-8,60.673694)"
       r="105.70104"
       fy="59.53125"
       fx="105.70104"
       cy="59.53125"
       cx="105.70104"
       id="radialGradient904"
       xlink:href="#linearGradient902" />
  </defs>
  <metadata
     id="metadata3354">
    <rdf:RDF>
      <cc:Work
         rdf:about="">
        <dc:format>image/svg+xml</dc:format>
        <dc:type
           rdf:resource="http://purl.org/dc/dcmitype/StillImage" />
        <dc:title></dc:title>
      </cc:Work>
    </rdf:RDF>
  </metadata>
  <g
     transform="matrix(2.3334794,0,0,2.3879681,-3.4478314,-16.68709)"
     style="font-style:normal;font-weight:normal;font-size:40px;line-height:1.25;font-family:sans-serif;letter-spacing:0px;word-spacing:0px;fill:#000000;fill-opacity:1;stroke:none"
     id="flowRoot874" />
  <g
     transform="matrix(2.1026283,0,0,2.3333333,-3.1067369,-9.96464)"
     style="font-style:normal;font-weight:normal;font-size:40px;line-height:1.25;font-family:sans-serif;letter-spacing:0px;word-spacing:0px;fill:#000000;fill-opacity:1;stroke:none"
     id="flowRoot1713" />
  <path
     style="opacity:1;fill:url(#radialGradient904);fill-opacity:1;stroke:none;stroke-width:9.70262337;stroke-miterlimit:4;stroke-dasharray:none;paint-order:stroke markers fill"
     d="M 0,0 H 444.5 V 277.8125 H 0 Z"
     id="rect6108" />
  <path
     style="opacity:1;fill:#373e48;fill-opacity:1;stroke:none;stroke-width:1.85300457;stroke-linecap:round;stroke-linejoin:round;stroke-miterlimit:4;stroke-dasharray:none;stroke-opacity:1;paint-order:stroke markers fill"
     d="M 56.560393,79.40625 H 162.34543 c 2.52332,0 4.55474,2.031412 4.55474,4.554736 V 193.85151 c 0,2.52333 -2.03142,4.55474 -4.55474,4.55474 H 56.560393 c -2.523324,0 -4.554736,-2.03141 -4.554736,-4.55474 V 83.960986 c 0,-2.523324 2.031412,-4.554736 4.554736,-4.554736 z"
     id="rect815" />
  <path
     style="opacity:1;fill:#666666;fill-opacity:1;stroke:none;stroke-width:1.64583337;stroke-linecap:round;stroke-linejoin:round;stroke-miterlimit:4;stroke-dasharray:none;stroke-opacity:1;paint-order:stroke markers fill"
     d="M 55.511805,80.083496 H 163.2961 c 1.99674,0 3.60422,1.607482 3.60422,3.60422 V 103.0989 c 0,1.99673 -1.60748,3.60421 -3.60422,3.60421 H 55.511805 c -1.996738,0 -3.60422,-1.60748 -3.60422,-3.60421 V 83.687716 c 0,-1.996738 1.607482,-3.60422 3.60422,-3.60422 z"
     id="rect918" />
  <path
     style="opacity:1;fill:#ffffff;fill-opacity:1;stroke:none;stroke-width:1.61818719;stroke-linecap:round;stroke-linejoin:round;stroke-miterlimit:4;stroke-dasharray:none;stroke-opacity:1;paint-order:stroke markers fill"
     d="m 86.117681,90.305588 h 46.670449 c 1.99674,0 3.60422,1.60748 3.60422,3.604214 0,1.996735 -1.60748,3.604215 -3.60422,3.604215 H 86.117681 c -1.996735,0 -3.604215,-1.60748 -3.604215,-3.604215 0,-1.996734 1.60748,-3.604214 3.604215,-3.604214 z"
     id="rect817" />
  <path
     style="opacity:1;fill:#aa4400;fill-opacity:1;stroke:none;stroke-width:1.64447272;stroke-linecap:round;stroke-linejoin:round;stroke-miterlimit:4;stroke-dasharray:none;stroke-opacity:1;paint-order:stroke markers fill"
     d="m 69.328745,163.58445 h 80.248345 c 1.30114,0 2.34864,1.04749 2.34864,2.34864 v 2.17139 c 0,1.30115 -1.0475,2.34865 -2.34864,2.34865 H 69.328745 c -1.301148,0 -2.348642,-1.0475 -2.348642,-2.34865 v -2.17139 c 0,-1.30115 1.047494,-2.34864 2.348642,-2.34864 z"
     id="rect914" />
  <path
     style="opacity:1;fill:#aa4400;fill-opacity:1;stroke:none;stroke-width:1.64447272;stroke-linecap:round;stroke-linejoin:round;stroke-miterlimit:4;stroke-dasharray:none;stroke-opacity:1;paint-order:stroke markers fill"
     d="m 69.328745,176.93487 h 80.248345 c 1.30114,0 2.34864,1.0475 2.34864,2.34865 v 2.17139 c 0,1.30115 -1.0475,2.34864 -2.34864,2.34864 H 69.328745 c -1.301148,0 -2.348642,-1.04749 -2.348642,-2.34864 v -2.17139 c 0,-1.30115 1.047494,-2.34865 2.348642,-2.34865 z"
     id="rect916" />
  <g
     aria-label="C"
     transform="matrix(1.5959663,0,0,1.443992,-542.06609,-542.79863)"
     style="font-style:normal;font-weight:normal;font-size:40px;line-height:1.25;font-family:sans-serif;letter-spacing:0px;word-spacing:0px;fill:#ffffff;fill-opacity:1;stroke:none"
     id="flowRoot875">
    <path
       d="m 416.32855,477.03741 q 1.04,0.76 1.04,2.4 0,1.6 -0.72,2.76 -0.68,1.12 -2.04,2 -2.92,1.88 -8.04,1.88 -5.08,0 -7.88,-2.64 -2.76,-2.68 -2.76,-7.4 0,-6.68 3.48,-11.76 2.64,-3.76 7.36,-5.36 2.44,-0.8 4.84,-0.8 2.4,0 3.88,0.32 1.48,0.32 2.6,0.96 2.44,1.4 2.44,3.64 0,2.04 -1.92,3.56 -1.76,1.36 -3.2,1.36 -1.44,0 -2.04,-0.2 0.16,-1.44 0.16,-2.36 0,-0.96 -0.04,-1.64 -0.04,-0.68 -0.24,-1.32 -0.4,-1.48 -1.64,-1.48 -1.2,0 -2.44,1.16 -1.2,1.12 -2.24,3.04 -2.36,4.36 -2.36,9.52 0,2.48 1.4,3.92 1.4,1.4 4.4,1.4 2.24,0 4.36,-1.48 0.92,-0.64 1.6,-1.48 z"
       style="font-style:normal;font-variant:normal;font-weight:normal;font-stretch:normal;font-family:'Sansita One';-inkscape-font-specification:'Sansita One';text-align:center;text-anchor:middle;fill:#ffffff"
       id="path883" />
  </g>
  <g
     id="flowRoot868"
     style="font-style:normal;font-weight:normal;font-size:40px;line-height:1.25;font-family:sans-serif;letter-spacing:0px;word-spacing:0px;fill:#ffffff;fill-opacity:1;stroke:none"
     transform="matrix(1.144863,0,0,1.130764,-1021.5501,-202.11944)"
     aria-label="Compile
C Program
in Ubuntu">
    <path
       id="path884"
       style="font-style:normal;font-variant:normal;font-weight:bold;font-stretch:normal;font-family:'EB Garamond';-inkscape-font-specification:'EB Garamond Bold';text-align:center;text-anchor:middle;fill:#ffffff"
       d="m 1083.116,262.10559 q -4.12,0 -7.56,-1.64 -3.44,-1.68 -5.48,-4.68 -2,-3 -2,-6.88 0,-3.68 2,-6.88 2,-3.2 5.68,-5.12 3.68,-1.92 8.48,-1.92 3.48,0 7.32,1.36 0.8,0.36 0.92,1.16 0.32,2.4 0.32,4.8 0,0.32 -0.2,0.52 -0.2,0.16 -0.48,0.16 -0.64,0 -0.88,-0.68 -0.32,-1.16 -0.72,-1.96 -0.4,-0.84 -1.08,-1.48 -1.92,-1.84 -5.64,-1.84 -2.68,0 -4.72,1.48 -2.04,1.48 -3.16,3.96 -1.12,2.44 -1.12,5.28 0,5.52 2.36,8.92 2.36,3.36 6.72,3.36 2.92,0 4.76,-1.2 1.84,-1.24 3.12,-3.92 0.16,-0.32 0.4,-0.48 0.24,-0.2 0.48,-0.2 0.24,0 0.4,0.2 0.2,0.16 0.2,0.48 0,1.8 -0.88,4.56 -0.16,0.48 -0.4,0.76 -0.24,0.24 -0.68,0.44 -3.32,1.44 -8.16,1.44 z" />
    <path
       id="path886"
       style="font-style:normal;font-variant:normal;font-weight:bold;font-stretch:normal;font-family:'EB Garamond';-inkscape-font-specification:'EB Garamond Bold';text-align:center;text-anchor:middle;fill:#ffffff"
       d="m 1104.7554,262.10559 q -2.36,0 -4.32,-1.08 -1.96,-1.08 -3.08,-2.96 -1.12,-1.92 -1.12,-4.32 0,-2.52 1.24,-4.72 1.28,-2.2 3.4,-3.48 2.16,-1.32 4.76,-1.32 2.4,0 4.44,1.16 2.04,1.12 3.2,3.08 1.2,1.92 1.2,4.12 0,2.64 -1.12,4.8 -1.12,2.16 -3.32,3.44 -2.16,1.28 -5.28,1.28 z m 0.8,-1.76 q 1.64,0 2.48,-1.36 0.84,-1.4 0.84,-5.44 0,-3.28 -1.08,-5.4 -1.04,-2.16 -2.76,-2.16 -1.24,0 -2.08,0.84 -0.68,0.76 -0.96,2.2 -0.24,1.44 -0.24,3.72 0,1.92 0.48,3.68 0.52,1.76 1.36,2.84 0.88,1.08 1.96,1.08 z" />
    <path
       id="path888"
       style="font-style:normal;font-variant:normal;font-weight:bold;font-stretch:normal;font-family:'EB Garamond';-inkscape-font-specification:'EB Garamond Bold';text-align:center;text-anchor:middle;fill:#ffffff"
       d="m 1117.0716,261.66559 q -0.28,0 -0.56,-0.16 -0.24,-0.16 -0.24,-0.4 0,-0.48 0.92,-0.8 0.8,-0.24 1.16,-0.52 0.36,-0.28 0.36,-1 v -9.16 q 0,-2.04 -1.24,-2.24 -0.44,-0.08 -0.44,-0.72 0,-0.56 0.4,-0.68 4.04,-1 6,-2.12 0.08,-0.04 0.2,-0.12 0.16,-0.08 0.28,-0.08 0.36,0 0.36,0.44 l -0.08,0.88 q -0.04,0.28 -0.08,0.68 -0.04,0.36 -0.04,0.84 0,0.4 0.08,0.48 h 0.08 q 1.32,-1.28 2.76,-2 1.48,-0.72 3.2,-0.72 1.2,0 2.24,0.88 1.08,0.84 1.6,2.2 h 0.16 q 2.56,-3.08 6.08,-3.08 1.92,0 3.16,1.56 1.28,1.56 1.28,4.16 v 8.8 q 0,0.72 0.36,1 0.36,0.28 1.16,0.52 0.8,0.28 0.8,0.8 0,0.24 -0.2,0.4 -0.2,0.16 -0.48,0.16 -1.2,0 -2.28,-0.12 -1.28,-0.08 -1.96,-0.08 -0.68,0 -1.8,0.08 -0.88,0.12 -2.08,0.12 -0.28,0 -0.48,-0.16 -0.2,-0.16 -0.2,-0.4 0,-0.6 0.8,-0.8 0.56,-0.16 0.8,-0.4 0.28,-0.28 0.28,-0.88 v -8.2 q 0,-1.44 -0.64,-2.32 -0.6,-0.92 -1.56,-0.96 -1.24,0 -2.36,0.96 -0.56,0.52 -0.56,1.68 v 8.6 q 0,0.76 0.28,1.04 0.28,0.28 0.96,0.48 0.8,0.2 0.8,0.8 0,0.24 -0.2,0.4 -0.2,0.16 -0.48,0.16 -1.16,0 -2.12,-0.12 -1.2,-0.08 -1.84,-0.08 -0.68,0 -1.8,0.08 -0.88,0.12 -2.08,0.12 -0.24,0 -0.44,-0.16 -0.2,-0.16 -0.2,-0.4 0,-0.52 0.76,-0.8 0.6,-0.2 0.84,-0.44 0.28,-0.24 0.28,-0.84 v -8.2 q 0,-1.48 -0.6,-2.32 -0.6,-0.88 -1.6,-0.92 -1.2,0 -2.4,0.88 -0.52,0.4 -0.52,1.56 v 8.76 q 0,0.68 0.24,1 0.24,0.32 0.88,0.52 0.76,0.28 0.76,0.8 0,0.24 -0.2,0.4 -0.2,0.16 -0.44,0.16 -1.16,0 -2.08,-0.12 -1.2,-0.08 -1.84,-0.08 -0.68,0 -1.96,0.08 -1,0.12 -2.24,0.12 z" />
    <path
       id="path890"
       style="font-style:normal;font-variant:normal;font-weight:bold;font-stretch:normal;font-family:'EB Garamond';-inkscape-font-specification:'EB Garamond Bold';text-align:center;text-anchor:middle;fill:#ffffff"
       d="m 1149.1373,272.02559 q -0.32,0 -0.56,-0.16 -0.24,-0.16 -0.24,-0.4 0,-0.32 0.2,-0.52 0.24,-0.16 0.72,-0.28 0.88,-0.28 1.2,-0.6 0.32,-0.28 0.32,-0.92 v -19.16 q 0,-0.76 -0.48,-1.44 -0.44,-0.72 -1.2,-0.88 -0.24,-0.08 -0.36,-0.2 -0.12,-0.16 -0.12,-0.52 0,-0.56 0.44,-0.68 1.44,-0.32 3.04,-0.84 1.6,-0.52 2.72,-1.08 0.12,-0.04 0.32,-0.16 0.24,-0.12 0.36,-0.12 0.36,0 0.36,0.48 l -0.08,0.88 q -0.12,1.44 -0.12,1.44 0,0.4 0.08,0.48 0.44,-0.48 1.48,-1.12 1.08,-0.68 2.36,-1.16 1.32,-0.52 2.48,-0.52 2.04,0 3.56,1.12 1.56,1.12 2.36,2.92 0.84,1.76 0.84,3.76 0,2.48 -1.24,4.8 -1.24,2.28 -3.4,3.72 -2.12,1.4 -4.6,1.4 -0.68,0 -1.68,-0.24 -1,-0.24 -1.76,-0.6 -0.16,0 -0.16,0.72 v 6.64 q 0,0.76 0.48,1.16 0.52,0.4 1.68,0.72 0.88,0.28 0.88,0.8 0,0.24 -0.24,0.4 -0.2,0.16 -0.44,0.16 -1.28,0 -2.56,-0.12 -1.68,-0.08 -2.28,-0.08 -0.68,0 -2.04,0.08 -1.08,0.12 -2.32,0.12 z m 10.32,-11.6 q 0.68,0 1.56,-0.68 0.88,-0.68 1.52,-2.16 0.68,-1.48 0.68,-3.8 0,-3.8 -1.28,-5.16 -1.24,-1.36 -2.68,-1.36 -0.72,0 -1.48,0.32 -0.72,0.32 -1.24,0.8 -0.48,0.44 -0.48,0.76 l -0.08,6.56 q 0,1 0.4,2.12 0.44,1.12 1.24,1.88 0.8,0.72 1.84,0.72 z" />
    <path
       id="path892"
       style="font-style:normal;font-variant:normal;font-weight:bold;font-stretch:normal;font-family:'EB Garamond';-inkscape-font-specification:'EB Garamond Bold';text-align:center;text-anchor:middle;fill:#ffffff"
       d="m 1171.2085,261.66559 q -0.24,0 -0.44,-0.12 -0.2,-0.16 -0.2,-0.4 0,-0.6 0.72,-0.8 1.08,-0.24 1.48,-0.52 0.4,-0.32 0.4,-0.96 v -8.64 q 0,-1.32 -0.4,-1.92 -0.4,-0.6 -1.32,-0.72 -0.24,-0.04 -0.36,-0.24 -0.12,-0.2 -0.12,-0.48 0,-0.24 0.12,-0.44 0.16,-0.2 0.32,-0.24 1.8,-0.32 3.16,-0.88 1.4,-0.56 3.04,-1.36 0.56,-0.32 0.8,-0.32 0.24,0 0.36,0.16 0.16,0.12 0.16,0.32 l -0.16,1.48 q -0.36,3.04 -0.36,4.4 v 8.84 q 0,0.56 0.4,0.88 0.4,0.32 1.52,0.64 0.36,0.12 0.52,0.28 0.2,0.16 0.2,0.48 0,0.52 -0.6,0.52 -0.84,0 -2.44,-0.08 -1.6,-0.08 -2.28,-0.08 -0.68,0 -2.12,0.08 -1.2,0.12 -2.4,0.12 z m 4.4,-19.84 q -1.28,0 -2.2,-0.92 -0.92,-0.92 -0.92,-2.2 0,-1.36 0.92,-2.28 0.92,-0.92 2.2,-0.92 1.36,0 2.28,0.92 0.96,0.92 0.96,2.28 0,1.28 -0.96,2.2 -0.92,0.92 -2.28,0.92 z" />
    <path
       id="path894"
       style="font-style:normal;font-variant:normal;font-weight:bold;font-stretch:normal;font-family:'EB Garamond';-inkscape-font-specification:'EB Garamond Bold';text-align:center;text-anchor:middle;fill:#ffffff"
       d="m 1182.9654,261.66559 q -0.36,0 -0.6,-0.12 -0.2,-0.16 -0.2,-0.44 0,-0.56 0.92,-0.8 0.88,-0.32 1.2,-0.56 0.32,-0.24 0.32,-0.96 v -19.24 q 0,-1.2 -0.36,-1.92 -0.32,-0.76 -1.24,-0.96 -0.4,-0.08 -0.4,-0.6 0,-0.52 0.36,-0.6 1.08,-0.2 2.6,-0.72 1.56,-0.52 2.76,-0.96 l 0.84,-0.32 q 0.28,-0.12 0.52,-0.12 0.4,0 0.4,0.48 0,0.32 -0.12,1.16 -0.08,0.84 -0.12,1.6 v 22.12 q 0,0.68 0.28,0.96 0.32,0.24 0.72,0.4 0.4,0.12 0.52,0.16 0.48,0.16 0.68,0.36 0.24,0.16 0.24,0.44 0,0.28 -0.24,0.44 -0.2,0.12 -0.56,0.12 -0.84,0 -2.28,-0.08 l -2.08,-0.04 q -0.64,0 -1.92,0.08 -1.08,0.12 -2.24,0.12 z" />
    <path
       id="path896"
       style="font-style:normal;font-variant:normal;font-weight:bold;font-stretch:normal;font-family:'EB Garamond';-inkscape-font-specification:'EB Garamond Bold';text-align:center;text-anchor:middle;fill:#ffffff"
       d="m 1200.7466,262.10559 q -2.12,0 -3.84,-1.12 -1.72,-1.16 -2.72,-3.16 -0.96,-2 -0.96,-4.48 0,-2.48 1.16,-4.56 1.16,-2.08 3.16,-3.28 2.04,-1.24 4.4,-1.24 1.68,0 3.08,0.72 1.4,0.72 2.2,2 0.8,1.28 0.8,2.8 0,0.8 -0.32,1.16 -0.28,0.36 -0.92,0.36 h -8 q -0.56,0 -0.84,0.32 -0.24,0.32 -0.24,1.08 0,2.32 1.48,3.92 1.48,1.56 3.72,1.56 1.12,0 2.08,-0.4 0.96,-0.44 2,-1.24 0.4,-0.32 0.56,-0.32 0.4,0 0.4,0.52 0,0.52 -0.32,1.2 -0.64,1.68 -2.52,2.92 -1.84,1.24 -4.36,1.24 z m 0.44,-12.48 q 0.92,0 1.44,-0.04 0.52,-0.04 0.92,-0.16 0.2,-0.08 0.32,-0.4 0.12,-0.32 0.12,-0.72 0,-1.04 -0.76,-1.72 -0.72,-0.72 -1.8,-0.72 -1.24,0 -2.24,1.04 -1,1 -0.96,2.16 0,0.56 0.56,0.56 z" />
    <path
       id="path898"
       style="font-style:normal;font-variant:normal;font-weight:bold;font-stretch:normal;font-family:'EB Garamond';-inkscape-font-specification:'EB Garamond Bold';text-align:center;text-anchor:middle;fill:#ffffff"
       d="m 1061.827,312.58087 q -4.12,0 -7.56,-1.64 -3.44,-1.68 -5.48,-4.68 -2,-3 -2,-6.88 0,-3.68 2,-6.88 2,-3.2 5.68,-5.12 3.68,-1.92 8.48,-1.92 3.48,0 7.32,1.36 0.8,0.36 0.92,1.16 0.32,2.4 0.32,4.8 0,0.32 -0.2,0.52 -0.2,0.16 -0.48,0.16 -0.64,0 -0.88,-0.68 -0.32,-1.16 -0.72,-1.96 -0.4,-0.84 -1.08,-1.48 -1.92,-1.84 -5.64,-1.84 -2.68,0 -4.72,1.48 -2.04,1.48 -3.16,3.96 -1.12,2.44 -1.12,5.28 0,5.52 2.36,8.92 2.36,3.36 6.72,3.36 2.92,0 4.76,-1.2 1.84,-1.24 3.12,-3.92 0.16,-0.32 0.4,-0.48 0.24,-0.2 0.48,-0.2 0.24,0 0.4,0.2 0.2,0.16 0.2,0.48 0,1.8 -0.88,4.56 -0.16,0.48 -0.4,0.76 -0.24,0.24 -0.68,0.44 -3.32,1.44 -8.16,1.44 z" />
    <path
       id="path900"
       style="font-style:normal;font-variant:normal;font-weight:bold;font-stretch:normal;font-family:'EB Garamond';-inkscape-font-specification:'EB Garamond Bold';text-align:center;text-anchor:middle;fill:#ffffff"
       d="m 1084.9195,312.14087 q -0.32,0 -0.56,-0.16 -0.24,-0.16 -0.24,-0.4 0,-0.68 0.84,-0.84 1.56,-0.32 2.12,-0.84 0.56,-0.56 0.56,-1.8 v -17.92 q 0,-1.4 -0.48,-2 -0.48,-0.6 -1.92,-0.92 -0.92,-0.2 -0.92,-0.84 0,-0.24 0.24,-0.4 0.24,-0.2 0.64,-0.2 1.48,0 2.84,0.12 1.84,0.08 2.56,0.08 0.76,0 2.28,-0.16 1.68,-0.24 3.24,-0.24 4.88,0 7.72,2.08 2.88,2.08 2.88,5.64 0,2.6 -1.08,4.72 -1.08,2.12 -3.28,3.36 -2.16,1.24 -5.32,1.24 -1,0 -1.56,-0.28 -0.56,-0.28 -0.56,-0.76 0,-0.28 0.24,-0.44 0.24,-0.2 0.48,-0.2 0.24,0 0.72,0.12 0.52,0.08 0.92,0.08 1.64,0 2.52,-1.84 0.88,-1.84 0.88,-5 0,-6.96 -4.56,-6.96 -2.28,0 -2.28,2.04 l -0.04,18.6 q 0,1.24 0.64,1.8 0.64,0.56 2.4,0.92 0.44,0.08 0.64,0.28 0.24,0.16 0.24,0.52 0,0.6 -0.76,0.6 -1.52,0 -3.28,-0.12 -2.16,-0.08 -2.92,-0.08 -0.76,0 -2.84,0.08 -1.56,0.12 -3,0.12 z" />
    <path
       id="path902"
       style="font-style:normal;font-variant:normal;font-weight:bold;font-stretch:normal;font-family:'EB Garamond';-inkscape-font-specification:'EB Garamond Bold';text-align:center;text-anchor:middle;fill:#ffffff"
       d="m 1109.4163,312.14087 q -0.36,0 -0.6,-0.12 -0.2,-0.16 -0.2,-0.44 0,-0.32 0.2,-0.48 0.24,-0.2 0.72,-0.32 0.88,-0.28 1.16,-0.6 0.32,-0.32 0.32,-0.92 v -9.2 q 0,-0.92 -0.28,-1.4 -0.24,-0.52 -0.92,-0.72 -0.52,-0.16 -0.52,-0.72 0,-0.56 0.48,-0.68 1.28,-0.28 2.8,-0.8 1.56,-0.56 2.64,-1.08 0.6,-0.44 0.92,-0.44 0.36,0 0.36,0.44 l -0.12,3.16 q 0,0.36 0.16,0.36 1.04,-1.44 2.4,-2.44 1.36,-1.04 2.68,-1.04 1.32,0 1.92,0.52 0.64,0.48 0.64,1.36 0,0.96 -0.76,2.04 -0.72,1.04 -1.56,1.04 -0.52,0 -1.56,-0.56 -0.16,-0.08 -0.68,-0.28 -0.48,-0.24 -0.8,-0.24 -2.56,0 -2.56,3.8 v 6.52 q 0,0.76 0.48,1.16 0.48,0.4 1.64,0.72 0.88,0.24 0.88,0.8 0,0.24 -0.2,0.4 -0.2,0.16 -0.48,0.16 -1.28,0 -2.56,-0.12 -1.6,-0.08 -2.24,-0.08 -0.68,0 -2.04,0.08 -1.08,0.12 -2.32,0.12 z" />
    <path
       id="path904"
       style="font-style:normal;font-variant:normal;font-weight:bold;font-stretch:normal;font-family:'EB Garamond';-inkscape-font-specification:'EB Garamond Bold';text-align:center;text-anchor:middle;fill:#ffffff"
       d="m 1133.3101,312.58087 q -2.36,0 -4.32,-1.08 -1.96,-1.08 -3.08,-2.96 -1.12,-1.92 -1.12,-4.32 0,-2.52 1.24,-4.72 1.28,-2.2 3.4,-3.48 2.16,-1.32 4.76,-1.32 2.4,0 4.44,1.16 2.04,1.12 3.2,3.08 1.2,1.92 1.2,4.12 0,2.64 -1.12,4.8 -1.12,2.16 -3.32,3.44 -2.16,1.28 -5.28,1.28 z m 0.8,-1.76 q 1.64,0 2.48,-1.36 0.84,-1.4 0.84,-5.44 0,-3.28 -1.08,-5.4 -1.04,-2.16 -2.76,-2.16 -1.24,0 -2.08,0.84 -0.68,0.76 -0.96,2.2 -0.24,1.44 -0.24,3.72 0,1.92 0.48,3.68 0.52,1.76 1.36,2.84 0.88,1.08 1.96,1.08 z" />
    <path
       id="path906"
       style="font-style:normal;font-variant:normal;font-weight:bold;font-stretch:normal;font-family:'EB Garamond';-inkscape-font-specification:'EB Garamond Bold';text-align:center;text-anchor:middle;fill:#ffffff"
       d="m 1163.5863,295.66087 q 0.28,0 0.44,0.24 0.2,0.24 0.2,0.64 0,0.28 -0.16,0.72 -0.16,0.4 -0.36,0.72 -0.24,0.28 -0.52,0.28 h -1.08 q -1,0 -1.4,0.32 -0.16,0.2 -0.2,0.56 0,0.32 0,1.32 0,2.08 -1.08,3.84 -1.04,1.76 -2.84,2.84 -1.8,1.04 -3.88,1.04 -1.24,0 -2.68,-0.52 -0.36,0.24 -0.6,0.56 -0.2,0.28 -0.2,0.52 0,0.64 1.2,0.96 1.2,0.32 4.48,0.56 4.32,0.32 6.28,1.32 1.96,1 1.96,2.88 0,2.16 -1.56,4.28 -1.56,2.12 -4.04,3.48 -2.44,1.36 -4.92,1.36 -3.88,0 -6.08,-1.24 -2.2,-1.2 -2.2,-3.32 0,-1.28 0.28,-2 0.32,-0.68 1.28,-1.4 0.64,-0.44 1.36,-1 0.72,-0.52 1,-0.76 -2.84,-1.12 -2.84,-3.64 0,-0.88 1.08,-1.56 1.72,-1.28 2.12,-1.68 -1.48,-0.92 -2.4,-2.32 -0.88,-1.44 -0.88,-3.12 0,-1.96 1.12,-3.52 1.12,-1.56 2.96,-2.44 1.88,-0.88 4,-0.88 1.2,0 3.04,0.44 1.12,0.24 1.72,0.32 1.68,0.32 3.2,0.32 0.52,0 1.32,-0.08 z m -10.44,10.76 q 1.24,0 2,-1.4 0.76,-1.4 0.76,-3.76 0,-2.2 -0.84,-3.56 -0.8,-1.36 -2.08,-1.36 -1.16,0 -2,1.4 -0.8,1.36 -0.8,3.4 0,2.2 0.84,3.76 0.88,1.52 2.12,1.52 z m 5.16,10.64 q 0,-0.64 -0.48,-1.04 -0.44,-0.4 -1.56,-0.68 -1.08,-0.24 -3.16,-0.48 -1.2,-0.08 -2.84,-0.4 -1.16,0.72 -1.76,1.52 -0.56,0.8 -0.56,1.8 0,1.64 1.36,2.72 1.36,1.08 3.48,1.08 2.8,0 3.92,-1.08 0.76,-0.72 1.16,-1.64 0.44,-0.88 0.44,-1.8 z" />
    <path
       id="path908"
       style="font-style:normal;font-variant:normal;font-weight:bold;font-stretch:normal;font-family:'EB Garamond';-inkscape-font-specification:'EB Garamond Bold';text-align:center;text-anchor:middle;fill:#ffffff"
       d="m 1165.6663,312.14087 q -0.36,0 -0.6,-0.12 -0.2,-0.16 -0.2,-0.44 0,-0.32 0.2,-0.48 0.24,-0.2 0.72,-0.32 0.88,-0.28 1.16,-0.6 0.32,-0.32 0.32,-0.92 v -9.2 q 0,-0.92 -0.28,-1.4 -0.24,-0.52 -0.92,-0.72 -0.52,-0.16 -0.52,-0.72 0,-0.56 0.48,-0.68 1.28,-0.28 2.8,-0.8 1.56,-0.56 2.64,-1.08 0.6,-0.44 0.92,-0.44 0.36,0 0.36,0.44 l -0.12,3.16 q 0,0.36 0.16,0.36 1.04,-1.44 2.4,-2.44 1.36,-1.04 2.68,-1.04 1.32,0 1.92,0.52 0.64,0.48 0.64,1.36 0,0.96 -0.76,2.04 -0.72,1.04 -1.56,1.04 -0.52,0 -1.56,-0.56 -0.16,-0.08 -0.68,-0.28 -0.48,-0.24 -0.8,-0.24 -2.56,0 -2.56,3.8 v 6.52 q 0,0.76 0.48,1.16 0.48,0.4 1.64,0.72 0.88,0.24 0.88,0.8 0,0.24 -0.2,0.4 -0.2,0.16 -0.48,0.16 -1.28,0 -2.56,-0.12 -1.6,-0.08 -2.24,-0.08 -0.68,0 -2.04,0.08 -1.08,0.12 -2.32,0.12 z" />
    <path
       id="path910"
       style="font-style:normal;font-variant:normal;font-weight:bold;font-stretch:normal;font-family:'EB Garamond';-inkscape-font-specification:'EB Garamond Bold';text-align:center;text-anchor:middle;fill:#ffffff"
       d="m 1185.7088,312.58087 q -1.6,0 -2.8,-1.08 -1.2,-1.12 -1.2,-2.64 0,-1.36 0.8,-2.24 0.84,-0.92 2.6,-1.68 l 3.56,-1.56 q 0.8,-0.36 0.96,-0.64 0.2,-0.28 0.2,-1.04 l 0.04,-2.28 q 0.04,-1.16 -0.4,-1.8 -0.44,-0.64 -1.32,-0.64 -0.48,0 -1.04,0.24 -0.52,0.2 -0.8,0.48 -0.24,0.28 -0.24,0.84 0,0.28 0.04,0.6 0.04,0.28 0.04,0.56 0,0.4 -1.36,1 -1.32,0.6 -2.2,0.6 -0.32,0 -0.52,-0.24 -0.2,-0.24 -0.2,-0.6 0,-0.64 0.44,-1.24 0.44,-0.6 1.44,-1.44 1.56,-1.28 3.52,-2.16 1.96,-0.88 3.28,-0.88 2.12,0 3.4,1.4 1.28,1.36 1.24,3.64 l -0.2,8.08 q -0.04,0.92 0.32,1.56 0.36,0.64 0.88,0.64 0.76,0 1.32,-0.52 0.12,-0.12 0.24,-0.12 0.2,0 0.32,0.16 0.16,0.12 0.16,0.28 0,0.52 -0.72,1.24 -1.48,1.48 -3.36,1.48 -1.16,0 -2.04,-0.56 -0.88,-0.52 -1.68,-1.72 h -0.08 q -1.32,1.24 -2.4,1.76 -1.04,0.52 -2.24,0.52 z m 2.4,-2.6 q 0.76,0 1.28,-0.6 0.28,-0.44 0.28,-1.04 l 0.12,-2.88 q 0,-0.64 -0.4,-0.64 -0.2,0 -0.48,0.16 -1.28,0.6 -1.8,1.2 -0.48,0.6 -0.48,1.8 0,1.04 0.44,1.52 0.44,0.48 1.04,0.48 z" />
    <path
       id="path912"
       style="font-style:normal;font-variant:normal;font-weight:bold;font-stretch:normal;font-family:'EB Garamond';-inkscape-font-specification:'EB Garamond Bold';text-align:center;text-anchor:middle;fill:#ffffff"
       d="m 1199.6888,312.14087 q -0.28,0 -0.56,-0.16 -0.24,-0.16 -0.24,-0.4 0,-0.48 0.92,-0.8 0.8,-0.24 1.16,-0.52 0.36,-0.28 0.36,-1 v -9.16 q 0,-2.04 -1.24,-2.24 -0.44,-0.08 -0.44,-0.72 0,-0.56 0.4,-0.68 4.04,-1 6,-2.12 0.08,-0.04 0.2,-0.12 0.16,-0.08 0.28,-0.08 0.36,0 0.36,0.44 l -0.08,0.88 q -0.04,0.28 -0.08,0.68 -0.04,0.36 -0.04,0.84 0,0.4 0.08,0.48 h 0.08 q 1.32,-1.28 2.76,-2 1.48,-0.72 3.2,-0.72 1.2,0 2.24,0.88 1.08,0.84 1.6,2.2 h 0.16 q 2.56,-3.08 6.08,-3.08 1.92,0 3.16,1.56 1.28,1.56 1.28,4.16 v 8.8 q 0,0.72 0.36,1 0.36,0.28 1.16,0.52 0.8,0.28 0.8,0.8 0,0.24 -0.2,0.4 -0.2,0.16 -0.48,0.16 -1.2,0 -2.28,-0.12 -1.28,-0.08 -1.96,-0.08 -0.68,0 -1.8,0.08 -0.88,0.12 -2.08,0.12 -0.28,0 -0.48,-0.16 -0.2,-0.16 -0.2,-0.4 0,-0.6 0.8,-0.8 0.56,-0.16 0.8,-0.4 0.28,-0.28 0.28,-0.88 v -8.2 q 0,-1.44 -0.64,-2.32 -0.6,-0.92 -1.56,-0.96 -1.24,0 -2.36,0.96 -0.56,0.52 -0.56,1.68 v 8.6 q 0,0.76 0.28,1.04 0.28,0.28 0.96,0.48 0.8,0.2 0.8,0.8 0,0.24 -0.2,0.4 -0.2,0.16 -0.48,0.16 -1.16,0 -2.12,-0.12 -1.2,-0.08 -1.84,-0.08 -0.68,0 -1.8,0.08 -0.88,0.12 -2.08,0.12 -0.24,0 -0.44,-0.16 -0.2,-0.16 -0.2,-0.4 0,-0.52 0.76,-0.8 0.6,-0.2 0.84,-0.44 0.28,-0.24 0.28,-0.84 v -8.2 q 0,-1.48 -0.6,-2.32 -0.6,-0.88 -1.6,-0.92 -1.2,0 -2.4,0.88 -0.52,0.4 -0.52,1.56 v 8.76 q 0,0.68 0.24,1 0.24,0.32 0.88,0.52 0.76,0.28 0.76,0.8 0,0.24 -0.2,0.4 -0.2,0.16 -0.44,0.16 -1.16,0 -2.08,-0.12 -1.2,-0.08 -1.84,-0.08 -0.68,0 -1.96,0.08 -1,0.12 -2.24,0.12 z" />
    <path
       id="path914"
       style="font-style:normal;font-variant:normal;font-weight:bold;font-stretch:normal;font-family:'EB Garamond';-inkscape-font-specification:'EB Garamond Bold';text-align:center;text-anchor:middle;fill:#ffffff"
       d="m 1051.2085,362.61615 q -0.24,0 -0.44,-0.12 -0.2,-0.16 -0.2,-0.4 0,-0.6 0.72,-0.8 1.08,-0.24 1.48,-0.52 0.4,-0.32 0.4,-0.96 v -8.64 q 0,-1.32 -0.4,-1.92 -0.4,-0.6 -1.32,-0.72 -0.24,-0.04 -0.36,-0.24 -0.12,-0.2 -0.12,-0.48 0,-0.24 0.12,-0.44 0.16,-0.2 0.32,-0.24 1.8,-0.32 3.16,-0.88 1.4,-0.56 3.04,-1.36 0.56,-0.32 0.8,-0.32 0.24,0 0.36,0.16 0.16,0.12 0.16,0.32 l -0.16,1.48 q -0.36,3.04 -0.36,4.4 v 8.84 q 0,0.56 0.4,0.88 0.4,0.32 1.52,0.64 0.36,0.12 0.52,0.28 0.2,0.16 0.2,0.48 0,0.52 -0.6,0.52 -0.84,0 -2.44,-0.08 -1.6,-0.08 -2.28,-0.08 -0.68,0 -2.12,0.08 -1.2,0.12 -2.4,0.12 z m 4.4,-19.84 q -1.28,0 -2.2,-0.92 -0.92,-0.92 -0.92,-2.2 0,-1.36 0.92,-2.28 0.92,-0.92 2.2,-0.92 1.36,0 2.28,0.92 0.96,0.92 0.96,2.28 0,1.28 -0.96,2.2 -0.92,0.92 -2.28,0.92 z" />
    <path
       id="path916"
       style="font-style:normal;font-variant:normal;font-weight:bold;font-stretch:normal;font-family:'EB Garamond';-inkscape-font-specification:'EB Garamond Bold';text-align:center;text-anchor:middle;fill:#ffffff"
       d="m 1063.1654,362.61615 q -0.28,0 -0.56,-0.16 -0.24,-0.16 -0.24,-0.4 0,-0.48 0.92,-0.8 0.8,-0.24 1.16,-0.52 0.36,-0.28 0.36,-1 v -9.16 q 0,-2 -1.24,-2.24 -0.44,-0.08 -0.44,-0.72 0,-0.56 0.4,-0.68 1.4,-0.32 3.04,-0.88 1.64,-0.56 2.72,-1.12 0.52,-0.32 0.72,-0.32 0.36,0 0.36,0.48 l -0.08,0.8 q -0.12,1.44 -0.12,1.48 0,0.52 0.08,0.6 1.48,-1.4 2.84,-2.08 1.4,-0.68 3.16,-0.68 2.16,0 3.52,1.56 1.4,1.56 1.4,4.16 v 8.8 q 0,0.72 0.36,1 0.36,0.28 1.16,0.52 0.8,0.28 0.8,0.8 0,0.24 -0.2,0.4 -0.2,0.16 -0.48,0.16 -1.2,0 -2.28,-0.12 -1.28,-0.08 -1.96,-0.08 -0.68,0 -1.96,0.08 -1,0.12 -2.24,0.12 -0.28,0 -0.48,-0.16 -0.2,-0.16 -0.2,-0.4 0,-0.52 0.8,-0.8 0.76,-0.24 1.08,-0.52 0.32,-0.28 0.32,-1 v -7.96 q 0,-1.52 -0.68,-2.36 -0.68,-0.88 -1.88,-0.92 -0.84,0 -1.52,0.28 -0.68,0.24 -1.44,0.76 -0.32,0.28 -0.32,0.76 v 9.44 q 0,0.72 0.32,1 0.32,0.24 1.12,0.52 0.8,0.28 0.8,0.8 0,0.24 -0.2,0.4 -0.2,0.16 -0.48,0.16 -1.2,0 -2.16,-0.12 -1.28,-0.08 -1.92,-0.08 -0.68,0 -2.04,0.08 -1.08,0.12 -2.32,0.12 z" />
    <path
       id="path918"
       style="font-style:normal;font-variant:normal;font-weight:bold;font-stretch:normal;font-family:'EB Garamond';-inkscape-font-specification:'EB Garamond Bold';text-align:center;text-anchor:middle;fill:#ffffff"
       d="m 1108.5548,363.05615 q -5.52,0 -8.44,-2.88 -2.88,-2.88 -2.88,-7.8 v -11.4 q 0,-1.16 -0.56,-2.04 -0.52,-0.88 -1.48,-1.16 -1.12,-0.32 -1.12,-0.88 0,-0.28 0.28,-0.44 0.32,-0.16 0.76,-0.16 1.36,0 2.68,0.12 1.76,0.08 2.52,0.08 0.72,0 2.72,-0.08 1.92,-0.08 2.68,-0.08 1.08,0 1.08,0.6 0,0.28 -0.32,0.48 -0.28,0.16 -0.76,0.36 -0.48,0.16 -0.8,0.32 -0.68,0.28 -1.08,1.04 -0.4,0.76 -0.4,2.04 v 10.48 q 0,3.92 1.8,5.92 1.84,2 4.68,2 3.64,0 5.4,-2.16 1.8,-2.2 1.8,-6.6 l 0.04,-5.04 q 0,-1.8 -0.04,-2.6 -0.04,-2.6 -0.52,-3.64 -0.44,-1.04 -1.6,-1.64 -0.24,-0.12 -0.68,-0.24 -0.44,-0.16 -0.68,-0.32 -0.24,-0.16 -0.24,-0.4 0,-0.56 1.2,-0.56 l 2.36,0.04 q 0.48,0.04 1.48,0.04 0.72,0 1.76,-0.08 1.12,-0.08 1.84,-0.08 1.04,0 1.04,0.6 0,0.52 -1.08,0.84 -1.32,0.36 -1.88,1.2 -0.52,0.84 -0.6,2.32 -0.2,5.04 -0.2,10.76 0,3.2 -1.44,5.72 -1.44,2.52 -3.92,3.92 -2.44,1.4 -5.4,1.4 z" />
    <path
       id="path920"
       style="font-style:normal;font-variant:normal;font-weight:bold;font-stretch:normal;font-family:'EB Garamond';-inkscape-font-specification:'EB Garamond Bold';text-align:center;text-anchor:middle;fill:#ffffff"
       d="m 1134.4004,363.05615 q -1.6,0 -3.92,-0.6 -1.52,-0.44 -1.92,-0.44 -0.64,0 -1.44,0.52 -0.36,0.28 -0.56,0.28 -0.36,0 -0.56,-0.16 -0.16,-0.12 -0.16,-0.36 0,-0.28 0.2,-1.4 0.24,-1.16 0.2,-2.6 l -0.16,-17.8 q 0,-1.2 -0.36,-1.92 -0.32,-0.76 -1.2,-0.96 -0.48,-0.08 -0.48,-0.64 0,-0.2 0.12,-0.36 0.12,-0.16 0.32,-0.2 1.76,-0.32 6,-1.96 0.4,-0.16 0.56,-0.16 0.44,0 0.44,0.48 0,0.28 -0.12,1.08 -0.08,0.8 -0.08,1.44 v 8.56 q 0,1.12 0.36,1.12 1.24,-0.84 2.56,-1.28 1.36,-0.48 2.56,-0.48 2.08,0 3.76,1.08 1.68,1.08 2.64,3 1,1.88 1,4.2 0,2.8 -1.24,5 -1.2,2.16 -3.44,3.36 -2.2,1.2 -5.08,1.2 z m 0.72,-1.68 q 1.56,0 2.48,-1.96 0.96,-2 0.96,-4.88 0,-2.76 -1.04,-4.92 -1.04,-2.16 -3,-2.16 -0.84,0 -1.76,0.24 -0.92,0.24 -1.48,0.68 v 8.52 q 0,1.92 1.12,3.2 1.16,1.28 2.72,1.28 z" />
    <path
       id="path922"
       style="font-style:normal;font-variant:normal;font-weight:bold;font-stretch:normal;font-family:'EB Garamond';-inkscape-font-specification:'EB Garamond Bold';text-align:center;text-anchor:middle;fill:#ffffff"
       d="m 1158.9591,363.33615 q -0.32,0 -0.32,-0.4 0,-0.56 0.12,-1.28 l 0.08,-1.24 q 0,-0.36 -0.08,-0.44 -1.12,1.36 -2.84,2.24 -1.68,0.88 -3.48,0.88 -1.88,0 -3.16,-1.6 -1.24,-1.64 -1.24,-4.04 v -7.48 q 0,-1 -0.36,-1.52 -0.36,-0.56 -1.24,-0.72 -0.24,-0.04 -0.44,-0.2 -0.16,-0.2 -0.16,-0.56 0,-0.64 0.6,-0.68 2.6,-0.12 5.8,-0.96 0.16,-0.04 0.4,-0.08 0.28,-0.08 0.44,-0.08 0.56,0 0.52,0.56 -0.32,1.64 -0.32,3.08 v 7.68 q 0,1.44 0.68,2.32 0.68,0.88 1.76,0.92 1.56,0 2.44,-0.88 0.32,-0.28 0.56,-0.88 0.24,-0.64 0.24,-1.6 v -6.44 q 0,-1 -0.6,-1.56 -0.6,-0.6 -1.56,-0.68 -0.48,-0.04 -0.72,-0.24 -0.24,-0.2 -0.24,-0.64 0,-0.4 0.28,-0.6 0.28,-0.2 0.68,-0.2 3.04,-0.2 4.32,-0.32 1.28,-0.12 2.4,-0.4 0.48,-0.12 0.52,-0.12 0.6,0 0.6,0.48 0,0.12 -0.16,0.6 -0.08,0.48 -0.2,1.4 -0.08,0.92 -0.08,1.4 v 9.28 q 0,1.52 0.72,1.52 l 1.12,0.04 q 0.36,0 0.56,0.2 0.2,0.2 0.2,0.52 0,0.4 -0.16,0.6 -0.12,0.2 -0.52,0.24 -2.96,0.28 -6.12,1.6 -0.12,0.04 -0.48,0.16 -0.32,0.12 -0.56,0.12 z" />
    <path
       id="path924"
       style="font-style:normal;font-variant:normal;font-weight:bold;font-stretch:normal;font-family:'EB Garamond';-inkscape-font-specification:'EB Garamond Bold';text-align:center;text-anchor:middle;fill:#ffffff"
       d="m 1168.7904,362.61615 q -0.28,0 -0.56,-0.16 -0.24,-0.16 -0.24,-0.4 0,-0.48 0.92,-0.8 0.8,-0.24 1.16,-0.52 0.36,-0.28 0.36,-1 v -9.16 q 0,-2 -1.24,-2.24 -0.44,-0.08 -0.44,-0.72 0,-0.56 0.4,-0.68 1.4,-0.32 3.04,-0.88 1.64,-0.56 2.72,-1.12 0.52,-0.32 0.72,-0.32 0.36,0 0.36,0.48 l -0.08,0.8 q -0.12,1.44 -0.12,1.48 0,0.52 0.08,0.6 1.48,-1.4 2.84,-2.08 1.4,-0.68 3.16,-0.68 2.16,0 3.52,1.56 1.4,1.56 1.4,4.16 v 8.8 q 0,0.72 0.36,1 0.36,0.28 1.16,0.52 0.8,0.28 0.8,0.8 0,0.24 -0.2,0.4 -0.2,0.16 -0.48,0.16 -1.2,0 -2.28,-0.12 -1.28,-0.08 -1.96,-0.08 -0.68,0 -1.96,0.08 -1,0.12 -2.24,0.12 -0.28,0 -0.48,-0.16 -0.2,-0.16 -0.2,-0.4 0,-0.52 0.8,-0.8 0.76,-0.24 1.08,-0.52 0.32,-0.28 0.32,-1 v -7.96 q 0,-1.52 -0.68,-2.36 -0.68,-0.88 -1.88,-0.92 -0.84,0 -1.52,0.28 -0.68,0.24 -1.44,0.76 -0.32,0.28 -0.32,0.76 v 9.44 q 0,0.72 0.32,1 0.32,0.24 1.12,0.52 0.8,0.28 0.8,0.8 0,0.24 -0.2,0.4 -0.2,0.16 -0.48,0.16 -1.2,0 -2.16,-0.12 -1.28,-0.08 -1.92,-0.08 -0.68,0 -2.04,0.08 -1.08,0.12 -2.32,0.12 z" />
    <path
       id="path926"
       style="font-style:normal;font-variant:normal;font-weight:bold;font-stretch:normal;font-family:'EB Garamond';-inkscape-font-specification:'EB Garamond Bold';text-align:center;text-anchor:middle;fill:#ffffff"
       d="m 1197.9416,363.05615 q -2.6,0 -3.96,-1.32 -1.32,-1.32 -1.32,-3.8 v -9.2 q 0,-0.36 -0.28,-0.52 -0.28,-0.16 -0.96,-0.2 h -0.52 q -0.24,0 -0.44,-0.44 -0.2,-0.44 -0.2,-0.84 0,-0.28 0.24,-0.4 2,-0.72 5.84,-4.08 0.08,-0.08 0.28,-0.2 0.2,-0.16 0.36,-0.24 0.16,-0.08 0.36,-0.08 0.4,0 0.52,0.16 0.12,0.16 0.08,0.64 l -0.24,2.36 v 0.16 q 0,0.68 0.96,0.68 h 4.76 q 0.12,0 0.24,0.28 0.12,0.28 0.12,0.52 0,0.6 -0.16,1.12 -0.16,0.48 -0.36,0.48 h -3.72 q -0.92,0 -1.28,0.24 -0.32,0.2 -0.32,0.76 v 7.56 q 0,1.8 0.68,2.72 0.68,0.92 1.88,0.92 0.92,0 1.4,-0.12 0.52,-0.16 0.84,-0.32 0.36,-0.16 0.44,-0.2 0.16,-0.08 0.24,-0.08 0.2,0 0.32,0.24 0.12,0.2 0.12,0.56 0,0.28 -0.92,0.96 -0.88,0.64 -2.24,1.16 -1.36,0.52 -2.76,0.52 z" />
    <path
       id="path928"
       style="font-style:normal;font-variant:normal;font-weight:bold;font-stretch:normal;font-family:'EB Garamond';-inkscape-font-specification:'EB Garamond Bold';text-align:center;text-anchor:middle;fill:#ffffff"
       d="m 1218.0216,363.33615 q -0.32,0 -0.32,-0.4 0,-0.56 0.12,-1.28 l 0.08,-1.24 q 0,-0.36 -0.08,-0.44 -1.12,1.36 -2.84,2.24 -1.68,0.88 -3.48,0.88 -1.88,0 -3.16,-1.6 -1.24,-1.64 -1.24,-4.04 v -7.48 q 0,-1 -0.36,-1.52 -0.36,-0.56 -1.24,-0.72 -0.24,-0.04 -0.44,-0.2 -0.16,-0.2 -0.16,-0.56 0,-0.64 0.6,-0.68 2.6,-0.12 5.8,-0.96 0.16,-0.04 0.4,-0.08 0.28,-0.08 0.44,-0.08 0.56,0 0.52,0.56 -0.32,1.64 -0.32,3.08 v 7.68 q 0,1.44 0.68,2.32 0.68,0.88 1.76,0.92 1.56,0 2.44,-0.88 0.32,-0.28 0.56,-0.88 0.24,-0.64 0.24,-1.6 v -6.44 q 0,-1 -0.6,-1.56 -0.6,-0.6 -1.56,-0.68 -0.48,-0.04 -0.72,-0.24 -0.24,-0.2 -0.24,-0.64 0,-0.4 0.28,-0.6 0.28,-0.2 0.68,-0.2 3.04,-0.2 4.32,-0.32 1.28,-0.12 2.4,-0.4 0.48,-0.12 0.52,-0.12 0.6,0 0.6,0.48 0,0.12 -0.16,0.6 -0.08,0.48 -0.2,1.4 -0.08,0.92 -0.08,1.4 v 9.28 q 0,1.52 0.72,1.52 l 1.12,0.04 q 0.36,0 0.56,0.2 0.2,0.2 0.2,0.52 0,0.4 -0.16,0.6 -0.12,0.2 -0.52,0.24 -2.96,0.28 -6.12,1.6 -0.12,0.04 -0.48,0.16 -0.32,0.12 -0.56,0.12 z" />
  </g>
</svg>
