<?xml version="1.0" encoding="UTF-8" standalone="no"?>
<svg
   xmlns:osb="http://www.openswatchbook.org/uri/2009/osb"
   xmlns:dc="http://purl.org/dc/elements/1.1/"
   xmlns:cc="http://creativecommons.org/ns#"
   xmlns:rdf="http://www.w3.org/1999/02/22-rdf-syntax-ns#"
   xmlns:svg="http://www.w3.org/2000/svg"
   xmlns="http://www.w3.org/2000/svg"
   xmlns:xlink="http://www.w3.org/1999/xlink"
   id="svg3357"
   version="1.1"
   viewBox="0 0 444.49999 277.8125"
   height="277.8125mm"
   width="444.5mm">
  <defs
     id="defs3351">
    <linearGradient
       id="linearGradient1016">
      <stop
         style="stop-color:#00a562;stop-opacity:1;"
         offset="0"
         id="stop1012" />
      <stop
         id="stop1020"
         offset="0"
         style="stop-color:#00c475;stop-opacity:1" />
      <stop
         style="stop-color:#00c273;stop-opacity:1"
         offset="1"
         id="stop1014" />
    </linearGradient>
    <linearGradient
       osb:paint="solid"
       id="linearGradient4115">
      <stop
         id="stop4113"
         offset="0"
         style="stop-color:#000000;stop-opacity:1;" />
    </linearGradient>
    <linearGradient
       id="linearGradient6114">
      <stop
         id="stop6110"
         offset="0"
         style="stop-color:#6f7c91;stop-opacity:1;" />
      <stop
         id="stop6112"
         offset="1"
         style="stop-color:#162d50;stop-opacity:1" />
    </linearGradient>
    <radialGradient
       gradientUnits="userSpaceOnUse"
       gradientTransform="matrix(3.0071285,0,0,1.83657,-125.12732,-58.151445)"
       r="31.67275"
       fy="66.986313"
       fx="73.77433"
       cy="66.986313"
       cx="73.77433"
       id="radialGradient6126"
       xlink:href="#linearGradient6114" />
    <radialGradient
       xlink:href="#linearGradient1016"
       id="radialGradient1018"
       cx="222.25"
       cy="138.90625"
       fx="222.25"
       fy="138.90625"
       r="222.25"
       gradientTransform="matrix(1,0,0,0.625,0,52.089844)"
       gradientUnits="userSpaceOnUse" />
    <linearGradient
       gradientTransform="matrix(0.26458333,0,0,0.26458333,-2.95398,239.32846)"
       gradientUnits="userSpaceOnUse"
       y2="-379.54852"
       x2="1691.1647"
       y1="-377.6445"
       x1="1689.3649"
       id="linearGradient903"
       xlink:href="#linearGradient899" />
    <linearGradient
       id="linearGradient899">
      <stop
         id="stop895"
         offset="0"
         style="stop-color:#00a562;stop-opacity:1;" />
      <stop
         id="stop897"
         offset="1"
         style="stop-color:#00a562;stop-opacity:0;" />
    </linearGradient>
    <linearGradient
       gradientTransform="translate(-1.4e-4,4.5e-4)"
       xlink:href="#linearGradient899"
       id="linearGradient1019-9"
       x1="444.19131"
       y1="139.3998"
       x2="465.91299"
       y2="138.90625"
       gradientUnits="userSpaceOnUse" />
  </defs>
  <metadata
     id="metadata3354">
    <rdf:RDF>
      <cc:Work
         rdf:about="">
        <dc:format>image/svg+xml</dc:format>
        <dc:type
           rdf:resource="http://purl.org/dc/dcmitype/StillImage" />
        <dc:title></dc:title>
      </cc:Work>
    </rdf:RDF>
  </metadata>
  <g
     transform="matrix(0.26458333,0,0,0.26458333,-439.92008,81.58747)"
     style="font-style:normal;font-weight:normal;font-size:40px;line-height:1.25;font-family:sans-serif;letter-spacing:0px;word-spacing:0px;fill:#000000;fill-opacity:1;stroke:none"
     id="flowRoot985" />
  <g
     transform="matrix(0.26458333,0,0,0.26458333,-439.92008,81.58747)"
     style="font-style:normal;font-weight:normal;font-size:40px;line-height:1.25;font-family:sans-serif;letter-spacing:0px;word-spacing:0px;fill:#000000;fill-opacity:1;stroke:none"
     id="flowRoot993" />
  <path
     id="path1098"
     d="M 286.33187,0 H 0 V 277.8125 H 444.49999 V 132.71902 Z"
     style="opacity:1;fill:url(#linearGradient1019-9);fill-opacity:1;stroke:none;stroke-width:9.70262432;stroke-miterlimit:4;stroke-dasharray:none;paint-order:stroke markers fill" />
  <g
     transform="translate(83.98576,154.67855)"
     id="g1116">
    <path
       style="opacity:1;fill:#ffe680;fill-opacity:1;fill-rule:nonzero;stroke:none;stroke-width:0.15597185;stroke-linejoin:round;stroke-miterlimit:4;stroke-dasharray:none;stroke-opacity:1"
       d="m 294.70637,-44.391006 a 26.458333,26.458332 85.3 0 1 -37.29191,3.065953 26.458333,26.458332 85.3 0 1 -3.06595,-37.291909 26.458333,26.458332 85.3 0 1 37.29191,-3.065953 26.458333,26.458332 85.3 0 1 3.06595,37.291909 z"
       id="circle891-7" />
    <path
       style="opacity:1;fill:#ffd42a;fill-opacity:1;fill-rule:nonzero;stroke:none;stroke-width:0.07798593;stroke-linejoin:round;stroke-miterlimit:4;stroke-dasharray:none;stroke-opacity:1"
       d="m 328.87173,-99.386113 a 13.229167,13.229166 85.3 0 1 -18.64595,1.532975 13.229167,13.229166 85.3 0 1 -1.53294,-18.645962 13.229167,13.229166 85.3 0 1 18.64596,-1.53297 13.229167,13.229166 85.3 0 1 1.53293,18.645957 z"
       id="path889-5" />
    <path
       style="opacity:1;fill:#c87137;fill-opacity:1;fill-rule:nonzero;stroke:none;stroke-width:0.29857224;stroke-linejoin:round;stroke-miterlimit:4;stroke-dasharray:none;stroke-opacity:1"
       d="m 326.77272,-22.27086 a 63.683452,62.98363 39.9 0 0 10.56026,-62.270206 63.683452,62.98363 39.9 0 0 -48.85572,-40.849724 63.683452,62.98363 39.9 0 0 -59.416,21.42047 l 48.85573,40.849731 z"
       id="path954-3" />
    <path
       style="opacity:1;fill:#d4aa00;fill-opacity:1;fill-rule:nonzero;stroke:none;stroke-width:0.31459409;stroke-linejoin:round;stroke-miterlimit:4;stroke-dasharray:none;stroke-opacity:1"
       d="m 225.72933,-97.634083 96.4711,80.662359 c 2.82215,2.359673 6.99381,1.987363 9.3535,-0.834787 l 1.35705,-1.623001 c 2.35967,-2.822138 1.98736,-6.993794 -0.83479,-9.353486 l -96.4711,-80.662362 c -2.82216,-2.35968 -6.99382,-1.98737 -9.35349,0.83476 l -1.35704,1.623 c -2.35969,2.82216 -1.98738,6.993824 0.83469,9.353519 z"
       id="rect956-5" />
  </g>
  <g
     aria-label="Install Skype in Ubuntu"
     transform="matrix(1.4892094,0,0,1.174152,-843.30455,-186.45551)"
     style="font-style:normal;font-weight:normal;font-size:40px;line-height:1.25;font-family:sans-serif;letter-spacing:0px;word-spacing:0px;fill:#ffffff;fill-opacity:1;stroke:none"
     id="flowRoot1316">
    <path
       d="m 636.70569,246.25543 q -0.32,0 -0.56,-0.12 -0.24,-0.16 -0.24,-0.44 0,-0.64 0.84,-0.84 1.52,-0.32 2.12,-0.8 0.6,-0.52 0.6,-1.8 v -18.16 q 0,-1.28 -0.52,-1.8 -0.52,-0.56 -2.12,-0.92 -0.84,-0.2 -0.84,-0.84 0,-0.28 0.24,-0.44 0.24,-0.16 0.56,-0.16 0.92,0 1.92,0.04 1.04,0.04 2,0.12 1,0.04 1.84,0.04 0.8,0 1.8,-0.04 1.04,-0.04 2.08,-0.08 1.08,-0.04 1.96,-0.04 0.36,0 0.56,0.16 0.2,0.12 0.2,0.4 0,0.4 -0.24,0.56 -0.2,0.16 -0.64,0.28 -1.6,0.44 -2.12,1 -0.52,0.52 -0.52,1.76 v 18.08 q 0,1.16 0.56,1.72 0.6,0.52 2.16,0.92 0.4,0.12 0.6,0.28 0.24,0.16 0.24,0.52 0,0.28 -0.2,0.44 -0.16,0.16 -0.52,0.16 -0.88,0 -1.96,-0.08 -1.08,-0.04 -2.12,-0.08 -1.04,-0.04 -1.84,-0.04 -0.84,0 -1.84,0.04 -1,0.04 -2.04,0.08 -1.04,0.08 -1.96,0.08 z"
       style="font-style:normal;font-variant:normal;font-weight:bold;font-stretch:normal;font-family:'EB Garamond';-inkscape-font-specification:'EB Garamond Bold';text-align:center;text-anchor:middle;fill:#ffffff"
       id="path1328" />
    <path
       d="m 651.46563,246.25543 q -0.28,0 -0.56,-0.12 -0.24,-0.16 -0.24,-0.44 0,-0.32 0.28,-0.48 0.28,-0.2 0.64,-0.32 0.6,-0.2 1.04,-0.44 0.48,-0.28 0.48,-1.08 v -9.16 q 0,-0.88 -0.28,-1.48 -0.24,-0.6 -0.96,-0.76 -0.16,-0.04 -0.32,-0.2 -0.12,-0.16 -0.12,-0.52 0,-0.56 0.4,-0.68 1.36,-0.32 2.96,-0.84 1.64,-0.56 2.8,-1.16 0.16,-0.08 0.36,-0.2 0.2,-0.12 0.36,-0.12 0.24,0 0.28,0.16 0.08,0.12 0.08,0.32 0,0.32 -0.12,1.04 -0.08,0.68 -0.08,1.24 0,0.16 0,0.36 0.04,0.2 0.08,0.24 1.36,-1.32 2.76,-2.04 1.4,-0.72 3.24,-0.72 2.08,0 3.48,1.56 1.44,1.52 1.44,4.16 v 8.8 q 0,0.8 0.44,1.08 0.48,0.24 1.08,0.44 0.32,0.12 0.56,0.32 0.24,0.16 0.24,0.48 0,0.28 -0.24,0.44 -0.2,0.12 -0.44,0.12 -0.8,0 -1.52,-0.08 -0.68,-0.04 -1.36,-0.08 -0.64,-0.04 -1.36,-0.04 -0.68,0 -1.36,0.04 -0.68,0.04 -1.36,0.08 -0.68,0.08 -1.48,0.08 -0.24,0 -0.48,-0.12 -0.2,-0.16 -0.2,-0.44 0,-0.32 0.24,-0.48 0.24,-0.2 0.56,-0.32 0.6,-0.2 1,-0.44 0.4,-0.28 0.4,-1.08 v -7.96 q 0,-1.52 -0.72,-2.36 -0.68,-0.88 -1.84,-0.92 -0.88,0 -1.56,0.28 -0.68,0.28 -1.4,0.76 -0.16,0.16 -0.24,0.36 -0.08,0.2 -0.08,0.4 v 9.44 q 0,0.8 0.44,1.08 0.44,0.24 1,0.44 0.8,0.24 0.8,0.8 0,0.24 -0.2,0.4 -0.2,0.16 -0.48,0.16 -0.8,0 -1.48,-0.08 -0.68,-0.04 -1.28,-0.08 -0.6,-0.04 -1.32,-0.04 -0.68,0 -1.4,0.04 -0.68,0.04 -1.44,0.08 -0.72,0.08 -1.52,0.08 z"
       style="font-style:normal;font-variant:normal;font-weight:bold;font-stretch:normal;font-family:'EB Garamond';-inkscape-font-specification:'EB Garamond Bold';text-align:center;text-anchor:middle;fill:#ffffff"
       id="path1330" />
    <path
       d="m 679.06563,246.69543 q -1.32,0 -2.56,-0.32 -1.24,-0.32 -2.24,-1.04 -0.36,-0.6 -0.52,-1.88 -0.16,-1.28 -0.12,-2.68 0,-0.48 0.8,-0.48 0.32,0 0.56,0.2 0.24,0.2 0.28,0.4 0.76,1.68 1.76,2.88 1,1.16 2.4,1.16 1.08,0 1.64,-0.64 0.56,-0.68 0.56,-1.52 0,-1.04 -0.84,-1.72 -0.8,-0.72 -1.96,-1.32 -1.16,-0.6 -2.2,-1.36 -1.04,-0.76 -1.72,-1.8 -0.64,-1.08 -0.64,-2.56 0,-1.56 0.84,-2.72 0.88,-1.16 2.32,-1.8 1.48,-0.68 3.28,-0.68 1.32,0 2.44,0.32 1.12,0.28 1.52,0.56 0.32,0.4 0.52,1.52 0.2,1.08 0.2,2.4 0,0.44 -0.72,0.44 -0.28,0 -0.6,-0.2 -0.28,-0.2 -0.36,-0.4 -0.52,-1.56 -1.36,-2.32 -0.8,-0.8 -1.8,-0.8 -0.88,0 -1.6,0.56 -0.72,0.56 -0.72,1.52 0,0.84 0.76,1.52 0.8,0.64 1.96,1.28 2.6,1.36 3.72,2.64 1.12,1.24 1.12,3.32 0,2.6 -1.72,4.08 -1.68,1.44 -5,1.44 z"
       style="font-style:normal;font-variant:normal;font-weight:bold;font-stretch:normal;font-family:'EB Garamond';-inkscape-font-specification:'EB Garamond Bold';text-align:center;text-anchor:middle;fill:#ffffff"
       id="path1332" />
    <path
       d="m 695.62558,246.69543 q -2.64,0 -3.96,-1.32 -1.32,-1.36 -1.32,-3.8 v -9.2 q 0,-0.36 -0.28,-0.52 -0.24,-0.16 -0.96,-0.2 h -0.52 q -0.28,0 -0.48,-0.44 -0.16,-0.48 -0.16,-0.84 0,-0.08 0.04,-0.2 0.08,-0.16 0.2,-0.2 0.96,-0.36 2.04,-1.08 1.12,-0.76 2.12,-1.6 1.04,-0.84 1.68,-1.4 0.28,-0.2 0.48,-0.36 0.2,-0.16 0.52,-0.16 0.36,0 0.52,0.16 0.16,0.12 0.08,0.64 l -0.24,2.36 q -0.04,0.48 0.2,0.68 0.28,0.16 0.76,0.16 h 4.76 q 0.12,0 0.24,0.28 0.12,0.28 0.12,0.52 0,0.56 -0.16,1.08 -0.16,0.52 -0.36,0.52 h -3.72 q -0.92,0 -1.28,0.24 -0.32,0.2 -0.32,0.76 v 7.56 q 0,1.84 0.68,2.76 0.72,0.88 1.88,0.88 1.16,0 1.68,-0.24 0.56,-0.24 1,-0.4 0.16,-0.08 0.24,-0.08 0.2,0 0.32,0.24 0.12,0.24 0.12,0.56 0,0.24 -0.84,0.88 -0.84,0.64 -2.2,1.2 -1.32,0.56 -2.88,0.56 z"
       style="font-style:normal;font-variant:normal;font-weight:bold;font-stretch:normal;font-family:'EB Garamond';-inkscape-font-specification:'EB Garamond Bold';text-align:center;text-anchor:middle;fill:#ffffff"
       id="path1334" />
    <path
       d="m 707.0255,246.69543 q -1.08,0 -2,-0.52 -0.92,-0.52 -1.48,-1.36 -0.52,-0.84 -0.52,-1.84 0,-1.36 0.84,-2.28 0.88,-0.92 2.56,-1.64 l 3.56,-1.56 q 0.8,-0.36 0.96,-0.64 0.2,-0.28 0.2,-1.04 l 0.04,-2.28 q 0.04,-1.12 -0.4,-1.76 -0.44,-0.68 -1.32,-0.68 -0.52,0 -1.04,0.24 -0.52,0.2 -0.8,0.48 -0.12,0.16 -0.2,0.4 -0.04,0.2 -0.04,0.44 0,0.24 0.04,0.6 0.04,0.32 0.04,0.56 0,0.24 -0.64,0.64 -0.64,0.36 -1.48,0.68 -0.84,0.28 -1.44,0.28 -0.28,0 -0.52,-0.24 -0.2,-0.24 -0.2,-0.6 0,-0.64 0.44,-1.24 0.44,-0.64 1.44,-1.44 1.04,-0.88 2.28,-1.56 1.24,-0.68 2.44,-1.08 1.24,-0.4 2.08,-0.4 2.16,0 3.44,1.4 1.28,1.36 1.2,3.64 l -0.2,8.08 q -0.04,0.92 0.32,1.56 0.36,0.64 0.88,0.64 0.76,0 1.32,-0.52 0.12,-0.12 0.24,-0.12 0.2,0 0.32,0.12 0.16,0.12 0.16,0.32 0,0.48 -0.72,1.24 -0.76,0.72 -1.6,1.08 -0.84,0.4 -1.76,0.4 -2.24,0 -3.72,-2.28 h -0.08 q -1.32,1.2 -2.4,1.72 -1.04,0.56 -2.24,0.56 z m 2.4,-2.6 q 0.44,0 0.72,-0.12 0.28,-0.16 0.56,-0.48 0.12,-0.16 0.2,-0.4 0.08,-0.28 0.08,-0.64 l 0.12,-2.88 q 0,-0.4 -0.12,-0.52 -0.12,-0.12 -0.28,-0.12 -0.08,0 -0.2,0.04 -0.12,0.04 -0.28,0.12 -1.16,0.56 -1.72,1.16 -0.56,0.56 -0.56,1.84 0,1.16 0.48,1.6 0.48,0.4 1,0.4 z"
       style="font-style:normal;font-variant:normal;font-weight:bold;font-stretch:normal;font-family:'EB Garamond';-inkscape-font-specification:'EB Garamond Bold';text-align:center;text-anchor:middle;fill:#ffffff"
       id="path1336" />
    <path
       d="m 720.82549,246.25543 q -0.36,0 -0.6,-0.12 -0.2,-0.16 -0.2,-0.44 0,-0.32 0.24,-0.48 0.24,-0.2 0.68,-0.32 0.6,-0.2 1.04,-0.44 0.48,-0.24 0.48,-1.08 v -19.24 q 0,-1.08 -0.32,-1.88 -0.28,-0.8 -1.28,-1 -0.4,-0.08 -0.4,-0.6 0,-0.52 0.36,-0.6 1.04,-0.2 2.24,-0.56 1.2,-0.4 2.28,-0.8 1.08,-0.44 1.68,-0.64 0.32,-0.12 0.52,-0.12 0.24,0 0.32,0.16 0.08,0.12 0.08,0.32 0,0.28 -0.12,1.04 -0.08,0.76 -0.12,1.72 v 22.12 q 0,0.88 0.44,1.12 0.48,0.2 1.08,0.4 0.44,0.16 0.68,0.32 0.24,0.16 0.24,0.48 0,0.28 -0.24,0.44 -0.2,0.12 -0.56,0.12 -0.76,0 -1.52,-0.04 -0.72,-0.04 -1.44,-0.04 -0.68,-0.04 -1.4,-0.04 -0.68,0 -1.36,0.04 -0.64,0.04 -1.32,0.08 -0.68,0.08 -1.48,0.08 z"
       style="font-style:normal;font-variant:normal;font-weight:bold;font-stretch:normal;font-family:'EB Garamond';-inkscape-font-specification:'EB Garamond Bold';text-align:center;text-anchor:middle;fill:#ffffff"
       id="path1338" />
    <path
       d="m 732.22548,246.25543 q -0.36,0 -0.6,-0.12 -0.2,-0.16 -0.2,-0.44 0,-0.32 0.24,-0.48 0.24,-0.2 0.68,-0.32 0.6,-0.2 1.04,-0.44 0.48,-0.24 0.48,-1.08 v -19.24 q 0,-1.08 -0.32,-1.88 -0.28,-0.8 -1.28,-1 -0.4,-0.08 -0.4,-0.6 0,-0.52 0.36,-0.6 1.04,-0.2 2.24,-0.56 1.2,-0.4 2.28,-0.8 1.08,-0.44 1.68,-0.64 0.32,-0.12 0.52,-0.12 0.24,0 0.32,0.16 0.08,0.12 0.08,0.32 0,0.28 -0.12,1.04 -0.08,0.76 -0.12,1.72 v 22.12 q 0,0.88 0.44,1.12 0.48,0.2 1.08,0.4 0.44,0.16 0.68,0.32 0.24,0.16 0.24,0.48 0,0.28 -0.24,0.44 -0.2,0.12 -0.56,0.12 -0.76,0 -1.52,-0.04 -0.72,-0.04 -1.44,-0.04 -0.68,-0.04 -1.4,-0.04 -0.68,0 -1.36,0.04 -0.64,0.04 -1.32,0.08 -0.68,0.08 -1.48,0.08 z"
       style="font-style:normal;font-variant:normal;font-weight:bold;font-stretch:normal;font-family:'EB Garamond';-inkscape-font-specification:'EB Garamond Bold';text-align:center;text-anchor:middle;fill:#ffffff"
       id="path1340" />
    <path
       d="m 625.58571,297.17071 q -1.72,0 -3.32,-0.4 -1.6,-0.4 -3,-1.28 -0.24,-0.2 -0.48,-0.44 -0.24,-0.24 -0.36,-0.52 -0.4,-1.08 -0.56,-2.64 -0.12,-1.56 -0.08,-3.16 0,-0.28 0.24,-0.4 0.24,-0.12 0.56,-0.12 0.4,0 0.52,0.12 0.16,0.08 0.32,0.36 0.88,3 2.6,4.84 1.76,1.84 4.08,1.84 1.28,0 2.08,-0.56 0.84,-0.6 1.28,-1.48 0.44,-0.92 0.44,-1.84 0,-1.28 -0.52,-2.16 -0.48,-0.88 -1.48,-1.6 -1,-0.72 -2.56,-1.56 -1.68,-0.96 -3.24,-2 -1.56,-1.08 -2.56,-2.6 -1,-1.52 -1,-3.8 0,-2.36 1.2,-4.08 1.24,-1.72 3.36,-2.68 2.12,-0.96 4.76,-0.96 1.52,0 2.88,0.32 1.4,0.32 2.24,0.64 0.48,0.2 0.68,0.44 0.24,0.24 0.4,0.84 0.2,0.84 0.32,2.04 0.16,1.2 0.16,2.64 0,0.52 -0.72,0.52 -0.36,0 -0.68,-0.16 -0.28,-0.2 -0.36,-0.48 -0.68,-2.4 -2,-3.64 -1.32,-1.24 -3.24,-1.24 -1.2,0 -2.04,0.4 -0.84,0.4 -1.28,1.2 -0.4,0.8 -0.4,2 0,0.96 0.64,1.8 0.68,0.8 1.92,1.64 1.24,0.84 2.84,1.8 2.16,1.28 3.44,2.52 1.28,1.24 1.84,2.64 0.6,1.36 0.6,3.16 0,2.72 -1.2,4.52 -1.16,1.8 -3.32,2.68 -2.12,0.84 -5,0.84 z"
       style="font-style:normal;font-variant:normal;font-weight:bold;font-stretch:normal;font-family:'EB Garamond';-inkscape-font-specification:'EB Garamond Bold';text-align:center;text-anchor:middle;fill:#ffffff"
       id="path1342" />
    <path
       d="m 638.02569,296.73071 q -0.8,0 -0.8,-0.56 0,-0.32 0.24,-0.48 0.24,-0.2 0.68,-0.32 0.6,-0.2 1.04,-0.44 0.48,-0.24 0.48,-1.12 v -19.2 q 0,-1.12 -0.28,-1.88 -0.28,-0.8 -1.28,-1 -0.44,-0.08 -0.44,-0.6 0,-0.52 0.4,-0.6 1,-0.2 2.16,-0.56 1.2,-0.4 2.28,-0.8 1.08,-0.44 1.68,-0.64 0.32,-0.12 0.52,-0.12 0.24,0 0.32,0.16 0.08,0.12 0.08,0.32 0,0.32 -0.12,1.08 -0.08,0.76 -0.12,1.68 l 0.04,14.96 q 0,0.48 0.36,0.48 0.12,0 0.28,-0.08 0.2,-0.12 0.36,-0.24 1.48,-1.28 2.64,-2.6 1.16,-1.32 1.56,-1.92 0.16,-0.24 0.24,-0.4 0.12,-0.16 0.12,-0.28 0,-0.2 -0.32,-0.4 -0.32,-0.24 -0.96,-0.32 -0.48,-0.08 -0.48,-0.44 0,-0.36 0.28,-0.44 0.32,-0.12 0.6,-0.12 h 1.96 q 0.72,0 1.88,-0.04 1.16,-0.08 2.28,-0.2 1.12,-0.12 1.6,-0.12 0.44,0 0.44,0.44 0,0.32 -0.24,0.56 -0.24,0.2 -0.68,0.28 -0.68,0.16 -1.6,0.56 -0.92,0.4 -1.84,0.92 -0.68,0.36 -1.48,0.92 -0.76,0.52 -1.52,1.12 -0.72,0.6 -1.32,1.16 -0.2,0.2 -0.2,0.44 0,0.12 0.08,0.24 0.08,0.08 0.16,0.2 0.96,1.24 1.84,2.44 0.88,1.2 1.76,2.32 0.88,1.08 1.8,2.16 0.68,0.72 1.64,1.32 0.96,0.6 1.6,0.84 0.32,0.12 0.68,0.28 0.4,0.16 0.4,0.48 0,0.56 -0.88,0.56 -2.4,0 -4.72,-0.08 -2.28,-0.04 -4.28,-0.04 -0.8,0 -0.8,-0.56 0,-0.32 0.24,-0.48 0.24,-0.16 0.64,-0.32 0.36,-0.12 0.48,-0.28 0.16,-0.16 0.2,-0.36 0,-0.16 -0.16,-0.36 -0.12,-0.24 -0.32,-0.52 l -3.88,-5.36 q -0.12,-0.08 -0.2,-0.08 -0.24,0.04 -0.24,0.28 0,0.6 0,1.24 0,0.64 0,1.24 0,0.64 0,1.4 0,0.72 0,1.4 0,0.68 0.28,1 0.32,0.28 0.92,0.48 0.32,0.12 0.56,0.32 0.28,0.16 0.28,0.48 0,0.28 -0.24,0.44 -0.2,0.16 -0.48,0.16 -0.8,0 -1.48,-0.08 -0.64,-0.04 -1.24,-0.08 -0.6,-0.04 -1.32,-0.04 -0.68,0 -1.36,0.04 -0.64,0.04 -1.32,0.08 -0.68,0.08 -1.48,0.08 z"
       style="font-style:normal;font-variant:normal;font-weight:bold;font-stretch:normal;font-family:'EB Garamond';-inkscape-font-specification:'EB Garamond Bold';text-align:center;text-anchor:middle;fill:#ffffff"
       id="path1344" />
    <path
       d="m 661.82567,307.93071 q -1.04,0 -2,-0.72 -0.96,-0.72 -0.96,-1.8 0,-0.76 0.4,-1.52 0.4,-0.72 1.24,-0.72 0.64,0 1.28,0.2 0.68,0.24 1.28,0.2 0.6,-0.08 0.84,-0.32 0.24,-0.2 0.56,-0.8 0.28,-0.48 0.52,-0.96 0.28,-0.44 0.6,-1.16 0.36,-0.68 0.88,-1.8 0.48,-1.08 0.48,-1.92 0,-0.6 -0.2,-1.08 -0.16,-0.52 -0.36,-1 l -4.92,-11.16 q -0.36,-0.92 -0.8,-1.52 -0.44,-0.6 -1.2,-0.84 -0.36,-0.16 -0.56,-0.32 -0.2,-0.2 -0.2,-0.56 0,-0.28 0.36,-0.36 0.36,-0.08 0.64,-0.08 0.96,0 1.6,0.04 0.68,0.04 1.2,0.08 0.52,0.04 1.04,0.04 0.88,0 1.48,-0.04 0.6,-0.04 1.28,-0.08 0.68,-0.04 1.6,-0.04 0.28,0 0.6,0.12 0.32,0.12 0.32,0.4 0,0.36 -0.32,0.52 -0.28,0.12 -0.6,0.28 -0.44,0.16 -0.68,0.48 -0.24,0.32 -0.24,1.04 0,0.32 0.08,0.76 0.12,0.44 0.36,1.08 l 2.48,6.04 q 0.04,0.12 0.12,0.12 0.04,0 0.12,-0.12 l 2.04,-6.12 q 0.12,-0.32 0.2,-0.76 0.12,-0.48 0.12,-0.84 0,-0.68 -0.4,-1.08 -0.4,-0.44 -0.84,-0.6 -0.32,-0.12 -0.64,-0.28 -0.28,-0.16 -0.28,-0.52 0,-0.28 0.32,-0.4 0.32,-0.12 0.6,-0.12 1.08,0.04 1.68,0.12 0.6,0.04 1.24,0.04 0.4,0 0.72,0 0.36,-0.04 0.84,-0.08 0.48,-0.04 1.16,-0.08 0.28,0 0.6,0.08 0.36,0.08 0.36,0.36 0,0.36 -0.2,0.56 -0.16,0.16 -0.52,0.32 -0.76,0.24 -1.36,0.92 -0.6,0.64 -1,1.56 l -5.96,14.32 q -0.32,0.8 -0.72,1.72 -0.4,0.96 -0.84,1.96 -0.4,1 -0.84,2.04 -0.44,1.04 -0.88,2.04 -0.48,1.16 -1.48,1.76 -1,0.6 -2.24,0.6 z"
       style="font-style:normal;font-variant:normal;font-weight:bold;font-stretch:normal;font-family:'EB Garamond';-inkscape-font-specification:'EB Garamond Bold';text-align:center;text-anchor:middle;fill:#ffffff"
       id="path1346" />
    <path
       d="m 679.10563,307.09071 q -0.28,0 -0.56,-0.16 -0.24,-0.12 -0.24,-0.4 0,-0.32 0.24,-0.52 0.28,-0.16 0.68,-0.28 0.84,-0.28 1.16,-0.6 0.36,-0.28 0.36,-0.92 v -19.16 q 0,-0.52 -0.2,-1 -0.2,-0.48 -0.56,-0.84 -0.36,-0.4 -0.92,-0.48 -0.24,-0.08 -0.36,-0.2 -0.12,-0.16 -0.12,-0.52 0,-0.32 0.12,-0.48 0.12,-0.16 0.32,-0.2 1.4,-0.32 3,-0.84 1.6,-0.52 2.76,-1.08 0.16,-0.08 0.32,-0.16 0.2,-0.12 0.36,-0.12 0.24,0 0.28,0.16 0.08,0.12 0.08,0.32 0,0.32 -0.12,1.08 -0.08,0.72 -0.08,1.24 0,0.4 0.08,0.48 0.4,-0.4 1.4,-1.08 1.04,-0.68 2.36,-1.2 1.32,-0.52 2.56,-0.52 2.16,0 3.64,1.16 1.52,1.12 2.32,2.92 0.8,1.76 0.8,3.72 0,1.88 -0.72,3.64 -0.68,1.76 -1.96,3.2 -1.28,1.4 -2.96,2.24 -1.68,0.84 -3.6,0.84 -0.44,0 -1.08,-0.12 -0.6,-0.12 -1.24,-0.32 -0.6,-0.2 -1.12,-0.4 -0.04,0 -0.08,0.12 -0.04,0.12 -0.08,0.28 0,0.16 0,0.32 v 6.64 q 0,0.52 0.24,0.88 0.28,0.36 0.76,0.56 0.48,0.24 1.16,0.44 0.4,0.12 0.64,0.28 0.24,0.2 0.24,0.52 0,0.24 -0.24,0.4 -0.2,0.16 -0.44,0.16 -1.2,0 -2.52,-0.12 -1.28,-0.08 -2.32,-0.08 -0.68,0 -1.4,0.04 -0.68,0.04 -1.44,0.08 -0.72,0.08 -1.52,0.08 z m 10.32,-11.6 q 0.44,0 1.04,-0.32 0.64,-0.36 1.24,-1.12 0.64,-0.76 1.04,-2.04 0.44,-1.28 0.44,-3.16 0,-2.2 -0.44,-3.48 -0.44,-1.32 -1.08,-1.96 -0.64,-0.64 -1.32,-0.84 -0.64,-0.24 -1.12,-0.24 -0.72,0 -1.48,0.32 -0.76,0.32 -1.24,0.76 -0.48,0.44 -0.48,0.8 0,0.32 0,1.24 0,0.92 -0.04,2.04 0,1.12 -0.04,2.04 0,0.92 0,1.28 0,0.92 0.4,2.04 0.44,1.08 1.2,1.88 0.8,0.76 1.88,0.76 z"
       style="font-style:normal;font-variant:normal;font-weight:bold;font-stretch:normal;font-family:'EB Garamond';-inkscape-font-specification:'EB Garamond Bold';text-align:center;text-anchor:middle;fill:#ffffff"
       id="path1348" />
    <path
       d="m 708.14558,297.17071 q -2.16,0 -3.88,-1.12 -1.68,-1.16 -2.68,-3.12 -0.96,-2 -0.96,-4.52 0,-2.52 1.16,-4.56 1.16,-2.08 3.16,-3.28 2,-1.24 4.4,-1.24 1.72,0 3.08,0.76 1.36,0.72 2.16,1.96 0.84,1.24 0.84,2.8 0,1.52 -1.24,1.52 h -8 q -0.56,0 -0.84,0.32 -0.24,0.32 -0.24,1.08 0,1.52 0.68,2.8 0.68,1.24 1.84,1.96 1.16,0.72 2.68,0.72 1.16,0 2.12,-0.44 1,-0.44 1.96,-1.2 0.16,-0.12 0.28,-0.2 0.16,-0.12 0.28,-0.12 0.4,0 0.4,0.52 0,0.44 -0.32,1.2 -0.4,1 -1.36,2 -0.92,0.96 -2.32,1.56 -1.4,0.6 -3.2,0.6 z m -1.96,-12.48 h 2.4 q 1.12,0 1.56,-0.04 0.44,-0.04 0.8,-0.16 0.2,-0.08 0.32,-0.4 0.12,-0.32 0.12,-0.72 0,-1.08 -0.76,-1.76 -0.72,-0.68 -1.8,-0.68 -0.84,0 -1.6,0.48 -0.72,0.44 -1.2,1.2 -0.44,0.72 -0.4,1.52 0,0.56 0.56,0.56 z"
       style="font-style:normal;font-variant:normal;font-weight:bold;font-stretch:normal;font-family:'EB Garamond';-inkscape-font-specification:'EB Garamond Bold';text-align:center;text-anchor:middle;fill:#ffffff"
       id="path1350" />
    <path
       d="m 727.66553,296.73071 q -0.24,0 -0.44,-0.12 -0.2,-0.16 -0.2,-0.4 0,-0.32 0.2,-0.52 0.2,-0.2 0.52,-0.28 1.04,-0.24 1.44,-0.52 0.44,-0.32 0.44,-0.96 v -8.64 q 0,-1.36 -0.44,-1.92 -0.4,-0.6 -1.28,-0.72 -0.24,-0.04 -0.36,-0.24 -0.12,-0.2 -0.12,-0.48 0,-0.6 0.44,-0.68 2.08,-0.4 3.68,-1.12 1.64,-0.72 2.52,-1.12 0.64,-0.32 0.8,-0.32 0.52,0 0.52,0.48 -0.04,0.68 -0.2,1.72 -0.12,1 -0.24,2.08 -0.08,1.08 -0.08,2.08 v 8.84 q 0,0.56 0.4,0.88 0.44,0.32 1.52,0.64 0.32,0.12 0.52,0.28 0.2,0.16 0.2,0.48 0,0.52 -0.6,0.52 -0.76,0 -1.6,-0.04 -0.84,-0.04 -1.64,-0.08 -0.76,-0.04 -1.48,-0.04 -0.68,0 -1.44,0.04 -0.72,0.04 -1.52,0.08 -0.76,0.08 -1.56,0.08 z m 4.4,-19.84 q -1.24,0 -2.2,-0.92 -0.92,-0.92 -0.92,-2.2 0,-1.36 0.92,-2.28 0.96,-0.92 2.2,-0.92 1.4,0 2.32,0.92 0.92,0.92 0.92,2.28 0,1.28 -0.92,2.2 -0.92,0.92 -2.32,0.92 z"
       style="font-style:normal;font-variant:normal;font-weight:bold;font-stretch:normal;font-family:'EB Garamond';-inkscape-font-specification:'EB Garamond Bold';text-align:center;text-anchor:middle;fill:#ffffff"
       id="path1352" />
    <path
       d="m 739.62546,296.73071 q -0.28,0 -0.56,-0.12 -0.24,-0.16 -0.24,-0.44 0,-0.32 0.28,-0.48 0.28,-0.2 0.64,-0.32 0.6,-0.2 1.04,-0.44 0.48,-0.28 0.48,-1.08 v -9.16 q 0,-0.88 -0.28,-1.48 -0.24,-0.6 -0.96,-0.76 -0.16,-0.04 -0.32,-0.2 -0.12,-0.16 -0.12,-0.52 0,-0.56 0.4,-0.68 1.36,-0.32 2.96,-0.84 1.64,-0.56 2.8,-1.16 0.16,-0.08 0.36,-0.2 0.2,-0.12 0.36,-0.12 0.24,0 0.28,0.16 0.08,0.12 0.08,0.32 0,0.32 -0.12,1.04 -0.08,0.68 -0.08,1.24 0,0.16 0,0.36 0.04,0.2 0.08,0.24 1.36,-1.32 2.76,-2.04 1.4,-0.72 3.24,-0.72 2.08,0 3.48,1.56 1.44,1.52 1.44,4.16 v 8.8 q 0,0.8 0.44,1.08 0.48,0.24 1.08,0.44 0.32,0.12 0.56,0.32 0.24,0.16 0.24,0.48 0,0.28 -0.24,0.44 -0.2,0.12 -0.44,0.12 -0.8,0 -1.52,-0.08 -0.68,-0.04 -1.36,-0.08 -0.64,-0.04 -1.36,-0.04 -0.68,0 -1.36,0.04 -0.68,0.04 -1.36,0.08 -0.68,0.08 -1.48,0.08 -0.24,0 -0.48,-0.12 -0.2,-0.16 -0.2,-0.44 0,-0.32 0.24,-0.48 0.24,-0.2 0.56,-0.32 0.6,-0.2 1,-0.44 0.4,-0.28 0.4,-1.08 v -7.96 q 0,-1.52 -0.72,-2.36 -0.68,-0.88 -1.84,-0.92 -0.88,0 -1.56,0.28 -0.68,0.28 -1.4,0.76 -0.16,0.16 -0.24,0.36 -0.08,0.2 -0.08,0.4 v 9.44 q 0,0.8 0.44,1.08 0.44,0.24 1,0.44 0.8,0.24 0.8,0.8 0,0.24 -0.2,0.4 -0.2,0.16 -0.48,0.16 -0.8,0 -1.48,-0.08 -0.68,-0.04 -1.28,-0.08 -0.6,-0.04 -1.32,-0.04 -0.68,0 -1.4,0.04 -0.68,0.04 -1.44,0.08 -0.72,0.08 -1.52,0.08 z"
       style="font-style:normal;font-variant:normal;font-weight:bold;font-stretch:normal;font-family:'EB Garamond';-inkscape-font-specification:'EB Garamond Bold';text-align:center;text-anchor:middle;fill:#ffffff"
       id="path1354" />
    <path
       d="m 637.68573,347.64599 q -3.76,0 -6.28,-1.32 -2.52,-1.36 -3.8,-3.76 -1.24,-2.4 -1.24,-5.6 v -11.4 q 0,-1.12 -0.52,-2.04 -0.52,-0.92 -1.52,-1.16 -1.12,-0.32 -1.12,-0.88 0,-0.28 0.28,-0.44 0.32,-0.16 0.76,-0.16 1.28,0 2.64,0.12 1.36,0.08 2.56,0.08 1.12,0 2.68,-0.08 1.6,-0.08 2.72,-0.08 0.48,0 0.76,0.16 0.32,0.12 0.32,0.44 0,0.44 -0.6,0.64 -0.6,0.2 -1.28,0.52 -0.6,0.24 -1.04,1 -0.44,0.72 -0.44,2.08 v 10.48 q 0,2.72 0.88,4.48 0.88,1.76 2.32,2.6 1.48,0.84 3.28,0.84 3.64,0 5.4,-2.16 1.8,-2.16 1.8,-6.6 0,-1.04 0,-2.32 0.04,-1.32 0.04,-2.68 0,-1.4 -0.04,-2.64 -0.04,-1.8 -0.28,-2.8 -0.2,-1 -0.64,-1.56 -0.44,-0.56 -1.2,-0.92 -0.44,-0.24 -1.04,-0.4 -0.56,-0.2 -0.56,-0.56 0,-0.32 0.32,-0.44 0.32,-0.12 0.88,-0.12 1.44,0 2.16,0.04 0.76,0.04 1.68,0.04 0.76,0 1.24,-0.04 0.52,-0.04 1.04,-0.08 0.56,-0.04 1.32,-0.04 0.48,0 0.76,0.12 0.28,0.12 0.28,0.48 0,0.52 -1.08,0.84 -1.32,0.36 -1.88,1.24 -0.52,0.84 -0.6,2.28 -0.12,3.04 -0.16,5.6 -0.04,2.52 -0.04,5.16 -0.04,3.24 -1.48,5.76 -1.4,2.48 -3.84,3.88 -2.44,1.4 -5.44,1.4 z"
       style="font-style:normal;font-variant:normal;font-weight:bold;font-stretch:normal;font-family:'EB Garamond';-inkscape-font-specification:'EB Garamond Bold';text-align:center;text-anchor:middle;fill:#ffffff"
       id="path1356" />
    <path
       d="m 663.56569,347.64599 q -1.16,0 -2.16,-0.2 -0.96,-0.2 -1.76,-0.4 -0.6,-0.2 -1.12,-0.32 -0.48,-0.12 -0.8,-0.12 -0.4,0 -0.76,0.16 -0.36,0.12 -0.68,0.36 -0.36,0.28 -0.56,0.28 -0.36,0 -0.56,-0.16 -0.16,-0.16 -0.16,-0.36 0,-0.36 0.2,-1.4 0.24,-1.04 0.2,-2.6 l -0.16,-17.8 q 0,-1.04 -0.32,-1.84 -0.28,-0.84 -1.24,-1.04 -0.2,-0.04 -0.36,-0.2 -0.12,-0.16 -0.12,-0.44 0,-0.2 0.12,-0.36 0.12,-0.16 0.32,-0.2 0.88,-0.16 2.04,-0.52 1.16,-0.4 2.24,-0.8 1.12,-0.44 1.72,-0.64 0.4,-0.16 0.56,-0.16 0.24,0 0.32,0.16 0.12,0.12 0.12,0.32 0,0.24 -0.12,1 -0.08,0.76 -0.08,1.52 v 8.56 q 0,0.52 0.08,0.84 0.08,0.28 0.28,0.28 1.24,-0.84 2.56,-1.28 1.36,-0.48 2.56,-0.48 2.08,0 3.76,1.08 1.68,1.08 2.64,2.96 1,1.88 1,4.24 0,2.8 -1.24,5 -1.24,2.16 -3.44,3.36 -2.16,1.2 -5.08,1.2 z m 0.72,-1.68 q 1.08,0 1.84,-0.92 0.76,-0.96 1.16,-2.52 0.44,-1.56 0.44,-3.4 0,-1.6 -0.44,-3.24 -0.4,-1.64 -1.32,-2.72 -0.88,-1.12 -2.28,-1.12 -0.72,0 -1.68,0.24 -0.96,0.2 -1.56,0.68 v 8.52 q 0,1.28 0.52,2.32 0.56,1.04 1.44,1.6 0.88,0.56 1.88,0.56 z"
       style="font-style:normal;font-variant:normal;font-weight:bold;font-stretch:normal;font-family:'EB Garamond';-inkscape-font-specification:'EB Garamond Bold';text-align:center;text-anchor:middle;fill:#ffffff"
       id="path1358" />
    <path
       d="m 687.44565,347.92599 q -0.32,0 -0.32,-0.4 0,-0.48 0.08,-1.28 0.12,-0.8 0.12,-1.24 0,-0.16 -0.04,-0.28 0,-0.12 -0.04,-0.16 -1.08,1.32 -2.76,2.24 -1.68,0.88 -3.56,0.88 -1.24,0 -2.24,-0.72 -1,-0.76 -1.6,-2.04 -0.56,-1.28 -0.56,-2.88 v -7.48 q 0,-0.92 -0.36,-1.48 -0.32,-0.56 -1.24,-0.76 -0.24,-0.04 -0.44,-0.2 -0.16,-0.2 -0.16,-0.56 0,-0.28 0.16,-0.44 0.16,-0.2 0.44,-0.24 1.68,-0.08 3.04,-0.32 1.36,-0.28 2.76,-0.64 0.2,-0.04 0.4,-0.08 0.24,-0.08 0.44,-0.08 0.56,0 0.52,0.56 -0.16,0.92 -0.24,1.56 -0.08,0.6 -0.08,1.52 v 7.68 q 0,0.96 0.32,1.68 0.32,0.72 0.88,1.12 0.56,0.4 1.24,0.44 0.64,0 1.24,-0.16 0.64,-0.16 1.2,-0.72 0.24,-0.2 0.52,-0.8 0.28,-0.64 0.28,-1.68 v -6.44 q 0,-0.72 -0.28,-1.16 -0.28,-0.48 -0.76,-0.76 -0.48,-0.28 -1.12,-0.32 -0.44,-0.04 -0.72,-0.2 -0.24,-0.2 -0.24,-0.68 0,-0.4 0.28,-0.6 0.28,-0.2 0.68,-0.2 2.04,-0.12 3.24,-0.2 1.2,-0.12 1.96,-0.24 0.76,-0.12 1.52,-0.28 0.12,-0.04 0.28,-0.08 0.16,-0.04 0.24,-0.04 0.6,0 0.6,0.48 0,0.12 -0.04,0.28 -0.04,0.16 -0.12,0.32 -0.04,0.16 -0.12,0.72 -0.04,0.52 -0.12,1.12 -0.04,0.6 -0.04,0.96 v 9.28 q 0,0.92 0.2,1.24 0.24,0.28 0.52,0.28 0.2,0 0.6,0.04 0.4,0 0.52,0 0.36,0 0.56,0.2 0.2,0.2 0.2,0.52 0,0.36 -0.16,0.6 -0.12,0.2 -0.52,0.24 -1.92,0.16 -3.48,0.68 -1.52,0.48 -2.64,0.92 -0.24,0.08 -0.52,0.16 -0.28,0.12 -0.52,0.12 z"
       style="font-style:normal;font-variant:normal;font-weight:bold;font-stretch:normal;font-family:'EB Garamond';-inkscape-font-specification:'EB Garamond Bold';text-align:center;text-anchor:middle;fill:#ffffff"
       id="path1360" />
    <path
       d="m 697.2856,347.20599 q -0.28,0 -0.56,-0.12 -0.24,-0.16 -0.24,-0.44 0,-0.32 0.28,-0.48 0.28,-0.2 0.64,-0.32 0.6,-0.2 1.04,-0.44 0.48,-0.28 0.48,-1.08 v -9.16 q 0,-0.88 -0.28,-1.48 -0.24,-0.6 -0.96,-0.76 -0.16,-0.04 -0.32,-0.2 -0.12,-0.16 -0.12,-0.52 0,-0.56 0.4,-0.68 1.36,-0.32 2.96,-0.84 1.64,-0.56 2.8,-1.16 0.16,-0.08 0.36,-0.2 0.2,-0.12 0.36,-0.12 0.24,0 0.28,0.16 0.08,0.12 0.08,0.32 0,0.32 -0.12,1.04 -0.08,0.68 -0.08,1.24 0,0.16 0,0.36 0.04,0.2 0.08,0.24 1.36,-1.32 2.76,-2.04 1.4,-0.72 3.24,-0.72 2.08,0 3.48,1.56 1.44,1.52 1.44,4.16 v 8.8 q 0,0.8 0.44,1.08 0.48,0.24 1.08,0.44 0.32,0.12 0.56,0.32 0.24,0.16 0.24,0.48 0,0.28 -0.24,0.44 -0.2,0.12 -0.44,0.12 -0.8,0 -1.52,-0.08 -0.68,-0.04 -1.36,-0.08 -0.64,-0.04 -1.36,-0.04 -0.68,0 -1.36,0.04 -0.68,0.04 -1.36,0.08 -0.68,0.08 -1.48,0.08 -0.24,0 -0.48,-0.12 -0.2,-0.16 -0.2,-0.44 0,-0.32 0.24,-0.48 0.24,-0.2 0.56,-0.32 0.6,-0.2 1,-0.44 0.4,-0.28 0.4,-1.08 v -7.96 q 0,-1.52 -0.72,-2.36 -0.68,-0.88 -1.84,-0.92 -0.88,0 -1.56,0.28 -0.68,0.28 -1.4,0.76 -0.16,0.16 -0.24,0.36 -0.08,0.2 -0.08,0.4 v 9.44 q 0,0.8 0.44,1.08 0.44,0.24 1,0.44 0.8,0.24 0.8,0.8 0,0.24 -0.2,0.4 -0.2,0.16 -0.48,0.16 -0.8,0 -1.48,-0.08 -0.68,-0.04 -1.28,-0.08 -0.6,-0.04 -1.32,-0.04 -0.68,0 -1.4,0.04 -0.68,0.04 -1.44,0.08 -0.72,0.08 -1.52,0.08 z"
       style="font-style:normal;font-variant:normal;font-weight:bold;font-stretch:normal;font-family:'EB Garamond';-inkscape-font-specification:'EB Garamond Bold';text-align:center;text-anchor:middle;fill:#ffffff"
       id="path1362" />
    <path
       d="m 726.40557,347.64599 q -2.64,0 -3.96,-1.32 -1.32,-1.36 -1.32,-3.8 v -9.2 q 0,-0.36 -0.28,-0.52 -0.24,-0.16 -0.96,-0.2 h -0.52 q -0.28,0 -0.48,-0.44 -0.16,-0.48 -0.16,-0.84 0,-0.08 0.04,-0.2 0.08,-0.16 0.2,-0.2 0.96,-0.36 2.04,-1.08 1.12,-0.76 2.12,-1.6 1.04,-0.84 1.68,-1.4 0.28,-0.2 0.48,-0.36 0.2,-0.16 0.52,-0.16 0.36,0 0.52,0.16 0.16,0.12 0.08,0.64 l -0.24,2.36 q -0.04,0.48 0.2,0.68 0.28,0.16 0.76,0.16 h 4.76 q 0.12,0 0.24,0.28 0.12,0.28 0.12,0.52 0,0.56 -0.16,1.08 -0.16,0.52 -0.36,0.52 h -3.72 q -0.92,0 -1.28,0.24 -0.32,0.2 -0.32,0.76 v 7.56 q 0,1.84 0.68,2.76 0.72,0.88 1.88,0.88 1.16,0 1.68,-0.24 0.56,-0.24 1,-0.4 0.16,-0.08 0.24,-0.08 0.2,0 0.32,0.24 0.12,0.24 0.12,0.56 0,0.24 -0.84,0.88 -0.84,0.64 -2.2,1.2 -1.32,0.56 -2.88,0.56 z"
       style="font-style:normal;font-variant:normal;font-weight:bold;font-stretch:normal;font-family:'EB Garamond';-inkscape-font-specification:'EB Garamond Bold';text-align:center;text-anchor:middle;fill:#ffffff"
       id="path1364" />
    <path
       d="m 746.48549,347.92599 q -0.32,0 -0.32,-0.4 0,-0.48 0.08,-1.28 0.12,-0.8 0.12,-1.24 0,-0.16 -0.04,-0.28 0,-0.12 -0.04,-0.16 -1.08,1.32 -2.76,2.24 -1.68,0.88 -3.56,0.88 -1.24,0 -2.24,-0.72 -1,-0.76 -1.6,-2.04 -0.56,-1.28 -0.56,-2.88 v -7.48 q 0,-0.92 -0.36,-1.48 -0.32,-0.56 -1.24,-0.76 -0.24,-0.04 -0.44,-0.2 -0.16,-0.2 -0.16,-0.56 0,-0.28 0.16,-0.44 0.16,-0.2 0.44,-0.24 1.68,-0.08 3.04,-0.32 1.36,-0.28 2.76,-0.64 0.2,-0.04 0.4,-0.08 0.24,-0.08 0.44,-0.08 0.56,0 0.52,0.56 -0.16,0.92 -0.24,1.56 -0.08,0.6 -0.08,1.52 v 7.68 q 0,0.96 0.32,1.68 0.32,0.72 0.88,1.12 0.56,0.4 1.24,0.44 0.64,0 1.24,-0.16 0.64,-0.16 1.2,-0.72 0.24,-0.2 0.52,-0.8 0.28,-0.64 0.28,-1.68 v -6.44 q 0,-0.72 -0.28,-1.16 -0.28,-0.48 -0.76,-0.76 -0.48,-0.28 -1.12,-0.32 -0.44,-0.04 -0.72,-0.2 -0.24,-0.2 -0.24,-0.68 0,-0.4 0.28,-0.6 0.28,-0.2 0.68,-0.2 2.04,-0.12 3.24,-0.2 1.2,-0.12 1.96,-0.24 0.76,-0.12 1.52,-0.28 0.12,-0.04 0.28,-0.08 0.16,-0.04 0.24,-0.04 0.6,0 0.6,0.48 0,0.12 -0.04,0.28 -0.04,0.16 -0.12,0.32 -0.04,0.16 -0.12,0.72 -0.04,0.52 -0.12,1.12 -0.04,0.6 -0.04,0.96 v 9.28 q 0,0.92 0.2,1.24 0.24,0.28 0.52,0.28 0.2,0 0.6,0.04 0.4,0 0.52,0 0.36,0 0.56,0.2 0.2,0.2 0.2,0.52 0,0.36 -0.16,0.6 -0.12,0.2 -0.52,0.24 -1.92,0.16 -3.48,0.68 -1.52,0.48 -2.64,0.92 -0.24,0.08 -0.52,0.16 -0.28,0.12 -0.52,0.12 z"
       style="font-style:normal;font-variant:normal;font-weight:bold;font-stretch:normal;font-family:'EB Garamond';-inkscape-font-specification:'EB Garamond Bold';text-align:center;text-anchor:middle;fill:#ffffff"
       id="path1366" />
  </g>
</svg>
