<?xml version="1.0" encoding="UTF-8" standalone="no"?>
<svg
   xmlns:osb="http://www.openswatchbook.org/uri/2009/osb"
   xmlns:dc="http://purl.org/dc/elements/1.1/"
   xmlns:cc="http://creativecommons.org/ns#"
   xmlns:rdf="http://www.w3.org/1999/02/22-rdf-syntax-ns#"
   xmlns:svg="http://www.w3.org/2000/svg"
   xmlns="http://www.w3.org/2000/svg"
   xmlns:xlink="http://www.w3.org/1999/xlink"
   width="444.5mm"
   height="277.8125mm"
   viewBox="0 0 444.49999 277.8125"
   version="1.1"
   id="svg3357">
  <defs
     id="defs3351">
    <linearGradient
       id="linearGradient891">
      <stop
         style="stop-color:#f4b400;stop-opacity:1;"
         offset="0"
         id="stop887" />
      <stop
         id="stop895"
         offset="0"
         style="stop-color:#fbcf55;stop-opacity:1" />
      <stop
         style="stop-color:#ffcd46;stop-opacity:1"
         offset="1"
         id="stop889" />
    </linearGradient>
    <linearGradient
       id="linearGradient4115"
       osb:paint="solid">
      <stop
         style="stop-color:#000000;stop-opacity:1;"
         offset="0"
         id="stop4113" />
    </linearGradient>
    <linearGradient
       id="linearGradient6114">
      <stop
         style="stop-color:#6f7c91;stop-opacity:1;"
         offset="0"
         id="stop6110" />
      <stop
         style="stop-color:#162d50;stop-opacity:1"
         offset="1"
         id="stop6112" />
    </linearGradient>
    <radialGradient
       xlink:href="#linearGradient6114"
       id="radialGradient6126"
       cx="73.77433"
       cy="66.986313"
       fx="73.77433"
       fy="66.986313"
       r="31.67275"
       gradientTransform="matrix(3.0071285,0,0,1.83657,-125.12732,-58.151445)"
       gradientUnits="userSpaceOnUse" />
    <radialGradient
       xlink:href="#linearGradient891"
       id="radialGradient893"
       cx="107.17859"
       cy="63.801815"
       fx="107.17859"
       fy="63.801815"
       r="105.70104"
       gradientTransform="matrix(2.1026282,0,0,1.3141426,-3.106737,55.061563)"
       gradientUnits="userSpaceOnUse" />
    <linearGradient
       xlink:href="#linearGradient866"
       id="linearGradient868"
       x1="443.93756"
       y1="139.69971"
       x2="444.5"
       y2="138.90625"
       gradientUnits="userSpaceOnUse"
       gradientTransform="translate(1e-5)" />
    <linearGradient
       id="linearGradient866">
      <stop
         style="stop-color:#6e7078;stop-opacity:1;"
         offset="0"
         id="stop862" />
      <stop
         style="stop-color:#6e7078;stop-opacity:0;"
         offset="1"
         id="stop864" />
    </linearGradient>
    <linearGradient
       gradientUnits="userSpaceOnUse"
       y2="138.90625"
       x2="465.91299"
       y1="139.3998"
       x1="444.19131"
       id="linearGradient1019-7"
       xlink:href="#linearGradient866"
       gradientTransform="translate(-1.5e-4,4.6e-4)" />
  </defs>
  <metadata
     id="metadata3354">
    <rdf:RDF>
      <cc:Work
         rdf:about="">
        <dc:format>image/svg+xml</dc:format>
        <dc:type
           rdf:resource="http://purl.org/dc/dcmitype/StillImage" />
        <dc:title></dc:title>
      </cc:Work>
    </rdf:RDF>
  </metadata>
  <g
     id="flowRoot985"
     style="font-style:normal;font-weight:normal;font-size:40px;line-height:1.25;font-family:sans-serif;letter-spacing:0px;word-spacing:0px;fill:#000000;fill-opacity:1;stroke:none"
     transform="matrix(0.26458333,0,0,0.26458333,-225.91028,551.27894)" />
  <g
     id="flowRoot993"
     style="font-style:normal;font-weight:normal;font-size:40px;line-height:1.25;font-family:sans-serif;letter-spacing:0px;word-spacing:0px;fill:#000000;fill-opacity:1;stroke:none"
     transform="matrix(0.26458333,0,0,0.26458333,-225.91028,551.27894)" />
  <path
     style="opacity:1;fill:url(#linearGradient1019-7);fill-opacity:1;stroke:none;stroke-width:9.70262432;stroke-miterlimit:4;stroke-dasharray:none;paint-order:stroke markers fill"
     d="M 286.33187,0 H 0 V 277.8125 H 444.49999 V 132.71902 Z"
     id="path1098" />
  <g
     id="flowRoot1572"
     style="font-style:normal;font-weight:normal;font-size:40px;line-height:1.25;font-family:sans-serif;letter-spacing:0px;word-spacing:0px;fill:#ffffff;fill-opacity:1;stroke:none"
     transform="matrix(0.8467755,0,0,1.3963517,-365.43525,-334.79186)"
     aria-label="Install Synaptic  Package Manager in Ubuntu ">
    <path
       id="path1588"
       style="font-style:normal;font-variant:normal;font-weight:bold;font-stretch:normal;font-family:'EB Garamond';-inkscape-font-specification:'EB Garamond Bold';text-align:center;text-anchor:middle;fill:#ffffff"
       d="m 548.16727,302.29059 q -0.32,0 -0.56,-0.12 -0.24,-0.16 -0.24,-0.44 0,-0.64 0.84,-0.84 1.52,-0.32 2.12,-0.8 0.6,-0.52 0.6,-1.8 v -18.16 q 0,-1.28 -0.52,-1.8 -0.52,-0.56 -2.12,-0.92 -0.84,-0.2 -0.84,-0.84 0,-0.28 0.24,-0.44 0.24,-0.16 0.56,-0.16 0.92,0 1.92,0.04 1.04,0.04 2,0.12 1,0.04 1.84,0.04 0.8,0 1.8,-0.04 1.04,-0.04 2.08,-0.08 1.08,-0.04 1.96,-0.04 0.36,0 0.56,0.16 0.2,0.12 0.2,0.4 0,0.4 -0.24,0.56 -0.2,0.16 -0.64,0.28 -1.6,0.44 -2.12,1 -0.52,0.52 -0.52,1.76 v 18.08 q 0,1.16 0.56,1.72 0.6,0.52 2.16,0.92 0.4,0.12 0.6,0.28 0.24,0.16 0.24,0.52 0,0.28 -0.2,0.44 -0.16,0.16 -0.52,0.16 -0.88,0 -1.96,-0.08 -1.08,-0.04 -2.12,-0.08 -1.04,-0.04 -1.84,-0.04 -0.84,0 -1.84,0.04 -1,0.04 -2.04,0.08 -1.04,0.08 -1.96,0.08 z" />
    <path
       id="path1590"
       style="font-style:normal;font-variant:normal;font-weight:bold;font-stretch:normal;font-family:'EB Garamond';-inkscape-font-specification:'EB Garamond Bold';text-align:center;text-anchor:middle;fill:#ffffff"
       d="m 562.92721,302.29059 q -0.28,0 -0.56,-0.12 -0.24,-0.16 -0.24,-0.44 0,-0.32 0.28,-0.48 0.28,-0.2 0.64,-0.32 0.6,-0.2 1.04,-0.44 0.48,-0.28 0.48,-1.08 v -9.16 q 0,-0.88 -0.28,-1.48 -0.24,-0.6 -0.96,-0.76 -0.16,-0.04 -0.32,-0.2 -0.12,-0.16 -0.12,-0.52 0,-0.56 0.4,-0.68 1.36,-0.32 2.96,-0.84 1.64,-0.56 2.8,-1.16 0.16,-0.08 0.36,-0.2 0.2,-0.12 0.36,-0.12 0.24,0 0.28,0.16 0.08,0.12 0.08,0.32 0,0.32 -0.12,1.04 -0.08,0.68 -0.08,1.24 0,0.16 0,0.36 0.04,0.2 0.08,0.24 1.36,-1.32 2.76,-2.04 1.4,-0.72 3.24,-0.72 2.08,0 3.48,1.56 1.44,1.52 1.44,4.16 v 8.8 q 0,0.8 0.44,1.08 0.48,0.24 1.08,0.44 0.32,0.12 0.56,0.32 0.24,0.16 0.24,0.48 0,0.28 -0.24,0.44 -0.2,0.12 -0.44,0.12 -0.8,0 -1.52,-0.08 -0.68,-0.04 -1.36,-0.08 -0.64,-0.04 -1.36,-0.04 -0.68,0 -1.36,0.04 -0.68,0.04 -1.36,0.08 -0.68,0.08 -1.48,0.08 -0.24,0 -0.48,-0.12 -0.2,-0.16 -0.2,-0.44 0,-0.32 0.24,-0.48 0.24,-0.2 0.56,-0.32 0.6,-0.2 1,-0.44 0.4,-0.28 0.4,-1.08 v -7.96 q 0,-1.52 -0.72,-2.36 -0.68,-0.88 -1.84,-0.92 -0.88,0 -1.56,0.28 -0.68,0.28 -1.4,0.76 -0.16,0.16 -0.24,0.36 -0.08,0.2 -0.08,0.4 v 9.44 q 0,0.8 0.44,1.08 0.44,0.24 1,0.44 0.8,0.24 0.8,0.8 0,0.24 -0.2,0.4 -0.2,0.16 -0.48,0.16 -0.8,0 -1.48,-0.08 -0.68,-0.04 -1.28,-0.08 -0.6,-0.04 -1.32,-0.04 -0.68,0 -1.4,0.04 -0.68,0.04 -1.44,0.08 -0.72,0.08 -1.52,0.08 z" />
    <path
       id="path1592"
       style="font-style:normal;font-variant:normal;font-weight:bold;font-stretch:normal;font-family:'EB Garamond';-inkscape-font-specification:'EB Garamond Bold';text-align:center;text-anchor:middle;fill:#ffffff"
       d="m 590.52721,302.73059 q -1.32,0 -2.56,-0.32 -1.24,-0.32 -2.24,-1.04 -0.36,-0.6 -0.52,-1.88 -0.16,-1.28 -0.12,-2.68 0,-0.48 0.8,-0.48 0.32,0 0.56,0.2 0.24,0.2 0.28,0.4 0.76,1.68 1.76,2.88 1,1.16 2.4,1.16 1.08,0 1.64,-0.64 0.56,-0.68 0.56,-1.52 0,-1.04 -0.84,-1.72 -0.8,-0.72 -1.96,-1.32 -1.16,-0.6 -2.2,-1.36 -1.04,-0.76 -1.72,-1.8 -0.64,-1.08 -0.64,-2.56 0,-1.56 0.84,-2.72 0.88,-1.16 2.32,-1.8 1.48,-0.68 3.28,-0.68 1.32,0 2.44,0.32 1.12,0.28 1.52,0.56 0.32,0.4 0.52,1.52 0.2,1.08 0.2,2.4 0,0.44 -0.72,0.44 -0.28,0 -0.6,-0.2 -0.28,-0.2 -0.36,-0.4 -0.52,-1.56 -1.36,-2.32 -0.8,-0.8 -1.8,-0.8 -0.88,0 -1.6,0.56 -0.72,0.56 -0.72,1.52 0,0.84 0.76,1.52 0.8,0.64 1.96,1.28 2.6,1.36 3.72,2.64 1.12,1.24 1.12,3.32 0,2.6 -1.72,4.08 -1.68,1.44 -5,1.44 z" />
    <path
       id="path1594"
       style="font-style:normal;font-variant:normal;font-weight:bold;font-stretch:normal;font-family:'EB Garamond';-inkscape-font-specification:'EB Garamond Bold';text-align:center;text-anchor:middle;fill:#ffffff"
       d="m 607.08716,302.73059 q -2.64,0 -3.96,-1.32 -1.32,-1.36 -1.32,-3.8 v -9.2 q 0,-0.36 -0.28,-0.52 -0.24,-0.16 -0.96,-0.2 h -0.52 q -0.28,0 -0.48,-0.44 -0.16,-0.48 -0.16,-0.84 0,-0.08 0.04,-0.2 0.08,-0.16 0.2,-0.2 0.96,-0.36 2.04,-1.08 1.12,-0.76 2.12,-1.6 1.04,-0.84 1.68,-1.4 0.28,-0.2 0.48,-0.36 0.2,-0.16 0.52,-0.16 0.36,0 0.52,0.16 0.16,0.12 0.08,0.64 l -0.24,2.36 q -0.04,0.48 0.2,0.68 0.28,0.16 0.76,0.16 h 4.76 q 0.12,0 0.24,0.28 0.12,0.28 0.12,0.52 0,0.56 -0.16,1.08 -0.16,0.52 -0.36,0.52 h -3.72 q -0.92,0 -1.28,0.24 -0.32,0.2 -0.32,0.76 v 7.56 q 0,1.84 0.68,2.76 0.72,0.88 1.88,0.88 1.16,0 1.68,-0.24 0.56,-0.24 1,-0.4 0.16,-0.08 0.24,-0.08 0.2,0 0.32,0.24 0.12,0.24 0.12,0.56 0,0.24 -0.84,0.88 -0.84,0.64 -2.2,1.2 -1.32,0.56 -2.88,0.56 z" />
    <path
       id="path1596"
       style="font-style:normal;font-variant:normal;font-weight:bold;font-stretch:normal;font-family:'EB Garamond';-inkscape-font-specification:'EB Garamond Bold';text-align:center;text-anchor:middle;fill:#ffffff"
       d="m 618.48708,302.73059 q -1.08,0 -2,-0.52 -0.92,-0.52 -1.48,-1.36 -0.52,-0.84 -0.52,-1.84 0,-1.36 0.84,-2.28 0.88,-0.92 2.56,-1.64 l 3.56,-1.56 q 0.8,-0.36 0.96,-0.64 0.2,-0.28 0.2,-1.04 l 0.04,-2.28 q 0.04,-1.12 -0.4,-1.76 -0.44,-0.68 -1.32,-0.68 -0.52,0 -1.04,0.24 -0.52,0.2 -0.8,0.48 -0.12,0.16 -0.2,0.4 -0.04,0.2 -0.04,0.44 0,0.24 0.04,0.6 0.04,0.32 0.04,0.56 0,0.24 -0.64,0.64 -0.64,0.36 -1.48,0.68 -0.84,0.28 -1.44,0.28 -0.28,0 -0.52,-0.24 -0.2,-0.24 -0.2,-0.6 0,-0.64 0.44,-1.24 0.44,-0.64 1.44,-1.44 1.04,-0.88 2.28,-1.56 1.24,-0.68 2.44,-1.08 1.24,-0.4 2.08,-0.4 2.16,0 3.44,1.4 1.28,1.36 1.2,3.64 l -0.2,8.08 q -0.04,0.92 0.32,1.56 0.36,0.64 0.88,0.64 0.76,0 1.32,-0.52 0.12,-0.12 0.24,-0.12 0.2,0 0.32,0.12 0.16,0.12 0.16,0.32 0,0.48 -0.72,1.24 -0.76,0.72 -1.6,1.08 -0.84,0.4 -1.76,0.4 -2.24,0 -3.72,-2.28 h -0.08 q -1.32,1.2 -2.4,1.72 -1.04,0.56 -2.24,0.56 z m 2.4,-2.6 q 0.44,0 0.72,-0.12 0.28,-0.16 0.56,-0.48 0.12,-0.16 0.2,-0.4 0.08,-0.28 0.08,-0.64 l 0.12,-2.88 q 0,-0.4 -0.12,-0.52 -0.12,-0.12 -0.28,-0.12 -0.08,0 -0.2,0.04 -0.12,0.04 -0.28,0.12 -1.16,0.56 -1.72,1.16 -0.56,0.56 -0.56,1.84 0,1.16 0.48,1.6 0.48,0.4 1,0.4 z" />
    <path
       id="path1598"
       style="font-style:normal;font-variant:normal;font-weight:bold;font-stretch:normal;font-family:'EB Garamond';-inkscape-font-specification:'EB Garamond Bold';text-align:center;text-anchor:middle;fill:#ffffff"
       d="m 632.28707,302.29059 q -0.36,0 -0.6,-0.12 -0.2,-0.16 -0.2,-0.44 0,-0.32 0.24,-0.48 0.24,-0.2 0.68,-0.32 0.6,-0.2 1.04,-0.44 0.48,-0.24 0.48,-1.08 v -19.24 q 0,-1.08 -0.32,-1.88 -0.28,-0.8 -1.28,-1 -0.4,-0.08 -0.4,-0.6 0,-0.52 0.36,-0.6 1.04,-0.2 2.24,-0.56 1.2,-0.4 2.28,-0.8 1.08,-0.44 1.68,-0.64 0.32,-0.12 0.52,-0.12 0.24,0 0.32,0.16 0.08,0.12 0.08,0.32 0,0.28 -0.12,1.04 -0.08,0.76 -0.12,1.72 v 22.12 q 0,0.88 0.44,1.12 0.48,0.2 1.08,0.4 0.44,0.16 0.68,0.32 0.24,0.16 0.24,0.48 0,0.28 -0.24,0.44 -0.2,0.12 -0.56,0.12 -0.76,0 -1.52,-0.04 -0.72,-0.04 -1.44,-0.04 -0.68,-0.04 -1.4,-0.04 -0.68,0 -1.36,0.04 -0.64,0.04 -1.32,0.08 -0.68,0.08 -1.48,0.08 z" />
    <path
       id="path1600"
       style="font-style:normal;font-variant:normal;font-weight:bold;font-stretch:normal;font-family:'EB Garamond';-inkscape-font-specification:'EB Garamond Bold';text-align:center;text-anchor:middle;fill:#ffffff"
       d="m 643.68706,302.29059 q -0.36,0 -0.6,-0.12 -0.2,-0.16 -0.2,-0.44 0,-0.32 0.24,-0.48 0.24,-0.2 0.68,-0.32 0.6,-0.2 1.04,-0.44 0.48,-0.24 0.48,-1.08 v -19.24 q 0,-1.08 -0.32,-1.88 -0.28,-0.8 -1.28,-1 -0.4,-0.08 -0.4,-0.6 0,-0.52 0.36,-0.6 1.04,-0.2 2.24,-0.56 1.2,-0.4 2.28,-0.8 1.08,-0.44 1.68,-0.64 0.32,-0.12 0.52,-0.12 0.24,0 0.32,0.16 0.08,0.12 0.08,0.32 0,0.28 -0.12,1.04 -0.08,0.76 -0.12,1.72 v 22.12 q 0,0.88 0.44,1.12 0.48,0.2 1.08,0.4 0.44,0.16 0.68,0.32 0.24,0.16 0.24,0.48 0,0.28 -0.24,0.44 -0.2,0.12 -0.56,0.12 -0.76,0 -1.52,-0.04 -0.72,-0.04 -1.44,-0.04 -0.68,-0.04 -1.4,-0.04 -0.68,0 -1.36,0.04 -0.64,0.04 -1.32,0.08 -0.68,0.08 -1.48,0.08 z" />
    <path
       id="path1602"
       style="font-style:normal;font-variant:normal;font-weight:bold;font-stretch:normal;font-family:'EB Garamond';-inkscape-font-specification:'EB Garamond Bold';text-align:center;text-anchor:middle;fill:#ffffff"
       d="m 674.52704,302.73059 q -1.72,0 -3.32,-0.4 -1.6,-0.4 -3,-1.28 -0.24,-0.2 -0.48,-0.44 -0.24,-0.24 -0.36,-0.52 -0.4,-1.08 -0.56,-2.64 -0.12,-1.56 -0.08,-3.16 0,-0.28 0.24,-0.4 0.24,-0.12 0.56,-0.12 0.4,0 0.52,0.12 0.16,0.08 0.32,0.36 0.88,3 2.6,4.84 1.76,1.84 4.08,1.84 1.28,0 2.08,-0.56 0.84,-0.6 1.28,-1.48 0.44,-0.92 0.44,-1.84 0,-1.28 -0.52,-2.16 -0.48,-0.88 -1.48,-1.6 -1,-0.72 -2.56,-1.56 -1.68,-0.96 -3.24,-2 -1.56,-1.08 -2.56,-2.6 -1,-1.52 -1,-3.8 0,-2.36 1.2,-4.08 1.24,-1.72 3.36,-2.68 2.12,-0.96 4.76,-0.96 1.52,0 2.88,0.32 1.4,0.32 2.24,0.64 0.48,0.2 0.68,0.44 0.24,0.24 0.4,0.84 0.2,0.84 0.32,2.04 0.16,1.2 0.16,2.64 0,0.52 -0.72,0.52 -0.36,0 -0.68,-0.16 -0.28,-0.2 -0.36,-0.48 -0.68,-2.4 -2,-3.64 -1.32,-1.24 -3.24,-1.24 -1.2,0 -2.04,0.4 -0.84,0.4 -1.28,1.2 -0.4,0.8 -0.4,2 0,0.96 0.64,1.8 0.68,0.8 1.92,1.64 1.24,0.84 2.84,1.8 2.16,1.28 3.44,2.52 1.28,1.24 1.84,2.64 0.6,1.36 0.6,3.16 0,2.72 -1.2,4.52 -1.16,1.8 -3.32,2.68 -2.12,0.84 -5,0.84 z" />
    <path
       id="path1604"
       style="font-style:normal;font-variant:normal;font-weight:bold;font-stretch:normal;font-family:'EB Garamond';-inkscape-font-specification:'EB Garamond Bold';text-align:center;text-anchor:middle;fill:#ffffff"
       d="m 688.92702,313.49059 q -1.04,0 -2,-0.72 -0.96,-0.72 -0.96,-1.8 0,-0.76 0.4,-1.52 0.4,-0.72 1.24,-0.72 0.64,0 1.28,0.2 0.68,0.24 1.28,0.2 0.6,-0.08 0.84,-0.32 0.24,-0.2 0.56,-0.8 0.28,-0.48 0.52,-0.96 0.28,-0.44 0.6,-1.16 0.36,-0.68 0.88,-1.8 0.48,-1.08 0.48,-1.92 0,-0.6 -0.2,-1.08 -0.16,-0.52 -0.36,-1 l -4.92,-11.16 q -0.36,-0.92 -0.8,-1.52 -0.44,-0.6 -1.2,-0.84 -0.36,-0.16 -0.56,-0.32 -0.2,-0.2 -0.2,-0.56 0,-0.28 0.36,-0.36 0.36,-0.08 0.64,-0.08 0.96,0 1.6,0.04 0.68,0.04 1.2,0.08 0.52,0.04 1.04,0.04 0.88,0 1.48,-0.04 0.6,-0.04 1.28,-0.08 0.68,-0.04 1.6,-0.04 0.28,0 0.6,0.12 0.32,0.12 0.32,0.4 0,0.36 -0.32,0.52 -0.28,0.12 -0.6,0.28 -0.44,0.16 -0.68,0.48 -0.24,0.32 -0.24,1.04 0,0.32 0.08,0.76 0.12,0.44 0.36,1.08 l 2.48,6.04 q 0.04,0.12 0.12,0.12 0.04,0 0.12,-0.12 l 2.04,-6.12 q 0.12,-0.32 0.2,-0.76 0.12,-0.48 0.12,-0.84 0,-0.68 -0.4,-1.08 -0.4,-0.44 -0.84,-0.6 -0.32,-0.12 -0.64,-0.28 -0.28,-0.16 -0.28,-0.52 0,-0.28 0.32,-0.4 0.32,-0.12 0.6,-0.12 1.08,0.04 1.68,0.12 0.6,0.04 1.24,0.04 0.4,0 0.72,0 0.36,-0.04 0.84,-0.08 0.48,-0.04 1.16,-0.08 0.28,0 0.6,0.08 0.36,0.08 0.36,0.36 0,0.36 -0.2,0.56 -0.16,0.16 -0.52,0.32 -0.76,0.24 -1.36,0.92 -0.6,0.64 -1,1.56 l -5.96,14.32 q -0.32,0.8 -0.72,1.72 -0.4,0.96 -0.84,1.96 -0.4,1 -0.84,2.04 -0.44,1.04 -0.88,2.04 -0.48,1.16 -1.48,1.76 -1,0.6 -2.24,0.6 z" />
    <path
       id="path1606"
       style="font-style:normal;font-variant:normal;font-weight:bold;font-stretch:normal;font-family:'EB Garamond';-inkscape-font-specification:'EB Garamond Bold';text-align:center;text-anchor:middle;fill:#ffffff"
       d="m 706.40698,302.29059 q -0.28,0 -0.56,-0.12 -0.24,-0.16 -0.24,-0.44 0,-0.32 0.28,-0.48 0.28,-0.2 0.64,-0.32 0.6,-0.2 1.04,-0.44 0.48,-0.28 0.48,-1.08 v -9.16 q 0,-0.88 -0.28,-1.48 -0.24,-0.6 -0.96,-0.76 -0.16,-0.04 -0.32,-0.2 -0.12,-0.16 -0.12,-0.52 0,-0.56 0.4,-0.68 1.36,-0.32 2.96,-0.84 1.64,-0.56 2.8,-1.16 0.16,-0.08 0.36,-0.2 0.2,-0.12 0.36,-0.12 0.24,0 0.28,0.16 0.08,0.12 0.08,0.32 0,0.32 -0.12,1.04 -0.08,0.68 -0.08,1.24 0,0.16 0,0.36 0.04,0.2 0.08,0.24 1.36,-1.32 2.76,-2.04 1.4,-0.72 3.24,-0.72 2.08,0 3.48,1.56 1.44,1.52 1.44,4.16 v 8.8 q 0,0.8 0.44,1.08 0.48,0.24 1.08,0.44 0.32,0.12 0.56,0.32 0.24,0.16 0.24,0.48 0,0.28 -0.24,0.44 -0.2,0.12 -0.44,0.12 -0.8,0 -1.52,-0.08 -0.68,-0.04 -1.36,-0.08 -0.64,-0.04 -1.36,-0.04 -0.68,0 -1.36,0.04 -0.68,0.04 -1.36,0.08 -0.68,0.08 -1.48,0.08 -0.24,0 -0.48,-0.12 -0.2,-0.16 -0.2,-0.44 0,-0.32 0.24,-0.48 0.24,-0.2 0.56,-0.32 0.6,-0.2 1,-0.44 0.4,-0.28 0.4,-1.08 v -7.96 q 0,-1.52 -0.72,-2.36 -0.68,-0.88 -1.84,-0.92 -0.88,0 -1.56,0.28 -0.68,0.28 -1.4,0.76 -0.16,0.16 -0.24,0.36 -0.08,0.2 -0.08,0.4 v 9.44 q 0,0.8 0.44,1.08 0.44,0.24 1,0.44 0.8,0.24 0.8,0.8 0,0.24 -0.2,0.4 -0.2,0.16 -0.48,0.16 -0.8,0 -1.48,-0.08 -0.68,-0.04 -1.28,-0.08 -0.6,-0.04 -1.32,-0.04 -0.68,0 -1.4,0.04 -0.68,0.04 -1.44,0.08 -0.72,0.08 -1.52,0.08 z" />
    <path
       id="path1608"
       style="font-style:normal;font-variant:normal;font-weight:bold;font-stretch:normal;font-family:'EB Garamond';-inkscape-font-specification:'EB Garamond Bold';text-align:center;text-anchor:middle;fill:#ffffff"
       d="m 732.56697,302.73059 q -1.08,0 -2,-0.52 -0.92,-0.52 -1.48,-1.36 -0.52,-0.84 -0.52,-1.84 0,-1.36 0.84,-2.28 0.88,-0.92 2.56,-1.64 l 3.56,-1.56 q 0.8,-0.36 0.96,-0.64 0.2,-0.28 0.2,-1.04 l 0.04,-2.28 q 0.04,-1.12 -0.4,-1.76 -0.44,-0.68 -1.32,-0.68 -0.52,0 -1.04,0.24 -0.52,0.2 -0.8,0.48 -0.12,0.16 -0.2,0.4 -0.04,0.2 -0.04,0.44 0,0.24 0.04,0.6 0.04,0.32 0.04,0.56 0,0.24 -0.64,0.64 -0.64,0.36 -1.48,0.68 -0.84,0.28 -1.44,0.28 -0.28,0 -0.52,-0.24 -0.2,-0.24 -0.2,-0.6 0,-0.64 0.44,-1.24 0.44,-0.64 1.44,-1.44 1.04,-0.88 2.28,-1.56 1.24,-0.68 2.44,-1.08 1.24,-0.4 2.08,-0.4 2.16,0 3.44,1.4 1.28,1.36 1.2,3.64 l -0.2,8.08 q -0.04,0.92 0.32,1.56 0.36,0.64 0.88,0.64 0.76,0 1.32,-0.52 0.12,-0.12 0.24,-0.12 0.2,0 0.32,0.12 0.16,0.12 0.16,0.32 0,0.48 -0.72,1.24 -0.76,0.72 -1.6,1.08 -0.84,0.4 -1.76,0.4 -2.24,0 -3.72,-2.28 h -0.08 q -1.32,1.2 -2.4,1.72 -1.04,0.56 -2.24,0.56 z m 2.4,-2.6 q 0.44,0 0.72,-0.12 0.28,-0.16 0.56,-0.48 0.12,-0.16 0.2,-0.4 0.08,-0.28 0.08,-0.64 l 0.12,-2.88 q 0,-0.4 -0.12,-0.52 -0.12,-0.12 -0.28,-0.12 -0.08,0 -0.2,0.04 -0.12,0.04 -0.28,0.12 -1.16,0.56 -1.72,1.16 -0.56,0.56 -0.56,1.84 0,1.16 0.48,1.6 0.48,0.4 1,0.4 z" />
    <path
       id="path1610"
       style="font-style:normal;font-variant:normal;font-weight:bold;font-stretch:normal;font-family:'EB Garamond';-inkscape-font-specification:'EB Garamond Bold';text-align:center;text-anchor:middle;fill:#ffffff"
       d="m 746.36696,312.65059 q -0.28,0 -0.56,-0.16 -0.24,-0.12 -0.24,-0.4 0,-0.32 0.24,-0.52 0.28,-0.16 0.68,-0.28 0.84,-0.28 1.16,-0.6 0.36,-0.28 0.36,-0.92 v -19.16 q 0,-0.52 -0.2,-1 -0.2,-0.48 -0.56,-0.84 -0.36,-0.4 -0.92,-0.48 -0.24,-0.08 -0.36,-0.2 -0.12,-0.16 -0.12,-0.52 0,-0.32 0.12,-0.48 0.12,-0.16 0.32,-0.2 1.4,-0.32 3,-0.84 1.6,-0.52 2.76,-1.08 0.16,-0.08 0.32,-0.16 0.2,-0.12 0.36,-0.12 0.24,0 0.28,0.16 0.08,0.12 0.08,0.32 0,0.32 -0.12,1.08 -0.08,0.72 -0.08,1.24 0,0.4 0.08,0.48 0.4,-0.4 1.4,-1.08 1.04,-0.68 2.36,-1.2 1.32,-0.52 2.56,-0.52 2.16,0 3.64,1.16 1.52,1.12 2.32,2.92 0.8,1.76 0.8,3.72 0,1.88 -0.72,3.64 -0.68,1.76 -1.96,3.2 -1.28,1.4 -2.96,2.24 -1.68,0.84 -3.6,0.84 -0.44,0 -1.08,-0.12 -0.6,-0.12 -1.24,-0.32 -0.6,-0.2 -1.12,-0.4 -0.04,0 -0.08,0.12 -0.04,0.12 -0.08,0.28 0,0.16 0,0.32 v 6.64 q 0,0.52 0.24,0.88 0.28,0.36 0.76,0.56 0.48,0.24 1.16,0.44 0.4,0.12 0.64,0.28 0.24,0.2 0.24,0.52 0,0.24 -0.24,0.4 -0.2,0.16 -0.44,0.16 -1.2,0 -2.52,-0.12 -1.28,-0.08 -2.32,-0.08 -0.68,0 -1.4,0.04 -0.68,0.04 -1.44,0.08 -0.72,0.08 -1.52,0.08 z m 10.32,-11.6 q 0.44,0 1.04,-0.32 0.64,-0.36 1.24,-1.12 0.64,-0.76 1.04,-2.04 0.44,-1.28 0.44,-3.16 0,-2.2 -0.44,-3.48 -0.44,-1.32 -1.08,-1.96 -0.64,-0.64 -1.32,-0.84 -0.64,-0.24 -1.12,-0.24 -0.72,0 -1.48,0.32 -0.76,0.32 -1.24,0.76 -0.48,0.44 -0.48,0.8 0,0.32 0,1.24 0,0.92 -0.04,2.04 0,1.12 -0.04,2.04 0,0.92 0,1.28 0,0.92 0.4,2.04 0.44,1.08 1.2,1.88 0.8,0.76 1.88,0.76 z" />
    <path
       id="path1612"
       style="font-style:normal;font-variant:normal;font-weight:bold;font-stretch:normal;font-family:'EB Garamond';-inkscape-font-specification:'EB Garamond Bold';text-align:center;text-anchor:middle;fill:#ffffff"
       d="m 775.40686,302.73059 q -2.64,0 -3.96,-1.32 -1.32,-1.36 -1.32,-3.8 v -9.2 q 0,-0.36 -0.28,-0.52 -0.24,-0.16 -0.96,-0.2 h -0.52 q -0.28,0 -0.48,-0.44 -0.16,-0.48 -0.16,-0.84 0,-0.08 0.04,-0.2 0.08,-0.16 0.2,-0.2 0.96,-0.36 2.04,-1.08 1.12,-0.76 2.12,-1.6 1.04,-0.84 1.68,-1.4 0.28,-0.2 0.48,-0.36 0.2,-0.16 0.52,-0.16 0.36,0 0.52,0.16 0.16,0.12 0.08,0.64 l -0.24,2.36 q -0.04,0.48 0.2,0.68 0.28,0.16 0.76,0.16 h 4.76 q 0.12,0 0.24,0.28 0.12,0.28 0.12,0.52 0,0.56 -0.16,1.08 -0.16,0.52 -0.36,0.52 h -3.72 q -0.92,0 -1.28,0.24 -0.32,0.2 -0.32,0.76 v 7.56 q 0,1.84 0.68,2.76 0.72,0.88 1.88,0.88 1.16,0 1.68,-0.24 0.56,-0.24 1,-0.4 0.16,-0.08 0.24,-0.08 0.2,0 0.32,0.24 0.12,0.24 0.12,0.56 0,0.24 -0.84,0.88 -0.84,0.64 -2.2,1.2 -1.32,0.56 -2.88,0.56 z" />
    <path
       id="path1614"
       style="font-style:normal;font-variant:normal;font-weight:bold;font-stretch:normal;font-family:'EB Garamond';-inkscape-font-specification:'EB Garamond Bold';text-align:center;text-anchor:middle;fill:#ffffff"
       d="m 783.12678,302.29059 q -0.24,0 -0.44,-0.12 -0.2,-0.16 -0.2,-0.4 0,-0.32 0.2,-0.52 0.2,-0.2 0.52,-0.28 1.04,-0.24 1.44,-0.52 0.44,-0.32 0.44,-0.96 v -8.64 q 0,-1.36 -0.44,-1.92 -0.4,-0.6 -1.28,-0.72 -0.24,-0.04 -0.36,-0.24 -0.12,-0.2 -0.12,-0.48 0,-0.6 0.44,-0.68 2.08,-0.4 3.68,-1.12 1.64,-0.72 2.52,-1.12 0.64,-0.32 0.8,-0.32 0.52,0 0.52,0.48 -0.04,0.68 -0.2,1.72 -0.12,1 -0.24,2.08 -0.08,1.08 -0.08,2.08 v 8.84 q 0,0.56 0.4,0.88 0.44,0.32 1.52,0.64 0.32,0.12 0.52,0.28 0.2,0.16 0.2,0.48 0,0.52 -0.6,0.52 -0.76,0 -1.6,-0.04 -0.84,-0.04 -1.64,-0.08 -0.76,-0.04 -1.48,-0.04 -0.68,0 -1.44,0.04 -0.72,0.04 -1.52,0.08 -0.76,0.08 -1.56,0.08 z m 4.4,-19.84 q -1.24,0 -2.2,-0.92 -0.92,-0.92 -0.92,-2.2 0,-1.36 0.92,-2.28 0.96,-0.92 2.2,-0.92 1.4,0 2.32,0.92 0.92,0.92 0.92,2.28 0,1.28 -0.92,2.2 -0.92,0.92 -2.32,0.92 z" />
    <path
       id="path1616"
       style="font-style:normal;font-variant:normal;font-weight:bold;font-stretch:normal;font-family:'EB Garamond';-inkscape-font-specification:'EB Garamond Bold';text-align:center;text-anchor:middle;fill:#ffffff"
       d="m 801.88671,302.73059 q -2.12,0 -3.84,-1.12 -1.68,-1.16 -2.68,-3.08 -0.96,-1.96 -0.96,-4.4 0,-2.6 1.2,-4.68 1.2,-2.08 3.2,-3.32 2.04,-1.24 4.52,-1.24 3.28,0 5.44,2.16 0.36,0.4 0.36,0.72 0,0.24 -0.36,0.72 -0.36,0.44 -0.8,0.8 -0.44,0.36 -0.76,0.36 -0.36,0 -0.72,-0.2 -0.32,-0.24 -0.64,-0.52 -1.04,-0.88 -2.12,-1.4 -1.04,-0.56 -1.8,-0.56 -1.52,0 -2.32,1.28 -0.76,1.24 -0.76,4.08 0,1.96 0.6,3.4 0.64,1.4 1.8,2.16 1.16,0.76 2.8,0.76 1.2,0 2.08,-0.36 0.88,-0.4 1.84,-1.2 0.2,-0.12 0.32,-0.24 0.16,-0.12 0.36,-0.12 0.48,0 0.48,0.64 0,0.16 -0.08,0.48 -0.04,0.28 -0.24,0.64 -0.36,0.8 -1.4,1.8 -1,1 -2.4,1.72 -1.4,0.72 -3.12,0.72 z" />
    <path
       id="path1618"
       style="font-style:normal;font-variant:normal;font-weight:bold;font-stretch:normal;font-family:'EB Garamond';-inkscape-font-specification:'EB Garamond Bold';text-align:center;text-anchor:middle;fill:#ffffff"
       d="m 535.64727,352.76587 q -0.32,0 -0.56,-0.12 -0.24,-0.16 -0.24,-0.44 0,-0.64 0.84,-0.84 1.52,-0.32 2.08,-0.8 0.6,-0.52 0.6,-1.84 v -17.92 q 0,-1.36 -0.48,-1.96 -0.48,-0.64 -1.92,-0.96 -0.52,-0.12 -0.72,-0.32 -0.2,-0.24 -0.2,-0.52 0,-0.24 0.24,-0.4 0.24,-0.2 0.64,-0.2 0.92,0 1.84,0.04 0.96,0.04 1.84,0.12 0.92,0.04 1.72,0.04 0.96,0 1.68,-0.08 0.76,-0.12 1.64,-0.2 0.92,-0.12 2.2,-0.12 4.88,0 7.72,2.08 2.88,2.04 2.88,5.64 0,2.52 -1.08,4.64 -1.04,2.12 -3.2,3.44 -2.12,1.28 -5.4,1.28 -1.04,0 -1.6,-0.32 -0.52,-0.32 -0.52,-0.76 0,-0.28 0.24,-0.44 0.28,-0.2 0.48,-0.2 0.44,0 0.76,0.12 0.32,0.08 0.88,0.08 1.68,0 2.52,-1.88 0.88,-1.88 0.88,-4.96 0,-3.68 -1.2,-5.32 -1.2,-1.64 -3.36,-1.64 -1.12,0 -1.72,0.52 -0.56,0.48 -0.56,1.52 l -0.04,18.6 q 0,1.28 0.68,1.84 0.68,0.52 2.36,0.88 0.44,0.08 0.64,0.28 0.24,0.16 0.24,0.52 0,0.28 -0.2,0.44 -0.2,0.16 -0.56,0.16 -0.88,0 -2.04,-0.08 -1.12,-0.04 -2.24,-0.08 -1.12,-0.04 -1.92,-0.04 -0.84,0 -1.84,0.04 -1,0.04 -2.08,0.08 -1.04,0.08 -1.92,0.08 z" />
    <path
       id="path1620"
       style="font-style:normal;font-variant:normal;font-weight:bold;font-stretch:normal;font-family:'EB Garamond';-inkscape-font-specification:'EB Garamond Bold';text-align:center;text-anchor:middle;fill:#ffffff"
       d="m 562.60714,353.20587 q -1.08,0 -2,-0.52 -0.92,-0.52 -1.48,-1.36 -0.52,-0.84 -0.52,-1.84 0,-1.36 0.84,-2.28 0.88,-0.92 2.56,-1.64 l 3.56,-1.56 q 0.8,-0.36 0.96,-0.64 0.2,-0.28 0.2,-1.04 l 0.04,-2.28 q 0.04,-1.12 -0.4,-1.76 -0.44,-0.68 -1.32,-0.68 -0.52,0 -1.04,0.24 -0.52,0.2 -0.8,0.48 -0.12,0.16 -0.2,0.4 -0.04,0.2 -0.04,0.44 0,0.24 0.04,0.6 0.04,0.32 0.04,0.56 0,0.24 -0.64,0.64 -0.64,0.36 -1.48,0.68 -0.84,0.28 -1.44,0.28 -0.28,0 -0.52,-0.24 -0.2,-0.24 -0.2,-0.6 0,-0.64 0.44,-1.24 0.44,-0.64 1.44,-1.44 1.04,-0.88 2.28,-1.56 1.24,-0.68 2.44,-1.08 1.24,-0.4 2.08,-0.4 2.16,0 3.44,1.4 1.28,1.36 1.2,3.64 l -0.2,8.08 q -0.04,0.92 0.32,1.56 0.36,0.64 0.88,0.64 0.76,0 1.32,-0.52 0.12,-0.12 0.24,-0.12 0.2,0 0.32,0.12 0.16,0.12 0.16,0.32 0,0.48 -0.72,1.24 -0.76,0.72 -1.6,1.08 -0.84,0.4 -1.76,0.4 -2.24,0 -3.72,-2.28 h -0.08 q -1.32,1.2 -2.4,1.72 -1.04,0.56 -2.24,0.56 z m 2.4,-2.6 q 0.44,0 0.72,-0.12 0.28,-0.16 0.56,-0.48 0.12,-0.16 0.2,-0.4 0.08,-0.28 0.08,-0.64 l 0.12,-2.88 q 0,-0.4 -0.12,-0.52 -0.12,-0.12 -0.28,-0.12 -0.08,0 -0.2,0.04 -0.12,0.04 -0.28,0.12 -1.16,0.56 -1.72,1.16 -0.56,0.56 -0.56,1.84 0,1.16 0.48,1.6 0.48,0.4 1,0.4 z" />
    <path
       id="path1622"
       style="font-style:normal;font-variant:normal;font-weight:bold;font-stretch:normal;font-family:'EB Garamond';-inkscape-font-specification:'EB Garamond Bold';text-align:center;text-anchor:middle;fill:#ffffff"
       d="m 583.40713,353.20587 q -2.12,0 -3.84,-1.12 -1.68,-1.16 -2.68,-3.08 -0.96,-1.96 -0.96,-4.4 0,-2.6 1.2,-4.68 1.2,-2.08 3.2,-3.32 2.04,-1.24 4.52,-1.24 3.28,0 5.44,2.16 0.36,0.4 0.36,0.72 0,0.24 -0.36,0.72 -0.36,0.44 -0.8,0.8 -0.44,0.36 -0.76,0.36 -0.36,0 -0.72,-0.2 -0.32,-0.24 -0.64,-0.52 -1.04,-0.88 -2.12,-1.4 -1.04,-0.56 -1.8,-0.56 -1.52,0 -2.32,1.28 -0.76,1.24 -0.76,4.08 0,1.96 0.6,3.4 0.64,1.4 1.8,2.16 1.16,0.76 2.8,0.76 1.2,0 2.08,-0.36 0.88,-0.4 1.84,-1.2 0.2,-0.12 0.32,-0.24 0.16,-0.12 0.36,-0.12 0.48,0 0.48,0.64 0,0.16 -0.08,0.48 -0.04,0.28 -0.24,0.64 -0.36,0.8 -1.4,1.8 -1,1 -2.4,1.72 -1.4,0.72 -3.12,0.72 z" />
    <path
       id="path1624"
       style="font-style:normal;font-variant:normal;font-weight:bold;font-stretch:normal;font-family:'EB Garamond';-inkscape-font-specification:'EB Garamond Bold';text-align:center;text-anchor:middle;fill:#ffffff"
       d="m 592.52705,352.76587 q -0.8,0 -0.8,-0.56 0,-0.32 0.24,-0.48 0.24,-0.2 0.68,-0.32 0.6,-0.2 1.04,-0.44 0.48,-0.24 0.48,-1.12 v -19.2 q 0,-1.12 -0.28,-1.88 -0.28,-0.8 -1.28,-1 -0.44,-0.08 -0.44,-0.6 0,-0.52 0.4,-0.6 1,-0.2 2.16,-0.56 1.2,-0.4 2.28,-0.8 1.08,-0.44 1.68,-0.64 0.32,-0.12 0.52,-0.12 0.24,0 0.32,0.16 0.08,0.12 0.08,0.32 0,0.32 -0.12,1.08 -0.08,0.76 -0.12,1.68 l 0.04,14.96 q 0,0.48 0.36,0.48 0.12,0 0.28,-0.08 0.2,-0.12 0.36,-0.24 1.48,-1.28 2.64,-2.6 1.16,-1.32 1.56,-1.92 0.16,-0.24 0.24,-0.4 0.12,-0.16 0.12,-0.28 0,-0.2 -0.32,-0.4 -0.32,-0.24 -0.96,-0.32 -0.48,-0.08 -0.48,-0.44 0,-0.36 0.28,-0.44 0.32,-0.12 0.6,-0.12 h 1.96 q 0.72,0 1.88,-0.04 1.16,-0.08 2.28,-0.2 1.12,-0.12 1.6,-0.12 0.44,0 0.44,0.44 0,0.32 -0.24,0.56 -0.24,0.2 -0.68,0.28 -0.68,0.16 -1.6,0.56 -0.92,0.4 -1.84,0.92 -0.68,0.36 -1.48,0.92 -0.76,0.52 -1.52,1.12 -0.72,0.6 -1.32,1.16 -0.2,0.2 -0.2,0.44 0,0.12 0.08,0.24 0.08,0.08 0.16,0.2 0.96,1.24 1.84,2.44 0.88,1.2 1.76,2.32 0.88,1.08 1.8,2.16 0.68,0.72 1.64,1.32 0.96,0.6 1.6,0.84 0.32,0.12 0.68,0.28 0.4,0.16 0.4,0.48 0,0.56 -0.88,0.56 -2.4,0 -4.72,-0.08 -2.28,-0.04 -4.28,-0.04 -0.8,0 -0.8,-0.56 0,-0.32 0.24,-0.48 0.24,-0.16 0.64,-0.32 0.36,-0.12 0.48,-0.28 0.16,-0.16 0.2,-0.36 0,-0.16 -0.16,-0.36 -0.12,-0.24 -0.32,-0.52 l -3.88,-5.36 q -0.12,-0.08 -0.2,-0.08 -0.24,0.04 -0.24,0.28 0,0.6 0,1.24 0,0.64 0,1.24 0,0.64 0,1.4 0,0.72 0,1.4 0,0.68 0.28,1 0.32,0.28 0.92,0.48 0.32,0.12 0.56,0.32 0.28,0.16 0.28,0.48 0,0.28 -0.24,0.44 -0.2,0.16 -0.48,0.16 -0.8,0 -1.48,-0.08 -0.64,-0.04 -1.24,-0.08 -0.6,-0.04 -1.32,-0.04 -0.68,0 -1.36,0.04 -0.64,0.04 -1.32,0.08 -0.68,0.08 -1.48,0.08 z" />
    <path
       id="path1626"
       style="font-style:normal;font-variant:normal;font-weight:bold;font-stretch:normal;font-family:'EB Garamond';-inkscape-font-specification:'EB Garamond Bold';text-align:center;text-anchor:middle;fill:#ffffff"
       d="m 618.08703,353.20587 q -1.08,0 -2,-0.52 -0.92,-0.52 -1.48,-1.36 -0.52,-0.84 -0.52,-1.84 0,-1.36 0.84,-2.28 0.88,-0.92 2.56,-1.64 l 3.56,-1.56 q 0.8,-0.36 0.96,-0.64 0.2,-0.28 0.2,-1.04 l 0.04,-2.28 q 0.04,-1.12 -0.4,-1.76 -0.44,-0.68 -1.32,-0.68 -0.52,0 -1.04,0.24 -0.52,0.2 -0.8,0.48 -0.12,0.16 -0.2,0.4 -0.04,0.2 -0.04,0.44 0,0.24 0.04,0.6 0.04,0.32 0.04,0.56 0,0.24 -0.64,0.64 -0.64,0.36 -1.48,0.68 -0.84,0.28 -1.44,0.28 -0.28,0 -0.52,-0.24 -0.2,-0.24 -0.2,-0.6 0,-0.64 0.44,-1.24 0.44,-0.64 1.44,-1.44 1.04,-0.88 2.28,-1.56 1.24,-0.68 2.44,-1.08 1.24,-0.4 2.08,-0.4 2.16,0 3.44,1.4 1.28,1.36 1.2,3.64 l -0.2,8.08 q -0.04,0.92 0.32,1.56 0.36,0.64 0.88,0.64 0.76,0 1.32,-0.52 0.12,-0.12 0.24,-0.12 0.2,0 0.32,0.12 0.16,0.12 0.16,0.32 0,0.48 -0.72,1.24 -0.76,0.72 -1.6,1.08 -0.84,0.4 -1.76,0.4 -2.24,0 -3.72,-2.28 h -0.08 q -1.32,1.2 -2.4,1.72 -1.04,0.56 -2.24,0.56 z m 2.4,-2.6 q 0.44,0 0.72,-0.12 0.28,-0.16 0.56,-0.48 0.12,-0.16 0.2,-0.4 0.08,-0.28 0.08,-0.64 l 0.12,-2.88 q 0,-0.4 -0.12,-0.52 -0.12,-0.12 -0.28,-0.12 -0.08,0 -0.2,0.04 -0.12,0.04 -0.28,0.12 -1.16,0.56 -1.72,1.16 -0.56,0.56 -0.56,1.84 0,1.16 0.48,1.6 0.48,0.4 1,0.4 z" />
    <path
       id="path1628"
       style="font-style:normal;font-variant:normal;font-weight:bold;font-stretch:normal;font-family:'EB Garamond';-inkscape-font-specification:'EB Garamond Bold';text-align:center;text-anchor:middle;fill:#ffffff"
       d="m 639.08702,364.20587 q -3.92,0 -6.12,-1.24 -2.16,-1.2 -2.16,-3.32 0,-1.2 0.28,-1.96 0.28,-0.72 1.28,-1.44 0.76,-0.56 1.48,-1.12 0.72,-0.56 1.24,-0.92 l 1.96,0.68 q -1.24,0.72 -1.96,1.56 -0.68,0.84 -0.68,1.96 0,1.64 1.36,2.72 1.4,1.08 3.48,1.08 2.76,0 3.92,-1.08 0.72,-0.72 1.16,-1.64 0.44,-0.88 0.44,-1.8 0,-0.64 -0.44,-1.04 -0.44,-0.4 -1.6,-0.68 -1.12,-0.28 -3.16,-0.48 -4.16,-0.4 -5.92,-1.56 -1.76,-1.16 -1.76,-3.08 0,-0.36 0.2,-0.72 0.24,-0.4 0.88,-0.84 0.64,-0.48 1.16,-0.84 0.52,-0.4 0.88,-0.72 0.36,-0.36 0.48,-0.64 l 2,0.68 q -0.8,0.28 -1.32,0.76 -0.48,0.48 -0.48,0.84 0,0.44 0.52,0.72 0.52,0.28 1.76,0.48 1.24,0.16 3.4,0.32 4.32,0.36 6.28,1.36 1.96,0.96 1.96,2.84 0,1.64 -0.92,3.24 -0.92,1.64 -2.44,2.96 -1.52,1.36 -3.4,2.12 -1.84,0.8 -3.76,0.8 z m 0.52,-17.16 q 1.28,0 2,-1.4 0.76,-1.44 0.76,-3.76 0,-1.48 -0.4,-2.56 -0.36,-1.12 -1,-1.72 -0.64,-0.64 -1.52,-0.64 -0.76,0 -1.4,0.64 -0.64,0.64 -1.04,1.72 -0.36,1.04 -0.36,2.44 0,1.48 0.4,2.68 0.4,1.2 1.08,1.92 0.68,0.68 1.48,0.68 z m -0.44,1.76 q -1.76,0 -3.48,-0.84 -1.68,-0.88 -2.8,-2.4 -1.08,-1.52 -1.08,-3.4 0,-2 1.12,-3.56 1.16,-1.56 3,-2.4 1.88,-0.88 3.96,-0.88 1.24,0 2.32,0.28 1.12,0.28 2.44,0.48 0.76,0.16 1.52,0.24 0.76,0.08 1.68,0.08 0.6,0 1.2,-0.04 0.6,-0.08 1,-0.08 0.64,0 0.64,0.88 0,0.76 -0.52,1.44 -0.24,0.28 -0.52,0.28 h -1.08 q -1.04,0 -1.4,0.32 -0.08,0.08 -0.12,0.2 -0.04,0.08 -0.08,0.44 0,0.32 0,1.24 0,2.08 -1.08,3.84 -1.08,1.76 -2.84,2.84 -1.76,1.04 -3.88,1.04 z" />
    <path
       id="path1630"
       style="font-style:normal;font-variant:normal;font-weight:bold;font-stretch:normal;font-family:'EB Garamond';-inkscape-font-specification:'EB Garamond Bold';text-align:center;text-anchor:middle;fill:#ffffff"
       d="m 658.56689,353.20587 q -2.16,0 -3.88,-1.12 -1.68,-1.16 -2.68,-3.12 -0.96,-2 -0.96,-4.52 0,-2.52 1.16,-4.56 1.16,-2.08 3.16,-3.28 2,-1.24 4.4,-1.24 1.72,0 3.08,0.76 1.36,0.72 2.16,1.96 0.84,1.24 0.84,2.8 0,1.52 -1.24,1.52 h -8 q -0.56,0 -0.84,0.32 -0.24,0.32 -0.24,1.08 0,1.52 0.68,2.8 0.68,1.24 1.84,1.96 1.16,0.72 2.68,0.72 1.16,0 2.12,-0.44 1,-0.44 1.96,-1.2 0.16,-0.12 0.28,-0.2 0.16,-0.12 0.28,-0.12 0.4,0 0.4,0.52 0,0.44 -0.32,1.2 -0.4,1 -1.36,2 -0.92,0.96 -2.32,1.56 -1.4,0.6 -3.2,0.6 z m -1.96,-12.48 h 2.4 q 1.12,0 1.56,-0.04 0.44,-0.04 0.8,-0.16 0.2,-0.08 0.32,-0.4 0.12,-0.32 0.12,-0.72 0,-1.08 -0.76,-1.76 -0.72,-0.68 -1.8,-0.68 -0.84,0 -1.6,0.48 -0.72,0.44 -1.2,1.2 -0.44,0.72 -0.4,1.52 0,0.56 0.56,0.56 z" />
    <path
       id="path1632"
       style="font-style:normal;font-variant:normal;font-weight:bold;font-stretch:normal;font-family:'EB Garamond';-inkscape-font-specification:'EB Garamond Bold';text-align:center;text-anchor:middle;fill:#ffffff"
       d="m 678.36684,352.76587 q -0.48,0 -0.72,-0.12 -0.24,-0.16 -0.24,-0.44 0,-0.36 0.32,-0.44 0.36,-0.12 0.8,-0.28 0.92,-0.32 1.6,-1.12 0.72,-0.8 0.88,-2.04 0.24,-1.84 0.48,-4.52 0.28,-2.72 0.56,-5.8 0.28,-3.08 0.48,-6.08 0.04,-0.24 0.04,-0.6 0,-0.36 0,-0.76 0,-0.72 -0.24,-1.12 -0.2,-0.44 -0.72,-0.72 -0.48,-0.32 -1.04,-0.52 -0.56,-0.24 -1.2,-0.4 -0.48,-0.12 -0.76,-0.32 -0.28,-0.2 -0.28,-0.52 0,-0.36 0.32,-0.48 0.32,-0.12 0.76,-0.12 0.6,0 1.48,0.04 0.88,0.04 1.92,0.08 1.08,0 2.16,0.04 1.12,0.04 2.04,0.04 0.32,0 0.6,0.24 0.28,0.2 0.36,0.48 0.28,0.76 0.52,1.48 0.24,0.68 0.52,1.44 l 5.88,14.04 q 0.08,0.16 0.2,0.2 0.16,0 0.24,-0.2 l 5.72,-13.28 q 0.28,-1.4 0.44,-2.28 0.2,-0.88 0.36,-1.4 0.16,-0.52 0.64,-0.52 h 1.72 q 1.68,-0.08 3.48,-0.24 1.84,-0.2 2.88,-0.2 0.4,0 0.68,0.16 0.32,0.12 0.32,0.44 0,0.36 -0.28,0.52 -0.24,0.16 -0.64,0.28 -0.24,0.08 -0.56,0.24 -0.32,0.12 -0.56,0.24 -1.04,0.48 -1.56,1.12 -0.48,0.6 -0.4,1.96 0.08,2.88 0.2,5.04 0.12,2.16 0.2,4 0.12,1.84 0.24,3.84 0.16,1.96 0.32,4.6 0.08,1.04 0.84,1.68 0.8,0.6 2.08,0.92 0.4,0.12 0.68,0.28 0.28,0.16 0.28,0.52 0,0.28 -0.24,0.44 -0.24,0.16 -0.6,0.16 -0.88,0 -2.04,-0.08 -1.12,-0.04 -2.24,-0.08 -1.08,-0.04 -1.88,-0.04 -0.8,0 -1.8,0.04 -0.96,0.04 -1.96,0.08 -1,0.08 -1.92,0.08 -0.36,0 -0.64,-0.12 -0.28,-0.16 -0.28,-0.44 0,-0.36 0.28,-0.56 0.28,-0.2 0.68,-0.28 1.48,-0.28 2.04,-0.8 0.56,-0.56 0.52,-1.8 -0.12,-2.48 -0.2,-4.92 -0.08,-2.48 -0.16,-4.84 -0.04,-2.4 -0.16,-4.64 0,-0.28 -0.16,-0.24 -0.12,0 -0.24,0.28 l -7.64,18.16 q -0.2,0.56 -0.6,0.48 -0.4,-0.08 -0.56,-0.4 -1.96,-4.64 -4.12,-9.16 -2.12,-4.52 -3.92,-8.96 -0.12,-0.36 -0.4,-0.24 -0.24,0.08 -0.28,0.52 -0.12,2 -0.2,4.4 -0.08,2.36 -0.08,4.8 0,2.4 0,4.48 0,1.12 0.72,1.84 0.72,0.68 2.28,1.04 0.4,0.08 0.76,0.28 0.36,0.16 0.36,0.52 0,0.28 -0.32,0.44 -0.32,0.16 -0.68,0.16 -1.08,0 -1.68,-0.08 -0.6,-0.04 -1.08,-0.04 -0.48,-0.04 -1.32,-0.04 -0.88,0 -1.8,0.04 -0.92,0.04 -1.6,0.08 -0.68,0.04 -0.88,0.04 z" />
    <path
       id="path1634"
       style="font-style:normal;font-variant:normal;font-weight:bold;font-stretch:normal;font-family:'EB Garamond';-inkscape-font-specification:'EB Garamond Bold';text-align:center;text-anchor:middle;fill:#ffffff"
       d="m 717.64682,353.20587 q -1.08,0 -2,-0.52 -0.92,-0.52 -1.48,-1.36 -0.52,-0.84 -0.52,-1.84 0,-1.36 0.84,-2.28 0.88,-0.92 2.56,-1.64 l 3.56,-1.56 q 0.8,-0.36 0.96,-0.64 0.2,-0.28 0.2,-1.04 l 0.04,-2.28 q 0.04,-1.12 -0.4,-1.76 -0.44,-0.68 -1.32,-0.68 -0.52,0 -1.04,0.24 -0.52,0.2 -0.8,0.48 -0.12,0.16 -0.2,0.4 -0.04,0.2 -0.04,0.44 0,0.24 0.04,0.6 0.04,0.32 0.04,0.56 0,0.24 -0.64,0.64 -0.64,0.36 -1.48,0.68 -0.84,0.28 -1.44,0.28 -0.28,0 -0.52,-0.24 -0.2,-0.24 -0.2,-0.6 0,-0.64 0.44,-1.24 0.44,-0.64 1.44,-1.44 1.04,-0.88 2.28,-1.56 1.24,-0.68 2.44,-1.08 1.24,-0.4 2.08,-0.4 2.16,0 3.44,1.4 1.28,1.36 1.2,3.64 l -0.2,8.08 q -0.04,0.92 0.32,1.56 0.36,0.64 0.88,0.64 0.76,0 1.32,-0.52 0.12,-0.12 0.24,-0.12 0.2,0 0.32,0.12 0.16,0.12 0.16,0.32 0,0.48 -0.72,1.24 -0.76,0.72 -1.6,1.08 -0.84,0.4 -1.76,0.4 -2.24,0 -3.72,-2.28 h -0.08 q -1.32,1.2 -2.4,1.72 -1.04,0.56 -2.24,0.56 z m 2.4,-2.6 q 0.44,0 0.72,-0.12 0.28,-0.16 0.56,-0.48 0.12,-0.16 0.2,-0.4 0.08,-0.28 0.08,-0.64 l 0.12,-2.88 q 0,-0.4 -0.12,-0.52 -0.12,-0.12 -0.28,-0.12 -0.08,0 -0.2,0.04 -0.12,0.04 -0.28,0.12 -1.16,0.56 -1.72,1.16 -0.56,0.56 -0.56,1.84 0,1.16 0.48,1.6 0.48,0.4 1,0.4 z" />
    <path
       id="path1636"
       style="font-style:normal;font-variant:normal;font-weight:bold;font-stretch:normal;font-family:'EB Garamond';-inkscape-font-specification:'EB Garamond Bold';text-align:center;text-anchor:middle;fill:#ffffff"
       d="m 731.64681,352.76587 q -0.28,0 -0.56,-0.12 -0.24,-0.16 -0.24,-0.44 0,-0.32 0.28,-0.48 0.28,-0.2 0.64,-0.32 0.6,-0.2 1.04,-0.44 0.48,-0.28 0.48,-1.08 v -9.16 q 0,-0.88 -0.28,-1.48 -0.24,-0.6 -0.96,-0.76 -0.16,-0.04 -0.32,-0.2 -0.12,-0.16 -0.12,-0.52 0,-0.56 0.4,-0.68 1.36,-0.32 2.96,-0.84 1.64,-0.56 2.8,-1.16 0.16,-0.08 0.36,-0.2 0.2,-0.12 0.36,-0.12 0.24,0 0.28,0.16 0.08,0.12 0.08,0.32 0,0.32 -0.12,1.04 -0.08,0.68 -0.08,1.24 0,0.16 0,0.36 0.04,0.2 0.08,0.24 1.36,-1.32 2.76,-2.04 1.4,-0.72 3.24,-0.72 2.08,0 3.48,1.56 1.44,1.52 1.44,4.16 v 8.8 q 0,0.8 0.44,1.08 0.48,0.24 1.08,0.44 0.32,0.12 0.56,0.32 0.24,0.16 0.24,0.48 0,0.28 -0.24,0.44 -0.2,0.12 -0.44,0.12 -0.8,0 -1.52,-0.08 -0.68,-0.04 -1.36,-0.08 -0.64,-0.04 -1.36,-0.04 -0.68,0 -1.36,0.04 -0.68,0.04 -1.36,0.08 -0.68,0.08 -1.48,0.08 -0.24,0 -0.48,-0.12 -0.2,-0.16 -0.2,-0.44 0,-0.32 0.24,-0.48 0.24,-0.2 0.56,-0.32 0.6,-0.2 1,-0.44 0.4,-0.28 0.4,-1.08 v -7.96 q 0,-1.52 -0.72,-2.36 -0.68,-0.88 -1.84,-0.92 -0.88,0 -1.56,0.28 -0.68,0.28 -1.4,0.76 -0.16,0.16 -0.24,0.36 -0.08,0.2 -0.08,0.4 v 9.44 q 0,0.8 0.44,1.08 0.44,0.24 1,0.44 0.8,0.24 0.8,0.8 0,0.24 -0.2,0.4 -0.2,0.16 -0.48,0.16 -0.8,0 -1.48,-0.08 -0.68,-0.04 -1.28,-0.08 -0.6,-0.04 -1.32,-0.04 -0.68,0 -1.4,0.04 -0.68,0.04 -1.44,0.08 -0.72,0.08 -1.52,0.08 z" />
    <path
       id="path1638"
       style="font-style:normal;font-variant:normal;font-weight:bold;font-stretch:normal;font-family:'EB Garamond';-inkscape-font-specification:'EB Garamond Bold';text-align:center;text-anchor:middle;fill:#ffffff"
       d="m 757.8068,353.20587 q -1.08,0 -2,-0.52 -0.92,-0.52 -1.48,-1.36 -0.52,-0.84 -0.52,-1.84 0,-1.36 0.84,-2.28 0.88,-0.92 2.56,-1.64 l 3.56,-1.56 q 0.8,-0.36 0.96,-0.64 0.2,-0.28 0.2,-1.04 l 0.04,-2.28 q 0.04,-1.12 -0.4,-1.76 -0.44,-0.68 -1.32,-0.68 -0.52,0 -1.04,0.24 -0.52,0.2 -0.8,0.48 -0.12,0.16 -0.2,0.4 -0.04,0.2 -0.04,0.44 0,0.24 0.04,0.6 0.04,0.32 0.04,0.56 0,0.24 -0.64,0.64 -0.64,0.36 -1.48,0.68 -0.84,0.28 -1.44,0.28 -0.28,0 -0.52,-0.24 -0.2,-0.24 -0.2,-0.6 0,-0.64 0.44,-1.24 0.44,-0.64 1.44,-1.44 1.04,-0.88 2.28,-1.56 1.24,-0.68 2.44,-1.08 1.24,-0.4 2.08,-0.4 2.16,0 3.44,1.4 1.28,1.36 1.2,3.64 l -0.2,8.08 q -0.04,0.92 0.32,1.56 0.36,0.64 0.88,0.64 0.76,0 1.32,-0.52 0.12,-0.12 0.24,-0.12 0.2,0 0.32,0.12 0.16,0.12 0.16,0.32 0,0.48 -0.72,1.24 -0.76,0.72 -1.6,1.08 -0.84,0.4 -1.76,0.4 -2.24,0 -3.72,-2.28 h -0.08 q -1.32,1.2 -2.4,1.72 -1.04,0.56 -2.24,0.56 z m 2.4,-2.6 q 0.44,0 0.72,-0.12 0.28,-0.16 0.56,-0.48 0.12,-0.16 0.2,-0.4 0.08,-0.28 0.08,-0.64 l 0.12,-2.88 q 0,-0.4 -0.12,-0.52 -0.12,-0.12 -0.28,-0.12 -0.08,0 -0.2,0.04 -0.12,0.04 -0.28,0.12 -1.16,0.56 -1.72,1.16 -0.56,0.56 -0.56,1.84 0,1.16 0.48,1.6 0.48,0.4 1,0.4 z" />
    <path
       id="path1640"
       style="font-style:normal;font-variant:normal;font-weight:bold;font-stretch:normal;font-family:'EB Garamond';-inkscape-font-specification:'EB Garamond Bold';text-align:center;text-anchor:middle;fill:#ffffff"
       d="m 778.80679,364.20587 q -3.92,0 -6.12,-1.24 -2.16,-1.2 -2.16,-3.32 0,-1.2 0.28,-1.96 0.28,-0.72 1.28,-1.44 0.76,-0.56 1.48,-1.12 0.72,-0.56 1.24,-0.92 l 1.96,0.68 q -1.24,0.72 -1.96,1.56 -0.68,0.84 -0.68,1.96 0,1.64 1.36,2.72 1.4,1.08 3.48,1.08 2.76,0 3.92,-1.08 0.72,-0.72 1.16,-1.64 0.44,-0.88 0.44,-1.8 0,-0.64 -0.44,-1.04 -0.44,-0.4 -1.6,-0.68 -1.12,-0.28 -3.16,-0.48 -4.16,-0.4 -5.92,-1.56 -1.76,-1.16 -1.76,-3.08 0,-0.36 0.2,-0.72 0.24,-0.4 0.88,-0.84 0.64,-0.48 1.16,-0.84 0.52,-0.4 0.88,-0.72 0.36,-0.36 0.48,-0.64 l 2,0.68 q -0.8,0.28 -1.32,0.76 -0.48,0.48 -0.48,0.84 0,0.44 0.52,0.72 0.52,0.28 1.76,0.48 1.24,0.16 3.4,0.32 4.32,0.36 6.28,1.36 1.96,0.96 1.96,2.84 0,1.64 -0.92,3.24 -0.92,1.64 -2.44,2.96 -1.52,1.36 -3.4,2.12 -1.84,0.8 -3.76,0.8 z m 0.52,-17.16 q 1.28,0 2,-1.4 0.76,-1.44 0.76,-3.76 0,-1.48 -0.4,-2.56 -0.36,-1.12 -1,-1.72 -0.64,-0.64 -1.52,-0.64 -0.76,0 -1.4,0.64 -0.64,0.64 -1.04,1.72 -0.36,1.04 -0.36,2.44 0,1.48 0.4,2.68 0.4,1.2 1.08,1.92 0.68,0.68 1.48,0.68 z m -0.44,1.76 q -1.76,0 -3.48,-0.84 -1.68,-0.88 -2.8,-2.4 -1.08,-1.52 -1.08,-3.4 0,-2 1.12,-3.56 1.16,-1.56 3,-2.4 1.88,-0.88 3.96,-0.88 1.24,0 2.32,0.28 1.12,0.28 2.44,0.48 0.76,0.16 1.52,0.24 0.76,0.08 1.68,0.08 0.6,0 1.2,-0.04 0.6,-0.08 1,-0.08 0.64,0 0.64,0.88 0,0.76 -0.52,1.44 -0.24,0.28 -0.52,0.28 h -1.08 q -1.04,0 -1.4,0.32 -0.08,0.08 -0.12,0.2 -0.04,0.08 -0.08,0.44 0,0.32 0,1.24 0,2.08 -1.08,3.84 -1.08,1.76 -2.84,2.84 -1.76,1.04 -3.88,1.04 z" />
    <path
       id="path1642"
       style="font-style:normal;font-variant:normal;font-weight:bold;font-stretch:normal;font-family:'EB Garamond';-inkscape-font-specification:'EB Garamond Bold';text-align:center;text-anchor:middle;fill:#ffffff"
       d="m 798.28666,353.20587 q -2.16,0 -3.88,-1.12 -1.68,-1.16 -2.68,-3.12 -0.96,-2 -0.96,-4.52 0,-2.52 1.16,-4.56 1.16,-2.08 3.16,-3.28 2,-1.24 4.4,-1.24 1.72,0 3.08,0.76 1.36,0.72 2.16,1.96 0.84,1.24 0.84,2.8 0,1.52 -1.24,1.52 h -8 q -0.56,0 -0.84,0.32 -0.24,0.32 -0.24,1.08 0,1.52 0.68,2.8 0.68,1.24 1.84,1.96 1.16,0.72 2.68,0.72 1.16,0 2.12,-0.44 1,-0.44 1.96,-1.2 0.16,-0.12 0.28,-0.2 0.16,-0.12 0.28,-0.12 0.4,0 0.4,0.52 0,0.44 -0.32,1.2 -0.4,1 -1.36,2 -0.92,0.96 -2.32,1.56 -1.4,0.6 -3.2,0.6 z m -1.96,-12.48 h 2.4 q 1.12,0 1.56,-0.04 0.44,-0.04 0.8,-0.16 0.2,-0.08 0.32,-0.4 0.12,-0.32 0.12,-0.72 0,-1.08 -0.76,-1.76 -0.72,-0.68 -1.8,-0.68 -0.84,0 -1.6,0.48 -0.72,0.44 -1.2,1.2 -0.44,0.72 -0.4,1.52 0,0.56 0.56,0.56 z" />
    <path
       id="path1644"
       style="font-style:normal;font-variant:normal;font-weight:bold;font-stretch:normal;font-family:'EB Garamond';-inkscape-font-specification:'EB Garamond Bold';text-align:center;text-anchor:middle;fill:#ffffff"
       d="m 808.20664,352.76587 q -0.32,0 -0.56,-0.12 -0.24,-0.16 -0.24,-0.44 0,-0.32 0.24,-0.48 0.24,-0.2 0.68,-0.32 0.88,-0.28 1.16,-0.6 0.32,-0.32 0.32,-0.92 v -9.2 q 0,-0.84 -0.24,-1.36 -0.2,-0.56 -0.96,-0.76 -0.2,-0.08 -0.36,-0.2 -0.16,-0.16 -0.16,-0.52 0,-0.56 0.48,-0.68 1.28,-0.32 2.8,-0.84 1.56,-0.52 2.64,-1.04 0.2,-0.16 0.48,-0.28 0.32,-0.16 0.44,-0.16 0.36,0 0.36,0.44 0,0.2 -0.04,0.84 0,0.6 -0.04,1.24 0,0.64 -0.04,1.08 0,0.36 0.16,0.36 0.6,-0.84 1.4,-1.64 0.84,-0.8 1.8,-1.32 0.96,-0.52 1.88,-0.52 1.4,0 1.96,0.52 0.6,0.52 0.6,1.36 0,0.6 -0.36,1.32 -0.32,0.72 -0.84,1.24 -0.52,0.52 -1.12,0.52 -0.36,0 -0.76,-0.16 -0.4,-0.2 -0.8,-0.4 -0.4,-0.16 -0.8,-0.32 -0.36,-0.2 -0.68,-0.2 -1.04,0 -1.8,0.76 -0.76,0.76 -0.76,3.04 v 6.52 q 0,0.8 0.48,1.2 0.52,0.36 1.64,0.68 0.44,0.12 0.64,0.32 0.24,0.16 0.24,0.48 0,0.56 -0.68,0.56 -1.2,0 -2.48,-0.12 -1.28,-0.08 -2.32,-0.08 -0.68,0 -1.4,0.04 -0.68,0.04 -1.44,0.08 -0.72,0.08 -1.52,0.08 z" />
    <path
       id="path1646"
       style="font-style:normal;font-variant:normal;font-weight:bold;font-stretch:normal;font-family:'EB Garamond';-inkscape-font-specification:'EB Garamond Bold';text-align:center;text-anchor:middle;fill:#ffffff"
       d="m 592.18715,403.24115 q -0.24,0 -0.44,-0.12 -0.2,-0.16 -0.2,-0.4 0,-0.32 0.2,-0.52 0.2,-0.2 0.52,-0.28 1.04,-0.24 1.44,-0.52 0.44,-0.32 0.44,-0.96 v -8.64 q 0,-1.36 -0.44,-1.92 -0.4,-0.6 -1.28,-0.72 -0.24,-0.04 -0.36,-0.24 -0.12,-0.2 -0.12,-0.48 0,-0.6 0.44,-0.68 2.08,-0.4 3.68,-1.12 1.64,-0.72 2.52,-1.12 0.64,-0.32 0.8,-0.32 0.52,0 0.52,0.48 -0.04,0.68 -0.2,1.72 -0.12,1 -0.24,2.08 -0.08,1.08 -0.08,2.08 v 8.84 q 0,0.56 0.4,0.88 0.44,0.32 1.52,0.64 0.32,0.12 0.52,0.28 0.2,0.16 0.2,0.48 0,0.52 -0.6,0.52 -0.76,0 -1.6,-0.04 -0.84,-0.04 -1.64,-0.08 -0.76,-0.04 -1.48,-0.04 -0.68,0 -1.44,0.04 -0.72,0.04 -1.52,0.08 -0.76,0.08 -1.56,0.08 z m 4.4,-19.84 q -1.24,0 -2.2,-0.92 -0.92,-0.92 -0.92,-2.2 0,-1.36 0.92,-2.28 0.96,-0.92 2.2,-0.92 1.4,0 2.32,0.92 0.92,0.92 0.92,2.28 0,1.28 -0.92,2.2 -0.92,0.92 -2.32,0.92 z" />
    <path
       id="path1648"
       style="font-style:normal;font-variant:normal;font-weight:bold;font-stretch:normal;font-family:'EB Garamond';-inkscape-font-specification:'EB Garamond Bold';text-align:center;text-anchor:middle;fill:#ffffff"
       d="m 604.14707,403.24115 q -0.28,0 -0.56,-0.12 -0.24,-0.16 -0.24,-0.44 0,-0.32 0.28,-0.48 0.28,-0.2 0.64,-0.32 0.6,-0.2 1.04,-0.44 0.48,-0.28 0.48,-1.08 v -9.16 q 0,-0.88 -0.28,-1.48 -0.24,-0.6 -0.96,-0.76 -0.16,-0.04 -0.32,-0.2 -0.12,-0.16 -0.12,-0.52 0,-0.56 0.4,-0.68 1.36,-0.32 2.96,-0.84 1.64,-0.56 2.8,-1.16 0.16,-0.08 0.36,-0.2 0.2,-0.12 0.36,-0.12 0.24,0 0.28,0.16 0.08,0.12 0.08,0.32 0,0.32 -0.12,1.04 -0.08,0.68 -0.08,1.24 0,0.16 0,0.36 0.04,0.2 0.08,0.24 1.36,-1.32 2.76,-2.04 1.4,-0.72 3.24,-0.72 2.08,0 3.48,1.56 1.44,1.52 1.44,4.16 v 8.8 q 0,0.8 0.44,1.08 0.48,0.24 1.08,0.44 0.32,0.12 0.56,0.32 0.24,0.16 0.24,0.48 0,0.28 -0.24,0.44 -0.2,0.12 -0.44,0.12 -0.8,0 -1.52,-0.08 -0.68,-0.04 -1.36,-0.08 -0.64,-0.04 -1.36,-0.04 -0.68,0 -1.36,0.04 -0.68,0.04 -1.36,0.08 -0.68,0.08 -1.48,0.08 -0.24,0 -0.48,-0.12 -0.2,-0.16 -0.2,-0.44 0,-0.32 0.24,-0.48 0.24,-0.2 0.56,-0.32 0.6,-0.2 1,-0.44 0.4,-0.28 0.4,-1.08 v -7.96 q 0,-1.52 -0.72,-2.36 -0.68,-0.88 -1.84,-0.92 -0.88,0 -1.56,0.28 -0.68,0.28 -1.4,0.76 -0.16,0.16 -0.24,0.36 -0.08,0.2 -0.08,0.4 v 9.44 q 0,0.8 0.44,1.08 0.44,0.24 1,0.44 0.8,0.24 0.8,0.8 0,0.24 -0.2,0.4 -0.2,0.16 -0.48,0.16 -0.8,0 -1.48,-0.08 -0.68,-0.04 -1.28,-0.08 -0.6,-0.04 -1.32,-0.04 -0.68,0 -1.4,0.04 -0.68,0.04 -1.44,0.08 -0.72,0.08 -1.52,0.08 z" />
    <path
       id="path1650"
       style="font-style:normal;font-variant:normal;font-weight:bold;font-stretch:normal;font-family:'EB Garamond';-inkscape-font-specification:'EB Garamond Bold';text-align:center;text-anchor:middle;fill:#ffffff"
       d="m 649.54705,403.68115 q -3.76,0 -6.28,-1.32 -2.52,-1.36 -3.8,-3.76 -1.24,-2.4 -1.24,-5.6 v -11.4 q 0,-1.12 -0.52,-2.04 -0.52,-0.92 -1.52,-1.16 -1.12,-0.32 -1.12,-0.88 0,-0.28 0.28,-0.44 0.32,-0.16 0.76,-0.16 1.28,0 2.64,0.12 1.36,0.08 2.56,0.08 1.12,0 2.68,-0.08 1.6,-0.08 2.72,-0.08 0.48,0 0.76,0.16 0.32,0.12 0.32,0.44 0,0.44 -0.6,0.64 -0.6,0.2 -1.28,0.52 -0.6,0.24 -1.04,1 -0.44,0.72 -0.44,2.08 v 10.48 q 0,2.72 0.88,4.48 0.88,1.76 2.32,2.6 1.48,0.84 3.28,0.84 3.64,0 5.4,-2.16 1.8,-2.16 1.8,-6.6 0,-1.04 0,-2.32 0.04,-1.32 0.04,-2.68 0,-1.4 -0.04,-2.64 -0.04,-1.8 -0.28,-2.8 -0.2,-1 -0.64,-1.56 -0.44,-0.56 -1.2,-0.92 -0.44,-0.24 -1.04,-0.4 -0.56,-0.2 -0.56,-0.56 0,-0.32 0.32,-0.44 0.32,-0.12 0.88,-0.12 1.44,0 2.16,0.04 0.76,0.04 1.68,0.04 0.76,0 1.24,-0.04 0.52,-0.04 1.04,-0.08 0.56,-0.04 1.32,-0.04 0.48,0 0.76,0.12 0.28,0.12 0.28,0.48 0,0.52 -1.08,0.84 -1.32,0.36 -1.88,1.24 -0.52,0.84 -0.6,2.28 -0.12,3.04 -0.16,5.6 -0.04,2.52 -0.04,5.16 -0.04,3.24 -1.48,5.76 -1.4,2.48 -3.84,3.88 -2.44,1.4 -5.44,1.4 z" />
    <path
       id="path1652"
       style="font-style:normal;font-variant:normal;font-weight:bold;font-stretch:normal;font-family:'EB Garamond';-inkscape-font-specification:'EB Garamond Bold';text-align:center;text-anchor:middle;fill:#ffffff"
       d="m 675.42701,403.68115 q -1.16,0 -2.16,-0.2 -0.96,-0.2 -1.76,-0.4 -0.6,-0.2 -1.12,-0.32 -0.48,-0.12 -0.8,-0.12 -0.4,0 -0.76,0.16 -0.36,0.12 -0.68,0.36 -0.36,0.28 -0.56,0.28 -0.36,0 -0.56,-0.16 -0.16,-0.16 -0.16,-0.36 0,-0.36 0.2,-1.4 0.24,-1.04 0.2,-2.6 l -0.16,-17.8 q 0,-1.04 -0.32,-1.84 -0.28,-0.84 -1.24,-1.04 -0.2,-0.04 -0.36,-0.2 -0.12,-0.16 -0.12,-0.44 0,-0.2 0.12,-0.36 0.12,-0.16 0.32,-0.2 0.88,-0.16 2.04,-0.52 1.16,-0.4 2.24,-0.8 1.12,-0.44 1.72,-0.64 0.4,-0.16 0.56,-0.16 0.24,0 0.32,0.16 0.12,0.12 0.12,0.32 0,0.24 -0.12,1 -0.08,0.76 -0.08,1.52 v 8.56 q 0,0.52 0.08,0.84 0.08,0.28 0.28,0.28 1.24,-0.84 2.56,-1.28 1.36,-0.48 2.56,-0.48 2.08,0 3.76,1.08 1.68,1.08 2.64,2.96 1,1.88 1,4.24 0,2.8 -1.24,5 -1.24,2.16 -3.44,3.36 -2.16,1.2 -5.08,1.2 z m 0.72,-1.68 q 1.08,0 1.84,-0.92 0.76,-0.96 1.16,-2.52 0.44,-1.56 0.44,-3.4 0,-1.6 -0.44,-3.24 -0.4,-1.64 -1.32,-2.72 -0.88,-1.12 -2.28,-1.12 -0.72,0 -1.68,0.24 -0.96,0.2 -1.56,0.68 v 8.52 q 0,1.28 0.52,2.32 0.56,1.04 1.44,1.6 0.88,0.56 1.88,0.56 z" />
    <path
       id="path1654"
       style="font-style:normal;font-variant:normal;font-weight:bold;font-stretch:normal;font-family:'EB Garamond';-inkscape-font-specification:'EB Garamond Bold';text-align:center;text-anchor:middle;fill:#ffffff"
       d="m 699.30697,403.96115 q -0.32,0 -0.32,-0.4 0,-0.48 0.08,-1.28 0.12,-0.8 0.12,-1.24 0,-0.16 -0.04,-0.28 0,-0.12 -0.04,-0.16 -1.08,1.32 -2.76,2.24 -1.68,0.88 -3.56,0.88 -1.24,0 -2.24,-0.72 -1,-0.76 -1.6,-2.04 -0.56,-1.28 -0.56,-2.88 v -7.48 q 0,-0.92 -0.36,-1.48 -0.32,-0.56 -1.24,-0.76 -0.24,-0.04 -0.44,-0.2 -0.16,-0.2 -0.16,-0.56 0,-0.28 0.16,-0.44 0.16,-0.2 0.44,-0.24 1.68,-0.08 3.04,-0.32 1.36,-0.28 2.76,-0.64 0.2,-0.04 0.4,-0.08 0.24,-0.08 0.44,-0.08 0.56,0 0.52,0.56 -0.16,0.92 -0.24,1.56 -0.08,0.6 -0.08,1.52 v 7.68 q 0,0.96 0.32,1.68 0.32,0.72 0.88,1.12 0.56,0.4 1.24,0.44 0.64,0 1.24,-0.16 0.64,-0.16 1.2,-0.72 0.24,-0.2 0.52,-0.8 0.28,-0.64 0.28,-1.68 v -6.44 q 0,-0.72 -0.28,-1.16 -0.28,-0.48 -0.76,-0.76 -0.48,-0.28 -1.12,-0.32 -0.44,-0.04 -0.72,-0.2 -0.24,-0.2 -0.24,-0.68 0,-0.4 0.28,-0.6 0.28,-0.2 0.68,-0.2 2.04,-0.12 3.24,-0.2 1.2,-0.12 1.96,-0.24 0.76,-0.12 1.52,-0.28 0.12,-0.04 0.28,-0.08 0.16,-0.04 0.24,-0.04 0.6,0 0.6,0.48 0,0.12 -0.04,0.28 -0.04,0.16 -0.12,0.32 -0.04,0.16 -0.12,0.72 -0.04,0.52 -0.12,1.12 -0.04,0.6 -0.04,0.96 v 9.28 q 0,0.92 0.2,1.24 0.24,0.28 0.52,0.28 0.2,0 0.6,0.04 0.4,0 0.52,0 0.36,0 0.56,0.2 0.2,0.2 0.2,0.52 0,0.36 -0.16,0.6 -0.12,0.2 -0.52,0.24 -1.92,0.16 -3.48,0.68 -1.52,0.48 -2.64,0.92 -0.24,0.08 -0.52,0.16 -0.28,0.12 -0.52,0.12 z" />
    <path
       id="path1656"
       style="font-style:normal;font-variant:normal;font-weight:bold;font-stretch:normal;font-family:'EB Garamond';-inkscape-font-specification:'EB Garamond Bold';text-align:center;text-anchor:middle;fill:#ffffff"
       d="m 709.14692,403.24115 q -0.28,0 -0.56,-0.12 -0.24,-0.16 -0.24,-0.44 0,-0.32 0.28,-0.48 0.28,-0.2 0.64,-0.32 0.6,-0.2 1.04,-0.44 0.48,-0.28 0.48,-1.08 v -9.16 q 0,-0.88 -0.28,-1.48 -0.24,-0.6 -0.96,-0.76 -0.16,-0.04 -0.32,-0.2 -0.12,-0.16 -0.12,-0.52 0,-0.56 0.4,-0.68 1.36,-0.32 2.96,-0.84 1.64,-0.56 2.8,-1.16 0.16,-0.08 0.36,-0.2 0.2,-0.12 0.36,-0.12 0.24,0 0.28,0.16 0.08,0.12 0.08,0.32 0,0.32 -0.12,1.04 -0.08,0.68 -0.08,1.24 0,0.16 0,0.36 0.04,0.2 0.08,0.24 1.36,-1.32 2.76,-2.04 1.4,-0.72 3.24,-0.72 2.08,0 3.48,1.56 1.44,1.52 1.44,4.16 v 8.8 q 0,0.8 0.44,1.08 0.48,0.24 1.08,0.44 0.32,0.12 0.56,0.32 0.24,0.16 0.24,0.48 0,0.28 -0.24,0.44 -0.2,0.12 -0.44,0.12 -0.8,0 -1.52,-0.08 -0.68,-0.04 -1.36,-0.08 -0.64,-0.04 -1.36,-0.04 -0.68,0 -1.36,0.04 -0.68,0.04 -1.36,0.08 -0.68,0.08 -1.48,0.08 -0.24,0 -0.48,-0.12 -0.2,-0.16 -0.2,-0.44 0,-0.32 0.24,-0.48 0.24,-0.2 0.56,-0.32 0.6,-0.2 1,-0.44 0.4,-0.28 0.4,-1.08 v -7.96 q 0,-1.52 -0.72,-2.36 -0.68,-0.88 -1.84,-0.92 -0.88,0 -1.56,0.28 -0.68,0.28 -1.4,0.76 -0.16,0.16 -0.24,0.36 -0.08,0.2 -0.08,0.4 v 9.44 q 0,0.8 0.44,1.08 0.44,0.24 1,0.44 0.8,0.24 0.8,0.8 0,0.24 -0.2,0.4 -0.2,0.16 -0.48,0.16 -0.8,0 -1.48,-0.08 -0.68,-0.04 -1.28,-0.08 -0.6,-0.04 -1.32,-0.04 -0.68,0 -1.4,0.04 -0.68,0.04 -1.44,0.08 -0.72,0.08 -1.52,0.08 z" />
    <path
       id="path1658"
       style="font-style:normal;font-variant:normal;font-weight:bold;font-stretch:normal;font-family:'EB Garamond';-inkscape-font-specification:'EB Garamond Bold';text-align:center;text-anchor:middle;fill:#ffffff"
       d="m 738.26689,403.68115 q -2.64,0 -3.96,-1.32 -1.32,-1.36 -1.32,-3.8 v -9.2 q 0,-0.36 -0.28,-0.52 -0.24,-0.16 -0.96,-0.2 h -0.52 q -0.28,0 -0.48,-0.44 -0.16,-0.48 -0.16,-0.84 0,-0.08 0.04,-0.2 0.08,-0.16 0.2,-0.2 0.96,-0.36 2.04,-1.08 1.12,-0.76 2.12,-1.6 1.04,-0.84 1.68,-1.4 0.28,-0.2 0.48,-0.36 0.2,-0.16 0.52,-0.16 0.36,0 0.52,0.16 0.16,0.12 0.08,0.64 l -0.24,2.36 q -0.04,0.48 0.2,0.68 0.28,0.16 0.76,0.16 h 4.76 q 0.12,0 0.24,0.28 0.12,0.28 0.12,0.52 0,0.56 -0.16,1.08 -0.16,0.52 -0.36,0.52 h -3.72 q -0.92,0 -1.28,0.24 -0.32,0.2 -0.32,0.76 v 7.56 q 0,1.84 0.68,2.76 0.72,0.88 1.88,0.88 1.16,0 1.68,-0.24 0.56,-0.24 1,-0.4 0.16,-0.08 0.24,-0.08 0.2,0 0.32,0.24 0.12,0.24 0.12,0.56 0,0.24 -0.84,0.88 -0.84,0.64 -2.2,1.2 -1.32,0.56 -2.88,0.56 z" />
    <path
       id="path1660"
       style="font-style:normal;font-variant:normal;font-weight:bold;font-stretch:normal;font-family:'EB Garamond';-inkscape-font-specification:'EB Garamond Bold';text-align:center;text-anchor:middle;fill:#ffffff"
       d="m 758.34681,403.96115 q -0.32,0 -0.32,-0.4 0,-0.48 0.08,-1.28 0.12,-0.8 0.12,-1.24 0,-0.16 -0.04,-0.28 0,-0.12 -0.04,-0.16 -1.08,1.32 -2.76,2.24 -1.68,0.88 -3.56,0.88 -1.24,0 -2.24,-0.72 -1,-0.76 -1.6,-2.04 -0.56,-1.28 -0.56,-2.88 v -7.48 q 0,-0.92 -0.36,-1.48 -0.32,-0.56 -1.24,-0.76 -0.24,-0.04 -0.44,-0.2 -0.16,-0.2 -0.16,-0.56 0,-0.28 0.16,-0.44 0.16,-0.2 0.44,-0.24 1.68,-0.08 3.04,-0.32 1.36,-0.28 2.76,-0.64 0.2,-0.04 0.4,-0.08 0.24,-0.08 0.44,-0.08 0.56,0 0.52,0.56 -0.16,0.92 -0.24,1.56 -0.08,0.6 -0.08,1.52 v 7.68 q 0,0.96 0.32,1.68 0.32,0.72 0.88,1.12 0.56,0.4 1.24,0.44 0.64,0 1.24,-0.16 0.64,-0.16 1.2,-0.72 0.24,-0.2 0.52,-0.8 0.28,-0.64 0.28,-1.68 v -6.44 q 0,-0.72 -0.28,-1.16 -0.28,-0.48 -0.76,-0.76 -0.48,-0.28 -1.12,-0.32 -0.44,-0.04 -0.72,-0.2 -0.24,-0.2 -0.24,-0.68 0,-0.4 0.28,-0.6 0.28,-0.2 0.68,-0.2 2.04,-0.12 3.24,-0.2 1.2,-0.12 1.96,-0.24 0.76,-0.12 1.52,-0.28 0.12,-0.04 0.28,-0.08 0.16,-0.04 0.24,-0.04 0.6,0 0.6,0.48 0,0.12 -0.04,0.28 -0.04,0.16 -0.12,0.32 -0.04,0.16 -0.12,0.72 -0.04,0.52 -0.12,1.12 -0.04,0.6 -0.04,0.96 v 9.28 q 0,0.92 0.2,1.24 0.24,0.28 0.52,0.28 0.2,0 0.6,0.04 0.4,0 0.52,0 0.36,0 0.56,0.2 0.2,0.2 0.2,0.52 0,0.36 -0.16,0.6 -0.12,0.2 -0.52,0.24 -1.92,0.16 -3.48,0.68 -1.52,0.48 -2.64,0.92 -0.24,0.08 -0.52,0.16 -0.28,0.12 -0.52,0.12 z" />
  </g>
</svg>
