<?xml version="1.0" encoding="UTF-8" standalone="no"?>
<svg
   xmlns:osb="http://www.openswatchbook.org/uri/2009/osb"
   xmlns:dc="http://purl.org/dc/elements/1.1/"
   xmlns:cc="http://creativecommons.org/ns#"
   xmlns:rdf="http://www.w3.org/1999/02/22-rdf-syntax-ns#"
   xmlns:svg="http://www.w3.org/2000/svg"
   xmlns="http://www.w3.org/2000/svg"
   xmlns:xlink="http://www.w3.org/1999/xlink"
   id="svg3357"
   version="1.1"
   viewBox="0 0 211.40208 119.0625"
   height="119.0625mm"
   width="211.40208mm">
  <defs
     id="defs3351">
    <linearGradient
       osb:paint="solid"
       id="linearGradient4115">
      <stop
         id="stop4113"
         offset="0"
         style="stop-color:#000000;stop-opacity:1;" />
    </linearGradient>
    <linearGradient
       id="linearGradient6114">
      <stop
         id="stop6110"
         offset="0"
         style="stop-color:#6f7c91;stop-opacity:1;" />
      <stop
         id="stop6112"
         offset="1"
         style="stop-color:#162d50;stop-opacity:1" />
    </linearGradient>
    <radialGradient
       gradientUnits="userSpaceOnUse"
       gradientTransform="matrix(3.0071285,0,0,1.83657,-125.12732,-58.151445)"
       r="31.67275"
       fy="66.986313"
       fx="73.77433"
       cy="66.986313"
       cx="73.77433"
       id="radialGradient6126"
       xlink:href="#linearGradient6114" />
    <filter
       height="2.7018473"
       y="-0.85092366"
       width="2.3347821"
       x="-0.66739112"
       id="filter1602"
       style="color-interpolation-filters:sRGB">
      <feGaussianBlur
         id="feGaussianBlur1604"
         stdDeviation="9.6438014" />
    </filter>
    <filter
       height="2.7018473"
       y="-0.85092366"
       width="2.8457036"
       x="-0.9228518"
       id="filter1606"
       style="color-interpolation-filters:sRGB">
      <feGaussianBlur
         id="feGaussianBlur1608"
         stdDeviation="9.6438014" />
    </filter>
    <filter
       height="2.6603389"
       y="-0.83016944"
       width="2.5723588"
       x="-0.78617948"
       id="filter1610"
       style="color-interpolation-filters:sRGB">
      <feGaussianBlur
         id="feGaussianBlur1612"
         stdDeviation="9.6438014" />
    </filter>
    <filter
       height="2.1561"
       y="-0.57805002"
       width="3.4727695"
       x="-1.2363847"
       id="filter1614"
       style="color-interpolation-filters:sRGB">
      <feGaussianBlur
         id="feGaussianBlur1616"
         stdDeviation="9.6438014" />
    </filter>
    <filter
       height="3.1041021"
       y="-1.0520511"
       width="2.9987154"
       x="-0.99935764"
       id="filter1618"
       style="color-interpolation-filters:sRGB">
      <feGaussianBlur
         id="feGaussianBlur1620"
         stdDeviation="9.6438014" />
    </filter>
    <filter
       height="3.1041021"
       y="-1.0520511"
       width="2.3317101"
       x="-0.66585511"
       id="filter1622"
       style="color-interpolation-filters:sRGB">
      <feGaussianBlur
         id="feGaussianBlur1624"
         stdDeviation="9.6438014" />
    </filter>
    <filter
       height="3.1041021"
       y="-1.0520511"
       width="3.3145123"
       x="-1.1572562"
       id="filter1626"
       style="color-interpolation-filters:sRGB">
      <feGaussianBlur
         id="feGaussianBlur1628"
         stdDeviation="9.6438014" />
    </filter>
    <filter
       height="2.3456466"
       y="-0.67282337"
       width="2.7428558"
       x="-0.87142783"
       id="filter1630"
       style="color-interpolation-filters:sRGB">
      <feGaussianBlur
         id="feGaussianBlur1632"
         stdDeviation="9.6438014" />
    </filter>
    <filter
       height="3.1041021"
       y="-1.0520511"
       width="3.023175"
       x="-1.0115876"
       id="filter1634"
       style="color-interpolation-filters:sRGB">
      <feGaussianBlur
         id="feGaussianBlur1636"
         stdDeviation="9.6438014" />
    </filter>
    <filter
       height="2.5430081"
       y="-0.7715041"
       width="4.7573252"
       x="-1.8786626"
       id="filter1638"
       style="color-interpolation-filters:sRGB">
      <feGaussianBlur
         id="feGaussianBlur1640"
         stdDeviation="9.6438014" />
    </filter>
    <filter
       height="2.8110425"
       y="-0.90552127"
       width="4.3064461"
       x="-1.6532232"
       id="filter1642"
       style="color-interpolation-filters:sRGB">
      <feGaussianBlur
         id="feGaussianBlur1644"
         stdDeviation="9.6438014" />
    </filter>
    <filter
       height="3.1041021"
       y="-1.0520511"
       width="3.1671464"
       x="-1.0835732"
       id="filter1646"
       style="color-interpolation-filters:sRGB">
      <feGaussianBlur
         id="feGaussianBlur1648"
         stdDeviation="9.6438014" />
    </filter>
    <filter
       height="2.5638597"
       y="-0.78192985"
       width="3.0056434"
       x="-1.0028216"
       id="filter1650"
       style="color-interpolation-filters:sRGB">
      <feGaussianBlur
         id="feGaussianBlur1652"
         stdDeviation="9.6438014" />
    </filter>
    <filter
       height="3.1041021"
       y="-1.0520511"
       width="3.4009464"
       x="-1.2004732"
       id="filter1654"
       style="color-interpolation-filters:sRGB">
      <feGaussianBlur
         id="feGaussianBlur1656"
         stdDeviation="9.6438014" />
    </filter>
    <filter
       height="2.5874569"
       y="-0.79372853"
       width="2.887857"
       x="-0.94392848"
       id="filter1658"
       style="color-interpolation-filters:sRGB">
      <feGaussianBlur
         id="feGaussianBlur1660"
         stdDeviation="9.6438014" />
    </filter>
    <filter
       height="3.1041021"
       y="-1.0520511"
       width="3.0126195"
       x="-1.0063097"
       id="filter1662"
       style="color-interpolation-filters:sRGB">
      <feGaussianBlur
         id="feGaussianBlur1664"
         stdDeviation="9.6438014" />
    </filter>
    <filter
       height="3.1041021"
       y="-1.0520511"
       width="3.023175"
       x="-1.0115876"
       id="filter1666"
       style="color-interpolation-filters:sRGB">
      <feGaussianBlur
         id="feGaussianBlur1668"
         stdDeviation="9.6438014" />
    </filter>
    <filter
       height="3.1041021"
       y="-1.0520511"
       width="3.4009464"
       x="-1.2004732"
       id="filter1670"
       style="color-interpolation-filters:sRGB">
      <feGaussianBlur
         id="feGaussianBlur1672"
         stdDeviation="9.6438014" />
    </filter>
    <filter
       height="2.653223"
       y="-0.82661158"
       width="2.6993482"
       x="-0.84967411"
       id="filter1674"
       style="color-interpolation-filters:sRGB">
      <feGaussianBlur
         id="feGaussianBlur1676"
         stdDeviation="9.6438014" />
    </filter>
    <filter
       height="3.104105"
       y="-1.0520525"
       width="3.3145123"
       x="-1.1572562"
       id="filter1678"
       style="color-interpolation-filters:sRGB">
      <feGaussianBlur
         id="feGaussianBlur1680"
         stdDeviation="9.6438014" />
    </filter>
    <filter
       height="2.5638614"
       y="-0.78193063"
       width="4.7210808"
       x="-1.8605405"
       id="filter1682"
       style="color-interpolation-filters:sRGB">
      <feGaussianBlur
         id="feGaussianBlur1684"
         stdDeviation="9.6438014" />
    </filter>
    <filter
       height="2.5430098"
       y="-0.77150488"
       width="4.7573252"
       x="-1.8786626"
       id="filter1686"
       style="color-interpolation-filters:sRGB">
      <feGaussianBlur
         id="feGaussianBlur1688"
         stdDeviation="9.6438014" />
    </filter>
    <filter
       height="2.5638614"
       y="-0.78193063"
       width="3.1117814"
       x="-1.0558907"
       id="filter1690"
       style="color-interpolation-filters:sRGB">
      <feGaussianBlur
         id="feGaussianBlur1692"
         stdDeviation="9.6438014" />
    </filter>
    <filter
       height="2.585284"
       y="-0.792642"
       width="2.8940363"
       x="-0.94701815"
       id="filter1694"
       style="color-interpolation-filters:sRGB">
      <feGaussianBlur
         id="feGaussianBlur1696"
         stdDeviation="9.6438014" />
    </filter>
    <filter
       height="3.104105"
       y="-1.0520525"
       width="3.023175"
       x="-1.0115876"
       id="filter1698"
       style="color-interpolation-filters:sRGB">
      <feGaussianBlur
         id="feGaussianBlur1700"
         stdDeviation="9.6438014" />
    </filter>
    <filter
       height="2.5430098"
       y="-0.77150488"
       width="4.7573252"
       x="-1.8786626"
       id="filter1702"
       style="color-interpolation-filters:sRGB">
      <feGaussianBlur
         id="feGaussianBlur1704"
         stdDeviation="9.6438014" />
    </filter>
    <filter
       height="2.5638614"
       y="-0.78193063"
       width="2.985002"
       x="-0.99250102"
       id="filter1706"
       style="color-interpolation-filters:sRGB">
      <feGaussianBlur
         id="feGaussianBlur1708"
         stdDeviation="9.6438014" />
    </filter>
    <filter
       height="3.104105"
       y="-1.0520525"
       width="3.3569372"
       x="-1.1784686"
       id="filter1710"
       style="color-interpolation-filters:sRGB">
      <feGaussianBlur
         id="feGaussianBlur1712"
         stdDeviation="9.6438014" />
    </filter>
    <filter
       height="3.104105"
       y="-1.0520525"
       width="3.0126195"
       x="-1.0063097"
       id="filter1714"
       style="color-interpolation-filters:sRGB">
      <feGaussianBlur
         id="feGaussianBlur1716"
         stdDeviation="9.6438014" />
    </filter>
    <filter
       height="2.7018492"
       y="-0.85092461"
       width="2.9515281"
       x="-0.97576404"
       id="filter1718"
       style="color-interpolation-filters:sRGB">
      <feGaussianBlur
         id="feGaussianBlur1720"
         stdDeviation="9.6438014" />
    </filter>
  </defs>
  <metadata
     id="metadata3354">
    <rdf:RDF>
      <cc:Work
         rdf:about="">
        <dc:format>image/svg+xml</dc:format>
        <dc:type
           rdf:resource="http://purl.org/dc/dcmitype/StillImage" />
        <dc:title></dc:title>
      </cc:Work>
    </rdf:RDF>
  </metadata>
  <g
     id="flowRoot874"
     style="font-style:normal;font-weight:normal;font-size:40px;line-height:1.25;font-family:sans-serif;letter-spacing:0px;word-spacing:0px;fill:#000000;fill-opacity:1;stroke:none"
     transform="matrix(1.1097917,0,0,1.0234149,-1.6397722,-7.1516095)" />
  <g
     id="flowRoot1713"
     style="font-style:normal;font-weight:normal;font-size:40px;line-height:1.25;font-family:sans-serif;letter-spacing:0px;word-spacing:0px;fill:#000000;fill-opacity:1;stroke:none"
     transform="translate(-1.4775493,-4.2705599)" />
  <path
     id="rect6108"
     d="M 0,0 H 211.40208 V 119.0625 H 0 Z"
     style="opacity:1;fill:#00aa88;fill-opacity:1;stroke:none;stroke-width:4.38045835;stroke-miterlimit:4;stroke-dasharray:none;paint-order:stroke markers fill" />
  <g
     style="display:inline"
     id="g4921"
     transform="matrix(1.1825108,0,0,1.2934259,-90.830455,-83.919071)">
    <g
       transform="translate(50.270828)"
       id="g4720">
      <g
         id="g4694"
         transform="translate(-47.638093,1.3360133)"
         style="fill:#333333">
        <path
           style="fill:#333333;stroke:none;stroke-width:0.26458347px;stroke-linecap:butt;stroke-linejoin:miter;stroke-opacity:1"
           d="m 144.21101,139.55982 c 0,0 5.43081,5.83681 7.33498,3.79847 2.22288,-2.37952 -12.62665,-36.87139 -12.62665,-36.87139"
           id="path835" />
        <path
           id="path817"
           d="m 97.450493,140.21473 c 7.815327,4.80271 15.630577,9.60538 23.402247,9.51796 7.77167,-0.0874 15.49967,-5.06478 19.38543,-7.57529 3.88576,-2.5105 3.92946,-2.5542 3.97284,-2.59758"
           style="fill:#333333;stroke:none;stroke-width:0.26458332px;stroke-linecap:butt;stroke-linejoin:miter;stroke-opacity:1" />
        <path
           id="path825"
           d="m 97.450491,140.21473 c 0,0 -5.430812,5.83681 -7.33498,3.79847 -2.222882,-2.37952 12.820499,-36.99713 12.820499,-36.99713"
           style="fill:#333333;stroke:none;stroke-width:0.26458332px;stroke-linecap:butt;stroke-linejoin:miter;stroke-opacity:1" />
        <path
           transform="matrix(1.0226412,0,0,1.0473654,-2.3339152,-3.6688483)"
           id="path831"
           d="m 102.93926,105.67937 c 0.0862,-6.905162 0.17248,-13.810016 1.50935,-18.736088 1.33687,-4.926072 3.92412,-7.873272 9.74546,-9.346742 5.82134,-1.473471 14.87673,-1.473471 19.40429,3.368239 4.52756,4.84171 4.52756,14.525398 4.52756,24.209361"
           style="fill:#333333;stroke:none;stroke-width:0.26458332px;stroke-linecap:butt;stroke-linejoin:miter;stroke-opacity:1" />
      </g>
      <g
         id="g4708">
        <path
           id="path4696"
           d="m 49.741667,141.68958 c 0,0 3.615973,-22.40139 5.55625,-33.60208 l 35.983333,-0.26458 6.614583,33.07291 z"
           style="fill:#333333;stroke:none;stroke-width:0.26458332px;stroke-linecap:butt;stroke-linejoin:miter;stroke-opacity:1" />
        <path
           id="rect4698"
           d="m 55.5625,138.25 h 37.041668 v 3.96875 H 55.5625 Z"
           style="opacity:1;fill:#333333;fill-opacity:1;stroke:none;stroke-width:0.26458332" />
        <path
           id="rect4700"
           d="m 59.53125,106.5 h 30.427082 v 3.96875 H 59.53125 Z"
           style="opacity:1;fill:#333333;fill-opacity:1;stroke:none;stroke-width:0.26458332" />
        <path
           id="rect4702"
           d="m 84.666664,105.17708 h 5.291669 v 3.96875 h -5.291669 z"
           style="opacity:1;fill:#333333;fill-opacity:1;stroke:none;stroke-width:0.26458332" />
      </g>
    </g>
    <path
       d="m 138.70455,126.61246 a 15.239734,15.867999 0 0 1 -15.17522,15.86785 15.239734,15.867999 0 0 1 -15.3037,-15.73349 15.239734,15.867999 0 0 1 15.04563,-16.00108 15.239734,15.867999 0 0 1 15.4311,15.59801"
       id="path843"
       style="opacity:1;fill:#e6e6e6;fill-opacity:1;stroke:none;stroke-width:0.26458332" />
    <g
       transform="translate(44.751274,16.383515)"
       id="g4688">
      <g
         id="g4596"
         transform="translate(-41.01042,-15.875)"
         style="fill:#ff6600;stroke:none">
        <path
           id="path4585"
           d="m 111.125,110.46875 c 2.9216,-2.67614 5.84316,-5.35225 8.7091,-5.35212 2.86595,1.3e-4 5.6775,2.67624 8.48882,5.35212"
           style="fill:#ff6600;stroke:none;stroke-width:0.26458332px;stroke-linecap:butt;stroke-linejoin:miter;stroke-opacity:1" />
        <path
           id="path4589"
           d="m 111.125,110.46875 c 2.77957,3.92198 5.48174,5.31906 8.73125,6.61458"
           style="fill:#ff6600;stroke:none;stroke-width:0.26458332px;stroke-linecap:butt;stroke-linejoin:miter;stroke-opacity:1" />
        <path
           id="path4591"
           d="m 128.32292,110.46875 c -1.04604,3.82945 -4.9192,5.32533 -8.46667,6.61458"
           style="fill:#ff6600;stroke:none;stroke-width:0.26458332px;stroke-linecap:butt;stroke-linejoin:miter;stroke-opacity:1" />
      </g>
      <g
         style="fill:#ff6600;stroke:none"
         transform="translate(-41.01042,-15.875)"
         id="g4661">
        <path
           style="fill:#ff6600;stroke:none;stroke-width:0.26458332px;stroke-linecap:butt;stroke-linejoin:miter;stroke-opacity:1"
           d="m 111.125,110.46875 c 2.9216,-2.67614 5.84316,-5.35225 8.7091,-5.35212 2.86595,1.3e-4 5.6775,2.67624 8.48882,5.35212"
           id="path4655" />
        <path
           style="fill:#ff6600;stroke:none;stroke-width:0.26458332px;stroke-linecap:butt;stroke-linejoin:miter;stroke-opacity:1"
           d="m 111.125,110.46875 c 2.77957,3.92198 5.48174,5.31906 8.73125,6.61458"
           id="path4657" />
        <path
           style="fill:#ff6600;stroke:none;stroke-width:0.26458332px;stroke-linecap:butt;stroke-linejoin:miter;stroke-opacity:1"
           d="m 128.32292,110.46875 c -1.04604,3.82945 -4.9192,5.32533 -8.46667,6.61458"
           id="path4659" />
      </g>
      <path
         style="opacity:1;fill:#ff6600;fill-opacity:1;stroke:none;stroke-width:0.26458332"
         id="path4671"
         d="m 78.845833,101.20833 -4.582718,-2.645833 v -5.291666 l 4.582718,-2.645833 4.582717,2.645833 v 5.291666 z" />
      <path
         style="opacity:1;fill:#ff6600;fill-opacity:1;stroke:none;stroke-width:0.26458332"
         id="path4673"
         d="m 83.608335,99.620834 2.319854,-2.397701 0.916543,3.207907 z"
         transform="matrix(0.94729327,-1.274616,1.0295753,1.1727506,-98.356248,87.506876)" />
      <path
         style="opacity:1;fill:#ff6600;fill-opacity:1;stroke:none;stroke-width:0.26458332"
         id="path4675"
         d="m 74.536294,98.196559 -3.844516,-2.340158 3.948894,-2.159369 z"
         transform="matrix(1.141627,0.11210349,-0.08749549,1.2944633,-2.2020547,-37.413635)" />
    </g>
    <path
       transform="scale(0.26458333)"
       id="path4722"
       d="m 457.97263,570.35612 c -18.79507,-2.12161 -40.18257,-11.27811 -71.63974,-30.67068 -8.13959,-5.01787 -8.02372,-4.97631 -9.49602,-3.40625 -1.98328,2.11498 -9.29175,8.28788 -11.94887,10.09229 -7.55689,5.13179 -13.40276,5.68891 -14.83103,1.41342 -1.63872,-4.90546 5.4376,-28.95935 18.84332,-64.05245 9.54282,-24.98091 28.41577,-70.80369 29.41653,-71.42219 0.22811,-0.14098 0.37499,-0.42288 0.3264,-0.62644 -0.0486,-0.20356 0.0318,-0.82849 0.17857,-1.38874 0.14681,-0.56024 0.45269,-8.53609 0.67974,-17.7241 0.63732,-25.79 1.66538,-38.59108 4.07232,-50.7069 4.32594,-21.77558 13.30666,-33.82393 30.11939,-40.40761 16.87389,-6.60764 39.99439,-8.13907 57.78976,-3.82784 20.7168,5.019 32.64507,17.2536 38.14208,39.1216 3.4588,13.75967 4.66657,26.50558 4.98055,52.56114 0.20469,16.98608 0.39447,21.14579 0.94912,20.80299 0.62648,-0.38718 21.06718,49.83231 30.13912,74.04694 11.92704,31.8354 17.56985,50.7662 17.56985,58.9443 0,2.59002 -0.1133,3.01447 -1.03188,3.86578 -3.15357,2.92263 -9.30891,0.77622 -18.04824,-6.29354 -2.16747,-1.75339 -5.03522,-4.30389 -6.3728,-5.66777 -1.33757,-1.36388 -2.56841,-2.47978 -2.7352,-2.47978 -0.16679,0 -5.21474,3.17625 -11.21765,7.05833 -6.00292,3.88209 -13.48133,8.58639 -16.6187,10.45401 -26.52636,15.79064 -49.54126,22.54011 -69.26662,20.31349 z m 19.96508,-32.86866 c 5.28911,-1.14072 8.32959,-2.22946 13.85333,-4.9606 18.43404,-9.11449 30.90578,-28.24854 32.34892,-49.62947 0.94243,-13.9626 -2.58151,-27.3736 -10.20264,-38.82794 -3.0137,-4.52952 -10.61003,-12.34927 -14.86401,-15.30119 l -2.90399,-2.01514 0.75119,-1.40422 c 0.41315,-0.77232 1.12926,-2.38761 1.59134,-3.58952 1.00562,-2.61573 1.41642,-1.9763 -5.09101,-7.92451 -5.72644,-5.23434 -11.15932,-9.40512 -14.87195,-11.41709 -10.91899,-5.91728 -20.15604,-3.88649 -33.81841,7.43508 -3.40229,2.81937 -10.37133,9.1079 -10.53264,9.50415 -0.0784,0.19273 0.9084,1.72266 2.19301,3.39982 1.28461,1.67718 2.26556,3.10249 2.1799,3.16736 -0.0857,0.0649 -1.43922,0.95947 -3.00791,1.98798 -15.62369,10.24371 -25.66261,28.29897 -26.56551,47.77875 -1.32187,28.5191 16.86115,54.02186 43.57738,61.11985 2.07246,0.55061 5.05159,1.17715 6.62027,1.39232 4.35042,0.59669 14.44506,0.21127 18.74273,-0.71563 z m 70.79456,-4.85226 c -1.62471,-0.0773 -4.28333,-0.0773 -5.90804,0 -1.62471,0.0773 -0.2954,0.14062 2.95402,0.14062 3.24942,0 4.57873,-0.0633 2.95402,-0.14062 z m -16.9092,-125.06569 c -0.39218,-0.10248 -1.03391,-0.10248 -1.42608,0 -0.39217,0.10248 -0.0713,0.18634 0.71304,0.18634 0.78434,0 1.10521,-0.0839 0.71304,-0.18634 z"
       style="opacity:1;fill:#333333;fill-opacity:1;stroke:none;stroke-width:0.40745068" />
    <path
       id="rect4846"
       d="m 139.81281,107.16256 h 1.38157 v 1.25205 h -1.38157 z"
       style="opacity:1;fill:#333333;fill-opacity:1;stroke:none;stroke-width:0.26458332" />
    <g
       id="g4877">
      <path
         d="m 133.36974,95.882912 a 3.0704114,3.0704114 0 0 1 -3.05741,3.070384 3.0704114,3.0704114 0 0 1 -3.0833,-3.044394 3.0704114,3.0704114 0 0 1 3.03132,-3.096154 3.0704114,3.0704114 0 0 1 3.10895,3.018185"
         id="path4860"
         style="opacity:1;fill:#e6e6e6;fill-opacity:1;stroke:none;stroke-width:0.26458332" />
      <g
         id="g4864"
         transform="matrix(0.80841168,0,0,1,68.549895,-7.3051882)">
        <path
           style="opacity:1;fill:#000000;fill-opacity:1;stroke:none;stroke-width:0.26458332"
           id="path4862"
           d="m 77.375031,103.39364 a 1.6372987,1.2321938 0 0 1 -1.630369,1.23218 1.6372987,1.2321938 0 0 1 -1.64417,-1.22175 1.6372987,1.2321938 0 0 1 1.616451,-1.24253 1.6372987,1.2321938 0 0 1 1.657853,1.21124" />
      </g>
    </g>
    <g
       transform="matrix(-1,0,0,1,248.68829,0.27470384)"
       id="g4885">
      <path
         style="opacity:1;fill:#e6e6e6;fill-opacity:1;stroke:none;stroke-width:0.26458332"
         id="path4879"
         d="m 133.36974,95.882912 a 3.0704114,3.0704114 0 0 1 -3.05741,3.070384 3.0704114,3.0704114 0 0 1 -3.0833,-3.044394 3.0704114,3.0704114 0 0 1 3.03132,-3.096154 3.0704114,3.0704114 0 0 1 3.10895,3.018185" />
      <g
         transform="matrix(0.80841168,0,0,1,68.549895,-7.3051882)"
         id="g4883">
        <path
           d="m 77.375031,103.39364 a 1.6372987,1.2321938 0 0 1 -1.630369,1.23218 1.6372987,1.2321938 0 0 1 -1.64417,-1.22175 1.6372987,1.2321938 0 0 1 1.616451,-1.24253 1.6372987,1.2321938 0 0 1 1.657853,1.21124"
           id="path4881"
           style="opacity:1;fill:#000000;fill-opacity:1;stroke:none;stroke-width:0.26458332" />
      </g>
    </g>
  </g>
  <g
     id="g334">
    <path
       id="path1072"
       style="font-style:normal;font-variant:normal;font-weight:normal;font-stretch:normal;font-size:18.50840378px;line-height:1.25;font-family:'Sansita One';-inkscape-font-specification:'Sansita One';letter-spacing:0px;word-spacing:0px;fill:#ffffff;fill-opacity:1;stroke:none;stroke-width:0.46271008"
       d="M 95.045924,38.154754 96.936962,23.20446 q 1.77097,-0.228249 2.911597,-0.228249 1.140631,0 1.876031,0.159775 0.7354,0.136948 1.23067,0.524972 0.99054,0.730396 0.99054,2.738985 0,1.164068 -0.66036,2.145538 -0.61533,0.89017 -1.29071,1.095594 0.72041,0.182599 1.23068,1.004295 0.54029,0.867344 0.54029,2.214012 0,2.602036 -1.27569,4.131302 -1.27571,1.506443 -3.782078,1.506443 -1.725941,0 -3.662008,-0.342373 z m 3.331831,-1.323844 q 0.13507,0.02283 0.165089,0.02283 h 0.135069 q 1.230676,0 1.755967,-1.232544 0.39022,-0.958644 0.39022,-2.71616 0,-0.93582 -0.40523,-1.437967 -0.39021,-0.502148 -1.290704,-0.547796 z m 3.031655,-10.408142 q 0,-1.894464 -1.20065,-1.894464 h -0.13507 q -0.06,0 -0.150092,0.02283 l -0.600324,4.816049 h 0.150079 q 1.936057,-0.06847 1.936057,-2.944409 z" />
    <path
       id="path1074"
       style="font-style:normal;font-variant:normal;font-weight:normal;font-stretch:normal;font-size:18.50840378px;line-height:1.25;font-family:'Sansita One';-inkscape-font-specification:'Sansita One';letter-spacing:0px;word-spacing:0px;fill:#ffffff;fill-opacity:1;stroke:none;stroke-width:0.46271008"
       d="m 105.39738,37.584132 q -0.34519,-0.593448 -0.51027,-1.529268 -0.15009,-0.935819 -0.15009,-2.465086 0,-1.529266 0.34519,-2.921584 0.34519,-1.392317 0.97553,-2.396611 1.29072,-2.099889 3.42188,-2.099889 0.76542,0 1.32073,0.388022 l 2.56641,-0.388022 -1.11062,8.901701 q -0.045,0.273899 -0.045,0.776046 0,0.502147 0.19511,0.821695 0.21011,0.319548 0.51027,0.365198 -0.15008,0.776047 -0.70538,1.232544 -0.5403,0.456497 -1.15564,0.456497 -0.61533,0 -1.03557,-0.365198 -0.40521,-0.342373 -0.52528,-0.93582 -0.24014,0.570622 -0.75041,0.93582 -0.51029,0.365198 -1.20066,0.365198 -0.67537,0 -1.23068,-0.273898 -0.5553,-0.273899 -0.9155,-0.867345 z m 3.16674,-9.266899 q -0.16509,0.410847 -0.31517,1.118418 -0.15008,0.684746 -0.40523,2.556386 -0.24013,1.848814 -0.24013,3.172658 0,1.323842 0.13508,1.711865 0.13507,0.388023 0.37521,0.388023 0.48025,0 0.82545,-0.684746 0.36019,-0.707572 0.49526,-1.940115 l 0.79544,-6.687688 q -0.31517,-0.410847 -0.69038,-0.410847 -0.36019,0 -0.58531,0.182598 -0.21012,0.182599 -0.39022,0.593448 z" />
    <path
       id="path1076"
       style="font-style:normal;font-variant:normal;font-weight:normal;font-stretch:normal;font-size:18.50840378px;line-height:1.25;font-family:'Sansita One';-inkscape-font-specification:'Sansita One';letter-spacing:0px;word-spacing:0px;fill:#ffffff;fill-opacity:1;stroke:none;stroke-width:0.46271008"
       d="m 121.50122,28.77373 q 0,0.958645 -0.52529,1.552091 -0.52529,0.593447 -1.38075,0.593447 -0.36021,0 -0.57032,-0.159774 0.16509,-0.593447 0.21011,-1.323843 0.06,-0.753221 0.06,-0.958645 0,-0.958645 -0.43525,-0.958645 -0.30015,0 -0.64535,0.570623 -0.33018,0.570622 -0.61533,1.460791 -0.63035,2.054239 -0.63035,4.131302 0,1.141245 0.28515,1.666217 0.28516,0.502147 0.91551,0.502147 0.87047,0 1.56085,-1.095595 0.19511,-0.342373 0.30017,-0.730395 0.57031,0.456498 0.57031,1.711866 0,1.278192 -0.93051,2.122712 -0.96053,0.867346 -2.49137,0.867346 -3.04666,0 -3.04666,-4.907348 0,-3.583505 1.33572,-5.637744 1.29072,-2.008589 3.66202,-2.008589 2.37129,0 2.37129,2.602036 z" />
    <path
       id="path1078"
       style="font-style:normal;font-variant:normal;font-weight:normal;font-stretch:normal;font-size:18.50840378px;line-height:1.25;font-family:'Sansita One';-inkscape-font-specification:'Sansita One';letter-spacing:0px;word-spacing:0px;fill:#ffffff;fill-opacity:1;stroke:none;stroke-width:0.46271008"
       d="m 125.77223,27.449887 q 0.81044,-1.278193 2.52138,-1.278193 0.94552,0 1.45581,0.776045 0.52528,0.753222 0.52528,2.168364 0,1.392317 -0.52528,2.396611 -0.51029,0.98147 -1.47082,1.392318 0.075,0.456498 0.1801,0.935819 l 0.21012,0.912995 q 0.28516,1.164069 0.51028,1.574917 0.22512,0.410848 0.52529,0.547797 -0.16509,0.935821 -0.76542,1.437967 -0.48027,0.410848 -1.14063,0.410848 -1.93606,0 -2.1912,-4.542151 -0.045,-0.639096 -0.045,-1.278192 0.75041,-0.319548 1.2757,-1.392318 0.52529,-1.072769 0.52529,-2.328137 0,-1.255367 -0.58532,-1.255367 -0.42023,0 -0.75042,0.70757 -0.33017,0.707572 -0.48026,1.91729 l -0.99054,7.714808 -3.03166,0.456497 2.10115,-16.43391 3.01666,-0.456497 -0.3452,2.71616 q -0.22512,1.917289 -0.52528,2.898759 z" />
    <path
       id="path1080"
       style="font-style:normal;font-variant:normal;font-weight:normal;font-stretch:normal;font-size:18.50840378px;line-height:1.25;font-family:'Sansita One';-inkscape-font-specification:'Sansita One';letter-spacing:0px;word-spacing:0px;fill:#ffffff;fill-opacity:1;stroke:none;stroke-width:0.46271008"
       d="m 134.55979,37.013509 q -0.46526,1.711866 -1.95107,1.711866 -0.76542,0 -1.24569,-0.79887 -0.40522,-0.707572 -0.40522,-1.415142 0,-1.848816 0.5553,-5.455146 l 0.55531,-4.428025 3.04667,-0.456498 -0.9155,7.21266 q -0.25514,1.689041 -0.25514,2.282488 0,1.301018 0.61534,1.346667 z m -2.22122,-13.557975 q 0,-0.89017 0.48027,-1.369493 0.49526,-0.479322 1.20065,-0.479322 0.70539,0 1.12562,0.479322 0.43524,0.479323 0.43524,1.369493 0,0.89017 -0.48027,1.346667 -0.46525,0.456497 -1.17064,0.456497 -0.70539,0 -1.15563,-0.456497 -0.43524,-0.456497 -0.43524,-1.346667 z" />
    <path
       id="path1082"
       style="font-style:normal;font-variant:normal;font-weight:normal;font-stretch:normal;font-size:18.50840378px;line-height:1.25;font-family:'Sansita One';-inkscape-font-specification:'Sansita One';letter-spacing:0px;word-spacing:0px;fill:#ffffff;fill-opacity:1;stroke:none;stroke-width:0.46271008"
       d="m 142.17224,38.725375 q -1.81599,0 -1.81599,-2.145538 0.015,-0.593447 0.13507,-1.597742 l 0.27015,-2.099888 q 0.40523,-2.967233 0.40523,-3.629155 0,-1.323842 -0.51029,-1.323842 -0.85547,0 -1.30571,3.400906 l -0.88549,6.938762 -3.01666,0.456497 1.56086,-12.120009 2.46135,-0.433672 -0.24013,2.236837 q 0.70539,-2.236837 2.86657,-2.236837 1.05058,0 1.48582,0.684747 0.45024,0.66192 0.45024,2.168362 0,1.415142 -0.48026,4.72475 -0.22512,1.483616 -0.22512,2.054238 0,0.547797 0.19511,0.867345 0.21011,0.319548 0.51027,0.365198 -0.15008,0.776047 -0.67537,1.232544 -0.51027,0.456497 -1.18565,0.456497 z" />
    <path
       id="path1084"
       style="font-style:normal;font-variant:normal;font-weight:normal;font-stretch:normal;font-size:18.50840378px;line-height:1.25;font-family:'Sansita One';-inkscape-font-specification:'Sansita One';letter-spacing:0px;word-spacing:0px;fill:#ffffff;fill-opacity:1;stroke:none;stroke-width:0.46271008"
       d="m 146.2988,28.72808 q 0.51029,-1.095595 1.27571,-1.825989 0.78042,-0.730397 1.72594,-0.730397 0.94552,0 1.39576,0.456498 l 2.94162,-0.456498 -1.02056,8.764752 q -0.52529,4.473675 -1.6359,6.231191 -1.06558,1.666215 -3.13672,1.666215 -1.57587,0 -2.47636,-0.753221 -0.90049,-0.75322 -0.90049,-2.008588 0,-0.93582 0.46526,-1.483618 0.46525,-0.524971 1.18564,-0.524971 0.63035,0 1.11061,0.433673 0.28516,0.228248 0.42024,0.547796 -0.3452,0.456497 -0.3452,1.209719 0,0.981469 0.60033,0.981469 1.00555,0 1.57587,-3.60633 0.16509,-0.98147 0.30016,-1.962939 -0.67537,1.255368 -2.2062,1.255368 -1.06559,0 -1.68093,-0.776046 -0.61534,-0.776046 -0.61534,-2.602036 0,-1.141243 0.25514,-2.419437 0.25515,-1.301017 0.76542,-2.396611 z m 1.95107,4.884523 q 0,1.552092 0.52529,1.552092 0.3602,0 0.70539,-0.593447 0.27014,-0.479322 0.3752,-1.186894 l 0.76542,-5.865993 q -0.075,-0.02283 -0.15008,-0.06847 -0.15008,-0.09129 -0.34519,-0.09129 -0.9155,0 -1.4558,2.282487 -0.42023,1.780339 -0.42023,3.971528 z" />
    <path
       id="path1086"
       style="font-style:normal;font-variant:normal;font-weight:normal;font-stretch:normal;font-size:18.50840378px;line-height:1.25;font-family:'Sansita One';-inkscape-font-specification:'Sansita One';letter-spacing:0px;word-spacing:0px;fill:#ffffff;fill-opacity:1;stroke:none;stroke-width:0.46271008"
       d="m 163.16336,25.03045 q 0.21012,-0.547796 0.21012,-1.141244 0,-1.049943 -0.42023,-1.049943 -0.64535,0 -0.9155,2.008588 l -0.22512,1.780341 h 1.36574 l -0.09,1.027119 h -1.41077 l -1.35074,10.613567 -3.03166,0.456497 1.44079,-11.070064 h -1.06559 l 0.13507,-1.027119 h 1.05058 l 0.31518,-1.803165 q 0.27014,-1.666217 1.42578,-2.442262 0.84046,-0.547797 2.25124,-0.547797 1.41077,0 2.04111,0.547797 0.63035,0.547796 0.63035,1.278193 0,0.730396 -0.37521,1.186893 -0.37521,0.456497 -0.79543,0.456497 -0.82545,0 -1.18566,-0.273898 z" />
    <path
       id="path1088"
       style="font-style:normal;font-variant:normal;font-weight:normal;font-stretch:normal;font-size:18.50840378px;line-height:1.25;font-family:'Sansita One';-inkscape-font-specification:'Sansita One';letter-spacing:0px;word-spacing:0px;fill:#ffffff;fill-opacity:1;stroke:none;stroke-width:0.46271008"
       d="m 167.94724,37.013509 q -0.46525,1.711866 -1.95107,1.711866 -0.76543,0 -1.24568,-0.79887 -0.40523,-0.707572 -0.40523,-1.415142 0,-1.848816 0.55531,-5.455146 l 0.5553,-4.428025 3.04668,-0.456498 -0.91551,7.21266 q -0.25514,1.689041 -0.25514,2.282488 0,1.301018 0.61534,1.346667 z m -2.22122,-13.557975 q 0,-0.89017 0.48026,-1.369493 0.49528,-0.479322 1.20066,-0.479322 0.70539,0 1.12562,0.479322 0.43524,0.479323 0.43524,1.369493 0,0.89017 -0.48026,1.346667 -0.46526,0.456497 -1.17065,0.456497 -0.70538,0 -1.15563,-0.456497 -0.43524,-0.456497 -0.43524,-1.346667 z" />
    <path
       id="path1090"
       style="font-style:normal;font-variant:normal;font-weight:normal;font-stretch:normal;font-size:18.50840378px;line-height:1.25;font-family:'Sansita One';-inkscape-font-specification:'Sansita One';letter-spacing:0px;word-spacing:0px;fill:#ffffff;fill-opacity:1;stroke:none;stroke-width:0.46271008"
       d="m 172.79818,37.013509 q -0.46525,1.711866 -1.95107,1.711866 -0.75041,0 -1.23067,-0.79887 -0.39022,-0.661922 -0.39022,-1.415142 0,-1.711867 0.52529,-5.455146 l 1.0956,-8.764752 3.04667,-0.456497 -1.45579,11.549386 q -0.25515,1.689041 -0.25515,2.282488 0,1.301018 0.61534,1.346667 z" />
    <path
       id="path1092"
       style="font-style:normal;font-variant:normal;font-weight:normal;font-stretch:normal;font-size:18.50840378px;line-height:1.25;font-family:'Sansita One';-inkscape-font-specification:'Sansita One';letter-spacing:0px;word-spacing:0px;fill:#ffffff;fill-opacity:1;stroke:none;stroke-width:0.46271008"
       d="m 180.1555,34.411473 q 0.37521,0.388023 0.37521,1.255369 0,0.844521 -0.28516,1.392317 -0.28516,0.547797 -0.75041,0.912995 -0.96053,0.753221 -1.9961,0.753221 -1.03557,0 -1.6509,-0.342373 -0.60033,-0.342373 -1.00555,-0.98147 -0.79544,-1.209718 -0.79544,-3.423731 0,-3.446556 1.23068,-5.546444 1.32072,-2.259663 3.61698,-2.259663 1.42578,0 2.13117,0.912995 0.52529,0.684746 0.52529,1.803165 0,4.017178 -4.5625,4.017178 -0.06,0.593446 -0.06,1.095594 0,1.049945 0.30017,1.460792 0.31517,0.388023 0.88549,0.388023 0.57031,0 1.17063,-0.388023 0.61535,-0.410847 0.87048,-1.049945 z m -3.06167,-2.487911 q 1.06557,0 1.68092,-1.004294 0.61533,-0.958644 0.61533,-2.487911 0,-0.524973 -0.13507,-0.798872 -0.12007,-0.296723 -0.37521,-0.296723 -0.25514,0 -0.48026,0.159775 -0.21012,0.136948 -0.43524,0.639096 -0.55531,1.141244 -0.87047,3.788929 z" />
    <path
       id="path1094"
       style="font-style:normal;font-variant:normal;font-weight:normal;font-stretch:normal;font-size:18.50840378px;line-height:1.25;font-family:'Sansita One';-inkscape-font-specification:'Sansita One';letter-spacing:0px;word-spacing:0px;fill:#ffffff;fill-opacity:1;stroke:none;stroke-width:0.46271008"
       d="m 191.40159,37.880855 q -1.33573,0.84452 -2.97163,0.84452 -1.44079,0 -2.41632,-1.141243 -1.06559,-1.209719 -1.06559,-3.355258 0,-3.172657 2.50638,-4.062827 -0.42024,-1.803166 -0.42024,-3.058533 0,-1.255368 0.31518,-2.054239 0.31518,-0.821696 0.85547,-1.346667 1.02056,-0.958645 2.7315,-0.958645 1.18565,0 1.93606,0.684746 0.76542,0.707572 0.76542,1.757515 0,1.186894 -0.5403,1.848815 -0.48026,0.616272 -1.2757,0.616272 -0.46526,0 -0.61533,-0.06847 0.06,-0.502148 0.06,-1.323844 0,-0.821694 -0.1801,-1.369492 -0.18009,-0.570622 -0.48026,-0.570622 -0.5553,0 -0.76542,0.753221 -0.21011,0.730396 -0.21011,1.825991 0,1.072769 0.13507,2.077062 0.15009,0.981471 0.42023,1.940116 0.57032,1.985763 1.48582,3.332431 0.24012,-0.89017 0.27014,-2.282488 0,-1.232543 -0.5553,-1.96294 0.21012,-0.296723 0.61533,-0.479321 0.40523,-0.182599 0.76542,-0.182599 0.79544,0 1.17065,0.730396 0.37521,0.730396 0.37521,1.894464 0,2.077064 -0.97554,3.788929 0.3752,0.159774 0.7204,0.159774 0.75041,0 0.99054,-0.296723 0.12007,0.433672 0.12007,1.004295 0,1.141244 -0.49528,1.620565 -0.48026,0.479323 -1.35074,0.479323 -0.87047,0 -1.92105,-0.84452 z m -3.43689,-5.980118 q -0.33017,0.502148 -0.33017,1.392318 0,0.890169 0.13507,1.460791 0.13507,0.547798 0.34519,0.958645 0.48027,0.89017 1.11061,0.89017 0.57031,0 0.90049,-0.182598 -1.26069,-1.803166 -2.16119,-4.519326 z" />
    <path
       id="path1096"
       style="font-style:normal;font-variant:normal;font-weight:normal;font-stretch:normal;font-size:18.50840378px;line-height:1.25;font-family:'Sansita One';-inkscape-font-specification:'Sansita One';letter-spacing:0px;word-spacing:0px;fill:#ffffff;fill-opacity:1;stroke:none;stroke-width:0.46271008"
       d="m 101.04922,56.683457 q 0.22512,-0.684746 0.22512,-1.323842 0,-0.639097 -0.045,-0.98147 -0.045,-0.365198 -0.15008,-0.639096 -0.22513,-0.593446 -0.67537,-0.593446 -0.555307,0 -1.005552,0.616271 -0.480264,0.639096 -0.480264,1.643391 0,0.639096 0.285156,1.141244 0.300166,0.479321 0.750412,0.935819 0.450248,0.456497 0.960528,0.912996 0.51028,0.456497 0.96052,1.004293 1.03557,1.255368 1.03557,2.944409 0,1.141245 -0.40522,2.122714 -0.39021,0.958645 -1.05058,1.666215 -1.44079,1.552092 -3.346828,1.552092 -1.545851,0 -2.341291,-0.75322 -0.795432,-0.776046 -0.795432,-1.940115 0,-2.077064 1.065587,-2.602036 0.300158,-0.159774 0.750411,-0.159774 0.465255,0 0.99054,0.296724 -0.240128,0.935819 -0.240128,1.78034 0,1.825989 0.855462,1.825989 0.555312,0 1.005557,-0.616272 0.465255,-0.61627 0.465255,-1.301017 0,-0.707571 -0.300167,-1.209718 -0.285156,-0.502148 -0.720392,-0.890171 -0.435244,-0.410847 -0.945519,-0.79887 -0.495274,-0.388023 -0.93051,-0.935819 -1.020558,-1.255369 -1.020558,-3.263958 0,-1.301017 0.420226,-2.305312 0.420234,-1.027119 1.095598,-1.711865 1.350744,-1.392318 3.001649,-1.392318 1.66592,0 2.46135,0.753221 0.81045,0.753221 0.81045,2.031413 0,1.118419 -0.57032,1.825991 -0.49527,0.593446 -1.0956,0.593446 -0.60033,0 -1.02056,-0.228249 z" />
    <path
       id="path1098"
       style="font-style:normal;font-variant:normal;font-weight:normal;font-stretch:normal;font-size:18.50840378px;line-height:1.25;font-family:'Sansita One';-inkscape-font-specification:'Sansita One';letter-spacing:0px;word-spacing:0px;fill:#ffffff;fill-opacity:1;stroke:none;stroke-width:0.46271008"
       d="m 110.397,67.685047 q -1.81599,0 -1.81599,-2.145538 0.015,-0.593447 0.13507,-1.597741 l 0.27015,-2.099889 q 0.40522,-2.967233 0.40522,-3.629155 0,-1.323842 -0.51028,-1.323842 -0.85547,0 -1.30571,3.400906 l -0.88549,6.938762 -3.01666,0.456497 1.56086,-12.120009 2.46135,-0.433672 -0.24013,2.236837 q 0.70538,-2.236837 2.86657,-2.236837 1.05057,0 1.48582,0.684747 0.45024,0.661921 0.45024,2.168362 0,1.415142 -0.48026,4.72475 -0.22513,1.483616 -0.22513,2.054238 0,0.547797 0.19511,0.867346 0.21012,0.319547 0.51028,0.365197 -0.15008,0.776047 -0.67537,1.232544 -0.51028,0.456497 -1.18565,0.456497 z" />
    <path
       id="path1100"
       style="font-style:normal;font-variant:normal;font-weight:normal;font-stretch:normal;font-size:18.50840378px;line-height:1.25;font-family:'Sansita One';-inkscape-font-specification:'Sansita One';letter-spacing:0px;word-spacing:0px;fill:#ffffff;fill-opacity:1;stroke:none;stroke-width:0.46271008"
       d="m 114.10334,66.543804 q -0.3452,-0.593448 -0.51029,-1.529267 -0.15008,-0.93582 -0.15008,-2.465087 0,-1.529266 0.34519,-2.921584 0.34519,-1.392316 0.97554,-2.396611 1.2907,-2.099889 3.42187,-2.099889 0.76542,0 1.32072,0.388024 l 2.56641,-0.388024 -1.1106,8.901701 q -0.045,0.273899 -0.045,0.776046 0,0.502147 0.19511,0.821696 0.21012,0.319547 0.51028,0.365197 -0.15008,0.776047 -0.70539,1.232544 -0.54029,0.456497 -1.15563,0.456497 -0.61534,0 -1.03557,-0.365198 -0.40522,-0.342373 -0.52529,-0.935819 -0.24012,0.570621 -0.75041,0.935819 -0.51028,0.365198 -1.20065,0.365198 -0.67538,0 -1.23068,-0.273898 -0.5553,-0.273899 -0.9155,-0.867345 z m 3.16673,-9.266899 q -0.16509,0.410847 -0.31518,1.118419 -0.15007,0.684746 -0.40521,2.556386 -0.24014,1.848813 -0.24014,3.172657 0,1.323842 0.13508,1.711865 0.13507,0.388023 0.3752,0.388023 0.48027,0 0.82546,-0.684746 0.36019,-0.707572 0.49527,-1.940114 l 0.79543,-6.687689 q -0.31517,-0.410847 -0.69037,-0.410847 -0.36021,0 -0.58532,0.182598 -0.21012,0.182599 -0.39022,0.593448 z" />
    <path
       id="path1102"
       style="font-style:normal;font-variant:normal;font-weight:normal;font-stretch:normal;font-size:18.50840378px;line-height:1.25;font-family:'Sansita One';-inkscape-font-specification:'Sansita One';letter-spacing:0px;word-spacing:0px;fill:#ffffff;fill-opacity:1;stroke:none;stroke-width:0.46271008"
       d="m 129.89058,65.676458 q -0.63034,0.958645 -1.50082,1.483618 -0.85547,0.524971 -1.71094,0.524971 -0.85547,0 -1.15564,-0.228248 l -0.46525,3.880228 -3.04667,0.456498 2.07114,-16.205661 2.44634,-0.388023 -0.19511,1.574916 q 0.63035,-1.620566 1.93606,-1.620566 1.47081,0 2.25124,1.437968 0.69038,1.301017 0.69038,3.286781 0,1.985764 -0.34519,3.400906 -0.34519,1.415143 -0.97554,2.396612 z m -4.1873,0.273898 q 0.31518,0.410848 0.70539,0.410848 0.39022,0 0.61534,-0.228249 0.22512,-0.228248 0.39021,-0.684746 0.45026,-1.232543 0.81045,-4.975822 0.10506,-1.095594 0.10506,-2.168363 0,-1.072769 -0.1651,-1.415142 -0.15007,-0.342373 -0.45024,-0.342373 -0.9155,0 -1.21567,2.71616 z" />
    <path
       id="path1104"
       style="font-style:normal;font-variant:normal;font-weight:normal;font-stretch:normal;font-size:18.50840378px;line-height:1.25;font-family:'Sansita One';-inkscape-font-specification:'Sansita One';letter-spacing:0px;word-spacing:0px;fill:#ffffff;fill-opacity:1;stroke:none;stroke-width:0.46271008"
       d="m 136.58847,59.217019 q 0.21012,-0.844521 0.21012,-1.574917 0,-1.346668 -0.72039,-1.346668 -0.37521,0 -0.69038,0.524973 -0.30017,0.502148 -0.30017,1.141244 0,0.456497 0.24014,0.821695 0.34518,0.502147 1.23067,1.323843 0.88548,0.821695 1.21567,1.506441 0.34519,0.661922 0.34519,1.597742 0,0.912995 -0.30017,1.757515 -0.28516,0.844521 -0.81044,1.437967 -1.12562,1.278193 -2.92661,1.278193 -0.97554,0 -1.72595,-0.776046 -0.75041,-0.75322 -0.75041,-1.643391 0,-0.89017 0.42023,-1.415142 0.43524,-0.524972 1.06558,-0.524972 0.63036,0 1.02057,0.365198 -0.19511,0.753222 -0.19511,1.255368 0,1.506442 0.84046,1.506442 0.3602,0 0.60033,-0.342373 0.24013,-0.342373 0.24013,-0.935821 0,-1.164067 -1.2907,-2.396611 -1.05058,-1.049945 -1.29072,-1.460792 -0.40521,-0.730396 -0.40521,-1.643391 0,-0.912995 0.28515,-1.78034 0.28516,-0.867346 0.81045,-1.483617 1.09559,-1.278193 3.00164,-1.278193 0.97554,0 1.54585,0.593447 0.58532,0.593447 0.58532,1.597742 0,1.004293 -0.40522,1.574915 -0.39021,0.570622 -1.11061,0.570622 -0.49527,0 -0.73541,-0.251073 z" />
    <path
       id="path1106"
       style="font-style:normal;font-variant:normal;font-weight:normal;font-stretch:normal;font-size:18.50840378px;line-height:1.25;font-family:'Sansita One';-inkscape-font-specification:'Sansita One';letter-spacing:0px;word-spacing:0px;fill:#ffffff;fill-opacity:1;stroke:none;stroke-width:0.46271008"
       d="m 146.94908,64.694989 q 0,1.004294 0.67538,1.301017 -0.1651,0.844521 -0.81045,1.301018 -0.5403,0.388023 -1.14063,0.388023 -0.58532,0 -0.90049,-0.251074 -0.30017,-0.228249 -0.46525,-0.616272 -0.27015,-0.593446 -0.27015,-1.711865 0,-0.66192 0.24013,-2.487911 l 0.21011,-1.73469 q 0.25514,-1.985765 0.25514,-2.716161 0,-1.278192 -0.46525,-1.278192 -0.58533,0 -0.96053,1.301018 -0.15008,0.502147 -0.25514,1.255367 l -1.02056,7.783283 -3.01665,0.456497 2.11615,-16.43391 3.01666,-0.456497 -0.12006,0.912995 q -0.42024,3.51503 -0.78043,4.701924 0.84046,-1.278193 2.38631,-1.278193 1.63589,0 1.93606,1.643391 0.10506,0.524972 0.10506,0.98147 0,0.456497 -0.03,0.821696 -0.015,0.342373 -0.0901,0.981469 l -0.1951,1.643391 -0.34519,2.579211 q -0.075,0.524972 -0.075,0.912995 z" />
    <path
       id="path1108"
       style="font-style:normal;font-variant:normal;font-weight:normal;font-stretch:normal;font-size:18.50840378px;line-height:1.25;font-family:'Sansita One';-inkscape-font-specification:'Sansita One';letter-spacing:0px;word-spacing:0px;fill:#ffffff;fill-opacity:1;stroke:none;stroke-width:0.46271008"
       d="m 152.11051,67.685047 q -3.30182,0 -3.30182,-4.724749 0,-3.355256 1.21567,-5.523619 1.29071,-2.305313 3.52694,-2.305313 1.62089,0 2.44634,1.141244 0.82545,1.141243 0.82545,3.537856 0,3.651979 -1.2907,5.774693 -1.2607,2.099888 -3.42188,2.099888 z m 0.39021,-9.92882 q -0.1801,0.616271 -0.33018,1.552092 -0.13507,0.912994 -0.31517,2.373787 -0.1801,1.460791 -0.1801,3.263956 0,0.593447 0.12006,0.98147 0.13508,0.388023 0.48026,0.388023 0.3452,0 0.55531,-0.251074 0.22512,-0.251073 0.39021,-0.844521 0.30017,-1.049943 0.54031,-2.990058 0.24012,-1.962939 0.25513,-2.807459 0.03,-0.84452 0.03,-1.460792 0,-0.639096 -0.12006,-1.049945 -0.12007,-0.410847 -0.46526,-0.410847 -0.33018,0 -0.5553,0.319548 -0.22513,0.319548 -0.40523,0.93582 z" />
    <path
       id="path1110"
       style="font-style:normal;font-variant:normal;font-weight:normal;font-stretch:normal;font-size:18.50840378px;line-height:1.25;font-family:'Sansita One';-inkscape-font-specification:'Sansita One';letter-spacing:0px;word-spacing:0px;fill:#ffffff;fill-opacity:1;stroke:none;stroke-width:0.46271008"
       d="m 157.96067,64.946062 q 0,-0.616272 0.21012,-2.168363 l 0.79543,-6.162716 h -0.88548 l 0.06,-0.684746 q 1.80099,-0.821696 3.54194,-2.830284 h 0.7204 l -0.36019,2.487911 h 1.17063 l -0.13507,1.027119 h -1.15563 l -0.76542,6.162716 q -0.19511,1.415142 -0.19511,1.894465 0,1.095594 0.63034,1.323842 -0.15008,0.776047 -0.69037,1.232544 -0.5403,0.456497 -1.30572,0.456497 -0.76542,0 -1.20066,-0.730396 -0.43524,-0.730396 -0.43524,-2.008589 z" />
    <path
       id="path1112"
       style="font-style:normal;font-variant:normal;font-weight:normal;font-stretch:normal;font-size:18.50840378px;line-height:1.25;font-family:'Sansita One';-inkscape-font-specification:'Sansita One';letter-spacing:0px;word-spacing:0px;fill:#ffffff;fill-opacity:1;stroke:none;stroke-width:0.46271008"
       d="m 169.82327,65.973182 q -0.46525,1.711865 -1.95107,1.711865 -0.76542,0 -1.24568,-0.79887 -0.40523,-0.707572 -0.40523,-1.415142 0,-1.848815 0.55531,-5.455146 l 0.5553,-4.428025 3.04667,-0.456498 -0.9155,7.21266 q -0.25514,1.689041 -0.25514,2.282488 0,1.301018 0.61534,1.346668 z m -2.22122,-13.557976 q 0,-0.89017 0.48026,-1.369493 0.49528,-0.479322 1.20067,-0.479322 0.70538,0 1.12561,0.479322 0.43524,0.479323 0.43524,1.369493 0,0.89017 -0.48027,1.346668 -0.46525,0.456498 -1.17063,0.456498 -0.70539,0 -1.15564,-0.456498 -0.43524,-0.456498 -0.43524,-1.346668 z" />
    <path
       id="path1114"
       style="font-style:normal;font-variant:normal;font-weight:normal;font-stretch:normal;font-size:18.50840378px;line-height:1.25;font-family:'Sansita One';-inkscape-font-specification:'Sansita One';letter-spacing:0px;word-spacing:0px;fill:#ffffff;fill-opacity:1;stroke:none;stroke-width:0.46271008"
       d="m 177.43573,67.685047 q -1.816,0 -1.816,-2.145538 0.015,-0.593447 0.13508,-1.597741 l 0.27014,-2.099889 q 0.40522,-2.967233 0.40522,-3.629155 0,-1.323842 -0.51027,-1.323842 -0.85547,0 -1.30572,3.400906 l -0.88549,6.938762 -3.01665,0.456497 1.56086,-12.120009 2.46134,-0.433672 -0.24013,2.236837 q 0.70538,-2.236837 2.86658,-2.236837 1.05057,0 1.48581,0.684747 0.45025,0.661921 0.45025,2.168362 0,1.415142 -0.48027,4.72475 -0.22512,1.483616 -0.22512,2.054238 0,0.547797 0.1951,0.867346 0.21012,0.319547 0.51029,0.365197 -0.15008,0.776047 -0.67538,1.232544 -0.51027,0.456497 -1.18564,0.456497 z" />
    <path
       id="path1116"
       style="font-style:normal;font-variant:normal;font-weight:normal;font-stretch:normal;font-size:18.50840378px;line-height:1.25;font-family:'Sansita One';-inkscape-font-specification:'Sansita One';letter-spacing:0px;word-spacing:0px;fill:#ffffff;fill-opacity:1;stroke:none;stroke-width:0.46271008"
       d="m 96.966981,94.818621 q 0.525285,0.433673 1.305715,0.433673 0.780423,0 1.425784,-0.707571 0.66036,-0.730396 1.12562,-2.054239 0.96052,-2.80746 0.96052,-7.326785 0,-2.875934 -0.85546,-2.875934 -0.45026,0 -0.88549,0.753221 -0.435239,0.753221 -0.780434,1.962939 -0.750411,2.76181 -0.750411,6.002943 0,0.66192 0.210117,1.072768 0.210117,0.388023 0.585323,0.388023 -0.06001,0.707571 -0.465255,1.209719 -0.405225,0.502147 -0.915508,0.502147 -1.215667,0 -1.84601,-1.141245 -0.615334,-1.164067 -0.615334,-3.241131 0,-2.099889 0.420226,-3.743279 0.420235,-1.643391 1.155637,-2.830285 0.735402,-1.209719 1.740951,-1.894465 1.020558,-0.684746 2.221228,-0.684746 4.0222,0 4.0222,5.957293 0,4.291075 -1.35074,6.915936 -1.35074,2.647686 -3.692024,2.967234 1.380754,0.456497 2.776524,0.456497 1.09559,0 1.90604,-0.707571 0.22512,-0.205424 0.31517,-0.433673 0.45025,0.616272 0.45025,1.825991 0,1.232542 -0.7204,1.940114 -0.70538,0.707575 -2.10114,0.707575 -1.38077,0 -2.986648,-0.981474 -1.605881,-0.981469 -2.986636,-2.807459 z" />
    <path
       id="path1118"
       style="font-style:normal;font-variant:normal;font-weight:normal;font-stretch:normal;font-size:18.50840378px;line-height:1.25;font-family:'Sansita One';-inkscape-font-specification:'Sansita One';letter-spacing:0px;word-spacing:0px;fill:#ffffff;fill-opacity:1;stroke:none;stroke-width:0.46271008"
       d="m 111.827,92.33071 q 0.37521,0.388023 0.37521,1.255368 0,0.84452 -0.28516,1.392318 -0.28515,0.547796 -0.75041,0.912994 -0.96053,0.753221 -1.99609,0.753221 -1.03557,0 -1.65091,-0.342373 -0.60033,-0.342373 -1.00555,-0.981469 -0.79544,-1.209719 -0.79544,-3.423732 0,-3.446556 1.23068,-5.546444 1.32072,-2.259663 3.61698,-2.259663 1.42578,0 2.13117,0.912995 0.52529,0.684746 0.52529,1.803165 0,4.017178 -4.5625,4.017178 -0.06,0.593447 -0.06,1.095595 0,1.049943 0.30017,1.46079 0.31518,0.388024 0.88549,0.388024 0.57031,0 1.17064,-0.388024 0.61534,-0.410847 0.87048,-1.049943 z m -3.06167,-2.487911 q 1.06558,0 1.68092,-1.004295 0.61533,-0.958645 0.61533,-2.487911 0,-0.524972 -0.13507,-0.798871 -0.12006,-0.296723 -0.3752,-0.296723 -0.25515,0 -0.48027,0.159774 -0.21011,0.136949 -0.43524,0.639097 -0.5553,1.141243 -0.87047,3.788929 z" />
    <path
       id="path1120"
       style="font-style:normal;font-variant:normal;font-weight:normal;font-stretch:normal;font-size:18.50840378px;line-height:1.25;font-family:'Sansita One';-inkscape-font-specification:'Sansita One';letter-spacing:0px;word-spacing:0px;fill:#ffffff;fill-opacity:1;stroke:none;stroke-width:0.46271008"
       d="m 124.52772,96.644611 q -1.816,0 -1.816,-2.145538 0,-0.93582 0.25514,-2.738985 0.27015,-1.825989 0.3602,-2.556385 0.21012,-1.666217 0.21012,-2.191189 0,-1.164069 -0.57032,-1.164069 -0.3752,0 -0.7354,0.798871 -0.3602,0.776046 -0.52528,2.350962 l -0.93052,7.189835 -2.9266,0.456498 0.81044,-6.208366 q 0.13508,-1.027119 0.25514,-2.191187 0.12007,-1.164069 0.12007,-1.346668 0,-1.049945 -0.51029,-1.049945 -0.34518,0 -0.72039,0.776046 -0.3752,0.776046 -0.58532,2.373787 l -0.9155,7.189835 -2.95663,0.456498 1.57587,-12.097184 2.44635,-0.456497 -0.25515,2.305313 q 0.39021,-1.232544 1.11062,-1.757516 0.72039,-0.547797 1.846,-0.547797 0.64536,0 1.06559,0.479323 0.42023,0.479322 0.55531,1.255368 0.25513,-0.798871 0.90049,-1.255368 0.66036,-0.479323 1.4558,-0.479323 0.81044,0 1.20066,0.273899 0.40522,0.251073 0.64535,0.684746 0.40522,0.79887 0.40522,2.259662 0,1.437968 -0.40522,4.428026 -0.21012,1.460792 -0.21012,2.008589 0,0.524972 0.19511,0.844521 0.21012,0.319548 0.51028,0.365197 -0.15008,0.776046 -0.67537,1.232543 -0.51028,0.456498 -1.18565,0.456498 z" />
    <path
       id="path1122"
       style="font-style:normal;font-variant:normal;font-weight:normal;font-stretch:normal;font-size:18.50840378px;line-height:1.25;font-family:'Sansita One';-inkscape-font-specification:'Sansita One';letter-spacing:0px;word-spacing:0px;fill:#ffffff;fill-opacity:1;stroke:none;stroke-width:0.46271008"
       d="m 132.37515,95.229469 q -0.7204,1.415142 -2.50638,1.415142 -0.93051,0 -1.60588,-0.844521 -0.67536,-0.867344 -0.67536,-2.099888 0,-0.684746 0.045,-1.027119 l 1.00555,-8.125656 3.04667,-0.456497 -1.09559,8.810402 q -0.06,0.502147 -0.06,0.79887 0,1.323844 0.52529,1.323844 0.58533,0 1.00555,-1.209719 0.13508,-0.388024 0.19511,-0.890171 l 1.06559,-8.376729 2.95661,-0.456497 -1.1106,8.901702 q -0.045,0.342373 -0.045,0.70757 0,0.365199 0.13507,0.776046 0.13508,0.388023 0.57031,0.479322 -0.09,0.547797 -0.40522,0.912996 -0.66036,0.776045 -1.38075,0.776045 -0.70539,0 -1.12562,-0.388023 -0.42024,-0.388022 -0.5403,-1.027119 z" />
    <path
       id="path1124"
       style="font-style:normal;font-variant:normal;font-weight:normal;font-stretch:normal;font-size:18.50840378px;line-height:1.25;font-family:'Sansita One';-inkscape-font-specification:'Sansita One';letter-spacing:0px;word-spacing:0px;fill:#ffffff;fill-opacity:1;stroke:none;stroke-width:0.46271008"
       d="m 139.06648,99.58902 q 0,-0.410848 0.13507,-1.004294 l 4.90769,-20.610862 q 0.27015,-0.06848 0.79544,-0.06848 0.5403,0 0.85547,0.228249 0.33018,0.205423 0.33018,0.867345 0,0.570622 -0.24013,1.620566 l -4.77262,20.040236 q -0.12006,0.0913 -0.82545,0.0913 -1.18565,0 -1.18565,-1.164071 z" />
    <path
       id="path1126"
       style="font-style:normal;font-variant:normal;font-weight:normal;font-stretch:normal;font-size:18.50840378px;line-height:1.25;font-family:'Sansita One';-inkscape-font-specification:'Sansita One';letter-spacing:0px;word-spacing:0px;fill:#ffffff;fill-opacity:1;stroke:none;stroke-width:0.46271008"
       d="m 148.58638,96.188113 1.71094,-13.877523 0.16509,-1.186893 h 3.21176 l -1.89104,15.064416 z m 9.2901,-1.346667 q -0.40522,1.803165 -1.96608,1.803165 -1.15563,0 -1.95107,-2.099888 -0.81044,-2.099889 -0.96053,-5.52362 1.65091,-4.5878 2.79154,-6.482264 1.09559,-1.803165 2.23622,-1.803165 0.61534,0 1.05058,0.502147 0.45024,0.502148 0.5553,1.301018 -0.51028,0.319548 -0.75041,0.570622 -0.60033,0.684746 -1.41077,2.214012 l -1.36576,2.487912 q -0.33017,0.593446 -0.46525,0.867345 0.22513,1.917289 0.9005,3.811754 0.64535,1.803166 1.33573,2.350962 z" />
    <path
       id="path1128"
       style="font-style:normal;font-variant:normal;font-weight:normal;font-stretch:normal;font-size:18.50840378px;line-height:1.25;font-family:'Sansita One';-inkscape-font-specification:'Sansita One';letter-spacing:0px;word-spacing:0px;fill:#ffffff;fill-opacity:1;stroke:none;stroke-width:0.46271008"
       d="m 159.53207,82.036692 q 0.43525,-1.369492 1.6359,-1.369492 1.21567,0 1.77097,1.072769 0.57032,1.049943 0.57032,3.492204 v 8.14848 l 3.64699,-12.234132 h 1.78598 l -4.66755,15.041592 h -3.51193 l -0.45025,-10.95594 q -0.045,-1.209717 -0.27015,-2.031413 -0.21011,-0.821695 -0.51028,-1.164068 z" />
    <path
       id="path1130"
       style="font-style:normal;font-variant:normal;font-weight:normal;font-stretch:normal;font-size:18.50840378px;line-height:1.25;font-family:'Sansita One';-inkscape-font-specification:'Sansita One';letter-spacing:0px;word-spacing:0px;fill:#ffffff;fill-opacity:1;stroke:none;stroke-width:0.46271008"
       d="m 167.76432,96.188113 2.7165,-15.064416 h 3.13671 l 0.69039,8.604977 2.79152,-8.604977 h 2.62644 l 0.27015,11.275487 q 0.06,2.236839 0.78043,2.921585 -0.16509,0.456497 -0.64535,0.89017 -0.48026,0.433672 -1.12562,0.433672 -0.63034,0 -1.00555,-0.273899 -0.3752,-0.273897 -0.58532,-0.730396 -0.37521,-0.821695 -0.37521,-2.396611 v -7.052887 l -2.95662,9.997295 h -1.86102 l -1.05058,-10.248368 -1.68092,10.248368 z" />
  </g>
</svg>
