<?xml version="1.0" encoding="UTF-8" standalone="no"?>
<svg
   xmlns:osb="http://www.openswatchbook.org/uri/2009/osb"
   xmlns:dc="http://purl.org/dc/elements/1.1/"
   xmlns:cc="http://creativecommons.org/ns#"
   xmlns:rdf="http://www.w3.org/1999/02/22-rdf-syntax-ns#"
   xmlns:svg="http://www.w3.org/2000/svg"
   xmlns="http://www.w3.org/2000/svg"
   xmlns:xlink="http://www.w3.org/1999/xlink"
   id="svg3357"
   version="1.1"
   viewBox="0 0 444.49999 277.8125"
   height="277.8125mm"
   width="444.5mm">
  <defs
     id="defs3351">
    <linearGradient
       id="linearGradient950">
      <stop
         id="stop946"
         offset="0"
         style="stop-color:#1da1f2;stop-opacity:1;" />
      <stop
         style="stop-color:#42aeef;stop-opacity:1"
         offset="0"
         id="stop954" />
      <stop
         id="stop948"
         offset="1"
         style="stop-color:#149df1;stop-opacity:1" />
    </linearGradient>
    <linearGradient
       osb:paint="solid"
       id="linearGradient4115">
      <stop
         id="stop4113"
         offset="0"
         style="stop-color:#000000;stop-opacity:1;" />
    </linearGradient>
    <linearGradient
       id="linearGradient6114">
      <stop
         id="stop6110"
         offset="0"
         style="stop-color:#6f7c91;stop-opacity:1;" />
      <stop
         id="stop6112"
         offset="1"
         style="stop-color:#162d50;stop-opacity:1" />
    </linearGradient>
    <radialGradient
       gradientUnits="userSpaceOnUse"
       gradientTransform="matrix(3.0071285,0,0,1.83657,-125.12732,-58.151445)"
       r="31.67275"
       fy="66.986313"
       fx="73.77433"
       cy="66.986313"
       cx="73.77433"
       id="radialGradient6126"
       xlink:href="#linearGradient6114" />
    <filter
       height="2.7018473"
       y="-0.85092366"
       width="2.3347821"
       x="-0.66739112"
       id="filter1602"
       style="color-interpolation-filters:sRGB">
      <feGaussianBlur
         id="feGaussianBlur1604"
         stdDeviation="9.6438014" />
    </filter>
    <filter
       height="2.7018473"
       y="-0.85092366"
       width="2.8457036"
       x="-0.9228518"
       id="filter1606"
       style="color-interpolation-filters:sRGB">
      <feGaussianBlur
         id="feGaussianBlur1608"
         stdDeviation="9.6438014" />
    </filter>
    <filter
       height="2.6603389"
       y="-0.83016944"
       width="2.5723588"
       x="-0.78617948"
       id="filter1610"
       style="color-interpolation-filters:sRGB">
      <feGaussianBlur
         id="feGaussianBlur1612"
         stdDeviation="9.6438014" />
    </filter>
    <filter
       height="2.1561"
       y="-0.57805002"
       width="3.4727695"
       x="-1.2363847"
       id="filter1614"
       style="color-interpolation-filters:sRGB">
      <feGaussianBlur
         id="feGaussianBlur1616"
         stdDeviation="9.6438014" />
    </filter>
    <filter
       height="3.1041021"
       y="-1.0520511"
       width="2.9987154"
       x="-0.99935764"
       id="filter1618"
       style="color-interpolation-filters:sRGB">
      <feGaussianBlur
         id="feGaussianBlur1620"
         stdDeviation="9.6438014" />
    </filter>
    <filter
       height="3.1041021"
       y="-1.0520511"
       width="2.3317101"
       x="-0.66585511"
       id="filter1622"
       style="color-interpolation-filters:sRGB">
      <feGaussianBlur
         id="feGaussianBlur1624"
         stdDeviation="9.6438014" />
    </filter>
    <filter
       height="3.1041021"
       y="-1.0520511"
       width="3.3145123"
       x="-1.1572562"
       id="filter1626"
       style="color-interpolation-filters:sRGB">
      <feGaussianBlur
         id="feGaussianBlur1628"
         stdDeviation="9.6438014" />
    </filter>
    <filter
       height="2.3456466"
       y="-0.67282337"
       width="2.7428558"
       x="-0.87142783"
       id="filter1630"
       style="color-interpolation-filters:sRGB">
      <feGaussianBlur
         id="feGaussianBlur1632"
         stdDeviation="9.6438014" />
    </filter>
    <filter
       height="3.1041021"
       y="-1.0520511"
       width="3.023175"
       x="-1.0115876"
       id="filter1634"
       style="color-interpolation-filters:sRGB">
      <feGaussianBlur
         id="feGaussianBlur1636"
         stdDeviation="9.6438014" />
    </filter>
    <filter
       height="2.5430081"
       y="-0.7715041"
       width="4.7573252"
       x="-1.8786626"
       id="filter1638"
       style="color-interpolation-filters:sRGB">
      <feGaussianBlur
         id="feGaussianBlur1640"
         stdDeviation="9.6438014" />
    </filter>
    <filter
       height="2.8110425"
       y="-0.90552127"
       width="4.3064461"
       x="-1.6532232"
       id="filter1642"
       style="color-interpolation-filters:sRGB">
      <feGaussianBlur
         id="feGaussianBlur1644"
         stdDeviation="9.6438014" />
    </filter>
    <filter
       height="3.1041021"
       y="-1.0520511"
       width="3.1671464"
       x="-1.0835732"
       id="filter1646"
       style="color-interpolation-filters:sRGB">
      <feGaussianBlur
         id="feGaussianBlur1648"
         stdDeviation="9.6438014" />
    </filter>
    <filter
       height="2.5638597"
       y="-0.78192985"
       width="3.0056434"
       x="-1.0028216"
       id="filter1650"
       style="color-interpolation-filters:sRGB">
      <feGaussianBlur
         id="feGaussianBlur1652"
         stdDeviation="9.6438014" />
    </filter>
    <filter
       height="3.1041021"
       y="-1.0520511"
       width="3.4009464"
       x="-1.2004732"
       id="filter1654"
       style="color-interpolation-filters:sRGB">
      <feGaussianBlur
         id="feGaussianBlur1656"
         stdDeviation="9.6438014" />
    </filter>
    <filter
       height="2.5874569"
       y="-0.79372853"
       width="2.887857"
       x="-0.94392848"
       id="filter1658"
       style="color-interpolation-filters:sRGB">
      <feGaussianBlur
         id="feGaussianBlur1660"
         stdDeviation="9.6438014" />
    </filter>
    <filter
       height="3.1041021"
       y="-1.0520511"
       width="3.0126195"
       x="-1.0063097"
       id="filter1662"
       style="color-interpolation-filters:sRGB">
      <feGaussianBlur
         id="feGaussianBlur1664"
         stdDeviation="9.6438014" />
    </filter>
    <filter
       height="3.1041021"
       y="-1.0520511"
       width="3.023175"
       x="-1.0115876"
       id="filter1666"
       style="color-interpolation-filters:sRGB">
      <feGaussianBlur
         id="feGaussianBlur1668"
         stdDeviation="9.6438014" />
    </filter>
    <filter
       height="3.1041021"
       y="-1.0520511"
       width="3.4009464"
       x="-1.2004732"
       id="filter1670"
       style="color-interpolation-filters:sRGB">
      <feGaussianBlur
         id="feGaussianBlur1672"
         stdDeviation="9.6438014" />
    </filter>
    <filter
       height="2.653223"
       y="-0.82661158"
       width="2.6993482"
       x="-0.84967411"
       id="filter1674"
       style="color-interpolation-filters:sRGB">
      <feGaussianBlur
         id="feGaussianBlur1676"
         stdDeviation="9.6438014" />
    </filter>
    <filter
       height="3.104105"
       y="-1.0520525"
       width="3.3145123"
       x="-1.1572562"
       id="filter1678"
       style="color-interpolation-filters:sRGB">
      <feGaussianBlur
         id="feGaussianBlur1680"
         stdDeviation="9.6438014" />
    </filter>
    <filter
       height="2.5638614"
       y="-0.78193063"
       width="4.7210808"
       x="-1.8605405"
       id="filter1682"
       style="color-interpolation-filters:sRGB">
      <feGaussianBlur
         id="feGaussianBlur1684"
         stdDeviation="9.6438014" />
    </filter>
    <filter
       height="2.5430098"
       y="-0.77150488"
       width="4.7573252"
       x="-1.8786626"
       id="filter1686"
       style="color-interpolation-filters:sRGB">
      <feGaussianBlur
         id="feGaussianBlur1688"
         stdDeviation="9.6438014" />
    </filter>
    <filter
       height="2.5638614"
       y="-0.78193063"
       width="3.1117814"
       x="-1.0558907"
       id="filter1690"
       style="color-interpolation-filters:sRGB">
      <feGaussianBlur
         id="feGaussianBlur1692"
         stdDeviation="9.6438014" />
    </filter>
    <filter
       height="2.585284"
       y="-0.792642"
       width="2.8940363"
       x="-0.94701815"
       id="filter1694"
       style="color-interpolation-filters:sRGB">
      <feGaussianBlur
         id="feGaussianBlur1696"
         stdDeviation="9.6438014" />
    </filter>
    <filter
       height="3.104105"
       y="-1.0520525"
       width="3.023175"
       x="-1.0115876"
       id="filter1698"
       style="color-interpolation-filters:sRGB">
      <feGaussianBlur
         id="feGaussianBlur1700"
         stdDeviation="9.6438014" />
    </filter>
    <filter
       height="2.5430098"
       y="-0.77150488"
       width="4.7573252"
       x="-1.8786626"
       id="filter1702"
       style="color-interpolation-filters:sRGB">
      <feGaussianBlur
         id="feGaussianBlur1704"
         stdDeviation="9.6438014" />
    </filter>
    <filter
       height="2.5638614"
       y="-0.78193063"
       width="2.985002"
       x="-0.99250102"
       id="filter1706"
       style="color-interpolation-filters:sRGB">
      <feGaussianBlur
         id="feGaussianBlur1708"
         stdDeviation="9.6438014" />
    </filter>
    <filter
       height="3.104105"
       y="-1.0520525"
       width="3.3569372"
       x="-1.1784686"
       id="filter1710"
       style="color-interpolation-filters:sRGB">
      <feGaussianBlur
         id="feGaussianBlur1712"
         stdDeviation="9.6438014" />
    </filter>
    <filter
       height="3.104105"
       y="-1.0520525"
       width="3.0126195"
       x="-1.0063097"
       id="filter1714"
       style="color-interpolation-filters:sRGB">
      <feGaussianBlur
         id="feGaussianBlur1716"
         stdDeviation="9.6438014" />
    </filter>
    <filter
       height="2.7018492"
       y="-0.85092461"
       width="2.9515281"
       x="-0.97576404"
       id="filter1718"
       style="color-interpolation-filters:sRGB">
      <feGaussianBlur
         id="feGaussianBlur1720"
         stdDeviation="9.6438014" />
    </filter>
    <radialGradient
       gradientUnits="userSpaceOnUse"
       gradientTransform="matrix(2.1026283,0,0,1.3141427,0,60.673695)"
       r="105.70104"
       fy="59.53125"
       fx="105.70104"
       cy="59.53125"
       cx="105.70104"
       id="radialGradient952"
       xlink:href="#linearGradient950" />
    <linearGradient
       xlink:href="#linearGradient1017"
       id="linearGradient1019"
       x1="444.19131"
       y1="139.3998"
       x2="444.5"
       y2="138.90625"
       gradientUnits="userSpaceOnUse" />
    <linearGradient
       id="linearGradient1017">
      <stop
         style="stop-color:#0090e6;stop-opacity:1;"
         offset="0"
         id="stop1013" />
      <stop
         style="stop-color:#0090e6;stop-opacity:0;"
         offset="1"
         id="stop1015" />
    </linearGradient>
    <linearGradient
       gradientUnits="userSpaceOnUse"
       y2="138.90625"
       x2="465.91299"
       y1="139.3998"
       x1="444.19131"
       id="linearGradient1019-3"
       xlink:href="#linearGradient1017"
       gradientTransform="translate(-1.4e-4,4.6e-4)" />
  </defs>
  <metadata
     id="metadata3354">
    <rdf:RDF>
      <cc:Work
         rdf:about="">
        <dc:format>image/svg+xml</dc:format>
        <dc:type
           rdf:resource="http://purl.org/dc/dcmitype/StillImage" />
        <dc:title></dc:title>
      </cc:Work>
    </rdf:RDF>
  </metadata>
  <g
     id="flowRoot985"
     style="font-style:normal;font-weight:normal;font-size:40px;line-height:1.25;font-family:sans-serif;letter-spacing:0px;word-spacing:0px;fill:#000000;fill-opacity:1;stroke:none"
     transform="matrix(0.26458333,0,0,0.26458333,-475.94153,78.05596)" />
  <g
     id="flowRoot993"
     style="font-style:normal;font-weight:normal;font-size:40px;line-height:1.25;font-family:sans-serif;letter-spacing:0px;word-spacing:0px;fill:#000000;fill-opacity:1;stroke:none"
     transform="matrix(0.26458333,0,0,0.26458333,-475.94153,78.05596)" />
  <path
     style="opacity:1;fill:url(#linearGradient1019-3);fill-opacity:1;stroke:none;stroke-width:9.70262432;stroke-miterlimit:4;stroke-dasharray:none;paint-order:stroke markers fill"
     d="M 286.33187,0 H 0 V 277.8125 H 444.49999 V 132.71902 Z"
     id="path1098" />
  <g
     id="flowRoot956"
     style="font-style:normal;font-weight:normal;font-size:40px;line-height:1.25;font-family:sans-serif;letter-spacing:0px;word-spacing:0px;fill:#ffffff;fill-opacity:1;stroke:none"
     transform="matrix(1.1171372,0,0,1.1988182,-1206.171,447.05)"
     aria-label="Backing file &amp; Snapshot in Qemu / KVM">
    <path
       id="path972"
       style="font-style:normal;font-variant:normal;font-weight:bold;font-stretch:normal;font-family:'EB Garamond';-inkscape-font-specification:'EB Garamond Bold';text-align:center;text-anchor:middle;fill:#ffffff"
       d="m 1148.8745,-293.10793 q -0.36,0 -0.6,-0.2 -0.2,-0.16 -0.2,-0.4 0,-0.24 0.2,-0.48 0.24,-0.24 0.68,-0.36 1.44,-0.4 1.96,-0.88 0.56,-0.48 0.56,-1.72 v -18.2 q 0,-1.32 -0.52,-1.84 -0.48,-0.56 -1.92,-0.88 -0.92,-0.16 -0.92,-0.84 0,-0.24 0.24,-0.4 0.24,-0.2 0.6,-0.2 1.36,0 3.04,0.16 0.36,0 1.04,0.08 0.72,0.04 1.36,0.04 0.8,0 2.24,-0.16 2.28,-0.2 3.44,-0.2 4.92,0 7.28,1.4 2.4,1.36 2.4,4.56 0,1.2 -0.56,2.32 -0.52,1.08 -1.44,1.84 -1.24,1.12 -2.92,1.52 -0.16,0.04 -0.16,0.2 0,0.16 0.16,0.2 2.8,0.6 4.6,2 1.8,1.4 1.8,4.48 0,2.04 -0.68,3.36 -0.64,1.32 -1.48,2 -0.84,0.68 -2.04,1.28 -2.68,1.28 -7,1.28 -0.84,0 -2.6,-0.08 -1.84,-0.08 -2.88,-0.08 -1.32,0 -2.84,0.12 -2,0.08 -2.84,0.08 z m 10.36,-14.96 q 1,0 1.8,-0.24 0.84,-0.24 1.6,-0.84 0.48,-0.4 0.88,-1.28 0.4,-0.92 0.4,-2.36 0,-2.52 -1,-3.76 -1,-1.28 -3.16,-1.28 -1.12,0 -1.64,0.44 -0.48,0.4 -0.48,1.24 v 6.68 q 0,0.72 0.48,1.08 0.52,0.32 1.12,0.32 z m 0.84,12.72 q 1.2,0 2.24,-0.72 1.08,-0.72 1.68,-1.96 0.64,-1.24 0.64,-2.76 0,-2.92 -2,-4.6 -0.44,-0.36 -1.28,-0.6 -0.8,-0.28 -1.88,-0.28 -0.72,0 -1.28,0.36 -0.56,0.36 -0.56,0.96 v 7.04 q 0,2.56 2.44,2.56 z" />
    <path
       id="path974"
       style="font-style:normal;font-variant:normal;font-weight:bold;font-stretch:normal;font-family:'EB Garamond';-inkscape-font-specification:'EB Garamond Bold';text-align:center;text-anchor:middle;fill:#ffffff"
       d="m 1177.6327,-292.74793 q -1.6,0 -2.8,-1.08 -1.2,-1.12 -1.2,-2.64 0,-1.36 0.8,-2.24 0.84,-0.92 2.6,-1.68 l 3.56,-1.56 q 0.8,-0.36 0.96,-0.64 0.2,-0.28 0.2,-1.04 l 0.04,-2.28 q 0.04,-1.16 -0.4,-1.8 -0.44,-0.64 -1.32,-0.64 -0.48,0 -1.04,0.24 -0.52,0.2 -0.8,0.48 -0.24,0.28 -0.24,0.84 0,0.28 0.04,0.6 0.04,0.28 0.04,0.56 0,0.4 -1.36,1 -1.32,0.6 -2.2,0.6 -0.32,0 -0.52,-0.24 -0.2,-0.24 -0.2,-0.6 0,-0.64 0.44,-1.24 0.44,-0.6 1.44,-1.44 1.56,-1.28 3.52,-2.16 1.96,-0.88 3.28,-0.88 2.12,0 3.4,1.4 1.28,1.36 1.24,3.64 l -0.2,8.08 q -0.04,0.92 0.32,1.56 0.36,0.64 0.88,0.64 0.76,0 1.32,-0.52 0.12,-0.12 0.24,-0.12 0.2,0 0.32,0.16 0.16,0.12 0.16,0.28 0,0.52 -0.72,1.24 -1.48,1.48 -3.36,1.48 -1.16,0 -2.04,-0.56 -0.88,-0.52 -1.68,-1.72 h -0.08 q -1.32,1.24 -2.4,1.76 -1.04,0.52 -2.24,0.52 z m 2.4,-2.6 q 0.76,0 1.28,-0.6 0.28,-0.44 0.28,-1.04 l 0.12,-2.88 q 0,-0.64 -0.4,-0.64 -0.2,0 -0.48,0.16 -1.28,0.6 -1.8,1.2 -0.48,0.6 -0.48,1.8 0,1.04 0.44,1.52 0.44,0.48 1.04,0.48 z" />
    <path
       id="path976"
       style="font-style:normal;font-variant:normal;font-weight:bold;font-stretch:normal;font-family:'EB Garamond';-inkscape-font-specification:'EB Garamond Bold';text-align:center;text-anchor:middle;fill:#ffffff"
       d="m 1198.4127,-292.74793 q -2.08,0 -3.8,-1.12 -1.72,-1.16 -2.72,-3.12 -0.96,-1.96 -0.96,-4.36 0,-2.56 1.16,-4.64 1.2,-2.12 3.24,-3.36 2.04,-1.24 4.52,-1.24 1.6,0 3,0.56 1.44,0.56 2.44,1.6 0.36,0.36 0.36,0.72 0,0.4 -0.76,1.16 -0.72,0.72 -1.16,0.72 -0.36,0 -0.64,-0.16 -0.24,-0.16 -0.72,-0.56 -1.04,-0.88 -2.12,-1.4 -1.04,-0.56 -1.8,-0.56 -1.56,0 -2.32,1.28 -0.76,1.28 -0.76,4.08 0,2.96 1.36,4.64 1.36,1.68 3.84,1.68 1.16,0 2.04,-0.36 0.88,-0.36 1.88,-1.2 0.12,-0.08 0.32,-0.2 0.2,-0.16 0.36,-0.16 0.48,0 0.48,0.64 0,0.48 -0.32,1.12 -0.44,0.88 -1.48,1.88 -1,1 -2.44,1.68 -1.44,0.68 -3,0.68 z" />
    <path
       id="path978"
       style="font-style:normal;font-variant:normal;font-weight:bold;font-stretch:normal;font-family:'EB Garamond';-inkscape-font-specification:'EB Garamond Bold';text-align:center;text-anchor:middle;fill:#ffffff"
       d="m 1207.5064,-293.18793 q -0.8,0 -0.8,-0.56 0,-0.56 0.92,-0.8 0.88,-0.32 1.2,-0.56 0.32,-0.24 0.32,-1 v -19.2 q 0,-1.28 -0.32,-1.96 -0.32,-0.72 -1.24,-0.92 -0.44,-0.08 -0.44,-0.6 0,-0.52 0.4,-0.6 1.48,-0.28 5.2,-1.64 l 0.92,-0.36 q 0.36,-0.12 0.52,-0.12 0.4,0 0.4,0.48 l -0.08,0.84 -0.16,1.92 0.04,14.96 q 0,0.48 0.36,0.48 0.24,0 0.64,-0.32 1.36,-1.2 2.56,-2.52 1.2,-1.32 1.64,-2 0.08,-0.12 0.2,-0.32 0.16,-0.24 0.16,-0.36 0,-0.24 -0.36,-0.44 -0.32,-0.2 -0.92,-0.28 -0.48,-0.08 -0.48,-0.44 0,-0.56 0.88,-0.56 h 1.96 q 1.08,0 5.76,-0.36 0.44,0 0.44,0.44 0,0.64 -0.92,0.84 -1.44,0.32 -3.44,1.48 -1.04,0.56 -2.24,1.48 -1.2,0.88 -2.08,1.72 -0.2,0.2 -0.2,0.44 0,0.12 0.24,0.44 l 1.52,2 q 2.28,3.12 3.88,4.92 0.6,0.68 1.56,1.28 0.96,0.6 1.68,0.88 0.08,0.04 0.4,0.16 0.32,0.08 0.48,0.24 0.2,0.16 0.2,0.36 0,0.56 -0.88,0.56 -1.8,0 -4.92,-0.08 l -4.08,-0.04 q -0.36,0 -0.6,-0.16 -0.2,-0.16 -0.2,-0.4 0,-0.28 0.2,-0.44 0.24,-0.2 0.68,-0.36 0.64,-0.24 0.68,-0.64 0,-0.2 -0.48,-0.88 l -3.88,-5.36 q -0.08,-0.08 -0.2,-0.08 -0.24,0 -0.24,0.28 v 2.48 2.8 q 0,0.64 0.28,0.96 0.28,0.28 0.92,0.52 0.84,0.32 0.84,0.8 0,0.28 -0.2,0.44 -0.2,0.16 -0.52,0.16 -1.2,0 -2.16,-0.12 -1.2,-0.08 -1.88,-0.08 -0.64,0 -1.92,0.08 -1.08,0.12 -2.24,0.12 z" />
    <path
       id="path980"
       style="font-style:normal;font-variant:normal;font-weight:bold;font-stretch:normal;font-family:'EB Garamond';-inkscape-font-specification:'EB Garamond Bold';text-align:center;text-anchor:middle;fill:#ffffff"
       d="m 1229.4214,-293.18793 q -0.24,0 -0.44,-0.12 -0.2,-0.16 -0.2,-0.4 0,-0.6 0.72,-0.8 1.08,-0.24 1.48,-0.52 0.4,-0.32 0.4,-0.96 v -8.64 q 0,-1.32 -0.4,-1.92 -0.4,-0.6 -1.32,-0.72 -0.24,-0.04 -0.36,-0.24 -0.12,-0.2 -0.12,-0.48 0,-0.24 0.12,-0.44 0.16,-0.2 0.32,-0.24 1.8,-0.32 3.16,-0.88 1.4,-0.56 3.04,-1.36 0.56,-0.32 0.8,-0.32 0.24,0 0.36,0.16 0.16,0.12 0.16,0.32 l -0.16,1.48 q -0.36,3.04 -0.36,4.4 v 8.84 q 0,0.56 0.4,0.88 0.4,0.32 1.52,0.64 0.36,0.12 0.52,0.28 0.2,0.16 0.2,0.48 0,0.52 -0.6,0.52 -0.84,0 -2.44,-0.08 -1.6,-0.08 -2.28,-0.08 -0.68,0 -2.12,0.08 -1.2,0.12 -2.4,0.12 z m 4.4,-19.84 q -1.28,0 -2.2,-0.92 -0.92,-0.92 -0.92,-2.2 0,-1.36 0.92,-2.28 0.92,-0.92 2.2,-0.92 1.36,0 2.28,0.92 0.96,0.92 0.96,2.28 0,1.28 -0.96,2.2 -0.92,0.92 -2.28,0.92 z" />
    <path
       id="path982"
       style="font-style:normal;font-variant:normal;font-weight:bold;font-stretch:normal;font-family:'EB Garamond';-inkscape-font-specification:'EB Garamond Bold';text-align:center;text-anchor:middle;fill:#ffffff"
       d="m 1241.3783,-293.18793 q -0.28,0 -0.56,-0.16 -0.24,-0.16 -0.24,-0.4 0,-0.48 0.92,-0.8 0.8,-0.24 1.16,-0.52 0.36,-0.28 0.36,-1 v -9.16 q 0,-2 -1.24,-2.24 -0.44,-0.08 -0.44,-0.72 0,-0.56 0.4,-0.68 1.4,-0.32 3.04,-0.88 1.64,-0.56 2.72,-1.12 0.52,-0.32 0.72,-0.32 0.36,0 0.36,0.48 l -0.08,0.8 q -0.12,1.44 -0.12,1.48 0,0.52 0.08,0.6 1.48,-1.4 2.84,-2.08 1.4,-0.68 3.16,-0.68 2.16,0 3.52,1.56 1.4,1.56 1.4,4.16 v 8.8 q 0,0.72 0.36,1 0.36,0.28 1.16,0.52 0.8,0.28 0.8,0.8 0,0.24 -0.2,0.4 -0.2,0.16 -0.48,0.16 -1.2,0 -2.28,-0.12 -1.28,-0.08 -1.96,-0.08 -0.68,0 -1.96,0.08 -1,0.12 -2.24,0.12 -0.28,0 -0.48,-0.16 -0.2,-0.16 -0.2,-0.4 0,-0.52 0.8,-0.8 0.76,-0.24 1.08,-0.52 0.32,-0.28 0.32,-1 v -7.96 q 0,-1.52 -0.68,-2.36 -0.68,-0.88 -1.88,-0.92 -0.84,0 -1.52,0.28 -0.68,0.24 -1.44,0.76 -0.32,0.28 -0.32,0.76 v 9.44 q 0,0.72 0.32,1 0.32,0.24 1.12,0.52 0.8,0.28 0.8,0.8 0,0.24 -0.2,0.4 -0.2,0.16 -0.48,0.16 -1.2,0 -2.16,-0.12 -1.28,-0.08 -1.92,-0.08 -0.68,0 -2.04,0.08 -1.08,0.12 -2.32,0.12 z" />
    <path
       id="path984"
       style="font-style:normal;font-variant:normal;font-weight:bold;font-stretch:normal;font-family:'EB Garamond';-inkscape-font-specification:'EB Garamond Bold';text-align:center;text-anchor:middle;fill:#ffffff"
       d="m 1281.9945,-309.66793 q 0.28,0 0.44,0.24 0.2,0.24 0.2,0.64 0,0.28 -0.16,0.72 -0.16,0.4 -0.36,0.72 -0.24,0.28 -0.52,0.28 h -1.08 q -1,0 -1.4,0.32 -0.16,0.2 -0.2,0.56 0,0.32 0,1.32 0,2.08 -1.08,3.84 -1.04,1.76 -2.84,2.84 -1.8,1.04 -3.88,1.04 -1.24,0 -2.68,-0.52 -0.36,0.24 -0.6,0.56 -0.2,0.28 -0.2,0.52 0,0.64 1.2,0.96 1.2,0.32 4.48,0.56 4.32,0.32 6.28,1.32 1.96,1 1.96,2.88 0,2.16 -1.56,4.28 -1.56,2.12 -4.04,3.48 -2.44,1.36 -4.92,1.36 -3.88,0 -6.08,-1.24 -2.2,-1.2 -2.2,-3.32 0,-1.28 0.28,-2 0.32,-0.68 1.28,-1.4 0.64,-0.44 1.36,-1 0.72,-0.52 1,-0.76 -2.84,-1.12 -2.84,-3.64 0,-0.88 1.08,-1.56 1.72,-1.28 2.12,-1.68 -1.48,-0.92 -2.4,-2.32 -0.88,-1.44 -0.88,-3.12 0,-1.96 1.12,-3.52 1.12,-1.56 2.96,-2.44 1.88,-0.88 4,-0.88 1.2,0 3.04,0.44 1.12,0.24 1.72,0.32 1.68,0.32 3.2,0.32 0.52,0 1.32,-0.08 z m -10.44,10.76 q 1.24,0 2,-1.4 0.76,-1.4 0.76,-3.76 0,-2.2 -0.84,-3.56 -0.8,-1.36 -2.08,-1.36 -1.16,0 -2,1.4 -0.8,1.36 -0.8,3.4 0,2.2 0.84,3.76 0.88,1.52 2.12,1.52 z m 5.16,10.64 q 0,-0.64 -0.48,-1.04 -0.44,-0.4 -1.56,-0.68 -1.08,-0.24 -3.16,-0.48 -1.2,-0.08 -2.84,-0.4 -1.16,0.72 -1.76,1.52 -0.56,0.8 -0.56,1.8 0,1.64 1.36,2.72 1.36,1.08 3.48,1.08 2.8,0 3.92,-1.08 0.76,-0.72 1.16,-1.64 0.44,-0.88 0.44,-1.8 z" />
    <path
       id="path986"
       style="font-style:normal;font-variant:normal;font-weight:bold;font-stretch:normal;font-family:'EB Garamond';-inkscape-font-specification:'EB Garamond Bold';text-align:center;text-anchor:middle;fill:#ffffff"
       d="m 1293.4877,-293.18793 q -0.28,0 -0.56,-0.16 -0.24,-0.16 -0.24,-0.4 0,-0.28 0.24,-0.44 0.24,-0.2 0.68,-0.36 0.76,-0.24 1.12,-0.52 0.4,-0.32 0.4,-1.04 v -11.4 q -1.24,0 -2.08,-0.08 -0.24,-0.04 -0.4,-0.44 -0.16,-0.4 -0.16,-0.72 0,-0.28 0.44,-0.4 0.32,-0.12 0.96,-0.36 0.68,-0.28 1.24,-0.56 0.24,-4.04 1.96,-6.6 1.76,-2.6 4.16,-3.72 2.44,-1.16 4.88,-1.16 2.72,0 4.12,0.8 1.44,0.8 1.44,2.36 0,1.28 -0.64,2.12 -0.64,0.8 -1.64,0.8 -0.48,0 -1,-0.44 -0.48,-0.44 -0.92,-1.2 -0.52,-0.84 -1.4,-1.52 -0.88,-0.68 -2.08,-0.68 -1.6,0 -2.64,1.6 -1,1.6 -1,4.72 v 2.04 q 0,0.48 0.24,0.68 0.28,0.16 0.76,0.2 3.44,0.24 4.96,0.24 1.4,0 2.76,-0.12 1.36,-0.4 2.12,-0.76 1.16,-0.52 1.12,-0.52 0.24,0 0.36,0.16 0.16,0.12 0.16,0.32 l -0.16,1.88 q -0.32,2.48 -0.32,4.12 v 8.68 q 0,0.56 0.4,0.92 0.44,0.32 1.48,0.64 0.4,0.16 0.56,0.32 0.2,0.12 0.2,0.44 0,0.52 -0.64,0.52 -0.76,0 -2.44,-0.08 -1.6,-0.08 -2.24,-0.08 -0.68,0 -2.12,0.08 -1.12,0.12 -2.4,0.12 -0.24,0 -0.44,-0.12 -0.2,-0.16 -0.2,-0.4 0,-0.6 0.72,-0.8 1.04,-0.24 1.44,-0.56 0.44,-0.32 0.44,-0.96 v -9.04 q 0,-1.36 -0.44,-1.96 -0.4,-0.6 -1.32,-0.64 -0.44,-0.04 -1.64,-0.04 -1.2,0 -1.76,0.04 -0.96,0 -1.28,0.28 -0.32,0.24 -0.32,0.68 v 10.44 q 0,0.76 0.52,1.12 0.52,0.36 1.56,0.6 0.8,0.2 0.8,0.8 0,0.24 -0.24,0.4 -0.2,0.16 -0.44,0.16 -1.24,0 -2.52,-0.12 -1.52,-0.08 -2.2,-0.08 -0.68,0 -2.04,0.08 -1.08,0.12 -2.32,0.12 z" />
    <path
       id="path988"
       style="font-style:normal;font-variant:normal;font-weight:bold;font-stretch:normal;font-family:'EB Garamond';-inkscape-font-specification:'EB Garamond Bold';text-align:center;text-anchor:middle;fill:#ffffff"
       d="m 1316.9595,-293.18793 q -0.36,0 -0.6,-0.12 -0.2,-0.16 -0.2,-0.44 0,-0.56 0.92,-0.8 0.88,-0.32 1.2,-0.56 0.32,-0.24 0.32,-0.96 v -19.24 q 0,-1.2 -0.36,-1.92 -0.32,-0.76 -1.24,-0.96 -0.4,-0.08 -0.4,-0.6 0,-0.52 0.36,-0.6 1.08,-0.2 2.6,-0.72 1.56,-0.52 2.76,-0.96 l 0.84,-0.32 q 0.28,-0.12 0.52,-0.12 0.4,0 0.4,0.48 0,0.32 -0.12,1.16 -0.08,0.84 -0.12,1.6 v 22.12 q 0,0.68 0.28,0.96 0.32,0.24 0.72,0.4 0.4,0.12 0.52,0.16 0.48,0.16 0.68,0.36 0.24,0.16 0.24,0.44 0,0.28 -0.24,0.44 -0.2,0.12 -0.56,0.12 -0.84,0 -2.28,-0.08 l -2.08,-0.04 q -0.64,0 -1.92,0.08 -1.08,0.12 -2.24,0.12 z" />
    <path
       id="path990"
       style="font-style:normal;font-variant:normal;font-weight:bold;font-stretch:normal;font-family:'EB Garamond';-inkscape-font-specification:'EB Garamond Bold';text-align:center;text-anchor:middle;fill:#ffffff"
       d="m 1334.7408,-292.74793 q -2.12,0 -3.84,-1.12 -1.72,-1.16 -2.72,-3.16 -0.96,-2 -0.96,-4.48 0,-2.48 1.16,-4.56 1.16,-2.08 3.16,-3.28 2.04,-1.24 4.4,-1.24 1.68,0 3.08,0.72 1.4,0.72 2.2,2 0.8,1.28 0.8,2.8 0,0.8 -0.32,1.16 -0.28,0.36 -0.92,0.36 h -8 q -0.56,0 -0.84,0.32 -0.24,0.32 -0.24,1.08 0,2.32 1.48,3.92 1.48,1.56 3.72,1.56 1.12,0 2.08,-0.4 0.96,-0.44 2,-1.24 0.4,-0.32 0.56,-0.32 0.4,0 0.4,0.52 0,0.52 -0.32,1.2 -0.64,1.68 -2.52,2.92 -1.84,1.24 -4.36,1.24 z m 0.44,-12.48 q 0.92,0 1.44,-0.04 0.52,-0.04 0.92,-0.16 0.2,-0.08 0.32,-0.4 0.12,-0.32 0.12,-0.72 0,-1.04 -0.76,-1.72 -0.72,-0.72 -1.8,-0.72 -1.24,0 -2.24,1.04 -1,1 -0.96,2.16 0,0.56 0.56,0.56 z" />
    <path
       id="path992"
       style="font-style:normal;font-variant:normal;font-weight:bold;font-stretch:normal;font-family:'EB Garamond';-inkscape-font-specification:'EB Garamond Bold';text-align:center;text-anchor:middle;fill:#ffffff"
       d="m 1360.7927,-292.66793 q -1.72,0 -3.36,-0.68 -1.64,-0.68 -2.68,-2 -1.04,-1.32 -1.04,-3.16 0,-2.4 1.68,-4.6 1.68,-2.24 4.64,-3.64 l 0.8,-0.4 -0.32,-0.36 q -0.12,-0.12 -0.88,-0.88 -0.76,-0.8 -1.28,-1.84 -0.52,-1.04 -0.52,-2.12 0,-1.4 0.92,-2.52 0.92,-1.12 2.56,-1.76 1.68,-0.68 3.76,-0.68 1.8,0 3.2,0.6 1.4,0.56 2.2,1.56 0.8,1 0.8,2.2 0,1.72 -1.08,2.76 -1.04,1.04 -3.16,1.84 l -0.88,0.32 0.8,0.84 q 1.68,1.68 4.48,4.64 l 0.72,0.8 0.56,-0.52 q 1.12,-1.08 1.84,-2.32 0.72,-1.28 0.72,-2 0,-0.92 -1.16,-1.32 -0.08,-0.04 -0.32,-0.16 -0.24,-0.12 -0.36,-0.24 -0.12,-0.16 -0.12,-0.36 0,-0.36 0.28,-0.44 0.32,-0.12 0.88,-0.12 0.44,0 1.64,0.16 1.44,0.16 2.2,0.16 0.88,0 2.88,-0.48 1.76,-0.4 2.32,-0.4 0.24,0 0.44,0.16 0.2,0.16 0.2,0.36 0,0.36 -0.4,0.68 -0.36,0.32 -0.92,0.4 -1.92,0.32 -3.68,2.08 -2,1.92 -4.04,3.68 l -2.04,1.88 0.72,0.88 q 1.56,1.88 2.6,2.8 1.04,0.88 2.16,0.88 1.68,0 3.16,-0.6 0.12,-0.04 0.4,-0.12 0.28,-0.12 0.52,-0.12 0.32,0 0.48,0.12 0.2,0.12 0.2,0.44 0,0.6 -0.92,1.48 -0.88,0.84 -2.4,1.48 -1.52,0.6 -3.24,0.6 -2.28,0 -3.68,-0.8 -1.4,-0.84 -3.04,-2.84 l -0.72,-0.84 -0.24,0.24 q -1.76,2.08 -3.88,3.2 -2.12,1.08 -4.4,1.08 z m 5,-16.72 q 0.56,-0.44 0.84,-1.4 0.28,-1 0.28,-2.16 0,-1.24 -0.52,-2.08 -0.52,-0.84 -1.52,-0.84 -0.76,0 -1.36,0.6 -0.6,0.6 -0.6,1.52 0,1.44 0.44,2.32 0.44,0.84 1.2,1.64 l 0.8,0.8 z m -2.08,12.92 q 1.24,0 2.28,-0.32 1.08,-0.32 1.96,-1.2 l 0.28,-0.28 -0.6,-0.76 q -3,-3.64 -5.44,-6.36 l -0.48,-0.56 -0.72,0.4 q -2,1.12 -2,4.04 0,2.32 1.28,3.68 1.28,1.36 3.44,1.36 z" />
    <path
       id="path994"
       style="font-style:normal;font-variant:normal;font-weight:bold;font-stretch:normal;font-family:'EB Garamond';-inkscape-font-specification:'EB Garamond Bold';text-align:center;text-anchor:middle;fill:#ffffff"
       d="m 1175.9592,-242.27265 q -3.64,0 -6.32,-1.68 -0.64,-0.4 -0.84,-0.96 -0.36,-1.04 -0.56,-2.6 -0.16,-1.56 -0.08,-3.2 0,-0.52 0.8,-0.52 0.36,0 0.52,0.12 0.16,0.08 0.32,0.36 0.88,3.08 2.64,4.88 1.76,1.8 4.04,1.8 1.76,0 2.76,-1.16 1.04,-1.2 1.04,-2.72 0,-1.24 -0.48,-2.08 -0.48,-0.88 -1.4,-1.56 -0.92,-0.72 -2.68,-1.68 -2.28,-1.28 -3.6,-2.24 -1.32,-0.96 -2.28,-2.48 -0.92,-1.52 -0.92,-3.68 0,-2.28 1.2,-4.04 1.24,-1.76 3.36,-2.72 2.12,-0.96 4.76,-0.96 1.4,0 2.76,0.28 1.4,0.28 2.36,0.68 0.48,0.2 0.68,0.44 0.24,0.24 0.4,0.84 0.48,1.92 0.48,4.68 0,0.2 -0.2,0.36 -0.2,0.16 -0.52,0.16 -0.36,0 -0.68,-0.16 -0.28,-0.2 -0.36,-0.48 -0.68,-2.4 -2,-3.64 -1.32,-1.24 -3.24,-1.24 -3.72,0 -3.72,3.6 0,1.28 1.28,2.44 1.28,1.16 4.12,2.8 3.24,1.96 4.56,3.8 1.32,1.84 1.32,4.52 0,4 -2.56,6.04 -2.52,2 -6.96,2 z" />
    <path
       id="path996"
       style="font-style:normal;font-variant:normal;font-weight:bold;font-stretch:normal;font-family:'EB Garamond';-inkscape-font-specification:'EB Garamond Bold';text-align:center;text-anchor:middle;fill:#ffffff"
       d="m 1188.6048,-242.71265 q -0.28,0 -0.56,-0.16 -0.24,-0.16 -0.24,-0.4 0,-0.48 0.92,-0.8 0.8,-0.24 1.16,-0.52 0.36,-0.28 0.36,-1 v -9.16 q 0,-2 -1.24,-2.24 -0.44,-0.08 -0.44,-0.72 0,-0.56 0.4,-0.68 1.4,-0.32 3.04,-0.88 1.64,-0.56 2.72,-1.12 0.52,-0.32 0.72,-0.32 0.36,0 0.36,0.48 l -0.08,0.8 q -0.12,1.44 -0.12,1.48 0,0.52 0.08,0.6 1.48,-1.4 2.84,-2.08 1.4,-0.68 3.16,-0.68 2.16,0 3.52,1.56 1.4,1.56 1.4,4.16 v 8.8 q 0,0.72 0.36,1 0.36,0.28 1.16,0.52 0.8,0.28 0.8,0.8 0,0.24 -0.2,0.4 -0.2,0.16 -0.48,0.16 -1.2,0 -2.28,-0.12 -1.28,-0.08 -1.96,-0.08 -0.68,0 -1.96,0.08 -1,0.12 -2.24,0.12 -0.28,0 -0.48,-0.16 -0.2,-0.16 -0.2,-0.4 0,-0.52 0.8,-0.8 0.76,-0.24 1.08,-0.52 0.32,-0.28 0.32,-1 v -7.96 q 0,-1.52 -0.68,-2.36 -0.68,-0.88 -1.88,-0.92 -0.84,0 -1.52,0.28 -0.68,0.24 -1.44,0.76 -0.32,0.28 -0.32,0.76 v 9.44 q 0,0.72 0.32,1 0.32,0.24 1.12,0.52 0.8,0.28 0.8,0.8 0,0.24 -0.2,0.4 -0.2,0.16 -0.48,0.16 -1.2,0 -2.16,-0.12 -1.28,-0.08 -1.92,-0.08 -0.68,0 -2.04,0.08 -1.08,0.12 -2.32,0.12 z" />
    <path
       id="path998"
       style="font-style:normal;font-variant:normal;font-weight:bold;font-stretch:normal;font-family:'EB Garamond';-inkscape-font-specification:'EB Garamond Bold';text-align:center;text-anchor:middle;fill:#ffffff"
       d="m 1214.7811,-242.27265 q -1.6,0 -2.8,-1.08 -1.2,-1.12 -1.2,-2.64 0,-1.36 0.8,-2.24 0.84,-0.92 2.6,-1.68 l 3.56,-1.56 q 0.8,-0.36 0.96,-0.64 0.2,-0.28 0.2,-1.04 l 0.04,-2.28 q 0.04,-1.16 -0.4,-1.8 -0.44,-0.64 -1.32,-0.64 -0.48,0 -1.04,0.24 -0.52,0.2 -0.8,0.48 -0.24,0.28 -0.24,0.84 0,0.28 0.04,0.6 0.04,0.28 0.04,0.56 0,0.4 -1.36,1 -1.32,0.6 -2.2,0.6 -0.32,0 -0.52,-0.24 -0.2,-0.24 -0.2,-0.6 0,-0.64 0.44,-1.24 0.44,-0.6 1.44,-1.44 1.56,-1.28 3.52,-2.16 1.96,-0.88 3.28,-0.88 2.12,0 3.4,1.4 1.28,1.36 1.24,3.64 l -0.2,8.08 q -0.04,0.92 0.32,1.56 0.36,0.64 0.88,0.64 0.76,0 1.32,-0.52 0.12,-0.12 0.24,-0.12 0.2,0 0.32,0.16 0.16,0.12 0.16,0.28 0,0.52 -0.72,1.24 -1.48,1.48 -3.36,1.48 -1.16,0 -2.04,-0.56 -0.88,-0.52 -1.68,-1.72 h -0.08 q -1.32,1.24 -2.4,1.76 -1.04,0.52 -2.24,0.52 z m 2.4,-2.6 q 0.76,0 1.28,-0.6 0.28,-0.44 0.28,-1.04 l 0.12,-2.88 q 0,-0.64 -0.4,-0.64 -0.2,0 -0.48,0.16 -1.28,0.6 -1.8,1.2 -0.48,0.6 -0.48,1.8 0,1.04 0.44,1.52 0.44,0.48 1.04,0.48 z" />
    <path
       id="path1000"
       style="font-style:normal;font-variant:normal;font-weight:bold;font-stretch:normal;font-family:'EB Garamond';-inkscape-font-specification:'EB Garamond Bold';text-align:center;text-anchor:middle;fill:#ffffff"
       d="m 1228.5611,-232.35265 q -0.32,0 -0.56,-0.16 -0.24,-0.16 -0.24,-0.4 0,-0.32 0.2,-0.52 0.24,-0.16 0.72,-0.28 0.88,-0.28 1.2,-0.6 0.32,-0.28 0.32,-0.92 v -19.16 q 0,-0.76 -0.48,-1.44 -0.44,-0.72 -1.2,-0.88 -0.24,-0.08 -0.36,-0.2 -0.12,-0.16 -0.12,-0.52 0,-0.56 0.44,-0.68 1.44,-0.32 3.04,-0.84 1.6,-0.52 2.72,-1.08 0.12,-0.04 0.32,-0.16 0.24,-0.12 0.36,-0.12 0.36,0 0.36,0.48 l -0.08,0.88 q -0.12,1.44 -0.12,1.44 0,0.4 0.08,0.48 0.44,-0.48 1.48,-1.12 1.08,-0.68 2.36,-1.16 1.32,-0.52 2.48,-0.52 2.04,0 3.56,1.12 1.56,1.12 2.36,2.92 0.84,1.76 0.84,3.76 0,2.48 -1.24,4.8 -1.24,2.28 -3.4,3.72 -2.12,1.4 -4.6,1.4 -0.68,0 -1.68,-0.24 -1,-0.24 -1.76,-0.6 -0.16,0 -0.16,0.72 v 6.64 q 0,0.76 0.48,1.16 0.52,0.4 1.68,0.72 0.88,0.28 0.88,0.8 0,0.24 -0.24,0.4 -0.2,0.16 -0.44,0.16 -1.28,0 -2.56,-0.12 -1.68,-0.08 -2.28,-0.08 -0.68,0 -2.04,0.08 -1.08,0.12 -2.32,0.12 z m 10.32,-11.6 q 0.68,0 1.56,-0.68 0.88,-0.68 1.52,-2.16 0.68,-1.48 0.68,-3.8 0,-3.8 -1.28,-5.16 -1.24,-1.36 -2.68,-1.36 -0.72,0 -1.48,0.32 -0.72,0.32 -1.24,0.8 -0.48,0.44 -0.48,0.76 l -0.08,6.56 q 0,1 0.4,2.12 0.44,1.12 1.24,1.88 0.8,0.72 1.84,0.72 z" />
    <path
       id="path1002"
       style="font-style:normal;font-variant:normal;font-weight:bold;font-stretch:normal;font-family:'EB Garamond';-inkscape-font-specification:'EB Garamond Bold';text-align:center;text-anchor:middle;fill:#ffffff"
       d="m 1255.7523,-242.27265 q -2.88,0 -4.8,-1.36 -0.36,-0.56 -0.52,-1.8 -0.16,-1.28 -0.12,-2.76 0,-0.48 0.8,-0.48 0.28,0 0.52,0.2 0.24,0.16 0.32,0.4 0.84,1.92 1.84,3 1,1.04 2.32,1.04 1,0 1.6,-0.64 0.6,-0.64 0.6,-1.52 0,-0.96 -0.72,-1.64 -0.72,-0.68 -2.08,-1.4 -2.12,-1.08 -3.36,-2.4 -1.2,-1.32 -1.2,-3.32 0,-2.32 1.84,-3.76 1.84,-1.44 4.6,-1.44 1.2,0 2.32,0.28 1.16,0.28 1.64,0.6 0.32,0.4 0.52,1.52 0.2,1.08 0.2,2.4 0,0.2 -0.24,0.32 -0.2,0.12 -0.48,0.12 -0.28,0 -0.6,-0.2 -0.28,-0.2 -0.36,-0.4 -0.52,-1.56 -1.36,-2.32 -0.8,-0.8 -1.8,-0.8 -0.92,0 -1.64,0.6 -0.68,0.56 -0.68,1.48 0,0.76 0.68,1.44 0.72,0.64 2.04,1.36 2.72,1.44 3.76,2.68 1.08,1.24 1.08,3.28 0,2.64 -1.76,4.08 -1.72,1.44 -4.96,1.44 z" />
    <path
       id="path1004"
       style="font-style:normal;font-variant:normal;font-weight:bold;font-stretch:normal;font-family:'EB Garamond';-inkscape-font-specification:'EB Garamond Bold';text-align:center;text-anchor:middle;fill:#ffffff"
       d="m 1265.0073,-242.71265 q -0.8,0 -0.8,-0.56 0,-0.28 0.2,-0.44 0.24,-0.2 0.72,-0.36 0.84,-0.28 1.16,-0.52 0.32,-0.28 0.36,-1.04 v -19.2 q 0,-1.24 -0.32,-1.96 -0.32,-0.72 -1.24,-0.92 -0.44,-0.08 -0.44,-0.6 0,-0.52 0.4,-0.6 1.28,-0.28 3.12,-0.92 1.88,-0.68 2.24,-0.8 l 0.76,-0.28 q 0.28,-0.12 0.52,-0.12 0.4,0 0.4,0.48 0,0.28 -0.12,1.08 -0.08,0.8 -0.12,1.68 v 9.24 q 0,0.96 0.24,1.16 1.4,-1.2 2.72,-1.96 1.36,-0.76 3.12,-0.76 2.2,0 3.6,1.56 1.4,1.52 1.4,4.12 v 8.72 q 0,0.76 0.32,1.08 0.36,0.28 1.12,0.56 0.44,0.12 0.64,0.32 0.24,0.16 0.24,0.48 0,0.56 -0.88,0.56 -1.32,0 -2.2,-0.12 -1.12,-0.08 -1.88,-0.08 -0.8,0 -1.84,0.08 -0.72,0.12 -2,0.12 -1,0 -1,-0.6 0,-0.52 0.84,-0.76 0.68,-0.24 1.04,-0.56 0.36,-0.36 0.36,-1.16 v -7.88 q 0,-1.28 -0.8,-2.2 -0.76,-0.92 -1.76,-0.92 -1.52,0 -2.72,0.88 -0.32,0.24 -0.44,0.56 -0.08,0.28 -0.08,0.88 v 8.76 q 0,0.72 0.32,1.04 0.36,0.32 1,0.56 0.84,0.32 0.84,0.8 0,0.6 -0.72,0.6 -1.16,0 -2.24,-0.12 -1.28,-0.08 -1.92,-0.08 -0.64,0 -1.92,0.08 -1.08,0.12 -2.24,0.12 z" />
    <path
       id="path1006"
       style="font-style:normal;font-variant:normal;font-weight:bold;font-stretch:normal;font-family:'EB Garamond';-inkscape-font-specification:'EB Garamond Bold';text-align:center;text-anchor:middle;fill:#ffffff"
       d="m 1295.3511,-242.27265 q -2.36,0 -4.32,-1.08 -1.96,-1.08 -3.08,-2.96 -1.12,-1.92 -1.12,-4.32 0,-2.52 1.24,-4.72 1.28,-2.2 3.4,-3.48 2.16,-1.32 4.76,-1.32 2.4,0 4.44,1.16 2.04,1.12 3.2,3.08 1.2,1.92 1.2,4.12 0,2.64 -1.12,4.8 -1.12,2.16 -3.32,3.44 -2.16,1.28 -5.28,1.28 z m 0.8,-1.76 q 1.64,0 2.48,-1.36 0.84,-1.4 0.84,-5.44 0,-3.28 -1.08,-5.4 -1.04,-2.16 -2.76,-2.16 -1.24,0 -2.08,0.84 -0.68,0.76 -0.96,2.2 -0.24,1.44 -0.24,3.72 0,1.92 0.48,3.68 0.52,1.76 1.36,2.84 0.88,1.08 1.96,1.08 z" />
    <path
       id="path1008"
       style="font-style:normal;font-variant:normal;font-weight:bold;font-stretch:normal;font-family:'EB Garamond';-inkscape-font-specification:'EB Garamond Bold';text-align:center;text-anchor:middle;fill:#ffffff"
       d="m 1314.4748,-242.27265 q -2.6,0 -3.96,-1.32 -1.32,-1.32 -1.32,-3.8 v -9.2 q 0,-0.36 -0.28,-0.52 -0.28,-0.16 -0.96,-0.2 h -0.52 q -0.24,0 -0.44,-0.44 -0.2,-0.44 -0.2,-0.84 0,-0.28 0.24,-0.4 2,-0.72 5.84,-4.08 0.08,-0.08 0.28,-0.2 0.2,-0.16 0.36,-0.24 0.16,-0.08 0.36,-0.08 0.4,0 0.52,0.16 0.12,0.16 0.08,0.64 l -0.24,2.36 v 0.16 q 0,0.68 0.96,0.68 h 4.76 q 0.12,0 0.24,0.28 0.12,0.28 0.12,0.52 0,0.6 -0.16,1.12 -0.16,0.48 -0.36,0.48 h -3.72 q -0.92,0 -1.28,0.24 -0.32,0.2 -0.32,0.76 v 7.56 q 0,1.8 0.68,2.72 0.68,0.92 1.88,0.92 0.92,0 1.4,-0.12 0.52,-0.16 0.84,-0.32 0.36,-0.16 0.44,-0.2 0.16,-0.08 0.24,-0.08 0.2,0 0.32,0.24 0.12,0.2 0.12,0.56 0,0.28 -0.92,0.96 -0.88,0.64 -2.24,1.16 -1.36,0.52 -2.76,0.52 z" />
    <path
       id="path1010"
       style="font-style:normal;font-variant:normal;font-weight:bold;font-stretch:normal;font-family:'EB Garamond';-inkscape-font-specification:'EB Garamond Bold';text-align:center;text-anchor:middle;fill:#ffffff"
       d="m 1331.648,-242.71265 q -0.24,0 -0.44,-0.12 -0.2,-0.16 -0.2,-0.4 0,-0.6 0.72,-0.8 1.08,-0.24 1.48,-0.52 0.4,-0.32 0.4,-0.96 v -8.64 q 0,-1.32 -0.4,-1.92 -0.4,-0.6 -1.32,-0.72 -0.24,-0.04 -0.36,-0.24 -0.12,-0.2 -0.12,-0.48 0,-0.24 0.12,-0.44 0.16,-0.2 0.32,-0.24 1.8,-0.32 3.16,-0.88 1.4,-0.56 3.04,-1.36 0.56,-0.32 0.8,-0.32 0.24,0 0.36,0.16 0.16,0.12 0.16,0.32 l -0.16,1.48 q -0.36,3.04 -0.36,4.4 v 8.84 q 0,0.56 0.4,0.88 0.4,0.32 1.52,0.64 0.36,0.12 0.52,0.28 0.2,0.16 0.2,0.48 0,0.52 -0.6,0.52 -0.84,0 -2.44,-0.08 -1.6,-0.08 -2.28,-0.08 -0.68,0 -2.12,0.08 -1.2,0.12 -2.4,0.12 z m 4.4,-19.84 q -1.28,0 -2.2,-0.92 -0.92,-0.92 -0.92,-2.2 0,-1.36 0.92,-2.28 0.92,-0.92 2.2,-0.92 1.36,0 2.28,0.92 0.96,0.92 0.96,2.28 0,1.28 -0.96,2.2 -0.92,0.92 -2.28,0.92 z" />
    <path
       id="path1012"
       style="font-style:normal;font-variant:normal;font-weight:bold;font-stretch:normal;font-family:'EB Garamond';-inkscape-font-specification:'EB Garamond Bold';text-align:center;text-anchor:middle;fill:#ffffff"
       d="m 1343.6048,-242.71265 q -0.28,0 -0.56,-0.16 -0.24,-0.16 -0.24,-0.4 0,-0.48 0.92,-0.8 0.8,-0.24 1.16,-0.52 0.36,-0.28 0.36,-1 v -9.16 q 0,-2 -1.24,-2.24 -0.44,-0.08 -0.44,-0.72 0,-0.56 0.4,-0.68 1.4,-0.32 3.04,-0.88 1.64,-0.56 2.72,-1.12 0.52,-0.32 0.72,-0.32 0.36,0 0.36,0.48 l -0.08,0.8 q -0.12,1.44 -0.12,1.48 0,0.52 0.08,0.6 1.48,-1.4 2.84,-2.08 1.4,-0.68 3.16,-0.68 2.16,0 3.52,1.56 1.4,1.56 1.4,4.16 v 8.8 q 0,0.72 0.36,1 0.36,0.28 1.16,0.52 0.8,0.28 0.8,0.8 0,0.24 -0.2,0.4 -0.2,0.16 -0.48,0.16 -1.2,0 -2.28,-0.12 -1.28,-0.08 -1.96,-0.08 -0.68,0 -1.96,0.08 -1,0.12 -2.24,0.12 -0.28,0 -0.48,-0.16 -0.2,-0.16 -0.2,-0.4 0,-0.52 0.8,-0.8 0.76,-0.24 1.08,-0.52 0.32,-0.28 0.32,-1 v -7.96 q 0,-1.52 -0.68,-2.36 -0.68,-0.88 -1.88,-0.92 -0.84,0 -1.52,0.28 -0.68,0.24 -1.44,0.76 -0.32,0.28 -0.32,0.76 v 9.44 q 0,0.72 0.32,1 0.32,0.24 1.12,0.52 0.8,0.28 0.8,0.8 0,0.24 -0.2,0.4 -0.2,0.16 -0.48,0.16 -1.2,0 -2.16,-0.12 -1.28,-0.08 -1.92,-0.08 -0.68,0 -2.04,0.08 -1.08,0.12 -2.32,0.12 z" />
    <path
       id="path1014"
       style="font-style:normal;font-variant:normal;font-weight:bold;font-stretch:normal;font-family:'EB Garamond';-inkscape-font-specification:'EB Garamond Bold';text-align:center;text-anchor:middle;fill:#ffffff"
       d="m 1179.0545,-182.43737 q -2.4,0 -4.96,-0.84 -2.52,-0.8 -4.56,-2.24 -1.92,-1.36 -3,-2.2 -1.08,-0.8 -2.32,-1.96 -0.2,-0.2 -1.04,-0.92 -0.8,-0.68 -1.72,-1.28 -0.88,-0.56 -1.8,-0.92 -3.48,-1.32 -6.04,-4.2 -2.56,-2.92 -2.56,-7.96 0,-3.68 1.64,-6.88 1.68,-3.2 4.88,-5.12 3.24,-1.96 7.68,-1.96 3.72,0 6.88,1.68 3.2,1.64 5.08,4.64 1.92,3 1.92,6.84 0,4.28 -2.2,7.8 -2.2,3.52 -6.2,5.08 -0.44,0.12 -0.44,0.44 0,0.16 0.2,0.36 1.92,1.92 4.32,3.84 1.92,1.56 3.6,2.24 1.72,0.68 3.44,0.68 0.76,0 1.4,-0.08 0.48,-0.12 0.92,-0.12 1.08,0 1.08,0.8 0,0.36 -0.2,0.6 -0.16,0.28 -0.6,0.56 -1.8,1.12 -5.4,1.12 z m -13.44,-11.28 q 3.36,0 5.12,-2.64 1.76,-2.64 1.76,-7.36 0,-3.52 -0.88,-6.52 -0.88,-3 -2.68,-4.84 -1.8,-1.84 -4.44,-1.84 -3.32,0 -5.08,2.64 -1.76,2.6 -1.76,7.24 0,3.56 0.84,6.6 0.88,3 2.68,4.88 1.8,1.84 4.44,1.84 z" />
    <path
       id="path1016"
       style="font-style:normal;font-variant:normal;font-weight:bold;font-stretch:normal;font-family:'EB Garamond';-inkscape-font-specification:'EB Garamond Bold';text-align:center;text-anchor:middle;fill:#ffffff"
       d="m 1188.7252,-191.79737 q -2.12,0 -3.84,-1.12 -1.72,-1.16 -2.72,-3.16 -0.96,-2 -0.96,-4.48 0,-2.48 1.16,-4.56 1.16,-2.08 3.16,-3.28 2.04,-1.24 4.4,-1.24 1.68,0 3.08,0.72 1.4,0.72 2.2,2 0.8,1.28 0.8,2.8 0,0.8 -0.32,1.16 -0.28,0.36 -0.92,0.36 h -8 q -0.56,0 -0.84,0.32 -0.24,0.32 -0.24,1.08 0,2.32 1.48,3.92 1.48,1.56 3.72,1.56 1.12,0 2.08,-0.4 0.96,-0.44 2,-1.24 0.4,-0.32 0.56,-0.32 0.4,0 0.4,0.52 0,0.52 -0.32,1.2 -0.64,1.68 -2.52,2.92 -1.84,1.24 -4.36,1.24 z m 0.44,-12.48 q 0.92,0 1.44,-0.04 0.52,-0.04 0.92,-0.16 0.2,-0.08 0.32,-0.4 0.12,-0.32 0.12,-0.72 0,-1.04 -0.76,-1.72 -0.72,-0.72 -1.8,-0.72 -1.24,0 -2.24,1.04 -1,1 -0.96,2.16 0,0.56 0.56,0.56 z" />
    <path
       id="path1018"
       style="font-style:normal;font-variant:normal;font-weight:bold;font-stretch:normal;font-family:'EB Garamond';-inkscape-font-specification:'EB Garamond Bold';text-align:center;text-anchor:middle;fill:#ffffff"
       d="m 1198.6439,-192.23737 q -0.28,0 -0.56,-0.16 -0.24,-0.16 -0.24,-0.4 0,-0.48 0.92,-0.8 0.8,-0.24 1.16,-0.52 0.36,-0.28 0.36,-1 v -9.16 q 0,-2.04 -1.24,-2.24 -0.44,-0.08 -0.44,-0.72 0,-0.56 0.4,-0.68 4.04,-1 6,-2.12 0.08,-0.04 0.2,-0.12 0.16,-0.08 0.28,-0.08 0.36,0 0.36,0.44 l -0.08,0.88 q -0.04,0.28 -0.08,0.68 -0.04,0.36 -0.04,0.84 0,0.4 0.08,0.48 h 0.08 q 1.32,-1.28 2.76,-2 1.48,-0.72 3.2,-0.72 1.2,0 2.24,0.88 1.08,0.84 1.6,2.2 h 0.16 q 2.56,-3.08 6.08,-3.08 1.92,0 3.16,1.56 1.28,1.56 1.28,4.16 v 8.8 q 0,0.72 0.36,1 0.36,0.28 1.16,0.52 0.8,0.28 0.8,0.8 0,0.24 -0.2,0.4 -0.2,0.16 -0.48,0.16 -1.2,0 -2.28,-0.12 -1.28,-0.08 -1.96,-0.08 -0.68,0 -1.8,0.08 -0.88,0.12 -2.08,0.12 -0.28,0 -0.48,-0.16 -0.2,-0.16 -0.2,-0.4 0,-0.6 0.8,-0.8 0.56,-0.16 0.8,-0.4 0.28,-0.28 0.28,-0.88 v -8.2 q 0,-1.44 -0.64,-2.32 -0.6,-0.92 -1.56,-0.96 -1.24,0 -2.36,0.96 -0.56,0.52 -0.56,1.68 v 8.6 q 0,0.76 0.28,1.04 0.28,0.28 0.96,0.48 0.8,0.2 0.8,0.8 0,0.24 -0.2,0.4 -0.2,0.16 -0.48,0.16 -1.16,0 -2.12,-0.12 -1.2,-0.08 -1.84,-0.08 -0.68,0 -1.8,0.08 -0.88,0.12 -2.08,0.12 -0.24,0 -0.44,-0.16 -0.2,-0.16 -0.2,-0.4 0,-0.52 0.76,-0.8 0.6,-0.2 0.84,-0.44 0.28,-0.24 0.28,-0.84 v -8.2 q 0,-1.48 -0.6,-2.32 -0.6,-0.88 -1.6,-0.92 -1.2,0 -2.4,0.88 -0.52,0.4 -0.52,1.56 v 8.76 q 0,0.68 0.24,1 0.24,0.32 0.88,0.52 0.76,0.28 0.76,0.8 0,0.24 -0.2,0.4 -0.2,0.16 -0.44,0.16 -1.16,0 -2.08,-0.12 -1.2,-0.08 -1.84,-0.08 -0.68,0 -1.96,0.08 -1,0.12 -2.24,0.12 z" />
    <path
       id="path1020"
       style="font-style:normal;font-variant:normal;font-weight:bold;font-stretch:normal;font-family:'EB Garamond';-inkscape-font-specification:'EB Garamond Bold';text-align:center;text-anchor:middle;fill:#ffffff"
       d="m 1243.1095,-191.51737 q -0.32,0 -0.32,-0.4 0,-0.56 0.12,-1.28 l 0.08,-1.24 q 0,-0.36 -0.08,-0.44 -1.12,1.36 -2.84,2.24 -1.68,0.88 -3.48,0.88 -1.88,0 -3.16,-1.6 -1.24,-1.64 -1.24,-4.04 v -7.48 q 0,-1 -0.36,-1.52 -0.36,-0.56 -1.24,-0.72 -0.24,-0.04 -0.44,-0.2 -0.16,-0.2 -0.16,-0.56 0,-0.64 0.6,-0.68 2.6,-0.12 5.8,-0.96 0.16,-0.04 0.4,-0.08 0.28,-0.08 0.44,-0.08 0.56,0 0.52,0.56 -0.32,1.64 -0.32,3.08 v 7.68 q 0,1.44 0.68,2.32 0.68,0.88 1.76,0.92 1.56,0 2.44,-0.88 0.32,-0.28 0.56,-0.88 0.24,-0.64 0.24,-1.6 v -6.44 q 0,-1 -0.6,-1.56 -0.6,-0.6 -1.56,-0.68 -0.48,-0.04 -0.72,-0.24 -0.24,-0.2 -0.24,-0.64 0,-0.4 0.28,-0.6 0.28,-0.2 0.68,-0.2 3.04,-0.2 4.32,-0.32 1.28,-0.12 2.4,-0.4 0.48,-0.12 0.52,-0.12 0.6,0 0.6,0.48 0,0.12 -0.16,0.6 -0.08,0.48 -0.2,1.4 -0.08,0.92 -0.08,1.4 v 9.28 q 0,1.52 0.72,1.52 l 1.12,0.04 q 0.36,0 0.56,0.2 0.2,0.2 0.2,0.52 0,0.4 -0.16,0.6 -0.12,0.2 -0.52,0.24 -2.96,0.28 -6.12,1.6 -0.12,0.04 -0.48,0.16 -0.32,0.12 -0.56,0.12 z" />
    <path
       id="path1022"
       style="font-style:normal;font-variant:normal;font-weight:bold;font-stretch:normal;font-family:'EB Garamond';-inkscape-font-specification:'EB Garamond Bold';text-align:center;text-anchor:middle;fill:#ffffff"
       d="m 1262.2339,-189.87737 q -0.44,0 -0.68,-0.24 -0.24,-0.2 -0.12,-0.52 l 12.36,-27.56 q 0.24,-0.52 0.64,-0.68 0.44,-0.16 1.16,-0.16 0.48,0 0.72,0.28 0.24,0.28 0.12,0.56 l -12.4,27.56 q -0.2,0.44 -0.68,0.6 -0.44,0.16 -1.12,0.16 z" />
    <path
       id="path1024"
       style="font-style:normal;font-variant:normal;font-weight:bold;font-stretch:normal;font-family:'EB Garamond';-inkscape-font-specification:'EB Garamond Bold';text-align:center;text-anchor:middle;fill:#ffffff"
       d="m 1288.297,-192.11737 q -0.4,0 -0.76,-0.2 -0.36,-0.2 -0.36,-0.48 0,-0.64 1.04,-0.84 1.52,-0.28 2,-0.8 0.48,-0.52 0.48,-1.84 v -18.12 q 0,-1.32 -0.56,-1.84 -0.52,-0.52 -2.12,-0.88 -0.84,-0.2 -0.84,-0.84 0,-0.28 0.24,-0.44 0.24,-0.16 0.56,-0.16 1.48,0 3.04,0.12 1.92,0.08 2.68,0.08 0.76,0 2.68,-0.08 2.16,-0.08 3.12,-0.08 0.72,0 0.72,0.56 0,0.36 -0.2,0.56 -0.2,0.16 -0.68,0.28 -1.56,0.44 -2.04,1 -0.48,0.52 -0.48,1.76 v 8.12 q 0,0.64 0.4,0.64 0.28,0 1,-0.64 l 7.68,-8.28 q 0.76,-0.84 0.76,-1.24 0,-0.84 -1.64,-1.2 -0.88,-0.24 -0.88,-0.88 0,-0.24 0.24,-0.4 0.28,-0.16 0.56,-0.16 h 2.76 l 3.92,-0.04 q 2.56,-0.08 4,-0.08 0.4,0 0.72,0.16 0.32,0.16 0.32,0.4 0,0.32 -0.36,0.56 -0.36,0.2 -0.84,0.28 -3.56,0.48 -6.16,2.48 -1.12,0.88 -2.36,2.04 -1.24,1.16 -2.4,2.32 -0.68,0.68 -2.16,2.12 -0.28,0.28 -0.28,0.52 0,0.28 0.32,0.68 l 9.56,10.72 q 0.96,1.04 1.8,1.64 0.84,0.56 2.32,0.96 0.64,0.2 0.92,0.36 0.32,0.12 0.32,0.44 0,0.32 -0.4,0.48 -0.4,0.2 -1.12,0.2 -0.8,0 -1.88,-0.04 -1.08,-0.04 -1.64,-0.08 -2.4,-0.16 -3.64,-0.16 -0.88,0 -2.4,0.08 -1.24,0.12 -2.6,0.12 -0.32,0 -0.56,-0.16 -0.24,-0.2 -0.24,-0.44 0,-0.64 0.8,-0.84 1.6,-0.32 1.68,-1.08 0,-0.44 -0.68,-1.32 l -6.52,-7.56 q -0.52,-0.64 -0.96,-0.64 -0.36,0 -0.36,0.64 0,4.72 0.12,7.28 0.08,1.24 0.48,1.8 0.4,0.52 1.84,0.92 0.56,0.16 0.8,0.32 0.28,0.16 0.28,0.48 0,0.28 -0.36,0.48 -0.36,0.16 -0.8,0.16 -1.04,0 -3.36,-0.2 -0.36,-0.04 -0.84,-0.08 -0.48,-0.04 -1.16,-0.04 -0.68,0 -2.12,0.16 -1.84,0.24 -3.4,0.24 z" />
    <path
       id="path1026"
       style="font-style:normal;font-variant:normal;font-weight:bold;font-stretch:normal;font-family:'EB Garamond';-inkscape-font-specification:'EB Garamond Bold';text-align:center;text-anchor:middle;fill:#ffffff"
       d="m 1330.9239,-191.67737 q -0.52,0 -0.8,-0.64 -1.04,-2.28 -1.4,-3.48 l -7.88,-18.56 q -0.44,-1.04 -1.12,-1.72 -0.68,-0.72 -1.76,-1 -0.52,-0.2 -0.76,-0.36 -0.2,-0.16 -0.2,-0.52 0,-0.24 0.24,-0.4 0.24,-0.16 0.6,-0.16 0.84,0 2.92,0.08 2.16,0.08 2.92,0.08 0.8,0 3.12,-0.08 2.32,-0.08 3.12,-0.08 0.4,0 0.72,0.16 0.36,0.16 0.36,0.4 0,0.32 -0.36,0.56 -0.36,0.2 -0.8,0.28 -1.24,0.28 -1.76,0.64 -0.52,0.32 -0.52,0.96 0,0.32 0.2,1.12 l 5.16,14.48 q 0.16,0.28 0.2,0.28 0.08,0 0.2,-0.32 l 4.68,-12.28 q 0.48,-1.28 0.48,-2.28 0,-2.28 -2.4,-2.56 -0.48,-0.12 -0.88,-0.32 -0.36,-0.24 -0.36,-0.56 0,-0.24 0.32,-0.36 0.36,-0.16 0.84,-0.16 l 1.96,0.04 q 0.52,0.04 1.88,0.04 1.12,0 2.2,-0.12 1.44,-0.08 2.2,-0.08 0.52,0 0.84,0.16 0.36,0.16 0.36,0.48 0,0.28 -0.24,0.44 -0.2,0.12 -0.48,0.24 -0.28,0.08 -0.36,0.12 -1.24,0.32 -2.04,1.2 -0.8,0.88 -1.52,2.68 l -6.08,14.56 q -1.88,4.36 -2.88,6.4 -0.16,0.36 -0.36,0.48 -0.2,0.16 -0.56,0.16 z" />
    <path
       id="path1028"
       style="font-style:normal;font-variant:normal;font-weight:bold;font-stretch:normal;font-family:'EB Garamond';-inkscape-font-specification:'EB Garamond Bold';text-align:center;text-anchor:middle;fill:#ffffff"
       d="m 1346.967,-192.23737 q -0.96,0 -0.96,-0.56 0,-0.24 0.2,-0.36 0.2,-0.12 0.48,-0.2 0.28,-0.12 0.44,-0.16 1,-0.36 1.64,-1.16 0.68,-0.8 0.84,-2 0.72,-5.6 1.52,-16.4 0.04,-0.28 0.04,-1.36 0,-1.32 -0.96,-1.84 -1.12,-0.68 -2.24,-0.92 -1.04,-0.28 -1.04,-0.84 0,-0.6 1.08,-0.6 l 2.96,0.08 q 0.76,0.04 1.92,0.08 1.2,0.04 2.72,0.04 0.28,0 0.56,0.24 0.32,0.2 0.4,0.48 0.76,2.16 1.04,2.92 l 5.88,14.04 q 0.08,0.16 0.2,0.2 0.16,0 0.24,-0.2 l 5.72,-13.28 q 0.52,-2.76 0.8,-3.68 0.16,-0.52 0.64,-0.52 h 1.72 q 0.24,0 3.48,-0.24 1.92,-0.2 2.88,-0.2 1,0 1,0.6 0,0.32 -0.24,0.48 -0.2,0.16 -0.68,0.32 l -1.12,0.48 q -1.12,0.56 -1.6,1.2 -0.44,0.64 -0.36,1.88 0.32,7.84 0.72,13.64 l 0.24,3.84 q 0.16,1.88 2.92,2.6 0.48,0.16 0.72,0.32 0.24,0.16 0.24,0.48 0,0.28 -0.24,0.44 -0.24,0.16 -0.6,0.16 -1.48,0 -3.24,-0.12 -2.16,-0.08 -2.92,-0.08 -0.72,0 -2.64,0.08 -1.56,0.12 -3.04,0.12 -0.4,0 -0.68,-0.16 -0.24,-0.16 -0.24,-0.4 0,-0.64 0.96,-0.84 1.48,-0.32 2.04,-0.84 0.56,-0.56 0.52,-1.76 -0.12,-2.52 -0.28,-8.04 l -0.24,-6.36 q 0,-0.28 -0.12,-0.28 -0.16,0 -0.28,0.32 l -7.64,18.16 q -0.16,0.48 -0.56,0.48 -0.4,0 -0.6,-0.4 -1.44,-3.32 -3.56,-7.92 -3.28,-7.2 -4.48,-10.2 -0.12,-0.28 -0.28,-0.28 -0.32,0 -0.4,0.56 -0.28,4 -0.28,13.68 0,1.12 0.72,1.84 0.76,0.68 2.28,1.04 1.12,0.24 1.12,0.8 0,0.28 -0.32,0.44 -0.32,0.16 -0.68,0.16 -1.24,0 -2.36,-0.08 -1.04,-0.08 -1.72,-0.08 -0.8,0 -3.44,0.12 -0.4,0.04 -0.84,0.04 z" />
  </g>
</svg>
