<?xml version="1.0" encoding="UTF-8" standalone="no"?>
<svg
   xmlns:dc="http://purl.org/dc/elements/1.1/"
   xmlns:cc="http://creativecommons.org/ns#"
   xmlns:rdf="http://www.w3.org/1999/02/22-rdf-syntax-ns#"
   xmlns:svg="http://www.w3.org/2000/svg"
   xmlns="http://www.w3.org/2000/svg"
   xmlns:xlink="http://www.w3.org/1999/xlink"
   width="211.40207mm"
   height="119.0625mm"
   viewBox="0 0 211.40207 119.0625"
   version="1.1"
   id="svg3357">
  <defs
     id="defs3351">
    <linearGradient
       id="linearGradient6114">
      <stop
         style="stop-color:#6f7c91;stop-opacity:1;"
         offset="0"
         id="stop6110" />
      <stop
         style="stop-color:#162d50;stop-opacity:1"
         offset="1"
         id="stop6112" />
    </linearGradient>
    <radialGradient
       xlink:href="#linearGradient6114"
       id="radialGradient6126"
       cx="73.77433"
       cy="66.986313"
       fx="73.77433"
       fy="66.986313"
       r="31.67275"
       gradientTransform="matrix(3.0071285,0,0,1.83657,-125.12732,-58.151445)"
       gradientUnits="userSpaceOnUse" />
    <filter
       style="color-interpolation-filters:sRGB"
       id="filter2341"
       x="-0.22049561"
       width="1.4409912"
       y="-0.19399828"
       height="1.3879966">
      <feGaussianBlur
         stdDeviation="0.5979795"
         id="feGaussianBlur2343" />
    </filter>
    <filter
       style="color-interpolation-filters:sRGB"
       id="filter2353"
       x="-0.24968532"
       width="1.4993706"
       y="-0.2424219"
       height="1.4848439">
      <feGaussianBlur
         stdDeviation="0.58795691"
         id="feGaussianBlur2355" />
    </filter>
    <filter
       style="color-interpolation-filters:sRGB"
       id="filter2391"
       x="-0.22248311"
       width="1.4449662"
       y="-0.18430082"
       height="1.3686017">
      <feGaussianBlur
         stdDeviation="0.60140892"
         id="feGaussianBlur2393" />
    </filter>
    <filter
       style="color-interpolation-filters:sRGB"
       id="filter2417"
       x="-0.26585984"
       width="1.5317197"
       y="-0.24169105"
       height="1.4833821">
      <feGaussianBlur
         stdDeviation="0.58618438"
         id="feGaussianBlur2419" />
    </filter>
    <filter
       style="color-interpolation-filters:sRGB"
       id="filter2443"
       x="-0.22049561"
       width="1.4409912"
       y="-0.19399828"
       height="1.3879966">
      <feGaussianBlur
         stdDeviation="0.5979795"
         id="feGaussianBlur2445" />
    </filter>
    <filter
       style="color-interpolation-filters:sRGB"
       id="filter2455"
       x="-0.24968532"
       width="1.4993706"
       y="-0.2424219"
       height="1.4848439">
      <feGaussianBlur
         stdDeviation="0.58795691"
         id="feGaussianBlur2457" />
    </filter>
    <filter
       style="color-interpolation-filters:sRGB"
       id="filter2487"
       x="-0.15773918"
       width="1.3154784"
       y="-0.24922813"
       height="1.4984564">
      <feGaussianBlur
         stdDeviation="0.60446444"
         id="feGaussianBlur2489" />
    </filter>
    <filter
       style="color-interpolation-filters:sRGB"
       id="filter2513"
       x="-0.15773918"
       width="1.3154784"
       y="-0.24922813"
       height="1.4984564">
      <feGaussianBlur
         stdDeviation="0.60446444"
         id="feGaussianBlur2515" />
    </filter>
    <filter
       style="color-interpolation-filters:sRGB"
       id="filter2539"
       x="-0.26586011"
       width="1.5317202"
       y="-0.24169083"
       height="1.4833817">
      <feGaussianBlur
         stdDeviation="0.58618385"
         id="feGaussianBlur2541" />
    </filter>
    <filter
       style="color-interpolation-filters:sRGB"
       id="filter2565"
       x="-0.23303065"
       width="1.4660614"
       y="-0.24235214"
       height="1.4847043">
      <feGaussianBlur
         stdDeviation="0.58778775"
         id="feGaussianBlur2567" />
    </filter>
    <filter
       style="color-interpolation-filters:sRGB"
       id="filter2591"
       x="-0.37638688"
       width="1.7527738"
       y="-0.20615722"
       height="1.4123144">
      <feGaussianBlur
         stdDeviation="0.5809124"
         id="feGaussianBlur2593" />
    </filter>
    <filter
       style="color-interpolation-filters:sRGB"
       id="filter2617"
       x="-0.27491462"
       width="1.5498292"
       y="-0.24092501"
       height="1.48185">
      <feGaussianBlur
         stdDeviation="0.58432646"
         id="feGaussianBlur2619" />
    </filter>
    <filter
       style="color-interpolation-filters:sRGB"
       id="filter2643"
       x="-0.43075684"
       width="1.8615137"
       y="-0.17689764"
       height="1.3537953">
      <feGaussianBlur
         stdDeviation="0.58505213"
         id="feGaussianBlur2645" />
    </filter>
    <filter
       style="color-interpolation-filters:sRGB"
       id="filter2663"
       x="-0.23303065"
       width="1.4660614"
       y="-0.24235214"
       height="1.4847043">
      <feGaussianBlur
         stdDeviation="0.58778775"
         id="feGaussianBlur2665" />
    </filter>
    <filter
       style="color-interpolation-filters:sRGB"
       id="filter2691"
       x="-0.18691304"
       width="1.3738261"
       y="-0.19737159"
       height="1.3947432">
      <feGaussianBlur
         stdDeviation="0.6066364"
         id="feGaussianBlur2693" />
    </filter>
    <filter
       style="color-interpolation-filters:sRGB"
       id="filter2703"
       x="-0.24968532"
       width="1.4993706"
       y="-0.2424219"
       height="1.4848439">
      <feGaussianBlur
         stdDeviation="0.58795691"
         id="feGaussianBlur2705" />
    </filter>
    <filter
       style="color-interpolation-filters:sRGB"
       id="filter2723"
       x="-0.37638164"
       width="1.7527633"
       y="-0.2061588"
       height="1.4123176">
      <feGaussianBlur
         stdDeviation="0.58091683"
         id="feGaussianBlur2725" />
    </filter>
    <filter
       style="color-interpolation-filters:sRGB"
       id="filter2739"
       x="-0.42580742"
       width="1.851615"
       y="-0.17895399"
       height="1.357908">
      <feGaussianBlur
         stdDeviation="0.58396117"
         id="feGaussianBlur2741" />
    </filter>
    <filter
       style="color-interpolation-filters:sRGB"
       id="filter2759"
       x="-0.43075684"
       width="1.8615137"
       y="-0.17689764"
       height="1.3537953">
      <feGaussianBlur
         stdDeviation="0.58505213"
         id="feGaussianBlur2761" />
    </filter>
    <filter
       style="color-interpolation-filters:sRGB"
       id="filter2779"
       x="-0.23303065"
       width="1.4660614"
       y="-0.24235214"
       height="1.4847043">
      <feGaussianBlur
         stdDeviation="0.58778775"
         id="feGaussianBlur2781" />
    </filter>
  </defs>
  <metadata
     id="metadata3354">
    <rdf:RDF>
      <cc:Work
         rdf:about="">
        <dc:format>image/svg+xml</dc:format>
        <dc:type
           rdf:resource="http://purl.org/dc/dcmitype/StillImage" />
        <dc:title></dc:title>
      </cc:Work>
    </rdf:RDF>
  </metadata>
  <path
     style="opacity:1;fill:#555753;fill-opacity:1;stroke:none;stroke-width:4.38045835;stroke-miterlimit:4;stroke-dasharray:none;paint-order:stroke markers fill"
     d="M 0,0 H 211.40207 V 119.0625 H 0 Z"
     id="rect6108" />
  <g
     transform="matrix(1.1097917,0,0,1.0234149,-1.6397721,-6.8613634)"
     style="font-style:normal;font-weight:normal;font-size:40px;line-height:1.25;font-family:sans-serif;letter-spacing:0px;word-spacing:0px;fill:#000000;fill-opacity:1;stroke:none"
     id="flowRoot874" />
  <g
     transform="translate(-1.4775493,-3.9803138)"
     style="font-style:normal;font-weight:normal;font-size:40px;line-height:1.25;font-family:sans-serif;letter-spacing:0px;word-spacing:0px;fill:#000000;fill-opacity:1;stroke:none"
     id="flowRoot1087" />
  <g
     transform="translate(-2.1166667,1.0583333)"
     id="g1328">
    <path
       style="opacity:1;fill:#373e48;fill-opacity:1;stroke:none;stroke-width:0.8369382;stroke-linecap:round;stroke-linejoin:round;stroke-miterlimit:4;stroke-dasharray:none;stroke-opacity:1;paint-order:stroke markers fill"
       d="m 26.639165,34.32169 h 50.786184 c 1.081424,0 1.952029,0.870605 1.952029,1.952029 V 83.36966 c 0,1.081424 -0.870605,1.95203 -1.952029,1.95203 H 26.639165 c -1.081424,0 -1.952029,-0.870606 -1.952029,-1.95203 V 36.273719 c 0,-1.081424 0.870605,-1.952029 1.952029,-1.952029 z"
       id="rect815" />
    <g
       aria-label="K"
       transform="scale(1.1313787,0.88387734)"
       style="font-style:normal;font-weight:normal;font-size:32.36412048px;line-height:1.25;font-family:sans-serif;letter-spacing:0px;word-spacing:0px;fill:#ffffff;fill-opacity:1;stroke:none;stroke-width:0.80910301"
       id="text1353">
      <path
         d="m 34.080133,76.626953 3.68951,-19.677385 0.356005,-1.682934 H 45.05157 L 40.973691,76.626953 Z M 54.113524,74.71747 q -0.873831,2.556766 -4.2397,2.556766 -2.492037,0 -4.207336,-2.9775 -1.747662,-2.977499 -2.071303,-7.832117 3.560053,-6.505188 6.019726,-9.19141 2.362581,-2.556765 4.822254,-2.556765 1.326929,0 2.265489,0.71201 0.970923,0.712011 1.197472,1.844755 -1.10038,0.453098 -1.618206,0.809103 -1.294565,0.970924 -3.042227,3.13932 l -2.945135,3.527689 q -0.712011,0.841467 -1.003288,1.229836 0.485462,2.718587 1.941847,5.404809 1.391657,2.556765 2.880407,3.333504 z"
         style="font-style:normal;font-variant:normal;font-weight:normal;font-stretch:normal;font-family:'Sansita One';-inkscape-font-specification:'Sansita One';fill:#ffffff;stroke-width:0.80910301"
         id="path921" />
    </g>
    <path
       style="opacity:1;fill:#666666;fill-opacity:1;stroke:none;stroke-width:0.74336612;stroke-linecap:round;stroke-linejoin:round;stroke-miterlimit:4;stroke-dasharray:none;stroke-opacity:1;paint-order:stroke markers fill"
       d="m 26.185117,34.32169 h 51.647668 c 0.855745,0 1.544666,0.688921 1.544666,1.544665 v 8.319077 c 0,0.855745 -0.688921,1.544666 -1.544666,1.544666 H 26.185117 c -0.855745,0 -1.544666,-0.688921 -1.544666,-1.544666 v -8.319077 c 0,-0.855744 0.688921,-1.544665 1.544666,-1.544665 z"
       id="rect918" />
    <path
       style="opacity:1;fill:#ffffff;fill-opacity:1;stroke:none;stroke-width:0.73087931;stroke-linecap:round;stroke-linejoin:round;stroke-miterlimit:4;stroke-dasharray:none;stroke-opacity:1;paint-order:stroke markers fill"
       d="m 40.753636,38.702583 h 22.557232 c 0.855744,0 1.544664,0.68892 1.544664,1.544664 0,0.855743 -0.68892,1.544663 -1.544664,1.544663 H 40.753636 c -0.855743,0 -1.544663,-0.68892 -1.544663,-1.544663 0,-0.855744 0.68892,-1.544664 1.544663,-1.544664 z"
       id="rect817" />
    <path
       style="opacity:1;fill:#aa4400;fill-opacity:1;stroke:none;stroke-width:0.7427516;stroke-linecap:round;stroke-linejoin:round;stroke-miterlimit:4;stroke-dasharray:none;stroke-opacity:1;paint-order:stroke markers fill"
       d="m 32.821588,70.107803 h 38.42133 c 0.557635,0 1.006561,0.448927 1.006561,1.006562 v 0.930597 c 0,0.557634 -0.448926,1.006561 -1.006561,1.006561 h -38.42133 c -0.557634,0 -1.006561,-0.448927 -1.006561,-1.006561 v -0.930597 c 0,-0.557635 0.448927,-1.006562 1.006561,-1.006562 z"
       id="rect914" />
    <path
       style="opacity:1;fill:#aa4400;fill-opacity:1;stroke:none;stroke-width:0.7427516;stroke-linecap:round;stroke-linejoin:round;stroke-miterlimit:4;stroke-dasharray:none;stroke-opacity:1;paint-order:stroke markers fill"
       d="m 32.821588,75.829414 h 38.42133 c 0.557635,0 1.006561,0.448927 1.006561,1.006562 v 0.930597 c 0,0.557634 -0.448926,1.006561 -1.006561,1.006561 h -38.42133 c -0.557634,0 -1.006561,-0.448927 -1.006561,-1.006561 v -0.930597 c 0,-0.557635 0.448927,-1.006562 1.006561,-1.006562 z"
       id="rect916" />
  </g>
  <g
     id="flowRoot83"
     style="font-style:normal;font-weight:normal;font-size:40px;line-height:1.25;font-family:sans-serif;letter-spacing:0px;word-spacing:0px;fill:#ffffff;fill-opacity:1;stroke:none"
     transform="matrix(0.40254393,0,0,0.4402078,291.81471,-52.330426)"
     aria-label="Code Comments
in
Kotlin">
    <path
       id="path95"
       style="font-style:italic;font-variant:normal;font-weight:500;font-stretch:normal;font-family:Ubuntu;-inkscape-font-specification:'Ubuntu Medium Italic';text-align:center;text-anchor:middle;fill:#ffffff"
       d="m -506.24414,210.44539 q -1.32,0.68 -3.36,1.24 -2.04,0.56 -4.96,0.56 -2.56,0 -4.56,-0.76 -2,-0.8 -3.4,-2.28 -1.4,-1.48 -2.16,-3.56 -0.72,-2.08 -0.72,-4.68 0,-3.36 1.12,-6.52 1.12,-3.2 3.24,-5.68 2.12,-2.48 5.16,-3.96 3.04,-1.52 6.88,-1.52 2.52,0 4.36,0.56 1.88,0.56 3.28,1.36 l -1.92,4.04 q -1.28,-0.76 -2.76,-1.16 -1.44,-0.44 -3.28,-0.44 -2.52,0 -4.52,1.12 -2,1.12 -3.44,2.96 -1.4,1.8 -2.16,4.12 -0.72,2.32 -0.72,4.72 0,3.72 1.6,5.52 1.64,1.76 4.76,1.76 2.4,0 4.08,-0.52 1.68,-0.56 2.88,-1.12 z" />
    <path
       id="path97"
       style="font-style:italic;font-variant:normal;font-weight:500;font-stretch:normal;font-family:Ubuntu;-inkscape-font-specification:'Ubuntu Medium Italic';text-align:center;text-anchor:middle;fill:#ffffff"
       d="m -495.59914,212.20539 q -3.72,0 -5.68,-2.2 -1.96,-2.2 -1.96,-5.8 0,-2.32 0.72,-4.8 0.72,-2.48 2.2,-4.52 1.48,-2.04 3.72,-3.36 2.24,-1.32 5.28,-1.32 3.72,0 5.68,2.2 1.96,2.16 1.96,5.76 0,2.36 -0.72,4.84 -0.68,2.48 -2.16,4.52 -1.44,2.04 -3.72,3.36 -2.24,1.32 -5.32,1.32 z m 3.68,-17.92 q -1.56,0 -2.8,0.92 -1.2,0.88 -2.04,2.28 -0.8,1.4 -1.24,3.08 -0.44,1.64 -0.44,3.2 0,2 0.76,3.16 0.76,1.16 2.68,1.16 1.56,0 2.76,-0.88 1.24,-0.92 2.04,-2.28 0.84,-1.4 1.28,-3.08 0.44,-1.68 0.44,-3.2 0,-2 -0.76,-3.16 -0.76,-1.2 -2.68,-1.2 z" />
    <path
       id="path99"
       style="font-style:italic;font-variant:normal;font-weight:500;font-stretch:normal;font-family:Ubuntu;-inkscape-font-specification:'Ubuntu Medium Italic';text-align:center;text-anchor:middle;fill:#ffffff"
       d="m -473.69914,212.20539 q -1.88,0 -3.24,-0.6 -1.36,-0.64 -2.24,-1.72 -0.84,-1.08 -1.24,-2.56 -0.4,-1.48 -0.4,-3.2 0,-2.68 0.92,-5.16 0.96,-2.52 2.68,-4.4 1.76,-1.92 4.28,-3.04 2.52,-1.16 5.72,-1.16 0.4,0 0.96,0.04 0.56,0.04 1.24,0.2 l 2.2,-9.2 5.04,-0.8 -5.48,22.68 q -0.2,0.92 -0.32,1.88 -0.08,0.92 -0.08,1.76 0,1.08 0.2,2.16 0.2,1.08 0.64,2.24 l -4.32,0.64 q -0.44,-0.84 -0.76,-2.04 -1,0.88 -2.44,1.6 -1.44,0.68 -3.36,0.68 z m 7.72,-17.68 q -0.76,-0.16 -1.84,-0.16 -1.84,0 -3.36,0.8 -1.52,0.76 -2.6,2.08 -1.08,1.28 -1.68,2.96 -0.56,1.68 -0.56,3.48 0,0.92 0.16,1.72 0.2,0.8 0.6,1.4 0.4,0.6 1.04,0.96 0.68,0.36 1.64,0.36 1.28,0 2.24,-0.52 1,-0.52 1.88,-1.44 0.04,-0.84 0.16,-1.76 0.16,-0.92 0.36,-1.8 z" />
    <path
       id="path101"
       style="font-style:italic;font-variant:normal;font-weight:500;font-stretch:normal;font-family:Ubuntu;-inkscape-font-specification:'Ubuntu Medium Italic';text-align:center;text-anchor:middle;fill:#ffffff"
       d="m -457.84852,204.08539 q 0,-2.68 0.84,-5.16 0.88,-2.52 2.48,-4.44 1.64,-1.96 3.92,-3.12 2.28,-1.16 5.12,-1.16 3.04,0 4.72,1.56 1.68,1.56 1.68,4 0,2.52 -1.24,4.08 -1.24,1.56 -3.24,2.44 -1.96,0.88 -4.48,1.2 -2.48,0.32 -5.04,0.4 -0.04,0.08 -0.04,0.16 v 0.4 q 0,3.64 4.6,3.64 2.72,0 5.44,-1.12 l 0.4,3.92 q -0.96,0.44 -2.72,0.88 -1.76,0.44 -4,0.44 -2.24,0 -3.84,-0.64 -1.6,-0.64 -2.64,-1.76 -1,-1.12 -1.48,-2.56 -0.48,-1.48 -0.48,-3.16 z m 11.64,-9.92 q -1.2,0 -2.28,0.48 -1.08,0.48 -1.92,1.32 -0.84,0.84 -1.48,2 -0.6,1.12 -0.88,2.44 4.8,-0.16 6.96,-1.16 2.2,-1 2.2,-3 0,-0.8 -0.6,-1.44 -0.56,-0.64 -2,-0.64 z" />
    <path
       id="path103"
       style="font-style:italic;font-variant:normal;font-weight:500;font-stretch:normal;font-family:Ubuntu;-inkscape-font-specification:'Ubuntu Medium Italic';text-align:center;text-anchor:middle;fill:#ffffff"
       d="m -407.33789,210.44539 q -1.32,0.68 -3.36,1.24 -2.04,0.56 -4.96,0.56 -2.56,0 -4.56,-0.76 -2,-0.8 -3.4,-2.28 -1.4,-1.48 -2.16,-3.56 -0.72,-2.08 -0.72,-4.68 0,-3.36 1.12,-6.52 1.12,-3.2 3.24,-5.68 2.12,-2.48 5.16,-3.96 3.04,-1.52 6.88,-1.52 2.52,0 4.36,0.56 1.88,0.56 3.28,1.36 l -1.92,4.04 q -1.28,-0.76 -2.76,-1.16 -1.44,-0.44 -3.28,-0.44 -2.52,0 -4.52,1.12 -2,1.12 -3.44,2.96 -1.4,1.8 -2.16,4.12 -0.72,2.32 -0.72,4.72 0,3.72 1.6,5.52 1.64,1.76 4.76,1.76 2.4,0 4.08,-0.52 1.68,-0.56 2.88,-1.12 z" />
    <path
       id="path105"
       style="font-style:italic;font-variant:normal;font-weight:500;font-stretch:normal;font-family:Ubuntu;-inkscape-font-specification:'Ubuntu Medium Italic';text-align:center;text-anchor:middle;fill:#ffffff"
       d="m -396.69289,212.20539 q -3.72,0 -5.68,-2.2 -1.96,-2.2 -1.96,-5.8 0,-2.32 0.72,-4.8 0.72,-2.48 2.2,-4.52 1.48,-2.04 3.72,-3.36 2.24,-1.32 5.28,-1.32 3.72,0 5.68,2.2 1.96,2.16 1.96,5.76 0,2.36 -0.72,4.84 -0.68,2.48 -2.16,4.52 -1.44,2.04 -3.72,3.36 -2.24,1.32 -5.32,1.32 z m 3.68,-17.92 q -1.56,0 -2.8,0.92 -1.2,0.88 -2.04,2.28 -0.8,1.4 -1.24,3.08 -0.44,1.64 -0.44,3.2 0,2 0.76,3.16 0.76,1.16 2.68,1.16 1.56,0 2.76,-0.88 1.24,-0.92 2.04,-2.28 0.84,-1.4 1.28,-3.08 0.44,-1.68 0.44,-3.2 0,-2 -0.76,-3.16 -0.76,-1.2 -2.68,-1.2 z" />
    <path
       id="path107"
       style="font-style:italic;font-variant:normal;font-weight:500;font-stretch:normal;font-family:Ubuntu;-inkscape-font-specification:'Ubuntu Medium Italic';text-align:center;text-anchor:middle;fill:#ffffff"
       d="m -377.99289,191.60539 q 1.6,-0.48 3.6,-0.88 2,-0.44 4.4,-0.44 1.8,0 3,0.52 1.24,0.52 2.08,1.48 1.16,-0.68 2.8,-1.32 1.68,-0.68 3.8,-0.68 1.84,0 3.12,0.52 1.28,0.52 2.08,1.44 0.8,0.92 1.16,2.2 0.36,1.24 0.36,2.72 0,1.64 -0.44,3.48 l -2.64,11 h -4.84 l 2.48,-10.48 q 0.2,-0.76 0.36,-1.64 0.2,-0.92 0.2,-1.84 0,-0.64 -0.16,-1.24 -0.12,-0.64 -0.48,-1.08 -0.36,-0.44 -1,-0.72 -0.6,-0.28 -1.56,-0.28 -1.04,0 -2.04,0.4 -1,0.4 -1.68,0.84 0.16,0.76 0.16,1.64 0,0.8 -0.12,1.68 -0.12,0.88 -0.32,1.72 l -2.64,11 h -4.84 l 2.48,-10.48 q 0.2,-0.72 0.36,-1.64 0.2,-0.96 0.2,-1.88 0,-1.32 -0.64,-2.28 -0.6,-1 -2.32,-1 -0.8,0 -1.52,0.12 -0.72,0.08 -1.32,0.24 l -4.04,16.92 h -4.84 z" />
    <path
       id="path109"
       style="font-style:italic;font-variant:normal;font-weight:500;font-stretch:normal;font-family:Ubuntu;-inkscape-font-specification:'Ubuntu Medium Italic';text-align:center;text-anchor:middle;fill:#ffffff"
       d="m -344.32102,191.60539 q 1.6,-0.48 3.6,-0.88 2,-0.44 4.4,-0.44 1.8,0 3,0.52 1.24,0.52 2.08,1.48 1.16,-0.68 2.8,-1.32 1.68,-0.68 3.8,-0.68 1.84,0 3.12,0.52 1.28,0.52 2.08,1.44 0.8,0.92 1.16,2.2 0.36,1.24 0.36,2.72 0,1.64 -0.44,3.48 l -2.64,11 h -4.84 l 2.48,-10.48 q 0.2,-0.76 0.36,-1.64 0.2,-0.92 0.2,-1.84 0,-0.64 -0.16,-1.24 -0.12,-0.64 -0.48,-1.08 -0.36,-0.44 -1,-0.72 -0.6,-0.28 -1.56,-0.28 -1.04,0 -2.04,0.4 -1,0.4 -1.68,0.84 0.16,0.76 0.16,1.64 0,0.8 -0.12,1.68 -0.12,0.88 -0.32,1.72 l -2.64,11 h -4.84 l 2.48,-10.48 q 0.2,-0.72 0.36,-1.64 0.2,-0.96 0.2,-1.88 0,-1.32 -0.64,-2.28 -0.6,-1 -2.32,-1 -0.8,0 -1.52,0.12 -0.72,0.08 -1.32,0.24 l -4.04,16.92 h -4.84 z" />
    <path
       id="path111"
       style="font-style:italic;font-variant:normal;font-weight:500;font-stretch:normal;font-family:Ubuntu;-inkscape-font-specification:'Ubuntu Medium Italic';text-align:center;text-anchor:middle;fill:#ffffff"
       d="m -314.48914,204.08539 q 0,-2.68 0.84,-5.16 0.88,-2.52 2.48,-4.44 1.64,-1.96 3.92,-3.12 2.28,-1.16 5.12,-1.16 3.04,0 4.72,1.56 1.68,1.56 1.68,4 0,2.52 -1.24,4.08 -1.24,1.56 -3.24,2.44 -1.96,0.88 -4.48,1.2 -2.48,0.32 -5.04,0.4 -0.04,0.08 -0.04,0.16 v 0.4 q 0,3.64 4.6,3.64 2.72,0 5.44,-1.12 l 0.4,3.92 q -0.96,0.44 -2.72,0.88 -1.76,0.44 -4,0.44 -2.24,0 -3.84,-0.64 -1.6,-0.64 -2.64,-1.76 -1,-1.12 -1.48,-2.56 -0.48,-1.48 -0.48,-3.16 z m 11.64,-9.92 q -1.2,0 -2.28,0.48 -1.08,0.48 -1.92,1.32 -0.84,0.84 -1.48,2 -0.6,1.12 -0.88,2.44 4.8,-0.16 6.96,-1.16 2.2,-1 2.2,-3 0,-0.8 -0.6,-1.44 -0.56,-0.64 -2,-0.64 z" />
    <path
       id="path113"
       style="font-style:italic;font-variant:normal;font-weight:500;font-stretch:normal;font-family:Ubuntu;-inkscape-font-specification:'Ubuntu Medium Italic';text-align:center;text-anchor:middle;fill:#ffffff"
       d="m -289.71164,191.60539 q 1.6,-0.48 3.64,-0.88 2.08,-0.44 4.52,-0.44 3.68,0 5.4,1.8 1.72,1.8 1.72,4.84 0,0.84 -0.16,1.8 -0.12,0.92 -0.32,1.92 l -2.64,11 h -4.84 l 2.48,-10.48 q 0.2,-0.88 0.4,-1.8 0.2,-0.92 0.24,-1.76 0.04,-1.4 -0.68,-2.32 -0.68,-0.92 -2.72,-0.92 -1.72,0 -2.96,0.36 l -4.04,16.92 h -4.84 z" />
    <path
       id="path115"
       style="font-style:italic;font-variant:normal;font-weight:500;font-stretch:normal;font-family:Ubuntu;-inkscape-font-specification:'Ubuntu Medium Italic';text-align:center;text-anchor:middle;fill:#ffffff"
       d="m -266.21164,185.20539 5.04,-0.8 -1.52,6.32 h 6.84 l -0.96,4 h -6.84 l -2,8.28 q -0.2,0.88 -0.28,1.48 -0.08,0.56 -0.08,1.04 0,0.48 0.08,0.96 0.12,0.44 0.4,0.8 0.32,0.32 0.88,0.56 0.6,0.2 1.6,0.2 1.08,0 2.08,-0.28 1,-0.28 1.76,-0.6 l 0.36,3.88 q -0.92,0.4 -2.32,0.76 -1.4,0.36 -3.28,0.36 -3.44,0 -4.92,-1.48 -1.48,-1.52 -1.48,-4.12 0,-0.96 0.12,-1.96 0.16,-1.04 0.44,-2.2 z" />
    <path
       id="path117"
       style="font-style:italic;font-variant:normal;font-weight:500;font-stretch:normal;font-family:Ubuntu;-inkscape-font-specification:'Ubuntu Medium Italic';text-align:center;text-anchor:middle;fill:#ffffff"
       d="m -249.33102,208.24539 q 1.92,0 3.04,-0.6 1.12,-0.64 1.12,-1.92 0,-1.04 -0.72,-1.64 -0.72,-0.64 -2.52,-1.48 -0.96,-0.44 -1.8,-0.92 -0.8,-0.48 -1.4,-1.12 -0.6,-0.64 -0.96,-1.48 -0.36,-0.88 -0.36,-2.08 0,-3.12 2.28,-4.96 2.28,-1.84 6.6,-1.84 2,0 3.56,0.44 1.6,0.4 2.4,0.84 l -1.72,3.76 q -0.68,-0.4 -1.96,-0.76 -1.28,-0.4 -2.68,-0.4 -0.68,0 -1.36,0.12 -0.64,0.12 -1.16,0.4 -0.52,0.28 -0.88,0.8 -0.32,0.48 -0.32,1.2 0,0.92 0.72,1.52 0.76,0.56 2.16,1.2 1.32,0.6 2.24,1.16 0.92,0.56 1.52,1.28 0.6,0.68 0.88,1.56 0.28,0.84 0.28,2.04 0,1.48 -0.6,2.76 -0.6,1.24 -1.76,2.16 -1.12,0.88 -2.8,1.4 -1.68,0.52 -3.84,0.52 -1.48,0 -2.68,-0.2 -1.16,-0.2 -2.04,-0.44 -0.88,-0.28 -1.48,-0.56 -0.6,-0.28 -0.92,-0.48 l 1.72,-3.8 q 0.28,0.16 0.8,0.44 0.56,0.24 1.24,0.48 0.72,0.24 1.56,0.44 0.88,0.16 1.84,0.16 z" />
    <path
       id="path119"
       style="font-style:italic;font-variant:normal;font-weight:500;font-stretch:normal;font-family:Ubuntu;-inkscape-font-specification:'Ubuntu Medium Italic';text-align:center;text-anchor:middle;fill:#ffffff"
       d="m -394.47727,263.55445 h -4.8 l 5,-20.92 h 4.84 z m 3.6,-24.08 q -1.08,0 -1.88,-0.64 -0.8,-0.64 -0.8,-1.92 0,-1.48 1,-2.44 1.04,-0.96 2.36,-0.96 1.08,0 1.88,0.68 0.84,0.64 0.84,1.92 0,1.48 -1.04,2.44 -1.04,0.92 -2.36,0.92 z" />
    <path
       id="path121"
       style="font-style:italic;font-variant:normal;font-weight:500;font-stretch:normal;font-family:Ubuntu;-inkscape-font-specification:'Ubuntu Medium Italic';text-align:center;text-anchor:middle;fill:#ffffff"
       d="m -383.61789,243.51445 q 1.6,-0.48 3.64,-0.88 2.08,-0.44 4.52,-0.44 3.68,0 5.4,1.8 1.72,1.8 1.72,4.84 0,0.84 -0.16,1.8 -0.12,0.92 -0.32,1.92 l -2.64,11 h -4.84 l 2.48,-10.48 q 0.2,-0.88 0.4,-1.8 0.2,-0.92 0.24,-1.76 0.04,-1.4 -0.68,-2.32 -0.68,-0.92 -2.72,-0.92 -1.72,0 -2.96,0.36 l -4.04,16.92 h -4.84 z" />
    <path
       id="path123"
       style="font-style:italic;font-variant:normal;font-weight:500;font-stretch:normal;font-family:Ubuntu;-inkscape-font-specification:'Ubuntu Medium Italic';text-align:center;text-anchor:middle;fill:#ffffff"
       d="m -419.66383,315.46351 q -0.8,-1.6 -1.8,-3.32 -0.96,-1.76 -2.08,-3.4 -1.08,-1.68 -2.32,-3.16 -1.2,-1.48 -2.4,-2.6 l -3,12.48 h -5.04 l 6.64,-27.72 h 5.04 l -2.68,11.08 q 1.64,-1.32 3.4,-2.8 1.76,-1.48 3.44,-2.96 1.68,-1.48 3.16,-2.84 1.52,-1.36 2.68,-2.48 h 6.12 q -1.64,1.52 -3.52,3.2 -1.84,1.68 -3.8,3.44 -1.92,1.72 -3.92,3.44 -1.96,1.68 -3.88,3.2 1.24,1.28 2.56,2.92 1.32,1.64 2.56,3.52 1.24,1.88 2.36,3.92 1.12,2.04 2.04,4.08 z" />
    <path
       id="path125"
       style="font-style:italic;font-variant:normal;font-weight:500;font-stretch:normal;font-family:Ubuntu;-inkscape-font-specification:'Ubuntu Medium Italic';text-align:center;text-anchor:middle;fill:#ffffff"
       d="m -403.91945,316.02351 q -3.72,0 -5.68,-2.2 -1.96,-2.2 -1.96,-5.8 0,-2.32 0.72,-4.8 0.72,-2.48 2.2,-4.52 1.48,-2.04 3.72,-3.36 2.24,-1.32 5.28,-1.32 3.72,0 5.68,2.2 1.96,2.16 1.96,5.76 0,2.36 -0.72,4.84 -0.68,2.48 -2.16,4.52 -1.44,2.04 -3.72,3.36 -2.24,1.32 -5.32,1.32 z m 3.68,-17.92 q -1.56,0 -2.8,0.92 -1.2,0.88 -2.04,2.28 -0.8,1.4 -1.24,3.08 -0.44,1.64 -0.44,3.2 0,2 0.76,3.16 0.76,1.16 2.68,1.16 1.56,0 2.76,-0.88 1.24,-0.92 2.04,-2.28 0.84,-1.4 1.28,-3.08 0.44,-1.68 0.44,-3.2 0,-2 -0.76,-3.16 -0.76,-1.2 -2.68,-1.2 z" />
    <path
       id="path127"
       style="font-style:italic;font-variant:normal;font-weight:500;font-stretch:normal;font-family:Ubuntu;-inkscape-font-specification:'Ubuntu Medium Italic';text-align:center;text-anchor:middle;fill:#ffffff"
       d="m -384.21945,289.02351 5.04,-0.8 -1.52,6.32 h 6.84 l -0.96,4 h -6.84 l -2,8.28 q -0.2,0.88 -0.28,1.48 -0.08,0.56 -0.08,1.04 0,0.48 0.08,0.96 0.12,0.44 0.4,0.8 0.32,0.32 0.88,0.56 0.6,0.2 1.6,0.2 1.08,0 2.08,-0.28 1,-0.28 1.76,-0.6 l 0.36,3.88 q -0.92,0.4 -2.32,0.76 -1.4,0.36 -3.28,0.36 -3.44,0 -4.92,-1.48 -1.48,-1.52 -1.48,-4.12 0,-0.96 0.12,-1.96 0.16,-1.04 0.44,-2.2 z" />
    <path
       id="path129"
       style="font-style:italic;font-variant:normal;font-weight:500;font-stretch:normal;font-family:Ubuntu;-inkscape-font-specification:'Ubuntu Medium Italic';text-align:center;text-anchor:middle;fill:#ffffff"
       d="m -366.00383,315.86351 q -1.88,-0.04 -3.2,-0.48 -1.28,-0.44 -2.08,-1.2 -0.76,-0.76 -1.12,-1.8 -0.32,-1.04 -0.32,-2.28 0,-1.28 0.28,-2.68 0.32,-1.44 0.68,-2.84 l 4.64,-19.36 5.04,-0.8 q -1.24,5.24 -2.48,10.44 -1.24,5.16 -2.52,10.4 -0.2,0.84 -0.44,1.68 -0.24,0.8 -0.24,1.6 0,0.68 0,1.28 0.04,0.56 0.32,1 0.32,0.4 0.92,0.68 0.6,0.28 1.56,0.36 z" />
    <path
       id="path131"
       style="font-style:italic;font-variant:normal;font-weight:500;font-stretch:normal;font-family:Ubuntu;-inkscape-font-specification:'Ubuntu Medium Italic';text-align:center;text-anchor:middle;fill:#ffffff"
       d="m -357.2507,315.46351 h -4.8 l 5,-20.92 h 4.84 z m 3.6,-24.08 q -1.08,0 -1.88,-0.64 -0.8,-0.64 -0.8,-1.92 0,-1.48 1,-2.44 1.04,-0.96 2.36,-0.96 1.08,0 1.88,0.68 0.84,0.64 0.84,1.92 0,1.48 -1.04,2.44 -1.04,0.92 -2.36,0.92 z" />
    <path
       id="path133"
       style="font-style:italic;font-variant:normal;font-weight:500;font-stretch:normal;font-family:Ubuntu;-inkscape-font-specification:'Ubuntu Medium Italic';text-align:center;text-anchor:middle;fill:#ffffff"
       d="m -346.39133,295.42351 q 1.6,-0.48 3.64,-0.88 2.08,-0.44 4.52,-0.44 3.68,0 5.4,1.8 1.72,1.8 1.72,4.84 0,0.84 -0.16,1.8 -0.12,0.92 -0.32,1.92 l -2.64,11 h -4.84 l 2.48,-10.48 q 0.2,-0.88 0.4,-1.8 0.2,-0.92 0.24,-1.76 0.04,-1.4 -0.68,-2.32 -0.68,-0.92 -2.72,-0.92 -1.72,0 -2.96,0.36 l -4.04,16.92 h -4.84 z" />
  </g>
</svg>
