<?xml version="1.0" encoding="UTF-8" standalone="no"?>
<svg
   xmlns:dc="http://purl.org/dc/elements/1.1/"
   xmlns:cc="http://creativecommons.org/ns#"
   xmlns:rdf="http://www.w3.org/1999/02/22-rdf-syntax-ns#"
   xmlns:svg="http://www.w3.org/2000/svg"
   xmlns="http://www.w3.org/2000/svg"
   xmlns:xlink="http://www.w3.org/1999/xlink"
   id="svg3357"
   version="1.1"
   viewBox="0 0 211.40207 119.0625"
   height="119.0625mm"
   width="211.40207mm">
  <defs
     id="defs3351">
    <linearGradient
       id="linearGradient6114">
      <stop
         id="stop6110"
         offset="0"
         style="stop-color:#6f7c91;stop-opacity:1;" />
      <stop
         id="stop6112"
         offset="1"
         style="stop-color:#162d50;stop-opacity:1" />
    </linearGradient>
    <radialGradient
       gradientUnits="userSpaceOnUse"
       gradientTransform="matrix(3.0071285,0,0,1.83657,-125.12732,-58.151445)"
       r="31.67275"
       fy="66.986313"
       fx="73.77433"
       cy="66.986313"
       cx="73.77433"
       id="radialGradient6126"
       xlink:href="#linearGradient6114" />
    <filter
       height="1.3879966"
       y="-0.19399828"
       width="1.4409912"
       x="-0.22049561"
       id="filter2341"
       style="color-interpolation-filters:sRGB">
      <feGaussianBlur
         id="feGaussianBlur2343"
         stdDeviation="0.5979795" />
    </filter>
    <filter
       height="1.4848439"
       y="-0.2424219"
       width="1.4993706"
       x="-0.24968532"
       id="filter2353"
       style="color-interpolation-filters:sRGB">
      <feGaussianBlur
         id="feGaussianBlur2355"
         stdDeviation="0.58795691" />
    </filter>
    <filter
       height="1.3686017"
       y="-0.18430082"
       width="1.4449662"
       x="-0.22248311"
       id="filter2391"
       style="color-interpolation-filters:sRGB">
      <feGaussianBlur
         id="feGaussianBlur2393"
         stdDeviation="0.60140892" />
    </filter>
    <filter
       height="1.4833821"
       y="-0.24169105"
       width="1.5317197"
       x="-0.26585984"
       id="filter2417"
       style="color-interpolation-filters:sRGB">
      <feGaussianBlur
         id="feGaussianBlur2419"
         stdDeviation="0.58618438" />
    </filter>
    <filter
       height="1.3879966"
       y="-0.19399828"
       width="1.4409912"
       x="-0.22049561"
       id="filter2443"
       style="color-interpolation-filters:sRGB">
      <feGaussianBlur
         id="feGaussianBlur2445"
         stdDeviation="0.5979795" />
    </filter>
    <filter
       height="1.4848439"
       y="-0.2424219"
       width="1.4993706"
       x="-0.24968532"
       id="filter2455"
       style="color-interpolation-filters:sRGB">
      <feGaussianBlur
         id="feGaussianBlur2457"
         stdDeviation="0.58795691" />
    </filter>
    <filter
       height="1.4984564"
       y="-0.24922813"
       width="1.3154784"
       x="-0.15773918"
       id="filter2487"
       style="color-interpolation-filters:sRGB">
      <feGaussianBlur
         id="feGaussianBlur2489"
         stdDeviation="0.60446444" />
    </filter>
    <filter
       height="1.4984564"
       y="-0.24922813"
       width="1.3154784"
       x="-0.15773918"
       id="filter2513"
       style="color-interpolation-filters:sRGB">
      <feGaussianBlur
         id="feGaussianBlur2515"
         stdDeviation="0.60446444" />
    </filter>
    <filter
       height="1.4833817"
       y="-0.24169083"
       width="1.5317202"
       x="-0.26586011"
       id="filter2539"
       style="color-interpolation-filters:sRGB">
      <feGaussianBlur
         id="feGaussianBlur2541"
         stdDeviation="0.58618385" />
    </filter>
    <filter
       height="1.4847043"
       y="-0.24235214"
       width="1.4660614"
       x="-0.23303065"
       id="filter2565"
       style="color-interpolation-filters:sRGB">
      <feGaussianBlur
         id="feGaussianBlur2567"
         stdDeviation="0.58778775" />
    </filter>
    <filter
       height="1.4123144"
       y="-0.20615722"
       width="1.7527738"
       x="-0.37638688"
       id="filter2591"
       style="color-interpolation-filters:sRGB">
      <feGaussianBlur
         id="feGaussianBlur2593"
         stdDeviation="0.5809124" />
    </filter>
    <filter
       height="1.48185"
       y="-0.24092501"
       width="1.5498292"
       x="-0.27491462"
       id="filter2617"
       style="color-interpolation-filters:sRGB">
      <feGaussianBlur
         id="feGaussianBlur2619"
         stdDeviation="0.58432646" />
    </filter>
    <filter
       height="1.3537953"
       y="-0.17689764"
       width="1.8615137"
       x="-0.43075684"
       id="filter2643"
       style="color-interpolation-filters:sRGB">
      <feGaussianBlur
         id="feGaussianBlur2645"
         stdDeviation="0.58505213" />
    </filter>
    <filter
       height="1.4847043"
       y="-0.24235214"
       width="1.4660614"
       x="-0.23303065"
       id="filter2663"
       style="color-interpolation-filters:sRGB">
      <feGaussianBlur
         id="feGaussianBlur2665"
         stdDeviation="0.58778775" />
    </filter>
    <filter
       height="1.3947432"
       y="-0.19737159"
       width="1.3738261"
       x="-0.18691304"
       id="filter2691"
       style="color-interpolation-filters:sRGB">
      <feGaussianBlur
         id="feGaussianBlur2693"
         stdDeviation="0.6066364" />
    </filter>
    <filter
       height="1.4848439"
       y="-0.2424219"
       width="1.4993706"
       x="-0.24968532"
       id="filter2703"
       style="color-interpolation-filters:sRGB">
      <feGaussianBlur
         id="feGaussianBlur2705"
         stdDeviation="0.58795691" />
    </filter>
    <filter
       height="1.4123176"
       y="-0.2061588"
       width="1.7527633"
       x="-0.37638164"
       id="filter2723"
       style="color-interpolation-filters:sRGB">
      <feGaussianBlur
         id="feGaussianBlur2725"
         stdDeviation="0.58091683" />
    </filter>
    <filter
       height="1.357908"
       y="-0.17895399"
       width="1.851615"
       x="-0.42580742"
       id="filter2739"
       style="color-interpolation-filters:sRGB">
      <feGaussianBlur
         id="feGaussianBlur2741"
         stdDeviation="0.58396117" />
    </filter>
    <filter
       height="1.3537953"
       y="-0.17689764"
       width="1.8615137"
       x="-0.43075684"
       id="filter2759"
       style="color-interpolation-filters:sRGB">
      <feGaussianBlur
         id="feGaussianBlur2761"
         stdDeviation="0.58505213" />
    </filter>
    <filter
       height="1.4847043"
       y="-0.24235214"
       width="1.4660614"
       x="-0.23303065"
       id="filter2779"
       style="color-interpolation-filters:sRGB">
      <feGaussianBlur
         id="feGaussianBlur2781"
         stdDeviation="0.58778775" />
    </filter>
  </defs>
  <metadata
     id="metadata3354">
    <rdf:RDF>
      <cc:Work
         rdf:about="">
        <dc:format>image/svg+xml</dc:format>
        <dc:type
           rdf:resource="http://purl.org/dc/dcmitype/StillImage" />
        <dc:title></dc:title>
      </cc:Work>
    </rdf:RDF>
  </metadata>
  <path
     id="rect6108"
     d="M 0,0 H 211.40207 V 119.0625 H 0 Z"
     style="opacity:1;fill:#555753;fill-opacity:1;stroke:none;stroke-width:4.38045835;stroke-miterlimit:4;stroke-dasharray:none;paint-order:stroke markers fill" />
  <g
     id="flowRoot874"
     style="font-style:normal;font-weight:normal;font-size:40px;line-height:1.25;font-family:sans-serif;letter-spacing:0px;word-spacing:0px;fill:#000000;fill-opacity:1;stroke:none"
     transform="matrix(1.1097917,0,0,1.0234149,-1.6397721,-6.8613634)" />
  <g
     id="flowRoot1087"
     style="font-style:normal;font-weight:normal;font-size:40px;line-height:1.25;font-family:sans-serif;letter-spacing:0px;word-spacing:0px;fill:#000000;fill-opacity:1;stroke:none"
     transform="translate(-1.4775493,-3.9803138)" />
  <g
     id="g1328"
     transform="translate(-2.1166667,1.0583333)">
    <path
       id="rect815"
       d="m 26.639165,34.32169 h 50.786184 c 1.081424,0 1.952029,0.870605 1.952029,1.952029 V 83.36966 c 0,1.081424 -0.870605,1.95203 -1.952029,1.95203 H 26.639165 c -1.081424,0 -1.952029,-0.870606 -1.952029,-1.95203 V 36.273719 c 0,-1.081424 0.870605,-1.952029 1.952029,-1.952029 z"
       style="opacity:1;fill:#373e48;fill-opacity:1;stroke:none;stroke-width:0.8369382;stroke-linecap:round;stroke-linejoin:round;stroke-miterlimit:4;stroke-dasharray:none;stroke-opacity:1;paint-order:stroke markers fill" />
    <g
       id="text1353"
       style="font-style:normal;font-weight:normal;font-size:32.36412048px;line-height:1.25;font-family:sans-serif;letter-spacing:0px;word-spacing:0px;fill:#ffffff;fill-opacity:1;stroke:none;stroke-width:0.80910301"
       transform="scale(1.1313787,0.88387734)"
       aria-label="K">
      <path
         id="path921"
         style="font-style:normal;font-variant:normal;font-weight:normal;font-stretch:normal;font-family:'Sansita One';-inkscape-font-specification:'Sansita One';fill:#ffffff;stroke-width:0.80910301"
         d="m 34.080133,76.626953 3.68951,-19.677385 0.356005,-1.682934 H 45.05157 L 40.973691,76.626953 Z M 54.113524,74.71747 q -0.873831,2.556766 -4.2397,2.556766 -2.492037,0 -4.207336,-2.9775 -1.747662,-2.977499 -2.071303,-7.832117 3.560053,-6.505188 6.019726,-9.19141 2.362581,-2.556765 4.822254,-2.556765 1.326929,0 2.265489,0.71201 0.970923,0.712011 1.197472,1.844755 -1.10038,0.453098 -1.618206,0.809103 -1.294565,0.970924 -3.042227,3.13932 l -2.945135,3.527689 q -0.712011,0.841467 -1.003288,1.229836 0.485462,2.718587 1.941847,5.404809 1.391657,2.556765 2.880407,3.333504 z" />
    </g>
    <path
       id="rect918"
       d="m 26.185117,34.32169 h 51.647668 c 0.855745,0 1.544666,0.688921 1.544666,1.544665 v 8.319077 c 0,0.855745 -0.688921,1.544666 -1.544666,1.544666 H 26.185117 c -0.855745,0 -1.544666,-0.688921 -1.544666,-1.544666 v -8.319077 c 0,-0.855744 0.688921,-1.544665 1.544666,-1.544665 z"
       style="opacity:1;fill:#666666;fill-opacity:1;stroke:none;stroke-width:0.74336612;stroke-linecap:round;stroke-linejoin:round;stroke-miterlimit:4;stroke-dasharray:none;stroke-opacity:1;paint-order:stroke markers fill" />
    <path
       id="rect817"
       d="m 40.753636,38.702583 h 22.557232 c 0.855744,0 1.544664,0.68892 1.544664,1.544664 0,0.855743 -0.68892,1.544663 -1.544664,1.544663 H 40.753636 c -0.855743,0 -1.544663,-0.68892 -1.544663,-1.544663 0,-0.855744 0.68892,-1.544664 1.544663,-1.544664 z"
       style="opacity:1;fill:#ffffff;fill-opacity:1;stroke:none;stroke-width:0.73087931;stroke-linecap:round;stroke-linejoin:round;stroke-miterlimit:4;stroke-dasharray:none;stroke-opacity:1;paint-order:stroke markers fill" />
    <path
       id="rect914"
       d="m 32.821588,70.107803 h 38.42133 c 0.557635,0 1.006561,0.448927 1.006561,1.006562 v 0.930597 c 0,0.557634 -0.448926,1.006561 -1.006561,1.006561 h -38.42133 c -0.557634,0 -1.006561,-0.448927 -1.006561,-1.006561 v -0.930597 c 0,-0.557635 0.448927,-1.006562 1.006561,-1.006562 z"
       style="opacity:1;fill:#aa4400;fill-opacity:1;stroke:none;stroke-width:0.7427516;stroke-linecap:round;stroke-linejoin:round;stroke-miterlimit:4;stroke-dasharray:none;stroke-opacity:1;paint-order:stroke markers fill" />
    <path
       id="rect916"
       d="m 32.821588,75.829414 h 38.42133 c 0.557635,0 1.006561,0.448927 1.006561,1.006562 v 0.930597 c 0,0.557634 -0.448926,1.006561 -1.006561,1.006561 h -38.42133 c -0.557634,0 -1.006561,-0.448927 -1.006561,-1.006561 v -0.930597 c 0,-0.557635 0.448927,-1.006562 1.006561,-1.006562 z"
       style="opacity:1;fill:#aa4400;fill-opacity:1;stroke:none;stroke-width:0.7427516;stroke-linecap:round;stroke-linejoin:round;stroke-miterlimit:4;stroke-dasharray:none;stroke-opacity:1;paint-order:stroke markers fill" />
  </g>
  <g
     id="g1299"
     transform="matrix(1.2112808,0,0,1.9058507,173.65699,-278.61781)">
    <g
       aria-label="Code   CommentsinKotlin"
       style="font-style:normal;font-weight:normal;font-size:10.58333397px;line-height:1.25;font-family:sans-serif;letter-spacing:0px;word-spacing:0px;fill:#373e48;fill-opacity:1;stroke:#373e48;stroke-width:1.32291663;stroke-linecap:round;stroke-linejoin:round;stroke-miterlimit:4;stroke-dasharray:none"
       id="text1267">
      <path
         d="m -69.554556,164.12703 q 0.275166,0.20108 0.275166,0.635 0,0.42333 -0.1905,0.73025 -0.179916,0.29633 -0.53975,0.52917 -0.772583,0.49741 -2.12725,0.49741 -1.344083,0 -2.084917,-0.6985 -0.73025,-0.70908 -0.73025,-1.95791 0,-1.76742 0.92075,-3.1115 0.6985,-0.99484 1.947334,-1.41817 0.645583,-0.21167 1.280583,-0.21167 0.635,0 1.026584,0.0847 0.391583,0.0847 0.687916,0.254 0.645584,0.37042 0.645584,0.96308 0,0.53975 -0.508,0.94192 -0.465667,0.35983 -0.846667,0.35983 -0.381,0 -0.53975,-0.0529 0.04233,-0.381 0.04233,-0.62442 0,-0.254 -0.01058,-0.43392 -0.01058,-0.17991 -0.0635,-0.34925 -0.105834,-0.39158 -0.433917,-0.39158 -0.3175,0 -0.645583,0.30692 -0.3175,0.29633 -0.592667,0.80433 -0.624417,1.15358 -0.624417,2.51883 0,0.65617 0.370417,1.03717 0.370417,0.37042 1.164167,0.37042 0.592666,0 1.153583,-0.39159 0.243417,-0.16933 0.423334,-0.39158 z"
         style="font-style:normal;font-variant:normal;font-weight:normal;font-stretch:normal;font-family:'Sansita One';-inkscape-font-specification:'Sansita One';text-align:center;text-anchor:middle;fill:#373e48;stroke:#373e48;stroke-width:1.32291663;stroke-linecap:round;stroke-linejoin:round;stroke-miterlimit:4;stroke-dasharray:none"
         id="path892" />
      <path
         d="m -66.095294,166.52945 q -2.328334,0 -2.328334,-2.19075 0,-1.55575 0.85725,-2.56117 0.910167,-1.06892 2.487084,-1.06892 1.143,0 1.725083,0.52917 0.582084,0.52917 0.582084,1.64042 0,1.69333 -0.910167,2.67758 -0.889,0.97367 -2.413,0.97367 z m 0.275166,-4.60375 q -0.127,0.28575 -0.232833,0.71966 -0.09525,0.42334 -0.22225,1.10067 -0.127,0.67733 -0.127,1.51342 0,0.27516 0.08467,0.45508 0.09525,0.17992 0.338666,0.17992 0.243417,0 0.391584,-0.11642 0.15875,-0.11642 0.275166,-0.39158 0.211667,-0.48684 0.381,-1.38642 0.169334,-0.91017 0.179917,-1.30175 0.02117,-0.39158 0.02117,-0.67733 0,-0.29634 -0.08467,-0.48684 -0.08467,-0.1905 -0.328083,-0.1905 -0.232834,0 -0.391584,0.14817 -0.15875,0.14817 -0.28575,0.43392 z"
         style="font-style:normal;font-variant:normal;font-weight:normal;font-stretch:normal;font-family:'Sansita One';-inkscape-font-specification:'Sansita One';text-align:center;text-anchor:middle;fill:#373e48;stroke:#373e48;stroke-width:1.32291663;stroke-linecap:round;stroke-linejoin:round;stroke-miterlimit:4;stroke-dasharray:none"
         id="path894" />
      <path
         d="m -58.805527,160.70861 q 0.381,0 0.677333,0.0847 0.01058,-0.0423 0.03175,-0.15875 l 0.05292,-0.32808 q 0.04233,-0.21167 0.105833,-0.56092 l 0.169333,-0.83608 2.106084,-0.21167 -1.17475,6.13833 q -0.01058,0.0635 -0.01058,0.16934 v 0.16933 q 0,0.23283 0.116417,0.41275 0.116417,0.16933 0.306917,0.16933 -0.211667,0.49742 -0.85725,0.70909 -0.22225,0.0635 -0.53975,0.0635 -0.306917,0 -0.592667,-0.16934 -0.28575,-0.15875 -0.370417,-0.43391 -0.169333,0.27516 -0.508,0.43391 -0.338666,0.16934 -0.836083,0.16934 -0.486833,0 -0.899583,-0.127 -0.402167,-0.127 -0.656167,-0.40217 -0.465667,-0.53975 -0.465667,-1.76742 0,-1.5875 0.931334,-2.55058 0.931333,-0.97367 2.413,-0.97367 z m -0.07408,0.635 q -0.391583,0 -0.60325,0.42334 -0.211666,0.42333 -0.433916,1.47108 -0.211667,1.04775 -0.211667,1.98967 0,0.64558 0.381,0.64558 0.338667,0 0.5715,-0.33867 0.243417,-0.33866 0.338667,-0.89958 l 0.5715,-3.10092 q -0.22225,-0.1905 -0.613834,-0.1905 z"
         style="font-style:normal;font-variant:normal;font-weight:normal;font-stretch:normal;font-family:'Sansita One';-inkscape-font-specification:'Sansita One';text-align:center;text-anchor:middle;fill:#373e48;stroke:#373e48;stroke-width:1.32291663;stroke-linecap:round;stroke-linejoin:round;stroke-miterlimit:4;stroke-dasharray:none"
         id="path896" />
      <path
         d="m -51.238443,164.5292 q 0.264583,0.17991 0.264583,0.58208 0,0.39158 -0.201083,0.64558 -0.201084,0.254 -0.529167,0.42334 -0.677333,0.34925 -1.407583,0.34925 -0.73025,0 -1.164167,-0.15875 -0.423333,-0.15875 -0.709084,-0.45509 -0.560916,-0.56091 -0.560916,-1.5875 0,-1.59808 0.867833,-2.57175 0.931334,-1.04775 2.550584,-1.04775 1.005416,0 1.502833,0.42334 0.370417,0.3175 0.370417,0.83608 0,1.86267 -3.217334,1.86267 -0.04233,0.27516 -0.04233,0.508 0,0.48683 0.211667,0.67733 0.22225,0.17992 0.624416,0.17992 0.402167,0 0.8255,-0.17992 0.433917,-0.1905 0.613834,-0.48683 z m -2.159,-1.15359 q 0.751416,0 1.185333,-0.46566 0.433917,-0.4445 0.433917,-1.15359 0,-0.24341 -0.09525,-0.37041 -0.08467,-0.13759 -0.264584,-0.13759 -0.179916,0 -0.338666,0.0741 -0.148167,0.0635 -0.306917,0.29633 -0.391583,0.52917 -0.613833,1.75683 z"
         style="font-style:normal;font-variant:normal;font-weight:normal;font-stretch:normal;font-family:'Sansita One';-inkscape-font-specification:'Sansita One';text-align:center;text-anchor:middle;fill:#373e48;stroke:#373e48;stroke-width:1.32291663;stroke-linecap:round;stroke-linejoin:round;stroke-miterlimit:4;stroke-dasharray:none"
         id="path898" />
      <path
         d="m -37.866566,164.12703 q 0.275166,0.20108 0.275166,0.635 0,0.42333 -0.1905,0.73025 -0.179916,0.29633 -0.53975,0.52917 -0.772583,0.49741 -2.12725,0.49741 -1.344083,0 -2.084917,-0.6985 -0.73025,-0.70908 -0.73025,-1.95791 0,-1.76742 0.92075,-3.1115 0.698501,-0.99484 1.947334,-1.41817 0.645583,-0.21167 1.280583,-0.21167 0.635,0 1.026584,0.0847 0.391583,0.0847 0.687916,0.254 0.645584,0.37042 0.645584,0.96308 0,0.53975 -0.508,0.94192 -0.465667,0.35983 -0.846667,0.35983 -0.381,0 -0.53975,-0.0529 0.04233,-0.381 0.04233,-0.62442 0,-0.254 -0.01058,-0.43392 -0.01058,-0.17991 -0.0635,-0.34925 -0.105833,-0.39158 -0.433917,-0.39158 -0.3175,0 -0.645583,0.30692 -0.3175,0.29633 -0.592667,0.80433 -0.624416,1.15358 -0.624416,2.51883 0,0.65617 0.370416,1.03717 0.370417,0.37042 1.164167,0.37042 0.592667,0 1.153583,-0.39159 0.243417,-0.16933 0.423334,-0.39158 z"
         style="font-style:normal;font-variant:normal;font-weight:normal;font-stretch:normal;font-family:'Sansita One';-inkscape-font-specification:'Sansita One';text-align:center;text-anchor:middle;fill:#373e48;stroke:#373e48;stroke-width:1.32291663;stroke-linecap:round;stroke-linejoin:round;stroke-miterlimit:4;stroke-dasharray:none"
         id="path900" />
      <path
         d="m -34.407304,166.52945 q -2.328334,0 -2.328334,-2.19075 0,-1.55575 0.85725,-2.56117 0.910167,-1.06892 2.487084,-1.06892 1.143,0 1.725083,0.52917 0.582084,0.52917 0.582084,1.64042 0,1.69333 -0.910167,2.67758 -0.889,0.97367 -2.413,0.97367 z m 0.275167,-4.60375 q -0.127,0.28575 -0.232834,0.71966 -0.09525,0.42334 -0.22225,1.10067 -0.127,0.67733 -0.127,1.51342 0,0.27516 0.08467,0.45508 0.09525,0.17992 0.338667,0.17992 0.243416,0 0.391583,-0.11642 0.15875,-0.11642 0.275167,-0.39158 0.211666,-0.48684 0.381,-1.38642 0.169333,-0.91017 0.179916,-1.30175 0.02117,-0.39158 0.02117,-0.67733 0,-0.29634 -0.08467,-0.48684 -0.08467,-0.1905 -0.328083,-0.1905 -0.232833,0 -0.391583,0.14817 -0.15875,0.14817 -0.28575,0.43392 z"
         style="font-style:normal;font-variant:normal;font-weight:normal;font-stretch:normal;font-family:'Sansita One';-inkscape-font-specification:'Sansita One';text-align:center;text-anchor:middle;fill:#373e48;stroke:#373e48;stroke-width:1.32291663;stroke-linecap:round;stroke-linejoin:round;stroke-miterlimit:4;stroke-dasharray:none"
         id="path902" />
      <path
         d="m -22.831287,166.52945 q -1.280583,0 -1.280583,-0.99484 0,-0.43391 0.179916,-1.27 0.1905,-0.84666 0.254,-1.18533 0.148167,-0.77258 0.148167,-1.016 0,-0.53975 -0.402167,-0.53975 -0.264583,0 -0.518583,0.37042 -0.254,0.35983 -0.370417,1.09008 l -0.656166,3.33375 -2.06375,0.21167 0.5715,-2.87867 q 0.09525,-0.47625 0.179916,-1.016 0.08467,-0.53975 0.08467,-0.62442 0,-0.48683 -0.359833,-0.48683 -0.243417,0 -0.508,0.35983 -0.264584,0.35984 -0.41275,1.10067 l -0.645584,3.33375 -2.084917,0.21167 1.11125,-5.60917 1.725084,-0.21167 -0.179917,1.06892 q 0.275167,-0.5715 0.783167,-0.81492 0.508,-0.254 1.30175,-0.254 0.455083,0 0.751417,0.22225 0.296333,0.22225 0.391583,0.58209 0.179917,-0.37042 0.635,-0.58209 0.465667,-0.22225 1.026583,-0.22225 0.5715,0 0.846667,0.127 0.28575,0.11642 0.455084,0.3175 0.28575,0.37042 0.28575,1.04775 0,0.66675 -0.28575,2.05317 -0.148167,0.67733 -0.148167,0.93133 0,0.24342 0.137583,0.39159 0.148167,0.14816 0.359834,0.16933 -0.105834,0.35983 -0.47625,0.5715 -0.359834,0.21167 -0.836084,0.21167 z"
         style="font-style:normal;font-variant:normal;font-weight:normal;font-stretch:normal;font-family:'Sansita One';-inkscape-font-specification:'Sansita One';text-align:center;text-anchor:middle;fill:#373e48;stroke:#373e48;stroke-width:1.32291663;stroke-linecap:round;stroke-linejoin:round;stroke-miterlimit:4;stroke-dasharray:none"
         id="path904" />
      <path
         d="m -13.074775,166.52945 q -1.280584,0 -1.280584,-0.99484 0,-0.43391 0.179917,-1.27 0.1905,-0.84666 0.254,-1.18533 0.148167,-0.77258 0.148167,-1.016 0,-0.53975 -0.402167,-0.53975 -0.264583,0 -0.518583,0.37042 -0.254,0.35983 -0.370417,1.09008 l -0.656167,3.33375 -2.06375,0.21167 0.5715,-2.87867 q 0.09525,-0.47625 0.179917,-1.016 0.08467,-0.53975 0.08467,-0.62442 0,-0.48683 -0.359834,-0.48683 -0.243416,0 -0.508,0.35983 -0.264583,0.35984 -0.41275,1.10067 l -0.645583,3.33375 -2.084917,0.21167 1.11125,-5.60917 1.725084,-0.21167 -0.179917,1.06892 q 0.275167,-0.5715 0.783167,-0.81492 0.508,-0.254 1.30175,-0.254 0.455083,0 0.751416,0.22225 0.296334,0.22225 0.391584,0.58209 0.179916,-0.37042 0.635,-0.58209 0.465666,-0.22225 1.026583,-0.22225 0.5715,0 0.846667,0.127 0.28575,0.11642 0.455083,0.3175 0.28575,0.37042 0.28575,1.04775 0,0.66675 -0.28575,2.05317 -0.148166,0.67733 -0.148166,0.93133 0,0.24342 0.137583,0.39159 0.148167,0.14816 0.359833,0.16933 -0.105833,0.35983 -0.47625,0.5715 -0.359833,0.21167 -0.836083,0.21167 z"
         style="font-style:normal;font-variant:normal;font-weight:normal;font-stretch:normal;font-family:'Sansita One';-inkscape-font-specification:'Sansita One';text-align:center;text-anchor:middle;fill:#373e48;stroke:#373e48;stroke-width:1.32291663;stroke-linecap:round;stroke-linejoin:round;stroke-miterlimit:4;stroke-dasharray:none"
         id="path906" />
      <path
         d="m -6.6520137,164.5292 q 0.2645834,0.17991 0.2645834,0.58208 0,0.39158 -0.2010834,0.64558 -0.2010833,0.254 -0.5291667,0.42334 -0.6773333,0.34925 -1.4075834,0.34925 -0.73025,0 -1.1641667,-0.15875 -0.4233335,-0.15875 -0.7090835,-0.45509 -0.560917,-0.56091 -0.560917,-1.5875 0,-1.59808 0.867834,-2.57175 0.9313332,-1.04775 2.5505833,-1.04775 1.0054167,0 1.5028334,0.42334 0.3704167,0.3175 0.3704167,0.83608 0,1.86267 -3.2173335,1.86267 -0.042333,0.27516 -0.042333,0.508 0,0.48683 0.2116667,0.67733 0.22225,0.17992 0.6244167,0.17992 0.4021667,0 0.8255001,-0.17992 0.4339166,-0.1905 0.6138333,-0.48683 z m -2.1590001,-1.15359 q 0.7514167,0 1.1853334,-0.46566 0.4339167,-0.4445 0.4339167,-1.15359 0,-0.24341 -0.09525,-0.37041 -0.084667,-0.13759 -0.2645834,-0.13759 -0.1799166,0 -0.3386667,0.0741 -0.1481666,0.0635 -0.3069166,0.29633 -0.3915834,0.52917 -0.6138334,1.75683 z"
         style="font-style:normal;font-variant:normal;font-weight:normal;font-stretch:normal;font-family:'Sansita One';-inkscape-font-specification:'Sansita One';text-align:center;text-anchor:middle;fill:#373e48;stroke:#373e48;stroke-width:1.32291663;stroke-linecap:round;stroke-linejoin:round;stroke-miterlimit:4;stroke-dasharray:none"
         id="path908" />
      <path
         d="m -0.83911529,166.52945 q -1.28058341,0 -1.28058341,-0.99484 0.010583,-0.27516 0.09525,-0.74083 l 0.1905,-0.97367 q 0.28575,-1.37583 0.28575,-1.68275 0,-0.61383 -0.3598333,-0.61383 -0.6032501,0 -0.9207501,1.57692 l -0.6244167,3.21733 -2.1272501,0.21167 1.1006667,-5.61975 1.7356668,-0.20109 -0.1693333,1.03717 q 0.4974166,-1.03717 2.02141674,-1.03717 0.74083338,0 1.04775006,0.3175 0.31750002,0.30692 0.31750002,1.00542 0,0.65617 -0.33866669,2.19075 -0.15875001,0.68792 -0.15875001,0.9525 0,0.254 0.13758335,0.40217 0.14816667,0.14816 0.35983335,0.16933 -0.10583334,0.35983 -0.47625003,0.5715 -0.35983335,0.21167 -0.83608338,0.21167 z"
         style="font-style:normal;font-variant:normal;font-weight:normal;font-stretch:normal;font-family:'Sansita One';-inkscape-font-specification:'Sansita One';text-align:center;text-anchor:middle;fill:#373e48;stroke:#373e48;stroke-width:1.32291663;stroke-linecap:round;stroke-linejoin:round;stroke-miterlimit:4;stroke-dasharray:none"
         id="path910" />
      <path
         d="m 1.4887217,165.25945 q 0,-0.28575 0.1481667,-1.00542 l 0.5609167,-2.8575 H 1.5733884 l 0.042333,-0.3175 q 1.2700001,-0.381 2.4976668,-1.31233 h 0.508 l -0.254,1.15358 h 0.8255001 l -0.09525,0.47625 H 4.2827219 l -0.5397501,2.8575 q -0.1375833,0.65617 -0.1375833,0.87842 0,0.508 0.4445,0.61383 -0.1058333,0.35983 -0.4868334,0.5715 -0.381,0.21167 -0.92075,0.21167 -0.53975,0 -0.8466667,-0.33867 -0.3069167,-0.33867 -0.3069167,-0.93133 z"
         style="font-style:normal;font-variant:normal;font-weight:normal;font-stretch:normal;font-family:'Sansita One';-inkscape-font-specification:'Sansita One';text-align:center;text-anchor:middle;fill:#373e48;stroke:#373e48;stroke-width:1.32291663;stroke-linecap:round;stroke-linejoin:round;stroke-miterlimit:4;stroke-dasharray:none"
         id="path912" />
      <path
         d="m 8.3078561,162.60303 q 0.1481667,-0.39158 0.1481667,-0.73025 0,-0.62442 -0.508,-0.62442 -0.2645834,0 -0.4868334,0.24342 -0.2116667,0.23283 -0.2116667,0.52917 0,0.21166 0.1693334,0.381 0.2434166,0.23283 0.8678333,0.61383 0.6244167,0.381 0.8572501,0.6985 0.2434167,0.30692 0.2434167,0.74083 0,0.42334 -0.2116667,0.81492 -0.2010834,0.39158 -0.5715,0.66675 -0.7937501,0.59267 -2.0637502,0.59267 -0.6879167,0 -1.2170834,-0.35984 -0.5291667,-0.34925 -0.5291667,-0.762 0,-0.41275 0.2963334,-0.65616 0.3069167,-0.24342 0.7514167,-0.24342 0.4445,0 0.7196667,0.16933 -0.1375833,0.34925 -0.1375833,0.58209 0,0.6985 0.5926667,0.6985 0.254,0 0.4233333,-0.15875 0.1693334,-0.15875 0.1693334,-0.43392 0,-0.53975 -0.9101668,-1.11125 -0.7408333,-0.48683 -0.9101667,-0.67733 -0.28575,-0.33867 -0.28575,-0.762 0,-0.42334 0.2010833,-0.8255 0.2010834,-0.40217 0.5715001,-0.68792 0.7725834,-0.59267 2.1166668,-0.59267 0.6879167,0 1.0900834,0.27517 0.41275,0.27517 0.41275,0.74083 0,0.46567 -0.28575,0.73025 -0.2751667,0.26459 -0.7831667,0.26459 -0.3492501,0 -0.5185834,-0.11642 z"
         style="font-style:normal;font-variant:normal;font-weight:normal;font-stretch:normal;font-family:'Sansita One';-inkscape-font-specification:'Sansita One';text-align:center;text-anchor:middle;fill:#373e48;stroke:#373e48;stroke-width:1.32291663;stroke-linecap:round;stroke-linejoin:round;stroke-miterlimit:4;stroke-dasharray:none"
         id="path914" />
      <path
         d="m -34.887606,179.16354 q -0.328083,0.79375 -1.375833,0.79375 -0.53975,0 -0.878417,-0.37042 -0.28575,-0.32808 -0.28575,-0.65617 0,-0.85725 0.391583,-2.52941 l 0.391584,-2.05317 2.148417,-0.21167 -0.645584,3.34434 q -0.179916,0.78316 -0.179916,1.05833 0,0.60325 0.433916,0.62442 z m -1.566333,-6.2865 q 0,-0.41275 0.338666,-0.635 0.34925,-0.22225 0.846667,-0.22225 0.497417,0 0.79375,0.22225 0.306917,0.22225 0.306917,0.635 0,0.41275 -0.338667,0.62441 -0.328083,0.21167 -0.8255,0.21167 -0.497417,0 -0.814917,-0.21167 -0.306916,-0.21166 -0.306916,-0.62441 z"
         style="font-style:normal;font-variant:normal;font-weight:normal;font-stretch:normal;font-family:'Sansita One';-inkscape-font-specification:'Sansita One';text-align:center;text-anchor:middle;fill:#373e48;stroke:#373e48;stroke-width:1.32291663;stroke-linecap:round;stroke-linejoin:round;stroke-miterlimit:4;stroke-dasharray:none"
         id="path916" />
      <path
         d="m -29.51954,179.95729 q -1.280584,0 -1.280584,-0.99484 0.01058,-0.27516 0.09525,-0.74083 l 0.1905,-0.97367 q 0.28575,-1.37583 0.28575,-1.68275 0,-0.61383 -0.359833,-0.61383 -0.60325,0 -0.92075,1.57692 l -0.624417,3.21733 -2.12725,0.21167 1.100667,-5.61975 1.735667,-0.20109 -0.169334,1.03717 q 0.497417,-1.03717 2.021417,-1.03717 0.740833,0 1.04775,0.3175 0.3175,0.30692 0.3175,1.00542 0,0.65617 -0.338667,2.19075 -0.15875,0.68792 -0.15875,0.9525 0,0.254 0.137584,0.40217 0.148166,0.14816 0.359833,0.16933 -0.105833,0.35983 -0.47625,0.5715 -0.359833,0.21167 -0.836083,0.21167 z"
         style="font-style:normal;font-variant:normal;font-weight:normal;font-stretch:normal;font-family:'Sansita One';-inkscape-font-specification:'Sansita One';text-align:center;text-anchor:middle;fill:#373e48;stroke:#373e48;stroke-width:1.32291663;stroke-linecap:round;stroke-linejoin:round;stroke-miterlimit:4;stroke-dasharray:none"
         id="path918" />
      <path
         d="m -47.816802,193.17349 1.2065,-6.43466 0.116417,-0.55034 h 2.264833 l -1.3335,6.985 z m 6.551084,-0.62441 q -0.28575,0.83608 -1.386417,0.83608 -0.814917,0 -1.375833,-0.97367 -0.5715,-0.97366 -0.677334,-2.56116 1.164167,-2.12725 1.9685,-3.00567 0.772584,-0.83608 1.576917,-0.83608 0.433917,0 0.740834,0.23283 0.3175,0.23283 0.391583,0.60325 -0.359833,0.14817 -0.529167,0.26458 -0.423333,0.3175 -0.994833,1.02659 l -0.963084,1.15358 q -0.232833,0.27517 -0.328083,0.40217 0.15875,0.889 0.635,1.76741 0.455083,0.83609 0.941917,1.09009 z"
         style="font-style:normal;font-variant:normal;font-weight:normal;font-stretch:normal;font-family:'Sansita One';-inkscape-font-specification:'Sansita One';text-align:center;text-anchor:middle;fill:#373e48;stroke:#373e48;stroke-width:1.32291663;stroke-linecap:round;stroke-linejoin:round;stroke-miterlimit:4;stroke-dasharray:none"
         id="path920" />
      <path
         d="m -38.345049,193.38516 q -2.328333,0 -2.328333,-2.19075 0,-1.55575 0.85725,-2.56117 0.910167,-1.06891 2.487083,-1.06891 1.143,0 1.725084,0.52916 0.582083,0.52917 0.582083,1.64042 0,1.69333 -0.910167,2.67758 -0.889,0.97367 -2.413,0.97367 z m 0.275167,-4.60375 q -0.127,0.28575 -0.232833,0.71967 -0.09525,0.42333 -0.22225,1.10066 -0.127,0.67734 -0.127,1.51342 0,0.27517 0.08467,0.45508 0.09525,0.17992 0.338667,0.17992 0.243417,0 0.391583,-0.11642 0.15875,-0.11641 0.275167,-0.39158 0.211667,-0.48683 0.381,-1.38642 0.169333,-0.91016 0.179917,-1.30175 0.02117,-0.39158 0.02117,-0.67733 0,-0.29633 -0.08467,-0.48683 -0.08467,-0.1905 -0.328084,-0.1905 -0.232833,0 -0.391583,0.14816 -0.15875,0.14817 -0.28575,0.43392 z"
         style="font-style:normal;font-variant:normal;font-weight:normal;font-stretch:normal;font-family:'Sansita One';-inkscape-font-specification:'Sansita One';text-align:center;text-anchor:middle;fill:#373e48;stroke:#373e48;stroke-width:1.32291663;stroke-linecap:round;stroke-linejoin:round;stroke-miterlimit:4;stroke-dasharray:none"
         id="path922" />
      <path
         d="m -34.219698,192.11516 q 0,-0.28575 0.148167,-1.00542 l 0.560916,-2.8575 h -0.624416 l 0.04233,-0.3175 q 1.27,-0.381 2.497667,-1.31233 h 0.508 l -0.254,1.15358 h 0.8255 l -0.09525,0.47625 h -0.814917 l -0.53975,2.8575 q -0.137583,0.65617 -0.137583,0.87842 0,0.508 0.4445,0.61383 -0.105834,0.35984 -0.486834,0.5715 -0.381,0.21167 -0.92075,0.21167 -0.53975,0 -0.846666,-0.33867 -0.306917,-0.33866 -0.306917,-0.93133 z"
         style="font-style:normal;font-variant:normal;font-weight:normal;font-stretch:normal;font-family:'Sansita One';-inkscape-font-specification:'Sansita One';text-align:center;text-anchor:middle;fill:#373e48;stroke:#373e48;stroke-width:1.32291663;stroke-linecap:round;stroke-linejoin:round;stroke-miterlimit:4;stroke-dasharray:none"
         id="path924" />
      <path
         d="m -28.035559,192.59141 q -0.328083,0.79375 -1.375833,0.79375 -0.529167,0 -0.867834,-0.37042 -0.275166,-0.30691 -0.275166,-0.65616 0,-0.79375 0.370416,-2.52942 l 0.772584,-4.064 2.148416,-0.21167 -1.026583,5.35517 q -0.179917,0.78317 -0.179917,1.05833 0,0.60325 0.433917,0.62442 z"
         style="font-style:normal;font-variant:normal;font-weight:normal;font-stretch:normal;font-family:'Sansita One';-inkscape-font-specification:'Sansita One';text-align:center;text-anchor:middle;fill:#373e48;stroke:#373e48;stroke-width:1.32291663;stroke-linecap:round;stroke-linejoin:round;stroke-miterlimit:4;stroke-dasharray:none"
         id="path926" />
      <path
         d="m -24.593659,192.59141 q -0.328084,0.79375 -1.375834,0.79375 -0.53975,0 -0.878416,-0.37042 -0.28575,-0.32808 -0.28575,-0.65616 0,-0.85725 0.391583,-2.52942 l 0.391583,-2.05317 2.148417,-0.21166 -0.645583,3.34433 q -0.179917,0.78317 -0.179917,1.05833 0,0.60325 0.433917,0.62442 z m -1.566334,-6.2865 q 0,-0.41275 0.338667,-0.635 0.34925,-0.22225 0.846667,-0.22225 0.497416,0 0.79375,0.22225 0.306917,0.22225 0.306917,0.635 0,0.41275 -0.338667,0.62442 -0.328084,0.21166 -0.8255,0.21166 -0.497417,0 -0.814917,-0.21166 -0.306917,-0.21167 -0.306917,-0.62442 z"
         style="font-style:normal;font-variant:normal;font-weight:normal;font-stretch:normal;font-family:'Sansita One';-inkscape-font-specification:'Sansita One';text-align:center;text-anchor:middle;fill:#373e48;stroke:#373e48;stroke-width:1.32291663;stroke-linecap:round;stroke-linejoin:round;stroke-miterlimit:4;stroke-dasharray:none"
         id="path928" />
      <path
         d="m -19.225595,193.38516 q -1.280583,0 -1.280583,-0.99483 0.01058,-0.27517 0.09525,-0.74084 l 0.1905,-0.97366 q 0.28575,-1.37584 0.28575,-1.68275 0,-0.61384 -0.359833,-0.61384 -0.60325,0 -0.92075,1.57692 l -0.624417,3.21733 -2.12725,0.21167 1.100666,-5.61975 1.735667,-0.20108 -0.169333,1.03716 q 0.497417,-1.03716 2.021417,-1.03716 0.740833,0 1.04775,0.3175 0.3175,0.30691 0.3175,1.00541 0,0.65617 -0.338667,2.19075 -0.15875,0.68792 -0.15875,0.9525 0,0.254 0.137583,0.40217 0.148167,0.14817 0.359834,0.16933 -0.105834,0.35984 -0.47625,0.5715 -0.359834,0.21167 -0.836084,0.21167 z"
         style="font-style:normal;font-variant:normal;font-weight:normal;font-stretch:normal;font-family:'Sansita One';-inkscape-font-specification:'Sansita One';text-align:center;text-anchor:middle;fill:#373e48;stroke:#373e48;stroke-width:1.32291663;stroke-linecap:round;stroke-linejoin:round;stroke-miterlimit:4;stroke-dasharray:none"
         id="path930" />
    </g>
    <g
       aria-label="Code   CommentsinKotlin"
       style="font-style:normal;font-weight:normal;font-size:10.58333397px;line-height:1.25;font-family:sans-serif;letter-spacing:0px;word-spacing:0px;fill:#ffffff;fill-opacity:1;stroke:none;stroke-width:0.26458335"
       id="text1253">
      <path
         d="m -69.554556,164.12703 q 0.275166,0.20108 0.275166,0.635 0,0.42333 -0.1905,0.73025 -0.179916,0.29633 -0.53975,0.52917 -0.772583,0.49741 -2.12725,0.49741 -1.344083,0 -2.084917,-0.6985 -0.73025,-0.70908 -0.73025,-1.95791 0,-1.76742 0.92075,-3.1115 0.6985,-0.99484 1.947334,-1.41817 0.645583,-0.21167 1.280583,-0.21167 0.635,0 1.026584,0.0847 0.391583,0.0847 0.687916,0.254 0.645584,0.37042 0.645584,0.96308 0,0.53975 -0.508,0.94192 -0.465667,0.35983 -0.846667,0.35983 -0.381,0 -0.53975,-0.0529 0.04233,-0.381 0.04233,-0.62442 0,-0.254 -0.01058,-0.43392 -0.01058,-0.17991 -0.0635,-0.34925 -0.105834,-0.39158 -0.433917,-0.39158 -0.3175,0 -0.645583,0.30692 -0.3175,0.29633 -0.592667,0.80433 -0.624417,1.15358 -0.624417,2.51883 0,0.65617 0.370417,1.03717 0.370417,0.37042 1.164167,0.37042 0.592666,0 1.153583,-0.39159 0.243417,-0.16933 0.423334,-0.39158 z"
         style="font-style:normal;font-variant:normal;font-weight:normal;font-stretch:normal;font-family:'Sansita One';-inkscape-font-specification:'Sansita One';text-align:center;text-anchor:middle;fill:#ffffff;stroke-width:0.26458335"
         id="path933" />
      <path
         d="m -66.095294,166.52945 q -2.328334,0 -2.328334,-2.19075 0,-1.55575 0.85725,-2.56117 0.910167,-1.06892 2.487084,-1.06892 1.143,0 1.725083,0.52917 0.582084,0.52917 0.582084,1.64042 0,1.69333 -0.910167,2.67758 -0.889,0.97367 -2.413,0.97367 z m 0.275166,-4.60375 q -0.127,0.28575 -0.232833,0.71966 -0.09525,0.42334 -0.22225,1.10067 -0.127,0.67733 -0.127,1.51342 0,0.27516 0.08467,0.45508 0.09525,0.17992 0.338666,0.17992 0.243417,0 0.391584,-0.11642 0.15875,-0.11642 0.275166,-0.39158 0.211667,-0.48684 0.381,-1.38642 0.169334,-0.91017 0.179917,-1.30175 0.02117,-0.39158 0.02117,-0.67733 0,-0.29634 -0.08467,-0.48684 -0.08467,-0.1905 -0.328083,-0.1905 -0.232834,0 -0.391584,0.14817 -0.15875,0.14817 -0.28575,0.43392 z"
         style="font-style:normal;font-variant:normal;font-weight:normal;font-stretch:normal;font-family:'Sansita One';-inkscape-font-specification:'Sansita One';text-align:center;text-anchor:middle;fill:#ffffff;stroke-width:0.26458335"
         id="path935" />
      <path
         d="m -58.805527,160.70861 q 0.381,0 0.677333,0.0847 0.01058,-0.0423 0.03175,-0.15875 l 0.05292,-0.32808 q 0.04233,-0.21167 0.105833,-0.56092 l 0.169333,-0.83608 2.106084,-0.21167 -1.17475,6.13833 q -0.01058,0.0635 -0.01058,0.16934 v 0.16933 q 0,0.23283 0.116417,0.41275 0.116417,0.16933 0.306917,0.16933 -0.211667,0.49742 -0.85725,0.70909 -0.22225,0.0635 -0.53975,0.0635 -0.306917,0 -0.592667,-0.16934 -0.28575,-0.15875 -0.370417,-0.43391 -0.169333,0.27516 -0.508,0.43391 -0.338666,0.16934 -0.836083,0.16934 -0.486833,0 -0.899583,-0.127 -0.402167,-0.127 -0.656167,-0.40217 -0.465667,-0.53975 -0.465667,-1.76742 0,-1.5875 0.931334,-2.55058 0.931333,-0.97367 2.413,-0.97367 z m -0.07408,0.635 q -0.391583,0 -0.60325,0.42334 -0.211666,0.42333 -0.433916,1.47108 -0.211667,1.04775 -0.211667,1.98967 0,0.64558 0.381,0.64558 0.338667,0 0.5715,-0.33867 0.243417,-0.33866 0.338667,-0.89958 l 0.5715,-3.10092 q -0.22225,-0.1905 -0.613834,-0.1905 z"
         style="font-style:normal;font-variant:normal;font-weight:normal;font-stretch:normal;font-family:'Sansita One';-inkscape-font-specification:'Sansita One';text-align:center;text-anchor:middle;fill:#ffffff;stroke-width:0.26458335"
         id="path937" />
      <path
         d="m -51.238443,164.5292 q 0.264583,0.17991 0.264583,0.58208 0,0.39158 -0.201083,0.64558 -0.201084,0.254 -0.529167,0.42334 -0.677333,0.34925 -1.407583,0.34925 -0.73025,0 -1.164167,-0.15875 -0.423333,-0.15875 -0.709084,-0.45509 -0.560916,-0.56091 -0.560916,-1.5875 0,-1.59808 0.867833,-2.57175 0.931334,-1.04775 2.550584,-1.04775 1.005416,0 1.502833,0.42334 0.370417,0.3175 0.370417,0.83608 0,1.86267 -3.217334,1.86267 -0.04233,0.27516 -0.04233,0.508 0,0.48683 0.211667,0.67733 0.22225,0.17992 0.624416,0.17992 0.402167,0 0.8255,-0.17992 0.433917,-0.1905 0.613834,-0.48683 z m -2.159,-1.15359 q 0.751416,0 1.185333,-0.46566 0.433917,-0.4445 0.433917,-1.15359 0,-0.24341 -0.09525,-0.37041 -0.08467,-0.13759 -0.264584,-0.13759 -0.179916,0 -0.338666,0.0741 -0.148167,0.0635 -0.306917,0.29633 -0.391583,0.52917 -0.613833,1.75683 z"
         style="font-style:normal;font-variant:normal;font-weight:normal;font-stretch:normal;font-family:'Sansita One';-inkscape-font-specification:'Sansita One';text-align:center;text-anchor:middle;fill:#ffffff;stroke-width:0.26458335"
         id="path939" />
      <path
         d="m -37.866566,164.12703 q 0.275166,0.20108 0.275166,0.635 0,0.42333 -0.1905,0.73025 -0.179916,0.29633 -0.53975,0.52917 -0.772583,0.49741 -2.12725,0.49741 -1.344083,0 -2.084917,-0.6985 -0.73025,-0.70908 -0.73025,-1.95791 0,-1.76742 0.92075,-3.1115 0.698501,-0.99484 1.947334,-1.41817 0.645583,-0.21167 1.280583,-0.21167 0.635,0 1.026584,0.0847 0.391583,0.0847 0.687916,0.254 0.645584,0.37042 0.645584,0.96308 0,0.53975 -0.508,0.94192 -0.465667,0.35983 -0.846667,0.35983 -0.381,0 -0.53975,-0.0529 0.04233,-0.381 0.04233,-0.62442 0,-0.254 -0.01058,-0.43392 -0.01058,-0.17991 -0.0635,-0.34925 -0.105833,-0.39158 -0.433917,-0.39158 -0.3175,0 -0.645583,0.30692 -0.3175,0.29633 -0.592667,0.80433 -0.624416,1.15358 -0.624416,2.51883 0,0.65617 0.370416,1.03717 0.370417,0.37042 1.164167,0.37042 0.592667,0 1.153583,-0.39159 0.243417,-0.16933 0.423334,-0.39158 z"
         style="font-style:normal;font-variant:normal;font-weight:normal;font-stretch:normal;font-family:'Sansita One';-inkscape-font-specification:'Sansita One';text-align:center;text-anchor:middle;fill:#ffffff;stroke-width:0.26458335"
         id="path941" />
      <path
         d="m -34.407304,166.52945 q -2.328334,0 -2.328334,-2.19075 0,-1.55575 0.85725,-2.56117 0.910167,-1.06892 2.487084,-1.06892 1.143,0 1.725083,0.52917 0.582084,0.52917 0.582084,1.64042 0,1.69333 -0.910167,2.67758 -0.889,0.97367 -2.413,0.97367 z m 0.275167,-4.60375 q -0.127,0.28575 -0.232834,0.71966 -0.09525,0.42334 -0.22225,1.10067 -0.127,0.67733 -0.127,1.51342 0,0.27516 0.08467,0.45508 0.09525,0.17992 0.338667,0.17992 0.243416,0 0.391583,-0.11642 0.15875,-0.11642 0.275167,-0.39158 0.211666,-0.48684 0.381,-1.38642 0.169333,-0.91017 0.179916,-1.30175 0.02117,-0.39158 0.02117,-0.67733 0,-0.29634 -0.08467,-0.48684 -0.08467,-0.1905 -0.328083,-0.1905 -0.232833,0 -0.391583,0.14817 -0.15875,0.14817 -0.28575,0.43392 z"
         style="font-style:normal;font-variant:normal;font-weight:normal;font-stretch:normal;font-family:'Sansita One';-inkscape-font-specification:'Sansita One';text-align:center;text-anchor:middle;fill:#ffffff;stroke-width:0.26458335"
         id="path943" />
      <path
         d="m -22.831287,166.52945 q -1.280583,0 -1.280583,-0.99484 0,-0.43391 0.179916,-1.27 0.1905,-0.84666 0.254,-1.18533 0.148167,-0.77258 0.148167,-1.016 0,-0.53975 -0.402167,-0.53975 -0.264583,0 -0.518583,0.37042 -0.254,0.35983 -0.370417,1.09008 l -0.656166,3.33375 -2.06375,0.21167 0.5715,-2.87867 q 0.09525,-0.47625 0.179916,-1.016 0.08467,-0.53975 0.08467,-0.62442 0,-0.48683 -0.359833,-0.48683 -0.243417,0 -0.508,0.35983 -0.264584,0.35984 -0.41275,1.10067 l -0.645584,3.33375 -2.084917,0.21167 1.11125,-5.60917 1.725084,-0.21167 -0.179917,1.06892 q 0.275167,-0.5715 0.783167,-0.81492 0.508,-0.254 1.30175,-0.254 0.455083,0 0.751417,0.22225 0.296333,0.22225 0.391583,0.58209 0.179917,-0.37042 0.635,-0.58209 0.465667,-0.22225 1.026583,-0.22225 0.5715,0 0.846667,0.127 0.28575,0.11642 0.455084,0.3175 0.28575,0.37042 0.28575,1.04775 0,0.66675 -0.28575,2.05317 -0.148167,0.67733 -0.148167,0.93133 0,0.24342 0.137583,0.39159 0.148167,0.14816 0.359834,0.16933 -0.105834,0.35983 -0.47625,0.5715 -0.359834,0.21167 -0.836084,0.21167 z"
         style="font-style:normal;font-variant:normal;font-weight:normal;font-stretch:normal;font-family:'Sansita One';-inkscape-font-specification:'Sansita One';text-align:center;text-anchor:middle;fill:#ffffff;stroke-width:0.26458335"
         id="path945" />
      <path
         d="m -13.074775,166.52945 q -1.280584,0 -1.280584,-0.99484 0,-0.43391 0.179917,-1.27 0.1905,-0.84666 0.254,-1.18533 0.148167,-0.77258 0.148167,-1.016 0,-0.53975 -0.402167,-0.53975 -0.264583,0 -0.518583,0.37042 -0.254,0.35983 -0.370417,1.09008 l -0.656167,3.33375 -2.06375,0.21167 0.5715,-2.87867 q 0.09525,-0.47625 0.179917,-1.016 0.08467,-0.53975 0.08467,-0.62442 0,-0.48683 -0.359834,-0.48683 -0.243416,0 -0.508,0.35983 -0.264583,0.35984 -0.41275,1.10067 l -0.645583,3.33375 -2.084917,0.21167 1.11125,-5.60917 1.725084,-0.21167 -0.179917,1.06892 q 0.275167,-0.5715 0.783167,-0.81492 0.508,-0.254 1.30175,-0.254 0.455083,0 0.751416,0.22225 0.296334,0.22225 0.391584,0.58209 0.179916,-0.37042 0.635,-0.58209 0.465666,-0.22225 1.026583,-0.22225 0.5715,0 0.846667,0.127 0.28575,0.11642 0.455083,0.3175 0.28575,0.37042 0.28575,1.04775 0,0.66675 -0.28575,2.05317 -0.148166,0.67733 -0.148166,0.93133 0,0.24342 0.137583,0.39159 0.148167,0.14816 0.359833,0.16933 -0.105833,0.35983 -0.47625,0.5715 -0.359833,0.21167 -0.836083,0.21167 z"
         style="font-style:normal;font-variant:normal;font-weight:normal;font-stretch:normal;font-family:'Sansita One';-inkscape-font-specification:'Sansita One';text-align:center;text-anchor:middle;fill:#ffffff;stroke-width:0.26458335"
         id="path947" />
      <path
         d="m -6.6520137,164.5292 q 0.2645834,0.17991 0.2645834,0.58208 0,0.39158 -0.2010834,0.64558 -0.2010833,0.254 -0.5291667,0.42334 -0.6773333,0.34925 -1.4075834,0.34925 -0.73025,0 -1.1641667,-0.15875 -0.4233335,-0.15875 -0.7090835,-0.45509 -0.560917,-0.56091 -0.560917,-1.5875 0,-1.59808 0.867834,-2.57175 0.9313332,-1.04775 2.5505833,-1.04775 1.0054167,0 1.5028334,0.42334 0.3704167,0.3175 0.3704167,0.83608 0,1.86267 -3.2173335,1.86267 -0.042333,0.27516 -0.042333,0.508 0,0.48683 0.2116667,0.67733 0.22225,0.17992 0.6244167,0.17992 0.4021667,0 0.8255001,-0.17992 0.4339166,-0.1905 0.6138333,-0.48683 z m -2.1590001,-1.15359 q 0.7514167,0 1.1853334,-0.46566 0.4339167,-0.4445 0.4339167,-1.15359 0,-0.24341 -0.09525,-0.37041 -0.084667,-0.13759 -0.2645834,-0.13759 -0.1799166,0 -0.3386667,0.0741 -0.1481666,0.0635 -0.3069166,0.29633 -0.3915834,0.52917 -0.6138334,1.75683 z"
         style="font-style:normal;font-variant:normal;font-weight:normal;font-stretch:normal;font-family:'Sansita One';-inkscape-font-specification:'Sansita One';text-align:center;text-anchor:middle;fill:#ffffff;stroke-width:0.26458335"
         id="path949" />
      <path
         d="m -0.83911529,166.52945 q -1.28058341,0 -1.28058341,-0.99484 0.010583,-0.27516 0.09525,-0.74083 l 0.1905,-0.97367 q 0.28575,-1.37583 0.28575,-1.68275 0,-0.61383 -0.3598333,-0.61383 -0.6032501,0 -0.9207501,1.57692 l -0.6244167,3.21733 -2.1272501,0.21167 1.1006667,-5.61975 1.7356668,-0.20109 -0.1693333,1.03717 q 0.4974166,-1.03717 2.02141674,-1.03717 0.74083338,0 1.04775006,0.3175 0.31750002,0.30692 0.31750002,1.00542 0,0.65617 -0.33866669,2.19075 -0.15875001,0.68792 -0.15875001,0.9525 0,0.254 0.13758335,0.40217 0.14816667,0.14816 0.35983335,0.16933 -0.10583334,0.35983 -0.47625003,0.5715 -0.35983335,0.21167 -0.83608338,0.21167 z"
         style="font-style:normal;font-variant:normal;font-weight:normal;font-stretch:normal;font-family:'Sansita One';-inkscape-font-specification:'Sansita One';text-align:center;text-anchor:middle;fill:#ffffff;stroke-width:0.26458335"
         id="path951" />
      <path
         d="m 1.4887217,165.25945 q 0,-0.28575 0.1481667,-1.00542 l 0.5609167,-2.8575 H 1.5733884 l 0.042333,-0.3175 q 1.2700001,-0.381 2.4976668,-1.31233 h 0.508 l -0.254,1.15358 h 0.8255001 l -0.09525,0.47625 H 4.2827219 l -0.5397501,2.8575 q -0.1375833,0.65617 -0.1375833,0.87842 0,0.508 0.4445,0.61383 -0.1058333,0.35983 -0.4868334,0.5715 -0.381,0.21167 -0.92075,0.21167 -0.53975,0 -0.8466667,-0.33867 -0.3069167,-0.33867 -0.3069167,-0.93133 z"
         style="font-style:normal;font-variant:normal;font-weight:normal;font-stretch:normal;font-family:'Sansita One';-inkscape-font-specification:'Sansita One';text-align:center;text-anchor:middle;fill:#ffffff;stroke-width:0.26458335"
         id="path953" />
      <path
         d="m 8.3078561,162.60303 q 0.1481667,-0.39158 0.1481667,-0.73025 0,-0.62442 -0.508,-0.62442 -0.2645834,0 -0.4868334,0.24342 -0.2116667,0.23283 -0.2116667,0.52917 0,0.21166 0.1693334,0.381 0.2434166,0.23283 0.8678333,0.61383 0.6244167,0.381 0.8572501,0.6985 0.2434167,0.30692 0.2434167,0.74083 0,0.42334 -0.2116667,0.81492 -0.2010834,0.39158 -0.5715,0.66675 -0.7937501,0.59267 -2.0637502,0.59267 -0.6879167,0 -1.2170834,-0.35984 -0.5291667,-0.34925 -0.5291667,-0.762 0,-0.41275 0.2963334,-0.65616 0.3069167,-0.24342 0.7514167,-0.24342 0.4445,0 0.7196667,0.16933 -0.1375833,0.34925 -0.1375833,0.58209 0,0.6985 0.5926667,0.6985 0.254,0 0.4233333,-0.15875 0.1693334,-0.15875 0.1693334,-0.43392 0,-0.53975 -0.9101668,-1.11125 -0.7408333,-0.48683 -0.9101667,-0.67733 -0.28575,-0.33867 -0.28575,-0.762 0,-0.42334 0.2010833,-0.8255 0.2010834,-0.40217 0.5715001,-0.68792 0.7725834,-0.59267 2.1166668,-0.59267 0.6879167,0 1.0900834,0.27517 0.41275,0.27517 0.41275,0.74083 0,0.46567 -0.28575,0.73025 -0.2751667,0.26459 -0.7831667,0.26459 -0.3492501,0 -0.5185834,-0.11642 z"
         style="font-style:normal;font-variant:normal;font-weight:normal;font-stretch:normal;font-family:'Sansita One';-inkscape-font-specification:'Sansita One';text-align:center;text-anchor:middle;fill:#ffffff;stroke-width:0.26458335"
         id="path955" />
      <path
         d="m -34.887606,179.16354 q -0.328083,0.79375 -1.375833,0.79375 -0.53975,0 -0.878417,-0.37042 -0.28575,-0.32808 -0.28575,-0.65617 0,-0.85725 0.391583,-2.52941 l 0.391584,-2.05317 2.148417,-0.21167 -0.645584,3.34434 q -0.179916,0.78316 -0.179916,1.05833 0,0.60325 0.433916,0.62442 z m -1.566333,-6.2865 q 0,-0.41275 0.338666,-0.635 0.34925,-0.22225 0.846667,-0.22225 0.497417,0 0.79375,0.22225 0.306917,0.22225 0.306917,0.635 0,0.41275 -0.338667,0.62441 -0.328083,0.21167 -0.8255,0.21167 -0.497417,0 -0.814917,-0.21167 -0.306916,-0.21166 -0.306916,-0.62441 z"
         style="font-style:normal;font-variant:normal;font-weight:normal;font-stretch:normal;font-family:'Sansita One';-inkscape-font-specification:'Sansita One';text-align:center;text-anchor:middle;fill:#ffffff;stroke-width:0.26458335"
         id="path957" />
      <path
         d="m -29.51954,179.95729 q -1.280584,0 -1.280584,-0.99484 0.01058,-0.27516 0.09525,-0.74083 l 0.1905,-0.97367 q 0.28575,-1.37583 0.28575,-1.68275 0,-0.61383 -0.359833,-0.61383 -0.60325,0 -0.92075,1.57692 l -0.624417,3.21733 -2.12725,0.21167 1.100667,-5.61975 1.735667,-0.20109 -0.169334,1.03717 q 0.497417,-1.03717 2.021417,-1.03717 0.740833,0 1.04775,0.3175 0.3175,0.30692 0.3175,1.00542 0,0.65617 -0.338667,2.19075 -0.15875,0.68792 -0.15875,0.9525 0,0.254 0.137584,0.40217 0.148166,0.14816 0.359833,0.16933 -0.105833,0.35983 -0.47625,0.5715 -0.359833,0.21167 -0.836083,0.21167 z"
         style="font-style:normal;font-variant:normal;font-weight:normal;font-stretch:normal;font-family:'Sansita One';-inkscape-font-specification:'Sansita One';text-align:center;text-anchor:middle;fill:#ffffff;stroke-width:0.26458335"
         id="path959" />
      <path
         d="m -47.816802,193.17349 1.2065,-6.43466 0.116417,-0.55034 h 2.264833 l -1.3335,6.985 z m 6.551084,-0.62441 q -0.28575,0.83608 -1.386417,0.83608 -0.814917,0 -1.375833,-0.97367 -0.5715,-0.97366 -0.677334,-2.56116 1.164167,-2.12725 1.9685,-3.00567 0.772584,-0.83608 1.576917,-0.83608 0.433917,0 0.740834,0.23283 0.3175,0.23283 0.391583,0.60325 -0.359833,0.14817 -0.529167,0.26458 -0.423333,0.3175 -0.994833,1.02659 l -0.963084,1.15358 q -0.232833,0.27517 -0.328083,0.40217 0.15875,0.889 0.635,1.76741 0.455083,0.83609 0.941917,1.09009 z"
         style="font-style:normal;font-variant:normal;font-weight:normal;font-stretch:normal;font-family:'Sansita One';-inkscape-font-specification:'Sansita One';text-align:center;text-anchor:middle;fill:#ffffff;stroke-width:0.26458335"
         id="path961" />
      <path
         d="m -38.345049,193.38516 q -2.328333,0 -2.328333,-2.19075 0,-1.55575 0.85725,-2.56117 0.910167,-1.06891 2.487083,-1.06891 1.143,0 1.725084,0.52916 0.582083,0.52917 0.582083,1.64042 0,1.69333 -0.910167,2.67758 -0.889,0.97367 -2.413,0.97367 z m 0.275167,-4.60375 q -0.127,0.28575 -0.232833,0.71967 -0.09525,0.42333 -0.22225,1.10066 -0.127,0.67734 -0.127,1.51342 0,0.27517 0.08467,0.45508 0.09525,0.17992 0.338667,0.17992 0.243417,0 0.391583,-0.11642 0.15875,-0.11641 0.275167,-0.39158 0.211667,-0.48683 0.381,-1.38642 0.169333,-0.91016 0.179917,-1.30175 0.02117,-0.39158 0.02117,-0.67733 0,-0.29633 -0.08467,-0.48683 -0.08467,-0.1905 -0.328084,-0.1905 -0.232833,0 -0.391583,0.14816 -0.15875,0.14817 -0.28575,0.43392 z"
         style="font-style:normal;font-variant:normal;font-weight:normal;font-stretch:normal;font-family:'Sansita One';-inkscape-font-specification:'Sansita One';text-align:center;text-anchor:middle;fill:#ffffff;stroke-width:0.26458335"
         id="path963" />
      <path
         d="m -34.219698,192.11516 q 0,-0.28575 0.148167,-1.00542 l 0.560916,-2.8575 h -0.624416 l 0.04233,-0.3175 q 1.27,-0.381 2.497667,-1.31233 h 0.508 l -0.254,1.15358 h 0.8255 l -0.09525,0.47625 h -0.814917 l -0.53975,2.8575 q -0.137583,0.65617 -0.137583,0.87842 0,0.508 0.4445,0.61383 -0.105834,0.35984 -0.486834,0.5715 -0.381,0.21167 -0.92075,0.21167 -0.53975,0 -0.846666,-0.33867 -0.306917,-0.33866 -0.306917,-0.93133 z"
         style="font-style:normal;font-variant:normal;font-weight:normal;font-stretch:normal;font-family:'Sansita One';-inkscape-font-specification:'Sansita One';text-align:center;text-anchor:middle;fill:#ffffff;stroke-width:0.26458335"
         id="path965" />
      <path
         d="m -28.035559,192.59141 q -0.328083,0.79375 -1.375833,0.79375 -0.529167,0 -0.867834,-0.37042 -0.275166,-0.30691 -0.275166,-0.65616 0,-0.79375 0.370416,-2.52942 l 0.772584,-4.064 2.148416,-0.21167 -1.026583,5.35517 q -0.179917,0.78317 -0.179917,1.05833 0,0.60325 0.433917,0.62442 z"
         style="font-style:normal;font-variant:normal;font-weight:normal;font-stretch:normal;font-family:'Sansita One';-inkscape-font-specification:'Sansita One';text-align:center;text-anchor:middle;fill:#ffffff;stroke-width:0.26458335"
         id="path967" />
      <path
         d="m -24.593659,192.59141 q -0.328084,0.79375 -1.375834,0.79375 -0.53975,0 -0.878416,-0.37042 -0.28575,-0.32808 -0.28575,-0.65616 0,-0.85725 0.391583,-2.52942 l 0.391583,-2.05317 2.148417,-0.21166 -0.645583,3.34433 q -0.179917,0.78317 -0.179917,1.05833 0,0.60325 0.433917,0.62442 z m -1.566334,-6.2865 q 0,-0.41275 0.338667,-0.635 0.34925,-0.22225 0.846667,-0.22225 0.497416,0 0.79375,0.22225 0.306917,0.22225 0.306917,0.635 0,0.41275 -0.338667,0.62442 -0.328084,0.21166 -0.8255,0.21166 -0.497417,0 -0.814917,-0.21166 -0.306917,-0.21167 -0.306917,-0.62442 z"
         style="font-style:normal;font-variant:normal;font-weight:normal;font-stretch:normal;font-family:'Sansita One';-inkscape-font-specification:'Sansita One';text-align:center;text-anchor:middle;fill:#ffffff;stroke-width:0.26458335"
         id="path969" />
      <path
         d="m -19.225595,193.38516 q -1.280583,0 -1.280583,-0.99483 0.01058,-0.27517 0.09525,-0.74084 l 0.1905,-0.97366 q 0.28575,-1.37584 0.28575,-1.68275 0,-0.61384 -0.359833,-0.61384 -0.60325,0 -0.92075,1.57692 l -0.624417,3.21733 -2.12725,0.21167 1.100666,-5.61975 1.735667,-0.20108 -0.169333,1.03716 q 0.497417,-1.03716 2.021417,-1.03716 0.740833,0 1.04775,0.3175 0.3175,0.30691 0.3175,1.00541 0,0.65617 -0.338667,2.19075 -0.15875,0.68792 -0.15875,0.9525 0,0.254 0.137583,0.40217 0.148167,0.14817 0.359834,0.16933 -0.105834,0.35984 -0.47625,0.5715 -0.359834,0.21167 -0.836084,0.21167 z"
         style="font-style:normal;font-variant:normal;font-weight:normal;font-stretch:normal;font-family:'Sansita One';-inkscape-font-specification:'Sansita One';text-align:center;text-anchor:middle;fill:#ffffff;stroke-width:0.26458335"
         id="path971" />
    </g>
  </g>
</svg>
