<?xml version="1.0" encoding="UTF-8" standalone="no"?>
<svg
   xmlns:dc="http://purl.org/dc/elements/1.1/"
   xmlns:cc="http://creativecommons.org/ns#"
   xmlns:rdf="http://www.w3.org/1999/02/22-rdf-syntax-ns#"
   xmlns:svg="http://www.w3.org/2000/svg"
   xmlns="http://www.w3.org/2000/svg"
   xmlns:xlink="http://www.w3.org/1999/xlink"
   width="444.5mm"
   height="277.8125mm"
   viewBox="0 0 444.5 277.8125"
   version="1.1"
   id="svg3357">
  <defs
     id="defs3351">
    <linearGradient
       id="linearGradient892">
      <stop
         style="stop-color:#3897f0;stop-opacity:1;"
         offset="0"
         id="stop888" />
      <stop
         id="stop896"
         offset="0"
         style="stop-color:#62adf3;stop-opacity:1" />
      <stop
         style="stop-color:#288eef;stop-opacity:1"
         offset="1"
         id="stop890" />
    </linearGradient>
    <linearGradient
       id="linearGradient6114">
      <stop
         style="stop-color:#6f7c91;stop-opacity:1;"
         offset="0"
         id="stop6110" />
      <stop
         style="stop-color:#162d50;stop-opacity:1"
         offset="1"
         id="stop6112" />
    </linearGradient>
    <radialGradient
       xlink:href="#linearGradient6114"
       id="radialGradient6126"
       cx="73.77433"
       cy="66.986313"
       fx="73.77433"
       fy="66.986313"
       r="31.67275"
       gradientTransform="matrix(3.0071285,0,0,1.83657,-125.12732,-58.151445)"
       gradientUnits="userSpaceOnUse" />
    <filter
       style="color-interpolation-filters:sRGB"
       id="filter2341"
       x="-0.22049561"
       width="1.4409912"
       y="-0.19399828"
       height="1.3879966">
      <feGaussianBlur
         stdDeviation="0.5979795"
         id="feGaussianBlur2343" />
    </filter>
    <filter
       style="color-interpolation-filters:sRGB"
       id="filter2353"
       x="-0.24968532"
       width="1.4993706"
       y="-0.2424219"
       height="1.4848439">
      <feGaussianBlur
         stdDeviation="0.58795691"
         id="feGaussianBlur2355" />
    </filter>
    <filter
       style="color-interpolation-filters:sRGB"
       id="filter2391"
       x="-0.22248311"
       width="1.4449662"
       y="-0.18430082"
       height="1.3686017">
      <feGaussianBlur
         stdDeviation="0.60140892"
         id="feGaussianBlur2393" />
    </filter>
    <filter
       style="color-interpolation-filters:sRGB"
       id="filter2417"
       x="-0.26585984"
       width="1.5317197"
       y="-0.24169105"
       height="1.4833821">
      <feGaussianBlur
         stdDeviation="0.58618438"
         id="feGaussianBlur2419" />
    </filter>
    <filter
       style="color-interpolation-filters:sRGB"
       id="filter2443"
       x="-0.22049561"
       width="1.4409912"
       y="-0.19399828"
       height="1.3879966">
      <feGaussianBlur
         stdDeviation="0.5979795"
         id="feGaussianBlur2445" />
    </filter>
    <filter
       style="color-interpolation-filters:sRGB"
       id="filter2455"
       x="-0.24968532"
       width="1.4993706"
       y="-0.2424219"
       height="1.4848439">
      <feGaussianBlur
         stdDeviation="0.58795691"
         id="feGaussianBlur2457" />
    </filter>
    <filter
       style="color-interpolation-filters:sRGB"
       id="filter2487"
       x="-0.15773918"
       width="1.3154784"
       y="-0.24922813"
       height="1.4984564">
      <feGaussianBlur
         stdDeviation="0.60446444"
         id="feGaussianBlur2489" />
    </filter>
    <filter
       style="color-interpolation-filters:sRGB"
       id="filter2513"
       x="-0.15773918"
       width="1.3154784"
       y="-0.24922813"
       height="1.4984564">
      <feGaussianBlur
         stdDeviation="0.60446444"
         id="feGaussianBlur2515" />
    </filter>
    <filter
       style="color-interpolation-filters:sRGB"
       id="filter2539"
       x="-0.26586011"
       width="1.5317202"
       y="-0.24169083"
       height="1.4833817">
      <feGaussianBlur
         stdDeviation="0.58618385"
         id="feGaussianBlur2541" />
    </filter>
    <filter
       style="color-interpolation-filters:sRGB"
       id="filter2565"
       x="-0.23303065"
       width="1.4660614"
       y="-0.24235214"
       height="1.4847043">
      <feGaussianBlur
         stdDeviation="0.58778775"
         id="feGaussianBlur2567" />
    </filter>
    <filter
       style="color-interpolation-filters:sRGB"
       id="filter2591"
       x="-0.37638688"
       width="1.7527738"
       y="-0.20615722"
       height="1.4123144">
      <feGaussianBlur
         stdDeviation="0.5809124"
         id="feGaussianBlur2593" />
    </filter>
    <filter
       style="color-interpolation-filters:sRGB"
       id="filter2617"
       x="-0.27491462"
       width="1.5498292"
       y="-0.24092501"
       height="1.48185">
      <feGaussianBlur
         stdDeviation="0.58432646"
         id="feGaussianBlur2619" />
    </filter>
    <filter
       style="color-interpolation-filters:sRGB"
       id="filter2643"
       x="-0.43075684"
       width="1.8615137"
       y="-0.17689764"
       height="1.3537953">
      <feGaussianBlur
         stdDeviation="0.58505213"
         id="feGaussianBlur2645" />
    </filter>
    <filter
       style="color-interpolation-filters:sRGB"
       id="filter2663"
       x="-0.23303065"
       width="1.4660614"
       y="-0.24235214"
       height="1.4847043">
      <feGaussianBlur
         stdDeviation="0.58778775"
         id="feGaussianBlur2665" />
    </filter>
    <filter
       style="color-interpolation-filters:sRGB"
       id="filter2691"
       x="-0.18691304"
       width="1.3738261"
       y="-0.19737159"
       height="1.3947432">
      <feGaussianBlur
         stdDeviation="0.6066364"
         id="feGaussianBlur2693" />
    </filter>
    <filter
       style="color-interpolation-filters:sRGB"
       id="filter2703"
       x="-0.24968532"
       width="1.4993706"
       y="-0.2424219"
       height="1.4848439">
      <feGaussianBlur
         stdDeviation="0.58795691"
         id="feGaussianBlur2705" />
    </filter>
    <filter
       style="color-interpolation-filters:sRGB"
       id="filter2723"
       x="-0.37638164"
       width="1.7527633"
       y="-0.2061588"
       height="1.4123176">
      <feGaussianBlur
         stdDeviation="0.58091683"
         id="feGaussianBlur2725" />
    </filter>
    <filter
       style="color-interpolation-filters:sRGB"
       id="filter2739"
       x="-0.42580742"
       width="1.851615"
       y="-0.17895399"
       height="1.357908">
      <feGaussianBlur
         stdDeviation="0.58396117"
         id="feGaussianBlur2741" />
    </filter>
    <filter
       style="color-interpolation-filters:sRGB"
       id="filter2759"
       x="-0.43075684"
       width="1.8615137"
       y="-0.17689764"
       height="1.3537953">
      <feGaussianBlur
         stdDeviation="0.58505213"
         id="feGaussianBlur2761" />
    </filter>
    <filter
       style="color-interpolation-filters:sRGB"
       id="filter2779"
       x="-0.23303065"
       width="1.4660614"
       y="-0.24235214"
       height="1.4847043">
      <feGaussianBlur
         stdDeviation="0.58778775"
         id="feGaussianBlur2781" />
    </filter>
    <radialGradient
       xlink:href="#linearGradient892"
       id="radialGradient894"
       cx="105.70104"
       cy="59.53125"
       fx="105.70104"
       fy="59.53125"
       r="105.70104"
       gradientTransform="matrix(2.1026284,0,0,1.3141428,0,60.673686)"
       gradientUnits="userSpaceOnUse" />
  </defs>
  <metadata
     id="metadata3354">
    <rdf:RDF>
      <cc:Work
         rdf:about="">
        <dc:format>image/svg+xml</dc:format>
        <dc:type
           rdf:resource="http://purl.org/dc/dcmitype/StillImage" />
        <dc:title></dc:title>
      </cc:Work>
    </rdf:RDF>
  </metadata>
  <path
     style="opacity:1;fill:url(#radialGradient894);fill-opacity:1;stroke:none;stroke-width:9.70262432;stroke-miterlimit:4;stroke-dasharray:none;paint-order:stroke markers fill"
     d="M 0,0 H 444.5 V 277.8125 H 0 Z"
     id="rect6108" />
  <g
     transform="matrix(2.3334796,0,0,2.3879681,-3.4478314,-16.009846)"
     style="font-style:normal;font-weight:normal;font-size:40px;line-height:1.25;font-family:sans-serif;letter-spacing:0px;word-spacing:0px;fill:#000000;fill-opacity:1;stroke:none"
     id="flowRoot874" />
  <g
     transform="matrix(2.1026284,0,0,2.3333333,-3.1067372,-9.2874056)"
     style="font-style:normal;font-weight:normal;font-size:40px;line-height:1.25;font-family:sans-serif;letter-spacing:0px;word-spacing:0px;fill:#000000;fill-opacity:1;stroke:none"
     id="flowRoot1087" />
  <g
     transform="matrix(2.1192796,0,0,2.4091888,5.7437294,-5.2154955)"
     id="g1328">
    <path
       style="opacity:1;fill:#373e48;fill-opacity:1;stroke:none;stroke-width:0.8369382;stroke-linecap:round;stroke-linejoin:round;stroke-miterlimit:4;stroke-dasharray:none;stroke-opacity:1;paint-order:stroke markers fill"
       d="m 26.639165,34.32169 h 50.786184 c 1.081424,0 1.952029,0.870605 1.952029,1.952029 V 83.36966 c 0,1.081424 -0.870605,1.95203 -1.952029,1.95203 H 26.639165 c -1.081424,0 -1.952029,-0.870606 -1.952029,-1.95203 V 36.273719 c 0,-1.081424 0.870605,-1.952029 1.952029,-1.952029 z"
       id="rect815" />
    <g
       aria-label="K"
       transform="scale(1.1313787,0.88387734)"
       style="font-style:normal;font-weight:normal;font-size:32.36412048px;line-height:1.25;font-family:sans-serif;letter-spacing:0px;word-spacing:0px;fill:#ffffff;fill-opacity:1;stroke:none;stroke-width:0.80910301"
       id="text1353">
      <path
         d="m 34.080133,76.626953 3.68951,-19.677385 0.356005,-1.682934 H 45.05157 L 40.973691,76.626953 Z M 54.113524,74.71747 q -0.873831,2.556766 -4.2397,2.556766 -2.492037,0 -4.207336,-2.9775 -1.747662,-2.977499 -2.071303,-7.832117 3.560053,-6.505188 6.019726,-9.19141 2.362581,-2.556765 4.822254,-2.556765 1.326929,0 2.265489,0.71201 0.970923,0.712011 1.197472,1.844755 -1.10038,0.453098 -1.618206,0.809103 -1.294565,0.970924 -3.042227,3.13932 l -2.945135,3.527689 q -0.712011,0.841467 -1.003288,1.229836 0.485462,2.718587 1.941847,5.404809 1.391657,2.556765 2.880407,3.333504 z"
         style="font-style:normal;font-variant:normal;font-weight:normal;font-stretch:normal;font-family:'Sansita One';-inkscape-font-specification:'Sansita One';fill:#ffffff;stroke-width:0.80910301"
         id="path921" />
    </g>
    <path
       style="opacity:1;fill:#666666;fill-opacity:1;stroke:none;stroke-width:0.74336612;stroke-linecap:round;stroke-linejoin:round;stroke-miterlimit:4;stroke-dasharray:none;stroke-opacity:1;paint-order:stroke markers fill"
       d="m 26.185117,34.32169 h 51.647668 c 0.855745,0 1.544666,0.688921 1.544666,1.544665 v 8.319077 c 0,0.855745 -0.688921,1.544666 -1.544666,1.544666 H 26.185117 c -0.855745,0 -1.544666,-0.688921 -1.544666,-1.544666 v -8.319077 c 0,-0.855744 0.688921,-1.544665 1.544666,-1.544665 z"
       id="rect918" />
    <path
       style="opacity:1;fill:#ffffff;fill-opacity:1;stroke:none;stroke-width:0.73087931;stroke-linecap:round;stroke-linejoin:round;stroke-miterlimit:4;stroke-dasharray:none;stroke-opacity:1;paint-order:stroke markers fill"
       d="m 40.753636,38.702583 h 22.557232 c 0.855744,0 1.544664,0.68892 1.544664,1.544664 0,0.855743 -0.68892,1.544663 -1.544664,1.544663 H 40.753636 c -0.855743,0 -1.544663,-0.68892 -1.544663,-1.544663 0,-0.855744 0.68892,-1.544664 1.544663,-1.544664 z"
       id="rect817" />
    <path
       style="opacity:1;fill:#aa4400;fill-opacity:1;stroke:none;stroke-width:0.7427516;stroke-linecap:round;stroke-linejoin:round;stroke-miterlimit:4;stroke-dasharray:none;stroke-opacity:1;paint-order:stroke markers fill"
       d="m 32.821588,70.107803 h 38.42133 c 0.557635,0 1.006561,0.448927 1.006561,1.006562 v 0.930597 c 0,0.557634 -0.448926,1.006561 -1.006561,1.006561 h -38.42133 c -0.557634,0 -1.006561,-0.448927 -1.006561,-1.006561 v -0.930597 c 0,-0.557635 0.448927,-1.006562 1.006561,-1.006562 z"
       id="rect914" />
    <path
       style="opacity:1;fill:#aa4400;fill-opacity:1;stroke:none;stroke-width:0.7427516;stroke-linecap:round;stroke-linejoin:round;stroke-miterlimit:4;stroke-dasharray:none;stroke-opacity:1;paint-order:stroke markers fill"
       d="m 32.821588,75.829414 h 38.42133 c 0.557635,0 1.006561,0.448927 1.006561,1.006562 v 0.930597 c 0,0.557634 -0.448926,1.006561 -1.006561,1.006561 h -38.42133 c -0.557634,0 -1.006561,-0.448927 -1.006561,-1.006561 v -0.930597 c 0,-0.557635 0.448927,-1.006562 1.006561,-1.006562 z"
       id="rect916" />
  </g>
  <g
     id="flowRoot893"
     style="font-style:normal;font-weight:normal;font-size:40px;line-height:1.25;font-family:sans-serif;letter-spacing:0px;word-spacing:0px;fill:#ffffff;fill-opacity:1;stroke:none"
     transform="matrix(0.77936615,0,0,1.6565614,-586.07596,-224.19023)"
     aria-label="Code Comments
in Kotlin">
    <path
       id="path903"
       style="font-style:normal;font-variant:normal;font-weight:bold;font-stretch:normal;font-family:'EB Garamond';-inkscape-font-specification:'EB Garamond Bold';text-align:center;text-anchor:middle;fill:#ffffff"
       d="m 1000.9393,205.49426 q -4.12004,0 -7.56004,-1.64 -3.44,-1.68 -5.48,-4.68 -2,-3 -2,-6.88 0,-3.68 2,-6.88 2,-3.2 5.68,-5.12 3.68,-1.92 8.48004,-1.92 3.48,0 7.32,1.36 0.8,0.36 0.92,1.16 0.32,2.4 0.32,4.8 0,0.32 -0.2,0.52 -0.2,0.16 -0.48,0.16 -0.64,0 -0.88,-0.68 -0.32,-1.16 -0.72,-1.96 -0.4,-0.84 -1.08,-1.48 -1.92,-1.84 -5.64,-1.84 -2.68004,0 -4.72004,1.48 -2.04,1.48 -3.16,3.96 -1.12,2.44 -1.12,5.28 0,5.52 2.36,8.92 2.36,3.36 6.72004,3.36 2.92,0 4.76,-1.2 1.84,-1.24 3.12,-3.92 0.16,-0.32 0.4,-0.48 0.24,-0.2 0.48,-0.2 0.24,0 0.4,0.2 0.2,0.16 0.2,0.48 0,1.8 -0.88,4.56 -0.16,0.48 -0.4,0.76 -0.24,0.24 -0.68,0.44 -3.32,1.44 -8.16,1.44 z" />
    <path
       id="path905"
       style="font-style:normal;font-variant:normal;font-weight:bold;font-stretch:normal;font-family:'EB Garamond';-inkscape-font-specification:'EB Garamond Bold';text-align:center;text-anchor:middle;fill:#ffffff"
       d="m 1022.5786,205.49426 q -2.36,0 -4.32,-1.08 -1.96,-1.08 -3.08,-2.96 -1.12,-1.92 -1.12,-4.32 0,-2.52 1.24,-4.72 1.28,-2.2 3.4,-3.48 2.16,-1.32 4.76,-1.32 2.4,0 4.44,1.16 2.04,1.12 3.2,3.08 1.2,1.92 1.2,4.12 0,2.64 -1.12,4.8 -1.12,2.16 -3.32,3.44 -2.16,1.28 -5.28,1.28 z m 0.8,-1.76 q 1.64,0 2.48,-1.36 0.84,-1.4 0.84,-5.44 0,-3.28 -1.08,-5.4 -1.04,-2.16 -2.76,-2.16 -1.24,0 -2.08,0.84 -0.68,0.76 -0.96,2.2 -0.24,1.44 -0.24,3.72 0,1.92 0.48,3.68 0.52,1.76 1.36,2.84 0.88,1.08 1.96,1.08 z" />
    <path
       id="path907"
       style="font-style:normal;font-variant:normal;font-weight:bold;font-stretch:normal;font-family:'EB Garamond';-inkscape-font-specification:'EB Garamond Bold';text-align:center;text-anchor:middle;fill:#ffffff"
       d="m 1054.6149,202.57426 q 0.24,0 0.32,0.08 0.08,0.08 0.08,0.32 0,0.32 -0.24,0.68 -0.24,0.36 -0.44,0.36 -3,0.32 -6.08,1.44 -0.48,0.24 -0.68,0.24 -0.12,0 -0.36,-0.28 -0.2,-0.24 -0.2,-0.4 0.2,-1.4 0.2,-2.12 v -0.24 q -0.84,1.28 -2.28,2.08 -1.4,0.76 -3,0.76 -2.16,0 -3.96,-1.12 -1.76,-1.12 -2.76,-3.04 -1,-1.92 -1,-4.2 0,-2.68 1.2,-4.8 1.2,-2.16 3.36,-3.36 2.2,-1.24 5,-1.24 1.12,0 2.48,0.36 l 0.52,0.12 q 0.16,0 0.16,-0.52 v -4.76 q 0,-1.44 -0.36,-2.04 -0.32,-0.64 -1.2,-0.84 -0.48,-0.12 -0.48,-0.6 0,-0.52 0.44,-0.6 1.44,-0.32 3,-0.8 1.6,-0.52 2.64,-0.96 0.8,-0.36 0.96,-0.36 0.44,0 0.44,0.48 -0.04,0.16 -0.12,0.96 -0.04,0.76 -0.08,1.8 l -0.2,20.16 q 0,1.4 0.2,2 0.2,0.56 0.72,0.56 l 1.56,-0.12 z m -2.24,-25.36 z m -8.4,25.56 q 0.68,0 1.56,-0.32 0.88,-0.36 1.4,-0.92 l -0.04,-8.84 q 0,-0.68 -0.56,-1.4 -0.52,-0.72 -1.36,-1.2 -0.8,-0.48 -1.6,-0.48 -0.96,0 -1.8,0.8 -0.8,0.76 -1.32,2.24 -0.48,1.48 -0.48,3.4 0,2.08 0.56,3.6 0.6,1.52 1.56,2.32 0.96,0.8 2.08,0.8 z" />
    <path
       id="path909"
       style="font-style:normal;font-variant:normal;font-weight:bold;font-stretch:normal;font-family:'EB Garamond';-inkscape-font-specification:'EB Garamond Bold';text-align:center;text-anchor:middle;fill:#ffffff"
       d="m 1063.1793,205.49426 q -2.12,0 -3.84,-1.12 -1.72,-1.16 -2.72,-3.16 -0.96,-2 -0.96,-4.48 0,-2.48 1.16,-4.56 1.16,-2.08 3.16,-3.28 2.04,-1.24 4.4,-1.24 1.68,0 3.08,0.72 1.4,0.72 2.2,2 0.8,1.28 0.8,2.8 0,0.8 -0.32,1.16 -0.28,0.36 -0.92,0.36 h -8 q -0.56,0 -0.84,0.32 -0.24,0.32 -0.24,1.08 0,2.32 1.48,3.92 1.48,1.56 3.72,1.56 1.12,0 2.08,-0.4 0.96,-0.44 2,-1.24 0.4,-0.32 0.56,-0.32 0.4,0 0.4,0.52 0,0.52 -0.32,1.2 -0.64,1.68 -2.52,2.92 -1.84,1.24 -4.36,1.24 z m 0.44,-12.48 q 0.92,0 1.44,-0.04 0.52,-0.04 0.92,-0.16 0.2,-0.08 0.32,-0.4 0.12,-0.32 0.12,-0.72 0,-1.04 -0.76,-1.72 -0.72,-0.72 -1.8,-0.72 -1.24,0 -2.24,1.04 -1,1 -0.96,2.16 0,0.56 0.56,0.56 z" />
    <path
       id="path911"
       style="font-style:normal;font-variant:normal;font-weight:bold;font-stretch:normal;font-family:'EB Garamond';-inkscape-font-specification:'EB Garamond Bold';text-align:center;text-anchor:middle;fill:#ffffff"
       d="m 1097.1111,205.49426 q -4.12,0 -7.56,-1.64 -3.44,-1.68 -5.48,-4.68 -2,-3 -2,-6.88 0,-3.68 2,-6.88 2,-3.2 5.68,-5.12 3.68,-1.92 8.48,-1.92 3.48,0 7.32,1.36 0.8,0.36 0.92,1.16 0.32,2.4 0.32,4.8 0,0.32 -0.2,0.52 -0.2,0.16 -0.48,0.16 -0.64,0 -0.88,-0.68 -0.32,-1.16 -0.72,-1.96 -0.4,-0.84 -1.08,-1.48 -1.92,-1.84 -5.64,-1.84 -2.68,0 -4.72,1.48 -2.04,1.48 -3.16,3.96 -1.12,2.44 -1.12,5.28 0,5.52 2.36,8.92 2.36,3.36 6.72,3.36 2.92,0 4.76,-1.2 1.84,-1.24 3.12,-3.92 0.16,-0.32 0.4,-0.48 0.24,-0.2 0.48,-0.2 0.24,0 0.4,0.2 0.2,0.16 0.2,0.48 0,1.8 -0.88,4.56 -0.16,0.48 -0.4,0.76 -0.24,0.24 -0.68,0.44 -3.32,1.44 -8.16,1.44 z" />
    <path
       id="path913"
       style="font-style:normal;font-variant:normal;font-weight:bold;font-stretch:normal;font-family:'EB Garamond';-inkscape-font-specification:'EB Garamond Bold';text-align:center;text-anchor:middle;fill:#ffffff"
       d="m 1118.7505,205.49426 q -2.36,0 -4.32,-1.08 -1.96,-1.08 -3.08,-2.96 -1.12,-1.92 -1.12,-4.32 0,-2.52 1.24,-4.72 1.28,-2.2 3.4,-3.48 2.16,-1.32 4.76,-1.32 2.4,0 4.44,1.16 2.04,1.12 3.2,3.08 1.2,1.92 1.2,4.12 0,2.64 -1.12,4.8 -1.12,2.16 -3.32,3.44 -2.16,1.28 -5.28,1.28 z m 0.8,-1.76 q 1.64,0 2.48,-1.36 0.84,-1.4 0.84,-5.44 0,-3.28 -1.08,-5.4 -1.04,-2.16 -2.76,-2.16 -1.24,0 -2.08,0.84 -0.68,0.76 -0.96,2.2 -0.24,1.44 -0.24,3.72 0,1.92 0.48,3.68 0.52,1.76 1.36,2.84 0.88,1.08 1.96,1.08 z" />
    <path
       id="path915"
       style="font-style:normal;font-variant:normal;font-weight:bold;font-stretch:normal;font-family:'EB Garamond';-inkscape-font-specification:'EB Garamond Bold';text-align:center;text-anchor:middle;fill:#ffffff"
       d="m 1131.0668,205.05426 q -0.28,0 -0.56,-0.16 -0.24,-0.16 -0.24,-0.4 0,-0.48 0.92,-0.8 0.8,-0.24 1.16,-0.52 0.36,-0.28 0.36,-1 v -9.16 q 0,-2.04 -1.24,-2.24 -0.44,-0.08 -0.44,-0.72 0,-0.56 0.4,-0.68 4.04,-1 6,-2.12 0.08,-0.04 0.2,-0.12 0.16,-0.08 0.28,-0.08 0.36,0 0.36,0.44 l -0.08,0.88 q -0.04,0.28 -0.08,0.68 -0.04,0.36 -0.04,0.84 0,0.4 0.08,0.48 h 0.08 q 1.32,-1.28 2.76,-2 1.48,-0.72 3.2,-0.72 1.2,0 2.24,0.88 1.08,0.84 1.6,2.2 h 0.16 q 2.56,-3.08 6.08,-3.08 1.92,0 3.16,1.56 1.28,1.56 1.28,4.16 v 8.8 q 0,0.72 0.36,1 0.36,0.28 1.16,0.52 0.8,0.28 0.8,0.8 0,0.24 -0.2,0.4 -0.2,0.16 -0.48,0.16 -1.2,0 -2.28,-0.12 -1.28,-0.08 -1.96,-0.08 -0.68,0 -1.8,0.08 -0.88,0.12 -2.08,0.12 -0.28,0 -0.48,-0.16 -0.2,-0.16 -0.2,-0.4 0,-0.6 0.8,-0.8 0.56,-0.16 0.8,-0.4 0.28,-0.28 0.28,-0.88 v -8.2 q 0,-1.44 -0.64,-2.32 -0.6,-0.92 -1.56,-0.96 -1.24,0 -2.36,0.96 -0.56,0.52 -0.56,1.68 v 8.6 q 0,0.76 0.28,1.04 0.28,0.28 0.96,0.48 0.8,0.2 0.8,0.8 0,0.24 -0.2,0.4 -0.2,0.16 -0.48,0.16 -1.16,0 -2.12,-0.12 -1.2,-0.08 -1.84,-0.08 -0.68,0 -1.8,0.08 -0.88,0.12 -2.08,0.12 -0.24,0 -0.44,-0.16 -0.2,-0.16 -0.2,-0.4 0,-0.52 0.76,-0.8 0.6,-0.2 0.84,-0.44 0.28,-0.24 0.28,-0.84 v -8.2 q 0,-1.48 -0.6,-2.32 -0.6,-0.88 -1.6,-0.92 -1.2,0 -2.4,0.88 -0.52,0.4 -0.52,1.56 v 8.76 q 0,0.68 0.24,1 0.24,0.32 0.88,0.52 0.76,0.28 0.76,0.8 0,0.24 -0.2,0.4 -0.2,0.16 -0.44,0.16 -1.16,0 -2.08,-0.12 -1.2,-0.08 -1.84,-0.08 -0.68,0 -1.96,0.08 -1,0.12 -2.24,0.12 z" />
    <path
       id="path917"
       style="font-style:normal;font-variant:normal;font-weight:bold;font-stretch:normal;font-family:'EB Garamond';-inkscape-font-specification:'EB Garamond Bold';text-align:center;text-anchor:middle;fill:#ffffff"
       d="m 1163.3324,205.05426 q -0.28,0 -0.56,-0.16 -0.24,-0.16 -0.24,-0.4 0,-0.48 0.92,-0.8 0.8,-0.24 1.16,-0.52 0.36,-0.28 0.36,-1 v -9.16 q 0,-2.04 -1.24,-2.24 -0.44,-0.08 -0.44,-0.72 0,-0.56 0.4,-0.68 4.04,-1 6,-2.12 0.08,-0.04 0.2,-0.12 0.16,-0.08 0.28,-0.08 0.36,0 0.36,0.44 l -0.08,0.88 q -0.04,0.28 -0.08,0.68 -0.04,0.36 -0.04,0.84 0,0.4 0.08,0.48 h 0.08 q 1.32,-1.28 2.76,-2 1.48,-0.72 3.2,-0.72 1.2,0 2.24,0.88 1.08,0.84 1.6,2.2 h 0.16 q 2.56,-3.08 6.08,-3.08 1.92,0 3.16,1.56 1.28,1.56 1.28,4.16 v 8.8 q 0,0.72 0.36,1 0.36,0.28 1.16,0.52 0.8,0.28 0.8,0.8 0,0.24 -0.2,0.4 -0.2,0.16 -0.48,0.16 -1.2,0 -2.28,-0.12 -1.28,-0.08 -1.96,-0.08 -0.68,0 -1.8,0.08 -0.88,0.12 -2.08,0.12 -0.28,0 -0.48,-0.16 -0.2,-0.16 -0.2,-0.4 0,-0.6 0.8,-0.8 0.56,-0.16 0.8,-0.4 0.28,-0.28 0.28,-0.88 v -8.2 q 0,-1.44 -0.64,-2.32 -0.6,-0.92 -1.56,-0.96 -1.24,0 -2.36,0.96 -0.56,0.52 -0.56,1.68 v 8.6 q 0,0.76 0.28,1.04 0.28,0.28 0.96,0.48 0.8,0.2 0.8,0.8 0,0.24 -0.2,0.4 -0.2,0.16 -0.48,0.16 -1.16,0 -2.12,-0.12 -1.2,-0.08 -1.84,-0.08 -0.68,0 -1.8,0.08 -0.88,0.12 -2.08,0.12 -0.24,0 -0.44,-0.16 -0.2,-0.16 -0.2,-0.4 0,-0.52 0.76,-0.8 0.6,-0.2 0.84,-0.44 0.28,-0.24 0.28,-0.84 v -8.2 q 0,-1.48 -0.6,-2.32 -0.6,-0.88 -1.6,-0.92 -1.2,0 -2.4,0.88 -0.52,0.4 -0.52,1.56 v 8.76 q 0,0.68 0.24,1 0.24,0.32 0.88,0.52 0.76,0.28 0.76,0.8 0,0.24 -0.2,0.4 -0.2,0.16 -0.44,0.16 -1.16,0 -2.08,-0.12 -1.2,-0.08 -1.84,-0.08 -0.68,0 -1.96,0.08 -1,0.12 -2.24,0.12 z" />
    <path
       id="path919"
       style="font-style:normal;font-variant:normal;font-weight:bold;font-stretch:normal;font-family:'EB Garamond';-inkscape-font-specification:'EB Garamond Bold';text-align:center;text-anchor:middle;fill:#ffffff"
       d="m 1202.398,205.49426 q -2.12,0 -3.84,-1.12 -1.72,-1.16 -2.72,-3.16 -0.96,-2 -0.96,-4.48 0,-2.48 1.16,-4.56 1.16,-2.08 3.16,-3.28 2.04,-1.24 4.4,-1.24 1.68,0 3.08,0.72 1.4,0.72 2.2,2 0.8,1.28 0.8,2.8 0,0.8 -0.32,1.16 -0.28,0.36 -0.92,0.36 h -8 q -0.56,0 -0.84,0.32 -0.24,0.32 -0.24,1.08 0,2.32 1.48,3.92 1.48,1.56 3.72,1.56 1.12,0 2.08,-0.4 0.96,-0.44 2,-1.24 0.4,-0.32 0.56,-0.32 0.4,0 0.4,0.52 0,0.52 -0.32,1.2 -0.64,1.68 -2.52,2.92 -1.84,1.24 -4.36,1.24 z m 0.44,-12.48 q 0.92,0 1.44,-0.04 0.52,-0.04 0.92,-0.16 0.2,-0.08 0.32,-0.4 0.12,-0.32 0.12,-0.72 0,-1.04 -0.76,-1.72 -0.72,-0.72 -1.8,-0.72 -1.24,0 -2.24,1.04 -1,1 -0.96,2.16 0,0.56 0.56,0.56 z" />
    <path
       id="path922"
       style="font-style:normal;font-variant:normal;font-weight:bold;font-stretch:normal;font-family:'EB Garamond';-inkscape-font-specification:'EB Garamond Bold';text-align:center;text-anchor:middle;fill:#ffffff"
       d="m 1212.3168,205.05426 q -0.28,0 -0.56,-0.16 -0.24,-0.16 -0.24,-0.4 0,-0.48 0.92,-0.8 0.8,-0.24 1.16,-0.52 0.36,-0.28 0.36,-1 v -9.16 q 0,-2 -1.24,-2.24 -0.44,-0.08 -0.44,-0.72 0,-0.56 0.4,-0.68 1.4,-0.32 3.04,-0.88 1.64,-0.56 2.72,-1.12 0.52,-0.32 0.72,-0.32 0.36,0 0.36,0.48 l -0.08,0.8 q -0.12,1.44 -0.12,1.48 0,0.52 0.08,0.6 1.48,-1.4 2.84,-2.08 1.4,-0.68 3.16,-0.68 2.16,0 3.52,1.56 1.4,1.56 1.4,4.16 v 8.8 q 0,0.72 0.36,1 0.36,0.28 1.16,0.52 0.8,0.28 0.8,0.8 0,0.24 -0.2,0.4 -0.2,0.16 -0.48,0.16 -1.2,0 -2.28,-0.12 -1.28,-0.08 -1.96,-0.08 -0.68,0 -1.96,0.08 -1,0.12 -2.24,0.12 -0.28,0 -0.48,-0.16 -0.2,-0.16 -0.2,-0.4 0,-0.52 0.8,-0.8 0.76,-0.24 1.08,-0.52 0.32,-0.28 0.32,-1 v -7.96 q 0,-1.52 -0.68,-2.36 -0.68,-0.88 -1.88,-0.92 -0.84,0 -1.52,0.28 -0.68,0.24 -1.44,0.76 -0.32,0.28 -0.32,0.76 v 9.44 q 0,0.72 0.32,1 0.32,0.24 1.12,0.52 0.8,0.28 0.8,0.8 0,0.24 -0.2,0.4 -0.2,0.16 -0.48,0.16 -1.2,0 -2.16,-0.12 -1.28,-0.08 -1.92,-0.08 -0.68,0 -2.04,0.08 -1.08,0.12 -2.32,0.12 z" />
    <path
       id="path924"
       style="font-style:normal;font-variant:normal;font-weight:bold;font-stretch:normal;font-family:'EB Garamond';-inkscape-font-specification:'EB Garamond Bold';text-align:center;text-anchor:middle;fill:#ffffff"
       d="m 1241.468,205.49426 q -2.6,0 -3.96,-1.32 -1.32,-1.32 -1.32,-3.8 v -9.2 q 0,-0.36 -0.28,-0.52 -0.28,-0.16 -0.96,-0.2 h -0.52 q -0.24,0 -0.44,-0.44 -0.2,-0.44 -0.2,-0.84 0,-0.28 0.24,-0.4 2,-0.72 5.84,-4.08 0.08,-0.08 0.28,-0.2 0.2,-0.16 0.36,-0.24 0.16,-0.08 0.36,-0.08 0.4,0 0.52,0.16 0.12,0.16 0.08,0.64 l -0.24,2.36 v 0.16 q 0,0.68 0.96,0.68 h 4.76 q 0.12,0 0.24,0.28 0.12,0.28 0.12,0.52 0,0.6 -0.16,1.12 -0.16,0.48 -0.36,0.48 h -3.72 q -0.92,0 -1.28,0.24 -0.32,0.2 -0.32,0.76 v 7.56 q 0,1.8 0.68,2.72 0.68,0.92 1.88,0.92 0.92,0 1.4,-0.12 0.52,-0.16 0.84,-0.32 0.36,-0.16 0.44,-0.2 0.16,-0.08 0.24,-0.08 0.2,0 0.32,0.24 0.12,0.2 0.12,0.56 0,0.28 -0.92,0.96 -0.88,0.64 -2.24,1.16 -1.36,0.52 -2.76,0.52 z" />
    <path
       id="path926"
       style="font-style:normal;font-variant:normal;font-weight:bold;font-stretch:normal;font-family:'EB Garamond';-inkscape-font-specification:'EB Garamond Bold';text-align:center;text-anchor:middle;fill:#ffffff"
       d="m 1254.308,205.49426 q -2.88,0 -4.8,-1.36 -0.36,-0.56 -0.52,-1.8 -0.16,-1.28 -0.12,-2.76 0,-0.48 0.8,-0.48 0.28,0 0.52,0.2 0.24,0.16 0.32,0.4 0.84,1.92 1.84,3 1,1.04 2.32,1.04 1,0 1.6,-0.64 0.6,-0.64 0.6,-1.52 0,-0.96 -0.72,-1.64 -0.72,-0.68 -2.08,-1.4 -2.12,-1.08 -3.36,-2.4 -1.2,-1.32 -1.2,-3.32 0,-2.32 1.84,-3.76 1.84,-1.44 4.6,-1.44 1.2,0 2.32,0.28 1.16,0.28 1.64,0.6 0.32,0.4 0.52,1.52 0.2,1.08 0.2,2.4 0,0.2 -0.24,0.32 -0.2,0.12 -0.48,0.12 -0.28,0 -0.6,-0.2 -0.28,-0.2 -0.36,-0.4 -0.52,-1.56 -1.36,-2.32 -0.8,-0.8 -1.8,-0.8 -0.92,0 -1.64,0.6 -0.68,0.56 -0.68,1.48 0,0.76 0.68,1.44 0.72,0.64 2.04,1.36 2.72,1.44 3.76,2.68 1.08,1.24 1.08,3.28 0,2.64 -1.76,4.08 -1.72,1.44 -4.96,1.44 z" />
    <path
       id="path928"
       style="font-style:normal;font-variant:normal;font-weight:bold;font-stretch:normal;font-family:'EB Garamond';-inkscape-font-specification:'EB Garamond Bold';text-align:center;text-anchor:middle;fill:#ffffff"
       d="m 1047.7427,255.52954 q -0.24,0 -0.44,-0.12 -0.2,-0.16 -0.2,-0.4 0,-0.6 0.72,-0.8 1.08,-0.24 1.48,-0.52 0.4,-0.32 0.4,-0.96 v -8.64 q 0,-1.32 -0.4,-1.92 -0.4,-0.6 -1.32,-0.72 -0.24,-0.04 -0.36,-0.24 -0.12,-0.2 -0.12,-0.48 0,-0.24 0.12,-0.44 0.16,-0.2 0.32,-0.24 1.8,-0.32 3.16,-0.88 1.4,-0.56 3.04,-1.36 0.56,-0.32 0.8,-0.32 0.24,0 0.36,0.16 0.16,0.12 0.16,0.32 l -0.16,1.48 q -0.36,3.04 -0.36,4.4 v 8.84 q 0,0.56 0.4,0.88 0.4,0.32 1.52,0.64 0.36,0.12 0.52,0.28 0.2,0.16 0.2,0.48 0,0.52 -0.6,0.52 -0.84,0 -2.44,-0.08 -1.6,-0.08 -2.28,-0.08 -0.68,0 -2.12,0.08 -1.2,0.12 -2.4,0.12 z m 4.4,-19.84 q -1.28,0 -2.2,-0.92 -0.92,-0.92 -0.92,-2.2 0,-1.36 0.92,-2.28 0.92,-0.92 2.2,-0.92 1.36,0 2.28,0.92 0.96,0.92 0.96,2.28 0,1.28 -0.96,2.2 -0.92,0.92 -2.28,0.92 z" />
    <path
       id="path930"
       style="font-style:normal;font-variant:normal;font-weight:bold;font-stretch:normal;font-family:'EB Garamond';-inkscape-font-specification:'EB Garamond Bold';text-align:center;text-anchor:middle;fill:#ffffff"
       d="m 1059.6996,255.52954 q -0.28,0 -0.56,-0.16 -0.24,-0.16 -0.24,-0.4 0,-0.48 0.92,-0.8 0.8,-0.24 1.16,-0.52 0.36,-0.28 0.36,-1 v -9.16 q 0,-2 -1.24,-2.24 -0.44,-0.08 -0.44,-0.72 0,-0.56 0.4,-0.68 1.4,-0.32 3.04,-0.88 1.64,-0.56 2.72,-1.12 0.52,-0.32 0.72,-0.32 0.36,0 0.36,0.48 l -0.08,0.8 q -0.12,1.44 -0.12,1.48 0,0.52 0.08,0.6 1.48,-1.4 2.84,-2.08 1.4,-0.68 3.16,-0.68 2.16,0 3.52,1.56 1.4,1.56 1.4,4.16 v 8.8 q 0,0.72 0.36,1 0.36,0.28 1.16,0.52 0.8,0.28 0.8,0.8 0,0.24 -0.2,0.4 -0.2,0.16 -0.48,0.16 -1.2,0 -2.28,-0.12 -1.28,-0.08 -1.96,-0.08 -0.68,0 -1.96,0.08 -1,0.12 -2.24,0.12 -0.28,0 -0.48,-0.16 -0.2,-0.16 -0.2,-0.4 0,-0.52 0.8,-0.8 0.76,-0.24 1.08,-0.52 0.32,-0.28 0.32,-1 v -7.96 q 0,-1.52 -0.68,-2.36 -0.68,-0.88 -1.88,-0.92 -0.84,0 -1.52,0.28 -0.68,0.24 -1.44,0.76 -0.32,0.28 -0.32,0.76 v 9.44 q 0,0.72 0.32,1 0.32,0.24 1.12,0.52 0.8,0.28 0.8,0.8 0,0.24 -0.2,0.4 -0.2,0.16 -0.48,0.16 -1.2,0 -2.16,-0.12 -1.28,-0.08 -1.92,-0.08 -0.68,0 -2.04,0.08 -1.08,0.12 -2.32,0.12 z" />
    <path
       id="path932"
       style="font-style:normal;font-variant:normal;font-weight:bold;font-stretch:normal;font-family:'EB Garamond';-inkscape-font-specification:'EB Garamond Bold';text-align:center;text-anchor:middle;fill:#ffffff"
       d="m 1092.0089,255.64954 q -0.4,0 -0.76,-0.2 -0.36,-0.2 -0.36,-0.48 0,-0.64 1.04,-0.84 1.52,-0.28 2,-0.8 0.48,-0.52 0.48,-1.84 v -18.12 q 0,-1.32 -0.56,-1.84 -0.52,-0.52 -2.12,-0.88 -0.84,-0.2 -0.84,-0.84 0,-0.28 0.24,-0.44 0.24,-0.16 0.56,-0.16 1.48,0 3.04,0.12 1.92,0.08 2.68,0.08 0.76,0 2.68,-0.08 2.16,-0.08 3.12,-0.08 0.72,0 0.72,0.56 0,0.36 -0.2,0.56 -0.2,0.16 -0.68,0.28 -1.56,0.44 -2.04,1 -0.48,0.52 -0.48,1.76 v 8.12 q 0,0.64 0.4,0.64 0.28,0 1,-0.64 l 7.68,-8.28 q 0.76,-0.84 0.76,-1.24 0,-0.84 -1.64,-1.2 -0.88,-0.24 -0.88,-0.88 0,-0.24 0.24,-0.4 0.28,-0.16 0.56,-0.16 h 2.76 l 3.92,-0.04 q 2.56,-0.08 4,-0.08 0.4,0 0.72,0.16 0.32,0.16 0.32,0.4 0,0.32 -0.36,0.56 -0.36,0.2 -0.84,0.28 -3.56,0.48 -6.16,2.48 -1.12,0.88 -2.36,2.04 -1.24,1.16 -2.4,2.32 -0.68,0.68 -2.16,2.12 -0.28,0.28 -0.28,0.52 0,0.28 0.32,0.68 l 9.56,10.72 q 0.96,1.04 1.8,1.64 0.84,0.56 2.32,0.96 0.64,0.2 0.92,0.36 0.32,0.12 0.32,0.44 0,0.32 -0.4,0.48 -0.4,0.2 -1.12,0.2 -0.8,0 -1.88,-0.04 -1.08,-0.04 -1.64,-0.08 -2.4,-0.16 -3.64,-0.16 -0.88,0 -2.4,0.08 -1.24,0.12 -2.6,0.12 -0.32,0 -0.56,-0.16 -0.24,-0.2 -0.24,-0.44 0,-0.64 0.8,-0.84 1.6,-0.32 1.68,-1.08 0,-0.44 -0.68,-1.32 l -6.52,-7.56 q -0.52,-0.64 -0.96,-0.64 -0.36,0 -0.36,0.64 0,4.72 0.12,7.28 0.08,1.24 0.48,1.8 0.4,0.52 1.84,0.92 0.56,0.16 0.8,0.32 0.28,0.16 0.28,0.48 0,0.28 -0.36,0.48 -0.36,0.16 -0.8,0.16 -1.04,0 -3.36,-0.2 -0.36,-0.04 -0.84,-0.08 -0.48,-0.04 -1.16,-0.04 -0.68,0 -2.12,0.16 -1.84,0.24 -3.4,0.24 z" />
    <path
       id="path934"
       style="font-style:normal;font-variant:normal;font-weight:bold;font-stretch:normal;font-family:'EB Garamond';-inkscape-font-specification:'EB Garamond Bold';text-align:center;text-anchor:middle;fill:#ffffff"
       d="m 1129.3364,255.96954 q -2.36,0 -4.32,-1.08 -1.96,-1.08 -3.08,-2.96 -1.12,-1.92 -1.12,-4.32 0,-2.52 1.24,-4.72 1.28,-2.2 3.4,-3.48 2.16,-1.32 4.76,-1.32 2.4,0 4.44,1.16 2.04,1.12 3.2,3.08 1.2,1.92 1.2,4.12 0,2.64 -1.12,4.8 -1.12,2.16 -3.32,3.44 -2.16,1.28 -5.28,1.28 z m 0.8,-1.76 q 1.64,0 2.48,-1.36 0.84,-1.4 0.84,-5.44 0,-3.28 -1.08,-5.4 -1.04,-2.16 -2.76,-2.16 -1.24,0 -2.08,0.84 -0.68,0.76 -0.96,2.2 -0.24,1.44 -0.24,3.72 0,1.92 0.48,3.68 0.52,1.76 1.36,2.84 0.88,1.08 1.96,1.08 z" />
    <path
       id="path936"
       style="font-style:normal;font-variant:normal;font-weight:bold;font-stretch:normal;font-family:'EB Garamond';-inkscape-font-specification:'EB Garamond Bold';text-align:center;text-anchor:middle;fill:#ffffff"
       d="m 1148.4602,255.96954 q -2.6,0 -3.96,-1.32 -1.32,-1.32 -1.32,-3.8 v -9.2 q 0,-0.36 -0.28,-0.52 -0.28,-0.16 -0.96,-0.2 h -0.52 q -0.24,0 -0.44,-0.44 -0.2,-0.44 -0.2,-0.84 0,-0.28 0.24,-0.4 2,-0.72 5.84,-4.08 0.08,-0.08 0.28,-0.2 0.2,-0.16 0.36,-0.24 0.16,-0.08 0.36,-0.08 0.4,0 0.52,0.16 0.12,0.16 0.08,0.64 l -0.24,2.36 v 0.16 q 0,0.68 0.96,0.68 h 4.76 q 0.12,0 0.24,0.28 0.12,0.28 0.12,0.52 0,0.6 -0.16,1.12 -0.16,0.48 -0.36,0.48 h -3.72 q -0.92,0 -1.28,0.24 -0.32,0.2 -0.32,0.76 v 7.56 q 0,1.8 0.68,2.72 0.68,0.92 1.88,0.92 0.92,0 1.4,-0.12 0.52,-0.16 0.84,-0.32 0.36,-0.16 0.44,-0.2 0.16,-0.08 0.24,-0.08 0.2,0 0.32,0.24 0.12,0.2 0.12,0.56 0,0.28 -0.92,0.96 -0.88,0.64 -2.24,1.16 -1.36,0.52 -2.76,0.52 z" />
    <path
       id="path938"
       style="font-style:normal;font-variant:normal;font-weight:bold;font-stretch:normal;font-family:'EB Garamond';-inkscape-font-specification:'EB Garamond Bold';text-align:center;text-anchor:middle;fill:#ffffff"
       d="m 1156.1402,255.52954 q -0.36,0 -0.6,-0.12 -0.2,-0.16 -0.2,-0.44 0,-0.56 0.92,-0.8 0.88,-0.32 1.2,-0.56 0.32,-0.24 0.32,-0.96 v -19.24 q 0,-1.2 -0.36,-1.92 -0.32,-0.76 -1.24,-0.96 -0.4,-0.08 -0.4,-0.6 0,-0.52 0.36,-0.6 1.08,-0.2 2.6,-0.72 1.56,-0.52 2.76,-0.96 l 0.84,-0.32 q 0.28,-0.12 0.52,-0.12 0.4,0 0.4,0.48 0,0.32 -0.12,1.16 -0.08,0.84 -0.12,1.6 v 22.12 q 0,0.68 0.28,0.96 0.32,0.24 0.72,0.4 0.4,0.12 0.52,0.16 0.48,0.16 0.68,0.36 0.24,0.16 0.24,0.44 0,0.28 -0.24,0.44 -0.2,0.12 -0.56,0.12 -0.84,0 -2.28,-0.08 l -2.08,-0.04 q -0.64,0 -1.92,0.08 -1.08,0.12 -2.24,0.12 z" />
    <path
       id="path940"
       style="font-style:normal;font-variant:normal;font-weight:bold;font-stretch:normal;font-family:'EB Garamond';-inkscape-font-specification:'EB Garamond Bold';text-align:center;text-anchor:middle;fill:#ffffff"
       d="m 1167.5864,255.52954 q -0.24,0 -0.44,-0.12 -0.2,-0.16 -0.2,-0.4 0,-0.6 0.72,-0.8 1.08,-0.24 1.48,-0.52 0.4,-0.32 0.4,-0.96 v -8.64 q 0,-1.32 -0.4,-1.92 -0.4,-0.6 -1.32,-0.72 -0.24,-0.04 -0.36,-0.24 -0.12,-0.2 -0.12,-0.48 0,-0.24 0.12,-0.44 0.16,-0.2 0.32,-0.24 1.8,-0.32 3.16,-0.88 1.4,-0.56 3.04,-1.36 0.56,-0.32 0.8,-0.32 0.24,0 0.36,0.16 0.16,0.12 0.16,0.32 l -0.16,1.48 q -0.36,3.04 -0.36,4.4 v 8.84 q 0,0.56 0.4,0.88 0.4,0.32 1.52,0.64 0.36,0.12 0.52,0.28 0.2,0.16 0.2,0.48 0,0.52 -0.6,0.52 -0.84,0 -2.44,-0.08 -1.6,-0.08 -2.28,-0.08 -0.68,0 -2.12,0.08 -1.2,0.12 -2.4,0.12 z m 4.4,-19.84 q -1.28,0 -2.2,-0.92 -0.92,-0.92 -0.92,-2.2 0,-1.36 0.92,-2.28 0.92,-0.92 2.2,-0.92 1.36,0 2.28,0.92 0.96,0.92 0.96,2.28 0,1.28 -0.96,2.2 -0.92,0.92 -2.28,0.92 z" />
    <path
       id="path942"
       style="font-style:normal;font-variant:normal;font-weight:bold;font-stretch:normal;font-family:'EB Garamond';-inkscape-font-specification:'EB Garamond Bold';text-align:center;text-anchor:middle;fill:#ffffff"
       d="m 1179.5433,255.52954 q -0.28,0 -0.56,-0.16 -0.24,-0.16 -0.24,-0.4 0,-0.48 0.92,-0.8 0.8,-0.24 1.16,-0.52 0.36,-0.28 0.36,-1 v -9.16 q 0,-2 -1.24,-2.24 -0.44,-0.08 -0.44,-0.72 0,-0.56 0.4,-0.68 1.4,-0.32 3.04,-0.88 1.64,-0.56 2.72,-1.12 0.52,-0.32 0.72,-0.32 0.36,0 0.36,0.48 l -0.08,0.8 q -0.12,1.44 -0.12,1.48 0,0.52 0.08,0.6 1.48,-1.4 2.84,-2.08 1.4,-0.68 3.16,-0.68 2.16,0 3.52,1.56 1.4,1.56 1.4,4.16 v 8.8 q 0,0.72 0.36,1 0.36,0.28 1.16,0.52 0.8,0.28 0.8,0.8 0,0.24 -0.2,0.4 -0.2,0.16 -0.48,0.16 -1.2,0 -2.28,-0.12 -1.28,-0.08 -1.96,-0.08 -0.68,0 -1.96,0.08 -1,0.12 -2.24,0.12 -0.28,0 -0.48,-0.16 -0.2,-0.16 -0.2,-0.4 0,-0.52 0.8,-0.8 0.76,-0.24 1.08,-0.52 0.32,-0.28 0.32,-1 v -7.96 q 0,-1.52 -0.68,-2.36 -0.68,-0.88 -1.88,-0.92 -0.84,0 -1.52,0.28 -0.68,0.24 -1.44,0.76 -0.32,0.28 -0.32,0.76 v 9.44 q 0,0.72 0.32,1 0.32,0.24 1.12,0.52 0.8,0.28 0.8,0.8 0,0.24 -0.2,0.4 -0.2,0.16 -0.48,0.16 -1.2,0 -2.16,-0.12 -1.28,-0.08 -1.92,-0.08 -0.68,0 -2.04,0.08 -1.08,0.12 -2.32,0.12 z" />
  </g>
</svg>
