<?xml version="1.0" encoding="UTF-8" standalone="no"?>
<svg
   xmlns:dc="http://purl.org/dc/elements/1.1/"
   xmlns:cc="http://creativecommons.org/ns#"
   xmlns:rdf="http://www.w3.org/1999/02/22-rdf-syntax-ns#"
   xmlns:svg="http://www.w3.org/2000/svg"
   xmlns="http://www.w3.org/2000/svg"
   xmlns:xlink="http://www.w3.org/1999/xlink"
   width="211.40208mm"
   height="119.0625mm"
   viewBox="0 0 211.40208 119.0625"
   version="1.1"
   id="svg3357">
  <defs
     id="defs3351">
    <marker
       orient="auto"
       refY="0"
       refX="0"
       id="marker5982"
       style="overflow:visible">
      <path
         id="path5980"
         d="M 0,0 5,-5 -12.5,0 5,5 Z"
         style="fill-rule:evenodd;stroke:#000000;stroke-width:1.00000003pt"
         transform="matrix(0.8,0,0,0.8,10,0)" />
    </marker>
    <marker
       orient="auto"
       refY="0"
       refX="0"
       id="Arrow1Lend"
       style="overflow:visible">
      <path
         id="path5705"
         d="M 0,0 5,-5 -12.5,0 5,5 Z"
         style="fill-rule:evenodd;stroke:#000000;stroke-width:1.00000003pt"
         transform="matrix(-0.8,0,0,-0.8,-10,0)" />
    </marker>
    <marker
       orient="auto"
       refY="0"
       refX="0"
       id="Arrow1Lstart"
       style="overflow:visible">
      <path
         id="path5702"
         d="M 0,0 5,-5 -12.5,0 5,5 Z"
         style="fill-rule:evenodd;stroke:#000000;stroke-width:1.00000003pt"
         transform="matrix(0.8,0,0,0.8,10,0)" />
    </marker>
    <linearGradient
       id="linearGradient6114">
      <stop
         style="stop-color:#6f7c91;stop-opacity:1;"
         offset="0"
         id="stop6110" />
      <stop
         style="stop-color:#162d50;stop-opacity:1"
         offset="1"
         id="stop6112" />
    </linearGradient>
    <radialGradient
       xlink:href="#linearGradient6114"
       id="radialGradient6126"
       cx="73.77433"
       cy="66.986313"
       fx="73.77433"
       fy="66.986313"
       r="31.67275"
       gradientTransform="matrix(3.0071285,0,0,1.83657,-125.12732,-58.151445)"
       gradientUnits="userSpaceOnUse" />
    <linearGradient
       id="linearGradient878">
      <stop
         id="stop874"
         offset="0"
         style="stop-color:#241f1c;stop-opacity:1;" />
      <stop
         id="stop876"
         offset="1"
         style="stop-color:#c87137;stop-opacity:1" />
    </linearGradient>
    <linearGradient
       gradientTransform="matrix(0.17628899,0,0,0.21796478,92.944935,131.35605)"
       gradientUnits="userSpaceOnUse"
       y2="43.727966"
       x2="69.074188"
       y1="24.387194"
       x1="69.074188"
       id="linearGradient880"
       xlink:href="#linearGradient878" />
    <linearGradient
       xlink:href="#linearGradient878"
       id="linearGradient2032"
       gradientUnits="userSpaceOnUse"
       gradientTransform="matrix(0.17628899,0,0,0.21796478,92.944935,131.35605)"
       x1="69.074188"
       y1="24.387194"
       x2="69.074188"
       y2="43.727966" />
    <filter
       style="color-interpolation-filters:sRGB"
       id="filter6601"
       x="-0.40000081"
       width="1.8000016"
       y="-0.331352"
       height="1.662704">
      <feGaussianBlur
         stdDeviation="4.0866748"
         id="feGaussianBlur6603" />
    </filter>
    <filter
       style="color-interpolation-filters:sRGB"
       id="filter6605"
       x="-0.49040106"
       width="1.9808021"
       y="-0.44581908"
       height="1.891638">
      <feGaussianBlur
         stdDeviation="4.0866748"
         id="feGaussianBlur6607" />
    </filter>
    <filter
       style="color-interpolation-filters:sRGB"
       id="filter6609"
       x="-0.78842598"
       width="2.5768521"
       y="-0.33135247"
       height="1.6627049">
      <feGaussianBlur
         stdDeviation="4.0866748"
         id="feGaussianBlur6611" />
    </filter>
    <filter
       style="color-interpolation-filters:sRGB"
       id="filter6613"
       x="-0.7961055"
       width="2.592211"
       y="-0.32693443"
       height="1.6538688">
      <feGaussianBlur
         stdDeviation="4.0866748"
         id="feGaussianBlur6615" />
    </filter>
    <filter
       style="color-interpolation-filters:sRGB"
       id="filter6617"
       x="-0.42643559"
       width="1.8528712"
       y="-0.44581988"
       height="1.8916398">
      <feGaussianBlur
         stdDeviation="4.0866748"
         id="feGaussianBlur6619" />
    </filter>
    <filter
       style="color-interpolation-filters:sRGB"
       id="filter6621"
       x="-0.44744614"
       width="1.8948923"
       y="-0.331352"
       height="1.662704">
      <feGaussianBlur
         stdDeviation="4.0866748"
         id="feGaussianBlur6623" />
    </filter>
    <filter
       style="color-interpolation-filters:sRGB"
       id="filter6625"
       x="-0.50871474"
       width="2.0174294"
       y="-0.44581908"
       height="1.891638">
      <feGaussianBlur
         stdDeviation="4.0866748"
         id="feGaussianBlur6627" />
    </filter>
    <filter
       style="color-interpolation-filters:sRGB"
       id="filter6629"
       x="-0.44744614"
       width="1.8948923"
       y="-0.331352"
       height="1.662704">
      <feGaussianBlur
         stdDeviation="4.0866748"
         id="feGaussianBlur6631" />
    </filter>
    <filter
       style="color-interpolation-filters:sRGB"
       id="filter6633"
       x="-0.47244796"
       width="1.9448959"
       y="-0.35028642"
       height="1.7005728">
      <feGaussianBlur
         stdDeviation="4.0866748"
         id="feGaussianBlur6635" />
    </filter>
    <filter
       style="color-interpolation-filters:sRGB"
       id="filter6637"
       x="-0.49040106"
       width="1.9808021"
       y="-0.44581908"
       height="1.891638">
      <feGaussianBlur
         stdDeviation="4.0866748"
         id="feGaussianBlur6639" />
    </filter>
    <filter
       style="color-interpolation-filters:sRGB"
       id="filter6641"
       x="-0.42058402"
       width="1.841168"
       y="-0.331352"
       height="1.662704">
      <feGaussianBlur
         stdDeviation="4.0866748"
         id="feGaussianBlur6643" />
    </filter>
    <filter
       style="color-interpolation-filters:sRGB"
       id="filter6645"
       x="-0.28216398"
       width="1.564328"
       y="-0.44581908"
       height="1.891638">
      <feGaussianBlur
         stdDeviation="4.0866748"
         id="feGaussianBlur6647" />
    </filter>
    <filter
       style="color-interpolation-filters:sRGB"
       id="filter6649"
       x="-0.88840759"
       width="2.7768152"
       y="-0.44581908"
       height="1.891638">
      <feGaussianBlur
         stdDeviation="4.0866748"
         id="feGaussianBlur6651" />
    </filter>
    <filter
       style="color-interpolation-filters:sRGB"
       id="filter6653"
       x="-0.46351698"
       width="1.927034"
       y="-0.44581908"
       height="1.891638">
      <feGaussianBlur
         stdDeviation="4.0866748"
         id="feGaussianBlur6655" />
    </filter>
    <filter
       style="color-interpolation-filters:sRGB"
       id="filter6657"
       x="-0.45917693"
       width="1.9183539"
       y="-0.44581908"
       height="1.891638">
      <feGaussianBlur
         stdDeviation="4.0866748"
         id="feGaussianBlur6659" />
    </filter>
    <filter
       style="color-interpolation-filters:sRGB"
       id="filter6661"
       x="-0.46351698"
       width="1.927034"
       y="-0.44581908"
       height="1.891638">
      <feGaussianBlur
         stdDeviation="4.0866748"
         id="feGaussianBlur6663" />
    </filter>
    <filter
       style="color-interpolation-filters:sRGB"
       id="filter6665"
       x="-0.46351698"
       width="1.927034"
       y="-0.44581908"
       height="1.891638">
      <feGaussianBlur
         stdDeviation="4.0866748"
         id="feGaussianBlur6667" />
    </filter>
    <filter
       style="color-interpolation-filters:sRGB"
       id="filter6669"
       x="-0.49040097"
       width="1.9808021"
       y="-0.44581908"
       height="1.891638">
      <feGaussianBlur
         stdDeviation="4.0866748"
         id="feGaussianBlur6671" />
    </filter>
    <filter
       style="color-interpolation-filters:sRGB"
       id="filter6673"
       x="-0.70057285"
       width="2.4011457"
       y="-0.38372532"
       height="1.7674507">
      <feGaussianBlur
         stdDeviation="4.0866748"
         id="feGaussianBlur6675" />
    </filter>
    <filter
       style="color-interpolation-filters:sRGB"
       id="filter6677"
       x="-0.45917702"
       width="1.918354"
       y="-0.44581908"
       height="1.891638">
      <feGaussianBlur
         stdDeviation="4.0866748"
         id="feGaussianBlur6679" />
    </filter>
    <filter
       style="color-interpolation-filters:sRGB"
       id="filter6681"
       x="-0.45917693"
       width="1.9183539"
       y="-0.44581908"
       height="1.891638">
      <feGaussianBlur
         stdDeviation="4.0866748"
         id="feGaussianBlur6683" />
    </filter>
    <filter
       style="color-interpolation-filters:sRGB"
       id="filter6685"
       x="-0.43245235"
       width="1.8649046"
       y="-0.331352"
       height="1.662704">
      <feGaussianBlur
         stdDeviation="4.0866748"
         id="feGaussianBlur6687" />
    </filter>
    <filter
       style="color-interpolation-filters:sRGB"
       id="filter6689"
       x="-0.70057285"
       width="2.4011457"
       y="-0.38372532"
       height="1.7674507">
      <feGaussianBlur
         stdDeviation="4.0866748"
         id="feGaussianBlur6691" />
    </filter>
    <filter
       style="color-interpolation-filters:sRGB"
       id="filter6693"
       x="-0.50871474"
       width="2.0174294"
       y="-0.44581908"
       height="1.891638">
      <feGaussianBlur
         stdDeviation="4.0866748"
         id="feGaussianBlur6695" />
    </filter>
    <filter
       style="color-interpolation-filters:sRGB"
       id="filter6697"
       x="-0.42643562"
       width="1.8528713"
       y="-0.44581908"
       height="1.891638">
      <feGaussianBlur
         stdDeviation="4.0866748"
         id="feGaussianBlur6699" />
    </filter>
    <filter
       style="color-interpolation-filters:sRGB"
       id="filter6701"
       x="-0.42792413"
       width="1.8558482"
       y="-0.3715159"
       height="1.7430319">
      <feGaussianBlur
         stdDeviation="4.0866748"
         id="feGaussianBlur6703" />
    </filter>
    <filter
       height="1.7431194"
       y="-0.37155968"
       width="1.855949"
       x="-0.42797455"
       id="filter1457"
       style="color-interpolation-filters:sRGB">
      <feGaussianBlur
         id="feGaussianBlur1459"
         stdDeviation="4.0871565" />
    </filter>
    <filter
       height="1.8919804"
       y="-0.44599023"
       width="1.8531986"
       x="-0.42659935"
       id="filter1461"
       style="color-interpolation-filters:sRGB">
      <feGaussianBlur
         id="feGaussianBlur1463"
         stdDeviation="4.0882437" />
    </filter>
    <filter
       height="1.8911541"
       y="-0.44557697"
       width="2.0168769"
       x="-0.50843847"
       id="filter1465"
       style="color-interpolation-filters:sRGB">
      <feGaussianBlur
         id="feGaussianBlur1467"
         stdDeviation="4.0844557" />
    </filter>
    <filter
       height="1.7683285"
       y="-0.38416424"
       width="2.4027483"
       x="-0.70137417"
       id="filter1469"
       style="color-interpolation-filters:sRGB">
      <feGaussianBlur
         id="feGaussianBlur1471"
         stdDeviation="4.0913492" />
    </filter>
    <filter
       height="1.6618308"
       y="-0.33091539"
       width="1.8637651"
       x="-0.43188253"
       id="filter1473"
       style="color-interpolation-filters:sRGB">
      <feGaussianBlur
         id="feGaussianBlur1475"
         stdDeviation="4.0812899" />
    </filter>
    <filter
       height="1.8907117"
       y="-0.44535583"
       width="1.9173996"
       x="-0.45869982"
       id="filter1477"
       style="color-interpolation-filters:sRGB">
      <feGaussianBlur
         id="feGaussianBlur1479"
         stdDeviation="4.0824284" />
    </filter>
    <filter
       height="1.8907115"
       y="-0.4453558"
       width="1.9173996"
       x="-0.45869985"
       id="filter1481"
       style="color-interpolation-filters:sRGB">
      <feGaussianBlur
         id="feGaussianBlur1483"
         stdDeviation="4.0824282" />
    </filter>
    <filter
       height="1.7683285"
       y="-0.38416424"
       width="2.4027483"
       x="-0.70137417"
       id="filter1485"
       style="color-interpolation-filters:sRGB">
      <feGaussianBlur
         id="feGaussianBlur1487"
         stdDeviation="4.0913492" />
    </filter>
    <filter
       height="1.8924603"
       y="-0.4462302"
       width="1.9817064"
       x="-0.49085322"
       id="filter1489"
       style="color-interpolation-filters:sRGB">
      <feGaussianBlur
         id="feGaussianBlur1491"
         stdDeviation="4.0904434" />
    </filter>
    <filter
       height="1.8926998"
       y="-0.44634989"
       width="1.9281378"
       x="-0.46406889"
       id="filter1493"
       style="color-interpolation-filters:sRGB">
      <feGaussianBlur
         id="feGaussianBlur1495"
         stdDeviation="4.0915407" />
    </filter>
    <filter
       height="1.8926998"
       y="-0.44634989"
       width="1.9281378"
       x="-0.46406889"
       id="filter1501"
       style="color-interpolation-filters:sRGB">
      <feGaussianBlur
         id="feGaussianBlur1503"
         stdDeviation="4.0915407" />
    </filter>
    <filter
       height="1.8907117"
       y="-0.44535583"
       width="1.9173996"
       x="-0.45869982"
       id="filter1505"
       style="color-interpolation-filters:sRGB">
      <feGaussianBlur
         id="feGaussianBlur1507"
         stdDeviation="4.0824284" />
    </filter>
    <filter
       height="1.8926998"
       y="-0.44634989"
       width="1.9281378"
       x="-0.46406889"
       id="filter1509"
       style="color-interpolation-filters:sRGB">
      <feGaussianBlur
         id="feGaussianBlur1511"
         stdDeviation="4.0915407" />
    </filter>
    <filter
       height="1.8906715"
       y="-0.44533572"
       width="2.7748888"
       x="-0.88744438"
       id="filter1513"
       style="color-interpolation-filters:sRGB">
      <feGaussianBlur
         id="feGaussianBlur1515"
         stdDeviation="4.0822442" />
    </filter>
    <filter
       height="1.8915176"
       y="-0.44575882"
       width="1.5642517"
       x="-0.28212583"
       id="filter1542"
       style="color-interpolation-filters:sRGB">
      <feGaussianBlur
         id="feGaussianBlur1544"
         stdDeviation="4.0861225" />
    </filter>
    <filter
       height="1.6628326"
       y="-0.33141631"
       width="1.8413312"
       x="-0.42066562"
       id="filter1550"
       style="color-interpolation-filters:sRGB">
      <feGaussianBlur
         id="feGaussianBlur1552"
         stdDeviation="4.0874677" />
    </filter>
    <filter
       height="1.8924603"
       y="-0.44623017"
       width="1.9817065"
       x="-0.49085325"
       id="filter1554"
       style="color-interpolation-filters:sRGB">
      <feGaussianBlur
         id="feGaussianBlur1556"
         stdDeviation="4.0904432" />
    </filter>
    <filter
       height="1.7007424"
       y="-0.35037121"
       width="1.9451246"
       x="-0.47256231"
       id="filter1558"
       style="color-interpolation-filters:sRGB">
      <feGaussianBlur
         id="feGaussianBlur1560"
         stdDeviation="4.087664" />
    </filter>
    <filter
       height="1.661957"
       y="-0.33097848"
       width="1.8938835"
       x="-0.44694176"
       id="filter1562"
       style="color-interpolation-filters:sRGB">
      <feGaussianBlur
         id="feGaussianBlur1564"
         stdDeviation="4.0820681" />
    </filter>
    <filter
       height="1.8911541"
       y="-0.44557697"
       width="2.0168769"
       x="-0.50843847"
       id="filter1566"
       style="color-interpolation-filters:sRGB">
      <feGaussianBlur
         id="feGaussianBlur1568"
         stdDeviation="4.0844557" />
    </filter>
    <filter
       height="1.661957"
       y="-0.33097848"
       width="1.8938835"
       x="-0.44694176"
       id="filter1594"
       style="color-interpolation-filters:sRGB">
      <feGaussianBlur
         id="feGaussianBlur1596"
         stdDeviation="4.0820681" />
    </filter>
    <filter
       height="1.8919811"
       y="-0.44599053"
       width="1.8531977"
       x="-0.42659882"
       id="filter1598"
       style="color-interpolation-filters:sRGB">
      <feGaussianBlur
         id="feGaussianBlur1600"
         stdDeviation="4.0882391" />
    </filter>
    <filter
       height="1.6541215"
       y="-0.32706076"
       width="2.5928261"
       x="-0.79641312"
       id="filter1602"
       style="color-interpolation-filters:sRGB">
      <feGaussianBlur
         id="feGaussianBlur1604"
         stdDeviation="4.088254" />
    </filter>
    <filter
       height="1.6629262"
       y="-0.3314631"
       width="2.5773785"
       x="-0.78868932"
       id="filter1606"
       style="color-interpolation-filters:sRGB">
      <feGaussianBlur
         id="feGaussianBlur1608"
         stdDeviation="4.0880395" />
    </filter>
    <filter
       height="1.8924603"
       y="-0.44623017"
       width="1.9817065"
       x="-0.49085325"
       id="filter1610"
       style="color-interpolation-filters:sRGB">
      <feGaussianBlur
         id="feGaussianBlur1612"
         stdDeviation="4.0904432" />
    </filter>
    <filter
       height="1.6615688"
       y="-0.33078438"
       width="1.7986312"
       x="-0.39931557"
       id="filter1614"
       style="color-interpolation-filters:sRGB">
      <feGaussianBlur
         id="feGaussianBlur1616"
         stdDeviation="4.0796742" />
    </filter>
  </defs>
  <metadata
     id="metadata3354">
    <rdf:RDF>
      <cc:Work
         rdf:about="">
        <dc:format>image/svg+xml</dc:format>
        <dc:type
           rdf:resource="http://purl.org/dc/dcmitype/StillImage" />
        <dc:title></dc:title>
      </cc:Work>
    </rdf:RDF>
  </metadata>
  <g
     transform="matrix(1.1097917,0,0,1.0234149,-1.6397721,-6.8615496)"
     style="font-style:normal;font-weight:normal;font-size:40px;line-height:1.25;font-family:sans-serif;letter-spacing:0px;word-spacing:0px;fill:#000000;fill-opacity:1;stroke:none"
     id="flowRoot874" />
  <g
     transform="translate(-1.4775493,-3.9805)"
     style="font-style:normal;font-weight:normal;font-size:40px;line-height:1.25;font-family:sans-serif;letter-spacing:0px;word-spacing:0px;fill:#000000;fill-opacity:1;stroke:none"
     id="flowRoot1713" />
  <path
     style="opacity:1;fill:#c83737;fill-opacity:1;stroke:none;stroke-width:4.38045835;stroke-miterlimit:4;stroke-dasharray:none;paint-order:stroke markers fill"
     d="M 0,0 H 211.40208 V 119.0625 H 0 Z"
     id="rect6108" />
  <g
     id="layer1-6"
     transform="matrix(0.62415593,0,0,0.62125153,13.412327,-50.010536)">
    <g
       id="g1099">
      <path
         id="path899"
         d="m 29.638173,109.7861 c 0,0 2.210034,20.81684 5.487124,29.95959 3.27709,9.14277 12.29768,14.1377 21.67416,13.75923 9.37649,-0.37849 13.64808,-6.46519 17.83316,-14.86886 4.18509,-8.40364 6.03586,-28.62803 6.03586,-28.62803 -19.69795,-15.341999 -35.35917,-7.75384 -51.030304,-0.22193 z"
         style="fill:#ffccaa;stroke:none;stroke-width:0.32650977px;stroke-linecap:butt;stroke-linejoin:miter;stroke-opacity:1" />
      <path
         transform="matrix(0.9964228,-0.05350324,0.16995011,0.65527375,14.066957,60.499692)"
         style="fill:#373e48;fill-opacity:1;stroke:none;stroke-width:0.26458332px;stroke-linecap:butt;stroke-linejoin:miter;stroke-opacity:1"
         d="m 22.6548,161.49312 c 2.006951,0.32632 6.020624,0.97891 8.375624,9.22373 2.355,8.24482 3.051508,24.0816 2.296573,32.00198 -0.754935,7.92039 -2.961609,7.92339 -4.048406,2.97335 -1.086797,-4.95004 -1.053318,-14.85244 -1.140621,-20.79529 -0.0873,-5.94286 -0.295349,-7.92585 -0.503415,-9.90903 0,0 0,0 0.317464,-1.1277 0.317465,-1.12771 0.952614,-3.3839 -0.212191,-5.6875 -1.164804,-2.30359 -4.128031,-4.65442 -5.610003,-5.83012 -1.481972,-1.1757 -1.481976,-1.17574 0.524975,-0.84942 z"
         id="path931" />
      <path
         id="path929"
         d="m 23.997557,162.25184 c 0.385764,-1.26636 4.120949,-1.44767 6.598952,7.11712 2.478003,8.5648 3.699076,25.87532 3.174432,34.25276 -0.524643,8.37744 -2.794216,7.82114 -4.004016,2.5501 -1.209799,-5.27104 -1.358971,-15.25163 -1.537617,-21.23473 -0.178645,-5.9831 -0.386691,-7.96609 -0.594757,-9.94927 0,0 0,0 0.317464,-1.1277 0.317465,-1.12771 0.952614,-3.3839 -0.212191,-5.6875 -1.164804,-2.30359 -4.128031,-4.65442 -3.742267,-5.92078 z"
         style="fill:#373e48;fill-opacity:1;stroke:none;stroke-width:0.26458332px;stroke-linecap:butt;stroke-linejoin:miter;stroke-opacity:1"
         transform="matrix(-0.99270903,-0.12053542,-0.12053542,0.99270903,87.612387,9.7605431)" />
      <g
         style="fill:#ffccaa"
         transform="translate(-65.700485,-13.884416)"
         id="g986">
        <path
           id="path932"
           d="m 95.29763,225.94923 3.19998,-0.22291 0.34241,4.29929 -3.74628,0.16103 z"
           style="fill:#ffccaa;stroke:none;stroke-width:0.11090351px;stroke-linecap:butt;stroke-linejoin:miter;stroke-opacity:1" />
        <g
           style="fill:#ffccaa"
           id="g979">
          <path
             style="opacity:1;fill:#ffccaa;fill-opacity:1;stroke:none;stroke-width:1.60000002;stroke-linecap:butt;stroke-linejoin:round;stroke-miterlimit:4;stroke-dasharray:none;stroke-dashoffset:0;stroke-opacity:1;paint-order:markers stroke fill"
             d="m 99.359561,230.65961 a 0.83370489,0.83370489 0 0 1 -0.833705,0.8337 0.83370489,0.83370489 0 0 1 -0.833705,-0.8337 0.83370489,0.83370489 0 0 1 0.833705,-0.83371 0.83370489,0.83370489 0 0 1 0.833705,0.83371 z"
             id="circle934" />
          <path
             style="opacity:1;fill:#ffccaa;fill-opacity:1;stroke:none;stroke-width:1.60000002;stroke-linecap:butt;stroke-linejoin:round;stroke-miterlimit:4;stroke-dasharray:none;stroke-dashoffset:0;stroke-opacity:1;paint-order:markers stroke fill"
             d="m 98.013331,230.67632 a 0.83370489,0.83370489 0 0 1 -0.833705,0.8337 0.83370489,0.83370489 0 0 1 -0.833704,-0.8337 0.83370489,0.83370489 0 0 1 0.833704,-0.83371 0.83370489,0.83370489 0 0 1 0.833705,0.83371 z"
             id="circle936" />
          <path
             style="opacity:1;fill:#ffccaa;fill-opacity:1;stroke:none;stroke-width:1.60000002;stroke-linecap:butt;stroke-linejoin:round;stroke-miterlimit:4;stroke-dasharray:none;stroke-dashoffset:0;stroke-opacity:1;paint-order:markers stroke fill"
             d="m 96.706973,230.67644 a 0.83370489,0.83370489 0 0 1 -0.833705,0.8337 0.83370489,0.83370489 0 0 1 -0.833705,-0.8337 0.83370489,0.83370489 0 0 1 0.833705,-0.83371 0.83370489,0.83370489 0 0 1 0.833705,0.83371 z"
             id="circle938" />
        </g>
      </g>
      <path
         style="opacity:1;fill:#373e48;fill-opacity:1;stroke:none;stroke-width:1.39575994;stroke-linecap:butt;stroke-linejoin:round;stroke-miterlimit:4;stroke-dasharray:none;stroke-dashoffset:0;stroke-opacity:1;paint-order:markers stroke fill"
         d="M 46.604078,165.642 H 65.80567 c 4.74019,0 8.556299,3.81611 8.556299,8.5563 v 35.27142 c 0,4.74019 -3.816109,8.5563 -8.556299,8.5563 H 46.604078 c -4.740189,0 -8.556299,-3.81611 -8.556299,-8.5563 V 174.1983 c 0,-4.74019 3.81611,-8.5563 8.556299,-8.5563 z"
         id="rect862" />
      <path
         id="path919"
         d="m 55.801457,169.11932 8.38617,-8.23095 4.28747,4.74765 -8.78481,9.51682 z"
         style="fill:#1a1a1a;stroke:none;stroke-width:0.26458332px;stroke-linecap:butt;stroke-linejoin:miter;stroke-opacity:1" />
      <path
         id="path921"
         d="m 46.225187,159.81725 -3.42543,6.81294 8.90443,9.0085 4.09727,-6.51937 z"
         style="fill:#1a1a1a;stroke:none;stroke-width:0.26458332px;stroke-linecap:butt;stroke-linejoin:miter;stroke-opacity:1" />
      <path
         id="path892"
         d="m 46.225187,159.81725 18.4375,-0.11744 0.11744,4.22771 -18.78981,0.46974 z"
         style="fill:#37abc8;stroke:none;stroke-width:0.26458332px;stroke-linecap:butt;stroke-linejoin:miter;stroke-opacity:1" />
      <g
         style="fill:#ffccaa"
         transform="translate(-65.049433,-12.171169)"
         id="g1752">
        <path
           style="fill:#ffccaa;stroke:none;stroke-width:0.14957768px;stroke-linecap:butt;stroke-linejoin:miter;stroke-opacity:1"
           d="m 115.79889,163.68427 8.00149,-0.67672 4.83306,14.81624 c -5.07229,-0.0843 -10.51214,0.0843 -16.80779,0 z"
           id="path841" />
      </g>
      <path
         id="path890"
         d="m 55.801457,169.05246 8.86123,-9.35265 4.42298,5.07124 -9.73012,9.14636 z"
         style="fill:#006680;stroke:none;stroke-width:0.28846669px;stroke-linecap:butt;stroke-linejoin:miter;stroke-opacity:1" />
      <path
         id="path888"
         d="m 46.225187,159.81725 -4.13606,5.38487 10.16009,8.8369 3.55224,-4.9197 z"
         style="fill:#006680;stroke:none;stroke-width:0.26458332px;stroke-linecap:butt;stroke-linejoin:miter;stroke-opacity:1" />
      <path
         id="path898"
         d="m 55.801457,169.11932 -3.55224,4.9197 3.3959,4.19694 3.71043,-4.31855 z"
         style="fill:#00222b;stroke:none;stroke-width:0.18661645px;stroke-linecap:butt;stroke-linejoin:miter;stroke-opacity:1" />
      <path
         id="path900"
         d="m 54.239197,176.29695 -2.94126,5.66168 3.85365,22.42257 5.205,-22.80031 -3.16207,-5.67465 -1.5494,2.32972 z"
         style="fill:#f9f9f9;fill-opacity:1;stroke:none;stroke-width:0.26458332px;stroke-linecap:butt;stroke-linejoin:miter;stroke-opacity:1" />
      <g
         style="fill:#ffccaa"
         transform="matrix(0.12605463,1.1825169,0.99262897,-0.12767758,-138.12921,104.93834)"
         id="g998">
        <path
           style="fill:#ffccaa;stroke:none;stroke-width:0.11090351px;stroke-linecap:butt;stroke-linejoin:miter;stroke-opacity:1"
           d="m 95.29763,225.94923 3.19998,-0.22291 0.34241,4.29929 -3.74628,0.16103 z"
           id="path988" />
        <g
           style="fill:#ffccaa"
           id="g996">
          <path
             style="opacity:1;fill:#ffccaa;fill-opacity:1;stroke:none;stroke-width:1.60000002;stroke-linecap:butt;stroke-linejoin:round;stroke-miterlimit:4;stroke-dasharray:none;stroke-dashoffset:0;stroke-opacity:1;paint-order:markers stroke fill"
             d="m 99.359561,230.65961 a 0.83370489,0.83370489 0 0 1 -0.833705,0.8337 0.83370489,0.83370489 0 0 1 -0.833705,-0.8337 0.83370489,0.83370489 0 0 1 0.833705,-0.83371 0.83370489,0.83370489 0 0 1 0.833705,0.83371 z"
             id="circle990" />
          <path
             style="opacity:1;fill:#ffccaa;fill-opacity:1;stroke:none;stroke-width:1.60000002;stroke-linecap:butt;stroke-linejoin:round;stroke-miterlimit:4;stroke-dasharray:none;stroke-dashoffset:0;stroke-opacity:1;paint-order:markers stroke fill"
             d="m 98.013331,230.67632 a 0.83370489,0.83370489 0 0 1 -0.833705,0.8337 0.83370489,0.83370489 0 0 1 -0.833704,-0.8337 0.83370489,0.83370489 0 0 1 0.833704,-0.83371 0.83370489,0.83370489 0 0 1 0.833705,0.83371 z"
             id="circle992" />
          <path
             style="opacity:1;fill:#ffccaa;fill-opacity:1;stroke:none;stroke-width:1.60000002;stroke-linecap:butt;stroke-linejoin:round;stroke-miterlimit:4;stroke-dasharray:none;stroke-dashoffset:0;stroke-opacity:1;paint-order:markers stroke fill"
             d="m 96.706973,230.67644 a 0.83370489,0.83370489 0 0 1 -0.833705,0.8337 0.83370489,0.83370489 0 0 1 -0.833705,-0.8337 0.83370489,0.83370489 0 0 1 0.833705,-0.83371 0.83370489,0.83370489 0 0 1 0.833705,0.83371 z"
             id="circle994" />
        </g>
      </g>
      <path
         id="path1002"
         d="m 38.167097,211.88718 19.01705,6.02007 -8.11555,34.25771 -9.8828,0.57587 z"
         style="fill:#004455;fill-opacity:1;stroke:none;stroke-width:0.18690312px;stroke-linecap:butt;stroke-linejoin:miter;stroke-opacity:1" />
      <path
         id="path1006"
         d="m 74.011657,212.29439 -16.82751,5.61286 4.37078,34.67951 7.64887,-0.60138 z"
         style="fill:#004455;fill-opacity:1;stroke:none;stroke-width:0.31340101px;stroke-linecap:butt;stroke-linejoin:miter;stroke-opacity:1" />
      <path
         id="path1008"
         d="m 60.885977,250.82077 c 1.63588,-2.27299 7.91282,-1.13127 10.05644,-0.44548 2.14362,0.68579 2.86649,1.60045 2.86649,1.60045 0,0 0.938,0.78916 0.85273,2.14648 -0.0853,1.35733 -1.8646,1.22051 -1.8646,1.22051 l -12.28692,-0.0652 c 0,0 -1.26002,-2.18375 0.37586,-4.45674 z"
         style="fill:#000000;fill-opacity:1;stroke:#000000;stroke-width:0.19545493px;stroke-linecap:butt;stroke-linejoin:miter;stroke-opacity:1" />
      <path
         style="fill:#000000;fill-opacity:1;stroke:#000000;stroke-width:0.19690284px;stroke-linecap:butt;stroke-linejoin:miter;stroke-opacity:1"
         d="m 49.261237,250.41473 c -1.63588,-2.30679 -7.91282,-1.14809 -10.05644,-0.45211 -2.14362,0.69599 -2.86649,1.62425 -2.86649,1.62425 0,0 -0.938,0.80089 -0.85273,2.1784 0.0853,1.37752 1.8646,1.23867 1.8646,1.23867 l 12.22028,-0.0661 c 0,0 1.32666,-2.21622 -0.30922,-4.52301 z"
         id="path1012" />
      <g
         transform="matrix(0.86120647,0,0,0.97608024,-49.251651,-6.6963527)"
         id="g1780">
        <g
           id="g1771">
          <path
             transform="matrix(0.20482096,0.00771324,-0.00805496,0.2437922,94.567523,128.54865)"
             id="path868"
             d="M 35.448346,33.018914 C 36.256178,26.979381 49.378462,22.294609 64.284045,22.337808 79.189627,22.381006 96.072951,27.151915 95.265904,33.19072 94.458857,39.229525 76.014242,46.552955 61.060362,46.510412 46.106483,46.467869 34.640514,39.058446 35.448346,33.018914 Z"
             style="fill:#f9f9f9;stroke:none;stroke-width:0.26458332px;stroke-linecap:butt;stroke-linejoin:miter;stroke-opacity:1" />
        </g>
        <g
           id="g980">
          <path
             transform="matrix(0.99992541,-0.01221363,0.01575438,0.99987589,0,0)"
             d="m 107.07027,138.77937 a 1.9889131,2.1078036 0 0 1 -1.97767,2.10777 1.9889131,2.1078036 0 0 1 -2.00003,-2.08395 1.9889131,2.1078036 0 0 1 1.95508,-2.13132 1.9889131,2.1078036 0 0 1 2.02211,2.05987"
             id="path872"
             style="opacity:1;fill:url(#linearGradient2032);fill-opacity:1;stroke:none;stroke-width:0.31363589;stroke-linecap:butt;stroke-linejoin:round;stroke-miterlimit:4;stroke-dasharray:none;stroke-dashoffset:0;stroke-opacity:1;paint-order:markers stroke fill" />
          <g
             id="g973">
            <path
               style="opacity:1;fill:#000000;fill-opacity:1;stroke:none;stroke-width:0.51647961;stroke-linecap:butt;stroke-linejoin:round;stroke-miterlimit:4;stroke-dasharray:none;stroke-dashoffset:0;stroke-opacity:1;paint-order:markers stroke fill"
               id="path882"
               d="m 106.3004,138.66144 a 1.3997186,1.574663 0 0 1 -1.39181,1.57464 1.3997186,1.574663 0 0 1 -1.40754,-1.55685 1.3997186,1.574663 0 0 1 1.3759,-1.59223 1.3997186,1.574663 0 0 1 1.42309,1.53885"
               transform="matrix(0.99994946,-0.01005401,0.01913779,0.99981686,0,0)" />
            <path
               style="opacity:1;fill:#e6e6e6;fill-opacity:1;stroke:none;stroke-width:0.89055508;stroke-linecap:butt;stroke-linejoin:round;stroke-miterlimit:4;stroke-dasharray:none;stroke-dashoffset:0;stroke-opacity:1;paint-order:markers stroke fill"
               id="path905"
               d="m 108.29151,136.60039 a 0.20161209,0.21718414 0 0 1 -0.20047,0.21718 0.20161209,0.21718414 0 0 1 -0.20274,-0.21473 0.20161209,0.21718414 0 0 1 0.19818,-0.21961 0.20161209,0.21718414 0 0 1 0.20498,0.21225" />
          </g>
        </g>
      </g>
      <path
         style="fill:#ff9955;stroke:none;stroke-width:0.26458332px;stroke-linecap:butt;stroke-linejoin:miter;stroke-opacity:1"
         d="m 64.637165,147.75033 c -2.457981,4.67817 -4.915588,9.35564 -6.27699,13.81234 -1.361402,4.45671 -1.625287,8.68947 0.156381,8.31764 1.781668,-0.37182 5.538268,-5.25762 10.21346,-4.90802 4.675192,0.3496 9.932809,5.90894 10.542496,3.97278 0.609687,-1.93616 -3.526553,-11.47119 -5.594689,-16.20749 -2.068136,-4.7363 -2.068136,-4.67344 -2.068136,-4.61036"
         id="path950"
         transform="matrix(0.53319821,0,0,0.49065974,18.968594,55.56858)" />
      <path
         transform="matrix(0.52341199,0,0,0.51963154,19.696311,50.288073)"
         id="path946"
         d="m 64.637165,147.75033 c -2.638074,4.71085 -5.276132,9.42167 -6.644237,13.68808 -1.368106,4.26642 -1.465677,8.08673 0.37033,7.67241 1.836008,-0.41432 5.535922,-4.97855 10.212658,-4.48134 4.676737,0.49722 9.994043,6.01961 10.639465,4.1096 0.645422,-1.91001 -3.480121,-11.35512 -5.542908,-16.07771 -2.062786,-4.72259 -2.062786,-4.72259 -2.062786,-4.72259"
         style="fill:#ffb380;stroke:none;stroke-width:0.26458332px;stroke-linecap:butt;stroke-linejoin:miter;stroke-opacity:1" />
      <path
         transform="matrix(0.34319797,-0.00538033,0.00366147,0.42798445,23.465199,83.018186)"
         id="path954"
         d="m 37.293486,94.282235 c 3.021909,-2.503137 8.512641,-5.005662 15.377292,-5.149465 6.864651,-0.143803 15.099038,2.071038 19.62898,4.303609 4.529941,2.232572 5.353936,4.482784 5.765974,5.608002 0.412039,1.125219 0.412039,1.125219 -2.825085,-0.303159 -3.237124,-1.428378 -9.566892,-4.221382 -15.203667,-5.517425 -5.636775,-1.296042 -10.503542,-1.062246 -14.853704,0.620469 -4.350161,1.682716 -8.179492,4.813913 -9.820018,5.128421 -1.640526,0.314508 -1.091682,-2.187315 1.930228,-4.690452 z"
         style="fill:#241c1c;stroke:none;stroke-width:0.26458332px;stroke-linecap:butt;stroke-linejoin:miter;stroke-opacity:1" />
      <path
         style="fill:#241c1c;stroke:none;stroke-width:0.26458332px;stroke-linecap:butt;stroke-linejoin:miter;stroke-opacity:1"
         d="m 37.293486,94.282235 c 3.021909,-2.503137 8.512641,-5.005662 15.377292,-5.149465 6.864651,-0.143803 15.099038,2.071038 19.62898,4.303609 4.529941,2.232572 5.353936,4.482784 5.765974,5.608002 0.412039,1.125219 0.412039,1.125219 -2.825085,-0.303159 -3.237124,-1.428378 -9.566892,-4.221382 -15.203667,-5.517425 -5.636775,-1.296042 -10.503542,-1.062246 -14.853704,0.620469 -4.350161,1.682716 -8.179492,4.813913 -9.820018,5.128421 -1.640526,0.314508 -1.091682,-2.187315 1.930228,-4.690452 z"
         id="path958"
         transform="matrix(0.32879769,-0.02272081,-0.00114951,0.43155961,49.152887,83.390665)" />
      <g
         transform="matrix(0.9449381,0.01212509,-0.01769102,0.90627824,-56.053641,0.049236)"
         id="g929">
        <path
           style="fill:#241c1c;stroke:none;stroke-width:0.26458332px;stroke-linecap:butt;stroke-linejoin:miter;stroke-opacity:1"
           d="m 69.902365,138.51322 c 0,0 0,0 0,0 m 4.977544,-1.46058 c 1.586196,3.2535 3.172025,6.50625 4.416705,9.26365 1.24468,2.7574 2.147418,5.01779 2.241165,6.6723 0.09375,1.6545 -0.599577,2.66979 -1.488001,1.70125 -0.888425,-0.96854 -1.863072,-3.80268 -2.975378,-5.99095 -1.112305,-2.18827 -2.330128,-3.63812 -3.702959,-4.60374 -1.372831,-0.96561 -2.900075,-1.44673 -4.360804,-1.05596 -1.460729,0.39076 -2.853896,1.65322 -4.392576,3.69018 -1.53868,2.03696 -3.220144,4.84504 -4.061781,6.25059 -0.841638,1.40555 -0.841638,1.40555 -1.342039,1.34995 -0.500401,-0.0556 -1.500976,-0.16677 -2.001493,-0.22239 -0.500518,-0.0556 -0.500523,-0.0556 -0.500523,-0.0556 0,0 8.399322,-16.76624 8.399322,-16.76624"
           id="path1044"
           transform="matrix(1.1859487,5.7067022e-4,2.8903645e-4,0.44468148,37.760531,92.718156)" />
      </g>
      <path
         style="fill:#ffccaa;stroke:none;stroke-width:0.26458332px;stroke-linecap:butt;stroke-linejoin:miter;stroke-opacity:1"
         d="m 71.133067,139.01257 c -2.636118,-1.46192 -5.04072,3.76532 -4.653473,7.81405 0.387246,4.04873 3.566509,6.91723 6.202949,8.37911 2.63644,1.46189 4.729274,1.51674 4.341737,-2.5316 -0.387537,-4.04835 -3.255094,-12.19964 -5.891213,-13.66156 z"
         id="path860"
         transform="matrix(-0.63764729,-0.30721278,0.33868986,-0.64960658,76.481237,241.46679)" />
      <g
         style="fill:#ffb380"
         transform="matrix(1.0093603,0.16504814,-0.16890955,0.98628551,-49.887168,-34.638261)"
         id="g960">
        <path
           style="fill:#ffb380;stroke:none;stroke-width:0.26458332px;stroke-linecap:butt;stroke-linejoin:miter;stroke-opacity:1"
           d="m 74.457896,135.90987 c -0.3968,1.10065 -0.740502,3.19852 0.124021,4.80774 0.864523,1.60922 2.936295,2.72783 3.904896,2.97239 0.968601,0.24456 0.833693,-0.38501 0.235961,-1.04522 -0.597733,-0.66021 -1.721809,-1.39266 -2.324475,-2.25054 -0.602666,-0.85787 -0.715517,-1.86165 -0.741317,-2.85116 -0.0258,-0.98952 0.0356,-1.96333 -0.158454,-2.39935 -0.194057,-0.43603 -0.643833,-0.33451 -1.040632,0.76614 z"
           id="path864"
           transform="rotate(-157.39878,113.69529,129.92592)" />
      </g>
      <path
         transform="matrix(0.6862482,0.10797929,-0.12274631,0.71864321,-1.5798107,11.143366)"
         id="path856"
         d="m 71.133067,139.01257 c -2.636118,-1.46192 -5.04072,3.76532 -4.653473,7.81405 0.387246,4.04873 3.566509,6.91723 6.202949,8.37911 2.63644,1.46189 4.729274,1.51674 4.341737,-2.5316 -0.387537,-4.04835 -3.255094,-12.19964 -5.891213,-13.66156 z"
         style="fill:#ffccaa;stroke:none;stroke-width:0.26458332px;stroke-linecap:butt;stroke-linejoin:miter;stroke-opacity:1" />
      <g
         style="fill:#ffb380"
         transform="rotate(-6.7947417,-46.517377,633.82679)"
         id="g951">
        <g
           style="fill:#ffb380"
           id="g947">
          <path
             style="fill:#ffb380;stroke:none;stroke-width:0.26458332px;stroke-linecap:butt;stroke-linejoin:miter;stroke-opacity:1"
             d="m 75.246051,135.6674 c -0.477323,1.08561 -1.117064,3.39174 -0.419996,5.07842 0.697067,1.68668 2.730588,2.75251 3.703963,2.83217 0.973375,0.0797 0.886432,-0.82681 0.416391,-1.26191 -0.470042,-0.43511 -1.323333,-0.3991 -1.869757,-1.07523 -0.546424,-0.67612 -0.785627,-2.06433 -0.855019,-3.24769 -0.06939,-1.18336 0.0309,-2.16274 -0.07624,-2.71959 -0.107141,-0.55684 -0.422019,-0.69179 -0.899342,0.39383 z"
             id="path869"
             transform="rotate(13.895487,92.176135,189.68554)" />
        </g>
      </g>
      <path
         id="path866"
         d="m 29.607243,108.6394 c -0.80559,4.13675 -0.96203,8.59797 -0.96203,8.59797 3.71849,-4.90181 5.03717,-6.51443 12.075674,-7.81314 5.73792,0 10.61377,2.29025 14.51557,8.13441 3.97828,-6.08768 7.64791,-8.38102 14.3804,-8.87965 6.38362,0.26677 7.95671,2.98651 12.17879,6.93494 -0.0261,-2.97045 -0.0103,-6.1401 -0.97715,-8.6675 -1.12141,-2.01056 -2.23187,-5.29823 -6.0214,-7.255369 m 0,0 c -1.38017,-0.2392 -3.73511,-0.0596 -4.9276,0.746669 -0.88135,-0.656919 -1.29346,-2.110399 -2.69097,-2.916669 -3.37541,-2.95673 -6.10177,-3.4218 -11.53661,-3.82293 -6.55651,-8e-4 -9.99334,-0.2707 -16.40553,3.73873 -3.60591,2.52984 -6.536964,3.887659 -9.629144,11.202539"
         style="fill:#241f1c;stroke:none;stroke-width:0.14657316px;stroke-linecap:butt;stroke-linejoin:miter;stroke-opacity:1" />
      <path
         id="path1000"
         d="m 40.140767,106.45761 8.5368,-5.50774 7.15495,5.62015 8.35369,-6.09895 7.30789,5.81576 -8.06648,-2.33419 -7.5951,7.14853 -6.84069,-6.37193 z"
         style="fill:#333333;stroke:none;stroke-width:0.22211339px;stroke-linecap:butt;stroke-linejoin:miter;stroke-opacity:1" />
      <path
         id="path1038"
         d="m 55.120077,155.92291 c 11.00694,-2.7441 17.08436,-11.32311 19.18816,-16.24643 1.89491,-3.85233 3.11097,-9.06556 3.11097,-9.06556 l -2.94557,4.58578 c -2.88691,4.98026 -0.725,1.11742 -4.67828,7.37887 -5.55697,6.31053 -7.6296,7.45453 -14.57869,9.81901 -6.07477,-1.38442 -13.37445,-6.44366 -15.79283,-10.18547 -2.41838,-3.74181 -6.19538,-10.20807 -6.19538,-10.20807 0,0 -0.646502,4.3986 3.31976,10.86266 3.96626,6.46406 9.38337,9.75886 18.57186,13.05921"
         style="fill:#241c1c;stroke:none;stroke-width:0.37956023px;stroke-linecap:butt;stroke-linejoin:miter;stroke-opacity:1" />
      <g
         transform="matrix(0.8883776,0,0,0.93064088,-50.961133,-0.316468)"
         id="g1764">
        <path
           transform="matrix(-0.2037092,0.02266453,0.02585404,0.24255121,145.79651,127.5349)"
           id="path967"
           d="M 35.578226,32.305529 C 36.312953,26.210007 49.488681,20.754886 63.865409,21.351585 78.242137,21.948285 93.99987,28.606814 93.266165,34.702013 92.532461,40.797212 75.356147,46.351231 60.933275,45.75154 46.510402,45.151849 34.8435,38.40105 35.578226,32.305529 Z"
           style="fill:#ffffff;fill-opacity:1;stroke:none;stroke-width:0.26458332px;stroke-linecap:butt;stroke-linejoin:miter;stroke-opacity:1" />
        <g
           id="g990"
           transform="matrix(-1,0,0,1,240.06922,-0.20861689)">
          <path
             style="opacity:1;fill:url(#linearGradient880);fill-opacity:1;stroke:none;stroke-width:0.31363589;stroke-linecap:butt;stroke-linejoin:round;stroke-miterlimit:4;stroke-dasharray:none;stroke-dashoffset:0;stroke-opacity:1;paint-order:markers stroke fill"
             id="path982"
             d="m 107.07027,138.77937 a 1.9889131,2.1078036 0 0 1 -1.97767,2.10777 1.9889131,2.1078036 0 0 1 -2.00003,-2.08395 1.9889131,2.1078036 0 0 1 1.95508,-2.13132 1.9889131,2.1078036 0 0 1 2.02211,2.05987"
             transform="matrix(0.99992541,-0.01221363,0.01575438,0.99987589,0,0)" />
          <g
             id="g988">
            <path
               transform="matrix(0.99994946,-0.01005401,0.01913779,0.99981686,0,0)"
               d="m 106.3004,138.66144 a 1.3997186,1.574663 0 0 1 -1.39181,1.57464 1.3997186,1.574663 0 0 1 -1.40754,-1.55685 1.3997186,1.574663 0 0 1 1.3759,-1.59223 1.3997186,1.574663 0 0 1 1.42309,1.53885"
               id="path984"
               style="opacity:1;fill:#000000;fill-opacity:1;stroke:none;stroke-width:0.51647961;stroke-linecap:butt;stroke-linejoin:round;stroke-miterlimit:4;stroke-dasharray:none;stroke-dashoffset:0;stroke-opacity:1;paint-order:markers stroke fill" />
            <path
               d="m 108.29151,136.60039 a 0.20161209,0.21718414 0 0 1 -0.20047,0.21718 0.20161209,0.21718414 0 0 1 -0.20274,-0.21473 0.20161209,0.21718414 0 0 1 0.19818,-0.21961 0.20161209,0.21718414 0 0 1 0.20498,0.21225"
               id="path986"
               style="opacity:1;fill:#e6e6e6;fill-opacity:1;stroke:none;stroke-width:0.89055508;stroke-linecap:butt;stroke-linejoin:round;stroke-miterlimit:4;stroke-dasharray:none;stroke-dashoffset:0;stroke-opacity:1;paint-order:markers stroke fill" />
          </g>
        </g>
      </g>
      <path
         id="path933"
         d="m 48.191047,144.99744 6.76405,-0.52916 0.71322,0.18406 0.39112,0.46014 0.20706,0.3451 -1.15035,0.27609 -7.2472,0.11503 z"
         style="fill:none;stroke:#000000;stroke-width:0;stroke-linecap:butt;stroke-linejoin:miter;stroke-miterlimit:4;stroke-dasharray:none;stroke-opacity:1" />
      <path
         id="path963"
         d="m 49.576347,146.08351 c 0.19468,-0.083 3.40483,0.23809 5.33759,0.17933 1.93276,-0.0588 5.20876,-0.42771 5.87481,-0.81538 0.66605,-0.38769 -0.32721,1.32132 -1.08315,1.9599 -0.75594,0.63859 -2.45862,1.804 -4.78665,1.93777 -2.32803,0.13376 -4.77016,-0.77457 -5.27198,-2.18716 -0.50182,-1.41258 -0.0706,-1.07446 -0.0706,-1.07446 z"
         style="fill:#a02c2c;fill-opacity:1;stroke:none;stroke-width:0.2938242px;stroke-linecap:butt;stroke-linejoin:miter;stroke-opacity:1" />
      <path
         transform="matrix(0.98925158,-0.1462235,0.06527184,0.99786752,0,0)"
         style="fill:#373e48;fill-opacity:1;stroke:none;stroke-width:0.1902782"
         d="m 68.616129,201.49847 h 18.305046 c 0.615981,0 1.111879,0.4959 1.111879,1.11188 v 2.56766 c 0,0.61598 -0.495898,1.11188 -1.111879,1.11188 H 68.616129 c -0.615981,0 -1.111879,-0.4959 -1.111879,-1.11188 v -2.56766 c 0,-0.61598 0.495898,-1.11188 1.111879,-1.11188 z"
         id="rect4609" />
    </g>
  </g>
  <g
     style="font-style:normal;font-weight:normal;font-size:10.58333302px;line-height:1.25;font-family:sans-serif;letter-spacing:0px;word-spacing:0px;fill:#000000;fill-opacity:1;stroke:none;stroke-width:0.26458332"
     id="text1145" />
  <g
     id="text1169"
     style="font-style:normal;font-weight:normal;font-size:19.71411133px;line-height:1.25;font-family:sans-serif;letter-spacing:0px;word-spacing:0px;fill:#ffffff;fill-opacity:1;stroke:none;stroke-width:0.49285278"
     transform="scale(0.64004155,1.5623986)"
     aria-label="Fastboot   Error  :mke2fs   failed">
    <path
       id="path1036"
       style="font-style:normal;font-variant:normal;font-weight:normal;font-stretch:normal;font-family:'Sansita One';-inkscape-font-specification:'Sansita One';text-align:center;text-anchor:middle;fill:#ffffff;stroke-width:0.49285278"
       d="m 131.29348,23.382709 q -1.59685,0 -2.75998,-0.532281 l -0.63085,3.193686 h 3.80482 q 0,1.044848 -0.53228,1.715128 -0.51256,0.650566 -1.45884,0.650566 -1.02513,0 -1.97141,-0.374569 -0.19714,-0.07886 -0.21686,-0.09857 l -1.1237,5.894519 h -4.29768 l 2.50369,-13.011313 h 8.7925 q 0,1.202561 -0.57171,1.892554 -0.552,0.67028 -1.5377,0.67028 z" />
    <path
       id="path1039"
       style="font-style:normal;font-variant:normal;font-weight:normal;font-stretch:normal;font-family:'Sansita One';-inkscape-font-specification:'Sansita One';text-align:center;text-anchor:middle;fill:#ffffff;stroke-width:0.49285278"
       d="m 133.60588,33.239765 q -0.45342,-0.512567 -0.67028,-1.320846 -0.19714,-0.808278 -0.19714,-2.129124 0,-1.320845 0.45343,-2.523406 0.45342,-1.202561 1.28141,-2.069982 1.69542,-1.813698 4.49482,-1.813698 1.00542,0 1.73484,0.33514 l 3.37111,-0.33514 -1.45884,7.688504 q -0.0591,0.236569 -0.0591,0.670279 0,0.433711 0.25628,0.709708 0.276,0.275998 0.67028,0.315426 -0.19714,0.67028 -0.92656,1.064562 -0.70971,0.394282 -1.51799,0.394282 -0.80828,0 -1.36027,-0.315425 -0.53228,-0.295712 -0.69,-0.808279 -0.31542,0.492853 -0.9857,0.808279 -0.67028,0.315425 -1.57713,0.315425 -0.88714,0 -1.61656,-0.236569 -0.72942,-0.236569 -1.20256,-0.749136 z m 4.15968,-8.003929 q -0.21686,0.354854 -0.414,0.965991 -0.19714,0.591423 -0.53228,2.207981 -0.31542,1.596843 -0.31542,2.740261 0,1.143419 0.17742,1.478558 0.17743,0.33514 0.49286,0.33514 0.63085,0 1.08427,-0.591423 0.47314,-0.611137 0.65057,-1.675699 l 1.04485,-5.776235 q -0.414,-0.354854 -0.90685,-0.354854 -0.47314,0 -0.76885,0.157713 -0.276,0.157713 -0.51257,0.512567 z" />
    <path
       id="path1041"
       style="font-style:normal;font-variant:normal;font-weight:normal;font-stretch:normal;font-family:'Sansita One';-inkscape-font-specification:'Sansita One';text-align:center;text-anchor:middle;fill:#ffffff;stroke-width:0.49285278"
       d="m 151.05102,26.911535 q 0.276,-0.729422 0.276,-1.360274 0,-1.163132 -0.94628,-1.163132 -0.49285,0 -0.90685,0.453424 -0.39428,0.433711 -0.39428,0.985706 0,0.394282 0.31543,0.709708 0.45342,0.43371 1.61655,1.143418 1.16314,0.709708 1.59685,1.301132 0.45342,0.571709 0.45342,1.379988 0,0.788564 -0.39428,1.517986 -0.37457,0.729422 -1.06456,1.241989 -1.47856,1.10399 -3.84425,1.10399 -1.28142,0 -2.26713,-0.670279 -0.9857,-0.650566 -0.9857,-1.419416 0,-0.768851 0.55199,-1.222275 0.57171,-0.453425 1.39971,-0.453425 0.82799,0 1.34055,0.315426 -0.25628,0.650566 -0.25628,1.084276 0,1.301131 1.10399,1.301131 0.47314,0 0.78857,-0.295711 0.31542,-0.295712 0.31542,-0.808279 0,-1.005419 -1.69541,-2.069982 -1.37999,-0.906849 -1.69542,-1.261703 -0.53228,-0.630851 -0.53228,-1.419416 0,-0.788564 0.37457,-1.5377 0.37457,-0.749137 1.06456,-1.281418 1.43913,-1.10399 3.94283,-1.10399 1.28141,0 2.03055,0.512567 0.76885,0.512567 0.76885,1.379988 0,0.867421 -0.53228,1.360274 -0.51257,0.492852 -1.45885,0.492852 -0.65056,0 -0.96599,-0.216855 z" />
    <path
       id="path1043"
       style="font-style:normal;font-variant:normal;font-weight:normal;font-stretch:normal;font-family:'Sansita One';-inkscape-font-specification:'Sansita One';text-align:center;text-anchor:middle;fill:#ffffff;stroke-width:0.49285278"
       d="m 155.05945,31.859777 q 0,-0.532281 0.276,-1.872841 l 1.04485,-5.32281 h -1.16313 l 0.0788,-0.591423 q 2.3657,-0.709708 4.65253,-2.44455 h 0.94628 l -0.47314,2.148838 h 1.5377 l -0.17742,0.887135 h -1.51799 l -1.00542,5.32281 q -0.25628,1.222275 -0.25628,1.636272 0,0.946277 0.82799,1.143418 -0.19714,0.67028 -0.90685,1.064562 -0.70971,0.394282 -1.71513,0.394282 -1.00542,0 -1.57713,-0.630851 -0.57171,-0.630852 -0.57171,-1.734842 z" />
    <path
       id="path1045"
       style="font-style:normal;font-variant:normal;font-weight:normal;font-stretch:normal;font-family:'Sansita One';-inkscape-font-specification:'Sansita One';text-align:center;text-anchor:middle;fill:#ffffff;stroke-width:0.49285278"
       d="m 161.61101,32.884911 2.44455,-12.853601 4.00196,-0.394282 -0.61113,3.016259 q -0.21686,0.926563 -0.49286,1.577129 0.43371,-0.551995 1.37999,-0.76885 0.276,-0.07886 0.61114,-0.07886 1.83341,0 2.83883,1.123705 1.00542,1.10399 1.00542,3.252828 0,2.799404 -1.59684,4.55396 -1.71513,1.912268 -4.82996,1.912268 -2.14884,0 -3.7654,-0.709708 -0.5717,-0.256283 -0.9857,-0.630851 z m 3.96254,-0.177427 q 0.41399,0.354854 0.92656,0.354854 0.51257,0 0.80828,-0.197141 0.29571,-0.197141 0.51256,-0.591424 0.59143,-1.064562 1.06457,-4.31739 0.13799,-0.926563 0.13799,-1.853126 0,-0.926564 -0.21685,-1.222275 -0.19714,-0.295712 -0.59142,-0.295712 -1.20256,0 -1.59685,2.345979 z" />
    <path
       id="path1047"
       style="font-style:normal;font-variant:normal;font-weight:normal;font-stretch:normal;font-family:'Sansita One';-inkscape-font-specification:'Sansita One';text-align:center;text-anchor:middle;fill:#ffffff;stroke-width:0.49285278"
       d="m 178.25526,34.22547 q -4.3371,0 -4.3371,-4.080821 0,-2.897974 1.59684,-4.770815 1.69541,-1.991125 4.63282,-1.991125 2.12912,0 3.2134,0.985706 1.08427,0.985705 1.08427,3.055687 0,3.154258 -1.69541,4.98767 -1.65599,1.813698 -4.49482,1.813698 z m 0.51257,-8.575638 q -0.23657,0.532281 -0.43371,1.34056 -0.17743,0.788564 -0.414,2.050267 -0.23657,1.261703 -0.23657,2.819118 0,0.512567 0.15772,0.847707 0.17742,0.33514 0.63085,0.33514 0.45342,0 0.72942,-0.216855 0.29571,-0.216856 0.51257,-0.729423 0.39428,-0.906849 0.7097,-2.582548 0.31543,-1.695414 0.33514,-2.424836 0.0394,-0.729422 0.0394,-1.261703 0,-0.551995 -0.15771,-0.906849 -0.15771,-0.354854 -0.61114,-0.354854 -0.43371,0 -0.72942,0.275997 -0.29571,0.275998 -0.53228,0.808279 z" />
    <path
       id="path1049"
       style="font-style:normal;font-variant:normal;font-weight:normal;font-stretch:normal;font-family:'Sansita One';-inkscape-font-specification:'Sansita One';text-align:center;text-anchor:middle;fill:#ffffff;stroke-width:0.49285278"
       d="m 189.92201,34.22547 q -4.3371,0 -4.3371,-4.080821 0,-2.897974 1.59684,-4.770815 1.69542,-1.991125 4.63282,-1.991125 2.12912,0 3.2134,0.985706 1.08428,0.985705 1.08428,3.055687 0,3.154258 -1.69542,4.98767 -1.65598,1.813698 -4.49482,1.813698 z m 0.51257,-8.575638 q -0.23657,0.532281 -0.43371,1.34056 -0.17743,0.788564 -0.414,2.050267 -0.23656,1.261703 -0.23656,2.819118 0,0.512567 0.15771,0.847707 0.17743,0.33514 0.63085,0.33514 0.45342,0 0.72942,-0.216855 0.29571,-0.216856 0.51257,-0.729423 0.39428,-0.906849 0.70971,-2.582548 0.31542,-1.695414 0.33514,-2.424836 0.0394,-0.729422 0.0394,-1.261703 0,-0.551995 -0.15771,-0.906849 -0.15771,-0.354854 -0.61114,-0.354854 -0.43371,0 -0.72942,0.275997 -0.29571,0.275998 -0.53228,0.808279 z" />
    <path
       id="path1051"
       style="font-style:normal;font-variant:normal;font-weight:normal;font-stretch:normal;font-family:'Sansita One';-inkscape-font-specification:'Sansita One';text-align:center;text-anchor:middle;fill:#ffffff;stroke-width:0.49285278"
       d="m 197.60651,31.859777 q 0,-0.532281 0.276,-1.872841 l 1.04485,-5.32281 h -1.16313 l 0.0788,-0.591423 q 2.36569,-0.709708 4.65253,-2.44455 h 0.94628 l -0.47314,2.148838 h 1.5377 l -0.17743,0.887135 h -1.51798 l -1.00542,5.32281 q -0.25629,1.222275 -0.25629,1.636272 0,0.946277 0.828,1.143418 -0.19714,0.67028 -0.90685,1.064562 -0.70971,0.394282 -1.71513,0.394282 -1.00542,0 -1.57713,-0.630851 -0.57171,-0.630852 -0.57171,-1.734842 z" />
    <path
       id="path1053"
       style="font-style:normal;font-variant:normal;font-weight:normal;font-stretch:normal;font-family:'Sansita One';-inkscape-font-specification:'Sansita One';text-align:center;text-anchor:middle;fill:#ffffff;stroke-width:0.49285278"
       d="m 224.96107,30.795215 q 0.37457,0.473139 0.37457,1.241989 0,1.064562 -0.78856,1.636271 -0.78857,0.551995 -2.03056,0.551995 -0.70971,0 -1.79398,-0.157712 -2.12913,-0.33514 -2.77969,-0.33514 -0.65057,0 -0.90685,0.03943 -0.25628,0.01971 -0.67028,0.05914 l 2.42483,-13.011313 h 8.49679 q 0,1.202561 -0.59143,1.833412 -0.57171,0.630852 -1.71512,0.630852 -1.14342,0 -2.30656,-0.532281 l -0.61113,3.449969 h 3.50911 q 0,1.044848 -0.51257,1.636271 -0.51256,0.57171 -1.37999,0.57171 -0.8477,0 -1.37998,-0.197142 -0.53228,-0.197141 -0.59143,-0.256283 l -0.7097,3.725967 q 0.47313,0.05914 1.36027,0.05914 1.51799,0 2.60226,-0.946277 z" />
    <path
       id="path1055"
       style="font-style:normal;font-variant:normal;font-weight:normal;font-stretch:normal;font-family:'Sansita One';-inkscape-font-specification:'Sansita One';text-align:center;text-anchor:middle;fill:#ffffff;stroke-width:0.49285278"
       d="m 233.3023,28.291523 q 0.70971,-1.261703 0.70971,-2.54312 0,-0.847707 -0.61114,-0.847707 -0.47314,0 -0.96599,0.808278 -0.51257,0.808279 -0.67028,1.853127 l -1.02513,6.269087 -4.08082,0.394282 2.01084,-10.448479 3.25282,-0.394282 -0.35485,1.991125 q 0.96599,-1.991125 3.13454,-1.991125 1.14342,0 1.75456,0.591424 0.63085,0.591423 0.63085,1.813698 0,1.202561 -0.80828,1.971411 -0.78856,0.76885 -2.14884,0.76885 -0.59142,0 -0.82799,-0.236569 z" />
    <path
       id="path1057"
       style="font-style:normal;font-variant:normal;font-weight:normal;font-stretch:normal;font-family:'Sansita One';-inkscape-font-specification:'Sansita One';text-align:center;text-anchor:middle;fill:#ffffff;stroke-width:0.49285278"
       d="m 243.5829,28.291523 q 0.70971,-1.261703 0.70971,-2.54312 0,-0.847707 -0.61114,-0.847707 -0.47314,0 -0.96599,0.808278 -0.51256,0.808279 -0.67028,1.853127 l -1.02513,6.269087 -4.08082,0.394282 2.01084,-10.448479 3.25283,-0.394282 -0.35486,1.991125 q 0.96599,-1.991125 3.13454,-1.991125 1.14342,0 1.75456,0.591424 0.63085,0.591423 0.63085,1.813698 0,1.202561 -0.80828,1.971411 -0.78856,0.76885 -2.14883,0.76885 -0.59143,0 -0.828,-0.236569 z" />
    <path
       id="path1059"
       style="font-style:normal;font-variant:normal;font-weight:normal;font-stretch:normal;font-family:'Sansita One';-inkscape-font-specification:'Sansita One';text-align:center;text-anchor:middle;fill:#ffffff;stroke-width:0.49285278"
       d="m 251.99066,34.22547 q -4.3371,0 -4.3371,-4.080821 0,-2.897974 1.59684,-4.770815 1.69542,-1.991125 4.63282,-1.991125 2.12912,0 3.2134,0.985706 1.08427,0.985705 1.08427,3.055687 0,3.154258 -1.69541,4.98767 -1.65598,1.813698 -4.49482,1.813698 z m 0.51257,-8.575638 q -0.23657,0.532281 -0.43371,1.34056 -0.17743,0.788564 -0.414,2.050267 -0.23657,1.261703 -0.23657,2.819118 0,0.512567 0.15772,0.847707 0.17742,0.33514 0.63085,0.33514 0.45342,0 0.72942,-0.216855 0.29571,-0.216856 0.51257,-0.729423 0.39428,-0.906849 0.70971,-2.582548 0.31542,-1.695414 0.33514,-2.424836 0.0394,-0.729422 0.0394,-1.261703 0,-0.551995 -0.15771,-0.906849 -0.15771,-0.354854 -0.61114,-0.354854 -0.43371,0 -0.72942,0.275997 -0.29571,0.275998 -0.53228,0.808279 z" />
    <path
       id="path1061"
       style="font-style:normal;font-variant:normal;font-weight:normal;font-stretch:normal;font-family:'Sansita One';-inkscape-font-specification:'Sansita One';text-align:center;text-anchor:middle;fill:#ffffff;stroke-width:0.49285278"
       d="m 265.53025,28.291523 q 0.70971,-1.261703 0.70971,-2.54312 0,-0.847707 -0.61114,-0.847707 -0.47314,0 -0.96599,0.808278 -0.51257,0.808279 -0.67028,1.853127 l -1.02513,6.269087 -4.08082,0.394282 2.01084,-10.448479 3.25282,-0.394282 -0.35485,1.991125 q 0.96599,-1.991125 3.13454,-1.991125 1.14342,0 1.75456,0.591424 0.63085,0.591423 0.63085,1.813698 0,1.202561 -0.80828,1.971411 -0.78856,0.76885 -2.14883,0.76885 -0.59143,0 -0.828,-0.236569 z" />
    <path
       id="path1063"
       style="font-style:normal;font-variant:normal;font-weight:normal;font-stretch:normal;font-family:'Sansita One';-inkscape-font-specification:'Sansita One';text-align:center;text-anchor:middle;fill:#ffffff;stroke-width:0.49285278"
       d="m 277.37135,32.668056 q 0,-0.749137 0.57171,-1.163133 0.59142,-0.413996 1.41942,-0.413996 0.82799,0 1.32084,0.413996 0.51257,0.413996 0.51257,1.163133 0,0.749136 -0.57171,1.163132 -0.55199,0.394282 -1.37999,0.394282 -0.82799,0 -1.36027,-0.394282 -0.51257,-0.413996 -0.51257,-1.163132 z m 1.61656,-7.708218 q 0,-0.749136 0.57171,-1.163132 0.59142,-0.413997 1.41941,-0.413997 0.828,0 1.32085,0.413997 0.51257,0.413996 0.51257,1.163132 0,0.749136 -0.57171,1.163133 -0.552,0.394282 -1.37999,0.394282 -0.82799,0 -1.36027,-0.394282 -0.51257,-0.413997 -0.51257,-1.163133 z" />
    <path
       id="path1065"
       style="font-style:normal;font-variant:normal;font-weight:normal;font-stretch:normal;font-family:'Sansita One';-inkscape-font-specification:'Sansita One';text-align:center;text-anchor:middle;fill:#ffffff;stroke-width:0.49285278"
       d="m 149.12782,59.238276 q -2.38541,0 -2.38541,-1.853126 0,-0.808279 0.33514,-2.365693 0.35485,-1.577129 0.47314,-2.207981 0.276,-1.43913 0.276,-1.892555 0,-1.005419 -0.74914,-1.005419 -0.49285,0 -0.96599,0.689994 -0.47314,0.670279 -0.69,2.030553 l -1.22227,6.209945 -3.84425,0.394282 1.06456,-5.362238 q 0.17743,-0.887135 0.33514,-1.892555 0.15771,-1.005419 0.15771,-1.163132 0,-0.906849 -0.67028,-0.906849 -0.45342,0 -0.94627,0.670279 -0.49286,0.67028 -0.76885,2.050268 l -1.20257,6.209945 -3.88368,0.394282 2.06999,-10.448479 3.2134,-0.394282 -0.33514,1.991125 q 0.51256,-1.064562 1.45884,-1.517986 0.94628,-0.473139 2.42484,-0.473139 0.8477,0 1.3997,0.413996 0.55199,0.413997 0.72942,1.084277 0.33514,-0.689994 1.18285,-1.084277 0.86742,-0.413996 1.91227,-0.413996 1.06456,0 1.57713,0.236569 0.53228,0.216856 0.8477,0.591424 0.53228,0.689994 0.53228,1.951697 0,1.241989 -0.53228,3.824537 -0.276,1.261704 -0.276,1.734842 0,0.453425 0.25629,0.729422 0.276,0.275998 0.67028,0.315426 -0.19714,0.67028 -0.88714,1.064562 -0.67028,0.394282 -1.55741,0.394282 z" />
    <path
       id="path1067"
       style="font-style:normal;font-variant:normal;font-weight:normal;font-stretch:normal;font-family:'Sansita One';-inkscape-font-specification:'Sansita One';text-align:center;text-anchor:middle;fill:#ffffff;stroke-width:0.49285278"
       d="m 158.19384,49.499505 q 1.06457,-1.10399 3.31198,-1.10399 1.24198,0 1.91226,0.67028 0.69,0.650566 0.69,1.87284 0,1.202561 -0.69,2.069982 -0.67028,0.847707 -1.93198,1.202561 0.0986,0.394282 0.23657,0.808279 l 0.276,0.788564 q 0.37457,1.00542 0.67028,1.360274 0.29571,0.354854 0.68999,0.473138 -0.21685,0.808279 -1.00542,1.241989 -0.63085,0.354854 -1.49827,0.354854 -2.54312,0 -2.87826,-3.923108 -0.0591,-0.551995 -0.0591,-1.10399 0.9857,-0.275998 1.6757,-1.202561 0.68999,-0.926563 0.68999,-2.010839 0,-1.084276 -0.76885,-1.084276 -0.552,0 -0.98571,0.611137 -0.43371,0.611138 -0.63085,1.655986 l -1.30113,6.663369 -3.98225,0.394282 2.75998,-14.19416 3.96253,-0.394282 -0.45342,2.345979 q -0.29571,1.655986 -0.69,2.503692 z" />
    <path
       id="path1069"
       style="font-style:normal;font-variant:normal;font-weight:normal;font-stretch:normal;font-family:'Sansita One';-inkscape-font-specification:'Sansita One';text-align:center;text-anchor:middle;fill:#ffffff;stroke-width:0.49285278"
       d="m 172.98959,55.512309 q 0.49286,0.33514 0.49286,1.084276 0,0.729423 -0.37457,1.202561 -0.37457,0.473139 -0.98571,0.788565 -1.2617,0.650565 -2.62197,0.650565 -1.36028,0 -2.16856,-0.295711 -0.78856,-0.295712 -1.32084,-0.847707 -1.04485,-1.044848 -1.04485,-2.957117 0,-2.976831 1.61656,-4.790529 1.73484,-1.951697 4.7511,-1.951697 1.87284,0 2.7994,0.788565 0.69,0.591423 0.69,1.557414 0,3.469684 -5.99309,3.469684 -0.0789,0.512567 -0.0789,0.946277 0,0.906849 0.39428,1.261703 0.414,0.33514 1.16313,0.33514 0.74914,0 1.5377,-0.33514 0.80828,-0.354854 1.14342,-0.906849 z m -4.02168,-2.148838 q 1.39971,0 2.20798,-0.867421 0.80828,-0.827992 0.80828,-2.148838 0,-0.453424 -0.17742,-0.689994 -0.15772,-0.256283 -0.49286,-0.256283 -0.33514,0 -0.63085,0.137999 -0.276,0.118284 -0.57171,0.551995 -0.72942,0.985705 -1.14342,3.272542 z" />
    <path
       id="path1071"
       style="font-style:normal;font-variant:normal;font-weight:normal;font-stretch:normal;font-family:'Sansita One';-inkscape-font-specification:'Sansita One';text-align:center;text-anchor:middle;fill:#ffffff;stroke-width:0.49285278"
       d="m 175.32079,55.926306 2.46426,-1.892555 1.5377,-1.261703 q 0.78857,-0.67028 1.36027,-1.261703 1.04485,-1.044848 1.04485,-2.050268 0,-0.591423 -0.39428,-0.906849 -0.37457,-0.315426 -0.94628,-0.315426 -0.55199,0 -0.96599,0.137999 -0.39428,0.118285 -0.74913,0.33514 -0.74914,0.492853 -1.10399,1.241989 -0.49286,-0.01971 -0.828,-0.433711 -0.31542,-0.413996 -0.31542,-1.005419 0,-0.611138 0.37456,-1.163133 0.37457,-0.571709 1.04485,-1.005419 1.45885,-0.90685 3.44997,-0.90685 2.01084,0 3.13455,0.867421 1.1237,0.867421 1.1237,2.34598 0,1.10399 -0.55199,2.109409 -0.53229,1.00542 -1.97142,2.030554 l -2.12912,1.498272 -1.28142,0.847707 -1.63627,1.00542 0.69,0.07886 q 0.47313,0.05914 1.30113,0.05914 0.82799,0 1.51798,-0.07886 0.69,-0.09857 1.28142,-0.275997 1.30113,-0.354854 1.71513,-0.847707 0.21685,0.157713 0.37457,0.571709 0.17742,0.394282 0.17742,0.887135 0,1.478558 -1.1237,2.089696 -1.12371,0.611137 -3.43026,0.611137 -1.20256,0 -2.7994,-0.354854 -1.59684,-0.33514 -2.24741,-0.532281 z" />
    <path
       id="path1073"
       style="font-style:normal;font-variant:normal;font-weight:normal;font-stretch:normal;font-family:'Sansita One';-inkscape-font-specification:'Sansita One';text-align:center;text-anchor:middle;fill:#ffffff;stroke-width:0.49285278"
       d="m 194.21769,47.40981 q 0.276,-0.473139 0.276,-0.985706 0,-0.906849 -0.552,-0.906849 -0.84771,0 -1.20256,1.734842 l -0.29571,1.5377 h 1.79398 l -0.11828,0.887135 h -1.85313 l -1.77427,9.167062 -3.98225,0.394282 1.89256,-9.561344 h -1.39971 l 0.17743,-0.887135 h 1.37999 l 0.414,-1.557414 q 0.35485,-1.439131 1.87284,-2.10941 1.10399,-0.473139 2.95711,-0.473139 1.85313,0 2.68112,0.473139 0.82799,0.473138 0.82799,1.10399 0,0.630851 -0.49285,1.025134 -0.49285,0.394282 -1.04485,0.394282 -1.08427,0 -1.55741,-0.236569 z" />
    <path
       id="path1075"
       style="font-style:normal;font-variant:normal;font-weight:normal;font-stretch:normal;font-family:'Sansita One';-inkscape-font-specification:'Sansita One';text-align:center;text-anchor:middle;fill:#ffffff;stroke-width:0.49285278"
       d="m 199.855,51.924341 q 0.276,-0.729422 0.276,-1.360274 0,-1.163132 -0.94628,-1.163132 -0.49285,0 -0.90685,0.453424 -0.39428,0.433711 -0.39428,0.985706 0,0.394282 0.31542,0.709708 0.45343,0.43371 1.61656,1.143418 1.16313,0.709708 1.59684,1.301132 0.45343,0.571709 0.45343,1.379988 0,0.788564 -0.39428,1.517986 -0.37457,0.729422 -1.06457,1.241989 -1.47856,1.10399 -3.84425,1.10399 -1.28142,0 -2.26712,-0.670279 -0.98571,-0.650566 -0.98571,-1.419416 0,-0.768851 0.552,-1.222275 0.57171,-0.453425 1.3997,-0.453425 0.82799,0 1.34056,0.315426 -0.25628,0.650566 -0.25628,1.084276 0,1.301131 1.10399,1.301131 0.47314,0 0.78856,-0.295711 0.31543,-0.295712 0.31543,-0.808279 0,-1.00542 -1.69542,-2.069982 -1.37998,-0.906849 -1.69541,-1.261703 -0.53228,-0.630851 -0.53228,-1.419416 0,-0.788564 0.37457,-1.5377 0.37456,-0.749137 1.06456,-1.281418 1.43913,-1.10399 3.94282,-1.10399 1.28142,0 2.03055,0.512567 0.76885,0.512567 0.76885,1.379988 0,0.867421 -0.53228,1.360274 -0.51256,0.492852 -1.45884,0.492852 -0.65057,0 -0.96599,-0.216855 z" />
    <path
       id="path1077"
       style="font-style:normal;font-variant:normal;font-weight:normal;font-stretch:normal;font-family:'Sansita One';-inkscape-font-specification:'Sansita One';text-align:center;text-anchor:middle;fill:#ffffff;stroke-width:0.49285278"
       d="m 223.36531,47.40981 q 0.276,-0.473139 0.276,-0.985706 0,-0.906849 -0.552,-0.906849 -0.8477,0 -1.20256,1.734842 l -0.29571,1.5377 h 1.79398 l -0.11828,0.887135 h -1.85313 l -1.77427,9.167062 -3.98225,0.394282 1.89256,-9.561344 h -1.3997 l 0.17742,-0.887135 h 1.37999 l 0.414,-1.557414 q 0.35485,-1.439131 1.87284,-2.10941 1.10399,-0.473139 2.95711,-0.473139 1.85313,0 2.68112,0.473139 0.828,0.473138 0.828,1.10399 0,0.630851 -0.49286,1.025134 -0.49285,0.394282 -1.04485,0.394282 -1.08427,0 -1.55741,-0.236569 z" />
    <path
       id="path1079"
       style="font-style:normal;font-variant:normal;font-weight:normal;font-stretch:normal;font-family:'Sansita One';-inkscape-font-specification:'Sansita One';text-align:center;text-anchor:middle;fill:#ffffff;stroke-width:0.49285278"
       d="m 223.9173,58.252571 q -0.45342,-0.512567 -0.67027,-1.320846 -0.19715,-0.808278 -0.19715,-2.129124 0,-1.320845 0.45343,-2.523406 0.45342,-1.202561 1.28142,-2.069982 1.69541,-1.813698 4.49481,-1.813698 1.00542,0 1.73484,0.33514 l 3.37112,-0.33514 -1.45885,7.688504 q -0.0591,0.236569 -0.0591,0.670279 0,0.433711 0.25628,0.709708 0.276,0.275998 0.67028,0.315426 -0.19714,0.67028 -0.92656,1.064562 -0.70971,0.394282 -1.51799,0.394282 -0.80827,0 -1.36027,-0.315425 -0.53228,-0.295712 -0.68999,-0.808279 -0.31543,0.492853 -0.98571,0.808279 -0.67028,0.315425 -1.57713,0.315425 -0.88713,0 -1.61655,-0.236569 -0.72943,-0.236569 -1.20257,-0.749136 z m 4.15968,-8.003929 q -0.21685,0.354854 -0.41399,0.965991 -0.19715,0.591423 -0.53228,2.207981 -0.31543,1.596843 -0.31543,2.740261 0,1.143418 0.17743,1.478558 0.17742,0.33514 0.49285,0.33514 0.63085,0 1.08428,-0.591423 0.47313,-0.611138 0.65056,-1.6757 l 1.04485,-5.776234 q -0.414,-0.354854 -0.90685,-0.354854 -0.47314,0 -0.76885,0.157713 -0.276,0.157713 -0.51257,0.512567 z" />
    <path
       id="path1081"
       style="font-style:normal;font-variant:normal;font-weight:normal;font-stretch:normal;font-family:'Sansita One';-inkscape-font-specification:'Sansita One';text-align:center;text-anchor:middle;fill:#ffffff;stroke-width:0.49285278"
       d="m 240.19931,57.759718 q -0.61114,1.478558 -2.56284,1.478558 -1.00542,0 -1.63627,-0.689994 -0.53228,-0.611137 -0.53228,-1.222274 0,-1.596843 0.72942,-4.711673 l 0.72943,-3.824538 4.00196,-0.394282 -1.20256,6.229659 q -0.33514,1.458845 -0.33514,1.971411 0,1.123705 0.80828,1.163133 z m -2.91769,-11.710182 q 0,-0.76885 0.63085,-1.182847 0.65057,-0.413996 1.57713,-0.413996 0.92656,0 1.47856,0.413996 0.57171,0.413997 0.57171,1.182847 0,0.76885 -0.63085,1.163132 -0.61114,0.394283 -1.5377,0.394283 -0.92657,0 -1.51799,-0.394283 -0.57171,-0.394282 -0.57171,-1.163132 z" />
    <path
       id="path1083"
       style="font-style:normal;font-variant:normal;font-weight:normal;font-stretch:normal;font-family:'Sansita One';-inkscape-font-specification:'Sansita One';text-align:center;text-anchor:middle;fill:#ffffff;stroke-width:0.49285278"
       d="m 246.57128,57.759718 q -0.61114,1.478558 -2.56284,1.478558 -0.9857,0 -1.61655,-0.689994 -0.51257,-0.571709 -0.51257,-1.222274 0,-1.478559 0.68999,-4.711673 l 1.43913,-7.570219 4.00197,-0.394282 -1.91227,9.97534 q -0.33514,1.458845 -0.33514,1.971411 0,1.123705 0.80828,1.163133 z" />
    <path
       id="path1085"
       style="font-style:normal;font-variant:normal;font-weight:normal;font-stretch:normal;font-family:'Sansita One';-inkscape-font-specification:'Sansita One';text-align:center;text-anchor:middle;fill:#ffffff;stroke-width:0.49285278"
       d="m 256.23551,55.512309 q 0.49285,0.33514 0.49285,1.084276 0,0.729423 -0.37457,1.202561 -0.37457,0.473139 -0.9857,0.788565 -1.26171,0.650565 -2.62198,0.650565 -1.36027,0 -2.16855,-0.295711 -0.78857,-0.295712 -1.32085,-0.847707 -1.04485,-1.044848 -1.04485,-2.957117 0,-2.976831 1.61656,-4.790529 1.73484,-1.951697 4.7511,-1.951697 1.87284,0 2.79941,0.788565 0.68999,0.591423 0.68999,1.557414 0,3.469684 -5.99309,3.469684 -0.0789,0.512567 -0.0789,0.946277 0,0.906849 0.39429,1.261703 0.41399,0.33514 1.16313,0.33514 0.74913,0 1.5377,-0.33514 0.80828,-0.354854 1.14342,-0.906849 z m -4.02168,-2.148838 q 1.3997,0 2.20798,-0.867421 0.80828,-0.827992 0.80828,-2.148838 0,-0.453424 -0.17743,-0.689994 -0.15771,-0.256283 -0.49285,-0.256283 -0.33514,0 -0.63085,0.137999 -0.276,0.118284 -0.57171,0.551995 -0.72943,0.985705 -1.14342,3.272542 z" />
    <path
       id="path1087"
       style="font-style:normal;font-variant:normal;font-weight:normal;font-stretch:normal;font-family:'Sansita One';-inkscape-font-specification:'Sansita One';text-align:center;text-anchor:middle;fill:#ffffff;stroke-width:0.49285278"
       d="m 264.93436,48.395515 q 0.70971,0 1.2617,0.157713 0.0197,-0.07886 0.0591,-0.295712 l 0.0986,-0.611137 q 0.0789,-0.394282 0.19715,-1.044848 l 0.31542,-1.557415 3.92311,-0.394282 -2.18827,11.434185 q -0.0197,0.118284 -0.0197,0.315425 v 0.315426 q 0,0.433711 0.21685,0.76885 0.21686,0.315426 0.57171,0.315426 -0.39428,0.926563 -1.59684,1.320846 -0.414,0.118284 -1.00542,0.118284 -0.57171,0 -1.10399,-0.315425 -0.53228,-0.295712 -0.68999,-0.808279 -0.31543,0.512567 -0.94628,0.808279 -0.63085,0.315425 -1.55742,0.315425 -0.90684,0 -1.67569,-0.236569 -0.74914,-0.236569 -1.22228,-0.749136 -0.86742,-1.00542 -0.86742,-3.292257 0,-2.957116 1.73484,-4.751101 1.73484,-1.813698 4.49482,-1.813698 z m -0.138,1.182847 q -0.72942,0 -1.1237,0.788564 -0.39429,0.788565 -0.80828,2.740262 -0.39429,1.951697 -0.39429,3.706253 0,1.20256 0.70971,1.20256 0.63085,0 1.06456,-0.630851 0.45343,-0.630852 0.63086,-1.6757 l 1.06456,-5.776234 q -0.414,-0.354854 -1.14342,-0.354854 z" />
  </g>
</svg>
