<?xml version="1.0" encoding="UTF-8" standalone="no"?>
<svg
   xmlns:dc="http://purl.org/dc/elements/1.1/"
   xmlns:cc="http://creativecommons.org/ns#"
   xmlns:rdf="http://www.w3.org/1999/02/22-rdf-syntax-ns#"
   xmlns:svg="http://www.w3.org/2000/svg"
   xmlns="http://www.w3.org/2000/svg"
   xmlns:xlink="http://www.w3.org/1999/xlink"
   id="svg3357"
   version="1.1"
   viewBox="0 0 444.5 277.8125"
   height="277.8125mm"
   width="444.5mm">
  <defs
     id="defs3351">
    <linearGradient
       id="linearGradient952">
      <stop
         id="stop948"
         offset="0"
         style="stop-color:#f4b400;stop-opacity:1;" />
      <stop
         style="stop-color:#ffc21f;stop-opacity:1"
         offset="0"
         id="stop956" />
      <stop
         id="stop950"
         offset="1"
         style="stop-color:#ffca36;stop-opacity:1" />
    </linearGradient>
    <linearGradient
       id="linearGradient6114">
      <stop
         id="stop6110"
         offset="0"
         style="stop-color:#6f7c91;stop-opacity:1;" />
      <stop
         id="stop6112"
         offset="1"
         style="stop-color:#162d50;stop-opacity:1" />
    </linearGradient>
    <radialGradient
       gradientUnits="userSpaceOnUse"
       gradientTransform="matrix(3.0071285,0,0,1.83657,-125.12732,-58.151445)"
       r="31.67275"
       fy="66.986313"
       fx="73.77433"
       cy="66.986313"
       cx="73.77433"
       id="radialGradient6126"
       xlink:href="#linearGradient6114" />
    <filter
       height="2.5682838"
       y="-0.7841419"
       width="2.6305408"
       x="-0.81527042"
       id="filter2224"
       style="color-interpolation-filters:sRGB">
      <feGaussianBlur
         id="feGaussianBlur2226"
         stdDeviation="7.1879676" />
    </filter>
    <filter
       height="2.5682838"
       y="-0.7841419"
       width="2.7251122"
       x="-0.8625561"
       id="filter2228"
       style="color-interpolation-filters:sRGB">
      <feGaussianBlur
         id="feGaussianBlur2230"
         stdDeviation="7.1879676" />
    </filter>
    <filter
       height="2.349853"
       y="-0.67492652"
       width="3.4644461"
       x="-1.232223"
       id="filter2232"
       style="color-interpolation-filters:sRGB">
      <feGaussianBlur
         id="feGaussianBlur2234"
         stdDeviation="7.1879676" />
    </filter>
    <filter
       height="2.5682838"
       y="-0.7841419"
       width="2.7895355"
       x="-0.89476776"
       id="filter2236"
       style="color-interpolation-filters:sRGB">
      <feGaussianBlur
         id="feGaussianBlur2238"
         stdDeviation="7.1879676" />
    </filter>
    <filter
       height="2.5682838"
       y="-0.7841419"
       width="2.4897342"
       x="-0.74486709"
       id="filter2240"
       style="color-interpolation-filters:sRGB">
      <feGaussianBlur
         id="feGaussianBlur2242"
         stdDeviation="7.1879676" />
    </filter>
    <filter
       height="2.2684648"
       y="-0.6342324"
       width="2.4545634"
       x="-0.72728169"
       id="filter2244"
       style="color-interpolation-filters:sRGB">
      <feGaussianBlur
         id="feGaussianBlur2246"
         stdDeviation="7.1879676" />
    </filter>
    <filter
       height="2.5682838"
       y="-0.7841419"
       width="2.5079651"
       x="-0.7539826"
       id="filter2248"
       style="color-interpolation-filters:sRGB">
      <feGaussianBlur
         id="feGaussianBlur2250"
         stdDeviation="7.1879676" />
    </filter>
    <filter
       height="2.5682838"
       y="-0.7841419"
       width="2.5000975"
       x="-0.75004882"
       id="filter2252"
       style="color-interpolation-filters:sRGB">
      <feGaussianBlur
         id="feGaussianBlur2254"
         stdDeviation="7.1879676" />
    </filter>
    <filter
       height="2.1500747"
       y="-0.57503742"
       width="3.8005068"
       x="-1.4002534"
       id="filter2256"
       style="color-interpolation-filters:sRGB">
      <feGaussianBlur
         id="feGaussianBlur2258"
         stdDeviation="7.1879676" />
    </filter>
    <filter
       height="2.1656165"
       y="-0.5828082"
       width="2.5212629"
       x="-0.7606315"
       id="filter2260"
       style="color-interpolation-filters:sRGB">
      <feGaussianBlur
         id="feGaussianBlur2262"
         stdDeviation="7.1879676" />
    </filter>
    <filter
       height="2.5682838"
       y="-0.7841419"
       width="2.7251122"
       x="-0.8625561"
       id="filter2264"
       style="color-interpolation-filters:sRGB">
      <feGaussianBlur
         id="feGaussianBlur2266"
         stdDeviation="7.1879676" />
    </filter>
    <filter
       height="2.2628932"
       y="-0.63144666"
       width="2.3108754"
       x="-0.65543765"
       id="filter2268"
       style="color-interpolation-filters:sRGB">
      <feGaussianBlur
         id="feGaussianBlur2270"
         stdDeviation="7.1879676" />
    </filter>
    <filter
       height="2.5682838"
       y="-0.7841419"
       width="2.5079651"
       x="-0.7539826"
       id="filter2272"
       style="color-interpolation-filters:sRGB">
      <feGaussianBlur
         id="feGaussianBlur2274"
         stdDeviation="7.1879676" />
    </filter>
    <filter
       height="2.1500747"
       y="-0.57503742"
       width="3.8005068"
       x="-1.4002534"
       id="filter2276"
       style="color-interpolation-filters:sRGB">
      <feGaussianBlur
         id="feGaussianBlur2278"
         stdDeviation="7.1879676" />
    </filter>
    <filter
       height="2.2357538"
       y="-0.61787689"
       width="2.2537153"
       x="-0.62685764"
       id="filter2280"
       style="color-interpolation-filters:sRGB">
      <feGaussianBlur
         id="feGaussianBlur2282"
         stdDeviation="7.1879676" />
    </filter>
    <filter
       height="2.5682838"
       y="-0.7841419"
       width="2.6152737"
       x="-0.8076368"
       id="filter2284"
       style="color-interpolation-filters:sRGB">
      <feGaussianBlur
         id="feGaussianBlur2286"
         stdDeviation="7.1879676" />
    </filter>
    <filter
       height="2.2684648"
       y="-0.6342324"
       width="2.4545634"
       x="-0.72728169"
       id="filter2288"
       style="color-interpolation-filters:sRGB">
      <feGaussianBlur
         id="feGaussianBlur2290"
         stdDeviation="7.1879676" />
    </filter>
    <filter
       height="2.1656165"
       y="-0.5828082"
       width="3.7734923"
       x="-1.3867462"
       id="filter2292"
       style="color-interpolation-filters:sRGB">
      <feGaussianBlur
         id="feGaussianBlur2294"
         stdDeviation="7.1879676" />
    </filter>
    <filter
       height="2.5682838"
       y="-0.7841419"
       width="2.5000975"
       x="-0.75004882"
       id="filter2296"
       style="color-interpolation-filters:sRGB">
      <feGaussianBlur
         id="feGaussianBlur2298"
         stdDeviation="7.1879676" />
    </filter>
    <filter
       height="2.5682838"
       y="-0.7841419"
       width="2.4897342"
       x="-0.74486709"
       id="filter2300"
       style="color-interpolation-filters:sRGB">
      <feGaussianBlur
         id="feGaussianBlur2302"
         stdDeviation="7.1879676" />
    </filter>
    <filter
       height="2.349853"
       y="-0.67492652"
       width="3.4644461"
       x="-1.232223"
       id="filter2304"
       style="color-interpolation-filters:sRGB">
      <feGaussianBlur
         id="feGaussianBlur2306"
         stdDeviation="7.1879676" />
    </filter>
    <filter
       height="2.5682838"
       y="-0.7841419"
       width="2.6305408"
       x="-0.81527042"
       id="filter2308"
       style="color-interpolation-filters:sRGB">
      <feGaussianBlur
         id="feGaussianBlur2310"
         stdDeviation="7.1879676" />
    </filter>
    <filter
       height="2.1500747"
       y="-0.57503742"
       width="3.8005068"
       x="-1.4002535"
       id="filter2312"
       style="color-interpolation-filters:sRGB">
      <feGaussianBlur
         id="feGaussianBlur2314"
         stdDeviation="7.1879676" />
    </filter>
    <filter
       height="2.2684648"
       y="-0.6342324"
       width="2.3756876"
       x="-0.6878438"
       id="filter2316"
       style="color-interpolation-filters:sRGB">
      <feGaussianBlur
         id="feGaussianBlur2318"
         stdDeviation="7.1879676" />
    </filter>
    <filter
       height="2.1656165"
       y="-0.5828082"
       width="3.7734923"
       x="-1.3867462"
       id="filter2320"
       style="color-interpolation-filters:sRGB">
      <feGaussianBlur
         id="feGaussianBlur2322"
         stdDeviation="7.1879676" />
    </filter>
    <filter
       height="2.1656165"
       y="-0.5828082"
       width="3.7734923"
       x="-1.3867462"
       id="filter2324"
       style="color-interpolation-filters:sRGB">
      <feGaussianBlur
         id="feGaussianBlur2326"
         stdDeviation="7.1879676" />
    </filter>
    <filter
       height="2.5682838"
       y="-0.7841419"
       width="2.5000975"
       x="-0.75004882"
       id="filter2328"
       style="color-interpolation-filters:sRGB">
      <feGaussianBlur
         id="feGaussianBlur2330"
         stdDeviation="7.1879676" />
    </filter>
    <filter
       height="2.349853"
       y="-0.67492652"
       width="3.4644461"
       x="-1.232223"
       id="filter2332"
       style="color-interpolation-filters:sRGB">
      <feGaussianBlur
         id="feGaussianBlur2334"
         stdDeviation="7.1879676" />
    </filter>
    <filter
       height="2.5682838"
       y="-0.7841419"
       width="2.7895355"
       x="-0.89476776"
       id="filter2336"
       style="color-interpolation-filters:sRGB">
      <feGaussianBlur
         id="feGaussianBlur2338"
         stdDeviation="7.1879676" />
    </filter>
    <filter
       height="2.5682838"
       y="-0.7841419"
       width="2.5079651"
       x="-0.7539826"
       id="filter2340"
       style="color-interpolation-filters:sRGB">
      <feGaussianBlur
         id="feGaussianBlur2342"
         stdDeviation="7.1879676" />
    </filter>
    <filter
       height="2.3069031"
       y="-0.65345162"
       width="3.4857526"
       x="-1.2428762"
       id="filter2344"
       style="color-interpolation-filters:sRGB">
      <feGaussianBlur
         id="feGaussianBlur2346"
         stdDeviation="7.1879676" />
    </filter>
    <radialGradient
       gradientUnits="userSpaceOnUse"
       gradientTransform="matrix(2.1026284,0,0,1.3141428,0,60.673686)"
       r="105.70104"
       fy="59.53125"
       fx="105.70104"
       cy="59.53125"
       cx="105.70104"
       id="radialGradient954"
       xlink:href="#linearGradient952" />
    <linearGradient
       xlink:href="#linearGradient866"
       id="linearGradient868"
       x1="443.93756"
       y1="139.69971"
       x2="444.5"
       y2="138.90625"
       gradientUnits="userSpaceOnUse"
       gradientTransform="translate(1e-5)" />
    <linearGradient
       id="linearGradient866">
      <stop
         style="stop-color:#6e7078;stop-opacity:1;"
         offset="0"
         id="stop862" />
      <stop
         style="stop-color:#6e7078;stop-opacity:0;"
         offset="1"
         id="stop864" />
    </linearGradient>
    <linearGradient
       gradientUnits="userSpaceOnUse"
       y2="138.90625"
       x2="465.91299"
       y1="139.3998"
       x1="444.19131"
       id="linearGradient1019-7"
       xlink:href="#linearGradient866"
       gradientTransform="translate(-1.5e-4,4.6e-4)" />
  </defs>
  <metadata
     id="metadata3354">
    <rdf:RDF>
      <cc:Work
         rdf:about="">
        <dc:format>image/svg+xml</dc:format>
        <dc:type
           rdf:resource="http://purl.org/dc/dcmitype/StillImage" />
        <dc:title></dc:title>
      </cc:Work>
    </rdf:RDF>
  </metadata>
  <g
     id="flowRoot985"
     style="font-style:normal;font-weight:normal;font-size:40px;line-height:1.25;font-family:sans-serif;letter-spacing:0px;word-spacing:0px;fill:#000000;fill-opacity:1;stroke:none"
     transform="matrix(0.26458333,0,0,0.26458333,-257.69391,561.87348)" />
  <g
     id="flowRoot993"
     style="font-style:normal;font-weight:normal;font-size:40px;line-height:1.25;font-family:sans-serif;letter-spacing:0px;word-spacing:0px;fill:#000000;fill-opacity:1;stroke:none"
     transform="matrix(0.26458333,0,0,0.26458333,-257.69391,561.87348)" />
  <path
     style="opacity:1;fill:url(#linearGradient1019-7);fill-opacity:1;stroke:none;stroke-width:9.70262432;stroke-miterlimit:4;stroke-dasharray:none;paint-order:stroke markers fill"
     d="M 286.33187,0 H 0 V 277.8125 H 444.5 V 132.71902 Z"
     id="path1098" />
  <g
     id="flowRoot2762"
     style="font-style:normal;font-weight:normal;font-size:40px;line-height:1.25;font-family:sans-serif;letter-spacing:0px;word-spacing:0px;fill:#ffffff;fill-opacity:1;stroke:none"
     transform="matrix(1.1628786,0,0,1.29498,-573.89627,-308.21468)"
     aria-label="Install  VirtualBox in Debian Buster">
    <path
       id="path2774"
       style="font-style:normal;font-variant:normal;font-weight:bold;font-stretch:normal;font-family:'EB Garamond';-inkscape-font-specification:'EB Garamond Bold';text-align:center;text-anchor:middle;fill:#ffffff"
       d="m 623.56538,305.7359 q -0.32,0 -0.56,-0.12 -0.24,-0.16 -0.24,-0.44 0,-0.64 0.84,-0.84 1.52,-0.32 2.12,-0.8 0.6,-0.52 0.6,-1.8 v -18.16 q 0,-1.28 -0.52,-1.8 -0.52,-0.56 -2.12,-0.92 -0.84,-0.2 -0.84,-0.84 0,-0.28 0.24,-0.44 0.24,-0.16 0.56,-0.16 0.92,0 1.92,0.04 1.04,0.04 2,0.12 1,0.04 1.84,0.04 0.8,0 1.8,-0.04 1.04,-0.04 2.08,-0.08 1.08,-0.04 1.96,-0.04 0.36,0 0.56,0.16 0.2,0.12 0.2,0.4 0,0.4 -0.24,0.56 -0.2,0.16 -0.64,0.28 -1.6,0.44 -2.12,1 -0.52,0.52 -0.52,1.76 v 18.08 q 0,1.16 0.56,1.72 0.6,0.52 2.16,0.92 0.4,0.12 0.6,0.28 0.24,0.16 0.24,0.52 0,0.28 -0.2,0.44 -0.16,0.16 -0.52,0.16 -0.88,0 -1.96,-0.08 -1.08,-0.04 -2.12,-0.08 -1.04,-0.04 -1.84,-0.04 -0.84,0 -1.84,0.04 -1,0.04 -2.04,0.08 -1.04,0.08 -1.96,0.08 z" />
    <path
       id="path2776"
       style="font-style:normal;font-variant:normal;font-weight:bold;font-stretch:normal;font-family:'EB Garamond';-inkscape-font-specification:'EB Garamond Bold';text-align:center;text-anchor:middle;fill:#ffffff"
       d="m 638.32532,305.7359 q -0.28,0 -0.56,-0.12 -0.24,-0.16 -0.24,-0.44 0,-0.32 0.28,-0.48 0.28,-0.2 0.64,-0.32 0.6,-0.2 1.04,-0.44 0.48,-0.28 0.48,-1.08 v -9.16 q 0,-0.88 -0.28,-1.48 -0.24,-0.6 -0.96,-0.76 -0.16,-0.04 -0.32,-0.2 -0.12,-0.16 -0.12,-0.52 0,-0.56 0.4,-0.68 1.36,-0.32 2.96,-0.84 1.64,-0.56 2.8,-1.16 0.16,-0.08 0.36,-0.2 0.2,-0.12 0.36,-0.12 0.24,0 0.28,0.16 0.08,0.12 0.08,0.32 0,0.32 -0.12,1.04 -0.08,0.68 -0.08,1.24 0,0.16 0,0.36 0.04,0.2 0.08,0.24 1.36,-1.32 2.76,-2.04 1.4,-0.72 3.24,-0.72 2.08,0 3.48,1.56 1.44,1.52 1.44,4.16 v 8.8 q 0,0.8 0.44,1.08 0.48,0.24 1.08,0.44 0.32,0.12 0.56,0.32 0.24,0.16 0.24,0.48 0,0.28 -0.24,0.44 -0.2,0.12 -0.44,0.12 -0.8,0 -1.52,-0.08 -0.68,-0.04 -1.36,-0.08 -0.64,-0.04 -1.36,-0.04 -0.68,0 -1.36,0.04 -0.68,0.04 -1.36,0.08 -0.68,0.08 -1.48,0.08 -0.24,0 -0.48,-0.12 -0.2,-0.16 -0.2,-0.44 0,-0.32 0.24,-0.48 0.24,-0.2 0.56,-0.32 0.6,-0.2 1,-0.44 0.4,-0.28 0.4,-1.08 v -7.96 q 0,-1.52 -0.72,-2.36 -0.68,-0.88 -1.84,-0.92 -0.88,0 -1.56,0.28 -0.68,0.28 -1.4,0.76 -0.16,0.16 -0.24,0.36 -0.08,0.2 -0.08,0.4 v 9.44 q 0,0.8 0.44,1.08 0.44,0.24 1,0.44 0.8,0.24 0.8,0.8 0,0.24 -0.2,0.4 -0.2,0.16 -0.48,0.16 -0.8,0 -1.48,-0.08 -0.68,-0.04 -1.28,-0.08 -0.6,-0.04 -1.32,-0.04 -0.68,0 -1.4,0.04 -0.68,0.04 -1.44,0.08 -0.72,0.08 -1.52,0.08 z" />
    <path
       id="path2778"
       style="font-style:normal;font-variant:normal;font-weight:bold;font-stretch:normal;font-family:'EB Garamond';-inkscape-font-specification:'EB Garamond Bold';text-align:center;text-anchor:middle;fill:#ffffff"
       d="m 665.92532,306.1759 q -1.32,0 -2.56,-0.32 -1.24,-0.32 -2.24,-1.04 -0.36,-0.6 -0.52,-1.88 -0.16,-1.28 -0.12,-2.68 0,-0.48 0.8,-0.48 0.32,0 0.56,0.2 0.24,0.2 0.28,0.4 0.76,1.68 1.76,2.88 1,1.16 2.4,1.16 1.08,0 1.64,-0.64 0.56,-0.68 0.56,-1.52 0,-1.04 -0.84,-1.72 -0.8,-0.72 -1.96,-1.32 -1.16,-0.6 -2.2,-1.36 -1.04,-0.76 -1.72,-1.8 -0.64,-1.08 -0.64,-2.56 0,-1.56 0.84,-2.72 0.88,-1.16 2.32,-1.8 1.48,-0.68 3.28,-0.68 1.32,0 2.44,0.32 1.12,0.28 1.52,0.56 0.32,0.4 0.52,1.52 0.2,1.08 0.2,2.4 0,0.44 -0.72,0.44 -0.28,0 -0.6,-0.2 -0.28,-0.2 -0.36,-0.4 -0.52,-1.56 -1.36,-2.32 -0.8,-0.8 -1.8,-0.8 -0.88,0 -1.6,0.56 -0.72,0.56 -0.72,1.52 0,0.84 0.76,1.52 0.8,0.64 1.96,1.28 2.6,1.36 3.72,2.64 1.12,1.24 1.12,3.32 0,2.6 -1.72,4.08 -1.68,1.44 -5,1.44 z" />
    <path
       id="path2780"
       style="font-style:normal;font-variant:normal;font-weight:bold;font-stretch:normal;font-family:'EB Garamond';-inkscape-font-specification:'EB Garamond Bold';text-align:center;text-anchor:middle;fill:#ffffff"
       d="m 682.48527,306.1759 q -2.64,0 -3.96,-1.32 -1.32,-1.36 -1.32,-3.8 v -9.2 q 0,-0.36 -0.28,-0.52 -0.24,-0.16 -0.96,-0.2 h -0.52 q -0.28,0 -0.48,-0.44 -0.16,-0.48 -0.16,-0.84 0,-0.08 0.04,-0.2 0.08,-0.16 0.2,-0.2 0.96,-0.36 2.04,-1.08 1.12,-0.76 2.12,-1.6 1.04,-0.84 1.68,-1.4 0.28,-0.2 0.48,-0.36 0.2,-0.16 0.52,-0.16 0.36,0 0.52,0.16 0.16,0.12 0.08,0.64 l -0.24,2.36 q -0.04,0.48 0.2,0.68 0.28,0.16 0.76,0.16 h 4.76 q 0.12,0 0.24,0.28 0.12,0.28 0.12,0.52 0,0.56 -0.16,1.08 -0.16,0.52 -0.36,0.52 h -3.72 q -0.92,0 -1.28,0.24 -0.32,0.2 -0.32,0.76 v 7.56 q 0,1.84 0.68,2.76 0.72,0.88 1.88,0.88 1.16,0 1.68,-0.24 0.56,-0.24 1,-0.4 0.16,-0.08 0.24,-0.08 0.2,0 0.32,0.24 0.12,0.24 0.12,0.56 0,0.24 -0.84,0.88 -0.84,0.64 -2.2,1.2 -1.32,0.56 -2.88,0.56 z" />
    <path
       id="path2782"
       style="font-style:normal;font-variant:normal;font-weight:bold;font-stretch:normal;font-family:'EB Garamond';-inkscape-font-specification:'EB Garamond Bold';text-align:center;text-anchor:middle;fill:#ffffff"
       d="m 693.88519,306.1759 q -1.08,0 -2,-0.52 -0.92,-0.52 -1.48,-1.36 -0.52,-0.84 -0.52,-1.84 0,-1.36 0.84,-2.28 0.88,-0.92 2.56,-1.64 l 3.56,-1.56 q 0.8,-0.36 0.96,-0.64 0.2,-0.28 0.2,-1.04 l 0.04,-2.28 q 0.04,-1.12 -0.4,-1.76 -0.44,-0.68 -1.32,-0.68 -0.52,0 -1.04,0.24 -0.52,0.2 -0.8,0.48 -0.12,0.16 -0.2,0.4 -0.04,0.2 -0.04,0.44 0,0.24 0.04,0.6 0.04,0.32 0.04,0.56 0,0.24 -0.64,0.64 -0.64,0.36 -1.48,0.68 -0.84,0.28 -1.44,0.28 -0.28,0 -0.52,-0.24 -0.2,-0.24 -0.2,-0.6 0,-0.64 0.44,-1.24 0.44,-0.64 1.44,-1.44 1.04,-0.88 2.28,-1.56 1.24,-0.68 2.44,-1.08 1.24,-0.4 2.08,-0.4 2.16,0 3.44,1.4 1.28,1.36 1.2,3.64 l -0.2,8.08 q -0.04,0.92 0.32,1.56 0.36,0.64 0.88,0.64 0.76,0 1.32,-0.52 0.12,-0.12 0.24,-0.12 0.2,0 0.32,0.12 0.16,0.12 0.16,0.32 0,0.48 -0.72,1.24 -0.76,0.72 -1.6,1.08 -0.84,0.4 -1.76,0.4 -2.24,0 -3.72,-2.28 h -0.08 q -1.32,1.2 -2.4,1.72 -1.04,0.56 -2.24,0.56 z m 2.4,-2.6 q 0.44,0 0.72,-0.12 0.28,-0.16 0.56,-0.48 0.12,-0.16 0.2,-0.4 0.08,-0.28 0.08,-0.64 l 0.12,-2.88 q 0,-0.4 -0.12,-0.52 -0.12,-0.12 -0.28,-0.12 -0.08,0 -0.2,0.04 -0.12,0.04 -0.28,0.12 -1.16,0.56 -1.72,1.16 -0.56,0.56 -0.56,1.84 0,1.16 0.48,1.6 0.48,0.4 1,0.4 z" />
    <path
       id="path2784"
       style="font-style:normal;font-variant:normal;font-weight:bold;font-stretch:normal;font-family:'EB Garamond';-inkscape-font-specification:'EB Garamond Bold';text-align:center;text-anchor:middle;fill:#ffffff"
       d="m 707.68518,305.7359 q -0.36,0 -0.6,-0.12 -0.2,-0.16 -0.2,-0.44 0,-0.32 0.24,-0.48 0.24,-0.2 0.68,-0.32 0.6,-0.2 1.04,-0.44 0.48,-0.24 0.48,-1.08 v -19.24 q 0,-1.08 -0.32,-1.88 -0.28,-0.8 -1.28,-1 -0.4,-0.08 -0.4,-0.6 0,-0.52 0.36,-0.6 1.04,-0.2 2.24,-0.56 1.2,-0.4 2.28,-0.8 1.08,-0.44 1.68,-0.64 0.32,-0.12 0.52,-0.12 0.24,0 0.32,0.16 0.08,0.12 0.08,0.32 0,0.28 -0.12,1.04 -0.08,0.76 -0.12,1.72 v 22.12 q 0,0.88 0.44,1.12 0.48,0.2 1.08,0.4 0.44,0.16 0.68,0.32 0.24,0.16 0.24,0.48 0,0.28 -0.24,0.44 -0.2,0.12 -0.56,0.12 -0.76,0 -1.52,-0.04 -0.72,-0.04 -1.44,-0.04 -0.68,-0.04 -1.4,-0.04 -0.68,0 -1.36,0.04 -0.64,0.04 -1.32,0.08 -0.68,0.08 -1.48,0.08 z" />
    <path
       id="path2786"
       style="font-style:normal;font-variant:normal;font-weight:bold;font-stretch:normal;font-family:'EB Garamond';-inkscape-font-specification:'EB Garamond Bold';text-align:center;text-anchor:middle;fill:#ffffff"
       d="m 719.08517,305.7359 q -0.36,0 -0.6,-0.12 -0.2,-0.16 -0.2,-0.44 0,-0.32 0.24,-0.48 0.24,-0.2 0.68,-0.32 0.6,-0.2 1.04,-0.44 0.48,-0.24 0.48,-1.08 v -19.24 q 0,-1.08 -0.32,-1.88 -0.28,-0.8 -1.28,-1 -0.4,-0.08 -0.4,-0.6 0,-0.52 0.36,-0.6 1.04,-0.2 2.24,-0.56 1.2,-0.4 2.28,-0.8 1.08,-0.44 1.68,-0.64 0.32,-0.12 0.52,-0.12 0.24,0 0.32,0.16 0.08,0.12 0.08,0.32 0,0.28 -0.12,1.04 -0.08,0.76 -0.12,1.72 v 22.12 q 0,0.88 0.44,1.12 0.48,0.2 1.08,0.4 0.44,0.16 0.68,0.32 0.24,0.16 0.24,0.48 0,0.28 -0.24,0.44 -0.2,0.12 -0.56,0.12 -0.76,0 -1.52,-0.04 -0.72,-0.04 -1.44,-0.04 -0.68,-0.04 -1.4,-0.04 -0.68,0 -1.36,0.04 -0.64,0.04 -1.32,0.08 -0.68,0.08 -1.48,0.08 z" />
    <path
       id="path2788"
       style="font-style:normal;font-variant:normal;font-weight:bold;font-stretch:normal;font-family:'EB Garamond';-inkscape-font-specification:'EB Garamond Bold';text-align:center;text-anchor:middle;fill:#ffffff"
       d="m 576.24558,356.77118 q -0.52,0 -0.8,-0.64 -0.28,-0.6 -0.72,-1.6 -0.4,-1 -0.68,-1.88 l -7.88,-18.56 q -0.4,-0.96 -1.08,-1.68 -0.64,-0.76 -1.8,-1.04 -0.4,-0.16 -0.68,-0.32 -0.28,-0.16 -0.28,-0.56 0,-0.28 0.24,-0.4 0.28,-0.16 0.6,-0.16 0.8,0 1.84,0.04 1.08,0.04 2.16,0.08 1.08,0.04 1.84,0.04 0.8,0 1.96,-0.04 1.16,-0.08 2.32,-0.08 1.16,-0.04 1.96,-0.04 0.36,0 0.72,0.16 0.36,0.12 0.36,0.4 0,0.32 -0.36,0.56 -0.36,0.2 -0.8,0.28 -1.16,0.28 -1.72,0.6 -0.56,0.32 -0.56,1 0,0.28 0.08,0.6 0.08,0.28 0.12,0.52 l 5.16,14.48 q 0.08,0.24 0.16,0.28 0.12,0.04 0.24,-0.32 l 4.68,-12.28 q 0.8,-2.04 0.32,-3.32 -0.48,-1.28 -2.24,-1.52 -0.44,-0.08 -0.84,-0.28 -0.4,-0.24 -0.4,-0.6 0,-0.28 0.36,-0.4 0.4,-0.12 0.8,-0.12 0.84,0 1.4,0.04 0.56,0 1.08,0.04 0.56,0 1.36,0 1.16,0 2.2,-0.08 1.04,-0.12 2.2,-0.12 0.44,0 0.8,0.12 0.4,0.12 0.4,0.52 0,0.36 -0.36,0.52 -0.32,0.12 -0.72,0.28 -1.28,0.32 -2.08,1.24 -0.76,0.88 -1.48,2.64 l -6.08,14.56 q -0.64,1.48 -1.16,2.6 -0.48,1.12 -0.88,2.04 -0.4,0.92 -0.84,1.76 -0.12,0.36 -0.32,0.48 -0.2,0.16 -0.6,0.16 z" />
    <path
       id="path2790"
       style="font-style:normal;font-variant:normal;font-weight:bold;font-stretch:normal;font-family:'EB Garamond';-inkscape-font-specification:'EB Garamond Bold';text-align:center;text-anchor:middle;fill:#ffffff"
       d="m 590.92548,356.21118 q -0.24,0 -0.44,-0.12 -0.2,-0.16 -0.2,-0.4 0,-0.32 0.2,-0.52 0.2,-0.2 0.52,-0.28 1.04,-0.24 1.44,-0.52 0.44,-0.32 0.44,-0.96 v -8.64 q 0,-1.36 -0.44,-1.92 -0.4,-0.6 -1.28,-0.72 -0.24,-0.04 -0.36,-0.24 -0.12,-0.2 -0.12,-0.48 0,-0.6 0.44,-0.68 2.08,-0.4 3.68,-1.12 1.64,-0.72 2.52,-1.12 0.64,-0.32 0.8,-0.32 0.52,0 0.52,0.48 -0.04,0.68 -0.2,1.72 -0.12,1 -0.24,2.08 -0.08,1.08 -0.08,2.08 v 8.84 q 0,0.56 0.4,0.88 0.44,0.32 1.52,0.64 0.32,0.12 0.52,0.28 0.2,0.16 0.2,0.48 0,0.52 -0.6,0.52 -0.76,0 -1.6,-0.04 -0.84,-0.04 -1.64,-0.08 -0.76,-0.04 -1.48,-0.04 -0.68,0 -1.44,0.04 -0.72,0.04 -1.52,0.08 -0.76,0.08 -1.56,0.08 z m 4.4,-19.84 q -1.24,0 -2.2,-0.92 -0.92,-0.92 -0.92,-2.2 0,-1.36 0.92,-2.28 0.96,-0.92 2.2,-0.92 1.4,0 2.32,0.92 0.92,0.92 0.92,2.28 0,1.28 -0.92,2.2 -0.92,0.92 -2.32,0.92 z" />
    <path
       id="path2792"
       style="font-style:normal;font-variant:normal;font-weight:bold;font-stretch:normal;font-family:'EB Garamond';-inkscape-font-specification:'EB Garamond Bold';text-align:center;text-anchor:middle;fill:#ffffff"
       d="m 602.92541,356.21118 q -0.32,0 -0.56,-0.12 -0.24,-0.16 -0.24,-0.44 0,-0.32 0.24,-0.48 0.24,-0.2 0.68,-0.32 0.88,-0.28 1.16,-0.6 0.32,-0.32 0.32,-0.92 v -9.2 q 0,-0.84 -0.24,-1.36 -0.2,-0.56 -0.96,-0.76 -0.2,-0.08 -0.36,-0.2 -0.16,-0.16 -0.16,-0.52 0,-0.56 0.48,-0.68 1.28,-0.32 2.8,-0.84 1.56,-0.52 2.64,-1.04 0.2,-0.16 0.48,-0.28 0.32,-0.16 0.44,-0.16 0.36,0 0.36,0.44 0,0.2 -0.04,0.84 0,0.6 -0.04,1.24 0,0.64 -0.04,1.08 0,0.36 0.16,0.36 0.6,-0.84 1.4,-1.64 0.84,-0.8 1.8,-1.32 0.96,-0.52 1.88,-0.52 1.4,0 1.96,0.52 0.6,0.52 0.6,1.36 0,0.6 -0.36,1.32 -0.32,0.72 -0.84,1.24 -0.52,0.52 -1.12,0.52 -0.36,0 -0.76,-0.16 -0.4,-0.2 -0.8,-0.4 -0.4,-0.16 -0.8,-0.32 -0.36,-0.2 -0.68,-0.2 -1.04,0 -1.8,0.76 -0.76,0.76 -0.76,3.04 v 6.52 q 0,0.8 0.48,1.2 0.52,0.36 1.64,0.68 0.44,0.12 0.64,0.32 0.24,0.16 0.24,0.48 0,0.56 -0.68,0.56 -1.2,0 -2.48,-0.12 -1.28,-0.08 -2.32,-0.08 -0.68,0 -1.4,0.04 -0.68,0.04 -1.44,0.08 -0.72,0.08 -1.52,0.08 z" />
    <path
       id="path2794"
       style="font-style:normal;font-variant:normal;font-weight:bold;font-stretch:normal;font-family:'EB Garamond';-inkscape-font-specification:'EB Garamond Bold';text-align:center;text-anchor:middle;fill:#ffffff"
       d="m 626.56539,356.65118 q -2.64,0 -3.96,-1.32 -1.32,-1.36 -1.32,-3.8 v -9.2 q 0,-0.36 -0.28,-0.52 -0.24,-0.16 -0.96,-0.2 h -0.52 q -0.28,0 -0.48,-0.44 -0.16,-0.48 -0.16,-0.84 0,-0.08 0.04,-0.2 0.08,-0.16 0.2,-0.2 0.96,-0.36 2.04,-1.08 1.12,-0.76 2.12,-1.6 1.04,-0.84 1.68,-1.4 0.28,-0.2 0.48,-0.36 0.2,-0.16 0.52,-0.16 0.36,0 0.52,0.16 0.16,0.12 0.08,0.64 l -0.24,2.36 q -0.04,0.48 0.2,0.68 0.28,0.16 0.76,0.16 h 4.76 q 0.12,0 0.24,0.28 0.12,0.28 0.12,0.52 0,0.56 -0.16,1.08 -0.16,0.52 -0.36,0.52 h -3.72 q -0.92,0 -1.28,0.24 -0.32,0.2 -0.32,0.76 v 7.56 q 0,1.84 0.68,2.76 0.72,0.88 1.88,0.88 1.16,0 1.68,-0.24 0.56,-0.24 1,-0.4 0.16,-0.08 0.24,-0.08 0.2,0 0.32,0.24 0.12,0.24 0.12,0.56 0,0.24 -0.84,0.88 -0.84,0.64 -2.2,1.2 -1.32,0.56 -2.88,0.56 z" />
    <path
       id="path2796"
       style="font-style:normal;font-variant:normal;font-weight:bold;font-stretch:normal;font-family:'EB Garamond';-inkscape-font-specification:'EB Garamond Bold';text-align:center;text-anchor:middle;fill:#ffffff"
       d="m 646.64531,356.93118 q -0.32,0 -0.32,-0.4 0,-0.48 0.08,-1.28 0.12,-0.8 0.12,-1.24 0,-0.16 -0.04,-0.28 0,-0.12 -0.04,-0.16 -1.08,1.32 -2.76,2.24 -1.68,0.88 -3.56,0.88 -1.24,0 -2.24,-0.72 -1,-0.76 -1.6,-2.04 -0.56,-1.28 -0.56,-2.88 v -7.48 q 0,-0.92 -0.36,-1.48 -0.32,-0.56 -1.24,-0.76 -0.24,-0.04 -0.44,-0.2 -0.16,-0.2 -0.16,-0.56 0,-0.28 0.16,-0.44 0.16,-0.2 0.44,-0.24 1.68,-0.08 3.04,-0.32 1.36,-0.28 2.76,-0.64 0.2,-0.04 0.4,-0.08 0.24,-0.08 0.44,-0.08 0.56,0 0.52,0.56 -0.16,0.92 -0.24,1.56 -0.08,0.6 -0.08,1.52 v 7.68 q 0,0.96 0.32,1.68 0.32,0.72 0.88,1.12 0.56,0.4 1.24,0.44 0.64,0 1.24,-0.16 0.64,-0.16 1.2,-0.72 0.24,-0.2 0.52,-0.8 0.28,-0.64 0.28,-1.68 v -6.44 q 0,-0.72 -0.28,-1.16 -0.28,-0.48 -0.76,-0.76 -0.48,-0.28 -1.12,-0.32 -0.44,-0.04 -0.72,-0.2 -0.24,-0.2 -0.24,-0.68 0,-0.4 0.28,-0.6 0.28,-0.2 0.68,-0.2 2.04,-0.12 3.24,-0.2 1.2,-0.12 1.96,-0.24 0.76,-0.12 1.52,-0.28 0.12,-0.04 0.28,-0.08 0.16,-0.04 0.24,-0.04 0.6,0 0.6,0.48 0,0.12 -0.04,0.28 -0.04,0.16 -0.12,0.32 -0.04,0.16 -0.12,0.72 -0.04,0.52 -0.12,1.12 -0.04,0.6 -0.04,0.96 v 9.28 q 0,0.92 0.2,1.24 0.24,0.28 0.52,0.28 0.2,0 0.6,0.04 0.4,0 0.52,0 0.36,0 0.56,0.2 0.2,0.2 0.2,0.52 0,0.36 -0.16,0.6 -0.12,0.2 -0.52,0.24 -1.92,0.16 -3.48,0.68 -1.52,0.48 -2.64,0.92 -0.24,0.08 -0.52,0.16 -0.28,0.12 -0.52,0.12 z" />
    <path
       id="path2798"
       style="font-style:normal;font-variant:normal;font-weight:bold;font-stretch:normal;font-family:'EB Garamond';-inkscape-font-specification:'EB Garamond Bold';text-align:center;text-anchor:middle;fill:#ffffff"
       d="m 660.00526,356.65118 q -1.08,0 -2,-0.52 -0.92,-0.52 -1.48,-1.36 -0.52,-0.84 -0.52,-1.84 0,-1.36 0.84,-2.28 0.88,-0.92 2.56,-1.64 l 3.56,-1.56 q 0.8,-0.36 0.96,-0.64 0.2,-0.28 0.2,-1.04 l 0.04,-2.28 q 0.04,-1.12 -0.4,-1.76 -0.44,-0.68 -1.32,-0.68 -0.52,0 -1.04,0.24 -0.52,0.2 -0.8,0.48 -0.12,0.16 -0.2,0.4 -0.04,0.2 -0.04,0.44 0,0.24 0.04,0.6 0.04,0.32 0.04,0.56 0,0.24 -0.64,0.64 -0.64,0.36 -1.48,0.68 -0.84,0.28 -1.44,0.28 -0.28,0 -0.52,-0.24 -0.2,-0.24 -0.2,-0.6 0,-0.64 0.44,-1.24 0.44,-0.64 1.44,-1.44 1.04,-0.88 2.28,-1.56 1.24,-0.68 2.44,-1.08 1.24,-0.4 2.08,-0.4 2.16,0 3.44,1.4 1.28,1.36 1.2,3.64 l -0.2,8.08 q -0.04,0.92 0.32,1.56 0.36,0.64 0.88,0.64 0.76,0 1.32,-0.52 0.12,-0.12 0.24,-0.12 0.2,0 0.32,0.12 0.16,0.12 0.16,0.32 0,0.48 -0.72,1.24 -0.76,0.72 -1.6,1.08 -0.84,0.4 -1.76,0.4 -2.24,0 -3.72,-2.28 h -0.08 q -1.32,1.2 -2.4,1.72 -1.04,0.56 -2.24,0.56 z m 2.4,-2.6 q 0.44,0 0.72,-0.12 0.28,-0.16 0.56,-0.48 0.12,-0.16 0.2,-0.4 0.08,-0.28 0.08,-0.64 l 0.12,-2.88 q 0,-0.4 -0.12,-0.52 -0.12,-0.12 -0.28,-0.12 -0.08,0 -0.2,0.04 -0.12,0.04 -0.28,0.12 -1.16,0.56 -1.72,1.16 -0.56,0.56 -0.56,1.84 0,1.16 0.48,1.6 0.48,0.4 1,0.4 z" />
    <path
       id="path2800"
       style="font-style:normal;font-variant:normal;font-weight:bold;font-stretch:normal;font-family:'EB Garamond';-inkscape-font-specification:'EB Garamond Bold';text-align:center;text-anchor:middle;fill:#ffffff"
       d="m 673.80525,356.21118 q -0.36,0 -0.6,-0.12 -0.2,-0.16 -0.2,-0.44 0,-0.32 0.24,-0.48 0.24,-0.2 0.68,-0.32 0.6,-0.2 1.04,-0.44 0.48,-0.24 0.48,-1.08 v -19.24 q 0,-1.08 -0.32,-1.88 -0.28,-0.8 -1.28,-1 -0.4,-0.08 -0.4,-0.6 0,-0.52 0.36,-0.6 1.04,-0.2 2.24,-0.56 1.2,-0.4 2.28,-0.8 1.08,-0.44 1.68,-0.64 0.32,-0.12 0.52,-0.12 0.24,0 0.32,0.16 0.08,0.12 0.08,0.32 0,0.28 -0.12,1.04 -0.08,0.76 -0.12,1.72 v 22.12 q 0,0.88 0.44,1.12 0.48,0.2 1.08,0.4 0.44,0.16 0.68,0.32 0.24,0.16 0.24,0.48 0,0.28 -0.24,0.44 -0.2,0.12 -0.56,0.12 -0.76,0 -1.52,-0.04 -0.72,-0.04 -1.44,-0.04 -0.68,-0.04 -1.4,-0.04 -0.68,0 -1.36,0.04 -0.64,0.04 -1.32,0.08 -0.68,0.08 -1.48,0.08 z" />
    <path
       id="path2802"
       style="font-style:normal;font-variant:normal;font-weight:bold;font-stretch:normal;font-family:'EB Garamond';-inkscape-font-specification:'EB Garamond Bold';text-align:center;text-anchor:middle;fill:#ffffff"
       d="m 685.24524,356.29118 q -0.36,0 -0.6,-0.2 -0.2,-0.16 -0.2,-0.4 0,-0.6 0.88,-0.84 1.36,-0.36 1.92,-0.84 0.6,-0.48 0.6,-1.76 v -18.2 q 0,-1.28 -0.52,-1.84 -0.52,-0.6 -1.92,-0.88 -0.52,-0.12 -0.72,-0.32 -0.2,-0.24 -0.2,-0.52 0,-0.24 0.24,-0.4 0.24,-0.2 0.6,-0.2 1.28,0 2.12,0.08 0.84,0.08 1.56,0.16 0.76,0.04 1.76,0.04 0.92,0 1.68,-0.08 0.76,-0.12 1.68,-0.2 0.96,-0.08 2.32,-0.08 4.76,0 7.2,1.36 2.48,1.32 2.48,4.6 0,1.24 -0.56,2.36 -0.56,1.08 -1.44,1.8 -0.64,0.56 -1.36,0.92 -0.68,0.36 -1.56,0.6 -0.16,0.04 -0.16,0.2 0,0.16 0.16,0.2 1.04,0.24 2.16,0.64 1.12,0.36 2.08,1.08 1,0.72 1.56,1.88 0.6,1.12 0.6,2.88 0,2.24 -0.72,3.56 -0.68,1.28 -1.68,1.96 -0.96,0.68 -1.8,1.12 -1.32,0.64 -3,0.96 -1.68,0.32 -4,0.32 -1.32,0 -2.68,-0.08 -1.32,-0.08 -2.8,-0.08 -0.84,0 -1.84,0.04 -1,0.04 -2,0.08 -0.96,0.08 -1.84,0.08 z m 11.2,-2.24 q 1.2,0 2.24,-0.72 1.08,-0.72 1.68,-1.92 0.64,-1.24 0.64,-2.8 0,-1.36 -0.36,-2.28 -0.32,-0.92 -0.8,-1.48 -0.44,-0.56 -0.84,-0.84 -0.32,-0.28 -1.16,-0.56 -0.8,-0.32 -2,-0.32 -0.68,0 -1.28,0.36 -0.56,0.32 -0.56,0.96 v 7.04 q 0,1.32 0.64,1.96 0.64,0.6 1.8,0.6 z m -0.84,-12.72 q 0.96,0 1.76,-0.2 0.8,-0.24 1.64,-0.88 0.28,-0.28 0.76,-1.12 0.52,-0.88 0.52,-2.52 0,-1.68 -0.44,-2.8 -0.44,-1.12 -1.36,-1.68 -0.88,-0.56 -2.36,-0.56 -1.12,0 -1.64,0.44 -0.48,0.4 -0.48,1.24 v 6.68 q 0,0.8 0.56,1.12 0.56,0.28 1.04,0.28 z" />
    <path
       id="path2804"
       style="font-style:normal;font-variant:normal;font-weight:bold;font-stretch:normal;font-family:'EB Garamond';-inkscape-font-specification:'EB Garamond Bold';text-align:center;text-anchor:middle;fill:#ffffff"
       d="m 718.28522,356.65118 q -2.4,0 -4.32,-1.08 -1.92,-1.08 -3.08,-2.96 -1.12,-1.92 -1.12,-4.32 0,-1.92 0.72,-3.64 0.72,-1.72 2,-3.04 1.28,-1.32 3,-2.08 1.72,-0.76 3.68,-0.76 2.48,0 4.48,1.16 2,1.16 3.16,3.08 1.2,1.88 1.2,4.12 0,2.56 -1.12,4.76 -1.08,2.16 -3.24,3.48 -2.12,1.28 -5.36,1.28 z m 0.8,-1.76 q 0.84,0 1.44,-0.32 0.64,-0.36 1.04,-1.04 0.48,-0.8 0.64,-2.16 0.2,-1.4 0.2,-3.28 0,-2.16 -0.48,-3.84 -0.48,-1.72 -1.36,-2.72 -0.84,-1 -2,-1 -0.64,0 -1.16,0.24 -0.52,0.2 -0.92,0.6 -0.68,0.8 -0.96,2.28 -0.24,1.48 -0.24,3.64 0,1.92 0.48,3.68 0.52,1.72 1.36,2.84 0.88,1.08 1.96,1.08 z" />
    <path
       id="path2806"
       style="font-style:normal;font-variant:normal;font-weight:bold;font-stretch:normal;font-family:'EB Garamond';-inkscape-font-specification:'EB Garamond Bold';text-align:center;text-anchor:middle;fill:#ffffff"
       d="m 729.04514,356.25118 q -0.28,0 -0.64,-0.08 -0.32,-0.08 -0.32,-0.36 0,-0.36 0.16,-0.52 0.2,-0.2 0.6,-0.36 0.44,-0.16 0.88,-0.56 0.48,-0.4 1.28,-1.44 l 3.68,-5.04 q 0.24,-0.32 0.24,-0.52 0,-0.2 -0.2,-0.52 l -3,-4.44 q -0.52,-0.8 -0.92,-1.28 -0.4,-0.48 -1.04,-0.72 -0.4,-0.12 -0.6,-0.28 -0.16,-0.2 -0.16,-0.56 0,-0.32 0.36,-0.4 0.36,-0.08 0.6,-0.08 1,0 1.52,0.08 0.52,0.04 1.04,0.12 0.56,0.04 1.44,0.04 1.16,0 1.92,-0.08 0.8,-0.12 2.12,-0.12 0.24,0 0.6,0.12 0.36,0.08 0.36,0.4 0,0.32 -0.32,0.44 -0.28,0.12 -0.6,0.28 -0.4,0.16 -0.76,0.36 -0.36,0.2 -0.36,0.6 0,0.24 0.16,0.56 0.16,0.32 0.36,0.68 l 1.84,2.68 q 0.2,0.36 0.36,0 l 1.24,-2.12 q 0.2,-0.4 0.36,-0.88 0.2,-0.48 0.16,-0.88 0,-0.64 -0.72,-0.92 -0.32,-0.16 -0.6,-0.28 -0.24,-0.12 -0.24,-0.48 0,-0.32 0.36,-0.4 0.36,-0.12 0.6,-0.12 1,0.04 1.52,0.08 0.56,0 1.08,0 0.6,0 1.04,-0.04 0.48,-0.08 1.52,-0.12 0.28,0 0.6,0.08 0.36,0.08 0.36,0.4 0,0.32 -0.2,0.52 -0.16,0.16 -0.56,0.32 -0.44,0.16 -0.96,0.56 -0.48,0.4 -1.24,1.4 l -2.88,3.84 q -0.24,0.36 -0.24,0.56 0.04,0.2 0.24,0.48 l 3.36,5.28 q 0.52,0.84 1.2,1.44 0.68,0.6 1.4,0.88 0.4,0.12 0.56,0.32 0.2,0.16 0.2,0.52 0,0.32 -0.36,0.4 -0.32,0.08 -0.6,0.08 -0.96,0 -1.68,-0.08 -0.68,-0.04 -1.36,-0.08 -0.68,-0.08 -1.56,-0.08 -1.2,0 -2.2,0.12 -0.96,0.08 -2.32,0.08 -0.96,0 -0.96,-0.52 0,-0.36 0.24,-0.48 0.28,-0.16 0.68,-0.28 0.52,-0.16 0.84,-0.48 0.32,-0.32 0.32,-1.04 0,-0.4 -0.08,-0.68 -0.08,-0.32 -0.4,-0.76 l -2.04,-3 q -0.12,-0.12 -0.24,0 l -1.88,3.32 q -0.12,0.24 -0.36,0.68 -0.2,0.44 -0.2,0.88 0,0.4 0.16,0.72 0.2,0.28 0.56,0.48 0.32,0.12 0.6,0.28 0.28,0.12 0.28,0.44 0,0.32 -0.36,0.4 -0.32,0.12 -0.6,0.12 -1.04,0 -1.48,-0.04 -0.44,-0.04 -0.96,-0.04 -0.6,0 -1.2,0 -0.56,0.04 -1.6,0.12 z" />
    <path
       id="path2808"
       style="font-style:normal;font-variant:normal;font-weight:bold;font-stretch:normal;font-family:'EB Garamond';-inkscape-font-specification:'EB Garamond Bold';text-align:center;text-anchor:middle;fill:#ffffff"
       d="m 758.52504,356.21118 q -0.24,0 -0.44,-0.12 -0.2,-0.16 -0.2,-0.4 0,-0.32 0.2,-0.52 0.2,-0.2 0.52,-0.28 1.04,-0.24 1.44,-0.52 0.44,-0.32 0.44,-0.96 v -8.64 q 0,-1.36 -0.44,-1.92 -0.4,-0.6 -1.28,-0.72 -0.24,-0.04 -0.36,-0.24 -0.12,-0.2 -0.12,-0.48 0,-0.6 0.44,-0.68 2.08,-0.4 3.68,-1.12 1.64,-0.72 2.52,-1.12 0.64,-0.32 0.8,-0.32 0.52,0 0.52,0.48 -0.04,0.68 -0.2,1.72 -0.12,1 -0.24,2.08 -0.08,1.08 -0.08,2.08 v 8.84 q 0,0.56 0.4,0.88 0.44,0.32 1.52,0.64 0.32,0.12 0.52,0.28 0.2,0.16 0.2,0.48 0,0.52 -0.6,0.52 -0.76,0 -1.6,-0.04 -0.84,-0.04 -1.64,-0.08 -0.76,-0.04 -1.48,-0.04 -0.68,0 -1.44,0.04 -0.72,0.04 -1.52,0.08 -0.76,0.08 -1.56,0.08 z m 4.4,-19.84 q -1.24,0 -2.2,-0.92 -0.92,-0.92 -0.92,-2.2 0,-1.36 0.92,-2.28 0.96,-0.92 2.2,-0.92 1.4,0 2.32,0.92 0.92,0.92 0.92,2.28 0,1.28 -0.92,2.2 -0.92,0.92 -2.32,0.92 z" />
    <path
       id="path2810"
       style="font-style:normal;font-variant:normal;font-weight:bold;font-stretch:normal;font-family:'EB Garamond';-inkscape-font-specification:'EB Garamond Bold';text-align:center;text-anchor:middle;fill:#ffffff"
       d="m 770.48497,356.21118 q -0.28,0 -0.56,-0.12 -0.24,-0.16 -0.24,-0.44 0,-0.32 0.28,-0.48 0.28,-0.2 0.64,-0.32 0.6,-0.2 1.04,-0.44 0.48,-0.28 0.48,-1.08 v -9.16 q 0,-0.88 -0.28,-1.48 -0.24,-0.6 -0.96,-0.76 -0.16,-0.04 -0.32,-0.2 -0.12,-0.16 -0.12,-0.52 0,-0.56 0.4,-0.68 1.36,-0.32 2.96,-0.84 1.64,-0.56 2.8,-1.16 0.16,-0.08 0.36,-0.2 0.2,-0.12 0.36,-0.12 0.24,0 0.28,0.16 0.08,0.12 0.08,0.32 0,0.32 -0.12,1.04 -0.08,0.68 -0.08,1.24 0,0.16 0,0.36 0.04,0.2 0.08,0.24 1.36,-1.32 2.76,-2.04 1.4,-0.72 3.24,-0.72 2.08,0 3.48,1.56 1.44,1.52 1.44,4.16 v 8.8 q 0,0.8 0.44,1.08 0.48,0.24 1.08,0.44 0.32,0.12 0.56,0.32 0.24,0.16 0.24,0.48 0,0.28 -0.24,0.44 -0.2,0.12 -0.44,0.12 -0.8,0 -1.52,-0.08 -0.68,-0.04 -1.36,-0.08 -0.64,-0.04 -1.36,-0.04 -0.68,0 -1.36,0.04 -0.68,0.04 -1.36,0.08 -0.68,0.08 -1.48,0.08 -0.24,0 -0.48,-0.12 -0.2,-0.16 -0.2,-0.44 0,-0.32 0.24,-0.48 0.24,-0.2 0.56,-0.32 0.6,-0.2 1,-0.44 0.4,-0.28 0.4,-1.08 v -7.96 q 0,-1.52 -0.72,-2.36 -0.68,-0.88 -1.84,-0.92 -0.88,0 -1.56,0.28 -0.68,0.28 -1.4,0.76 -0.16,0.16 -0.24,0.36 -0.08,0.2 -0.08,0.4 v 9.44 q 0,0.8 0.44,1.08 0.44,0.24 1,0.44 0.8,0.24 0.8,0.8 0,0.24 -0.2,0.4 -0.2,0.16 -0.48,0.16 -0.8,0 -1.48,-0.08 -0.68,-0.04 -1.28,-0.08 -0.6,-0.04 -1.32,-0.04 -0.68,0 -1.4,0.04 -0.68,0.04 -1.44,0.08 -0.72,0.08 -1.52,0.08 z" />
    <path
       id="path2812"
       style="font-style:normal;font-variant:normal;font-weight:bold;font-stretch:normal;font-family:'EB Garamond';-inkscape-font-specification:'EB Garamond Bold';text-align:center;text-anchor:middle;fill:#ffffff"
       d="m 571.36549,406.84646 q -1.36,0 -3,-0.08 -1.6,-0.08 -3,-0.16 -1.4,-0.04 -2.12,-0.04 -0.8,0 -1.76,0 -0.96,0.04 -2,0.08 -1,0.04 -1.92,0.04 -0.28,0 -0.52,-0.12 -0.24,-0.16 -0.24,-0.44 0,-0.36 0.2,-0.56 0.24,-0.2 0.64,-0.28 1.52,-0.32 2.08,-0.8 0.56,-0.52 0.56,-1.8 v -18.16 q 0,-1.28 -0.52,-1.8 -0.52,-0.56 -2.12,-0.92 -0.4,-0.08 -0.64,-0.28 -0.2,-0.2 -0.2,-0.56 0,-0.28 0.24,-0.44 0.24,-0.16 0.52,-0.16 0.92,0 1.92,0.04 1.04,0.04 2,0.12 1,0.04 1.8,0.04 0.64,0 1.68,-0.04 1.04,-0.08 2.24,-0.12 1.24,-0.08 2.36,-0.12 1.16,-0.08 1.88,-0.08 3.04,0 5.6,0.96 2.6,0.92 4.52,2.68 1.96,1.72 3.04,4.08 1.08,2.36 1.08,5.2 0,2.68 -0.96,5.16 -0.96,2.44 -2.8,4.4 -1.84,1.92 -4.48,3.04 -2.64,1.12 -6.08,1.12 z m -0.6,-2.04 q 2.72,0 4.56,-1.32 1.84,-1.36 2.72,-3.72 0.92,-2.4 0.92,-5.56 0,-2.68 -0.6,-4.84 -0.56,-2.2 -1.68,-3.76 -1.08,-1.56 -2.72,-2.4 -1.6,-0.88 -3.64,-0.88 -1.28,0 -2.16,0.08 -0.84,0.08 -1.28,0.4 -0.44,0.32 -0.44,1.04 v 17.44 q 0,1.32 0.48,2.08 0.52,0.76 1.48,1.12 1,0.32 2.36,0.32 z" />
    <path
       id="path2814"
       style="font-style:normal;font-variant:normal;font-weight:bold;font-stretch:normal;font-family:'EB Garamond';-inkscape-font-specification:'EB Garamond Bold';text-align:center;text-anchor:middle;fill:#ffffff"
       d="m 595.16545,407.12646 q -2.16,0 -3.88,-1.12 -1.68,-1.16 -2.68,-3.12 -0.96,-2 -0.96,-4.52 0,-2.52 1.16,-4.56 1.16,-2.08 3.16,-3.28 2,-1.24 4.4,-1.24 1.72,0 3.08,0.76 1.36,0.72 2.16,1.96 0.84,1.24 0.84,2.8 0,1.52 -1.24,1.52 h -8 q -0.56,0 -0.84,0.32 -0.24,0.32 -0.24,1.08 0,1.52 0.68,2.8 0.68,1.24 1.84,1.96 1.16,0.72 2.68,0.72 1.16,0 2.12,-0.44 1,-0.44 1.96,-1.2 0.16,-0.12 0.28,-0.2 0.16,-0.12 0.28,-0.12 0.4,0 0.4,0.52 0,0.44 -0.32,1.2 -0.4,1 -1.36,2 -0.92,0.96 -2.32,1.56 -1.4,0.6 -3.2,0.6 z m -1.96,-12.48 h 2.4 q 1.12,0 1.56,-0.04 0.44,-0.04 0.8,-0.16 0.2,-0.08 0.32,-0.4 0.12,-0.32 0.12,-0.72 0,-1.08 -0.76,-1.76 -0.72,-0.68 -1.8,-0.68 -0.84,0 -1.6,0.48 -0.72,0.44 -1.2,1.2 -0.44,0.72 -0.4,1.52 0,0.56 0.56,0.56 z" />
    <path
       id="path2816"
       style="font-style:normal;font-variant:normal;font-weight:bold;font-stretch:normal;font-family:'EB Garamond';-inkscape-font-specification:'EB Garamond Bold';text-align:center;text-anchor:middle;fill:#ffffff"
       d="m 613.9254,407.12646 q -1.16,0 -2.16,-0.2 -0.96,-0.2 -1.76,-0.4 -0.6,-0.2 -1.12,-0.32 -0.48,-0.12 -0.8,-0.12 -0.4,0 -0.76,0.16 -0.36,0.12 -0.68,0.36 -0.36,0.28 -0.56,0.28 -0.36,0 -0.56,-0.16 -0.16,-0.16 -0.16,-0.36 0,-0.36 0.2,-1.4 0.24,-1.04 0.2,-2.6 l -0.16,-17.8 q 0,-1.04 -0.32,-1.84 -0.28,-0.84 -1.24,-1.04 -0.2,-0.04 -0.36,-0.2 -0.12,-0.16 -0.12,-0.44 0,-0.2 0.12,-0.36 0.12,-0.16 0.32,-0.2 0.88,-0.16 2.04,-0.52 1.16,-0.4 2.24,-0.8 1.12,-0.44 1.72,-0.64 0.4,-0.16 0.56,-0.16 0.24,0 0.32,0.16 0.12,0.12 0.12,0.32 0,0.24 -0.12,1 -0.08,0.76 -0.08,1.52 v 8.56 q 0,0.52 0.08,0.84 0.08,0.28 0.28,0.28 1.24,-0.84 2.56,-1.28 1.36,-0.48 2.56,-0.48 2.08,0 3.76,1.08 1.68,1.08 2.64,2.96 1,1.88 1,4.24 0,2.8 -1.24,5 -1.24,2.16 -3.44,3.36 -2.16,1.2 -5.08,1.2 z m 0.72,-1.68 q 1.08,0 1.84,-0.92 0.76,-0.96 1.16,-2.52 0.44,-1.56 0.44,-3.4 0,-1.6 -0.44,-3.24 -0.4,-1.64 -1.32,-2.72 -0.88,-1.12 -2.28,-1.12 -0.72,0 -1.68,0.24 -0.96,0.2 -1.56,0.68 v 8.52 q 0,1.28 0.52,2.32 0.56,1.04 1.44,1.6 0.88,0.56 1.88,0.56 z" />
    <path
       id="path2818"
       style="font-style:normal;font-variant:normal;font-weight:bold;font-stretch:normal;font-family:'EB Garamond';-inkscape-font-specification:'EB Garamond Bold';text-align:center;text-anchor:middle;fill:#ffffff"
       d="m 626.08539,406.68646 q -0.24,0 -0.44,-0.12 -0.2,-0.16 -0.2,-0.4 0,-0.32 0.2,-0.52 0.2,-0.2 0.52,-0.28 1.04,-0.24 1.44,-0.52 0.44,-0.32 0.44,-0.96 v -8.64 q 0,-1.36 -0.44,-1.92 -0.4,-0.6 -1.28,-0.72 -0.24,-0.04 -0.36,-0.24 -0.12,-0.2 -0.12,-0.48 0,-0.6 0.44,-0.68 2.08,-0.4 3.68,-1.12 1.64,-0.72 2.52,-1.12 0.64,-0.32 0.8,-0.32 0.52,0 0.52,0.48 -0.04,0.68 -0.2,1.72 -0.12,1 -0.24,2.08 -0.08,1.08 -0.08,2.08 v 8.84 q 0,0.56 0.4,0.88 0.44,0.32 1.52,0.64 0.32,0.12 0.52,0.28 0.2,0.16 0.2,0.48 0,0.52 -0.6,0.52 -0.76,0 -1.6,-0.04 -0.84,-0.04 -1.64,-0.08 -0.76,-0.04 -1.48,-0.04 -0.68,0 -1.44,0.04 -0.72,0.04 -1.52,0.08 -0.76,0.08 -1.56,0.08 z m 4.4,-19.84 q -1.24,0 -2.2,-0.92 -0.92,-0.92 -0.92,-2.2 0,-1.36 0.92,-2.28 0.96,-0.92 2.2,-0.92 1.4,0 2.32,0.92 0.92,0.92 0.92,2.28 0,1.28 -0.92,2.2 -0.92,0.92 -2.32,0.92 z" />
    <path
       id="path2820"
       style="font-style:normal;font-variant:normal;font-weight:bold;font-stretch:normal;font-family:'EB Garamond';-inkscape-font-specification:'EB Garamond Bold';text-align:center;text-anchor:middle;fill:#ffffff"
       d="m 641.56532,407.12646 q -1.08,0 -2,-0.52 -0.92,-0.52 -1.48,-1.36 -0.52,-0.84 -0.52,-1.84 0,-1.36 0.84,-2.28 0.88,-0.92 2.56,-1.64 l 3.56,-1.56 q 0.8,-0.36 0.96,-0.64 0.2,-0.28 0.2,-1.04 l 0.04,-2.28 q 0.04,-1.12 -0.4,-1.76 -0.44,-0.68 -1.32,-0.68 -0.52,0 -1.04,0.24 -0.52,0.2 -0.8,0.48 -0.12,0.16 -0.2,0.4 -0.04,0.2 -0.04,0.44 0,0.24 0.04,0.6 0.04,0.32 0.04,0.56 0,0.24 -0.64,0.64 -0.64,0.36 -1.48,0.68 -0.84,0.28 -1.44,0.28 -0.28,0 -0.52,-0.24 -0.2,-0.24 -0.2,-0.6 0,-0.64 0.44,-1.24 0.44,-0.64 1.44,-1.44 1.04,-0.88 2.28,-1.56 1.24,-0.68 2.44,-1.08 1.24,-0.4 2.08,-0.4 2.16,0 3.44,1.4 1.28,1.36 1.2,3.64 l -0.2,8.08 q -0.04,0.92 0.32,1.56 0.36,0.64 0.88,0.64 0.76,0 1.32,-0.52 0.12,-0.12 0.24,-0.12 0.2,0 0.32,0.12 0.16,0.12 0.16,0.32 0,0.48 -0.72,1.24 -0.76,0.72 -1.6,1.08 -0.84,0.4 -1.76,0.4 -2.24,0 -3.72,-2.28 h -0.08 q -1.32,1.2 -2.4,1.72 -1.04,0.56 -2.24,0.56 z m 2.4,-2.6 q 0.44,0 0.72,-0.12 0.28,-0.16 0.56,-0.48 0.12,-0.16 0.2,-0.4 0.08,-0.28 0.08,-0.64 l 0.12,-2.88 q 0,-0.4 -0.12,-0.52 -0.12,-0.12 -0.28,-0.12 -0.08,0 -0.2,0.04 -0.12,0.04 -0.28,0.12 -1.16,0.56 -1.72,1.16 -0.56,0.56 -0.56,1.84 0,1.16 0.48,1.6 0.48,0.4 1,0.4 z" />
    <path
       id="path2822"
       style="font-style:normal;font-variant:normal;font-weight:bold;font-stretch:normal;font-family:'EB Garamond';-inkscape-font-specification:'EB Garamond Bold';text-align:center;text-anchor:middle;fill:#ffffff"
       d="m 655.56531,406.68646 q -0.28,0 -0.56,-0.12 -0.24,-0.16 -0.24,-0.44 0,-0.32 0.28,-0.48 0.28,-0.2 0.64,-0.32 0.6,-0.2 1.04,-0.44 0.48,-0.28 0.48,-1.08 v -9.16 q 0,-0.88 -0.28,-1.48 -0.24,-0.6 -0.96,-0.76 -0.16,-0.04 -0.32,-0.2 -0.12,-0.16 -0.12,-0.52 0,-0.56 0.4,-0.68 1.36,-0.32 2.96,-0.84 1.64,-0.56 2.8,-1.16 0.16,-0.08 0.36,-0.2 0.2,-0.12 0.36,-0.12 0.24,0 0.28,0.16 0.08,0.12 0.08,0.32 0,0.32 -0.12,1.04 -0.08,0.68 -0.08,1.24 0,0.16 0,0.36 0.04,0.2 0.08,0.24 1.36,-1.32 2.76,-2.04 1.4,-0.72 3.24,-0.72 2.08,0 3.48,1.56 1.44,1.52 1.44,4.16 v 8.8 q 0,0.8 0.44,1.08 0.48,0.24 1.08,0.44 0.32,0.12 0.56,0.32 0.24,0.16 0.24,0.48 0,0.28 -0.24,0.44 -0.2,0.12 -0.44,0.12 -0.8,0 -1.52,-0.08 -0.68,-0.04 -1.36,-0.08 -0.64,-0.04 -1.36,-0.04 -0.68,0 -1.36,0.04 -0.68,0.04 -1.36,0.08 -0.68,0.08 -1.48,0.08 -0.24,0 -0.48,-0.12 -0.2,-0.16 -0.2,-0.44 0,-0.32 0.24,-0.48 0.24,-0.2 0.56,-0.32 0.6,-0.2 1,-0.44 0.4,-0.28 0.4,-1.08 v -7.96 q 0,-1.52 -0.72,-2.36 -0.68,-0.88 -1.84,-0.92 -0.88,0 -1.56,0.28 -0.68,0.28 -1.4,0.76 -0.16,0.16 -0.24,0.36 -0.08,0.2 -0.08,0.4 v 9.44 q 0,0.8 0.44,1.08 0.44,0.24 1,0.44 0.8,0.24 0.8,0.8 0,0.24 -0.2,0.4 -0.2,0.16 -0.48,0.16 -0.8,0 -1.48,-0.08 -0.68,-0.04 -1.28,-0.08 -0.6,-0.04 -1.32,-0.04 -0.68,0 -1.4,0.04 -0.68,0.04 -1.44,0.08 -0.72,0.08 -1.52,0.08 z" />
    <path
       id="path2824"
       style="font-style:normal;font-variant:normal;font-weight:bold;font-stretch:normal;font-family:'EB Garamond';-inkscape-font-specification:'EB Garamond Bold';text-align:center;text-anchor:middle;fill:#ffffff"
       d="m 687.52529,406.76646 q -0.36,0 -0.6,-0.2 -0.2,-0.16 -0.2,-0.4 0,-0.6 0.88,-0.84 1.36,-0.36 1.92,-0.84 0.6,-0.48 0.6,-1.76 v -18.2 q 0,-1.28 -0.52,-1.84 -0.52,-0.6 -1.92,-0.88 -0.52,-0.12 -0.72,-0.32 -0.2,-0.24 -0.2,-0.52 0,-0.24 0.24,-0.4 0.24,-0.2 0.6,-0.2 1.28,0 2.12,0.08 0.84,0.08 1.56,0.16 0.76,0.04 1.76,0.04 0.92,0 1.68,-0.08 0.76,-0.12 1.68,-0.2 0.96,-0.08 2.32,-0.08 4.76,0 7.2,1.36 2.48,1.32 2.48,4.6 0,1.24 -0.56,2.36 -0.56,1.08 -1.44,1.8 -0.64,0.56 -1.36,0.92 -0.68,0.36 -1.56,0.6 -0.16,0.04 -0.16,0.2 0,0.16 0.16,0.2 1.04,0.24 2.16,0.64 1.12,0.36 2.08,1.08 1,0.72 1.56,1.88 0.6,1.12 0.6,2.88 0,2.24 -0.72,3.56 -0.68,1.28 -1.68,1.96 -0.96,0.68 -1.8,1.12 -1.32,0.64 -3,0.96 -1.68,0.32 -4,0.32 -1.32,0 -2.68,-0.08 -1.32,-0.08 -2.8,-0.08 -0.84,0 -1.84,0.04 -1,0.04 -2,0.08 -0.96,0.08 -1.84,0.08 z m 11.2,-2.24 q 1.2,0 2.24,-0.72 1.08,-0.72 1.68,-1.92 0.64,-1.24 0.64,-2.8 0,-1.36 -0.36,-2.28 -0.32,-0.92 -0.8,-1.48 -0.44,-0.56 -0.84,-0.84 -0.32,-0.28 -1.16,-0.56 -0.8,-0.32 -2,-0.32 -0.68,0 -1.28,0.36 -0.56,0.32 -0.56,0.96 v 7.04 q 0,1.32 0.64,1.96 0.64,0.6 1.8,0.6 z m -0.84,-12.72 q 0.96,0 1.76,-0.2 0.8,-0.24 1.64,-0.88 0.28,-0.28 0.76,-1.12 0.52,-0.88 0.52,-2.52 0,-1.68 -0.44,-2.8 -0.44,-1.12 -1.36,-1.68 -0.88,-0.56 -2.36,-0.56 -1.12,0 -1.64,0.44 -0.48,0.4 -0.48,1.24 v 6.68 q 0,0.8 0.56,1.12 0.56,0.28 1.04,0.28 z" />
    <path
       id="path2826"
       style="font-style:normal;font-variant:normal;font-weight:bold;font-stretch:normal;font-family:'EB Garamond';-inkscape-font-specification:'EB Garamond Bold';text-align:center;text-anchor:middle;fill:#ffffff"
       d="m 726.88526,407.40646 q -0.32,0 -0.32,-0.4 0,-0.48 0.08,-1.28 0.12,-0.8 0.12,-1.24 0,-0.16 -0.04,-0.28 0,-0.12 -0.04,-0.16 -1.08,1.32 -2.76,2.24 -1.68,0.88 -3.56,0.88 -1.24,0 -2.24,-0.72 -1,-0.76 -1.6,-2.04 -0.56,-1.28 -0.56,-2.88 v -7.48 q 0,-0.92 -0.36,-1.48 -0.32,-0.56 -1.24,-0.76 -0.24,-0.04 -0.44,-0.2 -0.16,-0.2 -0.16,-0.56 0,-0.28 0.16,-0.44 0.16,-0.2 0.44,-0.24 1.68,-0.08 3.04,-0.32 1.36,-0.28 2.76,-0.64 0.2,-0.04 0.4,-0.08 0.24,-0.08 0.44,-0.08 0.56,0 0.52,0.56 -0.16,0.92 -0.24,1.56 -0.08,0.6 -0.08,1.52 v 7.68 q 0,0.96 0.32,1.68 0.32,0.72 0.88,1.12 0.56,0.4 1.24,0.44 0.64,0 1.24,-0.16 0.64,-0.16 1.2,-0.72 0.24,-0.2 0.52,-0.8 0.28,-0.64 0.28,-1.68 v -6.44 q 0,-0.72 -0.28,-1.16 -0.28,-0.48 -0.76,-0.76 -0.48,-0.28 -1.12,-0.32 -0.44,-0.04 -0.72,-0.2 -0.24,-0.2 -0.24,-0.68 0,-0.4 0.28,-0.6 0.28,-0.2 0.68,-0.2 2.04,-0.12 3.24,-0.2 1.2,-0.12 1.96,-0.24 0.76,-0.12 1.52,-0.28 0.12,-0.04 0.28,-0.08 0.16,-0.04 0.24,-0.04 0.6,0 0.6,0.48 0,0.12 -0.04,0.28 -0.04,0.16 -0.12,0.32 -0.04,0.16 -0.12,0.72 -0.04,0.52 -0.12,1.12 -0.04,0.6 -0.04,0.96 v 9.28 q 0,0.92 0.2,1.24 0.24,0.28 0.52,0.28 0.2,0 0.6,0.04 0.4,0 0.52,0 0.36,0 0.56,0.2 0.2,0.2 0.2,0.52 0,0.36 -0.16,0.6 -0.12,0.2 -0.52,0.24 -1.92,0.16 -3.48,0.68 -1.52,0.48 -2.64,0.92 -0.24,0.08 -0.52,0.16 -0.28,0.12 -0.52,0.12 z" />
    <path
       id="path2828"
       style="font-style:normal;font-variant:normal;font-weight:bold;font-stretch:normal;font-family:'EB Garamond';-inkscape-font-specification:'EB Garamond Bold';text-align:center;text-anchor:middle;fill:#ffffff"
       d="m 741.68521,407.12646 q -1.32,0 -2.56,-0.32 -1.24,-0.32 -2.24,-1.04 -0.36,-0.6 -0.52,-1.88 -0.16,-1.28 -0.12,-2.68 0,-0.48 0.8,-0.48 0.32,0 0.56,0.2 0.24,0.2 0.28,0.4 0.76,1.68 1.76,2.88 1,1.16 2.4,1.16 1.08,0 1.64,-0.64 0.56,-0.68 0.56,-1.52 0,-1.04 -0.84,-1.72 -0.8,-0.72 -1.96,-1.32 -1.16,-0.6 -2.2,-1.36 -1.04,-0.76 -1.72,-1.8 -0.64,-1.08 -0.64,-2.56 0,-1.56 0.84,-2.72 0.88,-1.16 2.32,-1.8 1.48,-0.68 3.28,-0.68 1.32,0 2.44,0.32 1.12,0.28 1.52,0.56 0.32,0.4 0.52,1.52 0.2,1.08 0.2,2.4 0,0.44 -0.72,0.44 -0.28,0 -0.6,-0.2 -0.28,-0.2 -0.36,-0.4 -0.52,-1.56 -1.36,-2.32 -0.8,-0.8 -1.8,-0.8 -0.88,0 -1.6,0.56 -0.72,0.56 -0.72,1.52 0,0.84 0.76,1.52 0.8,0.64 1.96,1.28 2.6,1.36 3.72,2.64 1.12,1.24 1.12,3.32 0,2.6 -1.72,4.08 -1.68,1.44 -5,1.44 z" />
    <path
       id="path2830"
       style="font-style:normal;font-variant:normal;font-weight:bold;font-stretch:normal;font-family:'EB Garamond';-inkscape-font-specification:'EB Garamond Bold';text-align:center;text-anchor:middle;fill:#ffffff"
       d="m 758.24515,407.12646 q -2.64,0 -3.96,-1.32 -1.32,-1.36 -1.32,-3.8 v -9.2 q 0,-0.36 -0.28,-0.52 -0.24,-0.16 -0.96,-0.2 h -0.52 q -0.28,0 -0.48,-0.44 -0.16,-0.48 -0.16,-0.84 0,-0.08 0.04,-0.2 0.08,-0.16 0.2,-0.2 0.96,-0.36 2.04,-1.08 1.12,-0.76 2.12,-1.6 1.04,-0.84 1.68,-1.4 0.28,-0.2 0.48,-0.36 0.2,-0.16 0.52,-0.16 0.36,0 0.52,0.16 0.16,0.12 0.08,0.64 l -0.24,2.36 q -0.04,0.48 0.2,0.68 0.28,0.16 0.76,0.16 h 4.76 q 0.12,0 0.24,0.28 0.12,0.28 0.12,0.52 0,0.56 -0.16,1.08 -0.16,0.52 -0.36,0.52 h -3.72 q -0.92,0 -1.28,0.24 -0.32,0.2 -0.32,0.76 v 7.56 q 0,1.84 0.68,2.76 0.72,0.88 1.88,0.88 1.16,0 1.68,-0.24 0.56,-0.24 1,-0.4 0.16,-0.08 0.24,-0.08 0.2,0 0.32,0.24 0.12,0.24 0.12,0.56 0,0.24 -0.84,0.88 -0.84,0.64 -2.2,1.2 -1.32,0.56 -2.88,0.56 z" />
    <path
       id="path2832"
       style="font-style:normal;font-variant:normal;font-weight:bold;font-stretch:normal;font-family:'EB Garamond';-inkscape-font-specification:'EB Garamond Bold';text-align:center;text-anchor:middle;fill:#ffffff"
       d="m 772.92508,407.12646 q -2.16,0 -3.88,-1.12 -1.68,-1.16 -2.68,-3.12 -0.96,-2 -0.96,-4.52 0,-2.52 1.16,-4.56 1.16,-2.08 3.16,-3.28 2,-1.24 4.4,-1.24 1.72,0 3.08,0.76 1.36,0.72 2.16,1.96 0.84,1.24 0.84,2.8 0,1.52 -1.24,1.52 h -8 q -0.56,0 -0.84,0.32 -0.24,0.32 -0.24,1.08 0,1.52 0.68,2.8 0.68,1.24 1.84,1.96 1.16,0.72 2.68,0.72 1.16,0 2.12,-0.44 1,-0.44 1.96,-1.2 0.16,-0.12 0.28,-0.2 0.16,-0.12 0.28,-0.12 0.4,0 0.4,0.52 0,0.44 -0.32,1.2 -0.4,1 -1.36,2 -0.92,0.96 -2.32,1.56 -1.4,0.6 -3.2,0.6 z m -1.96,-12.48 h 2.4 q 1.12,0 1.56,-0.04 0.44,-0.04 0.8,-0.16 0.2,-0.08 0.32,-0.4 0.12,-0.32 0.12,-0.72 0,-1.08 -0.76,-1.76 -0.72,-0.68 -1.8,-0.68 -0.84,0 -1.6,0.48 -0.72,0.44 -1.2,1.2 -0.44,0.72 -0.4,1.52 0,0.56 0.56,0.56 z" />
    <path
       id="path2834"
       style="font-style:normal;font-variant:normal;font-weight:bold;font-stretch:normal;font-family:'EB Garamond';-inkscape-font-specification:'EB Garamond Bold';text-align:center;text-anchor:middle;fill:#ffffff"
       d="m 782.84507,406.68646 q -0.32,0 -0.56,-0.12 -0.24,-0.16 -0.24,-0.44 0,-0.32 0.24,-0.48 0.24,-0.2 0.68,-0.32 0.88,-0.28 1.16,-0.6 0.32,-0.32 0.32,-0.92 v -9.2 q 0,-0.84 -0.24,-1.36 -0.2,-0.56 -0.96,-0.76 -0.2,-0.08 -0.36,-0.2 -0.16,-0.16 -0.16,-0.52 0,-0.56 0.48,-0.68 1.28,-0.32 2.8,-0.84 1.56,-0.52 2.64,-1.04 0.2,-0.16 0.48,-0.28 0.32,-0.16 0.44,-0.16 0.36,0 0.36,0.44 0,0.2 -0.04,0.84 0,0.6 -0.04,1.24 0,0.64 -0.04,1.08 0,0.36 0.16,0.36 0.6,-0.84 1.4,-1.64 0.84,-0.8 1.8,-1.32 0.96,-0.52 1.88,-0.52 1.4,0 1.96,0.52 0.6,0.52 0.6,1.36 0,0.6 -0.36,1.32 -0.32,0.72 -0.84,1.24 -0.52,0.52 -1.12,0.52 -0.36,0 -0.76,-0.16 -0.4,-0.2 -0.8,-0.4 -0.4,-0.16 -0.8,-0.32 -0.36,-0.2 -0.68,-0.2 -1.04,0 -1.8,0.76 -0.76,0.76 -0.76,3.04 v 6.52 q 0,0.8 0.48,1.2 0.52,0.36 1.64,0.68 0.44,0.12 0.64,0.32 0.24,0.16 0.24,0.48 0,0.56 -0.68,0.56 -1.2,0 -2.48,-0.12 -1.28,-0.08 -2.32,-0.08 -0.68,0 -1.4,0.04 -0.68,0.04 -1.44,0.08 -0.72,0.08 -1.52,0.08 z" />
  </g>
</svg>
