<?xml version="1.0" encoding="UTF-8" standalone="no"?>
<svg
   xmlns:dc="http://purl.org/dc/elements/1.1/"
   xmlns:cc="http://creativecommons.org/ns#"
   xmlns:rdf="http://www.w3.org/1999/02/22-rdf-syntax-ns#"
   xmlns:svg="http://www.w3.org/2000/svg"
   xmlns="http://www.w3.org/2000/svg"
   xmlns:xlink="http://www.w3.org/1999/xlink"
   width="444.5mm"
   height="277.8125mm"
   viewBox="0 0 444.5 277.8125"
   version="1.1"
   id="svg3357">
  <defs
     id="defs3351">
    <linearGradient
       id="linearGradient932">
      <stop
         style="stop-color:#db4437;stop-opacity:1;"
         offset="0"
         id="stop928" />
      <stop
         id="stop936"
         offset="0"
         style="stop-color:#e1665b;stop-opacity:1" />
      <stop
         style="stop-color:#e2665a;stop-opacity:1"
         offset="1"
         id="stop930" />
    </linearGradient>
    <linearGradient
       id="linearGradient6114">
      <stop
         style="stop-color:#6f7c91;stop-opacity:1;"
         offset="0"
         id="stop6110" />
      <stop
         style="stop-color:#162d50;stop-opacity:1"
         offset="1"
         id="stop6112" />
    </linearGradient>
    <radialGradient
       xlink:href="#linearGradient6114"
       id="radialGradient6126"
       cx="73.77433"
       cy="66.986313"
       fx="73.77433"
       fy="66.986313"
       r="31.67275"
       gradientTransform="matrix(3.0071285,0,0,1.83657,-125.12732,-58.151445)"
       gradientUnits="userSpaceOnUse" />
    <filter
       style="color-interpolation-filters:sRGB"
       id="filter1480"
       x="-0.80500406"
       width="2.610008"
       y="-0.70547628"
       height="2.4109526">
      <feGaussianBlur
         stdDeviation="6.4668659"
         id="feGaussianBlur1482" />
    </filter>
    <filter
       style="color-interpolation-filters:sRGB"
       id="filter1484"
       x="-0.77602392"
       width="2.5520477"
       y="-0.70547628"
       height="2.4109526">
      <feGaussianBlur
         stdDeviation="6.4668659"
         id="feGaussianBlur1486" />
    </filter>
    <filter
       style="color-interpolation-filters:sRGB"
       id="filter1488"
       x="-0.6350441"
       width="2.2700882"
       y="-0.53152323"
       height="2.0630465">
      <feGaussianBlur
         stdDeviation="6.4668659"
         id="feGaussianBlur1490" />
    </filter>
    <filter
       style="color-interpolation-filters:sRGB"
       id="filter1492"
       x="-0.67480338"
       width="2.3496068"
       y="-0.70547628"
       height="2.4109526">
      <feGaussianBlur
         stdDeviation="6.4668659"
         id="feGaussianBlur1494" />
    </filter>
    <filter
       style="color-interpolation-filters:sRGB"
       id="filter1496"
       x="-0.66554368"
       width="2.3310874"
       y="-0.52434045"
       height="2.048681">
      <feGaussianBlur
         stdDeviation="6.4668659"
         id="feGaussianBlur1498" />
    </filter>
    <filter
       style="color-interpolation-filters:sRGB"
       id="filter1500"
       x="-0.79024839"
       width="2.5804968"
       y="-0.70547628"
       height="2.4109526">
      <feGaussianBlur
         stdDeviation="6.4668659"
         id="feGaussianBlur1502" />
    </filter>
    <filter
       style="color-interpolation-filters:sRGB"
       id="filter1504"
       x="-0.67480338"
       width="2.3496068"
       y="-0.70547628"
       height="2.4109526">
      <feGaussianBlur
         stdDeviation="6.4668659"
         id="feGaussianBlur1506" />
    </filter>
    <filter
       style="color-interpolation-filters:sRGB"
       id="filter1508"
       x="-0.60063767"
       width="2.2012753"
       y="-0.58172709"
       height="2.1634541">
      <feGaussianBlur
         stdDeviation="6.4668659"
         id="feGaussianBlur1510" />
    </filter>
    <filter
       style="color-interpolation-filters:sRGB"
       id="filter1512"
       x="-0.68432444"
       width="2.368649"
       y="-0.52434045"
       height="2.048681">
      <feGaussianBlur
         stdDeviation="6.4668659"
         id="feGaussianBlur1514" />
    </filter>
    <filter
       style="color-interpolation-filters:sRGB"
       id="filter1516"
       x="-0.77602392"
       width="2.5520477"
       y="-0.70547628"
       height="2.4109526">
      <feGaussianBlur
         stdDeviation="6.4668659"
         id="feGaussianBlur1518" />
    </filter>
    <filter
       style="color-interpolation-filters:sRGB"
       id="filter1520"
       x="-0.58968407"
       width="2.179368"
       y="-0.5680995"
       height="2.136199">
      <feGaussianBlur
         stdDeviation="6.4668659"
         id="feGaussianBlur1522" />
    </filter>
    <filter
       style="color-interpolation-filters:sRGB"
       id="filter1524"
       x="-0.77602392"
       width="2.5520477"
       y="-0.70547628"
       height="2.4109526">
      <feGaussianBlur
         stdDeviation="6.4668659"
         id="feGaussianBlur1526" />
    </filter>
    <filter
       style="color-interpolation-filters:sRGB"
       id="filter1528"
       x="-0.71987379"
       width="2.4397476"
       y="-0.70547628"
       height="2.4109526">
      <feGaussianBlur
         stdDeviation="6.4668659"
         id="feGaussianBlur1530" />
    </filter>
    <filter
       style="color-interpolation-filters:sRGB"
       id="filter1532"
       x="-0.72661418"
       width="2.4532282"
       y="-0.70547628"
       height="2.4109526">
      <feGaussianBlur
         stdDeviation="6.4668659"
         id="feGaussianBlur1534" />
    </filter>
    <filter
       style="color-interpolation-filters:sRGB"
       id="filter1536"
       x="-0.44650397"
       width="1.893008"
       y="-0.70547628"
       height="2.4109526">
      <feGaussianBlur
         stdDeviation="6.4668659"
         id="feGaussianBlur1538" />
    </filter>
    <filter
       style="color-interpolation-filters:sRGB"
       id="filter1540"
       x="-0.77602392"
       width="2.5520477"
       y="-0.70547628"
       height="2.4109526">
      <feGaussianBlur
         stdDeviation="6.4668659"
         id="feGaussianBlur1542" />
    </filter>
    <filter
       style="color-interpolation-filters:sRGB"
       id="filter1544"
       x="-0.60250306"
       width="2.2050061"
       y="-0.56397086"
       height="2.1279416">
      <feGaussianBlur
         stdDeviation="6.4668659"
         id="feGaussianBlur1546" />
    </filter>
    <filter
       style="color-interpolation-filters:sRGB"
       id="filter1548"
       x="-0.82908541"
       width="2.6581707"
       y="-0.38762432"
       height="1.7752486">
      <feGaussianBlur
         stdDeviation="6.4668659"
         id="feGaussianBlur1550" />
    </filter>
    <filter
       style="color-interpolation-filters:sRGB"
       id="filter1556"
       x="-1.2476269"
       width="3.4952538"
       y="-0.52434045"
       height="2.048681">
      <feGaussianBlur
         stdDeviation="6.4668659"
         id="feGaussianBlur1558" />
    </filter>
    <filter
       style="color-interpolation-filters:sRGB"
       id="filter1560"
       x="-0.67480338"
       width="2.3496068"
       y="-0.70547628"
       height="2.4109526">
      <feGaussianBlur
         stdDeviation="6.4668659"
         id="feGaussianBlur1562" />
    </filter>
    <filter
       style="color-interpolation-filters:sRGB"
       id="filter1564"
       x="-1.1086056"
       width="3.2172112"
       y="-0.60721743"
       height="2.2144349">
      <feGaussianBlur
         stdDeviation="6.4668659"
         id="feGaussianBlur1566" />
    </filter>
    <filter
       style="color-interpolation-filters:sRGB"
       id="filter1568"
       x="-0.80500406"
       width="2.610008"
       y="-0.70547628"
       height="2.4109526">
      <feGaussianBlur
         stdDeviation="6.4668659"
         id="feGaussianBlur1570" />
    </filter>
    <filter
       style="color-interpolation-filters:sRGB"
       id="filter1572"
       x="-0.67834258"
       width="2.3566852"
       y="-0.70547628"
       height="2.4109526">
      <feGaussianBlur
         stdDeviation="6.4668659"
         id="feGaussianBlur1574" />
    </filter>
    <filter
       style="color-interpolation-filters:sRGB"
       id="filter1576"
       x="-1.1181901"
       width="3.2363801"
       y="-0.58789688"
       height="2.1757939">
      <feGaussianBlur
         stdDeviation="6.4668659"
         id="feGaussianBlur1578" />
    </filter>
    <radialGradient
       xlink:href="#linearGradient932"
       id="radialGradient934"
       cx="105.70104"
       cy="59.53125"
       fx="105.70104"
       fy="59.53125"
       r="105.70104"
       gradientTransform="matrix(2.1026284,0,0,1.3141428,0,60.673686)"
       gradientUnits="userSpaceOnUse" />
    <linearGradient
       gradientTransform="translate(1e-5)"
       gradientUnits="userSpaceOnUse"
       y2="138.90625"
       x2="444.5"
       y1="139.37872"
       x1="444.12201"
       id="linearGradient882"
       xlink:href="#1200" />
    <linearGradient
       id="1200">
      <stop
         id="stop872"
         offset="0"
         style="stop-color:#e16459;stop-opacity:1" />
      <stop
         id="stop874"
         offset="1"
         style="stop-color:#db4437;stop-opacity:0;" />
    </linearGradient>
    <linearGradient
       gradientTransform="translate(-1.4e-4,4.5e-4)"
       xlink:href="#1200"
       id="linearGradient1019-7"
       x1="444.19131"
       y1="139.3998"
       x2="465.91299"
       y2="138.90625"
       gradientUnits="userSpaceOnUse" />
  </defs>
  <metadata
     id="metadata3354">
    <rdf:RDF>
      <cc:Work
         rdf:about="">
        <dc:format>image/svg+xml</dc:format>
        <dc:type
           rdf:resource="http://purl.org/dc/dcmitype/StillImage" />
        <dc:title></dc:title>
      </cc:Work>
    </rdf:RDF>
  </metadata>
  <g
     transform="matrix(0.26458333,0,0,0.26458333,-499.24953,192.2416)"
     style="font-style:normal;font-weight:normal;font-size:40px;line-height:1.25;font-family:sans-serif;letter-spacing:0px;word-spacing:0px;fill:#000000;fill-opacity:1;stroke:none"
     id="flowRoot985" />
  <g
     transform="matrix(0.26458333,0,0,0.26458333,-499.24953,192.2416)"
     style="font-style:normal;font-weight:normal;font-size:40px;line-height:1.25;font-family:sans-serif;letter-spacing:0px;word-spacing:0px;fill:#000000;fill-opacity:1;stroke:none"
     id="flowRoot993" />
  <path
     id="path1098"
     d="M 286.33187,0 H 0 V 277.8125 H 444.5 V 132.71902 Z"
     style="opacity:1;fill:url(#linearGradient1019-7);fill-opacity:1;stroke:none;stroke-width:9.70262432;stroke-miterlimit:4;stroke-dasharray:none;paint-order:stroke markers fill" />
  <g
     transform="translate(83.98576,154.67855)"
     id="g1116">
    <path
       style="opacity:1;fill:#ffe680;fill-opacity:1;fill-rule:nonzero;stroke:none;stroke-width:0.15597185;stroke-linejoin:round;stroke-miterlimit:4;stroke-dasharray:none;stroke-opacity:1"
       d="m 294.70637,-44.391006 a 26.458333,26.458332 85.3 0 1 -37.29191,3.065953 26.458333,26.458332 85.3 0 1 -3.06595,-37.291909 26.458333,26.458332 85.3 0 1 37.29191,-3.065953 26.458333,26.458332 85.3 0 1 3.06595,37.291909 z"
       id="circle891-7" />
    <path
       style="opacity:1;fill:#ffd42a;fill-opacity:1;fill-rule:nonzero;stroke:none;stroke-width:0.07798593;stroke-linejoin:round;stroke-miterlimit:4;stroke-dasharray:none;stroke-opacity:1"
       d="m 328.87173,-99.386113 a 13.229167,13.229166 85.3 0 1 -18.64595,1.532975 13.229167,13.229166 85.3 0 1 -1.53294,-18.645962 13.229167,13.229166 85.3 0 1 18.64596,-1.53297 13.229167,13.229166 85.3 0 1 1.53293,18.645957 z"
       id="path889-5" />
    <path
       style="opacity:1;fill:#c87137;fill-opacity:1;fill-rule:nonzero;stroke:none;stroke-width:0.29857224;stroke-linejoin:round;stroke-miterlimit:4;stroke-dasharray:none;stroke-opacity:1"
       d="m 326.77272,-22.27086 a 63.683452,62.98363 39.9 0 0 10.56026,-62.270206 63.683452,62.98363 39.9 0 0 -48.85572,-40.849724 63.683452,62.98363 39.9 0 0 -59.416,21.42047 l 48.85573,40.849731 z"
       id="path954-35" />
    <path
       style="opacity:1;fill:#d4aa00;fill-opacity:1;fill-rule:nonzero;stroke:none;stroke-width:0.31459409;stroke-linejoin:round;stroke-miterlimit:4;stroke-dasharray:none;stroke-opacity:1"
       d="m 225.72933,-97.634083 96.4711,80.662359 c 2.82215,2.359673 6.99381,1.987363 9.3535,-0.834787 l 1.35705,-1.623001 c 2.35967,-2.822138 1.98736,-6.993794 -0.83479,-9.353486 l -96.4711,-80.662362 c -2.82216,-2.35968 -6.99382,-1.98737 -9.35349,0.83476 l -1.35704,1.623 c -2.35969,2.82216 -1.98738,6.993824 0.83469,9.353519 z"
       id="rect956-6" />
  </g>
  <g
     aria-label="Install / Remove deb packages"
     transform="matrix(0.86183075,0,0,1.3230796,-298.49128,-77.051969)"
     style="font-style:normal;font-weight:normal;font-size:40px;line-height:1.25;font-family:sans-serif;letter-spacing:0px;word-spacing:0px;fill:#ffffff;fill-opacity:1;stroke:none"
     id="flowRoot938">
    <path
       d="m 429.35602,156.86871 q -0.32,0 -0.56,-0.16 -0.24,-0.16 -0.24,-0.4 0,-0.68 0.84,-0.84 1.56,-0.36 2.12,-0.84 0.6,-0.52 0.6,-1.76 v -18.16 q 0,-1.32 -0.52,-1.84 -0.52,-0.52 -2.12,-0.88 -0.84,-0.2 -0.84,-0.84 0,-0.28 0.24,-0.44 0.24,-0.16 0.56,-0.16 1.44,0 3,0.12 2,0.08 2.76,0.08 0.68,0 2.76,-0.08 2.16,-0.08 3.08,-0.08 0.76,0 0.76,0.56 0,0.36 -0.2,0.56 -0.2,0.16 -0.68,0.28 -1.6,0.44 -2.12,1 -0.52,0.52 -0.52,1.76 v 18.08 q 0,1.16 0.56,1.68 0.56,0.52 2.16,0.96 0.44,0.12 0.64,0.28 0.2,0.16 0.2,0.52 0,0.6 -0.72,0.6 -1.44,0 -3.08,-0.12 -2.08,-0.08 -2.84,-0.08 -0.8,0 -2.8,0.08 -1.56,0.12 -3.04,0.12 z"
       style="font-style:normal;font-variant:normal;font-weight:bold;font-stretch:normal;font-family:'EB Garamond';-inkscape-font-specification:'EB Garamond Bold';text-align:center;text-anchor:middle;fill:#ffffff"
       id="path948" />
    <path
       d="m 444.08727,156.86871 q -0.28,0 -0.56,-0.16 -0.24,-0.16 -0.24,-0.4 0,-0.48 0.92,-0.8 0.8,-0.24 1.16,-0.52 0.36,-0.28 0.36,-1 v -9.16 q 0,-2 -1.24,-2.24 -0.44,-0.08 -0.44,-0.72 0,-0.56 0.4,-0.68 1.4,-0.32 3.04,-0.88 1.64,-0.56 2.72,-1.12 0.52,-0.32 0.72,-0.32 0.36,0 0.36,0.48 l -0.08,0.8 q -0.12,1.44 -0.12,1.48 0,0.52 0.08,0.6 1.48,-1.4 2.84,-2.08 1.4,-0.68 3.16,-0.68 2.16,0 3.52,1.56 1.4,1.56 1.4,4.16 v 8.8 q 0,0.72 0.36,1 0.36,0.28 1.16,0.52 0.8,0.28 0.8,0.8 0,0.24 -0.2,0.4 -0.2,0.16 -0.48,0.16 -1.2,0 -2.28,-0.12 -1.28,-0.08 -1.96,-0.08 -0.68,0 -1.96,0.08 -1,0.12 -2.24,0.12 -0.28,0 -0.48,-0.16 -0.2,-0.16 -0.2,-0.4 0,-0.52 0.8,-0.8 0.76,-0.24 1.08,-0.52 0.32,-0.28 0.32,-1 v -7.96 q 0,-1.52 -0.68,-2.36 -0.68,-0.88 -1.88,-0.92 -0.84,0 -1.52,0.28 -0.68,0.24 -1.44,0.76 -0.32,0.28 -0.32,0.76 v 9.44 q 0,0.72 0.32,1 0.32,0.24 1.12,0.52 0.8,0.28 0.8,0.8 0,0.24 -0.2,0.4 -0.2,0.16 -0.48,0.16 -1.2,0 -2.16,-0.12 -1.28,-0.08 -1.92,-0.08 -0.68,0 -2.04,0.08 -1.08,0.12 -2.32,0.12 z"
       style="font-style:normal;font-variant:normal;font-weight:bold;font-stretch:normal;font-family:'EB Garamond';-inkscape-font-specification:'EB Garamond Bold';text-align:center;text-anchor:middle;fill:#ffffff"
       id="path950" />
    <path
       d="m 471.70352,157.30871 q -2.88,0 -4.8,-1.36 -0.36,-0.56 -0.52,-1.8 -0.16,-1.28 -0.12,-2.76 0,-0.48 0.8,-0.48 0.28,0 0.52,0.2 0.24,0.16 0.32,0.4 0.84,1.92 1.84,3 1,1.04 2.32,1.04 1,0 1.6,-0.64 0.6,-0.64 0.6,-1.52 0,-0.96 -0.72,-1.64 -0.72,-0.68 -2.08,-1.4 -2.12,-1.08 -3.36,-2.4 -1.2,-1.32 -1.2,-3.32 0,-2.32 1.84,-3.76 1.84,-1.44 4.6,-1.44 1.2,0 2.32,0.28 1.16,0.28 1.64,0.6 0.32,0.4 0.52,1.52 0.2,1.08 0.2,2.4 0,0.2 -0.24,0.32 -0.2,0.12 -0.48,0.12 -0.28,0 -0.6,-0.2 -0.28,-0.2 -0.36,-0.4 -0.52,-1.56 -1.36,-2.32 -0.8,-0.8 -1.8,-0.8 -0.92,0 -1.64,0.6 -0.68,0.56 -0.68,1.48 0,0.76 0.68,1.44 0.72,0.64 2.04,1.36 2.72,1.44 3.76,2.68 1.08,1.24 1.08,3.28 0,2.64 -1.76,4.08 -1.72,1.44 -4.96,1.44 z"
       style="font-style:normal;font-variant:normal;font-weight:bold;font-stretch:normal;font-family:'EB Garamond';-inkscape-font-specification:'EB Garamond Bold';text-align:center;text-anchor:middle;fill:#ffffff"
       id="path952" />
    <path
       d="m 488.23852,157.30871 q -2.6,0 -3.96,-1.32 -1.32,-1.32 -1.32,-3.8 v -9.2 q 0,-0.36 -0.28,-0.52 -0.28,-0.16 -0.96,-0.2 h -0.52 q -0.24,0 -0.44,-0.44 -0.2,-0.44 -0.2,-0.84 0,-0.28 0.24,-0.4 2,-0.72 5.84,-4.08 0.08,-0.08 0.28,-0.2 0.2,-0.16 0.36,-0.24 0.16,-0.08 0.36,-0.08 0.4,0 0.52,0.16 0.12,0.16 0.08,0.64 l -0.24,2.36 v 0.16 q 0,0.68 0.96,0.68 h 4.76 q 0.12,0 0.24,0.28 0.12,0.28 0.12,0.52 0,0.6 -0.16,1.12 -0.16,0.48 -0.36,0.48 h -3.72 q -0.92,0 -1.28,0.24 -0.32,0.2 -0.32,0.76 v 7.56 q 0,1.8 0.68,2.72 0.68,0.92 1.88,0.92 0.92,0 1.4,-0.12 0.52,-0.16 0.84,-0.32 0.36,-0.16 0.44,-0.2 0.16,-0.08 0.24,-0.08 0.2,0 0.32,0.24 0.12,0.2 0.12,0.56 0,0.28 -0.92,0.96 -0.88,0.64 -2.24,1.16 -1.36,0.52 -2.76,0.52 z"
       style="font-style:normal;font-variant:normal;font-weight:bold;font-stretch:normal;font-family:'EB Garamond';-inkscape-font-specification:'EB Garamond Bold';text-align:center;text-anchor:middle;fill:#ffffff"
       id="path954-3" />
    <path
       d="m 499.63852,157.30871 q -1.6,0 -2.8,-1.08 -1.2,-1.12 -1.2,-2.64 0,-1.36 0.8,-2.24 0.84,-0.92 2.6,-1.68 l 3.56,-1.56 q 0.8,-0.36 0.96,-0.64 0.2,-0.28 0.2,-1.04 l 0.04,-2.28 q 0.04,-1.16 -0.4,-1.8 -0.44,-0.64 -1.32,-0.64 -0.48,0 -1.04,0.24 -0.52,0.2 -0.8,0.48 -0.24,0.28 -0.24,0.84 0,0.28 0.04,0.6 0.04,0.28 0.04,0.56 0,0.4 -1.36,1 -1.32,0.6 -2.2,0.6 -0.32,0 -0.52,-0.24 -0.2,-0.24 -0.2,-0.6 0,-0.64 0.44,-1.24 0.44,-0.6 1.44,-1.44 1.56,-1.28 3.52,-2.16 1.96,-0.88 3.28,-0.88 2.12,0 3.4,1.4 1.28,1.36 1.24,3.64 l -0.2,8.08 q -0.04,0.92 0.32,1.56 0.36,0.64 0.88,0.64 0.76,0 1.32,-0.52 0.12,-0.12 0.24,-0.12 0.2,0 0.32,0.16 0.16,0.12 0.16,0.28 0,0.52 -0.72,1.24 -1.48,1.48 -3.36,1.48 -1.16,0 -2.04,-0.56 -0.88,-0.52 -1.68,-1.72 h -0.08 q -1.32,1.24 -2.4,1.76 -1.04,0.52 -2.24,0.52 z m 2.4,-2.6 q 0.76,0 1.28,-0.6 0.28,-0.44 0.28,-1.04 l 0.12,-2.88 q 0,-0.64 -0.4,-0.64 -0.2,0 -0.48,0.16 -1.28,0.6 -1.8,1.2 -0.48,0.6 -0.48,1.8 0,1.04 0.44,1.52 0.44,0.48 1.04,0.48 z"
       style="font-style:normal;font-variant:normal;font-weight:bold;font-stretch:normal;font-family:'EB Garamond';-inkscape-font-specification:'EB Garamond Bold';text-align:center;text-anchor:middle;fill:#ffffff"
       id="path956" />
    <path
       d="m 513.41852,156.86871 q -0.36,0 -0.6,-0.12 -0.2,-0.16 -0.2,-0.44 0,-0.56 0.92,-0.8 0.88,-0.32 1.2,-0.56 0.32,-0.24 0.32,-0.96 v -19.24 q 0,-1.2 -0.36,-1.92 -0.32,-0.76 -1.24,-0.96 -0.4,-0.08 -0.4,-0.6 0,-0.52 0.36,-0.6 1.08,-0.2 2.6,-0.72 1.56,-0.52 2.76,-0.96 l 0.84,-0.32 q 0.28,-0.12 0.52,-0.12 0.4,0 0.4,0.48 0,0.32 -0.12,1.16 -0.08,0.84 -0.12,1.6 v 22.12 q 0,0.68 0.28,0.96 0.32,0.24 0.72,0.4 0.4,0.12 0.52,0.16 0.48,0.16 0.68,0.36 0.24,0.16 0.24,0.44 0,0.28 -0.24,0.44 -0.2,0.12 -0.56,0.12 -0.84,0 -2.28,-0.08 l -2.08,-0.04 q -0.64,0 -1.92,0.08 -1.08,0.12 -2.24,0.12 z"
       style="font-style:normal;font-variant:normal;font-weight:bold;font-stretch:normal;font-family:'EB Garamond';-inkscape-font-specification:'EB Garamond Bold';text-align:center;text-anchor:middle;fill:#ffffff"
       id="path958" />
    <path
       d="m 524.82477,156.86871 q -0.36,0 -0.6,-0.12 -0.2,-0.16 -0.2,-0.44 0,-0.56 0.92,-0.8 0.88,-0.32 1.2,-0.56 0.32,-0.24 0.32,-0.96 v -19.24 q 0,-1.2 -0.36,-1.92 -0.32,-0.76 -1.24,-0.96 -0.4,-0.08 -0.4,-0.6 0,-0.52 0.36,-0.6 1.08,-0.2 2.6,-0.72 1.56,-0.52 2.76,-0.96 l 0.84,-0.32 q 0.28,-0.12 0.52,-0.12 0.4,0 0.4,0.48 0,0.32 -0.12,1.16 -0.08,0.84 -0.12,1.6 v 22.12 q 0,0.68 0.28,0.96 0.32,0.24 0.72,0.4 0.4,0.12 0.52,0.16 0.48,0.16 0.68,0.36 0.24,0.16 0.24,0.44 0,0.28 -0.24,0.44 -0.2,0.12 -0.56,0.12 -0.84,0 -2.28,-0.08 l -2.08,-0.04 q -0.64,0 -1.92,0.08 -1.08,0.12 -2.24,0.12 z"
       style="font-style:normal;font-variant:normal;font-weight:bold;font-stretch:normal;font-family:'EB Garamond';-inkscape-font-specification:'EB Garamond Bold';text-align:center;text-anchor:middle;fill:#ffffff"
       id="path960" />
    <path
       d="m 545.72414,159.22871 q -0.44,0 -0.68,-0.24 -0.24,-0.2 -0.12,-0.52 l 12.36,-27.56 q 0.24,-0.52 0.64,-0.68 0.44,-0.16 1.16,-0.16 0.48,0 0.72,0.28 0.24,0.28 0.12,0.56 l -12.4,27.56 q -0.2,0.44 -0.68,0.6 -0.44,0.16 -1.12,0.16 z"
       style="font-style:normal;font-variant:normal;font-weight:bold;font-stretch:normal;font-family:'EB Garamond';-inkscape-font-specification:'EB Garamond Bold';text-align:center;text-anchor:middle;fill:#ffffff"
       id="path962" />
    <path
       d="m 595.74727,157.58871 q -2.84,0 -4.52,-0.92 -1.68,-0.96 -3.04,-2.76 -1.48,-1.88 -2.64,-3.68 -1.12,-1.8 -2.36,-4.28 -0.4,-0.88 -1.08,-1.24 -0.68,-0.4 -1.36,-0.4 -0.44,0 -0.44,0.8 v 7.64 q 0,1.24 0.64,1.8 0.68,0.56 2.4,0.92 0.44,0.08 0.64,0.28 0.24,0.16 0.24,0.52 0,0.6 -0.76,0.6 -1.52,0 -3.28,-0.12 -2.16,-0.08 -2.92,-0.08 -0.76,0 -2.84,0.08 -1.56,0.12 -3,0.12 -0.32,0 -0.56,-0.16 -0.24,-0.16 -0.24,-0.4 0,-0.68 0.84,-0.84 1.56,-0.32 2.12,-0.84 0.56,-0.56 0.56,-1.8 v -17.96 q 0,-1.44 -0.48,-2 -0.44,-0.6 -1.92,-0.88 -0.92,-0.16 -0.92,-0.84 0,-0.24 0.24,-0.4 0.24,-0.2 0.64,-0.2 1.36,0 3.04,0.16 0.32,0 1,0.08 0.68,0.04 1.36,0.04 0.76,0 2.12,-0.16 2.08,-0.2 3.4,-0.2 4.72,0 7.2,1.64 2.52,1.6 2.52,4.8 0,2.44 -1.48,3.96 -1.48,1.52 -3.64,2.24 -0.28,0.12 -0.04,0.48 2,3.04 3.68,5.24 1.68,2.2 3.48,3.88 1.16,1.12 2.44,1.44 1.32,0.28 3.16,0.28 0.6,0 0.6,0.72 0,1.24 -1.32,1.84 -1.28,0.6 -3.48,0.6 z m -13.92,-14.56 q 2.2,0 3.36,-1.44 1.2,-1.44 1.2,-3.8 0,-5.56 -4.4,-5.56 -0.92,0 -1.28,0.76 -0.36,0.72 -0.36,2.92 -0.04,1.2 -0.04,5.64 0,0.8 0.36,1.16 0.4,0.32 1.16,0.32 z"
       style="font-style:normal;font-variant:normal;font-weight:bold;font-stretch:normal;font-family:'EB Garamond';-inkscape-font-specification:'EB Garamond Bold';text-align:center;text-anchor:middle;fill:#ffffff"
       id="path964" />
    <path
       d="m 608.77789,157.30871 q -2.12,0 -3.84,-1.12 -1.72,-1.16 -2.72,-3.16 -0.96,-2 -0.96,-4.48 0,-2.48 1.16,-4.56 1.16,-2.08 3.16,-3.28 2.04,-1.24 4.4,-1.24 1.68,0 3.08,0.72 1.4,0.72 2.2,2 0.8,1.28 0.8,2.8 0,0.8 -0.32,1.16 -0.28,0.36 -0.92,0.36 h -8 q -0.56,0 -0.84,0.32 -0.24,0.32 -0.24,1.08 0,2.32 1.48,3.92 1.48,1.56 3.72,1.56 1.12,0 2.08,-0.4 0.96,-0.44 2,-1.24 0.4,-0.32 0.56,-0.32 0.4,0 0.4,0.52 0,0.52 -0.32,1.2 -0.64,1.68 -2.52,2.92 -1.84,1.24 -4.36,1.24 z m 0.44,-12.48 q 0.92,0 1.44,-0.04 0.52,-0.04 0.92,-0.16 0.2,-0.08 0.32,-0.4 0.12,-0.32 0.12,-0.72 0,-1.04 -0.76,-1.72 -0.72,-0.72 -1.8,-0.72 -1.24,0 -2.24,1.04 -1,1 -0.96,2.16 0,0.56 0.56,0.56 z"
       style="font-style:normal;font-variant:normal;font-weight:bold;font-stretch:normal;font-family:'EB Garamond';-inkscape-font-specification:'EB Garamond Bold';text-align:center;text-anchor:middle;fill:#ffffff"
       id="path966" />
    <path
       d="m 618.69664,156.86871 q -0.28,0 -0.56,-0.16 -0.24,-0.16 -0.24,-0.4 0,-0.48 0.92,-0.8 0.8,-0.24 1.16,-0.52 0.36,-0.28 0.36,-1 v -9.16 q 0,-2.04 -1.24,-2.24 -0.44,-0.08 -0.44,-0.72 0,-0.56 0.4,-0.68 4.04,-1 6,-2.12 0.08,-0.04 0.2,-0.12 0.16,-0.08 0.28,-0.08 0.36,0 0.36,0.44 l -0.08,0.88 q -0.04,0.28 -0.08,0.68 -0.04,0.36 -0.04,0.84 0,0.4 0.08,0.48 h 0.08 q 1.32,-1.28 2.76,-2 1.48,-0.72 3.2,-0.72 1.2,0 2.24,0.88 1.08,0.84 1.6,2.2 h 0.16 q 2.56,-3.08 6.08,-3.08 1.92,0 3.16,1.56 1.28,1.56 1.28,4.16 v 8.8 q 0,0.72 0.36,1 0.36,0.28 1.16,0.52 0.8,0.28 0.8,0.8 0,0.24 -0.2,0.4 -0.2,0.16 -0.48,0.16 -1.2,0 -2.28,-0.12 -1.28,-0.08 -1.96,-0.08 -0.68,0 -1.8,0.08 -0.88,0.12 -2.08,0.12 -0.28,0 -0.48,-0.16 -0.2,-0.16 -0.2,-0.4 0,-0.6 0.8,-0.8 0.56,-0.16 0.8,-0.4 0.28,-0.28 0.28,-0.88 v -8.2 q 0,-1.44 -0.64,-2.32 -0.6,-0.92 -1.56,-0.96 -1.24,0 -2.36,0.96 -0.56,0.52 -0.56,1.68 v 8.6 q 0,0.76 0.28,1.04 0.28,0.28 0.96,0.48 0.8,0.2 0.8,0.8 0,0.24 -0.2,0.4 -0.2,0.16 -0.48,0.16 -1.16,0 -2.12,-0.12 -1.2,-0.08 -1.84,-0.08 -0.68,0 -1.8,0.08 -0.88,0.12 -2.08,0.12 -0.24,0 -0.44,-0.16 -0.2,-0.16 -0.2,-0.4 0,-0.52 0.76,-0.8 0.6,-0.2 0.84,-0.44 0.28,-0.24 0.28,-0.84 v -8.2 q 0,-1.48 -0.6,-2.32 -0.6,-0.88 -1.6,-0.92 -1.2,0 -2.4,0.88 -0.52,0.4 -0.52,1.56 v 8.76 q 0,0.68 0.24,1 0.24,0.32 0.88,0.52 0.76,0.28 0.76,0.8 0,0.24 -0.2,0.4 -0.2,0.16 -0.44,0.16 -1.16,0 -2.08,-0.12 -1.2,-0.08 -1.84,-0.08 -0.68,0 -1.96,0.08 -1,0.12 -2.24,0.12 z"
       style="font-style:normal;font-variant:normal;font-weight:bold;font-stretch:normal;font-family:'EB Garamond';-inkscape-font-specification:'EB Garamond Bold';text-align:center;text-anchor:middle;fill:#ffffff"
       id="path968" />
    <path
       d="m 658.80227,157.30871 q -2.36,0 -4.32,-1.08 -1.96,-1.08 -3.08,-2.96 -1.12,-1.92 -1.12,-4.32 0,-2.52 1.24,-4.72 1.28,-2.2 3.4,-3.48 2.16,-1.32 4.76,-1.32 2.4,0 4.44,1.16 2.04,1.12 3.2,3.08 1.2,1.92 1.2,4.12 0,2.64 -1.12,4.8 -1.12,2.16 -3.32,3.44 -2.16,1.28 -5.28,1.28 z m 0.8,-1.76 q 1.64,0 2.48,-1.36 0.84,-1.4 0.84,-5.44 0,-3.28 -1.08,-5.4 -1.04,-2.16 -2.76,-2.16 -1.24,0 -2.08,0.84 -0.68,0.76 -0.96,2.2 -0.24,1.44 -0.24,3.72 0,1.92 0.48,3.68 0.52,1.76 1.36,2.84 0.88,1.08 1.96,1.08 z"
       style="font-style:normal;font-variant:normal;font-weight:bold;font-stretch:normal;font-family:'EB Garamond';-inkscape-font-specification:'EB Garamond Bold';text-align:center;text-anchor:middle;fill:#ffffff"
       id="path970" />
    <path
       d="m 678.45352,157.58871 q -0.2,0 -0.4,-0.32 -0.16,-0.28 -0.36,-0.72 -0.2,-0.48 -0.32,-0.72 l -0.56,-1.32 q -0.12,-0.32 -0.8,-1.92 -0.96,-2.2 -2.36,-5.16 -0.36,-0.8 -0.84,-1.8 -0.48,-1 -1,-2.2 -0.44,-0.96 -0.92,-1.52 -0.44,-0.6 -1.12,-0.84 -0.4,-0.16 -0.56,-0.32 -0.16,-0.2 -0.16,-0.52 0,-0.48 0.96,-0.48 0.4,0 2.08,0.12 0.76,0.12 1.88,0.12 1.12,0 2.08,-0.12 0.32,0 1,-0.04 0.72,-0.08 1.4,-0.08 0.36,0 0.64,0.12 0.32,0.12 0.32,0.4 0,0.28 -0.16,0.4 -0.16,0.12 -0.4,0.24 -0.24,0.08 -0.36,0.12 -0.92,0.4 -0.92,1.72 v 0.36 q 0,0.6 0.16,0.92 l 2.68,6.6 h 0.12 l 2.36,-6.32 q 0.24,-0.52 0.24,-1.28 0,-1.48 -1.28,-1.96 -0.48,-0.16 -0.68,-0.28 -0.2,-0.16 -0.2,-0.48 0,-0.28 0.28,-0.4 0.28,-0.12 0.64,-0.12 0.8,0 1.6,0.08 l 1.16,0.04 q 0.68,0 2.76,-0.12 0.96,0 0.96,0.48 0,0.32 -0.16,0.52 -0.16,0.16 -0.6,0.32 -0.72,0.24 -1.36,0.92 -0.6,0.64 -1,1.56 l -3.12,7.84 q -0.52,1.32 -1.28,2.92 -0.88,2.2 -1.48,3.24 z"
       style="font-style:normal;font-variant:normal;font-weight:bold;font-stretch:normal;font-family:'EB Garamond';-inkscape-font-specification:'EB Garamond Bold';text-align:center;text-anchor:middle;fill:#ffffff"
       id="path972" />
    <path
       d="m 695.88727,157.30871 q -2.12,0 -3.84,-1.12 -1.72,-1.16 -2.72,-3.16 -0.96,-2 -0.96,-4.48 0,-2.48 1.16,-4.56 1.16,-2.08 3.16,-3.28 2.04,-1.24 4.4,-1.24 1.68,0 3.08,0.72 1.4,0.72 2.2,2 0.8,1.28 0.8,2.8 0,0.8 -0.32,1.16 -0.28,0.36 -0.92,0.36 h -8 q -0.56,0 -0.84,0.32 -0.24,0.32 -0.24,1.08 0,2.32 1.48,3.92 1.48,1.56 3.72,1.56 1.12,0 2.08,-0.4 0.96,-0.44 2,-1.24 0.4,-0.32 0.56,-0.32 0.4,0 0.4,0.52 0,0.52 -0.32,1.2 -0.64,1.68 -2.52,2.92 -1.84,1.24 -4.36,1.24 z m 0.44,-12.48 q 0.92,0 1.44,-0.04 0.52,-0.04 0.92,-0.16 0.2,-0.08 0.32,-0.4 0.12,-0.32 0.12,-0.72 0,-1.04 -0.76,-1.72 -0.72,-0.72 -1.8,-0.72 -1.24,0 -2.24,1.04 -1,1 -0.96,2.16 0,0.56 0.56,0.56 z"
       style="font-style:normal;font-variant:normal;font-weight:bold;font-stretch:normal;font-family:'EB Garamond';-inkscape-font-specification:'EB Garamond Bold';text-align:center;text-anchor:middle;fill:#ffffff"
       id="path974" />
    <path
       d="m 480.13539,204.86399 q 0.24,0 0.32,0.08 0.08,0.08 0.08,0.32 0,0.32 -0.24,0.68 -0.24,0.36 -0.44,0.36 -3,0.32 -6.08,1.44 -0.48,0.24 -0.68,0.24 -0.12,0 -0.36,-0.28 -0.2,-0.24 -0.2,-0.4 0.2,-1.4 0.2,-2.12 v -0.24 q -0.84,1.28 -2.28,2.08 -1.4,0.76 -3,0.76 -2.16,0 -3.96,-1.12 -1.76,-1.12 -2.76,-3.04 -1,-1.92 -1,-4.2 0,-2.68 1.2,-4.8 1.2,-2.16 3.36,-3.36 2.2,-1.24 5,-1.24 1.12,0 2.48,0.36 l 0.52,0.12 q 0.16,0 0.16,-0.52 v -4.76 q 0,-1.44 -0.36,-2.04 -0.32,-0.64 -1.2,-0.84 -0.48,-0.12 -0.48,-0.6 0,-0.52 0.44,-0.6 1.44,-0.32 3,-0.8 1.6,-0.52 2.64,-0.96 0.8,-0.36 0.96,-0.36 0.44,0 0.44,0.48 -0.04,0.16 -0.12,0.96 -0.04,0.76 -0.08,1.8 l -0.2,20.16 q 0,1.4 0.2,2 0.2,0.56 0.72,0.56 l 1.56,-0.12 z m -2.24,-25.36 z m -8.4,25.56 q 0.68,0 1.56,-0.32 0.88,-0.36 1.4,-0.92 l -0.04,-8.84 q 0,-0.68 -0.56,-1.4 -0.52,-0.72 -1.36,-1.2 -0.8,-0.48 -1.6,-0.48 -0.96,0 -1.8,0.8 -0.8,0.76 -1.32,2.24 -0.48,1.48 -0.48,3.4 0,2.08 0.56,3.6 0.6,1.52 1.56,2.32 0.96,0.8 2.08,0.8 z"
       style="font-style:normal;font-variant:normal;font-weight:bold;font-stretch:normal;font-family:'EB Garamond';-inkscape-font-specification:'EB Garamond Bold';text-align:center;text-anchor:middle;fill:#ffffff"
       id="path976" />
    <path
       d="m 488.69977,207.78399 q -2.12,0 -3.84,-1.12 -1.72,-1.16 -2.72,-3.16 -0.96,-2 -0.96,-4.48 0,-2.48 1.16,-4.56 1.16,-2.08 3.16,-3.28 2.04,-1.24 4.4,-1.24 1.68,0 3.08,0.72 1.4,0.72 2.2,2 0.8,1.28 0.8,2.8 0,0.8 -0.32,1.16 -0.28,0.36 -0.92,0.36 h -8 q -0.56,0 -0.84,0.32 -0.24,0.32 -0.24,1.08 0,2.32 1.48,3.92 1.48,1.56 3.72,1.56 1.12,0 2.08,-0.4 0.96,-0.44 2,-1.24 0.4,-0.32 0.56,-0.32 0.4,0 0.4,0.52 0,0.52 -0.32,1.2 -0.64,1.68 -2.52,2.92 -1.84,1.24 -4.36,1.24 z m 0.44,-12.48 q 0.92,0 1.44,-0.04 0.52,-0.04 0.92,-0.16 0.2,-0.08 0.32,-0.4 0.12,-0.32 0.12,-0.72 0,-1.04 -0.76,-1.72 -0.72,-0.72 -1.8,-0.72 -1.24,0 -2.24,1.04 -1,1 -0.96,2.16 0,0.56 0.56,0.56 z"
       style="font-style:normal;font-variant:normal;font-weight:bold;font-stretch:normal;font-family:'EB Garamond';-inkscape-font-specification:'EB Garamond Bold';text-align:center;text-anchor:middle;fill:#ffffff"
       id="path978" />
    <path
       d="m 507.50977,207.78399 q -1.6,0 -3.92,-0.6 -1.52,-0.44 -1.92,-0.44 -0.64,0 -1.44,0.52 -0.36,0.28 -0.56,0.28 -0.36,0 -0.56,-0.16 -0.16,-0.12 -0.16,-0.36 0,-0.28 0.2,-1.4 0.24,-1.16 0.2,-2.6 l -0.16,-17.8 q 0,-1.2 -0.36,-1.92 -0.32,-0.76 -1.2,-0.96 -0.48,-0.08 -0.48,-0.64 0,-0.2 0.12,-0.36 0.12,-0.16 0.32,-0.2 1.76,-0.32 6,-1.96 0.4,-0.16 0.56,-0.16 0.44,0 0.44,0.48 0,0.28 -0.12,1.08 -0.08,0.8 -0.08,1.44 v 8.56 q 0,1.12 0.36,1.12 1.24,-0.84 2.56,-1.28 1.36,-0.48 2.56,-0.48 2.08,0 3.76,1.08 1.68,1.08 2.64,3 1,1.88 1,4.2 0,2.8 -1.24,5 -1.2,2.16 -3.44,3.36 -2.2,1.2 -5.08,1.2 z m 0.72,-1.68 q 1.56,0 2.48,-1.96 0.96,-2 0.96,-4.88 0,-2.76 -1.04,-4.92 -1.04,-2.16 -3,-2.16 -0.84,0 -1.76,0.24 -0.92,0.24 -1.48,0.68 v 8.52 q 0,1.92 1.12,3.2 1.16,1.28 2.72,1.28 z"
       style="font-style:normal;font-variant:normal;font-weight:bold;font-stretch:normal;font-family:'EB Garamond';-inkscape-font-specification:'EB Garamond Bold';text-align:center;text-anchor:middle;fill:#ffffff"
       id="path980" />
    <path
       d="m 529.12164,217.70399 q -0.32,0 -0.56,-0.16 -0.24,-0.16 -0.24,-0.4 0,-0.32 0.2,-0.52 0.24,-0.16 0.72,-0.28 0.88,-0.28 1.2,-0.6 0.32,-0.28 0.32,-0.92 v -19.16 q 0,-0.76 -0.48,-1.44 -0.44,-0.72 -1.2,-0.88 -0.24,-0.08 -0.36,-0.2 -0.12,-0.16 -0.12,-0.52 0,-0.56 0.44,-0.68 1.44,-0.32 3.04,-0.84 1.6,-0.52 2.72,-1.08 0.12,-0.04 0.32,-0.16 0.24,-0.12 0.36,-0.12 0.36,0 0.36,0.48 l -0.08,0.88 q -0.12,1.44 -0.12,1.44 0,0.4 0.08,0.48 0.44,-0.48 1.48,-1.12 1.08,-0.68 2.36,-1.16 1.32,-0.52 2.48,-0.52 2.04,0 3.56,1.12 1.56,1.12 2.36,2.92 0.84,1.76 0.84,3.76 0,2.48 -1.24,4.8 -1.24,2.28 -3.4,3.72 -2.12,1.4 -4.6,1.4 -0.68,0 -1.68,-0.24 -1,-0.24 -1.76,-0.6 -0.16,0 -0.16,0.72 v 6.64 q 0,0.76 0.48,1.16 0.52,0.4 1.68,0.72 0.88,0.28 0.88,0.8 0,0.24 -0.24,0.4 -0.2,0.16 -0.44,0.16 -1.28,0 -2.56,-0.12 -1.68,-0.08 -2.28,-0.08 -0.68,0 -2.04,0.08 -1.08,0.12 -2.32,0.12 z m 10.32,-11.6 q 0.68,0 1.56,-0.68 0.88,-0.68 1.52,-2.16 0.68,-1.48 0.68,-3.8 0,-3.8 -1.28,-5.16 -1.24,-1.36 -2.68,-1.36 -0.72,0 -1.48,0.32 -0.72,0.32 -1.24,0.8 -0.48,0.44 -0.48,0.76 l -0.08,6.56 q 0,1 0.4,2.12 0.44,1.12 1.24,1.88 0.8,0.72 1.84,0.72 z"
       style="font-style:normal;font-variant:normal;font-weight:bold;font-stretch:normal;font-family:'EB Garamond';-inkscape-font-specification:'EB Garamond Bold';text-align:center;text-anchor:middle;fill:#ffffff"
       id="path982" />
    <path
       d="m 554.71664,207.78399 q -1.6,0 -2.8,-1.08 -1.2,-1.12 -1.2,-2.64 0,-1.36 0.8,-2.24 0.84,-0.92 2.6,-1.68 l 3.56,-1.56 q 0.8,-0.36 0.96,-0.64 0.2,-0.28 0.2,-1.04 l 0.04,-2.28 q 0.04,-1.16 -0.4,-1.8 -0.44,-0.64 -1.32,-0.64 -0.48,0 -1.04,0.24 -0.52,0.2 -0.8,0.48 -0.24,0.28 -0.24,0.84 0,0.28 0.04,0.6 0.04,0.28 0.04,0.56 0,0.4 -1.36,1 -1.32,0.6 -2.2,0.6 -0.32,0 -0.52,-0.24 -0.2,-0.24 -0.2,-0.6 0,-0.64 0.44,-1.24 0.44,-0.6 1.44,-1.44 1.56,-1.28 3.52,-2.16 1.96,-0.88 3.28,-0.88 2.12,0 3.4,1.4 1.28,1.36 1.24,3.64 l -0.2,8.08 q -0.04,0.92 0.32,1.56 0.36,0.64 0.88,0.64 0.76,0 1.32,-0.52 0.12,-0.12 0.24,-0.12 0.2,0 0.32,0.16 0.16,0.12 0.16,0.28 0,0.52 -0.72,1.24 -1.48,1.48 -3.36,1.48 -1.16,0 -2.04,-0.56 -0.88,-0.52 -1.68,-1.72 h -0.08 q -1.32,1.24 -2.4,1.76 -1.04,0.52 -2.24,0.52 z m 2.4,-2.6 q 0.76,0 1.28,-0.6 0.28,-0.44 0.28,-1.04 l 0.12,-2.88 q 0,-0.64 -0.4,-0.64 -0.2,0 -0.48,0.16 -1.28,0.6 -1.8,1.2 -0.48,0.6 -0.48,1.8 0,1.04 0.44,1.52 0.44,0.48 1.04,0.48 z"
       style="font-style:normal;font-variant:normal;font-weight:bold;font-stretch:normal;font-family:'EB Garamond';-inkscape-font-specification:'EB Garamond Bold';text-align:center;text-anchor:middle;fill:#ffffff"
       id="path984" />
    <path
       d="m 575.49664,207.78399 q -2.08,0 -3.8,-1.12 -1.72,-1.16 -2.72,-3.12 -0.96,-1.96 -0.96,-4.36 0,-2.56 1.16,-4.64 1.2,-2.12 3.24,-3.36 2.04,-1.24 4.52,-1.24 1.6,0 3,0.56 1.44,0.56 2.44,1.6 0.36,0.36 0.36,0.72 0,0.4 -0.76,1.16 -0.72,0.72 -1.16,0.72 -0.36,0 -0.64,-0.16 -0.24,-0.16 -0.72,-0.56 -1.04,-0.88 -2.12,-1.4 -1.04,-0.56 -1.8,-0.56 -1.56,0 -2.32,1.28 -0.76,1.28 -0.76,4.08 0,2.96 1.36,4.64 1.36,1.68 3.84,1.68 1.16,0 2.04,-0.36 0.88,-0.36 1.88,-1.2 0.12,-0.08 0.32,-0.2 0.2,-0.16 0.36,-0.16 0.48,0 0.48,0.64 0,0.48 -0.32,1.12 -0.44,0.88 -1.48,1.88 -1,1 -2.44,1.68 -1.44,0.68 -3,0.68 z"
       style="font-style:normal;font-variant:normal;font-weight:bold;font-stretch:normal;font-family:'EB Garamond';-inkscape-font-specification:'EB Garamond Bold';text-align:center;text-anchor:middle;fill:#ffffff"
       id="path986" />
    <path
       d="m 584.59039,207.34399 q -0.8,0 -0.8,-0.56 0,-0.56 0.92,-0.8 0.88,-0.32 1.2,-0.56 0.32,-0.24 0.32,-1 v -19.2 q 0,-1.28 -0.32,-1.96 -0.32,-0.72 -1.24,-0.92 -0.44,-0.08 -0.44,-0.6 0,-0.52 0.4,-0.6 1.48,-0.28 5.2,-1.64 l 0.92,-0.36 q 0.36,-0.12 0.52,-0.12 0.4,0 0.4,0.48 l -0.08,0.84 -0.16,1.92 0.04,14.96 q 0,0.48 0.36,0.48 0.24,0 0.64,-0.32 1.36,-1.2 2.56,-2.52 1.2,-1.32 1.64,-2 0.08,-0.12 0.2,-0.32 0.16,-0.24 0.16,-0.36 0,-0.24 -0.36,-0.44 -0.32,-0.2 -0.92,-0.28 -0.48,-0.08 -0.48,-0.44 0,-0.56 0.88,-0.56 h 1.96 q 1.08,0 5.76,-0.36 0.44,0 0.44,0.44 0,0.64 -0.92,0.84 -1.44,0.32 -3.44,1.48 -1.04,0.56 -2.24,1.48 -1.2,0.88 -2.08,1.72 -0.2,0.2 -0.2,0.44 0,0.12 0.24,0.44 l 1.52,2 q 2.28,3.12 3.88,4.92 0.6,0.68 1.56,1.28 0.96,0.6 1.68,0.88 0.08,0.04 0.4,0.16 0.32,0.08 0.48,0.24 0.2,0.16 0.2,0.36 0,0.56 -0.88,0.56 -1.8,0 -4.92,-0.08 l -4.08,-0.04 q -0.36,0 -0.6,-0.16 -0.2,-0.16 -0.2,-0.4 0,-0.28 0.2,-0.44 0.24,-0.2 0.68,-0.36 0.64,-0.24 0.68,-0.64 0,-0.2 -0.48,-0.88 l -3.88,-5.36 q -0.08,-0.08 -0.2,-0.08 -0.24,0 -0.24,0.28 v 2.48 2.8 q 0,0.64 0.28,0.96 0.28,0.28 0.92,0.52 0.84,0.32 0.84,0.8 0,0.28 -0.2,0.44 -0.2,0.16 -0.52,0.16 -1.2,0 -2.16,-0.12 -1.2,-0.08 -1.88,-0.08 -0.64,0 -1.92,0.08 -1.08,0.12 -2.24,0.12 z"
       style="font-style:normal;font-variant:normal;font-weight:bold;font-stretch:normal;font-family:'EB Garamond';-inkscape-font-specification:'EB Garamond Bold';text-align:center;text-anchor:middle;fill:#ffffff"
       id="path988" />
    <path
       d="m 610.18539,207.78399 q -1.6,0 -2.8,-1.08 -1.2,-1.12 -1.2,-2.64 0,-1.36 0.8,-2.24 0.84,-0.92 2.6,-1.68 l 3.56,-1.56 q 0.8,-0.36 0.96,-0.64 0.2,-0.28 0.2,-1.04 l 0.04,-2.28 q 0.04,-1.16 -0.4,-1.8 -0.44,-0.64 -1.32,-0.64 -0.48,0 -1.04,0.24 -0.52,0.2 -0.8,0.48 -0.24,0.28 -0.24,0.84 0,0.28 0.04,0.6 0.04,0.28 0.04,0.56 0,0.4 -1.36,1 -1.32,0.6 -2.2,0.6 -0.32,0 -0.52,-0.24 -0.2,-0.24 -0.2,-0.6 0,-0.64 0.44,-1.24 0.44,-0.6 1.44,-1.44 1.56,-1.28 3.52,-2.16 1.96,-0.88 3.28,-0.88 2.12,0 3.4,1.4 1.28,1.36 1.24,3.64 l -0.2,8.08 q -0.04,0.92 0.32,1.56 0.36,0.64 0.88,0.64 0.76,0 1.32,-0.52 0.12,-0.12 0.24,-0.12 0.2,0 0.32,0.16 0.16,0.12 0.16,0.28 0,0.52 -0.72,1.24 -1.48,1.48 -3.36,1.48 -1.16,0 -2.04,-0.56 -0.88,-0.52 -1.68,-1.72 h -0.08 q -1.32,1.24 -2.4,1.76 -1.04,0.52 -2.24,0.52 z m 2.4,-2.6 q 0.76,0 1.28,-0.6 0.28,-0.44 0.28,-1.04 l 0.12,-2.88 q 0,-0.64 -0.4,-0.64 -0.2,0 -0.48,0.16 -1.28,0.6 -1.8,1.2 -0.48,0.6 -0.48,1.8 0,1.04 0.44,1.52 0.44,0.48 1.04,0.48 z"
       style="font-style:normal;font-variant:normal;font-weight:bold;font-stretch:normal;font-family:'EB Garamond';-inkscape-font-specification:'EB Garamond Bold';text-align:center;text-anchor:middle;fill:#ffffff"
       id="path990" />
    <path
       d="m 642.12539,190.86399 q 0.28,0 0.44,0.24 0.2,0.24 0.2,0.64 0,0.28 -0.16,0.72 -0.16,0.4 -0.36,0.72 -0.24,0.28 -0.52,0.28 h -1.08 q -1,0 -1.4,0.32 -0.16,0.2 -0.2,0.56 0,0.32 0,1.32 0,2.08 -1.08,3.84 -1.04,1.76 -2.84,2.84 -1.8,1.04 -3.88,1.04 -1.24,0 -2.68,-0.52 -0.36,0.24 -0.6,0.56 -0.2,0.28 -0.2,0.52 0,0.64 1.2,0.96 1.2,0.32 4.48,0.56 4.32,0.32 6.28,1.32 1.96,1 1.96,2.88 0,2.16 -1.56,4.28 -1.56,2.12 -4.04,3.48 -2.44,1.36 -4.92,1.36 -3.88,0 -6.08,-1.24 -2.2,-1.2 -2.2,-3.32 0,-1.28 0.28,-2 0.32,-0.68 1.28,-1.4 0.64,-0.44 1.36,-1 0.72,-0.52 1,-0.76 -2.84,-1.12 -2.84,-3.64 0,-0.88 1.08,-1.56 1.72,-1.28 2.12,-1.68 -1.48,-0.92 -2.4,-2.32 -0.88,-1.44 -0.88,-3.12 0,-1.96 1.12,-3.52 1.12,-1.56 2.96,-2.44 1.88,-0.88 4,-0.88 1.2,0 3.04,0.44 1.12,0.24 1.72,0.32 1.68,0.32 3.2,0.32 0.52,0 1.32,-0.08 z m -10.44,10.76 q 1.24,0 2,-1.4 0.76,-1.4 0.76,-3.76 0,-2.2 -0.84,-3.56 -0.8,-1.36 -2.08,-1.36 -1.16,0 -2,1.4 -0.8,1.36 -0.8,3.4 0,2.2 0.84,3.76 0.88,1.52 2.12,1.52 z m 5.16,10.64 q 0,-0.64 -0.48,-1.04 -0.44,-0.4 -1.56,-0.68 -1.08,-0.24 -3.16,-0.48 -1.2,-0.08 -2.84,-0.4 -1.16,0.72 -1.76,1.52 -0.56,0.8 -0.56,1.8 0,1.64 1.36,2.72 1.36,1.08 3.48,1.08 2.8,0 3.92,-1.08 0.76,-0.72 1.16,-1.64 0.44,-0.88 0.44,-1.8 z"
       style="font-style:normal;font-variant:normal;font-weight:bold;font-stretch:normal;font-family:'EB Garamond';-inkscape-font-specification:'EB Garamond Bold';text-align:center;text-anchor:middle;fill:#ffffff"
       id="path992" />
    <path
       d="m 650.65289,207.78399 q -2.12,0 -3.84,-1.12 -1.72,-1.16 -2.72,-3.16 -0.96,-2 -0.96,-4.48 0,-2.48 1.16,-4.56 1.16,-2.08 3.16,-3.28 2.04,-1.24 4.4,-1.24 1.68,0 3.08,0.72 1.4,0.72 2.2,2 0.8,1.28 0.8,2.8 0,0.8 -0.32,1.16 -0.28,0.36 -0.92,0.36 h -8 q -0.56,0 -0.84,0.32 -0.24,0.32 -0.24,1.08 0,2.32 1.48,3.92 1.48,1.56 3.72,1.56 1.12,0 2.08,-0.4 0.96,-0.44 2,-1.24 0.4,-0.32 0.56,-0.32 0.4,0 0.4,0.52 0,0.52 -0.32,1.2 -0.64,1.68 -2.52,2.92 -1.84,1.24 -4.36,1.24 z m 0.44,-12.48 q 0.92,0 1.44,-0.04 0.52,-0.04 0.92,-0.16 0.2,-0.08 0.32,-0.4 0.12,-0.32 0.12,-0.72 0,-1.04 -0.76,-1.72 -0.72,-0.72 -1.8,-0.72 -1.24,0 -2.24,1.04 -1,1 -0.96,2.16 0,0.56 0.56,0.56 z"
       style="font-style:normal;font-variant:normal;font-weight:bold;font-stretch:normal;font-family:'EB Garamond';-inkscape-font-specification:'EB Garamond Bold';text-align:center;text-anchor:middle;fill:#ffffff"
       id="path994" />
    <path
       d="m 665.53164,207.78399 q -2.88,0 -4.8,-1.36 -0.36,-0.56 -0.52,-1.8 -0.16,-1.28 -0.12,-2.76 0,-0.48 0.8,-0.48 0.28,0 0.52,0.2 0.24,0.16 0.32,0.4 0.84,1.92 1.84,3 1,1.04 2.32,1.04 1,0 1.6,-0.64 0.6,-0.64 0.6,-1.52 0,-0.96 -0.72,-1.64 -0.72,-0.68 -2.08,-1.4 -2.12,-1.08 -3.36,-2.4 -1.2,-1.32 -1.2,-3.32 0,-2.32 1.84,-3.76 1.84,-1.44 4.6,-1.44 1.2,0 2.32,0.28 1.16,0.28 1.64,0.6 0.32,0.4 0.52,1.52 0.2,1.08 0.2,2.4 0,0.2 -0.24,0.32 -0.2,0.12 -0.48,0.12 -0.28,0 -0.6,-0.2 -0.28,-0.2 -0.36,-0.4 -0.52,-1.56 -1.36,-2.32 -0.8,-0.8 -1.8,-0.8 -0.92,0 -1.64,0.6 -0.68,0.56 -0.68,1.48 0,0.76 0.68,1.44 0.72,0.64 2.04,1.36 2.72,1.44 3.76,2.68 1.08,1.24 1.08,3.28 0,2.64 -1.76,4.08 -1.72,1.44 -4.96,1.44 z"
       style="font-style:normal;font-variant:normal;font-weight:bold;font-stretch:normal;font-family:'EB Garamond';-inkscape-font-specification:'EB Garamond Bold';text-align:center;text-anchor:middle;fill:#ffffff"
       id="path996" />
  </g>
</svg>
