<?xml version="1.0" encoding="UTF-8" standalone="no"?>
<svg
   xmlns:osb="http://www.openswatchbook.org/uri/2009/osb"
   xmlns:dc="http://purl.org/dc/elements/1.1/"
   xmlns:cc="http://creativecommons.org/ns#"
   xmlns:rdf="http://www.w3.org/1999/02/22-rdf-syntax-ns#"
   xmlns:svg="http://www.w3.org/2000/svg"
   xmlns="http://www.w3.org/2000/svg"
   xmlns:xlink="http://www.w3.org/1999/xlink"
   width="211.40208mm"
   height="119.0625mm"
   viewBox="0 0 211.40208 119.0625"
   version="1.1"
   id="svg3357">
  <defs
     id="defs3351">
    <linearGradient
       id="linearGradient4115"
       osb:paint="solid">
      <stop
         style="stop-color:#000000;stop-opacity:1;"
         offset="0"
         id="stop4113" />
    </linearGradient>
    <linearGradient
       id="linearGradient6114">
      <stop
         style="stop-color:#6f7c91;stop-opacity:1;"
         offset="0"
         id="stop6110" />
      <stop
         style="stop-color:#162d50;stop-opacity:1"
         offset="1"
         id="stop6112" />
    </linearGradient>
    <radialGradient
       xlink:href="#linearGradient6114"
       id="radialGradient6126"
       cx="73.77433"
       cy="66.986313"
       fx="73.77433"
       fy="66.986313"
       r="31.67275"
       gradientTransform="matrix(3.0071285,0,0,1.83657,-125.12732,-58.151445)"
       gradientUnits="userSpaceOnUse" />
    <filter
       style="color-interpolation-filters:sRGB"
       id="filter1186"
       x="-0.81254071"
       width="2.6250813"
       y="-0.62592292"
       height="2.2518458">
      <feGaussianBlur
         stdDeviation="7.3128662"
         id="feGaussianBlur1188" />
    </filter>
    <filter
       style="color-interpolation-filters:sRGB"
       id="filter1190"
       x="-0.93355739"
       width="2.8671148"
       y="-0.63041949"
       height="2.260839">
      <feGaussianBlur
         stdDeviation="7.3128662"
         id="feGaussianBlur1192" />
    </filter>
    <filter
       style="color-interpolation-filters:sRGB"
       id="filter1194"
       x="-0.76708388"
       width="2.5341678"
       y="-0.79776722"
       height="2.5955343">
      <feGaussianBlur
         stdDeviation="7.3128662"
         id="feGaussianBlur1196" />
    </filter>
    <filter
       style="color-interpolation-filters:sRGB"
       id="filter1198"
       x="-0.76308167"
       width="2.5261633"
       y="-0.79776722"
       height="2.5955343">
      <feGaussianBlur
         stdDeviation="7.3128662"
         id="feGaussianBlur1200" />
    </filter>
    <filter
       style="color-interpolation-filters:sRGB"
       id="filter1202"
       x="-1.4245843"
       width="3.8491685"
       y="-0.5850293"
       height="2.1700585">
      <feGaussianBlur
         stdDeviation="7.3128662"
         id="feGaussianBlur1204" />
    </filter>
    <filter
       style="color-interpolation-filters:sRGB"
       id="filter1206"
       x="-0.7738483"
       width="2.5476966"
       y="-0.59293509"
       height="2.1858702">
      <feGaussianBlur
         stdDeviation="7.3128662"
         id="feGaussianBlur1208" />
    </filter>
    <filter
       style="color-interpolation-filters:sRGB"
       id="filter1210"
       x="-0.87754393"
       width="2.7550879"
       y="-0.79776722"
       height="2.5955343">
      <feGaussianBlur
         stdDeviation="7.3128662"
         id="feGaussianBlur1212" />
    </filter>
    <filter
       style="color-interpolation-filters:sRGB"
       id="filter1214"
       x="-0.66682673"
       width="2.3336535"
       y="-0.64241868"
       height="2.2848375">
      <feGaussianBlur
         stdDeviation="7.3128662"
         id="feGaussianBlur1216" />
    </filter>
    <filter
       style="color-interpolation-filters:sRGB"
       id="filter1218"
       x="-0.76708388"
       width="2.5341678"
       y="-0.79776722"
       height="2.5955343">
      <feGaussianBlur
         stdDeviation="7.3128662"
         id="feGaussianBlur1220" />
    </filter>
    <filter
       style="color-interpolation-filters:sRGB"
       id="filter1222"
       x="-0.82167035"
       width="2.6433406"
       y="-0.79776722"
       height="2.5955343">
      <feGaussianBlur
         stdDeviation="7.3128662"
         id="feGaussianBlur1224" />
    </filter>
    <filter
       style="color-interpolation-filters:sRGB"
       id="filter1226"
       x="-0.91031528"
       width="2.8206306"
       y="-0.79776722"
       height="2.5955343">
      <feGaussianBlur
         stdDeviation="7.3128662"
         id="feGaussianBlur1228" />
    </filter>
    <filter
       style="color-interpolation-filters:sRGB"
       id="filter1230"
       x="-0.91031528"
       width="2.8206306"
       y="-0.79776722"
       height="2.5955343">
      <feGaussianBlur
         stdDeviation="7.3128662"
         id="feGaussianBlur1232" />
    </filter>
    <filter
       style="color-interpolation-filters:sRGB"
       id="filter1234"
       x="-0.87754393"
       width="2.7550879"
       y="-0.79776722"
       height="2.5955343">
      <feGaussianBlur
         stdDeviation="7.3128662"
         id="feGaussianBlur1236" />
    </filter>
    <filter
       style="color-interpolation-filters:sRGB"
       id="filter1238"
       x="-0.8294366"
       width="2.6588731"
       y="-0.79776722"
       height="2.5955343">
      <feGaussianBlur
         stdDeviation="7.3128662"
         id="feGaussianBlur1240" />
    </filter>
    <filter
       style="color-interpolation-filters:sRGB"
       id="filter1242"
       x="-0.67921358"
       width="2.3584273"
       y="-0.65782905"
       height="2.3156581">
      <feGaussianBlur
         stdDeviation="7.3128662"
         id="feGaussianBlur1244" />
    </filter>
    <filter
       style="color-interpolation-filters:sRGB"
       id="filter1246"
       x="-0.71577811"
       width="2.4315562"
       y="-0.59293509"
       height="2.1858702">
      <feGaussianBlur
         stdDeviation="7.3128662"
         id="feGaussianBlur1248" />
    </filter>
    <filter
       style="color-interpolation-filters:sRGB"
       id="filter1250"
       x="-0.8294366"
       width="2.6588731"
       y="-0.79776722"
       height="2.5955343">
      <feGaussianBlur
         stdDeviation="7.3128662"
         id="feGaussianBlur1252" />
    </filter>
    <filter
       style="color-interpolation-filters:sRGB"
       id="filter1254"
       x="-0.82167035"
       width="2.6433406"
       y="-0.79776722"
       height="2.5955343">
      <feGaussianBlur
         stdDeviation="7.3128662"
         id="feGaussianBlur1256" />
    </filter>
    <filter
       style="color-interpolation-filters:sRGB"
       id="filter1258"
       x="-0.43528965"
       width="1.8705792"
       y="-0.64620322"
       height="2.2924063">
      <feGaussianBlur
         stdDeviation="7.3128662"
         id="feGaussianBlur1260" />
    </filter>
    <filter
       style="color-interpolation-filters:sRGB"
       id="filter1262"
       x="-1.4108424"
       width="3.8216846"
       y="-0.59293509"
       height="2.1858702">
      <feGaussianBlur
         stdDeviation="7.3128662"
         id="feGaussianBlur1264" />
    </filter>
    <filter
       style="color-interpolation-filters:sRGB"
       id="filter1266"
       x="-1.4108424"
       width="3.8216846"
       y="-0.59293509"
       height="2.1858702">
      <feGaussianBlur
         stdDeviation="7.3128662"
         id="feGaussianBlur1268" />
    </filter>
    <filter
       style="color-interpolation-filters:sRGB"
       id="filter1270"
       x="-0.76308167"
       width="2.5261633"
       y="-0.79776722"
       height="2.5955343">
      <feGaussianBlur
         stdDeviation="7.3128662"
         id="feGaussianBlur1272" />
    </filter>
    <filter
       style="color-interpolation-filters:sRGB"
       id="filter1274"
       x="-1.2536342"
       width="3.5072684"
       y="-0.68665409"
       height="2.3733082">
      <feGaussianBlur
         stdDeviation="7.3128662"
         id="feGaussianBlur1276" />
    </filter>
    <filter
       style="color-interpolation-filters:sRGB"
       id="filter1278"
       x="-0.91031528"
       width="2.8206306"
       y="-0.79776722"
       height="2.5955343">
      <feGaussianBlur
         stdDeviation="7.3128662"
         id="feGaussianBlur1280" />
    </filter>
    <filter
       style="color-interpolation-filters:sRGB"
       id="filter1282"
       x="-0.76708388"
       width="2.5341678"
       y="-0.79776722"
       height="2.5955343">
      <feGaussianBlur
         stdDeviation="7.3128662"
         id="feGaussianBlur1284" />
    </filter>
    <filter
       style="color-interpolation-filters:sRGB"
       id="filter1286"
       x="-1.2644725"
       width="3.5289452"
       y="-0.66480601"
       height="2.329612">
      <feGaussianBlur
         stdDeviation="7.3128662"
         id="feGaussianBlur1288" />
    </filter>
  </defs>
  <metadata
     id="metadata3354">
    <rdf:RDF>
      <cc:Work
         rdf:about="">
        <dc:format>image/svg+xml</dc:format>
        <dc:type
           rdf:resource="http://purl.org/dc/dcmitype/StillImage" />
        <dc:title></dc:title>
      </cc:Work>
    </rdf:RDF>
  </metadata>
  <g
     id="g1034">
    <g
       id="flowRoot874"
       style="font-style:normal;font-weight:normal;font-size:40px;line-height:1.25;font-family:sans-serif;letter-spacing:0px;word-spacing:0px;fill:#000000;fill-opacity:1;stroke:none"
       transform="matrix(1.1097917,0,0,1.0234149,-1.6397714,-7.1516095)" />
    <g
       id="flowRoot1713"
       style="font-style:normal;font-weight:normal;font-size:40px;line-height:1.25;font-family:sans-serif;letter-spacing:0px;word-spacing:0px;fill:#000000;fill-opacity:1;stroke:none"
       transform="translate(-1.4775484,-4.2705595)" />
    <path
       id="rect6108"
       d="M 0,0 H 211.40208 V 119.0625 H 0 Z"
       style="opacity:1;fill:#00aa88;fill-opacity:1;stroke:none;stroke-width:4.38045835;stroke-miterlimit:4;stroke-dasharray:none;paint-order:stroke markers fill" />
    <g
       style="display:inline"
       id="g4921"
       transform="matrix(1.1825108,0,0,1.2934259,-90.830449,-83.919074)">
      <g
         transform="translate(50.270828)"
         id="g4720">
        <g
           id="g4694"
           transform="translate(-47.638093,1.3360133)"
           style="fill:#333333">
          <path
             style="fill:#333333;stroke:none;stroke-width:0.26458347px;stroke-linecap:butt;stroke-linejoin:miter;stroke-opacity:1"
             d="m 144.21101,139.55982 c 0,0 5.43081,5.83681 7.33498,3.79847 2.22288,-2.37952 -12.62665,-36.87139 -12.62665,-36.87139"
             id="path835" />
          <path
             id="path817"
             d="m 97.450493,140.21473 c 7.815327,4.80271 15.630577,9.60538 23.402247,9.51796 7.77167,-0.0874 15.49967,-5.06478 19.38543,-7.57529 3.88576,-2.5105 3.92946,-2.5542 3.97284,-2.59758"
             style="fill:#333333;stroke:none;stroke-width:0.26458332px;stroke-linecap:butt;stroke-linejoin:miter;stroke-opacity:1" />
          <path
             id="path825"
             d="m 97.450491,140.21473 c 0,0 -5.430812,5.83681 -7.33498,3.79847 -2.222882,-2.37952 12.820499,-36.99713 12.820499,-36.99713"
             style="fill:#333333;stroke:none;stroke-width:0.26458332px;stroke-linecap:butt;stroke-linejoin:miter;stroke-opacity:1" />
          <path
             transform="matrix(1.0226412,0,0,1.0473654,-2.3339152,-3.6688483)"
             id="path831"
             d="m 102.93926,105.67937 c 0.0862,-6.905162 0.17248,-13.810016 1.50935,-18.736088 1.33687,-4.926072 3.92412,-7.873272 9.74546,-9.346742 5.82134,-1.473471 14.87673,-1.473471 19.40429,3.368239 4.52756,4.84171 4.52756,14.525398 4.52756,24.209361"
             style="fill:#333333;stroke:none;stroke-width:0.26458332px;stroke-linecap:butt;stroke-linejoin:miter;stroke-opacity:1" />
        </g>
        <g
           id="g4708">
          <path
             id="path4696"
             d="m 49.741667,141.68958 c 0,0 3.615973,-22.40139 5.55625,-33.60208 l 35.983333,-0.26458 6.614583,33.07291 z"
             style="fill:#333333;stroke:none;stroke-width:0.26458332px;stroke-linecap:butt;stroke-linejoin:miter;stroke-opacity:1" />
          <path
             id="rect4698"
             d="m 55.5625,138.25 h 37.041668 v 3.96875 H 55.5625 Z"
             style="opacity:1;fill:#333333;fill-opacity:1;stroke:none;stroke-width:0.26458332" />
          <path
             id="rect4700"
             d="m 59.53125,106.5 h 30.427082 v 3.96875 H 59.53125 Z"
             style="opacity:1;fill:#333333;fill-opacity:1;stroke:none;stroke-width:0.26458332" />
          <path
             id="rect4702"
             d="m 84.666664,105.17708 h 5.291669 v 3.96875 h -5.291669 z"
             style="opacity:1;fill:#333333;fill-opacity:1;stroke:none;stroke-width:0.26458332" />
        </g>
      </g>
      <path
         d="m 138.70455,126.61246 a 15.239734,15.867999 0 0 1 -15.17522,15.86785 15.239734,15.867999 0 0 1 -15.3037,-15.73349 15.239734,15.867999 0 0 1 15.04563,-16.00108 15.239734,15.867999 0 0 1 15.4311,15.59801"
         id="path843"
         style="opacity:1;fill:#e6e6e6;fill-opacity:1;stroke:none;stroke-width:0.26458332" />
      <g
         transform="translate(44.751274,16.383515)"
         id="g4688">
        <g
           id="g4596"
           transform="translate(-41.01042,-15.875)"
           style="fill:#ff6600;stroke:none">
          <path
             id="path4585"
             d="m 111.125,110.46875 c 2.9216,-2.67614 5.84316,-5.35225 8.7091,-5.35212 2.86595,1.3e-4 5.6775,2.67624 8.48882,5.35212"
             style="fill:#ff6600;stroke:none;stroke-width:0.26458332px;stroke-linecap:butt;stroke-linejoin:miter;stroke-opacity:1" />
          <path
             id="path4589"
             d="m 111.125,110.46875 c 2.77957,3.92198 5.48174,5.31906 8.73125,6.61458"
             style="fill:#ff6600;stroke:none;stroke-width:0.26458332px;stroke-linecap:butt;stroke-linejoin:miter;stroke-opacity:1" />
          <path
             id="path4591"
             d="m 128.32292,110.46875 c -1.04604,3.82945 -4.9192,5.32533 -8.46667,6.61458"
             style="fill:#ff6600;stroke:none;stroke-width:0.26458332px;stroke-linecap:butt;stroke-linejoin:miter;stroke-opacity:1" />
        </g>
        <g
           style="fill:#ff6600;stroke:none"
           transform="translate(-41.01042,-15.875)"
           id="g4661">
          <path
             style="fill:#ff6600;stroke:none;stroke-width:0.26458332px;stroke-linecap:butt;stroke-linejoin:miter;stroke-opacity:1"
             d="m 111.125,110.46875 c 2.9216,-2.67614 5.84316,-5.35225 8.7091,-5.35212 2.86595,1.3e-4 5.6775,2.67624 8.48882,5.35212"
             id="path4655" />
          <path
             style="fill:#ff6600;stroke:none;stroke-width:0.26458332px;stroke-linecap:butt;stroke-linejoin:miter;stroke-opacity:1"
             d="m 111.125,110.46875 c 2.77957,3.92198 5.48174,5.31906 8.73125,6.61458"
             id="path4657" />
          <path
             style="fill:#ff6600;stroke:none;stroke-width:0.26458332px;stroke-linecap:butt;stroke-linejoin:miter;stroke-opacity:1"
             d="m 128.32292,110.46875 c -1.04604,3.82945 -4.9192,5.32533 -8.46667,6.61458"
             id="path4659" />
        </g>
        <path
           style="opacity:1;fill:#ff6600;fill-opacity:1;stroke:none;stroke-width:0.26458332"
           id="path4671"
           d="m 78.845833,101.20833 -4.582718,-2.645833 v -5.291666 l 4.582718,-2.645833 4.582717,2.645833 v 5.291666 z" />
        <path
           style="opacity:1;fill:#ff6600;fill-opacity:1;stroke:none;stroke-width:0.26458332"
           id="path4673"
           d="m 83.608335,99.620834 2.319854,-2.397701 0.916543,3.207907 z"
           transform="matrix(0.94729327,-1.274616,1.0295753,1.1727506,-98.356248,87.506876)" />
        <path
           style="opacity:1;fill:#ff6600;fill-opacity:1;stroke:none;stroke-width:0.26458332"
           id="path4675"
           d="m 74.536294,98.196559 -3.844516,-2.340158 3.948894,-2.159369 z"
           transform="matrix(1.141627,0.11210349,-0.08749549,1.2944633,-2.2020547,-37.413635)" />
      </g>
      <path
         transform="scale(0.26458333)"
         id="path4722"
         d="m 457.97263,570.35612 c -18.79507,-2.12161 -40.18257,-11.27811 -71.63974,-30.67068 -8.13959,-5.01787 -8.02372,-4.97631 -9.49602,-3.40625 -1.98328,2.11498 -9.29175,8.28788 -11.94887,10.09229 -7.55689,5.13179 -13.40276,5.68891 -14.83103,1.41342 -1.63872,-4.90546 5.4376,-28.95935 18.84332,-64.05245 9.54282,-24.98091 28.41577,-70.80369 29.41653,-71.42219 0.22811,-0.14098 0.37499,-0.42288 0.3264,-0.62644 -0.0486,-0.20356 0.0318,-0.82849 0.17857,-1.38874 0.14681,-0.56024 0.45269,-8.53609 0.67974,-17.7241 0.63732,-25.79 1.66538,-38.59108 4.07232,-50.7069 4.32594,-21.77558 13.30666,-33.82393 30.11939,-40.40761 16.87389,-6.60764 39.99439,-8.13907 57.78976,-3.82784 20.7168,5.019 32.64507,17.2536 38.14208,39.1216 3.4588,13.75967 4.66657,26.50558 4.98055,52.56114 0.20469,16.98608 0.39447,21.14579 0.94912,20.80299 0.62648,-0.38718 21.06718,49.83231 30.13912,74.04694 11.92704,31.8354 17.56985,50.7662 17.56985,58.9443 0,2.59002 -0.1133,3.01447 -1.03188,3.86578 -3.15357,2.92263 -9.30891,0.77622 -18.04824,-6.29354 -2.16747,-1.75339 -5.03522,-4.30389 -6.3728,-5.66777 -1.33757,-1.36388 -2.56841,-2.47978 -2.7352,-2.47978 -0.16679,0 -5.21474,3.17625 -11.21765,7.05833 -6.00292,3.88209 -13.48133,8.58639 -16.6187,10.45401 -26.52636,15.79064 -49.54126,22.54011 -69.26662,20.31349 z m 19.96508,-32.86866 c 5.28911,-1.14072 8.32959,-2.22946 13.85333,-4.9606 18.43404,-9.11449 30.90578,-28.24854 32.34892,-49.62947 0.94243,-13.9626 -2.58151,-27.3736 -10.20264,-38.82794 -3.0137,-4.52952 -10.61003,-12.34927 -14.86401,-15.30119 l -2.90399,-2.01514 0.75119,-1.40422 c 0.41315,-0.77232 1.12926,-2.38761 1.59134,-3.58952 1.00562,-2.61573 1.41642,-1.9763 -5.09101,-7.92451 -5.72644,-5.23434 -11.15932,-9.40512 -14.87195,-11.41709 -10.91899,-5.91728 -20.15604,-3.88649 -33.81841,7.43508 -3.40229,2.81937 -10.37133,9.1079 -10.53264,9.50415 -0.0784,0.19273 0.9084,1.72266 2.19301,3.39982 1.28461,1.67718 2.26556,3.10249 2.1799,3.16736 -0.0857,0.0649 -1.43922,0.95947 -3.00791,1.98798 -15.62369,10.24371 -25.66261,28.29897 -26.56551,47.77875 -1.32187,28.5191 16.86115,54.02186 43.57738,61.11985 2.07246,0.55061 5.05159,1.17715 6.62027,1.39232 4.35042,0.59669 14.44506,0.21127 18.74273,-0.71563 z m 70.79456,-4.85226 c -1.62471,-0.0773 -4.28333,-0.0773 -5.90804,0 -1.62471,0.0773 -0.2954,0.14062 2.95402,0.14062 3.24942,0 4.57873,-0.0633 2.95402,-0.14062 z m -16.9092,-125.06569 c -0.39218,-0.10248 -1.03391,-0.10248 -1.42608,0 -0.39217,0.10248 -0.0713,0.18634 0.71304,0.18634 0.78434,0 1.10521,-0.0839 0.71304,-0.18634 z"
         style="opacity:1;fill:#333333;fill-opacity:1;stroke:none;stroke-width:0.40745068" />
      <path
         id="rect4846"
         d="m 139.81281,107.16256 h 1.38157 v 1.25205 h -1.38157 z"
         style="opacity:1;fill:#333333;fill-opacity:1;stroke:none;stroke-width:0.26458332" />
      <g
         id="g4877">
        <path
           d="m 133.36974,95.882912 a 3.0704114,3.0704114 0 0 1 -3.05741,3.070384 3.0704114,3.0704114 0 0 1 -3.0833,-3.044394 3.0704114,3.0704114 0 0 1 3.03132,-3.096154 3.0704114,3.0704114 0 0 1 3.10895,3.018185"
           id="path4860"
           style="opacity:1;fill:#e6e6e6;fill-opacity:1;stroke:none;stroke-width:0.26458332" />
        <g
           id="g4864"
           transform="matrix(0.80841168,0,0,1,68.549895,-7.3051882)">
          <path
             style="opacity:1;fill:#000000;fill-opacity:1;stroke:none;stroke-width:0.26458332"
             id="path4862"
             d="m 77.375031,103.39364 a 1.6372987,1.2321938 0 0 1 -1.630369,1.23218 1.6372987,1.2321938 0 0 1 -1.64417,-1.22175 1.6372987,1.2321938 0 0 1 1.616451,-1.24253 1.6372987,1.2321938 0 0 1 1.657853,1.21124" />
        </g>
      </g>
      <g
         transform="matrix(-1,0,0,1,248.68829,0.27470384)"
         id="g4885">
        <path
           style="opacity:1;fill:#e6e6e6;fill-opacity:1;stroke:none;stroke-width:0.26458332"
           id="path4879"
           d="m 133.36974,95.882912 a 3.0704114,3.0704114 0 0 1 -3.05741,3.070384 3.0704114,3.0704114 0 0 1 -3.0833,-3.044394 3.0704114,3.0704114 0 0 1 3.03132,-3.096154 3.0704114,3.0704114 0 0 1 3.10895,3.018185" />
        <g
           transform="matrix(0.80841168,0,0,1,68.549895,-7.3051882)"
           id="g4883">
          <path
             d="m 77.375031,103.39364 a 1.6372987,1.2321938 0 0 1 -1.630369,1.23218 1.6372987,1.2321938 0 0 1 -1.64417,-1.22175 1.6372987,1.2321938 0 0 1 1.616451,-1.24253 1.6372987,1.2321938 0 0 1 1.657853,1.21124"
             id="path4881"
             style="opacity:1;fill:#000000;fill-opacity:1;stroke:none;stroke-width:0.26458332" />
        </g>
      </g>
    </g>
    <g
       id="text1271"
       style="font-style:normal;font-weight:normal;font-size:16.42661667px;line-height:1.25;font-family:sans-serif;letter-spacing:0px;word-spacing:0px;fill:#005544;fill-opacity:1;stroke:#005544;stroke-width:2.05332708;stroke-linecap:round;stroke-linejoin:round;stroke-miterlimit:4;stroke-dasharray:none"
       transform="scale(0.70757096,1.4132858)"
       aria-label="Install  WordPressinDebian  Buster">
      <path
         id="path1043"
         style="font-style:normal;font-variant:normal;font-weight:normal;font-stretch:normal;font-family:'Sansita One';-inkscape-font-specification:'Sansita One';text-align:center;text-anchor:middle;fill:#005544;stroke:#005544;stroke-width:2.05332708;stroke-linecap:round;stroke-linejoin:round;stroke-miterlimit:4;stroke-dasharray:none"
         d="m 123.90919,29.372709 2.08618,-10.841567 h 3.61385 l -2.11903,10.841567 z" />
      <path
         id="path1045"
         style="font-style:normal;font-variant:normal;font-weight:normal;font-stretch:normal;font-family:'Sansita One';-inkscape-font-specification:'Sansita One';text-align:center;text-anchor:middle;fill:#005544;stroke:#005544;stroke-width:2.05332708;stroke-linecap:round;stroke-linejoin:round;stroke-miterlimit:4;stroke-dasharray:none"
         d="m 136.90957,29.701242 q -1.98762,0 -1.98762,-1.544102 0.0164,-0.427092 0.14784,-1.149864 l 0.29568,-1.511248 q 0.44352,-2.13546 0.44352,-2.611832 0,-0.952744 -0.55851,-0.952744 -0.93631,0 -1.42911,2.447566 l -0.96917,4.993691 -3.30175,0.328533 1.70837,-8.722534 2.69396,-0.312106 -0.26283,1.609809 q 0.77206,-1.609809 3.13749,-1.609809 1.14986,0 1.62623,0.492799 0.4928,0.476372 0.4928,1.560529 0,1.01845 -0.52565,3.400309 -0.2464,1.06773 -0.2464,1.478396 0,0.394238 0.21355,0.624211 0.22997,0.229973 0.5585,0.262826 -0.16426,0.558505 -0.7392,0.887037 -0.5585,0.328533 -1.2977,0.328533 z" />
      <path
         id="path1047"
         style="font-style:normal;font-variant:normal;font-weight:normal;font-stretch:normal;font-family:'Sansita One';-inkscape-font-specification:'Sansita One';text-align:center;text-anchor:middle;fill:#005544;stroke:#005544;stroke-width:2.05332708;stroke-linecap:round;stroke-linejoin:round;stroke-miterlimit:4;stroke-dasharray:none"
         d="m 145.17139,23.606967 q 0.22997,-0.607785 0.22997,-1.133437 0,-0.96917 -0.78848,-0.96917 -0.41066,0 -0.75562,0.377812 -0.32853,0.361386 -0.32853,0.821331 0,0.328532 0.26282,0.591358 0.37782,0.361386 1.34699,0.952744 0.96917,0.591358 1.33055,1.084157 0.37781,0.476371 0.37781,1.149863 0,0.657064 -0.32853,1.264849 -0.3121,0.607785 -0.88704,1.034877 -1.23199,0.919891 -3.20319,0.919891 -1.06773,0 -1.88906,-0.558505 -0.82133,-0.542079 -0.82133,-1.182717 0,-0.640638 0.45995,-1.01845 0.47637,-0.377812 1.16629,-0.377812 0.68992,0 1.11701,0.262826 -0.21355,0.542078 -0.21355,0.903464 0,1.084156 0.91989,1.084156 0.39424,0 0.65707,-0.246399 0.26282,-0.246399 0.26282,-0.673491 0,-0.837758 -1.41269,-1.724795 -1.14986,-0.755624 -1.41269,-1.051303 -0.44351,-0.525652 -0.44351,-1.182717 0,-0.657065 0.3121,-1.281276 0.31211,-0.624211 0.88704,-1.06773 1.19914,-0.919891 3.28532,-0.919891 1.06773,0 1.69194,0.427092 0.64064,0.427093 0.64064,1.149864 0,0.722771 -0.44352,1.133436 -0.42709,0.410666 -1.21557,0.410666 -0.54207,0 -0.8049,-0.180693 z" />
      <path
         id="path1049"
         style="font-style:normal;font-variant:normal;font-weight:normal;font-stretch:normal;font-family:'Sansita One';-inkscape-font-specification:'Sansita One';text-align:center;text-anchor:middle;fill:#005544;stroke:#005544;stroke-width:2.05332708;stroke-linecap:round;stroke-linejoin:round;stroke-miterlimit:4;stroke-dasharray:none"
         d="m 148.51138,27.730048 q 0,-0.443519 0.22998,-1.560529 l 0.87061,-4.435186 h -0.96917 l 0.0657,-0.492799 q 1.9712,-0.591358 3.87668,-2.0369 h 0.78848 l -0.39424,1.790501 h 1.28128 l -0.14784,0.739198 h -1.26485 l -0.83776,4.435186 q -0.21354,1.01845 -0.21354,1.363409 0,0.788478 0.68991,0.952744 -0.16426,0.558505 -0.75562,0.887037 -0.59136,0.328533 -1.42912,0.328533 -0.83775,0 -1.31413,-0.525652 -0.47637,-0.525652 -0.47637,-1.445542 z" />
      <path
         id="path1051"
         style="font-style:normal;font-variant:normal;font-weight:normal;font-stretch:normal;font-family:'Sansita One';-inkscape-font-specification:'Sansita One';text-align:center;text-anchor:middle;fill:#005544;stroke:#005544;stroke-width:2.05332708;stroke-linecap:round;stroke-linejoin:round;stroke-miterlimit:4;stroke-dasharray:none"
         d="m 154.82613,28.879911 q -0.37781,-0.427092 -0.5585,-1.100584 -0.16427,-0.673491 -0.16427,-1.774074 0,-1.100583 0.37781,-2.102607 0.37782,-1.002024 1.06773,-1.724795 1.41269,-1.511249 3.74527,-1.511249 0.83776,0 1.44554,0.279253 l 2.80896,-0.279253 -1.21557,6.406381 q -0.0493,0.197119 -0.0493,0.558505 0,0.361385 0.21354,0.591358 0.22997,0.229973 0.55851,0.262826 -0.16427,0.558505 -0.77205,0.887037 -0.59136,0.328533 -1.26485,0.328533 -0.67349,0 -1.13344,-0.262826 -0.44352,-0.2464 -0.57493,-0.673492 -0.26283,0.410666 -0.82133,0.673492 -0.55851,0.262826 -1.31413,0.262826 -0.7392,0 -1.34698,-0.19712 -0.60779,-0.197119 -1.00203,-0.624211 z m 3.46602,-6.669207 q -0.18069,0.29568 -0.34496,0.804905 -0.16427,0.492798 -0.44352,1.839781 -0.26283,1.330556 -0.26283,2.283299 0,0.952744 0.14784,1.231997 0.14784,0.279252 0.41067,0.279252 0.52565,0 0.90346,-0.492798 0.39424,-0.509225 0.54208,-1.396263 l 0.87061,-4.812998 q -0.34496,-0.29568 -0.75562,-0.29568 -0.39424,0 -0.64064,0.131413 -0.22997,0.131413 -0.42709,0.427092 z" />
      <path
         id="path1053"
         style="font-style:normal;font-variant:normal;font-weight:normal;font-stretch:normal;font-family:'Sansita One';-inkscape-font-specification:'Sansita One';text-align:center;text-anchor:middle;fill:#005544;stroke:#005544;stroke-width:2.05332708;stroke-linecap:round;stroke-linejoin:round;stroke-miterlimit:4;stroke-dasharray:none"
         d="m 168.37655,28.469245 q -0.50922,1.231997 -2.13546,1.231997 -0.82133,0 -1.34698,-0.574932 -0.42709,-0.476372 -0.42709,-1.01845 0,-1.231996 0.57493,-3.925962 l 1.19914,-6.30782 3.33461,-0.328533 -1.59339,8.311868 q -0.27925,1.21557 -0.27925,1.642662 0,0.936317 0.67349,0.96917 z" />
      <path
         id="path1055"
         style="font-style:normal;font-variant:normal;font-weight:normal;font-stretch:normal;font-family:'Sansita One';-inkscape-font-specification:'Sansita One';text-align:center;text-anchor:middle;fill:#005544;stroke:#005544;stroke-width:2.05332708;stroke-linecap:round;stroke-linejoin:round;stroke-miterlimit:4;stroke-dasharray:none"
         d="m 173.70237,28.469245 q -0.50923,1.231997 -2.13546,1.231997 -0.82133,0 -1.34698,-0.574932 -0.4271,-0.476372 -0.4271,-1.01845 0,-1.231996 0.57494,-3.925962 l 1.19914,-6.30782 3.3346,-0.328533 -1.59338,8.311868 q -0.27925,1.21557 -0.27925,1.642662 0,0.936317 0.67349,0.96917 z" />
      <path
         id="path1057"
         style="font-style:normal;font-variant:normal;font-weight:normal;font-stretch:normal;font-family:'Sansita One';-inkscape-font-specification:'Sansita One';text-align:center;text-anchor:middle;fill:#005544;stroke:#005544;stroke-width:2.05332708;stroke-linecap:round;stroke-linejoin:round;stroke-miterlimit:4;stroke-dasharray:none"
         d="m 182.25037,19.188207 q 0.22997,-0.459945 0.72277,-0.706345 0.50923,-0.262825 1.19914,-0.262825 1.08416,0 1.7248,0.788477 0.65706,0.772051 0.65706,2.480419 v 5.864302 l 3.7617,-8.804666 h 1.93834 l 0.44352,8.311868 -0.0493,0.476372 3.90953,-8.78824 h 2.25045 l -5.25652,10.82514 h -3.49887 l -0.32853,-4.993691 -2.16831,4.993691 h -3.95882 l -0.4928,-7.884776 q -0.0493,-0.887037 -0.29567,-1.461969 -0.22998,-0.591358 -0.55851,-0.837757 z" />
      <path
         id="path1059"
         style="font-style:normal;font-variant:normal;font-weight:normal;font-stretch:normal;font-family:'Sansita One';-inkscape-font-specification:'Sansita One';text-align:center;text-anchor:middle;fill:#005544;stroke:#005544;stroke-width:2.05332708;stroke-linecap:round;stroke-linejoin:round;stroke-miterlimit:4;stroke-dasharray:none"
         d="m 201.39815,29.701242 q -3.61385,0 -3.61385,-3.40031 0,-2.414713 1.33056,-3.975241 1.41268,-1.659089 3.86025,-1.659089 1.77407,0 2.67754,0.821331 0.90346,0.821331 0.90346,2.546126 0,2.628259 -1.41269,4.155934 -1.37983,1.511249 -3.74527,1.511249 z m 0.4271,-7.145579 q -0.19712,0.443519 -0.36139,1.11701 -0.14784,0.657065 -0.34496,1.708368 -0.19712,1.051304 -0.19712,2.349007 0,0.427092 0.13142,0.706344 0.14784,0.279253 0.52565,0.279253 0.37781,0 0.60778,-0.180693 0.2464,-0.180693 0.42709,-0.607785 0.32854,-0.755624 0.59136,-2.151887 0.26283,-1.412689 0.27926,-2.020474 0.0328,-0.607784 0.0328,-1.051303 0,-0.459945 -0.13141,-0.755624 -0.13142,-0.29568 -0.50923,-0.29568 -0.36139,0 -0.60778,0.229973 -0.2464,0.229973 -0.44352,0.673491 z" />
      <path
         id="path1061"
         style="font-style:normal;font-variant:normal;font-weight:normal;font-stretch:normal;font-family:'Sansita One';-inkscape-font-specification:'Sansita One';text-align:center;text-anchor:middle;fill:#005544;stroke:#005544;stroke-width:2.05332708;stroke-linecap:round;stroke-linejoin:round;stroke-miterlimit:4;stroke-dasharray:none"
         d="m 212.67991,24.75683 q 0.59135,-1.051303 0.59135,-2.119034 0,-0.706344 -0.50922,-0.706344 -0.39424,0 -0.80491,0.673491 -0.42709,0.673491 -0.5585,1.544102 l -0.85418,5.223664 -3.40031,0.328533 1.67551,-8.706107 2.71039,-0.328533 -0.29568,1.659089 q 0.80491,-1.659089 2.61184,-1.659089 0.95274,0 1.46196,0.492799 0.52566,0.492798 0.52566,1.511249 0,1.002023 -0.6735,1.642661 -0.65706,0.640638 -1.7905,0.640638 -0.4928,0 -0.68991,-0.197119 z" />
      <path
         id="path1063"
         style="font-style:normal;font-variant:normal;font-weight:normal;font-stretch:normal;font-family:'Sansita One';-inkscape-font-specification:'Sansita One';text-align:center;text-anchor:middle;fill:#005544;stroke:#005544;stroke-width:2.05332708;stroke-linecap:round;stroke-linejoin:round;stroke-miterlimit:4;stroke-dasharray:none"
         d="m 221.27898,20.666602 q 0.59136,0 1.05131,0.131413 0.0164,-0.06571 0.0493,-0.246399 l 0.0821,-0.509225 q 0.0657,-0.328532 0.16426,-0.870611 l 0.26283,-1.297702 3.2689,-0.328533 -1.82336,9.527438 q -0.0164,0.09856 -0.0164,0.262826 v 0.262826 q 0,0.361385 0.18069,0.640638 0.18069,0.262826 0.47637,0.262826 -0.32853,0.772051 -1.33056,1.100583 -0.34495,0.09856 -0.83775,0.09856 -0.47637,0 -0.91989,-0.262826 -0.44352,-0.2464 -0.57493,-0.673492 -0.26283,0.427092 -0.78848,0.673492 -0.52565,0.262826 -1.29771,0.262826 -0.75562,0 -1.39626,-0.19712 -0.62421,-0.197119 -1.01845,-0.624211 -0.72277,-0.837758 -0.72277,-2.743245 0,-2.463993 1.44554,-3.958815 1.44555,-1.511249 3.74527,-1.511249 z m -0.11498,0.985597 q -0.60779,0 -0.93632,0.657065 -0.32853,0.657065 -0.67349,2.2833 -0.32854,1.626235 -0.32854,3.088204 0,1.002023 0.59136,1.002023 0.52565,0 0.88704,-0.525651 0.37781,-0.525652 0.52565,-1.396263 l 0.88704,-4.812998 q -0.34496,-0.29568 -0.95274,-0.29568 z" />
      <path
         id="path1065"
         style="font-style:normal;font-variant:normal;font-weight:normal;font-stretch:normal;font-family:'Sansita One';-inkscape-font-specification:'Sansita One';text-align:center;text-anchor:middle;fill:#005544;stroke:#005544;stroke-width:2.05332708;stroke-linecap:round;stroke-linejoin:round;stroke-miterlimit:4;stroke-dasharray:none"
         d="m 232.79404,18.416156 q 4.02453,0 4.02453,2.841805 0,1.560528 -1.00203,2.496845 -0.9856,0.936318 -2.71039,0.936318 -0.8049,0 -1.42912,-0.459946 -0.29567,-0.197119 -0.49279,-0.459945 1.19914,0 1.82335,-0.722771 0.64064,-0.739198 0.64064,-2.168314 0,-1.429115 -1.41269,-1.429115 h -0.39424 q -0.0986,0 -0.18069,0.01643 l -1.88906,9.90525 h -3.56458 l 2.02047,-10.759434 q 1.75765,-0.164266 2.7761,-0.180692 1.01845,-0.01643 1.7905,-0.01643 z" />
      <path
         id="path1067"
         style="font-style:normal;font-variant:normal;font-weight:normal;font-stretch:normal;font-family:'Sansita One';-inkscape-font-specification:'Sansita One';text-align:center;text-anchor:middle;fill:#005544;stroke:#005544;stroke-width:2.05332708;stroke-linecap:round;stroke-linejoin:round;stroke-miterlimit:4;stroke-dasharray:none"
         d="m 242.03607,24.75683 q 0.59136,-1.051303 0.59136,-2.119034 0,-0.706344 -0.50923,-0.706344 -0.39424,0 -0.8049,0.673491 -0.42709,0.673491 -0.55851,1.544102 l -0.85418,5.223664 -3.40031,0.328533 1.67551,-8.706107 2.7104,-0.328533 -0.29568,1.659089 q 0.8049,-1.659089 2.61183,-1.659089 0.95274,0 1.46197,0.492799 0.52565,0.492798 0.52565,1.511249 0,1.002023 -0.67349,1.642661 -0.65707,0.640638 -1.7905,0.640638 -0.4928,0 -0.68992,-0.197119 z" />
      <path
         id="path1069"
         style="font-style:normal;font-variant:normal;font-weight:normal;font-stretch:normal;font-family:'Sansita One';-inkscape-font-specification:'Sansita One';text-align:center;text-anchor:middle;fill:#005544;stroke:#005544;stroke-width:2.05332708;stroke-linecap:round;stroke-linejoin:round;stroke-miterlimit:4;stroke-dasharray:none"
         d="m 252.11354,26.596611 q 0.41067,0.279253 0.41067,0.903464 0,0.607785 -0.31211,1.002024 -0.31211,0.394238 -0.82133,0.657064 -1.0513,0.542079 -2.18474,0.542079 -1.13344,0 -1.80693,-0.2464 -0.65706,-0.246399 -1.10058,-0.706344 -0.87061,-0.870611 -0.87061,-2.463993 0,-2.480419 1.34698,-3.991668 1.44554,-1.626235 3.95881,-1.626235 1.56053,0 2.33258,0.657065 0.57494,0.492799 0.57494,1.297703 0,2.891084 -4.9937,2.891084 -0.0657,0.427092 -0.0657,0.788478 0,0.755624 0.32853,1.051303 0.34496,0.279253 0.96917,0.279253 0.62421,0 1.28128,-0.279253 0.67349,-0.295679 0.95274,-0.755624 z m -3.35103,-1.790501 q 1.16629,0 1.83978,-0.722771 0.67349,-0.689918 0.67349,-1.790502 0,-0.377812 -0.14784,-0.574931 -0.13141,-0.213546 -0.41066,-0.213546 -0.27925,0 -0.52565,0.114986 -0.22998,0.09856 -0.47638,0.459945 -0.60778,0.821331 -0.95274,2.726819 z" />
      <path
         id="path1071"
         style="font-style:normal;font-variant:normal;font-weight:normal;font-stretch:normal;font-family:'Sansita One';-inkscape-font-specification:'Sansita One';text-align:center;text-anchor:middle;fill:#005544;stroke:#005544;stroke-width:2.05332708;stroke-linecap:round;stroke-linejoin:round;stroke-miterlimit:4;stroke-dasharray:none"
         d="m 259.09896,23.606967 q 0.22997,-0.607785 0.22997,-1.133437 0,-0.96917 -0.78848,-0.96917 -0.41066,0 -0.75562,0.377812 -0.32853,0.361386 -0.32853,0.821331 0,0.328532 0.26282,0.591358 0.37781,0.361386 1.34698,0.952744 0.96917,0.591358 1.33056,1.084157 0.37781,0.476371 0.37781,1.149863 0,0.657064 -0.32853,1.264849 -0.31211,0.607785 -0.88704,1.034877 -1.23199,0.919891 -3.20319,0.919891 -1.06773,0 -1.88906,-0.558505 -0.82133,-0.542079 -0.82133,-1.182717 0,-0.640638 0.45995,-1.01845 0.47637,-0.377812 1.16629,-0.377812 0.68991,0 1.11701,0.262826 -0.21355,0.542078 -0.21355,0.903464 0,1.084156 0.91989,1.084156 0.39424,0 0.65707,-0.246399 0.26282,-0.246399 0.26282,-0.673491 0,-0.837758 -1.41269,-1.724795 -1.14986,-0.755624 -1.41269,-1.051303 -0.44352,-0.525652 -0.44352,-1.182717 0,-0.657065 0.31211,-1.281276 0.31211,-0.624211 0.88704,-1.06773 1.19914,-0.919891 3.28532,-0.919891 1.06773,0 1.69194,0.427092 0.64064,0.427093 0.64064,1.149864 0,0.722771 -0.44352,1.133436 -0.42709,0.410666 -1.21557,0.410666 -0.54208,0 -0.8049,-0.180693 z" />
      <path
         id="path1073"
         style="font-style:normal;font-variant:normal;font-weight:normal;font-stretch:normal;font-family:'Sansita One';-inkscape-font-specification:'Sansita One';text-align:center;text-anchor:middle;fill:#005544;stroke:#005544;stroke-width:2.05332708;stroke-linecap:round;stroke-linejoin:round;stroke-miterlimit:4;stroke-dasharray:none"
         d="m 267.08768,23.606967 q 0.22997,-0.607785 0.22997,-1.133437 0,-0.96917 -0.78847,-0.96917 -0.41067,0 -0.75563,0.377812 -0.32853,0.361386 -0.32853,0.821331 0,0.328532 0.26283,0.591358 0.37781,0.361386 1.34698,0.952744 0.96917,0.591358 1.33055,1.084157 0.37782,0.476371 0.37782,1.149863 0,0.657064 -0.32854,1.264849 -0.3121,0.607785 -0.88703,1.034877 -1.232,0.919891 -3.20319,0.919891 -1.06773,0 -1.88906,-0.558505 -0.82134,-0.542079 -0.82134,-1.182717 0,-0.640638 0.45995,-1.01845 0.47637,-0.377812 1.16629,-0.377812 0.68992,0 1.11701,0.262826 -0.21355,0.542078 -0.21355,0.903464 0,1.084156 0.91989,1.084156 0.39424,0 0.65707,-0.246399 0.26282,-0.246399 0.26282,-0.673491 0,-0.837758 -1.41268,-1.724795 -1.14987,-0.755624 -1.41269,-1.051303 -0.44352,-0.525652 -0.44352,-1.182717 0,-0.657065 0.3121,-1.281276 0.31211,-0.624211 0.88704,-1.06773 1.19914,-0.919891 3.28532,-0.919891 1.06773,0 1.69195,0.427092 0.64063,0.427093 0.64063,1.149864 0,0.722771 -0.44351,1.133436 -0.4271,0.410666 -1.21557,0.410666 -0.54208,0 -0.80491,-0.180693 z" />
      <path
         id="path1075"
         style="font-style:normal;font-variant:normal;font-weight:normal;font-stretch:normal;font-family:'Sansita One';-inkscape-font-specification:'Sansita One';text-align:center;text-anchor:middle;fill:#005544;stroke:#005544;stroke-width:2.05332708;stroke-linecap:round;stroke-linejoin:round;stroke-miterlimit:4;stroke-dasharray:none"
         d="m 193.25749,49.002527 q -0.50923,1.231996 -2.13546,1.231996 -0.83776,0 -1.36341,-0.574932 -0.44352,-0.509225 -0.44352,-1.01845 0,-1.330556 0.60778,-3.925961 l 0.60779,-3.186764 3.3346,-0.328532 -1.00202,5.190811 q -0.27925,1.215569 -0.27925,1.642661 0,0.936317 0.67349,0.969171 z m -2.43114,-9.757411 q 0,-0.640638 0.52565,-0.985597 0.54208,-0.344959 1.31413,-0.344959 0.77205,0 1.23199,0.344959 0.47638,0.344959 0.47638,0.985597 0,0.640638 -0.52566,0.969171 -0.50922,0.328532 -1.28127,0.328532 -0.77205,0 -1.26485,-0.328532 -0.47637,-0.328533 -0.47637,-0.969171 z" />
      <path
         id="path1077"
         style="font-style:normal;font-variant:normal;font-weight:normal;font-stretch:normal;font-family:'Sansita One';-inkscape-font-specification:'Sansita One';text-align:center;text-anchor:middle;fill:#005544;stroke:#005544;stroke-width:2.05332708;stroke-linecap:round;stroke-linejoin:round;stroke-miterlimit:4;stroke-dasharray:none"
         d="m 201.58937,50.234523 q -1.98762,0 -1.98762,-1.544102 0.0164,-0.427092 0.14784,-1.149863 l 0.29568,-1.511249 q 0.44352,-2.13546 0.44352,-2.611832 0,-0.952744 -0.5585,-0.952744 -0.93632,0 -1.42912,2.447566 l -0.96917,4.993692 -3.30175,0.328532 1.70837,-8.722534 2.69396,-0.312105 -0.26282,1.609808 q 0.77205,-1.609808 3.13748,-1.609808 1.14986,0 1.62624,0.492798 0.4928,0.476372 0.4928,1.560529 0,1.01845 -0.52566,3.40031 -0.2464,1.06773 -0.2464,1.478395 0,0.394239 0.21355,0.624211 0.22997,0.229973 0.55851,0.262826 -0.16427,0.558505 -0.7392,0.887038 -0.55851,0.328532 -1.29771,0.328532 z" />
      <path
         id="path1079"
         style="font-style:normal;font-variant:normal;font-weight:normal;font-stretch:normal;font-family:'Sansita One';-inkscape-font-specification:'Sansita One';text-align:center;text-anchor:middle;fill:#005544;stroke:#005544;stroke-width:2.05332708;stroke-linecap:round;stroke-linejoin:round;stroke-miterlimit:4;stroke-dasharray:none"
         d="m 150.27904,63.622199 q 0,6.997739 -7.5891,6.997739 -1.21557,0 -3.21961,-0.295679 l 1.83978,-9.708131 q 0.13141,-0.657064 0.21354,-1.034876 2.49685,-0.180693 3.59743,-0.180693 1.11701,0 2.13546,0.229972 1.01845,0.229973 1.69194,0.739198 1.33056,1.002024 1.33056,3.25247 z m -3.38388,-0.607785 q 0,-2.447565 -1.75765,-2.447565 h -0.16427 q -0.0821,0 -0.16426,0.01643 l -1.69194,8.821093 q 0.0657,0.03285 0.13141,0.03285 h 0.13141 q 0.60779,0 1.232,-0.377813 0.64064,-0.377812 1.13343,-1.149863 1.14987,-1.790501 1.14987,-4.895132 z" />
      <path
         id="path1081"
         style="font-style:normal;font-variant:normal;font-weight:normal;font-stretch:normal;font-family:'Sansita One';-inkscape-font-specification:'Sansita One';text-align:center;text-anchor:middle;fill:#005544;stroke:#005544;stroke-width:2.05332708;stroke-linecap:round;stroke-linejoin:round;stroke-miterlimit:4;stroke-dasharray:none"
         d="m 157.75675,67.663147 q 0.41066,0.279252 0.41066,0.903464 0,0.607785 -0.31211,1.002024 -0.3121,0.394238 -0.82133,0.657064 -1.0513,0.542079 -2.18474,0.542079 -1.13343,0 -1.80692,-0.2464 -0.65707,-0.246399 -1.10059,-0.706344 -0.87061,-0.870611 -0.87061,-2.463993 0,-2.480419 1.34698,-3.991668 1.44555,-1.626235 3.95882,-1.626235 1.56053,0 2.33258,0.657065 0.57493,0.492799 0.57493,1.297703 0,2.891084 -4.99369,2.891084 -0.0657,0.427092 -0.0657,0.788478 0,0.755624 0.32853,1.051303 0.34496,0.279253 0.96918,0.279253 0.62421,0 1.28127,-0.279253 0.67349,-0.295679 0.95275,-0.755624 z m -3.35103,-1.790501 q 1.16629,0 1.83978,-0.722771 0.67349,-0.689918 0.67349,-1.790502 0,-0.377812 -0.14784,-0.574931 -0.13141,-0.213546 -0.41067,-0.213546 -0.27925,0 -0.52565,0.114986 -0.22997,0.09856 -0.47637,0.459945 -0.60779,0.821331 -0.95274,2.726819 z" />
      <path
         id="path1083"
         style="font-style:normal;font-variant:normal;font-weight:normal;font-stretch:normal;font-family:'Sansita One';-inkscape-font-specification:'Sansita One';text-align:center;text-anchor:middle;fill:#005544;stroke:#005544;stroke-width:2.05332708;stroke-linecap:round;stroke-linejoin:round;stroke-miterlimit:4;stroke-dasharray:none"
         d="m 159.61706,69.650768 2.0369,-10.710154 3.3346,-0.328533 -0.50922,2.513273 q -0.1807,0.772051 -0.41067,1.314129 0.36139,-0.459945 1.14987,-0.640638 0.22997,-0.06571 0.50922,-0.06571 1.52768,0 2.36543,0.936318 0.83776,0.91989 0.83776,2.710391 0,2.33258 -1.33056,3.794549 -1.42911,1.593382 -4.02452,1.593382 -1.7905,0 -3.13748,-0.591359 -0.47637,-0.213546 -0.82133,-0.525651 z m 3.30175,-0.14784 q 0.34496,0.295679 0.77205,0.295679 0.42709,0 0.67349,-0.164266 0.2464,-0.164266 0.42709,-0.492798 0.4928,-0.887038 0.88704,-3.59743 0.11499,-0.772051 0.11499,-1.544102 0,-0.77205 -0.1807,-1.01845 -0.16426,-0.246399 -0.49279,-0.246399 -1.00203,0 -1.33056,1.954767 z" />
      <path
         id="path1085"
         style="font-style:normal;font-variant:normal;font-weight:normal;font-stretch:normal;font-family:'Sansita One';-inkscape-font-specification:'Sansita One';text-align:center;text-anchor:middle;fill:#005544;stroke:#005544;stroke-width:2.05332708;stroke-linecap:round;stroke-linejoin:round;stroke-miterlimit:4;stroke-dasharray:none"
         d="m 173.84713,69.535781 q -0.50923,1.231997 -2.13546,1.231997 -0.83776,0 -1.36341,-0.574932 -0.44352,-0.509225 -0.44352,-1.01845 0,-1.330556 0.60779,-3.925962 l 0.60778,-3.186763 3.3346,-0.328533 -1.00202,5.190811 q -0.27925,1.21557 -0.27925,1.642662 0,0.936317 0.67349,0.96917 z m -2.43114,-9.75741 q 0,-0.640638 0.52565,-0.985597 0.54208,-0.344959 1.31413,-0.344959 0.77205,0 1.232,0.344959 0.47637,0.344959 0.47637,0.985597 0,0.640638 -0.52565,0.96917 -0.50923,0.328533 -1.28128,0.328533 -0.77205,0 -1.26485,-0.328533 -0.47637,-0.328532 -0.47637,-0.96917 z" />
      <path
         id="path1087"
         style="font-style:normal;font-variant:normal;font-weight:normal;font-stretch:normal;font-family:'Sansita One';-inkscape-font-specification:'Sansita One';text-align:center;text-anchor:middle;fill:#005544;stroke:#005544;stroke-width:2.05332708;stroke-linecap:round;stroke-linejoin:round;stroke-miterlimit:4;stroke-dasharray:none"
         d="m 175.9369,69.946447 q -0.37781,-0.427092 -0.5585,-1.100584 -0.16427,-0.673491 -0.16427,-1.774074 0,-1.100584 0.37781,-2.102607 0.37782,-1.002024 1.06773,-1.724795 1.41269,-1.511249 3.74527,-1.511249 0.83776,0 1.44555,0.279253 l 2.80895,-0.279253 -1.21557,6.406381 q -0.0493,0.197119 -0.0493,0.558505 0,0.361385 0.21354,0.591358 0.22998,0.229973 0.55851,0.262826 -0.16427,0.558505 -0.77205,0.887037 -0.59136,0.328533 -1.26485,0.328533 -0.67349,0 -1.13344,-0.262826 -0.44352,-0.2464 -0.57493,-0.673492 -0.26283,0.410666 -0.82133,0.673492 -0.55851,0.262826 -1.31413,0.262826 -0.7392,0 -1.34698,-0.19712 -0.60779,-0.197119 -1.00203,-0.624211 z m 3.46602,-6.669207 q -0.18069,0.295679 -0.34496,0.804905 -0.16427,0.492798 -0.44352,1.839781 -0.26282,1.330556 -0.26282,2.283299 0,0.952744 0.14784,1.231997 0.14784,0.279252 0.41066,0.279252 0.52565,0 0.90347,-0.492798 0.39423,-0.509226 0.54207,-1.396263 l 0.87061,-4.812999 q -0.34495,-0.295679 -0.75562,-0.295679 -0.39424,0 -0.64064,0.131413 -0.22997,0.131413 -0.42709,0.427092 z" />
      <path
         id="path1089"
         style="font-style:normal;font-variant:normal;font-weight:normal;font-stretch:normal;font-family:'Sansita One';-inkscape-font-specification:'Sansita One';text-align:center;text-anchor:middle;fill:#005544;stroke:#005544;stroke-width:2.05332708;stroke-linecap:round;stroke-linejoin:round;stroke-miterlimit:4;stroke-dasharray:none"
         d="m 192.50982,70.767778 q -1.98762,0 -1.98762,-1.544102 0.0164,-0.427092 0.14784,-1.149864 l 0.29567,-1.511248 q 0.44352,-2.13546 0.44352,-2.611832 0,-0.952744 -0.5585,-0.952744 -0.93632,0 -1.42912,2.447566 l -0.96917,4.993691 -3.30175,0.328533 1.70837,-8.722534 2.69397,-0.312106 -0.26283,1.609809 q 0.77205,-1.609809 3.13748,-1.609809 1.14987,0 1.62624,0.492799 0.4928,0.476372 0.4928,1.560528 0,1.018451 -0.52565,3.40031 -0.2464,1.06773 -0.2464,1.478396 0,0.394238 0.21354,0.624211 0.22998,0.229973 0.55851,0.262826 -0.16427,0.558505 -0.7392,0.887037 -0.55851,0.328533 -1.2977,0.328533 z" />
      <path
         id="path1091"
         style="font-style:normal;font-variant:normal;font-weight:normal;font-stretch:normal;font-family:'Sansita One';-inkscape-font-specification:'Sansita One';text-align:center;text-anchor:middle;fill:#005544;stroke:#005544;stroke-width:2.05332708;stroke-linecap:round;stroke-linejoin:round;stroke-miterlimit:4;stroke-dasharray:none"
         d="m 202.43329,70.357112 2.06976,-10.759434 q 1.93834,-0.164266 3.18676,-0.164266 1.24842,0 2.05333,0.114986 0.8049,0.09856 1.34698,0.377813 1.08416,0.525651 1.08416,1.971194 0,0.837757 -0.72277,1.544102 -0.6735,0.640638 -1.41269,0.788477 0.78847,0.131413 1.34698,0.722771 0.59136,0.624212 0.59136,1.593382 0,1.872634 -1.39626,2.973218 -1.39627,1.084156 -4.13951,1.084156 -1.88906,0 -4.0081,-0.246399 z M 206.08,69.404368 q 0.14784,0.01643 0.1807,0.01643 h 0.14783 q 1.34699,0 1.92192,-0.887037 0.42709,-0.689918 0.42709,-1.954768 0,-0.673491 -0.44352,-1.034877 -0.42709,-0.361385 -1.41269,-0.394238 z m 3.31818,-7.490537 q 0,-1.363409 -1.31413,-1.363409 h -0.14784 q -0.0657,0 -0.16427,0.01643 l -0.65706,3.466016 h 0.16427 q 2.11903,-0.04928 2.11903,-2.119034 z" />
      <path
         id="path1093"
         style="font-style:normal;font-variant:normal;font-weight:normal;font-stretch:normal;font-family:'Sansita One';-inkscape-font-specification:'Sansita One';text-align:center;text-anchor:middle;fill:#005544;stroke:#005544;stroke-width:2.05332708;stroke-linecap:round;stroke-linejoin:round;stroke-miterlimit:4;stroke-dasharray:none"
         d="m 218.32964,69.749327 q -0.78848,1.018451 -2.74324,1.018451 -1.01845,0 -1.75765,-0.607785 -0.7392,-0.624212 -0.7392,-1.511249 0,-0.492798 0.0493,-0.739198 l 1.10058,-5.847875 3.33461,-0.328533 -1.19915,6.340674 q -0.0657,0.361386 -0.0657,0.574932 0,0.952744 0.57493,0.952744 0.64064,0 1.10058,-0.870611 0.14784,-0.279252 0.21355,-0.640638 l 1.16629,-6.028568 3.23604,-0.328533 -1.21557,6.406381 q -0.0493,0.246399 -0.0493,0.509225 0,0.262826 0.14784,0.558505 0.14784,0.279252 0.62421,0.344959 -0.0986,0.394239 -0.44352,0.657065 -0.72277,0.558505 -1.51125,0.558505 -0.77205,0 -1.23199,-0.279253 -0.45995,-0.279252 -0.59136,-0.739198 z" />
      <path
         id="path1095"
         style="font-style:normal;font-variant:normal;font-weight:normal;font-stretch:normal;font-family:'Sansita One';-inkscape-font-specification:'Sansita One';text-align:center;text-anchor:middle;fill:#005544;stroke:#005544;stroke-width:2.05332708;stroke-linecap:round;stroke-linejoin:round;stroke-miterlimit:4;stroke-dasharray:none"
         d="m 228.3953,64.673503 q 0.22998,-0.607785 0.22998,-1.133437 0,-0.96917 -0.78848,-0.96917 -0.41067,0 -0.75563,0.377812 -0.32853,0.361386 -0.32853,0.821331 0,0.328532 0.26283,0.591358 0.37781,0.361386 1.34698,0.952744 0.96917,0.591358 1.33056,1.084157 0.37781,0.476371 0.37781,1.149863 0,0.657064 -0.32853,1.264849 -0.31211,0.607785 -0.88704,1.034877 -1.232,0.919891 -3.20319,0.919891 -1.06773,0 -1.88906,-0.558505 -0.82133,-0.542079 -0.82133,-1.182717 0,-0.640638 0.45994,-1.01845 0.47637,-0.377812 1.16629,-0.377812 0.68992,0 1.11701,0.262826 -0.21355,0.542078 -0.21355,0.903464 0,1.084156 0.9199,1.084156 0.39423,0 0.65706,-0.246399 0.26283,-0.246399 0.26283,-0.673491 0,-0.837758 -1.41269,-1.724795 -1.14987,-0.755624 -1.41269,-1.051303 -0.44352,-0.525652 -0.44352,-1.182717 0,-0.657065 0.3121,-1.281276 0.31211,-0.624211 0.88704,-1.06773 1.19915,-0.919891 3.28533,-0.919891 1.06773,0 1.69194,0.427092 0.64064,0.427092 0.64064,1.149864 0,0.722771 -0.44352,1.133436 -0.4271,0.410666 -1.21557,0.410666 -0.54208,0 -0.80491,-0.180693 z" />
      <path
         id="path1097"
         style="font-style:normal;font-variant:normal;font-weight:normal;font-stretch:normal;font-family:'Sansita One';-inkscape-font-specification:'Sansita One';text-align:center;text-anchor:middle;fill:#005544;stroke:#005544;stroke-width:2.05332708;stroke-linecap:round;stroke-linejoin:round;stroke-miterlimit:4;stroke-dasharray:none"
         d="m 231.73529,68.796584 q 0,-0.443519 0.22998,-1.560529 l 0.87061,-4.435187 h -0.96917 l 0.0657,-0.492798 q 1.9712,-0.591358 3.87668,-2.0369 h 0.78848 l -0.39424,1.790501 h 1.28128 l -0.14784,0.739197 h -1.26485 l -0.83776,4.435187 q -0.21354,1.01845 -0.21354,1.363409 0,0.788478 0.68992,0.952744 -0.16427,0.558505 -0.75563,0.887037 -0.59136,0.328533 -1.42911,0.328533 -0.83776,0 -1.31413,-0.525652 -0.47638,-0.525652 -0.47638,-1.445542 z" />
      <path
         id="path1099"
         style="font-style:normal;font-variant:normal;font-weight:normal;font-stretch:normal;font-family:'Sansita One';-inkscape-font-specification:'Sansita One';text-align:center;text-anchor:middle;fill:#005544;stroke:#005544;stroke-width:2.05332708;stroke-linecap:round;stroke-linejoin:round;stroke-miterlimit:4;stroke-dasharray:none"
         d="m 243.99648,67.663147 q 0.41066,0.279252 0.41066,0.903464 0,0.607785 -0.3121,1.002024 -0.31211,0.394238 -0.82133,0.657064 -1.05131,0.542079 -2.18474,0.542079 -1.13344,0 -1.80693,-0.2464 -0.65706,-0.246399 -1.10058,-0.706344 -0.87061,-0.870611 -0.87061,-2.463993 0,-2.480419 1.34698,-3.991668 1.44554,-1.626235 3.95881,-1.626235 1.56053,0 2.33258,0.657065 0.57493,0.492799 0.57493,1.297703 0,2.891084 -4.99369,2.891084 -0.0657,0.427092 -0.0657,0.788478 0,0.755624 0.32853,1.051303 0.34496,0.279253 0.96917,0.279253 0.62421,0 1.28128,-0.279253 0.67349,-0.295679 0.95274,-0.755624 z m -3.35103,-1.790501 q 1.16629,0 1.83978,-0.722771 0.67349,-0.689918 0.67349,-1.790502 0,-0.377812 -0.14784,-0.574931 -0.13141,-0.213546 -0.41066,-0.213546 -0.27926,0 -0.52566,0.114986 -0.22997,0.09856 -0.47637,0.459945 -0.60778,0.821331 -0.95274,2.726819 z" />
      <path
         id="path1101"
         style="font-style:normal;font-variant:normal;font-weight:normal;font-stretch:normal;font-family:'Sansita One';-inkscape-font-specification:'Sansita One';text-align:center;text-anchor:middle;fill:#005544;stroke:#005544;stroke-width:2.05332708;stroke-linecap:round;stroke-linejoin:round;stroke-miterlimit:4;stroke-dasharray:none"
         d="m 251.21188,65.823366 q 0.59135,-1.051304 0.59135,-2.119034 0,-0.706344 -0.50922,-0.706344 -0.39424,0 -0.8049,0.673491 -0.4271,0.673491 -0.55851,1.544102 l -0.85418,5.223664 -3.40031,0.328533 1.67551,-8.706107 2.71039,-0.328533 -0.29568,1.659089 q 0.80491,-1.659089 2.61184,-1.659089 0.95274,0 1.46197,0.492799 0.52565,0.492798 0.52565,1.511249 0,1.002023 -0.67349,1.642661 -0.65707,0.640638 -1.79051,0.640638 -0.49279,0 -0.68991,-0.197119 z" />
    </g>
    <g
       aria-label="Install  WordPressinDebian  Buster"
       transform="scale(0.70757096,1.4132858)"
       style="font-style:normal;font-weight:normal;font-size:16.42661667px;line-height:1.25;font-family:sans-serif;letter-spacing:0px;word-spacing:0px;fill:#ffffff;fill-opacity:1;stroke:none;stroke-width:0.41066542"
       id="text1257">
      <path
         d="m 123.90919,29.372709 2.08618,-10.841567 h 3.61385 l -2.11903,10.841567 z"
         style="font-style:normal;font-variant:normal;font-weight:normal;font-stretch:normal;font-family:'Sansita One';-inkscape-font-specification:'Sansita One';text-align:center;text-anchor:middle;fill:#ffffff;stroke-width:0.41066542"
         id="path928" />
      <path
         d="m 136.90957,29.701242 q -1.98762,0 -1.98762,-1.544102 0.0164,-0.427092 0.14784,-1.149864 l 0.29568,-1.511248 q 0.44352,-2.13546 0.44352,-2.611832 0,-0.952744 -0.55851,-0.952744 -0.93631,0 -1.42911,2.447566 l -0.96917,4.993691 -3.30175,0.328533 1.70837,-8.722534 2.69396,-0.312106 -0.26283,1.609809 q 0.77206,-1.609809 3.13749,-1.609809 1.14986,0 1.62623,0.492799 0.4928,0.476372 0.4928,1.560529 0,1.01845 -0.52565,3.400309 -0.2464,1.06773 -0.2464,1.478396 0,0.394238 0.21355,0.624211 0.22997,0.229973 0.5585,0.262826 -0.16426,0.558505 -0.7392,0.887037 -0.5585,0.328533 -1.2977,0.328533 z"
         style="font-style:normal;font-variant:normal;font-weight:normal;font-stretch:normal;font-family:'Sansita One';-inkscape-font-specification:'Sansita One';text-align:center;text-anchor:middle;fill:#ffffff;stroke-width:0.41066542"
         id="path930" />
      <path
         d="m 145.17139,23.606967 q 0.22997,-0.607785 0.22997,-1.133437 0,-0.96917 -0.78848,-0.96917 -0.41066,0 -0.75562,0.377812 -0.32853,0.361386 -0.32853,0.821331 0,0.328532 0.26282,0.591358 0.37782,0.361386 1.34699,0.952744 0.96917,0.591358 1.33055,1.084157 0.37781,0.476371 0.37781,1.149863 0,0.657064 -0.32853,1.264849 -0.3121,0.607785 -0.88704,1.034877 -1.23199,0.919891 -3.20319,0.919891 -1.06773,0 -1.88906,-0.558505 -0.82133,-0.542079 -0.82133,-1.182717 0,-0.640638 0.45995,-1.01845 0.47637,-0.377812 1.16629,-0.377812 0.68992,0 1.11701,0.262826 -0.21355,0.542078 -0.21355,0.903464 0,1.084156 0.91989,1.084156 0.39424,0 0.65707,-0.246399 0.26282,-0.246399 0.26282,-0.673491 0,-0.837758 -1.41269,-1.724795 -1.14986,-0.755624 -1.41269,-1.051303 -0.44351,-0.525652 -0.44351,-1.182717 0,-0.657065 0.3121,-1.281276 0.31211,-0.624211 0.88704,-1.06773 1.19914,-0.919891 3.28532,-0.919891 1.06773,0 1.69194,0.427092 0.64064,0.427093 0.64064,1.149864 0,0.722771 -0.44352,1.133436 -0.42709,0.410666 -1.21557,0.410666 -0.54207,0 -0.8049,-0.180693 z"
         style="font-style:normal;font-variant:normal;font-weight:normal;font-stretch:normal;font-family:'Sansita One';-inkscape-font-specification:'Sansita One';text-align:center;text-anchor:middle;fill:#ffffff;stroke-width:0.41066542"
         id="path932" />
      <path
         d="m 148.51138,27.730048 q 0,-0.443519 0.22998,-1.560529 l 0.87061,-4.435186 h -0.96917 l 0.0657,-0.492799 q 1.9712,-0.591358 3.87668,-2.0369 h 0.78848 l -0.39424,1.790501 h 1.28128 l -0.14784,0.739198 h -1.26485 l -0.83776,4.435186 q -0.21354,1.01845 -0.21354,1.363409 0,0.788478 0.68991,0.952744 -0.16426,0.558505 -0.75562,0.887037 -0.59136,0.328533 -1.42912,0.328533 -0.83775,0 -1.31413,-0.525652 -0.47637,-0.525652 -0.47637,-1.445542 z"
         style="font-style:normal;font-variant:normal;font-weight:normal;font-stretch:normal;font-family:'Sansita One';-inkscape-font-specification:'Sansita One';text-align:center;text-anchor:middle;fill:#ffffff;stroke-width:0.41066542"
         id="path934" />
      <path
         d="m 154.82613,28.879911 q -0.37781,-0.427092 -0.5585,-1.100584 -0.16427,-0.673491 -0.16427,-1.774074 0,-1.100583 0.37781,-2.102607 0.37782,-1.002024 1.06773,-1.724795 1.41269,-1.511249 3.74527,-1.511249 0.83776,0 1.44554,0.279253 l 2.80896,-0.279253 -1.21557,6.406381 q -0.0493,0.197119 -0.0493,0.558505 0,0.361385 0.21354,0.591358 0.22997,0.229973 0.55851,0.262826 -0.16427,0.558505 -0.77205,0.887037 -0.59136,0.328533 -1.26485,0.328533 -0.67349,0 -1.13344,-0.262826 -0.44352,-0.2464 -0.57493,-0.673492 -0.26283,0.410666 -0.82133,0.673492 -0.55851,0.262826 -1.31413,0.262826 -0.7392,0 -1.34698,-0.19712 -0.60779,-0.197119 -1.00203,-0.624211 z m 3.46602,-6.669207 q -0.18069,0.29568 -0.34496,0.804905 -0.16427,0.492798 -0.44352,1.839781 -0.26283,1.330556 -0.26283,2.283299 0,0.952744 0.14784,1.231997 0.14784,0.279252 0.41067,0.279252 0.52565,0 0.90346,-0.492798 0.39424,-0.509225 0.54208,-1.396263 l 0.87061,-4.812998 q -0.34496,-0.29568 -0.75562,-0.29568 -0.39424,0 -0.64064,0.131413 -0.22997,0.131413 -0.42709,0.427092 z"
         style="font-style:normal;font-variant:normal;font-weight:normal;font-stretch:normal;font-family:'Sansita One';-inkscape-font-specification:'Sansita One';text-align:center;text-anchor:middle;fill:#ffffff;stroke-width:0.41066542"
         id="path936" />
      <path
         d="m 168.37655,28.469245 q -0.50922,1.231997 -2.13546,1.231997 -0.82133,0 -1.34698,-0.574932 -0.42709,-0.476372 -0.42709,-1.01845 0,-1.231996 0.57493,-3.925962 l 1.19914,-6.30782 3.33461,-0.328533 -1.59339,8.311868 q -0.27925,1.21557 -0.27925,1.642662 0,0.936317 0.67349,0.96917 z"
         style="font-style:normal;font-variant:normal;font-weight:normal;font-stretch:normal;font-family:'Sansita One';-inkscape-font-specification:'Sansita One';text-align:center;text-anchor:middle;fill:#ffffff;stroke-width:0.41066542"
         id="path938" />
      <path
         d="m 173.70237,28.469245 q -0.50923,1.231997 -2.13546,1.231997 -0.82133,0 -1.34698,-0.574932 -0.4271,-0.476372 -0.4271,-1.01845 0,-1.231996 0.57494,-3.925962 l 1.19914,-6.30782 3.3346,-0.328533 -1.59338,8.311868 q -0.27925,1.21557 -0.27925,1.642662 0,0.936317 0.67349,0.96917 z"
         style="font-style:normal;font-variant:normal;font-weight:normal;font-stretch:normal;font-family:'Sansita One';-inkscape-font-specification:'Sansita One';text-align:center;text-anchor:middle;fill:#ffffff;stroke-width:0.41066542"
         id="path940" />
      <path
         d="m 182.25037,19.188207 q 0.22997,-0.459945 0.72277,-0.706345 0.50923,-0.262825 1.19914,-0.262825 1.08416,0 1.7248,0.788477 0.65706,0.772051 0.65706,2.480419 v 5.864302 l 3.7617,-8.804666 h 1.93834 l 0.44352,8.311868 -0.0493,0.476372 3.90953,-8.78824 h 2.25045 l -5.25652,10.82514 h -3.49887 l -0.32853,-4.993691 -2.16831,4.993691 h -3.95882 l -0.4928,-7.884776 q -0.0493,-0.887037 -0.29567,-1.461969 -0.22998,-0.591358 -0.55851,-0.837757 z"
         style="font-style:normal;font-variant:normal;font-weight:normal;font-stretch:normal;font-family:'Sansita One';-inkscape-font-specification:'Sansita One';text-align:center;text-anchor:middle;fill:#ffffff;stroke-width:0.41066542"
         id="path942" />
      <path
         d="m 201.39815,29.701242 q -3.61385,0 -3.61385,-3.40031 0,-2.414713 1.33056,-3.975241 1.41268,-1.659089 3.86025,-1.659089 1.77407,0 2.67754,0.821331 0.90346,0.821331 0.90346,2.546126 0,2.628259 -1.41269,4.155934 -1.37983,1.511249 -3.74527,1.511249 z m 0.4271,-7.145579 q -0.19712,0.443519 -0.36139,1.11701 -0.14784,0.657065 -0.34496,1.708368 -0.19712,1.051304 -0.19712,2.349007 0,0.427092 0.13142,0.706344 0.14784,0.279253 0.52565,0.279253 0.37781,0 0.60778,-0.180693 0.2464,-0.180693 0.42709,-0.607785 0.32854,-0.755624 0.59136,-2.151887 0.26283,-1.412689 0.27926,-2.020474 0.0328,-0.607784 0.0328,-1.051303 0,-0.459945 -0.13141,-0.755624 -0.13142,-0.29568 -0.50923,-0.29568 -0.36139,0 -0.60778,0.229973 -0.2464,0.229973 -0.44352,0.673491 z"
         style="font-style:normal;font-variant:normal;font-weight:normal;font-stretch:normal;font-family:'Sansita One';-inkscape-font-specification:'Sansita One';text-align:center;text-anchor:middle;fill:#ffffff;stroke-width:0.41066542"
         id="path944" />
      <path
         d="m 212.67991,24.75683 q 0.59135,-1.051303 0.59135,-2.119034 0,-0.706344 -0.50922,-0.706344 -0.39424,0 -0.80491,0.673491 -0.42709,0.673491 -0.5585,1.544102 l -0.85418,5.223664 -3.40031,0.328533 1.67551,-8.706107 2.71039,-0.328533 -0.29568,1.659089 q 0.80491,-1.659089 2.61184,-1.659089 0.95274,0 1.46196,0.492799 0.52566,0.492798 0.52566,1.511249 0,1.002023 -0.6735,1.642661 -0.65706,0.640638 -1.7905,0.640638 -0.4928,0 -0.68991,-0.197119 z"
         style="font-style:normal;font-variant:normal;font-weight:normal;font-stretch:normal;font-family:'Sansita One';-inkscape-font-specification:'Sansita One';text-align:center;text-anchor:middle;fill:#ffffff;stroke-width:0.41066542"
         id="path946" />
      <path
         d="m 221.27898,20.666602 q 0.59136,0 1.05131,0.131413 0.0164,-0.06571 0.0493,-0.246399 l 0.0821,-0.509225 q 0.0657,-0.328532 0.16426,-0.870611 l 0.26283,-1.297702 3.2689,-0.328533 -1.82336,9.527438 q -0.0164,0.09856 -0.0164,0.262826 v 0.262826 q 0,0.361385 0.18069,0.640638 0.18069,0.262826 0.47637,0.262826 -0.32853,0.772051 -1.33056,1.100583 -0.34495,0.09856 -0.83775,0.09856 -0.47637,0 -0.91989,-0.262826 -0.44352,-0.2464 -0.57493,-0.673492 -0.26283,0.427092 -0.78848,0.673492 -0.52565,0.262826 -1.29771,0.262826 -0.75562,0 -1.39626,-0.19712 -0.62421,-0.197119 -1.01845,-0.624211 -0.72277,-0.837758 -0.72277,-2.743245 0,-2.463993 1.44554,-3.958815 1.44555,-1.511249 3.74527,-1.511249 z m -0.11498,0.985597 q -0.60779,0 -0.93632,0.657065 -0.32853,0.657065 -0.67349,2.2833 -0.32854,1.626235 -0.32854,3.088204 0,1.002023 0.59136,1.002023 0.52565,0 0.88704,-0.525651 0.37781,-0.525652 0.52565,-1.396263 l 0.88704,-4.812998 q -0.34496,-0.29568 -0.95274,-0.29568 z"
         style="font-style:normal;font-variant:normal;font-weight:normal;font-stretch:normal;font-family:'Sansita One';-inkscape-font-specification:'Sansita One';text-align:center;text-anchor:middle;fill:#ffffff;stroke-width:0.41066542"
         id="path948" />
      <path
         d="m 232.79404,18.416156 q 4.02453,0 4.02453,2.841805 0,1.560528 -1.00203,2.496845 -0.9856,0.936318 -2.71039,0.936318 -0.8049,0 -1.42912,-0.459946 -0.29567,-0.197119 -0.49279,-0.459945 1.19914,0 1.82335,-0.722771 0.64064,-0.739198 0.64064,-2.168314 0,-1.429115 -1.41269,-1.429115 h -0.39424 q -0.0986,0 -0.18069,0.01643 l -1.88906,9.90525 h -3.56458 l 2.02047,-10.759434 q 1.75765,-0.164266 2.7761,-0.180692 1.01845,-0.01643 1.7905,-0.01643 z"
         style="font-style:normal;font-variant:normal;font-weight:normal;font-stretch:normal;font-family:'Sansita One';-inkscape-font-specification:'Sansita One';text-align:center;text-anchor:middle;fill:#ffffff;stroke-width:0.41066542"
         id="path950" />
      <path
         d="m 242.03607,24.75683 q 0.59136,-1.051303 0.59136,-2.119034 0,-0.706344 -0.50923,-0.706344 -0.39424,0 -0.8049,0.673491 -0.42709,0.673491 -0.55851,1.544102 l -0.85418,5.223664 -3.40031,0.328533 1.67551,-8.706107 2.7104,-0.328533 -0.29568,1.659089 q 0.8049,-1.659089 2.61183,-1.659089 0.95274,0 1.46197,0.492799 0.52565,0.492798 0.52565,1.511249 0,1.002023 -0.67349,1.642661 -0.65707,0.640638 -1.7905,0.640638 -0.4928,0 -0.68992,-0.197119 z"
         style="font-style:normal;font-variant:normal;font-weight:normal;font-stretch:normal;font-family:'Sansita One';-inkscape-font-specification:'Sansita One';text-align:center;text-anchor:middle;fill:#ffffff;stroke-width:0.41066542"
         id="path952" />
      <path
         d="m 252.11354,26.596611 q 0.41067,0.279253 0.41067,0.903464 0,0.607785 -0.31211,1.002024 -0.31211,0.394238 -0.82133,0.657064 -1.0513,0.542079 -2.18474,0.542079 -1.13344,0 -1.80693,-0.2464 -0.65706,-0.246399 -1.10058,-0.706344 -0.87061,-0.870611 -0.87061,-2.463993 0,-2.480419 1.34698,-3.991668 1.44554,-1.626235 3.95881,-1.626235 1.56053,0 2.33258,0.657065 0.57494,0.492799 0.57494,1.297703 0,2.891084 -4.9937,2.891084 -0.0657,0.427092 -0.0657,0.788478 0,0.755624 0.32853,1.051303 0.34496,0.279253 0.96917,0.279253 0.62421,0 1.28128,-0.279253 0.67349,-0.295679 0.95274,-0.755624 z m -3.35103,-1.790501 q 1.16629,0 1.83978,-0.722771 0.67349,-0.689918 0.67349,-1.790502 0,-0.377812 -0.14784,-0.574931 -0.13141,-0.213546 -0.41066,-0.213546 -0.27925,0 -0.52565,0.114986 -0.22998,0.09856 -0.47638,0.459945 -0.60778,0.821331 -0.95274,2.726819 z"
         style="font-style:normal;font-variant:normal;font-weight:normal;font-stretch:normal;font-family:'Sansita One';-inkscape-font-specification:'Sansita One';text-align:center;text-anchor:middle;fill:#ffffff;stroke-width:0.41066542"
         id="path954" />
      <path
         d="m 259.09896,23.606967 q 0.22997,-0.607785 0.22997,-1.133437 0,-0.96917 -0.78848,-0.96917 -0.41066,0 -0.75562,0.377812 -0.32853,0.361386 -0.32853,0.821331 0,0.328532 0.26282,0.591358 0.37781,0.361386 1.34698,0.952744 0.96917,0.591358 1.33056,1.084157 0.37781,0.476371 0.37781,1.149863 0,0.657064 -0.32853,1.264849 -0.31211,0.607785 -0.88704,1.034877 -1.23199,0.919891 -3.20319,0.919891 -1.06773,0 -1.88906,-0.558505 -0.82133,-0.542079 -0.82133,-1.182717 0,-0.640638 0.45995,-1.01845 0.47637,-0.377812 1.16629,-0.377812 0.68991,0 1.11701,0.262826 -0.21355,0.542078 -0.21355,0.903464 0,1.084156 0.91989,1.084156 0.39424,0 0.65707,-0.246399 0.26282,-0.246399 0.26282,-0.673491 0,-0.837758 -1.41269,-1.724795 -1.14986,-0.755624 -1.41269,-1.051303 -0.44352,-0.525652 -0.44352,-1.182717 0,-0.657065 0.31211,-1.281276 0.31211,-0.624211 0.88704,-1.06773 1.19914,-0.919891 3.28532,-0.919891 1.06773,0 1.69194,0.427092 0.64064,0.427093 0.64064,1.149864 0,0.722771 -0.44352,1.133436 -0.42709,0.410666 -1.21557,0.410666 -0.54208,0 -0.8049,-0.180693 z"
         style="font-style:normal;font-variant:normal;font-weight:normal;font-stretch:normal;font-family:'Sansita One';-inkscape-font-specification:'Sansita One';text-align:center;text-anchor:middle;fill:#ffffff;stroke-width:0.41066542"
         id="path956" />
      <path
         d="m 267.08768,23.606967 q 0.22997,-0.607785 0.22997,-1.133437 0,-0.96917 -0.78847,-0.96917 -0.41067,0 -0.75563,0.377812 -0.32853,0.361386 -0.32853,0.821331 0,0.328532 0.26283,0.591358 0.37781,0.361386 1.34698,0.952744 0.96917,0.591358 1.33055,1.084157 0.37782,0.476371 0.37782,1.149863 0,0.657064 -0.32854,1.264849 -0.3121,0.607785 -0.88703,1.034877 -1.232,0.919891 -3.20319,0.919891 -1.06773,0 -1.88906,-0.558505 -0.82134,-0.542079 -0.82134,-1.182717 0,-0.640638 0.45995,-1.01845 0.47637,-0.377812 1.16629,-0.377812 0.68992,0 1.11701,0.262826 -0.21355,0.542078 -0.21355,0.903464 0,1.084156 0.91989,1.084156 0.39424,0 0.65707,-0.246399 0.26282,-0.246399 0.26282,-0.673491 0,-0.837758 -1.41268,-1.724795 -1.14987,-0.755624 -1.41269,-1.051303 -0.44352,-0.525652 -0.44352,-1.182717 0,-0.657065 0.3121,-1.281276 0.31211,-0.624211 0.88704,-1.06773 1.19914,-0.919891 3.28532,-0.919891 1.06773,0 1.69195,0.427092 0.64063,0.427093 0.64063,1.149864 0,0.722771 -0.44351,1.133436 -0.4271,0.410666 -1.21557,0.410666 -0.54208,0 -0.80491,-0.180693 z"
         style="font-style:normal;font-variant:normal;font-weight:normal;font-stretch:normal;font-family:'Sansita One';-inkscape-font-specification:'Sansita One';text-align:center;text-anchor:middle;fill:#ffffff;stroke-width:0.41066542"
         id="path958" />
      <path
         d="m 193.25749,49.002527 q -0.50923,1.231996 -2.13546,1.231996 -0.83776,0 -1.36341,-0.574932 -0.44352,-0.509225 -0.44352,-1.01845 0,-1.330556 0.60778,-3.925961 l 0.60779,-3.186764 3.3346,-0.328532 -1.00202,5.190811 q -0.27925,1.215569 -0.27925,1.642661 0,0.936317 0.67349,0.969171 z m -2.43114,-9.757411 q 0,-0.640638 0.52565,-0.985597 0.54208,-0.344959 1.31413,-0.344959 0.77205,0 1.23199,0.344959 0.47638,0.344959 0.47638,0.985597 0,0.640638 -0.52566,0.969171 -0.50922,0.328532 -1.28127,0.328532 -0.77205,0 -1.26485,-0.328532 -0.47637,-0.328533 -0.47637,-0.969171 z"
         style="font-style:normal;font-variant:normal;font-weight:normal;font-stretch:normal;font-family:'Sansita One';-inkscape-font-specification:'Sansita One';text-align:center;text-anchor:middle;fill:#ffffff;stroke-width:0.41066542"
         id="path960" />
      <path
         d="m 201.58937,50.234523 q -1.98762,0 -1.98762,-1.544102 0.0164,-0.427092 0.14784,-1.149863 l 0.29568,-1.511249 q 0.44352,-2.13546 0.44352,-2.611832 0,-0.952744 -0.5585,-0.952744 -0.93632,0 -1.42912,2.447566 l -0.96917,4.993692 -3.30175,0.328532 1.70837,-8.722534 2.69396,-0.312105 -0.26282,1.609808 q 0.77205,-1.609808 3.13748,-1.609808 1.14986,0 1.62624,0.492798 0.4928,0.476372 0.4928,1.560529 0,1.01845 -0.52566,3.40031 -0.2464,1.06773 -0.2464,1.478395 0,0.394239 0.21355,0.624211 0.22997,0.229973 0.55851,0.262826 -0.16427,0.558505 -0.7392,0.887038 -0.55851,0.328532 -1.29771,0.328532 z"
         style="font-style:normal;font-variant:normal;font-weight:normal;font-stretch:normal;font-family:'Sansita One';-inkscape-font-specification:'Sansita One';text-align:center;text-anchor:middle;fill:#ffffff;stroke-width:0.41066542"
         id="path962" />
      <path
         d="m 150.27904,63.622199 q 0,6.997739 -7.5891,6.997739 -1.21557,0 -3.21961,-0.295679 l 1.83978,-9.708131 q 0.13141,-0.657064 0.21354,-1.034876 2.49685,-0.180693 3.59743,-0.180693 1.11701,0 2.13546,0.229972 1.01845,0.229973 1.69194,0.739198 1.33056,1.002024 1.33056,3.25247 z m -3.38388,-0.607785 q 0,-2.447565 -1.75765,-2.447565 h -0.16427 q -0.0821,0 -0.16426,0.01643 l -1.69194,8.821093 q 0.0657,0.03285 0.13141,0.03285 h 0.13141 q 0.60779,0 1.232,-0.377813 0.64064,-0.377812 1.13343,-1.149863 1.14987,-1.790501 1.14987,-4.895132 z"
         style="font-style:normal;font-variant:normal;font-weight:normal;font-stretch:normal;font-family:'Sansita One';-inkscape-font-specification:'Sansita One';text-align:center;text-anchor:middle;fill:#ffffff;stroke-width:0.41066542"
         id="path964" />
      <path
         d="m 157.75675,67.663147 q 0.41066,0.279252 0.41066,0.903464 0,0.607785 -0.31211,1.002024 -0.3121,0.394238 -0.82133,0.657064 -1.0513,0.542079 -2.18474,0.542079 -1.13343,0 -1.80692,-0.2464 -0.65707,-0.246399 -1.10059,-0.706344 -0.87061,-0.870611 -0.87061,-2.463993 0,-2.480419 1.34698,-3.991668 1.44555,-1.626235 3.95882,-1.626235 1.56053,0 2.33258,0.657065 0.57493,0.492799 0.57493,1.297703 0,2.891084 -4.99369,2.891084 -0.0657,0.427092 -0.0657,0.788478 0,0.755624 0.32853,1.051303 0.34496,0.279253 0.96918,0.279253 0.62421,0 1.28127,-0.279253 0.67349,-0.295679 0.95275,-0.755624 z m -3.35103,-1.790501 q 1.16629,0 1.83978,-0.722771 0.67349,-0.689918 0.67349,-1.790502 0,-0.377812 -0.14784,-0.574931 -0.13141,-0.213546 -0.41067,-0.213546 -0.27925,0 -0.52565,0.114986 -0.22997,0.09856 -0.47637,0.459945 -0.60779,0.821331 -0.95274,2.726819 z"
         style="font-style:normal;font-variant:normal;font-weight:normal;font-stretch:normal;font-family:'Sansita One';-inkscape-font-specification:'Sansita One';text-align:center;text-anchor:middle;fill:#ffffff;stroke-width:0.41066542"
         id="path966" />
      <path
         d="m 159.61706,69.650768 2.0369,-10.710154 3.3346,-0.328533 -0.50922,2.513273 q -0.1807,0.772051 -0.41067,1.314129 0.36139,-0.459945 1.14987,-0.640638 0.22997,-0.06571 0.50922,-0.06571 1.52768,0 2.36543,0.936318 0.83776,0.91989 0.83776,2.710391 0,2.33258 -1.33056,3.794549 -1.42911,1.593382 -4.02452,1.593382 -1.7905,0 -3.13748,-0.591359 -0.47637,-0.213546 -0.82133,-0.525651 z m 3.30175,-0.14784 q 0.34496,0.295679 0.77205,0.295679 0.42709,0 0.67349,-0.164266 0.2464,-0.164266 0.42709,-0.492798 0.4928,-0.887038 0.88704,-3.59743 0.11499,-0.772051 0.11499,-1.544102 0,-0.77205 -0.1807,-1.01845 -0.16426,-0.246399 -0.49279,-0.246399 -1.00203,0 -1.33056,1.954767 z"
         style="font-style:normal;font-variant:normal;font-weight:normal;font-stretch:normal;font-family:'Sansita One';-inkscape-font-specification:'Sansita One';text-align:center;text-anchor:middle;fill:#ffffff;stroke-width:0.41066542"
         id="path968" />
      <path
         d="m 173.84713,69.535781 q -0.50923,1.231997 -2.13546,1.231997 -0.83776,0 -1.36341,-0.574932 -0.44352,-0.509225 -0.44352,-1.01845 0,-1.330556 0.60779,-3.925962 l 0.60778,-3.186763 3.3346,-0.328533 -1.00202,5.190811 q -0.27925,1.21557 -0.27925,1.642662 0,0.936317 0.67349,0.96917 z m -2.43114,-9.75741 q 0,-0.640638 0.52565,-0.985597 0.54208,-0.344959 1.31413,-0.344959 0.77205,0 1.232,0.344959 0.47637,0.344959 0.47637,0.985597 0,0.640638 -0.52565,0.96917 -0.50923,0.328533 -1.28128,0.328533 -0.77205,0 -1.26485,-0.328533 -0.47637,-0.328532 -0.47637,-0.96917 z"
         style="font-style:normal;font-variant:normal;font-weight:normal;font-stretch:normal;font-family:'Sansita One';-inkscape-font-specification:'Sansita One';text-align:center;text-anchor:middle;fill:#ffffff;stroke-width:0.41066542"
         id="path970" />
      <path
         d="m 175.9369,69.946447 q -0.37781,-0.427092 -0.5585,-1.100584 -0.16427,-0.673491 -0.16427,-1.774074 0,-1.100584 0.37781,-2.102607 0.37782,-1.002024 1.06773,-1.724795 1.41269,-1.511249 3.74527,-1.511249 0.83776,0 1.44555,0.279253 l 2.80895,-0.279253 -1.21557,6.406381 q -0.0493,0.197119 -0.0493,0.558505 0,0.361385 0.21354,0.591358 0.22998,0.229973 0.55851,0.262826 -0.16427,0.558505 -0.77205,0.887037 -0.59136,0.328533 -1.26485,0.328533 -0.67349,0 -1.13344,-0.262826 -0.44352,-0.2464 -0.57493,-0.673492 -0.26283,0.410666 -0.82133,0.673492 -0.55851,0.262826 -1.31413,0.262826 -0.7392,0 -1.34698,-0.19712 -0.60779,-0.197119 -1.00203,-0.624211 z m 3.46602,-6.669207 q -0.18069,0.295679 -0.34496,0.804905 -0.16427,0.492798 -0.44352,1.839781 -0.26282,1.330556 -0.26282,2.283299 0,0.952744 0.14784,1.231997 0.14784,0.279252 0.41066,0.279252 0.52565,0 0.90347,-0.492798 0.39423,-0.509226 0.54207,-1.396263 l 0.87061,-4.812999 q -0.34495,-0.295679 -0.75562,-0.295679 -0.39424,0 -0.64064,0.131413 -0.22997,0.131413 -0.42709,0.427092 z"
         style="font-style:normal;font-variant:normal;font-weight:normal;font-stretch:normal;font-family:'Sansita One';-inkscape-font-specification:'Sansita One';text-align:center;text-anchor:middle;fill:#ffffff;stroke-width:0.41066542"
         id="path972" />
      <path
         d="m 192.50982,70.767778 q -1.98762,0 -1.98762,-1.544102 0.0164,-0.427092 0.14784,-1.149864 l 0.29567,-1.511248 q 0.44352,-2.13546 0.44352,-2.611832 0,-0.952744 -0.5585,-0.952744 -0.93632,0 -1.42912,2.447566 l -0.96917,4.993691 -3.30175,0.328533 1.70837,-8.722534 2.69397,-0.312106 -0.26283,1.609809 q 0.77205,-1.609809 3.13748,-1.609809 1.14987,0 1.62624,0.492799 0.4928,0.476372 0.4928,1.560528 0,1.018451 -0.52565,3.40031 -0.2464,1.06773 -0.2464,1.478396 0,0.394238 0.21354,0.624211 0.22998,0.229973 0.55851,0.262826 -0.16427,0.558505 -0.7392,0.887037 -0.55851,0.328533 -1.2977,0.328533 z"
         style="font-style:normal;font-variant:normal;font-weight:normal;font-stretch:normal;font-family:'Sansita One';-inkscape-font-specification:'Sansita One';text-align:center;text-anchor:middle;fill:#ffffff;stroke-width:0.41066542"
         id="path974" />
      <path
         d="m 202.43329,70.357112 2.06976,-10.759434 q 1.93834,-0.164266 3.18676,-0.164266 1.24842,0 2.05333,0.114986 0.8049,0.09856 1.34698,0.377813 1.08416,0.525651 1.08416,1.971194 0,0.837757 -0.72277,1.544102 -0.6735,0.640638 -1.41269,0.788477 0.78847,0.131413 1.34698,0.722771 0.59136,0.624212 0.59136,1.593382 0,1.872634 -1.39626,2.973218 -1.39627,1.084156 -4.13951,1.084156 -1.88906,0 -4.0081,-0.246399 z M 206.08,69.404368 q 0.14784,0.01643 0.1807,0.01643 h 0.14783 q 1.34699,0 1.92192,-0.887037 0.42709,-0.689918 0.42709,-1.954768 0,-0.673491 -0.44352,-1.034877 -0.42709,-0.361385 -1.41269,-0.394238 z m 3.31818,-7.490537 q 0,-1.363409 -1.31413,-1.363409 h -0.14784 q -0.0657,0 -0.16427,0.01643 l -0.65706,3.466016 h 0.16427 q 2.11903,-0.04928 2.11903,-2.119034 z"
         style="font-style:normal;font-variant:normal;font-weight:normal;font-stretch:normal;font-family:'Sansita One';-inkscape-font-specification:'Sansita One';text-align:center;text-anchor:middle;fill:#ffffff;stroke-width:0.41066542"
         id="path976" />
      <path
         d="m 218.32964,69.749327 q -0.78848,1.018451 -2.74324,1.018451 -1.01845,0 -1.75765,-0.607785 -0.7392,-0.624212 -0.7392,-1.511249 0,-0.492798 0.0493,-0.739198 l 1.10058,-5.847875 3.33461,-0.328533 -1.19915,6.340674 q -0.0657,0.361386 -0.0657,0.574932 0,0.952744 0.57493,0.952744 0.64064,0 1.10058,-0.870611 0.14784,-0.279252 0.21355,-0.640638 l 1.16629,-6.028568 3.23604,-0.328533 -1.21557,6.406381 q -0.0493,0.246399 -0.0493,0.509225 0,0.262826 0.14784,0.558505 0.14784,0.279252 0.62421,0.344959 -0.0986,0.394239 -0.44352,0.657065 -0.72277,0.558505 -1.51125,0.558505 -0.77205,0 -1.23199,-0.279253 -0.45995,-0.279252 -0.59136,-0.739198 z"
         style="font-style:normal;font-variant:normal;font-weight:normal;font-stretch:normal;font-family:'Sansita One';-inkscape-font-specification:'Sansita One';text-align:center;text-anchor:middle;fill:#ffffff;stroke-width:0.41066542"
         id="path978" />
      <path
         d="m 228.3953,64.673503 q 0.22998,-0.607785 0.22998,-1.133437 0,-0.96917 -0.78848,-0.96917 -0.41067,0 -0.75563,0.377812 -0.32853,0.361386 -0.32853,0.821331 0,0.328532 0.26283,0.591358 0.37781,0.361386 1.34698,0.952744 0.96917,0.591358 1.33056,1.084157 0.37781,0.476371 0.37781,1.149863 0,0.657064 -0.32853,1.264849 -0.31211,0.607785 -0.88704,1.034877 -1.232,0.919891 -3.20319,0.919891 -1.06773,0 -1.88906,-0.558505 -0.82133,-0.542079 -0.82133,-1.182717 0,-0.640638 0.45994,-1.01845 0.47637,-0.377812 1.16629,-0.377812 0.68992,0 1.11701,0.262826 -0.21355,0.542078 -0.21355,0.903464 0,1.084156 0.9199,1.084156 0.39423,0 0.65706,-0.246399 0.26283,-0.246399 0.26283,-0.673491 0,-0.837758 -1.41269,-1.724795 -1.14987,-0.755624 -1.41269,-1.051303 -0.44352,-0.525652 -0.44352,-1.182717 0,-0.657065 0.3121,-1.281276 0.31211,-0.624211 0.88704,-1.06773 1.19915,-0.919891 3.28533,-0.919891 1.06773,0 1.69194,0.427092 0.64064,0.427092 0.64064,1.149864 0,0.722771 -0.44352,1.133436 -0.4271,0.410666 -1.21557,0.410666 -0.54208,0 -0.80491,-0.180693 z"
         style="font-style:normal;font-variant:normal;font-weight:normal;font-stretch:normal;font-family:'Sansita One';-inkscape-font-specification:'Sansita One';text-align:center;text-anchor:middle;fill:#ffffff;stroke-width:0.41066542"
         id="path980" />
      <path
         d="m 231.73529,68.796584 q 0,-0.443519 0.22998,-1.560529 l 0.87061,-4.435187 h -0.96917 l 0.0657,-0.492798 q 1.9712,-0.591358 3.87668,-2.0369 h 0.78848 l -0.39424,1.790501 h 1.28128 l -0.14784,0.739197 h -1.26485 l -0.83776,4.435187 q -0.21354,1.01845 -0.21354,1.363409 0,0.788478 0.68992,0.952744 -0.16427,0.558505 -0.75563,0.887037 -0.59136,0.328533 -1.42911,0.328533 -0.83776,0 -1.31413,-0.525652 -0.47638,-0.525652 -0.47638,-1.445542 z"
         style="font-style:normal;font-variant:normal;font-weight:normal;font-stretch:normal;font-family:'Sansita One';-inkscape-font-specification:'Sansita One';text-align:center;text-anchor:middle;fill:#ffffff;stroke-width:0.41066542"
         id="path982" />
      <path
         d="m 243.99648,67.663147 q 0.41066,0.279252 0.41066,0.903464 0,0.607785 -0.3121,1.002024 -0.31211,0.394238 -0.82133,0.657064 -1.05131,0.542079 -2.18474,0.542079 -1.13344,0 -1.80693,-0.2464 -0.65706,-0.246399 -1.10058,-0.706344 -0.87061,-0.870611 -0.87061,-2.463993 0,-2.480419 1.34698,-3.991668 1.44554,-1.626235 3.95881,-1.626235 1.56053,0 2.33258,0.657065 0.57493,0.492799 0.57493,1.297703 0,2.891084 -4.99369,2.891084 -0.0657,0.427092 -0.0657,0.788478 0,0.755624 0.32853,1.051303 0.34496,0.279253 0.96917,0.279253 0.62421,0 1.28128,-0.279253 0.67349,-0.295679 0.95274,-0.755624 z m -3.35103,-1.790501 q 1.16629,0 1.83978,-0.722771 0.67349,-0.689918 0.67349,-1.790502 0,-0.377812 -0.14784,-0.574931 -0.13141,-0.213546 -0.41066,-0.213546 -0.27926,0 -0.52566,0.114986 -0.22997,0.09856 -0.47637,0.459945 -0.60778,0.821331 -0.95274,2.726819 z"
         style="font-style:normal;font-variant:normal;font-weight:normal;font-stretch:normal;font-family:'Sansita One';-inkscape-font-specification:'Sansita One';text-align:center;text-anchor:middle;fill:#ffffff;stroke-width:0.41066542"
         id="path984" />
      <path
         d="m 251.21188,65.823366 q 0.59135,-1.051304 0.59135,-2.119034 0,-0.706344 -0.50922,-0.706344 -0.39424,0 -0.8049,0.673491 -0.4271,0.673491 -0.55851,1.544102 l -0.85418,5.223664 -3.40031,0.328533 1.67551,-8.706107 2.71039,-0.328533 -0.29568,1.659089 q 0.80491,-1.659089 2.61184,-1.659089 0.95274,0 1.46197,0.492799 0.52565,0.492798 0.52565,1.511249 0,1.002023 -0.67349,1.642661 -0.65707,0.640638 -1.79051,0.640638 -0.49279,0 -0.68991,-0.197119 z"
         style="font-style:normal;font-variant:normal;font-weight:normal;font-stretch:normal;font-family:'Sansita One';-inkscape-font-specification:'Sansita One';text-align:center;text-anchor:middle;fill:#ffffff;stroke-width:0.41066542"
         id="path986" />
    </g>
  </g>
</svg>
