<?xml version="1.0" encoding="UTF-8" standalone="no"?>
<svg
   xmlns:osb="http://www.openswatchbook.org/uri/2009/osb"
   xmlns:dc="http://purl.org/dc/elements/1.1/"
   xmlns:cc="http://creativecommons.org/ns#"
   xmlns:rdf="http://www.w3.org/1999/02/22-rdf-syntax-ns#"
   xmlns:svg="http://www.w3.org/2000/svg"
   xmlns="http://www.w3.org/2000/svg"
   xmlns:xlink="http://www.w3.org/1999/xlink"
   width="211.40208mm"
   height="119.0625mm"
   viewBox="0 0 211.40208 119.0625"
   version="1.1"
   id="svg3357">
  <defs
     id="defs3351">
    <linearGradient
       id="linearGradient4115"
       osb:paint="solid">
      <stop
         style="stop-color:#000000;stop-opacity:1;"
         offset="0"
         id="stop4113" />
    </linearGradient>
    <linearGradient
       id="linearGradient6114">
      <stop
         style="stop-color:#6f7c91;stop-opacity:1;"
         offset="0"
         id="stop6110" />
      <stop
         style="stop-color:#162d50;stop-opacity:1"
         offset="1"
         id="stop6112" />
    </linearGradient>
    <radialGradient
       xlink:href="#linearGradient6114"
       id="radialGradient6126"
       cx="73.77433"
       cy="66.986313"
       fx="73.77433"
       fy="66.986313"
       r="31.67275"
       gradientTransform="matrix(3.0071285,0,0,1.83657,-125.12732,-58.151445)"
       gradientUnits="userSpaceOnUse" />
    <filter
       style="color-interpolation-filters:sRGB"
       id="filter1186"
       x="-0.81254071"
       width="2.6250813"
       y="-0.62592292"
       height="2.2518458">
      <feGaussianBlur
         stdDeviation="7.3128662"
         id="feGaussianBlur1188" />
    </filter>
    <filter
       style="color-interpolation-filters:sRGB"
       id="filter1190"
       x="-0.93355739"
       width="2.8671148"
       y="-0.63041949"
       height="2.260839">
      <feGaussianBlur
         stdDeviation="7.3128662"
         id="feGaussianBlur1192" />
    </filter>
    <filter
       style="color-interpolation-filters:sRGB"
       id="filter1194"
       x="-0.76708388"
       width="2.5341678"
       y="-0.79776722"
       height="2.5955343">
      <feGaussianBlur
         stdDeviation="7.3128662"
         id="feGaussianBlur1196" />
    </filter>
    <filter
       style="color-interpolation-filters:sRGB"
       id="filter1198"
       x="-0.76308167"
       width="2.5261633"
       y="-0.79776722"
       height="2.5955343">
      <feGaussianBlur
         stdDeviation="7.3128662"
         id="feGaussianBlur1200" />
    </filter>
    <filter
       style="color-interpolation-filters:sRGB"
       id="filter1202"
       x="-1.4245843"
       width="3.8491685"
       y="-0.5850293"
       height="2.1700585">
      <feGaussianBlur
         stdDeviation="7.3128662"
         id="feGaussianBlur1204" />
    </filter>
    <filter
       style="color-interpolation-filters:sRGB"
       id="filter1206"
       x="-0.7738483"
       width="2.5476966"
       y="-0.59293509"
       height="2.1858702">
      <feGaussianBlur
         stdDeviation="7.3128662"
         id="feGaussianBlur1208" />
    </filter>
    <filter
       style="color-interpolation-filters:sRGB"
       id="filter1210"
       x="-0.87754393"
       width="2.7550879"
       y="-0.79776722"
       height="2.5955343">
      <feGaussianBlur
         stdDeviation="7.3128662"
         id="feGaussianBlur1212" />
    </filter>
    <filter
       style="color-interpolation-filters:sRGB"
       id="filter1214"
       x="-0.66682673"
       width="2.3336535"
       y="-0.64241868"
       height="2.2848375">
      <feGaussianBlur
         stdDeviation="7.3128662"
         id="feGaussianBlur1216" />
    </filter>
    <filter
       style="color-interpolation-filters:sRGB"
       id="filter1218"
       x="-0.76708388"
       width="2.5341678"
       y="-0.79776722"
       height="2.5955343">
      <feGaussianBlur
         stdDeviation="7.3128662"
         id="feGaussianBlur1220" />
    </filter>
    <filter
       style="color-interpolation-filters:sRGB"
       id="filter1222"
       x="-0.82167035"
       width="2.6433406"
       y="-0.79776722"
       height="2.5955343">
      <feGaussianBlur
         stdDeviation="7.3128662"
         id="feGaussianBlur1224" />
    </filter>
    <filter
       style="color-interpolation-filters:sRGB"
       id="filter1226"
       x="-0.91031528"
       width="2.8206306"
       y="-0.79776722"
       height="2.5955343">
      <feGaussianBlur
         stdDeviation="7.3128662"
         id="feGaussianBlur1228" />
    </filter>
    <filter
       style="color-interpolation-filters:sRGB"
       id="filter1230"
       x="-0.91031528"
       width="2.8206306"
       y="-0.79776722"
       height="2.5955343">
      <feGaussianBlur
         stdDeviation="7.3128662"
         id="feGaussianBlur1232" />
    </filter>
    <filter
       style="color-interpolation-filters:sRGB"
       id="filter1234"
       x="-0.87754393"
       width="2.7550879"
       y="-0.79776722"
       height="2.5955343">
      <feGaussianBlur
         stdDeviation="7.3128662"
         id="feGaussianBlur1236" />
    </filter>
    <filter
       style="color-interpolation-filters:sRGB"
       id="filter1238"
       x="-0.8294366"
       width="2.6588731"
       y="-0.79776722"
       height="2.5955343">
      <feGaussianBlur
         stdDeviation="7.3128662"
         id="feGaussianBlur1240" />
    </filter>
    <filter
       style="color-interpolation-filters:sRGB"
       id="filter1242"
       x="-0.67921358"
       width="2.3584273"
       y="-0.65782905"
       height="2.3156581">
      <feGaussianBlur
         stdDeviation="7.3128662"
         id="feGaussianBlur1244" />
    </filter>
    <filter
       style="color-interpolation-filters:sRGB"
       id="filter1246"
       x="-0.71577811"
       width="2.4315562"
       y="-0.59293509"
       height="2.1858702">
      <feGaussianBlur
         stdDeviation="7.3128662"
         id="feGaussianBlur1248" />
    </filter>
    <filter
       style="color-interpolation-filters:sRGB"
       id="filter1250"
       x="-0.8294366"
       width="2.6588731"
       y="-0.79776722"
       height="2.5955343">
      <feGaussianBlur
         stdDeviation="7.3128662"
         id="feGaussianBlur1252" />
    </filter>
    <filter
       style="color-interpolation-filters:sRGB"
       id="filter1254"
       x="-0.82167035"
       width="2.6433406"
       y="-0.79776722"
       height="2.5955343">
      <feGaussianBlur
         stdDeviation="7.3128662"
         id="feGaussianBlur1256" />
    </filter>
    <filter
       style="color-interpolation-filters:sRGB"
       id="filter1258"
       x="-0.43528965"
       width="1.8705792"
       y="-0.64620322"
       height="2.2924063">
      <feGaussianBlur
         stdDeviation="7.3128662"
         id="feGaussianBlur1260" />
    </filter>
    <filter
       style="color-interpolation-filters:sRGB"
       id="filter1262"
       x="-1.4108424"
       width="3.8216846"
       y="-0.59293509"
       height="2.1858702">
      <feGaussianBlur
         stdDeviation="7.3128662"
         id="feGaussianBlur1264" />
    </filter>
    <filter
       style="color-interpolation-filters:sRGB"
       id="filter1266"
       x="-1.4108424"
       width="3.8216846"
       y="-0.59293509"
       height="2.1858702">
      <feGaussianBlur
         stdDeviation="7.3128662"
         id="feGaussianBlur1268" />
    </filter>
    <filter
       style="color-interpolation-filters:sRGB"
       id="filter1270"
       x="-0.76308167"
       width="2.5261633"
       y="-0.79776722"
       height="2.5955343">
      <feGaussianBlur
         stdDeviation="7.3128662"
         id="feGaussianBlur1272" />
    </filter>
    <filter
       style="color-interpolation-filters:sRGB"
       id="filter1274"
       x="-1.2536342"
       width="3.5072684"
       y="-0.68665409"
       height="2.3733082">
      <feGaussianBlur
         stdDeviation="7.3128662"
         id="feGaussianBlur1276" />
    </filter>
    <filter
       style="color-interpolation-filters:sRGB"
       id="filter1278"
       x="-0.91031528"
       width="2.8206306"
       y="-0.79776722"
       height="2.5955343">
      <feGaussianBlur
         stdDeviation="7.3128662"
         id="feGaussianBlur1280" />
    </filter>
    <filter
       style="color-interpolation-filters:sRGB"
       id="filter1282"
       x="-0.76708388"
       width="2.5341678"
       y="-0.79776722"
       height="2.5955343">
      <feGaussianBlur
         stdDeviation="7.3128662"
         id="feGaussianBlur1284" />
    </filter>
    <filter
       style="color-interpolation-filters:sRGB"
       id="filter1286"
       x="-1.2644725"
       width="3.5289452"
       y="-0.66480601"
       height="2.329612">
      <feGaussianBlur
         stdDeviation="7.3128662"
         id="feGaussianBlur1288" />
    </filter>
  </defs>
  <metadata
     id="metadata3354">
    <rdf:RDF>
      <cc:Work
         rdf:about="">
        <dc:format>image/svg+xml</dc:format>
        <dc:type
           rdf:resource="http://purl.org/dc/dcmitype/StillImage" />
        <dc:title></dc:title>
      </cc:Work>
    </rdf:RDF>
  </metadata>
  <g
     transform="matrix(1.1097917,0,0,1.0234149,-1.6397714,-7.1516095)"
     style="font-style:normal;font-weight:normal;font-size:40px;line-height:1.25;font-family:sans-serif;letter-spacing:0px;word-spacing:0px;fill:#000000;fill-opacity:1;stroke:none"
     id="flowRoot874" />
  <g
     transform="translate(-1.4775484,-4.2705595)"
     style="font-style:normal;font-weight:normal;font-size:40px;line-height:1.25;font-family:sans-serif;letter-spacing:0px;word-spacing:0px;fill:#000000;fill-opacity:1;stroke:none"
     id="flowRoot1713" />
  <path
     style="opacity:1;fill:#00aa88;fill-opacity:1;stroke:none;stroke-width:4.38045835;stroke-miterlimit:4;stroke-dasharray:none;paint-order:stroke markers fill"
     d="M 0,0 H 211.40208 V 119.0625 H 0 Z"
     id="rect6108" />
  <g
     transform="matrix(1.1825108,0,0,1.2934259,-90.830449,-83.919074)"
     id="g4921"
     style="display:inline">
    <g
       id="g4720"
       transform="translate(50.270828)">
      <g
         style="fill:#333333"
         transform="translate(-47.638093,1.3360133)"
         id="g4694">
        <path
           id="path835"
           d="m 144.21101,139.55982 c 0,0 5.43081,5.83681 7.33498,3.79847 2.22288,-2.37952 -12.62665,-36.87139 -12.62665,-36.87139"
           style="fill:#333333;stroke:none;stroke-width:0.26458347px;stroke-linecap:butt;stroke-linejoin:miter;stroke-opacity:1" />
        <path
           style="fill:#333333;stroke:none;stroke-width:0.26458332px;stroke-linecap:butt;stroke-linejoin:miter;stroke-opacity:1"
           d="m 97.450493,140.21473 c 7.815327,4.80271 15.630577,9.60538 23.402247,9.51796 7.77167,-0.0874 15.49967,-5.06478 19.38543,-7.57529 3.88576,-2.5105 3.92946,-2.5542 3.97284,-2.59758"
           id="path817" />
        <path
           style="fill:#333333;stroke:none;stroke-width:0.26458332px;stroke-linecap:butt;stroke-linejoin:miter;stroke-opacity:1"
           d="m 97.450491,140.21473 c 0,0 -5.430812,5.83681 -7.33498,3.79847 -2.222882,-2.37952 12.820499,-36.99713 12.820499,-36.99713"
           id="path825" />
        <path
           style="fill:#333333;stroke:none;stroke-width:0.26458332px;stroke-linecap:butt;stroke-linejoin:miter;stroke-opacity:1"
           d="m 102.93926,105.67937 c 0.0862,-6.905162 0.17248,-13.810016 1.50935,-18.736088 1.33687,-4.926072 3.92412,-7.873272 9.74546,-9.346742 5.82134,-1.473471 14.87673,-1.473471 19.40429,3.368239 4.52756,4.84171 4.52756,14.525398 4.52756,24.209361"
           id="path831"
           transform="matrix(1.0226412,0,0,1.0473654,-2.3339152,-3.6688483)" />
      </g>
      <g
         id="g4708">
        <path
           style="fill:#333333;stroke:none;stroke-width:0.26458332px;stroke-linecap:butt;stroke-linejoin:miter;stroke-opacity:1"
           d="m 49.741667,141.68958 c 0,0 3.615973,-22.40139 5.55625,-33.60208 l 35.983333,-0.26458 6.614583,33.07291 z"
           id="path4696" />
        <path
           style="opacity:1;fill:#333333;fill-opacity:1;stroke:none;stroke-width:0.26458332"
           d="m 55.5625,138.25 h 37.041668 v 3.96875 H 55.5625 Z"
           id="rect4698" />
        <path
           style="opacity:1;fill:#333333;fill-opacity:1;stroke:none;stroke-width:0.26458332"
           d="m 59.53125,106.5 h 30.427082 v 3.96875 H 59.53125 Z"
           id="rect4700" />
        <path
           style="opacity:1;fill:#333333;fill-opacity:1;stroke:none;stroke-width:0.26458332"
           d="m 84.666664,105.17708 h 5.291669 v 3.96875 h -5.291669 z"
           id="rect4702" />
      </g>
    </g>
    <path
       style="opacity:1;fill:#e6e6e6;fill-opacity:1;stroke:none;stroke-width:0.26458332"
       id="path843"
       d="m 138.70455,126.61246 a 15.239734,15.867999 0 0 1 -15.17522,15.86785 15.239734,15.867999 0 0 1 -15.3037,-15.73349 15.239734,15.867999 0 0 1 15.04563,-16.00108 15.239734,15.867999 0 0 1 15.4311,15.59801" />
    <g
       id="g4688"
       transform="translate(44.751274,16.383515)">
      <g
         style="fill:#ff6600;stroke:none"
         transform="translate(-41.01042,-15.875)"
         id="g4596">
        <path
           style="fill:#ff6600;stroke:none;stroke-width:0.26458332px;stroke-linecap:butt;stroke-linejoin:miter;stroke-opacity:1"
           d="m 111.125,110.46875 c 2.9216,-2.67614 5.84316,-5.35225 8.7091,-5.35212 2.86595,1.3e-4 5.6775,2.67624 8.48882,5.35212"
           id="path4585" />
        <path
           style="fill:#ff6600;stroke:none;stroke-width:0.26458332px;stroke-linecap:butt;stroke-linejoin:miter;stroke-opacity:1"
           d="m 111.125,110.46875 c 2.77957,3.92198 5.48174,5.31906 8.73125,6.61458"
           id="path4589" />
        <path
           style="fill:#ff6600;stroke:none;stroke-width:0.26458332px;stroke-linecap:butt;stroke-linejoin:miter;stroke-opacity:1"
           d="m 128.32292,110.46875 c -1.04604,3.82945 -4.9192,5.32533 -8.46667,6.61458"
           id="path4591" />
      </g>
      <g
         id="g4661"
         transform="translate(-41.01042,-15.875)"
         style="fill:#ff6600;stroke:none">
        <path
           id="path4655"
           d="m 111.125,110.46875 c 2.9216,-2.67614 5.84316,-5.35225 8.7091,-5.35212 2.86595,1.3e-4 5.6775,2.67624 8.48882,5.35212"
           style="fill:#ff6600;stroke:none;stroke-width:0.26458332px;stroke-linecap:butt;stroke-linejoin:miter;stroke-opacity:1" />
        <path
           id="path4657"
           d="m 111.125,110.46875 c 2.77957,3.92198 5.48174,5.31906 8.73125,6.61458"
           style="fill:#ff6600;stroke:none;stroke-width:0.26458332px;stroke-linecap:butt;stroke-linejoin:miter;stroke-opacity:1" />
        <path
           id="path4659"
           d="m 128.32292,110.46875 c -1.04604,3.82945 -4.9192,5.32533 -8.46667,6.61458"
           style="fill:#ff6600;stroke:none;stroke-width:0.26458332px;stroke-linecap:butt;stroke-linejoin:miter;stroke-opacity:1" />
      </g>
      <path
         d="m 78.845833,101.20833 -4.582718,-2.645833 v -5.291666 l 4.582718,-2.645833 4.582717,2.645833 v 5.291666 z"
         id="path4671"
         style="opacity:1;fill:#ff6600;fill-opacity:1;stroke:none;stroke-width:0.26458332" />
      <path
         transform="matrix(0.94729327,-1.274616,1.0295753,1.1727506,-98.356248,87.506876)"
         d="m 83.608335,99.620834 2.319854,-2.397701 0.916543,3.207907 z"
         id="path4673"
         style="opacity:1;fill:#ff6600;fill-opacity:1;stroke:none;stroke-width:0.26458332" />
      <path
         transform="matrix(1.141627,0.11210349,-0.08749549,1.2944633,-2.2020547,-37.413635)"
         d="m 74.536294,98.196559 -3.844516,-2.340158 3.948894,-2.159369 z"
         id="path4675"
         style="opacity:1;fill:#ff6600;fill-opacity:1;stroke:none;stroke-width:0.26458332" />
    </g>
    <path
       style="opacity:1;fill:#333333;fill-opacity:1;stroke:none;stroke-width:0.40745068"
       d="m 457.97263,570.35612 c -18.79507,-2.12161 -40.18257,-11.27811 -71.63974,-30.67068 -8.13959,-5.01787 -8.02372,-4.97631 -9.49602,-3.40625 -1.98328,2.11498 -9.29175,8.28788 -11.94887,10.09229 -7.55689,5.13179 -13.40276,5.68891 -14.83103,1.41342 -1.63872,-4.90546 5.4376,-28.95935 18.84332,-64.05245 9.54282,-24.98091 28.41577,-70.80369 29.41653,-71.42219 0.22811,-0.14098 0.37499,-0.42288 0.3264,-0.62644 -0.0486,-0.20356 0.0318,-0.82849 0.17857,-1.38874 0.14681,-0.56024 0.45269,-8.53609 0.67974,-17.7241 0.63732,-25.79 1.66538,-38.59108 4.07232,-50.7069 4.32594,-21.77558 13.30666,-33.82393 30.11939,-40.40761 16.87389,-6.60764 39.99439,-8.13907 57.78976,-3.82784 20.7168,5.019 32.64507,17.2536 38.14208,39.1216 3.4588,13.75967 4.66657,26.50558 4.98055,52.56114 0.20469,16.98608 0.39447,21.14579 0.94912,20.80299 0.62648,-0.38718 21.06718,49.83231 30.13912,74.04694 11.92704,31.8354 17.56985,50.7662 17.56985,58.9443 0,2.59002 -0.1133,3.01447 -1.03188,3.86578 -3.15357,2.92263 -9.30891,0.77622 -18.04824,-6.29354 -2.16747,-1.75339 -5.03522,-4.30389 -6.3728,-5.66777 -1.33757,-1.36388 -2.56841,-2.47978 -2.7352,-2.47978 -0.16679,0 -5.21474,3.17625 -11.21765,7.05833 -6.00292,3.88209 -13.48133,8.58639 -16.6187,10.45401 -26.52636,15.79064 -49.54126,22.54011 -69.26662,20.31349 z m 19.96508,-32.86866 c 5.28911,-1.14072 8.32959,-2.22946 13.85333,-4.9606 18.43404,-9.11449 30.90578,-28.24854 32.34892,-49.62947 0.94243,-13.9626 -2.58151,-27.3736 -10.20264,-38.82794 -3.0137,-4.52952 -10.61003,-12.34927 -14.86401,-15.30119 l -2.90399,-2.01514 0.75119,-1.40422 c 0.41315,-0.77232 1.12926,-2.38761 1.59134,-3.58952 1.00562,-2.61573 1.41642,-1.9763 -5.09101,-7.92451 -5.72644,-5.23434 -11.15932,-9.40512 -14.87195,-11.41709 -10.91899,-5.91728 -20.15604,-3.88649 -33.81841,7.43508 -3.40229,2.81937 -10.37133,9.1079 -10.53264,9.50415 -0.0784,0.19273 0.9084,1.72266 2.19301,3.39982 1.28461,1.67718 2.26556,3.10249 2.1799,3.16736 -0.0857,0.0649 -1.43922,0.95947 -3.00791,1.98798 -15.62369,10.24371 -25.66261,28.29897 -26.56551,47.77875 -1.32187,28.5191 16.86115,54.02186 43.57738,61.11985 2.07246,0.55061 5.05159,1.17715 6.62027,1.39232 4.35042,0.59669 14.44506,0.21127 18.74273,-0.71563 z m 70.79456,-4.85226 c -1.62471,-0.0773 -4.28333,-0.0773 -5.90804,0 -1.62471,0.0773 -0.2954,0.14062 2.95402,0.14062 3.24942,0 4.57873,-0.0633 2.95402,-0.14062 z m -16.9092,-125.06569 c -0.39218,-0.10248 -1.03391,-0.10248 -1.42608,0 -0.39217,0.10248 -0.0713,0.18634 0.71304,0.18634 0.78434,0 1.10521,-0.0839 0.71304,-0.18634 z"
       id="path4722"
       transform="scale(0.26458333)" />
    <path
       style="opacity:1;fill:#333333;fill-opacity:1;stroke:none;stroke-width:0.26458332"
       d="m 139.81281,107.16256 h 1.38157 v 1.25205 h -1.38157 z"
       id="rect4846" />
    <g
       id="g4877">
      <path
         style="opacity:1;fill:#e6e6e6;fill-opacity:1;stroke:none;stroke-width:0.26458332"
         id="path4860"
         d="m 133.36974,95.882912 a 3.0704114,3.0704114 0 0 1 -3.05741,3.070384 3.0704114,3.0704114 0 0 1 -3.0833,-3.044394 3.0704114,3.0704114 0 0 1 3.03132,-3.096154 3.0704114,3.0704114 0 0 1 3.10895,3.018185" />
      <g
         transform="matrix(0.80841168,0,0,1,68.549895,-7.3051882)"
         id="g4864">
        <path
           d="m 77.375031,103.39364 a 1.6372987,1.2321938 0 0 1 -1.630369,1.23218 1.6372987,1.2321938 0 0 1 -1.64417,-1.22175 1.6372987,1.2321938 0 0 1 1.616451,-1.24253 1.6372987,1.2321938 0 0 1 1.657853,1.21124"
           id="path4862"
           style="opacity:1;fill:#000000;fill-opacity:1;stroke:none;stroke-width:0.26458332" />
      </g>
    </g>
    <g
       id="g4885"
       transform="matrix(-1,0,0,1,248.68829,0.27470384)">
      <path
         d="m 133.36974,95.882912 a 3.0704114,3.0704114 0 0 1 -3.05741,3.070384 3.0704114,3.0704114 0 0 1 -3.0833,-3.044394 3.0704114,3.0704114 0 0 1 3.03132,-3.096154 3.0704114,3.0704114 0 0 1 3.10895,3.018185"
         id="path4879"
         style="opacity:1;fill:#e6e6e6;fill-opacity:1;stroke:none;stroke-width:0.26458332" />
      <g
         id="g4883"
         transform="matrix(0.80841168,0,0,1,68.549895,-7.3051882)">
        <path
           style="opacity:1;fill:#000000;fill-opacity:1;stroke:none;stroke-width:0.26458332"
           id="path4881"
           d="m 77.375031,103.39364 a 1.6372987,1.2321938 0 0 1 -1.630369,1.23218 1.6372987,1.2321938 0 0 1 -1.64417,-1.22175 1.6372987,1.2321938 0 0 1 1.616451,-1.24253 1.6372987,1.2321938 0 0 1 1.657853,1.21124" />
      </g>
    </g>
  </g>
  <g
     id="flowRoot134"
     style="font-style:normal;font-weight:normal;font-size:40px;line-height:1.25;font-family:sans-serif;letter-spacing:0px;word-spacing:0px;fill:#ffffff;fill-opacity:1;stroke:none"
     transform="matrix(0.33636134,0,0,0.46752716,258.97896,-20.965964)"
     aria-label="Install WordPress
in
Debian Buster">
    <path
       id="path146"
       style="font-style:italic;font-variant:normal;font-weight:500;font-stretch:normal;font-family:Ubuntu;-inkscape-font-specification:'Ubuntu Medium Italic';text-align:center;text-anchor:middle;fill:#ffffff"
       d="m -516.29566,104.025 h 5.04 l -6.64,27.72 h -5.04 z" />
    <path
       id="path148"
       style="font-style:italic;font-variant:normal;font-weight:500;font-stretch:normal;font-family:Ubuntu;-inkscape-font-specification:'Ubuntu Medium Italic';text-align:center;text-anchor:middle;fill:#ffffff"
       d="m -506.92941,111.705 q 1.6,-0.48 3.64,-0.88 2.08,-0.44 4.52,-0.44 3.68,0 5.4,1.8 1.72,1.8 1.72,4.84 0,0.84 -0.16,1.8 -0.12,0.92 -0.32,1.92 l -2.64,11 h -4.84 l 2.48,-10.48 q 0.2,-0.88 0.4,-1.8 0.2,-0.92 0.24,-1.76 0.04,-1.4 -0.68,-2.32 -0.68,-0.92 -2.72,-0.92 -1.72,0 -2.96,0.36 l -4.04,16.92 h -4.84 z" />
    <path
       id="path150"
       style="font-style:italic;font-variant:normal;font-weight:500;font-stretch:normal;font-family:Ubuntu;-inkscape-font-specification:'Ubuntu Medium Italic';text-align:center;text-anchor:middle;fill:#ffffff"
       d="m -483.18941,128.345 q 1.92,0 3.04,-0.6 1.12,-0.64 1.12,-1.92 0,-1.04 -0.72,-1.64 -0.72,-0.64 -2.52,-1.48 -0.96,-0.44 -1.8,-0.92 -0.8,-0.48 -1.4,-1.12 -0.6,-0.64 -0.96,-1.48 -0.36,-0.88 -0.36,-2.08 0,-3.12 2.28,-4.96 2.28,-1.84 6.6,-1.84 2,0 3.56,0.44 1.6,0.4 2.4,0.84 l -1.72,3.76 q -0.68,-0.4 -1.96,-0.76 -1.28,-0.4 -2.68,-0.4 -0.68,0 -1.36,0.12 -0.64,0.12 -1.16,0.4 -0.52,0.28 -0.88,0.8 -0.32,0.48 -0.32,1.2 0,0.92 0.72,1.52 0.76,0.56 2.16,1.2 1.32,0.6 2.24,1.16 0.92,0.56 1.52,1.28 0.6,0.68 0.88,1.56 0.28,0.84 0.28,2.04 0,1.48 -0.6,2.76 -0.6,1.24 -1.76,2.16 -1.12,0.88 -2.8,1.4 -1.68,0.52 -3.84,0.52 -1.48,0 -2.68,-0.2 -1.16,-0.2 -2.04,-0.44 -0.88,-0.28 -1.48,-0.56 -0.6,-0.28 -0.92,-0.48 l 1.72,-3.8 q 0.28,0.16 0.8,0.44 0.56,0.24 1.24,0.48 0.72,0.24 1.56,0.44 0.88,0.16 1.84,0.16 z" />
    <path
       id="path152"
       style="font-style:italic;font-variant:normal;font-weight:500;font-stretch:normal;font-family:Ubuntu;-inkscape-font-specification:'Ubuntu Medium Italic';text-align:center;text-anchor:middle;fill:#ffffff"
       d="m -465.92941,105.305 5.04,-0.8 -1.52,6.32 h 6.84 l -0.96,4 h -6.84 l -2,8.28 q -0.2,0.88 -0.28,1.48 -0.08,0.56 -0.08,1.04 0,0.48 0.08,0.96 0.12,0.44 0.4,0.8 0.32,0.32 0.88,0.56 0.6,0.2 1.6,0.2 1.08,0 2.08,-0.28 1,-0.28 1.76,-0.6 l 0.36,3.88 q -0.92,0.4 -2.32,0.76 -1.4,0.36 -3.28,0.36 -3.44,0 -4.92,-1.48 -1.48,-1.52 -1.48,-4.12 0,-0.96 0.12,-1.96 0.16,-1.04 0.44,-2.2 z" />
    <path
       id="path154"
       style="font-style:italic;font-variant:normal;font-weight:500;font-stretch:normal;font-family:Ubuntu;-inkscape-font-specification:'Ubuntu Medium Italic';text-align:center;text-anchor:middle;fill:#ffffff"
       d="m -437.43379,123.625 q -0.12,0.44 -0.24,1.44 -0.12,1 -0.12,1.88 0,1.16 0.2,2.28 0.2,1.08 0.64,2.2 l -4.32,0.64 q -0.48,-0.96 -0.76,-2.04 -1,0.88 -2.48,1.6 -1.44,0.68 -3.28,0.68 -1.88,0 -3.24,-0.6 -1.32,-0.64 -2.16,-1.72 -0.84,-1.12 -1.24,-2.6 -0.4,-1.48 -0.4,-3.2 0,-2.92 1.04,-5.44 1.04,-2.52 2.88,-4.36 1.88,-1.84 4.44,-2.88 2.56,-1.08 5.6,-1.08 1.56,0 3.12,0.28 1.6,0.24 3.2,0.96 z m -2.64,-9.04 q -0.76,-0.16 -1.72,-0.16 -1.8,0 -3.32,0.8 -1.52,0.76 -2.64,2.08 -1.08,1.28 -1.68,2.96 -0.6,1.68 -0.6,3.52 0,0.92 0.16,1.72 0.16,0.8 0.52,1.4 0.4,0.6 1.04,0.96 0.64,0.36 1.64,0.36 1.28,0 2.24,-0.52 1,-0.56 1.84,-1.48 0.04,-1.04 0.16,-1.96 0.16,-0.92 0.4,-1.84 z" />
    <path
       id="path156"
       style="font-style:italic;font-variant:normal;font-weight:500;font-stretch:normal;font-family:Ubuntu;-inkscape-font-specification:'Ubuntu Medium Italic';text-align:center;text-anchor:middle;fill:#ffffff"
       d="m -425.37004,132.145 q -1.88,-0.04 -3.2,-0.48 -1.28,-0.44 -2.08,-1.2 -0.76,-0.76 -1.12,-1.8 -0.32,-1.04 -0.32,-2.28 0,-1.28 0.28,-2.68 0.32,-1.44 0.68,-2.84 l 4.64,-19.36 5.04,-0.8 q -1.24,5.24 -2.48,10.44 -1.24,5.16 -2.52,10.4 -0.2,0.84 -0.44,1.68 -0.24,0.8 -0.24,1.6 0,0.68 0,1.28 0.04,0.56 0.32,1 0.32,0.4 0.92,0.68 0.6,0.28 1.56,0.36 z" />
    <path
       id="path158"
       style="font-style:italic;font-variant:normal;font-weight:500;font-stretch:normal;font-family:Ubuntu;-inkscape-font-specification:'Ubuntu Medium Italic';text-align:center;text-anchor:middle;fill:#ffffff"
       d="m -413.41691,132.145 q -1.88,-0.04 -3.2,-0.48 -1.28,-0.44 -2.08,-1.2 -0.76,-0.76 -1.12,-1.8 -0.32,-1.04 -0.32,-2.28 0,-1.28 0.28,-2.68 0.32,-1.44 0.68,-2.84 l 4.64,-19.36 5.04,-0.8 q -1.24,5.24 -2.48,10.44 -1.24,5.16 -2.52,10.4 -0.2,0.84 -0.44,1.68 -0.24,0.8 -0.24,1.6 0,0.68 0,1.28 0.04,0.56 0.32,1 0.32,0.4 0.92,0.68 0.6,0.28 1.56,0.36 z" />
    <path
       id="path160"
       style="font-style:italic;font-variant:normal;font-weight:500;font-stretch:normal;font-family:Ubuntu;-inkscape-font-specification:'Ubuntu Medium Italic';text-align:center;text-anchor:middle;fill:#ffffff"
       d="m -376.81066,107.185 q 0.12,2.16 0.28,4.52 0.2,2.36 0.44,4.72 0.24,2.32 0.48,4.56 0.24,2.24 0.48,4.16 1.12,-2.12 2.32,-4.64 1.2,-2.56 2.4,-5.28 1.2,-2.72 2.36,-5.56 1.16,-2.88 2.24,-5.64 h 5.36 q -3.16,7.72 -6.4,14.6 -3.2,6.88 -6.8,13.12 h -4.88 q -0.32,-2.16 -0.64,-4.24 -0.28,-2.08 -0.56,-4.2 -0.24,-2.16 -0.48,-4.36 -0.2,-2.24 -0.4,-4.64 -2.48,4.6 -4.92,8.92 -2.4,4.28 -5.12,8.52 h -4.96 q -0.32,-3.48 -0.48,-6.92 -0.12,-3.44 -0.12,-7.04 0,-6.56 0.48,-13.76 h 5.04 q -0.24,3.84 -0.4,7.64 -0.16,3.76 -0.16,7.64 0,1.44 0,2.92 0,1.44 0.08,2.92 1.24,-2.04 2.56,-4.28 1.32,-2.28 2.6,-4.6 1.28,-2.32 2.48,-4.64 1.24,-2.32 2.32,-4.44 z" />
    <path
       id="path162"
       style="font-style:italic;font-variant:normal;font-weight:500;font-stretch:normal;font-family:Ubuntu;-inkscape-font-specification:'Ubuntu Medium Italic';text-align:center;text-anchor:middle;fill:#ffffff"
       d="m -354.61379,132.305 q -3.72,0 -5.68,-2.2 -1.96,-2.2 -1.96,-5.8 0,-2.32 0.72,-4.8 0.72,-2.48 2.2,-4.52 1.48,-2.04 3.72,-3.36 2.24,-1.32 5.28,-1.32 3.72,0 5.68,2.2 1.96,2.16 1.96,5.76 0,2.36 -0.72,4.84 -0.68,2.48 -2.16,4.52 -1.44,2.04 -3.72,3.36 -2.24,1.32 -5.32,1.32 z m 3.68,-17.92 q -1.56,0 -2.8,0.92 -1.2,0.88 -2.04,2.28 -0.8,1.4 -1.24,3.08 -0.44,1.64 -0.44,3.2 0,2 0.76,3.16 0.76,1.16 2.68,1.16 1.56,0 2.76,-0.88 1.24,-0.92 2.04,-2.28 0.84,-1.4 1.28,-3.08 0.44,-1.68 0.44,-3.2 0,-2 -0.76,-3.16 -0.76,-1.2 -2.68,-1.2 z" />
    <path
       id="path164"
       style="font-style:italic;font-variant:normal;font-weight:500;font-stretch:normal;font-family:Ubuntu;-inkscape-font-specification:'Ubuntu Medium Italic';text-align:center;text-anchor:middle;fill:#ffffff"
       d="m -325.23379,115.105 q -0.8,-0.28 -1.72,-0.44 -0.92,-0.16 -2.16,-0.16 -0.68,0 -1.44,0.12 -0.76,0.08 -1.28,0.24 l -4.04,16.88 h -4.84 l 4.8,-19.96 q 1.68,-0.56 3.64,-0.96 1.96,-0.44 4.24,-0.44 0.48,0 1.08,0.08 0.6,0.04 1.16,0.12 0.6,0.08 1.08,0.2 0.52,0.12 0.88,0.28 z" />
    <path
       id="path166"
       style="font-style:italic;font-variant:normal;font-weight:500;font-stretch:normal;font-family:Ubuntu;-inkscape-font-specification:'Ubuntu Medium Italic';text-align:center;text-anchor:middle;fill:#ffffff"
       d="m -317.08879,132.305 q -1.88,0 -3.24,-0.6 -1.36,-0.64 -2.24,-1.72 -0.84,-1.08 -1.24,-2.56 -0.4,-1.48 -0.4,-3.2 0,-2.68 0.92,-5.16 0.96,-2.52 2.68,-4.4 1.76,-1.92 4.28,-3.04 2.52,-1.16 5.72,-1.16 0.4,0 0.96,0.04 0.56,0.04 1.24,0.2 l 2.2,-9.2 5.04,-0.8 -5.48,22.68 q -0.2,0.92 -0.32,1.88 -0.08,0.92 -0.08,1.76 0,1.08 0.2,2.16 0.2,1.08 0.64,2.24 l -4.32,0.64 q -0.44,-0.84 -0.76,-2.04 -1,0.88 -2.44,1.6 -1.44,0.68 -3.36,0.68 z m 7.72,-17.68 q -0.76,-0.16 -1.84,-0.16 -1.84,0 -3.36,0.8 -1.52,0.76 -2.6,2.08 -1.08,1.28 -1.68,2.96 -0.56,1.68 -0.56,3.48 0,0.92 0.16,1.72 0.2,0.8 0.6,1.4 0.4,0.6 1.04,0.96 0.68,0.36 1.64,0.36 1.28,0 2.24,-0.52 1,-0.52 1.88,-1.44 0.04,-0.84 0.16,-1.76 0.16,-0.92 0.36,-1.8 z" />
    <path
       id="path168"
       style="font-style:italic;font-variant:normal;font-weight:500;font-stretch:normal;font-family:Ubuntu;-inkscape-font-specification:'Ubuntu Medium Italic';text-align:center;text-anchor:middle;fill:#ffffff"
       d="m -288.03816,103.745 q 5,0 7.64,1.96 2.68,1.96 2.68,5.6 0,2.88 -1.12,4.92 -1.08,2 -3.04,3.28 -1.92,1.28 -4.64,1.88 -2.68,0.56 -5.92,0.56 h -2.16 l -2.36,9.8 h -5.04 l 6.52,-27.32 q 1.92,-0.4 3.84,-0.52 1.92,-0.16 3.6,-0.16 z m -0.48,4.24 q -0.76,0 -1.44,0.04 -0.68,0.04 -1.36,0.12 l -2.28,9.56 h 2.04 q 1.68,0 3.24,-0.28 1.56,-0.28 2.76,-0.92 1.2,-0.68 1.92,-1.8 0.72,-1.16 0.72,-2.92 0,-2.04 -1.52,-2.92 -1.48,-0.88 -4.08,-0.88 z" />
    <path
       id="path170"
       style="font-style:italic;font-variant:normal;font-weight:500;font-stretch:normal;font-family:Ubuntu;-inkscape-font-specification:'Ubuntu Medium Italic';text-align:center;text-anchor:middle;fill:#ffffff"
       d="m -262.49941,115.105 q -0.8,-0.28 -1.72,-0.44 -0.92,-0.16 -2.16,-0.16 -0.68,0 -1.44,0.12 -0.76,0.08 -1.28,0.24 l -4.04,16.88 h -4.84 l 4.8,-19.96 q 1.68,-0.56 3.64,-0.96 1.96,-0.44 4.24,-0.44 0.48,0 1.08,0.08 0.6,0.04 1.16,0.12 0.6,0.08 1.08,0.2 0.52,0.12 0.88,0.28 z" />
    <path
       id="path172"
       style="font-style:italic;font-variant:normal;font-weight:500;font-stretch:normal;font-family:Ubuntu;-inkscape-font-specification:'Ubuntu Medium Italic';text-align:center;text-anchor:middle;fill:#ffffff"
       d="m -261.08191,124.185 q 0,-2.68 0.84,-5.16 0.88,-2.52 2.48,-4.44 1.64,-1.96 3.92,-3.12 2.28,-1.16 5.12,-1.16 3.04,0 4.72,1.56 1.68,1.56 1.68,4 0,2.52 -1.24,4.08 -1.24,1.56 -3.24,2.44 -1.96,0.88 -4.48,1.2 -2.48,0.32 -5.04,0.4 -0.04,0.08 -0.04,0.16 v 0.4 q 0,3.64 4.6,3.64 2.72,0 5.44,-1.12 l 0.4,3.92 q -0.96,0.44 -2.72,0.88 -1.76,0.44 -4,0.44 -2.24,0 -3.84,-0.64 -1.6,-0.64 -2.64,-1.76 -1,-1.12 -1.48,-2.56 -0.48,-1.48 -0.48,-3.16 z m 11.64,-9.92 q -1.2,0 -2.28,0.48 -1.08,0.48 -1.92,1.32 -0.84,0.84 -1.48,2 -0.6,1.12 -0.88,2.44 4.8,-0.16 6.96,-1.16 2.2,-1 2.2,-3 0,-0.8 -0.6,-1.44 -0.56,-0.64 -2,-0.64 z" />
    <path
       id="path174"
       style="font-style:italic;font-variant:normal;font-weight:500;font-stretch:normal;font-family:Ubuntu;-inkscape-font-specification:'Ubuntu Medium Italic';text-align:center;text-anchor:middle;fill:#ffffff"
       d="m -235.06441,128.345 q 1.92,0 3.04,-0.6 1.12,-0.64 1.12,-1.92 0,-1.04 -0.72,-1.64 -0.72,-0.64 -2.52,-1.48 -0.96,-0.44 -1.8,-0.92 -0.8,-0.48 -1.4,-1.12 -0.6,-0.64 -0.96,-1.48 -0.36,-0.88 -0.36,-2.08 0,-3.12 2.28,-4.96 2.28,-1.84 6.6,-1.84 2,0 3.56,0.44 1.6,0.4 2.4,0.84 l -1.72,3.76 q -0.68,-0.4 -1.96,-0.76 -1.28,-0.4 -2.68,-0.4 -0.68,0 -1.36,0.12 -0.64,0.12 -1.16,0.4 -0.52,0.28 -0.88,0.8 -0.32,0.48 -0.32,1.2 0,0.92 0.72,1.52 0.76,0.56 2.16,1.2 1.32,0.6 2.24,1.16 0.92,0.56 1.52,1.28 0.6,0.68 0.88,1.56 0.28,0.84 0.28,2.04 0,1.48 -0.6,2.76 -0.6,1.24 -1.76,2.16 -1.12,0.88 -2.8,1.4 -1.68,0.52 -3.84,0.52 -1.48,0 -2.68,-0.2 -1.16,-0.2 -2.04,-0.44 -0.88,-0.28 -1.48,-0.56 -0.6,-0.28 -0.92,-0.48 l 1.72,-3.8 q 0.28,0.16 0.8,0.44 0.56,0.24 1.24,0.48 0.72,0.24 1.56,0.44 0.88,0.16 1.84,0.16 z" />
    <path
       id="path176"
       style="font-style:italic;font-variant:normal;font-weight:500;font-stretch:normal;font-family:Ubuntu;-inkscape-font-specification:'Ubuntu Medium Italic';text-align:center;text-anchor:middle;fill:#ffffff"
       d="m -217.56441,128.345 q 1.92,0 3.04,-0.6 1.12,-0.64 1.12,-1.92 0,-1.04 -0.72,-1.64 -0.72,-0.64 -2.52,-1.48 -0.96,-0.44 -1.8,-0.92 -0.8,-0.48 -1.4,-1.12 -0.6,-0.64 -0.96,-1.48 -0.36,-0.88 -0.36,-2.08 0,-3.12 2.28,-4.96 2.28,-1.84 6.6,-1.84 2,0 3.56,0.44 1.6,0.4 2.4,0.84 l -1.72,3.76 q -0.68,-0.4 -1.96,-0.76 -1.28,-0.4 -2.68,-0.4 -0.68,0 -1.36,0.12 -0.64,0.12 -1.16,0.4 -0.52,0.28 -0.88,0.8 -0.32,0.48 -0.32,1.2 0,0.92 0.72,1.52 0.76,0.56 2.16,1.2 1.32,0.6 2.24,1.16 0.92,0.56 1.52,1.28 0.6,0.68 0.88,1.56 0.28,0.84 0.28,2.04 0,1.48 -0.6,2.76 -0.6,1.24 -1.76,2.16 -1.12,0.88 -2.8,1.4 -1.68,0.52 -3.84,0.52 -1.48,0 -2.68,-0.2 -1.16,-0.2 -2.04,-0.44 -0.88,-0.28 -1.48,-0.56 -0.6,-0.28 -0.92,-0.48 l 1.72,-3.8 q 0.28,0.16 0.8,0.44 0.56,0.24 1.24,0.48 0.72,0.24 1.56,0.44 0.88,0.16 1.84,0.16 z" />
    <path
       id="path178"
       style="font-style:italic;font-variant:normal;font-weight:500;font-stretch:normal;font-family:Ubuntu;-inkscape-font-specification:'Ubuntu Medium Italic';text-align:center;text-anchor:middle;fill:#ffffff"
       d="m -376.49973,183.65406 h -4.8 l 5,-20.92 h 4.84 z m 3.6,-24.08 q -1.08,0 -1.88,-0.64 -0.8,-0.64 -0.8,-1.92 0,-1.48 1,-2.44 1.04,-0.96 2.36,-0.96 1.08,0 1.88,0.68 0.84,0.64 0.84,1.92 0,1.48 -1.04,2.44 -1.04,0.92 -2.36,0.92 z" />
    <path
       id="path180"
       style="font-style:italic;font-variant:normal;font-weight:500;font-stretch:normal;font-family:Ubuntu;-inkscape-font-specification:'Ubuntu Medium Italic';text-align:center;text-anchor:middle;fill:#ffffff"
       d="m -365.64035,163.61406 q 1.6,-0.48 3.64,-0.88 2.08,-0.44 4.52,-0.44 3.68,0 5.4,1.8 1.72,1.8 1.72,4.84 0,0.84 -0.16,1.8 -0.12,0.92 -0.32,1.92 l -2.64,11 h -4.84 l 2.48,-10.48 q 0.2,-0.88 0.4,-1.8 0.2,-0.92 0.24,-1.76 0.04,-1.4 -0.68,-2.32 -0.68,-0.92 -2.72,-0.92 -1.72,0 -2.96,0.36 l -4.04,16.92 h -4.84 z" />
    <path
       id="path182"
       style="font-style:italic;font-variant:normal;font-weight:500;font-stretch:normal;font-family:Ubuntu;-inkscape-font-specification:'Ubuntu Medium Italic';text-align:center;text-anchor:middle;fill:#ffffff"
       d="m -486.03629,231.44312 q 0.44,0.08 1,0.12 0.6,0 1.84,0 2.88,0 5.2,-0.92 2.32,-0.92 3.92,-2.6 1.64,-1.72 2.52,-4.08 0.88,-2.4 0.88,-5.32 0,-3.16 -1.8,-5 -1.8,-1.84 -5.88,-1.84 -1.04,0 -1.68,0.04 -0.6,0.04 -1.32,0.12 z m 20.56,-12.96 q 0,3.72 -1.2,6.92 -1.2,3.2 -3.56,5.52 -2.36,2.32 -5.92,3.64 -3.52,1.32 -8.2,1.32 -1.68,0 -3.76,-0.2 -2.08,-0.16 -3.84,-0.56 l 6.44,-26.84 q 1.96,-0.44 3.96,-0.56 2,-0.16 3.68,-0.16 3.04,0 5.36,0.8 2.32,0.76 3.88,2.2 1.56,1.4 2.36,3.44 0.8,2 0.8,4.48 z" />
    <path
       id="path184"
       style="font-style:italic;font-variant:normal;font-weight:500;font-stretch:normal;font-family:Ubuntu;-inkscape-font-specification:'Ubuntu Medium Italic';text-align:center;text-anchor:middle;fill:#ffffff"
       d="m -463.26941,228.00312 q 0,-2.68 0.84,-5.16 0.88,-2.52 2.48,-4.44 1.64,-1.96 3.92,-3.12 2.28,-1.16 5.12,-1.16 3.04,0 4.72,1.56 1.68,1.56 1.68,4 0,2.52 -1.24,4.08 -1.24,1.56 -3.24,2.44 -1.96,0.88 -4.48,1.2 -2.48,0.32 -5.04,0.4 -0.04,0.08 -0.04,0.16 v 0.4 q 0,3.64 4.6,3.64 2.72,0 5.44,-1.12 l 0.4,3.92 q -0.96,0.44 -2.72,0.88 -1.76,0.44 -4,0.44 -2.24,0 -3.84,-0.64 -1.6,-0.64 -2.64,-1.76 -1,-1.12 -1.48,-2.56 -0.48,-1.48 -0.48,-3.16 z m 11.64,-9.92 q -1.2,0 -2.28,0.48 -1.08,0.48 -1.92,1.32 -0.84,0.84 -1.48,2 -0.6,1.12 -0.88,2.44 4.8,-0.16 6.96,-1.16 2.2,-1 2.2,-3 0,-0.8 -0.6,-1.44 -0.56,-0.64 -2,-0.64 z" />
    <path
       id="path186"
       style="font-style:italic;font-variant:normal;font-weight:500;font-stretch:normal;font-family:Ubuntu;-inkscape-font-specification:'Ubuntu Medium Italic';text-align:center;text-anchor:middle;fill:#ffffff"
       d="m -429.61191,214.16312 q 1.84,0 3.16,0.64 1.36,0.6 2.24,1.68 0.88,1.08 1.32,2.56 0.44,1.44 0.44,3.12 0,2.76 -0.96,5.28 -0.96,2.52 -2.76,4.44 -1.76,1.92 -4.32,3.08 -2.56,1.12 -5.76,1.12 -0.48,0 -1.28,-0.04 -0.8,-0.04 -1.76,-0.2 -0.96,-0.16 -1.96,-0.44 -1,-0.28 -1.84,-0.72 l 7,-29.36 5.04,-0.8 -2.56,10.72 q 0.88,-0.44 1.88,-0.76 1,-0.32 2.12,-0.32 z m -6,17.84 q 1.84,0 3.36,-0.76 1.56,-0.8 2.64,-2.12 1.12,-1.32 1.72,-3 0.6,-1.72 0.6,-3.56 0,-0.92 -0.16,-1.68 -0.16,-0.8 -0.56,-1.36 -0.4,-0.6 -1.08,-0.92 -0.68,-0.36 -1.72,-0.36 -0.88,0 -1.92,0.32 -1.04,0.32 -1.92,1 l -2.92,12.24 q 0.36,0.08 0.8,0.16 0.48,0.04 1.16,0.04 z" />
    <path
       id="path188"
       style="font-style:italic;font-variant:normal;font-weight:500;font-stretch:normal;font-family:Ubuntu;-inkscape-font-specification:'Ubuntu Medium Italic';text-align:center;text-anchor:middle;fill:#ffffff"
       d="m -415.75754,235.56312 h -4.8 l 5,-20.92 h 4.84 z m 3.6,-24.08 q -1.08,0 -1.88,-0.64 -0.8,-0.64 -0.8,-1.92 0,-1.48 1,-2.44 1.04,-0.96 2.36,-0.96 1.08,0 1.88,0.68 0.84,0.64 0.84,1.92 0,1.48 -1.04,2.44 -1.04,0.92 -2.36,0.92 z" />
    <path
       id="path190"
       style="font-style:italic;font-variant:normal;font-weight:500;font-stretch:normal;font-family:Ubuntu;-inkscape-font-specification:'Ubuntu Medium Italic';text-align:center;text-anchor:middle;fill:#ffffff"
       d="m -391.41816,227.44312 q -0.12,0.44 -0.24,1.44 -0.12,1 -0.12,1.88 0,1.16 0.2,2.28 0.2,1.08 0.64,2.2 l -4.32,0.64 q -0.48,-0.96 -0.76,-2.04 -1,0.88 -2.48,1.6 -1.44,0.68 -3.28,0.68 -1.88,0 -3.24,-0.6 -1.32,-0.64 -2.16,-1.72 -0.84,-1.12 -1.24,-2.6 -0.4,-1.48 -0.4,-3.2 0,-2.92 1.04,-5.44 1.04,-2.52 2.88,-4.36 1.88,-1.84 4.44,-2.88 2.56,-1.08 5.6,-1.08 1.56,0 3.12,0.28 1.6,0.24 3.2,0.96 z m -2.64,-9.04 q -0.76,-0.16 -1.72,-0.16 -1.8,0 -3.32,0.8 -1.52,0.76 -2.64,2.08 -1.08,1.28 -1.68,2.96 -0.6,1.68 -0.6,3.52 0,0.92 0.16,1.72 0.16,0.8 0.52,1.4 0.4,0.6 1.04,0.96 0.64,0.36 1.64,0.36 1.28,0 2.24,-0.52 1,-0.56 1.84,-1.48 0.04,-1.04 0.16,-1.96 0.16,-0.92 0.4,-1.84 z" />
    <path
       id="path192"
       style="font-style:italic;font-variant:normal;font-weight:500;font-stretch:normal;font-family:Ubuntu;-inkscape-font-specification:'Ubuntu Medium Italic';text-align:center;text-anchor:middle;fill:#ffffff"
       d="m -382.55441,215.52312 q 1.6,-0.48 3.64,-0.88 2.08,-0.44 4.52,-0.44 3.68,0 5.4,1.8 1.72,1.8 1.72,4.84 0,0.84 -0.16,1.8 -0.12,0.92 -0.32,1.92 l -2.64,11 h -4.84 l 2.48,-10.48 q 0.2,-0.88 0.4,-1.8 0.2,-0.92 0.24,-1.76 0.04,-1.4 -0.68,-2.32 -0.68,-0.92 -2.72,-0.92 -1.72,0 -2.96,0.36 l -4.04,16.92 h -4.84 z" />
    <path
       id="path194"
       style="font-style:italic;font-variant:normal;font-weight:500;font-stretch:normal;font-family:Ubuntu;-inkscape-font-specification:'Ubuntu Medium Italic';text-align:center;text-anchor:middle;fill:#ffffff"
       d="m -346.76129,235.88312 q -2.04,0 -4.32,-0.2 -2.24,-0.16 -4,-0.56 l 6.44,-26.84 q 1.8,-0.4 3.8,-0.56 2,-0.16 4.04,-0.16 1.68,0 3.4,0.24 1.76,0.24 3.16,0.96 1.4,0.68 2.28,1.92 0.92,1.2 0.92,3.12 0,2.12 -1.2,4 -1.16,1.88 -3.96,3.04 1.76,0.72 2.72,2.08 0.96,1.36 0.96,3.16 0,4.68 -3.68,7.24 -3.64,2.56 -10.56,2.56 z m -0.44,-12.84 -2.04,8.52 q 0.56,0.08 1.48,0.16 0.92,0.04 2.04,0.04 1.32,0 2.76,-0.2 1.44,-0.2 2.6,-0.76 1.16,-0.56 1.92,-1.6 0.8,-1.04 0.8,-2.68 0,-1.52 -1.16,-2.48 -1.16,-1 -3.84,-1 z m 0.96,-3.88 h 3.84 q 1.24,0 2.4,-0.24 1.16,-0.24 2,-0.76 0.88,-0.56 1.4,-1.36 0.52,-0.8 0.52,-1.96 0,-1.84 -1.4,-2.52 -1.36,-0.68 -3.68,-0.68 -0.92,0 -1.84,0.08 -0.92,0.04 -1.48,0.12 z" />
    <path
       id="path196"
       style="font-style:italic;font-variant:normal;font-weight:500;font-stretch:normal;font-family:Ubuntu;-inkscape-font-specification:'Ubuntu Medium Italic';text-align:center;text-anchor:middle;fill:#ffffff"
       d="m -308.61066,214.64312 -2.96,12.44 q -0.2,0.92 -0.32,1.84 -0.08,0.92 -0.08,1.84 0,1.16 0.16,2.28 0.2,1.12 0.64,2.2 l -4.32,0.64 q -0.24,-0.44 -0.44,-0.96 -0.16,-0.56 -0.32,-1.12 -1,0.8 -2.48,1.56 -1.48,0.72 -3.44,0.72 -1.76,0 -3,-0.52 -1.24,-0.52 -2.04,-1.4 -0.76,-0.92 -1.12,-2.12 -0.32,-1.24 -0.32,-2.6 0,-1.76 0.48,-3.8 l 2.64,-11 h 4.84 l -2.6,10.88 q -0.52,2.08 -0.52,3.4 0,0.64 0.12,1.2 0.12,0.56 0.4,1 0.32,0.4 0.84,0.64 0.56,0.24 1.36,0.24 1.32,0 2.36,-0.52 1.04,-0.56 1.92,-1.48 0.12,-1.72 0.56,-3.52 l 2.8,-11.84 z" />
    <path
       id="path198"
       style="font-style:italic;font-variant:normal;font-weight:500;font-stretch:normal;font-family:Ubuntu;-inkscape-font-specification:'Ubuntu Medium Italic';text-align:center;text-anchor:middle;fill:#ffffff"
       d="m -301.31441,232.16312 q 1.92,0 3.04,-0.6 1.12,-0.64 1.12,-1.92 0,-1.04 -0.72,-1.64 -0.72,-0.64 -2.52,-1.48 -0.96,-0.44 -1.8,-0.92 -0.8,-0.48 -1.4,-1.12 -0.6,-0.64 -0.96,-1.48 -0.36,-0.88 -0.36,-2.08 0,-3.12 2.28,-4.96 2.28,-1.84 6.6,-1.84 2,0 3.56,0.44 1.6,0.4 2.4,0.84 l -1.72,3.76 q -0.68,-0.4 -1.96,-0.76 -1.28,-0.4 -2.68,-0.4 -0.68,0 -1.36,0.12 -0.64,0.12 -1.16,0.4 -0.52,0.28 -0.88,0.8 -0.32,0.48 -0.32,1.2 0,0.92 0.72,1.52 0.76,0.56 2.16,1.2 1.32,0.6 2.24,1.16 0.92,0.56 1.52,1.28 0.6,0.68 0.88,1.56 0.28,0.84 0.28,2.04 0,1.48 -0.6,2.76 -0.6,1.24 -1.76,2.16 -1.12,0.88 -2.8,1.4 -1.68,0.52 -3.84,0.52 -1.48,0 -2.68,-0.2 -1.16,-0.2 -2.04,-0.44 -0.88,-0.28 -1.48,-0.56 -0.6,-0.28 -0.92,-0.48 l 1.72,-3.8 q 0.28,0.16 0.8,0.44 0.56,0.24 1.24,0.48 0.72,0.24 1.56,0.44 0.88,0.16 1.84,0.16 z" />
    <path
       id="path200"
       style="font-style:italic;font-variant:normal;font-weight:500;font-stretch:normal;font-family:Ubuntu;-inkscape-font-specification:'Ubuntu Medium Italic';text-align:center;text-anchor:middle;fill:#ffffff"
       d="m -284.05441,209.12312 5.04,-0.8 -1.52,6.32 h 6.84 l -0.96,4 h -6.84 l -2,8.28 q -0.2,0.88 -0.28,1.48 -0.08,0.56 -0.08,1.04 0,0.48 0.08,0.96 0.12,0.44 0.4,0.8 0.32,0.32 0.88,0.56 0.6,0.2 1.6,0.2 1.08,0 2.08,-0.28 1,-0.28 1.76,-0.6 l 0.36,3.88 q -0.92,0.4 -2.32,0.76 -1.4,0.36 -3.28,0.36 -3.44,0 -4.92,-1.48 -1.48,-1.52 -1.48,-4.12 0,-0.96 0.12,-1.96 0.16,-1.04 0.44,-2.2 z" />
    <path
       id="path202"
       style="font-style:italic;font-variant:normal;font-weight:500;font-stretch:normal;font-family:Ubuntu;-inkscape-font-specification:'Ubuntu Medium Italic';text-align:center;text-anchor:middle;fill:#ffffff"
       d="m -272.87879,228.00312 q 0,-2.68 0.84,-5.16 0.88,-2.52 2.48,-4.44 1.64,-1.96 3.92,-3.12 2.28,-1.16 5.12,-1.16 3.04,0 4.72,1.56 1.68,1.56 1.68,4 0,2.52 -1.24,4.08 -1.24,1.56 -3.24,2.44 -1.96,0.88 -4.48,1.2 -2.48,0.32 -5.04,0.4 -0.04,0.08 -0.04,0.16 v 0.4 q 0,3.64 4.6,3.64 2.72,0 5.44,-1.12 l 0.4,3.92 q -0.96,0.44 -2.72,0.88 -1.76,0.44 -4,0.44 -2.24,0 -3.84,-0.64 -1.6,-0.64 -2.64,-1.76 -1,-1.12 -1.48,-2.56 -0.48,-1.48 -0.48,-3.16 z m 11.64,-9.92 q -1.2,0 -2.28,0.48 -1.08,0.48 -1.92,1.32 -0.84,0.84 -1.48,2 -0.6,1.12 -0.88,2.44 4.8,-0.16 6.96,-1.16 2.2,-1 2.2,-3 0,-0.8 -0.6,-1.44 -0.56,-0.64 -2,-0.64 z" />
    <path
       id="path204"
       style="font-style:italic;font-variant:normal;font-weight:500;font-stretch:normal;font-family:Ubuntu;-inkscape-font-specification:'Ubuntu Medium Italic';text-align:center;text-anchor:middle;fill:#ffffff"
       d="m -237.42129,218.92312 q -0.8,-0.28 -1.72,-0.44 -0.92,-0.16 -2.16,-0.16 -0.68,0 -1.44,0.12 -0.76,0.08 -1.28,0.24 l -4.04,16.88 h -4.84 l 4.8,-19.96 q 1.68,-0.56 3.64,-0.96 1.96,-0.44 4.24,-0.44 0.48,0 1.08,0.08 0.6,0.04 1.16,0.12 0.6,0.08 1.08,0.2 0.52,0.12 0.88,0.28 z" />
  </g>
</svg>
