<?xml version="1.0" encoding="UTF-8" standalone="no"?>
<svg
   xmlns:osb="http://www.openswatchbook.org/uri/2009/osb"
   xmlns:dc="http://purl.org/dc/elements/1.1/"
   xmlns:cc="http://creativecommons.org/ns#"
   xmlns:rdf="http://www.w3.org/1999/02/22-rdf-syntax-ns#"
   xmlns:svg="http://www.w3.org/2000/svg"
   xmlns="http://www.w3.org/2000/svg"
   xmlns:xlink="http://www.w3.org/1999/xlink"
   id="svg3357"
   version="1.1"
   viewBox="0 0 444.49993 277.8125"
   height="277.8125mm"
   width="444.49994mm">
  <defs
     id="defs3351">
    <linearGradient
       id="linearGradient943">
      <stop
         id="stop939"
         offset="0"
         style="stop-color:#1da1f2;stop-opacity:1;" />
      <stop
         style="stop-color:#3caaee;stop-opacity:1"
         offset="0"
         id="stop947" />
      <stop
         id="stop941"
         offset="1"
         style="stop-color:#39adf3;stop-opacity:1" />
    </linearGradient>
    <linearGradient
       osb:paint="solid"
       id="linearGradient4115">
      <stop
         id="stop4113"
         offset="0"
         style="stop-color:#000000;stop-opacity:1;" />
    </linearGradient>
    <linearGradient
       id="linearGradient6114">
      <stop
         id="stop6110"
         offset="0"
         style="stop-color:#6f7c91;stop-opacity:1;" />
      <stop
         id="stop6112"
         offset="1"
         style="stop-color:#162d50;stop-opacity:1" />
    </linearGradient>
    <radialGradient
       gradientUnits="userSpaceOnUse"
       gradientTransform="matrix(3.0071285,0,0,1.83657,-125.12732,-58.151445)"
       r="31.67275"
       fy="66.986313"
       fx="73.77433"
       cy="66.986313"
       cx="73.77433"
       id="radialGradient6126"
       xlink:href="#linearGradient6114" />
    <filter
       height="2.2518458"
       y="-0.62592292"
       width="2.6250813"
       x="-0.81254071"
       id="filter1186"
       style="color-interpolation-filters:sRGB">
      <feGaussianBlur
         id="feGaussianBlur1188"
         stdDeviation="7.3128662" />
    </filter>
    <filter
       height="2.260839"
       y="-0.63041949"
       width="2.8671148"
       x="-0.93355739"
       id="filter1190"
       style="color-interpolation-filters:sRGB">
      <feGaussianBlur
         id="feGaussianBlur1192"
         stdDeviation="7.3128662" />
    </filter>
    <filter
       height="2.5955343"
       y="-0.79776722"
       width="2.5341678"
       x="-0.76708388"
       id="filter1194"
       style="color-interpolation-filters:sRGB">
      <feGaussianBlur
         id="feGaussianBlur1196"
         stdDeviation="7.3128662" />
    </filter>
    <filter
       height="2.5955343"
       y="-0.79776722"
       width="2.5261633"
       x="-0.76308167"
       id="filter1198"
       style="color-interpolation-filters:sRGB">
      <feGaussianBlur
         id="feGaussianBlur1200"
         stdDeviation="7.3128662" />
    </filter>
    <filter
       height="2.1700585"
       y="-0.5850293"
       width="3.8491685"
       x="-1.4245843"
       id="filter1202"
       style="color-interpolation-filters:sRGB">
      <feGaussianBlur
         id="feGaussianBlur1204"
         stdDeviation="7.3128662" />
    </filter>
    <filter
       height="2.1858702"
       y="-0.59293509"
       width="2.5476966"
       x="-0.7738483"
       id="filter1206"
       style="color-interpolation-filters:sRGB">
      <feGaussianBlur
         id="feGaussianBlur1208"
         stdDeviation="7.3128662" />
    </filter>
    <filter
       height="2.5955343"
       y="-0.79776722"
       width="2.7550879"
       x="-0.87754393"
       id="filter1210"
       style="color-interpolation-filters:sRGB">
      <feGaussianBlur
         id="feGaussianBlur1212"
         stdDeviation="7.3128662" />
    </filter>
    <filter
       height="2.2848375"
       y="-0.64241868"
       width="2.3336535"
       x="-0.66682673"
       id="filter1214"
       style="color-interpolation-filters:sRGB">
      <feGaussianBlur
         id="feGaussianBlur1216"
         stdDeviation="7.3128662" />
    </filter>
    <filter
       height="2.5955343"
       y="-0.79776722"
       width="2.5341678"
       x="-0.76708388"
       id="filter1218"
       style="color-interpolation-filters:sRGB">
      <feGaussianBlur
         id="feGaussianBlur1220"
         stdDeviation="7.3128662" />
    </filter>
    <filter
       height="2.5955343"
       y="-0.79776722"
       width="2.6433406"
       x="-0.82167035"
       id="filter1222"
       style="color-interpolation-filters:sRGB">
      <feGaussianBlur
         id="feGaussianBlur1224"
         stdDeviation="7.3128662" />
    </filter>
    <filter
       height="2.5955343"
       y="-0.79776722"
       width="2.8206306"
       x="-0.91031528"
       id="filter1226"
       style="color-interpolation-filters:sRGB">
      <feGaussianBlur
         id="feGaussianBlur1228"
         stdDeviation="7.3128662" />
    </filter>
    <filter
       height="2.5955343"
       y="-0.79776722"
       width="2.8206306"
       x="-0.91031528"
       id="filter1230"
       style="color-interpolation-filters:sRGB">
      <feGaussianBlur
         id="feGaussianBlur1232"
         stdDeviation="7.3128662" />
    </filter>
    <filter
       height="2.5955343"
       y="-0.79776722"
       width="2.7550879"
       x="-0.87754393"
       id="filter1234"
       style="color-interpolation-filters:sRGB">
      <feGaussianBlur
         id="feGaussianBlur1236"
         stdDeviation="7.3128662" />
    </filter>
    <filter
       height="2.5955343"
       y="-0.79776722"
       width="2.6588731"
       x="-0.8294366"
       id="filter1238"
       style="color-interpolation-filters:sRGB">
      <feGaussianBlur
         id="feGaussianBlur1240"
         stdDeviation="7.3128662" />
    </filter>
    <filter
       height="2.3156581"
       y="-0.65782905"
       width="2.3584273"
       x="-0.67921358"
       id="filter1242"
       style="color-interpolation-filters:sRGB">
      <feGaussianBlur
         id="feGaussianBlur1244"
         stdDeviation="7.3128662" />
    </filter>
    <filter
       height="2.1858702"
       y="-0.59293509"
       width="2.4315562"
       x="-0.71577811"
       id="filter1246"
       style="color-interpolation-filters:sRGB">
      <feGaussianBlur
         id="feGaussianBlur1248"
         stdDeviation="7.3128662" />
    </filter>
    <filter
       height="2.5955343"
       y="-0.79776722"
       width="2.6588731"
       x="-0.8294366"
       id="filter1250"
       style="color-interpolation-filters:sRGB">
      <feGaussianBlur
         id="feGaussianBlur1252"
         stdDeviation="7.3128662" />
    </filter>
    <filter
       height="2.5955343"
       y="-0.79776722"
       width="2.6433406"
       x="-0.82167035"
       id="filter1254"
       style="color-interpolation-filters:sRGB">
      <feGaussianBlur
         id="feGaussianBlur1256"
         stdDeviation="7.3128662" />
    </filter>
    <filter
       height="2.2924063"
       y="-0.64620322"
       width="1.8705792"
       x="-0.43528965"
       id="filter1258"
       style="color-interpolation-filters:sRGB">
      <feGaussianBlur
         id="feGaussianBlur1260"
         stdDeviation="7.3128662" />
    </filter>
    <filter
       height="2.1858702"
       y="-0.59293509"
       width="3.8216846"
       x="-1.4108424"
       id="filter1262"
       style="color-interpolation-filters:sRGB">
      <feGaussianBlur
         id="feGaussianBlur1264"
         stdDeviation="7.3128662" />
    </filter>
    <filter
       height="2.1858702"
       y="-0.59293509"
       width="3.8216846"
       x="-1.4108424"
       id="filter1266"
       style="color-interpolation-filters:sRGB">
      <feGaussianBlur
         id="feGaussianBlur1268"
         stdDeviation="7.3128662" />
    </filter>
    <filter
       height="2.5955343"
       y="-0.79776722"
       width="2.5261633"
       x="-0.76308167"
       id="filter1270"
       style="color-interpolation-filters:sRGB">
      <feGaussianBlur
         id="feGaussianBlur1272"
         stdDeviation="7.3128662" />
    </filter>
    <filter
       height="2.3733082"
       y="-0.68665409"
       width="3.5072684"
       x="-1.2536342"
       id="filter1274"
       style="color-interpolation-filters:sRGB">
      <feGaussianBlur
         id="feGaussianBlur1276"
         stdDeviation="7.3128662" />
    </filter>
    <filter
       height="2.5955343"
       y="-0.79776722"
       width="2.8206306"
       x="-0.91031528"
       id="filter1278"
       style="color-interpolation-filters:sRGB">
      <feGaussianBlur
         id="feGaussianBlur1280"
         stdDeviation="7.3128662" />
    </filter>
    <filter
       height="2.5955343"
       y="-0.79776722"
       width="2.5341678"
       x="-0.76708388"
       id="filter1282"
       style="color-interpolation-filters:sRGB">
      <feGaussianBlur
         id="feGaussianBlur1284"
         stdDeviation="7.3128662" />
    </filter>
    <filter
       height="2.329612"
       y="-0.66480601"
       width="3.5289452"
       x="-1.2644725"
       id="filter1286"
       style="color-interpolation-filters:sRGB">
      <feGaussianBlur
         id="feGaussianBlur1288"
         stdDeviation="7.3128662" />
    </filter>
    <radialGradient
       gradientUnits="userSpaceOnUse"
       gradientTransform="matrix(2.1026283,0,0,1.3141427,0,60.673695)"
       r="105.70104"
       fy="59.53125"
       fx="105.70104"
       cy="59.53125"
       cx="105.70104"
       id="radialGradient945"
       xlink:href="#linearGradient943" />
    <linearGradient
       xlink:href="#linearGradient1017"
       id="linearGradient1019"
       x1="444.19131"
       y1="139.3998"
       x2="444.5"
       y2="138.90625"
       gradientUnits="userSpaceOnUse" />
    <linearGradient
       id="linearGradient1017">
      <stop
         style="stop-color:#0090e6;stop-opacity:1;"
         offset="0"
         id="stop1013" />
      <stop
         style="stop-color:#0090e6;stop-opacity:0;"
         offset="1"
         id="stop1015" />
    </linearGradient>
    <linearGradient
       gradientUnits="userSpaceOnUse"
       y2="138.90625"
       x2="465.91299"
       y1="139.3998"
       x1="444.19131"
       id="linearGradient1019-3"
       xlink:href="#linearGradient1017"
       gradientTransform="translate(-1.4e-4,4.5e-4)" />
  </defs>
  <metadata
     id="metadata3354">
    <rdf:RDF>
      <cc:Work
         rdf:about="">
        <dc:format>image/svg+xml</dc:format>
        <dc:type
           rdf:resource="http://purl.org/dc/dcmitype/StillImage" />
        <dc:title></dc:title>
      </cc:Work>
    </rdf:RDF>
  </metadata>
  <g
     id="flowRoot985"
     style="font-style:normal;font-weight:normal;font-size:40px;line-height:1.25;font-family:sans-serif;letter-spacing:0px;word-spacing:0px;fill:#000000;fill-opacity:1;stroke:none"
     transform="matrix(0.26458333,0,0,0.26458333,-483.00456,1.5398)" />
  <g
     id="flowRoot993"
     style="font-style:normal;font-weight:normal;font-size:40px;line-height:1.25;font-family:sans-serif;letter-spacing:0px;word-spacing:0px;fill:#000000;fill-opacity:1;stroke:none"
     transform="matrix(0.26458333,0,0,0.26458333,-483.00456,1.5398)" />
  <path
     style="opacity:1;fill:url(#linearGradient1019-3);fill-opacity:1;stroke:none;stroke-width:9.70262432;stroke-miterlimit:4;stroke-dasharray:none;paint-order:stroke markers fill"
     d="M 286.33187,0 H 0 V 277.8125 H 444.49995 V 132.71902 Z"
     id="path1098" />
  <g
     id="flowRoot1329"
     style="font-style:normal;font-weight:normal;font-size:40px;line-height:1.25;font-family:sans-serif;letter-spacing:0px;word-spacing:0px;fill:#ffffff;fill-opacity:1;stroke:none"
     transform="matrix(1.1279703,0,0,1.3283866,-557.21951,-331.33622)"
     aria-label="Install WordPress in Debian Buster">
    <path
       id="path1341"
       style="font-style:normal;font-variant:normal;font-weight:bold;font-stretch:normal;font-family:'EB Garamond';-inkscape-font-specification:'EB Garamond Bold';text-align:center;text-anchor:middle;fill:#ffffff"
       d="m 634.58851,313.22613 q -0.32,0 -0.56,-0.12 -0.24,-0.16 -0.24,-0.44 0,-0.64 0.84,-0.84 1.52,-0.32 2.12,-0.8 0.6,-0.52 0.6,-1.8 v -18.16 q 0,-1.28 -0.52,-1.8 -0.52,-0.56 -2.12,-0.92 -0.84,-0.2 -0.84,-0.84 0,-0.28 0.24,-0.44 0.24,-0.16 0.56,-0.16 0.92,0 1.92,0.04 1.04,0.04 2,0.12 1,0.04 1.84,0.04 0.8,0 1.8,-0.04 1.04,-0.04 2.08,-0.08 1.08,-0.04 1.96,-0.04 0.36,0 0.56,0.16 0.2,0.12 0.2,0.4 0,0.4 -0.24,0.56 -0.2,0.16 -0.64,0.28 -1.6,0.44 -2.12,1 -0.52,0.52 -0.52,1.76 v 18.08 q 0,1.16 0.56,1.72 0.6,0.52 2.16,0.92 0.4,0.12 0.6,0.28 0.24,0.16 0.24,0.52 0,0.28 -0.2,0.44 -0.16,0.16 -0.52,0.16 -0.88,0 -1.96,-0.08 -1.08,-0.04 -2.12,-0.08 -1.04,-0.04 -1.84,-0.04 -0.84,0 -1.84,0.04 -1,0.04 -2.04,0.08 -1.04,0.08 -1.96,0.08 z" />
    <path
       id="path1343"
       style="font-style:normal;font-variant:normal;font-weight:bold;font-stretch:normal;font-family:'EB Garamond';-inkscape-font-specification:'EB Garamond Bold';text-align:center;text-anchor:middle;fill:#ffffff"
       d="m 649.34844,313.22613 q -0.28,0 -0.56,-0.12 -0.24,-0.16 -0.24,-0.44 0,-0.32 0.28,-0.48 0.28,-0.2 0.64,-0.32 0.6,-0.2 1.04,-0.44 0.48,-0.28 0.48,-1.08 v -9.16 q 0,-0.88 -0.28,-1.48 -0.24,-0.6 -0.96,-0.76 -0.16,-0.04 -0.32,-0.2 -0.12,-0.16 -0.12,-0.52 0,-0.56 0.4,-0.68 1.36,-0.32 2.96,-0.84 1.64,-0.56 2.8,-1.16 0.16,-0.08 0.36,-0.2 0.2,-0.12 0.36,-0.12 0.24,0 0.28,0.16 0.08,0.12 0.08,0.32 0,0.32 -0.12,1.04 -0.08,0.68 -0.08,1.24 0,0.16 0,0.36 0.04,0.2 0.08,0.24 1.36,-1.32 2.76,-2.04 1.4,-0.72 3.24,-0.72 2.08,0 3.48,1.56 1.44,1.52 1.44,4.16 v 8.8 q 0,0.8 0.44,1.08 0.48,0.24 1.08,0.44 0.32,0.12 0.56,0.32 0.24,0.16 0.24,0.48 0,0.28 -0.24,0.44 -0.2,0.12 -0.44,0.12 -0.8,0 -1.52,-0.08 -0.68,-0.04 -1.36,-0.08 -0.64,-0.04 -1.36,-0.04 -0.68,0 -1.36,0.04 -0.68,0.04 -1.36,0.08 -0.68,0.08 -1.48,0.08 -0.24,0 -0.48,-0.12 -0.2,-0.16 -0.2,-0.44 0,-0.32 0.24,-0.48 0.24,-0.2 0.56,-0.32 0.6,-0.2 1,-0.44 0.4,-0.28 0.4,-1.08 v -7.96 q 0,-1.52 -0.72,-2.36 -0.68,-0.88 -1.84,-0.92 -0.88,0 -1.56,0.28 -0.68,0.28 -1.4,0.76 -0.16,0.16 -0.24,0.36 -0.08,0.2 -0.08,0.4 v 9.44 q 0,0.8 0.44,1.08 0.44,0.24 1,0.44 0.8,0.24 0.8,0.8 0,0.24 -0.2,0.4 -0.2,0.16 -0.48,0.16 -0.8,0 -1.48,-0.08 -0.68,-0.04 -1.28,-0.08 -0.6,-0.04 -1.32,-0.04 -0.68,0 -1.4,0.04 -0.68,0.04 -1.44,0.08 -0.72,0.08 -1.52,0.08 z" />
    <path
       id="path1345"
       style="font-style:normal;font-variant:normal;font-weight:bold;font-stretch:normal;font-family:'EB Garamond';-inkscape-font-specification:'EB Garamond Bold';text-align:center;text-anchor:middle;fill:#ffffff"
       d="m 676.94844,313.66613 q -1.32,0 -2.56,-0.32 -1.24,-0.32 -2.24,-1.04 -0.36,-0.6 -0.52,-1.88 -0.16,-1.28 -0.12,-2.68 0,-0.48 0.8,-0.48 0.32,0 0.56,0.2 0.24,0.2 0.28,0.4 0.76,1.68 1.76,2.88 1,1.16 2.4,1.16 1.08,0 1.64,-0.64 0.56,-0.68 0.56,-1.52 0,-1.04 -0.84,-1.72 -0.8,-0.72 -1.96,-1.32 -1.16,-0.6 -2.2,-1.36 -1.04,-0.76 -1.72,-1.8 -0.64,-1.08 -0.64,-2.56 0,-1.56 0.84,-2.72 0.88,-1.16 2.32,-1.8 1.48,-0.68 3.28,-0.68 1.32,0 2.44,0.32 1.12,0.28 1.52,0.56 0.32,0.4 0.52,1.52 0.2,1.08 0.2,2.4 0,0.44 -0.72,0.44 -0.28,0 -0.6,-0.2 -0.28,-0.2 -0.36,-0.4 -0.52,-1.56 -1.36,-2.32 -0.8,-0.8 -1.8,-0.8 -0.88,0 -1.6,0.56 -0.72,0.56 -0.72,1.52 0,0.84 0.76,1.52 0.8,0.64 1.96,1.28 2.6,1.36 3.72,2.64 1.12,1.24 1.12,3.32 0,2.6 -1.72,4.08 -1.68,1.44 -5,1.44 z" />
    <path
       id="path1347"
       style="font-style:normal;font-variant:normal;font-weight:bold;font-stretch:normal;font-family:'EB Garamond';-inkscape-font-specification:'EB Garamond Bold';text-align:center;text-anchor:middle;fill:#ffffff"
       d="m 693.50839,313.66613 q -2.64,0 -3.96,-1.32 -1.32,-1.36 -1.32,-3.8 v -9.2 q 0,-0.36 -0.28,-0.52 -0.24,-0.16 -0.96,-0.2 h -0.52 q -0.28,0 -0.48,-0.44 -0.16,-0.48 -0.16,-0.84 0,-0.08 0.04,-0.2 0.08,-0.16 0.2,-0.2 0.96,-0.36 2.04,-1.08 1.12,-0.76 2.12,-1.6 1.04,-0.84 1.68,-1.4 0.28,-0.2 0.48,-0.36 0.2,-0.16 0.52,-0.16 0.36,0 0.52,0.16 0.16,0.12 0.08,0.64 l -0.24,2.36 q -0.04,0.48 0.2,0.68 0.28,0.16 0.76,0.16 h 4.76 q 0.12,0 0.24,0.28 0.12,0.28 0.12,0.52 0,0.56 -0.16,1.08 -0.16,0.52 -0.36,0.52 h -3.72 q -0.92,0 -1.28,0.24 -0.32,0.2 -0.32,0.76 v 7.56 q 0,1.84 0.68,2.76 0.72,0.88 1.88,0.88 1.16,0 1.68,-0.24 0.56,-0.24 1,-0.4 0.16,-0.08 0.24,-0.08 0.2,0 0.32,0.24 0.12,0.24 0.12,0.56 0,0.24 -0.84,0.88 -0.84,0.64 -2.2,1.2 -1.32,0.56 -2.88,0.56 z" />
    <path
       id="path1349"
       style="font-style:normal;font-variant:normal;font-weight:bold;font-stretch:normal;font-family:'EB Garamond';-inkscape-font-specification:'EB Garamond Bold';text-align:center;text-anchor:middle;fill:#ffffff"
       d="m 704.90831,313.66613 q -1.08,0 -2,-0.52 -0.92,-0.52 -1.48,-1.36 -0.52,-0.84 -0.52,-1.84 0,-1.36 0.84,-2.28 0.88,-0.92 2.56,-1.64 l 3.56,-1.56 q 0.8,-0.36 0.96,-0.64 0.2,-0.28 0.2,-1.04 l 0.04,-2.28 q 0.04,-1.12 -0.4,-1.76 -0.44,-0.68 -1.32,-0.68 -0.52,0 -1.04,0.24 -0.52,0.2 -0.8,0.48 -0.12,0.16 -0.2,0.4 -0.04,0.2 -0.04,0.44 0,0.24 0.04,0.6 0.04,0.32 0.04,0.56 0,0.24 -0.64,0.64 -0.64,0.36 -1.48,0.68 -0.84,0.28 -1.44,0.28 -0.28,0 -0.52,-0.24 -0.2,-0.24 -0.2,-0.6 0,-0.64 0.44,-1.24 0.44,-0.64 1.44,-1.44 1.04,-0.88 2.28,-1.56 1.24,-0.68 2.44,-1.08 1.24,-0.4 2.08,-0.4 2.16,0 3.44,1.4 1.28,1.36 1.2,3.64 l -0.2,8.08 q -0.04,0.92 0.32,1.56 0.36,0.64 0.88,0.64 0.76,0 1.32,-0.52 0.12,-0.12 0.24,-0.12 0.2,0 0.32,0.12 0.16,0.12 0.16,0.32 0,0.48 -0.72,1.24 -0.76,0.72 -1.6,1.08 -0.84,0.4 -1.76,0.4 -2.24,0 -3.72,-2.28 h -0.08 q -1.32,1.2 -2.4,1.72 -1.04,0.56 -2.24,0.56 z m 2.4,-2.6 q 0.44,0 0.72,-0.12 0.28,-0.16 0.56,-0.48 0.12,-0.16 0.2,-0.4 0.08,-0.28 0.08,-0.64 l 0.12,-2.88 q 0,-0.4 -0.12,-0.52 -0.12,-0.12 -0.28,-0.12 -0.08,0 -0.2,0.04 -0.12,0.04 -0.28,0.12 -1.16,0.56 -1.72,1.16 -0.56,0.56 -0.56,1.84 0,1.16 0.48,1.6 0.48,0.4 1,0.4 z" />
    <path
       id="path1351"
       style="font-style:normal;font-variant:normal;font-weight:bold;font-stretch:normal;font-family:'EB Garamond';-inkscape-font-specification:'EB Garamond Bold';text-align:center;text-anchor:middle;fill:#ffffff"
       d="m 718.7083,313.22613 q -0.36,0 -0.6,-0.12 -0.2,-0.16 -0.2,-0.44 0,-0.32 0.24,-0.48 0.24,-0.2 0.68,-0.32 0.6,-0.2 1.04,-0.44 0.48,-0.24 0.48,-1.08 v -19.24 q 0,-1.08 -0.32,-1.88 -0.28,-0.8 -1.28,-1 -0.4,-0.08 -0.4,-0.6 0,-0.52 0.36,-0.6 1.04,-0.2 2.24,-0.56 1.2,-0.4 2.28,-0.8 1.08,-0.44 1.68,-0.64 0.32,-0.12 0.52,-0.12 0.24,0 0.32,0.16 0.08,0.12 0.08,0.32 0,0.28 -0.12,1.04 -0.08,0.76 -0.12,1.72 v 22.12 q 0,0.88 0.44,1.12 0.48,0.2 1.08,0.4 0.44,0.16 0.68,0.32 0.24,0.16 0.24,0.48 0,0.28 -0.24,0.44 -0.2,0.12 -0.56,0.12 -0.76,0 -1.52,-0.04 -0.72,-0.04 -1.44,-0.04 -0.68,-0.04 -1.4,-0.04 -0.68,0 -1.36,0.04 -0.64,0.04 -1.32,0.08 -0.68,0.08 -1.48,0.08 z" />
    <path
       id="path1353"
       style="font-style:normal;font-variant:normal;font-weight:bold;font-stretch:normal;font-family:'EB Garamond';-inkscape-font-specification:'EB Garamond Bold';text-align:center;text-anchor:middle;fill:#ffffff"
       d="m 730.1083,313.22613 q -0.36,0 -0.6,-0.12 -0.2,-0.16 -0.2,-0.44 0,-0.32 0.24,-0.48 0.24,-0.2 0.68,-0.32 0.6,-0.2 1.04,-0.44 0.48,-0.24 0.48,-1.08 v -19.24 q 0,-1.08 -0.32,-1.88 -0.28,-0.8 -1.28,-1 -0.4,-0.08 -0.4,-0.6 0,-0.52 0.36,-0.6 1.04,-0.2 2.24,-0.56 1.2,-0.4 2.28,-0.8 1.08,-0.44 1.68,-0.64 0.32,-0.12 0.52,-0.12 0.24,0 0.32,0.16 0.08,0.12 0.08,0.32 0,0.28 -0.12,1.04 -0.08,0.76 -0.12,1.72 v 22.12 q 0,0.88 0.44,1.12 0.48,0.2 1.08,0.4 0.44,0.16 0.68,0.32 0.24,0.16 0.24,0.48 0,0.28 -0.24,0.44 -0.2,0.12 -0.56,0.12 -0.76,0 -1.52,-0.04 -0.72,-0.04 -1.44,-0.04 -0.68,-0.04 -1.4,-0.04 -0.68,0 -1.36,0.04 -0.64,0.04 -1.32,0.08 -0.68,0.08 -1.48,0.08 z" />
    <path
       id="path1355"
       style="font-style:normal;font-variant:normal;font-weight:bold;font-stretch:normal;font-family:'EB Garamond';-inkscape-font-specification:'EB Garamond Bold';text-align:center;text-anchor:middle;fill:#ffffff"
       d="m 589.28869,364.26142 q -0.32,0 -0.48,-0.32 -0.16,-0.32 -0.36,-0.72 l -10.08,-21.8 q -0.44,-0.96 -1,-1.6 -0.56,-0.68 -1.72,-0.96 -0.4,-0.16 -0.8,-0.32 -0.36,-0.16 -0.36,-0.56 0,-0.28 0.36,-0.4 0.36,-0.16 0.68,-0.16 1.2,0 2.68,0.08 1.52,0.08 2.64,0.08 1.2,0 2.44,-0.08 1.24,-0.08 2.44,-0.08 0.52,0 0.84,0.16 0.36,0.12 0.36,0.4 0,0.36 -0.32,0.56 -0.32,0.16 -0.96,0.28 -0.64,0.16 -0.76,0.48 -0.12,0.32 -0.12,0.76 0,0.24 0.08,0.64 0.08,0.4 0.12,0.52 0.8,1.88 1.6,3.72 0.8,1.8 1.56,3.64 0.76,1.8 1.56,3.64 0.8,1.8 1.56,3.72 0.2,0.44 0.32,0.48 0.12,0.04 0.36,-0.44 l 2.2,-4.16 q 0.12,-0.24 0.16,-0.4 0.08,-0.2 0.08,-0.36 0,-0.16 -0.08,-0.32 -0.04,-0.2 -0.12,-0.44 l -4.12,-8.76 q -0.4,-1 -1.2,-1.68 -0.8,-0.72 -2,-1 -0.4,-0.16 -0.68,-0.32 -0.24,-0.16 -0.24,-0.56 0,-0.28 0.24,-0.4 0.24,-0.16 0.56,-0.16 0.8,0 1.84,0.04 1.04,0.04 2.04,0.08 1.04,0.04 1.8,0.04 1.16,0 2.36,-0.08 1.24,-0.08 2.44,-0.08 0.6,0 0.96,0.16 0.36,0.12 0.36,0.4 0,0.24 -0.2,0.44 -0.2,0.16 -0.56,0.28 -0.32,0.12 -0.68,0.28 -0.72,0.16 -0.84,0.56 -0.08,0.4 0.08,0.88 0.16,0.36 0.36,1.04 0.24,0.64 0.52,1.4 0.32,0.72 0.56,1.4 0.28,0.68 0.44,1.08 0.28,0.6 0.4,0.48 0.16,-0.12 0.32,-0.48 0.28,-0.56 0.64,-1.44 0.36,-0.92 0.68,-1.8 0.32,-0.88 0.48,-1.32 0.2,-0.32 0.2,-0.76 0,-0.6 -0.52,-0.84 -0.48,-0.28 -0.96,-0.48 -0.48,-0.24 -0.48,-0.68 0,-0.24 0.12,-0.4 0.16,-0.16 0.8,-0.16 1.08,0 1.4,0.08 0.36,0.04 0.92,0.04 0.64,-0.04 1.2,-0.12 0.56,-0.08 1.72,-0.08 0.48,0 0.84,0.16 0.36,0.12 0.36,0.48 0,0.4 -0.36,0.56 -0.32,0.12 -0.72,0.24 -1.24,0.32 -1.8,0.96 -0.56,0.64 -1.04,1.56 -0.4,0.76 -0.88,1.72 -0.48,0.96 -0.96,1.96 -0.44,1 -0.88,1.88 -0.2,0.48 -0.16,1 0.04,0.48 0.24,1 l 3.08,7.08 q 0.12,0.36 0.24,0.28 0.16,-0.12 0.24,-0.36 1.52,-3.4 3,-7.08 1.48,-3.68 2.64,-6.8 0.4,-1 0.44,-1.36 0.08,-0.4 0.04,-0.6 -0.04,-0.44 -0.32,-0.76 -0.28,-0.32 -0.8,-0.44 -0.4,-0.12 -0.84,-0.32 -0.4,-0.2 -0.4,-0.56 0,-0.28 0.36,-0.4 0.36,-0.12 0.8,-0.12 1.2,0 1.68,0.08 0.52,0.04 1.12,0 0.64,-0.04 1.32,-0.12 0.68,-0.08 1.8,-0.08 0.56,0 0.96,0.12 0.4,0.12 0.4,0.52 0,0.36 -0.44,0.52 -0.4,0.12 -0.8,0.28 -0.84,0.2 -1.4,0.64 -0.56,0.44 -0.92,1 -0.36,0.52 -0.64,1.16 l -9.32,21.84 q -0.12,0.32 -0.32,0.52 -0.2,0.2 -0.48,0.2 -0.32,0 -0.56,-0.2 -0.2,-0.16 -0.4,-0.56 -0.44,-1 -1.08,-2.32 -0.64,-1.32 -1.48,-3.12 -0.84,-1.84 -1.96,-4.32 -0.12,-0.28 -0.28,-0.24 -0.16,0.04 -0.28,0.28 -0.8,1.6 -1.64,3.2 -0.84,1.6 -1.68,3.24 -0.84,1.6 -1.68,3.2 -0.16,0.4 -0.36,0.68 -0.16,0.28 -0.52,0.28 z" />
    <path
       id="path1357"
       style="font-style:normal;font-variant:normal;font-weight:bold;font-stretch:normal;font-family:'EB Garamond';-inkscape-font-specification:'EB Garamond Bold';text-align:center;text-anchor:middle;fill:#ffffff"
       d="m 620.12858,364.14142 q -2.4,0 -4.32,-1.08 -1.92,-1.08 -3.08,-2.96 -1.12,-1.92 -1.12,-4.32 0,-1.92 0.72,-3.64 0.72,-1.72 2,-3.04 1.28,-1.32 3,-2.08 1.72,-0.76 3.68,-0.76 2.48,0 4.48,1.16 2,1.16 3.16,3.08 1.2,1.88 1.2,4.12 0,2.56 -1.12,4.76 -1.08,2.16 -3.24,3.48 -2.12,1.28 -5.36,1.28 z m 0.8,-1.76 q 0.84,0 1.44,-0.32 0.64,-0.36 1.04,-1.04 0.48,-0.8 0.64,-2.16 0.2,-1.4 0.2,-3.28 0,-2.16 -0.48,-3.84 -0.48,-1.72 -1.36,-2.72 -0.84,-1 -2,-1 -0.64,0 -1.16,0.24 -0.52,0.2 -0.92,0.6 -0.68,0.8 -0.96,2.28 -0.24,1.48 -0.24,3.64 0,1.92 0.48,3.68 0.52,1.72 1.36,2.84 0.88,1.08 1.96,1.08 z" />
    <path
       id="path1359"
       style="font-style:normal;font-variant:normal;font-weight:bold;font-stretch:normal;font-family:'EB Garamond';-inkscape-font-specification:'EB Garamond Bold';text-align:center;text-anchor:middle;fill:#ffffff"
       d="m 632.44852,363.70142 q -0.32,0 -0.56,-0.12 -0.24,-0.16 -0.24,-0.44 0,-0.32 0.24,-0.48 0.24,-0.2 0.68,-0.32 0.88,-0.28 1.16,-0.6 0.32,-0.32 0.32,-0.92 v -9.2 q 0,-0.84 -0.24,-1.36 -0.2,-0.56 -0.96,-0.76 -0.2,-0.08 -0.36,-0.2 -0.16,-0.16 -0.16,-0.52 0,-0.56 0.48,-0.68 1.28,-0.32 2.8,-0.84 1.56,-0.52 2.64,-1.04 0.2,-0.16 0.48,-0.28 0.32,-0.16 0.44,-0.16 0.36,0 0.36,0.44 0,0.2 -0.04,0.84 0,0.6 -0.04,1.24 0,0.64 -0.04,1.08 0,0.36 0.16,0.36 0.6,-0.84 1.4,-1.64 0.84,-0.8 1.8,-1.32 0.96,-0.52 1.88,-0.52 1.4,0 1.96,0.52 0.6,0.52 0.6,1.36 0,0.6 -0.36,1.32 -0.32,0.72 -0.84,1.24 -0.52,0.52 -1.12,0.52 -0.36,0 -0.76,-0.16 -0.4,-0.2 -0.8,-0.4 -0.4,-0.16 -0.8,-0.32 -0.36,-0.2 -0.68,-0.2 -1.04,0 -1.8,0.76 -0.76,0.76 -0.76,3.04 v 6.52 q 0,0.8 0.48,1.2 0.52,0.36 1.64,0.68 0.44,0.12 0.64,0.32 0.24,0.16 0.24,0.48 0,0.56 -0.68,0.56 -1.2,0 -2.48,-0.12 -1.28,-0.08 -2.32,-0.08 -0.68,0 -1.4,0.04 -0.68,0.04 -1.44,0.08 -0.72,0.08 -1.52,0.08 z" />
    <path
       id="path1361"
       style="font-style:normal;font-variant:normal;font-weight:bold;font-stretch:normal;font-family:'EB Garamond';-inkscape-font-specification:'EB Garamond Bold';text-align:center;text-anchor:middle;fill:#ffffff"
       d="m 661.16846,364.34142 q -0.12,0 -0.36,-0.28 -0.2,-0.24 -0.2,-0.4 0.08,-0.6 0.12,-1.12 0.08,-0.56 0.08,-1 v -0.24 q -0.8,1.24 -2.24,2.04 -1.4,0.8 -3.04,0.8 -2.24,0 -4,-1.12 -1.72,-1.12 -2.72,-3.04 -1,-1.92 -1,-4.2 0,-2.72 1.2,-4.84 1.2,-2.12 3.36,-3.32 2.16,-1.24 5,-1.24 0.6,0 1.24,0.12 0.68,0.08 1.24,0.24 0.56,0.12 0.52,0.12 0.16,0 0.16,-0.52 v -4.76 q 0,-1.44 -0.36,-2.08 -0.36,-0.64 -1.2,-0.8 -0.48,-0.12 -0.48,-0.6 0,-0.52 0.44,-0.6 1.48,-0.32 3.04,-0.8 1.6,-0.52 2.6,-0.96 0.52,-0.24 0.72,-0.28 0.2,-0.08 0.24,-0.08 0.44,0 0.44,0.48 0,-0.12 -0.04,0.32 -0.04,0.4 -0.08,1.08 -0.04,0.68 -0.08,1.36 l -0.2,20.16 q 0,1.36 0.2,1.96 0.2,0.6 0.72,0.6 0.2,0 0.4,-0.04 0.24,-0.04 1.16,-0.08 0.56,-0.04 0.56,0.4 0,0.32 -0.24,0.68 -0.24,0.36 -0.44,0.36 -1.44,0.16 -3.04,0.52 -1.56,0.36 -3.04,0.92 -0.24,0.12 -0.4,0.16 -0.16,0.08 -0.28,0.08 z m -3.6,-2.92 q 0.6,0 1.48,-0.32 0.92,-0.32 1.48,-0.92 l -0.04,-8.84 q 0,-0.72 -0.56,-1.4 -0.52,-0.72 -1.36,-1.2 -0.8,-0.48 -1.6,-0.48 -0.96,0 -1.8,0.8 -0.8,0.76 -1.32,2.2 -0.48,1.4 -0.48,3.44 0,1.64 0.32,2.88 0.36,1.24 0.96,2.12 0.6,0.84 1.36,1.28 0.76,0.44 1.56,0.44 z" />
    <path
       id="path1363"
       style="font-style:normal;font-variant:normal;font-weight:bold;font-stretch:normal;font-family:'EB Garamond';-inkscape-font-specification:'EB Garamond Bold';text-align:center;text-anchor:middle;fill:#ffffff"
       d="m 670.44844,363.70142 q -0.32,0 -0.56,-0.12 -0.24,-0.16 -0.24,-0.44 0,-0.64 0.84,-0.84 1.52,-0.32 2.08,-0.8 0.6,-0.52 0.6,-1.84 v -17.92 q 0,-1.36 -0.48,-1.96 -0.48,-0.64 -1.92,-0.96 -0.52,-0.12 -0.72,-0.32 -0.2,-0.24 -0.2,-0.52 0,-0.24 0.24,-0.4 0.24,-0.2 0.64,-0.2 0.92,0 1.84,0.04 0.96,0.04 1.84,0.12 0.92,0.04 1.72,0.04 0.96,0 1.68,-0.08 0.76,-0.12 1.64,-0.2 0.92,-0.12 2.2,-0.12 4.88,0 7.72,2.08 2.88,2.04 2.88,5.64 0,2.52 -1.08,4.64 -1.04,2.12 -3.2,3.44 -2.12,1.28 -5.4,1.28 -1.04,0 -1.6,-0.32 -0.52,-0.32 -0.52,-0.76 0,-0.28 0.24,-0.44 0.28,-0.2 0.48,-0.2 0.44,0 0.76,0.12 0.32,0.08 0.88,0.08 1.68,0 2.52,-1.88 0.88,-1.88 0.88,-4.96 0,-3.68 -1.2,-5.32 -1.2,-1.64 -3.36,-1.64 -1.12,0 -1.72,0.52 -0.56,0.48 -0.56,1.52 l -0.04,18.6 q 0,1.28 0.68,1.84 0.68,0.52 2.36,0.88 0.44,0.08 0.64,0.28 0.24,0.16 0.24,0.52 0,0.28 -0.2,0.44 -0.2,0.16 -0.56,0.16 -0.88,0 -2.04,-0.08 -1.12,-0.04 -2.24,-0.08 -1.12,-0.04 -1.92,-0.04 -0.84,0 -1.84,0.04 -1,0.04 -2.08,0.08 -1.04,0.08 -1.92,0.08 z" />
    <path
       id="path1365"
       style="font-style:normal;font-variant:normal;font-weight:bold;font-stretch:normal;font-family:'EB Garamond';-inkscape-font-specification:'EB Garamond Bold';text-align:center;text-anchor:middle;fill:#ffffff"
       d="m 694.92837,363.70142 q -0.32,0 -0.56,-0.12 -0.24,-0.16 -0.24,-0.44 0,-0.32 0.24,-0.48 0.24,-0.2 0.68,-0.32 0.88,-0.28 1.16,-0.6 0.32,-0.32 0.32,-0.92 v -9.2 q 0,-0.84 -0.24,-1.36 -0.2,-0.56 -0.96,-0.76 -0.2,-0.08 -0.36,-0.2 -0.16,-0.16 -0.16,-0.52 0,-0.56 0.48,-0.68 1.28,-0.32 2.8,-0.84 1.56,-0.52 2.64,-1.04 0.2,-0.16 0.48,-0.28 0.32,-0.16 0.44,-0.16 0.36,0 0.36,0.44 0,0.2 -0.04,0.84 0,0.6 -0.04,1.24 0,0.64 -0.04,1.08 0,0.36 0.16,0.36 0.6,-0.84 1.4,-1.64 0.84,-0.8 1.8,-1.32 0.96,-0.52 1.88,-0.52 1.4,0 1.96,0.52 0.6,0.52 0.6,1.36 0,0.6 -0.36,1.32 -0.32,0.72 -0.84,1.24 -0.52,0.52 -1.12,0.52 -0.36,0 -0.76,-0.16 -0.4,-0.2 -0.8,-0.4 -0.4,-0.16 -0.8,-0.32 -0.36,-0.2 -0.68,-0.2 -1.04,0 -1.8,0.76 -0.76,0.76 -0.76,3.04 v 6.52 q 0,0.8 0.48,1.2 0.52,0.36 1.64,0.68 0.44,0.12 0.64,0.32 0.24,0.16 0.24,0.48 0,0.56 -0.68,0.56 -1.2,0 -2.48,-0.12 -1.28,-0.08 -2.32,-0.08 -0.68,0 -1.4,0.04 -0.68,0.04 -1.44,0.08 -0.72,0.08 -1.52,0.08 z" />
    <path
       id="path1367"
       style="font-style:normal;font-variant:normal;font-weight:bold;font-stretch:normal;font-family:'EB Garamond';-inkscape-font-specification:'EB Garamond Bold';text-align:center;text-anchor:middle;fill:#ffffff"
       d="m 717.76832,364.14142 q -2.16,0 -3.88,-1.12 -1.68,-1.16 -2.68,-3.12 -0.96,-2 -0.96,-4.52 0,-2.52 1.16,-4.56 1.16,-2.08 3.16,-3.28 2,-1.24 4.4,-1.24 1.72,0 3.08,0.76 1.36,0.72 2.16,1.96 0.84,1.24 0.84,2.8 0,1.52 -1.24,1.52 h -8 q -0.56,0 -0.84,0.32 -0.24,0.32 -0.24,1.08 0,1.52 0.68,2.8 0.68,1.24 1.84,1.96 1.16,0.72 2.68,0.72 1.16,0 2.12,-0.44 1,-0.44 1.96,-1.2 0.16,-0.12 0.28,-0.2 0.16,-0.12 0.28,-0.12 0.4,0 0.4,0.52 0,0.44 -0.32,1.2 -0.4,1 -1.36,2 -0.92,0.96 -2.32,1.56 -1.4,0.6 -3.2,0.6 z m -1.96,-12.48 h 2.4 q 1.12,0 1.56,-0.04 0.44,-0.04 0.8,-0.16 0.2,-0.08 0.32,-0.4 0.12,-0.32 0.12,-0.72 0,-1.08 -0.76,-1.76 -0.72,-0.68 -1.8,-0.68 -0.84,0 -1.6,0.48 -0.72,0.44 -1.2,1.2 -0.44,0.72 -0.4,1.52 0,0.56 0.56,0.56 z" />
    <path
       id="path1369"
       style="font-style:normal;font-variant:normal;font-weight:bold;font-stretch:normal;font-family:'EB Garamond';-inkscape-font-specification:'EB Garamond Bold';text-align:center;text-anchor:middle;fill:#ffffff"
       d="m 732.60831,364.14142 q -1.32,0 -2.56,-0.32 -1.24,-0.32 -2.24,-1.04 -0.36,-0.6 -0.52,-1.88 -0.16,-1.28 -0.12,-2.68 0,-0.48 0.8,-0.48 0.32,0 0.56,0.2 0.24,0.2 0.28,0.4 0.76,1.68 1.76,2.88 1,1.16 2.4,1.16 1.08,0 1.64,-0.64 0.56,-0.68 0.56,-1.52 0,-1.04 -0.84,-1.72 -0.8,-0.72 -1.96,-1.32 -1.16,-0.6 -2.2,-1.36 -1.04,-0.76 -1.72,-1.8 -0.64,-1.08 -0.64,-2.56 0,-1.56 0.84,-2.72 0.88,-1.16 2.32,-1.8 1.48,-0.68 3.28,-0.68 1.32,0 2.44,0.32 1.12,0.28 1.52,0.56 0.32,0.4 0.52,1.52 0.2,1.08 0.2,2.4 0,0.44 -0.72,0.44 -0.28,0 -0.6,-0.2 -0.28,-0.2 -0.36,-0.4 -0.52,-1.56 -1.36,-2.32 -0.8,-0.8 -1.8,-0.8 -0.88,0 -1.6,0.56 -0.72,0.56 -0.72,1.52 0,0.84 0.76,1.52 0.8,0.64 1.96,1.28 2.6,1.36 3.72,2.64 1.12,1.24 1.12,3.32 0,2.6 -1.72,4.08 -1.68,1.44 -5,1.44 z" />
    <path
       id="path1371"
       style="font-style:normal;font-variant:normal;font-weight:bold;font-stretch:normal;font-family:'EB Garamond';-inkscape-font-specification:'EB Garamond Bold';text-align:center;text-anchor:middle;fill:#ffffff"
       d="m 747.00826,364.14142 q -1.32,0 -2.56,-0.32 -1.24,-0.32 -2.24,-1.04 -0.36,-0.6 -0.52,-1.88 -0.16,-1.28 -0.12,-2.68 0,-0.48 0.8,-0.48 0.32,0 0.56,0.2 0.24,0.2 0.28,0.4 0.76,1.68 1.76,2.88 1,1.16 2.4,1.16 1.08,0 1.64,-0.64 0.56,-0.68 0.56,-1.52 0,-1.04 -0.84,-1.72 -0.8,-0.72 -1.96,-1.32 -1.16,-0.6 -2.2,-1.36 -1.04,-0.76 -1.72,-1.8 -0.64,-1.08 -0.64,-2.56 0,-1.56 0.84,-2.72 0.88,-1.16 2.32,-1.8 1.48,-0.68 3.28,-0.68 1.32,0 2.44,0.32 1.12,0.28 1.52,0.56 0.32,0.4 0.52,1.52 0.2,1.08 0.2,2.4 0,0.44 -0.72,0.44 -0.28,0 -0.6,-0.2 -0.28,-0.2 -0.36,-0.4 -0.52,-1.56 -1.36,-2.32 -0.8,-0.8 -1.8,-0.8 -0.88,0 -1.6,0.56 -0.72,0.56 -0.72,1.52 0,0.84 0.76,1.52 0.8,0.64 1.96,1.28 2.6,1.36 3.72,2.64 1.12,1.24 1.12,3.32 0,2.6 -1.72,4.08 -1.68,1.44 -5,1.44 z" />
    <path
       id="path1373"
       style="font-style:normal;font-variant:normal;font-weight:bold;font-stretch:normal;font-family:'EB Garamond';-inkscape-font-specification:'EB Garamond Bold';text-align:center;text-anchor:middle;fill:#ffffff"
       d="m 765.76819,363.70142 q -0.24,0 -0.44,-0.12 -0.2,-0.16 -0.2,-0.4 0,-0.32 0.2,-0.52 0.2,-0.2 0.52,-0.28 1.04,-0.24 1.44,-0.52 0.44,-0.32 0.44,-0.96 v -8.64 q 0,-1.36 -0.44,-1.92 -0.4,-0.6 -1.28,-0.72 -0.24,-0.04 -0.36,-0.24 -0.12,-0.2 -0.12,-0.48 0,-0.6 0.44,-0.68 2.08,-0.4 3.68,-1.12 1.64,-0.72 2.52,-1.12 0.64,-0.32 0.8,-0.32 0.52,0 0.52,0.48 -0.04,0.68 -0.2,1.72 -0.12,1 -0.24,2.08 -0.08,1.08 -0.08,2.08 v 8.84 q 0,0.56 0.4,0.88 0.44,0.32 1.52,0.64 0.32,0.12 0.52,0.28 0.2,0.16 0.2,0.48 0,0.52 -0.6,0.52 -0.76,0 -1.6,-0.04 -0.84,-0.04 -1.64,-0.08 -0.76,-0.04 -1.48,-0.04 -0.68,0 -1.44,0.04 -0.72,0.04 -1.52,0.08 -0.76,0.08 -1.56,0.08 z m 4.4,-19.84 q -1.24,0 -2.2,-0.92 -0.92,-0.92 -0.92,-2.2 0,-1.36 0.92,-2.28 0.96,-0.92 2.2,-0.92 1.4,0 2.32,0.92 0.92,0.92 0.92,2.28 0,1.28 -0.92,2.2 -0.92,0.92 -2.32,0.92 z" />
    <path
       id="path1375"
       style="font-style:normal;font-variant:normal;font-weight:bold;font-stretch:normal;font-family:'EB Garamond';-inkscape-font-specification:'EB Garamond Bold';text-align:center;text-anchor:middle;fill:#ffffff"
       d="m 777.72811,363.70142 q -0.28,0 -0.56,-0.12 -0.24,-0.16 -0.24,-0.44 0,-0.32 0.28,-0.48 0.28,-0.2 0.64,-0.32 0.6,-0.2 1.04,-0.44 0.48,-0.28 0.48,-1.08 v -9.16 q 0,-0.88 -0.28,-1.48 -0.24,-0.6 -0.96,-0.76 -0.16,-0.04 -0.32,-0.2 -0.12,-0.16 -0.12,-0.52 0,-0.56 0.4,-0.68 1.36,-0.32 2.96,-0.84 1.64,-0.56 2.8,-1.16 0.16,-0.08 0.36,-0.2 0.2,-0.12 0.36,-0.12 0.24,0 0.28,0.16 0.08,0.12 0.08,0.32 0,0.32 -0.12,1.04 -0.08,0.68 -0.08,1.24 0,0.16 0,0.36 0.04,0.2 0.08,0.24 1.36,-1.32 2.76,-2.04 1.4,-0.72 3.24,-0.72 2.08,0 3.48,1.56 1.44,1.52 1.44,4.16 v 8.8 q 0,0.8 0.44,1.08 0.48,0.24 1.08,0.44 0.32,0.12 0.56,0.32 0.24,0.16 0.24,0.48 0,0.28 -0.24,0.44 -0.2,0.12 -0.44,0.12 -0.8,0 -1.52,-0.08 -0.68,-0.04 -1.36,-0.08 -0.64,-0.04 -1.36,-0.04 -0.68,0 -1.36,0.04 -0.68,0.04 -1.36,0.08 -0.68,0.08 -1.48,0.08 -0.24,0 -0.48,-0.12 -0.2,-0.16 -0.2,-0.44 0,-0.32 0.24,-0.48 0.24,-0.2 0.56,-0.32 0.6,-0.2 1,-0.44 0.4,-0.28 0.4,-1.08 v -7.96 q 0,-1.52 -0.72,-2.36 -0.68,-0.88 -1.84,-0.92 -0.88,0 -1.56,0.28 -0.68,0.28 -1.4,0.76 -0.16,0.16 -0.24,0.36 -0.08,0.2 -0.08,0.4 v 9.44 q 0,0.8 0.44,1.08 0.44,0.24 1,0.44 0.8,0.24 0.8,0.8 0,0.24 -0.2,0.4 -0.2,0.16 -0.48,0.16 -0.8,0 -1.48,-0.08 -0.68,-0.04 -1.28,-0.08 -0.6,-0.04 -1.32,-0.04 -0.68,0 -1.4,0.04 -0.68,0.04 -1.44,0.08 -0.72,0.08 -1.52,0.08 z" />
    <path
       id="path1377"
       style="font-style:normal;font-variant:normal;font-weight:bold;font-stretch:normal;font-family:'EB Garamond';-inkscape-font-specification:'EB Garamond Bold';text-align:center;text-anchor:middle;fill:#ffffff"
       d="m 581.06862,414.3367 q -1.36,0 -3,-0.08 -1.6,-0.08 -3,-0.16 -1.4,-0.04 -2.12,-0.04 -0.8,0 -1.76,0 -0.96,0.04 -2,0.08 -1,0.04 -1.92,0.04 -0.28,0 -0.52,-0.12 -0.24,-0.16 -0.24,-0.44 0,-0.36 0.2,-0.56 0.24,-0.2 0.64,-0.28 1.52,-0.32 2.08,-0.8 0.56,-0.52 0.56,-1.8 v -18.16 q 0,-1.28 -0.52,-1.8 -0.52,-0.56 -2.12,-0.92 -0.4,-0.08 -0.64,-0.28 -0.2,-0.2 -0.2,-0.56 0,-0.28 0.24,-0.44 0.24,-0.16 0.52,-0.16 0.92,0 1.92,0.04 1.04,0.04 2,0.12 1,0.04 1.8,0.04 0.64,0 1.68,-0.04 1.04,-0.08 2.24,-0.12 1.24,-0.08 2.36,-0.12 1.16,-0.08 1.88,-0.08 3.04,0 5.6,0.96 2.6,0.92 4.52,2.68 1.96,1.72 3.04,4.08 1.08,2.36 1.08,5.2 0,2.68 -0.96,5.16 -0.96,2.44 -2.8,4.4 -1.84,1.92 -4.48,3.04 -2.64,1.12 -6.08,1.12 z m -0.6,-2.04 q 2.72,0 4.56,-1.32 1.84,-1.36 2.72,-3.72 0.92,-2.4 0.92,-5.56 0,-2.68 -0.6,-4.84 -0.56,-2.2 -1.68,-3.76 -1.08,-1.56 -2.72,-2.4 -1.6,-0.88 -3.64,-0.88 -1.28,0 -2.16,0.08 -0.84,0.08 -1.28,0.4 -0.44,0.32 -0.44,1.04 v 17.44 q 0,1.32 0.48,2.08 0.52,0.76 1.48,1.12 1,0.32 2.36,0.32 z" />
    <path
       id="path1379"
       style="font-style:normal;font-variant:normal;font-weight:bold;font-stretch:normal;font-family:'EB Garamond';-inkscape-font-specification:'EB Garamond Bold';text-align:center;text-anchor:middle;fill:#ffffff"
       d="m 604.86857,414.6167 q -2.16,0 -3.88,-1.12 -1.68,-1.16 -2.68,-3.12 -0.96,-2 -0.96,-4.52 0,-2.52 1.16,-4.56 1.16,-2.08 3.16,-3.28 2,-1.24 4.4,-1.24 1.72,0 3.08,0.76 1.36,0.72 2.16,1.96 0.84,1.24 0.84,2.8 0,1.52 -1.24,1.52 h -8 q -0.56,0 -0.84,0.32 -0.24,0.32 -0.24,1.08 0,1.52 0.68,2.8 0.68,1.24 1.84,1.96 1.16,0.72 2.68,0.72 1.16,0 2.12,-0.44 1,-0.44 1.96,-1.2 0.16,-0.12 0.28,-0.2 0.16,-0.12 0.28,-0.12 0.4,0 0.4,0.52 0,0.44 -0.32,1.2 -0.4,1 -1.36,2 -0.92,0.96 -2.32,1.56 -1.4,0.6 -3.2,0.6 z m -1.96,-12.48 h 2.4 q 1.12,0 1.56,-0.04 0.44,-0.04 0.8,-0.16 0.2,-0.08 0.32,-0.4 0.12,-0.32 0.12,-0.72 0,-1.08 -0.76,-1.76 -0.72,-0.68 -1.8,-0.68 -0.84,0 -1.6,0.48 -0.72,0.44 -1.2,1.2 -0.44,0.72 -0.4,1.52 0,0.56 0.56,0.56 z" />
    <path
       id="path1381"
       style="font-style:normal;font-variant:normal;font-weight:bold;font-stretch:normal;font-family:'EB Garamond';-inkscape-font-specification:'EB Garamond Bold';text-align:center;text-anchor:middle;fill:#ffffff"
       d="m 623.62852,414.6167 q -1.16,0 -2.16,-0.2 -0.96,-0.2 -1.76,-0.4 -0.6,-0.2 -1.12,-0.32 -0.48,-0.12 -0.8,-0.12 -0.4,0 -0.76,0.16 -0.36,0.12 -0.68,0.36 -0.36,0.28 -0.56,0.28 -0.36,0 -0.56,-0.16 -0.16,-0.16 -0.16,-0.36 0,-0.36 0.2,-1.4 0.24,-1.04 0.2,-2.6 l -0.16,-17.8 q 0,-1.04 -0.32,-1.84 -0.28,-0.84 -1.24,-1.04 -0.2,-0.04 -0.36,-0.2 -0.12,-0.16 -0.12,-0.44 0,-0.2 0.12,-0.36 0.12,-0.16 0.32,-0.2 0.88,-0.16 2.04,-0.52 1.16,-0.4 2.24,-0.8 1.12,-0.44 1.72,-0.64 0.4,-0.16 0.56,-0.16 0.24,0 0.32,0.16 0.12,0.12 0.12,0.32 0,0.24 -0.12,1 -0.08,0.76 -0.08,1.52 v 8.56 q 0,0.52 0.08,0.84 0.08,0.28 0.28,0.28 1.24,-0.84 2.56,-1.28 1.36,-0.48 2.56,-0.48 2.08,0 3.76,1.08 1.68,1.08 2.64,2.96 1,1.88 1,4.24 0,2.8 -1.24,5 -1.24,2.16 -3.44,3.36 -2.16,1.2 -5.08,1.2 z m 0.72,-1.68 q 1.08,0 1.84,-0.92 0.76,-0.96 1.16,-2.52 0.44,-1.56 0.44,-3.4 0,-1.6 -0.44,-3.24 -0.4,-1.64 -1.32,-2.72 -0.88,-1.12 -2.28,-1.12 -0.72,0 -1.68,0.24 -0.96,0.2 -1.56,0.68 v 8.52 q 0,1.28 0.52,2.32 0.56,1.04 1.44,1.6 0.88,0.56 1.88,0.56 z" />
    <path
       id="path1383"
       style="font-style:normal;font-variant:normal;font-weight:bold;font-stretch:normal;font-family:'EB Garamond';-inkscape-font-specification:'EB Garamond Bold';text-align:center;text-anchor:middle;fill:#ffffff"
       d="m 635.78852,414.1767 q -0.24,0 -0.44,-0.12 -0.2,-0.16 -0.2,-0.4 0,-0.32 0.2,-0.52 0.2,-0.2 0.52,-0.28 1.04,-0.24 1.44,-0.52 0.44,-0.32 0.44,-0.96 v -8.64 q 0,-1.36 -0.44,-1.92 -0.4,-0.6 -1.28,-0.72 -0.24,-0.04 -0.36,-0.24 -0.12,-0.2 -0.12,-0.48 0,-0.6 0.44,-0.68 2.08,-0.4 3.68,-1.12 1.64,-0.72 2.52,-1.12 0.64,-0.32 0.8,-0.32 0.52,0 0.52,0.48 -0.04,0.68 -0.2,1.72 -0.12,1 -0.24,2.08 -0.08,1.08 -0.08,2.08 v 8.84 q 0,0.56 0.4,0.88 0.44,0.32 1.52,0.64 0.32,0.12 0.52,0.28 0.2,0.16 0.2,0.48 0,0.52 -0.6,0.52 -0.76,0 -1.6,-0.04 -0.84,-0.04 -1.64,-0.08 -0.76,-0.04 -1.48,-0.04 -0.68,0 -1.44,0.04 -0.72,0.04 -1.52,0.08 -0.76,0.08 -1.56,0.08 z m 4.4,-19.84 q -1.24,0 -2.2,-0.92 -0.92,-0.92 -0.92,-2.2 0,-1.36 0.92,-2.28 0.96,-0.92 2.2,-0.92 1.4,0 2.32,0.92 0.92,0.92 0.92,2.28 0,1.28 -0.92,2.2 -0.92,0.92 -2.32,0.92 z" />
    <path
       id="path1385"
       style="font-style:normal;font-variant:normal;font-weight:bold;font-stretch:normal;font-family:'EB Garamond';-inkscape-font-specification:'EB Garamond Bold';text-align:center;text-anchor:middle;fill:#ffffff"
       d="m 651.26844,414.6167 q -1.08,0 -2,-0.52 -0.92,-0.52 -1.48,-1.36 -0.52,-0.84 -0.52,-1.84 0,-1.36 0.84,-2.28 0.88,-0.92 2.56,-1.64 l 3.56,-1.56 q 0.8,-0.36 0.96,-0.64 0.2,-0.28 0.2,-1.04 l 0.04,-2.28 q 0.04,-1.12 -0.4,-1.76 -0.44,-0.68 -1.32,-0.68 -0.52,0 -1.04,0.24 -0.52,0.2 -0.8,0.48 -0.12,0.16 -0.2,0.4 -0.04,0.2 -0.04,0.44 0,0.24 0.04,0.6 0.04,0.32 0.04,0.56 0,0.24 -0.64,0.64 -0.64,0.36 -1.48,0.68 -0.84,0.28 -1.44,0.28 -0.28,0 -0.52,-0.24 -0.2,-0.24 -0.2,-0.6 0,-0.64 0.44,-1.24 0.44,-0.64 1.44,-1.44 1.04,-0.88 2.28,-1.56 1.24,-0.68 2.44,-1.08 1.24,-0.4 2.08,-0.4 2.16,0 3.44,1.4 1.28,1.36 1.2,3.64 l -0.2,8.08 q -0.04,0.92 0.32,1.56 0.36,0.64 0.88,0.64 0.76,0 1.32,-0.52 0.12,-0.12 0.24,-0.12 0.2,0 0.32,0.12 0.16,0.12 0.16,0.32 0,0.48 -0.72,1.24 -0.76,0.72 -1.6,1.08 -0.84,0.4 -1.76,0.4 -2.24,0 -3.72,-2.28 h -0.08 q -1.32,1.2 -2.4,1.72 -1.04,0.56 -2.24,0.56 z m 2.4,-2.6 q 0.44,0 0.72,-0.12 0.28,-0.16 0.56,-0.48 0.12,-0.16 0.2,-0.4 0.08,-0.28 0.08,-0.64 l 0.12,-2.88 q 0,-0.4 -0.12,-0.52 -0.12,-0.12 -0.28,-0.12 -0.08,0 -0.2,0.04 -0.12,0.04 -0.28,0.12 -1.16,0.56 -1.72,1.16 -0.56,0.56 -0.56,1.84 0,1.16 0.48,1.6 0.48,0.4 1,0.4 z" />
    <path
       id="path1387"
       style="font-style:normal;font-variant:normal;font-weight:bold;font-stretch:normal;font-family:'EB Garamond';-inkscape-font-specification:'EB Garamond Bold';text-align:center;text-anchor:middle;fill:#ffffff"
       d="m 665.26843,414.1767 q -0.28,0 -0.56,-0.12 -0.24,-0.16 -0.24,-0.44 0,-0.32 0.28,-0.48 0.28,-0.2 0.64,-0.32 0.6,-0.2 1.04,-0.44 0.48,-0.28 0.48,-1.08 v -9.16 q 0,-0.88 -0.28,-1.48 -0.24,-0.6 -0.96,-0.76 -0.16,-0.04 -0.32,-0.2 -0.12,-0.16 -0.12,-0.52 0,-0.56 0.4,-0.68 1.36,-0.32 2.96,-0.84 1.64,-0.56 2.8,-1.16 0.16,-0.08 0.36,-0.2 0.2,-0.12 0.36,-0.12 0.24,0 0.28,0.16 0.08,0.12 0.08,0.32 0,0.32 -0.12,1.04 -0.08,0.68 -0.08,1.24 0,0.16 0,0.36 0.04,0.2 0.08,0.24 1.36,-1.32 2.76,-2.04 1.4,-0.72 3.24,-0.72 2.08,0 3.48,1.56 1.44,1.52 1.44,4.16 v 8.8 q 0,0.8 0.44,1.08 0.48,0.24 1.08,0.44 0.32,0.12 0.56,0.32 0.24,0.16 0.24,0.48 0,0.28 -0.24,0.44 -0.2,0.12 -0.44,0.12 -0.8,0 -1.52,-0.08 -0.68,-0.04 -1.36,-0.08 -0.64,-0.04 -1.36,-0.04 -0.68,0 -1.36,0.04 -0.68,0.04 -1.36,0.08 -0.68,0.08 -1.48,0.08 -0.24,0 -0.48,-0.12 -0.2,-0.16 -0.2,-0.44 0,-0.32 0.24,-0.48 0.24,-0.2 0.56,-0.32 0.6,-0.2 1,-0.44 0.4,-0.28 0.4,-1.08 v -7.96 q 0,-1.52 -0.72,-2.36 -0.68,-0.88 -1.84,-0.92 -0.88,0 -1.56,0.28 -0.68,0.28 -1.4,0.76 -0.16,0.16 -0.24,0.36 -0.08,0.2 -0.08,0.4 v 9.44 q 0,0.8 0.44,1.08 0.44,0.24 1,0.44 0.8,0.24 0.8,0.8 0,0.24 -0.2,0.4 -0.2,0.16 -0.48,0.16 -0.8,0 -1.48,-0.08 -0.68,-0.04 -1.28,-0.08 -0.6,-0.04 -1.32,-0.04 -0.68,0 -1.4,0.04 -0.68,0.04 -1.44,0.08 -0.72,0.08 -1.52,0.08 z" />
    <path
       id="path1389"
       style="font-style:normal;font-variant:normal;font-weight:bold;font-stretch:normal;font-family:'EB Garamond';-inkscape-font-specification:'EB Garamond Bold';text-align:center;text-anchor:middle;fill:#ffffff"
       d="m 697.22841,414.2567 q -0.36,0 -0.6,-0.2 -0.2,-0.16 -0.2,-0.4 0,-0.6 0.88,-0.84 1.36,-0.36 1.92,-0.84 0.6,-0.48 0.6,-1.76 v -18.2 q 0,-1.28 -0.52,-1.84 -0.52,-0.6 -1.92,-0.88 -0.52,-0.12 -0.72,-0.32 -0.2,-0.24 -0.2,-0.52 0,-0.24 0.24,-0.4 0.24,-0.2 0.6,-0.2 1.28,0 2.12,0.08 0.84,0.08 1.56,0.16 0.76,0.04 1.76,0.04 0.92,0 1.68,-0.08 0.76,-0.12 1.68,-0.2 0.96,-0.08 2.32,-0.08 4.76,0 7.2,1.36 2.48,1.32 2.48,4.6 0,1.24 -0.56,2.36 -0.56,1.08 -1.44,1.8 -0.64,0.56 -1.36,0.92 -0.68,0.36 -1.56,0.6 -0.16,0.04 -0.16,0.2 0,0.16 0.16,0.2 1.04,0.24 2.16,0.64 1.12,0.36 2.08,1.08 1,0.72 1.56,1.88 0.6,1.12 0.6,2.88 0,2.24 -0.72,3.56 -0.68,1.28 -1.68,1.96 -0.96,0.68 -1.8,1.12 -1.32,0.64 -3,0.96 -1.68,0.32 -4,0.32 -1.32,0 -2.68,-0.08 -1.32,-0.08 -2.8,-0.08 -0.84,0 -1.84,0.04 -1,0.04 -2,0.08 -0.96,0.08 -1.84,0.08 z m 11.2,-2.24 q 1.2,0 2.24,-0.72 1.08,-0.72 1.68,-1.92 0.64,-1.24 0.64,-2.8 0,-1.36 -0.36,-2.28 -0.32,-0.92 -0.8,-1.48 -0.44,-0.56 -0.84,-0.84 -0.32,-0.28 -1.16,-0.56 -0.8,-0.32 -2,-0.32 -0.68,0 -1.28,0.36 -0.56,0.32 -0.56,0.96 v 7.04 q 0,1.32 0.64,1.96 0.64,0.6 1.8,0.6 z m -0.84,-12.72 q 0.96,0 1.76,-0.2 0.8,-0.24 1.64,-0.88 0.28,-0.28 0.76,-1.12 0.52,-0.88 0.52,-2.52 0,-1.68 -0.44,-2.8 -0.44,-1.12 -1.36,-1.68 -0.88,-0.56 -2.36,-0.56 -1.12,0 -1.64,0.44 -0.48,0.4 -0.48,1.24 v 6.68 q 0,0.8 0.56,1.12 0.56,0.28 1.04,0.28 z" />
    <path
       id="path1391"
       style="font-style:normal;font-variant:normal;font-weight:bold;font-stretch:normal;font-family:'EB Garamond';-inkscape-font-specification:'EB Garamond Bold';text-align:center;text-anchor:middle;fill:#ffffff"
       d="m 736.58838,414.8967 q -0.32,0 -0.32,-0.4 0,-0.48 0.08,-1.28 0.12,-0.8 0.12,-1.24 0,-0.16 -0.04,-0.28 0,-0.12 -0.04,-0.16 -1.08,1.32 -2.76,2.24 -1.68,0.88 -3.56,0.88 -1.24,0 -2.24,-0.72 -1,-0.76 -1.6,-2.04 -0.56,-1.28 -0.56,-2.88 v -7.48 q 0,-0.92 -0.36,-1.48 -0.32,-0.56 -1.24,-0.76 -0.24,-0.04 -0.44,-0.2 -0.16,-0.2 -0.16,-0.56 0,-0.28 0.16,-0.44 0.16,-0.2 0.44,-0.24 1.68,-0.08 3.04,-0.32 1.36,-0.28 2.76,-0.64 0.2,-0.04 0.4,-0.08 0.24,-0.08 0.44,-0.08 0.56,0 0.52,0.56 -0.16,0.92 -0.24,1.56 -0.08,0.6 -0.08,1.52 v 7.68 q 0,0.96 0.32,1.68 0.32,0.72 0.88,1.12 0.56,0.4 1.24,0.44 0.64,0 1.24,-0.16 0.64,-0.16 1.2,-0.72 0.24,-0.2 0.52,-0.8 0.28,-0.64 0.28,-1.68 v -6.44 q 0,-0.72 -0.28,-1.16 -0.28,-0.48 -0.76,-0.76 -0.48,-0.28 -1.12,-0.32 -0.44,-0.04 -0.72,-0.2 -0.24,-0.2 -0.24,-0.68 0,-0.4 0.28,-0.6 0.28,-0.2 0.68,-0.2 2.04,-0.12 3.24,-0.2 1.2,-0.12 1.96,-0.24 0.76,-0.12 1.52,-0.28 0.12,-0.04 0.28,-0.08 0.16,-0.04 0.24,-0.04 0.6,0 0.6,0.48 0,0.12 -0.04,0.28 -0.04,0.16 -0.12,0.32 -0.04,0.16 -0.12,0.72 -0.04,0.52 -0.12,1.12 -0.04,0.6 -0.04,0.96 v 9.28 q 0,0.92 0.2,1.24 0.24,0.28 0.52,0.28 0.2,0 0.6,0.04 0.4,0 0.52,0 0.36,0 0.56,0.2 0.2,0.2 0.2,0.52 0,0.36 -0.16,0.6 -0.12,0.2 -0.52,0.24 -1.92,0.16 -3.48,0.68 -1.52,0.48 -2.64,0.92 -0.24,0.08 -0.52,0.16 -0.28,0.12 -0.52,0.12 z" />
    <path
       id="path1393"
       style="font-style:normal;font-variant:normal;font-weight:bold;font-stretch:normal;font-family:'EB Garamond';-inkscape-font-specification:'EB Garamond Bold';text-align:center;text-anchor:middle;fill:#ffffff"
       d="m 751.38833,414.6167 q -1.32,0 -2.56,-0.32 -1.24,-0.32 -2.24,-1.04 -0.36,-0.6 -0.52,-1.88 -0.16,-1.28 -0.12,-2.68 0,-0.48 0.8,-0.48 0.32,0 0.56,0.2 0.24,0.2 0.28,0.4 0.76,1.68 1.76,2.88 1,1.16 2.4,1.16 1.08,0 1.64,-0.64 0.56,-0.68 0.56,-1.52 0,-1.04 -0.84,-1.72 -0.8,-0.72 -1.96,-1.32 -1.16,-0.6 -2.2,-1.36 -1.04,-0.76 -1.72,-1.8 -0.64,-1.08 -0.64,-2.56 0,-1.56 0.84,-2.72 0.88,-1.16 2.32,-1.8 1.48,-0.68 3.28,-0.68 1.32,0 2.44,0.32 1.12,0.28 1.52,0.56 0.32,0.4 0.52,1.52 0.2,1.08 0.2,2.4 0,0.44 -0.72,0.44 -0.28,0 -0.6,-0.2 -0.28,-0.2 -0.36,-0.4 -0.52,-1.56 -1.36,-2.32 -0.8,-0.8 -1.8,-0.8 -0.88,0 -1.6,0.56 -0.72,0.56 -0.72,1.52 0,0.84 0.76,1.52 0.8,0.64 1.96,1.28 2.6,1.36 3.72,2.64 1.12,1.24 1.12,3.32 0,2.6 -1.72,4.08 -1.68,1.44 -5,1.44 z" />
    <path
       id="path1395"
       style="font-style:normal;font-variant:normal;font-weight:bold;font-stretch:normal;font-family:'EB Garamond';-inkscape-font-specification:'EB Garamond Bold';text-align:center;text-anchor:middle;fill:#ffffff"
       d="m 767.94828,414.6167 q -2.64,0 -3.96,-1.32 -1.32,-1.36 -1.32,-3.8 v -9.2 q 0,-0.36 -0.28,-0.52 -0.24,-0.16 -0.96,-0.2 h -0.52 q -0.28,0 -0.48,-0.44 -0.16,-0.48 -0.16,-0.84 0,-0.08 0.04,-0.2 0.08,-0.16 0.2,-0.2 0.96,-0.36 2.04,-1.08 1.12,-0.76 2.12,-1.6 1.04,-0.84 1.68,-1.4 0.28,-0.2 0.48,-0.36 0.2,-0.16 0.52,-0.16 0.36,0 0.52,0.16 0.16,0.12 0.08,0.64 l -0.24,2.36 q -0.04,0.48 0.2,0.68 0.28,0.16 0.76,0.16 h 4.76 q 0.12,0 0.24,0.28 0.12,0.28 0.12,0.52 0,0.56 -0.16,1.08 -0.16,0.52 -0.36,0.52 h -3.72 q -0.92,0 -1.28,0.24 -0.32,0.2 -0.32,0.76 v 7.56 q 0,1.84 0.68,2.76 0.72,0.88 1.88,0.88 1.16,0 1.68,-0.24 0.56,-0.24 1,-0.4 0.16,-0.08 0.24,-0.08 0.2,0 0.32,0.24 0.12,0.24 0.12,0.56 0,0.24 -0.84,0.88 -0.84,0.64 -2.2,1.2 -1.32,0.56 -2.88,0.56 z" />
    <path
       id="path1397"
       style="font-style:normal;font-variant:normal;font-weight:bold;font-stretch:normal;font-family:'EB Garamond';-inkscape-font-specification:'EB Garamond Bold';text-align:center;text-anchor:middle;fill:#ffffff"
       d="m 782.6282,414.6167 q -2.16,0 -3.88,-1.12 -1.68,-1.16 -2.68,-3.12 -0.96,-2 -0.96,-4.52 0,-2.52 1.16,-4.56 1.16,-2.08 3.16,-3.28 2,-1.24 4.4,-1.24 1.72,0 3.08,0.76 1.36,0.72 2.16,1.96 0.84,1.24 0.84,2.8 0,1.52 -1.24,1.52 h -8 q -0.56,0 -0.84,0.32 -0.24,0.32 -0.24,1.08 0,1.52 0.68,2.8 0.68,1.24 1.84,1.96 1.16,0.72 2.68,0.72 1.16,0 2.12,-0.44 1,-0.44 1.96,-1.2 0.16,-0.12 0.28,-0.2 0.16,-0.12 0.28,-0.12 0.4,0 0.4,0.52 0,0.44 -0.32,1.2 -0.4,1 -1.36,2 -0.92,0.96 -2.32,1.56 -1.4,0.6 -3.2,0.6 z m -1.96,-12.48 h 2.4 q 1.12,0 1.56,-0.04 0.44,-0.04 0.8,-0.16 0.2,-0.08 0.32,-0.4 0.12,-0.32 0.12,-0.72 0,-1.08 -0.76,-1.76 -0.72,-0.68 -1.8,-0.68 -0.84,0 -1.6,0.48 -0.72,0.44 -1.2,1.2 -0.44,0.72 -0.4,1.52 0,0.56 0.56,0.56 z" />
    <path
       id="path1399"
       style="font-style:normal;font-variant:normal;font-weight:bold;font-stretch:normal;font-family:'EB Garamond';-inkscape-font-specification:'EB Garamond Bold';text-align:center;text-anchor:middle;fill:#ffffff"
       d="m 792.54819,414.1767 q -0.32,0 -0.56,-0.12 -0.24,-0.16 -0.24,-0.44 0,-0.32 0.24,-0.48 0.24,-0.2 0.68,-0.32 0.88,-0.28 1.16,-0.6 0.32,-0.32 0.32,-0.92 v -9.2 q 0,-0.84 -0.24,-1.36 -0.2,-0.56 -0.96,-0.76 -0.2,-0.08 -0.36,-0.2 -0.16,-0.16 -0.16,-0.52 0,-0.56 0.48,-0.68 1.28,-0.32 2.8,-0.84 1.56,-0.52 2.64,-1.04 0.2,-0.16 0.48,-0.28 0.32,-0.16 0.44,-0.16 0.36,0 0.36,0.44 0,0.2 -0.04,0.84 0,0.6 -0.04,1.24 0,0.64 -0.04,1.08 0,0.36 0.16,0.36 0.6,-0.84 1.4,-1.64 0.84,-0.8 1.8,-1.32 0.96,-0.52 1.88,-0.52 1.4,0 1.96,0.52 0.6,0.52 0.6,1.36 0,0.6 -0.36,1.32 -0.32,0.72 -0.84,1.24 -0.52,0.52 -1.12,0.52 -0.36,0 -0.76,-0.16 -0.4,-0.2 -0.8,-0.4 -0.4,-0.16 -0.8,-0.32 -0.36,-0.2 -0.68,-0.2 -1.04,0 -1.8,0.76 -0.76,0.76 -0.76,3.04 v 6.52 q 0,0.8 0.48,1.2 0.52,0.36 1.64,0.68 0.44,0.12 0.64,0.32 0.24,0.16 0.24,0.48 0,0.56 -0.68,0.56 -1.2,0 -2.48,-0.12 -1.28,-0.08 -2.32,-0.08 -0.68,0 -1.4,0.04 -0.68,0.04 -1.44,0.08 -0.72,0.08 -1.52,0.08 z" />
  </g>
</svg>
