<?xml version="1.0" encoding="UTF-8" standalone="no"?>
<svg
   xmlns:dc="http://purl.org/dc/elements/1.1/"
   xmlns:cc="http://creativecommons.org/ns#"
   xmlns:rdf="http://www.w3.org/1999/02/22-rdf-syntax-ns#"
   xmlns:svg="http://www.w3.org/2000/svg"
   xmlns="http://www.w3.org/2000/svg"
   xmlns:xlink="http://www.w3.org/1999/xlink"
   width="211.40207mm"
   height="119.0625mm"
   viewBox="0 0 211.40207 119.0625"
   version="1.1"
   id="svg3357">
  <defs
     id="defs3351">
    <linearGradient
       id="linearGradient6114">
      <stop
         style="stop-color:#6f7c91;stop-opacity:1;"
         offset="0"
         id="stop6110" />
      <stop
         style="stop-color:#162d50;stop-opacity:1"
         offset="1"
         id="stop6112" />
    </linearGradient>
    <radialGradient
       xlink:href="#linearGradient6114"
       id="radialGradient6126"
       cx="73.77433"
       cy="66.986313"
       fx="73.77433"
       fy="66.986313"
       r="31.67275"
       gradientTransform="matrix(3.0071285,0,0,1.83657,-125.12732,-58.151445)"
       gradientUnits="userSpaceOnUse" />
    <filter
       style="color-interpolation-filters:sRGB"
       id="filter2224"
       x="-0.81527042"
       width="2.6305408"
       y="-0.7841419"
       height="2.5682838">
      <feGaussianBlur
         stdDeviation="7.1879676"
         id="feGaussianBlur2226" />
    </filter>
    <filter
       style="color-interpolation-filters:sRGB"
       id="filter2228"
       x="-0.8625561"
       width="2.7251122"
       y="-0.7841419"
       height="2.5682838">
      <feGaussianBlur
         stdDeviation="7.1879676"
         id="feGaussianBlur2230" />
    </filter>
    <filter
       style="color-interpolation-filters:sRGB"
       id="filter2232"
       x="-1.232223"
       width="3.4644461"
       y="-0.67492652"
       height="2.349853">
      <feGaussianBlur
         stdDeviation="7.1879676"
         id="feGaussianBlur2234" />
    </filter>
    <filter
       style="color-interpolation-filters:sRGB"
       id="filter2236"
       x="-0.89476776"
       width="2.7895355"
       y="-0.7841419"
       height="2.5682838">
      <feGaussianBlur
         stdDeviation="7.1879676"
         id="feGaussianBlur2238" />
    </filter>
    <filter
       style="color-interpolation-filters:sRGB"
       id="filter2240"
       x="-0.74486709"
       width="2.4897342"
       y="-0.7841419"
       height="2.5682838">
      <feGaussianBlur
         stdDeviation="7.1879676"
         id="feGaussianBlur2242" />
    </filter>
    <filter
       style="color-interpolation-filters:sRGB"
       id="filter2244"
       x="-0.72728169"
       width="2.4545634"
       y="-0.6342324"
       height="2.2684648">
      <feGaussianBlur
         stdDeviation="7.1879676"
         id="feGaussianBlur2246" />
    </filter>
    <filter
       style="color-interpolation-filters:sRGB"
       id="filter2248"
       x="-0.7539826"
       width="2.5079651"
       y="-0.7841419"
       height="2.5682838">
      <feGaussianBlur
         stdDeviation="7.1879676"
         id="feGaussianBlur2250" />
    </filter>
    <filter
       style="color-interpolation-filters:sRGB"
       id="filter2252"
       x="-0.75004882"
       width="2.5000975"
       y="-0.7841419"
       height="2.5682838">
      <feGaussianBlur
         stdDeviation="7.1879676"
         id="feGaussianBlur2254" />
    </filter>
    <filter
       style="color-interpolation-filters:sRGB"
       id="filter2256"
       x="-1.4002534"
       width="3.8005068"
       y="-0.57503742"
       height="2.1500747">
      <feGaussianBlur
         stdDeviation="7.1879676"
         id="feGaussianBlur2258" />
    </filter>
    <filter
       style="color-interpolation-filters:sRGB"
       id="filter2260"
       x="-0.7606315"
       width="2.5212629"
       y="-0.5828082"
       height="2.1656165">
      <feGaussianBlur
         stdDeviation="7.1879676"
         id="feGaussianBlur2262" />
    </filter>
    <filter
       style="color-interpolation-filters:sRGB"
       id="filter2264"
       x="-0.8625561"
       width="2.7251122"
       y="-0.7841419"
       height="2.5682838">
      <feGaussianBlur
         stdDeviation="7.1879676"
         id="feGaussianBlur2266" />
    </filter>
    <filter
       style="color-interpolation-filters:sRGB"
       id="filter2268"
       x="-0.65543765"
       width="2.3108754"
       y="-0.63144666"
       height="2.2628932">
      <feGaussianBlur
         stdDeviation="7.1879676"
         id="feGaussianBlur2270" />
    </filter>
    <filter
       style="color-interpolation-filters:sRGB"
       id="filter2272"
       x="-0.7539826"
       width="2.5079651"
       y="-0.7841419"
       height="2.5682838">
      <feGaussianBlur
         stdDeviation="7.1879676"
         id="feGaussianBlur2274" />
    </filter>
    <filter
       style="color-interpolation-filters:sRGB"
       id="filter2276"
       x="-1.4002534"
       width="3.8005068"
       y="-0.57503742"
       height="2.1500747">
      <feGaussianBlur
         stdDeviation="7.1879676"
         id="feGaussianBlur2278" />
    </filter>
    <filter
       style="color-interpolation-filters:sRGB"
       id="filter2280"
       x="-0.62685764"
       width="2.2537153"
       y="-0.61787689"
       height="2.2357538">
      <feGaussianBlur
         stdDeviation="7.1879676"
         id="feGaussianBlur2282" />
    </filter>
    <filter
       style="color-interpolation-filters:sRGB"
       id="filter2284"
       x="-0.8076368"
       width="2.6152737"
       y="-0.7841419"
       height="2.5682838">
      <feGaussianBlur
         stdDeviation="7.1879676"
         id="feGaussianBlur2286" />
    </filter>
    <filter
       style="color-interpolation-filters:sRGB"
       id="filter2288"
       x="-0.72728169"
       width="2.4545634"
       y="-0.6342324"
       height="2.2684648">
      <feGaussianBlur
         stdDeviation="7.1879676"
         id="feGaussianBlur2290" />
    </filter>
    <filter
       style="color-interpolation-filters:sRGB"
       id="filter2292"
       x="-1.3867462"
       width="3.7734923"
       y="-0.5828082"
       height="2.1656165">
      <feGaussianBlur
         stdDeviation="7.1879676"
         id="feGaussianBlur2294" />
    </filter>
    <filter
       style="color-interpolation-filters:sRGB"
       id="filter2296"
       x="-0.75004882"
       width="2.5000975"
       y="-0.7841419"
       height="2.5682838">
      <feGaussianBlur
         stdDeviation="7.1879676"
         id="feGaussianBlur2298" />
    </filter>
    <filter
       style="color-interpolation-filters:sRGB"
       id="filter2300"
       x="-0.74486709"
       width="2.4897342"
       y="-0.7841419"
       height="2.5682838">
      <feGaussianBlur
         stdDeviation="7.1879676"
         id="feGaussianBlur2302" />
    </filter>
    <filter
       style="color-interpolation-filters:sRGB"
       id="filter2304"
       x="-1.232223"
       width="3.4644461"
       y="-0.67492652"
       height="2.349853">
      <feGaussianBlur
         stdDeviation="7.1879676"
         id="feGaussianBlur2306" />
    </filter>
    <filter
       style="color-interpolation-filters:sRGB"
       id="filter2308"
       x="-0.81527042"
       width="2.6305408"
       y="-0.7841419"
       height="2.5682838">
      <feGaussianBlur
         stdDeviation="7.1879676"
         id="feGaussianBlur2310" />
    </filter>
    <filter
       style="color-interpolation-filters:sRGB"
       id="filter2312"
       x="-1.4002535"
       width="3.8005068"
       y="-0.57503742"
       height="2.1500747">
      <feGaussianBlur
         stdDeviation="7.1879676"
         id="feGaussianBlur2314" />
    </filter>
    <filter
       style="color-interpolation-filters:sRGB"
       id="filter2316"
       x="-0.6878438"
       width="2.3756876"
       y="-0.6342324"
       height="2.2684648">
      <feGaussianBlur
         stdDeviation="7.1879676"
         id="feGaussianBlur2318" />
    </filter>
    <filter
       style="color-interpolation-filters:sRGB"
       id="filter2320"
       x="-1.3867462"
       width="3.7734923"
       y="-0.5828082"
       height="2.1656165">
      <feGaussianBlur
         stdDeviation="7.1879676"
         id="feGaussianBlur2322" />
    </filter>
    <filter
       style="color-interpolation-filters:sRGB"
       id="filter2324"
       x="-1.3867462"
       width="3.7734923"
       y="-0.5828082"
       height="2.1656165">
      <feGaussianBlur
         stdDeviation="7.1879676"
         id="feGaussianBlur2326" />
    </filter>
    <filter
       style="color-interpolation-filters:sRGB"
       id="filter2328"
       x="-0.75004882"
       width="2.5000975"
       y="-0.7841419"
       height="2.5682838">
      <feGaussianBlur
         stdDeviation="7.1879676"
         id="feGaussianBlur2330" />
    </filter>
    <filter
       style="color-interpolation-filters:sRGB"
       id="filter2332"
       x="-1.232223"
       width="3.4644461"
       y="-0.67492652"
       height="2.349853">
      <feGaussianBlur
         stdDeviation="7.1879676"
         id="feGaussianBlur2334" />
    </filter>
    <filter
       style="color-interpolation-filters:sRGB"
       id="filter2336"
       x="-0.89476776"
       width="2.7895355"
       y="-0.7841419"
       height="2.5682838">
      <feGaussianBlur
         stdDeviation="7.1879676"
         id="feGaussianBlur2338" />
    </filter>
    <filter
       style="color-interpolation-filters:sRGB"
       id="filter2340"
       x="-0.7539826"
       width="2.5079651"
       y="-0.7841419"
       height="2.5682838">
      <feGaussianBlur
         stdDeviation="7.1879676"
         id="feGaussianBlur2342" />
    </filter>
    <filter
       style="color-interpolation-filters:sRGB"
       id="filter2344"
       x="-1.2428762"
       width="3.4857526"
       y="-0.65345162"
       height="2.3069031">
      <feGaussianBlur
         stdDeviation="7.1879676"
         id="feGaussianBlur2346" />
    </filter>
  </defs>
  <metadata
     id="metadata3354">
    <rdf:RDF>
      <cc:Work
         rdf:about="">
        <dc:format>image/svg+xml</dc:format>
        <dc:type
           rdf:resource="http://purl.org/dc/dcmitype/StillImage" />
        <dc:title></dc:title>
      </cc:Work>
    </rdf:RDF>
  </metadata>
  <rect
     ry="0"
     y="5.3290705e-15"
     x="0"
     height="119.0625"
     width="211.40207"
     id="rect6108"
     style="opacity:1;fill:#ff9900;fill-opacity:1;stroke:none;stroke-width:4.38045835;stroke-miterlimit:4;stroke-dasharray:none;paint-order:stroke markers fill" />
  <flowRoot
     transform="matrix(1.1097917,0,0,1.0234149,-1.6397721,-6.8613634)"
     style="font-style:normal;font-weight:normal;font-size:40px;line-height:1.25;font-family:sans-serif;letter-spacing:0px;word-spacing:0px;fill:#000000;fill-opacity:1;stroke:none"
     id="flowRoot874"
     xml:space="preserve"><flowRegion
       id="flowRegion876"><rect
         y="215.22041"
         x="200.72992"
         height="44.525547"
         width="166.0584"
         id="rect878" /></flowRegion><flowPara
       id="flowPara880" /></flowRoot>  <flowRoot
     transform="translate(-1.4775493,-3.9803138)"
     style="font-style:normal;font-weight:normal;font-size:40px;line-height:1.25;font-family:sans-serif;letter-spacing:0px;word-spacing:0px;fill:#000000;fill-opacity:1;stroke:none"
     id="flowRoot1087"
     xml:space="preserve"><flowRegion
       id="flowRegion1089"><rect
         y="161.32643"
         x="459.55276"
         height="216.1263"
         width="296.88928"
         id="rect1091" /></flowRegion><flowPara
       id="flowPara1093" /></flowRoot>  <g
     transform="matrix(1.1825108,0,0,1.2934259,-91.336818,-89.411228)"
     id="g4921"
     style="display:inline">
    <g
       id="g4720"
       transform="translate(50.270828)">
      <g
         style="fill:#333333"
         transform="translate(-47.638093,1.3360133)"
         id="g4694">
        <path
           id="path835"
           d="m 144.21101,139.55982 c 0,0 5.43081,5.83681 7.33498,3.79847 2.22288,-2.37952 -12.62665,-36.87139 -12.62665,-36.87139"
           style="fill:#333333;stroke:none;stroke-width:0.26458347px;stroke-linecap:butt;stroke-linejoin:miter;stroke-opacity:1" />
        <path
           style="fill:#333333;stroke:none;stroke-width:0.26458332px;stroke-linecap:butt;stroke-linejoin:miter;stroke-opacity:1"
           d="m 97.450493,140.21473 c 7.815327,4.80271 15.630577,9.60538 23.402247,9.51796 7.77167,-0.0874 15.49967,-5.06478 19.38543,-7.57529 3.88576,-2.5105 3.92946,-2.5542 3.97284,-2.59758"
           id="path817" />
        <path
           style="fill:#333333;stroke:none;stroke-width:0.26458332px;stroke-linecap:butt;stroke-linejoin:miter;stroke-opacity:1"
           d="m 97.450491,140.21473 c 0,0 -5.430812,5.83681 -7.33498,3.79847 -2.222882,-2.37952 12.820499,-36.99713 12.820499,-36.99713"
           id="path825" />
        <path
           style="fill:#333333;stroke:none;stroke-width:0.26458332px;stroke-linecap:butt;stroke-linejoin:miter;stroke-opacity:1"
           d="m 102.93926,105.67937 c 0.0862,-6.905162 0.17248,-13.810016 1.50935,-18.736088 1.33687,-4.926072 3.92412,-7.873272 9.74546,-9.346742 5.82134,-1.473471 14.87673,-1.473471 19.40429,3.368239 4.52756,4.84171 4.52756,14.525398 4.52756,24.209361"
           id="path831"
           transform="matrix(1.0226412,0,0,1.0473654,-2.3339152,-3.6688483)" />
      </g>
      <g
         id="g4708">
        <path
           style="fill:#333333;stroke:none;stroke-width:0.26458332px;stroke-linecap:butt;stroke-linejoin:miter;stroke-opacity:1"
           d="m 49.741667,141.68958 c 0,0 3.615973,-22.40139 5.55625,-33.60208 l 35.983333,-0.26458 6.614583,33.07291 z"
           id="path4696" />
        <rect
           style="opacity:1;fill:#333333;fill-opacity:1;stroke:none;stroke-width:0.26458332"
           id="rect4698"
           width="37.041668"
           height="3.96875"
           x="55.5625"
           y="138.25" />
        <rect
           style="opacity:1;fill:#333333;fill-opacity:1;stroke:none;stroke-width:0.26458332"
           id="rect4700"
           width="30.427082"
           height="3.96875"
           x="59.53125"
           y="106.5" />
        <rect
           style="opacity:1;fill:#333333;fill-opacity:1;stroke:none;stroke-width:0.26458332"
           id="rect4702"
           width="5.2916694"
           height="3.968755"
           x="84.666664"
           y="105.17708" />
      </g>
    </g>
    <path
       style="opacity:1;fill:#e6e6e6;fill-opacity:1;stroke:none;stroke-width:0.26458332"
       id="path843"
       d="m 138.70455,126.61246 a 15.239734,15.867999 0 0 1 -15.17522,15.86785 15.239734,15.867999 0 0 1 -15.3037,-15.73349 15.239734,15.867999 0 0 1 15.04563,-16.00108 15.239734,15.867999 0 0 1 15.4311,15.59801" />
    <g
       id="g4688"
       transform="translate(44.751274,16.383515)">
      <g
         style="fill:#ff6600;stroke:none"
         transform="translate(-41.01042,-15.875)"
         id="g4596">
        <path
           style="fill:#ff6600;stroke:none;stroke-width:0.26458332px;stroke-linecap:butt;stroke-linejoin:miter;stroke-opacity:1"
           d="m 111.125,110.46875 c 2.9216,-2.67614 5.84316,-5.35225 8.7091,-5.35212 2.86595,1.3e-4 5.6775,2.67624 8.48882,5.35212"
           id="path4585" />
        <path
           style="fill:#ff6600;stroke:none;stroke-width:0.26458332px;stroke-linecap:butt;stroke-linejoin:miter;stroke-opacity:1"
           d="m 111.125,110.46875 c 2.77957,3.92198 5.48174,5.31906 8.73125,6.61458"
           id="path4589" />
        <path
           style="fill:#ff6600;stroke:none;stroke-width:0.26458332px;stroke-linecap:butt;stroke-linejoin:miter;stroke-opacity:1"
           d="m 128.32292,110.46875 c -1.04604,3.82945 -4.9192,5.32533 -8.46667,6.61458"
           id="path4591" />
      </g>
      <g
         id="g4661"
         transform="translate(-41.01042,-15.875)"
         style="fill:#ff6600;stroke:none">
        <path
           id="path4655"
           d="m 111.125,110.46875 c 2.9216,-2.67614 5.84316,-5.35225 8.7091,-5.35212 2.86595,1.3e-4 5.6775,2.67624 8.48882,5.35212"
           style="fill:#ff6600;stroke:none;stroke-width:0.26458332px;stroke-linecap:butt;stroke-linejoin:miter;stroke-opacity:1" />
        <path
           id="path4657"
           d="m 111.125,110.46875 c 2.77957,3.92198 5.48174,5.31906 8.73125,6.61458"
           style="fill:#ff6600;stroke:none;stroke-width:0.26458332px;stroke-linecap:butt;stroke-linejoin:miter;stroke-opacity:1" />
        <path
           id="path4659"
           d="m 128.32292,110.46875 c -1.04604,3.82945 -4.9192,5.32533 -8.46667,6.61458"
           style="fill:#ff6600;stroke:none;stroke-width:0.26458332px;stroke-linecap:butt;stroke-linejoin:miter;stroke-opacity:1" />
      </g>
      <path
         d="m 78.845833,101.20833 -4.582718,-2.645833 v -5.291666 l 4.582718,-2.645833 4.582717,2.645833 v 5.291666 z"
         id="path4671"
         style="opacity:1;fill:#ff6600;fill-opacity:1;stroke:none;stroke-width:0.26458332" />
      <path
         transform="matrix(0.94729327,-1.274616,1.0295753,1.1727506,-98.356248,87.506876)"
         d="m 83.608335,99.620834 2.319854,-2.397701 0.916543,3.207907 z"
         id="path4673"
         style="opacity:1;fill:#ff6600;fill-opacity:1;stroke:none;stroke-width:0.26458332" />
      <path
         transform="matrix(1.141627,0.11210349,-0.08749549,1.2944633,-2.2020547,-37.413635)"
         d="m 74.536294,98.196559 -3.844516,-2.340158 3.948894,-2.159369 z"
         id="path4675"
         style="opacity:1;fill:#ff6600;fill-opacity:1;stroke:none;stroke-width:0.26458332" />
    </g>
    <path
       style="opacity:1;fill:#333333;fill-opacity:1;stroke:none;stroke-width:0.40745068"
       d="m 457.97263,570.35612 c -18.79507,-2.12161 -40.18257,-11.27811 -71.63974,-30.67068 -8.13959,-5.01787 -8.02372,-4.97631 -9.49602,-3.40625 -1.98328,2.11498 -9.29175,8.28788 -11.94887,10.09229 -7.55689,5.13179 -13.40276,5.68891 -14.83103,1.41342 -1.63872,-4.90546 5.4376,-28.95935 18.84332,-64.05245 9.54282,-24.98091 28.41577,-70.80369 29.41653,-71.42219 0.22811,-0.14098 0.37499,-0.42288 0.3264,-0.62644 -0.0486,-0.20356 0.0318,-0.82849 0.17857,-1.38874 0.14681,-0.56024 0.45269,-8.53609 0.67974,-17.7241 0.63732,-25.79 1.66538,-38.59108 4.07232,-50.7069 4.32594,-21.77558 13.30666,-33.82393 30.11939,-40.40761 16.87389,-6.60764 39.99439,-8.13907 57.78976,-3.82784 20.7168,5.019 32.64507,17.2536 38.14208,39.1216 3.4588,13.75967 4.66657,26.50558 4.98055,52.56114 0.20469,16.98608 0.39447,21.14579 0.94912,20.80299 0.62648,-0.38718 21.06718,49.83231 30.13912,74.04694 11.92704,31.8354 17.56985,50.7662 17.56985,58.9443 0,2.59002 -0.1133,3.01447 -1.03188,3.86578 -3.15357,2.92263 -9.30891,0.77622 -18.04824,-6.29354 -2.16747,-1.75339 -5.03522,-4.30389 -6.3728,-5.66777 -1.33757,-1.36388 -2.56841,-2.47978 -2.7352,-2.47978 -0.16679,0 -5.21474,3.17625 -11.21765,7.05833 -6.00292,3.88209 -13.48133,8.58639 -16.6187,10.45401 -26.52636,15.79064 -49.54126,22.54011 -69.26662,20.31349 z m 19.96508,-32.86866 c 5.28911,-1.14072 8.32959,-2.22946 13.85333,-4.9606 18.43404,-9.11449 30.90578,-28.24854 32.34892,-49.62947 0.94243,-13.9626 -2.58151,-27.3736 -10.20264,-38.82794 -3.0137,-4.52952 -10.61003,-12.34927 -14.86401,-15.30119 l -2.90399,-2.01514 0.75119,-1.40422 c 0.41315,-0.77232 1.12926,-2.38761 1.59134,-3.58952 1.00562,-2.61573 1.41642,-1.9763 -5.09101,-7.92451 -5.72644,-5.23434 -11.15932,-9.40512 -14.87195,-11.41709 -10.91899,-5.91728 -20.15604,-3.88649 -33.81841,7.43508 -3.40229,2.81937 -10.37133,9.1079 -10.53264,9.50415 -0.0784,0.19273 0.9084,1.72266 2.19301,3.39982 1.28461,1.67718 2.26556,3.10249 2.1799,3.16736 -0.0857,0.0649 -1.43922,0.95947 -3.00791,1.98798 -15.62369,10.24371 -25.66261,28.29897 -26.56551,47.77875 -1.32187,28.5191 16.86115,54.02186 43.57738,61.11985 2.07246,0.55061 5.05159,1.17715 6.62027,1.39232 4.35042,0.59669 14.44506,0.21127 18.74273,-0.71563 z m 70.79456,-4.85226 c -1.62471,-0.0773 -4.28333,-0.0773 -5.90804,0 -1.62471,0.0773 -0.2954,0.14062 2.95402,0.14062 3.24942,0 4.57873,-0.0633 2.95402,-0.14062 z m -16.9092,-125.06569 c -0.39218,-0.10248 -1.03391,-0.10248 -1.42608,0 -0.39217,0.10248 -0.0713,0.18634 0.71304,0.18634 0.78434,0 1.10521,-0.0839 0.71304,-0.18634 z"
       id="path4722"
       transform="scale(0.26458333)" />
    <rect
       style="opacity:1;fill:#333333;fill-opacity:1;stroke:none;stroke-width:0.26458332"
       id="rect4846"
       width="1.3815778"
       height="1.2520549"
       x="139.81281"
       y="107.16256" />
    <g
       id="g4877">
      <path
         style="opacity:1;fill:#e6e6e6;fill-opacity:1;stroke:none;stroke-width:0.26458332"
         id="path4860"
         d="m 133.36974,95.882912 a 3.0704114,3.0704114 0 0 1 -3.05741,3.070384 3.0704114,3.0704114 0 0 1 -3.0833,-3.044394 3.0704114,3.0704114 0 0 1 3.03132,-3.096154 3.0704114,3.0704114 0 0 1 3.10895,3.018185" />
      <g
         transform="matrix(0.80841168,0,0,1,68.549895,-7.3051882)"
         id="g4864">
        <path
           d="m 77.375031,103.39364 a 1.6372987,1.2321938 0 0 1 -1.630369,1.23218 1.6372987,1.2321938 0 0 1 -1.64417,-1.22175 1.6372987,1.2321938 0 0 1 1.616451,-1.24253 1.6372987,1.2321938 0 0 1 1.657853,1.21124"
           id="path4862"
           style="opacity:1;fill:#000000;fill-opacity:1;stroke:none;stroke-width:0.26458332" />
      </g>
    </g>
    <g
       id="g4885"
       transform="matrix(-1,0,0,1,248.68829,0.27470384)">
      <path
         d="m 133.36974,95.882912 a 3.0704114,3.0704114 0 0 1 -3.05741,3.070384 3.0704114,3.0704114 0 0 1 -3.0833,-3.044394 3.0704114,3.0704114 0 0 1 3.03132,-3.096154 3.0704114,3.0704114 0 0 1 3.10895,3.018185"
         id="path4879"
         style="opacity:1;fill:#e6e6e6;fill-opacity:1;stroke:none;stroke-width:0.26458332" />
      <g
         id="g4883"
         transform="matrix(0.80841168,0,0,1,68.549895,-7.3051882)">
        <path
           style="opacity:1;fill:#000000;fill-opacity:1;stroke:none;stroke-width:0.26458332"
           id="path4881"
           d="m 77.375031,103.39364 a 1.6372987,1.2321938 0 0 1 -1.630369,1.23218 1.6372987,1.2321938 0 0 1 -1.64417,-1.22175 1.6372987,1.2321938 0 0 1 1.616451,-1.24253 1.6372987,1.2321938 0 0 1 1.657853,1.21124" />
      </g>
    </g>
  </g>
  <g
     transform="matrix(1.0806343,0,0,1.922088,139.29844,-279.97716)"
     id="g1172">
    <g
       id="text1156"
       style="font-style:normal;font-weight:normal;font-size:10.58333397px;line-height:1.25;font-family:sans-serif;letter-spacing:0px;word-spacing:0px;fill:#aa4400;fill-opacity:1;stroke:#aa4400;stroke-width:1.32291663;stroke-linecap:round;stroke-linejoin:round;stroke-miterlimit:4;stroke-dasharray:none"
       aria-label="Install   VirtualBoxinDebian   Buster">
      <path
         id="path937"
         style="font-style:normal;font-variant:normal;font-weight:normal;font-stretch:normal;font-family:'Sansita One';-inkscape-font-specification:'Sansita One';text-align:center;text-anchor:middle;fill:#aa4400;stroke:#aa4400;stroke-width:1.32291663;stroke-linecap:round;stroke-linejoin:round;stroke-miterlimit:4;stroke-dasharray:none"
         d="m -50.153593,167.17456 1.344084,-6.985 h 2.328333 l -1.36525,6.985 z" />
      <path
         id="path939"
         style="font-style:normal;font-variant:normal;font-weight:normal;font-stretch:normal;font-family:'Sansita One';-inkscape-font-specification:'Sansita One';text-align:center;text-anchor:middle;fill:#aa4400;stroke:#aa4400;stroke-width:1.32291663;stroke-linecap:round;stroke-linejoin:round;stroke-miterlimit:4;stroke-dasharray:none"
         d="m -41.777711,167.38623 q -1.280583,0 -1.280583,-0.99484 0.01058,-0.27516 0.09525,-0.74083 l 0.1905,-0.97367 q 0.28575,-1.37583 0.28575,-1.68275 0,-0.61383 -0.359834,-0.61383 -0.60325,0 -0.92075,1.57692 l -0.624416,3.21733 -2.12725,0.21167 1.100666,-5.61975 1.735667,-0.20109 -0.169333,1.03717 q 0.497416,-1.03717 2.021417,-1.03717 0.740833,0 1.04775,0.3175 0.3175,0.30692 0.3175,1.00542 0,0.65617 -0.338667,2.19075 -0.15875,0.68792 -0.15875,0.9525 0,0.254 0.137583,0.40217 0.148167,0.14816 0.359834,0.16933 -0.105834,0.35983 -0.47625,0.5715 -0.359834,0.21167 -0.836084,0.21167 z" />
      <path
         id="path941"
         style="font-style:normal;font-variant:normal;font-weight:normal;font-stretch:normal;font-family:'Sansita One';-inkscape-font-specification:'Sansita One';text-align:center;text-anchor:middle;fill:#aa4400;stroke:#aa4400;stroke-width:1.32291663;stroke-linecap:round;stroke-linejoin:round;stroke-miterlimit:4;stroke-dasharray:none"
         d="m -36.45479,163.45981 q 0.148167,-0.39158 0.148167,-0.73025 0,-0.62442 -0.508,-0.62442 -0.264583,0 -0.486833,0.24342 -0.211667,0.23283 -0.211667,0.52917 0,0.21166 0.169333,0.381 0.243417,0.23283 0.867834,0.61383 0.624416,0.381 0.85725,0.6985 0.243417,0.30692 0.243417,0.74083 0,0.42334 -0.211667,0.81492 -0.201084,0.39158 -0.5715,0.66675 -0.79375,0.59267 -2.06375,0.59267 -0.687917,0 -1.217084,-0.35984 -0.529166,-0.34925 -0.529166,-0.762 0,-0.41275 0.296333,-0.65616 0.306917,-0.24342 0.751417,-0.24342 0.4445,0 0.719666,0.16933 -0.137583,0.34925 -0.137583,0.58209 0,0.6985 0.592667,0.6985 0.254,0 0.423333,-0.15875 0.169333,-0.15875 0.169333,-0.43392 0,-0.53975 -0.910166,-1.11125 -0.740834,-0.48683 -0.910167,-0.67733 -0.28575,-0.33867 -0.28575,-0.762 0,-0.42334 0.201083,-0.8255 0.201084,-0.40217 0.5715,-0.68792 0.772584,-0.59267 2.116667,-0.59267 0.687917,0 1.090084,0.27517 0.41275,0.27517 0.41275,0.74083 0,0.46567 -0.28575,0.73025 -0.275167,0.26459 -0.783167,0.26459 -0.34925,0 -0.518584,-0.11642 z" />
      <path
         id="path943"
         style="font-style:normal;font-variant:normal;font-weight:normal;font-stretch:normal;font-family:'Sansita One';-inkscape-font-specification:'Sansita One';text-align:center;text-anchor:middle;fill:#aa4400;stroke:#aa4400;stroke-width:1.32291663;stroke-linecap:round;stroke-linejoin:round;stroke-miterlimit:4;stroke-dasharray:none"
         d="m -34.3029,166.11623 q 0,-0.28575 0.148166,-1.00542 l 0.560917,-2.8575 h -0.624417 l 0.04233,-0.3175 q 1.27,-0.381 2.497666,-1.31233 h 0.508 l -0.254,1.15358 h 0.8255 l -0.09525,0.47625 H -31.5089 l -0.53975,2.8575 q -0.137584,0.65617 -0.137584,0.87842 0,0.508 0.4445,0.61383 -0.105833,0.35983 -0.486833,0.5715 -0.381,0.21167 -0.92075,0.21167 -0.53975,0 -0.846667,-0.33867 -0.306916,-0.33867 -0.306916,-0.93133 z" />
      <path
         id="path945"
         style="font-style:normal;font-variant:normal;font-weight:normal;font-stretch:normal;font-family:'Sansita One';-inkscape-font-specification:'Sansita One';text-align:center;text-anchor:middle;fill:#aa4400;stroke:#aa4400;stroke-width:1.32291663;stroke-linecap:round;stroke-linejoin:round;stroke-miterlimit:4;stroke-dasharray:none"
         d="m -30.234435,166.85706 q -0.243416,-0.27517 -0.359833,-0.70908 -0.105833,-0.43392 -0.105833,-1.143 0,-0.70909 0.243416,-1.35467 0.243417,-0.64558 0.687917,-1.11125 0.910167,-0.97367 2.413,-0.97367 0.53975,0 0.931334,0.17992 l 1.80975,-0.17992 -0.783167,4.1275 q -0.03175,0.127 -0.03175,0.35984 0,0.23283 0.137583,0.381 0.148167,0.14816 0.359834,0.16933 -0.105834,0.35983 -0.497417,0.5715 -0.381,0.21167 -0.814917,0.21167 -0.433916,0 -0.73025,-0.16934 -0.28575,-0.15875 -0.370416,-0.43391 -0.169334,0.26458 -0.529167,0.43391 -0.359833,0.16934 -0.846667,0.16934 -0.47625,0 -0.867833,-0.127 -0.391584,-0.127 -0.645584,-0.40217 z m 2.233084,-4.29683 q -0.116417,0.1905 -0.22225,0.51858 -0.105833,0.3175 -0.28575,1.18533 -0.169334,0.85725 -0.169334,1.47109 0,0.61383 0.09525,0.79375 0.09525,0.17991 0.264584,0.17991 0.338667,0 0.582083,-0.3175 0.254,-0.32808 0.34925,-0.89958 l 0.560917,-3.10092 q -0.22225,-0.1905 -0.486833,-0.1905 -0.254,0 -0.41275,0.0847 -0.148167,0.0847 -0.275167,0.27517 z" />
      <path
         id="path947"
         style="font-style:normal;font-variant:normal;font-weight:normal;font-stretch:normal;font-family:'Sansita One';-inkscape-font-specification:'Sansita One';text-align:center;text-anchor:middle;fill:#aa4400;stroke:#aa4400;stroke-width:1.32291663;stroke-linecap:round;stroke-linejoin:round;stroke-miterlimit:4;stroke-dasharray:none"
         d="m -21.504177,166.59248 q -0.328084,0.79375 -1.375834,0.79375 -0.529166,0 -0.867833,-0.37042 -0.275167,-0.30692 -0.275167,-0.65617 0,-0.79375 0.370417,-2.52941 l 0.772583,-4.064 2.148417,-0.21167 -1.026583,5.35517 q -0.179917,0.78316 -0.179917,1.05833 0,0.60325 0.433917,0.62442 z" />
      <path
         id="path949"
         style="font-style:normal;font-variant:normal;font-weight:normal;font-stretch:normal;font-family:'Sansita One';-inkscape-font-specification:'Sansita One';text-align:center;text-anchor:middle;fill:#aa4400;stroke:#aa4400;stroke-width:1.32291663;stroke-linecap:round;stroke-linejoin:round;stroke-miterlimit:4;stroke-dasharray:none"
         d="m -18.072861,166.59248 q -0.328083,0.79375 -1.375833,0.79375 -0.529167,0 -0.867834,-0.37042 -0.275166,-0.30692 -0.275166,-0.65617 0,-0.79375 0.370416,-2.52941 l 0.772584,-4.064 2.148416,-0.21167 -1.026583,5.35517 q -0.179917,0.78316 -0.179917,1.05833 0,0.60325 0.433917,0.62442 z" />
      <path
         id="path951"
         style="font-style:normal;font-variant:normal;font-weight:normal;font-stretch:normal;font-family:'Sansita One';-inkscape-font-specification:'Sansita One';text-align:center;text-anchor:middle;fill:#aa4400;stroke:#aa4400;stroke-width:1.32291663;stroke-linecap:round;stroke-linejoin:round;stroke-miterlimit:4;stroke-dasharray:none"
         d="m -10.395148,160.61289 q 0.306917,-0.635 1.1535838,-0.635 0.8572501,0 1.2488335,0.49742 0.4021666,0.48683 0.4021666,1.61925 v 3.77825 l 2.5717502,-5.67267 h 1.2594167 l -3.2914168,6.97442 h -2.4765002 l -0.3175,-5.08 q -0.03175,-0.56092 -0.1904998,-0.94192 -0.148167,-0.381 -0.359834,-0.53975 z" />
      <path
         id="path953"
         style="font-style:normal;font-variant:normal;font-weight:normal;font-stretch:normal;font-family:'Sansita One';-inkscape-font-specification:'Sansita One';text-align:center;text-anchor:middle;fill:#aa4400;stroke:#aa4400;stroke-width:1.32291663;stroke-linecap:round;stroke-linejoin:round;stroke-miterlimit:4;stroke-dasharray:none"
         d="m -1.6498402,166.59248 q -0.3280833,0.79375 -1.3758334,0.79375 -0.53975,0 -0.8784167,-0.37042 -0.28575,-0.32808 -0.28575,-0.65617 0,-0.85725 0.3915833,-2.52941 l 0.3915834,-2.05317 2.1484168,-0.21167 -0.6455834,3.34434 q -0.1799166,0.78316 -0.1799166,1.05833 0,0.60325 0.4339166,0.62442 z m -1.5663334,-6.2865 q 0,-0.41275 0.3386667,-0.635 0.34925,-0.22225 0.8466667,-0.22225 0.4974167,0 0.7937501,0.22225 0.30691665,0.22225 0.30691665,0.635 0,0.41275 -0.33866665,0.62441 -0.3280834,0.21167 -0.8255001,0.21167 -0.4974167,0 -0.8149167,-0.21167 -0.3069167,-0.21166 -0.3069167,-0.62441 z" />
      <path
         id="path955"
         style="font-style:normal;font-variant:normal;font-weight:normal;font-stretch:normal;font-family:'Sansita One';-inkscape-font-specification:'Sansita One';text-align:center;text-anchor:middle;fill:#aa4400;stroke:#aa4400;stroke-width:1.32291663;stroke-linecap:round;stroke-linejoin:round;stroke-miterlimit:4;stroke-dasharray:none"
         d="m 2.5540558,164.20064 q 0.381,-0.67733 0.381,-1.36525 0,-0.45508 -0.3280833,-0.45508 -0.2540001,0 -0.5185834,0.43392 -0.2751667,0.43391 -0.3598334,0.99483 l -0.5503333,3.3655 -2.1907502,0.21167 1.0795001,-5.60917 1.7462501,-0.21167 -0.1905,1.06892 q 0.5185834,-1.06892 1.6827501,-1.06892 0.6138334,0 0.9419167,0.3175 0.3386667,0.3175 0.3386667,0.97367 0,0.64558 -0.4339167,1.05833 -0.4233333,0.41275 -1.1535834,0.41275 -0.3175,0 -0.4445,-0.127 z" />
      <path
         id="path957"
         style="font-style:normal;font-variant:normal;font-weight:normal;font-stretch:normal;font-family:'Sansita One';-inkscape-font-specification:'Sansita One';text-align:center;text-anchor:middle;fill:#aa4400;stroke:#aa4400;stroke-width:1.32291663;stroke-linecap:round;stroke-linejoin:round;stroke-miterlimit:4;stroke-dasharray:none"
         d="m 4.9298486,166.11623 q 0,-0.28575 0.1481666,-1.00542 l 0.5609167,-2.8575 H 5.0145152 l 0.042333,-0.3175 q 1.27,-0.381 2.4976668,-1.31233 h 0.508 l -0.254,1.15358 h 0.8255001 l -0.09525,0.47625 H 7.7238487 l -0.53975,2.8575 q -0.1375833,0.65617 -0.1375833,0.87842 0,0.508 0.4445,0.61383 -0.1058334,0.35983 -0.4868334,0.5715 -0.381,0.21167 -0.92075,0.21167 -0.5397501,0 -0.8466667,-0.33867 -0.3069167,-0.33867 -0.3069167,-0.93133 z" />
      <path
         id="path959"
         style="font-style:normal;font-variant:normal;font-weight:normal;font-stretch:normal;font-family:'Sansita One';-inkscape-font-specification:'Sansita One';text-align:center;text-anchor:middle;fill:#aa4400;stroke:#aa4400;stroke-width:1.32291663;stroke-linecap:round;stroke-linejoin:round;stroke-miterlimit:4;stroke-dasharray:none"
         d="m 11.981824,166.73006 q -0.508,0.65617 -1.767417,0.65617 -0.6561665,0 -1.1324165,-0.39159 -0.4762501,-0.40216 -0.4762501,-0.97366 0,-0.3175 0.03175,-0.47625 l 0.7090834,-3.76767 2.1484172,-0.21167 -0.772584,4.08517 q -0.04233,0.23283 -0.04233,0.37042 0,0.61383 0.370417,0.61383 0.41275,0 0.709083,-0.56092 0.09525,-0.17991 0.137583,-0.41275 l 0.751417,-3.88408 2.084917,-0.21167 -0.783167,4.1275 q -0.03175,0.15875 -0.03175,0.32809 0,0.16933 0.09525,0.35983 0.09525,0.17992 0.402167,0.22225 -0.0635,0.254 -0.28575,0.42333 -0.465667,0.35984 -0.973667,0.35984 -0.497417,0 -0.79375,-0.17992 -0.296333,-0.17992 -0.381,-0.47625 z" />
      <path
         id="path961"
         style="font-style:normal;font-variant:normal;font-weight:normal;font-stretch:normal;font-family:'Sansita One';-inkscape-font-specification:'Sansita One';text-align:center;text-anchor:middle;fill:#aa4400;stroke:#aa4400;stroke-width:1.32291663;stroke-linecap:round;stroke-linejoin:round;stroke-miterlimit:4;stroke-dasharray:none"
         d="m 15.716255,166.85706 q -0.243417,-0.27517 -0.359834,-0.70908 -0.105833,-0.43392 -0.105833,-1.143 0,-0.70909 0.243417,-1.35467 0.243416,-0.64558 0.687916,-1.11125 0.910167,-0.97367 2.413001,-0.97367 0.53975,0 0.931333,0.17992 l 1.80975,-0.17992 -0.783167,4.1275 q -0.03175,0.127 -0.03175,0.35984 0,0.23283 0.137584,0.381 0.148166,0.14816 0.359833,0.16933 -0.105833,0.35983 -0.497417,0.5715 -0.381,0.21167 -0.814916,0.21167 -0.433917,0 -0.73025,-0.16934 -0.28575,-0.15875 -0.370417,-0.43391 -0.169333,0.26458 -0.529167,0.43391 -0.359833,0.16934 -0.846667,0.16934 -0.47625,0 -0.867833,-0.127 -0.391583,-0.127 -0.645583,-0.40217 z m 2.233083,-4.29683 q -0.116416,0.1905 -0.22225,0.51858 -0.105833,0.3175 -0.28575,1.18533 -0.169333,0.85725 -0.169333,1.47109 0,0.61383 0.09525,0.79375 0.09525,0.17991 0.264583,0.17991 0.338667,0 0.582084,-0.3175 0.254,-0.32808 0.34925,-0.89958 l 0.560916,-3.10092 q -0.22225,-0.1905 -0.486833,-0.1905 -0.254,0 -0.41275,0.0847 -0.148167,0.0847 -0.275167,0.27517 z" />
      <path
         id="path963"
         style="font-style:normal;font-variant:normal;font-weight:normal;font-stretch:normal;font-family:'Sansita One';-inkscape-font-specification:'Sansita One';text-align:center;text-anchor:middle;fill:#aa4400;stroke:#aa4400;stroke-width:1.32291663;stroke-linecap:round;stroke-linejoin:round;stroke-miterlimit:4;stroke-dasharray:none"
         d="m 24.44651,166.59248 q -0.328083,0.79375 -1.375833,0.79375 -0.529167,0 -0.867834,-0.37042 -0.275166,-0.30692 -0.275166,-0.65617 0,-0.79375 0.370416,-2.52941 l 0.772584,-4.064 2.148416,-0.21167 -1.026583,5.35517 q -0.179917,0.78316 -0.179917,1.05833 0,0.60325 0.433917,0.62442 z" />
      <path
         id="path965"
         style="font-style:normal;font-variant:normal;font-weight:normal;font-stretch:normal;font-family:'Sansita One';-inkscape-font-specification:'Sansita One';text-align:center;text-anchor:middle;fill:#aa4400;stroke:#aa4400;stroke-width:1.32291663;stroke-linecap:round;stroke-linejoin:round;stroke-miterlimit:4;stroke-dasharray:none"
         d="m 25.242573,167.12164 1.3335,-6.93208 q 1.248833,-0.10583 2.053166,-0.10583 0.804334,0 1.322917,0.0741 0.518583,0.0635 0.867834,0.24342 0.6985,0.33866 0.6985,1.27 0,0.53975 -0.465667,0.99483 -0.433917,0.41275 -0.910167,0.508 0.508,0.0847 0.867834,0.46567 0.381,0.40216 0.381,1.02658 0,1.2065 -0.899584,1.91558 -0.899583,0.6985 -2.667,0.6985 -1.217083,0 -2.582333,-0.15875 z m 2.3495,-0.61383 q 0.09525,0.0106 0.116416,0.0106 h 0.09525 q 0.867834,0 1.23825,-0.5715 0.275167,-0.4445 0.275167,-1.25941 0,-0.43392 -0.28575,-0.66675 -0.275167,-0.23284 -0.910167,-0.254 z m 2.137833,-4.826 q 0,-0.87842 -0.846667,-0.87842 h -0.09525 q -0.04233,0 -0.105833,0.0106 l -0.423333,2.23308 h 0.105833 q 1.36525,-0.0317 1.36525,-1.36525 z" />
      <path
         id="path967"
         style="font-style:normal;font-variant:normal;font-weight:normal;font-stretch:normal;font-family:'Sansita One';-inkscape-font-specification:'Sansita One';text-align:center;text-anchor:middle;fill:#aa4400;stroke:#aa4400;stroke-width:1.32291663;stroke-linecap:round;stroke-linejoin:round;stroke-miterlimit:4;stroke-dasharray:none"
         d="m 34.394182,167.38623 q -2.328334,0 -2.328334,-2.19075 0,-1.55575 0.857251,-2.56117 0.910166,-1.06892 2.487083,-1.06892 1.143,0 1.725083,0.52917 0.582084,0.52917 0.582084,1.64042 0,1.69333 -0.910167,2.67758 -0.889,0.97367 -2.413,0.97367 z m 0.275167,-4.60375 q -0.127,0.28575 -0.232834,0.71966 -0.09525,0.42334 -0.22225,1.10067 -0.127,0.67733 -0.127,1.51342 0,0.27516 0.08467,0.45508 0.09525,0.17992 0.338667,0.17992 0.243416,0 0.391583,-0.11642 0.15875,-0.11642 0.275167,-0.39158 0.211666,-0.48684 0.381,-1.38642 0.169333,-0.91017 0.179916,-1.30175 0.02117,-0.39158 0.02117,-0.67733 0,-0.29634 -0.08467,-0.48684 -0.08467,-0.1905 -0.328083,-0.1905 -0.232833,0 -0.391583,0.14817 -0.15875,0.14817 -0.28575,0.43392 z" />
      <path
         id="path969"
         style="font-style:normal;font-variant:normal;font-weight:normal;font-stretch:normal;font-family:'Sansita One';-inkscape-font-specification:'Sansita One';text-align:center;text-anchor:middle;fill:#aa4400;stroke:#aa4400;stroke-width:1.32291663;stroke-linecap:round;stroke-linejoin:round;stroke-miterlimit:4;stroke-dasharray:none"
         d="m 39.716446,167.20631 q -0.338667,0.17992 -0.804333,0.17992 -0.465667,0 -0.719667,-0.23284 -0.254,-0.24341 -0.254,-0.6985 0,-0.46566 0.3175,-0.91016 0.328083,-0.45509 0.804333,-0.70909 0.486834,-0.254 0.8255,-0.40216 l -0.66675,-1.53459 q -0.179916,-0.39158 -0.518583,-0.39158 l -0.08467,0.0106 h -0.03175 q 0.0635,-0.37041 0.497417,-0.65616 0.433917,-0.29634 0.931333,-0.29634 0.804334,0 1.174751,0.80434 l 0.08467,0.16933 0.455084,1.12183 q 0.28575,-0.127 0.402166,-0.35983 0.127,-0.24342 0.127,-0.70908 0,-0.47625 -0.254,-0.77259 0.402167,-0.254 0.931334,-0.254 0.9525,0 0.9525,0.92075 0,1.00542 -1.259417,1.5875 l -0.635,0.29634 0.5715,1.47108 q 0.169333,0.4445 0.47625,0.635 0.127,0.0847 0.275167,0.0953 -0.3175,0.51858 -1.005417,0.75142 -0.211667,0.0635 -0.497417,0.0635 -0.28575,0 -0.613833,-0.20109 -0.328083,-0.1905 -0.4445,-0.49741 l -0.582084,-1.51342 q -0.592666,0.26458 -0.592666,1.22767 0,0.4445 0.137583,0.80433 z" />
      <path
         id="path971"
         style="font-style:normal;font-variant:normal;font-weight:normal;font-stretch:normal;font-family:'Sansita One';-inkscape-font-specification:'Sansita One';text-align:center;text-anchor:middle;fill:#aa4400;stroke:#aa4400;stroke-width:1.32291663;stroke-linecap:round;stroke-linejoin:round;stroke-miterlimit:4;stroke-dasharray:none"
         d="m -5.4222223,180.02035 q -0.3280833,0.79375 -1.3758334,0.79375 -0.53975,0 -0.8784167,-0.37042 -0.28575,-0.32808 -0.28575,-0.65616 0,-0.85725 0.3915833,-2.52942 l 0.3915834,-2.05317 2.1484168,-0.21166 -0.6455834,3.34433 q -0.1799167,0.78317 -0.1799167,1.05833 0,0.60325 0.4339167,0.62442 z m -1.5663334,-6.2865 q 0,-0.41275 0.3386667,-0.635 0.34925,-0.22225 0.8466667,-0.22225 0.4974167,0 0.7937501,0.22225 0.3069166,0.22225 0.3069166,0.635 0,0.41275 -0.3386666,0.62442 -0.3280834,0.21166 -0.8255001,0.21166 -0.4974167,0 -0.8149167,-0.21166 -0.3069167,-0.21167 -0.3069167,-0.62442 z" />
      <path
         id="path973"
         style="font-style:normal;font-variant:normal;font-weight:normal;font-stretch:normal;font-family:'Sansita One';-inkscape-font-specification:'Sansita One';text-align:center;text-anchor:middle;fill:#aa4400;stroke:#aa4400;stroke-width:1.32291663;stroke-linecap:round;stroke-linejoin:round;stroke-miterlimit:4;stroke-dasharray:none"
         d="m -0.05415673,180.8141 q -1.28058337,0 -1.28058337,-0.99483 0.010583,-0.27517 0.09525,-0.74084 l 0.1905,-0.97366 q 0.28574999,-1.37584 0.28574999,-1.68275 0,-0.61384 -0.35983339,-0.61384 -0.60325,0 -0.92075,1.57692 l -0.6244167,3.21733 -2.1272502,0.21167 1.1006668,-5.61975 1.7356668,-0.20108 -0.1693334,1.03716 q 0.4974167,-1.03716 2.0214168,-1.03716 0.74083338,0 1.04775006,0.3175 0.31750004,0.30691 0.31750004,1.00541 0,0.65617 -0.33866671,2.19075 -0.15875001,0.68792 -0.15875001,0.9525 0,0.254 0.13758334,0.40217 0.14816668,0.14817 0.35983338,0.16933 -0.1058334,0.35984 -0.47625005,0.5715 -0.35983335,0.21167 -0.83608338,0.21167 z" />
      <path
         id="path975"
         style="font-style:normal;font-variant:normal;font-weight:normal;font-stretch:normal;font-family:'Sansita One';-inkscape-font-specification:'Sansita One';text-align:center;text-anchor:middle;fill:#aa4400;stroke:#aa4400;stroke-width:1.32291663;stroke-linecap:round;stroke-linejoin:round;stroke-miterlimit:4;stroke-dasharray:none"
         d="m -34.197563,189.63819 q 0,4.5085 -4.8895,4.5085 -0.783167,0 -2.074334,-0.1905 l 1.185333,-6.25475 q 0.08467,-0.42333 0.137584,-0.66675 1.608667,-0.11642 2.31775,-0.11642 0.719667,0 1.375833,0.14817 0.656167,0.14817 1.090084,0.47625 0.85725,0.64558 0.85725,2.0955 z m -2.180167,-0.39158 q 0,-1.57692 -1.132417,-1.57692 h -0.105833 q -0.05292,0 -0.105833,0.0106 l -1.090084,5.68325 q 0.04233,0.0212 0.08467,0.0212 h 0.08467 q 0.391583,0 0.79375,-0.24342 0.41275,-0.24341 0.73025,-0.74083 0.740833,-1.15358 0.740833,-3.15383 z" />
      <path
         id="path977"
         style="font-style:normal;font-variant:normal;font-weight:normal;font-stretch:normal;font-family:'Sansita One';-inkscape-font-specification:'Sansita One';text-align:center;text-anchor:middle;fill:#aa4400;stroke:#aa4400;stroke-width:1.32291663;stroke-linecap:round;stroke-linejoin:round;stroke-miterlimit:4;stroke-dasharray:none"
         d="m -29.379831,192.24169 q 0.264583,0.17992 0.264583,0.58208 0,0.39159 -0.201083,0.64559 -0.201084,0.254 -0.529167,0.42333 -0.677333,0.34925 -1.407583,0.34925 -0.73025,0 -1.164167,-0.15875 -0.423333,-0.15875 -0.709083,-0.45508 -0.560917,-0.56092 -0.560917,-1.5875 0,-1.59809 0.867833,-2.57175 0.931334,-1.04775 2.550584,-1.04775 1.005416,0 1.502833,0.42333 0.370417,0.3175 0.370417,0.83608 0,1.86267 -3.217334,1.86267 -0.04233,0.27517 -0.04233,0.508 0,0.48683 0.211667,0.67733 0.22225,0.17992 0.624416,0.17992 0.402167,0 0.8255,-0.17992 0.433917,-0.1905 0.613834,-0.48683 z m -2.159,-1.15358 q 0.751416,0 1.185333,-0.46567 0.433917,-0.4445 0.433917,-1.15358 0,-0.24342 -0.09525,-0.37042 -0.08467,-0.13758 -0.264584,-0.13758 -0.179916,0 -0.338666,0.0741 -0.148167,0.0635 -0.306917,0.29633 -0.391583,0.52917 -0.613833,1.75684 z" />
      <path
         id="path979"
         style="font-style:normal;font-variant:normal;font-weight:normal;font-stretch:normal;font-family:'Sansita One';-inkscape-font-specification:'Sansita One';text-align:center;text-anchor:middle;fill:#aa4400;stroke:#aa4400;stroke-width:1.32291663;stroke-linecap:round;stroke-linejoin:round;stroke-miterlimit:4;stroke-dasharray:none"
         d="m -28.181269,193.52227 1.312333,-6.90033 2.148417,-0.21167 -0.328083,1.61925 q -0.116417,0.49742 -0.264584,0.84667 0.232834,-0.29633 0.740834,-0.41275 0.148166,-0.0423 0.328083,-0.0423 0.98425,0 1.524,0.60325 0.53975,0.59266 0.53975,1.74625 0,1.50283 -0.85725,2.44475 -0.92075,1.02658 -2.592917,1.02658 -1.153583,0 -2.021417,-0.381 -0.306916,-0.13758 -0.529166,-0.33867 z m 2.12725,-0.0952 q 0.22225,0.1905 0.497416,0.1905 0.275167,0 0.433917,-0.10583 0.15875,-0.10583 0.275167,-0.3175 0.3175,-0.5715 0.5715,-2.31775 0.07408,-0.49742 0.07408,-0.99483 0,-0.49742 -0.116416,-0.65617 -0.105834,-0.15875 -0.3175,-0.15875 -0.645584,0 -0.857251,1.25942 z" />
      <path
         id="path981"
         style="font-style:normal;font-variant:normal;font-weight:normal;font-stretch:normal;font-family:'Sansita One';-inkscape-font-specification:'Sansita One';text-align:center;text-anchor:middle;fill:#aa4400;stroke:#aa4400;stroke-width:1.32291663;stroke-linecap:round;stroke-linejoin:round;stroke-miterlimit:4;stroke-dasharray:none"
         d="m -19.013125,193.44819 q -0.328084,0.79375 -1.375834,0.79375 -0.53975,0 -0.878416,-0.37042 -0.28575,-0.32808 -0.28575,-0.65616 0,-0.85725 0.391583,-2.52942 l 0.391583,-2.05317 2.148417,-0.21166 -0.645583,3.34433 q -0.179917,0.78317 -0.179917,1.05833 0,0.60325 0.433917,0.62442 z m -1.566334,-6.2865 q 0,-0.41275 0.338667,-0.635 0.34925,-0.22225 0.846667,-0.22225 0.497416,0 0.79375,0.22225 0.306916,0.22225 0.306916,0.635 0,0.41275 -0.338666,0.62442 -0.328084,0.21166 -0.8255,0.21166 -0.497417,0 -0.814917,-0.21166 -0.306917,-0.21167 -0.306917,-0.62442 z" />
      <path
         id="path983"
         style="font-style:normal;font-variant:normal;font-weight:normal;font-stretch:normal;font-family:'Sansita One';-inkscape-font-specification:'Sansita One';text-align:center;text-anchor:middle;fill:#aa4400;stroke:#aa4400;stroke-width:1.32291663;stroke-linecap:round;stroke-linejoin:round;stroke-miterlimit:4;stroke-dasharray:none"
         d="m -17.666728,193.71277 q -0.243416,-0.27516 -0.359833,-0.70908 -0.105833,-0.43392 -0.105833,-1.143 0,-0.70908 0.243416,-1.35467 0.243417,-0.64558 0.687917,-1.11125 0.910167,-0.97366 2.413,-0.97366 0.53975,0 0.931334,0.17991 l 1.80975,-0.17991 -0.783167,4.1275 q -0.03175,0.127 -0.03175,0.35983 0,0.23283 0.137583,0.381 0.148167,0.14817 0.359834,0.16933 -0.105834,0.35984 -0.497417,0.5715 -0.381,0.21167 -0.814917,0.21167 -0.433916,0 -0.73025,-0.16933 -0.28575,-0.15875 -0.370416,-0.43392 -0.169334,0.26458 -0.529167,0.43392 -0.359834,0.16933 -0.846667,0.16933 -0.47625,0 -0.867833,-0.127 -0.391584,-0.127 -0.645584,-0.40217 z m 2.233084,-4.29683 q -0.116417,0.1905 -0.22225,0.51858 -0.105834,0.3175 -0.28575,1.18534 -0.169334,0.85725 -0.169334,1.47108 0,0.61383 0.09525,0.79375 0.09525,0.17992 0.264584,0.17992 0.338666,0 0.582083,-0.3175 0.254,-0.32809 0.34925,-0.89959 l 0.560917,-3.10091 q -0.22225,-0.1905 -0.486833,-0.1905 -0.254,0 -0.41275,0.0847 -0.148167,0.0847 -0.275167,0.27517 z" />
      <path
         id="path985"
         style="font-style:normal;font-variant:normal;font-weight:normal;font-stretch:normal;font-family:'Sansita One';-inkscape-font-specification:'Sansita One';text-align:center;text-anchor:middle;fill:#aa4400;stroke:#aa4400;stroke-width:1.32291663;stroke-linecap:round;stroke-linejoin:round;stroke-miterlimit:4;stroke-dasharray:none"
         d="m -6.989135,194.24194 q -1.2805834,0 -1.2805834,-0.99483 0.010583,-0.27517 0.09525,-0.74084 l 0.1905,-0.97366 q 0.28575,-1.37584 0.28575,-1.68275 0,-0.61384 -0.3598333,-0.61384 -0.60325,0 -0.9207501,1.57692 l -0.6244167,3.21733 -2.1272505,0.21167 1.100667,-5.61975 1.7356669,-0.20108 -0.1693333,1.03716 q 0.4974167,-1.03716 2.0214167,-1.03716 0.7408334,0 1.0477501,0.3175 0.3175,0.30691 0.3175,1.00541 0,0.65617 -0.3386667,2.19075 -0.15875,0.68792 -0.15875,0.9525 0,0.254 0.1375834,0.40217 0.1481667,0.14817 0.3598333,0.16933 -0.1058333,0.35984 -0.47625,0.5715 -0.3598334,0.21167 -0.8360834,0.21167 z" />
      <path
         id="path987"
         style="font-style:normal;font-variant:normal;font-weight:normal;font-stretch:normal;font-family:'Sansita One';-inkscape-font-specification:'Sansita One';text-align:center;text-anchor:middle;fill:#aa4400;stroke:#aa4400;stroke-width:1.32291663;stroke-linecap:round;stroke-linejoin:round;stroke-miterlimit:4;stroke-dasharray:none"
         d="m 1.5747658,193.97736 1.3335001,-6.93209 q 1.2488334,-0.10583 2.0531668,-0.10583 0.8043333,0 1.3229167,0.0741 0.5185834,0.0635 0.8678334,0.24342 0.6985,0.33867 0.6985,1.27 0,0.53975 -0.4656667,0.99483 -0.4339167,0.41275 -0.9101667,0.508 0.508,0.0847 0.8678334,0.46567 0.381,0.40217 0.381,1.02658 0,1.2065 -0.8995834,1.91559 -0.8995834,0.6985 -2.6670001,0.6985 -1.2170834,0 -2.5823335,-0.15875 z m 2.3495001,-0.61384 q 0.09525,0.0106 0.1164167,0.0106 h 0.09525 q 0.8678334,0 1.2382501,-0.5715 0.2751667,-0.4445 0.2751667,-1.25942 0,-0.43392 -0.2857501,-0.66675 -0.2751666,-0.23283 -0.9101667,-0.254 z m 2.1378335,-4.826 q 0,-0.87841 -0.8466667,-0.87841 h -0.09525 q -0.042333,0 -0.1058334,0.0106 l -0.4233333,2.23308 h 0.1058333 q 1.3652501,-0.0318 1.3652501,-1.36525 z" />
      <path
         id="path989"
         style="font-style:normal;font-variant:normal;font-weight:normal;font-stretch:normal;font-family:'Sansita One';-inkscape-font-specification:'Sansita One';text-align:center;text-anchor:middle;fill:#aa4400;stroke:#aa4400;stroke-width:1.32291663;stroke-linecap:round;stroke-linejoin:round;stroke-miterlimit:4;stroke-dasharray:none"
         d="m 11.816459,193.58577 q -0.508,0.65617 -1.767417,0.65617 -0.6561668,0 -1.1324169,-0.39158 -0.47625,-0.40217 -0.47625,-0.97367 0,-0.3175 0.03175,-0.47625 l 0.7090834,-3.76767 2.1484165,-0.21166 -0.772583,4.08516 q -0.04233,0.23284 -0.04233,0.37042 0,0.61383 0.370416,0.61383 0.41275,0 0.709084,-0.56091 0.09525,-0.17992 0.137583,-0.41275 l 0.751417,-3.88409 2.084916,-0.21166 -0.783166,4.1275 q -0.03175,0.15875 -0.03175,0.32808 0,0.16933 0.09525,0.35983 0.09525,0.17992 0.402166,0.22225 -0.0635,0.254 -0.28575,0.42334 -0.465666,0.35983 -0.973666,0.35983 -0.497417,0 -0.79375,-0.17992 -0.296334,-0.17991 -0.381,-0.47625 z" />
      <path
         id="path991"
         style="font-style:normal;font-variant:normal;font-weight:normal;font-stretch:normal;font-family:'Sansita One';-inkscape-font-specification:'Sansita One';text-align:center;text-anchor:middle;fill:#aa4400;stroke:#aa4400;stroke-width:1.32291663;stroke-linecap:round;stroke-linejoin:round;stroke-miterlimit:4;stroke-dasharray:none"
         d="m 18.301563,190.31552 q 0.148166,-0.39158 0.148166,-0.73025 0,-0.62441 -0.508,-0.62441 -0.264583,0 -0.486833,0.24341 -0.211667,0.23284 -0.211667,0.52917 0,0.21167 0.169334,0.381 0.243416,0.23283 0.867833,0.61383 0.624417,0.381 0.85725,0.6985 0.243417,0.30692 0.243417,0.74084 0,0.42333 -0.211667,0.81491 -0.201083,0.39159 -0.5715,0.66675 -0.79375,0.59267 -2.06375,0.59267 -0.687917,0 -1.217083,-0.35983 -0.529167,-0.34925 -0.529167,-0.762 0,-0.41275 0.296333,-0.65617 0.306917,-0.24342 0.751417,-0.24342 0.4445,0 0.719667,0.16934 -0.137584,0.34925 -0.137584,0.58208 0,0.6985 0.592667,0.6985 0.254,0 0.423333,-0.15875 0.169334,-0.15875 0.169334,-0.43392 0,-0.53975 -0.910167,-1.11125 -0.740833,-0.48683 -0.910167,-0.67733 -0.28575,-0.33867 -0.28575,-0.762 0,-0.42333 0.201084,-0.8255 0.201083,-0.40217 0.5715,-0.68792 0.772583,-0.59266 2.116666,-0.59266 0.687917,0 1.090084,0.27516 0.41275,0.27517 0.41275,0.74084 0,0.46566 -0.28575,0.73025 -0.275167,0.26458 -0.783167,0.26458 -0.34925,0 -0.518583,-0.11642 z" />
      <path
         id="path993"
         style="font-style:normal;font-variant:normal;font-weight:normal;font-stretch:normal;font-family:'Sansita One';-inkscape-font-specification:'Sansita One';text-align:center;text-anchor:middle;fill:#aa4400;stroke:#aa4400;stroke-width:1.32291663;stroke-linecap:round;stroke-linejoin:round;stroke-miterlimit:4;stroke-dasharray:none"
         d="m 20.453452,192.97194 q 0,-0.28575 0.148167,-1.00542 l 0.560916,-2.8575 h -0.624416 l 0.04233,-0.3175 q 1.27,-0.381 2.497667,-1.31233 h 0.508 l -0.254,1.15358 h 0.8255 l -0.09525,0.47625 h -0.814917 l -0.53975,2.8575 q -0.137583,0.65617 -0.137583,0.87842 0,0.508 0.4445,0.61383 -0.105834,0.35984 -0.486834,0.5715 -0.381,0.21167 -0.92075,0.21167 -0.53975,0 -0.846666,-0.33867 -0.306917,-0.33866 -0.306917,-0.93133 z" />
      <path
         id="path995"
         style="font-style:normal;font-variant:normal;font-weight:normal;font-stretch:normal;font-family:'Sansita One';-inkscape-font-specification:'Sansita One';text-align:center;text-anchor:middle;fill:#aa4400;stroke:#aa4400;stroke-width:1.32291663;stroke-linecap:round;stroke-linejoin:round;stroke-miterlimit:4;stroke-dasharray:none"
         d="m 28.353084,192.24169 q 0.264583,0.17992 0.264583,0.58208 0,0.39159 -0.201083,0.64559 -0.201084,0.254 -0.529167,0.42333 -0.677333,0.34925 -1.407583,0.34925 -0.73025,0 -1.164167,-0.15875 -0.423334,-0.15875 -0.709084,-0.45508 -0.560916,-0.56092 -0.560916,-1.5875 0,-1.59809 0.867833,-2.57175 0.931334,-1.04775 2.550584,-1.04775 1.005416,0 1.502833,0.42333 0.370417,0.3175 0.370417,0.83608 0,1.86267 -3.217334,1.86267 -0.04233,0.27517 -0.04233,0.508 0,0.48683 0.211667,0.67733 0.22225,0.17992 0.624416,0.17992 0.402167,0 0.8255,-0.17992 0.433917,-0.1905 0.613834,-0.48683 z m -2.159,-1.15358 q 0.751416,0 1.185333,-0.46567 0.433917,-0.4445 0.433917,-1.15358 0,-0.24342 -0.09525,-0.37042 -0.08467,-0.13758 -0.264584,-0.13758 -0.179916,0 -0.338666,0.0741 -0.148167,0.0635 -0.306917,0.29633 -0.391583,0.52917 -0.613833,1.75684 z" />
      <path
         id="path997"
         style="font-style:normal;font-variant:normal;font-weight:normal;font-stretch:normal;font-family:'Sansita One';-inkscape-font-specification:'Sansita One';text-align:center;text-anchor:middle;fill:#aa4400;stroke:#aa4400;stroke-width:1.32291663;stroke-linecap:round;stroke-linejoin:round;stroke-miterlimit:4;stroke-dasharray:none"
         d="m 33.001815,191.05636 q 0.381,-0.67734 0.381,-1.36525 0,-0.45509 -0.328083,-0.45509 -0.254,0 -0.518583,0.43392 -0.275167,0.43392 -0.359834,0.99483 l -0.550333,3.3655 -2.19075,0.21167 1.0795,-5.60917 1.74625,-0.21166 -0.1905,1.06891 q 0.518583,-1.06891 1.68275,-1.06891 0.613833,0 0.941917,0.3175 0.338666,0.3175 0.338666,0.97366 0,0.64559 -0.433916,1.05834 -0.423334,0.41275 -1.153584,0.41275 -0.3175,0 -0.4445,-0.127 z" />
    </g>
    <g
       id="text1112"
       style="font-style:normal;font-weight:normal;font-size:10.58333397px;line-height:1.25;font-family:sans-serif;letter-spacing:0px;word-spacing:0px;fill:#ffffff;fill-opacity:1;stroke:none;stroke-width:0.26458335"
       aria-label="Install   VirtualBoxinDebian   Buster">
      <path
         id="path1000"
         style="font-style:normal;font-variant:normal;font-weight:normal;font-stretch:normal;font-family:'Sansita One';-inkscape-font-specification:'Sansita One';text-align:center;text-anchor:middle;fill:#ffffff;stroke-width:0.26458335"
         d="m -50.153593,167.17456 1.344084,-6.985 h 2.328333 l -1.36525,6.985 z" />
      <path
         id="path1002"
         style="font-style:normal;font-variant:normal;font-weight:normal;font-stretch:normal;font-family:'Sansita One';-inkscape-font-specification:'Sansita One';text-align:center;text-anchor:middle;fill:#ffffff;stroke-width:0.26458335"
         d="m -41.777711,167.38623 q -1.280583,0 -1.280583,-0.99484 0.01058,-0.27516 0.09525,-0.74083 l 0.1905,-0.97367 q 0.28575,-1.37583 0.28575,-1.68275 0,-0.61383 -0.359834,-0.61383 -0.60325,0 -0.92075,1.57692 l -0.624416,3.21733 -2.12725,0.21167 1.100666,-5.61975 1.735667,-0.20109 -0.169333,1.03717 q 0.497416,-1.03717 2.021417,-1.03717 0.740833,0 1.04775,0.3175 0.3175,0.30692 0.3175,1.00542 0,0.65617 -0.338667,2.19075 -0.15875,0.68792 -0.15875,0.9525 0,0.254 0.137583,0.40217 0.148167,0.14816 0.359834,0.16933 -0.105834,0.35983 -0.47625,0.5715 -0.359834,0.21167 -0.836084,0.21167 z" />
      <path
         id="path1004"
         style="font-style:normal;font-variant:normal;font-weight:normal;font-stretch:normal;font-family:'Sansita One';-inkscape-font-specification:'Sansita One';text-align:center;text-anchor:middle;fill:#ffffff;stroke-width:0.26458335"
         d="m -36.45479,163.45981 q 0.148167,-0.39158 0.148167,-0.73025 0,-0.62442 -0.508,-0.62442 -0.264583,0 -0.486833,0.24342 -0.211667,0.23283 -0.211667,0.52917 0,0.21166 0.169333,0.381 0.243417,0.23283 0.867834,0.61383 0.624416,0.381 0.85725,0.6985 0.243417,0.30692 0.243417,0.74083 0,0.42334 -0.211667,0.81492 -0.201084,0.39158 -0.5715,0.66675 -0.79375,0.59267 -2.06375,0.59267 -0.687917,0 -1.217084,-0.35984 -0.529166,-0.34925 -0.529166,-0.762 0,-0.41275 0.296333,-0.65616 0.306917,-0.24342 0.751417,-0.24342 0.4445,0 0.719666,0.16933 -0.137583,0.34925 -0.137583,0.58209 0,0.6985 0.592667,0.6985 0.254,0 0.423333,-0.15875 0.169333,-0.15875 0.169333,-0.43392 0,-0.53975 -0.910166,-1.11125 -0.740834,-0.48683 -0.910167,-0.67733 -0.28575,-0.33867 -0.28575,-0.762 0,-0.42334 0.201083,-0.8255 0.201084,-0.40217 0.5715,-0.68792 0.772584,-0.59267 2.116667,-0.59267 0.687917,0 1.090084,0.27517 0.41275,0.27517 0.41275,0.74083 0,0.46567 -0.28575,0.73025 -0.275167,0.26459 -0.783167,0.26459 -0.34925,0 -0.518584,-0.11642 z" />
      <path
         id="path1006"
         style="font-style:normal;font-variant:normal;font-weight:normal;font-stretch:normal;font-family:'Sansita One';-inkscape-font-specification:'Sansita One';text-align:center;text-anchor:middle;fill:#ffffff;stroke-width:0.26458335"
         d="m -34.3029,166.11623 q 0,-0.28575 0.148166,-1.00542 l 0.560917,-2.8575 h -0.624417 l 0.04233,-0.3175 q 1.27,-0.381 2.497666,-1.31233 h 0.508 l -0.254,1.15358 h 0.8255 l -0.09525,0.47625 H -31.5089 l -0.53975,2.8575 q -0.137584,0.65617 -0.137584,0.87842 0,0.508 0.4445,0.61383 -0.105833,0.35983 -0.486833,0.5715 -0.381,0.21167 -0.92075,0.21167 -0.53975,0 -0.846667,-0.33867 -0.306916,-0.33867 -0.306916,-0.93133 z" />
      <path
         id="path1008"
         style="font-style:normal;font-variant:normal;font-weight:normal;font-stretch:normal;font-family:'Sansita One';-inkscape-font-specification:'Sansita One';text-align:center;text-anchor:middle;fill:#ffffff;stroke-width:0.26458335"
         d="m -30.234435,166.85706 q -0.243416,-0.27517 -0.359833,-0.70908 -0.105833,-0.43392 -0.105833,-1.143 0,-0.70909 0.243416,-1.35467 0.243417,-0.64558 0.687917,-1.11125 0.910167,-0.97367 2.413,-0.97367 0.53975,0 0.931334,0.17992 l 1.80975,-0.17992 -0.783167,4.1275 q -0.03175,0.127 -0.03175,0.35984 0,0.23283 0.137583,0.381 0.148167,0.14816 0.359834,0.16933 -0.105834,0.35983 -0.497417,0.5715 -0.381,0.21167 -0.814917,0.21167 -0.433916,0 -0.73025,-0.16934 -0.28575,-0.15875 -0.370416,-0.43391 -0.169334,0.26458 -0.529167,0.43391 -0.359833,0.16934 -0.846667,0.16934 -0.47625,0 -0.867833,-0.127 -0.391584,-0.127 -0.645584,-0.40217 z m 2.233084,-4.29683 q -0.116417,0.1905 -0.22225,0.51858 -0.105833,0.3175 -0.28575,1.18533 -0.169334,0.85725 -0.169334,1.47109 0,0.61383 0.09525,0.79375 0.09525,0.17991 0.264584,0.17991 0.338667,0 0.582083,-0.3175 0.254,-0.32808 0.34925,-0.89958 l 0.560917,-3.10092 q -0.22225,-0.1905 -0.486833,-0.1905 -0.254,0 -0.41275,0.0847 -0.148167,0.0847 -0.275167,0.27517 z" />
      <path
         id="path1010"
         style="font-style:normal;font-variant:normal;font-weight:normal;font-stretch:normal;font-family:'Sansita One';-inkscape-font-specification:'Sansita One';text-align:center;text-anchor:middle;fill:#ffffff;stroke-width:0.26458335"
         d="m -21.504177,166.59248 q -0.328084,0.79375 -1.375834,0.79375 -0.529166,0 -0.867833,-0.37042 -0.275167,-0.30692 -0.275167,-0.65617 0,-0.79375 0.370417,-2.52941 l 0.772583,-4.064 2.148417,-0.21167 -1.026583,5.35517 q -0.179917,0.78316 -0.179917,1.05833 0,0.60325 0.433917,0.62442 z" />
      <path
         id="path1012"
         style="font-style:normal;font-variant:normal;font-weight:normal;font-stretch:normal;font-family:'Sansita One';-inkscape-font-specification:'Sansita One';text-align:center;text-anchor:middle;fill:#ffffff;stroke-width:0.26458335"
         d="m -18.072861,166.59248 q -0.328083,0.79375 -1.375833,0.79375 -0.529167,0 -0.867834,-0.37042 -0.275166,-0.30692 -0.275166,-0.65617 0,-0.79375 0.370416,-2.52941 l 0.772584,-4.064 2.148416,-0.21167 -1.026583,5.35517 q -0.179917,0.78316 -0.179917,1.05833 0,0.60325 0.433917,0.62442 z" />
      <path
         id="path1014"
         style="font-style:normal;font-variant:normal;font-weight:normal;font-stretch:normal;font-family:'Sansita One';-inkscape-font-specification:'Sansita One';text-align:center;text-anchor:middle;fill:#ffffff;stroke-width:0.26458335"
         d="m -10.395148,160.61289 q 0.306917,-0.635 1.1535838,-0.635 0.8572501,0 1.2488335,0.49742 0.4021666,0.48683 0.4021666,1.61925 v 3.77825 l 2.5717502,-5.67267 h 1.2594167 l -3.2914168,6.97442 h -2.4765002 l -0.3175,-5.08 q -0.03175,-0.56092 -0.1904998,-0.94192 -0.148167,-0.381 -0.359834,-0.53975 z" />
      <path
         id="path1016"
         style="font-style:normal;font-variant:normal;font-weight:normal;font-stretch:normal;font-family:'Sansita One';-inkscape-font-specification:'Sansita One';text-align:center;text-anchor:middle;fill:#ffffff;stroke-width:0.26458335"
         d="m -1.6498402,166.59248 q -0.3280833,0.79375 -1.3758334,0.79375 -0.53975,0 -0.8784167,-0.37042 -0.28575,-0.32808 -0.28575,-0.65617 0,-0.85725 0.3915833,-2.52941 l 0.3915834,-2.05317 2.1484168,-0.21167 -0.6455834,3.34434 q -0.1799166,0.78316 -0.1799166,1.05833 0,0.60325 0.4339166,0.62442 z m -1.5663334,-6.2865 q 0,-0.41275 0.3386667,-0.635 0.34925,-0.22225 0.8466667,-0.22225 0.4974167,0 0.7937501,0.22225 0.30691665,0.22225 0.30691665,0.635 0,0.41275 -0.33866665,0.62441 -0.3280834,0.21167 -0.8255001,0.21167 -0.4974167,0 -0.8149167,-0.21167 -0.3069167,-0.21166 -0.3069167,-0.62441 z" />
      <path
         id="path1018"
         style="font-style:normal;font-variant:normal;font-weight:normal;font-stretch:normal;font-family:'Sansita One';-inkscape-font-specification:'Sansita One';text-align:center;text-anchor:middle;fill:#ffffff;stroke-width:0.26458335"
         d="m 2.5540558,164.20064 q 0.381,-0.67733 0.381,-1.36525 0,-0.45508 -0.3280833,-0.45508 -0.2540001,0 -0.5185834,0.43392 -0.2751667,0.43391 -0.3598334,0.99483 l -0.5503333,3.3655 -2.1907502,0.21167 1.0795001,-5.60917 1.7462501,-0.21167 -0.1905,1.06892 q 0.5185834,-1.06892 1.6827501,-1.06892 0.6138334,0 0.9419167,0.3175 0.3386667,0.3175 0.3386667,0.97367 0,0.64558 -0.4339167,1.05833 -0.4233333,0.41275 -1.1535834,0.41275 -0.3175,0 -0.4445,-0.127 z" />
      <path
         id="path1020"
         style="font-style:normal;font-variant:normal;font-weight:normal;font-stretch:normal;font-family:'Sansita One';-inkscape-font-specification:'Sansita One';text-align:center;text-anchor:middle;fill:#ffffff;stroke-width:0.26458335"
         d="m 4.9298486,166.11623 q 0,-0.28575 0.1481666,-1.00542 l 0.5609167,-2.8575 H 5.0145152 l 0.042333,-0.3175 q 1.27,-0.381 2.4976668,-1.31233 h 0.508 l -0.254,1.15358 h 0.8255001 l -0.09525,0.47625 H 7.7238487 l -0.53975,2.8575 q -0.1375833,0.65617 -0.1375833,0.87842 0,0.508 0.4445,0.61383 -0.1058334,0.35983 -0.4868334,0.5715 -0.381,0.21167 -0.92075,0.21167 -0.5397501,0 -0.8466667,-0.33867 -0.3069167,-0.33867 -0.3069167,-0.93133 z" />
      <path
         id="path1022"
         style="font-style:normal;font-variant:normal;font-weight:normal;font-stretch:normal;font-family:'Sansita One';-inkscape-font-specification:'Sansita One';text-align:center;text-anchor:middle;fill:#ffffff;stroke-width:0.26458335"
         d="m 11.981824,166.73006 q -0.508,0.65617 -1.767417,0.65617 -0.6561665,0 -1.1324165,-0.39159 -0.4762501,-0.40216 -0.4762501,-0.97366 0,-0.3175 0.03175,-0.47625 l 0.7090834,-3.76767 2.1484172,-0.21167 -0.772584,4.08517 q -0.04233,0.23283 -0.04233,0.37042 0,0.61383 0.370417,0.61383 0.41275,0 0.709083,-0.56092 0.09525,-0.17991 0.137583,-0.41275 l 0.751417,-3.88408 2.084917,-0.21167 -0.783167,4.1275 q -0.03175,0.15875 -0.03175,0.32809 0,0.16933 0.09525,0.35983 0.09525,0.17992 0.402167,0.22225 -0.0635,0.254 -0.28575,0.42333 -0.465667,0.35984 -0.973667,0.35984 -0.497417,0 -0.79375,-0.17992 -0.296333,-0.17992 -0.381,-0.47625 z" />
      <path
         id="path1024"
         style="font-style:normal;font-variant:normal;font-weight:normal;font-stretch:normal;font-family:'Sansita One';-inkscape-font-specification:'Sansita One';text-align:center;text-anchor:middle;fill:#ffffff;stroke-width:0.26458335"
         d="m 15.716255,166.85706 q -0.243417,-0.27517 -0.359834,-0.70908 -0.105833,-0.43392 -0.105833,-1.143 0,-0.70909 0.243417,-1.35467 0.243416,-0.64558 0.687916,-1.11125 0.910167,-0.97367 2.413001,-0.97367 0.53975,0 0.931333,0.17992 l 1.80975,-0.17992 -0.783167,4.1275 q -0.03175,0.127 -0.03175,0.35984 0,0.23283 0.137584,0.381 0.148166,0.14816 0.359833,0.16933 -0.105833,0.35983 -0.497417,0.5715 -0.381,0.21167 -0.814916,0.21167 -0.433917,0 -0.73025,-0.16934 -0.28575,-0.15875 -0.370417,-0.43391 -0.169333,0.26458 -0.529167,0.43391 -0.359833,0.16934 -0.846667,0.16934 -0.47625,0 -0.867833,-0.127 -0.391583,-0.127 -0.645583,-0.40217 z m 2.233083,-4.29683 q -0.116416,0.1905 -0.22225,0.51858 -0.105833,0.3175 -0.28575,1.18533 -0.169333,0.85725 -0.169333,1.47109 0,0.61383 0.09525,0.79375 0.09525,0.17991 0.264583,0.17991 0.338667,0 0.582084,-0.3175 0.254,-0.32808 0.34925,-0.89958 l 0.560916,-3.10092 q -0.22225,-0.1905 -0.486833,-0.1905 -0.254,0 -0.41275,0.0847 -0.148167,0.0847 -0.275167,0.27517 z" />
      <path
         id="path1026"
         style="font-style:normal;font-variant:normal;font-weight:normal;font-stretch:normal;font-family:'Sansita One';-inkscape-font-specification:'Sansita One';text-align:center;text-anchor:middle;fill:#ffffff;stroke-width:0.26458335"
         d="m 24.44651,166.59248 q -0.328083,0.79375 -1.375833,0.79375 -0.529167,0 -0.867834,-0.37042 -0.275166,-0.30692 -0.275166,-0.65617 0,-0.79375 0.370416,-2.52941 l 0.772584,-4.064 2.148416,-0.21167 -1.026583,5.35517 q -0.179917,0.78316 -0.179917,1.05833 0,0.60325 0.433917,0.62442 z" />
      <path
         id="path1028"
         style="font-style:normal;font-variant:normal;font-weight:normal;font-stretch:normal;font-family:'Sansita One';-inkscape-font-specification:'Sansita One';text-align:center;text-anchor:middle;fill:#ffffff;stroke-width:0.26458335"
         d="m 25.242573,167.12164 1.3335,-6.93208 q 1.248833,-0.10583 2.053166,-0.10583 0.804334,0 1.322917,0.0741 0.518583,0.0635 0.867834,0.24342 0.6985,0.33866 0.6985,1.27 0,0.53975 -0.465667,0.99483 -0.433917,0.41275 -0.910167,0.508 0.508,0.0847 0.867834,0.46567 0.381,0.40216 0.381,1.02658 0,1.2065 -0.899584,1.91558 -0.899583,0.6985 -2.667,0.6985 -1.217083,0 -2.582333,-0.15875 z m 2.3495,-0.61383 q 0.09525,0.0106 0.116416,0.0106 h 0.09525 q 0.867834,0 1.23825,-0.5715 0.275167,-0.4445 0.275167,-1.25941 0,-0.43392 -0.28575,-0.66675 -0.275167,-0.23284 -0.910167,-0.254 z m 2.137833,-4.826 q 0,-0.87842 -0.846667,-0.87842 h -0.09525 q -0.04233,0 -0.105833,0.0106 l -0.423333,2.23308 h 0.105833 q 1.36525,-0.0317 1.36525,-1.36525 z" />
      <path
         id="path1030"
         style="font-style:normal;font-variant:normal;font-weight:normal;font-stretch:normal;font-family:'Sansita One';-inkscape-font-specification:'Sansita One';text-align:center;text-anchor:middle;fill:#ffffff;stroke-width:0.26458335"
         d="m 34.394182,167.38623 q -2.328334,0 -2.328334,-2.19075 0,-1.55575 0.857251,-2.56117 0.910166,-1.06892 2.487083,-1.06892 1.143,0 1.725083,0.52917 0.582084,0.52917 0.582084,1.64042 0,1.69333 -0.910167,2.67758 -0.889,0.97367 -2.413,0.97367 z m 0.275167,-4.60375 q -0.127,0.28575 -0.232834,0.71966 -0.09525,0.42334 -0.22225,1.10067 -0.127,0.67733 -0.127,1.51342 0,0.27516 0.08467,0.45508 0.09525,0.17992 0.338667,0.17992 0.243416,0 0.391583,-0.11642 0.15875,-0.11642 0.275167,-0.39158 0.211666,-0.48684 0.381,-1.38642 0.169333,-0.91017 0.179916,-1.30175 0.02117,-0.39158 0.02117,-0.67733 0,-0.29634 -0.08467,-0.48684 -0.08467,-0.1905 -0.328083,-0.1905 -0.232833,0 -0.391583,0.14817 -0.15875,0.14817 -0.28575,0.43392 z" />
      <path
         id="path1032"
         style="font-style:normal;font-variant:normal;font-weight:normal;font-stretch:normal;font-family:'Sansita One';-inkscape-font-specification:'Sansita One';text-align:center;text-anchor:middle;fill:#ffffff;stroke-width:0.26458335"
         d="m 39.716446,167.20631 q -0.338667,0.17992 -0.804333,0.17992 -0.465667,0 -0.719667,-0.23284 -0.254,-0.24341 -0.254,-0.6985 0,-0.46566 0.3175,-0.91016 0.328083,-0.45509 0.804333,-0.70909 0.486834,-0.254 0.8255,-0.40216 l -0.66675,-1.53459 q -0.179916,-0.39158 -0.518583,-0.39158 l -0.08467,0.0106 h -0.03175 q 0.0635,-0.37041 0.497417,-0.65616 0.433917,-0.29634 0.931333,-0.29634 0.804334,0 1.174751,0.80434 l 0.08467,0.16933 0.455084,1.12183 q 0.28575,-0.127 0.402166,-0.35983 0.127,-0.24342 0.127,-0.70908 0,-0.47625 -0.254,-0.77259 0.402167,-0.254 0.931334,-0.254 0.9525,0 0.9525,0.92075 0,1.00542 -1.259417,1.5875 l -0.635,0.29634 0.5715,1.47108 q 0.169333,0.4445 0.47625,0.635 0.127,0.0847 0.275167,0.0953 -0.3175,0.51858 -1.005417,0.75142 -0.211667,0.0635 -0.497417,0.0635 -0.28575,0 -0.613833,-0.20109 -0.328083,-0.1905 -0.4445,-0.49741 l -0.582084,-1.51342 q -0.592666,0.26458 -0.592666,1.22767 0,0.4445 0.137583,0.80433 z" />
      <path
         id="path1034"
         style="font-style:normal;font-variant:normal;font-weight:normal;font-stretch:normal;font-family:'Sansita One';-inkscape-font-specification:'Sansita One';text-align:center;text-anchor:middle;fill:#ffffff;stroke-width:0.26458335"
         d="m -5.4222223,180.02035 q -0.3280833,0.79375 -1.3758334,0.79375 -0.53975,0 -0.8784167,-0.37042 -0.28575,-0.32808 -0.28575,-0.65616 0,-0.85725 0.3915833,-2.52942 l 0.3915834,-2.05317 2.1484168,-0.21166 -0.6455834,3.34433 q -0.1799167,0.78317 -0.1799167,1.05833 0,0.60325 0.4339167,0.62442 z m -1.5663334,-6.2865 q 0,-0.41275 0.3386667,-0.635 0.34925,-0.22225 0.8466667,-0.22225 0.4974167,0 0.7937501,0.22225 0.3069166,0.22225 0.3069166,0.635 0,0.41275 -0.3386666,0.62442 -0.3280834,0.21166 -0.8255001,0.21166 -0.4974167,0 -0.8149167,-0.21166 -0.3069167,-0.21167 -0.3069167,-0.62442 z" />
      <path
         id="path1036"
         style="font-style:normal;font-variant:normal;font-weight:normal;font-stretch:normal;font-family:'Sansita One';-inkscape-font-specification:'Sansita One';text-align:center;text-anchor:middle;fill:#ffffff;stroke-width:0.26458335"
         d="m -0.05415673,180.8141 q -1.28058337,0 -1.28058337,-0.99483 0.010583,-0.27517 0.09525,-0.74084 l 0.1905,-0.97366 q 0.28574999,-1.37584 0.28574999,-1.68275 0,-0.61384 -0.35983339,-0.61384 -0.60325,0 -0.92075,1.57692 l -0.6244167,3.21733 -2.1272502,0.21167 1.1006668,-5.61975 1.7356668,-0.20108 -0.1693334,1.03716 q 0.4974167,-1.03716 2.0214168,-1.03716 0.74083338,0 1.04775006,0.3175 0.31750004,0.30691 0.31750004,1.00541 0,0.65617 -0.33866671,2.19075 -0.15875001,0.68792 -0.15875001,0.9525 0,0.254 0.13758334,0.40217 0.14816668,0.14817 0.35983338,0.16933 -0.1058334,0.35984 -0.47625005,0.5715 -0.35983335,0.21167 -0.83608338,0.21167 z" />
      <path
         id="path1038"
         style="font-style:normal;font-variant:normal;font-weight:normal;font-stretch:normal;font-family:'Sansita One';-inkscape-font-specification:'Sansita One';text-align:center;text-anchor:middle;fill:#ffffff;stroke-width:0.26458335"
         d="m -34.197563,189.63819 q 0,4.5085 -4.8895,4.5085 -0.783167,0 -2.074334,-0.1905 l 1.185333,-6.25475 q 0.08467,-0.42333 0.137584,-0.66675 1.608667,-0.11642 2.31775,-0.11642 0.719667,0 1.375833,0.14817 0.656167,0.14817 1.090084,0.47625 0.85725,0.64558 0.85725,2.0955 z m -2.180167,-0.39158 q 0,-1.57692 -1.132417,-1.57692 h -0.105833 q -0.05292,0 -0.105833,0.0106 l -1.090084,5.68325 q 0.04233,0.0212 0.08467,0.0212 h 0.08467 q 0.391583,0 0.79375,-0.24342 0.41275,-0.24341 0.73025,-0.74083 0.740833,-1.15358 0.740833,-3.15383 z" />
      <path
         id="path1040"
         style="font-style:normal;font-variant:normal;font-weight:normal;font-stretch:normal;font-family:'Sansita One';-inkscape-font-specification:'Sansita One';text-align:center;text-anchor:middle;fill:#ffffff;stroke-width:0.26458335"
         d="m -29.379831,192.24169 q 0.264583,0.17992 0.264583,0.58208 0,0.39159 -0.201083,0.64559 -0.201084,0.254 -0.529167,0.42333 -0.677333,0.34925 -1.407583,0.34925 -0.73025,0 -1.164167,-0.15875 -0.423333,-0.15875 -0.709083,-0.45508 -0.560917,-0.56092 -0.560917,-1.5875 0,-1.59809 0.867833,-2.57175 0.931334,-1.04775 2.550584,-1.04775 1.005416,0 1.502833,0.42333 0.370417,0.3175 0.370417,0.83608 0,1.86267 -3.217334,1.86267 -0.04233,0.27517 -0.04233,0.508 0,0.48683 0.211667,0.67733 0.22225,0.17992 0.624416,0.17992 0.402167,0 0.8255,-0.17992 0.433917,-0.1905 0.613834,-0.48683 z m -2.159,-1.15358 q 0.751416,0 1.185333,-0.46567 0.433917,-0.4445 0.433917,-1.15358 0,-0.24342 -0.09525,-0.37042 -0.08467,-0.13758 -0.264584,-0.13758 -0.179916,0 -0.338666,0.0741 -0.148167,0.0635 -0.306917,0.29633 -0.391583,0.52917 -0.613833,1.75684 z" />
      <path
         id="path1042"
         style="font-style:normal;font-variant:normal;font-weight:normal;font-stretch:normal;font-family:'Sansita One';-inkscape-font-specification:'Sansita One';text-align:center;text-anchor:middle;fill:#ffffff;stroke-width:0.26458335"
         d="m -28.181269,193.52227 1.312333,-6.90033 2.148417,-0.21167 -0.328083,1.61925 q -0.116417,0.49742 -0.264584,0.84667 0.232834,-0.29633 0.740834,-0.41275 0.148166,-0.0423 0.328083,-0.0423 0.98425,0 1.524,0.60325 0.53975,0.59266 0.53975,1.74625 0,1.50283 -0.85725,2.44475 -0.92075,1.02658 -2.592917,1.02658 -1.153583,0 -2.021417,-0.381 -0.306916,-0.13758 -0.529166,-0.33867 z m 2.12725,-0.0952 q 0.22225,0.1905 0.497416,0.1905 0.275167,0 0.433917,-0.10583 0.15875,-0.10583 0.275167,-0.3175 0.3175,-0.5715 0.5715,-2.31775 0.07408,-0.49742 0.07408,-0.99483 0,-0.49742 -0.116416,-0.65617 -0.105834,-0.15875 -0.3175,-0.15875 -0.645584,0 -0.857251,1.25942 z" />
      <path
         id="path1044"
         style="font-style:normal;font-variant:normal;font-weight:normal;font-stretch:normal;font-family:'Sansita One';-inkscape-font-specification:'Sansita One';text-align:center;text-anchor:middle;fill:#ffffff;stroke-width:0.26458335"
         d="m -19.013125,193.44819 q -0.328084,0.79375 -1.375834,0.79375 -0.53975,0 -0.878416,-0.37042 -0.28575,-0.32808 -0.28575,-0.65616 0,-0.85725 0.391583,-2.52942 l 0.391583,-2.05317 2.148417,-0.21166 -0.645583,3.34433 q -0.179917,0.78317 -0.179917,1.05833 0,0.60325 0.433917,0.62442 z m -1.566334,-6.2865 q 0,-0.41275 0.338667,-0.635 0.34925,-0.22225 0.846667,-0.22225 0.497416,0 0.79375,0.22225 0.306916,0.22225 0.306916,0.635 0,0.41275 -0.338666,0.62442 -0.328084,0.21166 -0.8255,0.21166 -0.497417,0 -0.814917,-0.21166 -0.306917,-0.21167 -0.306917,-0.62442 z" />
      <path
         id="path1046"
         style="font-style:normal;font-variant:normal;font-weight:normal;font-stretch:normal;font-family:'Sansita One';-inkscape-font-specification:'Sansita One';text-align:center;text-anchor:middle;fill:#ffffff;stroke-width:0.26458335"
         d="m -17.666728,193.71277 q -0.243416,-0.27516 -0.359833,-0.70908 -0.105833,-0.43392 -0.105833,-1.143 0,-0.70908 0.243416,-1.35467 0.243417,-0.64558 0.687917,-1.11125 0.910167,-0.97366 2.413,-0.97366 0.53975,0 0.931334,0.17991 l 1.80975,-0.17991 -0.783167,4.1275 q -0.03175,0.127 -0.03175,0.35983 0,0.23283 0.137583,0.381 0.148167,0.14817 0.359834,0.16933 -0.105834,0.35984 -0.497417,0.5715 -0.381,0.21167 -0.814917,0.21167 -0.433916,0 -0.73025,-0.16933 -0.28575,-0.15875 -0.370416,-0.43392 -0.169334,0.26458 -0.529167,0.43392 -0.359834,0.16933 -0.846667,0.16933 -0.47625,0 -0.867833,-0.127 -0.391584,-0.127 -0.645584,-0.40217 z m 2.233084,-4.29683 q -0.116417,0.1905 -0.22225,0.51858 -0.105834,0.3175 -0.28575,1.18534 -0.169334,0.85725 -0.169334,1.47108 0,0.61383 0.09525,0.79375 0.09525,0.17992 0.264584,0.17992 0.338666,0 0.582083,-0.3175 0.254,-0.32809 0.34925,-0.89959 l 0.560917,-3.10091 q -0.22225,-0.1905 -0.486833,-0.1905 -0.254,0 -0.41275,0.0847 -0.148167,0.0847 -0.275167,0.27517 z" />
      <path
         id="path1048"
         style="font-style:normal;font-variant:normal;font-weight:normal;font-stretch:normal;font-family:'Sansita One';-inkscape-font-specification:'Sansita One';text-align:center;text-anchor:middle;fill:#ffffff;stroke-width:0.26458335"
         d="m -6.989135,194.24194 q -1.2805834,0 -1.2805834,-0.99483 0.010583,-0.27517 0.09525,-0.74084 l 0.1905,-0.97366 q 0.28575,-1.37584 0.28575,-1.68275 0,-0.61384 -0.3598333,-0.61384 -0.60325,0 -0.9207501,1.57692 l -0.6244167,3.21733 -2.1272505,0.21167 1.100667,-5.61975 1.7356669,-0.20108 -0.1693333,1.03716 q 0.4974167,-1.03716 2.0214167,-1.03716 0.7408334,0 1.0477501,0.3175 0.3175,0.30691 0.3175,1.00541 0,0.65617 -0.3386667,2.19075 -0.15875,0.68792 -0.15875,0.9525 0,0.254 0.1375834,0.40217 0.1481667,0.14817 0.3598333,0.16933 -0.1058333,0.35984 -0.47625,0.5715 -0.3598334,0.21167 -0.8360834,0.21167 z" />
      <path
         id="path1050"
         style="font-style:normal;font-variant:normal;font-weight:normal;font-stretch:normal;font-family:'Sansita One';-inkscape-font-specification:'Sansita One';text-align:center;text-anchor:middle;fill:#ffffff;stroke-width:0.26458335"
         d="m 1.5747658,193.97736 1.3335001,-6.93209 q 1.2488334,-0.10583 2.0531668,-0.10583 0.8043333,0 1.3229167,0.0741 0.5185834,0.0635 0.8678334,0.24342 0.6985,0.33867 0.6985,1.27 0,0.53975 -0.4656667,0.99483 -0.4339167,0.41275 -0.9101667,0.508 0.508,0.0847 0.8678334,0.46567 0.381,0.40217 0.381,1.02658 0,1.2065 -0.8995834,1.91559 -0.8995834,0.6985 -2.6670001,0.6985 -1.2170834,0 -2.5823335,-0.15875 z m 2.3495001,-0.61384 q 0.09525,0.0106 0.1164167,0.0106 h 0.09525 q 0.8678334,0 1.2382501,-0.5715 0.2751667,-0.4445 0.2751667,-1.25942 0,-0.43392 -0.2857501,-0.66675 -0.2751666,-0.23283 -0.9101667,-0.254 z m 2.1378335,-4.826 q 0,-0.87841 -0.8466667,-0.87841 h -0.09525 q -0.042333,0 -0.1058334,0.0106 l -0.4233333,2.23308 h 0.1058333 q 1.3652501,-0.0318 1.3652501,-1.36525 z" />
      <path
         id="path1052"
         style="font-style:normal;font-variant:normal;font-weight:normal;font-stretch:normal;font-family:'Sansita One';-inkscape-font-specification:'Sansita One';text-align:center;text-anchor:middle;fill:#ffffff;stroke-width:0.26458335"
         d="m 11.816459,193.58577 q -0.508,0.65617 -1.767417,0.65617 -0.6561668,0 -1.1324169,-0.39158 -0.47625,-0.40217 -0.47625,-0.97367 0,-0.3175 0.03175,-0.47625 l 0.7090834,-3.76767 2.1484165,-0.21166 -0.772583,4.08516 q -0.04233,0.23284 -0.04233,0.37042 0,0.61383 0.370416,0.61383 0.41275,0 0.709084,-0.56091 0.09525,-0.17992 0.137583,-0.41275 l 0.751417,-3.88409 2.084916,-0.21166 -0.783166,4.1275 q -0.03175,0.15875 -0.03175,0.32808 0,0.16933 0.09525,0.35983 0.09525,0.17992 0.402166,0.22225 -0.0635,0.254 -0.28575,0.42334 -0.465666,0.35983 -0.973666,0.35983 -0.497417,0 -0.79375,-0.17992 -0.296334,-0.17991 -0.381,-0.47625 z" />
      <path
         id="path1054"
         style="font-style:normal;font-variant:normal;font-weight:normal;font-stretch:normal;font-family:'Sansita One';-inkscape-font-specification:'Sansita One';text-align:center;text-anchor:middle;fill:#ffffff;stroke-width:0.26458335"
         d="m 18.301563,190.31552 q 0.148166,-0.39158 0.148166,-0.73025 0,-0.62441 -0.508,-0.62441 -0.264583,0 -0.486833,0.24341 -0.211667,0.23284 -0.211667,0.52917 0,0.21167 0.169334,0.381 0.243416,0.23283 0.867833,0.61383 0.624417,0.381 0.85725,0.6985 0.243417,0.30692 0.243417,0.74084 0,0.42333 -0.211667,0.81491 -0.201083,0.39159 -0.5715,0.66675 -0.79375,0.59267 -2.06375,0.59267 -0.687917,0 -1.217083,-0.35983 -0.529167,-0.34925 -0.529167,-0.762 0,-0.41275 0.296333,-0.65617 0.306917,-0.24342 0.751417,-0.24342 0.4445,0 0.719667,0.16934 -0.137584,0.34925 -0.137584,0.58208 0,0.6985 0.592667,0.6985 0.254,0 0.423333,-0.15875 0.169334,-0.15875 0.169334,-0.43392 0,-0.53975 -0.910167,-1.11125 -0.740833,-0.48683 -0.910167,-0.67733 -0.28575,-0.33867 -0.28575,-0.762 0,-0.42333 0.201084,-0.8255 0.201083,-0.40217 0.5715,-0.68792 0.772583,-0.59266 2.116666,-0.59266 0.687917,0 1.090084,0.27516 0.41275,0.27517 0.41275,0.74084 0,0.46566 -0.28575,0.73025 -0.275167,0.26458 -0.783167,0.26458 -0.34925,0 -0.518583,-0.11642 z" />
      <path
         id="path1056"
         style="font-style:normal;font-variant:normal;font-weight:normal;font-stretch:normal;font-family:'Sansita One';-inkscape-font-specification:'Sansita One';text-align:center;text-anchor:middle;fill:#ffffff;stroke-width:0.26458335"
         d="m 20.453452,192.97194 q 0,-0.28575 0.148167,-1.00542 l 0.560916,-2.8575 h -0.624416 l 0.04233,-0.3175 q 1.27,-0.381 2.497667,-1.31233 h 0.508 l -0.254,1.15358 h 0.8255 l -0.09525,0.47625 h -0.814917 l -0.53975,2.8575 q -0.137583,0.65617 -0.137583,0.87842 0,0.508 0.4445,0.61383 -0.105834,0.35984 -0.486834,0.5715 -0.381,0.21167 -0.92075,0.21167 -0.53975,0 -0.846666,-0.33867 -0.306917,-0.33866 -0.306917,-0.93133 z" />
      <path
         id="path1058"
         style="font-style:normal;font-variant:normal;font-weight:normal;font-stretch:normal;font-family:'Sansita One';-inkscape-font-specification:'Sansita One';text-align:center;text-anchor:middle;fill:#ffffff;stroke-width:0.26458335"
         d="m 28.353084,192.24169 q 0.264583,0.17992 0.264583,0.58208 0,0.39159 -0.201083,0.64559 -0.201084,0.254 -0.529167,0.42333 -0.677333,0.34925 -1.407583,0.34925 -0.73025,0 -1.164167,-0.15875 -0.423334,-0.15875 -0.709084,-0.45508 -0.560916,-0.56092 -0.560916,-1.5875 0,-1.59809 0.867833,-2.57175 0.931334,-1.04775 2.550584,-1.04775 1.005416,0 1.502833,0.42333 0.370417,0.3175 0.370417,0.83608 0,1.86267 -3.217334,1.86267 -0.04233,0.27517 -0.04233,0.508 0,0.48683 0.211667,0.67733 0.22225,0.17992 0.624416,0.17992 0.402167,0 0.8255,-0.17992 0.433917,-0.1905 0.613834,-0.48683 z m -2.159,-1.15358 q 0.751416,0 1.185333,-0.46567 0.433917,-0.4445 0.433917,-1.15358 0,-0.24342 -0.09525,-0.37042 -0.08467,-0.13758 -0.264584,-0.13758 -0.179916,0 -0.338666,0.0741 -0.148167,0.0635 -0.306917,0.29633 -0.391583,0.52917 -0.613833,1.75684 z" />
      <path
         id="path1060"
         style="font-style:normal;font-variant:normal;font-weight:normal;font-stretch:normal;font-family:'Sansita One';-inkscape-font-specification:'Sansita One';text-align:center;text-anchor:middle;fill:#ffffff;stroke-width:0.26458335"
         d="m 33.001815,191.05636 q 0.381,-0.67734 0.381,-1.36525 0,-0.45509 -0.328083,-0.45509 -0.254,0 -0.518583,0.43392 -0.275167,0.43392 -0.359834,0.99483 l -0.550333,3.3655 -2.19075,0.21167 1.0795,-5.60917 1.74625,-0.21166 -0.1905,1.06891 q 0.518583,-1.06891 1.68275,-1.06891 0.613833,0 0.941917,0.3175 0.338666,0.3175 0.338666,0.97366 0,0.64559 -0.433916,1.05834 -0.423334,0.41275 -1.153584,0.41275 -0.3175,0 -0.4445,-0.127 z" />
    </g>
  </g>
</svg>
