<?xml version="1.0" encoding="UTF-8" standalone="no"?>
<svg
   xmlns:dc="http://purl.org/dc/elements/1.1/"
   xmlns:cc="http://creativecommons.org/ns#"
   xmlns:rdf="http://www.w3.org/1999/02/22-rdf-syntax-ns#"
   xmlns:svg="http://www.w3.org/2000/svg"
   xmlns="http://www.w3.org/2000/svg"
   xmlns:xlink="http://www.w3.org/1999/xlink"
   id="svg3357"
   version="1.1"
   viewBox="0 0 211.40207 119.0625"
   height="119.0625mm"
   width="211.40207mm">
  <defs
     id="defs3351">
    <linearGradient
       id="linearGradient6114">
      <stop
         id="stop6110"
         offset="0"
         style="stop-color:#6f7c91;stop-opacity:1;" />
      <stop
         id="stop6112"
         offset="1"
         style="stop-color:#162d50;stop-opacity:1" />
    </linearGradient>
    <radialGradient
       gradientUnits="userSpaceOnUse"
       gradientTransform="matrix(3.0071285,0,0,1.83657,-125.12732,-58.151445)"
       r="31.67275"
       fy="66.986313"
       fx="73.77433"
       cy="66.986313"
       cx="73.77433"
       id="radialGradient6126"
       xlink:href="#linearGradient6114" />
    <filter
       height="2.4109526"
       y="-0.70547628"
       width="2.610008"
       x="-0.80500406"
       id="filter1480"
       style="color-interpolation-filters:sRGB">
      <feGaussianBlur
         id="feGaussianBlur1482"
         stdDeviation="6.4668659" />
    </filter>
    <filter
       height="2.4109526"
       y="-0.70547628"
       width="2.5520477"
       x="-0.77602392"
       id="filter1484"
       style="color-interpolation-filters:sRGB">
      <feGaussianBlur
         id="feGaussianBlur1486"
         stdDeviation="6.4668659" />
    </filter>
    <filter
       height="2.0630465"
       y="-0.53152323"
       width="2.2700882"
       x="-0.6350441"
       id="filter1488"
       style="color-interpolation-filters:sRGB">
      <feGaussianBlur
         id="feGaussianBlur1490"
         stdDeviation="6.4668659" />
    </filter>
    <filter
       height="2.4109526"
       y="-0.70547628"
       width="2.3496068"
       x="-0.67480338"
       id="filter1492"
       style="color-interpolation-filters:sRGB">
      <feGaussianBlur
         id="feGaussianBlur1494"
         stdDeviation="6.4668659" />
    </filter>
    <filter
       height="2.048681"
       y="-0.52434045"
       width="2.3310874"
       x="-0.66554368"
       id="filter1496"
       style="color-interpolation-filters:sRGB">
      <feGaussianBlur
         id="feGaussianBlur1498"
         stdDeviation="6.4668659" />
    </filter>
    <filter
       height="2.4109526"
       y="-0.70547628"
       width="2.5804968"
       x="-0.79024839"
       id="filter1500"
       style="color-interpolation-filters:sRGB">
      <feGaussianBlur
         id="feGaussianBlur1502"
         stdDeviation="6.4668659" />
    </filter>
    <filter
       height="2.4109526"
       y="-0.70547628"
       width="2.3496068"
       x="-0.67480338"
       id="filter1504"
       style="color-interpolation-filters:sRGB">
      <feGaussianBlur
         id="feGaussianBlur1506"
         stdDeviation="6.4668659" />
    </filter>
    <filter
       height="2.1634541"
       y="-0.58172709"
       width="2.2012753"
       x="-0.60063767"
       id="filter1508"
       style="color-interpolation-filters:sRGB">
      <feGaussianBlur
         id="feGaussianBlur1510"
         stdDeviation="6.4668659" />
    </filter>
    <filter
       height="2.048681"
       y="-0.52434045"
       width="2.368649"
       x="-0.68432444"
       id="filter1512"
       style="color-interpolation-filters:sRGB">
      <feGaussianBlur
         id="feGaussianBlur1514"
         stdDeviation="6.4668659" />
    </filter>
    <filter
       height="2.4109526"
       y="-0.70547628"
       width="2.5520477"
       x="-0.77602392"
       id="filter1516"
       style="color-interpolation-filters:sRGB">
      <feGaussianBlur
         id="feGaussianBlur1518"
         stdDeviation="6.4668659" />
    </filter>
    <filter
       height="2.136199"
       y="-0.5680995"
       width="2.179368"
       x="-0.58968407"
       id="filter1520"
       style="color-interpolation-filters:sRGB">
      <feGaussianBlur
         id="feGaussianBlur1522"
         stdDeviation="6.4668659" />
    </filter>
    <filter
       height="2.4109526"
       y="-0.70547628"
       width="2.5520477"
       x="-0.77602392"
       id="filter1524"
       style="color-interpolation-filters:sRGB">
      <feGaussianBlur
         id="feGaussianBlur1526"
         stdDeviation="6.4668659" />
    </filter>
    <filter
       height="2.4109526"
       y="-0.70547628"
       width="2.4397476"
       x="-0.71987379"
       id="filter1528"
       style="color-interpolation-filters:sRGB">
      <feGaussianBlur
         id="feGaussianBlur1530"
         stdDeviation="6.4668659" />
    </filter>
    <filter
       height="2.4109526"
       y="-0.70547628"
       width="2.4532282"
       x="-0.72661418"
       id="filter1532"
       style="color-interpolation-filters:sRGB">
      <feGaussianBlur
         id="feGaussianBlur1534"
         stdDeviation="6.4668659" />
    </filter>
    <filter
       height="2.4109526"
       y="-0.70547628"
       width="1.893008"
       x="-0.44650397"
       id="filter1536"
       style="color-interpolation-filters:sRGB">
      <feGaussianBlur
         id="feGaussianBlur1538"
         stdDeviation="6.4668659" />
    </filter>
    <filter
       height="2.4109526"
       y="-0.70547628"
       width="2.5520477"
       x="-0.77602392"
       id="filter1540"
       style="color-interpolation-filters:sRGB">
      <feGaussianBlur
         id="feGaussianBlur1542"
         stdDeviation="6.4668659" />
    </filter>
    <filter
       height="2.1279416"
       y="-0.56397086"
       width="2.2050061"
       x="-0.60250306"
       id="filter1544"
       style="color-interpolation-filters:sRGB">
      <feGaussianBlur
         id="feGaussianBlur1546"
         stdDeviation="6.4668659" />
    </filter>
    <filter
       height="1.7752486"
       y="-0.38762432"
       width="2.6581707"
       x="-0.82908541"
       id="filter1548"
       style="color-interpolation-filters:sRGB">
      <feGaussianBlur
         id="feGaussianBlur1550"
         stdDeviation="6.4668659" />
    </filter>
    <filter
       height="2.048681"
       y="-0.52434045"
       width="3.4952538"
       x="-1.2476269"
       id="filter1556"
       style="color-interpolation-filters:sRGB">
      <feGaussianBlur
         id="feGaussianBlur1558"
         stdDeviation="6.4668659" />
    </filter>
    <filter
       height="2.4109526"
       y="-0.70547628"
       width="2.3496068"
       x="-0.67480338"
       id="filter1560"
       style="color-interpolation-filters:sRGB">
      <feGaussianBlur
         id="feGaussianBlur1562"
         stdDeviation="6.4668659" />
    </filter>
    <filter
       height="2.2144349"
       y="-0.60721743"
       width="3.2172112"
       x="-1.1086056"
       id="filter1564"
       style="color-interpolation-filters:sRGB">
      <feGaussianBlur
         id="feGaussianBlur1566"
         stdDeviation="6.4668659" />
    </filter>
    <filter
       height="2.4109526"
       y="-0.70547628"
       width="2.610008"
       x="-0.80500406"
       id="filter1568"
       style="color-interpolation-filters:sRGB">
      <feGaussianBlur
         id="feGaussianBlur1570"
         stdDeviation="6.4668659" />
    </filter>
    <filter
       height="2.4109526"
       y="-0.70547628"
       width="2.3566852"
       x="-0.67834258"
       id="filter1572"
       style="color-interpolation-filters:sRGB">
      <feGaussianBlur
         id="feGaussianBlur1574"
         stdDeviation="6.4668659" />
    </filter>
    <filter
       height="2.1757939"
       y="-0.58789688"
       width="3.2363801"
       x="-1.1181901"
       id="filter1576"
       style="color-interpolation-filters:sRGB">
      <feGaussianBlur
         id="feGaussianBlur1578"
         stdDeviation="6.4668659" />
    </filter>
  </defs>
  <metadata
     id="metadata3354">
    <rdf:RDF>
      <cc:Work
         rdf:about="">
        <dc:format>image/svg+xml</dc:format>
        <dc:type
           rdf:resource="http://purl.org/dc/dcmitype/StillImage" />
        <dc:title></dc:title>
      </cc:Work>
    </rdf:RDF>
  </metadata>
  <path
     style="opacity:1;fill:#c83737;fill-opacity:1;stroke:none;stroke-width:4.38045835;stroke-miterlimit:4;stroke-dasharray:none;paint-order:stroke markers fill"
     d="M 0,0 H 211.40207 V 119.0625 H 0 Z"
     id="rect6108" />
  <g
     transform="matrix(1.1097917,0,0,1.0234149,-1.6397721,-6.8613634)"
     style="font-style:normal;font-weight:normal;font-size:40px;line-height:1.25;font-family:sans-serif;letter-spacing:0px;word-spacing:0px;fill:#000000;fill-opacity:1;stroke:none"
     id="flowRoot874" />
  <g
     transform="translate(-1.4775493,-3.9803138)"
     style="font-style:normal;font-weight:normal;font-size:40px;line-height:1.25;font-family:sans-serif;letter-spacing:0px;word-spacing:0px;fill:#000000;fill-opacity:1;stroke:none"
     id="flowRoot1087" />
  <g
     style="display:inline"
     id="g4921"
     transform="matrix(1.1825108,0,0,1.2934259,-97.668834,-89.71389)">
    <g
       transform="translate(50.270828)"
       id="g4720">
      <g
         id="g4694"
         transform="translate(-47.638093,1.3360133)"
         style="fill:#333333">
        <path
           style="fill:#333333;stroke:none;stroke-width:0.26458347px;stroke-linecap:butt;stroke-linejoin:miter;stroke-opacity:1"
           d="m 144.21101,139.55982 c 0,0 5.43081,5.83681 7.33498,3.79847 2.22288,-2.37952 -12.62665,-36.87139 -12.62665,-36.87139"
           id="path835" />
        <path
           id="path817"
           d="m 97.450493,140.21473 c 7.815327,4.80271 15.630577,9.60538 23.402247,9.51796 7.77167,-0.0874 15.49967,-5.06478 19.38543,-7.57529 3.88576,-2.5105 3.92946,-2.5542 3.97284,-2.59758"
           style="fill:#333333;stroke:none;stroke-width:0.26458332px;stroke-linecap:butt;stroke-linejoin:miter;stroke-opacity:1" />
        <path
           id="path825"
           d="m 97.450491,140.21473 c 0,0 -5.430812,5.83681 -7.33498,3.79847 -2.222882,-2.37952 12.820499,-36.99713 12.820499,-36.99713"
           style="fill:#333333;stroke:none;stroke-width:0.26458332px;stroke-linecap:butt;stroke-linejoin:miter;stroke-opacity:1" />
        <path
           transform="matrix(1.0226412,0,0,1.0473654,-2.3339152,-3.6688483)"
           id="path831"
           d="m 102.93926,105.67937 c 0.0862,-6.905162 0.17248,-13.810016 1.50935,-18.736088 1.33687,-4.926072 3.92412,-7.873272 9.74546,-9.346742 5.82134,-1.473471 14.87673,-1.473471 19.40429,3.368239 4.52756,4.84171 4.52756,14.525398 4.52756,24.209361"
           style="fill:#333333;stroke:none;stroke-width:0.26458332px;stroke-linecap:butt;stroke-linejoin:miter;stroke-opacity:1" />
      </g>
      <g
         id="g4708">
        <path
           id="path4696"
           d="m 49.741667,141.68958 c 0,0 3.615973,-22.40139 5.55625,-33.60208 l 35.983333,-0.26458 6.614583,33.07291 z"
           style="fill:#333333;stroke:none;stroke-width:0.26458332px;stroke-linecap:butt;stroke-linejoin:miter;stroke-opacity:1" />
        <path
           style="opacity:1;fill:#333333;fill-opacity:1;stroke:none;stroke-width:0.26458332"
           d="m 55.5625,138.25 h 37.041668 v 3.96875 H 55.5625 Z"
           id="rect4698" />
        <path
           style="opacity:1;fill:#333333;fill-opacity:1;stroke:none;stroke-width:0.26458332"
           d="m 59.53125,106.5 h 30.427082 v 3.96875 H 59.53125 Z"
           id="rect4700" />
        <path
           style="opacity:1;fill:#333333;fill-opacity:1;stroke:none;stroke-width:0.26458332"
           d="m 84.666664,105.17708 h 5.291669 v 3.96875 h -5.291669 z"
           id="rect4702" />
      </g>
    </g>
    <path
       d="m 138.70455,126.61246 a 15.239734,15.867999 0 0 1 -15.17522,15.86785 15.239734,15.867999 0 0 1 -15.3037,-15.73349 15.239734,15.867999 0 0 1 15.04563,-16.00108 15.239734,15.867999 0 0 1 15.4311,15.59801"
       id="path843"
       style="opacity:1;fill:#e6e6e6;fill-opacity:1;stroke:none;stroke-width:0.26458332" />
    <g
       transform="translate(44.751274,16.383515)"
       id="g4688">
      <g
         id="g4596"
         transform="translate(-41.01042,-15.875)"
         style="fill:#ff6600;stroke:none">
        <path
           id="path4585"
           d="m 111.125,110.46875 c 2.9216,-2.67614 5.84316,-5.35225 8.7091,-5.35212 2.86595,1.3e-4 5.6775,2.67624 8.48882,5.35212"
           style="fill:#ff6600;stroke:none;stroke-width:0.26458332px;stroke-linecap:butt;stroke-linejoin:miter;stroke-opacity:1" />
        <path
           id="path4589"
           d="m 111.125,110.46875 c 2.77957,3.92198 5.48174,5.31906 8.73125,6.61458"
           style="fill:#ff6600;stroke:none;stroke-width:0.26458332px;stroke-linecap:butt;stroke-linejoin:miter;stroke-opacity:1" />
        <path
           id="path4591"
           d="m 128.32292,110.46875 c -1.04604,3.82945 -4.9192,5.32533 -8.46667,6.61458"
           style="fill:#ff6600;stroke:none;stroke-width:0.26458332px;stroke-linecap:butt;stroke-linejoin:miter;stroke-opacity:1" />
      </g>
      <g
         style="fill:#ff6600;stroke:none"
         transform="translate(-41.01042,-15.875)"
         id="g4661">
        <path
           style="fill:#ff6600;stroke:none;stroke-width:0.26458332px;stroke-linecap:butt;stroke-linejoin:miter;stroke-opacity:1"
           d="m 111.125,110.46875 c 2.9216,-2.67614 5.84316,-5.35225 8.7091,-5.35212 2.86595,1.3e-4 5.6775,2.67624 8.48882,5.35212"
           id="path4655" />
        <path
           style="fill:#ff6600;stroke:none;stroke-width:0.26458332px;stroke-linecap:butt;stroke-linejoin:miter;stroke-opacity:1"
           d="m 111.125,110.46875 c 2.77957,3.92198 5.48174,5.31906 8.73125,6.61458"
           id="path4657" />
        <path
           style="fill:#ff6600;stroke:none;stroke-width:0.26458332px;stroke-linecap:butt;stroke-linejoin:miter;stroke-opacity:1"
           d="m 128.32292,110.46875 c -1.04604,3.82945 -4.9192,5.32533 -8.46667,6.61458"
           id="path4659" />
      </g>
      <path
         style="opacity:1;fill:#ff6600;fill-opacity:1;stroke:none;stroke-width:0.26458332"
         id="path4671"
         d="m 78.845833,101.20833 -4.582718,-2.645833 v -5.291666 l 4.582718,-2.645833 4.582717,2.645833 v 5.291666 z" />
      <path
         style="opacity:1;fill:#ff6600;fill-opacity:1;stroke:none;stroke-width:0.26458332"
         id="path4673"
         d="m 83.608335,99.620834 2.319854,-2.397701 0.916543,3.207907 z"
         transform="matrix(0.94729327,-1.274616,1.0295753,1.1727506,-98.356248,87.506876)" />
      <path
         style="opacity:1;fill:#ff6600;fill-opacity:1;stroke:none;stroke-width:0.26458332"
         id="path4675"
         d="m 74.536294,98.196559 -3.844516,-2.340158 3.948894,-2.159369 z"
         transform="matrix(1.141627,0.11210349,-0.08749549,1.2944633,-2.2020547,-37.413635)" />
    </g>
    <path
       transform="scale(0.26458333)"
       id="path4722"
       d="m 457.97263,570.35612 c -18.79507,-2.12161 -40.18257,-11.27811 -71.63974,-30.67068 -8.13959,-5.01787 -8.02372,-4.97631 -9.49602,-3.40625 -1.98328,2.11498 -9.29175,8.28788 -11.94887,10.09229 -7.55689,5.13179 -13.40276,5.68891 -14.83103,1.41342 -1.63872,-4.90546 5.4376,-28.95935 18.84332,-64.05245 9.54282,-24.98091 28.41577,-70.80369 29.41653,-71.42219 0.22811,-0.14098 0.37499,-0.42288 0.3264,-0.62644 -0.0486,-0.20356 0.0318,-0.82849 0.17857,-1.38874 0.14681,-0.56024 0.45269,-8.53609 0.67974,-17.7241 0.63732,-25.79 1.66538,-38.59108 4.07232,-50.7069 4.32594,-21.77558 13.30666,-33.82393 30.11939,-40.40761 16.87389,-6.60764 39.99439,-8.13907 57.78976,-3.82784 20.7168,5.019 32.64507,17.2536 38.14208,39.1216 3.4588,13.75967 4.66657,26.50558 4.98055,52.56114 0.20469,16.98608 0.39447,21.14579 0.94912,20.80299 0.62648,-0.38718 21.06718,49.83231 30.13912,74.04694 11.92704,31.8354 17.56985,50.7662 17.56985,58.9443 0,2.59002 -0.1133,3.01447 -1.03188,3.86578 -3.15357,2.92263 -9.30891,0.77622 -18.04824,-6.29354 -2.16747,-1.75339 -5.03522,-4.30389 -6.3728,-5.66777 -1.33757,-1.36388 -2.56841,-2.47978 -2.7352,-2.47978 -0.16679,0 -5.21474,3.17625 -11.21765,7.05833 -6.00292,3.88209 -13.48133,8.58639 -16.6187,10.45401 -26.52636,15.79064 -49.54126,22.54011 -69.26662,20.31349 z m 19.96508,-32.86866 c 5.28911,-1.14072 8.32959,-2.22946 13.85333,-4.9606 18.43404,-9.11449 30.90578,-28.24854 32.34892,-49.62947 0.94243,-13.9626 -2.58151,-27.3736 -10.20264,-38.82794 -3.0137,-4.52952 -10.61003,-12.34927 -14.86401,-15.30119 l -2.90399,-2.01514 0.75119,-1.40422 c 0.41315,-0.77232 1.12926,-2.38761 1.59134,-3.58952 1.00562,-2.61573 1.41642,-1.9763 -5.09101,-7.92451 -5.72644,-5.23434 -11.15932,-9.40512 -14.87195,-11.41709 -10.91899,-5.91728 -20.15604,-3.88649 -33.81841,7.43508 -3.40229,2.81937 -10.37133,9.1079 -10.53264,9.50415 -0.0784,0.19273 0.9084,1.72266 2.19301,3.39982 1.28461,1.67718 2.26556,3.10249 2.1799,3.16736 -0.0857,0.0649 -1.43922,0.95947 -3.00791,1.98798 -15.62369,10.24371 -25.66261,28.29897 -26.56551,47.77875 -1.32187,28.5191 16.86115,54.02186 43.57738,61.11985 2.07246,0.55061 5.05159,1.17715 6.62027,1.39232 4.35042,0.59669 14.44506,0.21127 18.74273,-0.71563 z m 70.79456,-4.85226 c -1.62471,-0.0773 -4.28333,-0.0773 -5.90804,0 -1.62471,0.0773 -0.2954,0.14062 2.95402,0.14062 3.24942,0 4.57873,-0.0633 2.95402,-0.14062 z m -16.9092,-125.06569 c -0.39218,-0.10248 -1.03391,-0.10248 -1.42608,0 -0.39217,0.10248 -0.0713,0.18634 0.71304,0.18634 0.78434,0 1.10521,-0.0839 0.71304,-0.18634 z"
       style="opacity:1;fill:#333333;fill-opacity:1;stroke:none;stroke-width:0.40745068" />
    <path
       style="opacity:1;fill:#333333;fill-opacity:1;stroke:none;stroke-width:0.26458332"
       d="m 139.81281,107.16256 h 1.38157 v 1.25205 h -1.38157 z"
       id="rect4846" />
    <g
       id="g4877">
      <path
         d="m 133.36974,95.882912 a 3.0704114,3.0704114 0 0 1 -3.05741,3.070384 3.0704114,3.0704114 0 0 1 -3.0833,-3.044394 3.0704114,3.0704114 0 0 1 3.03132,-3.096154 3.0704114,3.0704114 0 0 1 3.10895,3.018185"
         id="path4860"
         style="opacity:1;fill:#e6e6e6;fill-opacity:1;stroke:none;stroke-width:0.26458332" />
      <g
         id="g4864"
         transform="matrix(0.80841168,0,0,1,68.549895,-7.3051882)">
        <path
           style="opacity:1;fill:#000000;fill-opacity:1;stroke:none;stroke-width:0.26458332"
           id="path4862"
           d="m 77.375031,103.39364 a 1.6372987,1.2321938 0 0 1 -1.630369,1.23218 1.6372987,1.2321938 0 0 1 -1.64417,-1.22175 1.6372987,1.2321938 0 0 1 1.616451,-1.24253 1.6372987,1.2321938 0 0 1 1.657853,1.21124" />
      </g>
    </g>
    <g
       transform="matrix(-1,0,0,1,248.68829,0.27470384)"
       id="g4885">
      <path
         style="opacity:1;fill:#e6e6e6;fill-opacity:1;stroke:none;stroke-width:0.26458332"
         id="path4879"
         d="m 133.36974,95.882912 a 3.0704114,3.0704114 0 0 1 -3.05741,3.070384 3.0704114,3.0704114 0 0 1 -3.0833,-3.044394 3.0704114,3.0704114 0 0 1 3.03132,-3.096154 3.0704114,3.0704114 0 0 1 3.10895,3.018185" />
      <g
         transform="matrix(0.80841168,0,0,1,68.549895,-7.3051882)"
         id="g4883">
        <path
           d="m 77.375031,103.39364 a 1.6372987,1.2321938 0 0 1 -1.630369,1.23218 1.6372987,1.2321938 0 0 1 -1.64417,-1.22175 1.6372987,1.2321938 0 0 1 1.616451,-1.24253 1.6372987,1.2321938 0 0 1 1.657853,1.21124"
           id="path4881"
           style="opacity:1;fill:#000000;fill-opacity:1;stroke:none;stroke-width:0.26458332" />
      </g>
    </g>
  </g>
  <g
     transform="matrix(1.3334499,0,0,2.4010056,216.99435,-403.82986)"
     id="text1233"
     style="font-style:normal;font-weight:normal;font-size:10.58333397px;line-height:1.25;font-family:sans-serif;letter-spacing:0px;word-spacing:0px;fill:#ffffff;fill-opacity:1;stroke:none;stroke-width:0.26458335"
     aria-label="Install   /   Remove Deb   Packages">
    <path
       id="path1034"
       style="font-style:normal;font-variant:normal;font-weight:normal;font-stretch:normal;font-family:'Sansita One';-inkscape-font-specification:'Sansita One';text-align:center;text-anchor:middle;fill:#ffffff;stroke-width:0.26458335"
       d="m -105.79413,188.31487 1.34409,-6.98501 h 2.32833 l -1.36525,6.98501 z" />
    <path
       id="path1036"
       style="font-style:normal;font-variant:normal;font-weight:normal;font-stretch:normal;font-family:'Sansita One';-inkscape-font-specification:'Sansita One';text-align:center;text-anchor:middle;fill:#ffffff;stroke-width:0.26458335"
       d="m -97.418245,188.52653 q -1.280583,0 -1.280583,-0.99483 0.01058,-0.27517 0.09525,-0.74083 l 0.1905,-0.97367 q 0.28575,-1.37584 0.28575,-1.68275 0,-0.61384 -0.359834,-0.61384 -0.60325,0 -0.92075,1.57692 l -0.624418,3.21734 -2.12725,0.21166 1.10067,-5.61975 1.735665,-0.20108 -0.169333,1.03716 q 0.497416,-1.03716 2.021417,-1.03716 0.740833,0 1.04775,0.3175 0.3175,0.30691 0.3175,1.00541 0,0.65617 -0.338667,2.19075 -0.15875,0.68792 -0.15875,0.95251 0,0.254 0.137583,0.40216 0.148167,0.14817 0.359834,0.16934 -0.105834,0.35983 -0.47625,0.5715 -0.359834,0.21166 -0.836084,0.21166 z" />
    <path
       id="path1038"
       style="font-style:normal;font-variant:normal;font-weight:normal;font-stretch:normal;font-family:'Sansita One';-inkscape-font-specification:'Sansita One';text-align:center;text-anchor:middle;fill:#ffffff;stroke-width:0.26458335"
       d="m -92.095324,184.60011 q 0.148167,-0.39158 0.148167,-0.73025 0,-0.62441 -0.508,-0.62441 -0.264583,0 -0.486833,0.24341 -0.211667,0.23284 -0.211667,0.52917 0,0.21167 0.169333,0.381 0.243417,0.23283 0.867834,0.61383 0.624416,0.381 0.85725,0.6985 0.243416,0.30692 0.243416,0.74084 0,0.42333 -0.211666,0.81492 -0.201084,0.39158 -0.5715,0.66675 -0.79375,0.59266 -2.06375,0.59266 -0.687917,0 -1.217084,-0.35983 -0.529166,-0.34925 -0.529166,-0.762 0,-0.41275 0.296333,-0.65617 0.306917,-0.24341 0.751417,-0.24341 0.4445,0 0.719666,0.16933 -0.137583,0.34925 -0.137583,0.58208 0,0.6985 0.592667,0.6985 0.254,0 0.423333,-0.15875 0.169333,-0.15875 0.169333,-0.43391 0,-0.53975 -0.910166,-1.11126 -0.740834,-0.48683 -0.910167,-0.67733 -0.28575,-0.33867 -0.28575,-0.762 0,-0.42333 0.201083,-0.8255 0.201084,-0.40217 0.5715,-0.68792 0.772584,-0.59266 2.116667,-0.59266 0.687917,0 1.090083,0.27516 0.412751,0.27517 0.412751,0.74084 0,0.46566 -0.285751,0.73025 -0.275166,0.26458 -0.783166,0.26458 -0.34925,0 -0.518584,-0.11642 z" />
    <path
       id="path1040"
       style="font-style:normal;font-variant:normal;font-weight:normal;font-stretch:normal;font-family:'Sansita One';-inkscape-font-specification:'Sansita One';text-align:center;text-anchor:middle;fill:#ffffff;stroke-width:0.26458335"
       d="m -89.943434,187.25653 q 0,-0.28575 0.148166,-1.00542 l 0.560917,-2.8575 h -0.624417 l 0.04233,-0.3175 q 1.27,-0.381 2.497666,-1.31233 h 0.508 l -0.254,1.15358 h 0.8255 l -0.09525,0.47625 h -0.814916 l -0.53975,2.8575 q -0.137584,0.65617 -0.137584,0.87842 0,0.508 0.4445,0.61384 -0.105833,0.35983 -0.486833,0.5715 -0.381,0.21166 -0.92075,0.21166 -0.53975,0 -0.846667,-0.33866 -0.306916,-0.33867 -0.306916,-0.93134 z" />
    <path
       id="path1042"
       style="font-style:normal;font-variant:normal;font-weight:normal;font-stretch:normal;font-family:'Sansita One';-inkscape-font-specification:'Sansita One';text-align:center;text-anchor:middle;fill:#ffffff;stroke-width:0.26458335"
       d="m -85.874969,187.99737 q -0.243416,-0.27517 -0.359833,-0.70909 -0.105833,-0.43391 -0.105833,-1.143 0,-0.70908 0.243416,-1.35467 0.243417,-0.64558 0.687917,-1.11125 0.910167,-0.97366 2.413,-0.97366 0.53975,0 0.931334,0.17991 l 1.80975,-0.17991 -0.783167,4.1275 q -0.03175,0.127 -0.03175,0.35983 0,0.23284 0.137583,0.381 0.148167,0.14817 0.359834,0.16934 -0.105834,0.35983 -0.497417,0.5715 -0.381,0.21166 -0.814917,0.21166 -0.433916,0 -0.73025,-0.16933 -0.28575,-0.15875 -0.370416,-0.43392 -0.169334,0.26459 -0.529167,0.43392 -0.359834,0.16933 -0.846667,0.16933 -0.47625,0 -0.867833,-0.127 -0.391584,-0.127 -0.645584,-0.40216 z m 2.233084,-4.29684 q -0.116417,0.1905 -0.22225,0.51858 -0.105834,0.3175 -0.28575,1.18534 -0.169334,0.85725 -0.169334,1.47108 0,0.61384 0.09525,0.79375 0.09525,0.17992 0.264584,0.17992 0.338667,0 0.582083,-0.3175 0.254,-0.32808 0.34925,-0.89958 l 0.560917,-3.10092 q -0.22225,-0.1905 -0.486833,-0.1905 -0.254,0 -0.41275,0.0847 -0.148167,0.0847 -0.275167,0.27517 z" />
    <path
       id="path1044"
       style="font-style:normal;font-variant:normal;font-weight:normal;font-stretch:normal;font-family:'Sansita One';-inkscape-font-specification:'Sansita One';text-align:center;text-anchor:middle;fill:#ffffff;stroke-width:0.26458335"
       d="m -77.144711,187.73278 q -0.328084,0.79375 -1.375834,0.79375 -0.529166,0 -0.867833,-0.37041 -0.275167,-0.30692 -0.275167,-0.65617 0,-0.79375 0.370417,-2.52942 l 0.772583,-4.064 2.148417,-0.21167 -1.026583,5.35517 q -0.179917,0.78317 -0.179917,1.05834 0,0.60325 0.433917,0.62441 z" />
    <path
       id="path1046"
       style="font-style:normal;font-variant:normal;font-weight:normal;font-stretch:normal;font-family:'Sansita One';-inkscape-font-specification:'Sansita One';text-align:center;text-anchor:middle;fill:#ffffff;stroke-width:0.26458335"
       d="m -73.713395,187.73278 q -0.328083,0.79375 -1.375833,0.79375 -0.529167,0 -0.867834,-0.37041 -0.275166,-0.30692 -0.275166,-0.65617 0,-0.79375 0.370416,-2.52942 l 0.772584,-4.064 2.148416,-0.21167 -1.026583,5.35517 q -0.179917,0.78317 -0.179917,1.05834 0,0.60325 0.433917,0.62441 z" />
    <path
       id="path1048"
       style="font-style:normal;font-variant:normal;font-weight:normal;font-stretch:normal;font-family:'Sansita One';-inkscape-font-specification:'Sansita One';text-align:center;text-anchor:middle;fill:#ffffff;stroke-width:0.26458335"
       d="m -67.072848,189.89178 q 0,-0.1905 0.09525,-0.46566 l 3.46075,-9.55676 q 0.1905,-0.0317 0.560917,-0.0317 0.381,0 0.60325,0.10584 0.232833,0.0952 0.232833,0.40216 0,0.26459 -0.169333,0.75142 l -3.365501,9.29217 q -0.08467,0.0423 -0.582083,0.0423 -0.836083,0 -0.836083,-0.53975 z" />
    <path
       id="path1050"
       style="font-style:normal;font-variant:normal;font-weight:normal;font-stretch:normal;font-family:'Sansita One';-inkscape-font-specification:'Sansita One';text-align:center;text-anchor:middle;fill:#ffffff;stroke-width:0.26458335"
       d="m -56.018886,188.31487 1.291167,-6.95326 q 1.04775,-0.11641 2.57175,-0.11641 1.534583,0 2.243667,0.4445 0.709083,0.4445 0.709083,1.34408 0,0.889 -0.465667,1.44992 -0.455083,0.56091 -1.248833,0.74083 0.179917,0.87842 0.592667,1.5875 0.381,0.66675 0.8255,0.87842 -0.15875,0.4445 -0.486834,0.635 -0.3175,0.20108 -0.783166,0.20108 -0.455084,0 -0.814917,-0.26458 -0.359833,-0.27517 -0.645583,-0.77258 -0.603251,-1.07951 -0.666751,-2.78342 h 0.07408 q 0.783167,-0.0212 1.17475,-0.42334 0.391583,-0.41275 0.391583,-1.27 0,-1.06891 -0.899583,-1.11125 h -0.232834 q -0.09525,0 -0.148166,0.0106 l -1.217084,6.40292 z" />
    <path
       id="path1052"
       style="font-style:normal;font-variant:normal;font-weight:normal;font-stretch:normal;font-family:'Sansita One';-inkscape-font-specification:'Sansita One';text-align:center;text-anchor:middle;fill:#ffffff;stroke-width:0.26458335"
       d="m -44.423358,186.52628 q 0.264583,0.17992 0.264583,0.58209 0,0.39158 -0.201083,0.64558 -0.201084,0.254 -0.529167,0.42333 -0.677333,0.34925 -1.407584,0.34925 -0.73025,0 -1.164166,-0.15875 -0.423334,-0.15875 -0.709084,-0.45508 -0.560916,-0.56092 -0.560916,-1.5875 0,-1.59809 0.867833,-2.57175 0.931333,-1.04775 2.550584,-1.04775 1.005416,0 1.502833,0.42333 0.370417,0.3175 0.370417,0.83608 0,1.86267 -3.217334,1.86267 -0.04233,0.27517 -0.04233,0.508 0,0.48684 0.211666,0.67734 0.22225,0.17991 0.624417,0.17991 0.402167,0 0.8255,-0.17991 0.433917,-0.1905 0.613834,-0.48684 z m -2.159001,-1.15358 q 0.751417,0 1.185334,-0.46567 0.433917,-0.4445 0.433917,-1.15358 0,-0.24342 -0.09525,-0.37042 -0.08467,-0.13758 -0.264584,-0.13758 -0.179916,0 -0.338666,0.0741 -0.148167,0.0635 -0.306917,0.29633 -0.391584,0.52917 -0.613834,1.75684 z" />
    <path
       id="path1054"
       style="font-style:normal;font-variant:normal;font-weight:normal;font-stretch:normal;font-family:'Sansita One';-inkscape-font-specification:'Sansita One';text-align:center;text-anchor:middle;fill:#ffffff;stroke-width:0.26458335"
       d="m -35.46721,188.52653 q -1.280583,0 -1.280583,-0.99483 0,-0.43392 0.179916,-1.27 0.1905,-0.84667 0.254,-1.18534 0.148167,-0.77258 0.148167,-1.016 0,-0.53975 -0.402167,-0.53975 -0.264583,0 -0.518583,0.37042 -0.254,0.35983 -0.370417,1.09008 l -0.656166,3.33376 -2.06375,0.21166 0.5715,-2.87867 q 0.09525,-0.47625 0.179916,-1.016 0.08467,-0.53975 0.08467,-0.62441 0,-0.48684 -0.359833,-0.48684 -0.243417,0 -0.508,0.35984 -0.264584,0.35983 -0.41275,1.10066 l -0.645584,3.33376 -2.084917,0.21166 1.11125,-5.60917 1.725084,-0.21166 -0.179917,1.06891 q 0.275167,-0.5715 0.783167,-0.81491 0.508,-0.254 1.30175,-0.254 0.455083,0 0.751417,0.22225 0.296333,0.22225 0.391583,0.58208 0.179917,-0.37042 0.635,-0.58208 0.465667,-0.22225 1.026583,-0.22225 0.571501,0 0.846667,0.127 0.28575,0.11641 0.455084,0.3175 0.28575,0.37041 0.28575,1.04775 0,0.66675 -0.28575,2.05316 -0.148167,0.67734 -0.148167,0.93134 0,0.24342 0.137583,0.39158 0.148167,0.14817 0.359834,0.16934 -0.105834,0.35983 -0.47625,0.5715 -0.359834,0.21166 -0.836084,0.21166 z" />
    <path
       id="path1056"
       style="font-style:normal;font-variant:normal;font-weight:normal;font-stretch:normal;font-family:'Sansita One';-inkscape-font-specification:'Sansita One';text-align:center;text-anchor:middle;fill:#ffffff;stroke-width:0.26458335"
       d="m -31.023536,188.52653 q -2.328333,0 -2.328333,-2.19075 0,-1.55575 0.85725,-2.56117 0.910167,-1.06891 2.487083,-1.06891 1.143001,0 1.725084,0.52916 0.582083,0.52917 0.582083,1.64042 0,1.69334 -0.910166,2.67759 -0.889001,0.97366 -2.413001,0.97366 z m 0.275167,-4.60375 q -0.127,0.28575 -0.232833,0.71967 -0.09525,0.42333 -0.22225,1.10066 -0.127,0.67734 -0.127,1.51342 0,0.27517 0.08467,0.45509 0.09525,0.17991 0.338667,0.17991 0.243417,0 0.391583,-0.11641 0.15875,-0.11642 0.275167,-0.39159 0.211667,-0.48683 0.381,-1.38642 0.169333,-0.91016 0.179917,-1.30175 0.02117,-0.39158 0.02117,-0.67733 0,-0.29633 -0.08467,-0.48683 -0.08467,-0.1905 -0.328084,-0.1905 -0.232833,0 -0.391583,0.14816 -0.15875,0.14817 -0.28575,0.43392 z" />
    <path
       id="path1058"
       style="font-style:normal;font-variant:normal;font-weight:normal;font-stretch:normal;font-family:'Sansita One';-inkscape-font-specification:'Sansita One';text-align:center;text-anchor:middle;fill:#ffffff;stroke-width:0.26458335"
       d="m -23.308448,183.09728 q 0.34925,-0.39158 0.9525,-0.39158 0.370416,0 0.656166,0.20108 0.28575,0.20108 0.28575,0.58208 0,0.37042 -0.116416,0.77259 -0.116417,0.40216 -0.296334,0.81491 -0.359833,0.80434 -0.85725,1.47109 -0.6985,0.96308 -1.375833,1.47108 -0.66675,0.508 -1.397,0.508 -0.592667,0 -0.9525,-0.13758 -0.0635,-2.2225 -0.148167,-3.01625 -0.07408,-0.79375 -0.137583,-1.22767 -0.105834,-0.84667 -0.423334,-1.04775 0.243417,-0.21167 0.47625,-0.29633 0.243417,-0.0952 0.730251,-0.0952 0.497416,0 0.846666,0.39158 0.34925,0.381 0.41275,1.06892 0.07408,0.67733 0.07408,1.50283 0,0.8255 -0.0635,1.82034 0.328083,-0.23284 0.677333,-0.94192 0.47625,-0.98425 0.645583,-2.16959 0.05292,-0.35983 0.05292,-0.74083 0,-0.381 -0.04233,-0.53975 z" />
    <path
       id="path1060"
       style="font-style:normal;font-variant:normal;font-weight:normal;font-stretch:normal;font-family:'Sansita One';-inkscape-font-specification:'Sansita One';text-align:center;text-anchor:middle;fill:#ffffff;stroke-width:0.26458335"
       d="m -16.848812,186.52628 q 0.264584,0.17992 0.264584,0.58209 0,0.39158 -0.201084,0.64558 -0.201083,0.254 -0.529166,0.42333 -0.677334,0.34925 -1.407584,0.34925 -0.73025,0 -1.164166,-0.15875 -0.423334,-0.15875 -0.709084,-0.45508 -0.560917,-0.56092 -0.560917,-1.5875 0,-1.59809 0.867834,-2.57175 0.931333,-1.04775 2.550583,-1.04775 1.005417,0 1.502834,0.42333 0.370416,0.3175 0.370416,0.83608 0,1.86267 -3.217333,1.86267 -0.04233,0.27517 -0.04233,0.508 0,0.48684 0.211666,0.67734 0.22225,0.17991 0.624417,0.17991 0.402167,0 0.8255,-0.17991 0.433917,-0.1905 0.613833,-0.48684 z m -2.159,-1.15358 q 0.751417,0 1.185334,-0.46567 0.433916,-0.4445 0.433916,-1.15358 0,-0.24342 -0.09525,-0.37042 -0.08467,-0.13758 -0.264583,-0.13758 -0.179917,0 -0.338667,0.0741 -0.148166,0.0635 -0.306916,0.29633 -0.391584,0.52917 -0.613834,1.75684 z" />
    <path
       id="path1062"
       style="font-style:normal;font-variant:normal;font-weight:normal;font-stretch:normal;font-family:'Sansita One';-inkscape-font-specification:'Sansita One';text-align:center;text-anchor:middle;fill:#ffffff;stroke-width:0.26458335"
       d="m -90.148156,197.35067 q 0,4.5085 -4.8895,4.5085 -0.783167,0 -2.074334,-0.1905 l 1.185334,-6.25475 q 0.08467,-0.42333 0.137583,-0.66675 1.608667,-0.11642 2.31775,-0.11642 0.719667,0 1.375834,0.14817 0.656166,0.14816 1.090083,0.47625 0.85725,0.64558 0.85725,2.0955 z m -2.180167,-0.39158 q 0,-1.57692 -1.132416,-1.57692 h -0.105834 q -0.05292,0 -0.105833,0.0106 l -1.090083,5.68325 q 0.04233,0.0212 0.08467,0.0212 h 0.08467 q 0.391583,0 0.79375,-0.24342 0.41275,-0.24341 0.73025,-0.74083 0.740833,-1.15358 0.740833,-3.15383 z" />
    <path
       id="path1064"
       style="font-style:normal;font-variant:normal;font-weight:normal;font-stretch:normal;font-family:'Sansita One';-inkscape-font-specification:'Sansita One';text-align:center;text-anchor:middle;fill:#ffffff;stroke-width:0.26458335"
       d="m -85.330424,199.95417 q 0.264583,0.17992 0.264583,0.58208 0,0.39159 -0.201083,0.64559 -0.201083,0.254 -0.529167,0.42333 -0.677333,0.34925 -1.407583,0.34925 -0.73025,0 -1.164167,-0.15875 -0.423333,-0.15875 -0.709083,-0.45508 -0.560917,-0.56092 -0.560917,-1.5875 0,-1.59809 0.867834,-2.57175 0.931333,-1.04775 2.550583,-1.04775 1.005417,0 1.502833,0.42333 0.370417,0.3175 0.370417,0.83608 0,1.86267 -3.217333,1.86267 -0.04233,0.27517 -0.04233,0.508 0,0.48683 0.211667,0.67733 0.22225,0.17992 0.624417,0.17992 0.402166,0 0.8255,-0.17992 0.433916,-0.1905 0.613833,-0.48683 z m -2.159,-1.15358 q 0.751417,0 1.185333,-0.46567 0.433917,-0.4445 0.433917,-1.15358 0,-0.24342 -0.09525,-0.37042 -0.08467,-0.13758 -0.264583,-0.13758 -0.179917,0 -0.338667,0.0741 -0.148167,0.0635 -0.306917,0.29633 -0.391583,0.52917 -0.613833,1.75684 z" />
    <path
       id="path1066"
       style="font-style:normal;font-variant:normal;font-weight:normal;font-stretch:normal;font-family:'Sansita One';-inkscape-font-specification:'Sansita One';text-align:center;text-anchor:middle;fill:#ffffff;stroke-width:0.26458335"
       d="m -84.131862,201.23475 1.312333,-6.90033 2.148417,-0.21167 -0.328083,1.61925 q -0.116417,0.49742 -0.264583,0.84667 0.232833,-0.29633 0.740833,-0.41275 0.148167,-0.0423 0.328083,-0.0423 0.98425,0 1.524,0.60325 0.53975,0.59266 0.53975,1.74625 0,1.50283 -0.85725,2.44475 -0.92075,1.02658 -2.592916,1.02658 -1.153584,0 -2.021417,-0.381 -0.306917,-0.13758 -0.529167,-0.33867 z m 2.12725,-0.0952 q 0.22225,0.1905 0.497417,0.1905 0.275167,0 0.433917,-0.10583 0.15875,-0.10583 0.275166,-0.3175 0.3175,-0.5715 0.5715,-2.31775 0.07408,-0.49742 0.07408,-0.99483 0,-0.49742 -0.116417,-0.65617 -0.105833,-0.15875 -0.3175,-0.15875 -0.645583,0 -0.85725,1.25942 z" />
    <path
       id="path1068"
       style="font-style:normal;font-variant:normal;font-weight:normal;font-stretch:normal;font-family:'Sansita One';-inkscape-font-specification:'Sansita One';text-align:center;text-anchor:middle;fill:#ffffff;stroke-width:0.26458335"
       d="m -66.854404,194.68367 q 2.592917,0 2.592917,1.83092 0,1.00541 -0.645584,1.60866 -0.635,0.60325 -1.74625,0.60325 -0.518583,0 -0.92075,-0.29633 -0.1905,-0.127 -0.3175,-0.29633 0.772584,0 1.17475,-0.46567 0.41275,-0.47625 0.41275,-1.397 0,-0.92075 -0.910166,-0.92075 h -0.254 q -0.0635,0 -0.116417,0.0106 l -1.217084,6.38175 h -2.296583 l 1.30175,-6.93208 q 1.132417,-0.10584 1.788584,-0.11642 0.656166,-0.0106 1.153583,-0.0106 z" />
    <path
       id="path1070"
       style="font-style:normal;font-variant:normal;font-weight:normal;font-stretch:normal;font-family:'Sansita One';-inkscape-font-specification:'Sansita One';text-align:center;text-anchor:middle;fill:#ffffff;stroke-width:0.26458335"
       d="m -63.757457,201.42525 q -0.243417,-0.27516 -0.359833,-0.70908 -0.105834,-0.43392 -0.105834,-1.143 0,-0.70908 0.243417,-1.35467 0.243417,-0.64558 0.687917,-1.11125 0.910166,-0.97366 2.413,-0.97366 0.53975,0 0.931333,0.17991 l 1.80975,-0.17991 -0.783166,4.1275 q -0.03175,0.127 -0.03175,0.35983 0,0.23283 0.137583,0.381 0.148167,0.14817 0.359833,0.16933 -0.105833,0.35984 -0.497416,0.5715 -0.381,0.21167 -0.814917,0.21167 -0.433917,0 -0.73025,-0.16933 -0.28575,-0.15875 -0.370417,-0.43392 -0.169333,0.26458 -0.529167,0.43392 -0.359833,0.16933 -0.846666,0.16933 -0.47625,0 -0.867834,-0.127 -0.391583,-0.127 -0.645583,-0.40217 z m 2.233083,-4.29683 q -0.116416,0.1905 -0.22225,0.51858 -0.105833,0.3175 -0.28575,1.18534 -0.169333,0.85725 -0.169333,1.47108 0,0.61383 0.09525,0.79375 0.09525,0.17992 0.264583,0.17992 0.338667,0 0.582084,-0.3175 0.254,-0.32809 0.34925,-0.89959 l 0.560917,-3.10091 q -0.22225,-0.1905 -0.486834,-0.1905 -0.254,0 -0.41275,0.0847 -0.148167,0.0847 -0.275167,0.27517 z" />
    <path
       id="path1072"
       style="font-style:normal;font-variant:normal;font-weight:normal;font-stretch:normal;font-family:'Sansita One';-inkscape-font-specification:'Sansita One';text-align:center;text-anchor:middle;fill:#ffffff;stroke-width:0.26458335"
       d="m -52.401538,197.34009 q 0,0.4445 -0.370416,0.71966 -0.370417,0.27517 -0.973667,0.27517 -0.254,0 -0.402167,-0.0741 0.116417,-0.27517 0.148167,-0.61384 0.04233,-0.34925 0.04233,-0.4445 0,-0.4445 -0.306916,-0.4445 -0.211667,0 -0.455084,0.26459 -0.232833,0.26458 -0.433916,0.67733 -0.4445,0.9525 -0.4445,1.91558 0,0.52917 0.201083,0.77259 0.201083,0.23283 0.645583,0.23283 0.613834,0 1.100667,-0.508 0.137583,-0.15875 0.211667,-0.33867 0.402166,0.21167 0.402166,0.79375 0,0.59267 -0.656166,0.98425 -0.677334,0.40217 -1.756834,0.40217 -2.148416,0 -2.148416,-2.27542 0,-1.66158 0.941916,-2.61408 0.910167,-0.93133 2.582334,-0.93133 1.672166,0 1.672166,1.2065 z" />
    <path
       id="path1074"
       style="font-style:normal;font-variant:normal;font-weight:normal;font-stretch:normal;font-family:'Sansita One';-inkscape-font-specification:'Sansita One';text-align:center;text-anchor:middle;fill:#ffffff;stroke-width:0.26458335"
       d="m -49.389751,196.72625 q 0.5715,-0.59266 1.778,-0.59266 0.66675,0 1.026583,0.35983 0.370417,0.34925 0.370417,1.00542 0,0.64558 -0.370417,1.11125 -0.359833,0.45508 -1.037166,0.64558 0.05292,0.21167 0.127,0.43392 l 0.148166,0.42333 q 0.201084,0.53975 0.359834,0.73025 0.15875,0.1905 0.370416,0.254 -0.116416,0.43392 -0.53975,0.66675 -0.338666,0.1905 -0.804333,0.1905 -1.36525,0 -1.545167,-2.10608 -0.03175,-0.29634 -0.03175,-0.59267 0.529167,-0.14817 0.899583,-0.64558 0.370417,-0.49742 0.370417,-1.0795 0,-0.58209 -0.41275,-0.58209 -0.296333,0 -0.529167,0.32809 -0.232833,0.32808 -0.338666,0.889 l -0.6985,3.57716 -2.137834,0.21167 1.481667,-7.62 2.12725,-0.21167 -0.243417,1.25942 q -0.15875,0.889 -0.370416,1.34408 z" />
    <path
       id="path1076"
       style="font-style:normal;font-variant:normal;font-weight:normal;font-stretch:normal;font-family:'Sansita One';-inkscape-font-specification:'Sansita One';text-align:center;text-anchor:middle;fill:#ffffff;stroke-width:0.26458335"
       d="m -45.277961,201.42525 q -0.243417,-0.27516 -0.359833,-0.70908 -0.105834,-0.43392 -0.105834,-1.143 0,-0.70908 0.243417,-1.35467 0.243417,-0.64558 0.687917,-1.11125 0.910166,-0.97366 2.413,-0.97366 0.53975,0 0.931333,0.17991 l 1.80975,-0.17991 -0.783166,4.1275 q -0.03175,0.127 -0.03175,0.35983 0,0.23283 0.137583,0.381 0.148167,0.14817 0.359833,0.16933 -0.105833,0.35984 -0.497416,0.5715 -0.381,0.21167 -0.814917,0.21167 -0.433917,0 -0.73025,-0.16933 -0.28575,-0.15875 -0.370417,-0.43392 -0.169333,0.26458 -0.529167,0.43392 -0.359833,0.16933 -0.846666,0.16933 -0.47625,0 -0.867834,-0.127 -0.391583,-0.127 -0.645583,-0.40217 z m 2.233083,-4.29683 q -0.116416,0.1905 -0.22225,0.51858 -0.105833,0.3175 -0.28575,1.18534 -0.169333,0.85725 -0.169333,1.47108 0,0.61383 0.09525,0.79375 0.09525,0.17992 0.264583,0.17992 0.338667,0 0.582084,-0.3175 0.254,-0.32809 0.34925,-0.89959 l 0.560917,-3.10091 q -0.22225,-0.1905 -0.486834,-0.1905 -0.254,0 -0.41275,0.0847 -0.148167,0.0847 -0.275167,0.27517 z" />
    <path
       id="path1078"
       style="font-style:normal;font-variant:normal;font-weight:normal;font-stretch:normal;font-family:'Sansita One';-inkscape-font-specification:'Sansita One';text-align:center;text-anchor:middle;fill:#ffffff;stroke-width:0.26458335"
       d="m -38.367046,197.31892 q 0.359834,-0.508 0.899584,-0.84667 0.550333,-0.33866 1.217083,-0.33866 0.66675,0 0.98425,0.21166 l 2.074334,-0.21166 -0.719667,4.064 q -0.370417,2.07433 -1.153583,2.88925 -0.751417,0.77258 -2.211917,0.77258 -1.11125,0 -1.74625,-0.34925 -0.635,-0.34925 -0.635,-0.93133 0,-0.43392 0.328083,-0.68792 0.328083,-0.24342 0.836083,-0.24342 0.4445,0 0.783167,0.20109 0.201083,0.10583 0.296333,0.254 -0.243416,0.21166 -0.243416,0.56091 0,0.45509 0.423333,0.45509 0.709084,0 1.11125,-1.67217 0.116417,-0.45508 0.211667,-0.91017 -0.47625,0.58209 -1.55575,0.58209 -0.751417,0 -1.185334,-0.35984 -0.433916,-0.35983 -0.433916,-1.2065 0,-0.52916 0.179916,-1.12183 0.179917,-0.60325 0.53975,-1.11125 z m 1.375834,2.26483 q 0,0.71967 0.370417,0.71967 0.254,0 0.497416,-0.27517 0.1905,-0.22225 0.264584,-0.55033 l 0.53975,-2.71992 q -0.05292,-0.0106 -0.105834,-0.0318 -0.105833,-0.0423 -0.243416,-0.0423 -0.645584,0 -1.026584,1.05833 -0.296333,0.8255 -0.296333,1.8415 z" />
    <path
       id="path1080"
       style="font-style:normal;font-variant:normal;font-weight:normal;font-stretch:normal;font-family:'Sansita One';-inkscape-font-specification:'Sansita One';text-align:center;text-anchor:middle;fill:#ffffff;stroke-width:0.26458335"
       d="m -28.486341,199.95417 q 0.264583,0.17992 0.264583,0.58208 0,0.39159 -0.201083,0.64559 -0.201083,0.254 -0.529167,0.42333 -0.677333,0.34925 -1.407583,0.34925 -0.73025,0 -1.164167,-0.15875 -0.423333,-0.15875 -0.709083,-0.45508 -0.560917,-0.56092 -0.560917,-1.5875 0,-1.59809 0.867833,-2.57175 0.931334,-1.04775 2.550584,-1.04775 1.005417,0 1.502833,0.42333 0.370417,0.3175 0.370417,0.83608 0,1.86267 -3.217334,1.86267 -0.04233,0.27517 -0.04233,0.508 0,0.48683 0.211667,0.67733 0.22225,0.17992 0.624417,0.17992 0.402166,0 0.8255,-0.17992 0.433916,-0.1905 0.613833,-0.48683 z m -2.159,-1.15358 q 0.751417,0 1.185333,-0.46567 0.433917,-0.4445 0.433917,-1.15358 0,-0.24342 -0.09525,-0.37042 -0.08467,-0.13758 -0.264583,-0.13758 -0.179917,0 -0.338667,0.0741 -0.148167,0.0635 -0.306917,0.29633 -0.391583,0.52917 -0.613833,1.75684 z" />
    <path
       id="path1082"
       style="font-style:normal;font-variant:normal;font-weight:normal;font-stretch:normal;font-family:'Sansita One';-inkscape-font-specification:'Sansita One';text-align:center;text-anchor:middle;fill:#ffffff;stroke-width:0.26458335"
       d="m -23.985784,198.028 q 0.148167,-0.39158 0.148167,-0.73025 0,-0.62441 -0.508,-0.62441 -0.264583,0 -0.486833,0.24341 -0.211667,0.23284 -0.211667,0.52917 0,0.21167 0.169333,0.381 0.243417,0.23283 0.867834,0.61383 0.624416,0.381 0.85725,0.6985 0.243416,0.30692 0.243416,0.74084 0,0.42333 -0.211666,0.81491 -0.201084,0.39159 -0.5715,0.66675 -0.79375,0.59267 -2.06375,0.59267 -0.687917,0 -1.217084,-0.35983 -0.529167,-0.34925 -0.529167,-0.762 0,-0.41275 0.296334,-0.65617 0.306916,-0.24342 0.751416,-0.24342 0.4445,0 0.719667,0.16934 -0.137583,0.34925 -0.137583,0.58208 0,0.6985 0.592667,0.6985 0.254,0 0.423333,-0.15875 0.169333,-0.15875 0.169333,-0.43392 0,-0.53975 -0.910166,-1.11125 -0.740834,-0.48683 -0.910167,-0.67733 -0.28575,-0.33867 -0.28575,-0.762 0,-0.42333 0.201083,-0.8255 0.201083,-0.40217 0.5715,-0.68792 0.772584,-0.59266 2.116667,-0.59266 0.687917,0 1.090083,0.27516 0.41275,0.27517 0.41275,0.74084 0,0.46566 -0.28575,0.73025 -0.275166,0.26458 -0.783166,0.26458 -0.34925,0 -0.518584,-0.11642 z" />
  </g>
</svg>
