<?xml version="1.0" encoding="UTF-8" standalone="no"?>
<svg
   xmlns:dc="http://purl.org/dc/elements/1.1/"
   xmlns:cc="http://creativecommons.org/ns#"
   xmlns:rdf="http://www.w3.org/1999/02/22-rdf-syntax-ns#"
   xmlns:svg="http://www.w3.org/2000/svg"
   xmlns="http://www.w3.org/2000/svg"
   xmlns:xlink="http://www.w3.org/1999/xlink"
   width="211.40207mm"
   height="119.0625mm"
   viewBox="0 0 211.40207 119.0625"
   version="1.1"
   id="svg3357">
  <defs
     id="defs3351">
    <linearGradient
       id="linearGradient6114">
      <stop
         style="stop-color:#6f7c91;stop-opacity:1;"
         offset="0"
         id="stop6110" />
      <stop
         style="stop-color:#162d50;stop-opacity:1"
         offset="1"
         id="stop6112" />
    </linearGradient>
    <radialGradient
       xlink:href="#linearGradient6114"
       id="radialGradient6126"
       cx="73.77433"
       cy="66.986313"
       fx="73.77433"
       fy="66.986313"
       r="31.67275"
       gradientTransform="matrix(3.0071285,0,0,1.83657,-125.12732,-58.151445)"
       gradientUnits="userSpaceOnUse" />
    <filter
       style="color-interpolation-filters:sRGB"
       id="filter1480"
       x="-0.80500406"
       width="2.610008"
       y="-0.70547628"
       height="2.4109526">
      <feGaussianBlur
         stdDeviation="6.4668659"
         id="feGaussianBlur1482" />
    </filter>
    <filter
       style="color-interpolation-filters:sRGB"
       id="filter1484"
       x="-0.77602392"
       width="2.5520477"
       y="-0.70547628"
       height="2.4109526">
      <feGaussianBlur
         stdDeviation="6.4668659"
         id="feGaussianBlur1486" />
    </filter>
    <filter
       style="color-interpolation-filters:sRGB"
       id="filter1488"
       x="-0.6350441"
       width="2.2700882"
       y="-0.53152323"
       height="2.0630465">
      <feGaussianBlur
         stdDeviation="6.4668659"
         id="feGaussianBlur1490" />
    </filter>
    <filter
       style="color-interpolation-filters:sRGB"
       id="filter1492"
       x="-0.67480338"
       width="2.3496068"
       y="-0.70547628"
       height="2.4109526">
      <feGaussianBlur
         stdDeviation="6.4668659"
         id="feGaussianBlur1494" />
    </filter>
    <filter
       style="color-interpolation-filters:sRGB"
       id="filter1496"
       x="-0.66554368"
       width="2.3310874"
       y="-0.52434045"
       height="2.048681">
      <feGaussianBlur
         stdDeviation="6.4668659"
         id="feGaussianBlur1498" />
    </filter>
    <filter
       style="color-interpolation-filters:sRGB"
       id="filter1500"
       x="-0.79024839"
       width="2.5804968"
       y="-0.70547628"
       height="2.4109526">
      <feGaussianBlur
         stdDeviation="6.4668659"
         id="feGaussianBlur1502" />
    </filter>
    <filter
       style="color-interpolation-filters:sRGB"
       id="filter1504"
       x="-0.67480338"
       width="2.3496068"
       y="-0.70547628"
       height="2.4109526">
      <feGaussianBlur
         stdDeviation="6.4668659"
         id="feGaussianBlur1506" />
    </filter>
    <filter
       style="color-interpolation-filters:sRGB"
       id="filter1508"
       x="-0.60063767"
       width="2.2012753"
       y="-0.58172709"
       height="2.1634541">
      <feGaussianBlur
         stdDeviation="6.4668659"
         id="feGaussianBlur1510" />
    </filter>
    <filter
       style="color-interpolation-filters:sRGB"
       id="filter1512"
       x="-0.68432444"
       width="2.368649"
       y="-0.52434045"
       height="2.048681">
      <feGaussianBlur
         stdDeviation="6.4668659"
         id="feGaussianBlur1514" />
    </filter>
    <filter
       style="color-interpolation-filters:sRGB"
       id="filter1516"
       x="-0.77602392"
       width="2.5520477"
       y="-0.70547628"
       height="2.4109526">
      <feGaussianBlur
         stdDeviation="6.4668659"
         id="feGaussianBlur1518" />
    </filter>
    <filter
       style="color-interpolation-filters:sRGB"
       id="filter1520"
       x="-0.58968407"
       width="2.179368"
       y="-0.5680995"
       height="2.136199">
      <feGaussianBlur
         stdDeviation="6.4668659"
         id="feGaussianBlur1522" />
    </filter>
    <filter
       style="color-interpolation-filters:sRGB"
       id="filter1524"
       x="-0.77602392"
       width="2.5520477"
       y="-0.70547628"
       height="2.4109526">
      <feGaussianBlur
         stdDeviation="6.4668659"
         id="feGaussianBlur1526" />
    </filter>
    <filter
       style="color-interpolation-filters:sRGB"
       id="filter1528"
       x="-0.71987379"
       width="2.4397476"
       y="-0.70547628"
       height="2.4109526">
      <feGaussianBlur
         stdDeviation="6.4668659"
         id="feGaussianBlur1530" />
    </filter>
    <filter
       style="color-interpolation-filters:sRGB"
       id="filter1532"
       x="-0.72661418"
       width="2.4532282"
       y="-0.70547628"
       height="2.4109526">
      <feGaussianBlur
         stdDeviation="6.4668659"
         id="feGaussianBlur1534" />
    </filter>
    <filter
       style="color-interpolation-filters:sRGB"
       id="filter1536"
       x="-0.44650397"
       width="1.893008"
       y="-0.70547628"
       height="2.4109526">
      <feGaussianBlur
         stdDeviation="6.4668659"
         id="feGaussianBlur1538" />
    </filter>
    <filter
       style="color-interpolation-filters:sRGB"
       id="filter1540"
       x="-0.77602392"
       width="2.5520477"
       y="-0.70547628"
       height="2.4109526">
      <feGaussianBlur
         stdDeviation="6.4668659"
         id="feGaussianBlur1542" />
    </filter>
    <filter
       style="color-interpolation-filters:sRGB"
       id="filter1544"
       x="-0.60250306"
       width="2.2050061"
       y="-0.56397086"
       height="2.1279416">
      <feGaussianBlur
         stdDeviation="6.4668659"
         id="feGaussianBlur1546" />
    </filter>
    <filter
       style="color-interpolation-filters:sRGB"
       id="filter1548"
       x="-0.82908541"
       width="2.6581707"
       y="-0.38762432"
       height="1.7752486">
      <feGaussianBlur
         stdDeviation="6.4668659"
         id="feGaussianBlur1550" />
    </filter>
    <filter
       style="color-interpolation-filters:sRGB"
       id="filter1556"
       x="-1.2476269"
       width="3.4952538"
       y="-0.52434045"
       height="2.048681">
      <feGaussianBlur
         stdDeviation="6.4668659"
         id="feGaussianBlur1558" />
    </filter>
    <filter
       style="color-interpolation-filters:sRGB"
       id="filter1560"
       x="-0.67480338"
       width="2.3496068"
       y="-0.70547628"
       height="2.4109526">
      <feGaussianBlur
         stdDeviation="6.4668659"
         id="feGaussianBlur1562" />
    </filter>
    <filter
       style="color-interpolation-filters:sRGB"
       id="filter1564"
       x="-1.1086056"
       width="3.2172112"
       y="-0.60721743"
       height="2.2144349">
      <feGaussianBlur
         stdDeviation="6.4668659"
         id="feGaussianBlur1566" />
    </filter>
    <filter
       style="color-interpolation-filters:sRGB"
       id="filter1568"
       x="-0.80500406"
       width="2.610008"
       y="-0.70547628"
       height="2.4109526">
      <feGaussianBlur
         stdDeviation="6.4668659"
         id="feGaussianBlur1570" />
    </filter>
    <filter
       style="color-interpolation-filters:sRGB"
       id="filter1572"
       x="-0.67834258"
       width="2.3566852"
       y="-0.70547628"
       height="2.4109526">
      <feGaussianBlur
         stdDeviation="6.4668659"
         id="feGaussianBlur1574" />
    </filter>
    <filter
       style="color-interpolation-filters:sRGB"
       id="filter1576"
       x="-1.1181901"
       width="3.2363801"
       y="-0.58789688"
       height="2.1757939">
      <feGaussianBlur
         stdDeviation="6.4668659"
         id="feGaussianBlur1578" />
    </filter>
  </defs>
  <metadata
     id="metadata3354">
    <rdf:RDF>
      <cc:Work
         rdf:about="">
        <dc:format>image/svg+xml</dc:format>
        <dc:type
           rdf:resource="http://purl.org/dc/dcmitype/StillImage" />
        <dc:title></dc:title>
      </cc:Work>
    </rdf:RDF>
  </metadata>
  <rect
     ry="0"
     y="5.3290705e-15"
     x="0"
     height="119.0625"
     width="211.40207"
     id="rect6108"
     style="opacity:1;fill:#c83737;fill-opacity:1;stroke:none;stroke-width:4.38045835;stroke-miterlimit:4;stroke-dasharray:none;paint-order:stroke markers fill" />
  <flowRoot
     transform="matrix(1.1097917,0,0,1.0234149,-1.6397721,-6.8613634)"
     style="font-style:normal;font-weight:normal;font-size:40px;line-height:1.25;font-family:sans-serif;letter-spacing:0px;word-spacing:0px;fill:#000000;fill-opacity:1;stroke:none"
     id="flowRoot874"
     xml:space="preserve"><flowRegion
       id="flowRegion876"><rect
         y="215.22041"
         x="200.72992"
         height="44.525547"
         width="166.0584"
         id="rect878" /></flowRegion><flowPara
       id="flowPara880" /></flowRoot>  <flowRoot
     transform="translate(-1.4775493,-3.9803138)"
     style="font-style:normal;font-weight:normal;font-size:40px;line-height:1.25;font-family:sans-serif;letter-spacing:0px;word-spacing:0px;fill:#000000;fill-opacity:1;stroke:none"
     id="flowRoot1087"
     xml:space="preserve"><flowRegion
       id="flowRegion1089"><rect
         y="161.32643"
         x="459.55276"
         height="216.1263"
         width="296.88928"
         id="rect1091" /></flowRegion><flowPara
       id="flowPara1093" /></flowRoot>  <g
     transform="matrix(1.1825108,0,0,1.2934259,-97.668834,-89.71389)"
     id="g4921"
     style="display:inline">
    <g
       id="g4720"
       transform="translate(50.270828)">
      <g
         style="fill:#333333"
         transform="translate(-47.638093,1.3360133)"
         id="g4694">
        <path
           id="path835"
           d="m 144.21101,139.55982 c 0,0 5.43081,5.83681 7.33498,3.79847 2.22288,-2.37952 -12.62665,-36.87139 -12.62665,-36.87139"
           style="fill:#333333;stroke:none;stroke-width:0.26458347px;stroke-linecap:butt;stroke-linejoin:miter;stroke-opacity:1" />
        <path
           style="fill:#333333;stroke:none;stroke-width:0.26458332px;stroke-linecap:butt;stroke-linejoin:miter;stroke-opacity:1"
           d="m 97.450493,140.21473 c 7.815327,4.80271 15.630577,9.60538 23.402247,9.51796 7.77167,-0.0874 15.49967,-5.06478 19.38543,-7.57529 3.88576,-2.5105 3.92946,-2.5542 3.97284,-2.59758"
           id="path817" />
        <path
           style="fill:#333333;stroke:none;stroke-width:0.26458332px;stroke-linecap:butt;stroke-linejoin:miter;stroke-opacity:1"
           d="m 97.450491,140.21473 c 0,0 -5.430812,5.83681 -7.33498,3.79847 -2.222882,-2.37952 12.820499,-36.99713 12.820499,-36.99713"
           id="path825" />
        <path
           style="fill:#333333;stroke:none;stroke-width:0.26458332px;stroke-linecap:butt;stroke-linejoin:miter;stroke-opacity:1"
           d="m 102.93926,105.67937 c 0.0862,-6.905162 0.17248,-13.810016 1.50935,-18.736088 1.33687,-4.926072 3.92412,-7.873272 9.74546,-9.346742 5.82134,-1.473471 14.87673,-1.473471 19.40429,3.368239 4.52756,4.84171 4.52756,14.525398 4.52756,24.209361"
           id="path831"
           transform="matrix(1.0226412,0,0,1.0473654,-2.3339152,-3.6688483)" />
      </g>
      <g
         id="g4708">
        <path
           style="fill:#333333;stroke:none;stroke-width:0.26458332px;stroke-linecap:butt;stroke-linejoin:miter;stroke-opacity:1"
           d="m 49.741667,141.68958 c 0,0 3.615973,-22.40139 5.55625,-33.60208 l 35.983333,-0.26458 6.614583,33.07291 z"
           id="path4696" />
        <rect
           style="opacity:1;fill:#333333;fill-opacity:1;stroke:none;stroke-width:0.26458332"
           id="rect4698"
           width="37.041668"
           height="3.96875"
           x="55.5625"
           y="138.25" />
        <rect
           style="opacity:1;fill:#333333;fill-opacity:1;stroke:none;stroke-width:0.26458332"
           id="rect4700"
           width="30.427082"
           height="3.96875"
           x="59.53125"
           y="106.5" />
        <rect
           style="opacity:1;fill:#333333;fill-opacity:1;stroke:none;stroke-width:0.26458332"
           id="rect4702"
           width="5.2916694"
           height="3.968755"
           x="84.666664"
           y="105.17708" />
      </g>
    </g>
    <path
       style="opacity:1;fill:#e6e6e6;fill-opacity:1;stroke:none;stroke-width:0.26458332"
       id="path843"
       d="m 138.70455,126.61246 a 15.239734,15.867999 0 0 1 -15.17522,15.86785 15.239734,15.867999 0 0 1 -15.3037,-15.73349 15.239734,15.867999 0 0 1 15.04563,-16.00108 15.239734,15.867999 0 0 1 15.4311,15.59801" />
    <g
       id="g4688"
       transform="translate(44.751274,16.383515)">
      <g
         style="fill:#ff6600;stroke:none"
         transform="translate(-41.01042,-15.875)"
         id="g4596">
        <path
           style="fill:#ff6600;stroke:none;stroke-width:0.26458332px;stroke-linecap:butt;stroke-linejoin:miter;stroke-opacity:1"
           d="m 111.125,110.46875 c 2.9216,-2.67614 5.84316,-5.35225 8.7091,-5.35212 2.86595,1.3e-4 5.6775,2.67624 8.48882,5.35212"
           id="path4585" />
        <path
           style="fill:#ff6600;stroke:none;stroke-width:0.26458332px;stroke-linecap:butt;stroke-linejoin:miter;stroke-opacity:1"
           d="m 111.125,110.46875 c 2.77957,3.92198 5.48174,5.31906 8.73125,6.61458"
           id="path4589" />
        <path
           style="fill:#ff6600;stroke:none;stroke-width:0.26458332px;stroke-linecap:butt;stroke-linejoin:miter;stroke-opacity:1"
           d="m 128.32292,110.46875 c -1.04604,3.82945 -4.9192,5.32533 -8.46667,6.61458"
           id="path4591" />
      </g>
      <g
         id="g4661"
         transform="translate(-41.01042,-15.875)"
         style="fill:#ff6600;stroke:none">
        <path
           id="path4655"
           d="m 111.125,110.46875 c 2.9216,-2.67614 5.84316,-5.35225 8.7091,-5.35212 2.86595,1.3e-4 5.6775,2.67624 8.48882,5.35212"
           style="fill:#ff6600;stroke:none;stroke-width:0.26458332px;stroke-linecap:butt;stroke-linejoin:miter;stroke-opacity:1" />
        <path
           id="path4657"
           d="m 111.125,110.46875 c 2.77957,3.92198 5.48174,5.31906 8.73125,6.61458"
           style="fill:#ff6600;stroke:none;stroke-width:0.26458332px;stroke-linecap:butt;stroke-linejoin:miter;stroke-opacity:1" />
        <path
           id="path4659"
           d="m 128.32292,110.46875 c -1.04604,3.82945 -4.9192,5.32533 -8.46667,6.61458"
           style="fill:#ff6600;stroke:none;stroke-width:0.26458332px;stroke-linecap:butt;stroke-linejoin:miter;stroke-opacity:1" />
      </g>
      <path
         d="m 78.845833,101.20833 -4.582718,-2.645833 v -5.291666 l 4.582718,-2.645833 4.582717,2.645833 v 5.291666 z"
         id="path4671"
         style="opacity:1;fill:#ff6600;fill-opacity:1;stroke:none;stroke-width:0.26458332" />
      <path
         transform="matrix(0.94729327,-1.274616,1.0295753,1.1727506,-98.356248,87.506876)"
         d="m 83.608335,99.620834 2.319854,-2.397701 0.916543,3.207907 z"
         id="path4673"
         style="opacity:1;fill:#ff6600;fill-opacity:1;stroke:none;stroke-width:0.26458332" />
      <path
         transform="matrix(1.141627,0.11210349,-0.08749549,1.2944633,-2.2020547,-37.413635)"
         d="m 74.536294,98.196559 -3.844516,-2.340158 3.948894,-2.159369 z"
         id="path4675"
         style="opacity:1;fill:#ff6600;fill-opacity:1;stroke:none;stroke-width:0.26458332" />
    </g>
    <path
       style="opacity:1;fill:#333333;fill-opacity:1;stroke:none;stroke-width:0.40745068"
       d="m 457.97263,570.35612 c -18.79507,-2.12161 -40.18257,-11.27811 -71.63974,-30.67068 -8.13959,-5.01787 -8.02372,-4.97631 -9.49602,-3.40625 -1.98328,2.11498 -9.29175,8.28788 -11.94887,10.09229 -7.55689,5.13179 -13.40276,5.68891 -14.83103,1.41342 -1.63872,-4.90546 5.4376,-28.95935 18.84332,-64.05245 9.54282,-24.98091 28.41577,-70.80369 29.41653,-71.42219 0.22811,-0.14098 0.37499,-0.42288 0.3264,-0.62644 -0.0486,-0.20356 0.0318,-0.82849 0.17857,-1.38874 0.14681,-0.56024 0.45269,-8.53609 0.67974,-17.7241 0.63732,-25.79 1.66538,-38.59108 4.07232,-50.7069 4.32594,-21.77558 13.30666,-33.82393 30.11939,-40.40761 16.87389,-6.60764 39.99439,-8.13907 57.78976,-3.82784 20.7168,5.019 32.64507,17.2536 38.14208,39.1216 3.4588,13.75967 4.66657,26.50558 4.98055,52.56114 0.20469,16.98608 0.39447,21.14579 0.94912,20.80299 0.62648,-0.38718 21.06718,49.83231 30.13912,74.04694 11.92704,31.8354 17.56985,50.7662 17.56985,58.9443 0,2.59002 -0.1133,3.01447 -1.03188,3.86578 -3.15357,2.92263 -9.30891,0.77622 -18.04824,-6.29354 -2.16747,-1.75339 -5.03522,-4.30389 -6.3728,-5.66777 -1.33757,-1.36388 -2.56841,-2.47978 -2.7352,-2.47978 -0.16679,0 -5.21474,3.17625 -11.21765,7.05833 -6.00292,3.88209 -13.48133,8.58639 -16.6187,10.45401 -26.52636,15.79064 -49.54126,22.54011 -69.26662,20.31349 z m 19.96508,-32.86866 c 5.28911,-1.14072 8.32959,-2.22946 13.85333,-4.9606 18.43404,-9.11449 30.90578,-28.24854 32.34892,-49.62947 0.94243,-13.9626 -2.58151,-27.3736 -10.20264,-38.82794 -3.0137,-4.52952 -10.61003,-12.34927 -14.86401,-15.30119 l -2.90399,-2.01514 0.75119,-1.40422 c 0.41315,-0.77232 1.12926,-2.38761 1.59134,-3.58952 1.00562,-2.61573 1.41642,-1.9763 -5.09101,-7.92451 -5.72644,-5.23434 -11.15932,-9.40512 -14.87195,-11.41709 -10.91899,-5.91728 -20.15604,-3.88649 -33.81841,7.43508 -3.40229,2.81937 -10.37133,9.1079 -10.53264,9.50415 -0.0784,0.19273 0.9084,1.72266 2.19301,3.39982 1.28461,1.67718 2.26556,3.10249 2.1799,3.16736 -0.0857,0.0649 -1.43922,0.95947 -3.00791,1.98798 -15.62369,10.24371 -25.66261,28.29897 -26.56551,47.77875 -1.32187,28.5191 16.86115,54.02186 43.57738,61.11985 2.07246,0.55061 5.05159,1.17715 6.62027,1.39232 4.35042,0.59669 14.44506,0.21127 18.74273,-0.71563 z m 70.79456,-4.85226 c -1.62471,-0.0773 -4.28333,-0.0773 -5.90804,0 -1.62471,0.0773 -0.2954,0.14062 2.95402,0.14062 3.24942,0 4.57873,-0.0633 2.95402,-0.14062 z m -16.9092,-125.06569 c -0.39218,-0.10248 -1.03391,-0.10248 -1.42608,0 -0.39217,0.10248 -0.0713,0.18634 0.71304,0.18634 0.78434,0 1.10521,-0.0839 0.71304,-0.18634 z"
       id="path4722"
       transform="scale(0.26458333)" />
    <rect
       style="opacity:1;fill:#333333;fill-opacity:1;stroke:none;stroke-width:0.26458332"
       id="rect4846"
       width="1.3815778"
       height="1.2520549"
       x="139.81281"
       y="107.16256" />
    <g
       id="g4877">
      <path
         style="opacity:1;fill:#e6e6e6;fill-opacity:1;stroke:none;stroke-width:0.26458332"
         id="path4860"
         d="m 133.36974,95.882912 a 3.0704114,3.0704114 0 0 1 -3.05741,3.070384 3.0704114,3.0704114 0 0 1 -3.0833,-3.044394 3.0704114,3.0704114 0 0 1 3.03132,-3.096154 3.0704114,3.0704114 0 0 1 3.10895,3.018185" />
      <g
         transform="matrix(0.80841168,0,0,1,68.549895,-7.3051882)"
         id="g4864">
        <path
           d="m 77.375031,103.39364 a 1.6372987,1.2321938 0 0 1 -1.630369,1.23218 1.6372987,1.2321938 0 0 1 -1.64417,-1.22175 1.6372987,1.2321938 0 0 1 1.616451,-1.24253 1.6372987,1.2321938 0 0 1 1.657853,1.21124"
           id="path4862"
           style="opacity:1;fill:#000000;fill-opacity:1;stroke:none;stroke-width:0.26458332" />
      </g>
    </g>
    <g
       id="g4885"
       transform="matrix(-1,0,0,1,248.68829,0.27470384)">
      <path
         d="m 133.36974,95.882912 a 3.0704114,3.0704114 0 0 1 -3.05741,3.070384 3.0704114,3.0704114 0 0 1 -3.0833,-3.044394 3.0704114,3.0704114 0 0 1 3.03132,-3.096154 3.0704114,3.0704114 0 0 1 3.10895,3.018185"
         id="path4879"
         style="opacity:1;fill:#e6e6e6;fill-opacity:1;stroke:none;stroke-width:0.26458332" />
      <g
         id="g4883"
         transform="matrix(0.80841168,0,0,1,68.549895,-7.3051882)">
        <path
           style="opacity:1;fill:#000000;fill-opacity:1;stroke:none;stroke-width:0.26458332"
           id="path4881"
           d="m 77.375031,103.39364 a 1.6372987,1.2321938 0 0 1 -1.630369,1.23218 1.6372987,1.2321938 0 0 1 -1.64417,-1.22175 1.6372987,1.2321938 0 0 1 1.616451,-1.24253 1.6372987,1.2321938 0 0 1 1.657853,1.21124" />
      </g>
    </g>
  </g>
  <g
     transform="matrix(1.3334499,0,0,2.4010056,216.99435,-403.82986)"
     id="g1255">
    <text
       id="text1243"
       y="188.31487"
       x="-14.639126"
       style="font-style:normal;font-weight:normal;font-size:10.58333397px;line-height:1.25;font-family:sans-serif;letter-spacing:0px;word-spacing:0px;fill:#a02c2c;fill-opacity:1;stroke:#a02c2c;stroke-width:1.32291663;stroke-linecap:round;stroke-linejoin:round;stroke-miterlimit:4;stroke-dasharray:none"
       xml:space="preserve"><tspan
         style="text-align:center;text-anchor:middle;fill:#a02c2c;stroke:#a02c2c;stroke-width:1.32291663;stroke-linecap:round;stroke-linejoin:round;stroke-miterlimit:4;stroke-dasharray:none"
         id="tspan1237"
         y="188.31487"
         x="-58.604694"><tspan
           id="tspan1235"
           style="font-style:normal;font-variant:normal;font-weight:normal;font-stretch:normal;font-family:'Sansita One';-inkscape-font-specification:'Sansita One';text-align:center;text-anchor:middle;fill:#a02c2c;stroke:#a02c2c;stroke-width:1.32291663;stroke-linecap:round;stroke-linejoin:round;stroke-miterlimit:4;stroke-dasharray:none"
           y="188.31487"
           x="-59.689899">Install   /   Remove </tspan></tspan><tspan
         style="text-align:center;text-anchor:middle;fill:#a02c2c;stroke:#a02c2c;stroke-width:1.32291663;stroke-linecap:round;stroke-linejoin:round;stroke-miterlimit:4;stroke-dasharray:none"
         id="tspan1241"
         y="201.74275"
         x="-59.689899"><tspan
           id="tspan1239"
           style="font-style:normal;font-variant:normal;font-weight:normal;font-stretch:normal;font-family:'Sansita One';-inkscape-font-specification:'Sansita One';text-align:center;text-anchor:middle;fill:#a02c2c;stroke:#a02c2c;stroke-width:1.32291663;stroke-linecap:round;stroke-linejoin:round;stroke-miterlimit:4;stroke-dasharray:none"
           y="201.74275"
           x="-59.689899">Deb   Packages</tspan></tspan></text>
    <text
       xml:space="preserve"
       style="font-style:normal;font-weight:normal;font-size:10.58333397px;line-height:1.25;font-family:sans-serif;letter-spacing:0px;word-spacing:0px;fill:#ffffff;fill-opacity:1;stroke:none;stroke-width:0.26458335"
       x="-14.639126"
       y="188.31487"
       id="text1233"><tspan
         x="-58.604694"
         y="188.31487"
         id="tspan1227"
         style="text-align:center;text-anchor:middle;fill:#ffffff;stroke-width:0.26458335"><tspan
           x="-59.689899"
           y="188.31487"
           style="font-style:normal;font-variant:normal;font-weight:normal;font-stretch:normal;font-family:'Sansita One';-inkscape-font-specification:'Sansita One';text-align:center;text-anchor:middle;fill:#ffffff;stroke-width:0.26458335"
           id="tspan1223">Install   /   Remove </tspan></tspan><tspan
         x="-59.689899"
         y="201.74275"
         id="tspan1231"
         style="text-align:center;text-anchor:middle;fill:#ffffff;stroke-width:0.26458335"><tspan
           x="-59.689899"
           y="201.74275"
           style="font-style:normal;font-variant:normal;font-weight:normal;font-stretch:normal;font-family:'Sansita One';-inkscape-font-specification:'Sansita One';text-align:center;text-anchor:middle;fill:#ffffff;stroke-width:0.26458335"
           id="tspan1229">Deb   Packages</tspan></tspan></text>
  </g>
</svg>
