<?xml version="1.0" encoding="UTF-8" standalone="no"?>
<svg
   xmlns:dc="http://purl.org/dc/elements/1.1/"
   xmlns:cc="http://creativecommons.org/ns#"
   xmlns:rdf="http://www.w3.org/1999/02/22-rdf-syntax-ns#"
   xmlns:svg="http://www.w3.org/2000/svg"
   xmlns="http://www.w3.org/2000/svg"
   xmlns:xlink="http://www.w3.org/1999/xlink"
   id="svg3357"
   version="1.1"
   viewBox="0 0 211.40207 119.0625"
   height="119.0625mm"
   width="211.40207mm">
  <defs
     id="defs3351">
    <linearGradient
       id="linearGradient6114">
      <stop
         id="stop6110"
         offset="0"
         style="stop-color:#6f7c91;stop-opacity:1;" />
      <stop
         id="stop6112"
         offset="1"
         style="stop-color:#162d50;stop-opacity:1" />
    </linearGradient>
    <radialGradient
       gradientUnits="userSpaceOnUse"
       gradientTransform="matrix(3.0071285,0,0,1.83657,-125.12732,-58.151445)"
       r="31.67275"
       fy="66.986313"
       fx="73.77433"
       cy="66.986313"
       cx="73.77433"
       id="radialGradient6126"
       xlink:href="#linearGradient6114" />
  </defs>
  <metadata
     id="metadata3354">
    <rdf:RDF>
      <cc:Work
         rdf:about="">
        <dc:format>image/svg+xml</dc:format>
        <dc:type
           rdf:resource="http://purl.org/dc/dcmitype/StillImage" />
        <dc:title></dc:title>
      </cc:Work>
    </rdf:RDF>
  </metadata>
  <rect
     style="opacity:1;fill:#ff9900;fill-opacity:1;stroke:none;stroke-width:4.38045835;stroke-miterlimit:4;stroke-dasharray:none;paint-order:stroke markers fill"
     id="rect6108"
     width="211.40207"
     height="119.0625"
     x="0"
     y="5.3290705e-15"
     ry="0" />
  <flowRoot
     xml:space="preserve"
     id="flowRoot874"
     style="font-style:normal;font-weight:normal;font-size:40px;line-height:1.25;font-family:sans-serif;letter-spacing:0px;word-spacing:0px;fill:#000000;fill-opacity:1;stroke:none"
     transform="matrix(1.1097917,0,0,1.0234149,-1.6397721,-6.8613634)"><flowRegion
       id="flowRegion876"><rect
         id="rect878"
         width="166.0584"
         height="44.525547"
         x="200.72992"
         y="215.22041" /></flowRegion><flowPara
       id="flowPara880" /></flowRoot>  <flowRoot
     xml:space="preserve"
     id="flowRoot1087"
     style="font-style:normal;font-weight:normal;font-size:40px;line-height:1.25;font-family:sans-serif;letter-spacing:0px;word-spacing:0px;fill:#000000;fill-opacity:1;stroke:none"
     transform="translate(-1.4775493,-3.9803138)"><flowRegion
       id="flowRegion1089"><rect
         id="rect1091"
         width="296.88928"
         height="216.1263"
         x="459.55276"
         y="161.32643" /></flowRegion><flowPara
       id="flowPara1093" /></flowRoot>  <rect
     style="opacity:1;fill:#373e48;fill-opacity:1;stroke:none;stroke-width:0.8369382;stroke-linecap:round;stroke-linejoin:round;stroke-miterlimit:4;stroke-dasharray:none;stroke-opacity:1;paint-order:stroke markers fill"
     id="rect815"
     width="54.690243"
     height="51"
     x="24.687136"
     y="34.32169"
     ry="1.9520296" />
  <text
     xml:space="preserve"
     style="font-style:normal;font-weight:normal;font-size:32.36412048px;line-height:1.25;font-family:sans-serif;letter-spacing:0px;word-spacing:0px;fill:#ffffff;fill-opacity:1;stroke:none;stroke-width:0.80910301"
     x="33.82122"
     y="76.626953"
     id="text1353"
     transform="scale(1.1313787,0.88387734)"><tspan
       x="33.82122"
       y="76.626953"
       id="tspan1351"
       style="stroke-width:0.80910301"><tspan
         x="33.82122"
         y="76.626953"
         style="font-style:normal;font-variant:normal;font-weight:normal;font-stretch:normal;font-family:'Sansita One';-inkscape-font-specification:'Sansita One';fill:#ffffff;stroke-width:0.80910301"
         id="tspan1349">K</tspan></tspan></text>
  <rect
     style="opacity:1;fill:#666666;fill-opacity:1;stroke:none;stroke-width:0.74336612;stroke-linecap:round;stroke-linejoin:round;stroke-miterlimit:4;stroke-dasharray:none;stroke-opacity:1;paint-order:stroke markers fill"
     id="rect918"
     width="54.737"
     height="11.408408"
     x="24.640451"
     y="34.32169"
     ry="1.5446657" />
  <rect
     style="opacity:1;fill:#ffffff;fill-opacity:1;stroke:none;stroke-width:0.73087931;stroke-linecap:round;stroke-linejoin:round;stroke-miterlimit:4;stroke-dasharray:none;stroke-opacity:1;paint-order:stroke markers fill"
     id="rect817"
     width="25.646559"
     height="3.0893269"
     x="39.208973"
     y="38.702583"
     ry="1.5446634" />
  <rect
     style="opacity:1;fill:#aa4400;fill-opacity:1;stroke:none;stroke-width:0.7427516;stroke-linecap:round;stroke-linejoin:round;stroke-miterlimit:4;stroke-dasharray:none;stroke-opacity:1;paint-order:stroke markers fill"
     id="rect914"
     width="40.434452"
     height="2.9437194"
     x="31.815027"
     y="70.107803"
     ry="1.0065612" />
  <rect
     ry="1.0065612"
     y="75.829414"
     x="31.815027"
     height="2.9437194"
     width="40.434452"
     id="rect916"
     style="opacity:1;fill:#aa4400;fill-opacity:1;stroke:none;stroke-width:0.7427516;stroke-linecap:round;stroke-linejoin:round;stroke-miterlimit:4;stroke-dasharray:none;stroke-opacity:1;paint-order:stroke markers fill" />
  <g
     id="g1179"
     transform="matrix(1.3407053,0,0,2.1503173,204.83855,-324.19089)">
    <g
       id="text1163"
       style="font-style:normal;font-weight:normal;font-size:10.58333397px;line-height:1.25;font-family:sans-serif;letter-spacing:0px;word-spacing:0px;fill:#d45500;fill-opacity:1;stroke:#d45500;stroke-width:1.32291663;stroke-linecap:round;stroke-linejoin:round;stroke-miterlimit:4;stroke-dasharray:none"
       aria-label="Install   KotlinCommand   LineCompiler">
      <path
         id="path848"
         style="font-style:normal;font-variant:normal;font-weight:normal;font-stretch:normal;font-family:'Sansita One';-inkscape-font-specification:'Sansita One';text-align:center;text-anchor:middle;fill:#d45500;stroke:#d45500;stroke-width:1.32291663;stroke-linecap:round;stroke-linejoin:round;stroke-miterlimit:4;stroke-dasharray:none"
         d="m -86.559638,167.79674 1.344083,-6.985 h 2.328334 l -1.36525,6.985 z" />
      <path
         id="path850"
         style="font-style:normal;font-variant:normal;font-weight:normal;font-stretch:normal;font-family:'Sansita One';-inkscape-font-specification:'Sansita One';text-align:center;text-anchor:middle;fill:#d45500;stroke:#d45500;stroke-width:1.32291663;stroke-linecap:round;stroke-linejoin:round;stroke-miterlimit:4;stroke-dasharray:none"
         d="m -78.183756,168.0084 q -1.280583,0 -1.280583,-0.99483 0.01058,-0.27517 0.09525,-0.74083 l 0.1905,-0.97367 q 0.28575,-1.37583 0.28575,-1.68275 0,-0.61383 -0.359834,-0.61383 -0.60325,0 -0.92075,1.57691 l -0.624416,3.21734 -2.127251,0.21166 1.100667,-5.61975 1.735667,-0.20108 -0.169333,1.03717 q 0.497416,-1.03717 2.021416,-1.03717 0.740834,0 1.04775,0.3175 0.3175,0.30692 0.3175,1.00542 0,0.65616 -0.338666,2.19075 -0.15875,0.68791 -0.15875,0.9525 0,0.254 0.137583,0.40216 0.148167,0.14817 0.359833,0.16934 -0.105833,0.35983 -0.47625,0.5715 -0.359833,0.21166 -0.836083,0.21166 z" />
      <path
         id="path852"
         style="font-style:normal;font-variant:normal;font-weight:normal;font-stretch:normal;font-family:'Sansita One';-inkscape-font-specification:'Sansita One';text-align:center;text-anchor:middle;fill:#d45500;stroke:#d45500;stroke-width:1.32291663;stroke-linecap:round;stroke-linejoin:round;stroke-miterlimit:4;stroke-dasharray:none"
         d="m -72.860835,164.08199 q 0.148167,-0.39159 0.148167,-0.73025 0,-0.62442 -0.508,-0.62442 -0.264583,0 -0.486833,0.24342 -0.211667,0.23283 -0.211667,0.52916 0,0.21167 0.169333,0.381 0.243417,0.23284 0.867834,0.61384 0.624416,0.381 0.85725,0.6985 0.243416,0.30691 0.243416,0.74083 0,0.42333 -0.211666,0.81492 -0.201084,0.39158 -0.5715,0.66675 -0.79375,0.59266 -2.063751,0.59266 -0.687916,0 -1.217083,-0.35983 -0.529167,-0.34925 -0.529167,-0.762 0,-0.41275 0.296334,-0.65617 0.306916,-0.24341 0.751416,-0.24341 0.4445,0 0.719667,0.16933 -0.137583,0.34925 -0.137583,0.58208 0,0.6985 0.592667,0.6985 0.254,0 0.423333,-0.15875 0.169333,-0.15875 0.169333,-0.43391 0,-0.53975 -0.910167,-1.11125 -0.740833,-0.48684 -0.910166,-0.67734 -0.28575,-0.33866 -0.28575,-0.762 0,-0.42333 0.201083,-0.8255 0.201083,-0.40216 0.5715,-0.68791 0.772584,-0.59267 2.116667,-0.59267 0.687917,0 1.090083,0.27517 0.41275,0.27516 0.41275,0.74083 0,0.46567 -0.28575,0.73025 -0.275166,0.26458 -0.783166,0.26458 -0.34925,0 -0.518584,-0.11641 z" />
      <path
         id="path854"
         style="font-style:normal;font-variant:normal;font-weight:normal;font-stretch:normal;font-family:'Sansita One';-inkscape-font-specification:'Sansita One';text-align:center;text-anchor:middle;fill:#d45500;stroke:#d45500;stroke-width:1.32291663;stroke-linecap:round;stroke-linejoin:round;stroke-miterlimit:4;stroke-dasharray:none"
         d="m -70.708946,166.7384 q 0,-0.28575 0.148167,-1.00541 l 0.560917,-2.8575 h -0.624417 l 0.04233,-0.3175 q 1.27,-0.381 2.497667,-1.31234 h 0.508 l -0.254,1.15359 h 0.8255 l -0.09525,0.47625 h -0.814916 l -0.53975,2.8575 q -0.137584,0.65616 -0.137584,0.87841 0,0.508 0.4445,0.61384 -0.105833,0.35983 -0.486833,0.5715 -0.381,0.21166 -0.92075,0.21166 -0.53975,0 -0.846667,-0.33866 -0.306917,-0.33867 -0.306917,-0.93134 z" />
      <path
         id="path856"
         style="font-style:normal;font-variant:normal;font-weight:normal;font-stretch:normal;font-family:'Sansita One';-inkscape-font-specification:'Sansita One';text-align:center;text-anchor:middle;fill:#d45500;stroke:#d45500;stroke-width:1.32291663;stroke-linecap:round;stroke-linejoin:round;stroke-miterlimit:4;stroke-dasharray:none"
         d="m -66.64048,167.47924 q -0.243416,-0.27517 -0.359833,-0.70909 -0.105833,-0.43391 -0.105833,-1.143 0,-0.70908 0.243416,-1.35466 0.243417,-0.64559 0.687917,-1.11125 0.910167,-0.97367 2.413,-0.97367 0.53975,0 0.931333,0.17992 l 1.809751,-0.17992 -0.783167,4.1275 q -0.03175,0.127 -0.03175,0.35983 0,0.23284 0.137583,0.381 0.148167,0.14817 0.359834,0.16934 -0.105834,0.35983 -0.497417,0.5715 -0.381,0.21166 -0.814917,0.21166 -0.433917,0 -0.73025,-0.16933 -0.28575,-0.15875 -0.370417,-0.43392 -0.169333,0.26459 -0.529166,0.43392 -0.359834,0.16933 -0.846667,0.16933 -0.47625,0 -0.867833,-0.127 -0.391584,-0.127 -0.645584,-0.40216 z m 2.233084,-4.29684 q -0.116417,0.1905 -0.22225,0.51859 -0.105834,0.3175 -0.28575,1.18533 -0.169334,0.85725 -0.169334,1.47108 0,0.61384 0.09525,0.79375 0.09525,0.17992 0.264584,0.17992 0.338666,0 0.582083,-0.3175 0.254,-0.32808 0.34925,-0.89958 l 0.560917,-3.10092 q -0.22225,-0.1905 -0.486834,-0.1905 -0.254,0 -0.41275,0.0847 -0.148166,0.0847 -0.275166,0.27516 z" />
      <path
         id="path858"
         style="font-style:normal;font-variant:normal;font-weight:normal;font-stretch:normal;font-family:'Sansita One';-inkscape-font-specification:'Sansita One';text-align:center;text-anchor:middle;fill:#d45500;stroke:#d45500;stroke-width:1.32291663;stroke-linecap:round;stroke-linejoin:round;stroke-miterlimit:4;stroke-dasharray:none"
         d="m -57.910222,167.21465 q -0.328084,0.79375 -1.375834,0.79375 -0.529167,0 -0.867833,-0.37041 -0.275167,-0.30692 -0.275167,-0.65617 0,-0.79375 0.370417,-2.52942 l 0.772583,-4.064 2.148417,-0.21166 -1.026584,5.35516 q -0.179916,0.78317 -0.179916,1.05834 0,0.60325 0.433917,0.62441 z" />
      <path
         id="path860"
         style="font-style:normal;font-variant:normal;font-weight:normal;font-stretch:normal;font-family:'Sansita One';-inkscape-font-specification:'Sansita One';text-align:center;text-anchor:middle;fill:#d45500;stroke:#d45500;stroke-width:1.32291663;stroke-linecap:round;stroke-linejoin:round;stroke-miterlimit:4;stroke-dasharray:none"
         d="m -54.478906,167.21465 q -0.328083,0.79375 -1.375834,0.79375 -0.529166,0 -0.867833,-0.37041 -0.275167,-0.30692 -0.275167,-0.65617 0,-0.79375 0.370417,-2.52942 l 0.772583,-4.064 2.148417,-0.21166 -1.026583,5.35516 q -0.179917,0.78317 -0.179917,1.05834 0,0.60325 0.433917,0.62441 z" />
      <path
         id="path862"
         style="font-style:normal;font-variant:normal;font-weight:normal;font-stretch:normal;font-family:'Sansita One';-inkscape-font-specification:'Sansita One';text-align:center;text-anchor:middle;fill:#d45500;stroke:#d45500;stroke-width:1.32291663;stroke-linecap:round;stroke-linejoin:round;stroke-miterlimit:4;stroke-dasharray:none"
         d="m -47.161026,167.79674 1.2065,-6.43467 0.116417,-0.55033 h 2.264833 l -1.3335,6.985 z m 6.551084,-0.62442 q -0.28575,0.83608 -1.386417,0.83608 -0.814917,0 -1.375834,-0.97366 -0.5715,-0.97367 -0.677333,-2.56117 1.164167,-2.12725 1.9685,-3.00567 0.772584,-0.83608 1.576917,-0.83608 0.433917,0 0.740833,0.23283 0.3175,0.23284 0.391584,0.60325 -0.359834,0.14817 -0.529167,0.26459 -0.423333,0.3175 -0.994833,1.02658 l -0.963084,1.15358 q -0.232833,0.27517 -0.328083,0.40217 0.15875,0.889 0.635,1.76742 0.455083,0.83608 0.941917,1.09008 z" />
      <path
         id="path864"
         style="font-style:normal;font-variant:normal;font-weight:normal;font-stretch:normal;font-family:'Sansita One';-inkscape-font-specification:'Sansita One';text-align:center;text-anchor:middle;fill:#d45500;stroke:#d45500;stroke-width:1.32291663;stroke-linecap:round;stroke-linejoin:round;stroke-miterlimit:4;stroke-dasharray:none"
         d="m -37.689273,168.0084 q -2.328334,0 -2.328334,-2.19075 0,-1.55575 0.85725,-2.56116 0.910167,-1.06892 2.487084,-1.06892 1.143,0 1.725083,0.52917 0.582084,0.52916 0.582084,1.64041 0,1.69334 -0.910167,2.67759 -0.889,0.97366 -2.413,0.97366 z m 0.275166,-4.60375 q -0.127,0.28575 -0.232833,0.71967 -0.09525,0.42333 -0.22225,1.10067 -0.127,0.67733 -0.127,1.51341 0,0.27517 0.08467,0.45509 0.09525,0.17991 0.338666,0.17991 0.243417,0 0.391584,-0.11641 0.15875,-0.11642 0.275166,-0.39159 0.211667,-0.48683 0.381,-1.38641 0.169334,-0.91017 0.179917,-1.30175 0.02117,-0.39159 0.02117,-0.67734 0,-0.29633 -0.08467,-0.48683 -0.08467,-0.1905 -0.328083,-0.1905 -0.232834,0 -0.391584,0.14817 -0.15875,0.14816 -0.28575,0.43391 z" />
      <path
         id="path866"
         style="font-style:normal;font-variant:normal;font-weight:normal;font-stretch:normal;font-family:'Sansita One';-inkscape-font-specification:'Sansita One';text-align:center;text-anchor:middle;fill:#d45500;stroke:#d45500;stroke-width:1.32291663;stroke-linecap:round;stroke-linejoin:round;stroke-miterlimit:4;stroke-dasharray:none"
         d="m -33.563923,166.7384 q 0,-0.28575 0.148166,-1.00541 l 0.560917,-2.8575 h -0.624417 l 0.04233,-0.3175 q 1.27,-0.381 2.497667,-1.31234 h 0.508 l -0.254,1.15359 h 0.8255 l -0.09525,0.47625 h -0.814917 l -0.53975,2.8575 q -0.137583,0.65616 -0.137583,0.87841 0,0.508 0.4445,0.61384 -0.105834,0.35983 -0.486834,0.5715 -0.381,0.21166 -0.92075,0.21166 -0.53975,0 -0.846667,-0.33866 -0.306916,-0.33867 -0.306916,-0.93134 z" />
      <path
         id="path868"
         style="font-style:normal;font-variant:normal;font-weight:normal;font-stretch:normal;font-family:'Sansita One';-inkscape-font-specification:'Sansita One';text-align:center;text-anchor:middle;fill:#d45500;stroke:#d45500;stroke-width:1.32291663;stroke-linecap:round;stroke-linejoin:round;stroke-miterlimit:4;stroke-dasharray:none"
         d="m -27.379785,167.21465 q -0.328083,0.79375 -1.375833,0.79375 -0.529167,0 -0.867834,-0.37041 -0.275167,-0.30692 -0.275167,-0.65617 0,-0.79375 0.370417,-2.52942 l 0.772584,-4.064 2.148416,-0.21166 -1.026583,5.35516 q -0.179917,0.78317 -0.179917,1.05834 0,0.60325 0.433917,0.62441 z" />
      <path
         id="path870"
         style="font-style:normal;font-variant:normal;font-weight:normal;font-stretch:normal;font-family:'Sansita One';-inkscape-font-specification:'Sansita One';text-align:center;text-anchor:middle;fill:#d45500;stroke:#d45500;stroke-width:1.32291663;stroke-linecap:round;stroke-linejoin:round;stroke-miterlimit:4;stroke-dasharray:none"
         d="m -23.937885,167.21465 q -0.328084,0.79375 -1.375834,0.79375 -0.53975,0 -0.878416,-0.37041 -0.28575,-0.32809 -0.28575,-0.65617 0,-0.85725 0.391583,-2.52942 l 0.391583,-2.05316 2.148417,-0.21167 -0.645583,3.34433 q -0.179917,0.78317 -0.179917,1.05834 0,0.60325 0.433917,0.62441 z m -1.566334,-6.2865 q 0,-0.41275 0.338667,-0.635 0.34925,-0.22225 0.846667,-0.22225 0.497416,0 0.79375,0.22225 0.306916,0.22225 0.306916,0.635 0,0.41275 -0.338666,0.62442 -0.328084,0.21167 -0.8255,0.21167 -0.497417,0 -0.814917,-0.21167 -0.306917,-0.21167 -0.306917,-0.62442 z" />
      <path
         id="path872"
         style="font-style:normal;font-variant:normal;font-weight:normal;font-stretch:normal;font-family:'Sansita One';-inkscape-font-specification:'Sansita One';text-align:center;text-anchor:middle;fill:#d45500;stroke:#d45500;stroke-width:1.32291663;stroke-linecap:round;stroke-linejoin:round;stroke-miterlimit:4;stroke-dasharray:none"
         d="m -18.569819,168.0084 q -1.280583,0 -1.280583,-0.99483 0.01058,-0.27517 0.09525,-0.74083 l 0.1905,-0.97367 q 0.28575,-1.37583 0.28575,-1.68275 0,-0.61383 -0.359834,-0.61383 -0.60325,0 -0.92075,1.57691 l -0.624416,3.21734 -2.12725,0.21166 1.100666,-5.61975 1.735667,-0.20108 -0.169333,1.03717 q 0.497416,-1.03717 2.021417,-1.03717 0.740833,0 1.04775,0.3175 0.3175,0.30692 0.3175,1.00542 0,0.65616 -0.338667,2.19075 -0.15875,0.68791 -0.15875,0.9525 0,0.254 0.137583,0.40216 0.148167,0.14817 0.359834,0.16934 -0.105834,0.35983 -0.47625,0.5715 -0.359834,0.21166 -0.836084,0.21166 z" />
      <path
         id="path874"
         style="font-style:normal;font-variant:normal;font-weight:normal;font-stretch:normal;font-family:'Sansita One';-inkscape-font-specification:'Sansita One';text-align:center;text-anchor:middle;fill:#d45500;stroke:#d45500;stroke-width:1.32291663;stroke-linecap:round;stroke-linejoin:round;stroke-miterlimit:4;stroke-dasharray:none"
         d="m -85.848653,179.03387 q 0.275167,0.20109 0.275167,0.635 0,0.42334 -0.1905,0.73025 -0.179917,0.29634 -0.53975,0.52917 -0.772584,0.49742 -2.12725,0.49742 -1.344084,0 -2.084917,-0.6985 -0.73025,-0.70909 -0.73025,-1.95792 0,-1.76742 0.92075,-3.1115 0.6985,-0.99483 1.947333,-1.41817 0.645584,-0.21166 1.280584,-0.21166 0.635,0 1.026583,0.0847 0.391583,0.0847 0.687917,0.254 0.645583,0.37042 0.645583,0.96309 0,0.53975 -0.508,0.94191 -0.465667,0.35984 -0.846667,0.35984 -0.381,0 -0.53975,-0.0529 0.04233,-0.381 0.04233,-0.62442 0,-0.254 -0.01058,-0.43391 -0.01058,-0.17992 -0.0635,-0.34925 -0.105833,-0.39159 -0.433916,-0.39159 -0.3175,0 -0.645584,0.30692 -0.3175,0.29633 -0.592666,0.80433 -0.624417,1.15359 -0.624417,2.51884 0,0.65616 0.370417,1.03716 0.370416,0.37042 1.164166,0.37042 0.592667,0 1.153584,-0.39158 0.243416,-0.16934 0.423333,-0.39159 z" />
      <path
         id="path876"
         style="font-style:normal;font-variant:normal;font-weight:normal;font-stretch:normal;font-family:'Sansita One';-inkscape-font-specification:'Sansita One';text-align:center;text-anchor:middle;fill:#d45500;stroke:#d45500;stroke-width:1.32291663;stroke-linecap:round;stroke-linejoin:round;stroke-miterlimit:4;stroke-dasharray:none"
         d="m -82.389391,181.43629 q -2.328333,0 -2.328333,-2.19075 0,-1.55575 0.85725,-2.56117 0.910167,-1.06891 2.487083,-1.06891 1.143,0 1.725084,0.52916 0.582083,0.52917 0.582083,1.64042 0,1.69333 -0.910167,2.67758 -0.889,0.97367 -2.413,0.97367 z m 0.275167,-4.60375 q -0.127,0.28575 -0.232833,0.71967 -0.09525,0.42333 -0.22225,1.10066 -0.127,0.67734 -0.127,1.51342 0,0.27517 0.08467,0.45508 0.09525,0.17992 0.338667,0.17992 0.243417,0 0.391583,-0.11642 0.15875,-0.11641 0.275167,-0.39158 0.211667,-0.48683 0.381,-1.38642 0.169333,-0.91016 0.179917,-1.30175 0.02117,-0.39158 0.02117,-0.67733 0,-0.29633 -0.08467,-0.48683 -0.08467,-0.1905 -0.328084,-0.1905 -0.232833,0 -0.391583,0.14816 -0.15875,0.14817 -0.28575,0.43392 z" />
      <path
         id="path878"
         style="font-style:normal;font-variant:normal;font-weight:normal;font-stretch:normal;font-family:'Sansita One';-inkscape-font-specification:'Sansita One';text-align:center;text-anchor:middle;fill:#d45500;stroke:#d45500;stroke-width:1.32291663;stroke-linecap:round;stroke-linejoin:round;stroke-miterlimit:4;stroke-dasharray:none"
         d="m -70.813374,181.43629 q -1.280583,0 -1.280583,-0.99483 0,-0.43392 0.179917,-1.27 0.1905,-0.84667 0.254,-1.18534 0.148166,-0.77258 0.148166,-1.016 0,-0.53975 -0.402166,-0.53975 -0.264584,0 -0.518584,0.37042 -0.254,0.35983 -0.370416,1.09008 l -0.656167,3.33375 -2.06375,0.21167 0.5715,-2.87867 q 0.09525,-0.47625 0.179917,-1.016 0.08467,-0.53975 0.08467,-0.62441 0,-0.48684 -0.359833,-0.48684 -0.243417,0 -0.508,0.35984 -0.264583,0.35983 -0.41275,1.10066 l -0.645584,3.33375 -2.084916,0.21167 1.11125,-5.60917 1.725083,-0.21166 -0.179916,1.06891 q 0.275166,-0.5715 0.783166,-0.81491 0.508,-0.254 1.30175,-0.254 0.455084,0 0.751417,0.22225 0.296333,0.22225 0.391583,0.58208 0.179917,-0.37042 0.635,-0.58208 0.465667,-0.22225 1.026584,-0.22225 0.5715,0 0.846667,0.127 0.28575,0.11641 0.455083,0.3175 0.28575,0.37041 0.28575,1.04775 0,0.66675 -0.28575,2.05316 -0.148167,0.67734 -0.148167,0.93134 0,0.24341 0.137584,0.39158 0.148166,0.14817 0.359833,0.16933 -0.105833,0.35984 -0.47625,0.5715 -0.359833,0.21167 -0.836084,0.21167 z" />
      <path
         id="path880"
         style="font-style:normal;font-variant:normal;font-weight:normal;font-stretch:normal;font-family:'Sansita One';-inkscape-font-specification:'Sansita One';text-align:center;text-anchor:middle;fill:#d45500;stroke:#d45500;stroke-width:1.32291663;stroke-linecap:round;stroke-linejoin:round;stroke-miterlimit:4;stroke-dasharray:none"
         d="m -61.056862,181.43629 q -1.280583,0 -1.280583,-0.99483 0,-0.43392 0.179916,-1.27 0.1905,-0.84667 0.254,-1.18534 0.148167,-0.77258 0.148167,-1.016 0,-0.53975 -0.402167,-0.53975 -0.264583,0 -0.518583,0.37042 -0.254,0.35983 -0.370417,1.09008 l -0.656166,3.33375 -2.06375,0.21167 0.5715,-2.87867 q 0.09525,-0.47625 0.179916,-1.016 0.08467,-0.53975 0.08467,-0.62441 0,-0.48684 -0.359833,-0.48684 -0.243417,0 -0.508,0.35984 -0.264584,0.35983 -0.41275,1.10066 l -0.645584,3.33375 -2.084917,0.21167 1.11125,-5.60917 1.725084,-0.21166 -0.179917,1.06891 q 0.275167,-0.5715 0.783167,-0.81491 0.508,-0.254 1.30175,-0.254 0.455083,0 0.751417,0.22225 0.296333,0.22225 0.391583,0.58208 0.179917,-0.37042 0.635,-0.58208 0.465667,-0.22225 1.026583,-0.22225 0.571501,0 0.846667,0.127 0.28575,0.11641 0.455084,0.3175 0.28575,0.37041 0.28575,1.04775 0,0.66675 -0.28575,2.05316 -0.148167,0.67734 -0.148167,0.93134 0,0.24341 0.137583,0.39158 0.148167,0.14817 0.359834,0.16933 -0.105834,0.35984 -0.47625,0.5715 -0.359834,0.21167 -0.836084,0.21167 z" />
      <path
         id="path882"
         style="font-style:normal;font-variant:normal;font-weight:normal;font-stretch:normal;font-family:'Sansita One';-inkscape-font-specification:'Sansita One';text-align:center;text-anchor:middle;fill:#d45500;stroke:#d45500;stroke-width:1.32291663;stroke-linecap:round;stroke-linejoin:round;stroke-miterlimit:4;stroke-dasharray:none"
         d="m -58.465269,180.90712 q -0.243417,-0.27516 -0.359833,-0.70908 -0.105834,-0.43392 -0.105834,-1.143 0,-0.70908 0.243417,-1.35467 0.243417,-0.64558 0.687917,-1.11125 0.910166,-0.97366 2.413,-0.97366 0.53975,0 0.931333,0.17991 l 1.80975,-0.17991 -0.783167,4.1275 q -0.03175,0.127 -0.03175,0.35983 0,0.23283 0.137584,0.381 0.148167,0.14817 0.359833,0.16933 -0.105833,0.35984 -0.497417,0.5715 -0.381,0.21167 -0.814916,0.21167 -0.433917,0 -0.73025,-0.16933 -0.28575,-0.15875 -0.370417,-0.43392 -0.169333,0.26458 -0.529167,0.43392 -0.359833,0.16933 -0.846666,0.16933 -0.47625,0 -0.867834,-0.127 -0.391583,-0.127 -0.645583,-0.40217 z m 2.233083,-4.29683 q -0.116416,0.1905 -0.22225,0.51858 -0.105833,0.3175 -0.28575,1.18534 -0.169333,0.85725 -0.169333,1.47108 0,0.61383 0.09525,0.79375 0.09525,0.17992 0.264583,0.17992 0.338667,0 0.582084,-0.3175 0.254,-0.32809 0.34925,-0.89959 l 0.560916,-3.10091 q -0.22225,-0.1905 -0.486833,-0.1905 -0.254,0 -0.41275,0.0847 -0.148167,0.0847 -0.275167,0.27517 z" />
      <path
         id="path884"
         style="font-style:normal;font-variant:normal;font-weight:normal;font-stretch:normal;font-family:'Sansita One';-inkscape-font-specification:'Sansita One';text-align:center;text-anchor:middle;fill:#d45500;stroke:#d45500;stroke-width:1.32291663;stroke-linecap:round;stroke-linejoin:round;stroke-miterlimit:4;stroke-dasharray:none"
         d="m -47.787676,181.43629 q -1.280584,0 -1.280584,-0.99483 0.01058,-0.27517 0.09525,-0.74084 l 0.1905,-0.97366 q 0.28575,-1.37584 0.28575,-1.68275 0,-0.61384 -0.359833,-0.61384 -0.60325,0 -0.92075,1.57692 l -0.624417,3.21733 -2.12725,0.21167 1.100667,-5.61975 1.735666,-0.20108 -0.169333,1.03716 q 0.497417,-1.03716 2.021417,-1.03716 0.740833,0 1.04775,0.3175 0.3175,0.30691 0.3175,1.00541 0,0.65617 -0.338667,2.19075 -0.15875,0.68792 -0.15875,0.9525 0,0.254 0.137584,0.40217 0.148166,0.14817 0.359833,0.16933 -0.105833,0.35984 -0.47625,0.5715 -0.359833,0.21167 -0.836083,0.21167 z" />
      <path
         id="path886"
         style="font-style:normal;font-variant:normal;font-weight:normal;font-stretch:normal;font-family:'Sansita One';-inkscape-font-specification:'Sansita One';text-align:center;text-anchor:middle;fill:#d45500;stroke:#d45500;stroke-width:1.32291663;stroke-linecap:round;stroke-linejoin:round;stroke-miterlimit:4;stroke-dasharray:none"
         d="m -42.295423,175.61546 q 0.381,0 0.677334,0.0847 0.01058,-0.0423 0.03175,-0.15875 l 0.05292,-0.32808 q 0.04233,-0.21167 0.105834,-0.56092 l 0.169333,-0.83608 2.106084,-0.21167 -1.174751,6.13834 q -0.01058,0.0635 -0.01058,0.16933 v 0.16933 q 0,0.23284 0.116417,0.41275 0.116416,0.16934 0.306917,0.16934 -0.211667,0.49741 -0.857251,0.70908 -0.22225,0.0635 -0.53975,0.0635 -0.306916,0 -0.592666,-0.16933 -0.28575,-0.15875 -0.370417,-0.43392 -0.169333,0.27517 -0.508,0.43392 -0.338667,0.16933 -0.836083,0.16933 -0.486834,0 -0.899584,-0.127 -0.402166,-0.127 -0.656166,-0.40217 -0.465667,-0.53975 -0.465667,-1.76741 0,-1.5875 0.931333,-2.55059 0.931334,-0.97366 2.413,-0.97366 z m -0.07408,0.635 q -0.391583,0 -0.60325,0.42333 -0.211667,0.42333 -0.433917,1.47108 -0.211666,1.04775 -0.211666,1.98967 0,0.64558 0.381,0.64558 0.338666,0 0.5715,-0.33866 0.243416,-0.33867 0.338666,-0.89959 l 0.5715,-3.10091 q -0.22225,-0.1905 -0.613833,-0.1905 z" />
      <path
         id="path888"
         style="font-style:normal;font-variant:normal;font-weight:normal;font-stretch:normal;font-family:'Sansita One';-inkscape-font-specification:'Sansita One';text-align:center;text-anchor:middle;fill:#d45500;stroke:#d45500;stroke-width:1.32291663;stroke-linecap:round;stroke-linejoin:round;stroke-miterlimit:4;stroke-dasharray:none"
         d="m -28.079523,179.59479 q 0.201083,0.254 0.201083,0.75142 0,0.48683 -0.381,0.79375 -0.370416,0.29633 -1.026583,0.29633 -0.381,0 -0.973667,-0.0847 -1.164166,-0.17991 -1.502833,-0.17991 -0.328083,0 -0.465667,0.0212 -0.137583,0.0106 -0.359833,0.0317 l 1.280583,-6.985 h 2.31775 l -1.058333,5.82084 q 0.137583,0.0212 0.264583,0.0212 h 0.264584 q 0.889,0 1.439333,-0.48683 z" />
      <path
         id="path890"
         style="font-style:normal;font-variant:normal;font-weight:normal;font-stretch:normal;font-family:'Sansita One';-inkscape-font-specification:'Sansita One';text-align:center;text-anchor:middle;fill:#d45500;stroke:#d45500;stroke-width:1.32291663;stroke-linecap:round;stroke-linejoin:round;stroke-miterlimit:4;stroke-dasharray:none"
         d="m -24.630349,180.64254 q -0.328083,0.79375 -1.375833,0.79375 -0.53975,0 -0.878417,-0.37042 -0.28575,-0.32808 -0.28575,-0.65616 0,-0.85725 0.391584,-2.52942 l 0.391583,-2.05317 2.148417,-0.21166 -0.645584,3.34433 q -0.179916,0.78317 -0.179916,1.05833 0,0.60325 0.433916,0.62442 z m -1.566333,-6.2865 q 0,-0.41275 0.338667,-0.635 0.34925,-0.22225 0.846666,-0.22225 0.497417,0 0.79375,0.22225 0.306917,0.22225 0.306917,0.635 0,0.41275 -0.338667,0.62442 -0.328083,0.21166 -0.8255,0.21166 -0.497416,0 -0.814916,-0.21166 -0.306917,-0.21167 -0.306917,-0.62442 z" />
      <path
         id="path892"
         style="font-style:normal;font-variant:normal;font-weight:normal;font-stretch:normal;font-family:'Sansita One';-inkscape-font-specification:'Sansita One';text-align:center;text-anchor:middle;fill:#d45500;stroke:#d45500;stroke-width:1.32291663;stroke-linecap:round;stroke-linejoin:round;stroke-miterlimit:4;stroke-dasharray:none"
         d="m -19.262286,181.43629 q -1.280583,0 -1.280583,-0.99483 0.01058,-0.27517 0.09525,-0.74084 l 0.1905,-0.97366 q 0.28575,-1.37584 0.28575,-1.68275 0,-0.61384 -0.359834,-0.61384 -0.60325,0 -0.92075,1.57692 l -0.624416,3.21733 -2.12725,0.21167 1.100666,-5.61975 1.735667,-0.20108 -0.169333,1.03716 q 0.497416,-1.03716 2.021416,-1.03716 0.740834,0 1.047751,0.3175 0.3175,0.30691 0.3175,1.00541 0,0.65617 -0.338667,2.19075 -0.15875,0.68792 -0.15875,0.9525 0,0.254 0.137583,0.40217 0.148167,0.14817 0.359834,0.16933 -0.105834,0.35984 -0.47625,0.5715 -0.359834,0.21167 -0.836084,0.21167 z" />
      <path
         id="path894"
         style="font-style:normal;font-variant:normal;font-weight:normal;font-stretch:normal;font-family:'Sansita One';-inkscape-font-specification:'Sansita One';text-align:center;text-anchor:middle;fill:#d45500;stroke:#d45500;stroke-width:1.32291663;stroke-linecap:round;stroke-linejoin:round;stroke-miterlimit:4;stroke-dasharray:none"
         d="m -12.817532,179.43604 q 0.264583,0.17992 0.264583,0.58208 0,0.39159 -0.201083,0.64559 -0.201083,0.254 -0.529167,0.42333 -0.677333,0.34925 -1.407583,0.34925 -0.73025,0 -1.164167,-0.15875 -0.423333,-0.15875 -0.709083,-0.45508 -0.560917,-0.56092 -0.560917,-1.5875 0,-1.59809 0.867834,-2.57175 0.931333,-1.04775 2.550583,-1.04775 1.005417,0 1.502833,0.42333 0.370417,0.3175 0.370417,0.83608 0,1.86267 -3.217333,1.86267 -0.04233,0.27517 -0.04233,0.508 0,0.48683 0.211667,0.67733 0.22225,0.17992 0.624417,0.17992 0.402166,0 0.8255,-0.17992 0.433916,-0.1905 0.613833,-0.48683 z m -2.159,-1.15358 q 0.751417,0 1.185333,-0.46567 0.433917,-0.4445 0.433917,-1.15358 0,-0.24342 -0.09525,-0.37042 -0.08467,-0.13758 -0.264583,-0.13758 -0.179917,0 -0.338667,0.0741 -0.148167,0.0635 -0.306917,0.29633 -0.391583,0.52917 -0.613833,1.75684 z" />
      <path
         id="path896"
         style="font-style:normal;font-variant:normal;font-weight:normal;font-stretch:normal;font-family:'Sansita One';-inkscape-font-specification:'Sansita One';text-align:center;text-anchor:middle;fill:#d45500;stroke:#d45500;stroke-width:1.32291663;stroke-linecap:round;stroke-linejoin:round;stroke-miterlimit:4;stroke-dasharray:none"
         d="m -69.498229,192.46173 q 0.275167,0.20108 0.275167,0.635 0,0.42333 -0.1905,0.73025 -0.179917,0.29633 -0.53975,0.52917 -0.772583,0.49741 -2.12725,0.49741 -1.344084,0 -2.084917,-0.6985 -0.73025,-0.70908 -0.73025,-1.95791 0,-1.76742 0.92075,-3.1115 0.6985,-0.99484 1.947333,-1.41817 0.645584,-0.21167 1.280584,-0.21167 0.635,0 1.026583,0.0847 0.391584,0.0847 0.687917,0.254 0.645583,0.37042 0.645583,0.96308 0,0.53975 -0.508,0.94192 -0.465666,0.35983 -0.846666,0.35983 -0.381,0 -0.53975,-0.0529 0.04233,-0.381 0.04233,-0.62442 0,-0.254 -0.01058,-0.43392 -0.01058,-0.17991 -0.0635,-0.34925 -0.105834,-0.39158 -0.433917,-0.39158 -0.3175,0 -0.645584,0.30692 -0.3175,0.29633 -0.592666,0.80433 -0.624417,1.15358 -0.624417,2.51883 0,0.65617 0.370417,1.03717 0.370416,0.37042 1.164166,0.37042 0.592667,0 1.153584,-0.39159 0.243417,-0.16933 0.423333,-0.39158 z" />
      <path
         id="path898"
         style="font-style:normal;font-variant:normal;font-weight:normal;font-stretch:normal;font-family:'Sansita One';-inkscape-font-specification:'Sansita One';text-align:center;text-anchor:middle;fill:#d45500;stroke:#d45500;stroke-width:1.32291663;stroke-linecap:round;stroke-linejoin:round;stroke-miterlimit:4;stroke-dasharray:none"
         d="m -66.038967,194.86415 q -2.328333,0 -2.328333,-2.19075 0,-1.55575 0.85725,-2.56117 0.910167,-1.06892 2.487083,-1.06892 1.143001,0 1.725084,0.52917 0.582083,0.52917 0.582083,1.64042 0,1.69333 -0.910166,2.67758 -0.889001,0.97367 -2.413001,0.97367 z m 0.275167,-4.60375 q -0.127,0.28575 -0.232833,0.71966 -0.09525,0.42334 -0.22225,1.10067 -0.127,0.67733 -0.127,1.51342 0,0.27516 0.08467,0.45508 0.09525,0.17992 0.338667,0.17992 0.243417,0 0.391583,-0.11642 0.15875,-0.11642 0.275167,-0.39158 0.211667,-0.48684 0.381,-1.38642 0.169333,-0.91017 0.179917,-1.30175 0.02117,-0.39158 0.02117,-0.67733 0,-0.29634 -0.08467,-0.48684 -0.08467,-0.1905 -0.328084,-0.1905 -0.232833,0 -0.391583,0.14817 -0.15875,0.14817 -0.28575,0.43392 z" />
      <path
         id="path900"
         style="font-style:normal;font-variant:normal;font-weight:normal;font-stretch:normal;font-family:'Sansita One';-inkscape-font-specification:'Sansita One';text-align:center;text-anchor:middle;fill:#d45500;stroke:#d45500;stroke-width:1.32291663;stroke-linecap:round;stroke-linejoin:round;stroke-miterlimit:4;stroke-dasharray:none"
         d="m -54.462949,194.86415 q -1.280584,0 -1.280584,-0.99484 0,-0.43391 0.179917,-1.27 0.1905,-0.84666 0.254,-1.18533 0.148167,-0.77258 0.148167,-1.016 0,-0.53975 -0.402167,-0.53975 -0.264583,0 -0.518583,0.37042 -0.254,0.35983 -0.370417,1.09008 l -0.656167,3.33375 -2.06375,0.21167 0.5715,-2.87867 q 0.09525,-0.47625 0.179917,-1.016 0.08467,-0.53975 0.08467,-0.62442 0,-0.48683 -0.359833,-0.48683 -0.243417,0 -0.508,0.35983 -0.264583,0.35984 -0.41275,1.10067 l -0.645583,3.33375 -2.084917,0.21167 1.11125,-5.60917 1.725083,-0.21167 -0.179916,1.06892 q 0.275166,-0.5715 0.783166,-0.81492 0.508,-0.254 1.30175,-0.254 0.455084,0 0.751417,0.22225 0.296334,0.22225 0.391584,0.58209 0.179916,-0.37042 0.635,-0.58209 0.465666,-0.22225 1.026583,-0.22225 0.5715,0 0.846667,0.127 0.28575,0.11642 0.455083,0.3175 0.28575,0.37042 0.28575,1.04775 0,0.66675 -0.28575,2.05317 -0.148167,0.67733 -0.148167,0.93133 0,0.24342 0.137584,0.39159 0.148166,0.14816 0.359833,0.16933 -0.105833,0.35983 -0.47625,0.5715 -0.359833,0.21167 -0.836083,0.21167 z" />
      <path
         id="path902"
         style="font-style:normal;font-variant:normal;font-weight:normal;font-stretch:normal;font-family:'Sansita One';-inkscape-font-specification:'Sansita One';text-align:center;text-anchor:middle;fill:#d45500;stroke:#d45500;stroke-width:1.32291663;stroke-linecap:round;stroke-linejoin:round;stroke-miterlimit:4;stroke-dasharray:none"
         d="m -47.394604,193.93281 q -0.444501,0.4445 -1.058334,0.68792 -0.60325,0.24342 -1.2065,0.24342 -0.60325,0 -0.814917,-0.10584 l -0.328083,1.79917 -2.148417,0.21167 1.4605,-7.51417 1.725084,-0.17992 -0.137584,0.73025 q 0.4445,-0.75141 1.36525,-0.75141 1.037167,0 1.587501,0.66675 0.486833,0.60325 0.486833,1.524 0,0.92075 -0.243417,1.57691 -0.243416,0.65617 -0.687916,1.11125 z m -2.952751,0.127 q 0.22225,0.1905 0.497417,0.1905 0.275167,0 0.433917,-0.10583 0.15875,-0.10583 0.275166,-0.3175 0.3175,-0.5715 0.5715,-2.30717 0.07408,-0.508 0.07408,-1.00541 0,-0.49742 -0.116417,-0.65617 -0.105833,-0.15875 -0.3175,-0.15875 -0.645583,0 -0.85725,1.25942 z" />
      <path
         id="path904"
         style="font-style:normal;font-variant:normal;font-weight:normal;font-stretch:normal;font-family:'Sansita One';-inkscape-font-specification:'Sansita One';text-align:center;text-anchor:middle;fill:#d45500;stroke:#d45500;stroke-width:1.32291663;stroke-linecap:round;stroke-linejoin:round;stroke-miterlimit:4;stroke-dasharray:none"
         d="m -43.295877,194.0704 q -0.328084,0.79375 -1.375834,0.79375 -0.53975,0 -0.878417,-0.37042 -0.28575,-0.32808 -0.28575,-0.65617 0,-0.85725 0.391584,-2.52941 l 0.391583,-2.05317 2.148417,-0.21167 -0.645583,3.34434 q -0.179917,0.78316 -0.179917,1.05833 0,0.60325 0.433917,0.62442 z m -1.566334,-6.2865 q 0,-0.41275 0.338667,-0.635 0.34925,-0.22225 0.846667,-0.22225 0.497416,0 0.79375,0.22225 0.306916,0.22225 0.306916,0.635 0,0.41275 -0.338666,0.62441 -0.328084,0.21167 -0.8255,0.21167 -0.497417,0 -0.814917,-0.21167 -0.306917,-0.21166 -0.306917,-0.62441 z" />
      <path
         id="path906"
         style="font-style:normal;font-variant:normal;font-weight:normal;font-stretch:normal;font-family:'Sansita One';-inkscape-font-specification:'Sansita One';text-align:center;text-anchor:middle;fill:#d45500;stroke:#d45500;stroke-width:1.32291663;stroke-linecap:round;stroke-linejoin:round;stroke-miterlimit:4;stroke-dasharray:none"
         d="m -39.875148,194.0704 q -0.328084,0.79375 -1.375834,0.79375 -0.529166,0 -0.867833,-0.37042 -0.275167,-0.30692 -0.275167,-0.65617 0,-0.79375 0.370417,-2.52941 l 0.772583,-4.064 2.148417,-0.21167 -1.026583,5.35517 q -0.179917,0.78316 -0.179917,1.05833 0,0.60325 0.433917,0.62442 z" />
      <path
         id="path908"
         style="font-style:normal;font-variant:normal;font-weight:normal;font-stretch:normal;font-family:'Sansita One';-inkscape-font-specification:'Sansita One';text-align:center;text-anchor:middle;fill:#d45500;stroke:#d45500;stroke-width:1.32291663;stroke-linecap:round;stroke-linejoin:round;stroke-miterlimit:4;stroke-dasharray:none"
         d="m -34.686998,192.8639 q 0.264583,0.17991 0.264583,0.58208 0,0.39158 -0.201083,0.64558 -0.201084,0.254 -0.529167,0.42334 -0.677333,0.34925 -1.407584,0.34925 -0.73025,0 -1.164166,-0.15875 -0.423334,-0.15875 -0.709084,-0.45509 -0.560916,-0.56091 -0.560916,-1.5875 0,-1.59808 0.867833,-2.57175 0.931333,-1.04775 2.550584,-1.04775 1.005416,0 1.502833,0.42334 0.370417,0.3175 0.370417,0.83608 0,1.86267 -3.217334,1.86267 -0.04233,0.27516 -0.04233,0.508 0,0.48683 0.211666,0.67733 0.22225,0.17992 0.624417,0.17992 0.402167,0 0.8255,-0.17992 0.433917,-0.1905 0.613834,-0.48683 z m -2.159001,-1.15359 q 0.751417,0 1.185334,-0.46566 0.433917,-0.4445 0.433917,-1.15359 0,-0.24341 -0.09525,-0.37041 -0.08467,-0.13759 -0.264584,-0.13759 -0.179916,0 -0.338666,0.0741 -0.148167,0.0635 -0.306917,0.29633 -0.391584,0.52917 -0.613834,1.75683 z" />
      <path
         id="path910"
         style="font-style:normal;font-variant:normal;font-weight:normal;font-stretch:normal;font-family:'Sansita One';-inkscape-font-specification:'Sansita One';text-align:center;text-anchor:middle;fill:#d45500;stroke:#d45500;stroke-width:1.32291663;stroke-linecap:round;stroke-linejoin:round;stroke-miterlimit:4;stroke-dasharray:none"
         d="m -30.038267,191.67856 q 0.381,-0.67733 0.381,-1.36525 0,-0.45508 -0.328083,-0.45508 -0.254,0 -0.518583,0.43392 -0.275167,0.43391 -0.359834,0.99483 l -0.550333,3.3655 -2.19075,0.21167 1.0795,-5.60917 1.74625,-0.21167 -0.1905,1.06892 q 0.518583,-1.06892 1.68275,-1.06892 0.613833,0 0.941917,0.3175 0.338666,0.3175 0.338666,0.97367 0,0.64558 -0.433916,1.05833 -0.423334,0.41275 -1.153584,0.41275 -0.3175,0 -0.4445,-0.127 z" />
    </g>
    <g
       id="text1149"
       style="font-style:normal;font-weight:normal;font-size:10.58333397px;line-height:1.25;font-family:sans-serif;letter-spacing:0px;word-spacing:0px;fill:#ffffff;fill-opacity:1;stroke:none;stroke-width:0.26458335"
       aria-label="Install   KotlinCommand   LineCompiler">
      <path
         id="path913"
         style="font-style:normal;font-variant:normal;font-weight:normal;font-stretch:normal;font-family:'Sansita One';-inkscape-font-specification:'Sansita One';text-align:center;text-anchor:middle;fill:#ffffff;stroke-width:0.26458335"
         d="m -86.559638,167.79674 1.344083,-6.985 h 2.328334 l -1.36525,6.985 z" />
      <path
         id="path915"
         style="font-style:normal;font-variant:normal;font-weight:normal;font-stretch:normal;font-family:'Sansita One';-inkscape-font-specification:'Sansita One';text-align:center;text-anchor:middle;fill:#ffffff;stroke-width:0.26458335"
         d="m -78.183756,168.0084 q -1.280583,0 -1.280583,-0.99483 0.01058,-0.27517 0.09525,-0.74083 l 0.1905,-0.97367 q 0.28575,-1.37583 0.28575,-1.68275 0,-0.61383 -0.359834,-0.61383 -0.60325,0 -0.92075,1.57691 l -0.624416,3.21734 -2.127251,0.21166 1.100667,-5.61975 1.735667,-0.20108 -0.169333,1.03717 q 0.497416,-1.03717 2.021416,-1.03717 0.740834,0 1.04775,0.3175 0.3175,0.30692 0.3175,1.00542 0,0.65616 -0.338666,2.19075 -0.15875,0.68791 -0.15875,0.9525 0,0.254 0.137583,0.40216 0.148167,0.14817 0.359833,0.16934 -0.105833,0.35983 -0.47625,0.5715 -0.359833,0.21166 -0.836083,0.21166 z" />
      <path
         id="path917"
         style="font-style:normal;font-variant:normal;font-weight:normal;font-stretch:normal;font-family:'Sansita One';-inkscape-font-specification:'Sansita One';text-align:center;text-anchor:middle;fill:#ffffff;stroke-width:0.26458335"
         d="m -72.860835,164.08199 q 0.148167,-0.39159 0.148167,-0.73025 0,-0.62442 -0.508,-0.62442 -0.264583,0 -0.486833,0.24342 -0.211667,0.23283 -0.211667,0.52916 0,0.21167 0.169333,0.381 0.243417,0.23284 0.867834,0.61384 0.624416,0.381 0.85725,0.6985 0.243416,0.30691 0.243416,0.74083 0,0.42333 -0.211666,0.81492 -0.201084,0.39158 -0.5715,0.66675 -0.79375,0.59266 -2.063751,0.59266 -0.687916,0 -1.217083,-0.35983 -0.529167,-0.34925 -0.529167,-0.762 0,-0.41275 0.296334,-0.65617 0.306916,-0.24341 0.751416,-0.24341 0.4445,0 0.719667,0.16933 -0.137583,0.34925 -0.137583,0.58208 0,0.6985 0.592667,0.6985 0.254,0 0.423333,-0.15875 0.169333,-0.15875 0.169333,-0.43391 0,-0.53975 -0.910167,-1.11125 -0.740833,-0.48684 -0.910166,-0.67734 -0.28575,-0.33866 -0.28575,-0.762 0,-0.42333 0.201083,-0.8255 0.201083,-0.40216 0.5715,-0.68791 0.772584,-0.59267 2.116667,-0.59267 0.687917,0 1.090083,0.27517 0.41275,0.27516 0.41275,0.74083 0,0.46567 -0.28575,0.73025 -0.275166,0.26458 -0.783166,0.26458 -0.34925,0 -0.518584,-0.11641 z" />
      <path
         id="path919"
         style="font-style:normal;font-variant:normal;font-weight:normal;font-stretch:normal;font-family:'Sansita One';-inkscape-font-specification:'Sansita One';text-align:center;text-anchor:middle;fill:#ffffff;stroke-width:0.26458335"
         d="m -70.708946,166.7384 q 0,-0.28575 0.148167,-1.00541 l 0.560917,-2.8575 h -0.624417 l 0.04233,-0.3175 q 1.27,-0.381 2.497667,-1.31234 h 0.508 l -0.254,1.15359 h 0.8255 l -0.09525,0.47625 h -0.814916 l -0.53975,2.8575 q -0.137584,0.65616 -0.137584,0.87841 0,0.508 0.4445,0.61384 -0.105833,0.35983 -0.486833,0.5715 -0.381,0.21166 -0.92075,0.21166 -0.53975,0 -0.846667,-0.33866 -0.306917,-0.33867 -0.306917,-0.93134 z" />
      <path
         id="path921"
         style="font-style:normal;font-variant:normal;font-weight:normal;font-stretch:normal;font-family:'Sansita One';-inkscape-font-specification:'Sansita One';text-align:center;text-anchor:middle;fill:#ffffff;stroke-width:0.26458335"
         d="m -66.64048,167.47924 q -0.243416,-0.27517 -0.359833,-0.70909 -0.105833,-0.43391 -0.105833,-1.143 0,-0.70908 0.243416,-1.35466 0.243417,-0.64559 0.687917,-1.11125 0.910167,-0.97367 2.413,-0.97367 0.53975,0 0.931333,0.17992 l 1.809751,-0.17992 -0.783167,4.1275 q -0.03175,0.127 -0.03175,0.35983 0,0.23284 0.137583,0.381 0.148167,0.14817 0.359834,0.16934 -0.105834,0.35983 -0.497417,0.5715 -0.381,0.21166 -0.814917,0.21166 -0.433917,0 -0.73025,-0.16933 -0.28575,-0.15875 -0.370417,-0.43392 -0.169333,0.26459 -0.529166,0.43392 -0.359834,0.16933 -0.846667,0.16933 -0.47625,0 -0.867833,-0.127 -0.391584,-0.127 -0.645584,-0.40216 z m 2.233084,-4.29684 q -0.116417,0.1905 -0.22225,0.51859 -0.105834,0.3175 -0.28575,1.18533 -0.169334,0.85725 -0.169334,1.47108 0,0.61384 0.09525,0.79375 0.09525,0.17992 0.264584,0.17992 0.338666,0 0.582083,-0.3175 0.254,-0.32808 0.34925,-0.89958 l 0.560917,-3.10092 q -0.22225,-0.1905 -0.486834,-0.1905 -0.254,0 -0.41275,0.0847 -0.148166,0.0847 -0.275166,0.27516 z" />
      <path
         id="path923"
         style="font-style:normal;font-variant:normal;font-weight:normal;font-stretch:normal;font-family:'Sansita One';-inkscape-font-specification:'Sansita One';text-align:center;text-anchor:middle;fill:#ffffff;stroke-width:0.26458335"
         d="m -57.910222,167.21465 q -0.328084,0.79375 -1.375834,0.79375 -0.529167,0 -0.867833,-0.37041 -0.275167,-0.30692 -0.275167,-0.65617 0,-0.79375 0.370417,-2.52942 l 0.772583,-4.064 2.148417,-0.21166 -1.026584,5.35516 q -0.179916,0.78317 -0.179916,1.05834 0,0.60325 0.433917,0.62441 z" />
      <path
         id="path925"
         style="font-style:normal;font-variant:normal;font-weight:normal;font-stretch:normal;font-family:'Sansita One';-inkscape-font-specification:'Sansita One';text-align:center;text-anchor:middle;fill:#ffffff;stroke-width:0.26458335"
         d="m -54.478906,167.21465 q -0.328083,0.79375 -1.375834,0.79375 -0.529166,0 -0.867833,-0.37041 -0.275167,-0.30692 -0.275167,-0.65617 0,-0.79375 0.370417,-2.52942 l 0.772583,-4.064 2.148417,-0.21166 -1.026583,5.35516 q -0.179917,0.78317 -0.179917,1.05834 0,0.60325 0.433917,0.62441 z" />
      <path
         id="path927"
         style="font-style:normal;font-variant:normal;font-weight:normal;font-stretch:normal;font-family:'Sansita One';-inkscape-font-specification:'Sansita One';text-align:center;text-anchor:middle;fill:#ffffff;stroke-width:0.26458335"
         d="m -47.161026,167.79674 1.2065,-6.43467 0.116417,-0.55033 h 2.264833 l -1.3335,6.985 z m 6.551084,-0.62442 q -0.28575,0.83608 -1.386417,0.83608 -0.814917,0 -1.375834,-0.97366 -0.5715,-0.97367 -0.677333,-2.56117 1.164167,-2.12725 1.9685,-3.00567 0.772584,-0.83608 1.576917,-0.83608 0.433917,0 0.740833,0.23283 0.3175,0.23284 0.391584,0.60325 -0.359834,0.14817 -0.529167,0.26459 -0.423333,0.3175 -0.994833,1.02658 l -0.963084,1.15358 q -0.232833,0.27517 -0.328083,0.40217 0.15875,0.889 0.635,1.76742 0.455083,0.83608 0.941917,1.09008 z" />
      <path
         id="path929"
         style="font-style:normal;font-variant:normal;font-weight:normal;font-stretch:normal;font-family:'Sansita One';-inkscape-font-specification:'Sansita One';text-align:center;text-anchor:middle;fill:#ffffff;stroke-width:0.26458335"
         d="m -37.689273,168.0084 q -2.328334,0 -2.328334,-2.19075 0,-1.55575 0.85725,-2.56116 0.910167,-1.06892 2.487084,-1.06892 1.143,0 1.725083,0.52917 0.582084,0.52916 0.582084,1.64041 0,1.69334 -0.910167,2.67759 -0.889,0.97366 -2.413,0.97366 z m 0.275166,-4.60375 q -0.127,0.28575 -0.232833,0.71967 -0.09525,0.42333 -0.22225,1.10067 -0.127,0.67733 -0.127,1.51341 0,0.27517 0.08467,0.45509 0.09525,0.17991 0.338666,0.17991 0.243417,0 0.391584,-0.11641 0.15875,-0.11642 0.275166,-0.39159 0.211667,-0.48683 0.381,-1.38641 0.169334,-0.91017 0.179917,-1.30175 0.02117,-0.39159 0.02117,-0.67734 0,-0.29633 -0.08467,-0.48683 -0.08467,-0.1905 -0.328083,-0.1905 -0.232834,0 -0.391584,0.14817 -0.15875,0.14816 -0.28575,0.43391 z" />
      <path
         id="path931"
         style="font-style:normal;font-variant:normal;font-weight:normal;font-stretch:normal;font-family:'Sansita One';-inkscape-font-specification:'Sansita One';text-align:center;text-anchor:middle;fill:#ffffff;stroke-width:0.26458335"
         d="m -33.563923,166.7384 q 0,-0.28575 0.148166,-1.00541 l 0.560917,-2.8575 h -0.624417 l 0.04233,-0.3175 q 1.27,-0.381 2.497667,-1.31234 h 0.508 l -0.254,1.15359 h 0.8255 l -0.09525,0.47625 h -0.814917 l -0.53975,2.8575 q -0.137583,0.65616 -0.137583,0.87841 0,0.508 0.4445,0.61384 -0.105834,0.35983 -0.486834,0.5715 -0.381,0.21166 -0.92075,0.21166 -0.53975,0 -0.846667,-0.33866 -0.306916,-0.33867 -0.306916,-0.93134 z" />
      <path
         id="path933"
         style="font-style:normal;font-variant:normal;font-weight:normal;font-stretch:normal;font-family:'Sansita One';-inkscape-font-specification:'Sansita One';text-align:center;text-anchor:middle;fill:#ffffff;stroke-width:0.26458335"
         d="m -27.379785,167.21465 q -0.328083,0.79375 -1.375833,0.79375 -0.529167,0 -0.867834,-0.37041 -0.275167,-0.30692 -0.275167,-0.65617 0,-0.79375 0.370417,-2.52942 l 0.772584,-4.064 2.148416,-0.21166 -1.026583,5.35516 q -0.179917,0.78317 -0.179917,1.05834 0,0.60325 0.433917,0.62441 z" />
      <path
         id="path935"
         style="font-style:normal;font-variant:normal;font-weight:normal;font-stretch:normal;font-family:'Sansita One';-inkscape-font-specification:'Sansita One';text-align:center;text-anchor:middle;fill:#ffffff;stroke-width:0.26458335"
         d="m -23.937885,167.21465 q -0.328084,0.79375 -1.375834,0.79375 -0.53975,0 -0.878416,-0.37041 -0.28575,-0.32809 -0.28575,-0.65617 0,-0.85725 0.391583,-2.52942 l 0.391583,-2.05316 2.148417,-0.21167 -0.645583,3.34433 q -0.179917,0.78317 -0.179917,1.05834 0,0.60325 0.433917,0.62441 z m -1.566334,-6.2865 q 0,-0.41275 0.338667,-0.635 0.34925,-0.22225 0.846667,-0.22225 0.497416,0 0.79375,0.22225 0.306916,0.22225 0.306916,0.635 0,0.41275 -0.338666,0.62442 -0.328084,0.21167 -0.8255,0.21167 -0.497417,0 -0.814917,-0.21167 -0.306917,-0.21167 -0.306917,-0.62442 z" />
      <path
         id="path937"
         style="font-style:normal;font-variant:normal;font-weight:normal;font-stretch:normal;font-family:'Sansita One';-inkscape-font-specification:'Sansita One';text-align:center;text-anchor:middle;fill:#ffffff;stroke-width:0.26458335"
         d="m -18.569819,168.0084 q -1.280583,0 -1.280583,-0.99483 0.01058,-0.27517 0.09525,-0.74083 l 0.1905,-0.97367 q 0.28575,-1.37583 0.28575,-1.68275 0,-0.61383 -0.359834,-0.61383 -0.60325,0 -0.92075,1.57691 l -0.624416,3.21734 -2.12725,0.21166 1.100666,-5.61975 1.735667,-0.20108 -0.169333,1.03717 q 0.497416,-1.03717 2.021417,-1.03717 0.740833,0 1.04775,0.3175 0.3175,0.30692 0.3175,1.00542 0,0.65616 -0.338667,2.19075 -0.15875,0.68791 -0.15875,0.9525 0,0.254 0.137583,0.40216 0.148167,0.14817 0.359834,0.16934 -0.105834,0.35983 -0.47625,0.5715 -0.359834,0.21166 -0.836084,0.21166 z" />
      <path
         id="path939"
         style="font-style:normal;font-variant:normal;font-weight:normal;font-stretch:normal;font-family:'Sansita One';-inkscape-font-specification:'Sansita One';text-align:center;text-anchor:middle;fill:#ffffff;stroke-width:0.26458335"
         d="m -85.848653,179.03387 q 0.275167,0.20109 0.275167,0.635 0,0.42334 -0.1905,0.73025 -0.179917,0.29634 -0.53975,0.52917 -0.772584,0.49742 -2.12725,0.49742 -1.344084,0 -2.084917,-0.6985 -0.73025,-0.70909 -0.73025,-1.95792 0,-1.76742 0.92075,-3.1115 0.6985,-0.99483 1.947333,-1.41817 0.645584,-0.21166 1.280584,-0.21166 0.635,0 1.026583,0.0847 0.391583,0.0847 0.687917,0.254 0.645583,0.37042 0.645583,0.96309 0,0.53975 -0.508,0.94191 -0.465667,0.35984 -0.846667,0.35984 -0.381,0 -0.53975,-0.0529 0.04233,-0.381 0.04233,-0.62442 0,-0.254 -0.01058,-0.43391 -0.01058,-0.17992 -0.0635,-0.34925 -0.105833,-0.39159 -0.433916,-0.39159 -0.3175,0 -0.645584,0.30692 -0.3175,0.29633 -0.592666,0.80433 -0.624417,1.15359 -0.624417,2.51884 0,0.65616 0.370417,1.03716 0.370416,0.37042 1.164166,0.37042 0.592667,0 1.153584,-0.39158 0.243416,-0.16934 0.423333,-0.39159 z" />
      <path
         id="path941"
         style="font-style:normal;font-variant:normal;font-weight:normal;font-stretch:normal;font-family:'Sansita One';-inkscape-font-specification:'Sansita One';text-align:center;text-anchor:middle;fill:#ffffff;stroke-width:0.26458335"
         d="m -82.389391,181.43629 q -2.328333,0 -2.328333,-2.19075 0,-1.55575 0.85725,-2.56117 0.910167,-1.06891 2.487083,-1.06891 1.143,0 1.725084,0.52916 0.582083,0.52917 0.582083,1.64042 0,1.69333 -0.910167,2.67758 -0.889,0.97367 -2.413,0.97367 z m 0.275167,-4.60375 q -0.127,0.28575 -0.232833,0.71967 -0.09525,0.42333 -0.22225,1.10066 -0.127,0.67734 -0.127,1.51342 0,0.27517 0.08467,0.45508 0.09525,0.17992 0.338667,0.17992 0.243417,0 0.391583,-0.11642 0.15875,-0.11641 0.275167,-0.39158 0.211667,-0.48683 0.381,-1.38642 0.169333,-0.91016 0.179917,-1.30175 0.02117,-0.39158 0.02117,-0.67733 0,-0.29633 -0.08467,-0.48683 -0.08467,-0.1905 -0.328084,-0.1905 -0.232833,0 -0.391583,0.14816 -0.15875,0.14817 -0.28575,0.43392 z" />
      <path
         id="path943"
         style="font-style:normal;font-variant:normal;font-weight:normal;font-stretch:normal;font-family:'Sansita One';-inkscape-font-specification:'Sansita One';text-align:center;text-anchor:middle;fill:#ffffff;stroke-width:0.26458335"
         d="m -70.813374,181.43629 q -1.280583,0 -1.280583,-0.99483 0,-0.43392 0.179917,-1.27 0.1905,-0.84667 0.254,-1.18534 0.148166,-0.77258 0.148166,-1.016 0,-0.53975 -0.402166,-0.53975 -0.264584,0 -0.518584,0.37042 -0.254,0.35983 -0.370416,1.09008 l -0.656167,3.33375 -2.06375,0.21167 0.5715,-2.87867 q 0.09525,-0.47625 0.179917,-1.016 0.08467,-0.53975 0.08467,-0.62441 0,-0.48684 -0.359833,-0.48684 -0.243417,0 -0.508,0.35984 -0.264583,0.35983 -0.41275,1.10066 l -0.645584,3.33375 -2.084916,0.21167 1.11125,-5.60917 1.725083,-0.21166 -0.179916,1.06891 q 0.275166,-0.5715 0.783166,-0.81491 0.508,-0.254 1.30175,-0.254 0.455084,0 0.751417,0.22225 0.296333,0.22225 0.391583,0.58208 0.179917,-0.37042 0.635,-0.58208 0.465667,-0.22225 1.026584,-0.22225 0.5715,0 0.846667,0.127 0.28575,0.11641 0.455083,0.3175 0.28575,0.37041 0.28575,1.04775 0,0.66675 -0.28575,2.05316 -0.148167,0.67734 -0.148167,0.93134 0,0.24341 0.137584,0.39158 0.148166,0.14817 0.359833,0.16933 -0.105833,0.35984 -0.47625,0.5715 -0.359833,0.21167 -0.836084,0.21167 z" />
      <path
         id="path945"
         style="font-style:normal;font-variant:normal;font-weight:normal;font-stretch:normal;font-family:'Sansita One';-inkscape-font-specification:'Sansita One';text-align:center;text-anchor:middle;fill:#ffffff;stroke-width:0.26458335"
         d="m -61.056862,181.43629 q -1.280583,0 -1.280583,-0.99483 0,-0.43392 0.179916,-1.27 0.1905,-0.84667 0.254,-1.18534 0.148167,-0.77258 0.148167,-1.016 0,-0.53975 -0.402167,-0.53975 -0.264583,0 -0.518583,0.37042 -0.254,0.35983 -0.370417,1.09008 l -0.656166,3.33375 -2.06375,0.21167 0.5715,-2.87867 q 0.09525,-0.47625 0.179916,-1.016 0.08467,-0.53975 0.08467,-0.62441 0,-0.48684 -0.359833,-0.48684 -0.243417,0 -0.508,0.35984 -0.264584,0.35983 -0.41275,1.10066 l -0.645584,3.33375 -2.084917,0.21167 1.11125,-5.60917 1.725084,-0.21166 -0.179917,1.06891 q 0.275167,-0.5715 0.783167,-0.81491 0.508,-0.254 1.30175,-0.254 0.455083,0 0.751417,0.22225 0.296333,0.22225 0.391583,0.58208 0.179917,-0.37042 0.635,-0.58208 0.465667,-0.22225 1.026583,-0.22225 0.571501,0 0.846667,0.127 0.28575,0.11641 0.455084,0.3175 0.28575,0.37041 0.28575,1.04775 0,0.66675 -0.28575,2.05316 -0.148167,0.67734 -0.148167,0.93134 0,0.24341 0.137583,0.39158 0.148167,0.14817 0.359834,0.16933 -0.105834,0.35984 -0.47625,0.5715 -0.359834,0.21167 -0.836084,0.21167 z" />
      <path
         id="path947"
         style="font-style:normal;font-variant:normal;font-weight:normal;font-stretch:normal;font-family:'Sansita One';-inkscape-font-specification:'Sansita One';text-align:center;text-anchor:middle;fill:#ffffff;stroke-width:0.26458335"
         d="m -58.465269,180.90712 q -0.243417,-0.27516 -0.359833,-0.70908 -0.105834,-0.43392 -0.105834,-1.143 0,-0.70908 0.243417,-1.35467 0.243417,-0.64558 0.687917,-1.11125 0.910166,-0.97366 2.413,-0.97366 0.53975,0 0.931333,0.17991 l 1.80975,-0.17991 -0.783167,4.1275 q -0.03175,0.127 -0.03175,0.35983 0,0.23283 0.137584,0.381 0.148167,0.14817 0.359833,0.16933 -0.105833,0.35984 -0.497417,0.5715 -0.381,0.21167 -0.814916,0.21167 -0.433917,0 -0.73025,-0.16933 -0.28575,-0.15875 -0.370417,-0.43392 -0.169333,0.26458 -0.529167,0.43392 -0.359833,0.16933 -0.846666,0.16933 -0.47625,0 -0.867834,-0.127 -0.391583,-0.127 -0.645583,-0.40217 z m 2.233083,-4.29683 q -0.116416,0.1905 -0.22225,0.51858 -0.105833,0.3175 -0.28575,1.18534 -0.169333,0.85725 -0.169333,1.47108 0,0.61383 0.09525,0.79375 0.09525,0.17992 0.264583,0.17992 0.338667,0 0.582084,-0.3175 0.254,-0.32809 0.34925,-0.89959 l 0.560916,-3.10091 q -0.22225,-0.1905 -0.486833,-0.1905 -0.254,0 -0.41275,0.0847 -0.148167,0.0847 -0.275167,0.27517 z" />
      <path
         id="path949"
         style="font-style:normal;font-variant:normal;font-weight:normal;font-stretch:normal;font-family:'Sansita One';-inkscape-font-specification:'Sansita One';text-align:center;text-anchor:middle;fill:#ffffff;stroke-width:0.26458335"
         d="m -47.787676,181.43629 q -1.280584,0 -1.280584,-0.99483 0.01058,-0.27517 0.09525,-0.74084 l 0.1905,-0.97366 q 0.28575,-1.37584 0.28575,-1.68275 0,-0.61384 -0.359833,-0.61384 -0.60325,0 -0.92075,1.57692 l -0.624417,3.21733 -2.12725,0.21167 1.100667,-5.61975 1.735666,-0.20108 -0.169333,1.03716 q 0.497417,-1.03716 2.021417,-1.03716 0.740833,0 1.04775,0.3175 0.3175,0.30691 0.3175,1.00541 0,0.65617 -0.338667,2.19075 -0.15875,0.68792 -0.15875,0.9525 0,0.254 0.137584,0.40217 0.148166,0.14817 0.359833,0.16933 -0.105833,0.35984 -0.47625,0.5715 -0.359833,0.21167 -0.836083,0.21167 z" />
      <path
         id="path951"
         style="font-style:normal;font-variant:normal;font-weight:normal;font-stretch:normal;font-family:'Sansita One';-inkscape-font-specification:'Sansita One';text-align:center;text-anchor:middle;fill:#ffffff;stroke-width:0.26458335"
         d="m -42.295423,175.61546 q 0.381,0 0.677334,0.0847 0.01058,-0.0423 0.03175,-0.15875 l 0.05292,-0.32808 q 0.04233,-0.21167 0.105834,-0.56092 l 0.169333,-0.83608 2.106084,-0.21167 -1.174751,6.13834 q -0.01058,0.0635 -0.01058,0.16933 v 0.16933 q 0,0.23284 0.116417,0.41275 0.116416,0.16934 0.306917,0.16934 -0.211667,0.49741 -0.857251,0.70908 -0.22225,0.0635 -0.53975,0.0635 -0.306916,0 -0.592666,-0.16933 -0.28575,-0.15875 -0.370417,-0.43392 -0.169333,0.27517 -0.508,0.43392 -0.338667,0.16933 -0.836083,0.16933 -0.486834,0 -0.899584,-0.127 -0.402166,-0.127 -0.656166,-0.40217 -0.465667,-0.53975 -0.465667,-1.76741 0,-1.5875 0.931333,-2.55059 0.931334,-0.97366 2.413,-0.97366 z m -0.07408,0.635 q -0.391583,0 -0.60325,0.42333 -0.211667,0.42333 -0.433917,1.47108 -0.211666,1.04775 -0.211666,1.98967 0,0.64558 0.381,0.64558 0.338666,0 0.5715,-0.33866 0.243416,-0.33867 0.338666,-0.89959 l 0.5715,-3.10091 q -0.22225,-0.1905 -0.613833,-0.1905 z" />
      <path
         id="path953"
         style="font-style:normal;font-variant:normal;font-weight:normal;font-stretch:normal;font-family:'Sansita One';-inkscape-font-specification:'Sansita One';text-align:center;text-anchor:middle;fill:#ffffff;stroke-width:0.26458335"
         d="m -28.079523,179.59479 q 0.201083,0.254 0.201083,0.75142 0,0.48683 -0.381,0.79375 -0.370416,0.29633 -1.026583,0.29633 -0.381,0 -0.973667,-0.0847 -1.164166,-0.17991 -1.502833,-0.17991 -0.328083,0 -0.465667,0.0212 -0.137583,0.0106 -0.359833,0.0317 l 1.280583,-6.985 h 2.31775 l -1.058333,5.82084 q 0.137583,0.0212 0.264583,0.0212 h 0.264584 q 0.889,0 1.439333,-0.48683 z" />
      <path
         id="path955"
         style="font-style:normal;font-variant:normal;font-weight:normal;font-stretch:normal;font-family:'Sansita One';-inkscape-font-specification:'Sansita One';text-align:center;text-anchor:middle;fill:#ffffff;stroke-width:0.26458335"
         d="m -24.630349,180.64254 q -0.328083,0.79375 -1.375833,0.79375 -0.53975,0 -0.878417,-0.37042 -0.28575,-0.32808 -0.28575,-0.65616 0,-0.85725 0.391584,-2.52942 l 0.391583,-2.05317 2.148417,-0.21166 -0.645584,3.34433 q -0.179916,0.78317 -0.179916,1.05833 0,0.60325 0.433916,0.62442 z m -1.566333,-6.2865 q 0,-0.41275 0.338667,-0.635 0.34925,-0.22225 0.846666,-0.22225 0.497417,0 0.79375,0.22225 0.306917,0.22225 0.306917,0.635 0,0.41275 -0.338667,0.62442 -0.328083,0.21166 -0.8255,0.21166 -0.497416,0 -0.814916,-0.21166 -0.306917,-0.21167 -0.306917,-0.62442 z" />
      <path
         id="path957"
         style="font-style:normal;font-variant:normal;font-weight:normal;font-stretch:normal;font-family:'Sansita One';-inkscape-font-specification:'Sansita One';text-align:center;text-anchor:middle;fill:#ffffff;stroke-width:0.26458335"
         d="m -19.262286,181.43629 q -1.280583,0 -1.280583,-0.99483 0.01058,-0.27517 0.09525,-0.74084 l 0.1905,-0.97366 q 0.28575,-1.37584 0.28575,-1.68275 0,-0.61384 -0.359834,-0.61384 -0.60325,0 -0.92075,1.57692 l -0.624416,3.21733 -2.12725,0.21167 1.100666,-5.61975 1.735667,-0.20108 -0.169333,1.03716 q 0.497416,-1.03716 2.021416,-1.03716 0.740834,0 1.047751,0.3175 0.3175,0.30691 0.3175,1.00541 0,0.65617 -0.338667,2.19075 -0.15875,0.68792 -0.15875,0.9525 0,0.254 0.137583,0.40217 0.148167,0.14817 0.359834,0.16933 -0.105834,0.35984 -0.47625,0.5715 -0.359834,0.21167 -0.836084,0.21167 z" />
      <path
         id="path959"
         style="font-style:normal;font-variant:normal;font-weight:normal;font-stretch:normal;font-family:'Sansita One';-inkscape-font-specification:'Sansita One';text-align:center;text-anchor:middle;fill:#ffffff;stroke-width:0.26458335"
         d="m -12.817532,179.43604 q 0.264583,0.17992 0.264583,0.58208 0,0.39159 -0.201083,0.64559 -0.201083,0.254 -0.529167,0.42333 -0.677333,0.34925 -1.407583,0.34925 -0.73025,0 -1.164167,-0.15875 -0.423333,-0.15875 -0.709083,-0.45508 -0.560917,-0.56092 -0.560917,-1.5875 0,-1.59809 0.867834,-2.57175 0.931333,-1.04775 2.550583,-1.04775 1.005417,0 1.502833,0.42333 0.370417,0.3175 0.370417,0.83608 0,1.86267 -3.217333,1.86267 -0.04233,0.27517 -0.04233,0.508 0,0.48683 0.211667,0.67733 0.22225,0.17992 0.624417,0.17992 0.402166,0 0.8255,-0.17992 0.433916,-0.1905 0.613833,-0.48683 z m -2.159,-1.15358 q 0.751417,0 1.185333,-0.46567 0.433917,-0.4445 0.433917,-1.15358 0,-0.24342 -0.09525,-0.37042 -0.08467,-0.13758 -0.264583,-0.13758 -0.179917,0 -0.338667,0.0741 -0.148167,0.0635 -0.306917,0.29633 -0.391583,0.52917 -0.613833,1.75684 z" />
      <path
         id="path961"
         style="font-style:normal;font-variant:normal;font-weight:normal;font-stretch:normal;font-family:'Sansita One';-inkscape-font-specification:'Sansita One';text-align:center;text-anchor:middle;fill:#ffffff;stroke-width:0.26458335"
         d="m -69.498229,192.46173 q 0.275167,0.20108 0.275167,0.635 0,0.42333 -0.1905,0.73025 -0.179917,0.29633 -0.53975,0.52917 -0.772583,0.49741 -2.12725,0.49741 -1.344084,0 -2.084917,-0.6985 -0.73025,-0.70908 -0.73025,-1.95791 0,-1.76742 0.92075,-3.1115 0.6985,-0.99484 1.947333,-1.41817 0.645584,-0.21167 1.280584,-0.21167 0.635,0 1.026583,0.0847 0.391584,0.0847 0.687917,0.254 0.645583,0.37042 0.645583,0.96308 0,0.53975 -0.508,0.94192 -0.465666,0.35983 -0.846666,0.35983 -0.381,0 -0.53975,-0.0529 0.04233,-0.381 0.04233,-0.62442 0,-0.254 -0.01058,-0.43392 -0.01058,-0.17991 -0.0635,-0.34925 -0.105834,-0.39158 -0.433917,-0.39158 -0.3175,0 -0.645584,0.30692 -0.3175,0.29633 -0.592666,0.80433 -0.624417,1.15358 -0.624417,2.51883 0,0.65617 0.370417,1.03717 0.370416,0.37042 1.164166,0.37042 0.592667,0 1.153584,-0.39159 0.243417,-0.16933 0.423333,-0.39158 z" />
      <path
         id="path963"
         style="font-style:normal;font-variant:normal;font-weight:normal;font-stretch:normal;font-family:'Sansita One';-inkscape-font-specification:'Sansita One';text-align:center;text-anchor:middle;fill:#ffffff;stroke-width:0.26458335"
         d="m -66.038967,194.86415 q -2.328333,0 -2.328333,-2.19075 0,-1.55575 0.85725,-2.56117 0.910167,-1.06892 2.487083,-1.06892 1.143001,0 1.725084,0.52917 0.582083,0.52917 0.582083,1.64042 0,1.69333 -0.910166,2.67758 -0.889001,0.97367 -2.413001,0.97367 z m 0.275167,-4.60375 q -0.127,0.28575 -0.232833,0.71966 -0.09525,0.42334 -0.22225,1.10067 -0.127,0.67733 -0.127,1.51342 0,0.27516 0.08467,0.45508 0.09525,0.17992 0.338667,0.17992 0.243417,0 0.391583,-0.11642 0.15875,-0.11642 0.275167,-0.39158 0.211667,-0.48684 0.381,-1.38642 0.169333,-0.91017 0.179917,-1.30175 0.02117,-0.39158 0.02117,-0.67733 0,-0.29634 -0.08467,-0.48684 -0.08467,-0.1905 -0.328084,-0.1905 -0.232833,0 -0.391583,0.14817 -0.15875,0.14817 -0.28575,0.43392 z" />
      <path
         id="path965"
         style="font-style:normal;font-variant:normal;font-weight:normal;font-stretch:normal;font-family:'Sansita One';-inkscape-font-specification:'Sansita One';text-align:center;text-anchor:middle;fill:#ffffff;stroke-width:0.26458335"
         d="m -54.462949,194.86415 q -1.280584,0 -1.280584,-0.99484 0,-0.43391 0.179917,-1.27 0.1905,-0.84666 0.254,-1.18533 0.148167,-0.77258 0.148167,-1.016 0,-0.53975 -0.402167,-0.53975 -0.264583,0 -0.518583,0.37042 -0.254,0.35983 -0.370417,1.09008 l -0.656167,3.33375 -2.06375,0.21167 0.5715,-2.87867 q 0.09525,-0.47625 0.179917,-1.016 0.08467,-0.53975 0.08467,-0.62442 0,-0.48683 -0.359833,-0.48683 -0.243417,0 -0.508,0.35983 -0.264583,0.35984 -0.41275,1.10067 l -0.645583,3.33375 -2.084917,0.21167 1.11125,-5.60917 1.725083,-0.21167 -0.179916,1.06892 q 0.275166,-0.5715 0.783166,-0.81492 0.508,-0.254 1.30175,-0.254 0.455084,0 0.751417,0.22225 0.296334,0.22225 0.391584,0.58209 0.179916,-0.37042 0.635,-0.58209 0.465666,-0.22225 1.026583,-0.22225 0.5715,0 0.846667,0.127 0.28575,0.11642 0.455083,0.3175 0.28575,0.37042 0.28575,1.04775 0,0.66675 -0.28575,2.05317 -0.148167,0.67733 -0.148167,0.93133 0,0.24342 0.137584,0.39159 0.148166,0.14816 0.359833,0.16933 -0.105833,0.35983 -0.47625,0.5715 -0.359833,0.21167 -0.836083,0.21167 z" />
      <path
         id="path967"
         style="font-style:normal;font-variant:normal;font-weight:normal;font-stretch:normal;font-family:'Sansita One';-inkscape-font-specification:'Sansita One';text-align:center;text-anchor:middle;fill:#ffffff;stroke-width:0.26458335"
         d="m -47.394604,193.93281 q -0.444501,0.4445 -1.058334,0.68792 -0.60325,0.24342 -1.2065,0.24342 -0.60325,0 -0.814917,-0.10584 l -0.328083,1.79917 -2.148417,0.21167 1.4605,-7.51417 1.725084,-0.17992 -0.137584,0.73025 q 0.4445,-0.75141 1.36525,-0.75141 1.037167,0 1.587501,0.66675 0.486833,0.60325 0.486833,1.524 0,0.92075 -0.243417,1.57691 -0.243416,0.65617 -0.687916,1.11125 z m -2.952751,0.127 q 0.22225,0.1905 0.497417,0.1905 0.275167,0 0.433917,-0.10583 0.15875,-0.10583 0.275166,-0.3175 0.3175,-0.5715 0.5715,-2.30717 0.07408,-0.508 0.07408,-1.00541 0,-0.49742 -0.116417,-0.65617 -0.105833,-0.15875 -0.3175,-0.15875 -0.645583,0 -0.85725,1.25942 z" />
      <path
         id="path969"
         style="font-style:normal;font-variant:normal;font-weight:normal;font-stretch:normal;font-family:'Sansita One';-inkscape-font-specification:'Sansita One';text-align:center;text-anchor:middle;fill:#ffffff;stroke-width:0.26458335"
         d="m -43.295877,194.0704 q -0.328084,0.79375 -1.375834,0.79375 -0.53975,0 -0.878417,-0.37042 -0.28575,-0.32808 -0.28575,-0.65617 0,-0.85725 0.391584,-2.52941 l 0.391583,-2.05317 2.148417,-0.21167 -0.645583,3.34434 q -0.179917,0.78316 -0.179917,1.05833 0,0.60325 0.433917,0.62442 z m -1.566334,-6.2865 q 0,-0.41275 0.338667,-0.635 0.34925,-0.22225 0.846667,-0.22225 0.497416,0 0.79375,0.22225 0.306916,0.22225 0.306916,0.635 0,0.41275 -0.338666,0.62441 -0.328084,0.21167 -0.8255,0.21167 -0.497417,0 -0.814917,-0.21167 -0.306917,-0.21166 -0.306917,-0.62441 z" />
      <path
         id="path971"
         style="font-style:normal;font-variant:normal;font-weight:normal;font-stretch:normal;font-family:'Sansita One';-inkscape-font-specification:'Sansita One';text-align:center;text-anchor:middle;fill:#ffffff;stroke-width:0.26458335"
         d="m -39.875148,194.0704 q -0.328084,0.79375 -1.375834,0.79375 -0.529166,0 -0.867833,-0.37042 -0.275167,-0.30692 -0.275167,-0.65617 0,-0.79375 0.370417,-2.52941 l 0.772583,-4.064 2.148417,-0.21167 -1.026583,5.35517 q -0.179917,0.78316 -0.179917,1.05833 0,0.60325 0.433917,0.62442 z" />
      <path
         id="path973"
         style="font-style:normal;font-variant:normal;font-weight:normal;font-stretch:normal;font-family:'Sansita One';-inkscape-font-specification:'Sansita One';text-align:center;text-anchor:middle;fill:#ffffff;stroke-width:0.26458335"
         d="m -34.686998,192.8639 q 0.264583,0.17991 0.264583,0.58208 0,0.39158 -0.201083,0.64558 -0.201084,0.254 -0.529167,0.42334 -0.677333,0.34925 -1.407584,0.34925 -0.73025,0 -1.164166,-0.15875 -0.423334,-0.15875 -0.709084,-0.45509 -0.560916,-0.56091 -0.560916,-1.5875 0,-1.59808 0.867833,-2.57175 0.931333,-1.04775 2.550584,-1.04775 1.005416,0 1.502833,0.42334 0.370417,0.3175 0.370417,0.83608 0,1.86267 -3.217334,1.86267 -0.04233,0.27516 -0.04233,0.508 0,0.48683 0.211666,0.67733 0.22225,0.17992 0.624417,0.17992 0.402167,0 0.8255,-0.17992 0.433917,-0.1905 0.613834,-0.48683 z m -2.159001,-1.15359 q 0.751417,0 1.185334,-0.46566 0.433917,-0.4445 0.433917,-1.15359 0,-0.24341 -0.09525,-0.37041 -0.08467,-0.13759 -0.264584,-0.13759 -0.179916,0 -0.338666,0.0741 -0.148167,0.0635 -0.306917,0.29633 -0.391584,0.52917 -0.613834,1.75683 z" />
      <path
         id="path975"
         style="font-style:normal;font-variant:normal;font-weight:normal;font-stretch:normal;font-family:'Sansita One';-inkscape-font-specification:'Sansita One';text-align:center;text-anchor:middle;fill:#ffffff;stroke-width:0.26458335"
         d="m -30.038267,191.67856 q 0.381,-0.67733 0.381,-1.36525 0,-0.45508 -0.328083,-0.45508 -0.254,0 -0.518583,0.43392 -0.275167,0.43391 -0.359834,0.99483 l -0.550333,3.3655 -2.19075,0.21167 1.0795,-5.60917 1.74625,-0.21167 -0.1905,1.06892 q 0.518583,-1.06892 1.68275,-1.06892 0.613833,0 0.941917,0.3175 0.338666,0.3175 0.338666,0.97367 0,0.64558 -0.433916,1.05833 -0.423334,0.41275 -1.153584,0.41275 -0.3175,0 -0.4445,-0.127 z" />
    </g>
  </g>
</svg>
