<?xml version="1.0" encoding="UTF-8" standalone="no"?>
<svg
   xmlns:dc="http://purl.org/dc/elements/1.1/"
   xmlns:cc="http://creativecommons.org/ns#"
   xmlns:rdf="http://www.w3.org/1999/02/22-rdf-syntax-ns#"
   xmlns:svg="http://www.w3.org/2000/svg"
   xmlns="http://www.w3.org/2000/svg"
   xmlns:xlink="http://www.w3.org/1999/xlink"
   width="211.40207mm"
   height="119.0625mm"
   viewBox="0 0 211.40207 119.0625"
   version="1.1"
   id="svg3357">
  <defs
     id="defs3351">
    <linearGradient
       id="linearGradient6114">
      <stop
         style="stop-color:#6f7c91;stop-opacity:1;"
         offset="0"
         id="stop6110" />
      <stop
         style="stop-color:#162d50;stop-opacity:1"
         offset="1"
         id="stop6112" />
    </linearGradient>
    <radialGradient
       xlink:href="#linearGradient6114"
       id="radialGradient6126"
       cx="73.77433"
       cy="66.986313"
       fx="73.77433"
       fy="66.986313"
       r="31.67275"
       gradientTransform="matrix(3.0071285,0,0,1.83657,-125.12732,-58.151445)"
       gradientUnits="userSpaceOnUse" />
    <filter
       style="color-interpolation-filters:sRGB"
       id="filter1202"
       x="-0.50937092"
       width="2.0187418"
       y="-0.52974576"
       height="2.0594914">
      <feGaussianBlur
         stdDeviation="4.8560027"
         id="feGaussianBlur1204" />
    </filter>
    <filter
       style="color-interpolation-filters:sRGB"
       id="filter1206"
       x="-0.94597453"
       width="2.8919492"
       y="-0.38848022"
       height="1.7769604">
      <feGaussianBlur
         stdDeviation="4.8560027"
         id="feGaussianBlur1208" />
    </filter>
    <filter
       style="color-interpolation-filters:sRGB"
       id="filter1210"
       x="-0.93684942"
       width="2.8736987"
       y="-0.39372995"
       height="1.7874599">
      <feGaussianBlur
         stdDeviation="4.8560027"
         id="feGaussianBlur1212" />
    </filter>
    <filter
       style="color-interpolation-filters:sRGB"
       id="filter1214"
       x="-0.8324576"
       width="2.6649151"
       y="-0.45596269"
       height="1.9119254">
      <feGaussianBlur
         stdDeviation="4.8560027"
         id="feGaussianBlur1216" />
    </filter>
    <filter
       style="color-interpolation-filters:sRGB"
       id="filter1218"
       x="-0.5456183"
       width="2.0912366"
       y="-0.52974576"
       height="2.0594914">
      <feGaussianBlur
         stdDeviation="4.8560027"
         id="feGaussianBlur1220" />
    </filter>
    <filter
       style="color-interpolation-filters:sRGB"
       id="filter1222"
       x="-0.39586979"
       width="1.7917396"
       y="-0.41802031"
       height="1.8360406">
      <feGaussianBlur
         stdDeviation="4.8560027"
         id="feGaussianBlur1224" />
    </filter>
    <filter
       style="color-interpolation-filters:sRGB"
       id="filter1226"
       x="-0.5456183"
       width="2.0912366"
       y="-0.52974576"
       height="2.0594914">
      <feGaussianBlur
         stdDeviation="4.8560027"
         id="feGaussianBlur1228" />
    </filter>
    <filter
       style="color-interpolation-filters:sRGB"
       id="filter1230"
       x="-0.8324576"
       width="2.6649151"
       y="-0.45596269"
       height="1.9119254">
      <feGaussianBlur
         stdDeviation="4.8560027"
         id="feGaussianBlur1232" />
    </filter>
    <filter
       style="color-interpolation-filters:sRGB"
       id="filter1234"
       x="-0.50937092"
       width="2.0187418"
       y="-0.52974576"
       height="2.0594914">
      <feGaussianBlur
         stdDeviation="4.8560027"
         id="feGaussianBlur1236" />
    </filter>
    <filter
       style="color-interpolation-filters:sRGB"
       id="filter1238"
       x="-0.5456183"
       width="2.0912366"
       y="-0.52974576"
       height="2.0594914">
      <feGaussianBlur
         stdDeviation="4.8560027"
         id="feGaussianBlur1240" />
    </filter>
    <filter
       style="color-interpolation-filters:sRGB"
       id="filter1242"
       x="-0.94597453"
       width="2.8919492"
       y="-0.38848022"
       height="1.7769604">
      <feGaussianBlur
         stdDeviation="4.8560027"
         id="feGaussianBlur1244" />
    </filter>
    <filter
       style="color-interpolation-filters:sRGB"
       id="filter1246"
       x="-0.8324576"
       width="2.6649151"
       y="-0.45596269"
       height="1.9119254">
      <feGaussianBlur
         stdDeviation="4.8560027"
         id="feGaussianBlur1248" />
    </filter>
    <filter
       style="color-interpolation-filters:sRGB"
       id="filter1250"
       x="-0.59340155"
       width="2.1868031"
       y="-0.52974576"
       height="2.0594914">
      <feGaussianBlur
         stdDeviation="4.8560027"
         id="feGaussianBlur1252" />
    </filter>
    <filter
       style="color-interpolation-filters:sRGB"
       id="filter1254"
       x="-0.50321269"
       width="2.0064254"
       y="-0.52974576"
       height="2.0594914">
      <feGaussianBlur
         stdDeviation="4.8560027"
         id="feGaussianBlur1256" />
    </filter>
    <filter
       style="color-interpolation-filters:sRGB"
       id="filter1258"
       x="-0.47530207"
       width="1.9506041"
       y="-0.39372995"
       height="1.7874599">
      <feGaussianBlur
         stdDeviation="4.8560027"
         id="feGaussianBlur1260" />
    </filter>
    <filter
       style="color-interpolation-filters:sRGB"
       id="filter1262"
       x="-0.5456183"
       width="2.0912366"
       y="-0.52974576"
       height="2.0594914">
      <feGaussianBlur
         stdDeviation="4.8560027"
         id="feGaussianBlur1264" />
    </filter>
    <filter
       style="color-interpolation-filters:sRGB"
       id="filter1266"
       x="-0.55077535"
       width="2.1015508"
       y="-0.52974576"
       height="2.0594914">
      <feGaussianBlur
         stdDeviation="4.8560027"
         id="feGaussianBlur1268" />
    </filter>
    <filter
       style="color-interpolation-filters:sRGB"
       id="filter1270"
       x="-0.8324576"
       width="2.6649151"
       y="-0.45596269"
       height="1.9119254">
      <feGaussianBlur
         stdDeviation="4.8560027"
         id="feGaussianBlur1272" />
    </filter>
    <filter
       style="color-interpolation-filters:sRGB"
       id="filter1274"
       x="-0.50937092"
       width="2.0187418"
       y="-0.52974576"
       height="2.0594914">
      <feGaussianBlur
         stdDeviation="4.8560027"
         id="feGaussianBlur1276" />
    </filter>
    <filter
       style="color-interpolation-filters:sRGB"
       id="filter1278"
       x="-0.83965462"
       width="2.6793094"
       y="-0.4414548"
       height="1.8829097">
      <feGaussianBlur
         stdDeviation="4.8560027"
         id="feGaussianBlur1280" />
    </filter>
  </defs>
  <metadata
     id="metadata3354">
    <rdf:RDF>
      <cc:Work
         rdf:about="">
        <dc:format>image/svg+xml</dc:format>
        <dc:type
           rdf:resource="http://purl.org/dc/dcmitype/StillImage" />
        <dc:title></dc:title>
      </cc:Work>
    </rdf:RDF>
  </metadata>
  <path
     style="opacity:1;fill:#ff9900;fill-opacity:1;stroke:none;stroke-width:4.38045835;stroke-miterlimit:4;stroke-dasharray:none;paint-order:stroke markers fill"
     d="M 0,0 H 211.40207 V 119.0625 H 0 Z"
     id="rect6108" />
  <g
     transform="matrix(1.1097917,0,0,1.0234149,-1.6397721,-6.8613634)"
     style="font-style:normal;font-weight:normal;font-size:40px;line-height:1.25;font-family:sans-serif;letter-spacing:0px;word-spacing:0px;fill:#000000;fill-opacity:1;stroke:none"
     id="flowRoot874" />
  <g
     transform="translate(-1.4775493,-3.9803138)"
     style="font-style:normal;font-weight:normal;font-size:40px;line-height:1.25;font-family:sans-serif;letter-spacing:0px;word-spacing:0px;fill:#000000;fill-opacity:1;stroke:none"
     id="flowRoot1087" />
  <path
     style="opacity:1;fill:#373e48;fill-opacity:1;stroke:none;stroke-width:0.8369382;stroke-linecap:round;stroke-linejoin:round;stroke-miterlimit:4;stroke-dasharray:none;stroke-opacity:1;paint-order:stroke markers fill"
     d="m 26.639165,34.32169 h 50.786184 c 1.081424,0 1.952029,0.870605 1.952029,1.952029 V 83.36966 c 0,1.081424 -0.870605,1.95203 -1.952029,1.95203 H 26.639165 c -1.081424,0 -1.952029,-0.870606 -1.952029,-1.95203 V 36.273719 c 0,-1.081424 0.870605,-1.952029 1.952029,-1.952029 z"
     id="rect815" />
  <g
     id="text1353"
     style="font-style:normal;font-weight:normal;font-size:32.36412048px;line-height:1.25;font-family:sans-serif;letter-spacing:0px;word-spacing:0px;fill:#ffffff;fill-opacity:1;stroke:none;stroke-width:0.80910301"
     transform="scale(1.1313787,0.88387734)"
     aria-label="K">
    <path
       id="path917"
       style="font-style:normal;font-variant:normal;font-weight:normal;font-stretch:normal;font-family:'Sansita One';-inkscape-font-specification:'Sansita One';fill:#ffffff;stroke-width:0.80910301"
       d="m 34.080133,76.626953 3.68951,-19.677385 0.356005,-1.682934 H 45.05157 L 40.973691,76.626953 Z M 54.113524,74.71747 q -0.873831,2.556766 -4.2397,2.556766 -2.492037,0 -4.207336,-2.9775 -1.747662,-2.977499 -2.071303,-7.832117 3.560053,-6.505188 6.019726,-9.19141 2.362581,-2.556765 4.822254,-2.556765 1.326929,0 2.265489,0.71201 0.970923,0.712011 1.197472,1.844755 -1.10038,0.453098 -1.618206,0.809103 -1.294565,0.970924 -3.042227,3.13932 l -2.945135,3.527689 q -0.712011,0.841467 -1.003288,1.229836 0.485462,2.718587 1.941847,5.404809 1.391657,2.556765 2.880407,3.333504 z" />
  </g>
  <path
     style="opacity:1;fill:#666666;fill-opacity:1;stroke:none;stroke-width:0.74336612;stroke-linecap:round;stroke-linejoin:round;stroke-miterlimit:4;stroke-dasharray:none;stroke-opacity:1;paint-order:stroke markers fill"
     d="m 26.185117,34.32169 h 51.647668 c 0.855745,0 1.544666,0.688921 1.544666,1.544665 v 8.319077 c 0,0.855745 -0.688921,1.544666 -1.544666,1.544666 H 26.185117 c -0.855745,0 -1.544666,-0.688921 -1.544666,-1.544666 v -8.319077 c 0,-0.855744 0.688921,-1.544665 1.544666,-1.544665 z"
     id="rect918" />
  <path
     style="opacity:1;fill:#ffffff;fill-opacity:1;stroke:none;stroke-width:0.73087931;stroke-linecap:round;stroke-linejoin:round;stroke-miterlimit:4;stroke-dasharray:none;stroke-opacity:1;paint-order:stroke markers fill"
     d="m 40.753636,38.702583 h 22.557232 c 0.855744,0 1.544664,0.68892 1.544664,1.544664 0,0.855743 -0.68892,1.544663 -1.544664,1.544663 H 40.753636 c -0.855743,0 -1.544663,-0.68892 -1.544663,-1.544663 0,-0.855744 0.68892,-1.544664 1.544663,-1.544664 z"
     id="rect817" />
  <path
     style="opacity:1;fill:#aa4400;fill-opacity:1;stroke:none;stroke-width:0.7427516;stroke-linecap:round;stroke-linejoin:round;stroke-miterlimit:4;stroke-dasharray:none;stroke-opacity:1;paint-order:stroke markers fill"
     d="m 32.821588,70.107803 h 38.42133 c 0.557635,0 1.006561,0.448927 1.006561,1.006562 v 0.930597 c 0,0.557634 -0.448926,1.006561 -1.006561,1.006561 h -38.42133 c -0.557634,0 -1.006561,-0.448927 -1.006561,-1.006561 v -0.930597 c 0,-0.557635 0.448927,-1.006562 1.006561,-1.006562 z"
     id="rect914" />
  <path
     style="opacity:1;fill:#aa4400;fill-opacity:1;stroke:none;stroke-width:0.7427516;stroke-linecap:round;stroke-linejoin:round;stroke-miterlimit:4;stroke-dasharray:none;stroke-opacity:1;paint-order:stroke markers fill"
     d="m 32.821588,75.829414 h 38.42133 c 0.557635,0 1.006561,0.448927 1.006561,1.006562 v 0.930597 c 0,0.557634 -0.448926,1.006561 -1.006561,1.006561 h -38.42133 c -0.557634,0 -1.006561,-0.448927 -1.006561,-1.006561 v -0.930597 c 0,-0.557635 0.448927,-1.006562 1.006561,-1.006562 z"
     id="rect916" />
  <g
     id="flowRoot82"
     style="font-style:normal;font-weight:normal;font-size:40px;line-height:1.25;font-family:sans-serif;letter-spacing:0px;word-spacing:0px;fill:#ffffff;fill-opacity:1;stroke:none"
     transform="matrix(0.46737683,0,0,0.49094375,282.78016,-57.800703)"
     aria-label="Introduction
to 
Kotlin">
    <path
       id="path94"
       style="font-style:italic;font-variant:normal;font-weight:500;font-stretch:normal;font-family:Ubuntu;-inkscape-font-specification:'Ubuntu Medium Italic';text-align:center;text-anchor:middle;fill:#ffffff"
       d="m -420.91187,169.94297 h 5.04 l -6.64,27.72 h -5.04 z" />
    <path
       id="path96"
       style="font-style:italic;font-variant:normal;font-weight:500;font-stretch:normal;font-family:Ubuntu;-inkscape-font-specification:'Ubuntu Medium Italic';text-align:center;text-anchor:middle;fill:#ffffff"
       d="m -411.54562,177.62297 q 1.6,-0.48 3.64,-0.88 2.08,-0.44 4.52,-0.44 3.68,0 5.39999,1.8 1.72001,1.8 1.72001,4.84 0,0.84 -0.16,1.8 -0.12,0.92 -0.32001,1.92 l -2.63999,11 h -4.84 l 2.47999,-10.48 q 0.20001,-0.88 0.40001,-1.8 0.2,-0.92 0.24,-1.76 0.04,-1.4 -0.68,-2.32 -0.68,-0.92 -2.72,-0.92 -1.72,0 -2.96,0.36 l -4.04,16.92 h -4.84 z" />
    <path
       id="path98"
       style="font-style:italic;font-variant:normal;font-weight:500;font-stretch:normal;font-family:Ubuntu;-inkscape-font-specification:'Ubuntu Medium Italic';text-align:center;text-anchor:middle;fill:#ffffff"
       d="m -388.04562,171.22297 5.04,-0.8 -1.52,6.32 h 6.83999 l -0.95999,4 h -6.84001 l -2,8.28 q -0.2,0.88 -0.27999,1.48 -0.08,0.56 -0.08,1.04 0,0.48 0.08,0.96 0.12,0.44 0.39999,0.8 0.32001,0.32 0.88,0.56 0.60001,0.2 1.60001,0.2 1.07999,0 2.07999,-0.28 1,-0.28 1.76001,-0.6 l 0.35999,3.88 q -0.91999,0.4 -2.31999,0.76 -1.4,0.36 -3.28,0.36 -3.44,0 -4.92,-1.48 -1.48001,-1.52 -1.48001,-4.12 0,-0.96 0.12001,-1.96 0.16,-1.04 0.43999,-2.2 z" />
    <path
       id="path100"
       style="font-style:italic;font-variant:normal;font-weight:500;font-stretch:normal;font-family:Ubuntu;-inkscape-font-specification:'Ubuntu Medium Italic';text-align:center;text-anchor:middle;fill:#ffffff"
       d="m -362.35,181.02297 q -0.8,-0.28 -1.72,-0.44 -0.92,-0.16 -2.16,-0.16 -0.68,0 -1.44,0.12 -0.76,0.08 -1.28,0.24 l -4.04,16.88 h -4.84 l 4.8,-19.96 q 1.68,-0.56 3.64,-0.96 1.96,-0.44 4.24,-0.44 0.48,0 1.08,0.08 0.6,0.04 1.16,0.12 0.6,0.08 1.08,0.2 0.52,0.12 0.88,0.28 z" />
    <path
       id="path102"
       style="font-style:italic;font-variant:normal;font-weight:500;font-stretch:normal;font-family:Ubuntu;-inkscape-font-specification:'Ubuntu Medium Italic';text-align:center;text-anchor:middle;fill:#ffffff"
       d="m -353.2925,198.22297 q -3.72,0 -5.68,-2.2 -1.96,-2.2 -1.96,-5.8 0,-2.32 0.72,-4.8 0.72,-2.48 2.2,-4.52 1.48,-2.04 3.72,-3.36 2.24,-1.32 5.28,-1.32 3.72,0 5.68,2.2 1.96,2.16 1.96,5.76 0,2.36 -0.72,4.84 -0.68,2.48 -2.16,4.52 -1.44,2.04 -3.72,3.36 -2.24,1.32 -5.32,1.32 z m 3.68,-17.92 q -1.56,0 -2.8,0.92 -1.2,0.88 -2.04,2.28 -0.8,1.4 -1.24,3.08 -0.44,1.64 -0.44,3.2 0,2 0.76,3.16 0.76,1.16 2.68,1.16 1.56,0 2.76,-0.88 1.24,-0.92 2.04,-2.28 0.84,-1.4 1.28,-3.08 0.44,-1.68 0.44,-3.2 0,-2 -0.76,-3.16 -0.76,-1.2 -2.68,-1.2 z" />
    <path
       id="path104"
       style="font-style:italic;font-variant:normal;font-weight:500;font-stretch:normal;font-family:Ubuntu;-inkscape-font-specification:'Ubuntu Medium Italic';text-align:center;text-anchor:middle;fill:#ffffff"
       d="m -331.3925,198.22297 q -1.88,0 -3.24,-0.6 -1.36,-0.64 -2.24,-1.72 -0.84,-1.08 -1.24,-2.56 -0.4,-1.48 -0.4,-3.2 0,-2.68 0.92,-5.16 0.96,-2.52 2.68,-4.4 1.76,-1.92 4.28,-3.04 2.52,-1.16 5.72,-1.16 0.4,0 0.96,0.04 0.56,0.04 1.24,0.2 l 2.2,-9.2 5.04,-0.8 -5.48,22.68 q -0.2,0.92 -0.32,1.88 -0.08,0.92 -0.08,1.76 0,1.08 0.2,2.16 0.2,1.08 0.64,2.24 l -4.32,0.64 q -0.44,-0.84 -0.76,-2.04 -1,0.88 -2.44,1.6 -1.44,0.68 -3.36,0.68 z m 7.72,-17.68 q -0.76,-0.16 -1.84,-0.16 -1.84,0 -3.36,0.8 -1.52,0.76 -2.6,2.08 -1.08,1.28 -1.68,2.96 -0.56,1.68 -0.56,3.48 0,0.92 0.16,1.72 0.2,0.8 0.6,1.4 0.4,0.6 1.04,0.96 0.68,0.36 1.64,0.36 1.28,0 2.24,-0.52 1,-0.52 1.88,-1.44 0.04,-0.84 0.16,-1.76 0.16,-0.92 0.36,-1.8 z" />
    <path
       id="path106"
       style="font-style:italic;font-variant:normal;font-weight:500;font-stretch:normal;font-family:Ubuntu;-inkscape-font-specification:'Ubuntu Medium Italic';text-align:center;text-anchor:middle;fill:#ffffff"
       d="m -295.10187,176.74297 -2.96,12.44 q -0.2,0.92 -0.32,1.84 -0.08,0.92 -0.08,1.84 0,1.16 0.16001,2.28 0.2,1.12 0.64,2.2 l -4.32,0.64 q -0.24,-0.44 -0.44,-0.96 -0.16001,-0.56 -0.32,-1.12 -1,0.8 -2.48,1.56 -1.48,0.72 -3.44,0.72 -1.76,0 -3,-0.52 -1.24001,-0.52 -2.04,-1.4 -0.76001,-0.92 -1.12,-2.12 -0.32001,-1.24 -0.32001,-2.6 0,-1.76 0.48001,-3.8 l 2.63999,-11 h 4.84001 l -2.60001,10.88 q -0.51999,2.08 -0.51999,3.4 0,0.64 0.12,1.2 0.12,0.56 0.39999,1 0.32,0.4 0.84001,0.64 0.56,0.24 1.35999,0.24 1.32001,0 2.36001,-0.52 1.04,-0.56 1.92,-1.48 0.12,-1.72 0.56,-3.52 l 2.8,-11.84 z" />
    <path
       id="path108"
       style="font-style:italic;font-variant:normal;font-weight:500;font-stretch:normal;font-family:Ubuntu;-inkscape-font-specification:'Ubuntu Medium Italic';text-align:center;text-anchor:middle;fill:#ffffff"
       d="m -292.88562,189.74297 q 0,-2.72 0.84,-5.16 0.88,-2.48 2.48,-4.32 1.6,-1.88 3.92,-2.96 2.32,-1.08 5.27999,-1.08 1.56,0 2.84001,0.28 1.32,0.24 2.48,0.76 l -1.72,3.88 q -0.72001,-0.32 -1.60001,-0.56 -0.88,-0.24 -2.15999,-0.24 -1.72001,0 -3.12,0.72 -1.36,0.68 -2.32,1.88 -0.96001,1.2 -1.48,2.84 -0.52,1.64 -0.52,3.48 0,1.04 0.2,1.92 0.24,0.84 0.72,1.52 0.52,0.64 1.4,1 0.88,0.36 2.2,0.36 1.36,0 2.6,-0.36 1.28,-0.36 1.96,-0.72 l 0.39999,3.96 q -0.91999,0.44 -2.44,0.84 -1.51999,0.44 -3.44,0.44 -2.19999,0 -3.79999,-0.64 -1.6,-0.68 -2.68,-1.8 -1.04,-1.16 -1.56,-2.68 -0.48,-1.56 -0.48,-3.36 z" />
    <path
       id="path110"
       style="font-style:italic;font-variant:normal;font-weight:500;font-stretch:normal;font-family:Ubuntu;-inkscape-font-specification:'Ubuntu Medium Italic';text-align:center;text-anchor:middle;fill:#ffffff"
       d="m -269.68625,171.22297 5.04,-0.8 -1.52,6.32 h 6.84 l -0.96,4 h -6.84 l -2,8.28 q -0.2,0.88 -0.28,1.48 -0.08,0.56 -0.08,1.04 0,0.48 0.08,0.96 0.12,0.44 0.4,0.8 0.32,0.32 0.88,0.56 0.6,0.2 1.6,0.2 1.08,0 2.08,-0.28 1,-0.28 1.76,-0.6 l 0.36,3.88 q -0.92,0.4 -2.32,0.76 -1.4,0.36 -3.28,0.36 -3.44,0 -4.92,-1.48 -1.48,-1.52 -1.48,-4.12 0,-0.96 0.12,-1.96 0.16,-1.04 0.44,-2.2 z" />
    <path
       id="path112"
       style="font-style:italic;font-variant:normal;font-weight:500;font-stretch:normal;font-family:Ubuntu;-inkscape-font-specification:'Ubuntu Medium Italic';text-align:center;text-anchor:middle;fill:#ffffff"
       d="m -254.67062,197.66297 h -4.8 l 5,-20.92 h 4.84 z m 3.6,-24.08 q -1.08,0 -1.88,-0.64 -0.80001,-0.64 -0.80001,-1.92 0,-1.48 1,-2.44 1.04001,-0.96 2.36001,-0.96 1.08,0 1.88,0.68 0.84,0.64 0.84,1.92 0,1.48 -1.04,2.44 -1.04001,0.92 -2.36,0.92 z" />
    <path
       id="path114"
       style="font-style:italic;font-variant:normal;font-weight:500;font-stretch:normal;font-family:Ubuntu;-inkscape-font-specification:'Ubuntu Medium Italic';text-align:center;text-anchor:middle;fill:#ffffff"
       d="m -240.01125,198.22297 q -3.72,0 -5.68,-2.2 -1.96,-2.2 -1.96,-5.8 0,-2.32 0.72,-4.8 0.72,-2.48 2.2,-4.52 1.48,-2.04 3.72,-3.36 2.24,-1.32 5.28,-1.32 3.72,0 5.68,2.2 1.96,2.16 1.96,5.76 0,2.36 -0.72,4.84 -0.68,2.48 -2.16,4.52 -1.44,2.04 -3.72,3.36 -2.24,1.32 -5.32,1.32 z m 3.68,-17.92 q -1.56,0 -2.8,0.92 -1.2,0.88 -2.04,2.28 -0.8,1.4 -1.24,3.08 -0.44,1.64 -0.44,3.2 0,2 0.76,3.16 0.76,1.16 2.68,1.16 1.56,0 2.76,-0.88 1.24,-0.92 2.04,-2.28 0.84,-1.4 1.28,-3.08 0.44,-1.68 0.44,-3.2 0,-2 -0.76,-3.16 -0.76,-1.2 -2.68,-1.2 z" />
    <path
       id="path116"
       style="font-style:italic;font-variant:normal;font-weight:500;font-stretch:normal;font-family:Ubuntu;-inkscape-font-specification:'Ubuntu Medium Italic';text-align:center;text-anchor:middle;fill:#ffffff"
       d="m -221.31125,177.62297 q 1.6,-0.48 3.64,-0.88 2.08,-0.44 4.52,-0.44 3.68,0 5.4,1.8 1.72,1.8 1.72,4.84 0,0.84 -0.16,1.8 -0.12,0.92 -0.32,1.92 l -2.64,11 h -4.84 l 2.48,-10.48 q 0.2,-0.88 0.4,-1.8 0.2,-0.92 0.24,-1.76 0.04,-1.4 -0.68,-2.32 -0.68,-0.92 -2.72,-0.92 -1.72,0 -2.96,0.36 l -4.04,16.92 h -4.84 z" />
    <path
       id="path118"
       style="font-style:italic;font-variant:normal;font-weight:500;font-stretch:normal;font-family:Ubuntu;-inkscape-font-specification:'Ubuntu Medium Italic';text-align:center;text-anchor:middle;fill:#ffffff"
       d="m -329.13937,223.13203 5.04,-0.8 -1.52,6.32 h 6.83999 l -0.95999,4 h -6.84001 l -2,8.28 q -0.2,0.88 -0.27999,1.48 -0.08,0.56 -0.08,1.04 0,0.48 0.08,0.96 0.12,0.44 0.39999,0.8 0.32001,0.32 0.88,0.56 0.60001,0.2 1.60001,0.2 1.07999,0 2.07999,-0.28 1,-0.28 1.76001,-0.6 l 0.35999,3.88 q -0.91999,0.4 -2.31999,0.76 -1.4,0.36 -3.28,0.36 -3.44,0 -4.92,-1.48 -1.48001,-1.52 -1.48001,-4.12 0,-0.96 0.12001,-1.96 0.16,-1.04 0.43999,-2.2 z" />
    <path
       id="path120"
       style="font-style:italic;font-variant:normal;font-weight:500;font-stretch:normal;font-family:Ubuntu;-inkscape-font-specification:'Ubuntu Medium Italic';text-align:center;text-anchor:middle;fill:#ffffff"
       d="m -310.32375,250.13203 q -3.72,0 -5.68,-2.2 -1.96,-2.2 -1.96,-5.8 0,-2.32 0.72,-4.8 0.72,-2.48 2.2,-4.52 1.48,-2.04 3.72,-3.36 2.24,-1.32 5.28,-1.32 3.72,0 5.68,2.2 1.96,2.16 1.96,5.76 0,2.36 -0.72,4.84 -0.68,2.48 -2.16,4.52 -1.44,2.04 -3.72,3.36 -2.24,1.32 -5.32,1.32 z m 3.68,-17.92 q -1.56,0 -2.8,0.92 -1.2,0.88 -2.04,2.28 -0.8,1.4 -1.24,3.08 -0.44,1.64 -0.44,3.2 0,2 0.76,3.16 0.76,1.16 2.68,1.16 1.56,0 2.76,-0.88 1.24,-0.92 2.04,-2.28 0.84,-1.4 1.28,-3.08 0.44,-1.68 0.44,-3.2 0,-2 -0.76,-3.16 -0.76,-1.2 -2.68,-1.2 z" />
    <path
       id="path122"
       style="font-style:italic;font-variant:normal;font-weight:500;font-stretch:normal;font-family:Ubuntu;-inkscape-font-specification:'Ubuntu Medium Italic';text-align:center;text-anchor:middle;fill:#ffffff"
       d="m -352.74781,301.48108 q -0.8,-1.6 -1.8,-3.32 -0.96,-1.76 -2.08,-3.4 -1.08,-1.68 -2.32,-3.16 -1.2,-1.48 -2.4,-2.6 l -3,12.48 h -5.04 l 6.64,-27.72 h 5.04 l -2.68,11.08 q 1.64,-1.32 3.4,-2.8 1.76,-1.48 3.44,-2.96 1.68,-1.48 3.16,-2.84 1.52,-1.36 2.68,-2.48 h 6.12 q -1.64,1.52 -3.52,3.2 -1.84,1.68 -3.8,3.44 -1.92,1.72 -3.92,3.44 -1.96,1.68 -3.88,3.2 1.24,1.28 2.56,2.92 1.32,1.64 2.56,3.52 1.24,1.88 2.36,3.92 1.12,2.04 2.04,4.08 z" />
    <path
       id="path124"
       style="font-style:italic;font-variant:normal;font-weight:500;font-stretch:normal;font-family:Ubuntu;-inkscape-font-specification:'Ubuntu Medium Italic';text-align:center;text-anchor:middle;fill:#ffffff"
       d="m -337.00344,302.04108 q -3.72,0 -5.68,-2.2 -1.96,-2.2 -1.96,-5.8 0,-2.32 0.72,-4.8 0.72,-2.48 2.2,-4.52 1.48,-2.04 3.72,-3.36 2.24,-1.32 5.28,-1.32 3.72,0 5.68,2.2 1.96,2.16 1.96,5.76 0,2.36 -0.72,4.84 -0.68,2.48 -2.16,4.52 -1.44,2.04 -3.72,3.36 -2.24,1.32 -5.32,1.32 z m 3.68,-17.92 q -1.56,0 -2.8,0.92 -1.2,0.88 -2.04,2.28 -0.8,1.4 -1.24,3.08 -0.44,1.64 -0.44,3.2 0,2 0.76,3.16 0.76,1.16 2.68,1.16 1.56,0 2.76,-0.88 1.24,-0.92 2.04,-2.28 0.84,-1.4 1.28,-3.08 0.44,-1.68 0.44,-3.2 0,-2 -0.76,-3.16 -0.76,-1.2 -2.68,-1.2 z" />
    <path
       id="path126"
       style="font-style:italic;font-variant:normal;font-weight:500;font-stretch:normal;font-family:Ubuntu;-inkscape-font-specification:'Ubuntu Medium Italic';text-align:center;text-anchor:middle;fill:#ffffff"
       d="m -317.30344,275.04108 5.04,-0.8 -1.52,6.32 h 6.84 l -0.96,4 h -6.84 l -2,8.28 q -0.2,0.88 -0.28,1.48 -0.08,0.56 -0.08,1.04 0,0.48 0.08,0.96 0.12,0.44 0.4,0.8 0.32,0.32 0.88,0.56 0.6,0.2 1.6,0.2 1.08,0 2.08,-0.28 1,-0.28 1.76,-0.6 l 0.36,3.88 q -0.92,0.4 -2.32,0.76 -1.4,0.36 -3.28,0.36 -3.44,0 -4.92,-1.48 -1.48,-1.52 -1.48,-4.12 0,-0.96 0.12,-1.96 0.16,-1.04 0.44,-2.2 z" />
    <path
       id="path128"
       style="font-style:italic;font-variant:normal;font-weight:500;font-stretch:normal;font-family:Ubuntu;-inkscape-font-specification:'Ubuntu Medium Italic';text-align:center;text-anchor:middle;fill:#ffffff"
       d="m -299.08781,301.88108 q -1.88,-0.04 -3.2,-0.48 -1.28,-0.44 -2.08,-1.2 -0.76,-0.76 -1.12,-1.8 -0.32,-1.04 -0.32,-2.28 0,-1.28 0.28,-2.68 0.32,-1.44 0.68,-2.84 l 4.64,-19.36 5.04,-0.8 q -1.24,5.24 -2.48,10.44 -1.24,5.16 -2.52,10.4 -0.2,0.84 -0.44,1.68 -0.24,0.8 -0.24,1.6 0,0.68 0,1.28 0.04,0.56 0.32,1 0.32,0.4 0.92,0.68 0.6,0.28 1.56,0.36 z" />
    <path
       id="path130"
       style="font-style:italic;font-variant:normal;font-weight:500;font-stretch:normal;font-family:Ubuntu;-inkscape-font-specification:'Ubuntu Medium Italic';text-align:center;text-anchor:middle;fill:#ffffff"
       d="m -290.33469,301.48108 h -4.8 l 5,-20.92 h 4.84 z m 3.6,-24.08 q -1.08,0 -1.88,-0.64 -0.8,-0.64 -0.8,-1.92 0,-1.48 1,-2.44 1.04,-0.96 2.36,-0.96 1.08,0 1.88,0.68 0.84,0.64 0.84,1.92 0,1.48 -1.04,2.44 -1.04,0.92 -2.36,0.92 z" />
    <path
       id="path132"
       style="font-style:italic;font-variant:normal;font-weight:500;font-stretch:normal;font-family:Ubuntu;-inkscape-font-specification:'Ubuntu Medium Italic';text-align:center;text-anchor:middle;fill:#ffffff"
       d="m -279.47531,281.44108 q 1.6,-0.48 3.64,-0.88 2.08,-0.44 4.52,-0.44 3.68,0 5.4,1.8 1.72,1.8 1.72,4.84 0,0.84 -0.16,1.8 -0.12,0.92 -0.32,1.92 l -2.64,11 h -4.84 l 2.48,-10.48 q 0.2,-0.88 0.4,-1.8 0.2,-0.92 0.24,-1.76 0.04,-1.4 -0.68,-2.32 -0.68,-0.92 -2.72,-0.92 -1.72,0 -2.96,0.36 l -4.04,16.92 h -4.84 z" />
  </g>
</svg>
