<?xml version="1.0" encoding="UTF-8" standalone="no"?>
<svg
   xmlns:dc="http://purl.org/dc/elements/1.1/"
   xmlns:cc="http://creativecommons.org/ns#"
   xmlns:rdf="http://www.w3.org/1999/02/22-rdf-syntax-ns#"
   xmlns:svg="http://www.w3.org/2000/svg"
   xmlns="http://www.w3.org/2000/svg"
   xmlns:xlink="http://www.w3.org/1999/xlink"
   width="211.40207mm"
   height="119.0625mm"
   viewBox="0 0 211.40207 119.0625"
   version="1.1"
   id="svg3357">
  <defs
     id="defs3351">
    <linearGradient
       id="linearGradient6114">
      <stop
         style="stop-color:#6f7c91;stop-opacity:1;"
         offset="0"
         id="stop6110" />
      <stop
         style="stop-color:#162d50;stop-opacity:1"
         offset="1"
         id="stop6112" />
    </linearGradient>
    <radialGradient
       xlink:href="#linearGradient6114"
       id="radialGradient6126"
       cx="73.77433"
       cy="66.986313"
       fx="73.77433"
       fy="66.986313"
       r="31.67275"
       gradientTransform="matrix(3.0071285,0,0,1.83657,-125.12732,-58.151445)"
       gradientUnits="userSpaceOnUse" />
    <filter
       style="color-interpolation-filters:sRGB"
       id="filter1202"
       x="-0.50937092"
       width="2.0187418"
       y="-0.52974576"
       height="2.0594914">
      <feGaussianBlur
         stdDeviation="4.8560027"
         id="feGaussianBlur1204" />
    </filter>
    <filter
       style="color-interpolation-filters:sRGB"
       id="filter1206"
       x="-0.94597453"
       width="2.8919492"
       y="-0.38848022"
       height="1.7769604">
      <feGaussianBlur
         stdDeviation="4.8560027"
         id="feGaussianBlur1208" />
    </filter>
    <filter
       style="color-interpolation-filters:sRGB"
       id="filter1210"
       x="-0.93684942"
       width="2.8736987"
       y="-0.39372995"
       height="1.7874599">
      <feGaussianBlur
         stdDeviation="4.8560027"
         id="feGaussianBlur1212" />
    </filter>
    <filter
       style="color-interpolation-filters:sRGB"
       id="filter1214"
       x="-0.8324576"
       width="2.6649151"
       y="-0.45596269"
       height="1.9119254">
      <feGaussianBlur
         stdDeviation="4.8560027"
         id="feGaussianBlur1216" />
    </filter>
    <filter
       style="color-interpolation-filters:sRGB"
       id="filter1218"
       x="-0.5456183"
       width="2.0912366"
       y="-0.52974576"
       height="2.0594914">
      <feGaussianBlur
         stdDeviation="4.8560027"
         id="feGaussianBlur1220" />
    </filter>
    <filter
       style="color-interpolation-filters:sRGB"
       id="filter1222"
       x="-0.39586979"
       width="1.7917396"
       y="-0.41802031"
       height="1.8360406">
      <feGaussianBlur
         stdDeviation="4.8560027"
         id="feGaussianBlur1224" />
    </filter>
    <filter
       style="color-interpolation-filters:sRGB"
       id="filter1226"
       x="-0.5456183"
       width="2.0912366"
       y="-0.52974576"
       height="2.0594914">
      <feGaussianBlur
         stdDeviation="4.8560027"
         id="feGaussianBlur1228" />
    </filter>
    <filter
       style="color-interpolation-filters:sRGB"
       id="filter1230"
       x="-0.8324576"
       width="2.6649151"
       y="-0.45596269"
       height="1.9119254">
      <feGaussianBlur
         stdDeviation="4.8560027"
         id="feGaussianBlur1232" />
    </filter>
    <filter
       style="color-interpolation-filters:sRGB"
       id="filter1234"
       x="-0.50937092"
       width="2.0187418"
       y="-0.52974576"
       height="2.0594914">
      <feGaussianBlur
         stdDeviation="4.8560027"
         id="feGaussianBlur1236" />
    </filter>
    <filter
       style="color-interpolation-filters:sRGB"
       id="filter1238"
       x="-0.5456183"
       width="2.0912366"
       y="-0.52974576"
       height="2.0594914">
      <feGaussianBlur
         stdDeviation="4.8560027"
         id="feGaussianBlur1240" />
    </filter>
    <filter
       style="color-interpolation-filters:sRGB"
       id="filter1242"
       x="-0.94597453"
       width="2.8919492"
       y="-0.38848022"
       height="1.7769604">
      <feGaussianBlur
         stdDeviation="4.8560027"
         id="feGaussianBlur1244" />
    </filter>
    <filter
       style="color-interpolation-filters:sRGB"
       id="filter1246"
       x="-0.8324576"
       width="2.6649151"
       y="-0.45596269"
       height="1.9119254">
      <feGaussianBlur
         stdDeviation="4.8560027"
         id="feGaussianBlur1248" />
    </filter>
    <filter
       style="color-interpolation-filters:sRGB"
       id="filter1250"
       x="-0.59340155"
       width="2.1868031"
       y="-0.52974576"
       height="2.0594914">
      <feGaussianBlur
         stdDeviation="4.8560027"
         id="feGaussianBlur1252" />
    </filter>
    <filter
       style="color-interpolation-filters:sRGB"
       id="filter1254"
       x="-0.50321269"
       width="2.0064254"
       y="-0.52974576"
       height="2.0594914">
      <feGaussianBlur
         stdDeviation="4.8560027"
         id="feGaussianBlur1256" />
    </filter>
    <filter
       style="color-interpolation-filters:sRGB"
       id="filter1258"
       x="-0.47530207"
       width="1.9506041"
       y="-0.39372995"
       height="1.7874599">
      <feGaussianBlur
         stdDeviation="4.8560027"
         id="feGaussianBlur1260" />
    </filter>
    <filter
       style="color-interpolation-filters:sRGB"
       id="filter1262"
       x="-0.5456183"
       width="2.0912366"
       y="-0.52974576"
       height="2.0594914">
      <feGaussianBlur
         stdDeviation="4.8560027"
         id="feGaussianBlur1264" />
    </filter>
    <filter
       style="color-interpolation-filters:sRGB"
       id="filter1266"
       x="-0.55077535"
       width="2.1015508"
       y="-0.52974576"
       height="2.0594914">
      <feGaussianBlur
         stdDeviation="4.8560027"
         id="feGaussianBlur1268" />
    </filter>
    <filter
       style="color-interpolation-filters:sRGB"
       id="filter1270"
       x="-0.8324576"
       width="2.6649151"
       y="-0.45596269"
       height="1.9119254">
      <feGaussianBlur
         stdDeviation="4.8560027"
         id="feGaussianBlur1272" />
    </filter>
    <filter
       style="color-interpolation-filters:sRGB"
       id="filter1274"
       x="-0.50937092"
       width="2.0187418"
       y="-0.52974576"
       height="2.0594914">
      <feGaussianBlur
         stdDeviation="4.8560027"
         id="feGaussianBlur1276" />
    </filter>
    <filter
       style="color-interpolation-filters:sRGB"
       id="filter1278"
       x="-0.83965462"
       width="2.6793094"
       y="-0.4414548"
       height="1.8829097">
      <feGaussianBlur
         stdDeviation="4.8560027"
         id="feGaussianBlur1280" />
    </filter>
  </defs>
  <metadata
     id="metadata3354">
    <rdf:RDF>
      <cc:Work
         rdf:about="">
        <dc:format>image/svg+xml</dc:format>
        <dc:type
           rdf:resource="http://purl.org/dc/dcmitype/StillImage" />
        <dc:title></dc:title>
      </cc:Work>
    </rdf:RDF>
  </metadata>
  <g
     id="g979">
    <path
       id="rect6108"
       d="M 0,0 H 211.40207 V 119.0625 H 0 Z"
       style="opacity:1;fill:#ff9900;fill-opacity:1;stroke:none;stroke-width:4.38045835;stroke-miterlimit:4;stroke-dasharray:none;paint-order:stroke markers fill" />
    <g
       id="flowRoot874"
       style="font-style:normal;font-weight:normal;font-size:40px;line-height:1.25;font-family:sans-serif;letter-spacing:0px;word-spacing:0px;fill:#000000;fill-opacity:1;stroke:none"
       transform="matrix(1.1097917,0,0,1.0234149,-1.6397721,-6.8613634)" />
    <g
       id="flowRoot1087"
       style="font-style:normal;font-weight:normal;font-size:40px;line-height:1.25;font-family:sans-serif;letter-spacing:0px;word-spacing:0px;fill:#000000;fill-opacity:1;stroke:none"
       transform="translate(-1.4775493,-3.9803138)" />
    <path
       id="rect815"
       d="m 26.639165,34.32169 h 50.786184 c 1.081424,0 1.952029,0.870605 1.952029,1.952029 V 83.36966 c 0,1.081424 -0.870605,1.95203 -1.952029,1.95203 H 26.639165 c -1.081424,0 -1.952029,-0.870606 -1.952029,-1.95203 V 36.273719 c 0,-1.081424 0.870605,-1.952029 1.952029,-1.952029 z"
       style="opacity:1;fill:#373e48;fill-opacity:1;stroke:none;stroke-width:0.8369382;stroke-linecap:round;stroke-linejoin:round;stroke-miterlimit:4;stroke-dasharray:none;stroke-opacity:1;paint-order:stroke markers fill" />
    <g
       aria-label="K"
       transform="scale(1.1313787,0.88387734)"
       style="font-style:normal;font-weight:normal;font-size:32.36412048px;line-height:1.25;font-family:sans-serif;letter-spacing:0px;word-spacing:0px;fill:#ffffff;fill-opacity:1;stroke:none;stroke-width:0.80910301"
       id="text1353">
      <path
         d="m 34.080133,76.626953 3.68951,-19.677385 0.356005,-1.682934 H 45.05157 L 40.973691,76.626953 Z M 54.113524,74.71747 q -0.873831,2.556766 -4.2397,2.556766 -2.492037,0 -4.207336,-2.9775 -1.747662,-2.977499 -2.071303,-7.832117 3.560053,-6.505188 6.019726,-9.19141 2.362581,-2.556765 4.822254,-2.556765 1.326929,0 2.265489,0.71201 0.970923,0.712011 1.197472,1.844755 -1.10038,0.453098 -1.618206,0.809103 -1.294565,0.970924 -3.042227,3.13932 l -2.945135,3.527689 q -0.712011,0.841467 -1.003288,1.229836 0.485462,2.718587 1.941847,5.404809 1.391657,2.556765 2.880407,3.333504 z"
         style="font-style:normal;font-variant:normal;font-weight:normal;font-stretch:normal;font-family:'Sansita One';-inkscape-font-specification:'Sansita One';fill:#ffffff;stroke-width:0.80910301"
         id="path917" />
    </g>
    <path
       id="rect918"
       d="m 26.185117,34.32169 h 51.647668 c 0.855745,0 1.544666,0.688921 1.544666,1.544665 v 8.319077 c 0,0.855745 -0.688921,1.544666 -1.544666,1.544666 H 26.185117 c -0.855745,0 -1.544666,-0.688921 -1.544666,-1.544666 v -8.319077 c 0,-0.855744 0.688921,-1.544665 1.544666,-1.544665 z"
       style="opacity:1;fill:#666666;fill-opacity:1;stroke:none;stroke-width:0.74336612;stroke-linecap:round;stroke-linejoin:round;stroke-miterlimit:4;stroke-dasharray:none;stroke-opacity:1;paint-order:stroke markers fill" />
    <path
       id="rect817"
       d="m 40.753636,38.702583 h 22.557232 c 0.855744,0 1.544664,0.68892 1.544664,1.544664 0,0.855743 -0.68892,1.544663 -1.544664,1.544663 H 40.753636 c -0.855743,0 -1.544663,-0.68892 -1.544663,-1.544663 0,-0.855744 0.68892,-1.544664 1.544663,-1.544664 z"
       style="opacity:1;fill:#ffffff;fill-opacity:1;stroke:none;stroke-width:0.73087931;stroke-linecap:round;stroke-linejoin:round;stroke-miterlimit:4;stroke-dasharray:none;stroke-opacity:1;paint-order:stroke markers fill" />
    <path
       id="rect914"
       d="m 32.821588,70.107803 h 38.42133 c 0.557635,0 1.006561,0.448927 1.006561,1.006562 v 0.930597 c 0,0.557634 -0.448926,1.006561 -1.006561,1.006561 h -38.42133 c -0.557634,0 -1.006561,-0.448927 -1.006561,-1.006561 v -0.930597 c 0,-0.557635 0.448927,-1.006562 1.006561,-1.006562 z"
       style="opacity:1;fill:#aa4400;fill-opacity:1;stroke:none;stroke-width:0.7427516;stroke-linecap:round;stroke-linejoin:round;stroke-miterlimit:4;stroke-dasharray:none;stroke-opacity:1;paint-order:stroke markers fill" />
    <path
       id="rect916"
       d="m 32.821588,75.829414 h 38.42133 c 0.557635,0 1.006561,0.448927 1.006561,1.006562 v 0.930597 c 0,0.557634 -0.448926,1.006561 -1.006561,1.006561 h -38.42133 c -0.557634,0 -1.006561,-0.448927 -1.006561,-1.006561 v -0.930597 c 0,-0.557635 0.448927,-1.006562 1.006561,-1.006562 z"
       style="opacity:1;fill:#aa4400;fill-opacity:1;stroke:none;stroke-width:0.7427516;stroke-linecap:round;stroke-linejoin:round;stroke-miterlimit:4;stroke-dasharray:none;stroke-opacity:1;paint-order:stroke markers fill" />
    <g
       id="g1165"
       transform="matrix(1.6150319,0,0,2.019943,155.69936,-266.32795)">
      <g
         id="text1149"
         style="font-style:normal;font-weight:normal;font-size:10.58333397px;line-height:1.25;font-family:sans-serif;letter-spacing:0px;word-spacing:0px;fill:#aa4400;fill-opacity:1;stroke:#aa4400;stroke-width:1.32291663;stroke-linecap:round;stroke-linejoin:round;stroke-miterlimit:4;stroke-dasharray:none"
         aria-label="Introduction to Kotlin">
        <path
           id="path888"
           style="font-style:normal;font-variant:normal;font-weight:normal;font-stretch:normal;font-family:'Sansita One';-inkscape-font-specification:'Sansita One';text-align:center;text-anchor:middle;fill:#aa4400;stroke:#aa4400;stroke-width:1.32291663;stroke-linecap:round;stroke-linejoin:round;stroke-miterlimit:4;stroke-dasharray:none"
           d="m -44.68726,150.80992 1.344084,-6.985 h 2.328333 l -1.36525,6.985 z" />
        <path
           id="path890"
           style="font-style:normal;font-variant:normal;font-weight:normal;font-stretch:normal;font-family:'Sansita One';-inkscape-font-specification:'Sansita One';text-align:center;text-anchor:middle;fill:#aa4400;stroke:#aa4400;stroke-width:1.32291663;stroke-linecap:round;stroke-linejoin:round;stroke-miterlimit:4;stroke-dasharray:none"
           d="m -36.311378,151.02159 q -1.280583,0 -1.280583,-0.99484 0.01058,-0.27516 0.09525,-0.74083 l 0.1905,-0.97367 q 0.28575,-1.37583 0.28575,-1.68275 0,-0.61383 -0.359833,-0.61383 -0.60325,0 -0.92075,1.57692 l -0.624417,3.21733 -2.12725,0.21167 1.100667,-5.61975 1.735666,-0.20109 -0.169333,1.03717 q 0.497417,-1.03717 2.021417,-1.03717 0.740833,0 1.04775,0.3175 0.3175,0.30692 0.3175,1.00542 0,0.65617 -0.338667,2.19075 -0.15875,0.68792 -0.15875,0.9525 0,0.254 0.137584,0.40217 0.148166,0.14816 0.359833,0.16933 -0.105833,0.35983 -0.47625,0.5715 -0.359833,0.21167 -0.836084,0.21167 z" />
        <path
           id="path892"
           style="font-style:normal;font-variant:normal;font-weight:normal;font-stretch:normal;font-family:'Sansita One';-inkscape-font-specification:'Sansita One';text-align:center;text-anchor:middle;fill:#aa4400;stroke:#aa4400;stroke-width:1.32291663;stroke-linecap:round;stroke-linejoin:round;stroke-miterlimit:4;stroke-dasharray:none"
           d="m -33.98354,149.75159 q 0,-0.28575 0.148167,-1.00542 l 0.560917,-2.8575 h -0.624417 l 0.04233,-0.3175 q 1.27,-0.381 2.497667,-1.31233 h 0.508 l -0.254,1.15358 h 0.8255 l -0.09525,0.47625 h -0.814917 l -0.53975,2.8575 q -0.137583,0.65617 -0.137583,0.87842 0,0.508 0.4445,0.61383 -0.105833,0.35983 -0.486833,0.5715 -0.381,0.21167 -0.92075,0.21167 -0.53975,0 -0.846667,-0.33867 -0.306917,-0.33867 -0.306917,-0.93133 z" />
        <path
           id="path894"
           style="font-style:normal;font-variant:normal;font-weight:normal;font-stretch:normal;font-family:'Sansita One';-inkscape-font-specification:'Sansita One';text-align:center;text-anchor:middle;fill:#aa4400;stroke:#aa4400;stroke-width:1.32291663;stroke-linecap:round;stroke-linejoin:round;stroke-miterlimit:4;stroke-dasharray:none"
           d="m -27.016234,147.836 q 0.381,-0.67733 0.381,-1.36525 0,-0.45508 -0.328083,-0.45508 -0.254,0 -0.518584,0.43392 -0.275166,0.43391 -0.359833,0.99483 l -0.550333,3.3655 -2.190751,0.21167 1.079501,-5.60917 1.74625,-0.21167 -0.1905,1.06892 q 0.518583,-1.06892 1.68275,-1.06892 0.613833,0 0.941916,0.3175 0.338667,0.3175 0.338667,0.97367 0,0.64558 -0.433917,1.05833 -0.423333,0.41275 -1.153583,0.41275 -0.3175,0 -0.4445,-0.127 z" />
        <path
           id="path896"
           style="font-style:normal;font-variant:normal;font-weight:normal;font-stretch:normal;font-family:'Sansita One';-inkscape-font-specification:'Sansita One';text-align:center;text-anchor:middle;fill:#aa4400;stroke:#aa4400;stroke-width:1.32291663;stroke-linecap:round;stroke-linejoin:round;stroke-miterlimit:4;stroke-dasharray:none"
           d="m -22.502608,151.02159 q -2.328333,0 -2.328333,-2.19075 0,-1.55575 0.85725,-2.56117 0.910167,-1.06892 2.487083,-1.06892 1.143,0 1.725084,0.52917 0.582083,0.52917 0.582083,1.64042 0,1.69333 -0.910167,2.67758 -0.889,0.97367 -2.413,0.97367 z m 0.275167,-4.60375 q -0.127,0.28575 -0.232833,0.71966 -0.09525,0.42334 -0.22225,1.10067 -0.127,0.67733 -0.127,1.51342 0,0.27516 0.08467,0.45508 0.09525,0.17992 0.338667,0.17992 0.243417,0 0.391583,-0.11642 0.15875,-0.11642 0.275167,-0.39158 0.211667,-0.48684 0.381,-1.38642 0.169333,-0.91017 0.179917,-1.30175 0.02117,-0.39158 0.02117,-0.67733 0,-0.29634 -0.08467,-0.48684 -0.08467,-0.1905 -0.328084,-0.1905 -0.232833,0 -0.391583,0.14817 -0.15875,0.14817 -0.28575,0.43392 z" />
        <path
           id="path898"
           style="font-style:normal;font-variant:normal;font-weight:normal;font-stretch:normal;font-family:'Sansita One';-inkscape-font-specification:'Sansita One';text-align:center;text-anchor:middle;fill:#aa4400;stroke:#aa4400;stroke-width:1.32291663;stroke-linecap:round;stroke-linejoin:round;stroke-miterlimit:4;stroke-dasharray:none"
           d="m -15.212839,145.20075 q 0.381,0 0.677334,0.0847 0.01058,-0.0423 0.03175,-0.15875 l 0.05292,-0.32808 q 0.04233,-0.21167 0.105834,-0.56092 l 0.169333,-0.83608 2.106083,-0.21167 -1.17475,6.13833 q -0.01058,0.0635 -0.01058,0.16934 v 0.16933 q 0,0.23283 0.116417,0.41275 0.116416,0.16933 0.306916,0.16933 -0.211666,0.49742 -0.85725,0.70909 -0.22225,0.0635 -0.53975,0.0635 -0.306916,0 -0.592666,-0.16934 -0.28575,-0.15875 -0.370417,-0.43391 -0.169334,0.27516 -0.508,0.43391 -0.338667,0.16934 -0.836084,0.16934 -0.486833,0 -0.899583,-0.127 -0.402167,-0.127 -0.656167,-0.40217 -0.465666,-0.53975 -0.465666,-1.76742 0,-1.5875 0.931333,-2.55058 0.931333,-0.97367 2.413,-0.97367 z m -0.07408,0.635 q -0.391584,0 -0.60325,0.42334 -0.211667,0.42333 -0.433917,1.47108 -0.211667,1.04775 -0.211667,1.98967 0,0.64558 0.381,0.64558 0.338667,0 0.5715,-0.33867 0.243417,-0.33866 0.338667,-0.89958 l 0.5715,-3.10092 q -0.22225,-0.1905 -0.613833,-0.1905 z" />
        <path
           id="path900"
           style="font-style:normal;font-variant:normal;font-weight:normal;font-stretch:normal;font-family:'Sansita One';-inkscape-font-specification:'Sansita One';text-align:center;text-anchor:middle;fill:#aa4400;stroke:#aa4400;stroke-width:1.32291663;stroke-linecap:round;stroke-linejoin:round;stroke-miterlimit:4;stroke-dasharray:none"
           d="m -8.5347568,150.36542 q -0.508,0.65617 -1.7674172,0.65617 -0.656166,0 -1.132416,-0.39159 -0.47625,-0.40216 -0.47625,-0.97366 0,-0.3175 0.03175,-0.47625 l 0.709083,-3.76767 2.1484169,-0.21167 -0.7725834,4.08517 q -0.042333,0.23283 -0.042333,0.37042 0,0.61383 0.3704166,0.61383 0.4127501,0 0.7090834,-0.56092 0.09525,-0.17991 0.1375834,-0.41275 l 0.7514167,-3.88408 2.0849168,-0.21167 -0.7831667,4.1275 q -0.03175,0.15875 -0.03175,0.32809 0,0.16933 0.09525,0.35983 0.09525,0.17992 0.4021667,0.22225 -0.0635,0.254 -0.2857501,0.42333 -0.4656667,0.35984 -0.9736667,0.35984 -0.4974167,0 -0.79375,-0.17992 -0.2963334,-0.17992 -0.3810001,-0.47625 z" />
        <path
           id="path902"
           style="font-style:normal;font-variant:normal;font-weight:normal;font-stretch:normal;font-family:'Sansita One';-inkscape-font-specification:'Sansita One';text-align:center;text-anchor:middle;fill:#aa4400;stroke:#aa4400;stroke-width:1.32291663;stroke-linecap:round;stroke-linejoin:round;stroke-miterlimit:4;stroke-dasharray:none"
           d="m -0.05899239,146.40725 q 0,0.4445 -0.37041669,0.71967 -0.37041669,0.27517 -0.97366672,0.27517 -0.254,0 -0.4021667,-0.0741 0.1164167,-0.27516 0.1481667,-0.61383 0.042333,-0.34925 0.042333,-0.4445 0,-0.4445 -0.3069167,-0.4445 -0.2116667,0 -0.4550833,0.26458 -0.2328334,0.26459 -0.4339167,0.67734 -0.4445001,0.9525 -0.4445001,1.91558 0,0.52917 0.2010834,0.77258 0.2010833,0.23284 0.6455834,0.23284 0.6138333,0 1.1006667,-0.508 0.1375833,-0.15875 0.2116667,-0.33867 0.40216667,0.21167 0.40216667,0.79375 0,0.59267 -0.65616667,0.98425 -0.6773334,0.40217 -1.7568335,0.40217 -2.1484168,0 -2.1484168,-2.27542 0,-1.66158 0.9419168,-2.61408 0.9101667,-0.93134 2.5823334,-0.93134 1.67216681,0 1.67216681,1.2065 z" />
        <path
           id="path904"
           style="font-style:normal;font-variant:normal;font-weight:normal;font-stretch:normal;font-family:'Sansita One';-inkscape-font-specification:'Sansita One';text-align:center;text-anchor:middle;fill:#aa4400;stroke:#aa4400;stroke-width:1.32291663;stroke-linecap:round;stroke-linejoin:round;stroke-miterlimit:4;stroke-dasharray:none"
           d="m 0.39162707,149.75159 q 0,-0.28575 0.14816667,-1.00542 l 0.56091666,-2.8575 H 0.47629374 l 0.0423333,-0.3175 q 1.27000013,-0.381 2.49766683,-1.31233 h 0.508 l -0.254,1.15358 H 4.095794 l -0.09525,0.47625 H 3.1856272 l -0.53975,2.8575 q -0.1375833,0.65617 -0.1375833,0.87842 0,0.508 0.4445,0.61383 -0.1058334,0.35983 -0.4868334,0.5715 -0.381,0.21167 -0.92075,0.21167 -0.5397501,0 -0.84666675,-0.33867 -0.30691668,-0.33867 -0.30691668,-0.93133 z" />
        <path
           id="path906"
           style="font-style:normal;font-variant:normal;font-weight:normal;font-stretch:normal;font-family:'Sansita One';-inkscape-font-specification:'Sansita One';text-align:center;text-anchor:middle;fill:#aa4400;stroke:#aa4400;stroke-width:1.32291663;stroke-linecap:round;stroke-linejoin:round;stroke-miterlimit:4;stroke-dasharray:none"
           d="m 6.5863486,150.22784 q -0.3280834,0.79375 -1.3758334,0.79375 -0.5397501,0 -0.8784167,-0.37042 -0.2857501,-0.32808 -0.2857501,-0.65617 0,-0.85725 0.3915834,-2.52941 l 0.3915834,-2.05317 2.1484168,-0.21167 -0.6455834,3.34434 q -0.1799167,0.78316 -0.1799167,1.05833 0,0.60325 0.4339167,0.62442 z m -1.5663334,-6.2865 q 0,-0.41275 0.3386667,-0.635 0.34925,-0.22225 0.8466667,-0.22225 0.4974167,0 0.79375,0.22225 0.3069167,0.22225 0.3069167,0.635 0,0.41275 -0.3386667,0.62441 -0.3280833,0.21167 -0.8255,0.21167 -0.4974167,0 -0.8149167,-0.21167 -0.3069167,-0.21166 -0.3069167,-0.62441 z" />
        <path
           id="path908"
           style="font-style:normal;font-variant:normal;font-weight:normal;font-stretch:normal;font-family:'Sansita One';-inkscape-font-specification:'Sansita One';text-align:center;text-anchor:middle;fill:#aa4400;stroke:#aa4400;stroke-width:1.32291663;stroke-linecap:round;stroke-linejoin:round;stroke-miterlimit:4;stroke-dasharray:none"
           d="m 9.7848316,151.02159 q -2.3283335,0 -2.3283335,-2.19075 0,-1.55575 0.8572501,-2.56117 0.9101667,-1.06892 2.4870838,-1.06892 1.143,0 1.725083,0.52917 0.582083,0.52917 0.582083,1.64042 0,1.69333 -0.910166,2.67758 -0.889,0.97367 -2.4130004,0.97367 z m 0.2751664,-4.60375 q -0.1269997,0.28575 -0.232833,0.71966 -0.09525,0.42334 -0.2222501,1.10067 -0.127,0.67733 -0.127,1.51342 0,0.27516 0.084667,0.45508 0.09525,0.17992 0.3386667,0.17992 0.2434167,0 0.3915837,-0.11642 0.15875,-0.11642 0.275166,-0.39158 0.211667,-0.48684 0.381,-1.38642 0.169334,-0.91017 0.179917,-1.30175 0.02117,-0.39158 0.02117,-0.67733 0,-0.29634 -0.08467,-0.48684 -0.08467,-0.1905 -0.328083,-0.1905 -0.232834,0 -0.391584,0.14817 -0.15875,0.14817 -0.28575,0.43392 z" />
        <path
           id="path910"
           style="font-style:normal;font-variant:normal;font-weight:normal;font-stretch:normal;font-family:'Sansita One';-inkscape-font-specification:'Sansita One';text-align:center;text-anchor:middle;fill:#aa4400;stroke:#aa4400;stroke-width:1.32291663;stroke-linecap:round;stroke-linejoin:round;stroke-miterlimit:4;stroke-dasharray:none"
           d="m 18.217599,151.02159 q -1.280584,0 -1.280584,-0.99484 0.01058,-0.27516 0.09525,-0.74083 l 0.1905,-0.97367 q 0.28575,-1.37583 0.28575,-1.68275 0,-0.61383 -0.359833,-0.61383 -0.60325,0 -0.92075,1.57692 l -0.624417,3.21733 -2.12725,0.21167 1.100667,-5.61975 1.735667,-0.20109 -0.169334,1.03717 q 0.497417,-1.03717 2.021417,-1.03717 0.740833,0 1.04775,0.3175 0.3175,0.30692 0.3175,1.00542 0,0.65617 -0.338667,2.19075 -0.15875,0.68792 -0.15875,0.9525 0,0.254 0.137584,0.40217 0.148166,0.14816 0.359833,0.16933 -0.105833,0.35983 -0.47625,0.5715 -0.359833,0.21167 -0.836083,0.21167 z" />
        <path
           id="path912"
           style="font-style:normal;font-variant:normal;font-weight:normal;font-stretch:normal;font-family:'Sansita One';-inkscape-font-specification:'Sansita One';text-align:center;text-anchor:middle;fill:#aa4400;stroke:#aa4400;stroke-width:1.32291663;stroke-linecap:round;stroke-linejoin:round;stroke-miterlimit:4;stroke-dasharray:none"
           d="m -16.950987,162.98076 q 0,-0.28575 0.148167,-1.00542 l 0.560916,-2.8575 h -0.624416 l 0.04233,-0.3175 q 1.27,-0.381 2.497667,-1.31233 h 0.508 l -0.254,1.15358 h 0.8255 l -0.09525,0.47625 h -0.814917 l -0.53975,2.8575 q -0.137583,0.65617 -0.137583,0.87842 0,0.508 0.4445,0.61383 -0.105834,0.35984 -0.486834,0.5715 -0.381,0.21167 -0.92075,0.21167 -0.53975,0 -0.846666,-0.33867 -0.306917,-0.33866 -0.306917,-0.93133 z" />
        <path
           id="path914"
           style="font-style:normal;font-variant:normal;font-weight:normal;font-stretch:normal;font-family:'Sansita One';-inkscape-font-specification:'Sansita One';text-align:center;text-anchor:middle;fill:#aa4400;stroke:#aa4400;stroke-width:1.32291663;stroke-linecap:round;stroke-linejoin:round;stroke-miterlimit:4;stroke-dasharray:none"
           d="m -11.030439,164.25076 q -2.328333,0 -2.328333,-2.19075 0,-1.55575 0.85725,-2.56117 0.910167,-1.06891 2.487084,-1.06891 1.1429996,0 1.725083,0.52916 0.5820834,0.52917 0.5820834,1.64042 0,1.69333 -0.9101668,2.67758 -0.889,0.97367 -2.4130006,0.97367 z m 0.275167,-4.60375 q -0.127,0.28575 -0.232833,0.71967 -0.09525,0.42333 -0.22225,1.10066 -0.127,0.67734 -0.127,1.51342 0,0.27517 0.08467,0.45508 0.09525,0.17992 0.338667,0.17992 0.243417,0 0.391584,-0.11642 0.15875,-0.11641 0.275166,-0.39158 0.211667,-0.48683 0.3810002,-1.38642 0.1693334,-0.91016 0.1799167,-1.30175 0.021167,-0.39158 0.021167,-0.67733 0,-0.29633 -0.084667,-0.48683 -0.084667,-0.1905 -0.3280829,-0.1905 -0.232834,0 -0.391584,0.14816 -0.15875,0.14817 -0.28575,0.43392 z" />
        <path
           id="path916"
           style="font-style:normal;font-variant:normal;font-weight:normal;font-stretch:normal;font-family:'Sansita One';-inkscape-font-specification:'Sansita One';text-align:center;text-anchor:middle;fill:#aa4400;stroke:#aa4400;stroke-width:1.32291663;stroke-linecap:round;stroke-linejoin:round;stroke-miterlimit:4;stroke-dasharray:none"
           d="m -26.434646,177.26825 1.2065,-6.43467 0.116416,-0.55033 h 2.264834 l -1.3335,6.985 z m 6.551083,-0.62442 q -0.28575,0.83609 -1.386416,0.83609 -0.814917,0 -1.375834,-0.97367 -0.5715,-0.97367 -0.677333,-2.56117 1.164166,-2.12725 1.9685,-3.00566 0.772583,-0.83609 1.576917,-0.83609 0.433916,0 0.740833,0.23284 0.3175,0.23283 0.391583,0.60325 -0.359833,0.14816 -0.529166,0.26458 -0.423334,0.3175 -0.994834,1.02658 l -0.963083,1.15359 q -0.232834,0.27516 -0.328084,0.40216 0.158751,0.889 0.635001,1.76742 0.455083,0.83608 0.941916,1.09008 z" />
        <path
           id="path918"
           style="font-style:normal;font-variant:normal;font-weight:normal;font-stretch:normal;font-family:'Sansita One';-inkscape-font-specification:'Sansita One';text-align:center;text-anchor:middle;fill:#aa4400;stroke:#aa4400;stroke-width:1.32291663;stroke-linecap:round;stroke-linejoin:round;stroke-miterlimit:4;stroke-dasharray:none"
           d="m -16.962893,177.47992 q -2.328334,0 -2.328334,-2.19075 0,-1.55575 0.85725,-2.56117 0.910167,-1.06892 2.487084,-1.06892 1.143,0 1.725083,0.52917 0.582084,0.52917 0.582084,1.64042 0,1.69333 -0.910167,2.67758 -0.889,0.97367 -2.413,0.97367 z m 0.275166,-4.60375 q -0.127,0.28575 -0.232833,0.71966 -0.09525,0.42334 -0.22225,1.10067 -0.127,0.67733 -0.127,1.51342 0,0.27516 0.08467,0.45508 0.09525,0.17992 0.338666,0.17992 0.243417,0 0.391584,-0.11642 0.15875,-0.11642 0.275166,-0.39158 0.211667,-0.48684 0.381,-1.38642 0.169334,-0.91017 0.179917,-1.30175 0.02117,-0.39158 0.02117,-0.67733 0,-0.29634 -0.08467,-0.48684 -0.08467,-0.1905 -0.328083,-0.1905 -0.232834,0 -0.391584,0.14817 -0.15875,0.14817 -0.28575,0.43392 z" />
        <path
           id="path920"
           style="font-style:normal;font-variant:normal;font-weight:normal;font-stretch:normal;font-family:'Sansita One';-inkscape-font-specification:'Sansita One';text-align:center;text-anchor:middle;fill:#aa4400;stroke:#aa4400;stroke-width:1.32291663;stroke-linecap:round;stroke-linejoin:round;stroke-miterlimit:4;stroke-dasharray:none"
           d="m -12.837543,176.20992 q 0,-0.28575 0.148167,-1.00542 l 0.560917,-2.8575 h -0.624417 l 0.04233,-0.3175 q 1.27,-0.381 2.497667,-1.31233 h 0.5080002 l -0.254,1.15358 h 0.8255001 l -0.09525,0.47625 h -0.8149162 l -0.539751,2.8575 q -0.137583,0.65617 -0.137583,0.87842 0,0.508 0.4445,0.61383 -0.105833,0.35983 -0.486833,0.5715 -0.381,0.21167 -0.92075,0.21167 -0.53975,0 -0.846667,-0.33867 -0.306917,-0.33867 -0.306917,-0.93133 z" />
        <path
           id="path922"
           style="font-style:normal;font-variant:normal;font-weight:normal;font-stretch:normal;font-family:'Sansita One';-inkscape-font-specification:'Sansita One';text-align:center;text-anchor:middle;fill:#aa4400;stroke:#aa4400;stroke-width:1.32291663;stroke-linecap:round;stroke-linejoin:round;stroke-miterlimit:4;stroke-dasharray:none"
           d="m -6.6534035,176.68617 q -0.3280833,0.79375 -1.3758334,0.79375 -0.5291667,0 -0.8678334,-0.37042 -0.2751667,-0.30692 -0.2751667,-0.65617 0,-0.79375 0.3704167,-2.52941 l 0.7725834,-4.064 2.1484168,-0.21167 -1.0265834,5.35517 q -0.1799167,0.78316 -0.1799167,1.05833 0,0.60325 0.4339167,0.62442 z" />
        <path
           id="path924"
           style="font-style:normal;font-variant:normal;font-weight:normal;font-stretch:normal;font-family:'Sansita One';-inkscape-font-specification:'Sansita One';text-align:center;text-anchor:middle;fill:#aa4400;stroke:#aa4400;stroke-width:1.32291663;stroke-linecap:round;stroke-linejoin:round;stroke-miterlimit:4;stroke-dasharray:none"
           d="m -3.2115038,176.68617 q -0.3280833,0.79375 -1.3758334,0.79375 -0.53975,0 -0.8784167,-0.37042 -0.28575,-0.32808 -0.28575,-0.65617 0,-0.85725 0.3915833,-2.52941 l 0.3915834,-2.05317 2.1484168,-0.21167 -0.6455834,3.34434 q -0.1799167,0.78316 -0.1799167,1.05833 0,0.60325 0.4339167,0.62442 z m -1.5663334,-6.2865 q 0,-0.41275 0.3386667,-0.635 0.34925,-0.22225 0.8466667,-0.22225 0.4974167,0 0.79375,0.22225 0.3069167,0.22225 0.3069167,0.635 0,0.41275 -0.3386667,0.62441 -0.3280833,0.21167 -0.8255,0.21167 -0.4974167,0 -0.8149167,-0.21167 -0.3069167,-0.21166 -0.3069167,-0.62441 z" />
        <path
           id="path926"
           style="font-style:normal;font-variant:normal;font-weight:normal;font-stretch:normal;font-family:'Sansita One';-inkscape-font-specification:'Sansita One';text-align:center;text-anchor:middle;fill:#aa4400;stroke:#aa4400;stroke-width:1.32291663;stroke-linecap:round;stroke-linejoin:round;stroke-miterlimit:4;stroke-dasharray:none"
           d="m 2.1565608,177.47992 q -1.28058341,0 -1.28058341,-0.99484 0.0105833,-0.27516 0.09525,-0.74083 l 0.1905,-0.97367 q 0.28575,-1.37583 0.28575,-1.68275 0,-0.61383 -0.3598333,-0.61383 -0.60325006,0 -0.92075008,1.57692 l -0.62441671,3.21733 -2.12725011,0.21167 1.1006667,-5.61975 1.73566679,-0.20109 -0.16933334,1.03717 q 0.49741669,-1.03717 2.02141675,-1.03717 0.7408334,0 1.0477501,0.3175 0.3175,0.30692 0.3175,1.00542 0,0.65617 -0.3386667,2.19075 -0.15875,0.68792 -0.15875,0.9525 0,0.254 0.1375834,0.40217 0.1481666,0.14816 0.3598333,0.16933 -0.1058333,0.35983 -0.47625,0.5715 -0.3598334,0.21167 -0.8360834,0.21167 z" />
      </g>
      <g
         id="text1135"
         style="font-style:normal;font-weight:normal;font-size:10.58333397px;line-height:1.25;font-family:sans-serif;letter-spacing:0px;word-spacing:0px;fill:#ffffff;fill-opacity:1;stroke:none;stroke-width:0.26458335"
         aria-label="Introduction to Kotlin">
        <path
           id="path929"
           style="font-style:normal;font-variant:normal;font-weight:normal;font-stretch:normal;font-family:'Sansita One';-inkscape-font-specification:'Sansita One';text-align:center;text-anchor:middle;fill:#ffffff;stroke-width:0.26458335"
           d="m -44.68726,150.80992 1.344084,-6.985 h 2.328333 l -1.36525,6.985 z" />
        <path
           id="path931"
           style="font-style:normal;font-variant:normal;font-weight:normal;font-stretch:normal;font-family:'Sansita One';-inkscape-font-specification:'Sansita One';text-align:center;text-anchor:middle;fill:#ffffff;stroke-width:0.26458335"
           d="m -36.311378,151.02159 q -1.280583,0 -1.280583,-0.99484 0.01058,-0.27516 0.09525,-0.74083 l 0.1905,-0.97367 q 0.28575,-1.37583 0.28575,-1.68275 0,-0.61383 -0.359833,-0.61383 -0.60325,0 -0.92075,1.57692 l -0.624417,3.21733 -2.12725,0.21167 1.100667,-5.61975 1.735666,-0.20109 -0.169333,1.03717 q 0.497417,-1.03717 2.021417,-1.03717 0.740833,0 1.04775,0.3175 0.3175,0.30692 0.3175,1.00542 0,0.65617 -0.338667,2.19075 -0.15875,0.68792 -0.15875,0.9525 0,0.254 0.137584,0.40217 0.148166,0.14816 0.359833,0.16933 -0.105833,0.35983 -0.47625,0.5715 -0.359833,0.21167 -0.836084,0.21167 z" />
        <path
           id="path933"
           style="font-style:normal;font-variant:normal;font-weight:normal;font-stretch:normal;font-family:'Sansita One';-inkscape-font-specification:'Sansita One';text-align:center;text-anchor:middle;fill:#ffffff;stroke-width:0.26458335"
           d="m -33.98354,149.75159 q 0,-0.28575 0.148167,-1.00542 l 0.560917,-2.8575 h -0.624417 l 0.04233,-0.3175 q 1.27,-0.381 2.497667,-1.31233 h 0.508 l -0.254,1.15358 h 0.8255 l -0.09525,0.47625 h -0.814917 l -0.53975,2.8575 q -0.137583,0.65617 -0.137583,0.87842 0,0.508 0.4445,0.61383 -0.105833,0.35983 -0.486833,0.5715 -0.381,0.21167 -0.92075,0.21167 -0.53975,0 -0.846667,-0.33867 -0.306917,-0.33867 -0.306917,-0.93133 z" />
        <path
           id="path935"
           style="font-style:normal;font-variant:normal;font-weight:normal;font-stretch:normal;font-family:'Sansita One';-inkscape-font-specification:'Sansita One';text-align:center;text-anchor:middle;fill:#ffffff;stroke-width:0.26458335"
           d="m -27.016234,147.836 q 0.381,-0.67733 0.381,-1.36525 0,-0.45508 -0.328083,-0.45508 -0.254,0 -0.518584,0.43392 -0.275166,0.43391 -0.359833,0.99483 l -0.550333,3.3655 -2.190751,0.21167 1.079501,-5.60917 1.74625,-0.21167 -0.1905,1.06892 q 0.518583,-1.06892 1.68275,-1.06892 0.613833,0 0.941916,0.3175 0.338667,0.3175 0.338667,0.97367 0,0.64558 -0.433917,1.05833 -0.423333,0.41275 -1.153583,0.41275 -0.3175,0 -0.4445,-0.127 z" />
        <path
           id="path937"
           style="font-style:normal;font-variant:normal;font-weight:normal;font-stretch:normal;font-family:'Sansita One';-inkscape-font-specification:'Sansita One';text-align:center;text-anchor:middle;fill:#ffffff;stroke-width:0.26458335"
           d="m -22.502608,151.02159 q -2.328333,0 -2.328333,-2.19075 0,-1.55575 0.85725,-2.56117 0.910167,-1.06892 2.487083,-1.06892 1.143,0 1.725084,0.52917 0.582083,0.52917 0.582083,1.64042 0,1.69333 -0.910167,2.67758 -0.889,0.97367 -2.413,0.97367 z m 0.275167,-4.60375 q -0.127,0.28575 -0.232833,0.71966 -0.09525,0.42334 -0.22225,1.10067 -0.127,0.67733 -0.127,1.51342 0,0.27516 0.08467,0.45508 0.09525,0.17992 0.338667,0.17992 0.243417,0 0.391583,-0.11642 0.15875,-0.11642 0.275167,-0.39158 0.211667,-0.48684 0.381,-1.38642 0.169333,-0.91017 0.179917,-1.30175 0.02117,-0.39158 0.02117,-0.67733 0,-0.29634 -0.08467,-0.48684 -0.08467,-0.1905 -0.328084,-0.1905 -0.232833,0 -0.391583,0.14817 -0.15875,0.14817 -0.28575,0.43392 z" />
        <path
           id="path939"
           style="font-style:normal;font-variant:normal;font-weight:normal;font-stretch:normal;font-family:'Sansita One';-inkscape-font-specification:'Sansita One';text-align:center;text-anchor:middle;fill:#ffffff;stroke-width:0.26458335"
           d="m -15.212839,145.20075 q 0.381,0 0.677334,0.0847 0.01058,-0.0423 0.03175,-0.15875 l 0.05292,-0.32808 q 0.04233,-0.21167 0.105834,-0.56092 l 0.169333,-0.83608 2.106083,-0.21167 -1.17475,6.13833 q -0.01058,0.0635 -0.01058,0.16934 v 0.16933 q 0,0.23283 0.116417,0.41275 0.116416,0.16933 0.306916,0.16933 -0.211666,0.49742 -0.85725,0.70909 -0.22225,0.0635 -0.53975,0.0635 -0.306916,0 -0.592666,-0.16934 -0.28575,-0.15875 -0.370417,-0.43391 -0.169334,0.27516 -0.508,0.43391 -0.338667,0.16934 -0.836084,0.16934 -0.486833,0 -0.899583,-0.127 -0.402167,-0.127 -0.656167,-0.40217 -0.465666,-0.53975 -0.465666,-1.76742 0,-1.5875 0.931333,-2.55058 0.931333,-0.97367 2.413,-0.97367 z m -0.07408,0.635 q -0.391584,0 -0.60325,0.42334 -0.211667,0.42333 -0.433917,1.47108 -0.211667,1.04775 -0.211667,1.98967 0,0.64558 0.381,0.64558 0.338667,0 0.5715,-0.33867 0.243417,-0.33866 0.338667,-0.89958 l 0.5715,-3.10092 q -0.22225,-0.1905 -0.613833,-0.1905 z" />
        <path
           id="path941"
           style="font-style:normal;font-variant:normal;font-weight:normal;font-stretch:normal;font-family:'Sansita One';-inkscape-font-specification:'Sansita One';text-align:center;text-anchor:middle;fill:#ffffff;stroke-width:0.26458335"
           d="m -8.5347568,150.36542 q -0.508,0.65617 -1.7674172,0.65617 -0.656166,0 -1.132416,-0.39159 -0.47625,-0.40216 -0.47625,-0.97366 0,-0.3175 0.03175,-0.47625 l 0.709083,-3.76767 2.1484169,-0.21167 -0.7725834,4.08517 q -0.042333,0.23283 -0.042333,0.37042 0,0.61383 0.3704166,0.61383 0.4127501,0 0.7090834,-0.56092 0.09525,-0.17991 0.1375834,-0.41275 l 0.7514167,-3.88408 2.0849168,-0.21167 -0.7831667,4.1275 q -0.03175,0.15875 -0.03175,0.32809 0,0.16933 0.09525,0.35983 0.09525,0.17992 0.4021667,0.22225 -0.0635,0.254 -0.2857501,0.42333 -0.4656667,0.35984 -0.9736667,0.35984 -0.4974167,0 -0.79375,-0.17992 -0.2963334,-0.17992 -0.3810001,-0.47625 z" />
        <path
           id="path943"
           style="font-style:normal;font-variant:normal;font-weight:normal;font-stretch:normal;font-family:'Sansita One';-inkscape-font-specification:'Sansita One';text-align:center;text-anchor:middle;fill:#ffffff;stroke-width:0.26458335"
           d="m -0.05899239,146.40725 q 0,0.4445 -0.37041669,0.71967 -0.37041669,0.27517 -0.97366672,0.27517 -0.254,0 -0.4021667,-0.0741 0.1164167,-0.27516 0.1481667,-0.61383 0.042333,-0.34925 0.042333,-0.4445 0,-0.4445 -0.3069167,-0.4445 -0.2116667,0 -0.4550833,0.26458 -0.2328334,0.26459 -0.4339167,0.67734 -0.4445001,0.9525 -0.4445001,1.91558 0,0.52917 0.2010834,0.77258 0.2010833,0.23284 0.6455834,0.23284 0.6138333,0 1.1006667,-0.508 0.1375833,-0.15875 0.2116667,-0.33867 0.40216667,0.21167 0.40216667,0.79375 0,0.59267 -0.65616667,0.98425 -0.6773334,0.40217 -1.7568335,0.40217 -2.1484168,0 -2.1484168,-2.27542 0,-1.66158 0.9419168,-2.61408 0.9101667,-0.93134 2.5823334,-0.93134 1.67216681,0 1.67216681,1.2065 z" />
        <path
           id="path945"
           style="font-style:normal;font-variant:normal;font-weight:normal;font-stretch:normal;font-family:'Sansita One';-inkscape-font-specification:'Sansita One';text-align:center;text-anchor:middle;fill:#ffffff;stroke-width:0.26458335"
           d="m 0.39162707,149.75159 q 0,-0.28575 0.14816667,-1.00542 l 0.56091666,-2.8575 H 0.47629374 l 0.0423333,-0.3175 q 1.27000013,-0.381 2.49766683,-1.31233 h 0.508 l -0.254,1.15358 H 4.095794 l -0.09525,0.47625 H 3.1856272 l -0.53975,2.8575 q -0.1375833,0.65617 -0.1375833,0.87842 0,0.508 0.4445,0.61383 -0.1058334,0.35983 -0.4868334,0.5715 -0.381,0.21167 -0.92075,0.21167 -0.5397501,0 -0.84666675,-0.33867 -0.30691668,-0.33867 -0.30691668,-0.93133 z" />
        <path
           id="path947"
           style="font-style:normal;font-variant:normal;font-weight:normal;font-stretch:normal;font-family:'Sansita One';-inkscape-font-specification:'Sansita One';text-align:center;text-anchor:middle;fill:#ffffff;stroke-width:0.26458335"
           d="m 6.5863486,150.22784 q -0.3280834,0.79375 -1.3758334,0.79375 -0.5397501,0 -0.8784167,-0.37042 -0.2857501,-0.32808 -0.2857501,-0.65617 0,-0.85725 0.3915834,-2.52941 l 0.3915834,-2.05317 2.1484168,-0.21167 -0.6455834,3.34434 q -0.1799167,0.78316 -0.1799167,1.05833 0,0.60325 0.4339167,0.62442 z m -1.5663334,-6.2865 q 0,-0.41275 0.3386667,-0.635 0.34925,-0.22225 0.8466667,-0.22225 0.4974167,0 0.79375,0.22225 0.3069167,0.22225 0.3069167,0.635 0,0.41275 -0.3386667,0.62441 -0.3280833,0.21167 -0.8255,0.21167 -0.4974167,0 -0.8149167,-0.21167 -0.3069167,-0.21166 -0.3069167,-0.62441 z" />
        <path
           id="path949"
           style="font-style:normal;font-variant:normal;font-weight:normal;font-stretch:normal;font-family:'Sansita One';-inkscape-font-specification:'Sansita One';text-align:center;text-anchor:middle;fill:#ffffff;stroke-width:0.26458335"
           d="m 9.7848316,151.02159 q -2.3283335,0 -2.3283335,-2.19075 0,-1.55575 0.8572501,-2.56117 0.9101667,-1.06892 2.4870838,-1.06892 1.143,0 1.725083,0.52917 0.582083,0.52917 0.582083,1.64042 0,1.69333 -0.910166,2.67758 -0.889,0.97367 -2.4130004,0.97367 z m 0.2751664,-4.60375 q -0.1269997,0.28575 -0.232833,0.71966 -0.09525,0.42334 -0.2222501,1.10067 -0.127,0.67733 -0.127,1.51342 0,0.27516 0.084667,0.45508 0.09525,0.17992 0.3386667,0.17992 0.2434167,0 0.3915837,-0.11642 0.15875,-0.11642 0.275166,-0.39158 0.211667,-0.48684 0.381,-1.38642 0.169334,-0.91017 0.179917,-1.30175 0.02117,-0.39158 0.02117,-0.67733 0,-0.29634 -0.08467,-0.48684 -0.08467,-0.1905 -0.328083,-0.1905 -0.232834,0 -0.391584,0.14817 -0.15875,0.14817 -0.28575,0.43392 z" />
        <path
           id="path951"
           style="font-style:normal;font-variant:normal;font-weight:normal;font-stretch:normal;font-family:'Sansita One';-inkscape-font-specification:'Sansita One';text-align:center;text-anchor:middle;fill:#ffffff;stroke-width:0.26458335"
           d="m 18.217599,151.02159 q -1.280584,0 -1.280584,-0.99484 0.01058,-0.27516 0.09525,-0.74083 l 0.1905,-0.97367 q 0.28575,-1.37583 0.28575,-1.68275 0,-0.61383 -0.359833,-0.61383 -0.60325,0 -0.92075,1.57692 l -0.624417,3.21733 -2.12725,0.21167 1.100667,-5.61975 1.735667,-0.20109 -0.169334,1.03717 q 0.497417,-1.03717 2.021417,-1.03717 0.740833,0 1.04775,0.3175 0.3175,0.30692 0.3175,1.00542 0,0.65617 -0.338667,2.19075 -0.15875,0.68792 -0.15875,0.9525 0,0.254 0.137584,0.40217 0.148166,0.14816 0.359833,0.16933 -0.105833,0.35983 -0.47625,0.5715 -0.359833,0.21167 -0.836083,0.21167 z" />
        <path
           id="path953"
           style="font-style:normal;font-variant:normal;font-weight:normal;font-stretch:normal;font-family:'Sansita One';-inkscape-font-specification:'Sansita One';text-align:center;text-anchor:middle;fill:#ffffff;stroke-width:0.26458335"
           d="m -16.950987,162.98076 q 0,-0.28575 0.148167,-1.00542 l 0.560916,-2.8575 h -0.624416 l 0.04233,-0.3175 q 1.27,-0.381 2.497667,-1.31233 h 0.508 l -0.254,1.15358 h 0.8255 l -0.09525,0.47625 h -0.814917 l -0.53975,2.8575 q -0.137583,0.65617 -0.137583,0.87842 0,0.508 0.4445,0.61383 -0.105834,0.35984 -0.486834,0.5715 -0.381,0.21167 -0.92075,0.21167 -0.53975,0 -0.846666,-0.33867 -0.306917,-0.33866 -0.306917,-0.93133 z" />
        <path
           id="path955"
           style="font-style:normal;font-variant:normal;font-weight:normal;font-stretch:normal;font-family:'Sansita One';-inkscape-font-specification:'Sansita One';text-align:center;text-anchor:middle;fill:#ffffff;stroke-width:0.26458335"
           d="m -11.030439,164.25076 q -2.328333,0 -2.328333,-2.19075 0,-1.55575 0.85725,-2.56117 0.910167,-1.06891 2.487084,-1.06891 1.1429996,0 1.725083,0.52916 0.5820834,0.52917 0.5820834,1.64042 0,1.69333 -0.9101668,2.67758 -0.889,0.97367 -2.4130006,0.97367 z m 0.275167,-4.60375 q -0.127,0.28575 -0.232833,0.71967 -0.09525,0.42333 -0.22225,1.10066 -0.127,0.67734 -0.127,1.51342 0,0.27517 0.08467,0.45508 0.09525,0.17992 0.338667,0.17992 0.243417,0 0.391584,-0.11642 0.15875,-0.11641 0.275166,-0.39158 0.211667,-0.48683 0.3810002,-1.38642 0.1693334,-0.91016 0.1799167,-1.30175 0.021167,-0.39158 0.021167,-0.67733 0,-0.29633 -0.084667,-0.48683 -0.084667,-0.1905 -0.3280829,-0.1905 -0.232834,0 -0.391584,0.14816 -0.15875,0.14817 -0.28575,0.43392 z" />
        <path
           id="path957"
           style="font-style:normal;font-variant:normal;font-weight:normal;font-stretch:normal;font-family:'Sansita One';-inkscape-font-specification:'Sansita One';text-align:center;text-anchor:middle;fill:#ffffff;stroke-width:0.26458335"
           d="m -26.434646,177.26825 1.2065,-6.43467 0.116416,-0.55033 h 2.264834 l -1.3335,6.985 z m 6.551083,-0.62442 q -0.28575,0.83609 -1.386416,0.83609 -0.814917,0 -1.375834,-0.97367 -0.5715,-0.97367 -0.677333,-2.56117 1.164166,-2.12725 1.9685,-3.00566 0.772583,-0.83609 1.576917,-0.83609 0.433916,0 0.740833,0.23284 0.3175,0.23283 0.391583,0.60325 -0.359833,0.14816 -0.529166,0.26458 -0.423334,0.3175 -0.994834,1.02658 l -0.963083,1.15359 q -0.232834,0.27516 -0.328084,0.40216 0.158751,0.889 0.635001,1.76742 0.455083,0.83608 0.941916,1.09008 z" />
        <path
           id="path959"
           style="font-style:normal;font-variant:normal;font-weight:normal;font-stretch:normal;font-family:'Sansita One';-inkscape-font-specification:'Sansita One';text-align:center;text-anchor:middle;fill:#ffffff;stroke-width:0.26458335"
           d="m -16.962893,177.47992 q -2.328334,0 -2.328334,-2.19075 0,-1.55575 0.85725,-2.56117 0.910167,-1.06892 2.487084,-1.06892 1.143,0 1.725083,0.52917 0.582084,0.52917 0.582084,1.64042 0,1.69333 -0.910167,2.67758 -0.889,0.97367 -2.413,0.97367 z m 0.275166,-4.60375 q -0.127,0.28575 -0.232833,0.71966 -0.09525,0.42334 -0.22225,1.10067 -0.127,0.67733 -0.127,1.51342 0,0.27516 0.08467,0.45508 0.09525,0.17992 0.338666,0.17992 0.243417,0 0.391584,-0.11642 0.15875,-0.11642 0.275166,-0.39158 0.211667,-0.48684 0.381,-1.38642 0.169334,-0.91017 0.179917,-1.30175 0.02117,-0.39158 0.02117,-0.67733 0,-0.29634 -0.08467,-0.48684 -0.08467,-0.1905 -0.328083,-0.1905 -0.232834,0 -0.391584,0.14817 -0.15875,0.14817 -0.28575,0.43392 z" />
        <path
           id="path961"
           style="font-style:normal;font-variant:normal;font-weight:normal;font-stretch:normal;font-family:'Sansita One';-inkscape-font-specification:'Sansita One';text-align:center;text-anchor:middle;fill:#ffffff;stroke-width:0.26458335"
           d="m -12.837543,176.20992 q 0,-0.28575 0.148167,-1.00542 l 0.560917,-2.8575 h -0.624417 l 0.04233,-0.3175 q 1.27,-0.381 2.497667,-1.31233 h 0.5080002 l -0.254,1.15358 h 0.8255001 l -0.09525,0.47625 h -0.8149162 l -0.539751,2.8575 q -0.137583,0.65617 -0.137583,0.87842 0,0.508 0.4445,0.61383 -0.105833,0.35983 -0.486833,0.5715 -0.381,0.21167 -0.92075,0.21167 -0.53975,0 -0.846667,-0.33867 -0.306917,-0.33867 -0.306917,-0.93133 z" />
        <path
           id="path963"
           style="font-style:normal;font-variant:normal;font-weight:normal;font-stretch:normal;font-family:'Sansita One';-inkscape-font-specification:'Sansita One';text-align:center;text-anchor:middle;fill:#ffffff;stroke-width:0.26458335"
           d="m -6.6534035,176.68617 q -0.3280833,0.79375 -1.3758334,0.79375 -0.5291667,0 -0.8678334,-0.37042 -0.2751667,-0.30692 -0.2751667,-0.65617 0,-0.79375 0.3704167,-2.52941 l 0.7725834,-4.064 2.1484168,-0.21167 -1.0265834,5.35517 q -0.1799167,0.78316 -0.1799167,1.05833 0,0.60325 0.4339167,0.62442 z" />
        <path
           id="path965"
           style="font-style:normal;font-variant:normal;font-weight:normal;font-stretch:normal;font-family:'Sansita One';-inkscape-font-specification:'Sansita One';text-align:center;text-anchor:middle;fill:#ffffff;stroke-width:0.26458335"
           d="m -3.2115038,176.68617 q -0.3280833,0.79375 -1.3758334,0.79375 -0.53975,0 -0.8784167,-0.37042 -0.28575,-0.32808 -0.28575,-0.65617 0,-0.85725 0.3915833,-2.52941 l 0.3915834,-2.05317 2.1484168,-0.21167 -0.6455834,3.34434 q -0.1799167,0.78316 -0.1799167,1.05833 0,0.60325 0.4339167,0.62442 z m -1.5663334,-6.2865 q 0,-0.41275 0.3386667,-0.635 0.34925,-0.22225 0.8466667,-0.22225 0.4974167,0 0.79375,0.22225 0.3069167,0.22225 0.3069167,0.635 0,0.41275 -0.3386667,0.62441 -0.3280833,0.21167 -0.8255,0.21167 -0.4974167,0 -0.8149167,-0.21167 -0.3069167,-0.21166 -0.3069167,-0.62441 z" />
        <path
           id="path967"
           style="font-style:normal;font-variant:normal;font-weight:normal;font-stretch:normal;font-family:'Sansita One';-inkscape-font-specification:'Sansita One';text-align:center;text-anchor:middle;fill:#ffffff;stroke-width:0.26458335"
           d="m 2.1565608,177.47992 q -1.28058341,0 -1.28058341,-0.99484 0.0105833,-0.27516 0.09525,-0.74083 l 0.1905,-0.97367 q 0.28575,-1.37583 0.28575,-1.68275 0,-0.61383 -0.3598333,-0.61383 -0.60325006,0 -0.92075008,1.57692 l -0.62441671,3.21733 -2.12725011,0.21167 1.1006667,-5.61975 1.73566679,-0.20109 -0.16933334,1.03717 q 0.49741669,-1.03717 2.02141675,-1.03717 0.7408334,0 1.0477501,0.3175 0.3175,0.30692 0.3175,1.00542 0,0.65617 -0.3386667,2.19075 -0.15875,0.68792 -0.15875,0.9525 0,0.254 0.1375834,0.40217 0.1481666,0.14816 0.3598333,0.16933 -0.1058333,0.35983 -0.47625,0.5715 -0.3598334,0.21167 -0.8360834,0.21167 z" />
      </g>
    </g>
  </g>
</svg>
