<?xml version="1.0" encoding="UTF-8" standalone="no"?>
<svg
   xmlns:osb="http://www.openswatchbook.org/uri/2009/osb"
   xmlns:dc="http://purl.org/dc/elements/1.1/"
   xmlns:cc="http://creativecommons.org/ns#"
   xmlns:rdf="http://www.w3.org/1999/02/22-rdf-syntax-ns#"
   xmlns:svg="http://www.w3.org/2000/svg"
   xmlns="http://www.w3.org/2000/svg"
   xmlns:xlink="http://www.w3.org/1999/xlink"
   width="444.5mm"
   height="277.8125mm"
   viewBox="0 0 444.49999 277.8125"
   version="1.1"
   id="svg3357">
  <defs
     id="defs3351">
    <linearGradient
       id="linearGradient911">
      <stop
         style="stop-color:#00a562;stop-opacity:1;"
         offset="0"
         id="stop907" />
      <stop
         id="stop915"
         offset="0"
         style="stop-color:#00c273;stop-opacity:1" />
      <stop
         style="stop-color:#00c474;stop-opacity:1"
         offset="1"
         id="stop909" />
    </linearGradient>
    <linearGradient
       id="linearGradient4115"
       osb:paint="solid">
      <stop
         style="stop-color:#000000;stop-opacity:1;"
         offset="0"
         id="stop4113" />
    </linearGradient>
    <linearGradient
       id="linearGradient6114">
      <stop
         style="stop-color:#6f7c91;stop-opacity:1;"
         offset="0"
         id="stop6110" />
      <stop
         style="stop-color:#162d50;stop-opacity:1"
         offset="1"
         id="stop6112" />
    </linearGradient>
    <radialGradient
       xlink:href="#linearGradient6114"
       id="radialGradient6126"
       cx="73.77433"
       cy="66.986313"
       fx="73.77433"
       fy="66.986313"
       r="31.67275"
       gradientTransform="matrix(3.0071285,0,0,1.83657,-125.12732,-58.151445)"
       gradientUnits="userSpaceOnUse" />
    <filter
       style="color-interpolation-filters:sRGB"
       id="filter1486"
       x="-0.48558968"
       width="1.9711794"
       y="-0.49618438"
       height="1.9923688">
      <feGaussianBlur
         stdDeviation="4.5483568"
         id="feGaussianBlur1488" />
    </filter>
    <filter
       style="color-interpolation-filters:sRGB"
       id="filter1490"
       x="-0.47133231"
       width="1.9426646"
       y="-0.49618438"
       height="1.9923688">
      <feGaussianBlur
         stdDeviation="4.5483568"
         id="feGaussianBlur1492" />
    </filter>
    <filter
       style="color-interpolation-filters:sRGB"
       id="filter1494"
       x="-0.47710037"
       width="1.9542007"
       y="-0.49618438"
       height="1.9923688">
      <feGaussianBlur
         stdDeviation="4.5483568"
         id="feGaussianBlur1496" />
    </filter>
    <filter
       style="color-interpolation-filters:sRGB"
       id="filter1498"
       x="-0.88604355"
       width="2.7720871"
       y="-0.36386853"
       height="1.7277371">
      <feGaussianBlur
         stdDeviation="4.5483568"
         id="feGaussianBlur1500" />
    </filter>
    <filter
       style="color-interpolation-filters:sRGB"
       id="filter1502"
       x="-0.61326158"
       width="2.2265232"
       y="-0.40132561"
       height="1.8026512">
      <feGaussianBlur
         stdDeviation="4.5483568"
         id="feGaussianBlur1504" />
    </filter>
    <filter
       style="color-interpolation-filters:sRGB"
       id="filter1506"
       x="-0.47710037"
       width="1.9542007"
       y="-0.49618438"
       height="1.9923688">
      <feGaussianBlur
         stdDeviation="4.5483568"
         id="feGaussianBlur1508" />
    </filter>
    <filter
       style="color-interpolation-filters:sRGB"
       id="filter1510"
       x="-0.88604355"
       width="2.7720871"
       y="-0.36386853"
       height="1.7277371">
      <feGaussianBlur
         stdDeviation="4.5483568"
         id="feGaussianBlur1512" />
    </filter>
    <filter
       style="color-interpolation-filters:sRGB"
       id="filter1514"
       x="-0.56618547"
       width="2.1323709"
       y="-0.49618438"
       height="1.9923688">
      <feGaussianBlur
         stdDeviation="4.5483568"
         id="feGaussianBlur1516" />
    </filter>
    <filter
       style="color-interpolation-filters:sRGB"
       id="filter1518"
       x="-0.54580283"
       width="2.0916057"
       y="-0.49618438"
       height="1.9923688">
      <feGaussianBlur
         stdDeviation="4.5483568"
         id="feGaussianBlur1520" />
    </filter>
    <filter
       style="color-interpolation-filters:sRGB"
       id="filter1522"
       x="-0.87749648"
       width="2.754993"
       y="-0.36878568"
       height="1.7375714">
      <feGaussianBlur
         stdDeviation="4.5483568"
         id="feGaussianBlur1524" />
    </filter>
    <filter
       style="color-interpolation-filters:sRGB"
       id="filter1526"
       x="-0.88604355"
       width="2.7720871"
       y="-0.36386853"
       height="1.7277371">
      <feGaussianBlur
         stdDeviation="4.5483568"
         id="feGaussianBlur1528" />
    </filter>
    <filter
       style="color-interpolation-filters:sRGB"
       id="filter1530"
       x="-0.49799526"
       width="1.9959905"
       y="-0.36878568"
       height="1.7375714">
      <feGaussianBlur
         stdDeviation="4.5483568"
         id="feGaussianBlur1532" />
    </filter>
    <filter
       style="color-interpolation-filters:sRGB"
       id="filter1534"
       x="-0.77971834"
       width="2.5594366"
       y="-0.42707577"
       height="1.8541515">
      <feGaussianBlur
         stdDeviation="4.5483568"
         id="feGaussianBlur1536" />
    </filter>
    <filter
       style="color-interpolation-filters:sRGB"
       id="filter1538"
       x="-0.88604355"
       width="2.7720871"
       y="-0.36386853"
       height="1.7277371">
      <feGaussianBlur
         stdDeviation="4.5483568"
         id="feGaussianBlur1540" />
    </filter>
    <filter
       style="color-interpolation-filters:sRGB"
       id="filter1542"
       x="-0.87749648"
       width="2.754993"
       y="-0.36878568"
       height="1.7375714">
      <feGaussianBlur
         stdDeviation="4.5483568"
         id="feGaussianBlur1544" />
    </filter>
    <filter
       style="color-interpolation-filters:sRGB"
       id="filter1546"
       x="-0.44518989"
       width="1.8903798"
       y="-0.37435034"
       height="1.7487007">
      <feGaussianBlur
         stdDeviation="4.5483568"
         id="feGaussianBlur1548" />
    </filter>
    <filter
       style="color-interpolation-filters:sRGB"
       id="filter1550"
       x="-0.46729693"
       width="1.9345939"
       y="-0.38985914"
       height="1.7797183">
      <feGaussianBlur
         stdDeviation="4.5483568"
         id="feGaussianBlur1552" />
    </filter>
    <radialGradient
       xlink:href="#linearGradient911"
       id="radialGradient913"
       cx="105.70104"
       cy="59.53125"
       fx="105.70104"
       fy="59.53125"
       r="105.70104"
       gradientTransform="matrix(2.1026283,0,0,1.3141427,0,60.673695)"
       gradientUnits="userSpaceOnUse" />
    <linearGradient
       xlink:href="#linearGradient899"
       id="linearGradient903"
       x1="1689.3649"
       y1="-377.6445"
       x2="1691.1647"
       y2="-379.54852"
       gradientUnits="userSpaceOnUse"
       gradientTransform="matrix(0.26458333,0,0,0.26458333,-2.95398,239.32846)" />
    <linearGradient
       id="linearGradient899">
      <stop
         style="stop-color:#00a562;stop-opacity:1;"
         offset="0"
         id="stop895" />
      <stop
         style="stop-color:#00a562;stop-opacity:0;"
         offset="1"
         id="stop897" />
    </linearGradient>
    <linearGradient
       gradientUnits="userSpaceOnUse"
       y2="138.90625"
       x2="465.91299"
       y1="139.3998"
       x1="444.19131"
       id="linearGradient1019-9"
       xlink:href="#linearGradient899"
       gradientTransform="translate(-1.4e-4,4.5e-4)" />
  </defs>
  <metadata
     id="metadata3354">
    <rdf:RDF>
      <cc:Work
         rdf:about="">
        <dc:format>image/svg+xml</dc:format>
        <dc:type
           rdf:resource="http://purl.org/dc/dcmitype/StillImage" />
        <dc:title></dc:title>
      </cc:Work>
    </rdf:RDF>
  </metadata>
  <g
     id="flowRoot985"
     style="font-style:normal;font-weight:normal;font-size:40px;line-height:1.25;font-family:sans-serif;letter-spacing:0px;word-spacing:0px;fill:#000000;fill-opacity:1;stroke:none"
     transform="matrix(0.26458333,0,0,0.26458333,-159.75324,545.39307)" />
  <g
     id="flowRoot993"
     style="font-style:normal;font-weight:normal;font-size:40px;line-height:1.25;font-family:sans-serif;letter-spacing:0px;word-spacing:0px;fill:#000000;fill-opacity:1;stroke:none"
     transform="matrix(0.26458333,0,0,0.26458333,-159.75324,545.39307)" />
  <g
     id="flowRoot1617"
     style="font-style:normal;font-weight:normal;font-size:40px;line-height:1.25;font-family:sans-serif;letter-spacing:0px;word-spacing:0px;fill:#000000;fill-opacity:1;stroke:none"
     transform="translate(-156.79926,306.06461)" />
  <path
     style="opacity:1;fill:url(#linearGradient1019-9);fill-opacity:1;stroke:none;stroke-width:9.70262432;stroke-miterlimit:4;stroke-dasharray:none;paint-order:stroke markers fill"
     d="M 286.33187,0 H 0 V 277.8125 H 444.49999 V 132.71902 Z"
     id="path1098" />
  <g
     aria-label="Split files in  Linux"
     transform="matrix(1.6088456,0,0,1.3355486,-739.27733,-98.094752)"
     style="font-style:normal;font-weight:normal;font-size:40px;line-height:1.25;font-family:sans-serif;letter-spacing:0px;word-spacing:0px;fill:#000000;fill-opacity:1;stroke:none"
     id="flowRoot917">
    <path
       d="m 519.42309,135.50012 q -3.64,0 -6.32,-1.68 -0.64,-0.4 -0.84,-0.96 -0.36,-1.04 -0.56,-2.6 -0.16,-1.56 -0.08,-3.2 0,-0.52 0.8,-0.52 0.36,0 0.52,0.12 0.16,0.08 0.32,0.36 0.88,3.08 2.64,4.88 1.76,1.8 4.04,1.8 1.76,0 2.76,-1.16 1.04,-1.2 1.04,-2.72 0,-1.24 -0.48,-2.08 -0.48,-0.88 -1.4,-1.56 -0.92,-0.72 -2.68,-1.68 -2.28,-1.28 -3.6,-2.24 -1.32,-0.96 -2.28,-2.48 -0.92,-1.52 -0.92,-3.68 0,-2.28 1.2,-4.04 1.24,-1.76 3.36,-2.72 2.12,-0.96 4.76,-0.96 1.4,0 2.76,0.28 1.4,0.28 2.36,0.68 0.48,0.2 0.68,0.44 0.24,0.24 0.4,0.84 0.48,1.92 0.48,4.68 0,0.2 -0.2,0.36 -0.2,0.16 -0.52,0.16 -0.36,0 -0.68,-0.16 -0.28,-0.2 -0.36,-0.48 -0.68,-2.4 -2,-3.64 -1.32,-1.24 -3.24,-1.24 -3.72,0 -3.72,3.6 0,1.28 1.28,2.44 1.28,1.16 4.12,2.8 3.24,1.96 4.56,3.8 1.32,1.84 1.32,4.52 0,4 -2.56,6.04 -2.52,2 -6.96,2 z"
       style="font-style:normal;font-variant:normal;font-weight:bold;font-stretch:normal;font-family:'EB Garamond';-inkscape-font-specification:'EB Garamond Bold';text-align:center;text-anchor:middle;fill:#ffffff"
       id="path929" />
    <path
       d="m 531.86871,145.42012 q -0.32,0 -0.56,-0.16 -0.24,-0.16 -0.24,-0.4 0,-0.32 0.2,-0.52 0.24,-0.16 0.72,-0.28 0.88,-0.28 1.2,-0.6 0.32,-0.28 0.32,-0.92 v -19.16 q 0,-0.76 -0.48,-1.44 -0.44,-0.72 -1.2,-0.88 -0.24,-0.08 -0.36,-0.2 -0.12,-0.16 -0.12,-0.52 0,-0.56 0.44,-0.68 1.44,-0.32 3.04,-0.84 1.6,-0.52 2.72,-1.08 0.12,-0.04 0.32,-0.16 0.24,-0.12 0.36,-0.12 0.36,0 0.36,0.48 l -0.08,0.88 q -0.12,1.44 -0.12,1.44 0,0.4 0.08,0.48 0.44,-0.48 1.48,-1.12 1.08,-0.68 2.36,-1.16 1.32,-0.52 2.48,-0.52 2.04,0 3.56,1.12 1.56,1.12 2.36,2.92 0.84,1.76 0.84,3.76 0,2.48 -1.24,4.8 -1.24,2.28 -3.4,3.72 -2.12,1.4 -4.6,1.4 -0.68,0 -1.68,-0.24 -1,-0.24 -1.76,-0.6 -0.16,0 -0.16,0.72 v 6.64 q 0,0.76 0.48,1.16 0.52,0.4 1.68,0.72 0.88,0.28 0.88,0.8 0,0.24 -0.24,0.4 -0.2,0.16 -0.44,0.16 -1.28,0 -2.56,-0.12 -1.68,-0.08 -2.28,-0.08 -0.68,0 -2.04,0.08 -1.08,0.12 -2.32,0.12 z m 10.32,-11.6 q 0.68,0 1.56,-0.68 0.88,-0.68 1.52,-2.16 0.68,-1.48 0.68,-3.8 0,-3.8 -1.28,-5.16 -1.24,-1.36 -2.68,-1.36 -0.72,0 -1.48,0.32 -0.72,0.32 -1.24,0.8 -0.48,0.44 -0.48,0.76 l -0.08,6.56 q 0,1 0.4,2.12 0.44,1.12 1.24,1.88 0.8,0.72 1.84,0.72 z"
       style="font-style:normal;font-variant:normal;font-weight:bold;font-stretch:normal;font-family:'EB Garamond';-inkscape-font-specification:'EB Garamond Bold';text-align:center;text-anchor:middle;fill:#ffffff"
       id="path931" />
    <path
       d="m 553.27496,135.06012 q -0.36,0 -0.6,-0.12 -0.2,-0.16 -0.2,-0.44 0,-0.56 0.92,-0.8 0.88,-0.32 1.2,-0.56 0.32,-0.24 0.32,-0.96 v -19.24 q 0,-1.2 -0.36,-1.92 -0.32,-0.76 -1.24,-0.96 -0.4,-0.08 -0.4,-0.6 0,-0.52 0.36,-0.6 1.08,-0.2 2.6,-0.72 1.56,-0.52 2.76,-0.96 l 0.84,-0.32 q 0.28,-0.12 0.52,-0.12 0.4,0 0.4,0.48 0,0.32 -0.12,1.16 -0.08,0.84 -0.12,1.6 v 22.12 q 0,0.68 0.28,0.96 0.32,0.24 0.72,0.4 0.4,0.12 0.52,0.16 0.48,0.16 0.68,0.36 0.24,0.16 0.24,0.44 0,0.28 -0.24,0.44 -0.2,0.12 -0.56,0.12 -0.84,0 -2.28,-0.08 l -2.08,-0.04 q -0.64,0 -1.92,0.08 -1.08,0.12 -2.24,0.12 z"
       style="font-style:normal;font-variant:normal;font-weight:bold;font-stretch:normal;font-family:'EB Garamond';-inkscape-font-specification:'EB Garamond Bold';text-align:center;text-anchor:middle;fill:#ffffff"
       id="path933" />
    <path
       d="m 564.72121,135.06012 q -0.24,0 -0.44,-0.12 -0.2,-0.16 -0.2,-0.4 0,-0.6 0.72,-0.8 1.08,-0.24 1.48,-0.52 0.4,-0.32 0.4,-0.96 v -8.64 q 0,-1.32 -0.4,-1.92 -0.4,-0.6 -1.32,-0.72 -0.24,-0.04 -0.36,-0.24 -0.12,-0.2 -0.12,-0.48 0,-0.24 0.12,-0.44 0.16,-0.2 0.32,-0.24 1.8,-0.32 3.16,-0.88 1.4,-0.56 3.04,-1.36 0.56,-0.32 0.8,-0.32 0.24,0 0.36,0.16 0.16,0.12 0.16,0.32 l -0.16,1.48 q -0.36,3.04 -0.36,4.4 v 8.84 q 0,0.56 0.4,0.88 0.4,0.32 1.52,0.64 0.36,0.12 0.52,0.28 0.2,0.16 0.2,0.48 0,0.52 -0.6,0.52 -0.84,0 -2.44,-0.08 -1.6,-0.08 -2.28,-0.08 -0.68,0 -2.12,0.08 -1.2,0.12 -2.4,0.12 z m 4.4,-19.84 q -1.28,0 -2.2,-0.92 -0.92,-0.92 -0.92,-2.2 0,-1.36 0.92,-2.28 0.92,-0.92 2.2,-0.92 1.36,0 2.28,0.92 0.96,0.92 0.96,2.28 0,1.28 -0.96,2.2 -0.92,0.92 -2.28,0.92 z"
       style="font-style:normal;font-variant:normal;font-weight:bold;font-stretch:normal;font-family:'EB Garamond';-inkscape-font-specification:'EB Garamond Bold';text-align:center;text-anchor:middle;fill:#ffffff"
       id="path935" />
    <path
       d="m 583.79809,135.50012 q -2.6,0 -3.96,-1.32 -1.32,-1.32 -1.32,-3.8 v -9.2 q 0,-0.36 -0.28,-0.52 -0.28,-0.16 -0.96,-0.2 h -0.52 q -0.24,0 -0.44,-0.44 -0.2,-0.44 -0.2,-0.84 0,-0.28 0.24,-0.4 2,-0.72 5.84,-4.08 0.08,-0.08 0.28,-0.2 0.2,-0.16 0.36,-0.24 0.16,-0.08 0.36,-0.08 0.4,0 0.52,0.16 0.12,0.16 0.08,0.64 l -0.24,2.36 v 0.16 q 0,0.68 0.96,0.68 h 4.76 q 0.12,0 0.24,0.28 0.12,0.28 0.12,0.52 0,0.6 -0.16,1.12 -0.16,0.48 -0.36,0.48 h -3.72 q -0.92,0 -1.28,0.24 -0.32,0.2 -0.32,0.76 v 7.56 q 0,1.8 0.68,2.72 0.68,0.92 1.88,0.92 0.92,0 1.4,-0.12 0.52,-0.16 0.84,-0.32 0.36,-0.16 0.44,-0.2 0.16,-0.08 0.24,-0.08 0.2,0 0.32,0.24 0.12,0.2 0.12,0.56 0,0.28 -0.92,0.96 -0.88,0.64 -2.24,1.16 -1.36,0.52 -2.76,0.52 z"
       style="font-style:normal;font-variant:normal;font-weight:bold;font-stretch:normal;font-family:'EB Garamond';-inkscape-font-specification:'EB Garamond Bold';text-align:center;text-anchor:middle;fill:#ffffff"
       id="path937" />
    <path
       d="m 601.13121,135.06012 q -0.28,0 -0.56,-0.16 -0.24,-0.16 -0.24,-0.4 0,-0.28 0.24,-0.44 0.24,-0.2 0.68,-0.36 0.76,-0.24 1.12,-0.52 0.4,-0.32 0.4,-1.04 v -11.4 q -1.24,0 -2.08,-0.08 -0.24,-0.04 -0.4,-0.44 -0.16,-0.4 -0.16,-0.72 0,-0.28 0.44,-0.4 0.32,-0.12 0.96,-0.36 0.68,-0.28 1.24,-0.56 0.24,-4.04 1.96,-6.6 1.76,-2.6 4.16,-3.72 2.44,-1.16 4.88,-1.16 2.72,0 4.12,0.8 1.44,0.8 1.44,2.36 0,1.28 -0.64,2.12 -0.64,0.8 -1.64,0.8 -0.48,0 -1,-0.44 -0.48,-0.44 -0.92,-1.2 -0.52,-0.84 -1.4,-1.52 -0.88,-0.68 -2.08,-0.68 -1.6,0 -2.64,1.6 -1,1.6 -1,4.72 v 2.04 q 0,0.48 0.24,0.68 0.28,0.16 0.76,0.2 3.44,0.24 4.96,0.24 1.4,0 2.76,-0.12 1.36,-0.4 2.12,-0.76 1.16,-0.52 1.12,-0.52 0.24,0 0.36,0.16 0.16,0.12 0.16,0.32 l -0.16,1.88 q -0.32,2.48 -0.32,4.12 v 8.68 q 0,0.56 0.4,0.92 0.44,0.32 1.48,0.64 0.4,0.16 0.56,0.32 0.2,0.12 0.2,0.44 0,0.52 -0.64,0.52 -0.76,0 -2.44,-0.08 -1.6,-0.08 -2.24,-0.08 -0.68,0 -2.12,0.08 -1.12,0.12 -2.4,0.12 -0.24,0 -0.44,-0.12 -0.2,-0.16 -0.2,-0.4 0,-0.6 0.72,-0.8 1.04,-0.24 1.44,-0.56 0.44,-0.32 0.44,-0.96 v -9.04 q 0,-1.36 -0.44,-1.96 -0.4,-0.6 -1.32,-0.64 -0.44,-0.04 -1.64,-0.04 -1.2,0 -1.76,0.04 -0.96,0 -1.28,0.28 -0.32,0.24 -0.32,0.68 v 10.44 q 0,0.76 0.52,1.12 0.52,0.36 1.56,0.6 0.8,0.2 0.8,0.8 0,0.24 -0.24,0.4 -0.2,0.16 -0.44,0.16 -1.24,0 -2.52,-0.12 -1.52,-0.08 -2.2,-0.08 -0.68,0 -2.04,0.08 -1.08,0.12 -2.32,0.12 z"
       style="font-style:normal;font-variant:normal;font-weight:bold;font-stretch:normal;font-family:'EB Garamond';-inkscape-font-specification:'EB Garamond Bold';text-align:center;text-anchor:middle;fill:#ffffff"
       id="path939" />
    <path
       d="m 624.60309,135.06012 q -0.36,0 -0.6,-0.12 -0.2,-0.16 -0.2,-0.44 0,-0.56 0.92,-0.8 0.88,-0.32 1.2,-0.56 0.32,-0.24 0.32,-0.96 v -19.24 q 0,-1.2 -0.36,-1.92 -0.32,-0.76 -1.24,-0.96 -0.4,-0.08 -0.4,-0.6 0,-0.52 0.36,-0.6 1.08,-0.2 2.6,-0.72 1.56,-0.52 2.76,-0.96 l 0.84,-0.32 q 0.28,-0.12 0.52,-0.12 0.4,0 0.4,0.48 0,0.32 -0.12,1.16 -0.08,0.84 -0.12,1.6 v 22.12 q 0,0.68 0.28,0.96 0.32,0.24 0.72,0.4 0.4,0.12 0.52,0.16 0.48,0.16 0.68,0.36 0.24,0.16 0.24,0.44 0,0.28 -0.24,0.44 -0.2,0.12 -0.56,0.12 -0.84,0 -2.28,-0.08 l -2.08,-0.04 q -0.64,0 -1.92,0.08 -1.08,0.12 -2.24,0.12 z"
       style="font-style:normal;font-variant:normal;font-weight:bold;font-stretch:normal;font-family:'EB Garamond';-inkscape-font-specification:'EB Garamond Bold';text-align:center;text-anchor:middle;fill:#ffffff"
       id="path941" />
    <path
       d="m 642.38434,135.50012 q -2.12,0 -3.84,-1.12 -1.72,-1.16 -2.72,-3.16 -0.96,-2 -0.96,-4.48 0,-2.48 1.16,-4.56 1.16,-2.08 3.16,-3.28 2.04,-1.24 4.4,-1.24 1.68,0 3.08,0.72 1.4,0.72 2.2,2 0.8,1.28 0.8,2.8 0,0.8 -0.32,1.16 -0.28,0.36 -0.92,0.36 h -8 q -0.56,0 -0.84,0.32 -0.24,0.32 -0.24,1.08 0,2.32 1.48,3.92 1.48,1.56 3.72,1.56 1.12,0 2.08,-0.4 0.96,-0.44 2,-1.24 0.4,-0.32 0.56,-0.32 0.4,0 0.4,0.52 0,0.52 -0.32,1.2 -0.64,1.68 -2.52,2.92 -1.84,1.24 -4.36,1.24 z m 0.44,-12.48 q 0.92,0 1.44,-0.04 0.52,-0.04 0.92,-0.16 0.2,-0.08 0.32,-0.4 0.12,-0.32 0.12,-0.72 0,-1.04 -0.76,-1.72 -0.72,-0.72 -1.8,-0.72 -1.24,0 -2.24,1.04 -1,1 -0.96,2.16 0,0.56 0.56,0.56 z"
       style="font-style:normal;font-variant:normal;font-weight:bold;font-stretch:normal;font-family:'EB Garamond';-inkscape-font-specification:'EB Garamond Bold';text-align:center;text-anchor:middle;fill:#ffffff"
       id="path943" />
    <path
       d="m 657.26309,135.50012 q -2.88,0 -4.8,-1.36 -0.36,-0.56 -0.52,-1.8 -0.16,-1.28 -0.12,-2.76 0,-0.48 0.8,-0.48 0.28,0 0.52,0.2 0.24,0.16 0.32,0.4 0.84,1.92 1.84,3 1,1.04 2.32,1.04 1,0 1.6,-0.64 0.6,-0.64 0.6,-1.52 0,-0.96 -0.72,-1.64 -0.72,-0.68 -2.08,-1.4 -2.12,-1.08 -3.36,-2.4 -1.2,-1.32 -1.2,-3.32 0,-2.32 1.84,-3.76 1.84,-1.44 4.6,-1.44 1.2,0 2.32,0.28 1.16,0.28 1.64,0.6 0.32,0.4 0.52,1.52 0.2,1.08 0.2,2.4 0,0.2 -0.24,0.32 -0.2,0.12 -0.48,0.12 -0.28,0 -0.6,-0.2 -0.28,-0.2 -0.36,-0.4 -0.52,-1.56 -1.36,-2.32 -0.8,-0.8 -1.8,-0.8 -0.92,0 -1.64,0.6 -0.68,0.56 -0.68,1.48 0,0.76 0.68,1.44 0.72,0.64 2.04,1.36 2.72,1.44 3.76,2.68 1.08,1.24 1.08,3.28 0,2.64 -1.76,4.08 -1.72,1.44 -4.96,1.44 z"
       style="font-style:normal;font-variant:normal;font-weight:bold;font-stretch:normal;font-family:'EB Garamond';-inkscape-font-specification:'EB Garamond Bold';text-align:center;text-anchor:middle;fill:#ffffff"
       id="path945" />
    <path
       d="m 572.10402,185.5354 q -0.24,0 -0.44,-0.12 -0.2,-0.16 -0.2,-0.4 0,-0.6 0.72,-0.8 1.08,-0.24 1.48,-0.52 0.4,-0.32 0.4,-0.96 v -8.64 q 0,-1.32 -0.4,-1.92 -0.4,-0.6 -1.32,-0.72 -0.24,-0.04 -0.36,-0.24 -0.12,-0.2 -0.12,-0.48 0,-0.24 0.12,-0.44 0.16,-0.2 0.32,-0.24 1.8,-0.32 3.16,-0.88 1.4,-0.56 3.04,-1.36 0.56,-0.32 0.8,-0.32 0.24,0 0.36,0.16 0.16,0.12 0.16,0.32 l -0.16,1.48 q -0.36,3.04 -0.36,4.4 v 8.84 q 0,0.56 0.4,0.88 0.4,0.32 1.52,0.64 0.36,0.12 0.52,0.28 0.2,0.16 0.2,0.48 0,0.52 -0.6,0.52 -0.84,0 -2.44,-0.08 -1.6,-0.08 -2.28,-0.08 -0.68,0 -2.12,0.08 -1.2,0.12 -2.4,0.12 z m 4.4,-19.84 q -1.28,0 -2.2,-0.92 -0.92,-0.92 -0.92,-2.2 0,-1.36 0.92,-2.28 0.92,-0.92 2.2,-0.92 1.36,0 2.28,0.92 0.96,0.92 0.96,2.28 0,1.28 -0.96,2.2 -0.92,0.92 -2.28,0.92 z"
       style="font-style:normal;font-variant:normal;font-weight:bold;font-stretch:normal;font-family:'EB Garamond';-inkscape-font-specification:'EB Garamond Bold';text-align:center;text-anchor:middle;fill:#ffffff"
       id="path947" />
    <path
       d="m 584.0609,185.5354 q -0.28,0 -0.56,-0.16 -0.24,-0.16 -0.24,-0.4 0,-0.48 0.92,-0.8 0.8,-0.24 1.16,-0.52 0.36,-0.28 0.36,-1 v -9.16 q 0,-2 -1.24,-2.24 -0.44,-0.08 -0.44,-0.72 0,-0.56 0.4,-0.68 1.4,-0.32 3.04,-0.88 1.64,-0.56 2.72,-1.12 0.52,-0.32 0.72,-0.32 0.36,0 0.36,0.48 l -0.08,0.8 q -0.12,1.44 -0.12,1.48 0,0.52 0.08,0.6 1.48,-1.4 2.84,-2.08 1.4,-0.68 3.16,-0.68 2.16,0 3.52,1.56 1.4,1.56 1.4,4.16 v 8.8 q 0,0.72 0.36,1 0.36,0.28 1.16,0.52 0.8,0.28 0.8,0.8 0,0.24 -0.2,0.4 -0.2,0.16 -0.48,0.16 -1.2,0 -2.28,-0.12 -1.28,-0.08 -1.96,-0.08 -0.68,0 -1.96,0.08 -1,0.12 -2.24,0.12 -0.28,0 -0.48,-0.16 -0.2,-0.16 -0.2,-0.4 0,-0.52 0.8,-0.8 0.76,-0.24 1.08,-0.52 0.32,-0.28 0.32,-1 v -7.96 q 0,-1.52 -0.68,-2.36 -0.68,-0.88 -1.88,-0.92 -0.84,0 -1.52,0.28 -0.68,0.24 -1.44,0.76 -0.32,0.28 -0.32,0.76 v 9.44 q 0,0.72 0.32,1 0.32,0.24 1.12,0.52 0.8,0.28 0.8,0.8 0,0.24 -0.2,0.4 -0.2,0.16 -0.48,0.16 -1.2,0 -2.16,-0.12 -1.28,-0.08 -1.92,-0.08 -0.68,0 -2.04,0.08 -1.08,0.12 -2.32,0.12 z"
       style="font-style:normal;font-variant:normal;font-weight:bold;font-stretch:normal;font-family:'EB Garamond';-inkscape-font-specification:'EB Garamond Bold';text-align:center;text-anchor:middle;fill:#ffffff"
       id="path949" />
    <path
       d="m 539.45246,236.09068 q -0.36,0 -0.6,-0.2 -0.24,-0.16 -0.24,-0.4 0,-0.28 0.24,-0.48 0.24,-0.24 0.6,-0.36 1.44,-0.4 1.96,-0.88 0.56,-0.52 0.56,-1.68 v -18.32 q 0,-1.32 -0.52,-1.8 -0.48,-0.48 -2.08,-0.84 -0.84,-0.2 -0.84,-0.84 0,-0.28 0.24,-0.44 0.24,-0.16 0.56,-0.16 1.48,0 3.04,0.12 1.92,0.08 2.68,0.08 0.8,0 2.88,-0.08 2.24,-0.08 3.12,-0.08 0.72,0 0.72,0.56 0,0.36 -0.2,0.56 -0.2,0.16 -0.64,0.28 -1.68,0.48 -2.24,1 -0.56,0.48 -0.56,1.64 v 18 q 0,1.12 0.48,1.6 0.48,0.48 1.68,0.48 h 4.08 q 1.64,0 2.84,-1.08 1.2,-1.16 2.12,-3.16 0.36,-0.76 0.6,-1 0.24,-0.28 0.48,-0.28 0.28,0 0.4,0.28 0.16,0.24 0.16,0.52 0,0.12 -0.08,0.36 -0.08,0.2 -0.08,0.44 -0.6,2.16 -0.84,3.12 -0.2,0.96 -0.32,2.28 -0.08,0.76 -0.64,0.76 l -4.6,-0.08 q -8.76,-0.12 -9.28,-0.12 -1.52,0 -3.2,0.12 z"
       style="font-style:normal;font-variant:normal;font-weight:bold;font-stretch:normal;font-family:'EB Garamond';-inkscape-font-specification:'EB Garamond Bold';text-align:center;text-anchor:middle;fill:#ffffff"
       id="path951" />
    <path
       d="m 562.68996,236.01068 q -0.24,0 -0.44,-0.12 -0.2,-0.16 -0.2,-0.4 0,-0.6 0.72,-0.8 1.08,-0.24 1.48,-0.52 0.4,-0.32 0.4,-0.96 v -8.64 q 0,-1.32 -0.4,-1.92 -0.4,-0.6 -1.32,-0.72 -0.24,-0.04 -0.36,-0.24 -0.12,-0.2 -0.12,-0.48 0,-0.24 0.12,-0.44 0.16,-0.2 0.32,-0.24 1.8,-0.32 3.16,-0.88 1.4,-0.56 3.04,-1.36 0.56,-0.32 0.8,-0.32 0.24,0 0.36,0.16 0.16,0.12 0.16,0.32 l -0.16,1.48 q -0.36,3.04 -0.36,4.4 v 8.84 q 0,0.56 0.4,0.88 0.4,0.32 1.52,0.64 0.36,0.12 0.52,0.28 0.2,0.16 0.2,0.48 0,0.52 -0.6,0.52 -0.84,0 -2.44,-0.08 -1.6,-0.08 -2.28,-0.08 -0.68,0 -2.12,0.08 -1.2,0.12 -2.4,0.12 z m 4.4,-19.84 q -1.28,0 -2.2,-0.92 -0.92,-0.92 -0.92,-2.2 0,-1.36 0.92,-2.28 0.92,-0.92 2.2,-0.92 1.36,0 2.28,0.92 0.96,0.92 0.96,2.28 0,1.28 -0.96,2.2 -0.92,0.92 -2.28,0.92 z"
       style="font-style:normal;font-variant:normal;font-weight:bold;font-stretch:normal;font-family:'EB Garamond';-inkscape-font-specification:'EB Garamond Bold';text-align:center;text-anchor:middle;fill:#ffffff"
       id="path953" />
    <path
       d="m 574.64684,236.01068 q -0.28,0 -0.56,-0.16 -0.24,-0.16 -0.24,-0.4 0,-0.48 0.92,-0.8 0.8,-0.24 1.16,-0.52 0.36,-0.28 0.36,-1 v -9.16 q 0,-2 -1.24,-2.24 -0.44,-0.08 -0.44,-0.72 0,-0.56 0.4,-0.68 1.4,-0.32 3.04,-0.88 1.64,-0.56 2.72,-1.12 0.52,-0.32 0.72,-0.32 0.36,0 0.36,0.48 l -0.08,0.8 q -0.12,1.44 -0.12,1.48 0,0.52 0.08,0.6 1.48,-1.4 2.84,-2.08 1.4,-0.68 3.16,-0.68 2.16,0 3.52,1.56 1.4,1.56 1.4,4.16 v 8.8 q 0,0.72 0.36,1 0.36,0.28 1.16,0.52 0.8,0.28 0.8,0.8 0,0.24 -0.2,0.4 -0.2,0.16 -0.48,0.16 -1.2,0 -2.28,-0.12 -1.28,-0.08 -1.96,-0.08 -0.68,0 -1.96,0.08 -1,0.12 -2.24,0.12 -0.28,0 -0.48,-0.16 -0.2,-0.16 -0.2,-0.4 0,-0.52 0.8,-0.8 0.76,-0.24 1.08,-0.52 0.32,-0.28 0.32,-1 v -7.96 q 0,-1.52 -0.68,-2.36 -0.68,-0.88 -1.88,-0.92 -0.84,0 -1.52,0.28 -0.68,0.24 -1.44,0.76 -0.32,0.28 -0.32,0.76 v 9.44 q 0,0.72 0.32,1 0.32,0.24 1.12,0.52 0.8,0.28 0.8,0.8 0,0.24 -0.2,0.4 -0.2,0.16 -0.48,0.16 -1.2,0 -2.16,-0.12 -1.28,-0.08 -1.92,-0.08 -0.68,0 -2.04,0.08 -1.08,0.12 -2.32,0.12 z"
       style="font-style:normal;font-variant:normal;font-weight:bold;font-stretch:normal;font-family:'EB Garamond';-inkscape-font-specification:'EB Garamond Bold';text-align:center;text-anchor:middle;fill:#ffffff"
       id="path955" />
    <path
       d="m 609.50309,236.73068 q -0.32,0 -0.32,-0.4 0,-0.56 0.12,-1.28 l 0.08,-1.24 q 0,-0.36 -0.08,-0.44 -1.12,1.36 -2.84,2.24 -1.68,0.88 -3.48,0.88 -1.88,0 -3.16,-1.6 -1.24,-1.64 -1.24,-4.04 v -7.48 q 0,-1 -0.36,-1.52 -0.36,-0.56 -1.24,-0.72 -0.24,-0.04 -0.44,-0.2 -0.16,-0.2 -0.16,-0.56 0,-0.64 0.6,-0.68 2.6,-0.12 5.8,-0.96 0.16,-0.04 0.4,-0.08 0.28,-0.08 0.44,-0.08 0.56,0 0.52,0.56 -0.32,1.64 -0.32,3.08 v 7.68 q 0,1.44 0.68,2.32 0.68,0.88 1.76,0.92 1.56,0 2.44,-0.88 0.32,-0.28 0.56,-0.88 0.24,-0.64 0.24,-1.6 v -6.44 q 0,-1 -0.6,-1.56 -0.6,-0.6 -1.56,-0.68 -0.48,-0.04 -0.72,-0.24 -0.24,-0.2 -0.24,-0.64 0,-0.4 0.28,-0.6 0.28,-0.2 0.68,-0.2 3.04,-0.2 4.32,-0.32 1.28,-0.12 2.4,-0.4 0.48,-0.12 0.52,-0.12 0.6,0 0.6,0.48 0,0.12 -0.16,0.6 -0.08,0.48 -0.2,1.4 -0.08,0.92 -0.08,1.4 v 9.28 q 0,1.52 0.72,1.52 l 1.12,0.04 q 0.36,0 0.56,0.2 0.2,0.2 0.2,0.52 0,0.4 -0.16,0.6 -0.12,0.2 -0.52,0.24 -2.96,0.28 -6.12,1.6 -0.12,0.04 -0.48,0.16 -0.32,0.12 -0.56,0.12 z"
       style="font-style:normal;font-variant:normal;font-weight:bold;font-stretch:normal;font-family:'EB Garamond';-inkscape-font-specification:'EB Garamond Bold';text-align:center;text-anchor:middle;fill:#ffffff"
       id="path957" />
    <path
       d="m 618.89434,236.05068 q -0.96,0 -0.96,-0.44 0,-0.36 0.16,-0.52 0.2,-0.2 0.6,-0.36 0.48,-0.16 0.92,-0.56 0.48,-0.44 1.24,-1.44 l 3.68,-5.04 q 0.24,-0.32 0.24,-0.52 0,-0.2 -0.2,-0.52 l -3,-4.44 q -0.68,-1 -1.04,-1.4 -0.36,-0.4 -0.92,-0.6 -0.4,-0.12 -0.6,-0.28 -0.16,-0.2 -0.16,-0.56 0,-0.48 0.96,-0.48 0.4,0 2.08,0.12 0.76,0.12 1.92,0.12 0.8,0 1.92,-0.08 0.92,-0.12 2.12,-0.12 0.36,0 0.64,0.12 0.32,0.12 0.32,0.4 0,0.24 -0.16,0.36 -0.16,0.12 -0.4,0.24 -0.24,0.08 -0.36,0.12 -0.56,0.2 -0.84,0.4 -0.28,0.2 -0.28,0.56 0,0.36 0.52,1.24 l 1.84,2.68 q 0.2,0.28 0.36,0 l 1.24,-2.12 q 0.56,-1.12 0.52,-1.76 0,-0.64 -0.72,-0.92 -0.12,-0.04 -0.36,-0.12 -0.24,-0.12 -0.36,-0.24 -0.12,-0.16 -0.12,-0.4 0,-0.28 0.32,-0.4 0.32,-0.12 0.64,-0.12 l 1.28,0.04 q 0.52,0.04 1.32,0.04 0.28,0 1.24,-0.08 l 1.32,-0.08 q 0.96,0 0.96,0.48 0,0.32 -0.2,0.52 -0.16,0.16 -0.56,0.32 -0.48,0.16 -1,0.6 -0.48,0.4 -1.2,1.36 l -2.88,3.84 q -0.24,0.36 -0.24,0.52 0,0.2 0.24,0.52 l 3.36,5.28 q 0.52,0.84 1.2,1.44 0.68,0.6 1.4,0.88 0.4,0.12 0.56,0.32 0.2,0.16 0.2,0.52 0,0.48 -0.96,0.48 -0.32,0 -2.36,-0.12 -1,-0.12 -2.24,-0.12 -0.76,0 -2.12,0.08 -1.08,0.12 -2.4,0.12 -0.44,0 -0.72,-0.12 -0.24,-0.16 -0.24,-0.4 0,-0.32 0.2,-0.44 0.24,-0.16 0.72,-0.32 0.56,-0.16 0.84,-0.48 0.32,-0.36 0.32,-1.04 0,-0.44 -0.08,-0.72 -0.08,-0.32 -0.4,-0.72 l -2.04,-3 q -0.04,-0.04 -0.12,-0.04 -0.08,0 -0.12,0.04 l -1.88,3.32 q -0.56,0.88 -0.56,1.56 0,0.88 0.72,1.2 0.48,0.16 0.68,0.32 0.2,0.12 0.2,0.4 0,0.52 -0.96,0.52 -0.8,0 -1.44,-0.04 -0.6,-0.04 -1,-0.04 -0.68,0 -2.8,0.12 z"
       style="font-style:normal;font-variant:normal;font-weight:bold;font-stretch:normal;font-family:'EB Garamond';-inkscape-font-specification:'EB Garamond Bold';text-align:center;text-anchor:middle;fill:#ffffff"
       id="path959" />
  </g>
</svg>
