<?xml version="1.0" encoding="UTF-8" standalone="no"?>
<svg
   xmlns:osb="http://www.openswatchbook.org/uri/2009/osb"
   xmlns:dc="http://purl.org/dc/elements/1.1/"
   xmlns:cc="http://creativecommons.org/ns#"
   xmlns:rdf="http://www.w3.org/1999/02/22-rdf-syntax-ns#"
   xmlns:svg="http://www.w3.org/2000/svg"
   xmlns="http://www.w3.org/2000/svg"
   xmlns:xlink="http://www.w3.org/1999/xlink"
   id="svg3357"
   version="1.1"
   viewBox="0 0 211.40208 119.0625"
   height="119.0625mm"
   width="211.40208mm">
  <defs
     id="defs3351">
    <linearGradient
       osb:paint="solid"
       id="linearGradient4115">
      <stop
         id="stop4113"
         offset="0"
         style="stop-color:#000000;stop-opacity:1;" />
    </linearGradient>
    <linearGradient
       id="linearGradient6114">
      <stop
         id="stop6110"
         offset="0"
         style="stop-color:#6f7c91;stop-opacity:1;" />
      <stop
         id="stop6112"
         offset="1"
         style="stop-color:#162d50;stop-opacity:1" />
    </linearGradient>
    <radialGradient
       gradientUnits="userSpaceOnUse"
       gradientTransform="matrix(3.0071285,0,0,1.83657,-125.12732,-58.151445)"
       r="31.67275"
       fy="66.986313"
       fx="73.77433"
       cy="66.986313"
       cx="73.77433"
       id="radialGradient6126"
       xlink:href="#linearGradient6114" />
    <filter
       height="1.9923688"
       y="-0.49618438"
       width="1.9711794"
       x="-0.48558968"
       id="filter1486"
       style="color-interpolation-filters:sRGB">
      <feGaussianBlur
         id="feGaussianBlur1488"
         stdDeviation="4.5483568" />
    </filter>
    <filter
       height="1.9923688"
       y="-0.49618438"
       width="1.9426646"
       x="-0.47133231"
       id="filter1490"
       style="color-interpolation-filters:sRGB">
      <feGaussianBlur
         id="feGaussianBlur1492"
         stdDeviation="4.5483568" />
    </filter>
    <filter
       height="1.9923688"
       y="-0.49618438"
       width="1.9542007"
       x="-0.47710037"
       id="filter1494"
       style="color-interpolation-filters:sRGB">
      <feGaussianBlur
         id="feGaussianBlur1496"
         stdDeviation="4.5483568" />
    </filter>
    <filter
       height="1.7277371"
       y="-0.36386853"
       width="2.7720871"
       x="-0.88604355"
       id="filter1498"
       style="color-interpolation-filters:sRGB">
      <feGaussianBlur
         id="feGaussianBlur1500"
         stdDeviation="4.5483568" />
    </filter>
    <filter
       height="1.8026512"
       y="-0.40132561"
       width="2.2265232"
       x="-0.61326158"
       id="filter1502"
       style="color-interpolation-filters:sRGB">
      <feGaussianBlur
         id="feGaussianBlur1504"
         stdDeviation="4.5483568" />
    </filter>
    <filter
       height="1.9923688"
       y="-0.49618438"
       width="1.9542007"
       x="-0.47710037"
       id="filter1506"
       style="color-interpolation-filters:sRGB">
      <feGaussianBlur
         id="feGaussianBlur1508"
         stdDeviation="4.5483568" />
    </filter>
    <filter
       height="1.7277371"
       y="-0.36386853"
       width="2.7720871"
       x="-0.88604355"
       id="filter1510"
       style="color-interpolation-filters:sRGB">
      <feGaussianBlur
         id="feGaussianBlur1512"
         stdDeviation="4.5483568" />
    </filter>
    <filter
       height="1.9923688"
       y="-0.49618438"
       width="2.1323709"
       x="-0.56618547"
       id="filter1514"
       style="color-interpolation-filters:sRGB">
      <feGaussianBlur
         id="feGaussianBlur1516"
         stdDeviation="4.5483568" />
    </filter>
    <filter
       height="1.9923688"
       y="-0.49618438"
       width="2.0916057"
       x="-0.54580283"
       id="filter1518"
       style="color-interpolation-filters:sRGB">
      <feGaussianBlur
         id="feGaussianBlur1520"
         stdDeviation="4.5483568" />
    </filter>
    <filter
       height="1.7375714"
       y="-0.36878568"
       width="2.754993"
       x="-0.87749648"
       id="filter1522"
       style="color-interpolation-filters:sRGB">
      <feGaussianBlur
         id="feGaussianBlur1524"
         stdDeviation="4.5483568" />
    </filter>
    <filter
       height="1.7277371"
       y="-0.36386853"
       width="2.7720871"
       x="-0.88604355"
       id="filter1526"
       style="color-interpolation-filters:sRGB">
      <feGaussianBlur
         id="feGaussianBlur1528"
         stdDeviation="4.5483568" />
    </filter>
    <filter
       height="1.7375714"
       y="-0.36878568"
       width="1.9959905"
       x="-0.49799526"
       id="filter1530"
       style="color-interpolation-filters:sRGB">
      <feGaussianBlur
         id="feGaussianBlur1532"
         stdDeviation="4.5483568" />
    </filter>
    <filter
       height="1.8541515"
       y="-0.42707577"
       width="2.5594366"
       x="-0.77971834"
       id="filter1534"
       style="color-interpolation-filters:sRGB">
      <feGaussianBlur
         id="feGaussianBlur1536"
         stdDeviation="4.5483568" />
    </filter>
    <filter
       height="1.7277371"
       y="-0.36386853"
       width="2.7720871"
       x="-0.88604355"
       id="filter1538"
       style="color-interpolation-filters:sRGB">
      <feGaussianBlur
         id="feGaussianBlur1540"
         stdDeviation="4.5483568" />
    </filter>
    <filter
       height="1.7375714"
       y="-0.36878568"
       width="2.754993"
       x="-0.87749648"
       id="filter1542"
       style="color-interpolation-filters:sRGB">
      <feGaussianBlur
         id="feGaussianBlur1544"
         stdDeviation="4.5483568" />
    </filter>
    <filter
       height="1.7487007"
       y="-0.37435034"
       width="1.8903798"
       x="-0.44518989"
       id="filter1546"
       style="color-interpolation-filters:sRGB">
      <feGaussianBlur
         id="feGaussianBlur1548"
         stdDeviation="4.5483568" />
    </filter>
    <filter
       height="1.7797183"
       y="-0.38985914"
       width="1.9345939"
       x="-0.46729693"
       id="filter1550"
       style="color-interpolation-filters:sRGB">
      <feGaussianBlur
         id="feGaussianBlur1552"
         stdDeviation="4.5483568" />
    </filter>
  </defs>
  <metadata
     id="metadata3354">
    <rdf:RDF>
      <cc:Work
         rdf:about="">
        <dc:format>image/svg+xml</dc:format>
        <dc:type
           rdf:resource="http://purl.org/dc/dcmitype/StillImage" />
        <dc:title></dc:title>
      </cc:Work>
    </rdf:RDF>
  </metadata>
  <g
     id="flowRoot874"
     style="font-style:normal;font-weight:normal;font-size:40px;line-height:1.25;font-family:sans-serif;letter-spacing:0px;word-spacing:0px;fill:#000000;fill-opacity:1;stroke:none"
     transform="matrix(1.1097917,0,0,1.0234149,-1.6397722,-7.1516095)" />
  <g
     id="flowRoot1713"
     style="font-style:normal;font-weight:normal;font-size:40px;line-height:1.25;font-family:sans-serif;letter-spacing:0px;word-spacing:0px;fill:#000000;fill-opacity:1;stroke:none"
     transform="translate(-1.4775493,-4.2705599)" />
  <path
     id="rect6108"
     d="M 0,0 H 211.40208 V 119.0625 H 0 Z"
     style="opacity:1;fill:#555753;fill-opacity:1;stroke:none;stroke-width:4.38045835;stroke-miterlimit:4;stroke-dasharray:none;paint-order:stroke markers fill" />
  <g
     id="g4921"
     transform="matrix(1.1825108,0,0,1.2934259,-94.586312,-87.173686)">
    <g
       transform="translate(50.270828)"
       id="g4720">
      <g
         id="g4694"
         transform="translate(-47.638093,1.3360133)"
         style="fill:#333333">
        <path
           style="fill:#333333;stroke:none;stroke-width:0.26458347px;stroke-linecap:butt;stroke-linejoin:miter;stroke-opacity:1"
           d="m 144.21101,139.55982 c 0,0 5.43081,5.83681 7.33498,3.79847 2.22288,-2.37952 -12.62665,-36.87139 -12.62665,-36.87139"
           id="path835" />
        <path
           id="path817"
           d="m 97.450493,140.21473 c 7.815327,4.80271 15.630577,9.60538 23.402247,9.51796 7.77167,-0.0874 15.49967,-5.06478 19.38543,-7.57529 3.88576,-2.5105 3.92946,-2.5542 3.97284,-2.59758"
           style="fill:#333333;stroke:none;stroke-width:0.26458332px;stroke-linecap:butt;stroke-linejoin:miter;stroke-opacity:1" />
        <path
           id="path825"
           d="m 97.450491,140.21473 c 0,0 -5.430812,5.83681 -7.33498,3.79847 -2.222882,-2.37952 12.820499,-36.99713 12.820499,-36.99713"
           style="fill:#333333;stroke:none;stroke-width:0.26458332px;stroke-linecap:butt;stroke-linejoin:miter;stroke-opacity:1" />
        <path
           transform="matrix(1.0226412,0,0,1.0473654,-2.3339152,-3.6688483)"
           id="path831"
           d="m 102.93926,105.67937 c 0.0862,-6.905162 0.17248,-13.810016 1.50935,-18.736088 1.33687,-4.926072 3.92412,-7.873272 9.74546,-9.346742 5.82134,-1.473471 14.87673,-1.473471 19.40429,3.368239 4.52756,4.84171 4.52756,14.525398 4.52756,24.209361"
           style="fill:#333333;stroke:none;stroke-width:0.26458332px;stroke-linecap:butt;stroke-linejoin:miter;stroke-opacity:1" />
      </g>
      <g
         id="g4708">
        <path
           id="path4696"
           d="m 49.741667,141.68958 c 0,0 3.615973,-22.40139 5.55625,-33.60208 l 35.983333,-0.26458 6.614583,33.07291 z"
           style="fill:#333333;stroke:none;stroke-width:0.26458332px;stroke-linecap:butt;stroke-linejoin:miter;stroke-opacity:1" />
        <path
           id="rect4698"
           d="m 55.5625,138.25 h 37.041668 v 3.96875 H 55.5625 Z"
           style="opacity:1;fill:#333333;fill-opacity:1;stroke:none;stroke-width:0.26458332" />
        <path
           id="rect4700"
           d="m 59.53125,106.5 h 30.427082 v 3.96875 H 59.53125 Z"
           style="opacity:1;fill:#333333;fill-opacity:1;stroke:none;stroke-width:0.26458332" />
        <path
           id="rect4702"
           d="m 84.666664,105.17708 h 5.291669 v 3.96875 h -5.291669 z"
           style="opacity:1;fill:#333333;fill-opacity:1;stroke:none;stroke-width:0.26458332" />
      </g>
    </g>
    <path
       d="m 138.70455,126.61246 a 15.239734,15.867999 0 0 1 -15.17522,15.86785 15.239734,15.867999 0 0 1 -15.3037,-15.73349 15.239734,15.867999 0 0 1 15.04563,-16.00108 15.239734,15.867999 0 0 1 15.4311,15.59801"
       id="path843"
       style="opacity:1;fill:#e6e6e6;fill-opacity:1;stroke:none;stroke-width:0.26458332" />
    <g
       transform="translate(44.751274,16.383515)"
       id="g4688">
      <g
         id="g4596"
         transform="translate(-41.01042,-15.875)"
         style="fill:#ff6600;stroke:none">
        <path
           id="path4585"
           d="m 111.125,110.46875 c 2.9216,-2.67614 5.84316,-5.35225 8.7091,-5.35212 2.86595,1.3e-4 5.6775,2.67624 8.48882,5.35212"
           style="fill:#ff6600;stroke:none;stroke-width:0.26458332px;stroke-linecap:butt;stroke-linejoin:miter;stroke-opacity:1" />
        <path
           id="path4589"
           d="m 111.125,110.46875 c 2.77957,3.92198 5.48174,5.31906 8.73125,6.61458"
           style="fill:#ff6600;stroke:none;stroke-width:0.26458332px;stroke-linecap:butt;stroke-linejoin:miter;stroke-opacity:1" />
        <path
           id="path4591"
           d="m 128.32292,110.46875 c -1.04604,3.82945 -4.9192,5.32533 -8.46667,6.61458"
           style="fill:#ff6600;stroke:none;stroke-width:0.26458332px;stroke-linecap:butt;stroke-linejoin:miter;stroke-opacity:1" />
      </g>
      <g
         style="fill:#ff6600;stroke:none"
         transform="translate(-41.01042,-15.875)"
         id="g4661">
        <path
           style="fill:#ff6600;stroke:none;stroke-width:0.26458332px;stroke-linecap:butt;stroke-linejoin:miter;stroke-opacity:1"
           d="m 111.125,110.46875 c 2.9216,-2.67614 5.84316,-5.35225 8.7091,-5.35212 2.86595,1.3e-4 5.6775,2.67624 8.48882,5.35212"
           id="path4655" />
        <path
           style="fill:#ff6600;stroke:none;stroke-width:0.26458332px;stroke-linecap:butt;stroke-linejoin:miter;stroke-opacity:1"
           d="m 111.125,110.46875 c 2.77957,3.92198 5.48174,5.31906 8.73125,6.61458"
           id="path4657" />
        <path
           style="fill:#ff6600;stroke:none;stroke-width:0.26458332px;stroke-linecap:butt;stroke-linejoin:miter;stroke-opacity:1"
           d="m 128.32292,110.46875 c -1.04604,3.82945 -4.9192,5.32533 -8.46667,6.61458"
           id="path4659" />
      </g>
      <path
         style="opacity:1;fill:#ff6600;fill-opacity:1;stroke:none;stroke-width:0.26458332"
         id="path4671"
         d="m 78.845833,101.20833 -4.582718,-2.645833 v -5.291666 l 4.582718,-2.645833 4.582717,2.645833 v 5.291666 z" />
      <path
         style="opacity:1;fill:#ff6600;fill-opacity:1;stroke:none;stroke-width:0.26458332"
         id="path4673"
         d="m 83.608335,99.620834 2.319854,-2.397701 0.916543,3.207907 z"
         transform="matrix(0.94729327,-1.274616,1.0295753,1.1727506,-98.356248,87.506876)" />
      <path
         style="opacity:1;fill:#ff6600;fill-opacity:1;stroke:none;stroke-width:0.26458332"
         id="path4675"
         d="m 74.536294,98.196559 -3.844516,-2.340158 3.948894,-2.159369 z"
         transform="matrix(1.141627,0.11210349,-0.08749549,1.2944633,-2.2020547,-37.413635)" />
    </g>
    <path
       transform="scale(0.26458333)"
       id="path4722"
       d="m 457.97263,570.35612 c -18.79507,-2.12161 -40.18257,-11.27811 -71.63974,-30.67068 -8.13959,-5.01787 -8.02372,-4.97631 -9.49602,-3.40625 -1.98328,2.11498 -9.29175,8.28788 -11.94887,10.09229 -7.55689,5.13179 -13.40276,5.68891 -14.83103,1.41342 -1.63872,-4.90546 5.4376,-28.95935 18.84332,-64.05245 9.54282,-24.98091 28.41577,-70.80369 29.41653,-71.42219 0.22811,-0.14098 0.37499,-0.42288 0.3264,-0.62644 -0.0486,-0.20356 0.0318,-0.82849 0.17857,-1.38874 0.14681,-0.56024 0.45269,-8.53609 0.67974,-17.7241 0.63732,-25.79 1.66538,-38.59108 4.07232,-50.7069 4.32594,-21.77558 13.30666,-33.82393 30.11939,-40.40761 16.87389,-6.60764 39.99439,-8.13907 57.78976,-3.82784 20.7168,5.019 32.64507,17.2536 38.14208,39.1216 3.4588,13.75967 4.66657,26.50558 4.98055,52.56114 0.20469,16.98608 0.39447,21.14579 0.94912,20.80299 0.62648,-0.38718 21.06718,49.83231 30.13912,74.04694 11.92704,31.8354 17.56985,50.7662 17.56985,58.9443 0,2.59002 -0.1133,3.01447 -1.03188,3.86578 -3.15357,2.92263 -9.30891,0.77622 -18.04824,-6.29354 -2.16747,-1.75339 -5.03522,-4.30389 -6.3728,-5.66777 -1.33757,-1.36388 -2.56841,-2.47978 -2.7352,-2.47978 -0.16679,0 -5.21474,3.17625 -11.21765,7.05833 -6.00292,3.88209 -13.48133,8.58639 -16.6187,10.45401 -26.52636,15.79064 -49.54126,22.54011 -69.26662,20.31349 z m 19.96508,-32.86866 c 5.28911,-1.14072 8.32959,-2.22946 13.85333,-4.9606 18.43404,-9.11449 30.90578,-28.24854 32.34892,-49.62947 0.94243,-13.9626 -2.58151,-27.3736 -10.20264,-38.82794 -3.0137,-4.52952 -10.61003,-12.34927 -14.86401,-15.30119 l -2.90399,-2.01514 0.75119,-1.40422 c 0.41315,-0.77232 1.12926,-2.38761 1.59134,-3.58952 1.00562,-2.61573 1.41642,-1.9763 -5.09101,-7.92451 -5.72644,-5.23434 -11.15932,-9.40512 -14.87195,-11.41709 -10.91899,-5.91728 -20.15604,-3.88649 -33.81841,7.43508 -3.40229,2.81937 -10.37133,9.1079 -10.53264,9.50415 -0.0784,0.19273 0.9084,1.72266 2.19301,3.39982 1.28461,1.67718 2.26556,3.10249 2.1799,3.16736 -0.0857,0.0649 -1.43922,0.95947 -3.00791,1.98798 -15.62369,10.24371 -25.66261,28.29897 -26.56551,47.77875 -1.32187,28.5191 16.86115,54.02186 43.57738,61.11985 2.07246,0.55061 5.05159,1.17715 6.62027,1.39232 4.35042,0.59669 14.44506,0.21127 18.74273,-0.71563 z m 70.79456,-4.85226 c -1.62471,-0.0773 -4.28333,-0.0773 -5.90804,0 -1.62471,0.0773 -0.2954,0.14062 2.95402,0.14062 3.24942,0 4.57873,-0.0633 2.95402,-0.14062 z m -16.9092,-125.06569 c -0.39218,-0.10248 -1.03391,-0.10248 -1.42608,0 -0.39217,0.10248 -0.0713,0.18634 0.71304,0.18634 0.78434,0 1.10521,-0.0839 0.71304,-0.18634 z"
       style="opacity:1;fill:#333333;fill-opacity:1;stroke:none;stroke-width:0.40745068" />
    <path
       id="rect4846"
       d="m 139.81281,107.16256 h 1.38157 v 1.25205 h -1.38157 z"
       style="opacity:1;fill:#333333;fill-opacity:1;stroke:none;stroke-width:0.26458332" />
    <g
       id="g4877">
      <path
         d="m 133.36974,95.882912 a 3.0704114,3.0704114 0 0 1 -3.05741,3.070384 3.0704114,3.0704114 0 0 1 -3.0833,-3.044394 3.0704114,3.0704114 0 0 1 3.03132,-3.096154 3.0704114,3.0704114 0 0 1 3.10895,3.018185"
         id="path4860"
         style="opacity:1;fill:#e6e6e6;fill-opacity:1;stroke:none;stroke-width:0.26458332" />
      <g
         id="g4864"
         transform="matrix(0.80841168,0,0,1,68.549895,-7.3051882)">
        <path
           style="opacity:1;fill:#000000;fill-opacity:1;stroke:none;stroke-width:0.26458332"
           id="path4862"
           d="m 77.375031,103.39364 a 1.6372987,1.2321938 0 0 1 -1.630369,1.23218 1.6372987,1.2321938 0 0 1 -1.64417,-1.22175 1.6372987,1.2321938 0 0 1 1.616451,-1.24253 1.6372987,1.2321938 0 0 1 1.657853,1.21124" />
      </g>
    </g>
    <g
       transform="matrix(-1,0,0,1,248.68829,0.27470384)"
       id="g4885">
      <path
         style="opacity:1;fill:#e6e6e6;fill-opacity:1;stroke:none;stroke-width:0.26458332"
         id="path4879"
         d="m 133.36974,95.882912 a 3.0704114,3.0704114 0 0 1 -3.05741,3.070384 3.0704114,3.0704114 0 0 1 -3.0833,-3.044394 3.0704114,3.0704114 0 0 1 3.03132,-3.096154 3.0704114,3.0704114 0 0 1 3.10895,3.018185" />
      <g
         transform="matrix(0.80841168,0,0,1,68.549895,-7.3051882)"
         id="g4883">
        <path
           d="m 77.375031,103.39364 a 1.6372987,1.2321938 0 0 1 -1.630369,1.23218 1.6372987,1.2321938 0 0 1 -1.64417,-1.22175 1.6372987,1.2321938 0 0 1 1.616451,-1.24253 1.6372987,1.2321938 0 0 1 1.657853,1.21124"
           id="path4881"
           style="opacity:1;fill:#000000;fill-opacity:1;stroke:none;stroke-width:0.26458332" />
      </g>
    </g>
  </g>
  <g
     transform="matrix(1.6020523,0,0,1.786849,233.59755,-234.44324)"
     id="text1143"
     style="font-style:normal;font-weight:normal;font-size:10.58333302px;line-height:1.25;font-family:sans-serif;letter-spacing:0px;word-spacing:0px;fill:#ffffff;fill-opacity:1;stroke:none;stroke-width:0.26458332"
     aria-label="Split  filesinLinux">
    <path
       id="path946"
       style="font-style:normal;font-variant:normal;font-weight:normal;font-stretch:normal;font-family:'Sansita One';-inkscape-font-specification:'Sansita One';text-align:center;text-anchor:middle;fill:#ffffff;stroke-width:0.26458332"
       d="m -82.424757,149.65094 q 0.15875,-0.3175 0.15875,-0.61384 0,-0.29633 -0.03175,-0.45508 -0.03175,-0.16933 -0.105833,-0.29633 -0.15875,-0.27517 -0.47625,-0.27517 -0.391583,0 -0.709083,0.28575 -0.338667,0.29633 -0.338667,0.762 0,0.29633 0.201083,0.52917 0.211667,0.22225 0.529167,0.43391 0.3175,0.21167 0.677333,0.42334 0.359834,0.21166 0.677334,0.46566 0.73025,0.58209 0.73025,1.36525 0,0.52917 -0.28575,0.98425 -0.275167,0.4445 -0.740834,0.77259 -1.016,0.71966 -2.360083,0.71966 -1.090083,0 -1.651,-0.34925 -0.560916,-0.35983 -0.560916,-0.89958 0,-0.96308 0.751416,-1.2065 0.211667,-0.0741 0.529167,-0.0741 0.328083,0 0.6985,0.13758 -0.169334,0.43392 -0.169334,0.8255 0,0.84667 0.60325,0.84667 0.391584,0 0.709084,-0.28575 0.328083,-0.28575 0.328083,-0.60325 0,-0.32809 -0.211667,-0.56092 -0.201083,-0.23283 -0.508,-0.41275 -0.306916,-0.1905 -0.66675,-0.37042 -0.34925,-0.17991 -0.656166,-0.43391 -0.719667,-0.58209 -0.719667,-1.51342 0,-0.60325 0.296333,-1.06892 0.296334,-0.47625 0.772584,-0.79375 0.9525,-0.64558 2.116666,-0.64558 1.17475,0 1.735667,0.34925 0.5715,0.34925 0.5715,0.94192 0,0.51858 -0.402167,0.84666 -0.34925,0.27517 -0.772583,0.27517 -0.423333,0 -0.719667,-0.10583 z" />
    <path
       id="path948"
       style="font-style:normal;font-variant:normal;font-weight:normal;font-stretch:normal;font-family:'Sansita One';-inkscape-font-specification:'Sansita One';text-align:center;text-anchor:middle;fill:#ffffff;stroke-width:0.26458332"
       d="m -75.377911,153.82077 q -0.4445,0.4445 -1.058333,0.68792 -0.60325,0.24341 -1.2065,0.24341 -0.60325,0 -0.814917,-0.10583 l -0.328083,1.79917 -2.148416,0.21166 1.4605,-7.51416 1.725083,-0.17992 -0.137584,0.73025 q 0.4445,-0.75142 1.36525,-0.75142 1.037167,0 1.5875,0.66675 0.486834,0.60325 0.486834,1.524 0,0.92075 -0.243417,1.57692 -0.243417,0.65617 -0.687917,1.11125 z m -2.95275,0.127 q 0.22225,0.1905 0.497417,0.1905 0.275167,0 0.433917,-0.10583 0.15875,-0.10584 0.275166,-0.3175 0.3175,-0.5715 0.5715,-2.30717 0.07408,-0.508 0.07408,-1.00542 0,-0.49741 -0.116417,-0.65616 -0.105833,-0.15875 -0.3175,-0.15875 -0.645583,0 -0.85725,1.25941 z" />
    <path
       id="path950"
       style="font-style:normal;font-variant:normal;font-weight:normal;font-stretch:normal;font-family:'Sansita One';-inkscape-font-specification:'Sansita One';text-align:center;text-anchor:middle;fill:#ffffff;stroke-width:0.26458332"
       d="m -71.289768,153.95835 q -0.328083,0.79375 -1.375833,0.79375 -0.529167,0 -0.867833,-0.37041 -0.275167,-0.30692 -0.275167,-0.65617 0,-0.79375 0.370417,-2.52942 l 0.772583,-4.064 2.148417,-0.21166 -1.026584,5.35516 q -0.179916,0.78317 -0.179916,1.05834 0,0.60325 0.433916,0.62441 z" />
    <path
       id="path952"
       style="font-style:normal;font-variant:normal;font-weight:normal;font-stretch:normal;font-family:'Sansita One';-inkscape-font-specification:'Sansita One';text-align:center;text-anchor:middle;fill:#ffffff;stroke-width:0.26458332"
       d="m -67.84787,153.95835 q -0.328083,0.79375 -1.375833,0.79375 -0.53975,0 -0.878417,-0.37041 -0.28575,-0.32809 -0.28575,-0.65617 0,-0.85725 0.391584,-2.52942 l 0.391583,-2.05316 2.148416,-0.21167 -0.645583,3.34433 q -0.179916,0.78317 -0.179916,1.05834 0,0.60325 0.433916,0.62441 z m -1.566333,-6.2865 q 0,-0.41275 0.338667,-0.635 0.34925,-0.22225 0.846666,-0.22225 0.497417,0 0.79375,0.22225 0.306917,0.22225 0.306917,0.635 0,0.41275 -0.338667,0.62442 -0.328083,0.21167 -0.8255,0.21167 -0.497416,0 -0.814916,-0.21167 -0.306917,-0.21167 -0.306917,-0.62442 z" />
    <path
       id="path954"
       style="font-style:normal;font-variant:normal;font-weight:normal;font-stretch:normal;font-family:'Sansita One';-inkscape-font-specification:'Sansita One';text-align:center;text-anchor:middle;fill:#ffffff;stroke-width:0.26458332"
       d="m -66.78722,153.4821 q 0,-0.28575 0.148167,-1.00541 l 0.560916,-2.8575 h -0.624416 l 0.04233,-0.3175 q 1.27,-0.381 2.497667,-1.31234 h 0.508 l -0.254,1.15359 h 0.8255 l -0.09525,0.47625 h -0.814917 l -0.53975,2.8575 q -0.137583,0.65616 -0.137583,0.87841 0,0.508 0.4445,0.61384 -0.105834,0.35983 -0.486834,0.5715 -0.381,0.21166 -0.92075,0.21166 -0.53975,0 -0.846666,-0.33866 -0.306917,-0.33867 -0.306917,-0.93134 z" />
    <path
       id="path956"
       style="font-style:normal;font-variant:normal;font-weight:normal;font-stretch:normal;font-family:'Sansita One';-inkscape-font-specification:'Sansita One';text-align:center;text-anchor:middle;fill:#ffffff;stroke-width:0.26458332"
       d="m -54.664178,148.4021 q 0.148166,-0.254 0.148166,-0.52916 0,-0.48684 -0.296333,-0.48684 -0.455083,0 -0.645583,0.93134 l -0.15875,0.8255 h 0.963083 l -0.0635,0.47625 h -0.994833 l -0.9525,4.92125 -2.137834,0.21166 1.016,-5.13291 h -0.751416 l 0.09525,-0.47625 h 0.740833 l 0.22225,-0.83609 q 0.1905,-0.77258 1.005417,-1.13241 0.592666,-0.254 1.5875,-0.254 0.994833,0 1.439333,0.254 0.4445,0.254 0.4445,0.59266 0,0.33867 -0.264584,0.55034 -0.264583,0.21166 -0.560916,0.21166 -0.582083,0 -0.836083,-0.127 z" />
    <path
       id="path958"
       style="font-style:normal;font-variant:normal;font-weight:normal;font-stretch:normal;font-family:'Sansita One';-inkscape-font-specification:'Sansita One';text-align:center;text-anchor:middle;fill:#ffffff;stroke-width:0.26458332"
       d="m -51.290741,153.95835 q -0.328083,0.79375 -1.375833,0.79375 -0.53975,0 -0.878417,-0.37041 -0.28575,-0.32809 -0.28575,-0.65617 0,-0.85725 0.391583,-2.52942 l 0.391584,-2.05316 2.148416,-0.21167 -0.645583,3.34433 q -0.179917,0.78317 -0.179917,1.05834 0,0.60325 0.433917,0.62441 z m -1.566333,-6.2865 q 0,-0.41275 0.338666,-0.635 0.34925,-0.22225 0.846667,-0.22225 0.497417,0 0.79375,0.22225 0.306917,0.22225 0.306917,0.635 0,0.41275 -0.338667,0.62442 -0.328083,0.21167 -0.8255,0.21167 -0.497417,0 -0.814917,-0.21167 -0.306916,-0.21167 -0.306916,-0.62442 z" />
    <path
       id="path960"
       style="font-style:normal;font-variant:normal;font-weight:normal;font-stretch:normal;font-family:'Sansita One';-inkscape-font-specification:'Sansita One';text-align:center;text-anchor:middle;fill:#ffffff;stroke-width:0.26458332"
       d="m -47.870008,153.95835 q -0.328083,0.79375 -1.375833,0.79375 -0.529167,0 -0.867833,-0.37041 -0.275167,-0.30692 -0.275167,-0.65617 0,-0.79375 0.370417,-2.52942 l 0.772583,-4.064 2.148416,-0.21166 -1.026583,5.35516 q -0.179917,0.78317 -0.179917,1.05834 0,0.60325 0.433917,0.62441 z" />
    <path
       id="path962"
       style="font-style:normal;font-variant:normal;font-weight:normal;font-stretch:normal;font-family:'Sansita One';-inkscape-font-specification:'Sansita One';text-align:center;text-anchor:middle;fill:#ffffff;stroke-width:0.26458332"
       d="m -42.681862,152.75185 q 0.264583,0.17992 0.264583,0.58209 0,0.39158 -0.201083,0.64558 -0.201083,0.254 -0.529167,0.42333 -0.677333,0.34925 -1.407583,0.34925 -0.73025,0 -1.164167,-0.15875 -0.423333,-0.15875 -0.709083,-0.45508 -0.560917,-0.56092 -0.560917,-1.5875 0,-1.59808 0.867834,-2.57175 0.931333,-1.04775 2.550583,-1.04775 1.005417,0 1.502833,0.42333 0.370417,0.3175 0.370417,0.83609 0,1.86266 -3.217333,1.86266 -0.04233,0.27517 -0.04233,0.508 0,0.48684 0.211667,0.67734 0.22225,0.17991 0.624417,0.17991 0.402166,0 0.8255,-0.17991 0.433916,-0.1905 0.613833,-0.48684 z m -2.159,-1.15358 q 0.751417,0 1.185333,-0.46567 0.433917,-0.4445 0.433917,-1.15358 0,-0.24342 -0.09525,-0.37042 -0.08467,-0.13758 -0.264583,-0.13758 -0.179917,0 -0.338667,0.0741 -0.148167,0.0635 -0.306917,0.29634 -0.391583,0.52916 -0.613833,1.75683 z" />
    <path
       id="path964"
       style="font-style:normal;font-variant:normal;font-weight:normal;font-stretch:normal;font-family:'Sansita One';-inkscape-font-specification:'Sansita One';text-align:center;text-anchor:middle;fill:#ffffff;stroke-width:0.26458332"
       d="m -38.181297,150.82569 q 0.148167,-0.39159 0.148167,-0.73025 0,-0.62442 -0.508,-0.62442 -0.264584,0 -0.486834,0.24342 -0.211666,0.23283 -0.211666,0.52916 0,0.21167 0.169333,0.381 0.243417,0.23284 0.867833,0.61384 0.624417,0.381 0.85725,0.6985 0.243417,0.30691 0.243417,0.74083 0,0.42333 -0.211667,0.81492 -0.201083,0.39158 -0.5715,0.66675 -0.79375,0.59266 -2.06375,0.59266 -0.687916,0 -1.217083,-0.35983 -0.529167,-0.34925 -0.529167,-0.762 0,-0.41275 0.296334,-0.65617 0.306916,-0.24341 0.751416,-0.24341 0.4445,0 0.719667,0.16933 -0.137583,0.34925 -0.137583,0.58208 0,0.6985 0.592666,0.6985 0.254,0 0.423334,-0.15875 0.169333,-0.15875 0.169333,-0.43391 0,-0.53975 -0.910167,-1.11125 -0.740833,-0.48684 -0.910166,-0.67734 -0.28575,-0.33866 -0.28575,-0.762 0,-0.42333 0.201083,-0.8255 0.201083,-0.40216 0.5715,-0.68791 0.772583,-0.59267 2.116667,-0.59267 0.687916,0 1.090083,0.27517 0.41275,0.27516 0.41275,0.74083 0,0.46567 -0.28575,0.73025 -0.275167,0.26458 -0.783167,0.26458 -0.34925,0 -0.518583,-0.11641 z" />
    <path
       id="path966"
       style="font-style:normal;font-variant:normal;font-weight:normal;font-stretch:normal;font-family:'Sansita One';-inkscape-font-specification:'Sansita One';text-align:center;text-anchor:middle;fill:#ffffff;stroke-width:0.26458332"
       d="m -63.868784,167.18752 q -0.328083,0.79375 -1.375833,0.79375 -0.53975,0 -0.878417,-0.37041 -0.28575,-0.32809 -0.28575,-0.65617 0,-0.85725 0.391584,-2.52942 l 0.391583,-2.05316 2.148416,-0.21167 -0.645583,3.34433 q -0.179917,0.78317 -0.179917,1.05834 0,0.60325 0.433917,0.62441 z m -1.566333,-6.2865 q 0,-0.41275 0.338666,-0.635 0.34925,-0.22225 0.846667,-0.22225 0.497417,0 0.79375,0.22225 0.306917,0.22225 0.306917,0.635 0,0.41275 -0.338667,0.62442 -0.328083,0.21167 -0.8255,0.21167 -0.497417,0 -0.814917,-0.21167 -0.306916,-0.21167 -0.306916,-0.62442 z" />
    <path
       id="path968"
       style="font-style:normal;font-variant:normal;font-weight:normal;font-stretch:normal;font-family:'Sansita One';-inkscape-font-specification:'Sansita One';text-align:center;text-anchor:middle;fill:#ffffff;stroke-width:0.26458332"
       d="m -58.500719,167.98127 q -1.280583,0 -1.280583,-0.99483 0.01058,-0.27517 0.09525,-0.74083 l 0.1905,-0.97367 q 0.28575,-1.37583 0.28575,-1.68275 0,-0.61383 -0.359834,-0.61383 -0.60325,0 -0.92075,1.57691 l -0.624416,3.21734 -2.12725,0.21166 1.100666,-5.61975 1.735667,-0.20108 -0.169333,1.03717 q 0.497416,-1.03717 2.021416,-1.03717 0.740834,0 1.04775,0.3175 0.3175,0.30692 0.3175,1.00542 0,0.65616 -0.338666,2.19075 -0.15875,0.68791 -0.15875,0.9525 0,0.254 0.137583,0.40216 0.148167,0.14817 0.359833,0.16934 -0.105833,0.35983 -0.47625,0.5715 -0.359833,0.21166 -0.836083,0.21166 z" />
    <path
       id="path970"
       style="font-style:normal;font-variant:normal;font-weight:normal;font-stretch:normal;font-family:'Sansita One';-inkscape-font-specification:'Sansita One';text-align:center;text-anchor:middle;fill:#ffffff;stroke-width:0.26458332"
       d="m -70.945644,179.36893 q 0.201084,0.254 0.201084,0.75142 0,0.48683 -0.381,0.79375 -0.370417,0.29633 -1.026584,0.29633 -0.381,0 -0.973666,-0.0847 -1.164167,-0.17991 -1.502834,-0.17991 -0.328083,0 -0.465666,0.0212 -0.137584,0.0106 -0.359834,0.0318 l 1.280584,-6.985 h 2.31775 l -1.058334,5.82084 q 0.137584,0.0212 0.264584,0.0212 h 0.264583 q 0.889,0 1.439333,-0.48683 z" />
    <path
       id="path972"
       style="font-style:normal;font-variant:normal;font-weight:normal;font-stretch:normal;font-family:'Sansita One';-inkscape-font-specification:'Sansita One';text-align:center;text-anchor:middle;fill:#ffffff;stroke-width:0.26458332"
       d="m -67.496469,180.41668 q -0.328083,0.79375 -1.375833,0.79375 -0.53975,0 -0.878417,-0.37042 -0.28575,-0.32808 -0.28575,-0.65616 0,-0.85725 0.391583,-2.52942 l 0.391584,-2.05317 2.148416,-0.21166 -0.645583,3.34433 q -0.179917,0.78317 -0.179917,1.05833 0,0.60325 0.433917,0.62442 z m -1.566333,-6.2865 q 0,-0.41275 0.338666,-0.635 0.34925,-0.22225 0.846667,-0.22225 0.497417,0 0.79375,0.22225 0.306916,0.22225 0.306916,0.635 0,0.41275 -0.338666,0.62442 -0.328083,0.21166 -0.8255,0.21166 -0.497417,0 -0.814917,-0.21166 -0.306916,-0.21167 -0.306916,-0.62442 z" />
    <path
       id="path974"
       style="font-style:normal;font-variant:normal;font-weight:normal;font-stretch:normal;font-family:'Sansita One';-inkscape-font-specification:'Sansita One';text-align:center;text-anchor:middle;fill:#ffffff;stroke-width:0.26458332"
       d="m -62.128405,181.21043 q -1.280583,0 -1.280583,-0.99483 0.01058,-0.27517 0.09525,-0.74084 l 0.1905,-0.97366 q 0.28575,-1.37584 0.28575,-1.68275 0,-0.61384 -0.359833,-0.61384 -0.60325,0 -0.92075,1.57692 l -0.624417,3.21733 -2.12725,0.21167 1.100667,-5.61975 1.735666,-0.20108 -0.169333,1.03716 q 0.497417,-1.03716 2.021417,-1.03716 0.740833,0 1.04775,0.3175 0.3175,0.30691 0.3175,1.00541 0,0.65617 -0.338667,2.19075 -0.15875,0.68792 -0.15875,0.9525 0,0.254 0.137583,0.40217 0.148167,0.14817 0.359834,0.16933 -0.105834,0.35984 -0.47625,0.5715 -0.359834,0.21167 -0.836084,0.21167 z" />
    <path
       id="path976"
       style="font-style:normal;font-variant:normal;font-weight:normal;font-stretch:normal;font-family:'Sansita One';-inkscape-font-specification:'Sansita One';text-align:center;text-anchor:middle;fill:#ffffff;stroke-width:0.26458332"
       d="m -56.572651,180.55426 q -0.508,0.65617 -1.767416,0.65617 -0.656167,0 -1.132417,-0.39158 -0.47625,-0.40217 -0.47625,-0.97367 0,-0.3175 0.03175,-0.47625 l 0.709083,-3.76767 2.148417,-0.21166 -0.772583,4.08516 q -0.04233,0.23284 -0.04233,0.37042 0,0.61383 0.370417,0.61383 0.41275,0 0.709083,-0.56091 0.09525,-0.17992 0.137584,-0.41275 l 0.751416,-3.88409 2.084917,-0.21166 -0.783167,4.1275 q -0.03175,0.15875 -0.03175,0.32808 0,0.16933 0.09525,0.35983 0.09525,0.17992 0.402167,0.22225 -0.0635,0.254 -0.28575,0.42334 -0.465667,0.35983 -0.973667,0.35983 -0.497416,0 -0.79375,-0.17992 -0.296333,-0.17991 -0.381,-0.47625 z" />
    <path
       id="path978"
       style="font-style:normal;font-variant:normal;font-weight:normal;font-stretch:normal;font-family:'Sansita One';-inkscape-font-specification:'Sansita One';text-align:center;text-anchor:middle;fill:#ffffff;stroke-width:0.26458332"
       d="m -51.844382,181.03051 q -0.338667,0.17992 -0.804333,0.17992 -0.465667,0 -0.719667,-0.23283 -0.254,-0.24342 -0.254,-0.6985 0,-0.46567 0.3175,-0.91017 0.328084,-0.45508 0.804334,-0.70908 0.486833,-0.254 0.825499,-0.40217 l -0.66675,-1.53458 q -0.179916,-0.39159 -0.518583,-0.39159 l -0.08467,0.0106 h -0.03175 q 0.0635,-0.37042 0.497416,-0.65617 0.433917,-0.29633 0.931333,-0.29633 0.804334,0 1.17475,0.80433 l 0.08467,0.16933 0.455083,1.12184 q 0.28575,-0.127 0.402167,-0.35984 0.127,-0.24341 0.127,-0.70908 0,-0.47625 -0.254,-0.77258 0.402167,-0.254 0.931333,-0.254 0.9525,0 0.9525,0.92075 0,1.00541 -1.259416,1.5875 l -0.635,0.29633 0.5715,1.47108 q 0.169333,0.4445 0.47625,0.635 0.127,0.0847 0.275166,0.0952 -0.3175,0.51859 -1.005416,0.75142 -0.211667,0.0635 -0.497417,0.0635 -0.28575,0 -0.613833,-0.20108 -0.328084,-0.1905 -0.4445,-0.49742 l -0.582084,-1.51342 q -0.592666,0.26459 -0.592666,1.22767 0,0.4445 0.137583,0.80433 z" />
  </g>
</svg>
