<?xml version="1.0" encoding="UTF-8" standalone="no"?>
<svg
   xmlns:dc="http://purl.org/dc/elements/1.1/"
   xmlns:cc="http://creativecommons.org/ns#"
   xmlns:rdf="http://www.w3.org/1999/02/22-rdf-syntax-ns#"
   xmlns:svg="http://www.w3.org/2000/svg"
   xmlns="http://www.w3.org/2000/svg"
   xmlns:xlink="http://www.w3.org/1999/xlink"
   width="211.40207mm"
   height="119.0625mm"
   viewBox="0 0 211.40207 119.0625"
   version="1.1"
   id="svg3357">
  <defs
     id="defs3351">
    <linearGradient
       id="linearGradient6114">
      <stop
         style="stop-color:#6f7c91;stop-opacity:1;"
         offset="0"
         id="stop6110" />
      <stop
         style="stop-color:#162d50;stop-opacity:1"
         offset="1"
         id="stop6112" />
    </linearGradient>
    <radialGradient
       xlink:href="#linearGradient6114"
       id="radialGradient6126"
       cx="73.77433"
       cy="66.986313"
       fx="73.77433"
       fy="66.986313"
       r="31.67275"
       gradientTransform="matrix(3.0071285,0,0,1.83657,-125.12732,-58.151445)"
       gradientUnits="userSpaceOnUse" />
    <filter
       style="color-interpolation-filters:sRGB"
       id="filter1403"
       x="-0.56185555"
       width="2.1237111"
       y="-0.58432978"
       height="2.1686594">
      <feGaussianBlur
         stdDeviation="5.3563562"
         id="feGaussianBlur1405" />
    </filter>
    <filter
       style="color-interpolation-filters:sRGB"
       id="filter1407"
       x="-0.3741343"
       width="1.7482686"
       y="-0.58432978"
       height="2.1686594">
      <feGaussianBlur
         stdDeviation="5.3563562"
         id="feGaussianBlur1409" />
    </filter>
    <filter
       style="color-interpolation-filters:sRGB"
       id="filter1411"
       x="-0.60183775"
       width="2.2036755"
       y="-0.58432978"
       height="2.1686594">
      <feGaussianBlur
         stdDeviation="5.3563562"
         id="feGaussianBlur1413" />
    </filter>
    <filter
       style="color-interpolation-filters:sRGB"
       id="filter1415"
       x="-0.52427632"
       width="2.0485525"
       y="-0.43429914"
       height="1.8685983">
      <feGaussianBlur
         stdDeviation="5.3563562"
         id="feGaussianBlur1417" />
    </filter>
    <filter
       style="color-interpolation-filters:sRGB"
       id="filter1419"
       x="-0.52427632"
       width="2.0485525"
       y="-0.44085237"
       height="1.8817047">
      <feGaussianBlur
         stdDeviation="5.3563562"
         id="feGaussianBlur1421" />
    </filter>
    <filter
       style="color-interpolation-filters:sRGB"
       id="filter1423"
       x="-0.55506283"
       width="2.1101255"
       y="-0.58432978"
       height="2.1686594">
      <feGaussianBlur
         stdDeviation="5.3563562"
         id="feGaussianBlur1425" />
    </filter>
    <filter
       style="color-interpolation-filters:sRGB"
       id="filter1427"
       x="-0.58646238"
       width="2.1729248"
       y="-0.43429914"
       height="1.8685983">
      <feGaussianBlur
         stdDeviation="5.3563562"
         id="feGaussianBlur1429" />
    </filter>
    <filter
       style="color-interpolation-filters:sRGB"
       id="filter1431"
       x="-1.0434459"
       width="3.0868919"
       y="-0.42850849"
       height="1.857017">
      <feGaussianBlur
         stdDeviation="5.3563562"
         id="feGaussianBlur1433" />
    </filter>
    <filter
       style="color-interpolation-filters:sRGB"
       id="filter1435"
       x="-0.60183775"
       width="2.2036755"
       y="-0.58432978"
       height="2.1686594">
      <feGaussianBlur
         stdDeviation="5.3563562"
         id="feGaussianBlur1437" />
    </filter>
    <filter
       style="color-interpolation-filters:sRGB"
       id="filter1439"
       x="-0.9182325"
       width="2.8364649"
       y="-0.50294423"
       height="2.0058885">
      <feGaussianBlur
         stdDeviation="5.3563562"
         id="feGaussianBlur1441" />
    </filter>
    <filter
       style="color-interpolation-filters:sRGB"
       id="filter1443"
       x="-0.55125451"
       width="2.102509"
       y="-0.43429914"
       height="1.8685983">
      <feGaussianBlur
         stdDeviation="5.3563562"
         id="feGaussianBlur1445" />
    </filter>
    <filter
       style="color-interpolation-filters:sRGB"
       id="filter1447"
       x="-0.65454453"
       width="2.3090892"
       y="-0.58432978"
       height="2.1686594">
      <feGaussianBlur
         stdDeviation="5.3563562"
         id="feGaussianBlur1449" />
    </filter>
    <filter
       style="color-interpolation-filters:sRGB"
       id="filter1451"
       x="-0.55892414"
       width="2.1178484"
       y="-0.58432978"
       height="2.1686594">
      <feGaussianBlur
         stdDeviation="5.3563562"
         id="feGaussianBlur1453" />
    </filter>
    <filter
       style="color-interpolation-filters:sRGB"
       id="filter1455"
       x="-0.56681019"
       width="2.1336205"
       y="-0.43429914"
       height="1.8685983">
      <feGaussianBlur
         stdDeviation="5.3563562"
         id="feGaussianBlur1457" />
    </filter>
    <filter
       style="color-interpolation-filters:sRGB"
       id="filter1459"
       x="-0.55698681"
       width="2.1139736"
       y="-0.43429914"
       height="1.8685983">
      <feGaussianBlur
         stdDeviation="5.3563562"
         id="feGaussianBlur1461" />
    </filter>
    <filter
       style="color-interpolation-filters:sRGB"
       id="filter1463"
       x="-0.65454453"
       width="2.3090892"
       y="-0.58432978"
       height="2.1686594">
      <feGaussianBlur
         stdDeviation="5.3563562"
         id="feGaussianBlur1465" />
    </filter>
    <filter
       style="color-interpolation-filters:sRGB"
       id="filter1467"
       x="-0.9182325"
       width="2.8364649"
       y="-0.50294423"
       height="2.0058885">
      <feGaussianBlur
         stdDeviation="5.3563562"
         id="feGaussianBlur1469" />
    </filter>
    <filter
       style="color-interpolation-filters:sRGB"
       id="filter1471"
       x="-1.0434459"
       width="3.0868919"
       y="-0.42850849"
       height="1.857017">
      <feGaussianBlur
         stdDeviation="5.3563562"
         id="feGaussianBlur1473" />
    </filter>
    <filter
       style="color-interpolation-filters:sRGB"
       id="filter1475"
       x="-0.3741343"
       width="1.7482686"
       y="-0.58432978"
       height="2.1686594">
      <feGaussianBlur
         stdDeviation="5.3563562"
         id="feGaussianBlur1477" />
    </filter>
    <filter
       style="color-interpolation-filters:sRGB"
       id="filter1479"
       x="-0.55031055"
       width="2.100621"
       y="-0.45911625"
       height="1.9182324">
      <feGaussianBlur
         stdDeviation="5.3563562"
         id="feGaussianBlur1481" />
    </filter>
  </defs>
  <metadata
     id="metadata3354">
    <rdf:RDF>
      <cc:Work
         rdf:about="">
        <dc:format>image/svg+xml</dc:format>
        <dc:type
           rdf:resource="http://purl.org/dc/dcmitype/StillImage" />
        <dc:title></dc:title>
      </cc:Work>
    </rdf:RDF>
  </metadata>
  <path
     id="rect6108"
     d="M 0,0 H 211.40207 V 119.0625 H 0 Z"
     style="opacity:1;fill:#c83737;fill-opacity:1;stroke:none;stroke-width:4.38045835;stroke-miterlimit:4;stroke-dasharray:none;paint-order:stroke markers fill" />
  <g
     id="flowRoot874"
     style="font-style:normal;font-weight:normal;font-size:40px;line-height:1.25;font-family:sans-serif;letter-spacing:0px;word-spacing:0px;fill:#000000;fill-opacity:1;stroke:none"
     transform="matrix(1.1097917,0,0,1.0234149,-1.6397721,-6.8613634)" />
  <g
     id="flowRoot1087"
     style="font-style:normal;font-weight:normal;font-size:40px;line-height:1.25;font-family:sans-serif;letter-spacing:0px;word-spacing:0px;fill:#000000;fill-opacity:1;stroke:none"
     transform="translate(-1.4775493,-3.9803138)" />
  <g
     transform="matrix(1.1825108,0,0,1.2934259,-97.668834,-89.71389)"
     id="g4921"
     style="display:inline">
    <g
       id="g4720"
       transform="translate(50.270828)">
      <g
         style="fill:#333333"
         transform="translate(-47.638093,1.3360133)"
         id="g4694">
        <path
           id="path835"
           d="m 144.21101,139.55982 c 0,0 5.43081,5.83681 7.33498,3.79847 2.22288,-2.37952 -12.62665,-36.87139 -12.62665,-36.87139"
           style="fill:#333333;stroke:none;stroke-width:0.26458347px;stroke-linecap:butt;stroke-linejoin:miter;stroke-opacity:1" />
        <path
           style="fill:#333333;stroke:none;stroke-width:0.26458332px;stroke-linecap:butt;stroke-linejoin:miter;stroke-opacity:1"
           d="m 97.450493,140.21473 c 7.815327,4.80271 15.630577,9.60538 23.402247,9.51796 7.77167,-0.0874 15.49967,-5.06478 19.38543,-7.57529 3.88576,-2.5105 3.92946,-2.5542 3.97284,-2.59758"
           id="path817" />
        <path
           style="fill:#333333;stroke:none;stroke-width:0.26458332px;stroke-linecap:butt;stroke-linejoin:miter;stroke-opacity:1"
           d="m 97.450491,140.21473 c 0,0 -5.430812,5.83681 -7.33498,3.79847 -2.222882,-2.37952 12.820499,-36.99713 12.820499,-36.99713"
           id="path825" />
        <path
           style="fill:#333333;stroke:none;stroke-width:0.26458332px;stroke-linecap:butt;stroke-linejoin:miter;stroke-opacity:1"
           d="m 102.93926,105.67937 c 0.0862,-6.905162 0.17248,-13.810016 1.50935,-18.736088 1.33687,-4.926072 3.92412,-7.873272 9.74546,-9.346742 5.82134,-1.473471 14.87673,-1.473471 19.40429,3.368239 4.52756,4.84171 4.52756,14.525398 4.52756,24.209361"
           id="path831"
           transform="matrix(1.0226412,0,0,1.0473654,-2.3339152,-3.6688483)" />
      </g>
      <g
         id="g4708">
        <path
           style="fill:#333333;stroke:none;stroke-width:0.26458332px;stroke-linecap:butt;stroke-linejoin:miter;stroke-opacity:1"
           d="m 49.741667,141.68958 c 0,0 3.615973,-22.40139 5.55625,-33.60208 l 35.983333,-0.26458 6.614583,33.07291 z"
           id="path4696" />
        <path
           id="rect4698"
           d="m 55.5625,138.25 h 37.041668 v 3.96875 H 55.5625 Z"
           style="opacity:1;fill:#333333;fill-opacity:1;stroke:none;stroke-width:0.26458332" />
        <path
           id="rect4700"
           d="m 59.53125,106.5 h 30.427082 v 3.96875 H 59.53125 Z"
           style="opacity:1;fill:#333333;fill-opacity:1;stroke:none;stroke-width:0.26458332" />
        <path
           id="rect4702"
           d="m 84.666664,105.17708 h 5.291669 v 3.96875 h -5.291669 z"
           style="opacity:1;fill:#333333;fill-opacity:1;stroke:none;stroke-width:0.26458332" />
      </g>
    </g>
    <path
       style="opacity:1;fill:#e6e6e6;fill-opacity:1;stroke:none;stroke-width:0.26458332"
       id="path843"
       d="m 138.70455,126.61246 a 15.239734,15.867999 0 0 1 -15.17522,15.86785 15.239734,15.867999 0 0 1 -15.3037,-15.73349 15.239734,15.867999 0 0 1 15.04563,-16.00108 15.239734,15.867999 0 0 1 15.4311,15.59801" />
    <g
       id="g4688"
       transform="translate(44.751274,16.383515)">
      <g
         style="fill:#ff6600;stroke:none"
         transform="translate(-41.01042,-15.875)"
         id="g4596">
        <path
           style="fill:#ff6600;stroke:none;stroke-width:0.26458332px;stroke-linecap:butt;stroke-linejoin:miter;stroke-opacity:1"
           d="m 111.125,110.46875 c 2.9216,-2.67614 5.84316,-5.35225 8.7091,-5.35212 2.86595,1.3e-4 5.6775,2.67624 8.48882,5.35212"
           id="path4585" />
        <path
           style="fill:#ff6600;stroke:none;stroke-width:0.26458332px;stroke-linecap:butt;stroke-linejoin:miter;stroke-opacity:1"
           d="m 111.125,110.46875 c 2.77957,3.92198 5.48174,5.31906 8.73125,6.61458"
           id="path4589" />
        <path
           style="fill:#ff6600;stroke:none;stroke-width:0.26458332px;stroke-linecap:butt;stroke-linejoin:miter;stroke-opacity:1"
           d="m 128.32292,110.46875 c -1.04604,3.82945 -4.9192,5.32533 -8.46667,6.61458"
           id="path4591" />
      </g>
      <g
         id="g4661"
         transform="translate(-41.01042,-15.875)"
         style="fill:#ff6600;stroke:none">
        <path
           id="path4655"
           d="m 111.125,110.46875 c 2.9216,-2.67614 5.84316,-5.35225 8.7091,-5.35212 2.86595,1.3e-4 5.6775,2.67624 8.48882,5.35212"
           style="fill:#ff6600;stroke:none;stroke-width:0.26458332px;stroke-linecap:butt;stroke-linejoin:miter;stroke-opacity:1" />
        <path
           id="path4657"
           d="m 111.125,110.46875 c 2.77957,3.92198 5.48174,5.31906 8.73125,6.61458"
           style="fill:#ff6600;stroke:none;stroke-width:0.26458332px;stroke-linecap:butt;stroke-linejoin:miter;stroke-opacity:1" />
        <path
           id="path4659"
           d="m 128.32292,110.46875 c -1.04604,3.82945 -4.9192,5.32533 -8.46667,6.61458"
           style="fill:#ff6600;stroke:none;stroke-width:0.26458332px;stroke-linecap:butt;stroke-linejoin:miter;stroke-opacity:1" />
      </g>
      <path
         d="m 78.845833,101.20833 -4.582718,-2.645833 v -5.291666 l 4.582718,-2.645833 4.582717,2.645833 v 5.291666 z"
         id="path4671"
         style="opacity:1;fill:#ff6600;fill-opacity:1;stroke:none;stroke-width:0.26458332" />
      <path
         transform="matrix(0.94729327,-1.274616,1.0295753,1.1727506,-98.356248,87.506876)"
         d="m 83.608335,99.620834 2.319854,-2.397701 0.916543,3.207907 z"
         id="path4673"
         style="opacity:1;fill:#ff6600;fill-opacity:1;stroke:none;stroke-width:0.26458332" />
      <path
         transform="matrix(1.141627,0.11210349,-0.08749549,1.2944633,-2.2020547,-37.413635)"
         d="m 74.536294,98.196559 -3.844516,-2.340158 3.948894,-2.159369 z"
         id="path4675"
         style="opacity:1;fill:#ff6600;fill-opacity:1;stroke:none;stroke-width:0.26458332" />
    </g>
    <path
       style="opacity:1;fill:#333333;fill-opacity:1;stroke:none;stroke-width:0.40745068"
       d="m 457.97263,570.35612 c -18.79507,-2.12161 -40.18257,-11.27811 -71.63974,-30.67068 -8.13959,-5.01787 -8.02372,-4.97631 -9.49602,-3.40625 -1.98328,2.11498 -9.29175,8.28788 -11.94887,10.09229 -7.55689,5.13179 -13.40276,5.68891 -14.83103,1.41342 -1.63872,-4.90546 5.4376,-28.95935 18.84332,-64.05245 9.54282,-24.98091 28.41577,-70.80369 29.41653,-71.42219 0.22811,-0.14098 0.37499,-0.42288 0.3264,-0.62644 -0.0486,-0.20356 0.0318,-0.82849 0.17857,-1.38874 0.14681,-0.56024 0.45269,-8.53609 0.67974,-17.7241 0.63732,-25.79 1.66538,-38.59108 4.07232,-50.7069 4.32594,-21.77558 13.30666,-33.82393 30.11939,-40.40761 16.87389,-6.60764 39.99439,-8.13907 57.78976,-3.82784 20.7168,5.019 32.64507,17.2536 38.14208,39.1216 3.4588,13.75967 4.66657,26.50558 4.98055,52.56114 0.20469,16.98608 0.39447,21.14579 0.94912,20.80299 0.62648,-0.38718 21.06718,49.83231 30.13912,74.04694 11.92704,31.8354 17.56985,50.7662 17.56985,58.9443 0,2.59002 -0.1133,3.01447 -1.03188,3.86578 -3.15357,2.92263 -9.30891,0.77622 -18.04824,-6.29354 -2.16747,-1.75339 -5.03522,-4.30389 -6.3728,-5.66777 -1.33757,-1.36388 -2.56841,-2.47978 -2.7352,-2.47978 -0.16679,0 -5.21474,3.17625 -11.21765,7.05833 -6.00292,3.88209 -13.48133,8.58639 -16.6187,10.45401 -26.52636,15.79064 -49.54126,22.54011 -69.26662,20.31349 z m 19.96508,-32.86866 c 5.28911,-1.14072 8.32959,-2.22946 13.85333,-4.9606 18.43404,-9.11449 30.90578,-28.24854 32.34892,-49.62947 0.94243,-13.9626 -2.58151,-27.3736 -10.20264,-38.82794 -3.0137,-4.52952 -10.61003,-12.34927 -14.86401,-15.30119 l -2.90399,-2.01514 0.75119,-1.40422 c 0.41315,-0.77232 1.12926,-2.38761 1.59134,-3.58952 1.00562,-2.61573 1.41642,-1.9763 -5.09101,-7.92451 -5.72644,-5.23434 -11.15932,-9.40512 -14.87195,-11.41709 -10.91899,-5.91728 -20.15604,-3.88649 -33.81841,7.43508 -3.40229,2.81937 -10.37133,9.1079 -10.53264,9.50415 -0.0784,0.19273 0.9084,1.72266 2.19301,3.39982 1.28461,1.67718 2.26556,3.10249 2.1799,3.16736 -0.0857,0.0649 -1.43922,0.95947 -3.00791,1.98798 -15.62369,10.24371 -25.66261,28.29897 -26.56551,47.77875 -1.32187,28.5191 16.86115,54.02186 43.57738,61.11985 2.07246,0.55061 5.05159,1.17715 6.62027,1.39232 4.35042,0.59669 14.44506,0.21127 18.74273,-0.71563 z m 70.79456,-4.85226 c -1.62471,-0.0773 -4.28333,-0.0773 -5.90804,0 -1.62471,0.0773 -0.2954,0.14062 2.95402,0.14062 3.24942,0 4.57873,-0.0633 2.95402,-0.14062 z m -16.9092,-125.06569 c -0.39218,-0.10248 -1.03391,-0.10248 -1.42608,0 -0.39217,0.10248 -0.0713,0.18634 0.71304,0.18634 0.78434,0 1.10521,-0.0839 0.71304,-0.18634 z"
       id="path4722"
       transform="scale(0.26458333)" />
    <path
       id="rect4846"
       d="m 139.81281,107.16256 h 1.38157 v 1.25205 h -1.38157 z"
       style="opacity:1;fill:#333333;fill-opacity:1;stroke:none;stroke-width:0.26458332" />
    <g
       id="g4877">
      <path
         style="opacity:1;fill:#e6e6e6;fill-opacity:1;stroke:none;stroke-width:0.26458332"
         id="path4860"
         d="m 133.36974,95.882912 a 3.0704114,3.0704114 0 0 1 -3.05741,3.070384 3.0704114,3.0704114 0 0 1 -3.0833,-3.044394 3.0704114,3.0704114 0 0 1 3.03132,-3.096154 3.0704114,3.0704114 0 0 1 3.10895,3.018185" />
      <g
         transform="matrix(0.80841168,0,0,1,68.549895,-7.3051882)"
         id="g4864">
        <path
           d="m 77.375031,103.39364 a 1.6372987,1.2321938 0 0 1 -1.630369,1.23218 1.6372987,1.2321938 0 0 1 -1.64417,-1.22175 1.6372987,1.2321938 0 0 1 1.616451,-1.24253 1.6372987,1.2321938 0 0 1 1.657853,1.21124"
           id="path4862"
           style="opacity:1;fill:#000000;fill-opacity:1;stroke:none;stroke-width:0.26458332" />
      </g>
    </g>
    <g
       id="g4885"
       transform="matrix(-1,0,0,1,248.68829,0.27470384)">
      <path
         d="m 133.36974,95.882912 a 3.0704114,3.0704114 0 0 1 -3.05741,3.070384 3.0704114,3.0704114 0 0 1 -3.0833,-3.044394 3.0704114,3.0704114 0 0 1 3.03132,-3.096154 3.0704114,3.0704114 0 0 1 3.10895,3.018185"
         id="path4879"
         style="opacity:1;fill:#e6e6e6;fill-opacity:1;stroke:none;stroke-width:0.26458332" />
      <g
         id="g4883"
         transform="matrix(0.80841168,0,0,1,68.549895,-7.3051882)">
        <path
           style="opacity:1;fill:#000000;fill-opacity:1;stroke:none;stroke-width:0.26458332"
           id="path4881"
           d="m 77.375031,103.39364 a 1.6372987,1.2321938 0 0 1 -1.630369,1.23218 1.6372987,1.2321938 0 0 1 -1.64417,-1.22175 1.6372987,1.2321938 0 0 1 1.616451,-1.24253 1.6372987,1.2321938 0 0 1 1.657853,1.21124" />
      </g>
    </g>
  </g>
  <g
     transform="matrix(1.541873,0,0,1.6062023,161.86974,-221.34832)"
     id="text1185"
     style="font-style:normal;font-weight:normal;font-size:10.58333397px;line-height:1.25;font-family:sans-serif;letter-spacing:0px;word-spacing:0px;fill:#ffffff;fill-opacity:1;stroke:none;stroke-width:0.26458335"
     aria-label="Switch  backto ifupdown">
    <path
       id="path956"
       style="font-style:normal;font-variant:normal;font-weight:normal;font-stretch:normal;font-family:'Sansita One';-inkscape-font-specification:'Sansita One';text-align:center;text-anchor:middle;fill:#ffffff;stroke-width:0.26458335"
       d="m -45.887454,157.3112 q 0.15875,-0.3175 0.15875,-0.61383 0,-0.29634 -0.03175,-0.45509 -0.03175,-0.16933 -0.105834,-0.29633 -0.15875,-0.27517 -0.47625,-0.27517 -0.391583,0 -0.709083,0.28575 -0.338667,0.29634 -0.338667,0.762 0,0.29634 0.201084,0.52917 0.211666,0.22225 0.529166,0.43392 0.3175,0.21166 0.677334,0.42333 0.359833,0.21167 0.677333,0.46567 0.73025,0.58208 0.73025,1.36525 0,0.52916 -0.28575,0.98425 -0.275167,0.4445 -0.740833,0.77258 -1.016,0.71967 -2.360084,0.71967 -1.090083,0 -1.651,-0.34925 -0.560917,-0.35984 -0.560917,-0.89959 0,-0.96308 0.751417,-1.2065 0.211667,-0.0741 0.529167,-0.0741 0.328083,0 0.6985,0.13758 -0.169334,0.43392 -0.169334,0.8255 0,0.84667 0.603251,0.84667 0.391583,0 0.709083,-0.28575 0.328083,-0.28575 0.328083,-0.60325 0,-0.32808 -0.211666,-0.56092 -0.201084,-0.23283 -0.508,-0.41275 -0.306917,-0.1905 -0.66675,-0.37041 -0.349251,-0.17992 -0.656167,-0.43392 -0.719667,-0.58208 -0.719667,-1.51342 0,-0.60325 0.296333,-1.06891 0.296334,-0.47625 0.772584,-0.79375 0.9525,-0.64559 2.116667,-0.64559 1.17475,0 1.735666,0.34925 0.5715,0.34925 0.5715,0.94192 0,0.51858 -0.402166,0.84667 -0.34925,0.27516 -0.772584,0.27516 -0.423333,0 -0.719666,-0.10583 z" />
    <path
       id="path958"
       style="font-style:normal;font-variant:normal;font-weight:normal;font-stretch:normal;font-family:'Sansita One';-inkscape-font-specification:'Sansita One';text-align:center;text-anchor:middle;fill:#ffffff;stroke-width:0.26458335"
       d="m -35.877274,160.43328 q -0.6985,0.96309 -1.375834,1.47109 -0.66675,0.508 -1.36525,0.508 -0.687916,0 -0.931333,-0.13759 v -2.32833 q -0.60325,1.60867 -1.68275,2.23308 -0.391584,0.23284 -0.762,0.23284 -0.709084,0 -1.016,-0.13759 -0.07408,-2.42358 -0.137584,-3.09033 -0.0635,-0.67733 -0.116416,-1.09008 -0.105834,-0.8255 -0.465667,-1.16417 0.455083,-0.33867 1.090083,-0.33867 1.227667,0 1.397,1.524 0.04233,0.35984 0.04233,0.74084 0,0.5715 -0.127,2.56116 0.254,-0.11641 0.518583,-0.52916 0.275167,-0.42334 0.497417,-0.99484 0.497416,-1.32291 0.497416,-2.46591 0,-0.17992 -0.05292,-0.37042 -0.04233,-0.1905 -0.09525,-0.24342 0.370416,-0.22225 0.931333,-0.22225 0.5715,0 0.836084,0.39159 0.275166,0.381 0.34925,1.09008 0.08467,0.89958 0.08467,1.43933 0,0.75142 -0.07408,1.86267 0.529167,-0.381 0.963083,-1.62983 0.433917,-1.24884 0.433917,-2.13784 0,-0.39158 -0.0635,-0.62441 0.34925,-0.39159 0.9525,-0.39159 0.370417,0 0.635,0.20109 0.275167,0.20108 0.275167,0.58208 0,0.37042 -0.116417,0.77258 -0.105833,0.40217 -0.28575,0.81492 -0.34925,0.8255 -0.836083,1.47108 z" />
    <path
       id="path960"
       style="font-style:normal;font-variant:normal;font-weight:normal;font-stretch:normal;font-family:'Sansita One';-inkscape-font-specification:'Sansita One';text-align:center;text-anchor:middle;fill:#ffffff;stroke-width:0.26458335"
       d="m -31.80666,161.61862 q -0.328083,0.79375 -1.375833,0.79375 -0.53975,0 -0.878417,-0.37042 -0.28575,-0.32808 -0.28575,-0.65617 0,-0.85725 0.391584,-2.52941 l 0.391583,-2.05317 2.148417,-0.21167 -0.645584,3.34434 q -0.179916,0.78316 -0.179916,1.05833 0,0.60325 0.433916,0.62442 z m -1.566333,-6.2865 q 0,-0.41275 0.338667,-0.635 0.34925,-0.22225 0.846666,-0.22225 0.497417,0 0.79375,0.22225 0.306917,0.22225 0.306917,0.635 0,0.41275 -0.338667,0.62441 -0.328083,0.21167 -0.8255,0.21167 -0.497416,0 -0.814916,-0.21167 -0.306917,-0.21166 -0.306917,-0.62441 z" />
    <path
       id="path962"
       style="font-style:normal;font-variant:normal;font-weight:normal;font-stretch:normal;font-family:'Sansita One';-inkscape-font-specification:'Sansita One';text-align:center;text-anchor:middle;fill:#ffffff;stroke-width:0.26458335"
       d="m -30.74601,161.14237 q 0,-0.28575 0.148167,-1.00542 l 0.560916,-2.8575 h -0.624416 l 0.04233,-0.3175 q 1.27,-0.381 2.497667,-1.31233 h 0.508 l -0.254,1.15358 h 0.8255 l -0.09525,0.47625 h -0.814917 l -0.53975,2.8575 q -0.137583,0.65617 -0.137583,0.87842 0,0.508 0.4445,0.61383 -0.105834,0.35983 -0.486834,0.5715 -0.381,0.21167 -0.92075,0.21167 -0.53975,0 -0.846666,-0.33867 -0.306917,-0.33867 -0.306917,-0.93133 z" />
    <path
       id="path964"
       style="font-style:normal;font-variant:normal;font-weight:normal;font-stretch:normal;font-family:'Sansita One';-inkscape-font-specification:'Sansita One';text-align:center;text-anchor:middle;fill:#ffffff;stroke-width:0.26458335"
       d="m -21.936212,157.79803 q 0,0.4445 -0.370416,0.71967 -0.370417,0.27517 -0.973667,0.27517 -0.254,0 -0.402167,-0.0741 0.116417,-0.27516 0.148167,-0.61383 0.04233,-0.34925 0.04233,-0.4445 0,-0.4445 -0.306916,-0.4445 -0.211667,0 -0.455084,0.26458 -0.232833,0.26459 -0.433916,0.67734 -0.4445,0.9525 -0.4445,1.91558 0,0.52917 0.201083,0.77258 0.201083,0.23284 0.645583,0.23284 0.613834,0 1.100667,-0.508 0.137583,-0.15875 0.211667,-0.33867 0.402166,0.21167 0.402166,0.79375 0,0.59267 -0.656166,0.98425 -0.677334,0.40217 -1.756834,0.40217 -2.148416,0 -2.148416,-2.27542 0,-1.66158 0.941916,-2.61408 0.910167,-0.93134 2.582334,-0.93134 1.672166,0 1.672166,1.2065 z" />
    <path
       id="path966"
       style="font-style:normal;font-variant:normal;font-weight:normal;font-stretch:normal;font-family:'Sansita One';-inkscape-font-specification:'Sansita One';text-align:center;text-anchor:middle;fill:#ffffff;stroke-width:0.26458335"
       d="m -16.33151,161.02595 q 0,0.46567 0.47625,0.60325 -0.116417,0.39158 -0.5715,0.60325 -0.381,0.17992 -0.804334,0.17992 -0.41275,0 -0.635,-0.11642 -0.211666,-0.10583 -0.328083,-0.28575 -0.1905,-0.27517 -0.1905,-0.79375 0,-0.30692 0.169333,-1.15358 l 0.148167,-0.80434 q 0.179917,-0.92075 0.179917,-1.25941 0,-0.59267 -0.328084,-0.59267 -0.41275,0 -0.677333,0.60325 -0.105833,0.23283 -0.179917,0.58208 l -0.719667,3.60892 -2.12725,0.21167 1.49225,-7.62 2.127251,-0.21167 -0.08467,0.42333 q -0.296333,1.62984 -0.550333,2.18017 0.592666,-0.59267 1.68275,-0.59267 1.153583,0 1.36525,0.762 0.07408,0.24342 0.07408,0.45509 0,0.21166 -0.02117,0.381 -0.01058,0.15875 -0.0635,0.45508 l -0.137583,0.762 -0.243417,1.19592 q -0.05292,0.24341 -0.05292,0.42333 z" />
    <path
       id="path968"
       style="font-style:normal;font-variant:normal;font-weight:normal;font-stretch:normal;font-family:'Sansita One';-inkscape-font-specification:'Sansita One';text-align:center;text-anchor:middle;fill:#ffffff;stroke-width:0.26458335"
       d="m -10.795765,161.6927 1.3123338,-6.90033 2.1484168,-0.21167 -0.3280833,1.61925 q -0.1164167,0.49742 -0.2645834,0.84667 0.2328334,-0.29634 0.7408334,-0.41275 0.1481667,-0.0423 0.3280834,-0.0423 0.98425,0 1.524,0.60325 0.5397501,0.59267 0.5397501,1.74625 0,1.50284 -0.8572501,2.44475 -0.92075,1.02659 -2.5929168,1.02659 -1.1535834,0 -2.0214169,-0.381 -0.306917,-0.13759 -0.529167,-0.33867 z m 2.1272505,-0.0952 q 0.2222501,0.1905 0.4974167,0.1905 0.2751667,0 0.4339167,-0.10583 0.15875,-0.10584 0.2751667,-0.3175 0.3175,-0.5715 0.5715001,-2.31775 0.074083,-0.49742 0.074083,-0.99484 0,-0.49741 -0.1164167,-0.65616 -0.1058333,-0.15875 -0.3175,-0.15875 -0.6455834,0 -0.8572501,1.25941 z" />
    <path
       id="path970"
       style="font-style:normal;font-variant:normal;font-weight:normal;font-stretch:normal;font-family:'Sansita One';-inkscape-font-specification:'Sansita One';text-align:center;text-anchor:middle;fill:#ffffff;stroke-width:0.26458335"
       d="m -3.7125393,161.8832 q -0.2434166,-0.27517 -0.3598333,-0.70908 -0.1058333,-0.43392 -0.1058333,-1.143 0,-0.70909 0.2434166,-1.35467 0.2434167,-0.64558 0.6879167,-1.11125 0.9101668,-0.97367 2.41300019,-0.97367 0.53975003,0 0.93133339,0.17992 l 1.80975012,-0.17992 -0.7831667,4.1275 q -0.03175,0.127 -0.03175,0.35984 0,0.23283 0.1375833,0.381 0.1481667,0.14816 0.3598334,0.16933 -0.1058334,0.35983 -0.4974167,0.5715 -0.38100005,0.21167 -0.81491675,0.21167 -0.43391669,0 -0.73025004,-0.16934 -0.28575002,-0.15875 -0.37041669,-0.43391 -0.16933334,0.26458 -0.52916672,0.43391 -0.3598333,0.16934 -0.8466667,0.16934 -0.47625,0 -0.8678334,-0.127 -0.3915833,-0.127 -0.6455834,-0.40217 z m 2.2330835,-4.29683 q -0.1164167,0.1905 -0.22225,0.51858 -0.1058333,0.3175 -0.28575,1.18533 -0.1693334,0.85725 -0.1693334,1.47109 0,0.61383 0.09525,0.79375 0.09525,0.17991 0.2645834,0.17991 0.3386667,0 0.5820834,-0.3175 0.25399998,-0.32808 0.34924999,-0.89958 l 0.5609167,-3.10092 q -0.22225002,-0.1905 -0.48683337,-0.1905 -0.25400002,0 -0.41275002,0.0847 -0.1481667,0.0847 -0.2751667,0.27517 z" />
    <path
       id="path972"
       style="font-style:normal;font-variant:normal;font-weight:normal;font-stretch:normal;font-family:'Sansita One';-inkscape-font-specification:'Sansita One';text-align:center;text-anchor:middle;fill:#ffffff;stroke-width:0.26458335"
       d="m 7.6433802,157.79803 q 0,0.4445 -0.3704166,0.71967 -0.3704167,0.27517 -0.9736668,0.27517 -0.254,0 -0.4021667,-0.0741 0.1164167,-0.27516 0.1481667,-0.61383 0.042333,-0.34925 0.042333,-0.4445 0,-0.4445 -0.3069166,-0.4445 -0.2116667,0 -0.4550834,0.26458 -0.2328333,0.26459 -0.4339167,0.67734 -0.4445,0.9525 -0.4445,1.91558 0,0.52917 0.2010833,0.77258 0.2010834,0.23284 0.6455834,0.23284 0.6138334,0 1.1006667,-0.508 0.1375834,-0.15875 0.2116667,-0.33867 0.4021667,0.21167 0.4021667,0.79375 0,0.59267 -0.6561667,0.98425 -0.6773334,0.40217 -1.7568334,0.40217 -2.1484168,0 -2.1484168,-2.27542 0,-1.66158 0.9419167,-2.61408 0.9101667,-0.93134 2.5823335,-0.93134 1.6721667,0 1.6721667,1.2065 z" />
    <path
       id="path974"
       style="font-style:normal;font-variant:normal;font-weight:normal;font-stretch:normal;font-family:'Sansita One';-inkscape-font-specification:'Sansita One';text-align:center;text-anchor:middle;fill:#ffffff;stroke-width:0.26458335"
       d="m 10.655167,157.1842 q 0.5715,-0.59267 1.778,-0.59267 0.66675,0 1.026583,0.35984 0.370417,0.34925 0.370417,1.00541 0,0.64559 -0.370417,1.11125 -0.359833,0.45509 -1.037167,0.64559 0.05292,0.21166 0.127,0.43391 l 0.148167,0.42334 q 0.201083,0.53975 0.359833,0.73025 0.15875,0.1905 0.370417,0.254 -0.116417,0.43391 -0.53975,0.66675 -0.338667,0.1905 -0.804333,0.1905 -1.36525,0 -1.545167,-2.10609 -0.03175,-0.29633 -0.03175,-0.59266 0.529167,-0.14817 0.899583,-0.64559 0.370417,-0.49741 0.370417,-1.0795 0,-0.58208 -0.41275,-0.58208 -0.296333,0 -0.529167,0.32808 -0.232833,0.32809 -0.338666,0.889 l -0.6985005,3.57717 -2.1378335,0.21167 1.4816668,-7.62 2.1272502,-0.21167 -0.243417,1.25942 q -0.15875,0.889 -0.370416,1.34408 z" />
    <path
       id="path976"
       style="font-style:normal;font-variant:normal;font-weight:normal;font-stretch:normal;font-family:'Sansita One';-inkscape-font-specification:'Sansita One';text-align:center;text-anchor:middle;fill:#ffffff;stroke-width:0.26458335"
       d="m -23.790363,174.57024 q 0,-0.28575 0.148167,-1.00542 l 0.560917,-2.8575 h -0.624417 l 0.04233,-0.3175 q 1.270001,-0.381 2.497667,-1.31233 h 0.508 l -0.254,1.15358 h 0.8255 l -0.09525,0.47625 h -0.814916 l -0.53975,2.8575 q -0.137584,0.65617 -0.137584,0.87842 0,0.508 0.4445,0.61383 -0.105833,0.35983 -0.486833,0.5715 -0.381,0.21167 -0.92075,0.21167 -0.53975,0 -0.846667,-0.33867 -0.306917,-0.33867 -0.306917,-0.93133 z" />
    <path
       id="path978"
       style="font-style:normal;font-variant:normal;font-weight:normal;font-stretch:normal;font-family:'Sansita One';-inkscape-font-specification:'Sansita One';text-align:center;text-anchor:middle;fill:#ffffff;stroke-width:0.26458335"
       d="m -17.869814,175.84024 q -2.328333,0 -2.328333,-2.19075 0,-1.55575 0.85725,-2.56117 0.910166,-1.06892 2.487083,-1.06892 1.143,0 1.725083,0.52917 0.582084,0.52917 0.582084,1.64042 0,1.69333 -0.910167,2.67758 -0.889,0.97367 -2.413,0.97367 z m 0.275167,-4.60375 q -0.127,0.28575 -0.232834,0.71966 -0.09525,0.42334 -0.22225,1.10067 -0.127,0.67733 -0.127,1.51342 0,0.27516 0.08467,0.45508 0.09525,0.17992 0.338667,0.17992 0.243416,0 0.391583,-0.11642 0.15875,-0.11642 0.275167,-0.39158 0.211666,-0.48684 0.381,-1.38642 0.169333,-0.91017 0.179916,-1.30175 0.02117,-0.39158 0.02117,-0.67733 0,-0.29634 -0.08467,-0.48684 -0.08467,-0.1905 -0.328083,-0.1905 -0.232833,0 -0.391583,0.14817 -0.15875,0.14817 -0.28575,0.43392 z" />
    <path
       id="path980"
       style="font-style:normal;font-variant:normal;font-weight:normal;font-stretch:normal;font-family:'Sansita One';-inkscape-font-specification:'Sansita One';text-align:center;text-anchor:middle;fill:#ffffff;stroke-width:0.26458335"
       d="m -40.085224,188.47434 q -0.328084,0.79375 -1.375834,0.79375 -0.53975,0 -0.878416,-0.37041 -0.28575,-0.32809 -0.28575,-0.65617 0,-0.85725 0.391583,-2.52942 l 0.391583,-2.05316 2.148417,-0.21167 -0.645583,3.34433 q -0.179917,0.78317 -0.179917,1.05834 0,0.60325 0.433917,0.62441 z m -1.566334,-6.2865 q 0,-0.41275 0.338667,-0.635 0.34925,-0.22225 0.846667,-0.22225 0.497416,0 0.79375,0.22225 0.306917,0.22225 0.306917,0.635 0,0.41275 -0.338667,0.62442 -0.328084,0.21167 -0.8255,0.21167 -0.497417,0 -0.814917,-0.21167 -0.306917,-0.21167 -0.306917,-0.62442 z" />
    <path
       id="path982"
       style="font-style:normal;font-variant:normal;font-weight:normal;font-stretch:normal;font-family:'Sansita One';-inkscape-font-specification:'Sansita One';text-align:center;text-anchor:middle;fill:#ffffff;stroke-width:0.26458335"
       d="m -35.066409,182.91809 q 0.148167,-0.254 0.148167,-0.52916 0,-0.48684 -0.296333,-0.48684 -0.455084,0 -0.645584,0.93134 l -0.15875,0.8255 h 0.963084 l -0.0635,0.47625 h -0.994834 l -0.9525,4.92125 -2.137833,0.21166 1.016,-5.13291 h -0.751417 l 0.09525,-0.47625 h 0.740833 l 0.22225,-0.83609 q 0.1905,-0.77258 1.005417,-1.13241 0.592667,-0.254 1.5875,-0.254 0.994834,0 1.439334,0.254 0.4445,0.254 0.4445,0.59266 0,0.33867 -0.264584,0.55034 -0.264583,0.21166 -0.560916,0.21166 -0.582084,0 -0.836084,-0.127 z" />
    <path
       id="path984"
       style="font-style:normal;font-variant:normal;font-weight:normal;font-stretch:normal;font-family:'Sansita One';-inkscape-font-specification:'Sansita One';text-align:center;text-anchor:middle;fill:#ffffff;stroke-width:0.26458335"
       d="m -31.745226,188.61193 q -0.508,0.65616 -1.767417,0.65616 -0.656167,0 -1.132417,-0.39158 -0.47625,-0.40217 -0.47625,-0.97367 0,-0.3175 0.03175,-0.47625 l 0.709084,-3.76766 2.148417,-0.21167 -0.772584,4.08517 q -0.04233,0.23283 -0.04233,0.37041 0,0.61384 0.370416,0.61384 0.412751,0 0.709084,-0.56092 0.09525,-0.17992 0.137583,-0.41275 l 0.751417,-3.88408 2.084917,-0.21167 -0.783167,4.1275 q -0.03175,0.15875 -0.03175,0.32808 0,0.16934 0.09525,0.35984 0.09525,0.17991 0.402167,0.22225 -0.0635,0.254 -0.28575,0.42333 -0.465667,0.35983 -0.973667,0.35983 -0.497417,0 -0.79375,-0.17991 -0.296333,-0.17992 -0.381,-0.47625 z" />
    <path
       id="path986"
       style="font-style:normal;font-variant:normal;font-weight:normal;font-stretch:normal;font-family:'Sansita One';-inkscape-font-specification:'Sansita One';text-align:center;text-anchor:middle;fill:#ffffff;stroke-width:0.26458335"
       d="m -23.492706,188.33676 q -0.4445,0.4445 -1.058334,0.68792 -0.60325,0.24341 -1.2065,0.24341 -0.60325,0 -0.814916,-0.10583 l -0.328084,1.79917 -2.148417,0.21166 1.460501,-7.51416 1.725083,-0.17992 -0.137583,0.73025 q 0.4445,-0.75142 1.36525,-0.75142 1.037166,0 1.5875,0.66675 0.486833,0.60325 0.486833,1.524 0,0.92075 -0.243416,1.57692 -0.243417,0.65617 -0.687917,1.11125 z m -2.95275,0.127 q 0.22225,0.1905 0.497416,0.1905 0.275167,0 0.433917,-0.10583 0.15875,-0.10584 0.275167,-0.3175 0.3175,-0.5715 0.5715,-2.30717 0.07408,-0.508 0.07408,-1.00542 0,-0.49741 -0.116417,-0.65616 -0.105833,-0.15875 -0.3175,-0.15875 -0.645583,0 -0.85725,1.25941 z" />
    <path
       id="path988"
       style="font-style:normal;font-variant:normal;font-weight:normal;font-stretch:normal;font-family:'Sansita One';-inkscape-font-specification:'Sansita One';text-align:center;text-anchor:middle;fill:#ffffff;stroke-width:0.26458335"
       d="m -18.60023,183.44726 q 0.381,0 0.677333,0.0847 0.01058,-0.0423 0.03175,-0.15875 l 0.05292,-0.32809 q 0.04233,-0.21166 0.105833,-0.56091 l 0.169334,-0.83609 2.106083,-0.21166 -1.17475,6.13833 q -0.01058,0.0635 -0.01058,0.16933 v 0.16934 q 0,0.23283 0.116416,0.41275 0.116417,0.16933 0.306917,0.16933 -0.211667,0.49742 -0.85725,0.70908 -0.22225,0.0635 -0.53975,0.0635 -0.306917,0 -0.592667,-0.16933 -0.28575,-0.15875 -0.370416,-0.43392 -0.169334,0.27517 -0.508,0.43392 -0.338667,0.16933 -0.836084,0.16933 -0.486833,0 -0.899583,-0.127 -0.402167,-0.127 -0.656167,-0.40216 -0.465667,-0.53975 -0.465667,-1.76742 0,-1.5875 0.931334,-2.55058 0.931333,-0.97367 2.413,-0.97367 z m -0.07408,0.635 q -0.391584,0 -0.60325,0.42333 -0.211667,0.42334 -0.433917,1.47109 -0.211667,1.04775 -0.211667,1.98966 0,0.64559 0.381,0.64559 0.338667,0 0.5715,-0.33867 0.243417,-0.33867 0.338667,-0.89958 l 0.5715,-3.10092 q -0.22225,-0.1905 -0.613833,-0.1905 z" />
    <path
       id="path990"
       style="font-style:normal;font-variant:normal;font-weight:normal;font-stretch:normal;font-family:'Sansita One';-inkscape-font-specification:'Sansita One';text-align:center;text-anchor:middle;fill:#ffffff;stroke-width:0.26458335"
       d="m -13.012229,189.26809 q -2.328334,0 -2.328334,-2.19075 0,-1.55575 0.85725,-2.56116 0.910167,-1.06892 2.487084,-1.06892 1.143,0 1.725083,0.52917 0.5820834,0.52916 0.5820834,1.64041 0,1.69334 -0.9101664,2.67759 -0.889,0.97366 -2.413,0.97366 z m 0.275166,-4.60375 q -0.127,0.28575 -0.232833,0.71967 -0.09525,0.42333 -0.22225,1.10067 -0.127,0.67733 -0.127,1.51341 0,0.27517 0.08467,0.45509 0.09525,0.17991 0.338666,0.17991 0.243417,0 0.391584,-0.11641 0.15875,-0.11642 0.275166,-0.39159 0.211667,-0.48683 0.381,-1.38641 0.169334,-0.91017 0.179917,-1.30175 0.02117,-0.39159 0.02117,-0.67734 0,-0.29633 -0.08467,-0.48683 -0.08467,-0.1905 -0.328083,-0.1905 -0.232834,0 -0.391584,0.14817 -0.15875,0.14816 -0.28575,0.43391 z" />
    <path
       id="path992"
       style="font-style:normal;font-variant:normal;font-weight:normal;font-stretch:normal;font-family:'Sansita One';-inkscape-font-specification:'Sansita One';text-align:center;text-anchor:middle;fill:#ffffff;stroke-width:0.26458335"
       d="m -1.2437291,187.28901 q -0.6985,0.96308 -1.3758334,1.47108 -0.66675,0.508 -1.3652501,0.508 -0.6879167,0 -0.9313334,-0.13758 v -2.32833 q -0.60325,1.60866 -1.6827501,2.23308 -0.3915833,0.23283 -0.762,0.23283 -0.7090834,0 -1.0160001,-0.13758 -0.074083,-2.42358 -0.1375833,-3.09033 -0.0635,-0.67734 -0.1164167,-1.09009 -0.1058333,-0.8255 -0.4656667,-1.16416 0.4550834,-0.33867 1.0900834,-0.33867 1.2276667,0 1.3970001,1.524 0.042333,0.35983 0.042333,0.74083 0,0.5715 -0.127,2.56117 0.254,-0.11642 0.5185834,-0.52917 0.2751667,-0.42333 0.4974167,-0.99483 0.4974167,-1.32292 0.4974167,-2.46592 0,-0.17991 -0.052917,-0.37041 -0.042333,-0.1905 -0.09525,-0.24342 0.3704167,-0.22225 0.9313334,-0.22225 0.5715,0 0.8360834,0.39158 0.2751667,0.381 0.34925,1.09009 0.084667,0.89958 0.084667,1.43933 0,0.75142 -0.074083,1.86267 0.5291667,-0.381 0.9630834,-1.62984 0.4339167,-1.24883 0.4339167,-2.13783 0,-0.39158 -0.0635,-0.62442 0.34925,-0.39158 0.95250007,-0.39158 0.37041669,0 0.63500003,0.20108 0.27516669,0.20109 0.27516669,0.58209 0,0.37041 -0.11641668,0.77258 -0.10583334,0.40217 -0.28575001,0.81492 -0.34925002,0.8255 -0.8360835,1.47108 z" />
    <path
       id="path994"
       style="font-style:normal;font-variant:normal;font-weight:normal;font-stretch:normal;font-family:'Sansita One';-inkscape-font-specification:'Sansita One';text-align:center;text-anchor:middle;fill:#ffffff;stroke-width:0.26458335"
       d="m 4.7636391,189.26809 q -1.2805834,0 -1.2805834,-0.99483 0.010583,-0.27517 0.09525,-0.74083 l 0.1905,-0.97367 q 0.28575,-1.37583 0.28575,-1.68275 0,-0.61383 -0.3598333,-0.61383 -0.6032501,0 -0.9207501,1.57691 l -0.6244167,3.21734 -2.12725011,0.21166 1.10066671,-5.61975 1.7356668,-0.20108 -0.1693334,1.03717 q 0.4974167,-1.03717 2.0214168,-1.03717 0.7408334,0 1.0477501,0.3175 0.3175,0.30692 0.3175,1.00542 0,0.65616 -0.3386667,2.19075 -0.15875,0.68791 -0.15875,0.9525 0,0.254 0.1375834,0.40216 0.1481666,0.14817 0.3598333,0.16934 -0.1058333,0.35983 -0.47625,0.5715 -0.3598334,0.21166 -0.8360834,0.21166 z" />
  </g>
</svg>
