<?xml version="1.0" encoding="UTF-8" standalone="no"?>
<svg
   xmlns:dc="http://purl.org/dc/elements/1.1/"
   xmlns:cc="http://creativecommons.org/ns#"
   xmlns:rdf="http://www.w3.org/1999/02/22-rdf-syntax-ns#"
   xmlns:svg="http://www.w3.org/2000/svg"
   xmlns="http://www.w3.org/2000/svg"
   xmlns:xlink="http://www.w3.org/1999/xlink"
   width="444.5mm"
   height="277.8125mm"
   viewBox="0 0 444.5 277.8125"
   version="1.1"
   id="svg3357">
  <defs
     id="defs3351">
    <linearGradient
       id="linearGradient919">
      <stop
         id="stop915"
         offset="0"
         style="stop-color:#1da1f2;stop-opacity:1;" />
      <stop
         style="stop-color:#42b0f1;stop-opacity:1"
         offset="0"
         id="stop923" />
      <stop
         id="stop917"
         offset="1"
         style="stop-color:#27a6f2;stop-opacity:1" />
    </linearGradient>
    <linearGradient
       id="linearGradient6114">
      <stop
         style="stop-color:#6f7c91;stop-opacity:1;"
         offset="0"
         id="stop6110" />
      <stop
         style="stop-color:#162d50;stop-opacity:1"
         offset="1"
         id="stop6112" />
    </linearGradient>
    <radialGradient
       xlink:href="#linearGradient6114"
       id="radialGradient6126"
       cx="73.77433"
       cy="66.986313"
       fx="73.77433"
       fy="66.986313"
       r="31.67275"
       gradientTransform="matrix(3.0071285,0,0,1.83657,-125.12732,-58.151445)"
       gradientUnits="userSpaceOnUse" />
    <filter
       style="color-interpolation-filters:sRGB"
       id="filter1403"
       x="-0.56185555"
       width="2.1237111"
       y="-0.58432978"
       height="2.1686594">
      <feGaussianBlur
         stdDeviation="5.3563562"
         id="feGaussianBlur1405" />
    </filter>
    <filter
       style="color-interpolation-filters:sRGB"
       id="filter1407"
       x="-0.3741343"
       width="1.7482686"
       y="-0.58432978"
       height="2.1686594">
      <feGaussianBlur
         stdDeviation="5.3563562"
         id="feGaussianBlur1409" />
    </filter>
    <filter
       style="color-interpolation-filters:sRGB"
       id="filter1411"
       x="-0.60183775"
       width="2.2036755"
       y="-0.58432978"
       height="2.1686594">
      <feGaussianBlur
         stdDeviation="5.3563562"
         id="feGaussianBlur1413" />
    </filter>
    <filter
       style="color-interpolation-filters:sRGB"
       id="filter1415"
       x="-0.52427632"
       width="2.0485525"
       y="-0.43429914"
       height="1.8685983">
      <feGaussianBlur
         stdDeviation="5.3563562"
         id="feGaussianBlur1417" />
    </filter>
    <filter
       style="color-interpolation-filters:sRGB"
       id="filter1419"
       x="-0.52427632"
       width="2.0485525"
       y="-0.44085237"
       height="1.8817047">
      <feGaussianBlur
         stdDeviation="5.3563562"
         id="feGaussianBlur1421" />
    </filter>
    <filter
       style="color-interpolation-filters:sRGB"
       id="filter1423"
       x="-0.55506283"
       width="2.1101255"
       y="-0.58432978"
       height="2.1686594">
      <feGaussianBlur
         stdDeviation="5.3563562"
         id="feGaussianBlur1425" />
    </filter>
    <filter
       style="color-interpolation-filters:sRGB"
       id="filter1427"
       x="-0.58646238"
       width="2.1729248"
       y="-0.43429914"
       height="1.8685983">
      <feGaussianBlur
         stdDeviation="5.3563562"
         id="feGaussianBlur1429" />
    </filter>
    <filter
       style="color-interpolation-filters:sRGB"
       id="filter1431"
       x="-1.0434459"
       width="3.0868919"
       y="-0.42850849"
       height="1.857017">
      <feGaussianBlur
         stdDeviation="5.3563562"
         id="feGaussianBlur1433" />
    </filter>
    <filter
       style="color-interpolation-filters:sRGB"
       id="filter1435"
       x="-0.60183775"
       width="2.2036755"
       y="-0.58432978"
       height="2.1686594">
      <feGaussianBlur
         stdDeviation="5.3563562"
         id="feGaussianBlur1437" />
    </filter>
    <filter
       style="color-interpolation-filters:sRGB"
       id="filter1439"
       x="-0.9182325"
       width="2.8364649"
       y="-0.50294423"
       height="2.0058885">
      <feGaussianBlur
         stdDeviation="5.3563562"
         id="feGaussianBlur1441" />
    </filter>
    <filter
       style="color-interpolation-filters:sRGB"
       id="filter1443"
       x="-0.55125451"
       width="2.102509"
       y="-0.43429914"
       height="1.8685983">
      <feGaussianBlur
         stdDeviation="5.3563562"
         id="feGaussianBlur1445" />
    </filter>
    <filter
       style="color-interpolation-filters:sRGB"
       id="filter1447"
       x="-0.65454453"
       width="2.3090892"
       y="-0.58432978"
       height="2.1686594">
      <feGaussianBlur
         stdDeviation="5.3563562"
         id="feGaussianBlur1449" />
    </filter>
    <filter
       style="color-interpolation-filters:sRGB"
       id="filter1451"
       x="-0.55892414"
       width="2.1178484"
       y="-0.58432978"
       height="2.1686594">
      <feGaussianBlur
         stdDeviation="5.3563562"
         id="feGaussianBlur1453" />
    </filter>
    <filter
       style="color-interpolation-filters:sRGB"
       id="filter1455"
       x="-0.56681019"
       width="2.1336205"
       y="-0.43429914"
       height="1.8685983">
      <feGaussianBlur
         stdDeviation="5.3563562"
         id="feGaussianBlur1457" />
    </filter>
    <filter
       style="color-interpolation-filters:sRGB"
       id="filter1459"
       x="-0.55698681"
       width="2.1139736"
       y="-0.43429914"
       height="1.8685983">
      <feGaussianBlur
         stdDeviation="5.3563562"
         id="feGaussianBlur1461" />
    </filter>
    <filter
       style="color-interpolation-filters:sRGB"
       id="filter1463"
       x="-0.65454453"
       width="2.3090892"
       y="-0.58432978"
       height="2.1686594">
      <feGaussianBlur
         stdDeviation="5.3563562"
         id="feGaussianBlur1465" />
    </filter>
    <filter
       style="color-interpolation-filters:sRGB"
       id="filter1467"
       x="-0.9182325"
       width="2.8364649"
       y="-0.50294423"
       height="2.0058885">
      <feGaussianBlur
         stdDeviation="5.3563562"
         id="feGaussianBlur1469" />
    </filter>
    <filter
       style="color-interpolation-filters:sRGB"
       id="filter1471"
       x="-1.0434459"
       width="3.0868919"
       y="-0.42850849"
       height="1.857017">
      <feGaussianBlur
         stdDeviation="5.3563562"
         id="feGaussianBlur1473" />
    </filter>
    <filter
       style="color-interpolation-filters:sRGB"
       id="filter1475"
       x="-0.3741343"
       width="1.7482686"
       y="-0.58432978"
       height="2.1686594">
      <feGaussianBlur
         stdDeviation="5.3563562"
         id="feGaussianBlur1477" />
    </filter>
    <filter
       style="color-interpolation-filters:sRGB"
       id="filter1479"
       x="-0.55031055"
       width="2.100621"
       y="-0.45911625"
       height="1.9182324">
      <feGaussianBlur
         stdDeviation="5.3563562"
         id="feGaussianBlur1481" />
    </filter>
    <radialGradient
       gradientUnits="userSpaceOnUse"
       gradientTransform="matrix(2.1026284,0,0,1.3141428,0,60.673686)"
       r="105.70104"
       fy="59.53125"
       fx="105.70104"
       cy="59.53125"
       cx="105.70104"
       id="radialGradient921"
       xlink:href="#linearGradient919" />
    <linearGradient
       gradientUnits="userSpaceOnUse"
       y2="138.90625"
       x2="444.5"
       y1="139.3998"
       x1="444.19131"
       id="linearGradient1019"
       xlink:href="#linearGradient1017" />
    <linearGradient
       id="linearGradient1017">
      <stop
         id="stop1013"
         offset="0"
         style="stop-color:#0090e6;stop-opacity:1;" />
      <stop
         id="stop1015"
         offset="1"
         style="stop-color:#0090e6;stop-opacity:0;" />
    </linearGradient>
    <linearGradient
       gradientTransform="translate(-1.5e-4,4.6e-4)"
       xlink:href="#linearGradient1017"
       id="linearGradient1019-3"
       x1="444.19131"
       y1="139.3998"
       x2="465.91299"
       y2="138.90625"
       gradientUnits="userSpaceOnUse" />
  </defs>
  <metadata
     id="metadata3354">
    <rdf:RDF>
      <cc:Work
         rdf:about="">
        <dc:format>image/svg+xml</dc:format>
        <dc:type
           rdf:resource="http://purl.org/dc/dcmitype/StillImage" />
        <dc:title></dc:title>
      </cc:Work>
    </rdf:RDF>
  </metadata>
  <g
     transform="matrix(0.26458333,0,0,0.26458333,463.67684,534.79854)"
     style="font-style:normal;font-weight:normal;font-size:40px;line-height:1.25;font-family:sans-serif;letter-spacing:0px;word-spacing:0px;fill:#000000;fill-opacity:1;stroke:none"
     id="flowRoot985" />
  <g
     transform="matrix(0.26458333,0,0,0.26458333,463.67684,534.79854)"
     style="font-style:normal;font-weight:normal;font-size:40px;line-height:1.25;font-family:sans-serif;letter-spacing:0px;word-spacing:0px;fill:#000000;fill-opacity:1;stroke:none"
     id="flowRoot993" />
  <path
     id="path1098"
     d="M 286.33187,0 H 0 V 277.8125 H 444.5 V 132.71902 Z"
     style="opacity:1;fill:url(#linearGradient1019-3);fill-opacity:1;stroke:none;stroke-width:9.70262432;stroke-miterlimit:4;stroke-dasharray:none;paint-order:stroke markers fill" />
  <g
     transform="translate(83.98575,154.67855)"
     id="g1116">
    <path
       style="opacity:1;fill:#ffe680;fill-opacity:1;fill-rule:nonzero;stroke:none;stroke-width:0.15597185;stroke-linejoin:round;stroke-miterlimit:4;stroke-dasharray:none;stroke-opacity:1"
       d="m 294.70637,-44.391006 a 26.458333,26.458332 85.3 0 1 -37.29191,3.065953 26.458333,26.458332 85.3 0 1 -3.06595,-37.291909 26.458333,26.458332 85.3 0 1 37.29191,-3.065953 26.458333,26.458332 85.3 0 1 3.06595,37.291909 z"
       id="circle891-5" />
    <path
       style="opacity:1;fill:#ffd42a;fill-opacity:1;fill-rule:nonzero;stroke:none;stroke-width:0.07798593;stroke-linejoin:round;stroke-miterlimit:4;stroke-dasharray:none;stroke-opacity:1"
       d="m 328.87173,-99.386113 a 13.229167,13.229166 85.3 0 1 -18.64595,1.532975 13.229167,13.229166 85.3 0 1 -1.53294,-18.645962 13.229167,13.229166 85.3 0 1 18.64596,-1.53297 13.229167,13.229166 85.3 0 1 1.53293,18.645957 z"
       id="path889-3" />
    <path
       style="opacity:1;fill:#c87137;fill-opacity:1;fill-rule:nonzero;stroke:none;stroke-width:0.29857224;stroke-linejoin:round;stroke-miterlimit:4;stroke-dasharray:none;stroke-opacity:1"
       d="m 326.77272,-22.27086 a 63.683452,62.98363 39.9 0 0 10.56026,-62.270206 63.683452,62.98363 39.9 0 0 -48.85572,-40.849724 63.683452,62.98363 39.9 0 0 -59.416,21.42047 l 48.85573,40.849731 z"
       id="path954-5" />
    <path
       style="opacity:1;fill:#d4aa00;fill-opacity:1;fill-rule:nonzero;stroke:none;stroke-width:0.31459409;stroke-linejoin:round;stroke-miterlimit:4;stroke-dasharray:none;stroke-opacity:1"
       d="m 225.72933,-97.634083 96.4711,80.662359 c 2.82215,2.359673 6.99381,1.987363 9.3535,-0.834787 l 1.35705,-1.623001 c 2.35967,-2.822138 1.98736,-6.993794 -0.83479,-9.353486 l -96.4711,-80.662362 c -2.82216,-2.35968 -6.99382,-1.98737 -9.35349,0.83476 l -1.35704,1.623 c -2.35969,2.82216 -1.98738,6.993824 0.83469,9.353519 z"
       id="rect956-6" />
  </g>
  <g
     id="flowRoot925"
     style="font-style:normal;font-weight:normal;font-size:40px;line-height:1.25;font-family:sans-serif;letter-spacing:0px;word-spacing:0px;fill:#000000;fill-opacity:1;stroke:none"
     transform="matrix(1.0223576,0,0,1.0949149,-1131.2376,417.69138)"
     aria-label="Switch back  to ifupdown">
    <path
       id="path937"
       style="font-style:normal;font-variant:normal;font-weight:bold;font-stretch:normal;font-family:'EB Garamond';-inkscape-font-specification:'EB Garamond Bold';text-align:center;text-anchor:middle;fill:#ffffff"
       d="m 1179.8352,-284.81629 q -3.64,0 -6.32,-1.68 -0.64,-0.4 -0.84,-0.96 -0.36,-1.04 -0.56,-2.6 -0.16,-1.56 -0.08,-3.2 0,-0.52 0.8,-0.52 0.36,0 0.52,0.12 0.16,0.08 0.32,0.36 0.88,3.08 2.64,4.88 1.76,1.8 4.04,1.8 1.76,0 2.76,-1.16 1.04,-1.2 1.04,-2.72 0,-1.24 -0.48,-2.08 -0.48,-0.88 -1.4,-1.56 -0.92,-0.72 -2.68,-1.68 -2.28,-1.28 -3.6,-2.24 -1.32,-0.96 -2.28,-2.48 -0.92,-1.52 -0.92,-3.68 0,-2.28 1.2,-4.04 1.24,-1.76 3.36,-2.72 2.12,-0.96 4.76,-0.96 1.4,0 2.76,0.28 1.4,0.28 2.36,0.68 0.48,0.2 0.68,0.44 0.24,0.24 0.4,0.84 0.48,1.92 0.48,4.68 0,0.2 -0.2,0.36 -0.2,0.16 -0.52,0.16 -0.36,0 -0.68,-0.16 -0.28,-0.2 -0.36,-0.48 -0.68,-2.4 -2,-3.64 -1.32,-1.24 -3.24,-1.24 -3.72,0 -3.72,3.6 0,1.28 1.28,2.44 1.28,1.16 4.12,2.8 3.24,1.96 4.56,3.8 1.32,1.84 1.32,4.52 0,4 -2.56,6.04 -2.52,2 -6.96,2 z" />
    <path
       id="path939"
       style="font-style:normal;font-variant:normal;font-weight:bold;font-stretch:normal;font-family:'EB Garamond';-inkscape-font-specification:'EB Garamond Bold';text-align:center;text-anchor:middle;fill:#ffffff"
       d="m 1200.2808,-284.17629 q -0.2,0 -0.4,-0.12 -0.2,-0.08 -0.24,-0.28 l -5.8,-14.12 q -0.8,-1.88 -2.04,-2.36 -0.4,-0.16 -0.6,-0.32 -0.16,-0.2 -0.16,-0.52 0,-0.48 0.96,-0.48 0.68,0 1.24,0.08 0.56,0.04 0.8,0.04 0.84,0.12 1.88,0.12 1.04,0 1.88,-0.12 1.8,-0.12 2.2,-0.12 0.32,0 0.6,0.12 0.32,0.12 0.32,0.4 0,0.28 -0.16,0.4 -0.16,0.12 -0.4,0.24 -0.2,0.08 -0.32,0.12 -0.44,0.2 -0.64,0.56 -0.2,0.32 -0.2,1 0,0.84 0.24,1.44 l 2.36,6.24 q 0,0.08 0.08,0.08 0.12,0 0.12,-0.08 l 2.64,-6.28 q 0.24,-0.72 0.24,-1.16 0,-0.44 -0.44,-0.92 -0.44,-0.52 -1.12,-0.8 -0.4,-0.16 -0.6,-0.32 -0.16,-0.2 -0.16,-0.52 0,-0.48 1.08,-0.48 0.76,0 2.12,0.08 1.04,0.08 1.4,0.08 0.68,0 1.88,-0.08 1.28,-0.08 2.08,-0.08 0.36,0 0.64,0.12 0.32,0.12 0.32,0.4 0,0.28 -0.16,0.4 -0.16,0.12 -0.4,0.24 -0.24,0.08 -0.36,0.12 -0.48,0.2 -0.76,0.52 -0.24,0.28 -0.24,0.8 0,0.64 0.36,1.64 l 2.36,6.24 q 0.08,0.12 0.16,0.12 0.08,0 0.12,-0.08 l 2.2,-5.76 q 0.36,-0.88 0.28,-1.64 0,-0.64 -0.32,-1.12 -0.32,-0.48 -0.84,-0.64 -0.48,-0.16 -0.68,-0.28 -0.2,-0.16 -0.2,-0.48 0,-0.52 0.92,-0.52 l 1.48,0.04 q 0.48,0.04 1.28,0.04 0.76,0 1.2,-0.04 l 1.4,-0.04 q 0.96,0 0.96,0.44 0,0.36 -0.2,0.56 -0.16,0.16 -0.56,0.32 -0.72,0.24 -1.32,0.88 -0.6,0.64 -0.96,1.56 l -5.64,13.92 q -0.08,0.16 -0.28,0.24 -0.16,0.12 -0.4,0.12 -0.4,0 -0.6,-0.36 l -5,-11.48 q -0.08,-0.08 -0.12,-0.08 -0.08,0 -0.12,0.12 l -4.68,11.44 q -0.16,0.4 -0.68,0.4 z" />
    <path
       id="path941"
       style="font-style:normal;font-variant:normal;font-weight:bold;font-stretch:normal;font-family:'EB Garamond';-inkscape-font-specification:'EB Garamond Bold';text-align:center;text-anchor:middle;fill:#ffffff"
       d="m 1222.3989,-285.25629 q -0.24,0 -0.44,-0.12 -0.2,-0.16 -0.2,-0.4 0,-0.6 0.72,-0.8 1.08,-0.24 1.48,-0.52 0.4,-0.32 0.4,-0.96 v -8.64 q 0,-1.32 -0.4,-1.92 -0.4,-0.6 -1.32,-0.72 -0.24,-0.04 -0.36,-0.24 -0.12,-0.2 -0.12,-0.48 0,-0.24 0.12,-0.44 0.16,-0.2 0.32,-0.24 1.8,-0.32 3.16,-0.88 1.4,-0.56 3.04,-1.36 0.56,-0.32 0.8,-0.32 0.24,0 0.36,0.16 0.16,0.12 0.16,0.32 l -0.16,1.48 q -0.36,3.04 -0.36,4.4 v 8.84 q 0,0.56 0.4,0.88 0.4,0.32 1.52,0.64 0.36,0.12 0.52,0.28 0.2,0.16 0.2,0.48 0,0.52 -0.6,0.52 -0.84,0 -2.44,-0.08 -1.6,-0.08 -2.28,-0.08 -0.68,0 -2.12,0.08 -1.2,0.12 -2.4,0.12 z m 4.4,-19.84 q -1.28,0 -2.2,-0.92 -0.92,-0.92 -0.92,-2.2 0,-1.36 0.92,-2.28 0.92,-0.92 2.2,-0.92 1.36,0 2.28,0.92 0.96,0.92 0.96,2.28 0,1.28 -0.96,2.2 -0.92,0.92 -2.28,0.92 z" />
    <path
       id="path943"
       style="font-style:normal;font-variant:normal;font-weight:bold;font-stretch:normal;font-family:'EB Garamond';-inkscape-font-specification:'EB Garamond Bold';text-align:center;text-anchor:middle;fill:#ffffff"
       d="m 1241.4758,-284.81629 q -2.6,0 -3.96,-1.32 -1.32,-1.32 -1.32,-3.8 v -9.2 q 0,-0.36 -0.28,-0.52 -0.28,-0.16 -0.96,-0.2 h -0.52 q -0.24,0 -0.44,-0.44 -0.2,-0.44 -0.2,-0.84 0,-0.28 0.24,-0.4 2,-0.72 5.84,-4.08 0.08,-0.08 0.28,-0.2 0.2,-0.16 0.36,-0.24 0.16,-0.08 0.36,-0.08 0.4,0 0.52,0.16 0.12,0.16 0.08,0.64 l -0.24,2.36 v 0.16 q 0,0.68 0.96,0.68 h 4.76 q 0.12,0 0.24,0.28 0.12,0.28 0.12,0.52 0,0.6 -0.16,1.12 -0.16,0.48 -0.36,0.48 h -3.72 q -0.92,0 -1.28,0.24 -0.32,0.2 -0.32,0.76 v 7.56 q 0,1.8 0.68,2.72 0.68,0.92 1.88,0.92 0.92,0 1.4,-0.12 0.52,-0.16 0.84,-0.32 0.36,-0.16 0.44,-0.2 0.16,-0.08 0.24,-0.08 0.2,0 0.32,0.24 0.12,0.2 0.12,0.56 0,0.28 -0.92,0.96 -0.88,0.64 -2.24,1.16 -1.36,0.52 -2.76,0.52 z" />
    <path
       id="path945"
       style="font-style:normal;font-variant:normal;font-weight:bold;font-stretch:normal;font-family:'EB Garamond';-inkscape-font-specification:'EB Garamond Bold';text-align:center;text-anchor:middle;fill:#ffffff"
       d="m 1256.1558,-284.81629 q -2.08,0 -3.8,-1.12 -1.72,-1.16 -2.72,-3.12 -0.96,-1.96 -0.96,-4.36 0,-2.56 1.16,-4.64 1.2,-2.12 3.24,-3.36 2.04,-1.24 4.52,-1.24 1.6,0 3,0.56 1.44,0.56 2.44,1.6 0.36,0.36 0.36,0.72 0,0.4 -0.76,1.16 -0.72,0.72 -1.16,0.72 -0.36,0 -0.64,-0.16 -0.24,-0.16 -0.72,-0.56 -1.04,-0.88 -2.12,-1.4 -1.04,-0.56 -1.8,-0.56 -1.56,0 -2.32,1.28 -0.76,1.28 -0.76,4.08 0,2.96 1.36,4.64 1.36,1.68 3.84,1.68 1.16,0 2.04,-0.36 0.88,-0.36 1.88,-1.2 0.12,-0.08 0.32,-0.2 0.2,-0.16 0.36,-0.16 0.48,0 0.48,0.64 0,0.48 -0.32,1.12 -0.44,0.88 -1.48,1.88 -1,1 -2.44,1.68 -1.44,0.68 -3,0.68 z" />
    <path
       id="path947"
       style="font-style:normal;font-variant:normal;font-weight:bold;font-stretch:normal;font-family:'EB Garamond';-inkscape-font-specification:'EB Garamond Bold';text-align:center;text-anchor:middle;fill:#ffffff"
       d="m 1265.2896,-285.25629 q -0.8,0 -0.8,-0.56 0,-0.28 0.2,-0.44 0.24,-0.2 0.72,-0.36 0.84,-0.28 1.16,-0.52 0.32,-0.28 0.36,-1.04 v -19.2 q 0,-1.24 -0.32,-1.96 -0.32,-0.72 -1.24,-0.92 -0.44,-0.08 -0.44,-0.6 0,-0.52 0.4,-0.6 1.28,-0.28 3.12,-0.92 1.88,-0.68 2.24,-0.8 l 0.76,-0.28 q 0.28,-0.12 0.52,-0.12 0.4,0 0.4,0.48 0,0.28 -0.12,1.08 -0.08,0.8 -0.12,1.68 v 9.24 q 0,0.96 0.24,1.16 1.4,-1.2 2.72,-1.96 1.36,-0.76 3.12,-0.76 2.2,0 3.6,1.56 1.4,1.52 1.4,4.12 v 8.72 q 0,0.76 0.32,1.08 0.36,0.28 1.12,0.56 0.44,0.12 0.64,0.32 0.24,0.16 0.24,0.48 0,0.56 -0.88,0.56 -1.32,0 -2.2,-0.12 -1.12,-0.08 -1.88,-0.08 -0.8,0 -1.84,0.08 -0.72,0.12 -2,0.12 -1,0 -1,-0.6 0,-0.52 0.84,-0.76 0.68,-0.24 1.04,-0.56 0.36,-0.36 0.36,-1.16 v -7.88 q 0,-1.28 -0.8,-2.2 -0.76,-0.92 -1.76,-0.92 -1.52,0 -2.72,0.88 -0.32,0.24 -0.44,0.56 -0.08,0.28 -0.08,0.88 v 8.76 q 0,0.72 0.32,1.04 0.36,0.32 1,0.56 0.84,0.32 0.84,0.8 0,0.6 -0.72,0.6 -1.16,0 -2.24,-0.12 -1.28,-0.08 -1.92,-0.08 -0.64,0 -1.92,0.08 -1.08,0.12 -2.24,0.12 z" />
    <path
       id="path949"
       style="font-style:normal;font-variant:normal;font-weight:bold;font-stretch:normal;font-family:'EB Garamond';-inkscape-font-specification:'EB Garamond Bold';text-align:center;text-anchor:middle;fill:#ffffff"
       d="m 1306.6064,-284.81629 q -1.6,0 -3.92,-0.6 -1.52,-0.44 -1.92,-0.44 -0.64,0 -1.44,0.52 -0.36,0.28 -0.56,0.28 -0.36,0 -0.56,-0.16 -0.16,-0.12 -0.16,-0.36 0,-0.28 0.2,-1.4 0.24,-1.16 0.2,-2.6 l -0.16,-17.8 q 0,-1.2 -0.36,-1.92 -0.32,-0.76 -1.2,-0.96 -0.48,-0.08 -0.48,-0.64 0,-0.2 0.12,-0.36 0.12,-0.16 0.32,-0.2 1.76,-0.32 6,-1.96 0.4,-0.16 0.56,-0.16 0.44,0 0.44,0.48 0,0.28 -0.12,1.08 -0.08,0.8 -0.08,1.44 v 8.56 q 0,1.12 0.36,1.12 1.24,-0.84 2.56,-1.28 1.36,-0.48 2.56,-0.48 2.08,0 3.76,1.08 1.68,1.08 2.64,3 1,1.88 1,4.2 0,2.8 -1.24,5 -1.2,2.16 -3.44,3.36 -2.2,1.2 -5.08,1.2 z m 0.72,-1.68 q 1.56,0 2.48,-1.96 0.96,-2 0.96,-4.88 0,-2.76 -1.04,-4.92 -1.04,-2.16 -3,-2.16 -0.84,0 -1.76,0.24 -0.92,0.24 -1.48,0.68 v 8.52 q 0,1.92 1.12,3.2 1.16,1.28 2.72,1.28 z" />
    <path
       id="path951"
       style="font-style:normal;font-variant:normal;font-weight:bold;font-stretch:normal;font-family:'EB Garamond';-inkscape-font-specification:'EB Garamond Bold';text-align:center;text-anchor:middle;fill:#ffffff"
       d="m 1322.3289,-284.81629 q -1.6,0 -2.8,-1.08 -1.2,-1.12 -1.2,-2.64 0,-1.36 0.8,-2.24 0.84,-0.92 2.6,-1.68 l 3.56,-1.56 q 0.8,-0.36 0.96,-0.64 0.2,-0.28 0.2,-1.04 l 0.04,-2.28 q 0.04,-1.16 -0.4,-1.8 -0.44,-0.64 -1.32,-0.64 -0.48,0 -1.04,0.24 -0.52,0.2 -0.8,0.48 -0.24,0.28 -0.24,0.84 0,0.28 0.04,0.6 0.04,0.28 0.04,0.56 0,0.4 -1.36,1 -1.32,0.6 -2.2,0.6 -0.32,0 -0.52,-0.24 -0.2,-0.24 -0.2,-0.6 0,-0.64 0.44,-1.24 0.44,-0.6 1.44,-1.44 1.56,-1.28 3.52,-2.16 1.96,-0.88 3.28,-0.88 2.12,0 3.4,1.4 1.28,1.36 1.24,3.64 l -0.2,8.08 q -0.04,0.92 0.32,1.56 0.36,0.64 0.88,0.64 0.76,0 1.32,-0.52 0.12,-0.12 0.24,-0.12 0.2,0 0.32,0.16 0.16,0.12 0.16,0.28 0,0.52 -0.72,1.24 -1.48,1.48 -3.36,1.48 -1.16,0 -2.04,-0.56 -0.88,-0.52 -1.68,-1.72 h -0.08 q -1.32,1.24 -2.4,1.76 -1.04,0.52 -2.24,0.52 z m 2.4,-2.6 q 0.76,0 1.28,-0.6 0.28,-0.44 0.28,-1.04 l 0.12,-2.88 q 0,-0.64 -0.4,-0.64 -0.2,0 -0.48,0.16 -1.28,0.6 -1.8,1.2 -0.48,0.6 -0.48,1.8 0,1.04 0.44,1.52 0.44,0.48 1.04,0.48 z" />
    <path
       id="path953"
       style="font-style:normal;font-variant:normal;font-weight:bold;font-stretch:normal;font-family:'EB Garamond';-inkscape-font-specification:'EB Garamond Bold';text-align:center;text-anchor:middle;fill:#ffffff"
       d="m 1343.1089,-284.81629 q -2.08,0 -3.8,-1.12 -1.72,-1.16 -2.72,-3.12 -0.96,-1.96 -0.96,-4.36 0,-2.56 1.16,-4.64 1.2,-2.12 3.24,-3.36 2.04,-1.24 4.52,-1.24 1.6,0 3,0.56 1.44,0.56 2.44,1.6 0.36,0.36 0.36,0.72 0,0.4 -0.76,1.16 -0.72,0.72 -1.16,0.72 -0.36,0 -0.64,-0.16 -0.24,-0.16 -0.72,-0.56 -1.04,-0.88 -2.12,-1.4 -1.04,-0.56 -1.8,-0.56 -1.56,0 -2.32,1.28 -0.76,1.28 -0.76,4.08 0,2.96 1.36,4.64 1.36,1.68 3.84,1.68 1.16,0 2.04,-0.36 0.88,-0.36 1.88,-1.2 0.12,-0.08 0.32,-0.2 0.2,-0.16 0.36,-0.16 0.48,0 0.48,0.64 0,0.48 -0.32,1.12 -0.44,0.88 -1.48,1.88 -1,1 -2.44,1.68 -1.44,0.68 -3,0.68 z" />
    <path
       id="path955"
       style="font-style:normal;font-variant:normal;font-weight:bold;font-stretch:normal;font-family:'EB Garamond';-inkscape-font-specification:'EB Garamond Bold';text-align:center;text-anchor:middle;fill:#ffffff"
       d="m 1352.2027,-285.25629 q -0.8,0 -0.8,-0.56 0,-0.56 0.92,-0.8 0.88,-0.32 1.2,-0.56 0.32,-0.24 0.32,-1 v -19.2 q 0,-1.28 -0.32,-1.96 -0.32,-0.72 -1.24,-0.92 -0.44,-0.08 -0.44,-0.6 0,-0.52 0.4,-0.6 1.48,-0.28 5.2,-1.64 l 0.92,-0.36 q 0.36,-0.12 0.52,-0.12 0.4,0 0.4,0.48 l -0.08,0.84 -0.16,1.92 0.04,14.96 q 0,0.48 0.36,0.48 0.24,0 0.64,-0.32 1.36,-1.2 2.56,-2.52 1.2,-1.32 1.64,-2 0.08,-0.12 0.2,-0.32 0.16,-0.24 0.16,-0.36 0,-0.24 -0.36,-0.44 -0.32,-0.2 -0.92,-0.28 -0.48,-0.08 -0.48,-0.44 0,-0.56 0.88,-0.56 h 1.96 q 1.08,0 5.76,-0.36 0.44,0 0.44,0.44 0,0.64 -0.92,0.84 -1.44,0.32 -3.44,1.48 -1.04,0.56 -2.24,1.48 -1.2,0.88 -2.08,1.72 -0.2,0.2 -0.2,0.44 0,0.12 0.24,0.44 l 1.52,2 q 2.28,3.12 3.88,4.92 0.6,0.68 1.56,1.28 0.96,0.6 1.68,0.88 0.08,0.04 0.4,0.16 0.32,0.08 0.48,0.24 0.2,0.16 0.2,0.36 0,0.56 -0.88,0.56 -1.8,0 -4.92,-0.08 l -4.08,-0.04 q -0.36,0 -0.6,-0.16 -0.2,-0.16 -0.2,-0.4 0,-0.28 0.2,-0.44 0.24,-0.2 0.68,-0.36 0.64,-0.24 0.68,-0.64 0,-0.2 -0.48,-0.88 l -3.88,-5.36 q -0.08,-0.08 -0.2,-0.08 -0.24,0 -0.24,0.28 v 2.48 2.8 q 0,0.64 0.28,0.96 0.28,0.28 0.92,0.52 0.84,0.32 0.84,0.8 0,0.28 -0.2,0.44 -0.2,0.16 -0.52,0.16 -1.2,0 -2.16,-0.12 -1.2,-0.08 -1.88,-0.08 -0.64,0 -1.92,0.08 -1.08,0.12 -2.24,0.12 z" />
    <path
       id="path957"
       style="font-style:normal;font-variant:normal;font-weight:bold;font-stretch:normal;font-family:'EB Garamond';-inkscape-font-specification:'EB Garamond Bold';text-align:center;text-anchor:middle;fill:#ffffff"
       d="m 1263.0383,-234.34101 q -2.6,0 -3.96,-1.32 -1.32,-1.32 -1.32,-3.8 v -9.2 q 0,-0.36 -0.28,-0.52 -0.28,-0.16 -0.96,-0.2 h -0.52 q -0.24,0 -0.44,-0.44 -0.2,-0.44 -0.2,-0.84 0,-0.28 0.24,-0.4 2,-0.72 5.84,-4.08 0.08,-0.08 0.28,-0.2 0.2,-0.16 0.36,-0.24 0.16,-0.08 0.36,-0.08 0.4,0 0.52,0.16 0.12,0.16 0.08,0.64 l -0.24,2.36 v 0.16 q 0,0.68 0.96,0.68 h 4.76 q 0.12,0 0.24,0.28 0.12,0.28 0.12,0.52 0,0.6 -0.16,1.12 -0.16,0.48 -0.36,0.48 h -3.72 q -0.92,0 -1.28,0.24 -0.32,0.2 -0.32,0.76 v 7.56 q 0,1.8 0.68,2.72 0.68,0.92 1.88,0.92 0.92,0 1.4,-0.12 0.52,-0.16 0.84,-0.32 0.36,-0.16 0.44,-0.2 0.16,-0.08 0.24,-0.08 0.2,0 0.32,0.24 0.12,0.2 0.12,0.56 0,0.28 -0.92,0.96 -0.88,0.64 -2.24,1.16 -1.36,0.52 -2.76,0.52 z" />
    <path
       id="path959"
       style="font-style:normal;font-variant:normal;font-weight:bold;font-stretch:normal;font-family:'EB Garamond';-inkscape-font-specification:'EB Garamond Bold';text-align:center;text-anchor:middle;fill:#ffffff"
       d="m 1278.7583,-234.34101 q -2.36,0 -4.32,-1.08 -1.96,-1.08 -3.08,-2.96 -1.12,-1.92 -1.12,-4.32 0,-2.52 1.24,-4.72 1.28,-2.2 3.4,-3.48 2.16,-1.32 4.76,-1.32 2.4,0 4.44,1.16 2.04,1.12 3.2,3.08 1.2,1.92 1.2,4.12 0,2.64 -1.12,4.8 -1.12,2.16 -3.32,3.44 -2.16,1.28 -5.28,1.28 z m 0.8,-1.76 q 1.64,0 2.48,-1.36 0.84,-1.4 0.84,-5.44 0,-3.28 -1.08,-5.4 -1.04,-2.16 -2.76,-2.16 -1.24,0 -2.08,0.84 -0.68,0.76 -0.96,2.2 -0.24,1.44 -0.24,3.72 0,1.92 0.48,3.68 0.52,1.76 1.36,2.84 0.88,1.08 1.96,1.08 z" />
    <path
       id="path961"
       style="font-style:normal;font-variant:normal;font-weight:bold;font-stretch:normal;font-family:'EB Garamond';-inkscape-font-specification:'EB Garamond Bold';text-align:center;text-anchor:middle;fill:#ffffff"
       d="m 1191.3443,-184.30573 q -0.24,0 -0.44,-0.12 -0.2,-0.16 -0.2,-0.4 0,-0.6 0.72,-0.8 1.08,-0.24 1.48,-0.52 0.4,-0.32 0.4,-0.96 v -8.64 q 0,-1.32 -0.4,-1.92 -0.4,-0.6 -1.32,-0.72 -0.24,-0.04 -0.36,-0.24 -0.12,-0.2 -0.12,-0.48 0,-0.24 0.12,-0.44 0.16,-0.2 0.32,-0.24 1.8,-0.32 3.16,-0.88 1.4,-0.56 3.04,-1.36 0.56,-0.32 0.8,-0.32 0.24,0 0.36,0.16 0.16,0.12 0.16,0.32 l -0.16,1.48 q -0.36,3.04 -0.36,4.4 v 8.84 q 0,0.56 0.4,0.88 0.4,0.32 1.52,0.64 0.36,0.12 0.52,0.28 0.2,0.16 0.2,0.48 0,0.52 -0.6,0.52 -0.84,0 -2.44,-0.08 -1.6,-0.08 -2.28,-0.08 -0.68,0 -2.12,0.08 -1.2,0.12 -2.4,0.12 z m 4.4,-19.84 q -1.28,0 -2.2,-0.92 -0.92,-0.92 -0.92,-2.2 0,-1.36 0.92,-2.28 0.92,-0.92 2.2,-0.92 1.36,0 2.28,0.92 0.96,0.92 0.96,2.28 0,1.28 -0.96,2.2 -0.92,0.92 -2.28,0.92 z" />
    <path
       id="path963"
       style="font-style:normal;font-variant:normal;font-weight:bold;font-stretch:normal;font-family:'EB Garamond';-inkscape-font-specification:'EB Garamond Bold';text-align:center;text-anchor:middle;fill:#ffffff"
       d="m 1203.3011,-184.30573 q -0.28,0 -0.56,-0.16 -0.24,-0.16 -0.24,-0.4 0,-0.32 0.16,-0.48 0.2,-0.2 0.6,-0.32 1.08,-0.32 1.36,-0.6 0.32,-0.28 0.32,-0.96 v -11.4 q -1.24,0 -2.08,-0.08 -0.2,-0.04 -0.4,-0.44 -0.16,-0.4 -0.16,-0.72 0,-0.24 0.36,-0.4 0.44,-0.16 2.28,-0.96 0.2,-4 1.8,-6.56 1.64,-2.6 3.92,-3.72 2.28,-1.16 4.56,-1.16 2.72,0 3.92,0.76 1.24,0.76 1.24,2.36 0,0.92 -0.44,1.48 -0.4,0.52 -1.12,0.52 -0.56,0 -1.48,-1.12 -0.92,-1 -1.8,-1.56 -0.84,-0.6 -2,-0.6 -3.36,0 -3.36,5.8 v 3.28 q 0,0.56 0.64,0.56 h 4.52 q 0.32,0 0.48,0.2 0.16,0.16 0.16,0.44 0,0.88 -0.32,1.44 -0.2,0.32 -0.32,0.32 h -3.68 q -0.88,0 -1.2,0.2 -0.28,0.2 -0.28,0.68 v 10 q 0,1.08 0.48,1.52 0.48,0.4 2.12,0.72 0.44,0.08 0.6,0.24 0.2,0.16 0.2,0.48 0,0.24 -0.2,0.44 -0.2,0.2 -0.48,0.2 -1.36,0 -2.8,-0.12 -1.76,-0.08 -2.44,-0.08 -0.68,0 -2.04,0.08 -1.08,0.12 -2.32,0.12 z" />
    <path
       id="path965"
       style="font-style:normal;font-variant:normal;font-weight:bold;font-stretch:normal;font-family:'EB Garamond';-inkscape-font-specification:'EB Garamond Bold';text-align:center;text-anchor:middle;fill:#ffffff"
       d="m 1229.8761,-183.58573 q -0.32,0 -0.32,-0.4 0,-0.56 0.12,-1.28 l 0.08,-1.24 q 0,-0.36 -0.08,-0.44 -1.12,1.36 -2.84,2.24 -1.68,0.88 -3.48,0.88 -1.88,0 -3.16,-1.6 -1.24,-1.64 -1.24,-4.04 v -7.48 q 0,-1 -0.36,-1.52 -0.36,-0.56 -1.24,-0.72 -0.24,-0.04 -0.44,-0.2 -0.16,-0.2 -0.16,-0.56 0,-0.64 0.6,-0.68 2.6,-0.12 5.8,-0.96 0.16,-0.04 0.4,-0.08 0.28,-0.08 0.44,-0.08 0.56,0 0.52,0.56 -0.32,1.64 -0.32,3.08 v 7.68 q 0,1.44 0.68,2.32 0.68,0.88 1.76,0.92 1.56,0 2.44,-0.88 0.32,-0.28 0.56,-0.88 0.24,-0.64 0.24,-1.6 v -6.44 q 0,-1 -0.6,-1.56 -0.6,-0.6 -1.56,-0.68 -0.48,-0.04 -0.72,-0.24 -0.24,-0.2 -0.24,-0.64 0,-0.4 0.28,-0.6 0.28,-0.2 0.68,-0.2 3.04,-0.2 4.32,-0.32 1.28,-0.12 2.4,-0.4 0.48,-0.12 0.52,-0.12 0.6,0 0.6,0.48 0,0.12 -0.16,0.6 -0.08,0.48 -0.2,1.4 -0.08,0.92 -0.08,1.4 v 9.28 q 0,1.52 0.72,1.52 l 1.12,0.04 q 0.36,0 0.56,0.2 0.2,0.2 0.2,0.52 0,0.4 -0.16,0.6 -0.12,0.2 -0.52,0.24 -2.96,0.28 -6.12,1.6 -0.12,0.04 -0.48,0.16 -0.32,0.12 -0.56,0.12 z" />
    <path
       id="path967"
       style="font-style:normal;font-variant:normal;font-weight:bold;font-stretch:normal;font-family:'EB Garamond';-inkscape-font-specification:'EB Garamond Bold';text-align:center;text-anchor:middle;fill:#ffffff"
       d="m 1239.5074,-173.94573 q -0.32,0 -0.56,-0.16 -0.24,-0.16 -0.24,-0.4 0,-0.32 0.2,-0.52 0.24,-0.16 0.72,-0.28 0.88,-0.28 1.2,-0.6 0.32,-0.28 0.32,-0.92 v -19.16 q 0,-0.76 -0.48,-1.44 -0.44,-0.72 -1.2,-0.88 -0.24,-0.08 -0.36,-0.2 -0.12,-0.16 -0.12,-0.52 0,-0.56 0.44,-0.68 1.44,-0.32 3.04,-0.84 1.6,-0.52 2.72,-1.08 0.12,-0.04 0.32,-0.16 0.24,-0.12 0.36,-0.12 0.36,0 0.36,0.48 l -0.08,0.88 q -0.12,1.44 -0.12,1.44 0,0.4 0.08,0.48 0.44,-0.48 1.48,-1.12 1.08,-0.68 2.36,-1.16 1.32,-0.52 2.48,-0.52 2.04,0 3.56,1.12 1.56,1.12 2.36,2.92 0.84,1.76 0.84,3.76 0,2.48 -1.24,4.8 -1.24,2.28 -3.4,3.72 -2.12,1.4 -4.6,1.4 -0.68,0 -1.68,-0.24 -1,-0.24 -1.76,-0.6 -0.16,0 -0.16,0.72 v 6.64 q 0,0.76 0.48,1.16 0.52,0.4 1.68,0.72 0.88,0.28 0.88,0.8 0,0.24 -0.24,0.4 -0.2,0.16 -0.44,0.16 -1.28,0 -2.56,-0.12 -1.68,-0.08 -2.28,-0.08 -0.68,0 -2.04,0.08 -1.08,0.12 -2.32,0.12 z m 10.32,-11.6 q 0.68,0 1.56,-0.68 0.88,-0.68 1.52,-2.16 0.68,-1.48 0.68,-3.8 0,-3.8 -1.28,-5.16 -1.24,-1.36 -2.68,-1.36 -0.72,0 -1.48,0.32 -0.72,0.32 -1.24,0.8 -0.48,0.44 -0.48,0.76 l -0.08,6.56 q 0,1 0.4,2.12 0.44,1.12 1.24,1.88 0.8,0.72 1.84,0.72 z" />
    <path
       id="path969"
       style="font-style:normal;font-variant:normal;font-weight:bold;font-stretch:normal;font-family:'EB Garamond';-inkscape-font-specification:'EB Garamond Bold';text-align:center;text-anchor:middle;fill:#ffffff"
       d="m 1281.4586,-186.78573 q 0.24,0 0.32,0.08 0.08,0.08 0.08,0.32 0,0.32 -0.24,0.68 -0.24,0.36 -0.44,0.36 -3,0.32 -6.08,1.44 -0.48,0.24 -0.68,0.24 -0.12,0 -0.36,-0.28 -0.2,-0.24 -0.2,-0.4 0.2,-1.4 0.2,-2.12 v -0.24 q -0.84,1.28 -2.28,2.08 -1.4,0.76 -3,0.76 -2.16,0 -3.96,-1.12 -1.76,-1.12 -2.76,-3.04 -1,-1.92 -1,-4.2 0,-2.68 1.2,-4.8 1.2,-2.16 3.36,-3.36 2.2,-1.24 5,-1.24 1.12,0 2.48,0.36 l 0.52,0.12 q 0.16,0 0.16,-0.52 v -4.76 q 0,-1.44 -0.36,-2.04 -0.32,-0.64 -1.2,-0.84 -0.48,-0.12 -0.48,-0.6 0,-0.52 0.44,-0.6 1.44,-0.32 3,-0.8 1.6,-0.52 2.64,-0.96 0.8,-0.36 0.96,-0.36 0.44,0 0.44,0.48 -0.04,0.16 -0.12,0.96 -0.04,0.76 -0.08,1.8 l -0.2,20.16 q 0,1.4 0.2,2 0.2,0.56 0.72,0.56 l 1.56,-0.12 z m -2.24,-25.36 z m -8.4,25.56 q 0.68,0 1.56,-0.32 0.88,-0.36 1.4,-0.92 l -0.04,-8.84 q 0,-0.68 -0.56,-1.4 -0.52,-0.72 -1.36,-1.2 -0.8,-0.48 -1.6,-0.48 -0.96,0 -1.8,0.8 -0.8,0.76 -1.32,2.24 -0.48,1.48 -0.48,3.4 0,2.08 0.56,3.6 0.6,1.52 1.56,2.32 0.96,0.8 2.08,0.8 z" />
    <path
       id="path971"
       style="font-style:normal;font-variant:normal;font-weight:bold;font-stretch:normal;font-family:'EB Garamond';-inkscape-font-specification:'EB Garamond Bold';text-align:center;text-anchor:middle;fill:#ffffff"
       d="m 1291.063,-183.86573 q -2.36,0 -4.32,-1.08 -1.96,-1.08 -3.08,-2.96 -1.12,-1.92 -1.12,-4.32 0,-2.52 1.24,-4.72 1.28,-2.2 3.4,-3.48 2.16,-1.32 4.76,-1.32 2.4,0 4.44,1.16 2.04,1.12 3.2,3.08 1.2,1.92 1.2,4.12 0,2.64 -1.12,4.8 -1.12,2.16 -3.32,3.44 -2.16,1.28 -5.28,1.28 z m 0.8,-1.76 q 1.64,0 2.48,-1.36 0.84,-1.4 0.84,-5.44 0,-3.28 -1.08,-5.4 -1.04,-2.16 -2.76,-2.16 -1.24,0 -2.08,0.84 -0.68,0.76 -0.96,2.2 -0.24,1.44 -0.24,3.72 0,1.92 0.48,3.68 0.52,1.76 1.36,2.84 0.88,1.08 1.96,1.08 z" />
    <path
       id="path973"
       style="font-style:normal;font-variant:normal;font-weight:bold;font-stretch:normal;font-family:'EB Garamond';-inkscape-font-specification:'EB Garamond Bold';text-align:center;text-anchor:middle;fill:#ffffff"
       d="m 1310.5543,-183.22573 q -0.2,0 -0.4,-0.12 -0.2,-0.08 -0.24,-0.28 l -5.8,-14.12 q -0.8,-1.88 -2.04,-2.36 -0.4,-0.16 -0.6,-0.32 -0.16,-0.2 -0.16,-0.52 0,-0.48 0.96,-0.48 0.68,0 1.24,0.08 0.56,0.04 0.8,0.04 0.84,0.12 1.88,0.12 1.04,0 1.88,-0.12 1.8,-0.12 2.2,-0.12 0.32,0 0.6,0.12 0.32,0.12 0.32,0.4 0,0.28 -0.16,0.4 -0.16,0.12 -0.4,0.24 -0.2,0.08 -0.32,0.12 -0.44,0.2 -0.64,0.56 -0.2,0.32 -0.2,1 0,0.84 0.24,1.44 l 2.36,6.24 q 0,0.08 0.08,0.08 0.12,0 0.12,-0.08 l 2.64,-6.28 q 0.24,-0.72 0.24,-1.16 0,-0.44 -0.44,-0.92 -0.44,-0.52 -1.12,-0.8 -0.4,-0.16 -0.6,-0.32 -0.16,-0.2 -0.16,-0.52 0,-0.48 1.08,-0.48 0.76,0 2.12,0.08 1.04,0.08 1.4,0.08 0.68,0 1.88,-0.08 1.28,-0.08 2.08,-0.08 0.36,0 0.64,0.12 0.32,0.12 0.32,0.4 0,0.28 -0.16,0.4 -0.16,0.12 -0.4,0.24 -0.24,0.08 -0.36,0.12 -0.48,0.2 -0.76,0.52 -0.24,0.28 -0.24,0.8 0,0.64 0.36,1.64 l 2.36,6.24 q 0.08,0.12 0.16,0.12 0.08,0 0.12,-0.08 l 2.2,-5.76 q 0.36,-0.88 0.28,-1.64 0,-0.64 -0.32,-1.12 -0.32,-0.48 -0.84,-0.64 -0.48,-0.16 -0.68,-0.28 -0.2,-0.16 -0.2,-0.48 0,-0.52 0.92,-0.52 l 1.48,0.04 q 0.48,0.04 1.28,0.04 0.76,0 1.2,-0.04 l 1.4,-0.04 q 0.96,0 0.96,0.44 0,0.36 -0.2,0.56 -0.16,0.16 -0.56,0.32 -0.72,0.24 -1.32,0.88 -0.6,0.64 -0.96,1.56 l -5.64,13.92 q -0.08,0.16 -0.28,0.24 -0.16,0.12 -0.4,0.12 -0.4,0 -0.6,-0.36 l -5,-11.48 q -0.08,-0.08 -0.12,-0.08 -0.08,0 -0.12,0.12 l -4.68,11.44 q -0.16,0.4 -0.68,0.4 z" />
    <path
       id="path975"
       style="font-style:normal;font-variant:normal;font-weight:bold;font-stretch:normal;font-family:'EB Garamond';-inkscape-font-specification:'EB Garamond Bold';text-align:center;text-anchor:middle;fill:#ffffff"
       d="m 1332.8324,-184.30573 q -0.28,0 -0.56,-0.16 -0.24,-0.16 -0.24,-0.4 0,-0.48 0.92,-0.8 0.8,-0.24 1.16,-0.52 0.36,-0.28 0.36,-1 v -9.16 q 0,-2 -1.24,-2.24 -0.44,-0.08 -0.44,-0.72 0,-0.56 0.4,-0.68 1.4,-0.32 3.04,-0.88 1.64,-0.56 2.72,-1.12 0.52,-0.32 0.72,-0.32 0.36,0 0.36,0.48 l -0.08,0.8 q -0.12,1.44 -0.12,1.48 0,0.52 0.08,0.6 1.48,-1.4 2.84,-2.08 1.4,-0.68 3.16,-0.68 2.16,0 3.52,1.56 1.4,1.56 1.4,4.16 v 8.8 q 0,0.72 0.36,1 0.36,0.28 1.16,0.52 0.8,0.28 0.8,0.8 0,0.24 -0.2,0.4 -0.2,0.16 -0.48,0.16 -1.2,0 -2.28,-0.12 -1.28,-0.08 -1.96,-0.08 -0.68,0 -1.96,0.08 -1,0.12 -2.24,0.12 -0.28,0 -0.48,-0.16 -0.2,-0.16 -0.2,-0.4 0,-0.52 0.8,-0.8 0.76,-0.24 1.08,-0.52 0.32,-0.28 0.32,-1 v -7.96 q 0,-1.52 -0.68,-2.36 -0.68,-0.88 -1.88,-0.92 -0.84,0 -1.52,0.28 -0.68,0.24 -1.44,0.76 -0.32,0.28 -0.32,0.76 v 9.44 q 0,0.72 0.32,1 0.32,0.24 1.12,0.52 0.8,0.28 0.8,0.8 0,0.24 -0.2,0.4 -0.2,0.16 -0.48,0.16 -1.2,0 -2.16,-0.12 -1.28,-0.08 -1.92,-0.08 -0.68,0 -2.04,0.08 -1.08,0.12 -2.32,0.12 z" />
  </g>
</svg>
