<?xml version="1.0" encoding="UTF-8" standalone="no"?>
<svg
   xmlns:dc="http://purl.org/dc/elements/1.1/"
   xmlns:cc="http://creativecommons.org/ns#"
   xmlns:rdf="http://www.w3.org/1999/02/22-rdf-syntax-ns#"
   xmlns:svg="http://www.w3.org/2000/svg"
   xmlns="http://www.w3.org/2000/svg"
   xmlns:xlink="http://www.w3.org/1999/xlink"
   id="svg3357"
   version="1.1"
   viewBox="0 0 211.40207 119.0625"
   height="119.0625mm"
   width="211.40207mm">
  <defs
     id="defs3351">
    <linearGradient
       id="linearGradient6114">
      <stop
         id="stop6110"
         offset="0"
         style="stop-color:#6f7c91;stop-opacity:1;" />
      <stop
         id="stop6112"
         offset="1"
         style="stop-color:#162d50;stop-opacity:1" />
    </linearGradient>
    <radialGradient
       gradientUnits="userSpaceOnUse"
       gradientTransform="matrix(3.0071285,0,0,1.83657,-125.12732,-58.151445)"
       r="31.67275"
       fy="66.986313"
       fx="73.77433"
       cy="66.986313"
       cx="73.77433"
       id="radialGradient6126"
       xlink:href="#linearGradient6114" />
    <filter
       height="1.8874642"
       y="-0.44373208"
       width="1.85333"
       x="-0.42666499"
       id="filter1742"
       style="color-interpolation-filters:sRGB">
      <feGaussianBlur
         id="feGaussianBlur1744"
         stdDeviation="1.0762038" />
    </filter>
    <filter
       height="1.6508067"
       y="-0.32540334"
       width="2.5847549"
       x="-0.79237746"
       id="filter1746"
       style="color-interpolation-filters:sRGB">
      <feGaussianBlur
         id="feGaussianBlur1748"
         stdDeviation="1.0762038" />
    </filter>
    <filter
       height="1.6596019"
       y="-0.32980096"
       width="2.5694727"
       x="-0.78473634"
       id="filter1750"
       style="color-interpolation-filters:sRGB">
      <feGaussianBlur
         id="feGaussianBlur1752"
         stdDeviation="1.0762038" />
    </filter>
    <filter
       height="1.7638576"
       y="-0.3819288"
       width="2.394586"
       x="-0.697293"
       id="filter1754"
       style="color-interpolation-filters:sRGB">
      <feGaussianBlur
         id="feGaussianBlur1756"
         stdDeviation="1.0762038" />
    </filter>
    <filter
       height="1.8874642"
       y="-0.44373208"
       width="1.9140543"
       x="-0.45702717"
       id="filter1758"
       style="color-interpolation-filters:sRGB">
      <feGaussianBlur
         id="feGaussianBlur1760"
         stdDeviation="1.0762038" />
    </filter>
    <filter
       height="1.7002945"
       y="-0.35014723"
       width="1.6631862"
       x="-0.33159309"
       id="filter1762"
       style="color-interpolation-filters:sRGB">
      <feGaussianBlur
         id="feGaussianBlur1764"
         stdDeviation="1.0762038" />
    </filter>
    <filter
       height="1.8874642"
       y="-0.44373208"
       width="1.85333"
       x="-0.42666499"
       id="filter1766"
       style="color-interpolation-filters:sRGB">
      <feGaussianBlur
         id="feGaussianBlur1768"
         stdDeviation="1.0762038" />
    </filter>
    <filter
       height="1.6508067"
       y="-0.32540334"
       width="2.5847598"
       x="-0.79237989"
       id="filter1770"
       style="color-interpolation-filters:sRGB">
      <feGaussianBlur
         id="feGaussianBlur1772"
         stdDeviation="1.0762038" />
    </filter>
    <filter
       height="1.8874642"
       y="-0.44373208"
       width="1.97621"
       x="-0.48810498"
       id="filter1774"
       style="color-interpolation-filters:sRGB">
      <feGaussianBlur
         id="feGaussianBlur1776"
         stdDeviation="1.0762038" />
    </filter>
    <filter
       height="1.6596019"
       y="-0.32980096"
       width="1.7962565"
       x="-0.39812827"
       id="filter1778"
       style="color-interpolation-filters:sRGB">
      <feGaussianBlur
         id="feGaussianBlur1780"
         stdDeviation="1.0762038" />
    </filter>
    <filter
       height="1.8874642"
       y="-0.44373208"
       width="1.9140545"
       x="-0.45702725"
       id="filter1782"
       style="color-interpolation-filters:sRGB">
      <feGaussianBlur
         id="feGaussianBlur1784"
         stdDeviation="1.0762038" />
    </filter>
    <filter
       height="1.6982904"
       y="-0.34914522"
       width="1.7936667"
       x="-0.39683334"
       id="filter1786"
       style="color-interpolation-filters:sRGB">
      <feGaussianBlur
         id="feGaussianBlur1788"
         stdDeviation="1.0762038" />
    </filter>
    <filter
       height="1.7638576"
       y="-0.3819288"
       width="2.3945958"
       x="-0.69729789"
       id="filter1790"
       style="color-interpolation-filters:sRGB">
      <feGaussianBlur
         id="feGaussianBlur1792"
         stdDeviation="1.0762038" />
    </filter>
    <filter
       height="1.8874626"
       y="-0.44373132"
       width="2.0126663"
       x="-0.50633317"
       id="filter1794"
       style="color-interpolation-filters:sRGB">
      <feGaussianBlur
         id="feGaussianBlur1796"
         stdDeviation="1.0762038" />
    </filter>
    <filter
       height="1.8874626"
       y="-0.44373132"
       width="1.9226938"
       x="-0.46134692"
       id="filter1798"
       style="color-interpolation-filters:sRGB">
      <feGaussianBlur
         id="feGaussianBlur1800"
         stdDeviation="1.0762038" />
    </filter>
    <filter
       height="1.6508067"
       y="-0.32540334"
       width="2.5847564"
       x="-0.79237819"
       id="filter1802"
       style="color-interpolation-filters:sRGB">
      <feGaussianBlur
         id="feGaussianBlur1804"
         stdDeviation="1.0762038" />
    </filter>
    <filter
       height="1.739553"
       y="-0.36977652"
       width="1.8518412"
       x="-0.4259206"
       id="filter1806"
       style="color-interpolation-filters:sRGB">
      <feGaussianBlur
         id="feGaussianBlur1808"
         stdDeviation="1.0762038" />
    </filter>
    <filter
       height="1.8874626"
       y="-0.44373132"
       width="1.922693"
       x="-0.46134651"
       id="filter1810"
       style="color-interpolation-filters:sRGB">
      <feGaussianBlur
         id="feGaussianBlur1812"
         stdDeviation="1.0762038" />
    </filter>
    <filter
       height="1.8874626"
       y="-0.44373132"
       width="1.8430134"
       x="-0.42150671"
       id="filter1814"
       style="color-interpolation-filters:sRGB">
      <feGaussianBlur
         id="feGaussianBlur1816"
         stdDeviation="1.0762038" />
    </filter>
    <filter
       height="1.8874626"
       y="-0.44373132"
       width="1.9140543"
       x="-0.45702717"
       id="filter1818"
       style="color-interpolation-filters:sRGB">
      <feGaussianBlur
         id="feGaussianBlur1820"
         stdDeviation="1.0762038" />
    </filter>
    <filter
       height="1.7199189"
       y="-0.35995945"
       width="1.7772372"
       x="-0.3886186"
       id="filter1822"
       style="color-interpolation-filters:sRGB">
      <feGaussianBlur
         id="feGaussianBlur1824"
         stdDeviation="1.0762038" />
    </filter>
  </defs>
  <metadata
     id="metadata3354">
    <rdf:RDF>
      <cc:Work
         rdf:about="">
        <dc:format>image/svg+xml</dc:format>
        <dc:type
           rdf:resource="http://purl.org/dc/dcmitype/StillImage" />
        <dc:title></dc:title>
      </cc:Work>
    </rdf:RDF>
  </metadata>
  <g
     id="g985">
    <path
       id="rect6108"
       d="M 1.4498902e-8,-2.2076415e-8 H 211.40207 V 119.0625 H 1.4498902e-8 Z"
       style="opacity:1;fill:#c83737;fill-opacity:1;stroke:none;stroke-width:4.38045835;stroke-miterlimit:4;stroke-dasharray:none;paint-order:stroke markers fill" />
    <g
       id="flowRoot874"
       style="font-style:normal;font-weight:normal;font-size:40px;line-height:1.25;font-family:sans-serif;letter-spacing:0px;word-spacing:0px;fill:#000000;fill-opacity:1;stroke:none"
       transform="matrix(1.1097917,0,0,1.0234149,-1.6397721,-6.8613634)" />
    <g
       id="flowRoot1087"
       style="font-style:normal;font-weight:normal;font-size:40px;line-height:1.25;font-family:sans-serif;letter-spacing:0px;word-spacing:0px;fill:#000000;fill-opacity:1;stroke:none"
       transform="translate(-1.4775493,-3.9803138)" />
    <path
       id="rect815"
       d="m 26.639165,34.32169 h 50.786184 c 1.081424,0 1.952029,0.870605 1.952029,1.952029 V 83.36966 c 0,1.081424 -0.870605,1.95203 -1.952029,1.95203 H 26.639165 c -1.081424,0 -1.952029,-0.870606 -1.952029,-1.95203 V 36.273719 c 0,-1.081424 0.870605,-1.952029 1.952029,-1.952029 z"
       style="opacity:1;fill:#373e48;fill-opacity:1;stroke:none;stroke-width:0.8369382;stroke-linecap:round;stroke-linejoin:round;stroke-miterlimit:4;stroke-dasharray:none;stroke-opacity:1;paint-order:stroke markers fill" />
    <g
       aria-label="K"
       transform="scale(1.1313787,0.88387734)"
       style="font-style:normal;font-weight:normal;font-size:32.36412048px;line-height:1.25;font-family:sans-serif;letter-spacing:0px;word-spacing:0px;fill:#ffffff;fill-opacity:1;stroke:none;stroke-width:0.80910301"
       id="text1353">
      <path
         d="m 34.080133,76.626953 3.68951,-19.677385 0.356005,-1.682934 H 45.05157 L 40.973691,76.626953 Z M 54.113524,74.71747 q -0.873831,2.556766 -4.2397,2.556766 -2.492037,0 -4.207336,-2.9775 -1.747662,-2.977499 -2.071303,-7.832117 3.560053,-6.505188 6.019726,-9.19141 2.362581,-2.556765 4.822254,-2.556765 1.326929,0 2.265489,0.71201 0.970923,0.712011 1.197472,1.844755 -1.10038,0.453098 -1.618206,0.809103 -1.294565,0.970924 -3.042227,3.13932 l -2.945135,3.527689 q -0.712011,0.841467 -1.003288,1.229836 0.485462,2.718587 1.941847,5.404809 1.391657,2.556765 2.880407,3.333504 z"
         style="font-style:normal;font-variant:normal;font-weight:normal;font-stretch:normal;font-family:'Sansita One';-inkscape-font-specification:'Sansita One';fill:#ffffff;stroke-width:0.80910301"
         id="path921" />
    </g>
    <path
       id="rect918"
       d="m 26.185117,34.32169 h 51.647668 c 0.855745,0 1.544666,0.688921 1.544666,1.544665 v 8.319077 c 0,0.855745 -0.688921,1.544666 -1.544666,1.544666 H 26.185117 c -0.855745,0 -1.544666,-0.688921 -1.544666,-1.544666 v -8.319077 c 0,-0.855744 0.688921,-1.544665 1.544666,-1.544665 z"
       style="opacity:1;fill:#666666;fill-opacity:1;stroke:none;stroke-width:0.74336612;stroke-linecap:round;stroke-linejoin:round;stroke-miterlimit:4;stroke-dasharray:none;stroke-opacity:1;paint-order:stroke markers fill" />
    <path
       id="rect817"
       d="m 40.753636,38.702583 h 22.557232 c 0.855744,0 1.544664,0.68892 1.544664,1.544664 0,0.855743 -0.68892,1.544663 -1.544664,1.544663 H 40.753636 c -0.855743,0 -1.544663,-0.68892 -1.544663,-1.544663 0,-0.855744 0.68892,-1.544664 1.544663,-1.544664 z"
       style="opacity:1;fill:#ffffff;fill-opacity:1;stroke:none;stroke-width:0.73087931;stroke-linecap:round;stroke-linejoin:round;stroke-miterlimit:4;stroke-dasharray:none;stroke-opacity:1;paint-order:stroke markers fill" />
    <path
       id="rect914"
       d="m 32.821588,70.107803 h 38.42133 c 0.557635,0 1.006561,0.448927 1.006561,1.006562 v 0.930597 c 0,0.557634 -0.448926,1.006561 -1.006561,1.006561 h -38.42133 c -0.557634,0 -1.006561,-0.448927 -1.006561,-1.006561 v -0.930597 c 0,-0.557635 0.448927,-1.006562 1.006561,-1.006562 z"
       style="opacity:1;fill:#aa4400;fill-opacity:1;stroke:none;stroke-width:0.7427516;stroke-linecap:round;stroke-linejoin:round;stroke-miterlimit:4;stroke-dasharray:none;stroke-opacity:1;paint-order:stroke markers fill" />
    <path
       id="rect916"
       d="m 32.821588,75.829414 h 38.42133 c 0.557635,0 1.006561,0.448927 1.006561,1.006562 v 0.930597 c 0,0.557634 -0.448926,1.006561 -1.006561,1.006561 h -38.42133 c -0.557634,0 -1.006561,-0.448927 -1.006561,-1.006561 v -0.930597 c 0,-0.557635 0.448927,-1.006562 1.006561,-1.006562 z"
       style="opacity:1;fill:#aa4400;fill-opacity:1;stroke:none;stroke-width:0.7427516;stroke-linecap:round;stroke-linejoin:round;stroke-miterlimit:4;stroke-dasharray:none;stroke-opacity:1;paint-order:stroke markers fill" />
    <g
       id="g1044"
       transform="matrix(1.3232243,0,0,1.8282547,113.20199,-272.03378)">
      <g
         id="text1028"
         style="font-style:normal;font-weight:normal;font-size:10.58333397px;line-height:1.25;font-family:sans-serif;letter-spacing:0px;word-spacing:0px;fill:#782121;fill-opacity:1;stroke:#782121;stroke-width:1.32291663;stroke-linecap:round;stroke-linejoin:round;stroke-miterlimit:4;stroke-dasharray:none"
         aria-label="Your  first  Codein Kotlin">
        <path
           id="path890"
           style="font-style:normal;font-variant:normal;font-weight:normal;font-stretch:normal;font-family:'Sansita One';-inkscape-font-specification:'Sansita One';text-align:center;text-anchor:middle;fill:#782121;stroke:#782121;stroke-width:1.32291663;stroke-linecap:round;stroke-linejoin:round;stroke-miterlimit:4;stroke-dasharray:none"
           d="m -20.683701,167.59539 q -0.306916,-2.86808 -1.386416,-3.48191 0.22225,-0.27517 0.582083,-0.42334 0.359833,-0.15875 0.79375,-0.15875 0.433917,0 0.762,0.15875 0.328083,0.14817 0.53975,0.47625 0.402167,0.62442 0.402167,2.11667 v 0.762 q 0.635,-1.86267 1.27,-2.667 0.645583,-0.8255 1.449917,-0.8255 0.3175,0 0.529166,0.16933 0.211667,0.15875 0.3175,0.40217 -0.814916,0.35983 -1.598083,1.397 -0.783167,1.03717 -1.291167,2.48708 l -0.624417,2.69875 h -2.360083 z" />
        <path
           id="path892"
           style="font-style:normal;font-variant:normal;font-weight:normal;font-stretch:normal;font-family:'Sansita One';-inkscape-font-specification:'Sansita One';text-align:center;text-anchor:middle;fill:#782121;stroke:#782121;stroke-width:1.32291663;stroke-linecap:round;stroke-linejoin:round;stroke-miterlimit:4;stroke-dasharray:none"
           d="m -14.208023,170.91856 q -2.328334,0 -2.328334,-2.19075 0,-1.55575 0.85725,-2.56117 0.910167,-1.06891 2.487084,-1.06891 1.143,0 1.725083,0.52916 0.582084,0.52917 0.582084,1.64042 0,1.69333 -0.910167,2.67758 -0.889,0.97367 -2.413,0.97367 z m 0.275166,-4.60375 q -0.127,0.28575 -0.232833,0.71967 -0.09525,0.42333 -0.22225,1.10066 -0.127,0.67734 -0.127,1.51342 0,0.27517 0.08467,0.45508 0.09525,0.17992 0.338666,0.17992 0.243417,0 0.391584,-0.11642 0.15875,-0.11641 0.275166,-0.39158 0.211667,-0.48683 0.381001,-1.38642 0.169333,-0.91016 0.179916,-1.30175 0.02117,-0.39158 0.02117,-0.67733 0,-0.29633 -0.08467,-0.48683 -0.08467,-0.1905 -0.328083,-0.1905 -0.232834,0 -0.391584,0.14816 -0.15875,0.14817 -0.28575,0.43392 z" />
        <path
           id="path894"
           style="font-style:normal;font-variant:normal;font-weight:normal;font-stretch:normal;font-family:'Sansita One';-inkscape-font-specification:'Sansita One';text-align:center;text-anchor:middle;fill:#782121;stroke:#782121;stroke-width:1.32291663;stroke-linecap:round;stroke-linejoin:round;stroke-miterlimit:4;stroke-dasharray:none"
           d="m -6.8547553,170.26239 q -0.508,0.65617 -1.7674168,0.65617 -0.6561667,0 -1.1324167,-0.39158 -0.4762502,-0.40217 -0.4762502,-0.97367 0,-0.3175 0.03175,-0.47625 l 0.7090836,-3.76767 2.1484168,-0.21166 -0.7725834,4.08516 q -0.042333,0.23284 -0.042333,0.37042 0,0.61383 0.3704167,0.61383 0.41275,0 0.7090834,-0.56091 0.09525,-0.17992 0.1375833,-0.41275 l 0.7514168,-3.88409 2.0849167,-0.21166 -0.7831667,4.1275 q -0.03175,0.15875 -0.03175,0.32808 0,0.16933 0.09525,0.35983 0.09525,0.17992 0.4021667,0.22225 -0.0635,0.254 -0.28575,0.42334 -0.4656667,0.35983 -0.9736667,0.35983 -0.4974167,0 -0.7937501,-0.17992 -0.2963333,-0.17991 -0.381,-0.47625 z" />
        <path
           id="path896"
           style="font-style:normal;font-variant:normal;font-weight:normal;font-stretch:normal;font-family:'Sansita One';-inkscape-font-specification:'Sansita One';text-align:center;text-anchor:middle;fill:#782121;stroke:#782121;stroke-width:1.32291663;stroke-linecap:round;stroke-linejoin:round;stroke-miterlimit:4;stroke-dasharray:none"
           d="m -0.2214864,167.73298 q 0.38100003,-0.67734 0.38100003,-1.36525 0,-0.45509 -0.32808336,-0.45509 -0.25400001,0 -0.51858336,0.43392 -0.27516668,0.43392 -0.35983331,0.99483 l -0.5503334,3.3655 -2.1907501,0.21167 1.0795,-5.60917 1.74625013,-0.21166 -0.19050003,1.06891 q 0.51858338,-1.06891 1.68275012,-1.06891 0.61383338,0 0.94191668,0.3175 0.3386667,0.3175 0.3386667,0.97366 0,0.64559 -0.4339167,1.05834 -0.42333333,0.41275 -1.15358337,0.41275 -0.31750002,0 -0.44450003,-0.127 z" />
        <path
           id="path898"
           style="font-style:normal;font-variant:normal;font-weight:normal;font-stretch:normal;font-family:'Sansita One';-inkscape-font-specification:'Sansita One';text-align:center;text-anchor:middle;fill:#782121;stroke:#782121;stroke-width:1.32291663;stroke-linecap:round;stroke-linejoin:round;stroke-miterlimit:4;stroke-dasharray:none"
           d="m 10.453296,164.56856 q 0.148166,-0.254 0.148166,-0.52917 0,-0.48683 -0.296333,-0.48683 -0.4550835,0 -0.6455835,0.93133 l -0.15875,0.8255 h 0.9630835 l -0.0635,0.47625 H 9.4055454 l -0.9525,4.92125 -2.1378335,0.21167 1.0160001,-5.13292 H 6.5797953 l 0.09525,-0.47625 h 0.7408334 l 0.22225,-0.83608 q 0.1905,-0.77258 1.0054167,-1.13242 0.5926667,-0.254 1.5874996,-0.254 0.994834,0 1.439334,0.254 0.4445,0.254 0.4445,0.59267 0,0.33867 -0.264583,0.55033 -0.264584,0.21167 -0.560917,0.21167 -0.582083,0 -0.836083,-0.127 z" />
        <path
           id="path900"
           style="font-style:normal;font-variant:normal;font-weight:normal;font-stretch:normal;font-family:'Sansita One';-inkscape-font-specification:'Sansita One';text-align:center;text-anchor:middle;fill:#782121;stroke:#782121;stroke-width:1.32291663;stroke-linecap:round;stroke-linejoin:round;stroke-miterlimit:4;stroke-dasharray:none"
           d="m 13.826733,170.12481 q -0.328083,0.79375 -1.375834,0.79375 -0.53975,0 -0.878416,-0.37042 -0.28575,-0.32808 -0.28575,-0.65616 0,-0.85725 0.391583,-2.52942 l 0.391583,-2.05317 2.148417,-0.21166 -0.645583,3.34433 q -0.179917,0.78317 -0.179917,1.05833 0,0.60325 0.433917,0.62442 z m -1.566334,-6.2865 q 0,-0.41275 0.338667,-0.635 0.34925,-0.22225 0.846667,-0.22225 0.497417,0 0.79375,0.22225 0.306917,0.22225 0.306917,0.635 0,0.41275 -0.338667,0.62442 -0.328083,0.21166 -0.8255,0.21166 -0.497417,0 -0.814917,-0.21166 -0.306917,-0.21167 -0.306917,-0.62442 z" />
        <path
           id="path902"
           style="font-style:normal;font-variant:normal;font-weight:normal;font-stretch:normal;font-family:'Sansita One';-inkscape-font-specification:'Sansita One';text-align:center;text-anchor:middle;fill:#782121;stroke:#782121;stroke-width:1.32291663;stroke-linecap:round;stroke-linejoin:round;stroke-miterlimit:4;stroke-dasharray:none"
           d="m 18.030633,167.73298 q 0.381,-0.67734 0.381,-1.36525 0,-0.45509 -0.328084,-0.45509 -0.254,0 -0.518583,0.43392 -0.275167,0.43392 -0.359833,0.99483 l -0.550334,3.3655 -2.19075,0.21167 1.0795,-5.60917 1.74625,-0.21166 -0.1905,1.06891 q 0.518584,-1.06891 1.68275,-1.06891 0.613834,0 0.941917,0.3175 0.338667,0.3175 0.338667,0.97366 0,0.64559 -0.433917,1.05834 -0.423333,0.41275 -1.153583,0.41275 -0.3175,0 -0.4445,-0.127 z" />
        <path
           id="path904"
           style="font-style:normal;font-variant:normal;font-weight:normal;font-stretch:normal;font-family:'Sansita One';-inkscape-font-specification:'Sansita One';text-align:center;text-anchor:middle;fill:#782121;stroke:#782121;stroke-width:1.32291663;stroke-linecap:round;stroke-linejoin:round;stroke-miterlimit:4;stroke-dasharray:none"
           d="m 23.401509,166.99214 q 0.148167,-0.39158 0.148167,-0.73025 0,-0.62441 -0.508,-0.62441 -0.264584,0 -0.486834,0.24341 -0.211666,0.23284 -0.211666,0.52917 0,0.21167 0.169333,0.381 0.243417,0.23283 0.867833,0.61383 0.624417,0.381 0.85725,0.6985 0.243417,0.30692 0.243417,0.74084 0,0.42333 -0.211667,0.81491 -0.201083,0.39159 -0.5715,0.66675 -0.79375,0.59267 -2.06375,0.59267 -0.687917,0 -1.217083,-0.35983 -0.529167,-0.34925 -0.529167,-0.762 0,-0.41275 0.296333,-0.65617 0.306917,-0.24342 0.751417,-0.24342 0.4445,0 0.719667,0.16934 -0.137583,0.34925 -0.137583,0.58208 0,0.6985 0.592666,0.6985 0.254,0 0.423334,-0.15875 0.169333,-0.15875 0.169333,-0.43392 0,-0.53975 -0.910167,-1.11125 -0.740833,-0.48683 -0.910167,-0.67733 -0.28575,-0.33867 -0.28575,-0.762 0,-0.42333 0.201084,-0.8255 0.201083,-0.40217 0.5715,-0.68792 0.772583,-0.59266 2.116667,-0.59266 0.687916,0 1.090083,0.27516 0.41275,0.27517 0.41275,0.74084 0,0.46566 -0.28575,0.73025 -0.275167,0.26458 -0.783167,0.26458 -0.34925,0 -0.518583,-0.11642 z" />
        <path
           id="path906"
           style="font-style:normal;font-variant:normal;font-weight:normal;font-stretch:normal;font-family:'Sansita One';-inkscape-font-specification:'Sansita One';text-align:center;text-anchor:middle;fill:#782121;stroke:#782121;stroke-width:1.32291663;stroke-linecap:round;stroke-linejoin:round;stroke-miterlimit:4;stroke-dasharray:none"
           d="m 25.553398,169.64856 q 0,-0.28575 0.148167,-1.00542 l 0.560916,-2.8575 h -0.624416 l 0.04233,-0.3175 q 1.27,-0.381 2.497667,-1.31233 h 0.508 l -0.254,1.15358 h 0.8255 l -0.09525,0.47625 h -0.814917 l -0.53975,2.8575 q -0.137583,0.65617 -0.137583,0.87842 0,0.508 0.4445,0.61383 -0.105833,0.35984 -0.486833,0.5715 -0.381,0.21167 -0.92075,0.21167 -0.539751,0 -0.846667,-0.33867 -0.306917,-0.33866 -0.306917,-0.93133 z" />
        <path
           id="path908"
           style="font-style:normal;font-variant:normal;font-weight:normal;font-stretch:normal;font-family:'Sansita One';-inkscape-font-specification:'Sansita One';text-align:center;text-anchor:middle;fill:#782121;stroke:#782121;stroke-width:1.32291663;stroke-linecap:round;stroke-linejoin:round;stroke-miterlimit:4;stroke-dasharray:none"
           d="m 39.07344,168.51614 q 0.275167,0.20109 0.275167,0.635 0,0.42334 -0.1905,0.73025 -0.179917,0.29634 -0.53975,0.52917 -0.772584,0.49742 -2.12725,0.49742 -1.344084,0 -2.084917,-0.6985 -0.73025,-0.70909 -0.73025,-1.95792 0,-1.76742 0.92075,-3.1115 0.6985,-0.99483 1.947333,-1.41817 0.645584,-0.21166 1.280584,-0.21166 0.635,0 1.026583,0.0847 0.391583,0.0847 0.687917,0.254 0.645583,0.37042 0.645583,0.96309 0,0.53975 -0.508,0.94191 -0.465667,0.35984 -0.846667,0.35984 -0.381,0 -0.53975,-0.0529 0.04233,-0.381 0.04233,-0.62442 0,-0.254 -0.01058,-0.43391 -0.01058,-0.17992 -0.0635,-0.34925 -0.105833,-0.39159 -0.433916,-0.39159 -0.3175,0 -0.645584,0.30692 -0.3175,0.29633 -0.592666,0.80433 -0.624417,1.15359 -0.624417,2.51884 0,0.65616 0.370417,1.03716 0.370416,0.37042 1.164166,0.37042 0.592667,0 1.153584,-0.39158 0.243416,-0.16934 0.423333,-0.39159 z" />
        <path
           id="path910"
           style="font-style:normal;font-variant:normal;font-weight:normal;font-stretch:normal;font-family:'Sansita One';-inkscape-font-specification:'Sansita One';text-align:center;text-anchor:middle;fill:#782121;stroke:#782121;stroke-width:1.32291663;stroke-linecap:round;stroke-linejoin:round;stroke-miterlimit:4;stroke-dasharray:none"
           d="m 42.532704,170.91856 q -2.328333,0 -2.328333,-2.19075 0,-1.55575 0.85725,-2.56117 0.910166,-1.06891 2.487083,-1.06891 1.143,0 1.725084,0.52916 0.582083,0.52917 0.582083,1.64042 0,1.69333 -0.910167,2.67758 -0.889,0.97367 -2.413,0.97367 z m 0.275167,-4.60375 q -0.127,0.28575 -0.232833,0.71967 -0.09525,0.42333 -0.22225,1.10066 -0.127,0.67734 -0.127,1.51342 0,0.27517 0.08467,0.45508 0.09525,0.17992 0.338667,0.17992 0.243417,0 0.391583,-0.11642 0.15875,-0.11641 0.275167,-0.39158 0.211667,-0.48683 0.381,-1.38642 0.169333,-0.91016 0.179917,-1.30175 0.02117,-0.39158 0.02117,-0.67733 0,-0.29633 -0.08467,-0.48683 -0.08467,-0.1905 -0.328084,-0.1905 -0.232833,0 -0.391583,0.14816 -0.15875,0.14817 -0.28575,0.43392 z" />
        <path
           id="path912"
           style="font-style:normal;font-variant:normal;font-weight:normal;font-stretch:normal;font-family:'Sansita One';-inkscape-font-specification:'Sansita One';text-align:center;text-anchor:middle;fill:#782121;stroke:#782121;stroke-width:1.32291663;stroke-linecap:round;stroke-linejoin:round;stroke-miterlimit:4;stroke-dasharray:none"
           d="m 49.822471,165.09773 q 0.381,0 0.677334,0.0847 0.01058,-0.0423 0.03175,-0.15875 l 0.05292,-0.32808 q 0.04233,-0.21167 0.105834,-0.56092 l 0.169333,-0.83608 2.106083,-0.21167 -1.17475,6.13834 q -0.01058,0.0635 -0.01058,0.16933 v 0.16933 q 0,0.23284 0.116417,0.41275 0.116416,0.16934 0.306916,0.16934 -0.211666,0.49741 -0.85725,0.70908 -0.22225,0.0635 -0.53975,0.0635 -0.306916,0 -0.592666,-0.16933 -0.28575,-0.15875 -0.370417,-0.43392 -0.169333,0.27517 -0.508,0.43392 -0.338667,0.16933 -0.836084,0.16933 -0.486833,0 -0.899583,-0.127 -0.402167,-0.127 -0.656167,-0.40217 -0.465666,-0.53975 -0.465666,-1.76741 0,-1.5875 0.931333,-2.55059 0.931333,-0.97366 2.413,-0.97366 z m -0.07408,0.635 q -0.391584,0 -0.60325,0.42333 -0.211667,0.42333 -0.433917,1.47108 -0.211667,1.04775 -0.211667,1.98967 0,0.64558 0.381,0.64558 0.338667,0 0.5715,-0.33866 0.243417,-0.33867 0.338667,-0.89959 l 0.5715,-3.10091 q -0.22225,-0.1905 -0.613833,-0.1905 z" />
        <path
           id="path914"
           style="font-style:normal;font-variant:normal;font-weight:normal;font-stretch:normal;font-family:'Sansita One';-inkscape-font-specification:'Sansita One';text-align:center;text-anchor:middle;fill:#782121;stroke:#782121;stroke-width:1.32291663;stroke-linecap:round;stroke-linejoin:round;stroke-miterlimit:4;stroke-dasharray:none"
           d="m 57.389557,168.91831 q 0.264583,0.17992 0.264583,0.58208 0,0.39159 -0.201083,0.64559 -0.201083,0.254 -0.529167,0.42333 -0.677333,0.34925 -1.407583,0.34925 -0.73025,0 -1.164167,-0.15875 -0.423333,-0.15875 -0.709083,-0.45508 -0.560917,-0.56092 -0.560917,-1.5875 0,-1.59809 0.867834,-2.57175 0.931333,-1.04775 2.550583,-1.04775 1.005417,0 1.502833,0.42333 0.370417,0.3175 0.370417,0.83608 0,1.86267 -3.217333,1.86267 -0.04233,0.27517 -0.04233,0.508 0,0.48683 0.211667,0.67733 0.22225,0.17992 0.624417,0.17992 0.402166,0 0.8255,-0.17992 0.433916,-0.1905 0.613833,-0.48683 z m -2.159,-1.15358 q 0.751417,0 1.185333,-0.46567 0.433917,-0.4445 0.433917,-1.15358 0,-0.24342 -0.09525,-0.37042 -0.08467,-0.13758 -0.264583,-0.13758 -0.179917,0 -0.338667,0.0741 -0.148167,0.0635 -0.306917,0.29633 -0.391583,0.52917 -0.613833,1.75684 z" />
        <path
           id="path916"
           style="font-style:normal;font-variant:normal;font-weight:normal;font-stretch:normal;font-family:'Sansita One';-inkscape-font-specification:'Sansita One';text-align:center;text-anchor:middle;fill:#782121;stroke:#782121;stroke-width:1.32291663;stroke-linecap:round;stroke-linejoin:round;stroke-miterlimit:4;stroke-dasharray:none"
           d="m 14.632885,183.35398 q -0.328084,0.79375 -1.375834,0.79375 -0.53975,0 -0.878416,-0.37041 -0.28575,-0.32809 -0.28575,-0.65617 0,-0.85725 0.391583,-2.52942 l 0.391583,-2.05316 2.148417,-0.21167 -0.645583,3.34433 q -0.179917,0.78317 -0.179917,1.05834 0,0.60325 0.433917,0.62441 z m -1.566334,-6.2865 q 0,-0.41275 0.338667,-0.635 0.34925,-0.22225 0.846667,-0.22225 0.497416,0 0.79375,0.22225 0.306916,0.22225 0.306916,0.635 0,0.41275 -0.338666,0.62442 -0.328084,0.21167 -0.8255,0.21167 -0.497417,0 -0.814917,-0.21167 -0.306917,-0.21167 -0.306917,-0.62442 z" />
        <path
           id="path918"
           style="font-style:normal;font-variant:normal;font-weight:normal;font-stretch:normal;font-family:'Sansita One';-inkscape-font-specification:'Sansita One';text-align:center;text-anchor:middle;fill:#782121;stroke:#782121;stroke-width:1.32291663;stroke-linecap:round;stroke-linejoin:round;stroke-miterlimit:4;stroke-dasharray:none"
           d="m 20.00095,184.14773 q -1.280583,0 -1.280583,-0.99483 0.01058,-0.27517 0.09525,-0.74083 l 0.1905,-0.97367 q 0.28575,-1.37583 0.28575,-1.68275 0,-0.61383 -0.359833,-0.61383 -0.60325,0 -0.92075,1.57691 l -0.624417,3.21734 -2.12725,0.21166 1.100666,-5.61975 1.735667,-0.20108 -0.169333,1.03717 q 0.497417,-1.03717 2.021417,-1.03717 0.740833,0 1.04775,0.3175 0.3175,0.30692 0.3175,1.00542 0,0.65616 -0.338667,2.19075 -0.15875,0.68791 -0.15875,0.9525 0,0.254 0.137583,0.40216 0.148167,0.14817 0.359834,0.16934 -0.105834,0.35983 -0.47625,0.5715 -0.359834,0.21166 -0.836084,0.21166 z" />
        <path
           id="path920"
           style="font-style:normal;font-variant:normal;font-weight:normal;font-stretch:normal;font-family:'Sansita One';-inkscape-font-specification:'Sansita One';text-align:center;text-anchor:middle;fill:#782121;stroke:#782121;stroke-width:1.32291663;stroke-linecap:round;stroke-linejoin:round;stroke-miterlimit:4;stroke-dasharray:none"
           d="m 2.7888938,197.16524 1.2065001,-6.43467 0.1164167,-0.55033 H 6.376644 l -1.3335,6.985 z m 6.5510838,-0.62442 q -0.2857501,0.83608 -1.3864168,0.83608 -0.8149167,0 -1.3758334,-0.97366 -0.5715,-0.97367 -0.6773334,-2.56117 1.1641668,-2.12725 1.9685001,-3.00567 0.7725834,-0.83608 1.5769168,-0.83608 0.4339167,0 0.7408331,0.23283 0.3175,0.23284 0.391584,0.60325 -0.359834,0.14817 -0.529167,0.26459 -0.4233334,0.3175 -0.9948335,1.02658 l -0.9630833,1.15358 q -0.2328334,0.27517 -0.3280834,0.40217 0.15875,0.889 0.635,1.76742 0.4550834,0.83608 0.9419168,1.09008 z" />
        <path
           id="path922"
           style="font-style:normal;font-variant:normal;font-weight:normal;font-stretch:normal;font-family:'Sansita One';-inkscape-font-specification:'Sansita One';text-align:center;text-anchor:middle;fill:#782121;stroke:#782121;stroke-width:1.32291663;stroke-linecap:round;stroke-linejoin:round;stroke-miterlimit:4;stroke-dasharray:none"
           d="m 12.260647,197.3769 q -2.3283334,0 -2.3283334,-2.19075 0,-1.55575 0.8572504,-2.56116 0.910166,-1.06892 2.487083,-1.06892 1.143,0 1.725084,0.52917 0.582083,0.52916 0.582083,1.64041 0,1.69334 -0.910167,2.67759 -0.889,0.97366 -2.413,0.97366 z m 0.275167,-4.60375 q -0.127,0.28575 -0.232834,0.71967 -0.09525,0.42333 -0.22225,1.10067 -0.127,0.67733 -0.127,1.51341 0,0.27517 0.08467,0.45509 0.09525,0.17991 0.338667,0.17991 0.243416,0 0.391583,-0.11641 0.15875,-0.11642 0.275167,-0.39159 0.211666,-0.48683 0.381,-1.38641 0.169333,-0.91017 0.179916,-1.30175 0.02117,-0.39159 0.02117,-0.67734 0,-0.29633 -0.08467,-0.48683 -0.08467,-0.1905 -0.328083,-0.1905 -0.232833,0 -0.391583,0.14817 -0.15875,0.14816 -0.28575,0.43391 z" />
        <path
           id="path924"
           style="font-style:normal;font-variant:normal;font-weight:normal;font-stretch:normal;font-family:'Sansita One';-inkscape-font-specification:'Sansita One';text-align:center;text-anchor:middle;fill:#782121;stroke:#782121;stroke-width:1.32291663;stroke-linecap:round;stroke-linejoin:round;stroke-miterlimit:4;stroke-dasharray:none"
           d="m 16.385998,196.1069 q 0,-0.28575 0.148166,-1.00541 l 0.560917,-2.8575 h -0.624417 l 0.04233,-0.3175 q 1.27,-0.381 2.497666,-1.31234 h 0.508001 l -0.254,1.15359 h 0.8255 l -0.09525,0.47625 h -0.814917 l -0.53975,2.8575 q -0.137584,0.65616 -0.137584,0.87841 0,0.508 0.4445,0.61384 -0.105833,0.35983 -0.486833,0.5715 -0.381,0.21166 -0.92075,0.21166 -0.53975,0 -0.846667,-0.33866 -0.306916,-0.33867 -0.306916,-0.93134 z" />
        <path
           id="path926"
           style="font-style:normal;font-variant:normal;font-weight:normal;font-stretch:normal;font-family:'Sansita One';-inkscape-font-specification:'Sansita One';text-align:center;text-anchor:middle;fill:#782121;stroke:#782121;stroke-width:1.32291663;stroke-linecap:round;stroke-linejoin:round;stroke-miterlimit:4;stroke-dasharray:none"
           d="m 22.570137,196.58315 q -0.328084,0.79375 -1.375834,0.79375 -0.529166,0 -0.867833,-0.37041 -0.275167,-0.30692 -0.275167,-0.65617 0,-0.79375 0.370417,-2.52942 l 0.772583,-4.064 2.148417,-0.21166 -1.026583,5.35516 q -0.179917,0.78317 -0.179917,1.05834 0,0.60325 0.433917,0.62441 z" />
        <path
           id="path928"
           style="font-style:normal;font-variant:normal;font-weight:normal;font-stretch:normal;font-family:'Sansita One';-inkscape-font-specification:'Sansita One';text-align:center;text-anchor:middle;fill:#782121;stroke:#782121;stroke-width:1.32291663;stroke-linecap:round;stroke-linejoin:round;stroke-miterlimit:4;stroke-dasharray:none"
           d="m 26.012037,196.58315 q -0.328084,0.79375 -1.375834,0.79375 -0.53975,0 -0.878417,-0.37041 -0.28575,-0.32809 -0.28575,-0.65617 0,-0.85725 0.391584,-2.52942 l 0.391583,-2.05316 2.148417,-0.21167 -0.645583,3.34433 q -0.179917,0.78317 -0.179917,1.05834 0,0.60325 0.433917,0.62441 z m -1.566334,-6.2865 q 0,-0.41275 0.338667,-0.635 0.34925,-0.22225 0.846667,-0.22225 0.497416,0 0.79375,0.22225 0.306916,0.22225 0.306916,0.635 0,0.41275 -0.338666,0.62442 -0.328084,0.21167 -0.825501,0.21167 -0.497416,0 -0.814916,-0.21167 -0.306917,-0.21167 -0.306917,-0.62442 z" />
        <path
           id="path930"
           style="font-style:normal;font-variant:normal;font-weight:normal;font-stretch:normal;font-family:'Sansita One';-inkscape-font-specification:'Sansita One';text-align:center;text-anchor:middle;fill:#782121;stroke:#782121;stroke-width:1.32291663;stroke-linecap:round;stroke-linejoin:round;stroke-miterlimit:4;stroke-dasharray:none"
           d="m 31.380101,197.3769 q -1.280583,0 -1.280583,-0.99483 0.01058,-0.27517 0.09525,-0.74083 l 0.1905,-0.97367 q 0.28575,-1.37583 0.28575,-1.68275 0,-0.61383 -0.359834,-0.61383 -0.60325,0 -0.92075,1.57691 l -0.624416,3.21734 -2.127251,0.21166 1.100667,-5.61975 1.735667,-0.20108 -0.169333,1.03717 q 0.497416,-1.03717 2.021416,-1.03717 0.740834,0 1.047751,0.3175 0.3175,0.30692 0.3175,1.00542 0,0.65616 -0.338667,2.19075 -0.15875,0.68791 -0.15875,0.9525 0,0.254 0.137583,0.40216 0.148167,0.14817 0.359834,0.16934 -0.105834,0.35983 -0.476251,0.5715 -0.359833,0.21166 -0.836083,0.21166 z" />
      </g>
      <g
         id="text1014"
         style="font-style:normal;font-weight:normal;font-size:10.58333397px;line-height:1.25;font-family:sans-serif;letter-spacing:0px;word-spacing:0px;fill:#ffffff;fill-opacity:1;stroke:none;stroke-width:0.26458335"
         aria-label="Your  first  Codein Kotlin">
        <path
           id="path933"
           style="font-style:normal;font-variant:normal;font-weight:normal;font-stretch:normal;font-family:'Sansita One';-inkscape-font-specification:'Sansita One';text-align:center;text-anchor:middle;fill:#ffffff;stroke-width:0.26458335"
           d="m -20.683701,167.59539 q -0.306916,-2.86808 -1.386416,-3.48191 0.22225,-0.27517 0.582083,-0.42334 0.359833,-0.15875 0.79375,-0.15875 0.433917,0 0.762,0.15875 0.328083,0.14817 0.53975,0.47625 0.402167,0.62442 0.402167,2.11667 v 0.762 q 0.635,-1.86267 1.27,-2.667 0.645583,-0.8255 1.449917,-0.8255 0.3175,0 0.529166,0.16933 0.211667,0.15875 0.3175,0.40217 -0.814916,0.35983 -1.598083,1.397 -0.783167,1.03717 -1.291167,2.48708 l -0.624417,2.69875 h -2.360083 z" />
        <path
           id="path935"
           style="font-style:normal;font-variant:normal;font-weight:normal;font-stretch:normal;font-family:'Sansita One';-inkscape-font-specification:'Sansita One';text-align:center;text-anchor:middle;fill:#ffffff;stroke-width:0.26458335"
           d="m -14.208023,170.91856 q -2.328334,0 -2.328334,-2.19075 0,-1.55575 0.85725,-2.56117 0.910167,-1.06891 2.487084,-1.06891 1.143,0 1.725083,0.52916 0.582084,0.52917 0.582084,1.64042 0,1.69333 -0.910167,2.67758 -0.889,0.97367 -2.413,0.97367 z m 0.275166,-4.60375 q -0.127,0.28575 -0.232833,0.71967 -0.09525,0.42333 -0.22225,1.10066 -0.127,0.67734 -0.127,1.51342 0,0.27517 0.08467,0.45508 0.09525,0.17992 0.338666,0.17992 0.243417,0 0.391584,-0.11642 0.15875,-0.11641 0.275166,-0.39158 0.211667,-0.48683 0.381001,-1.38642 0.169333,-0.91016 0.179916,-1.30175 0.02117,-0.39158 0.02117,-0.67733 0,-0.29633 -0.08467,-0.48683 -0.08467,-0.1905 -0.328083,-0.1905 -0.232834,0 -0.391584,0.14816 -0.15875,0.14817 -0.28575,0.43392 z" />
        <path
           id="path937"
           style="font-style:normal;font-variant:normal;font-weight:normal;font-stretch:normal;font-family:'Sansita One';-inkscape-font-specification:'Sansita One';text-align:center;text-anchor:middle;fill:#ffffff;stroke-width:0.26458335"
           d="m -6.8547553,170.26239 q -0.508,0.65617 -1.7674168,0.65617 -0.6561667,0 -1.1324167,-0.39158 -0.4762502,-0.40217 -0.4762502,-0.97367 0,-0.3175 0.03175,-0.47625 l 0.7090836,-3.76767 2.1484168,-0.21166 -0.7725834,4.08516 q -0.042333,0.23284 -0.042333,0.37042 0,0.61383 0.3704167,0.61383 0.41275,0 0.7090834,-0.56091 0.09525,-0.17992 0.1375833,-0.41275 l 0.7514168,-3.88409 2.0849167,-0.21166 -0.7831667,4.1275 q -0.03175,0.15875 -0.03175,0.32808 0,0.16933 0.09525,0.35983 0.09525,0.17992 0.4021667,0.22225 -0.0635,0.254 -0.28575,0.42334 -0.4656667,0.35983 -0.9736667,0.35983 -0.4974167,0 -0.7937501,-0.17992 -0.2963333,-0.17991 -0.381,-0.47625 z" />
        <path
           id="path939"
           style="font-style:normal;font-variant:normal;font-weight:normal;font-stretch:normal;font-family:'Sansita One';-inkscape-font-specification:'Sansita One';text-align:center;text-anchor:middle;fill:#ffffff;stroke-width:0.26458335"
           d="m -0.2214864,167.73298 q 0.38100003,-0.67734 0.38100003,-1.36525 0,-0.45509 -0.32808336,-0.45509 -0.25400001,0 -0.51858336,0.43392 -0.27516668,0.43392 -0.35983331,0.99483 l -0.5503334,3.3655 -2.1907501,0.21167 1.0795,-5.60917 1.74625013,-0.21166 -0.19050003,1.06891 q 0.51858338,-1.06891 1.68275012,-1.06891 0.61383338,0 0.94191668,0.3175 0.3386667,0.3175 0.3386667,0.97366 0,0.64559 -0.4339167,1.05834 -0.42333333,0.41275 -1.15358337,0.41275 -0.31750002,0 -0.44450003,-0.127 z" />
        <path
           id="path941"
           style="font-style:normal;font-variant:normal;font-weight:normal;font-stretch:normal;font-family:'Sansita One';-inkscape-font-specification:'Sansita One';text-align:center;text-anchor:middle;fill:#ffffff;stroke-width:0.26458335"
           d="m 10.453296,164.56856 q 0.148166,-0.254 0.148166,-0.52917 0,-0.48683 -0.296333,-0.48683 -0.4550835,0 -0.6455835,0.93133 l -0.15875,0.8255 h 0.9630835 l -0.0635,0.47625 H 9.4055454 l -0.9525,4.92125 -2.1378335,0.21167 1.0160001,-5.13292 H 6.5797953 l 0.09525,-0.47625 h 0.7408334 l 0.22225,-0.83608 q 0.1905,-0.77258 1.0054167,-1.13242 0.5926667,-0.254 1.5874996,-0.254 0.994834,0 1.439334,0.254 0.4445,0.254 0.4445,0.59267 0,0.33867 -0.264583,0.55033 -0.264584,0.21167 -0.560917,0.21167 -0.582083,0 -0.836083,-0.127 z" />
        <path
           id="path943"
           style="font-style:normal;font-variant:normal;font-weight:normal;font-stretch:normal;font-family:'Sansita One';-inkscape-font-specification:'Sansita One';text-align:center;text-anchor:middle;fill:#ffffff;stroke-width:0.26458335"
           d="m 13.826733,170.12481 q -0.328083,0.79375 -1.375834,0.79375 -0.53975,0 -0.878416,-0.37042 -0.28575,-0.32808 -0.28575,-0.65616 0,-0.85725 0.391583,-2.52942 l 0.391583,-2.05317 2.148417,-0.21166 -0.645583,3.34433 q -0.179917,0.78317 -0.179917,1.05833 0,0.60325 0.433917,0.62442 z m -1.566334,-6.2865 q 0,-0.41275 0.338667,-0.635 0.34925,-0.22225 0.846667,-0.22225 0.497417,0 0.79375,0.22225 0.306917,0.22225 0.306917,0.635 0,0.41275 -0.338667,0.62442 -0.328083,0.21166 -0.8255,0.21166 -0.497417,0 -0.814917,-0.21166 -0.306917,-0.21167 -0.306917,-0.62442 z" />
        <path
           id="path945"
           style="font-style:normal;font-variant:normal;font-weight:normal;font-stretch:normal;font-family:'Sansita One';-inkscape-font-specification:'Sansita One';text-align:center;text-anchor:middle;fill:#ffffff;stroke-width:0.26458335"
           d="m 18.030633,167.73298 q 0.381,-0.67734 0.381,-1.36525 0,-0.45509 -0.328084,-0.45509 -0.254,0 -0.518583,0.43392 -0.275167,0.43392 -0.359833,0.99483 l -0.550334,3.3655 -2.19075,0.21167 1.0795,-5.60917 1.74625,-0.21166 -0.1905,1.06891 q 0.518584,-1.06891 1.68275,-1.06891 0.613834,0 0.941917,0.3175 0.338667,0.3175 0.338667,0.97366 0,0.64559 -0.433917,1.05834 -0.423333,0.41275 -1.153583,0.41275 -0.3175,0 -0.4445,-0.127 z" />
        <path
           id="path947"
           style="font-style:normal;font-variant:normal;font-weight:normal;font-stretch:normal;font-family:'Sansita One';-inkscape-font-specification:'Sansita One';text-align:center;text-anchor:middle;fill:#ffffff;stroke-width:0.26458335"
           d="m 23.401509,166.99214 q 0.148167,-0.39158 0.148167,-0.73025 0,-0.62441 -0.508,-0.62441 -0.264584,0 -0.486834,0.24341 -0.211666,0.23284 -0.211666,0.52917 0,0.21167 0.169333,0.381 0.243417,0.23283 0.867833,0.61383 0.624417,0.381 0.85725,0.6985 0.243417,0.30692 0.243417,0.74084 0,0.42333 -0.211667,0.81491 -0.201083,0.39159 -0.5715,0.66675 -0.79375,0.59267 -2.06375,0.59267 -0.687917,0 -1.217083,-0.35983 -0.529167,-0.34925 -0.529167,-0.762 0,-0.41275 0.296333,-0.65617 0.306917,-0.24342 0.751417,-0.24342 0.4445,0 0.719667,0.16934 -0.137583,0.34925 -0.137583,0.58208 0,0.6985 0.592666,0.6985 0.254,0 0.423334,-0.15875 0.169333,-0.15875 0.169333,-0.43392 0,-0.53975 -0.910167,-1.11125 -0.740833,-0.48683 -0.910167,-0.67733 -0.28575,-0.33867 -0.28575,-0.762 0,-0.42333 0.201084,-0.8255 0.201083,-0.40217 0.5715,-0.68792 0.772583,-0.59266 2.116667,-0.59266 0.687916,0 1.090083,0.27516 0.41275,0.27517 0.41275,0.74084 0,0.46566 -0.28575,0.73025 -0.275167,0.26458 -0.783167,0.26458 -0.34925,0 -0.518583,-0.11642 z" />
        <path
           id="path949"
           style="font-style:normal;font-variant:normal;font-weight:normal;font-stretch:normal;font-family:'Sansita One';-inkscape-font-specification:'Sansita One';text-align:center;text-anchor:middle;fill:#ffffff;stroke-width:0.26458335"
           d="m 25.553398,169.64856 q 0,-0.28575 0.148167,-1.00542 l 0.560916,-2.8575 h -0.624416 l 0.04233,-0.3175 q 1.27,-0.381 2.497667,-1.31233 h 0.508 l -0.254,1.15358 h 0.8255 l -0.09525,0.47625 h -0.814917 l -0.53975,2.8575 q -0.137583,0.65617 -0.137583,0.87842 0,0.508 0.4445,0.61383 -0.105833,0.35984 -0.486833,0.5715 -0.381,0.21167 -0.92075,0.21167 -0.539751,0 -0.846667,-0.33867 -0.306917,-0.33866 -0.306917,-0.93133 z" />
        <path
           id="path951"
           style="font-style:normal;font-variant:normal;font-weight:normal;font-stretch:normal;font-family:'Sansita One';-inkscape-font-specification:'Sansita One';text-align:center;text-anchor:middle;fill:#ffffff;stroke-width:0.26458335"
           d="m 39.07344,168.51614 q 0.275167,0.20109 0.275167,0.635 0,0.42334 -0.1905,0.73025 -0.179917,0.29634 -0.53975,0.52917 -0.772584,0.49742 -2.12725,0.49742 -1.344084,0 -2.084917,-0.6985 -0.73025,-0.70909 -0.73025,-1.95792 0,-1.76742 0.92075,-3.1115 0.6985,-0.99483 1.947333,-1.41817 0.645584,-0.21166 1.280584,-0.21166 0.635,0 1.026583,0.0847 0.391583,0.0847 0.687917,0.254 0.645583,0.37042 0.645583,0.96309 0,0.53975 -0.508,0.94191 -0.465667,0.35984 -0.846667,0.35984 -0.381,0 -0.53975,-0.0529 0.04233,-0.381 0.04233,-0.62442 0,-0.254 -0.01058,-0.43391 -0.01058,-0.17992 -0.0635,-0.34925 -0.105833,-0.39159 -0.433916,-0.39159 -0.3175,0 -0.645584,0.30692 -0.3175,0.29633 -0.592666,0.80433 -0.624417,1.15359 -0.624417,2.51884 0,0.65616 0.370417,1.03716 0.370416,0.37042 1.164166,0.37042 0.592667,0 1.153584,-0.39158 0.243416,-0.16934 0.423333,-0.39159 z" />
        <path
           id="path953"
           style="font-style:normal;font-variant:normal;font-weight:normal;font-stretch:normal;font-family:'Sansita One';-inkscape-font-specification:'Sansita One';text-align:center;text-anchor:middle;fill:#ffffff;stroke-width:0.26458335"
           d="m 42.532704,170.91856 q -2.328333,0 -2.328333,-2.19075 0,-1.55575 0.85725,-2.56117 0.910166,-1.06891 2.487083,-1.06891 1.143,0 1.725084,0.52916 0.582083,0.52917 0.582083,1.64042 0,1.69333 -0.910167,2.67758 -0.889,0.97367 -2.413,0.97367 z m 0.275167,-4.60375 q -0.127,0.28575 -0.232833,0.71967 -0.09525,0.42333 -0.22225,1.10066 -0.127,0.67734 -0.127,1.51342 0,0.27517 0.08467,0.45508 0.09525,0.17992 0.338667,0.17992 0.243417,0 0.391583,-0.11642 0.15875,-0.11641 0.275167,-0.39158 0.211667,-0.48683 0.381,-1.38642 0.169333,-0.91016 0.179917,-1.30175 0.02117,-0.39158 0.02117,-0.67733 0,-0.29633 -0.08467,-0.48683 -0.08467,-0.1905 -0.328084,-0.1905 -0.232833,0 -0.391583,0.14816 -0.15875,0.14817 -0.28575,0.43392 z" />
        <path
           id="path955"
           style="font-style:normal;font-variant:normal;font-weight:normal;font-stretch:normal;font-family:'Sansita One';-inkscape-font-specification:'Sansita One';text-align:center;text-anchor:middle;fill:#ffffff;stroke-width:0.26458335"
           d="m 49.822471,165.09773 q 0.381,0 0.677334,0.0847 0.01058,-0.0423 0.03175,-0.15875 l 0.05292,-0.32808 q 0.04233,-0.21167 0.105834,-0.56092 l 0.169333,-0.83608 2.106083,-0.21167 -1.17475,6.13834 q -0.01058,0.0635 -0.01058,0.16933 v 0.16933 q 0,0.23284 0.116417,0.41275 0.116416,0.16934 0.306916,0.16934 -0.211666,0.49741 -0.85725,0.70908 -0.22225,0.0635 -0.53975,0.0635 -0.306916,0 -0.592666,-0.16933 -0.28575,-0.15875 -0.370417,-0.43392 -0.169333,0.27517 -0.508,0.43392 -0.338667,0.16933 -0.836084,0.16933 -0.486833,0 -0.899583,-0.127 -0.402167,-0.127 -0.656167,-0.40217 -0.465666,-0.53975 -0.465666,-1.76741 0,-1.5875 0.931333,-2.55059 0.931333,-0.97366 2.413,-0.97366 z m -0.07408,0.635 q -0.391584,0 -0.60325,0.42333 -0.211667,0.42333 -0.433917,1.47108 -0.211667,1.04775 -0.211667,1.98967 0,0.64558 0.381,0.64558 0.338667,0 0.5715,-0.33866 0.243417,-0.33867 0.338667,-0.89959 l 0.5715,-3.10091 q -0.22225,-0.1905 -0.613833,-0.1905 z" />
        <path
           id="path957"
           style="font-style:normal;font-variant:normal;font-weight:normal;font-stretch:normal;font-family:'Sansita One';-inkscape-font-specification:'Sansita One';text-align:center;text-anchor:middle;fill:#ffffff;stroke-width:0.26458335"
           d="m 57.389557,168.91831 q 0.264583,0.17992 0.264583,0.58208 0,0.39159 -0.201083,0.64559 -0.201083,0.254 -0.529167,0.42333 -0.677333,0.34925 -1.407583,0.34925 -0.73025,0 -1.164167,-0.15875 -0.423333,-0.15875 -0.709083,-0.45508 -0.560917,-0.56092 -0.560917,-1.5875 0,-1.59809 0.867834,-2.57175 0.931333,-1.04775 2.550583,-1.04775 1.005417,0 1.502833,0.42333 0.370417,0.3175 0.370417,0.83608 0,1.86267 -3.217333,1.86267 -0.04233,0.27517 -0.04233,0.508 0,0.48683 0.211667,0.67733 0.22225,0.17992 0.624417,0.17992 0.402166,0 0.8255,-0.17992 0.433916,-0.1905 0.613833,-0.48683 z m -2.159,-1.15358 q 0.751417,0 1.185333,-0.46567 0.433917,-0.4445 0.433917,-1.15358 0,-0.24342 -0.09525,-0.37042 -0.08467,-0.13758 -0.264583,-0.13758 -0.179917,0 -0.338667,0.0741 -0.148167,0.0635 -0.306917,0.29633 -0.391583,0.52917 -0.613833,1.75684 z" />
        <path
           id="path959"
           style="font-style:normal;font-variant:normal;font-weight:normal;font-stretch:normal;font-family:'Sansita One';-inkscape-font-specification:'Sansita One';text-align:center;text-anchor:middle;fill:#ffffff;stroke-width:0.26458335"
           d="m 14.632885,183.35398 q -0.328084,0.79375 -1.375834,0.79375 -0.53975,0 -0.878416,-0.37041 -0.28575,-0.32809 -0.28575,-0.65617 0,-0.85725 0.391583,-2.52942 l 0.391583,-2.05316 2.148417,-0.21167 -0.645583,3.34433 q -0.179917,0.78317 -0.179917,1.05834 0,0.60325 0.433917,0.62441 z m -1.566334,-6.2865 q 0,-0.41275 0.338667,-0.635 0.34925,-0.22225 0.846667,-0.22225 0.497416,0 0.79375,0.22225 0.306916,0.22225 0.306916,0.635 0,0.41275 -0.338666,0.62442 -0.328084,0.21167 -0.8255,0.21167 -0.497417,0 -0.814917,-0.21167 -0.306917,-0.21167 -0.306917,-0.62442 z" />
        <path
           id="path961"
           style="font-style:normal;font-variant:normal;font-weight:normal;font-stretch:normal;font-family:'Sansita One';-inkscape-font-specification:'Sansita One';text-align:center;text-anchor:middle;fill:#ffffff;stroke-width:0.26458335"
           d="m 20.00095,184.14773 q -1.280583,0 -1.280583,-0.99483 0.01058,-0.27517 0.09525,-0.74083 l 0.1905,-0.97367 q 0.28575,-1.37583 0.28575,-1.68275 0,-0.61383 -0.359833,-0.61383 -0.60325,0 -0.92075,1.57691 l -0.624417,3.21734 -2.12725,0.21166 1.100666,-5.61975 1.735667,-0.20108 -0.169333,1.03717 q 0.497417,-1.03717 2.021417,-1.03717 0.740833,0 1.04775,0.3175 0.3175,0.30692 0.3175,1.00542 0,0.65616 -0.338667,2.19075 -0.15875,0.68791 -0.15875,0.9525 0,0.254 0.137583,0.40216 0.148167,0.14817 0.359834,0.16934 -0.105834,0.35983 -0.47625,0.5715 -0.359834,0.21166 -0.836084,0.21166 z" />
        <path
           id="path963"
           style="font-style:normal;font-variant:normal;font-weight:normal;font-stretch:normal;font-family:'Sansita One';-inkscape-font-specification:'Sansita One';text-align:center;text-anchor:middle;fill:#ffffff;stroke-width:0.26458335"
           d="m 2.7888938,197.16524 1.2065001,-6.43467 0.1164167,-0.55033 H 6.376644 l -1.3335,6.985 z m 6.5510838,-0.62442 q -0.2857501,0.83608 -1.3864168,0.83608 -0.8149167,0 -1.3758334,-0.97366 -0.5715,-0.97367 -0.6773334,-2.56117 1.1641668,-2.12725 1.9685001,-3.00567 0.7725834,-0.83608 1.5769168,-0.83608 0.4339167,0 0.7408331,0.23283 0.3175,0.23284 0.391584,0.60325 -0.359834,0.14817 -0.529167,0.26459 -0.4233334,0.3175 -0.9948335,1.02658 l -0.9630833,1.15358 q -0.2328334,0.27517 -0.3280834,0.40217 0.15875,0.889 0.635,1.76742 0.4550834,0.83608 0.9419168,1.09008 z" />
        <path
           id="path965"
           style="font-style:normal;font-variant:normal;font-weight:normal;font-stretch:normal;font-family:'Sansita One';-inkscape-font-specification:'Sansita One';text-align:center;text-anchor:middle;fill:#ffffff;stroke-width:0.26458335"
           d="m 12.260647,197.3769 q -2.3283334,0 -2.3283334,-2.19075 0,-1.55575 0.8572504,-2.56116 0.910166,-1.06892 2.487083,-1.06892 1.143,0 1.725084,0.52917 0.582083,0.52916 0.582083,1.64041 0,1.69334 -0.910167,2.67759 -0.889,0.97366 -2.413,0.97366 z m 0.275167,-4.60375 q -0.127,0.28575 -0.232834,0.71967 -0.09525,0.42333 -0.22225,1.10067 -0.127,0.67733 -0.127,1.51341 0,0.27517 0.08467,0.45509 0.09525,0.17991 0.338667,0.17991 0.243416,0 0.391583,-0.11641 0.15875,-0.11642 0.275167,-0.39159 0.211666,-0.48683 0.381,-1.38641 0.169333,-0.91017 0.179916,-1.30175 0.02117,-0.39159 0.02117,-0.67734 0,-0.29633 -0.08467,-0.48683 -0.08467,-0.1905 -0.328083,-0.1905 -0.232833,0 -0.391583,0.14817 -0.15875,0.14816 -0.28575,0.43391 z" />
        <path
           id="path967"
           style="font-style:normal;font-variant:normal;font-weight:normal;font-stretch:normal;font-family:'Sansita One';-inkscape-font-specification:'Sansita One';text-align:center;text-anchor:middle;fill:#ffffff;stroke-width:0.26458335"
           d="m 16.385998,196.1069 q 0,-0.28575 0.148166,-1.00541 l 0.560917,-2.8575 h -0.624417 l 0.04233,-0.3175 q 1.27,-0.381 2.497666,-1.31234 h 0.508001 l -0.254,1.15359 h 0.8255 l -0.09525,0.47625 h -0.814917 l -0.53975,2.8575 q -0.137584,0.65616 -0.137584,0.87841 0,0.508 0.4445,0.61384 -0.105833,0.35983 -0.486833,0.5715 -0.381,0.21166 -0.92075,0.21166 -0.53975,0 -0.846667,-0.33866 -0.306916,-0.33867 -0.306916,-0.93134 z" />
        <path
           id="path969"
           style="font-style:normal;font-variant:normal;font-weight:normal;font-stretch:normal;font-family:'Sansita One';-inkscape-font-specification:'Sansita One';text-align:center;text-anchor:middle;fill:#ffffff;stroke-width:0.26458335"
           d="m 22.570137,196.58315 q -0.328084,0.79375 -1.375834,0.79375 -0.529166,0 -0.867833,-0.37041 -0.275167,-0.30692 -0.275167,-0.65617 0,-0.79375 0.370417,-2.52942 l 0.772583,-4.064 2.148417,-0.21166 -1.026583,5.35516 q -0.179917,0.78317 -0.179917,1.05834 0,0.60325 0.433917,0.62441 z" />
        <path
           id="path971"
           style="font-style:normal;font-variant:normal;font-weight:normal;font-stretch:normal;font-family:'Sansita One';-inkscape-font-specification:'Sansita One';text-align:center;text-anchor:middle;fill:#ffffff;stroke-width:0.26458335"
           d="m 26.012037,196.58315 q -0.328084,0.79375 -1.375834,0.79375 -0.53975,0 -0.878417,-0.37041 -0.28575,-0.32809 -0.28575,-0.65617 0,-0.85725 0.391584,-2.52942 l 0.391583,-2.05316 2.148417,-0.21167 -0.645583,3.34433 q -0.179917,0.78317 -0.179917,1.05834 0,0.60325 0.433917,0.62441 z m -1.566334,-6.2865 q 0,-0.41275 0.338667,-0.635 0.34925,-0.22225 0.846667,-0.22225 0.497416,0 0.79375,0.22225 0.306916,0.22225 0.306916,0.635 0,0.41275 -0.338666,0.62442 -0.328084,0.21167 -0.825501,0.21167 -0.497416,0 -0.814916,-0.21167 -0.306917,-0.21167 -0.306917,-0.62442 z" />
        <path
           id="path973"
           style="font-style:normal;font-variant:normal;font-weight:normal;font-stretch:normal;font-family:'Sansita One';-inkscape-font-specification:'Sansita One';text-align:center;text-anchor:middle;fill:#ffffff;stroke-width:0.26458335"
           d="m 31.380101,197.3769 q -1.280583,0 -1.280583,-0.99483 0.01058,-0.27517 0.09525,-0.74083 l 0.1905,-0.97367 q 0.28575,-1.37583 0.28575,-1.68275 0,-0.61383 -0.359834,-0.61383 -0.60325,0 -0.92075,1.57691 l -0.624416,3.21734 -2.127251,0.21166 1.100667,-5.61975 1.735667,-0.20108 -0.169333,1.03717 q 0.497416,-1.03717 2.021416,-1.03717 0.740834,0 1.047751,0.3175 0.3175,0.30692 0.3175,1.00542 0,0.65616 -0.338667,2.19075 -0.15875,0.68791 -0.15875,0.9525 0,0.254 0.137583,0.40216 0.148167,0.14817 0.359834,0.16934 -0.105834,0.35983 -0.476251,0.5715 -0.359833,0.21166 -0.836083,0.21166 z" />
      </g>
    </g>
  </g>
</svg>
