<?xml version="1.0" encoding="UTF-8" standalone="no"?>
<svg
   xmlns:dc="http://purl.org/dc/elements/1.1/"
   xmlns:cc="http://creativecommons.org/ns#"
   xmlns:rdf="http://www.w3.org/1999/02/22-rdf-syntax-ns#"
   xmlns:svg="http://www.w3.org/2000/svg"
   xmlns="http://www.w3.org/2000/svg"
   xmlns:xlink="http://www.w3.org/1999/xlink"
   id="svg3357"
   version="1.1"
   viewBox="0 0 211.40207 119.0625"
   height="119.0625mm"
   width="211.40207mm">
  <defs
     id="defs3351">
    <linearGradient
       id="linearGradient6114">
      <stop
         id="stop6110"
         offset="0"
         style="stop-color:#6f7c91;stop-opacity:1;" />
      <stop
         id="stop6112"
         offset="1"
         style="stop-color:#162d50;stop-opacity:1" />
    </linearGradient>
    <radialGradient
       gradientUnits="userSpaceOnUse"
       gradientTransform="matrix(3.0071285,0,0,1.83657,-125.12732,-58.151445)"
       r="31.67275"
       fy="66.986313"
       fx="73.77433"
       cy="66.986313"
       cx="73.77433"
       id="radialGradient6126"
       xlink:href="#linearGradient6114" />
    <filter
       height="1.8874642"
       y="-0.44373208"
       width="1.85333"
       x="-0.42666498"
       id="filter1742"
       style="color-interpolation-filters:sRGB">
      <feGaussianBlur
         id="feGaussianBlur1744"
         stdDeviation="1.0762038" />
    </filter>
    <filter
       height="1.6508067"
       y="-0.32540333"
       width="2.5847549"
       x="-0.79237747"
       id="filter1746"
       style="color-interpolation-filters:sRGB">
      <feGaussianBlur
         id="feGaussianBlur1748"
         stdDeviation="1.0762038" />
    </filter>
    <filter
       height="1.6596019"
       y="-0.32980096"
       width="2.5694728"
       x="-0.78473634"
       id="filter1750"
       style="color-interpolation-filters:sRGB">
      <feGaussianBlur
         id="feGaussianBlur1752"
         stdDeviation="1.0762038" />
    </filter>
    <filter
       height="1.7638576"
       y="-0.3819288"
       width="2.3945861"
       x="-0.69729298"
       id="filter1754"
       style="color-interpolation-filters:sRGB">
      <feGaussianBlur
         id="feGaussianBlur1756"
         stdDeviation="1.0762038" />
    </filter>
    <filter
       height="1.8874642"
       y="-0.44373208"
       width="1.9140543"
       x="-0.45702717"
       id="filter1758"
       style="color-interpolation-filters:sRGB">
      <feGaussianBlur
         id="feGaussianBlur1760"
         stdDeviation="1.0762038" />
    </filter>
    <filter
       height="1.7002945"
       y="-0.35014722"
       width="1.6631862"
       x="-0.3315931"
       id="filter1762"
       style="color-interpolation-filters:sRGB">
      <feGaussianBlur
         id="feGaussianBlur1764"
         stdDeviation="1.0762038" />
    </filter>
    <filter
       height="1.8874642"
       y="-0.44373208"
       width="1.85333"
       x="-0.42666498"
       id="filter1766"
       style="color-interpolation-filters:sRGB">
      <feGaussianBlur
         id="feGaussianBlur1768"
         stdDeviation="1.0762038" />
    </filter>
    <filter
       height="1.6508067"
       y="-0.32540333"
       width="2.5847597"
       x="-0.79237992"
       id="filter1770"
       style="color-interpolation-filters:sRGB">
      <feGaussianBlur
         id="feGaussianBlur1772"
         stdDeviation="1.0762038" />
    </filter>
    <filter
       height="1.8874642"
       y="-0.44373208"
       width="1.97621"
       x="-0.48810497"
       id="filter1774"
       style="color-interpolation-filters:sRGB">
      <feGaussianBlur
         id="feGaussianBlur1776"
         stdDeviation="1.0762038" />
    </filter>
    <filter
       height="1.6596019"
       y="-0.32980096"
       width="1.7962565"
       x="-0.39812827"
       id="filter1778"
       style="color-interpolation-filters:sRGB">
      <feGaussianBlur
         id="feGaussianBlur1780"
         stdDeviation="1.0762038" />
    </filter>
    <filter
       height="1.8874642"
       y="-0.44373208"
       width="1.9140545"
       x="-0.45702726"
       id="filter1782"
       style="color-interpolation-filters:sRGB">
      <feGaussianBlur
         id="feGaussianBlur1784"
         stdDeviation="1.0762038" />
    </filter>
    <filter
       height="1.6982903"
       y="-0.34914523"
       width="1.7936667"
       x="-0.39683333"
       id="filter1786"
       style="color-interpolation-filters:sRGB">
      <feGaussianBlur
         id="feGaussianBlur1788"
         stdDeviation="1.0762038" />
    </filter>
    <filter
       height="1.7638576"
       y="-0.3819288"
       width="2.3945959"
       x="-0.69729787"
       id="filter1790"
       style="color-interpolation-filters:sRGB">
      <feGaussianBlur
         id="feGaussianBlur1792"
         stdDeviation="1.0762038" />
    </filter>
    <filter
       height="1.8874626"
       y="-0.44373131"
       width="2.0126662"
       x="-0.50633317"
       id="filter1794"
       style="color-interpolation-filters:sRGB">
      <feGaussianBlur
         id="feGaussianBlur1796"
         stdDeviation="1.0762038" />
    </filter>
    <filter
       height="1.8874626"
       y="-0.44373131"
       width="1.9226938"
       x="-0.46134692"
       id="filter1798"
       style="color-interpolation-filters:sRGB">
      <feGaussianBlur
         id="feGaussianBlur1800"
         stdDeviation="1.0762038" />
    </filter>
    <filter
       height="1.6508067"
       y="-0.32540333"
       width="2.5847564"
       x="-0.79237819"
       id="filter1802"
       style="color-interpolation-filters:sRGB">
      <feGaussianBlur
         id="feGaussianBlur1804"
         stdDeviation="1.0762038" />
    </filter>
    <filter
       height="1.739553"
       y="-0.36977652"
       width="1.8518412"
       x="-0.42592061"
       id="filter1806"
       style="color-interpolation-filters:sRGB">
      <feGaussianBlur
         id="feGaussianBlur1808"
         stdDeviation="1.0762038" />
    </filter>
    <filter
       height="1.8874626"
       y="-0.44373131"
       width="1.922693"
       x="-0.46134651"
       id="filter1810"
       style="color-interpolation-filters:sRGB">
      <feGaussianBlur
         id="feGaussianBlur1812"
         stdDeviation="1.0762038" />
    </filter>
    <filter
       height="1.8874626"
       y="-0.44373131"
       width="1.8430134"
       x="-0.4215067"
       id="filter1814"
       style="color-interpolation-filters:sRGB">
      <feGaussianBlur
         id="feGaussianBlur1816"
         stdDeviation="1.0762038" />
    </filter>
    <filter
       height="1.8874626"
       y="-0.44373131"
       width="1.9140543"
       x="-0.45702717"
       id="filter1818"
       style="color-interpolation-filters:sRGB">
      <feGaussianBlur
         id="feGaussianBlur1820"
         stdDeviation="1.0762038" />
    </filter>
    <filter
       height="1.7199188"
       y="-0.35995945"
       width="1.7772372"
       x="-0.38861859"
       id="filter1822"
       style="color-interpolation-filters:sRGB">
      <feGaussianBlur
         id="feGaussianBlur1824"
         stdDeviation="1.0762038" />
    </filter>
  </defs>
  <metadata
     id="metadata3354">
    <rdf:RDF>
      <cc:Work
         rdf:about="">
        <dc:format>image/svg+xml</dc:format>
        <dc:type
           rdf:resource="http://purl.org/dc/dcmitype/StillImage" />
        <dc:title></dc:title>
      </cc:Work>
    </rdf:RDF>
  </metadata>
  <path
     style="opacity:1;fill:#c83737;fill-opacity:1;stroke:none;stroke-width:4.38045835;stroke-miterlimit:4;stroke-dasharray:none;paint-order:stroke markers fill"
     d="M 0,0 H 211.40207 V 119.0625 H 0 Z"
     id="rect6108" />
  <g
     transform="matrix(1.1097917,0,0,1.0234149,-1.6397721,-6.8613634)"
     style="font-style:normal;font-weight:normal;font-size:40px;line-height:1.25;font-family:sans-serif;letter-spacing:0px;word-spacing:0px;fill:#000000;fill-opacity:1;stroke:none"
     id="flowRoot874" />
  <g
     transform="translate(-1.4775493,-3.9803138)"
     style="font-style:normal;font-weight:normal;font-size:40px;line-height:1.25;font-family:sans-serif;letter-spacing:0px;word-spacing:0px;fill:#000000;fill-opacity:1;stroke:none"
     id="flowRoot1087" />
  <path
     style="opacity:1;fill:#373e48;fill-opacity:1;stroke:none;stroke-width:0.8369382;stroke-linecap:round;stroke-linejoin:round;stroke-miterlimit:4;stroke-dasharray:none;stroke-opacity:1;paint-order:stroke markers fill"
     d="m 26.639165,34.32169 h 50.786184 c 1.081424,0 1.952029,0.870605 1.952029,1.952029 V 83.36966 c 0,1.081424 -0.870605,1.95203 -1.952029,1.95203 H 26.639165 c -1.081424,0 -1.952029,-0.870606 -1.952029,-1.95203 V 36.273719 c 0,-1.081424 0.870605,-1.952029 1.952029,-1.952029 z"
     id="rect815" />
  <g
     id="text1353"
     style="font-style:normal;font-weight:normal;font-size:32.36412048px;line-height:1.25;font-family:sans-serif;letter-spacing:0px;word-spacing:0px;fill:#ffffff;fill-opacity:1;stroke:none;stroke-width:0.80910301"
     transform="scale(1.1313787,0.88387734)"
     aria-label="K">
    <path
       id="path921"
       style="font-style:normal;font-variant:normal;font-weight:normal;font-stretch:normal;font-family:'Sansita One';-inkscape-font-specification:'Sansita One';fill:#ffffff;stroke-width:0.80910301"
       d="m 34.080133,76.626953 3.68951,-19.677385 0.356005,-1.682934 H 45.05157 L 40.973691,76.626953 Z M 54.113524,74.71747 q -0.873831,2.556766 -4.2397,2.556766 -2.492037,0 -4.207336,-2.9775 -1.747662,-2.977499 -2.071303,-7.832117 3.560053,-6.505188 6.019726,-9.19141 2.362581,-2.556765 4.822254,-2.556765 1.326929,0 2.265489,0.71201 0.970923,0.712011 1.197472,1.844755 -1.10038,0.453098 -1.618206,0.809103 -1.294565,0.970924 -3.042227,3.13932 l -2.945135,3.527689 q -0.712011,0.841467 -1.003288,1.229836 0.485462,2.718587 1.941847,5.404809 1.391657,2.556765 2.880407,3.333504 z" />
  </g>
  <path
     style="opacity:1;fill:#666666;fill-opacity:1;stroke:none;stroke-width:0.74336612;stroke-linecap:round;stroke-linejoin:round;stroke-miterlimit:4;stroke-dasharray:none;stroke-opacity:1;paint-order:stroke markers fill"
     d="m 26.185117,34.32169 h 51.647668 c 0.855745,0 1.544666,0.688921 1.544666,1.544665 v 8.319077 c 0,0.855745 -0.688921,1.544666 -1.544666,1.544666 H 26.185117 c -0.855745,0 -1.544666,-0.688921 -1.544666,-1.544666 v -8.319077 c 0,-0.855744 0.688921,-1.544665 1.544666,-1.544665 z"
     id="rect918" />
  <path
     style="opacity:1;fill:#ffffff;fill-opacity:1;stroke:none;stroke-width:0.73087931;stroke-linecap:round;stroke-linejoin:round;stroke-miterlimit:4;stroke-dasharray:none;stroke-opacity:1;paint-order:stroke markers fill"
     d="m 40.753636,38.702583 h 22.557232 c 0.855744,0 1.544664,0.68892 1.544664,1.544664 0,0.855743 -0.68892,1.544663 -1.544664,1.544663 H 40.753636 c -0.855743,0 -1.544663,-0.68892 -1.544663,-1.544663 0,-0.855744 0.68892,-1.544664 1.544663,-1.544664 z"
     id="rect817" />
  <path
     style="opacity:1;fill:#aa4400;fill-opacity:1;stroke:none;stroke-width:0.7427516;stroke-linecap:round;stroke-linejoin:round;stroke-miterlimit:4;stroke-dasharray:none;stroke-opacity:1;paint-order:stroke markers fill"
     d="m 32.821588,70.107803 h 38.42133 c 0.557635,0 1.006561,0.448927 1.006561,1.006562 v 0.930597 c 0,0.557634 -0.448926,1.006561 -1.006561,1.006561 h -38.42133 c -0.557634,0 -1.006561,-0.448927 -1.006561,-1.006561 v -0.930597 c 0,-0.557635 0.448927,-1.006562 1.006561,-1.006562 z"
     id="rect914" />
  <path
     style="opacity:1;fill:#aa4400;fill-opacity:1;stroke:none;stroke-width:0.7427516;stroke-linecap:round;stroke-linejoin:round;stroke-miterlimit:4;stroke-dasharray:none;stroke-opacity:1;paint-order:stroke markers fill"
     d="m 32.821588,75.829414 h 38.42133 c 0.557635,0 1.006561,0.448927 1.006561,1.006562 v 0.930597 c 0,0.557634 -0.448926,1.006561 -1.006561,1.006561 h -38.42133 c -0.557634,0 -1.006561,-0.448927 -1.006561,-1.006561 v -0.930597 c 0,-0.557635 0.448927,-1.006562 1.006561,-1.006562 z"
     id="rect916" />
  <g
     id="flowRoot85"
     style="font-style:normal;font-weight:normal;font-size:40px;line-height:1.25;font-family:sans-serif;letter-spacing:0px;word-spacing:0px;fill:#ffffff;fill-opacity:1;stroke:none"
     transform="matrix(0.57269114,0,0,0.51826311,352.06019,-1.338634)"
     aria-label="Your first
code in 
Kotlin">
    <path
       id="path97"
       style="font-style:italic;font-variant:normal;font-weight:500;font-stretch:normal;font-family:Ubuntu;-inkscape-font-specification:'Ubuntu Medium Italic';text-align:center;text-anchor:middle;fill:#ffffff"
       d="m -456.25906,58.337266 q 2.48,-3 4.8,-6 2.36,-3.04 4.4,-6.24 h 5.68 q -1.56,2.2 -3.12,4.28 -1.56,2.08 -3.2,4.16 -1.6,2.04 -3.32,4.08 -1.72,2.04 -3.56,4.16 l -2.64,11.04 h -5.04 l 2.64,-11.04 q -1.64,-4.2 -3,-8.32 -1.32,-4.16 -2.48,-8.36 h 5.36 q 0.68,3.08 1.56,6.16 0.88,3.08 1.92,6.08 z" />
    <path
       id="path99"
       style="font-style:italic;font-variant:normal;font-weight:500;font-stretch:normal;font-family:Ubuntu;-inkscape-font-specification:'Ubuntu Medium Italic';text-align:center;text-anchor:middle;fill:#ffffff"
       d="m -438.69094,74.377266 q -3.72,0 -5.68,-2.2 -1.96,-2.2 -1.96,-5.8 0,-2.32 0.72,-4.8 0.72,-2.48 2.2,-4.52 1.48,-2.04 3.72,-3.36 2.24,-1.32 5.28,-1.32 3.72,0 5.68,2.2 1.96,2.16 1.96,5.76 0,2.36 -0.72,4.84 -0.68,2.48 -2.16,4.52 -1.44,2.04 -3.72,3.36 -2.24,1.32 -5.32,1.32 z m 3.68,-17.92 q -1.56,0 -2.8,0.92 -1.2,0.88 -2.04,2.28 -0.8,1.4 -1.24,3.08 -0.44,1.64 -0.44,3.2 0,2 0.76,3.16 0.76,1.16 2.68,1.16 1.56,0 2.76,-0.88 1.24,-0.92 2.04,-2.28 0.84,-1.4 1.28,-3.08 0.44,-1.68 0.44,-3.2 0,-2 -0.76,-3.16 -0.76,-1.2 -2.68,-1.2 z" />
    <path
       id="path101"
       style="font-style:italic;font-variant:normal;font-weight:500;font-stretch:normal;font-family:Ubuntu;-inkscape-font-specification:'Ubuntu Medium Italic';text-align:center;text-anchor:middle;fill:#ffffff"
       d="m -403.39094,52.897266 -2.96,12.44 q -0.2,0.92 -0.32,1.84 -0.08,0.92 -0.08,1.84 0,1.16 0.16,2.28 0.2,1.12 0.64,2.2 l -4.32,0.64 q -0.24,-0.44 -0.44,-0.96 -0.16,-0.56 -0.32,-1.12 -1,0.8 -2.48,1.56 -1.48,0.72 -3.44,0.72 -1.76,0 -3,-0.52 -1.24,-0.52 -2.04,-1.4 -0.76,-0.92 -1.12,-2.12 -0.32,-1.24 -0.32,-2.6 0,-1.76 0.48,-3.8 l 2.64,-11 h 4.84 l -2.6,10.88 q -0.52,2.08 -0.52,3.4 0,0.64 0.12,1.2 0.12,0.56 0.4,1 0.32,0.4 0.84,0.64 0.56,0.24 1.36,0.24 1.32,0 2.36,-0.52 1.04,-0.56 1.92,-1.48 0.12,-1.72 0.56,-3.52 l 2.8,-11.84 z" />
    <path
       id="path103"
       style="font-style:italic;font-variant:normal;font-weight:500;font-stretch:normal;font-family:Ubuntu;-inkscape-font-specification:'Ubuntu Medium Italic';text-align:center;text-anchor:middle;fill:#ffffff"
       d="m -386.65469,57.177266 q -0.8,-0.28 -1.72,-0.44 -0.92,-0.16 -2.16,-0.16 -0.68,0 -1.44,0.12 -0.76,0.08 -1.28,0.24 l -4.04,16.88 h -4.84 l 4.8,-19.96 q 1.68,-0.56 3.64,-0.96 1.96,-0.44 4.24,-0.44 0.48,0 1.08,0.08 0.6,0.04 1.16,0.12 0.6,0.08 1.08,0.2 0.52,0.12 0.88,0.28 z" />
    <path
       id="path105"
       style="font-style:italic;font-variant:normal;font-weight:500;font-stretch:normal;font-family:Ubuntu;-inkscape-font-specification:'Ubuntu Medium Italic';text-align:center;text-anchor:middle;fill:#ffffff"
       d="m -356.10406,73.817266 h -4.8 l 5,-20.92 h 4.84 z m 3.6,-24.08 q -1.08,0 -1.88,-0.64 -0.8,-0.64 -0.8,-1.92 0,-1.48 1,-2.44 1.04,-0.96 2.36,-0.96 1.08,0 1.88,0.68 0.84,0.64 0.84,1.92 0,1.48 -1.04,2.44 -1.04,0.92 -2.36,0.92 z m -14.28,3.16 h 7 l -0.96,4 h -7 l -3,12.52 q -0.52,2.16 -1,3.84 -0.44,1.68 -1.04,3.08 -0.6,1.4 -1.44,2.6 -0.8,1.24 -2.04,2.44 l -4.2,-0.64 q 0.76,-0.96 1.4,-1.96 0.68,-0.96 1.2,-2.08 0.56,-1.08 1,-2.4 0.48,-1.28 0.84,-2.88 l 4.76,-20 q 0.48,-2.04 1.28,-3.64 0.84,-1.64 2.04,-2.72 1.24,-1.12 2.92,-1.68 1.72,-0.6 3.96,-0.6 1.4,0 2.52,0.28 1.12,0.24 1.8,0.56 l -1.8,3.8 q -0.36,-0.12 -1.04,-0.32 -0.68,-0.2 -1.76,-0.2 -1.2,0 -2.04,0.36 -0.84,0.32 -1.44,0.92 -0.6,0.6 -1,1.48 -0.36,0.84 -0.6,1.84 z" />
    <path
       id="path107"
       style="font-style:italic;font-variant:normal;font-weight:500;font-stretch:normal;font-family:Ubuntu;-inkscape-font-specification:'Ubuntu Medium Italic';text-align:center;text-anchor:middle;fill:#ffffff"
       d="m -334.54531,57.177266 q -0.8,-0.28 -1.72,-0.44 -0.92,-0.16 -2.16,-0.16 -0.68,0 -1.44,0.12 -0.76,0.08 -1.28,0.24 l -4.04,16.88 h -4.84 l 4.8,-19.96 q 1.68,-0.56 3.64,-0.96 1.96,-0.44 4.24,-0.44 0.48,0 1.08,0.08 0.6,0.04 1.16,0.12 0.6,0.08 1.08,0.2 0.52,0.12 0.88,0.28 z" />
    <path
       id="path109"
       style="font-style:italic;font-variant:normal;font-weight:500;font-stretch:normal;font-family:Ubuntu;-inkscape-font-specification:'Ubuntu Medium Italic';text-align:center;text-anchor:middle;fill:#ffffff"
       d="m -328.04781,70.417266 q 1.92,0 3.04,-0.6 1.12,-0.64 1.12,-1.92 0,-1.04 -0.72,-1.64 -0.72,-0.64 -2.52,-1.48 -0.96,-0.44 -1.8,-0.92 -0.8,-0.48 -1.4,-1.12 -0.6,-0.64 -0.96,-1.48 -0.36,-0.88 -0.36,-2.08 0,-3.12 2.28,-4.96 2.28,-1.84 6.6,-1.84 2,0 3.56,0.44 1.6,0.4 2.4,0.84 l -1.72,3.76 q -0.68,-0.4 -1.96,-0.76 -1.28,-0.4 -2.68,-0.4 -0.68,0 -1.36,0.12 -0.64,0.12 -1.16,0.4 -0.52,0.28 -0.88,0.8 -0.32,0.48 -0.32,1.2 0,0.92 0.72,1.52 0.76,0.56 2.16,1.2 1.32,0.6 2.24,1.16 0.92,0.56 1.52,1.28 0.6,0.68 0.88,1.56 0.28,0.84 0.28,2.04 0,1.48 -0.6,2.76 -0.6,1.24 -1.76,2.16 -1.12,0.88 -2.8,1.4 -1.68,0.52 -3.84,0.52 -1.48,0 -2.68,-0.2 -1.16,-0.2 -2.04,-0.44 -0.88,-0.28 -1.48,-0.56 -0.6,-0.28 -0.92,-0.48 l 1.72,-3.8 q 0.28,0.16 0.8,0.44 0.56,0.24 1.24,0.48 0.72,0.24 1.56,0.44 0.88,0.16 1.84,0.16 z" />
    <path
       id="path111"
       style="font-style:italic;font-variant:normal;font-weight:500;font-stretch:normal;font-family:Ubuntu;-inkscape-font-specification:'Ubuntu Medium Italic';text-align:center;text-anchor:middle;fill:#ffffff"
       d="m -310.78781,47.377266 5.04,-0.8 -1.52,6.32 h 6.84 l -0.96,4 h -6.84 l -2,8.28 q -0.2,0.88 -0.28,1.48 -0.08,0.56 -0.08,1.04 0,0.48 0.08,0.96 0.12,0.44 0.4,0.8 0.32,0.32 0.88,0.56 0.6,0.2 1.6,0.2 1.08,0 2.08,-0.28 1,-0.28 1.76,-0.6 l 0.36,3.88 q -0.92,0.4 -2.32,0.76 -1.4,0.36 -3.28,0.36 -3.44,0 -4.92,-1.48 -1.48,-1.52 -1.48,-4.12 0,-0.96 0.12,-1.96 0.16,-1.04 0.44,-2.2 z" />
    <path
       id="path113"
       style="font-style:italic;font-variant:normal;font-weight:500;font-stretch:normal;font-family:Ubuntu;-inkscape-font-specification:'Ubuntu Medium Italic';text-align:center;text-anchor:middle;fill:#ffffff"
       d="m -447.15125,117.80632 q 0,-2.72 0.84,-5.16 0.88,-2.48 2.48,-4.32 1.6,-1.88 3.92,-2.96 2.32,-1.08 5.28,-1.08 1.56,0 2.84,0.28 1.32,0.24 2.48,0.76 l -1.72,3.88 q -0.72,-0.32 -1.6,-0.56 -0.88,-0.24 -2.16,-0.24 -1.72,0 -3.12,0.72 -1.36,0.68 -2.32,1.88 -0.96,1.2 -1.48,2.84 -0.52,1.64 -0.52,3.48 0,1.04 0.2,1.92 0.24,0.84 0.72,1.52 0.52,0.64 1.4,1 0.88,0.36 2.2,0.36 1.36,0 2.6,-0.36 1.28,-0.36 1.96,-0.72 l 0.4,3.96 q -0.92,0.44 -2.44,0.84 -1.52,0.44 -3.44,0.44 -2.2,0 -3.8,-0.64 -1.6,-0.68 -2.68,-1.8 -1.04,-1.16 -1.56,-2.68 -0.48,-1.56 -0.48,-3.36 z" />
    <path
       id="path115"
       style="font-style:italic;font-variant:normal;font-weight:500;font-stretch:normal;font-family:Ubuntu;-inkscape-font-specification:'Ubuntu Medium Italic';text-align:center;text-anchor:middle;fill:#ffffff"
       d="m -421.62063,126.28632 q -3.71999,0 -5.68,-2.2 -1.95999,-2.2 -1.95999,-5.8 0,-2.32 0.72,-4.8 0.72,-2.48 2.2,-4.52 1.47999,-2.04 3.71999,-3.36 2.24001,-1.32 5.28001,-1.32 3.71999,0 5.68,2.2 1.96,2.16 1.96,5.76 0,2.36 -0.72,4.84 -0.68,2.48 -2.16,4.52 -1.44,2.04 -3.72001,3.36 -2.23999,1.32 -5.32,1.32 z m 3.68001,-17.92 q -1.56001,0 -2.80001,0.92 -1.19999,0.88 -2.03999,2.28 -0.8,1.4 -1.24,3.08 -0.44,1.64 -0.44,3.2 0,2 0.76,3.16 0.76,1.16 2.68,1.16 1.56,0 2.76,-0.88 1.24,-0.92 2.04,-2.28 0.84,-1.4 1.28,-3.08 0.43999,-1.68 0.43999,-3.2 0,-2 -0.75999,-3.16 -0.76,-1.2 -2.68,-1.2 z" />
    <path
       id="path117"
       style="font-style:italic;font-variant:normal;font-weight:500;font-stretch:normal;font-family:Ubuntu;-inkscape-font-specification:'Ubuntu Medium Italic';text-align:center;text-anchor:middle;fill:#ffffff"
       d="m -399.72062,126.28632 q -1.88,0 -3.24,-0.6 -1.36,-0.64 -2.24,-1.72 -0.84,-1.08 -1.24,-2.56 -0.4,-1.48 -0.4,-3.2 0,-2.68 0.92,-5.16 0.96,-2.52 2.67999,-4.4 1.76001,-1.92 4.28001,-3.04 2.52,-1.16 5.71999,-1.16 0.40001,0 0.96001,0.04 0.56,0.04 1.24,0.2 l 2.2,-9.199996 5.04,-0.8 -5.48,22.679996 q -0.2,0.92 -0.32,1.88 -0.08,0.92 -0.08,1.76 0,1.08 0.20001,2.16 0.2,1.08 0.64,2.24 l -4.32,0.64 q -0.44,-0.84 -0.76,-2.04 -1,0.88 -2.44001,1.6 -1.44,0.68 -3.35999,0.68 z m 7.71999,-17.68 q -0.75999,-0.16 -1.83999,-0.16 -1.84001,0 -3.36,0.8 -1.52,0.76 -2.60001,2.08 -1.07999,1.28 -1.67999,2.96 -0.56,1.68 -0.56,3.48 0,0.92 0.16,1.72 0.19999,0.8 0.6,1.4 0.4,0.6 1.03999,0.96 0.68,0.36 1.64001,0.36 1.28,0 2.23999,-0.52 1,-0.52 1.88001,-1.44 0.04,-0.84 0.16,-1.76 0.16,-0.92 0.36,-1.8 z" />
    <path
       id="path119"
       style="font-style:italic;font-variant:normal;font-weight:500;font-stretch:normal;font-family:Ubuntu;-inkscape-font-specification:'Ubuntu Medium Italic';text-align:center;text-anchor:middle;fill:#ffffff"
       d="m -383.87,118.16632 q 0,-2.68 0.84,-5.16 0.88,-2.52 2.48,-4.44 1.64,-1.96 3.92,-3.12 2.28,-1.16 5.12,-1.16 3.04,0 4.72,1.56 1.68,1.56 1.68,4 0,2.52 -1.24,4.08 -1.24,1.56 -3.24,2.44 -1.96,0.88 -4.48,1.2 -2.48,0.32 -5.04,0.4 -0.04,0.08 -0.04,0.16 v 0.4 q 0,3.64 4.6,3.64 2.72,0 5.44,-1.12 l 0.4,3.92 q -0.96,0.44 -2.72,0.88 -1.76,0.44 -4,0.44 -2.24,0 -3.84,-0.64 -1.6,-0.64 -2.64,-1.76 -1,-1.12 -1.48,-2.56 -0.48,-1.48 -0.48,-3.16 z m 11.64,-9.92 q -1.2,0 -2.28,0.48 -1.08,0.48 -1.92,1.32 -0.84,0.84 -1.48,2 -0.6,1.12 -0.88,2.44 4.8,-0.16 6.96,-1.16 2.2,-1 2.2,-3 0,-0.8 -0.6,-1.44 -0.56,-0.64 -2,-0.64 z" />
    <path
       id="path121"
       style="font-style:italic;font-variant:normal;font-weight:500;font-stretch:normal;font-family:Ubuntu;-inkscape-font-specification:'Ubuntu Medium Italic';text-align:center;text-anchor:middle;fill:#ffffff"
       d="m -349.63937,125.72632 h -4.8 l 5,-20.92 h 4.84 z m 3.6,-24.08 q -1.08,0 -1.88,-0.64 -0.80001,-0.64 -0.80001,-1.919996 0,-1.48 1,-2.44 1.04001,-0.96 2.36001,-0.96 1.07999,0 1.88,0.68 0.84,0.64 0.84,1.92 0,1.48 -1.04,2.439996 -1.04001,0.92 -2.36,0.92 z" />
    <path
       id="path123"
       style="font-style:italic;font-variant:normal;font-weight:500;font-stretch:normal;font-family:Ubuntu;-inkscape-font-specification:'Ubuntu Medium Italic';text-align:center;text-anchor:middle;fill:#ffffff"
       d="m -338.78,105.68632 q 1.6,-0.48 3.64,-0.88 2.08,-0.44 4.52,-0.44 3.68,0 5.4,1.8 1.72,1.8 1.72,4.84 0,0.84 -0.16,1.8 -0.12,0.92 -0.32,1.92 l -2.64,11 h -4.84 l 2.48,-10.48 q 0.2,-0.88 0.4,-1.8 0.2,-0.92 0.24,-1.76 0.04,-1.4 -0.68,-2.32 -0.68,-0.92 -2.72,-0.92 -1.72,0 -2.96,0.36 l -4.04,16.92 h -4.84 z" />
    <path
       id="path125"
       style="font-style:italic;font-variant:normal;font-weight:500;font-stretch:normal;font-family:Ubuntu;-inkscape-font-specification:'Ubuntu Medium Italic';text-align:center;text-anchor:middle;fill:#ffffff"
       d="m -421.66187,177.63538 q -0.80001,-1.6 -1.80001,-3.32 -0.95999,-1.76 -2.07999,-3.4 -1.08,-1.68 -2.32,-3.16 -1.2,-1.48 -2.4,-2.6 l -3,12.48 h -5.04 l 6.64,-27.72 h 5.04 l -2.68,11.08 q 1.64,-1.32 3.39999,-2.8 1.76,-1.48 3.44,-2.96 1.68,-1.48 3.16001,-2.84 1.51999,-1.36 2.68,-2.48 h 6.12 q -1.64001,1.52 -3.52001,3.2 -1.83999,1.68 -3.79999,3.44 -1.92,1.72 -3.92,3.44 -1.96,1.68 -3.88,3.2 1.24,1.28 2.56,2.92 1.32,1.64 2.56,3.52 1.24,1.88 2.35999,3.92 1.12,2.04 2.04001,4.08 z" />
    <path
       id="path127"
       style="font-style:italic;font-variant:normal;font-weight:500;font-stretch:normal;font-family:Ubuntu;-inkscape-font-specification:'Ubuntu Medium Italic';text-align:center;text-anchor:middle;fill:#ffffff"
       d="m -405.9175,178.19538 q -3.72,0 -5.68,-2.2 -1.96,-2.2 -1.96,-5.8 0,-2.32 0.72,-4.8 0.72,-2.48 2.2,-4.52 1.48,-2.04 3.72,-3.36 2.24,-1.32 5.28,-1.32 3.72,0 5.68,2.2 1.96,2.16 1.96,5.76 0,2.36 -0.72,4.84 -0.68,2.48 -2.16,4.52 -1.44,2.04 -3.72,3.36 -2.24,1.32 -5.32,1.32 z m 3.68,-17.92 q -1.56,0 -2.8,0.92 -1.2,0.88 -2.04,2.28 -0.8,1.4 -1.24,3.08 -0.44,1.64 -0.44,3.2 0,2 0.76,3.16 0.76,1.16 2.68,1.16 1.56,0 2.76,-0.88 1.24,-0.92 2.04,-2.28 0.84,-1.4 1.28,-3.08 0.44,-1.68 0.44,-3.2 0,-2 -0.76,-3.16 -0.76,-1.2 -2.68,-1.2 z" />
    <path
       id="path129"
       style="font-style:italic;font-variant:normal;font-weight:500;font-stretch:normal;font-family:Ubuntu;-inkscape-font-specification:'Ubuntu Medium Italic';text-align:center;text-anchor:middle;fill:#ffffff"
       d="m -386.2175,151.19538 5.04,-0.8 -1.52,6.32 h 6.84 l -0.96,4 h -6.84 l -2,8.28 q -0.2,0.88 -0.28,1.48 -0.08,0.56 -0.08,1.04 0,0.48 0.08,0.96 0.12,0.44 0.4,0.8 0.32,0.32 0.88,0.56 0.6,0.2 1.6,0.2 1.08,0 2.08,-0.28 1,-0.28 1.76,-0.6 l 0.36,3.88 q -0.92,0.4 -2.32,0.76 -1.4,0.36 -3.28,0.36 -3.44,0 -4.92,-1.48 -1.48,-1.52 -1.48,-4.12 0,-0.96 0.12,-1.96 0.16,-1.04 0.44,-2.2 z" />
    <path
       id="path131"
       style="font-style:italic;font-variant:normal;font-weight:500;font-stretch:normal;font-family:Ubuntu;-inkscape-font-specification:'Ubuntu Medium Italic';text-align:center;text-anchor:middle;fill:#ffffff"
       d="m -368.00187,178.03538 q -1.88,-0.04 -3.2,-0.48 -1.28,-0.44 -2.08001,-1.2 -0.75999,-0.76 -1.12,-1.8 -0.31999,-1.04 -0.31999,-2.28 0,-1.28 0.28,-2.68 0.32,-1.44 0.68,-2.84 l 4.64,-19.36 5.03999,-0.8 q -1.23999,5.24 -2.47999,10.44 -1.24,5.16 -2.52001,10.4 -0.2,0.84 -0.44,1.68 -0.23999,0.8 -0.23999,1.6 0,0.68 0,1.28 0.04,0.56 0.32,1 0.32,0.4 0.91999,0.68 0.60001,0.28 1.56,0.36 z" />
    <path
       id="path133"
       style="font-style:italic;font-variant:normal;font-weight:500;font-stretch:normal;font-family:Ubuntu;-inkscape-font-specification:'Ubuntu Medium Italic';text-align:center;text-anchor:middle;fill:#ffffff"
       d="m -359.24875,177.63538 h -4.8 l 5,-20.92 h 4.84 z m 3.6,-24.08 q -1.08,0 -1.88,-0.64 -0.8,-0.64 -0.8,-1.92 0,-1.48 1,-2.44 1.04,-0.96 2.36,-0.96 1.08,0 1.88,0.68 0.84,0.64 0.84,1.92 0,1.48 -1.04,2.44 -1.04,0.92 -2.36,0.92 z" />
    <path
       id="path135"
       style="font-style:italic;font-variant:normal;font-weight:500;font-stretch:normal;font-family:Ubuntu;-inkscape-font-specification:'Ubuntu Medium Italic';text-align:center;text-anchor:middle;fill:#ffffff"
       d="m -348.38937,157.59538 q 1.6,-0.48 3.64,-0.88 2.08,-0.44 4.52,-0.44 3.68,0 5.39999,1.8 1.72001,1.8 1.72001,4.84 0,0.84 -0.16,1.8 -0.12,0.92 -0.32001,1.92 l -2.63999,11 h -4.84 l 2.47999,-10.48 q 0.20001,-0.88 0.40001,-1.8 0.2,-0.92 0.24,-1.76 0.04,-1.4 -0.68,-2.32 -0.68,-0.92 -2.72,-0.92 -1.72,0 -2.96,0.36 l -4.04,16.92 h -4.84 z" />
  </g>
</svg>
