<?xml version="1.0" encoding="UTF-8" standalone="no"?>
<svg
   xmlns:osb="http://www.openswatchbook.org/uri/2009/osb"
   xmlns:dc="http://purl.org/dc/elements/1.1/"
   xmlns:cc="http://creativecommons.org/ns#"
   xmlns:rdf="http://www.w3.org/1999/02/22-rdf-syntax-ns#"
   xmlns:svg="http://www.w3.org/2000/svg"
   xmlns="http://www.w3.org/2000/svg"
   xmlns:xlink="http://www.w3.org/1999/xlink"
   width="444.5mm"
   height="277.8125mm"
   viewBox="0 0 444.49999 277.8125"
   version="1.1"
   id="svg3357">
  <defs
     id="defs3351">
    <linearGradient
       id="linearGradient891">
      <stop
         style="stop-color:#f4b400;stop-opacity:1;"
         offset="0"
         id="stop887" />
      <stop
         id="stop895"
         offset="0"
         style="stop-color:#fbcf55;stop-opacity:1" />
      <stop
         style="stop-color:#ffcd46;stop-opacity:1"
         offset="1"
         id="stop889" />
    </linearGradient>
    <linearGradient
       id="linearGradient4115"
       osb:paint="solid">
      <stop
         style="stop-color:#000000;stop-opacity:1;"
         offset="0"
         id="stop4113" />
    </linearGradient>
    <linearGradient
       id="linearGradient6114">
      <stop
         style="stop-color:#6f7c91;stop-opacity:1;"
         offset="0"
         id="stop6110" />
      <stop
         style="stop-color:#162d50;stop-opacity:1"
         offset="1"
         id="stop6112" />
    </linearGradient>
    <radialGradient
       xlink:href="#linearGradient6114"
       id="radialGradient6126"
       cx="73.77433"
       cy="66.986313"
       fx="73.77433"
       fy="66.986313"
       r="31.67275"
       gradientTransform="matrix(3.0071285,0,0,1.83657,-125.12732,-58.151445)"
       gradientUnits="userSpaceOnUse" />
    <radialGradient
       xlink:href="#linearGradient891"
       id="radialGradient893"
       cx="107.17859"
       cy="63.801815"
       fx="107.17859"
       fy="63.801815"
       r="105.70104"
       gradientTransform="matrix(2.1026282,0,0,1.3141426,-3.106737,55.061563)"
       gradientUnits="userSpaceOnUse" />
    <linearGradient
       xlink:href="#linearGradient866"
       id="linearGradient868"
       x1="443.93756"
       y1="139.69971"
       x2="444.5"
       y2="138.90625"
       gradientUnits="userSpaceOnUse"
       gradientTransform="translate(9.9999999e-6)" />
    <linearGradient
       id="linearGradient866">
      <stop
         style="stop-color:#6e7078;stop-opacity:1;"
         offset="0"
         id="stop862" />
      <stop
         style="stop-color:#6e7078;stop-opacity:0;"
         offset="1"
         id="stop864" />
    </linearGradient>
    <linearGradient
       gradientUnits="userSpaceOnUse"
       y2="138.90625"
       x2="465.91299"
       y1="139.3998"
       x1="444.19131"
       id="linearGradient1019-7"
       xlink:href="#linearGradient866"
       gradientTransform="translate(-1.5e-4,4.6e-4)" />
  </defs>
  <metadata
     id="metadata3354">
    <rdf:RDF>
      <cc:Work
         rdf:about="">
        <dc:format>image/svg+xml</dc:format>
        <dc:type
           rdf:resource="http://purl.org/dc/dcmitype/StillImage" />
        <dc:title></dc:title>
      </cc:Work>
    </rdf:RDF>
  </metadata>
  <g
     id="flowRoot985"
     style="font-style:normal;font-weight:normal;font-size:40px;line-height:1.25;font-family:sans-serif;letter-spacing:0px;word-spacing:0px;fill:#000000;fill-opacity:1;stroke:none"
     transform="matrix(0.26458333,0,0,0.26458333,-408.37188,-24.35798)" />
  <g
     id="flowRoot993"
     style="font-style:normal;font-weight:normal;font-size:40px;line-height:1.25;font-family:sans-serif;letter-spacing:0px;word-spacing:0px;fill:#000000;fill-opacity:1;stroke:none"
     transform="matrix(0.26458333,0,0,0.26458333,-408.37188,-24.35798)" />
  <path
     style="opacity:1;fill:url(#linearGradient1019-7);fill-opacity:1;stroke:none;stroke-width:9.70262432;stroke-miterlimit:4;stroke-dasharray:none;paint-order:stroke markers fill"
     d="M 286.33187,0 H 0 V 277.81249 H 444.49999 V 132.71902 Z"
     id="path1098" />
  <g
     id="flowRoot906"
     style="font-style:normal;font-weight:normal;font-size:40px;line-height:1.25;font-family:sans-serif;letter-spacing:0px;word-spacing:0px;fill:#ffffff;fill-opacity:1;stroke:none"
     transform="matrix(0.79295085,0,0,1.156313,-699.33263,-191.53677)"
     aria-label="/etc/apt/sources.list (SourcesList) in Ubuntu">
    <path
       id="path922"
       style="font-style:normal;font-variant:normal;font-weight:bold;font-stretch:normal;font-family:'EB Garamond';-inkscape-font-specification:'EB Garamond Bold';text-align:center;text-anchor:middle;fill:#ffffff"
       d="m 984.76809,249.01778 q -0.44,0 -0.68,-0.24 -0.24,-0.2 -0.12,-0.52 l 12.36,-27.56 q 0.24,-0.52 0.64,-0.68 0.44,-0.16 1.16,-0.16 0.48,0 0.72,0.28 0.24,0.28 0.12,0.56 l -12.4,27.56 q -0.2,0.44 -0.68,0.6 -0.44,0.16 -1.12,0.16 z" />
    <path
       id="path924"
       style="font-style:normal;font-variant:normal;font-weight:bold;font-stretch:normal;font-family:'EB Garamond';-inkscape-font-specification:'EB Garamond Bold';text-align:center;text-anchor:middle;fill:#ffffff"
       d="m 1004.6968,247.09778 q -2.12,0 -3.84,-1.12 -1.71996,-1.16 -2.71996,-3.16 -0.96,-2 -0.96,-4.48 0,-2.48 1.16,-4.56 1.16,-2.08 3.15996,-3.28 2.04,-1.24 4.4,-1.24 1.68,0 3.08,0.72 1.4,0.72 2.2,2 0.8,1.28 0.8,2.8 0,0.8 -0.32,1.16 -0.28,0.36 -0.92,0.36 h -8 q -0.56,0 -0.84,0.32 -0.24,0.32 -0.24,1.08 0,2.32 1.48,3.92 1.48,1.56 3.72,1.56 1.12,0 2.08,-0.4 0.96,-0.44 2,-1.24 0.4,-0.32 0.56,-0.32 0.4,0 0.4,0.52 0,0.52 -0.32,1.2 -0.64,1.68 -2.52,2.92 -1.84,1.24 -4.36,1.24 z m 0.44,-12.48 q 0.92,0 1.44,-0.04 0.52,-0.04 0.92,-0.16 0.2,-0.08 0.32,-0.4 0.12,-0.32 0.12,-0.72 0,-1.04 -0.76,-1.72 -0.72,-0.72 -1.8,-0.72 -1.24,0 -2.24,1.04 -1,1 -0.96,2.16 0,0.56 0.56,0.56 z" />
    <path
       id="path926"
       style="font-style:normal;font-variant:normal;font-weight:bold;font-stretch:normal;font-family:'EB Garamond';-inkscape-font-specification:'EB Garamond Bold';text-align:center;text-anchor:middle;fill:#ffffff"
       d="m 1021.7356,247.09778 q -2.6,0 -3.96,-1.32 -1.32,-1.32 -1.32,-3.8 v -9.2 q 0,-0.36 -0.28,-0.52 -0.28,-0.16 -0.96,-0.2 h -0.52 q -0.24,0 -0.44,-0.44 -0.2,-0.44 -0.2,-0.84 0,-0.28 0.24,-0.4 2,-0.72 5.84,-4.08 0.08,-0.08 0.28,-0.2 0.2,-0.16 0.36,-0.24 0.16,-0.08 0.36,-0.08 0.4,0 0.52,0.16 0.12,0.16 0.08,0.64 l -0.24,2.36 v 0.16 q 0,0.68 0.96,0.68 h 4.76 q 0.12,0 0.24,0.28 0.12,0.28 0.12,0.52 0,0.6 -0.16,1.12 -0.16,0.48 -0.36,0.48 h -3.72 q -0.92,0 -1.28,0.24 -0.32,0.2 -0.32,0.76 v 7.56 q 0,1.8 0.68,2.72 0.68,0.92 1.88,0.92 0.92,0 1.4,-0.12 0.52,-0.16 0.84,-0.32 0.36,-0.16 0.44,-0.2 0.16,-0.08 0.24,-0.08 0.2,0 0.32,0.24 0.12,0.2 0.12,0.56 0,0.28 -0.92,0.96 -0.88,0.64 -2.24,1.16 -1.36,0.52 -2.76,0.52 z" />
    <path
       id="path928"
       style="font-style:normal;font-variant:normal;font-weight:bold;font-stretch:normal;font-family:'EB Garamond';-inkscape-font-specification:'EB Garamond Bold';text-align:center;text-anchor:middle;fill:#ffffff"
       d="m 1036.4156,247.09778 q -2.08,0 -3.8,-1.12 -1.72,-1.16 -2.72,-3.12 -0.96,-1.96 -0.96,-4.36 0,-2.56 1.16,-4.64 1.2,-2.12 3.24,-3.36 2.04,-1.24 4.52,-1.24 1.6,0 3,0.56 1.44,0.56 2.44,1.6 0.36,0.36 0.36,0.72 0,0.4 -0.76,1.16 -0.72,0.72 -1.16,0.72 -0.36,0 -0.64,-0.16 -0.24,-0.16 -0.72,-0.56 -1.04,-0.88 -2.12,-1.4 -1.04,-0.56 -1.8,-0.56 -1.56,0 -2.32,1.28 -0.76,1.28 -0.76,4.08 0,2.96 1.36,4.64 1.36,1.68 3.84,1.68 1.16,0 2.04,-0.36 0.88,-0.36 1.88,-1.2 0.12,-0.08 0.32,-0.2 0.2,-0.16 0.36,-0.16 0.48,0 0.48,0.64 0,0.48 -0.32,1.12 -0.44,0.88 -1.48,1.88 -1,1 -2.44,1.68 -1.44,0.68 -3,0.68 z" />
    <path
       id="path930"
       style="font-style:normal;font-variant:normal;font-weight:bold;font-stretch:normal;font-family:'EB Garamond';-inkscape-font-specification:'EB Garamond Bold';text-align:center;text-anchor:middle;fill:#ffffff"
       d="m 1045.8618,249.01778 q -0.44,0 -0.68,-0.24 -0.24,-0.2 -0.12,-0.52 l 12.36,-27.56 q 0.24,-0.52 0.64,-0.68 0.44,-0.16 1.16,-0.16 0.48,0 0.72,0.28 0.24,0.28 0.12,0.56 l -12.4,27.56 q -0.2,0.44 -0.68,0.6 -0.44,0.16 -1.12,0.16 z" />
    <path
       id="path932"
       style="font-style:normal;font-variant:normal;font-weight:bold;font-stretch:normal;font-family:'EB Garamond';-inkscape-font-specification:'EB Garamond Bold';text-align:center;text-anchor:middle;fill:#ffffff"
       d="m 1063.2137,247.09778 q -1.6,0 -2.8,-1.08 -1.2,-1.12 -1.2,-2.64 0,-1.36 0.8,-2.24 0.84,-0.92 2.6,-1.68 l 3.56,-1.56 q 0.8,-0.36 0.96,-0.64 0.2,-0.28 0.2,-1.04 l 0.04,-2.28 q 0.04,-1.16 -0.4,-1.8 -0.44,-0.64 -1.32,-0.64 -0.48,0 -1.04,0.24 -0.52,0.2 -0.8,0.48 -0.24,0.28 -0.24,0.84 0,0.28 0.04,0.6 0.04,0.28 0.04,0.56 0,0.4 -1.36,1 -1.32,0.6 -2.2,0.6 -0.32,0 -0.52,-0.24 -0.2,-0.24 -0.2,-0.6 0,-0.64 0.44,-1.24 0.44,-0.6 1.44,-1.44 1.56,-1.28 3.52,-2.16 1.96,-0.88 3.28,-0.88 2.12,0 3.4,1.4 1.28,1.36 1.24,3.64 l -0.2,8.08 q -0.04,0.92 0.32,1.56 0.36,0.64 0.88,0.64 0.76,0 1.32,-0.52 0.12,-0.12 0.24,-0.12 0.2,0 0.32,0.16 0.16,0.12 0.16,0.28 0,0.52 -0.72,1.24 -1.48,1.48 -3.36,1.48 -1.16,0 -2.04,-0.56 -0.88,-0.52 -1.68,-1.72 h -0.08 q -1.32,1.24 -2.4,1.76 -1.04,0.52 -2.24,0.52 z m 2.4,-2.6 q 0.76,0 1.28,-0.6 0.28,-0.44 0.28,-1.04 l 0.12,-2.88 q 0,-0.64 -0.4,-0.64 -0.2,0 -0.48,0.16 -1.28,0.6 -1.8,1.2 -0.48,0.6 -0.48,1.8 0,1.04 0.44,1.52 0.44,0.48 1.04,0.48 z" />
    <path
       id="path934"
       style="font-style:normal;font-variant:normal;font-weight:bold;font-stretch:normal;font-family:'EB Garamond';-inkscape-font-specification:'EB Garamond Bold';text-align:center;text-anchor:middle;fill:#ffffff"
       d="m 1076.9937,257.01778 q -0.32,0 -0.56,-0.16 -0.24,-0.16 -0.24,-0.4 0,-0.32 0.2,-0.52 0.24,-0.16 0.72,-0.28 0.88,-0.28 1.2,-0.6 0.32,-0.28 0.32,-0.92 v -19.16 q 0,-0.76 -0.48,-1.44 -0.44,-0.72 -1.2,-0.88 -0.24,-0.08 -0.36,-0.2 -0.12,-0.16 -0.12,-0.52 0,-0.56 0.44,-0.68 1.44,-0.32 3.04,-0.84 1.6,-0.52 2.72,-1.08 0.12,-0.04 0.32,-0.16 0.24,-0.12 0.36,-0.12 0.36,0 0.36,0.48 l -0.08,0.88 q -0.12,1.44 -0.12,1.44 0,0.4 0.08,0.48 0.44,-0.48 1.48,-1.12 1.08,-0.68 2.36,-1.16 1.32,-0.52 2.48,-0.52 2.04,0 3.56,1.12 1.56,1.12 2.36,2.92 0.84,1.76 0.84,3.76 0,2.48 -1.24,4.8 -1.24,2.28 -3.4,3.72 -2.12,1.4 -4.6,1.4 -0.68,0 -1.68,-0.24 -1,-0.24 -1.76,-0.6 -0.16,0 -0.16,0.72 v 6.64 q 0,0.76 0.48,1.16 0.52,0.4 1.68,0.72 0.88,0.28 0.88,0.8 0,0.24 -0.24,0.4 -0.2,0.16 -0.44,0.16 -1.28,0 -2.56,-0.12 -1.68,-0.08 -2.28,-0.08 -0.68,0 -2.04,0.08 -1.08,0.12 -2.32,0.12 z m 10.32,-11.6 q 0.68,0 1.56,-0.68 0.88,-0.68 1.52,-2.16 0.68,-1.48 0.68,-3.8 0,-3.8 -1.28,-5.16 -1.24,-1.36 -2.68,-1.36 -0.72,0 -1.48,0.32 -0.72,0.32 -1.24,0.8 -0.48,0.44 -0.48,0.76 l -0.08,6.56 q 0,1 0.4,2.12 0.44,1.12 1.24,1.88 0.8,0.72 1.84,0.72 z" />
    <path
       id="path936"
       style="font-style:normal;font-variant:normal;font-weight:bold;font-stretch:normal;font-family:'EB Garamond';-inkscape-font-specification:'EB Garamond Bold';text-align:center;text-anchor:middle;fill:#ffffff"
       d="m 1106.0325,247.09778 q -2.6,0 -3.96,-1.32 -1.32,-1.32 -1.32,-3.8 v -9.2 q 0,-0.36 -0.28,-0.52 -0.28,-0.16 -0.96,-0.2 h -0.52 q -0.24,0 -0.44,-0.44 -0.2,-0.44 -0.2,-0.84 0,-0.28 0.24,-0.4 2,-0.72 5.84,-4.08 0.08,-0.08 0.28,-0.2 0.2,-0.16 0.36,-0.24 0.16,-0.08 0.36,-0.08 0.4,0 0.52,0.16 0.12,0.16 0.08,0.64 l -0.24,2.36 v 0.16 q 0,0.68 0.96,0.68 h 4.76 q 0.12,0 0.24,0.28 0.12,0.28 0.12,0.52 0,0.6 -0.16,1.12 -0.16,0.48 -0.36,0.48 h -3.72 q -0.92,0 -1.28,0.24 -0.32,0.2 -0.32,0.76 v 7.56 q 0,1.8 0.68,2.72 0.68,0.92 1.88,0.92 0.92,0 1.4,-0.12 0.52,-0.16 0.84,-0.32 0.36,-0.16 0.44,-0.2 0.16,-0.08 0.24,-0.08 0.2,0 0.32,0.24 0.12,0.2 0.12,0.56 0,0.28 -0.92,0.96 -0.88,0.64 -2.24,1.16 -1.36,0.52 -2.76,0.52 z" />
    <path
       id="path938"
       style="font-style:normal;font-variant:normal;font-weight:bold;font-stretch:normal;font-family:'EB Garamond';-inkscape-font-specification:'EB Garamond Bold';text-align:center;text-anchor:middle;fill:#ffffff"
       d="m 1113.7525,249.01778 q -0.44,0 -0.68,-0.24 -0.24,-0.2 -0.12,-0.52 l 12.36,-27.56 q 0.24,-0.52 0.64,-0.68 0.44,-0.16 1.16,-0.16 0.48,0 0.72,0.28 0.24,0.28 0.12,0.56 l -12.4,27.56 q -0.2,0.44 -0.68,0.6 -0.44,0.16 -1.12,0.16 z" />
    <path
       id="path940"
       style="font-style:normal;font-variant:normal;font-weight:bold;font-stretch:normal;font-family:'EB Garamond';-inkscape-font-specification:'EB Garamond Bold';text-align:center;text-anchor:middle;fill:#ffffff"
       d="m 1133.2475,247.09778 q -2.88,0 -4.8,-1.36 -0.36,-0.56 -0.52,-1.8 -0.16,-1.28 -0.12,-2.76 0,-0.48 0.8,-0.48 0.28,0 0.52,0.2 0.24,0.16 0.32,0.4 0.84,1.92 1.84,3 1,1.04 2.32,1.04 1,0 1.6,-0.64 0.6,-0.64 0.6,-1.52 0,-0.96 -0.72,-1.64 -0.72,-0.68 -2.08,-1.4 -2.12,-1.08 -3.36,-2.4 -1.2,-1.32 -1.2,-3.32 0,-2.32 1.84,-3.76 1.84,-1.44 4.6,-1.44 1.2,0 2.32,0.28 1.16,0.28 1.64,0.6 0.32,0.4 0.52,1.52 0.2,1.08 0.2,2.4 0,0.2 -0.24,0.32 -0.2,0.12 -0.48,0.12 -0.28,0 -0.6,-0.2 -0.28,-0.2 -0.36,-0.4 -0.52,-1.56 -1.36,-2.32 -0.8,-0.8 -1.8,-0.8 -0.92,0 -1.64,0.6 -0.68,0.56 -0.68,1.48 0,0.76 0.68,1.44 0.72,0.64 2.04,1.36 2.72,1.44 3.76,2.68 1.08,1.24 1.08,3.28 0,2.64 -1.76,4.08 -1.72,1.44 -4.96,1.44 z" />
    <path
       id="path942"
       style="font-style:normal;font-variant:normal;font-weight:bold;font-stretch:normal;font-family:'EB Garamond';-inkscape-font-specification:'EB Garamond Bold';text-align:center;text-anchor:middle;fill:#ffffff"
       d="m 1150.5025,247.09778 q -2.36,0 -4.32,-1.08 -1.96,-1.08 -3.08,-2.96 -1.12,-1.92 -1.12,-4.32 0,-2.52 1.24,-4.72 1.28,-2.2 3.4,-3.48 2.16,-1.32 4.76,-1.32 2.4,0 4.44,1.16 2.04,1.12 3.2,3.08 1.2,1.92 1.2,4.12 0,2.64 -1.12,4.8 -1.12,2.16 -3.32,3.44 -2.16,1.28 -5.28,1.28 z m 0.8,-1.76 q 1.64,0 2.48,-1.36 0.84,-1.4 0.84,-5.44 0,-3.28 -1.08,-5.4 -1.04,-2.16 -2.76,-2.16 -1.24,0 -2.08,0.84 -0.68,0.76 -0.96,2.2 -0.24,1.44 -0.24,3.72 0,1.92 0.48,3.68 0.52,1.76 1.36,2.84 0.88,1.08 1.96,1.08 z" />
    <path
       id="path944"
       style="font-style:normal;font-variant:normal;font-weight:bold;font-stretch:normal;font-family:'EB Garamond';-inkscape-font-specification:'EB Garamond Bold';text-align:center;text-anchor:middle;fill:#ffffff"
       d="m 1175.0187,247.37778 q -0.32,0 -0.32,-0.4 0,-0.56 0.12,-1.28 l 0.08,-1.24 q 0,-0.36 -0.08,-0.44 -1.12,1.36 -2.84,2.24 -1.68,0.88 -3.48,0.88 -1.88,0 -3.16,-1.6 -1.24,-1.64 -1.24,-4.04 v -7.48 q 0,-1 -0.36,-1.52 -0.36,-0.56 -1.24,-0.72 -0.24,-0.04 -0.44,-0.2 -0.16,-0.2 -0.16,-0.56 0,-0.64 0.6,-0.68 2.6,-0.12 5.8,-0.96 0.16,-0.04 0.4,-0.08 0.28,-0.08 0.44,-0.08 0.56,0 0.52,0.56 -0.32,1.64 -0.32,3.08 v 7.68 q 0,1.44 0.68,2.32 0.68,0.88 1.76,0.92 1.56,0 2.44,-0.88 0.32,-0.28 0.56,-0.88 0.24,-0.64 0.24,-1.6 v -6.44 q 0,-1 -0.6,-1.56 -0.6,-0.6 -1.56,-0.68 -0.48,-0.04 -0.72,-0.24 -0.24,-0.2 -0.24,-0.64 0,-0.4 0.28,-0.6 0.28,-0.2 0.68,-0.2 3.04,-0.2 4.32,-0.32 1.28,-0.12 2.4,-0.4 0.48,-0.12 0.52,-0.12 0.6,0 0.6,0.48 0,0.12 -0.16,0.6 -0.08,0.48 -0.2,1.4 -0.08,0.92 -0.08,1.4 v 9.28 q 0,1.52 0.72,1.52 l 1.12,0.04 q 0.36,0 0.56,0.2 0.2,0.2 0.2,0.52 0,0.4 -0.16,0.6 -0.12,0.2 -0.52,0.24 -2.96,0.28 -6.12,1.6 -0.12,0.04 -0.48,0.16 -0.32,0.12 -0.56,0.12 z" />
    <path
       id="path946"
       style="font-style:normal;font-variant:normal;font-weight:bold;font-stretch:normal;font-family:'EB Garamond';-inkscape-font-specification:'EB Garamond Bold';text-align:center;text-anchor:middle;fill:#ffffff"
       d="m 1184.89,246.65778 q -0.36,0 -0.6,-0.12 -0.2,-0.16 -0.2,-0.44 0,-0.32 0.2,-0.48 0.24,-0.2 0.72,-0.32 0.88,-0.28 1.16,-0.6 0.32,-0.32 0.32,-0.92 v -9.2 q 0,-0.92 -0.28,-1.4 -0.24,-0.52 -0.92,-0.72 -0.52,-0.16 -0.52,-0.72 0,-0.56 0.48,-0.68 1.28,-0.28 2.8,-0.8 1.56,-0.56 2.64,-1.08 0.6,-0.44 0.92,-0.44 0.36,0 0.36,0.44 l -0.12,3.16 q 0,0.36 0.16,0.36 1.04,-1.44 2.4,-2.44 1.36,-1.04 2.68,-1.04 1.32,0 1.92,0.52 0.64,0.48 0.64,1.36 0,0.96 -0.76,2.04 -0.72,1.04 -1.56,1.04 -0.52,0 -1.56,-0.56 -0.16,-0.08 -0.68,-0.28 -0.48,-0.24 -0.8,-0.24 -2.56,0 -2.56,3.8 v 6.52 q 0,0.76 0.48,1.16 0.48,0.4 1.64,0.72 0.88,0.24 0.88,0.8 0,0.24 -0.2,0.4 -0.2,0.16 -0.48,0.16 -1.28,0 -2.56,-0.12 -1.6,-0.08 -2.24,-0.08 -0.68,0 -2.04,0.08 -1.08,0.12 -2.32,0.12 z" />
    <path
       id="path948"
       style="font-style:normal;font-variant:normal;font-weight:bold;font-stretch:normal;font-family:'EB Garamond';-inkscape-font-specification:'EB Garamond Bold';text-align:center;text-anchor:middle;fill:#ffffff"
       d="m 1207.7437,247.09778 q -2.08,0 -3.8,-1.12 -1.72,-1.16 -2.72,-3.12 -0.96,-1.96 -0.96,-4.36 0,-2.56 1.16,-4.64 1.2,-2.12 3.24,-3.36 2.04,-1.24 4.52,-1.24 1.6,0 3,0.56 1.44,0.56 2.44,1.6 0.36,0.36 0.36,0.72 0,0.4 -0.76,1.16 -0.72,0.72 -1.16,0.72 -0.36,0 -0.64,-0.16 -0.24,-0.16 -0.72,-0.56 -1.04,-0.88 -2.12,-1.4 -1.04,-0.56 -1.8,-0.56 -1.56,0 -2.32,1.28 -0.76,1.28 -0.76,4.08 0,2.96 1.36,4.64 1.36,1.68 3.84,1.68 1.16,0 2.04,-0.36 0.88,-0.36 1.88,-1.2 0.12,-0.08 0.32,-0.2 0.2,-0.16 0.36,-0.16 0.48,0 0.48,0.64 0,0.48 -0.32,1.12 -0.44,0.88 -1.48,1.88 -1,1 -2.44,1.68 -1.44,0.68 -3,0.68 z" />
    <path
       id="path950"
       style="font-style:normal;font-variant:normal;font-weight:bold;font-stretch:normal;font-family:'EB Garamond';-inkscape-font-specification:'EB Garamond Bold';text-align:center;text-anchor:middle;fill:#ffffff"
       d="m 1223.9937,247.09778 q -2.12,0 -3.84,-1.12 -1.72,-1.16 -2.72,-3.16 -0.96,-2 -0.96,-4.48 0,-2.48 1.16,-4.56 1.16,-2.08 3.16,-3.28 2.04,-1.24 4.4,-1.24 1.68,0 3.08,0.72 1.4,0.72 2.2,2 0.8,1.28 0.8,2.8 0,0.8 -0.32,1.16 -0.28,0.36 -0.92,0.36 h -8 q -0.56,0 -0.84,0.32 -0.24,0.32 -0.24,1.08 0,2.32 1.48,3.92 1.48,1.56 3.72,1.56 1.12,0 2.08,-0.4 0.96,-0.44 2,-1.24 0.4,-0.32 0.56,-0.32 0.4,0 0.4,0.52 0,0.52 -0.32,1.2 -0.64,1.68 -2.52,2.92 -1.84,1.24 -4.36,1.24 z m 0.44,-12.48 q 0.92,0 1.44,-0.04 0.52,-0.04 0.92,-0.16 0.2,-0.08 0.32,-0.4 0.12,-0.32 0.12,-0.72 0,-1.04 -0.76,-1.72 -0.72,-0.72 -1.8,-0.72 -1.24,0 -2.24,1.04 -1,1 -0.96,2.16 0,0.56 0.56,0.56 z" />
    <path
       id="path952"
       style="font-style:normal;font-variant:normal;font-weight:bold;font-stretch:normal;font-family:'EB Garamond';-inkscape-font-specification:'EB Garamond Bold';text-align:center;text-anchor:middle;fill:#ffffff"
       d="m 1238.8725,247.09778 q -2.88,0 -4.8,-1.36 -0.36,-0.56 -0.52,-1.8 -0.16,-1.28 -0.12,-2.76 0,-0.48 0.8,-0.48 0.28,0 0.52,0.2 0.24,0.16 0.32,0.4 0.84,1.92 1.84,3 1,1.04 2.32,1.04 1,0 1.6,-0.64 0.6,-0.64 0.6,-1.52 0,-0.96 -0.72,-1.64 -0.72,-0.68 -2.08,-1.4 -2.12,-1.08 -3.36,-2.4 -1.2,-1.32 -1.2,-3.32 0,-2.32 1.84,-3.76 1.84,-1.44 4.6,-1.44 1.2,0 2.32,0.28 1.16,0.28 1.64,0.6 0.32,0.4 0.52,1.52 0.2,1.08 0.2,2.4 0,0.2 -0.24,0.32 -0.2,0.12 -0.48,0.12 -0.28,0 -0.6,-0.2 -0.28,-0.2 -0.36,-0.4 -0.52,-1.56 -1.36,-2.32 -0.8,-0.8 -1.8,-0.8 -0.92,0 -1.64,0.6 -0.68,0.56 -0.68,1.48 0,0.76 0.68,1.44 0.72,0.64 2.04,1.36 2.72,1.44 3.76,2.68 1.08,1.24 1.08,3.28 0,2.64 -1.76,4.08 -1.72,1.44 -4.96,1.44 z" />
    <path
       id="path954-8"
       style="font-style:normal;font-variant:normal;font-weight:bold;font-stretch:normal;font-family:'EB Garamond';-inkscape-font-specification:'EB Garamond Bold';text-align:center;text-anchor:middle;fill:#ffffff"
       d="m 1251.5275,247.73778 q -1.32,0 -2.28,-0.96 -0.92,-0.92 -0.92,-2.24 0,-1.36 0.92,-2.32 0.96,-1 2.28,-1 1.4,0 2.36,0.96 0.96,0.96 0.96,2.36 0,1.32 -0.96,2.24 -0.96,0.96 -2.36,0.96 z" />
    <path
       id="path956"
       style="font-style:normal;font-variant:normal;font-weight:bold;font-stretch:normal;font-family:'EB Garamond';-inkscape-font-specification:'EB Garamond Bold';text-align:center;text-anchor:middle;fill:#ffffff"
       d="m 1257.9312,246.65778 q -0.36,0 -0.6,-0.12 -0.2,-0.16 -0.2,-0.44 0,-0.56 0.92,-0.8 0.88,-0.32 1.2,-0.56 0.32,-0.24 0.32,-0.96 v -19.24 q 0,-1.2 -0.36,-1.92 -0.32,-0.76 -1.24,-0.96 -0.4,-0.08 -0.4,-0.6 0,-0.52 0.36,-0.6 1.08,-0.2 2.6,-0.72 1.56,-0.52 2.76,-0.96 l 0.84,-0.32 q 0.28,-0.12 0.52,-0.12 0.4,0 0.4,0.48 0,0.32 -0.12,1.16 -0.08,0.84 -0.12,1.6 v 22.12 q 0,0.68 0.28,0.96 0.32,0.24 0.72,0.4 0.4,0.12 0.52,0.16 0.48,0.16 0.68,0.36 0.24,0.16 0.24,0.44 0,0.28 -0.24,0.44 -0.2,0.12 -0.56,0.12 -0.84,0 -2.28,-0.08 l -2.08,-0.04 q -0.64,0 -1.92,0.08 -1.08,0.12 -2.24,0.12 z" />
    <path
       id="path958"
       style="font-style:normal;font-variant:normal;font-weight:bold;font-stretch:normal;font-family:'EB Garamond';-inkscape-font-specification:'EB Garamond Bold';text-align:center;text-anchor:middle;fill:#ffffff"
       d="m 1269.3775,246.65778 q -0.24,0 -0.44,-0.12 -0.2,-0.16 -0.2,-0.4 0,-0.6 0.72,-0.8 1.08,-0.24 1.48,-0.52 0.4,-0.32 0.4,-0.96 v -8.64 q 0,-1.32 -0.4,-1.92 -0.4,-0.6 -1.32,-0.72 -0.24,-0.04 -0.36,-0.24 -0.12,-0.2 -0.12,-0.48 0,-0.24 0.12,-0.44 0.16,-0.2 0.32,-0.24 1.8,-0.32 3.16,-0.88 1.4,-0.56 3.04,-1.36 0.56,-0.32 0.8,-0.32 0.24,0 0.36,0.16 0.16,0.12 0.16,0.32 l -0.16,1.48 q -0.36,3.04 -0.36,4.4 v 8.84 q 0,0.56 0.4,0.88 0.4,0.32 1.52,0.64 0.36,0.12 0.52,0.28 0.2,0.16 0.2,0.48 0,0.52 -0.6,0.52 -0.84,0 -2.44,-0.08 -1.6,-0.08 -2.28,-0.08 -0.68,0 -2.12,0.08 -1.2,0.12 -2.4,0.12 z m 4.4,-19.84 q -1.28,0 -2.2,-0.92 -0.92,-0.92 -0.92,-2.2 0,-1.36 0.92,-2.28 0.92,-0.92 2.2,-0.92 1.36,0 2.28,0.92 0.96,0.92 0.96,2.28 0,1.28 -0.96,2.2 -0.92,0.92 -2.28,0.92 z" />
    <path
       id="path960"
       style="font-style:normal;font-variant:normal;font-weight:bold;font-stretch:normal;font-family:'EB Garamond';-inkscape-font-specification:'EB Garamond Bold';text-align:center;text-anchor:middle;fill:#ffffff"
       d="m 1286.2943,247.09778 q -2.88,0 -4.8,-1.36 -0.36,-0.56 -0.52,-1.8 -0.16,-1.28 -0.12,-2.76 0,-0.48 0.8,-0.48 0.28,0 0.52,0.2 0.24,0.16 0.32,0.4 0.84,1.92 1.84,3 1,1.04 2.32,1.04 1,0 1.6,-0.64 0.6,-0.64 0.6,-1.52 0,-0.96 -0.72,-1.64 -0.72,-0.68 -2.08,-1.4 -2.12,-1.08 -3.36,-2.4 -1.2,-1.32 -1.2,-3.32 0,-2.32 1.84,-3.76 1.84,-1.44 4.6,-1.44 1.2,0 2.32,0.28 1.16,0.28 1.64,0.6 0.32,0.4 0.52,1.52 0.2,1.08 0.2,2.4 0,0.2 -0.24,0.32 -0.2,0.12 -0.48,0.12 -0.28,0 -0.6,-0.2 -0.28,-0.2 -0.36,-0.4 -0.52,-1.56 -1.36,-2.32 -0.8,-0.8 -1.8,-0.8 -0.92,0 -1.64,0.6 -0.68,0.56 -0.68,1.48 0,0.76 0.68,1.44 0.72,0.64 2.04,1.36 2.72,1.44 3.76,2.68 1.08,1.24 1.08,3.28 0,2.64 -1.76,4.08 -1.72,1.44 -4.96,1.44 z" />
    <path
       id="path962"
       style="font-style:normal;font-variant:normal;font-weight:bold;font-stretch:normal;font-family:'EB Garamond';-inkscape-font-specification:'EB Garamond Bold';text-align:center;text-anchor:middle;fill:#ffffff"
       d="m 1302.8293,247.09778 q -2.6,0 -3.96,-1.32 -1.32,-1.32 -1.32,-3.8 v -9.2 q 0,-0.36 -0.28,-0.52 -0.28,-0.16 -0.96,-0.2 h -0.52 q -0.24,0 -0.44,-0.44 -0.2,-0.44 -0.2,-0.84 0,-0.28 0.24,-0.4 2,-0.72 5.84,-4.08 0.08,-0.08 0.28,-0.2 0.2,-0.16 0.36,-0.24 0.16,-0.08 0.36,-0.08 0.4,0 0.52,0.16 0.12,0.16 0.08,0.64 l -0.24,2.36 v 0.16 q 0,0.68 0.96,0.68 h 4.76 q 0.12,0 0.24,0.28 0.12,0.28 0.12,0.52 0,0.6 -0.16,1.12 -0.16,0.48 -0.36,0.48 h -3.72 q -0.92,0 -1.28,0.24 -0.32,0.2 -0.32,0.76 v 7.56 q 0,1.8 0.68,2.72 0.68,0.92 1.88,0.92 0.92,0 1.4,-0.12 0.52,-0.16 0.84,-0.32 0.36,-0.16 0.44,-0.2 0.16,-0.08 0.24,-0.08 0.2,0 0.32,0.24 0.12,0.2 0.12,0.56 0,0.28 -0.92,0.96 -0.88,0.64 -2.24,1.16 -1.36,0.52 -2.76,0.52 z" />
    <path
       id="path964"
       style="font-style:normal;font-variant:normal;font-weight:bold;font-stretch:normal;font-family:'EB Garamond';-inkscape-font-specification:'EB Garamond Bold';text-align:center;text-anchor:middle;fill:#ffffff"
       d="m 1048.3168,305.61306 q -0.68,0 -1.16,-0.48 -1.4,-1.44 -3.08,-4.72 -1.64,-3.24 -2.76,-7.08 -1.12,-3.84 -1.12,-7 0,-3.16 1.04,-6.48 1.08,-3.36 2.64,-6.08 1.6,-2.76 3.08,-4.24 0.32,-0.32 0.8,-0.52 0.48,-0.24 1,-0.24 0.4,0 0.92,0.36 0.56,0.32 0.56,0.72 0,0.16 -0.84,1.28 -1.8,2.24 -3.16,6.28 -1.36,4 -1.36,8.72 0,2.92 0.6,6.32 0.64,3.4 1.6,6.24 1,2.84 2.04,4.12 0.16,0.2 0.56,0.68 0.44,0.52 0.44,0.6 0,0.68 -0.56,1.08 -0.52,0.44 -1.24,0.44 z" />
    <path
       id="path966"
       style="font-style:normal;font-variant:normal;font-weight:bold;font-stretch:normal;font-family:'EB Garamond';-inkscape-font-specification:'EB Garamond Bold';text-align:center;text-anchor:middle;fill:#ffffff"
       d="m 1059.7043,297.57306 q -3.64,0 -6.32,-1.68 -0.64,-0.4 -0.84,-0.96 -0.36,-1.04 -0.56,-2.6 -0.16,-1.56 -0.08,-3.2 0,-0.52 0.8,-0.52 0.36,0 0.52,0.12 0.16,0.08 0.32,0.36 0.88,3.08 2.64,4.88 1.76,1.8 4.04,1.8 1.76,0 2.76,-1.16 1.04,-1.2 1.04,-2.72 0,-1.24 -0.48,-2.08 -0.48,-0.88 -1.4,-1.56 -0.92,-0.72 -2.68,-1.68 -2.28,-1.28 -3.6,-2.24 -1.32,-0.96 -2.28,-2.48 -0.92,-1.52 -0.92,-3.68 0,-2.28 1.2,-4.04 1.24,-1.76 3.36,-2.72 2.12,-0.96 4.76,-0.96 1.4,0 2.76,0.28 1.4,0.28 2.36,0.68 0.48,0.2 0.68,0.44 0.24,0.24 0.4,0.84 0.48,1.92 0.48,4.68 0,0.2 -0.2,0.36 -0.2,0.16 -0.52,0.16 -0.36,0 -0.68,-0.16 -0.28,-0.2 -0.36,-0.48 -0.68,-2.4 -2,-3.64 -1.32,-1.24 -3.24,-1.24 -3.72,0 -3.72,3.6 0,1.28 1.28,2.44 1.28,1.16 4.12,2.8 3.24,1.96 4.56,3.8 1.32,1.84 1.32,4.52 0,4 -2.56,6.04 -2.52,2 -6.96,2 z" />
    <path
       id="path968"
       style="font-style:normal;font-variant:normal;font-weight:bold;font-stretch:normal;font-family:'EB Garamond';-inkscape-font-specification:'EB Garamond Bold';text-align:center;text-anchor:middle;fill:#ffffff"
       d="m 1080.6587,297.57306 q -2.36,0 -4.32,-1.08 -1.96,-1.08 -3.08,-2.96 -1.12,-1.92 -1.12,-4.32 0,-2.52 1.24,-4.72 1.28,-2.2 3.4,-3.48 2.16,-1.32 4.76,-1.32 2.4,0 4.44,1.16 2.04,1.12 3.2,3.08 1.2,1.92 1.2,4.12 0,2.64 -1.12,4.8 -1.12,2.16 -3.32,3.44 -2.16,1.28 -5.28,1.28 z m 0.8,-1.76 q 1.64,0 2.48,-1.36 0.84,-1.4 0.84,-5.44 0,-3.28 -1.08,-5.4 -1.04,-2.16 -2.76,-2.16 -1.24,0 -2.08,0.84 -0.68,0.76 -0.96,2.2 -0.24,1.44 -0.24,3.72 0,1.92 0.48,3.68 0.52,1.76 1.36,2.84 0.88,1.08 1.96,1.08 z" />
    <path
       id="path970"
       style="font-style:normal;font-variant:normal;font-weight:bold;font-stretch:normal;font-family:'EB Garamond';-inkscape-font-specification:'EB Garamond Bold';text-align:center;text-anchor:middle;fill:#ffffff"
       d="m 1105.175,297.85306 q -0.32,0 -0.32,-0.4 0,-0.56 0.12,-1.28 l 0.08,-1.24 q 0,-0.36 -0.08,-0.44 -1.12,1.36 -2.84,2.24 -1.68,0.88 -3.48,0.88 -1.88,0 -3.16,-1.6 -1.24,-1.64 -1.24,-4.04 v -7.48 q 0,-1 -0.36,-1.52 -0.36,-0.56 -1.24,-0.72 -0.24,-0.04 -0.44,-0.2 -0.16,-0.2 -0.16,-0.56 0,-0.64 0.6,-0.68 2.6,-0.12 5.8,-0.96 0.16,-0.04 0.4,-0.08 0.28,-0.08 0.44,-0.08 0.56,0 0.52,0.56 -0.32,1.64 -0.32,3.08 v 7.68 q 0,1.44 0.68,2.32 0.68,0.88 1.76,0.92 1.56,0 2.44,-0.88 0.32,-0.28 0.56,-0.88 0.24,-0.64 0.24,-1.6 v -6.44 q 0,-1 -0.6,-1.56 -0.6,-0.6 -1.56,-0.68 -0.48,-0.04 -0.72,-0.24 -0.24,-0.2 -0.24,-0.64 0,-0.4 0.28,-0.6 0.28,-0.2 0.68,-0.2 3.04,-0.2 4.32,-0.32 1.28,-0.12 2.4,-0.4 0.48,-0.12 0.52,-0.12 0.6,0 0.6,0.48 0,0.12 -0.16,0.6 -0.08,0.48 -0.2,1.4 -0.08,0.92 -0.08,1.4 v 9.28 q 0,1.52 0.72,1.52 l 1.12,0.04 q 0.36,0 0.56,0.2 0.2,0.2 0.2,0.52 0,0.4 -0.16,0.6 -0.12,0.2 -0.52,0.24 -2.96,0.28 -6.12,1.6 -0.12,0.04 -0.48,0.16 -0.32,0.12 -0.56,0.12 z" />
    <path
       id="path972"
       style="font-style:normal;font-variant:normal;font-weight:bold;font-stretch:normal;font-family:'EB Garamond';-inkscape-font-specification:'EB Garamond Bold';text-align:center;text-anchor:middle;fill:#ffffff"
       d="m 1115.0462,297.13306 q -0.36,0 -0.6,-0.12 -0.2,-0.16 -0.2,-0.44 0,-0.32 0.2,-0.48 0.24,-0.2 0.72,-0.32 0.88,-0.28 1.16,-0.6 0.32,-0.32 0.32,-0.92 v -9.2 q 0,-0.92 -0.28,-1.4 -0.24,-0.52 -0.92,-0.72 -0.52,-0.16 -0.52,-0.72 0,-0.56 0.48,-0.68 1.28,-0.28 2.8,-0.8 1.56,-0.56 2.64,-1.08 0.6,-0.44 0.92,-0.44 0.36,0 0.36,0.44 l -0.12,3.16 q 0,0.36 0.16,0.36 1.04,-1.44 2.4,-2.44 1.36,-1.04 2.68,-1.04 1.32,0 1.92,0.52 0.64,0.48 0.64,1.36 0,0.96 -0.76,2.04 -0.72,1.04 -1.56,1.04 -0.52,0 -1.56,-0.56 -0.16,-0.08 -0.68,-0.28 -0.48,-0.24 -0.8,-0.24 -2.56,0 -2.56,3.8 v 6.52 q 0,0.76 0.48,1.16 0.48,0.4 1.64,0.72 0.88,0.24 0.88,0.8 0,0.24 -0.2,0.4 -0.2,0.16 -0.48,0.16 -1.28,0 -2.56,-0.12 -1.6,-0.08 -2.24,-0.08 -0.68,0 -2.04,0.08 -1.08,0.12 -2.32,0.12 z" />
    <path
       id="path974"
       style="font-style:normal;font-variant:normal;font-weight:bold;font-stretch:normal;font-family:'EB Garamond';-inkscape-font-specification:'EB Garamond Bold';text-align:center;text-anchor:middle;fill:#ffffff"
       d="m 1137.9,297.57306 q -2.08,0 -3.8,-1.12 -1.72,-1.16 -2.72,-3.12 -0.96,-1.96 -0.96,-4.36 0,-2.56 1.16,-4.64 1.2,-2.12 3.24,-3.36 2.04,-1.24 4.52,-1.24 1.6,0 3,0.56 1.44,0.56 2.44,1.6 0.36,0.36 0.36,0.72 0,0.4 -0.76,1.16 -0.72,0.72 -1.16,0.72 -0.36,0 -0.64,-0.16 -0.24,-0.16 -0.72,-0.56 -1.04,-0.88 -2.12,-1.4 -1.04,-0.56 -1.8,-0.56 -1.56,0 -2.32,1.28 -0.76,1.28 -0.76,4.08 0,2.96 1.36,4.64 1.36,1.68 3.84,1.68 1.16,0 2.04,-0.36 0.88,-0.36 1.88,-1.2 0.12,-0.08 0.32,-0.2 0.2,-0.16 0.36,-0.16 0.48,0 0.48,0.64 0,0.48 -0.32,1.12 -0.44,0.88 -1.48,1.88 -1,1 -2.44,1.68 -1.44,0.68 -3,0.68 z" />
    <path
       id="path976"
       style="font-style:normal;font-variant:normal;font-weight:bold;font-stretch:normal;font-family:'EB Garamond';-inkscape-font-specification:'EB Garamond Bold';text-align:center;text-anchor:middle;fill:#ffffff"
       d="m 1154.15,297.57306 q -2.12,0 -3.84,-1.12 -1.72,-1.16 -2.72,-3.16 -0.96,-2 -0.96,-4.48 0,-2.48 1.16,-4.56 1.16,-2.08 3.16,-3.28 2.04,-1.24 4.4,-1.24 1.68,0 3.08,0.72 1.4,0.72 2.2,2 0.8,1.28 0.8,2.8 0,0.8 -0.32,1.16 -0.28,0.36 -0.92,0.36 h -8 q -0.56,0 -0.84,0.32 -0.24,0.32 -0.24,1.08 0,2.32 1.48,3.92 1.48,1.56 3.72,1.56 1.12,0 2.08,-0.4 0.96,-0.44 2,-1.24 0.4,-0.32 0.56,-0.32 0.4,0 0.4,0.52 0,0.52 -0.32,1.2 -0.64,1.68 -2.52,2.92 -1.84,1.24 -4.36,1.24 z m 0.44,-12.48 q 0.92,0 1.44,-0.04 0.52,-0.04 0.92,-0.16 0.2,-0.08 0.32,-0.4 0.12,-0.32 0.12,-0.72 0,-1.04 -0.76,-1.72 -0.72,-0.72 -1.8,-0.72 -1.24,0 -2.24,1.04 -1,1 -0.96,2.16 0,0.56 0.56,0.56 z" />
    <path
       id="path978"
       style="font-style:normal;font-variant:normal;font-weight:bold;font-stretch:normal;font-family:'EB Garamond';-inkscape-font-specification:'EB Garamond Bold';text-align:center;text-anchor:middle;fill:#ffffff"
       d="m 1169.0287,297.57306 q -2.88,0 -4.8,-1.36 -0.36,-0.56 -0.52,-1.8 -0.16,-1.28 -0.12,-2.76 0,-0.48 0.8,-0.48 0.28,0 0.52,0.2 0.24,0.16 0.32,0.4 0.84,1.92 1.84,3 1,1.04 2.32,1.04 1,0 1.6,-0.64 0.6,-0.64 0.6,-1.52 0,-0.96 -0.72,-1.64 -0.72,-0.68 -2.08,-1.4 -2.12,-1.08 -3.36,-2.4 -1.2,-1.32 -1.2,-3.32 0,-2.32 1.84,-3.76 1.84,-1.44 4.6,-1.44 1.2,0 2.32,0.28 1.16,0.28 1.64,0.6 0.32,0.4 0.52,1.52 0.2,1.08 0.2,2.4 0,0.2 -0.24,0.32 -0.2,0.12 -0.48,0.12 -0.28,0 -0.6,-0.2 -0.28,-0.2 -0.36,-0.4 -0.52,-1.56 -1.36,-2.32 -0.8,-0.8 -1.8,-0.8 -0.92,0 -1.64,0.6 -0.68,0.56 -0.68,1.48 0,0.76 0.68,1.44 0.72,0.64 2.04,1.36 2.72,1.44 3.76,2.68 1.08,1.24 1.08,3.28 0,2.64 -1.76,4.08 -1.72,1.44 -4.96,1.44 z" />
    <path
       id="path980"
       style="font-style:normal;font-variant:normal;font-weight:bold;font-stretch:normal;font-family:'EB Garamond';-inkscape-font-specification:'EB Garamond Bold';text-align:center;text-anchor:middle;fill:#ffffff"
       d="m 1178.4837,297.21306 q -0.36,0 -0.6,-0.2 -0.24,-0.16 -0.24,-0.4 0,-0.28 0.24,-0.48 0.24,-0.24 0.6,-0.36 1.44,-0.4 1.96,-0.88 0.56,-0.52 0.56,-1.68 v -18.32 q 0,-1.32 -0.52,-1.8 -0.48,-0.48 -2.08,-0.84 -0.84,-0.2 -0.84,-0.84 0,-0.28 0.24,-0.44 0.24,-0.16 0.56,-0.16 1.48,0 3.04,0.12 1.92,0.08 2.68,0.08 0.8,0 2.88,-0.08 2.24,-0.08 3.12,-0.08 0.72,0 0.72,0.56 0,0.36 -0.2,0.56 -0.2,0.16 -0.64,0.28 -1.68,0.48 -2.24,1 -0.56,0.48 -0.56,1.64 v 18 q 0,1.12 0.48,1.6 0.48,0.48 1.68,0.48 h 4.08 q 1.64,0 2.84,-1.08 1.2,-1.16 2.12,-3.16 0.36,-0.76 0.6,-1 0.24,-0.28 0.48,-0.28 0.28,0 0.4,0.28 0.16,0.24 0.16,0.52 0,0.12 -0.08,0.36 -0.08,0.2 -0.08,0.44 -0.6,2.16 -0.84,3.12 -0.2,0.96 -0.32,2.28 -0.08,0.76 -0.64,0.76 l -4.6,-0.08 q -8.76,-0.12 -9.28,-0.12 -1.52,0 -3.2,0.12 z" />
    <path
       id="path982"
       style="font-style:normal;font-variant:normal;font-weight:bold;font-stretch:normal;font-family:'EB Garamond';-inkscape-font-specification:'EB Garamond Bold';text-align:center;text-anchor:middle;fill:#ffffff"
       d="m 1201.7212,297.13306 q -0.24,0 -0.44,-0.12 -0.2,-0.16 -0.2,-0.4 0,-0.6 0.72,-0.8 1.08,-0.24 1.48,-0.52 0.4,-0.32 0.4,-0.96 v -8.64 q 0,-1.32 -0.4,-1.92 -0.4,-0.6 -1.32,-0.72 -0.24,-0.04 -0.36,-0.24 -0.12,-0.2 -0.12,-0.48 0,-0.24 0.12,-0.44 0.16,-0.2 0.32,-0.24 1.8,-0.32 3.16,-0.88 1.4,-0.56 3.04,-1.36 0.56,-0.32 0.8,-0.32 0.24,0 0.36,0.16 0.16,0.12 0.16,0.32 l -0.16,1.48 q -0.36,3.04 -0.36,4.4 v 8.84 q 0,0.56 0.4,0.88 0.4,0.32 1.52,0.64 0.36,0.12 0.52,0.28 0.2,0.16 0.2,0.48 0,0.52 -0.6,0.52 -0.84,0 -2.44,-0.08 -1.6,-0.08 -2.28,-0.08 -0.68,0 -2.12,0.08 -1.2,0.12 -2.4,0.12 z m 4.4,-19.84 q -1.28,0 -2.2,-0.92 -0.92,-0.92 -0.92,-2.2 0,-1.36 0.92,-2.28 0.92,-0.92 2.2,-0.92 1.36,0 2.28,0.92 0.96,0.92 0.96,2.28 0,1.28 -0.96,2.2 -0.92,0.92 -2.28,0.92 z" />
    <path
       id="path984"
       style="font-style:normal;font-variant:normal;font-weight:bold;font-stretch:normal;font-family:'EB Garamond';-inkscape-font-specification:'EB Garamond Bold';text-align:center;text-anchor:middle;fill:#ffffff"
       d="m 1218.6381,297.57306 q -2.88,0 -4.8,-1.36 -0.36,-0.56 -0.52,-1.8 -0.16,-1.28 -0.12,-2.76 0,-0.48 0.8,-0.48 0.28,0 0.52,0.2 0.24,0.16 0.32,0.4 0.84,1.92 1.84,3 1,1.04 2.32,1.04 1,0 1.6,-0.64 0.6,-0.64 0.6,-1.52 0,-0.96 -0.72,-1.64 -0.72,-0.68 -2.08,-1.4 -2.12,-1.08 -3.36,-2.4 -1.2,-1.32 -1.2,-3.32 0,-2.32 1.84,-3.76 1.84,-1.44 4.6,-1.44 1.2,0 2.32,0.28 1.16,0.28 1.64,0.6 0.32,0.4 0.52,1.52 0.2,1.08 0.2,2.4 0,0.2 -0.24,0.32 -0.2,0.12 -0.48,0.12 -0.28,0 -0.6,-0.2 -0.28,-0.2 -0.36,-0.4 -0.52,-1.56 -1.36,-2.32 -0.8,-0.8 -1.8,-0.8 -0.92,0 -1.64,0.6 -0.68,0.56 -0.68,1.48 0,0.76 0.68,1.44 0.72,0.64 2.04,1.36 2.72,1.44 3.76,2.68 1.08,1.24 1.08,3.28 0,2.64 -1.76,4.08 -1.72,1.44 -4.96,1.44 z" />
    <path
       id="path986"
       style="font-style:normal;font-variant:normal;font-weight:bold;font-stretch:normal;font-family:'EB Garamond';-inkscape-font-specification:'EB Garamond Bold';text-align:center;text-anchor:middle;fill:#ffffff"
       d="m 1235.1731,297.57306 q -2.6,0 -3.96,-1.32 -1.32,-1.32 -1.32,-3.8 v -9.2 q 0,-0.36 -0.28,-0.52 -0.28,-0.16 -0.96,-0.2 h -0.52 q -0.24,0 -0.44,-0.44 -0.2,-0.44 -0.2,-0.84 0,-0.28 0.24,-0.4 2,-0.72 5.84,-4.08 0.08,-0.08 0.28,-0.2 0.2,-0.16 0.36,-0.24 0.16,-0.08 0.36,-0.08 0.4,0 0.52,0.16 0.12,0.16 0.08,0.64 l -0.24,2.36 v 0.16 q 0,0.68 0.96,0.68 h 4.76 q 0.12,0 0.24,0.28 0.12,0.28 0.12,0.52 0,0.6 -0.16,1.12 -0.16,0.48 -0.36,0.48 h -3.72 q -0.92,0 -1.28,0.24 -0.32,0.2 -0.32,0.76 v 7.56 q 0,1.8 0.68,2.72 0.68,0.92 1.88,0.92 0.92,0 1.4,-0.12 0.52,-0.16 0.84,-0.32 0.36,-0.16 0.44,-0.2 0.16,-0.08 0.24,-0.08 0.2,0 0.32,0.24 0.12,0.2 0.12,0.56 0,0.28 -0.92,0.96 -0.88,0.64 -2.24,1.16 -1.36,0.52 -2.76,0.52 z" />
    <path
       id="path988"
       style="font-style:normal;font-variant:normal;font-weight:bold;font-stretch:normal;font-family:'EB Garamond';-inkscape-font-specification:'EB Garamond Bold';text-align:center;text-anchor:middle;fill:#ffffff"
       d="m 1244.0131,305.61306 q -0.72,0 -1.28,-0.44 -0.52,-0.4 -0.52,-1.08 0,-0.08 0.4,-0.6 0.44,-0.48 0.6,-0.68 1.04,-1.28 2,-4.12 1,-2.84 1.6,-6.24 0.64,-3.4 0.64,-6.32 0,-4.72 -1.36,-8.72 -1.36,-4.04 -3.16,-6.28 -0.84,-1.12 -0.84,-1.28 0,-0.4 0.52,-0.72 0.56,-0.36 0.96,-0.36 0.52,0 1,0.24 0.48,0.2 0.8,0.52 1.48,1.48 3.04,4.24 1.6,2.72 2.64,6.08 1.08,3.32 1.08,6.48 0,3.16 -1.12,7 -1.12,3.84 -2.8,7.08 -1.64,3.28 -3.04,4.72 -0.48,0.48 -1.16,0.48 z" />
    <path
       id="path990"
       style="font-style:normal;font-variant:normal;font-weight:bold;font-stretch:normal;font-family:'EB Garamond';-inkscape-font-specification:'EB Garamond Bold';text-align:center;text-anchor:middle;fill:#ffffff"
       d="m 1059.4165,347.60834 q -0.24,0 -0.44,-0.12 -0.2,-0.16 -0.2,-0.4 0,-0.6 0.72,-0.8 1.08,-0.24 1.48,-0.52 0.4,-0.32 0.4,-0.96 v -8.64 q 0,-1.32 -0.4,-1.92 -0.4,-0.6 -1.32,-0.72 -0.24,-0.04 -0.36,-0.24 -0.12,-0.2 -0.12,-0.48 0,-0.24 0.12,-0.44 0.16,-0.2 0.32,-0.24 1.8,-0.32 3.16,-0.88 1.4,-0.56 3.04,-1.36 0.56,-0.32 0.8,-0.32 0.24,0 0.36,0.16 0.16,0.12 0.16,0.32 l -0.16,1.48 q -0.36,3.04 -0.36,4.4 v 8.84 q 0,0.56 0.4,0.88 0.4,0.32 1.52,0.64 0.36,0.12 0.52,0.28 0.2,0.16 0.2,0.48 0,0.52 -0.6,0.52 -0.84,0 -2.44,-0.08 -1.6,-0.08 -2.28,-0.08 -0.68,0 -2.12,0.08 -1.2,0.12 -2.4,0.12 z m 4.4,-19.84 q -1.28,0 -2.2,-0.92 -0.92,-0.92 -0.92,-2.2 0,-1.36 0.92,-2.28 0.92,-0.92 2.2,-0.92 1.36,0 2.28,0.92 0.96,0.92 0.96,2.28 0,1.28 -0.96,2.2 -0.92,0.92 -2.28,0.92 z" />
    <path
       id="path992"
       style="font-style:normal;font-variant:normal;font-weight:bold;font-stretch:normal;font-family:'EB Garamond';-inkscape-font-specification:'EB Garamond Bold';text-align:center;text-anchor:middle;fill:#ffffff"
       d="m 1071.3734,347.60834 q -0.28,0 -0.56,-0.16 -0.24,-0.16 -0.24,-0.4 0,-0.48 0.92,-0.8 0.8,-0.24 1.16,-0.52 0.36,-0.28 0.36,-1 v -9.16 q 0,-2 -1.24,-2.24 -0.44,-0.08 -0.44,-0.72 0,-0.56 0.4,-0.68 1.4,-0.32 3.04,-0.88 1.64,-0.56 2.72,-1.12 0.52,-0.32 0.72,-0.32 0.36,0 0.36,0.48 l -0.08,0.8 q -0.12,1.44 -0.12,1.48 0,0.52 0.08,0.6 1.48,-1.4 2.84,-2.08 1.4,-0.68 3.16,-0.68 2.16,0 3.52,1.56 1.4,1.56 1.4,4.16 v 8.8 q 0,0.72 0.36,1 0.36,0.28 1.16,0.52 0.8,0.28 0.8,0.8 0,0.24 -0.2,0.4 -0.2,0.16 -0.48,0.16 -1.2,0 -2.28,-0.12 -1.28,-0.08 -1.96,-0.08 -0.68,0 -1.96,0.08 -1,0.12 -2.24,0.12 -0.28,0 -0.48,-0.16 -0.2,-0.16 -0.2,-0.4 0,-0.52 0.8,-0.8 0.76,-0.24 1.08,-0.52 0.32,-0.28 0.32,-1 v -7.96 q 0,-1.52 -0.68,-2.36 -0.68,-0.88 -1.88,-0.92 -0.84,0 -1.52,0.28 -0.68,0.24 -1.44,0.76 -0.32,0.28 -0.32,0.76 v 9.44 q 0,0.72 0.32,1 0.32,0.24 1.12,0.52 0.8,0.28 0.8,0.8 0,0.24 -0.2,0.4 -0.2,0.16 -0.48,0.16 -1.2,0 -2.16,-0.12 -1.28,-0.08 -1.92,-0.08 -0.68,0 -2.04,0.08 -1.08,0.12 -2.32,0.12 z" />
    <path
       id="path994"
       style="font-style:normal;font-variant:normal;font-weight:bold;font-stretch:normal;font-family:'EB Garamond';-inkscape-font-specification:'EB Garamond Bold';text-align:center;text-anchor:middle;fill:#ffffff"
       d="m 1116.7628,348.04834 q -5.52,0 -8.44,-2.88 -2.88,-2.88 -2.88,-7.8 v -11.4 q 0,-1.16 -0.56,-2.04 -0.52,-0.88 -1.48,-1.16 -1.12,-0.32 -1.12,-0.88 0,-0.28 0.28,-0.44 0.32,-0.16 0.76,-0.16 1.36,0 2.68,0.12 1.76,0.08 2.52,0.08 0.72,0 2.72,-0.08 1.92,-0.08 2.68,-0.08 1.08,0 1.08,0.6 0,0.28 -0.32,0.48 -0.28,0.16 -0.76,0.36 -0.48,0.16 -0.8,0.32 -0.68,0.28 -1.08,1.04 -0.4,0.76 -0.4,2.04 v 10.48 q 0,3.92 1.8,5.92 1.84,2 4.68,2 3.64,0 5.4,-2.16 1.8,-2.2 1.8,-6.6 l 0.04,-5.04 q 0,-1.8 -0.04,-2.6 -0.04,-2.6 -0.52,-3.64 -0.44,-1.04 -1.6,-1.64 -0.24,-0.12 -0.68,-0.24 -0.44,-0.16 -0.68,-0.32 -0.24,-0.16 -0.24,-0.4 0,-0.56 1.2,-0.56 l 2.36,0.04 q 0.48,0.04 1.48,0.04 0.72,0 1.76,-0.08 1.12,-0.08 1.84,-0.08 1.04,0 1.04,0.6 0,0.52 -1.08,0.84 -1.32,0.36 -1.88,1.2 -0.52,0.84 -0.6,2.32 -0.2,5.04 -0.2,10.76 0,3.2 -1.44,5.72 -1.44,2.52 -3.92,3.92 -2.44,1.4 -5.4,1.4 z" />
    <path
       id="path996"
       style="font-style:normal;font-variant:normal;font-weight:bold;font-stretch:normal;font-family:'EB Garamond';-inkscape-font-specification:'EB Garamond Bold';text-align:center;text-anchor:middle;fill:#ffffff"
       d="m 1142.6084,348.04834 q -1.6,0 -3.92,-0.6 -1.52,-0.44 -1.92,-0.44 -0.64,0 -1.44,0.52 -0.36,0.28 -0.56,0.28 -0.36,0 -0.56,-0.16 -0.16,-0.12 -0.16,-0.36 0,-0.28 0.2,-1.4 0.24,-1.16 0.2,-2.6 l -0.16,-17.8 q 0,-1.2 -0.36,-1.92 -0.32,-0.76 -1.2,-0.96 -0.48,-0.08 -0.48,-0.64 0,-0.2 0.12,-0.36 0.12,-0.16 0.32,-0.2 1.76,-0.32 6,-1.96 0.4,-0.16 0.56,-0.16 0.44,0 0.44,0.48 0,0.28 -0.12,1.08 -0.08,0.8 -0.08,1.44 v 8.56 q 0,1.12 0.36,1.12 1.24,-0.84 2.56,-1.28 1.36,-0.48 2.56,-0.48 2.08,0 3.76,1.08 1.68,1.08 2.64,3 1,1.88 1,4.2 0,2.8 -1.24,5 -1.2,2.16 -3.44,3.36 -2.2,1.2 -5.08,1.2 z m 0.72,-1.68 q 1.56,0 2.48,-1.96 0.96,-2 0.96,-4.88 0,-2.76 -1.04,-4.92 -1.04,-2.16 -3,-2.16 -0.84,0 -1.76,0.24 -0.92,0.24 -1.48,0.68 v 8.52 q 0,1.92 1.12,3.2 1.16,1.28 2.72,1.28 z" />
    <path
       id="path998"
       style="font-style:normal;font-variant:normal;font-weight:bold;font-stretch:normal;font-family:'EB Garamond';-inkscape-font-specification:'EB Garamond Bold';text-align:center;text-anchor:middle;fill:#ffffff"
       d="m 1167.1671,348.32834 q -0.32,0 -0.32,-0.4 0,-0.56 0.12,-1.28 l 0.08,-1.24 q 0,-0.36 -0.08,-0.44 -1.12,1.36 -2.84,2.24 -1.68,0.88 -3.48,0.88 -1.88,0 -3.16,-1.6 -1.24,-1.64 -1.24,-4.04 v -7.48 q 0,-1 -0.36,-1.52 -0.36,-0.56 -1.24,-0.72 -0.24,-0.04 -0.44,-0.2 -0.16,-0.2 -0.16,-0.56 0,-0.64 0.6,-0.68 2.6,-0.12 5.8,-0.96 0.16,-0.04 0.4,-0.08 0.28,-0.08 0.44,-0.08 0.56,0 0.52,0.56 -0.32,1.64 -0.32,3.08 v 7.68 q 0,1.44 0.68,2.32 0.68,0.88 1.76,0.92 1.56,0 2.44,-0.88 0.32,-0.28 0.56,-0.88 0.24,-0.64 0.24,-1.6 v -6.44 q 0,-1 -0.6,-1.56 -0.6,-0.6 -1.56,-0.68 -0.48,-0.04 -0.72,-0.24 -0.24,-0.2 -0.24,-0.64 0,-0.4 0.28,-0.6 0.28,-0.2 0.68,-0.2 3.04,-0.2 4.32,-0.32 1.28,-0.12 2.4,-0.4 0.48,-0.12 0.52,-0.12 0.6,0 0.6,0.48 0,0.12 -0.16,0.6 -0.08,0.48 -0.2,1.4 -0.08,0.92 -0.08,1.4 v 9.28 q 0,1.52 0.72,1.52 l 1.12,0.04 q 0.36,0 0.56,0.2 0.2,0.2 0.2,0.52 0,0.4 -0.16,0.6 -0.12,0.2 -0.52,0.24 -2.96,0.28 -6.12,1.6 -0.12,0.04 -0.48,0.16 -0.32,0.12 -0.56,0.12 z" />
    <path
       id="path1000"
       style="font-style:normal;font-variant:normal;font-weight:bold;font-stretch:normal;font-family:'EB Garamond';-inkscape-font-specification:'EB Garamond Bold';text-align:center;text-anchor:middle;fill:#ffffff"
       d="m 1176.9984,347.60834 q -0.28,0 -0.56,-0.16 -0.24,-0.16 -0.24,-0.4 0,-0.48 0.92,-0.8 0.8,-0.24 1.16,-0.52 0.36,-0.28 0.36,-1 v -9.16 q 0,-2 -1.24,-2.24 -0.44,-0.08 -0.44,-0.72 0,-0.56 0.4,-0.68 1.4,-0.32 3.04,-0.88 1.64,-0.56 2.72,-1.12 0.52,-0.32 0.72,-0.32 0.36,0 0.36,0.48 l -0.08,0.8 q -0.12,1.44 -0.12,1.48 0,0.52 0.08,0.6 1.48,-1.4 2.84,-2.08 1.4,-0.68 3.16,-0.68 2.16,0 3.52,1.56 1.4,1.56 1.4,4.16 v 8.8 q 0,0.72 0.36,1 0.36,0.28 1.16,0.52 0.8,0.28 0.8,0.8 0,0.24 -0.2,0.4 -0.2,0.16 -0.48,0.16 -1.2,0 -2.28,-0.12 -1.28,-0.08 -1.96,-0.08 -0.68,0 -1.96,0.08 -1,0.12 -2.24,0.12 -0.28,0 -0.48,-0.16 -0.2,-0.16 -0.2,-0.4 0,-0.52 0.8,-0.8 0.76,-0.24 1.08,-0.52 0.32,-0.28 0.32,-1 v -7.96 q 0,-1.52 -0.68,-2.36 -0.68,-0.88 -1.88,-0.92 -0.84,0 -1.52,0.28 -0.68,0.24 -1.44,0.76 -0.32,0.28 -0.32,0.76 v 9.44 q 0,0.72 0.32,1 0.32,0.24 1.12,0.52 0.8,0.28 0.8,0.8 0,0.24 -0.2,0.4 -0.2,0.16 -0.48,0.16 -1.2,0 -2.16,-0.12 -1.28,-0.08 -1.92,-0.08 -0.68,0 -2.04,0.08 -1.08,0.12 -2.32,0.12 z" />
    <path
       id="path1002"
       style="font-style:normal;font-variant:normal;font-weight:bold;font-stretch:normal;font-family:'EB Garamond';-inkscape-font-specification:'EB Garamond Bold';text-align:center;text-anchor:middle;fill:#ffffff"
       d="m 1206.1496,348.04834 q -2.6,0 -3.96,-1.32 -1.32,-1.32 -1.32,-3.8 v -9.2 q 0,-0.36 -0.28,-0.52 -0.28,-0.16 -0.96,-0.2 h -0.52 q -0.24,0 -0.44,-0.44 -0.2,-0.44 -0.2,-0.84 0,-0.28 0.24,-0.4 2,-0.72 5.84,-4.08 0.08,-0.08 0.28,-0.2 0.2,-0.16 0.36,-0.24 0.16,-0.08 0.36,-0.08 0.4,0 0.52,0.16 0.12,0.16 0.08,0.64 l -0.24,2.36 v 0.16 q 0,0.68 0.96,0.68 h 4.76 q 0.12,0 0.24,0.28 0.12,0.28 0.12,0.52 0,0.6 -0.16,1.12 -0.16,0.48 -0.36,0.48 h -3.72 q -0.92,0 -1.28,0.24 -0.32,0.2 -0.32,0.76 v 7.56 q 0,1.8 0.68,2.72 0.68,0.92 1.88,0.92 0.92,0 1.4,-0.12 0.52,-0.16 0.84,-0.32 0.36,-0.16 0.44,-0.2 0.16,-0.08 0.24,-0.08 0.2,0 0.32,0.24 0.12,0.2 0.12,0.56 0,0.28 -0.92,0.96 -0.88,0.64 -2.24,1.16 -1.36,0.52 -2.76,0.52 z" />
    <path
       id="path1004"
       style="font-style:normal;font-variant:normal;font-weight:bold;font-stretch:normal;font-family:'EB Garamond';-inkscape-font-specification:'EB Garamond Bold';text-align:center;text-anchor:middle;fill:#ffffff"
       d="m 1226.2296,348.32834 q -0.32,0 -0.32,-0.4 0,-0.56 0.12,-1.28 l 0.08,-1.24 q 0,-0.36 -0.08,-0.44 -1.12,1.36 -2.84,2.24 -1.68,0.88 -3.48,0.88 -1.88,0 -3.16,-1.6 -1.24,-1.64 -1.24,-4.04 v -7.48 q 0,-1 -0.36,-1.52 -0.36,-0.56 -1.24,-0.72 -0.24,-0.04 -0.44,-0.2 -0.16,-0.2 -0.16,-0.56 0,-0.64 0.6,-0.68 2.6,-0.12 5.8,-0.96 0.16,-0.04 0.4,-0.08 0.28,-0.08 0.44,-0.08 0.56,0 0.52,0.56 -0.32,1.64 -0.32,3.08 v 7.68 q 0,1.44 0.68,2.32 0.68,0.88 1.76,0.92 1.56,0 2.44,-0.88 0.32,-0.28 0.56,-0.88 0.24,-0.64 0.24,-1.6 v -6.44 q 0,-1 -0.6,-1.56 -0.6,-0.6 -1.56,-0.68 -0.48,-0.04 -0.72,-0.24 -0.24,-0.2 -0.24,-0.64 0,-0.4 0.28,-0.6 0.28,-0.2 0.68,-0.2 3.04,-0.2 4.32,-0.32 1.28,-0.12 2.4,-0.4 0.48,-0.12 0.52,-0.12 0.6,0 0.6,0.48 0,0.12 -0.16,0.6 -0.08,0.48 -0.2,1.4 -0.08,0.92 -0.08,1.4 v 9.28 q 0,1.52 0.72,1.52 l 1.12,0.04 q 0.36,0 0.56,0.2 0.2,0.2 0.2,0.52 0,0.4 -0.16,0.6 -0.12,0.2 -0.52,0.24 -2.96,0.28 -6.12,1.6 -0.12,0.04 -0.48,0.16 -0.32,0.12 -0.56,0.12 z" />
  </g>
</svg>
