<?xml version="1.0" encoding="UTF-8" standalone="no"?>
<svg
   xmlns:dc="http://purl.org/dc/elements/1.1/"
   xmlns:cc="http://creativecommons.org/ns#"
   xmlns:rdf="http://www.w3.org/1999/02/22-rdf-syntax-ns#"
   xmlns:svg="http://www.w3.org/2000/svg"
   xmlns="http://www.w3.org/2000/svg"
   xmlns:xlink="http://www.w3.org/1999/xlink"
   width="444.5mm"
   height="277.8125mm"
   viewBox="0 0 444.5 277.8125"
   version="1.1"
   id="svg3357">
  <defs
     id="defs3351">
    <linearGradient
       id="linearGradient951">
      <stop
         style="stop-color:#1da1f2;stop-opacity:1;"
         offset="0"
         id="stop947" />
      <stop
         id="stop955"
         offset="0"
         style="stop-color:#6bc1f6;stop-opacity:1" />
      <stop
         style="stop-color:#4cb4f5;stop-opacity:1"
         offset="1"
         id="stop949" />
    </linearGradient>
    <linearGradient
       id="linearGradient6114">
      <stop
         style="stop-color:#6f7c91;stop-opacity:1;"
         offset="0"
         id="stop6110" />
      <stop
         style="stop-color:#162d50;stop-opacity:1"
         offset="1"
         id="stop6112" />
    </linearGradient>
    <radialGradient
       xlink:href="#linearGradient6114"
       id="radialGradient6126"
       cx="73.77433"
       cy="66.986313"
       fx="73.77433"
       fy="66.986313"
       r="31.67275"
       gradientTransform="matrix(3.0071285,0,0,1.83657,-125.12732,-58.151445)"
       gradientUnits="userSpaceOnUse" />
    <linearGradient
       id="linearGradient878">
      <stop
         id="stop874"
         offset="0"
         style="stop-color:#241f1c;stop-opacity:1;" />
      <stop
         id="stop876"
         offset="1"
         style="stop-color:#c87137;stop-opacity:1" />
    </linearGradient>
    <linearGradient
       gradientTransform="matrix(0.17628899,0,0,0.21796478,92.944935,131.35605)"
       gradientUnits="userSpaceOnUse"
       y2="43.727966"
       x2="69.074188"
       y1="24.387194"
       x1="69.074188"
       id="linearGradient880"
       xlink:href="#linearGradient878" />
    <linearGradient
       xlink:href="#linearGradient878"
       id="linearGradient1549"
       gradientUnits="userSpaceOnUse"
       gradientTransform="matrix(0.17628899,0,0,0.21796478,92.944935,131.35605)"
       x1="69.074188"
       y1="24.387194"
       x2="69.074188"
       y2="43.727966" />
    <radialGradient
       xlink:href="#linearGradient951"
       id="radialGradient953"
       cx="107.49569"
       cy="63.511749"
       fx="107.49569"
       fy="63.511749"
       r="105.70104"
       gradientTransform="matrix(2.1026282,0,0,1.3141427,-3.7734793,55.44276)"
       gradientUnits="userSpaceOnUse" />
  </defs>
  <metadata
     id="metadata3354">
    <rdf:RDF>
      <cc:Work
         rdf:about="">
        <dc:format>image/svg+xml</dc:format>
        <dc:type
           rdf:resource="http://purl.org/dc/dcmitype/StillImage" />
        <dc:title></dc:title>
      </cc:Work>
    </rdf:RDF>
  </metadata>
  <g
     id="flowRoot874"
     style="font-style:normal;font-weight:normal;font-size:40px;line-height:1.25;font-family:sans-serif;letter-spacing:0px;word-spacing:0px;fill:#000000;fill-opacity:1;stroke:none"
     transform="matrix(2.3334794,0,0,2.3879681,-4.1145735,-16.01027)" />
  <g
     id="flowRoot1713"
     style="font-style:normal;font-weight:normal;font-size:40px;line-height:1.25;font-family:sans-serif;letter-spacing:0px;word-spacing:0px;fill:#000000;fill-opacity:1;stroke:none"
     transform="matrix(2.1026283,0,0,2.3333334,-3.7734793,-9.28783)" />
  <path
     id="rect6108"
     d="M 0,0 H 444.5 V 277.8125 H 0 Z"
     style="opacity:1;fill:url(#radialGradient953);fill-opacity:1;stroke:none;stroke-width:9.70262337;stroke-miterlimit:4;stroke-dasharray:none;paint-order:stroke markers fill" />
  <g
     id="layer1-6"
     transform="matrix(1.3123679,0,0,1.4495869,27.534394,-116.69124)">
    <g
       id="g1099">
      <path
         id="path899"
         d="m 29.638173,109.7861 c 0,0 2.210034,20.81684 5.487124,29.95959 3.27709,9.14277 12.29768,14.1377 21.67416,13.75923 9.37649,-0.37849 13.64808,-6.46519 17.83316,-14.86886 4.18509,-8.40364 6.03586,-28.62803 6.03586,-28.62803 -19.69795,-15.341999 -35.35917,-7.75384 -51.030304,-0.22193 z"
         style="fill:#ffccaa;stroke:none;stroke-width:0.32650977px;stroke-linecap:butt;stroke-linejoin:miter;stroke-opacity:1" />
      <path
         id="path931"
         d="m 22.515585,161.07614 c 1.867736,-0.0907 5.602921,-0.27197 8.148813,6.72028 2.545891,6.99225 3.902718,21.15753 3.077994,30.23536 -0.824724,9.07783 -3.831214,13.06687 -5.108904,9.36969 -1.27769,-3.69718 -0.826208,-15.08077 -0.704515,-21.76413 0.121694,-6.68335 -0.08635,-8.66634 -0.294418,-10.64952 0,0 0,0 0.317464,-1.1277 0.317465,-1.12771 0.952614,-3.3839 -0.212191,-5.6875 -1.164804,-2.30359 -4.128031,-4.65442 -5.610003,-5.83012 -1.481972,-1.1757 -1.481976,-1.1757 0.38576,-1.26636 z"
         style="fill:#373e48;fill-opacity:1;stroke:none;stroke-width:0.26458332px;stroke-linecap:butt;stroke-linejoin:miter;stroke-opacity:1"
         transform="matrix(0.89142396,-0.15489981,0.20980597,0.66043294,9.4363112,62.646384)" />
      <path
         id="path929"
         d="m 23.997557,162.25184 c 0.385764,-1.26636 4.120949,-1.44767 6.598952,7.11712 2.478003,8.5648 3.699076,25.87532 3.174432,34.25276 -0.524643,8.37744 -2.794216,7.82114 -4.004016,2.5501 -1.209799,-5.27104 -1.358971,-15.25163 -1.537617,-21.23473 -0.178645,-5.9831 -0.386691,-7.96609 -0.594757,-9.94927 0,0 0,0 0.317464,-1.1277 0.317465,-1.12771 0.952614,-3.3839 -0.212191,-5.6875 -1.164804,-2.30359 -4.128031,-4.65442 -3.742267,-5.92078 z"
         style="fill:#373e48;fill-opacity:1;stroke:none;stroke-width:0.26458332px;stroke-linecap:butt;stroke-linejoin:miter;stroke-opacity:1"
         transform="matrix(-0.99270903,-0.12053542,-0.12053542,0.99270903,87.612387,9.7605431)" />
      <g
         style="fill:#ffccaa"
         transform="translate(-65.700485,-14.089057)"
         id="g986">
        <path
           id="path932"
           d="m 95.29763,225.94923 3.19998,-0.22291 0.34241,4.29929 -3.74628,0.16103 z"
           style="fill:#ffccaa;stroke:none;stroke-width:0.11090351px;stroke-linecap:butt;stroke-linejoin:miter;stroke-opacity:1" />
        <g
           style="fill:#ffccaa"
           id="g979">
          <path
             id="circle934"
             d="m 99.359561,230.65961 a 0.83370489,0.83370489 0 0 1 -0.833705,0.8337 0.83370489,0.83370489 0 0 1 -0.833705,-0.8337 0.83370489,0.83370489 0 0 1 0.833705,-0.83371 0.83370489,0.83370489 0 0 1 0.833705,0.83371 z"
             style="opacity:1;fill:#ffccaa;fill-opacity:1;stroke:none;stroke-width:1.60000002;stroke-linecap:butt;stroke-linejoin:round;stroke-miterlimit:4;stroke-dasharray:none;stroke-dashoffset:0;stroke-opacity:1;paint-order:markers stroke fill" />
          <path
             id="circle936"
             d="m 98.013331,230.67632 a 0.83370489,0.83370489 0 0 1 -0.833705,0.8337 0.83370489,0.83370489 0 0 1 -0.833704,-0.8337 0.83370489,0.83370489 0 0 1 0.833704,-0.83371 0.83370489,0.83370489 0 0 1 0.833705,0.83371 z"
             style="opacity:1;fill:#ffccaa;fill-opacity:1;stroke:none;stroke-width:1.60000002;stroke-linecap:butt;stroke-linejoin:round;stroke-miterlimit:4;stroke-dasharray:none;stroke-dashoffset:0;stroke-opacity:1;paint-order:markers stroke fill" />
          <path
             id="circle938"
             d="m 96.706973,230.67644 a 0.83370489,0.83370489 0 0 1 -0.833705,0.8337 0.83370489,0.83370489 0 0 1 -0.833705,-0.8337 0.83370489,0.83370489 0 0 1 0.833705,-0.83371 0.83370489,0.83370489 0 0 1 0.833705,0.83371 z"
             style="opacity:1;fill:#ffccaa;fill-opacity:1;stroke:none;stroke-width:1.60000002;stroke-linecap:butt;stroke-linejoin:round;stroke-miterlimit:4;stroke-dasharray:none;stroke-dashoffset:0;stroke-opacity:1;paint-order:markers stroke fill" />
        </g>
      </g>
      <path
         id="rect862"
         d="M 46.604078,165.642 H 65.80567 c 4.74019,0 8.556299,3.81611 8.556299,8.5563 v 35.27142 c 0,4.74019 -3.816109,8.5563 -8.556299,8.5563 H 46.604078 c -4.740189,0 -8.556299,-3.81611 -8.556299,-8.5563 V 174.1983 c 0,-4.74019 3.81611,-8.5563 8.556299,-8.5563 z"
         style="opacity:1;fill:#ff7f2a;fill-opacity:1;stroke:none;stroke-width:1.39575994;stroke-linecap:butt;stroke-linejoin:round;stroke-miterlimit:4;stroke-dasharray:none;stroke-dashoffset:0;stroke-opacity:1;paint-order:markers stroke fill" />
      <path
         id="path919"
         d="m 55.801457,169.11932 8.38617,-8.23095 4.28747,4.74765 -8.78481,9.51682 z"
         style="fill:#1a1a1a;stroke:none;stroke-width:0.26458332px;stroke-linecap:butt;stroke-linejoin:miter;stroke-opacity:1" />
      <path
         id="path921"
         d="m 46.225187,159.81725 -3.42543,6.81294 8.90443,9.0085 4.09727,-6.51937 z"
         style="fill:#1a1a1a;stroke:none;stroke-width:0.26458332px;stroke-linecap:butt;stroke-linejoin:miter;stroke-opacity:1" />
      <path
         id="path892"
         d="m 46.225187,159.81725 18.4375,-0.11744 0.11744,4.22771 -18.78981,0.46974 z"
         style="fill:#ff6600;stroke:none;stroke-width:0.26458332px;stroke-linecap:butt;stroke-linejoin:miter;stroke-opacity:1" />
      <g
         style="fill:#ffccaa"
         transform="translate(-65.049433,-12.171169)"
         id="g1752">
        <path
           style="fill:#ffccaa;stroke:none;stroke-width:0.14957768px;stroke-linecap:butt;stroke-linejoin:miter;stroke-opacity:1"
           d="m 115.79889,163.68427 8.00149,-0.67672 4.83306,14.81624 c -5.07229,-0.0843 -10.51214,0.0843 -16.80779,0 z"
           id="path841" />
      </g>
      <path
         id="path890"
         d="m 55.801457,169.05246 8.86123,-9.35265 4.42298,5.07124 -9.73012,9.14636 z"
         style="fill:#ff7f2a;fill-opacity:1;stroke:none;stroke-width:0.28846669px;stroke-linecap:butt;stroke-linejoin:miter;stroke-opacity:1" />
      <path
         id="path888"
         d="m 46.225187,159.81725 -4.13606,5.38487 10.16009,8.8369 3.55224,-4.9197 z"
         style="fill:#ff7f2a;fill-opacity:1;stroke:none;stroke-width:0.26458332px;stroke-linecap:butt;stroke-linejoin:miter;stroke-opacity:1" />
      <path
         id="path898"
         d="m 55.801457,169.11932 -3.55224,4.9197 3.3959,4.19694 3.71043,-4.31855 z"
         style="fill:#00222b;stroke:none;stroke-width:0.18661645px;stroke-linecap:butt;stroke-linejoin:miter;stroke-opacity:1" />
      <path
         id="path900"
         d="m 54.239197,176.29695 -2.94126,5.66168 3.85365,22.42257 5.205,-22.80031 -3.16207,-5.67465 -1.5494,2.32972 z"
         style="fill:#f9f9f9;fill-opacity:1;stroke:none;stroke-width:0.26458332px;stroke-linecap:butt;stroke-linejoin:miter;stroke-opacity:1" />
      <g
         style="fill:#ffccaa"
         transform="matrix(0.12605463,1.1825169,0.99262897,-0.12767758,-138.12921,104.93834)"
         id="g998">
        <path
           style="fill:#ffccaa;stroke:none;stroke-width:0.11090351px;stroke-linecap:butt;stroke-linejoin:miter;stroke-opacity:1"
           d="m 95.29763,225.94923 3.19998,-0.22291 0.34241,4.29929 -3.74628,0.16103 z"
           id="path988" />
        <g
           style="fill:#ffccaa"
           id="g996">
          <path
             id="circle990"
             d="m 99.359561,230.65961 a 0.83370489,0.83370489 0 0 1 -0.833705,0.8337 0.83370489,0.83370489 0 0 1 -0.833705,-0.8337 0.83370489,0.83370489 0 0 1 0.833705,-0.83371 0.83370489,0.83370489 0 0 1 0.833705,0.83371 z"
             style="opacity:1;fill:#ffccaa;fill-opacity:1;stroke:none;stroke-width:1.60000002;stroke-linecap:butt;stroke-linejoin:round;stroke-miterlimit:4;stroke-dasharray:none;stroke-dashoffset:0;stroke-opacity:1;paint-order:markers stroke fill" />
          <path
             id="circle992"
             d="m 98.013331,230.67632 a 0.83370489,0.83370489 0 0 1 -0.833705,0.8337 0.83370489,0.83370489 0 0 1 -0.833704,-0.8337 0.83370489,0.83370489 0 0 1 0.833704,-0.83371 0.83370489,0.83370489 0 0 1 0.833705,0.83371 z"
             style="opacity:1;fill:#ffccaa;fill-opacity:1;stroke:none;stroke-width:1.60000002;stroke-linecap:butt;stroke-linejoin:round;stroke-miterlimit:4;stroke-dasharray:none;stroke-dashoffset:0;stroke-opacity:1;paint-order:markers stroke fill" />
          <path
             id="circle994"
             d="m 96.706973,230.67644 a 0.83370489,0.83370489 0 0 1 -0.833705,0.8337 0.83370489,0.83370489 0 0 1 -0.833705,-0.8337 0.83370489,0.83370489 0 0 1 0.833705,-0.83371 0.83370489,0.83370489 0 0 1 0.833705,0.83371 z"
             style="opacity:1;fill:#ffccaa;fill-opacity:1;stroke:none;stroke-width:1.60000002;stroke-linecap:butt;stroke-linejoin:round;stroke-miterlimit:4;stroke-dasharray:none;stroke-dashoffset:0;stroke-opacity:1;paint-order:markers stroke fill" />
        </g>
      </g>
      <path
         id="path1002"
         d="m 38.167097,211.88718 19.01705,6.02007 -8.11555,34.25771 -9.8828,0.57587 z"
         style="fill:#373e48;fill-opacity:1;stroke:none;stroke-width:0.18690312px;stroke-linecap:butt;stroke-linejoin:miter;stroke-opacity:1" />
      <path
         id="path1006"
         d="m 74.011657,212.29439 -16.82751,5.61286 4.37078,34.67951 7.64887,-0.60138 z"
         style="fill:#373e48;fill-opacity:1;stroke:none;stroke-width:0.31340101px;stroke-linecap:butt;stroke-linejoin:miter;stroke-opacity:1" />
      <path
         id="path1008"
         d="m 60.885977,250.82077 c 1.63588,-2.27299 7.91282,-1.13127 10.05644,-0.44548 2.14362,0.68579 2.86649,1.60045 2.86649,1.60045 0,0 0.938,0.78916 0.85273,2.14648 -0.0853,1.35733 -1.8646,1.22051 -1.8646,1.22051 l -12.28692,-0.0652 c 0,0 -1.26002,-2.18375 0.37586,-4.45674 z"
         style="fill:#000000;fill-opacity:1;stroke:#000000;stroke-width:0.19545493px;stroke-linecap:butt;stroke-linejoin:miter;stroke-opacity:1" />
      <path
         style="fill:#000000;fill-opacity:1;stroke:#000000;stroke-width:0.19690284px;stroke-linecap:butt;stroke-linejoin:miter;stroke-opacity:1"
         d="m 49.261237,250.41473 c -1.63588,-2.30679 -7.91282,-1.14809 -10.05644,-0.45211 -2.14362,0.69599 -2.86649,1.62425 -2.86649,1.62425 0,0 -0.938,0.80089 -0.85273,2.1784 0.0853,1.37752 1.8646,1.23867 1.8646,1.23867 l 12.22028,-0.0661 c 0,0 1.32666,-2.21622 -0.30922,-4.52301 z"
         id="path1012" />
      <g
         transform="matrix(0.86120647,0,0,0.97608024,-49.251651,-6.6963527)"
         id="g1780">
        <g
           id="g1771">
          <path
             id="path868"
             d="M 35.448346,33.018914 C 36.256178,26.979381 49.378462,22.294609 64.284045,22.337808 79.189627,22.381006 96.072951,27.151915 95.265904,33.19072 94.458857,39.229525 76.014242,46.552955 61.060362,46.510412 46.106483,46.467869 34.640514,39.058446 35.448346,33.018914 Z"
             style="fill:#f9f9f9;stroke:none;stroke-width:0.26458332px;stroke-linecap:butt;stroke-linejoin:miter;stroke-opacity:1"
             transform="matrix(0.20482096,0.00771324,-0.00805496,0.2437922,94.567523,128.54865)" />
        </g>
        <g
           id="g980">
          <path
             id="path872"
             d="m 107.07027,138.77937 a 1.9889131,2.1078036 0 0 1 -1.97767,2.10777 1.9889131,2.1078036 0 0 1 -2.00003,-2.08395 1.9889131,2.1078036 0 0 1 1.95508,-2.13132 1.9889131,2.1078036 0 0 1 2.02211,2.05987"
             style="opacity:1;fill:url(#linearGradient1549);fill-opacity:1;stroke:none;stroke-width:0.31363589;stroke-linecap:butt;stroke-linejoin:round;stroke-miterlimit:4;stroke-dasharray:none;stroke-dashoffset:0;stroke-opacity:1;paint-order:markers stroke fill"
             transform="matrix(0.99992541,-0.01221363,0.01575438,0.99987589,0,0)" />
          <g
             id="g973">
            <path
               id="path882"
               d="m 106.3004,138.66144 a 1.3997186,1.574663 0 0 1 -1.39181,1.57464 1.3997186,1.574663 0 0 1 -1.40754,-1.55685 1.3997186,1.574663 0 0 1 1.3759,-1.59223 1.3997186,1.574663 0 0 1 1.42309,1.53885"
               style="opacity:1;fill:#000000;fill-opacity:1;stroke:none;stroke-width:0.51647961;stroke-linecap:butt;stroke-linejoin:round;stroke-miterlimit:4;stroke-dasharray:none;stroke-dashoffset:0;stroke-opacity:1;paint-order:markers stroke fill"
               transform="matrix(0.99994946,-0.01005401,0.01913779,0.99981686,0,0)" />
            <path
               id="path905"
               d="m 108.29151,136.60039 a 0.20161209,0.21718414 0 0 1 -0.20047,0.21718 0.20161209,0.21718414 0 0 1 -0.20274,-0.21473 0.20161209,0.21718414 0 0 1 0.19818,-0.21961 0.20161209,0.21718414 0 0 1 0.20498,0.21225"
               style="opacity:1;fill:#e6e6e6;fill-opacity:1;stroke:none;stroke-width:0.89055508;stroke-linecap:butt;stroke-linejoin:round;stroke-miterlimit:4;stroke-dasharray:none;stroke-dashoffset:0;stroke-opacity:1;paint-order:markers stroke fill" />
          </g>
        </g>
      </g>
      <path
         id="path950"
         d="m 64.637165,147.75033 c -2.457981,4.67817 -4.915588,9.35564 -6.27699,13.81234 -1.361402,4.45671 -1.625287,8.68947 0.156381,8.31764 1.781668,-0.37182 5.538268,-5.25762 10.21346,-4.90802 4.675192,0.3496 9.932809,5.90894 10.542496,3.97278 0.609687,-1.93616 -3.526553,-11.47119 -5.594689,-16.20749 -2.068136,-4.7363 -2.068136,-4.67344 -2.068136,-4.61036"
         style="fill:#ff9955;stroke:none;stroke-width:0.26458332px;stroke-linecap:butt;stroke-linejoin:miter;stroke-opacity:1"
         transform="matrix(0.53319821,0,0,0.49065974,18.968594,55.56858)" />
      <path
         id="path946"
         d="m 64.637165,147.75033 c -2.638074,4.71085 -5.276132,9.42167 -6.644237,13.68808 -1.368106,4.26642 -1.465677,8.08673 0.37033,7.67241 1.836008,-0.41432 5.535922,-4.97855 10.212658,-4.48134 4.676737,0.49722 9.994043,6.01961 10.639465,4.1096 0.645422,-1.91001 -3.480121,-11.35512 -5.542908,-16.07771 -2.062786,-4.72259 -2.062786,-4.72259 -2.062786,-4.72259"
         style="fill:#ffb380;stroke:none;stroke-width:0.26458332px;stroke-linecap:butt;stroke-linejoin:miter;stroke-opacity:1"
         transform="matrix(0.52341199,0,0,0.51963154,19.696311,50.288073)" />
      <path
         id="path954"
         d="m 37.293486,94.282235 c 3.021909,-2.503137 8.512641,-5.005662 15.377292,-5.149465 6.864651,-0.143803 15.099038,2.071038 19.62898,4.303609 4.529941,2.232572 5.353936,4.482784 5.765974,5.608002 0.412039,1.125219 0.412039,1.125219 -2.825085,-0.303159 -3.237124,-1.428378 -9.566892,-4.221382 -15.203667,-5.517425 -5.636775,-1.296042 -10.503542,-1.062246 -14.853704,0.620469 -4.350161,1.682716 -8.179492,4.813913 -9.820018,5.128421 -1.640526,0.314508 -1.091682,-2.187315 1.930228,-4.690452 z"
         style="fill:#241c1c;stroke:none;stroke-width:0.26458332px;stroke-linecap:butt;stroke-linejoin:miter;stroke-opacity:1"
         transform="matrix(0.34319797,-0.00538033,0.00366147,0.42798445,23.465199,83.018186)" />
      <path
         id="path958"
         d="m 37.293486,94.282235 c 3.021909,-2.503137 8.512641,-5.005662 15.377292,-5.149465 6.864651,-0.143803 15.099038,2.071038 19.62898,4.303609 4.529941,2.232572 5.353936,4.482784 5.765974,5.608002 0.412039,1.125219 0.412039,1.125219 -2.825085,-0.303159 -3.237124,-1.428378 -9.566892,-4.221382 -15.203667,-5.517425 -5.636775,-1.296042 -10.503542,-1.062246 -14.853704,0.620469 -4.350161,1.682716 -8.179492,4.813913 -9.820018,5.128421 -1.640526,0.314508 -1.091682,-2.187315 1.930228,-4.690452 z"
         style="fill:#241c1c;stroke:none;stroke-width:0.26458332px;stroke-linecap:butt;stroke-linejoin:miter;stroke-opacity:1"
         transform="matrix(0.32879769,-0.02272081,-0.00114951,0.43155961,49.152887,83.390665)" />
      <g
         transform="matrix(0.9449381,0.01212509,-0.01769102,0.90627824,-56.053641,0.049236)"
         id="g929">
        <path
           id="path1044"
           d="m 69.902365,138.51322 c 0,0 0,0 0,0 m 4.977544,-1.46058 c 1.586196,3.2535 3.172025,6.50625 4.416705,9.26365 1.24468,2.7574 2.147418,5.01779 2.241165,6.6723 0.09375,1.6545 -0.599577,2.66979 -1.488001,1.70125 -0.888425,-0.96854 -1.863072,-3.80268 -2.975378,-5.99095 -1.112305,-2.18827 -2.330128,-3.63812 -3.702959,-4.60374 -1.372831,-0.96561 -2.900075,-1.44673 -4.360804,-1.05596 -1.460729,0.39076 -2.853896,1.65322 -4.392576,3.69018 -1.53868,2.03696 -3.220144,4.84504 -4.061781,6.25059 -0.841638,1.40555 -0.841638,1.40555 -1.342039,1.34995 -0.500401,-0.0556 -1.500976,-0.16677 -2.001493,-0.22239 -0.500518,-0.0556 -0.500523,-0.0556 -0.500523,-0.0556 0,0 8.399322,-16.76624 8.399322,-16.76624"
           style="fill:#241c1c;stroke:none;stroke-width:0.26458332px;stroke-linecap:butt;stroke-linejoin:miter;stroke-opacity:1"
           transform="matrix(1.1859487,5.7067022e-4,2.8903645e-4,0.44468148,37.760531,92.718156)" />
      </g>
      <path
         id="path860"
         d="m 71.133067,139.01257 c -2.636118,-1.46192 -5.04072,3.76532 -4.653473,7.81405 0.387246,4.04873 3.566509,6.91723 6.202949,8.37911 2.63644,1.46189 4.729274,1.51674 4.341737,-2.5316 -0.387537,-4.04835 -3.255094,-12.19964 -5.891213,-13.66156 z"
         style="fill:#ffccaa;stroke:none;stroke-width:0.26458332px;stroke-linecap:butt;stroke-linejoin:miter;stroke-opacity:1"
         transform="matrix(-0.63764729,-0.30721278,0.33868986,-0.64960658,76.481237,241.46679)" />
      <g
         style="fill:#ffb380"
         transform="matrix(1.0093603,0.16504814,-0.16890955,0.98628551,-49.887168,-34.638261)"
         id="g960">
        <path
           id="path864"
           d="m 74.457896,135.90987 c -0.3968,1.10065 -0.740502,3.19852 0.124021,4.80774 0.864523,1.60922 2.936295,2.72783 3.904896,2.97239 0.968601,0.24456 0.833693,-0.38501 0.235961,-1.04522 -0.597733,-0.66021 -1.721809,-1.39266 -2.324475,-2.25054 -0.602666,-0.85787 -0.715517,-1.86165 -0.741317,-2.85116 -0.0258,-0.98952 0.0356,-1.96333 -0.158454,-2.39935 -0.194057,-0.43603 -0.643833,-0.33451 -1.040632,0.76614 z"
           style="fill:#ffb380;stroke:none;stroke-width:0.26458332px;stroke-linecap:butt;stroke-linejoin:miter;stroke-opacity:1"
           transform="rotate(-157.39878,113.69529,129.92592)" />
      </g>
      <path
         id="path856"
         d="m 71.133067,139.01257 c -2.636118,-1.46192 -5.04072,3.76532 -4.653473,7.81405 0.387246,4.04873 3.566509,6.91723 6.202949,8.37911 2.63644,1.46189 4.729274,1.51674 4.341737,-2.5316 -0.387537,-4.04835 -3.255094,-12.19964 -5.891213,-13.66156 z"
         style="fill:#ffccaa;stroke:none;stroke-width:0.26458332px;stroke-linecap:butt;stroke-linejoin:miter;stroke-opacity:1"
         transform="matrix(0.6862482,0.10797929,-0.12274631,0.71864321,-1.5798107,11.143366)" />
      <g
         style="fill:#ffb380"
         transform="rotate(-6.7947417,-46.517377,633.82679)"
         id="g951">
        <g
           style="fill:#ffb380"
           id="g947">
          <path
             id="path869"
             d="m 75.246051,135.6674 c -0.477323,1.08561 -1.117064,3.39174 -0.419996,5.07842 0.697067,1.68668 2.730588,2.75251 3.703963,2.83217 0.973375,0.0797 0.886432,-0.82681 0.416391,-1.26191 -0.470042,-0.43511 -1.323333,-0.3991 -1.869757,-1.07523 -0.546424,-0.67612 -0.785627,-2.06433 -0.855019,-3.24769 -0.06939,-1.18336 0.0309,-2.16274 -0.07624,-2.71959 -0.107141,-0.55684 -0.422019,-0.69179 -0.899342,0.39383 z"
             style="fill:#ffb380;stroke:none;stroke-width:0.26458332px;stroke-linecap:butt;stroke-linejoin:miter;stroke-opacity:1"
             transform="rotate(13.895487,92.176135,189.68554)" />
        </g>
      </g>
      <path
         id="path866"
         d="m 29.607243,108.6394 c -0.80559,4.13675 -0.96203,8.59797 -0.96203,8.59797 3.71849,-4.90181 5.03717,-6.51443 12.075674,-7.81314 5.73792,0 10.61377,2.29025 14.51557,8.13441 3.97828,-6.08768 7.64791,-8.38102 14.3804,-8.87965 6.38362,0.26677 7.95671,2.98651 12.17879,6.93494 -0.0261,-2.97045 -0.0103,-6.1401 -0.97715,-8.6675 -1.12141,-2.01056 -2.23187,-5.29823 -6.0214,-7.255369 m 0,0 c -1.38017,-0.2392 -3.73511,-0.0596 -4.9276,0.746669 -0.88135,-0.656919 -1.29346,-2.110399 -2.69097,-2.916669 -3.37541,-2.95673 -6.10177,-3.4218 -11.53661,-3.82293 -6.55651,-8e-4 -9.99334,-0.2707 -16.40553,3.73873 -3.60591,2.52984 -6.536964,3.887659 -9.629144,11.202539"
         style="fill:#241f1c;stroke:none;stroke-width:0.14657316px;stroke-linecap:butt;stroke-linejoin:miter;stroke-opacity:1" />
      <path
         id="path1000"
         d="m 40.140767,106.45761 8.5368,-5.50774 7.15495,5.62015 8.35369,-6.09895 7.30789,5.81576 -8.06648,-2.33419 -7.5951,7.14853 -6.84069,-6.37193 z"
         style="fill:#333333;stroke:none;stroke-width:0.22211339px;stroke-linecap:butt;stroke-linejoin:miter;stroke-opacity:1" />
      <path
         id="path1038"
         d="m 55.120077,155.92291 c 11.00694,-2.7441 17.08436,-11.32311 19.18816,-16.24643 1.89491,-3.85233 3.11097,-9.06556 3.11097,-9.06556 l -2.94557,4.58578 c -2.88691,4.98026 -0.725,1.11742 -4.67828,7.37887 -5.55697,6.31053 -7.6296,7.45453 -14.57869,9.81901 -6.07477,-1.38442 -13.37445,-6.44366 -15.79283,-10.18547 -2.41838,-3.74181 -6.19538,-10.20807 -6.19538,-10.20807 0,0 -0.646502,4.3986 3.31976,10.86266 3.96626,6.46406 9.38337,9.75886 18.57186,13.05921"
         style="fill:#241c1c;stroke:none;stroke-width:0.37956023px;stroke-linecap:butt;stroke-linejoin:miter;stroke-opacity:1" />
      <g
         transform="matrix(0.8883776,0,0,0.93064088,-50.961133,-0.316468)"
         id="g1764">
        <path
           id="path967"
           d="M 35.578226,32.305529 C 36.312953,26.210007 49.488681,20.754886 63.865409,21.351585 78.242137,21.948285 93.99987,28.606814 93.266165,34.702013 92.532461,40.797212 75.356147,46.351231 60.933275,45.75154 46.510402,45.151849 34.8435,38.40105 35.578226,32.305529 Z"
           style="fill:#ffffff;fill-opacity:1;stroke:none;stroke-width:0.26458332px;stroke-linecap:butt;stroke-linejoin:miter;stroke-opacity:1"
           transform="matrix(-0.2037092,0.02266453,0.02585404,0.24255121,145.79651,127.5349)" />
        <g
           id="g990"
           transform="matrix(-1,0,0,1,240.06922,-0.20861689)">
          <path
             id="path982"
             d="m 107.07027,138.77937 a 1.9889131,2.1078036 0 0 1 -1.97767,2.10777 1.9889131,2.1078036 0 0 1 -2.00003,-2.08395 1.9889131,2.1078036 0 0 1 1.95508,-2.13132 1.9889131,2.1078036 0 0 1 2.02211,2.05987"
             style="opacity:1;fill:url(#linearGradient880);fill-opacity:1;stroke:none;stroke-width:0.31363589;stroke-linecap:butt;stroke-linejoin:round;stroke-miterlimit:4;stroke-dasharray:none;stroke-dashoffset:0;stroke-opacity:1;paint-order:markers stroke fill"
             transform="matrix(0.99992541,-0.01221363,0.01575438,0.99987589,0,0)" />
          <g
             id="g988">
            <path
               id="path984"
               d="m 106.3004,138.66144 a 1.3997186,1.574663 0 0 1 -1.39181,1.57464 1.3997186,1.574663 0 0 1 -1.40754,-1.55685 1.3997186,1.574663 0 0 1 1.3759,-1.59223 1.3997186,1.574663 0 0 1 1.42309,1.53885"
               style="opacity:1;fill:#000000;fill-opacity:1;stroke:none;stroke-width:0.51647961;stroke-linecap:butt;stroke-linejoin:round;stroke-miterlimit:4;stroke-dasharray:none;stroke-dashoffset:0;stroke-opacity:1;paint-order:markers stroke fill"
               transform="matrix(0.99994946,-0.01005401,0.01913779,0.99981686,0,0)" />
            <path
               id="path986"
               d="m 108.29151,136.60039 a 0.20161209,0.21718414 0 0 1 -0.20047,0.21718 0.20161209,0.21718414 0 0 1 -0.20274,-0.21473 0.20161209,0.21718414 0 0 1 0.19818,-0.21961 0.20161209,0.21718414 0 0 1 0.20498,0.21225"
               style="opacity:1;fill:#e6e6e6;fill-opacity:1;stroke:none;stroke-width:0.89055508;stroke-linecap:butt;stroke-linejoin:round;stroke-miterlimit:4;stroke-dasharray:none;stroke-dashoffset:0;stroke-opacity:1;paint-order:markers stroke fill" />
          </g>
        </g>
      </g>
      <path
         id="path933"
         d="m 48.191047,144.99744 6.76405,-0.52916 0.71322,0.18406 0.39112,0.46014 0.20706,0.3451 -1.15035,0.27609 -7.2472,0.11503 z"
         style="fill:none;stroke:#000000;stroke-width:0;stroke-linecap:butt;stroke-linejoin:miter;stroke-miterlimit:4;stroke-dasharray:none;stroke-opacity:1" />
      <path
         id="path963"
         d="m 49.576347,146.08351 c 0.19468,-0.083 3.40483,0.23809 5.33759,0.17933 1.93276,-0.0588 5.20876,-0.42771 5.87481,-0.81538 0.66605,-0.38769 -0.32721,1.32132 -1.08315,1.9599 -0.75594,0.63859 -2.45862,1.804 -4.78665,1.93777 -2.32803,0.13376 -4.77016,-0.77457 -5.27198,-2.18716 -0.50182,-1.41258 -0.0706,-1.07446 -0.0706,-1.07446 z"
         style="fill:#a02c2c;fill-opacity:1;stroke:none;stroke-width:0.2938242px;stroke-linecap:butt;stroke-linejoin:miter;stroke-opacity:1" />
      <path
         id="rect4609"
         d="m 67.318007,201.43668 h 18.697387 c 0.507303,0 0.915709,0.4084 0.915709,0.91571 v 2.95999 c 0,0.5073 -0.408406,0.91571 -0.915709,0.91571 H 67.318007 c -0.507303,0 -0.915709,-0.40841 -0.915709,-0.91571 v -2.95999 c 0,-0.50731 0.408406,-0.91571 0.915709,-0.91571 z"
         style="fill:#373e48;fill-opacity:1;stroke:none;stroke-width:0.1902782"
         transform="matrix(0.98925158,-0.1462235,0.06527184,0.99786752,0,0)" />
    </g>
  </g>
  <g
     id="flowRoot1025"
     style="font-style:normal;font-weight:normal;font-size:40px;line-height:1.25;font-family:sans-serif;letter-spacing:0px;word-spacing:0px;fill:#ffffff;fill-opacity:1;stroke:none"
     transform="matrix(0.81613464,0,0,0.86501382,-3168.0144,-777.87317)"
     aria-label="Install Steam
in 
Ubuntu 19.04">
    <path
       id="path1037"
       style="font-style:normal;font-variant:normal;font-weight:bold;font-stretch:normal;font-size:48px;font-family:'EB Garamond';-inkscape-font-specification:'EB Garamond Bold';text-align:center;text-anchor:middle;fill:#ffffff"
       d="m 4087.7856,1012.4292 q -0.384,0 -0.672,-0.192 -0.288,-0.192 -0.288,-0.48 0,-0.816 1.008,-1.008 1.872,-0.432 2.544,-1.008 0.72,-0.624 0.72,-2.112 v -21.79203 q 0,-1.584 -0.624,-2.208 -0.624,-0.624 -2.544,-1.056 -1.008,-0.24 -1.008,-1.008 0,-0.336 0.288,-0.528 0.288,-0.192 0.672,-0.192 1.728,0 3.6,0.144 2.4,0.096 3.312,0.096 0.816,0 3.312,-0.096 2.592,-0.096 3.696,-0.096 0.912,0 0.912,0.672 0,0.432 -0.24,0.672 -0.24,0.192 -0.816,0.336 -1.92,0.528 -2.544,1.2 -0.624,0.624 -0.624,2.112 v 21.69603 q 0,1.392 0.672,2.016 0.672,0.624 2.592,1.152 0.528,0.144 0.768,0.336 0.24,0.192 0.24,0.624 0,0.72 -0.864,0.72 -1.728,0 -3.696,-0.144 -2.496,-0.096 -3.408,-0.096 -0.96,0 -3.36,0.096 -1.872,0.144 -3.648,0.144 z" />
    <path
       id="path1039"
       style="font-style:normal;font-variant:normal;font-weight:bold;font-stretch:normal;font-size:48px;font-family:'EB Garamond';-inkscape-font-specification:'EB Garamond Bold';text-align:center;text-anchor:middle;fill:#ffffff"
       d="m 4105.4631,1012.4292 q -0.336,0 -0.672,-0.192 -0.288,-0.192 -0.288,-0.48 0,-0.576 1.104,-0.96 0.96,-0.288 1.392,-0.624 0.432,-0.336 0.432,-1.2 v -10.99203 q 0,-2.4 -1.488,-2.688 -0.528,-0.096 -0.528,-0.864 0,-0.672 0.48,-0.816 1.68,-0.384 3.648,-1.056 1.968,-0.672 3.264,-1.344 0.624,-0.384 0.864,-0.384 0.432,0 0.432,0.576 l -0.096,0.96 q -0.144,1.728 -0.144,1.776 0,0.624 0.096,0.72 1.776,-1.68 3.408,-2.496 1.68,-0.816 3.792,-0.816 2.592,0 4.224,1.872 1.68,1.872 1.68,4.992 v 10.56003 q 0,0.864 0.432,1.2 0.432,0.336 1.392,0.624 0.96,0.336 0.96,0.96 0,0.288 -0.24,0.48 -0.24,0.192 -0.576,0.192 -1.44,0 -2.736,-0.144 -1.536,-0.096 -2.352,-0.096 -0.816,0 -2.352,0.096 -1.2,0.144 -2.688,0.144 -0.336,0 -0.576,-0.192 -0.24,-0.192 -0.24,-0.48 0,-0.624 0.96,-0.96 0.912,-0.288 1.296,-0.624 0.384,-0.336 0.384,-1.2 v -9.55203 q 0,-1.824 -0.816,-2.832 -0.816,-1.056 -2.256,-1.104 -1.008,0 -1.824,0.336 -0.816,0.288 -1.728,0.912 -0.384,0.336 -0.384,0.912 v 11.32803 q 0,0.864 0.384,1.2 0.384,0.288 1.344,0.624 0.96,0.336 0.96,0.96 0,0.288 -0.24,0.48 -0.24,0.192 -0.576,0.192 -1.44,0 -2.592,-0.144 -1.536,-0.096 -2.304,-0.096 -0.816,0 -2.448,0.096 -1.296,0.144 -2.784,0.144 z" />
    <path
       id="path1041"
       style="font-style:normal;font-variant:normal;font-weight:bold;font-stretch:normal;font-size:48px;font-family:'EB Garamond';-inkscape-font-specification:'EB Garamond Bold';text-align:center;text-anchor:middle;fill:#ffffff"
       d="m 4138.6026,1012.9572 q -3.456,0 -5.76,-1.632 -0.432,-0.672 -0.624,-2.16 -0.192,-1.536 -0.144,-3.312 0,-0.576 0.96,-0.576 0.336,0 0.624,0.24 0.288,0.192 0.384,0.48 1.008,2.304 2.208,3.6 1.2,1.248 2.784,1.248 1.2,0 1.92,-0.768 0.72,-0.768 0.72,-1.824 0,-1.152 -0.864,-1.968 -0.864,-0.816 -2.496,-1.68 -2.544,-1.296 -4.032,-2.88 -1.44,-1.584 -1.44,-3.98403 0,-2.784 2.208,-4.512 2.208,-1.728 5.52,-1.728 1.44,0 2.784,0.336 1.392,0.336 1.968,0.72 0.384,0.48 0.624,1.824 0.24,1.296 0.24,2.88 0,0.24 -0.288,0.384 -0.24,0.144 -0.576,0.144 -0.336,0 -0.72,-0.24 -0.336,-0.24 -0.432,-0.48 -0.624,-1.872 -1.632,-2.784 -0.96,-0.96 -2.16,-0.96 -1.104,0 -1.968,0.72 -0.816,0.672 -0.816,1.776 0,0.912 0.816,1.728 0.864,0.768 2.448,1.632 3.264,1.72803 4.512,3.21603 1.296,1.488 1.296,3.936 0,3.168 -2.112,4.896 -2.064,1.728 -5.952,1.728 z" />
    <path
       id="path1043"
       style="font-style:normal;font-variant:normal;font-weight:bold;font-stretch:normal;font-size:48px;font-family:'EB Garamond';-inkscape-font-specification:'EB Garamond Bold';text-align:center;text-anchor:middle;fill:#ffffff"
       d="m 4158.4446,1012.9572 q -3.12,0 -4.752,-1.584 -1.584,-1.584 -1.584,-4.56 v -11.04003 q 0,-0.432 -0.336,-0.624 -0.336,-0.192 -1.152,-0.24 h -0.624 q -0.288,0 -0.528,-0.528 -0.24,-0.528 -0.24,-1.008 0,-0.336 0.288,-0.48 2.4,-0.864 7.008,-4.896 0.096,-0.096 0.336,-0.24 0.24,-0.192 0.432,-0.288 0.192,-0.096 0.432,-0.096 0.48,0 0.624,0.192 0.144,0.192 0.096,0.768 l -0.288,2.832 v 0.192 q 0,0.816 1.152,0.816 h 5.712 q 0.144,0 0.288,0.336 0.144,0.336 0.144,0.624 0,0.72 -0.192,1.344 -0.192,0.576 -0.432,0.576 h -4.464 q -1.104,0 -1.536,0.288 -0.384,0.24 -0.384,0.912 v 9.07203 q 0,2.16 0.816,3.264 0.816,1.104 2.256,1.104 1.104,0 1.68,-0.144 0.624,-0.192 1.008,-0.384 0.432,-0.192 0.528,-0.24 0.192,-0.096 0.288,-0.096 0.24,0 0.384,0.288 0.144,0.24 0.144,0.672 0,0.336 -1.104,1.152 -1.056,0.768 -2.688,1.392 -1.632,0.624 -3.312,0.624 z" />
    <path
       id="path1045"
       style="font-style:normal;font-variant:normal;font-weight:bold;font-stretch:normal;font-size:48px;font-family:'EB Garamond';-inkscape-font-specification:'EB Garamond Bold';text-align:center;text-anchor:middle;fill:#ffffff"
       d="m 4172.1246,1012.9572 q -1.92,0 -3.36,-1.296 -1.44,-1.344 -1.44,-3.168 0,-1.632 0.96,-2.688 1.008,-1.104 3.12,-2.016 l 4.272,-1.872 q 0.96,-0.432 1.152,-0.768 0.24,-0.336 0.24,-1.24803 l 0.048,-2.736 q 0.048,-1.392 -0.48,-2.16 -0.528,-0.768 -1.584,-0.768 -0.576,0 -1.248,0.288 -0.624,0.24 -0.96,0.576 -0.288,0.336 -0.288,1.008 0,0.336 0.048,0.72 0.048,0.336 0.048,0.672 0,0.48 -1.632,1.2 -1.584,0.72 -2.64,0.72 -0.384,0 -0.624,-0.288 -0.24,-0.288 -0.24,-0.72 0,-0.768 0.528,-1.488 0.528,-0.72 1.728,-1.728 1.872,-1.536 4.224,-2.592 2.352,-1.056 3.936,-1.056 2.544,0 4.08,1.68 1.536,1.632 1.488,4.368 l -0.24,9.69603 q -0.048,1.104 0.384,1.872 0.432,0.768 1.056,0.768 0.912,0 1.584,-0.624 0.144,-0.144 0.288,-0.144 0.24,0 0.384,0.192 0.192,0.144 0.192,0.336 0,0.624 -0.864,1.488 -1.776,1.776 -4.032,1.776 -1.392,0 -2.448,-0.672 -1.056,-0.624 -2.016,-2.064 h -0.096 q -1.584,1.488 -2.88,2.112 -1.248,0.624 -2.688,0.624 z m 2.88,-3.12 q 0.912,0 1.536,-0.72 0.336,-0.528 0.336,-1.248 l 0.144,-3.456 q 0,-0.768 -0.48,-0.768 -0.24,0 -0.576,0.192 -1.536,0.72 -2.16,1.44 -0.576,0.72 -0.576,2.16 0,1.248 0.528,1.824 0.528,0.576 1.248,0.576 z" />
    <path
       id="path1047"
       style="font-style:normal;font-variant:normal;font-weight:bold;font-stretch:normal;font-size:48px;font-family:'EB Garamond';-inkscape-font-specification:'EB Garamond Bold';text-align:center;text-anchor:middle;fill:#ffffff"
       d="m 4188.6606,1012.4292 q -0.432,0 -0.72,-0.144 -0.24,-0.192 -0.24,-0.528 0,-0.672 1.104,-0.96 1.056,-0.384 1.44,-0.672 0.384,-0.288 0.384,-1.152 v -23.08803 q 0,-1.44 -0.432,-2.304 -0.384,-0.912 -1.488,-1.152 -0.48,-0.096 -0.48,-0.72 0,-0.624 0.432,-0.72 1.296,-0.24 3.12,-0.864 1.872,-0.624 3.312,-1.152 l 1.008,-0.384 q 0.336,-0.144 0.624,-0.144 0.48,0 0.48,0.576 0,0.384 -0.144,1.392 -0.096,1.008 -0.144,1.92 v 26.54403 q 0,0.816 0.336,1.152 0.384,0.288 0.864,0.48 0.48,0.144 0.624,0.192 0.576,0.192 0.816,0.432 0.288,0.192 0.288,0.528 0,0.336 -0.288,0.528 -0.24,0.144 -0.672,0.144 -1.008,0 -2.736,-0.096 l -2.496,-0.048 q -0.768,0 -2.304,0.096 -1.296,0.144 -2.688,0.144 z" />
    <path
       id="path1049"
       style="font-style:normal;font-variant:normal;font-weight:bold;font-stretch:normal;font-size:48px;font-family:'EB Garamond';-inkscape-font-specification:'EB Garamond Bold';text-align:center;text-anchor:middle;fill:#ffffff"
       d="m 4202.3481,1012.4292 q -0.432,0 -0.72,-0.144 -0.24,-0.192 -0.24,-0.528 0,-0.672 1.104,-0.96 1.056,-0.384 1.44,-0.672 0.384,-0.288 0.384,-1.152 v -23.08803 q 0,-1.44 -0.432,-2.304 -0.384,-0.912 -1.488,-1.152 -0.48,-0.096 -0.48,-0.72 0,-0.624 0.432,-0.72 1.296,-0.24 3.12,-0.864 1.872,-0.624 3.312,-1.152 l 1.008,-0.384 q 0.336,-0.144 0.624,-0.144 0.48,0 0.48,0.576 0,0.384 -0.144,1.392 -0.096,1.008 -0.144,1.92 v 26.54403 q 0,0.816 0.336,1.152 0.384,0.288 0.864,0.48 0.48,0.144 0.624,0.192 0.576,0.192 0.816,0.432 0.288,0.192 0.288,0.528 0,0.336 -0.288,0.528 -0.24,0.144 -0.672,0.144 -1.008,0 -2.736,-0.096 l -2.496,-0.048 q -0.768,0 -2.304,0.096 -1.296,0.144 -2.688,0.144 z" />
    <path
       id="path1051"
       style="font-style:normal;font-variant:normal;font-weight:bold;font-stretch:normal;font-size:48px;font-family:'EB Garamond';-inkscape-font-specification:'EB Garamond Bold';text-align:center;text-anchor:middle;fill:#ffffff"
       d="m 4236.1634,1012.9572 q -4.368,0 -7.584,-2.016 -0.768,-0.48 -1.008,-1.152 -0.432,-1.248 -0.672,-3.12 -0.192,-1.872 -0.096,-3.84 0,-0.624 0.96,-0.624 0.432,0 0.624,0.144 0.192,0.096 0.384,0.432 1.056,3.696 3.168,5.856 2.112,2.16 4.848,2.16 2.112,0 3.312,-1.392 1.248,-1.44 1.248,-3.264 0,-1.488 -0.576,-2.496 -0.576,-1.056 -1.68,-1.872 -1.104,-0.864 -3.216,-2.01603 -2.736,-1.536 -4.32,-2.688 -1.584,-1.152 -2.736,-2.976 -1.104,-1.824 -1.104,-4.416 0,-2.736 1.44,-4.848 1.488,-2.112 4.032,-3.264 2.544,-1.152 5.712,-1.152 1.68,0 3.312,0.336 1.68,0.336 2.832,0.816 0.576,0.24 0.816,0.528 0.288,0.288 0.48,1.008 0.576,2.304 0.576,5.616 0,0.24 -0.24,0.432 -0.24,0.192 -0.624,0.192 -0.432,0 -0.816,-0.192 -0.336,-0.24 -0.432,-0.576 -0.816,-2.88 -2.4,-4.368 -1.584,-1.488 -3.888,-1.488 -4.464,0 -4.464,4.32 0,1.536 1.536,2.928 1.536,1.392 4.944,3.36 3.888,2.352 5.472,4.56 1.584,2.20803 1.584,5.42403 0,4.8 -3.072,7.248 -3.024,2.4 -8.352,2.4 z" />
    <path
       id="path1053"
       style="font-style:normal;font-variant:normal;font-weight:bold;font-stretch:normal;font-size:48px;font-family:'EB Garamond';-inkscape-font-specification:'EB Garamond Bold';text-align:center;text-anchor:middle;fill:#ffffff"
       d="m 4259.8821,1012.9572 q -3.12,0 -4.752,-1.584 -1.584,-1.584 -1.584,-4.56 v -11.04003 q 0,-0.432 -0.336,-0.624 -0.336,-0.192 -1.152,-0.24 h -0.624 q -0.288,0 -0.528,-0.528 -0.24,-0.528 -0.24,-1.008 0,-0.336 0.288,-0.48 2.4,-0.864 7.008,-4.896 0.096,-0.096 0.336,-0.24 0.24,-0.192 0.432,-0.288 0.192,-0.096 0.432,-0.096 0.48,0 0.624,0.192 0.144,0.192 0.096,0.768 l -0.288,2.832 v 0.192 q 0,0.816 1.152,0.816 h 5.712 q 0.144,0 0.288,0.336 0.144,0.336 0.144,0.624 0,0.72 -0.192,1.344 -0.192,0.576 -0.432,0.576 h -4.464 q -1.104,0 -1.536,0.288 -0.384,0.24 -0.384,0.912 v 9.07203 q 0,2.16 0.816,3.264 0.816,1.104 2.256,1.104 1.104,0 1.68,-0.144 0.624,-0.192 1.008,-0.384 0.432,-0.192 0.528,-0.24 0.192,-0.096 0.288,-0.096 0.24,0 0.384,0.288 0.144,0.24 0.144,0.672 0,0.336 -1.104,1.152 -1.056,0.768 -2.688,1.392 -1.632,0.624 -3.312,0.624 z" />
    <path
       id="path1055"
       style="font-style:normal;font-variant:normal;font-weight:bold;font-stretch:normal;font-size:48px;font-family:'EB Garamond';-inkscape-font-specification:'EB Garamond Bold';text-align:center;text-anchor:middle;fill:#ffffff"
       d="m 4277.4981,1012.9572 q -2.544,0 -4.608,-1.344 -2.064,-1.392 -3.264,-3.792 -1.152,-2.4 -1.152,-5.376 0,-2.97603 1.392,-5.47203 1.392,-2.496 3.792,-3.936 2.448,-1.488 5.28,-1.488 2.016,0 3.696,0.864 1.68,0.864 2.64,2.4 0.96,1.536 0.96,3.36 0,0.96 -0.384,1.392 -0.336,0.432 -1.104,0.432 h -9.6 q -0.672,0 -1.008,0.38403 -0.288,0.384 -0.288,1.296 0,2.784 1.776,4.704 1.776,1.872 4.464,1.872 1.344,0 2.496,-0.48 1.152,-0.528 2.4,-1.488 0.48,-0.384 0.672,-0.384 0.48,0 0.48,0.624 0,0.624 -0.384,1.44 -0.768,2.016 -3.024,3.504 -2.208,1.488 -5.232,1.488 z m 0.528,-14.97603 q 1.104,0 1.728,-0.048 0.624,-0.048 1.104,-0.192 0.24,-0.096 0.384,-0.48 0.144,-0.384 0.144,-0.864 0,-1.248 -0.912,-2.064 -0.864,-0.864 -2.16,-0.864 -1.488,0 -2.688,1.248 -1.2,1.2 -1.152,2.592 0,0.672 0.672,0.672 z" />
    <path
       id="path1057"
       style="font-style:normal;font-variant:normal;font-weight:bold;font-stretch:normal;font-size:48px;font-family:'EB Garamond';-inkscape-font-specification:'EB Garamond Bold';text-align:center;text-anchor:middle;fill:#ffffff"
       d="m 4293.6246,1012.9572 q -1.92,0 -3.36,-1.296 -1.44,-1.344 -1.44,-3.168 0,-1.632 0.96,-2.688 1.008,-1.104 3.12,-2.016 l 4.272,-1.872 q 0.96,-0.432 1.152,-0.768 0.24,-0.336 0.24,-1.24803 l 0.048,-2.736 q 0.048,-1.392 -0.48,-2.16 -0.528,-0.768 -1.584,-0.768 -0.576,0 -1.248,0.288 -0.624,0.24 -0.96,0.576 -0.288,0.336 -0.288,1.008 0,0.336 0.048,0.72 0.048,0.336 0.048,0.672 0,0.48 -1.632,1.2 -1.584,0.72 -2.64,0.72 -0.384,0 -0.624,-0.288 -0.24,-0.288 -0.24,-0.72 0,-0.768 0.528,-1.488 0.528,-0.72 1.728,-1.728 1.872,-1.536 4.224,-2.592 2.352,-1.056 3.936,-1.056 2.544,0 4.08,1.68 1.536,1.632 1.488,4.368 l -0.24,9.69603 q -0.048,1.104 0.384,1.872 0.432,0.768 1.056,0.768 0.912,0 1.584,-0.624 0.144,-0.144 0.288,-0.144 0.24,0 0.384,0.192 0.192,0.144 0.192,0.336 0,0.624 -0.864,1.488 -1.776,1.776 -4.032,1.776 -1.392,0 -2.448,-0.672 -1.056,-0.624 -2.016,-2.064 h -0.096 q -1.584,1.488 -2.88,2.112 -1.248,0.624 -2.688,0.624 z m 2.88,-3.12 q 0.912,0 1.536,-0.72 0.336,-0.528 0.336,-1.248 l 0.144,-3.456 q 0,-0.768 -0.48,-0.768 -0.24,0 -0.576,0.192 -1.536,0.72 -2.16,1.44 -0.576,0.72 -0.576,2.16 0,1.248 0.528,1.824 0.528,0.576 1.248,0.576 z" />
    <path
       id="path1059"
       style="font-style:normal;font-variant:normal;font-weight:bold;font-stretch:normal;font-size:48px;font-family:'EB Garamond';-inkscape-font-specification:'EB Garamond Bold';text-align:center;text-anchor:middle;fill:#ffffff"
       d="m 4310.4006,1012.4292 q -0.336,0 -0.672,-0.192 -0.288,-0.192 -0.288,-0.48 0,-0.576 1.104,-0.96 0.96,-0.288 1.392,-0.624 0.432,-0.336 0.432,-1.2 v -10.99203 q 0,-2.448 -1.488,-2.688 -0.528,-0.096 -0.528,-0.864 0,-0.672 0.48,-0.816 4.848,-1.2 7.2,-2.544 0.096,-0.048 0.24,-0.144 0.192,-0.096 0.336,-0.096 0.432,0 0.432,0.528 l -0.096,1.056 q -0.048,0.336 -0.096,0.816 -0.048,0.432 -0.048,1.008 0,0.48 0.096,0.576 h 0.096 q 1.584,-1.536 3.312,-2.4 1.776,-0.864 3.84,-0.864 1.44,0 2.688,1.056 1.296,1.008 1.92,2.64 h 0.192 q 3.072,-3.696 7.296,-3.696 2.304,0 3.792,1.872 1.536,1.872 1.536,4.992 v 10.56003 q 0,0.864 0.432,1.2 0.432,0.336 1.392,0.624 0.96,0.336 0.96,0.96 0,0.288 -0.24,0.48 -0.24,0.192 -0.576,0.192 -1.44,0 -2.736,-0.144 -1.536,-0.096 -2.352,-0.096 -0.816,0 -2.16,0.096 -1.056,0.144 -2.496,0.144 -0.336,0 -0.576,-0.192 -0.24,-0.192 -0.24,-0.48 0,-0.72 0.96,-0.96 0.672,-0.192 0.96,-0.48 0.336,-0.336 0.336,-1.056 v -9.84003 q 0,-1.728 -0.768,-2.784 -0.72,-1.104 -1.872,-1.152 -1.488,0 -2.832,1.152 -0.672,0.624 -0.672,2.016 v 10.32003 q 0,0.912 0.336,1.248 0.336,0.336 1.152,0.576 0.96,0.24 0.96,0.96 0,0.288 -0.24,0.48 -0.24,0.192 -0.576,0.192 -1.392,0 -2.544,-0.144 -1.44,-0.096 -2.208,-0.096 -0.816,0 -2.16,0.096 -1.056,0.144 -2.496,0.144 -0.288,0 -0.528,-0.192 -0.24,-0.192 -0.24,-0.48 0,-0.624 0.912,-0.96 0.72,-0.24 1.008,-0.528 0.336,-0.288 0.336,-1.008 v -9.84003 q 0,-1.776 -0.72,-2.784 -0.72,-1.056 -1.92,-1.104 -1.44,0 -2.88,1.056 -0.624,0.48 -0.624,1.872 v 10.51203 q 0,0.816 0.288,1.2 0.288,0.384 1.056,0.624 0.912,0.336 0.912,0.96 0,0.288 -0.24,0.48 -0.24,0.192 -0.528,0.192 -1.392,0 -2.496,-0.144 -1.44,-0.096 -2.208,-0.096 -0.816,0 -2.352,0.096 -1.2,0.144 -2.688,0.144 z" />
    <path
       id="path1061"
       style="font-style:normal;font-variant:normal;font-weight:bold;font-stretch:normal;font-size:48px;font-family:'EB Garamond';-inkscape-font-specification:'EB Garamond Bold';text-align:center;text-anchor:middle;fill:#ffffff"
       d="m 4197.7086,1072.4292 q -0.288,0 -0.528,-0.144 -0.24,-0.192 -0.24,-0.48 0,-0.72 0.864,-0.96 1.296,-0.288 1.776,-0.624 0.48,-0.384 0.48,-1.152 v -10.368 q 0,-1.584 -0.48,-2.304 -0.48,-0.72 -1.584,-0.864 -0.288,-0.048 -0.432,-0.288 -0.144,-0.24 -0.144,-0.576 0,-0.288 0.144,-0.528 0.192,-0.24 0.384,-0.288 2.16,-0.384 3.792,-1.056 1.68,-0.672 3.648,-1.632 0.672,-0.384 0.96,-0.384 0.288,0 0.432,0.192 0.192,0.144 0.192,0.384 l -0.192,1.776 q -0.432,3.648 -0.432,5.28 v 10.608 q 0,0.672 0.48,1.056 0.48,0.384 1.824,0.768 0.432,0.144 0.624,0.336 0.24,0.192 0.24,0.576 0,0.624 -0.72,0.624 -1.008,0 -2.928,-0.096 -1.92,-0.096 -2.736,-0.096 -0.816,0 -2.544,0.096 -1.44,0.144 -2.88,0.144 z m 5.28,-23.808 q -1.536,0 -2.64,-1.104 -1.104,-1.104 -1.104,-2.64 0,-1.632 1.104,-2.736 1.104,-1.104 2.64,-1.104 1.632,0 2.736,1.104 1.152,1.104 1.152,2.736 0,1.536 -1.152,2.64 -1.104,1.104 -2.736,1.104 z" />
    <path
       id="path1063"
       style="font-style:normal;font-variant:normal;font-weight:bold;font-stretch:normal;font-size:48px;font-family:'EB Garamond';-inkscape-font-specification:'EB Garamond Bold';text-align:center;text-anchor:middle;fill:#ffffff"
       d="m 4212.0569,1072.4292 q -0.336,0 -0.672,-0.192 -0.288,-0.192 -0.288,-0.48 0,-0.576 1.104,-0.96 0.96,-0.288 1.392,-0.624 0.432,-0.336 0.432,-1.2 v -10.992 q 0,-2.4 -1.488,-2.688 -0.528,-0.096 -0.528,-0.864 0,-0.672 0.48,-0.816 1.68,-0.384 3.648,-1.056 1.968,-0.672 3.264,-1.344 0.624,-0.384 0.864,-0.384 0.432,0 0.432,0.576 l -0.096,0.96 q -0.144,1.728 -0.144,1.776 0,0.624 0.096,0.72 1.776,-1.68 3.408,-2.496 1.68,-0.816 3.792,-0.816 2.592,0 4.224,1.872 1.68,1.872 1.68,4.992 v 10.56 q 0,0.864 0.432,1.2 0.432,0.336 1.392,0.624 0.96,0.336 0.96,0.96 0,0.288 -0.24,0.48 -0.24,0.192 -0.576,0.192 -1.44,0 -2.736,-0.144 -1.536,-0.096 -2.352,-0.096 -0.816,0 -2.352,0.096 -1.2,0.144 -2.688,0.144 -0.336,0 -0.576,-0.192 -0.24,-0.192 -0.24,-0.48 0,-0.624 0.96,-0.96 0.912,-0.288 1.296,-0.624 0.384,-0.336 0.384,-1.2 v -9.552 q 0,-1.824 -0.816,-2.832 -0.816,-1.056 -2.256,-1.104 -1.008,0 -1.824,0.336 -0.816,0.288 -1.728,0.912 -0.384,0.336 -0.384,0.912 v 11.328 q 0,0.864 0.384,1.2 0.384,0.288 1.344,0.624 0.96,0.336 0.96,0.96 0,0.288 -0.24,0.48 -0.24,0.192 -0.576,0.192 -1.44,0 -2.592,-0.144 -1.536,-0.096 -2.304,-0.096 -0.816,0 -2.448,0.096 -1.296,0.144 -2.784,0.144 z" />
    <path
       id="path1065"
       style="font-style:normal;font-variant:normal;font-weight:bold;font-stretch:normal;font-size:48px;font-family:'EB Garamond';-inkscape-font-specification:'EB Garamond Bold';text-align:center;text-anchor:middle;fill:#ffffff"
       d="m 4092.571,1132.9572 q -6.624,0 -10.128,-3.456 -3.456,-3.456 -3.456,-9.36 v -13.68 q 0,-1.392 -0.672,-2.448 -0.624,-1.056 -1.776,-1.392 -1.344,-0.384 -1.344,-1.056 0,-0.336 0.336,-0.528 0.384,-0.192 0.912,-0.192 1.632,0 3.216,0.144 2.112,0.096 3.024,0.096 0.864,0 3.264,-0.096 2.304,-0.096 3.216,-0.096 1.296,0 1.296,0.72 0,0.336 -0.384,0.576 -0.336,0.192 -0.912,0.432 -0.576,0.192 -0.96,0.384 -0.816,0.336 -1.296,1.248 -0.48,0.912 -0.48,2.448 v 12.576 q 0,4.704 2.16,7.104 2.208,2.4 5.616,2.4 4.368,0 6.48,-2.592 2.16,-2.64 2.16,-7.92 l 0.048,-6.048 q 0,-2.16 -0.048,-3.12 -0.048,-3.12 -0.624,-4.368 -0.528,-1.248 -1.92,-1.968 -0.288,-0.144 -0.816,-0.288 -0.528,-0.192 -0.816,-0.384 -0.288,-0.192 -0.288,-0.48 0,-0.672 1.44,-0.672 l 2.832,0.048 q 0.576,0.048 1.776,0.048 0.864,0 2.112,-0.096 1.344,-0.096 2.208,-0.096 1.248,0 1.248,0.72 0,0.624 -1.296,1.008 -1.584,0.432 -2.256,1.44 -0.624,1.008 -0.72,2.784 -0.24,6.048 -0.24,12.912 0,3.84 -1.728,6.864 -1.728,3.024 -4.704,4.704 -2.928,1.68 -6.48,1.68 z" />
    <path
       id="path1067"
       style="font-style:normal;font-variant:normal;font-weight:bold;font-stretch:normal;font-size:48px;font-family:'EB Garamond';-inkscape-font-specification:'EB Garamond Bold';text-align:center;text-anchor:middle;fill:#ffffff"
       d="m 4123.5857,1132.9572 q -1.92,0 -4.704,-0.72 -1.824,-0.528 -2.304,-0.528 -0.768,0 -1.728,0.624 -0.432,0.336 -0.672,0.336 -0.432,0 -0.672,-0.192 -0.192,-0.144 -0.192,-0.432 0,-0.336 0.24,-1.68 0.288,-1.392 0.24,-3.12 l -0.192,-21.36 q 0,-1.44 -0.432,-2.304 -0.384,-0.912 -1.44,-1.152 -0.576,-0.096 -0.576,-0.768 0,-0.24 0.144,-0.432 0.144,-0.192 0.384,-0.24 2.112,-0.384 7.2,-2.352 0.48,-0.192 0.672,-0.192 0.528,0 0.528,0.576 0,0.336 -0.144,1.296 -0.096,0.96 -0.096,1.728 v 10.272 q 0,1.344 0.432,1.344 1.488,-1.008 3.072,-1.536 1.632,-0.576 3.072,-0.576 2.496,0 4.512,1.296 2.016,1.296 3.168,3.6 1.2,2.256 1.2,5.04 0,3.36 -1.488,6 -1.44,2.592 -4.128,4.032 -2.64,1.44 -6.096,1.44 z m 0.864,-2.016 q 1.872,0 2.976,-2.352 1.152,-2.4 1.152,-5.856 0,-3.312 -1.248,-5.904 -1.248,-2.592 -3.6,-2.592 -1.008,0 -2.112,0.288 -1.104,0.288 -1.776,0.816 v 10.224 q 0,2.304 1.344,3.84 1.392,1.536 3.264,1.536 z" />
    <path
       id="path1069"
       style="font-style:normal;font-variant:normal;font-weight:bold;font-stretch:normal;font-size:48px;font-family:'EB Garamond';-inkscape-font-specification:'EB Garamond Bold';text-align:center;text-anchor:middle;fill:#ffffff"
       d="m 4153.0562,1133.2932 q -0.384,0 -0.384,-0.48 0,-0.672 0.144,-1.536 l 0.096,-1.488 q 0,-0.432 -0.096,-0.528 -1.344,1.632 -3.408,2.688 -2.016,1.056 -4.176,1.056 -2.256,0 -3.792,-1.92 -1.488,-1.968 -1.488,-4.848 v -8.976 q 0,-1.2 -0.432,-1.824 -0.432,-0.672 -1.488,-0.864 -0.288,-0.048 -0.528,-0.24 -0.192,-0.24 -0.192,-0.672 0,-0.768 0.72,-0.816 3.12,-0.144 6.96,-1.152 0.192,-0.048 0.48,-0.096 0.336,-0.096 0.528,-0.096 0.672,0 0.624,0.672 -0.384,1.968 -0.384,3.696 v 9.216 q 0,1.728 0.816,2.784 0.816,1.056 2.112,1.104 1.872,0 2.928,-1.056 0.384,-0.336 0.672,-1.056 0.288,-0.768 0.288,-1.92 v -7.728 q 0,-1.2 -0.72,-1.872 -0.72,-0.72 -1.872,-0.816 -0.576,-0.048 -0.864,-0.288 -0.288,-0.24 -0.288,-0.768 0,-0.48 0.336,-0.72 0.336,-0.24 0.816,-0.24 3.648,-0.24 5.184,-0.384 1.536,-0.144 2.88,-0.48 0.576,-0.144 0.624,-0.144 0.72,0 0.72,0.576 0,0.144 -0.192,0.72 -0.096,0.576 -0.24,1.68 -0.096,1.104 -0.096,1.68 v 11.136 q 0,1.824 0.864,1.824 l 1.344,0.048 q 0.432,0 0.672,0.24 0.24,0.24 0.24,0.624 0,0.48 -0.192,0.72 -0.144,0.24 -0.624,0.288 -3.552,0.336 -7.344,1.92 -0.144,0.048 -0.576,0.192 -0.384,0.144 -0.672,0.144 z" />
    <path
       id="path1071"
       style="font-style:normal;font-variant:normal;font-weight:bold;font-stretch:normal;font-size:48px;font-family:'EB Garamond';-inkscape-font-specification:'EB Garamond Bold';text-align:center;text-anchor:middle;fill:#ffffff"
       d="m 4164.8537,1132.4292 q -0.336,0 -0.672,-0.192 -0.288,-0.192 -0.288,-0.48 0,-0.576 1.104,-0.96 0.96,-0.288 1.392,-0.624 0.432,-0.336 0.432,-1.2 v -10.992 q 0,-2.4 -1.488,-2.688 -0.528,-0.096 -0.528,-0.864 0,-0.672 0.48,-0.816 1.68,-0.384 3.648,-1.056 1.968,-0.672 3.264,-1.344 0.624,-0.384 0.864,-0.384 0.432,0 0.432,0.576 l -0.096,0.96 q -0.144,1.728 -0.144,1.776 0,0.624 0.096,0.72 1.776,-1.68 3.408,-2.496 1.68,-0.816 3.792,-0.816 2.592,0 4.224,1.872 1.68,1.872 1.68,4.992 v 10.56 q 0,0.864 0.432,1.2 0.432,0.336 1.392,0.624 0.96,0.336 0.96,0.96 0,0.288 -0.24,0.48 -0.24,0.192 -0.576,0.192 -1.44,0 -2.736,-0.144 -1.536,-0.096 -2.352,-0.096 -0.816,0 -2.352,0.096 -1.2,0.144 -2.688,0.144 -0.336,0 -0.576,-0.192 -0.24,-0.192 -0.24,-0.48 0,-0.624 0.96,-0.96 0.912,-0.288 1.296,-0.624 0.384,-0.336 0.384,-1.2 v -9.552 q 0,-1.824 -0.816,-2.832 -0.816,-1.056 -2.256,-1.104 -1.008,0 -1.824,0.336 -0.816,0.288 -1.728,0.912 -0.384,0.336 -0.384,0.912 v 11.328 q 0,0.864 0.384,1.2 0.384,0.288 1.344,0.624 0.96,0.336 0.96,0.96 0,0.288 -0.24,0.48 -0.24,0.192 -0.576,0.192 -1.44,0 -2.592,-0.144 -1.536,-0.096 -2.304,-0.096 -0.816,0 -2.448,0.096 -1.296,0.144 -2.784,0.144 z" />
    <path
       id="path1073"
       style="font-style:normal;font-variant:normal;font-weight:bold;font-stretch:normal;font-size:48px;font-family:'EB Garamond';-inkscape-font-specification:'EB Garamond Bold';text-align:center;text-anchor:middle;fill:#ffffff"
       d="m 4199.8352,1132.9572 q -3.12,0 -4.752,-1.584 -1.584,-1.584 -1.584,-4.56 v -11.04 q 0,-0.432 -0.336,-0.624 -0.336,-0.192 -1.152,-0.24 h -0.624 q -0.288,0 -0.528,-0.528 -0.24,-0.528 -0.24,-1.008 0,-0.336 0.288,-0.48 2.4,-0.864 7.008,-4.896 0.096,-0.096 0.336,-0.24 0.24,-0.192 0.432,-0.288 0.192,-0.096 0.432,-0.096 0.48,0 0.624,0.192 0.144,0.192 0.096,0.768 l -0.288,2.832 v 0.192 q 0,0.816 1.152,0.816 h 5.712 q 0.144,0 0.288,0.336 0.144,0.336 0.144,0.624 0,0.72 -0.192,1.344 -0.192,0.576 -0.432,0.576 h -4.464 q -1.104,0 -1.536,0.288 -0.384,0.24 -0.384,0.912 v 9.072 q 0,2.16 0.816,3.264 0.816,1.104 2.256,1.104 1.104,0 1.68,-0.144 0.624,-0.192 1.008,-0.384 0.432,-0.192 0.528,-0.24 0.192,-0.096 0.288,-0.096 0.24,0 0.384,0.288 0.144,0.24 0.144,0.672 0,0.336 -1.104,1.152 -1.056,0.768 -2.688,1.392 -1.632,0.624 -3.312,0.624 z" />
    <path
       id="path1075"
       style="font-style:normal;font-variant:normal;font-weight:bold;font-stretch:normal;font-size:48px;font-family:'EB Garamond';-inkscape-font-specification:'EB Garamond Bold';text-align:center;text-anchor:middle;fill:#ffffff"
       d="m 4223.9312,1133.2932 q -0.384,0 -0.384,-0.48 0,-0.672 0.144,-1.536 l 0.096,-1.488 q 0,-0.432 -0.096,-0.528 -1.344,1.632 -3.408,2.688 -2.016,1.056 -4.176,1.056 -2.256,0 -3.792,-1.92 -1.488,-1.968 -1.488,-4.848 v -8.976 q 0,-1.2 -0.432,-1.824 -0.432,-0.672 -1.488,-0.864 -0.288,-0.048 -0.528,-0.24 -0.192,-0.24 -0.192,-0.672 0,-0.768 0.72,-0.816 3.12,-0.144 6.96,-1.152 0.192,-0.048 0.48,-0.096 0.336,-0.096 0.528,-0.096 0.672,0 0.624,0.672 -0.384,1.968 -0.384,3.696 v 9.216 q 0,1.728 0.816,2.784 0.816,1.056 2.112,1.104 1.872,0 2.928,-1.056 0.384,-0.336 0.672,-1.056 0.288,-0.768 0.288,-1.92 v -7.728 q 0,-1.2 -0.72,-1.872 -0.72,-0.72 -1.872,-0.816 -0.576,-0.048 -0.864,-0.288 -0.288,-0.24 -0.288,-0.768 0,-0.48 0.336,-0.72 0.336,-0.24 0.816,-0.24 3.648,-0.24 5.184,-0.384 1.536,-0.144 2.88,-0.48 0.576,-0.144 0.624,-0.144 0.72,0 0.72,0.576 0,0.144 -0.192,0.72 -0.096,0.576 -0.24,1.68 -0.096,1.104 -0.096,1.68 v 11.136 q 0,1.824 0.864,1.824 l 1.344,0.048 q 0.432,0 0.672,0.24 0.24,0.24 0.24,0.624 0,0.48 -0.192,0.72 -0.144,0.24 -0.624,0.288 -3.552,0.336 -7.344,1.92 -0.144,0.048 -0.576,0.192 -0.384,0.144 -0.672,0.144 z" />
    <path
       id="path1077"
       style="font-style:normal;font-variant:normal;font-weight:bold;font-stretch:normal;font-size:48px;font-family:'EB Garamond';-inkscape-font-specification:'EB Garamond Bold';text-align:center;text-anchor:middle;fill:#ffffff"
       d="m 4250.7205,1132.4292 q -0.336,0 -0.624,-0.192 -0.24,-0.192 -0.24,-0.48 0,-0.768 0.912,-1.008 1.632,-0.432 2.448,-0.72 0.864,-0.336 1.344,-0.912 0.528,-0.576 0.528,-1.584 v -17.376 q 0,-1.536 -1.056,-2.112 -1.056,-0.624 -3.072,-0.96 -1.248,-0.24 -1.248,-1.104 0,-0.528 0.432,-0.816 0.432,-0.336 1.056,-0.384 2.784,-0.192 4.992,-0.864 2.256,-0.72 4.56,-2.016 0.288,-0.144 0.528,-0.144 0.336,0 0.624,0.144 0.336,0.144 0.336,0.336 0,0.288 -0.096,1.152 -0.144,1.872 -0.144,2.352 v 21.84 q 0,1.296 1.008,1.872 1.056,0.576 3.648,1.296 0.432,0.144 0.624,0.384 0.24,0.192 0.24,0.576 0,0.672 -0.72,0.672 -1.104,0 -4.176,-0.096 -2.976,-0.096 -3.936,-0.096 -1.008,0 -3.792,0.096 -2.304,0.144 -4.176,0.144 z" />
    <path
       id="path1079"
       style="font-style:normal;font-variant:normal;font-weight:bold;font-stretch:normal;font-size:48px;font-family:'EB Garamond';-inkscape-font-specification:'EB Garamond Bold';text-align:center;text-anchor:middle;fill:#ffffff"
       d="m 4274.3987,1134.6852 q -0.672,0 -0.96,-0.24 -0.288,-0.24 -0.288,-0.528 0,-0.48 0.384,-0.768 0.384,-0.288 0.96,-0.336 2.448,-0.288 5.088,-2.256 2.688,-2.016 4.8,-4.704 4.656,-6 4.656,-12.24 0,-2.112 -0.72,-4.224 -0.72,-2.112 -1.872,-3.456 -1.152,-1.392 -2.448,-1.392 -1.776,0 -2.688,1.392 -0.912,1.344 -0.912,3.984 0,1.44 0.48,2.784 0.528,1.344 1.344,2.208 0.864,0.864 1.776,0.864 0.624,0 1.104,-0.144 0.528,-0.144 0.96,-0.336 0.432,-0.144 0.672,-0.144 0.528,0 0.528,0.48 0,0.384 -0.384,0.864 -0.144,0.192 -1.056,1.104 -0.672,0.624 -2.016,1.248 -1.344,0.624 -2.496,0.624 -1.824,0 -3.6,-0.912 -1.728,-0.96 -2.88,-2.592 -1.104,-1.68 -1.104,-3.696 0,-2.112 1.584,-4.512 1.584,-2.4 4.224,-4.032 2.64,-1.632 5.568,-1.632 2.736,0 5.088,1.536 2.352,1.536 3.744,4.08 1.392,2.544 1.392,5.376 0,4.128 -2.064,7.872 -2.064,3.696 -5.04,6.624 -1.584,1.488 -4.176,3.168 -2.592,1.68 -5.232,2.784 -2.64,1.152 -4.416,1.152 z" />
    <path
       id="path1081"
       style="font-style:normal;font-variant:normal;font-weight:bold;font-stretch:normal;font-size:48px;font-family:'EB Garamond';-inkscape-font-specification:'EB Garamond Bold';text-align:center;text-anchor:middle;fill:#ffffff"
       d="m 4301.773,1133.7252 q -1.584,0 -2.736,-1.152 -1.104,-1.104 -1.104,-2.688 0,-1.632 1.104,-2.784 1.152,-1.2 2.736,-1.2 1.68,0 2.832,1.152 1.152,1.152 1.152,2.832 0,1.584 -1.152,2.688 -1.152,1.152 -2.832,1.152 z" />
    <path
       id="path1083"
       style="font-style:normal;font-variant:normal;font-weight:bold;font-stretch:normal;font-size:48px;font-family:'EB Garamond';-inkscape-font-specification:'EB Garamond Bold';text-align:center;text-anchor:middle;fill:#ffffff"
       d="m 4320.2575,1132.9572 q -3.648,0 -6.192,-2.208 -2.544,-2.256 -3.84,-5.712 -1.248,-3.504 -1.248,-7.248 0,-3.936 1.248,-7.536 1.296,-3.6 3.936,-5.904 2.688,-2.352 6.624,-2.352 3.6,0 6.144,2.256 2.592,2.208 3.84,5.712 1.296,3.456 1.296,7.104 0,3.888 -1.296,7.536 -1.248,3.648 -3.936,6 -2.64,2.352 -6.576,2.352 z m 0.72,-2.16 q 2.16,0 3.216,-3.648 1.056,-3.648 1.056,-9.216 0,-3.456 -0.624,-6.624 -0.624,-3.168 -1.824,-5.136 -1.152,-2.016 -2.784,-2.016 -2.16,0 -3.168,3.6 -1.008,3.6 -1.008,9.216 0,5.52 1.344,9.696 1.344,4.128 3.792,4.128 z" />
    <path
       id="path1085"
       style="font-style:normal;font-variant:normal;font-weight:bold;font-stretch:normal;font-size:48px;font-family:'EB Garamond';-inkscape-font-specification:'EB Garamond Bold';text-align:center;text-anchor:middle;fill:#ffffff"
       d="m 4343.4557,1132.4292 q -0.336,0 -0.72,-0.192 -0.336,-0.24 -0.336,-0.528 0,-0.672 1.104,-0.96 1.92,-0.384 2.592,-0.96 0.672,-0.624 0.672,-2.016 v -2.736 q 0,-0.24 -0.288,-0.336 -0.24,-0.144 -0.528,-0.144 -1.344,0 -5.088,0.192 -4.032,0.192 -6,0.192 -0.288,0 -0.528,-0.096 -0.192,-0.096 -0.192,-0.288 0,-0.192 0.24,-0.528 l 1.44,-1.92 11.856,-18.96 q 0.432,-0.672 1.008,-1.152 0.624,-0.528 1.104,-0.528 h 0.432 q 0.48,0 0.48,0.528 0,0.24 -0.144,0.48 l -11.28,17.904 q -0.096,0.144 -0.096,0.336 0,0.336 0.48,0.336 h 6.72 q 0.144,0 0.24,-0.096 0.144,-0.096 0.144,-0.24 v -5.76 q 0,-0.864 0.144,-1.152 0.144,-0.336 0.624,-0.528 1.152,-0.528 2.544,-0.768 1.44,-0.24 2.304,-0.24 0.912,0 1.104,0.768 0.192,0.768 0.192,2.928 v 5.04 q 0,0.096 0.048,0.24 0.096,0.096 0.192,0.096 0.816,0.048 1.728,0.048 0.432,0 2.736,-0.096 0.24,0 0.384,0.096 0.192,0.096 0.192,0.24 0,0.624 -0.432,1.824 -0.384,1.2 -0.672,1.2 l -2.256,-0.048 q -0.384,0 -1.248,0.096 -0.192,0.048 -0.432,0.144 -0.192,0.096 -0.24,0.144 v 2.736 q 0,1.296 0.576,1.92 0.624,0.576 2.544,1.104 0.576,0.192 0.864,0.384 0.288,0.192 0.288,0.576 0,0.288 -0.336,0.48 -0.288,0.192 -0.672,0.192 -1.152,0 -3.552,-0.096 -2.4,-0.096 -3.264,-0.096 -0.96,0 -3.168,0.096 -1.776,0.144 -3.504,0.144 z" />
  </g>
</svg>
