<?xml version="1.0" encoding="UTF-8" standalone="no"?>
<svg
   xmlns:dc="http://purl.org/dc/elements/1.1/"
   xmlns:cc="http://creativecommons.org/ns#"
   xmlns:rdf="http://www.w3.org/1999/02/22-rdf-syntax-ns#"
   xmlns:svg="http://www.w3.org/2000/svg"
   xmlns="http://www.w3.org/2000/svg"
   xmlns:xlink="http://www.w3.org/1999/xlink"
   id="svg3357"
   version="1.1"
   viewBox="0 0 211.40208 119.0625"
   height="119.0625mm"
   width="211.40208mm">
  <defs
     id="defs3351">
    <linearGradient
       id="linearGradient6114">
      <stop
         id="stop6110"
         offset="0"
         style="stop-color:#6f7c91;stop-opacity:1;" />
      <stop
         id="stop6112"
         offset="1"
         style="stop-color:#162d50;stop-opacity:1" />
    </linearGradient>
    <radialGradient
       gradientUnits="userSpaceOnUse"
       gradientTransform="matrix(3.0071285,0,0,1.83657,-125.12732,-58.151445)"
       r="31.67275"
       fy="66.986313"
       fx="73.77433"
       cy="66.986313"
       cx="73.77433"
       id="radialGradient6126"
       xlink:href="#linearGradient6114" />
    <linearGradient
       id="linearGradient878">
      <stop
         style="stop-color:#241f1c;stop-opacity:1;"
         offset="0"
         id="stop874" />
      <stop
         style="stop-color:#c87137;stop-opacity:1"
         offset="1"
         id="stop876" />
    </linearGradient>
    <linearGradient
       xlink:href="#linearGradient878"
       id="linearGradient880"
       x1="69.074188"
       y1="24.387194"
       x2="69.074188"
       y2="43.727966"
       gradientUnits="userSpaceOnUse"
       gradientTransform="matrix(0.17628899,0,0,0.21796478,92.944935,131.35605)" />
    <linearGradient
       y2="43.727966"
       x2="69.074188"
       y1="24.387194"
       x1="69.074188"
       gradientTransform="matrix(0.17628899,0,0,0.21796478,92.944935,131.35605)"
       gradientUnits="userSpaceOnUse"
       id="linearGradient2032"
       xlink:href="#linearGradient878" />
  </defs>
  <metadata
     id="metadata3354">
    <rdf:RDF>
      <cc:Work
         rdf:about="">
        <dc:format>image/svg+xml</dc:format>
        <dc:type
           rdf:resource="http://purl.org/dc/dcmitype/StillImage" />
        <dc:title></dc:title>
      </cc:Work>
    </rdf:RDF>
  </metadata>
  <g
     id="flowRoot874"
     style="font-style:normal;font-weight:normal;font-size:40px;line-height:1.25;font-family:sans-serif;letter-spacing:0px;word-spacing:0px;fill:#000000;fill-opacity:1;stroke:none"
     transform="matrix(1.1097917,0,0,1.0234149,-1.6397721,-6.8615496)" />
  <g
     id="flowRoot1713"
     style="font-style:normal;font-weight:normal;font-size:40px;line-height:1.25;font-family:sans-serif;letter-spacing:0px;word-spacing:0px;fill:#000000;fill-opacity:1;stroke:none"
     transform="translate(-1.4775493,-3.9805)" />
  <path
     id="rect6108"
     d="M 0,0 H 211.40208 V 119.0625 H 0 Z"
     style="opacity:1;fill:#c83737;fill-opacity:1;stroke:none;stroke-width:4.38045835;stroke-miterlimit:4;stroke-dasharray:none;paint-order:stroke markers fill" />
  <g
     transform="matrix(0.62415593,0,0,0.62125153,13.412327,-50.010536)"
     id="layer1-6">
    <g
       id="g1099">
      <path
         style="fill:#ffccaa;stroke:none;stroke-width:0.32650977px;stroke-linecap:butt;stroke-linejoin:miter;stroke-opacity:1"
         d="m 29.638173,109.7861 c 0,0 2.210034,20.81684 5.487124,29.95959 3.27709,9.14277 12.29768,14.1377 21.67416,13.75923 9.37649,-0.37849 13.64808,-6.46519 17.83316,-14.86886 4.18509,-8.40364 6.03586,-28.62803 6.03586,-28.62803 -19.69795,-15.341999 -35.35917,-7.75384 -51.030304,-0.22193 z"
         id="path899" />
      <path
         id="path931"
         d="m 22.6548,161.49312 c 2.006951,0.32632 6.020624,0.97891 8.375624,9.22373 2.355,8.24482 3.051508,24.0816 2.296573,32.00198 -0.754935,7.92039 -2.961609,7.92339 -4.048406,2.97335 -1.086797,-4.95004 -1.053318,-14.85244 -1.140621,-20.79529 -0.0873,-5.94286 -0.295349,-7.92585 -0.503415,-9.90903 0,0 0,0 0.317464,-1.1277 0.317465,-1.12771 0.952614,-3.3839 -0.212191,-5.6875 -1.164804,-2.30359 -4.128031,-4.65442 -5.610003,-5.83012 -1.481972,-1.1757 -1.481976,-1.17574 0.524975,-0.84942 z"
         style="fill:#373e48;fill-opacity:1;stroke:none;stroke-width:0.26458332px;stroke-linecap:butt;stroke-linejoin:miter;stroke-opacity:1"
         transform="matrix(0.9964228,-0.05350324,0.16995011,0.65527375,14.066957,60.499692)" />
      <path
         transform="matrix(-0.99270903,-0.12053542,-0.12053542,0.99270903,87.612387,9.7605431)"
         style="fill:#373e48;fill-opacity:1;stroke:none;stroke-width:0.26458332px;stroke-linecap:butt;stroke-linejoin:miter;stroke-opacity:1"
         d="m 23.997557,162.25184 c 0.385764,-1.26636 4.120949,-1.44767 6.598952,7.11712 2.478003,8.5648 3.699076,25.87532 3.174432,34.25276 -0.524643,8.37744 -2.794216,7.82114 -4.004016,2.5501 -1.209799,-5.27104 -1.358971,-15.25163 -1.537617,-21.23473 -0.178645,-5.9831 -0.386691,-7.96609 -0.594757,-9.94927 0,0 0,0 0.317464,-1.1277 0.317465,-1.12771 0.952614,-3.3839 -0.212191,-5.6875 -1.164804,-2.30359 -4.128031,-4.65442 -3.742267,-5.92078 z"
         id="path929" />
      <g
         id="g986"
         transform="translate(-65.700485,-13.884416)"
         style="fill:#ffccaa">
        <path
           style="fill:#ffccaa;stroke:none;stroke-width:0.11090351px;stroke-linecap:butt;stroke-linejoin:miter;stroke-opacity:1"
           d="m 95.29763,225.94923 3.19998,-0.22291 0.34241,4.29929 -3.74628,0.16103 z"
           id="path932" />
        <g
           id="g979"
           style="fill:#ffccaa">
          <path
             id="circle934"
             d="m 99.359561,230.65961 a 0.83370489,0.83370489 0 0 1 -0.833705,0.8337 0.83370489,0.83370489 0 0 1 -0.833705,-0.8337 0.83370489,0.83370489 0 0 1 0.833705,-0.83371 0.83370489,0.83370489 0 0 1 0.833705,0.83371 z"
             style="opacity:1;fill:#ffccaa;fill-opacity:1;stroke:none;stroke-width:1.60000002;stroke-linecap:butt;stroke-linejoin:round;stroke-miterlimit:4;stroke-dasharray:none;stroke-dashoffset:0;stroke-opacity:1;paint-order:markers stroke fill" />
          <path
             id="circle936"
             d="m 98.013331,230.67632 a 0.83370489,0.83370489 0 0 1 -0.833705,0.8337 0.83370489,0.83370489 0 0 1 -0.833704,-0.8337 0.83370489,0.83370489 0 0 1 0.833704,-0.83371 0.83370489,0.83370489 0 0 1 0.833705,0.83371 z"
             style="opacity:1;fill:#ffccaa;fill-opacity:1;stroke:none;stroke-width:1.60000002;stroke-linecap:butt;stroke-linejoin:round;stroke-miterlimit:4;stroke-dasharray:none;stroke-dashoffset:0;stroke-opacity:1;paint-order:markers stroke fill" />
          <path
             id="circle938"
             d="m 96.706973,230.67644 a 0.83370489,0.83370489 0 0 1 -0.833705,0.8337 0.83370489,0.83370489 0 0 1 -0.833705,-0.8337 0.83370489,0.83370489 0 0 1 0.833705,-0.83371 0.83370489,0.83370489 0 0 1 0.833705,0.83371 z"
             style="opacity:1;fill:#ffccaa;fill-opacity:1;stroke:none;stroke-width:1.60000002;stroke-linecap:butt;stroke-linejoin:round;stroke-miterlimit:4;stroke-dasharray:none;stroke-dashoffset:0;stroke-opacity:1;paint-order:markers stroke fill" />
        </g>
      </g>
      <path
         id="rect862"
         d="M 46.604078,165.642 H 65.80567 c 4.74019,0 8.556299,3.81611 8.556299,8.5563 v 35.27142 c 0,4.74019 -3.816109,8.5563 -8.556299,8.5563 H 46.604078 c -4.740189,0 -8.556299,-3.81611 -8.556299,-8.5563 V 174.1983 c 0,-4.74019 3.81611,-8.5563 8.556299,-8.5563 z"
         style="opacity:1;fill:#373e48;fill-opacity:1;stroke:none;stroke-width:1.39575994;stroke-linecap:butt;stroke-linejoin:round;stroke-miterlimit:4;stroke-dasharray:none;stroke-dashoffset:0;stroke-opacity:1;paint-order:markers stroke fill" />
      <path
         style="fill:#1a1a1a;stroke:none;stroke-width:0.26458332px;stroke-linecap:butt;stroke-linejoin:miter;stroke-opacity:1"
         d="m 55.801457,169.11932 8.38617,-8.23095 4.28747,4.74765 -8.78481,9.51682 z"
         id="path919" />
      <path
         style="fill:#1a1a1a;stroke:none;stroke-width:0.26458332px;stroke-linecap:butt;stroke-linejoin:miter;stroke-opacity:1"
         d="m 46.225187,159.81725 -3.42543,6.81294 8.90443,9.0085 4.09727,-6.51937 z"
         id="path921" />
      <path
         style="fill:#37abc8;stroke:none;stroke-width:0.26458332px;stroke-linecap:butt;stroke-linejoin:miter;stroke-opacity:1"
         d="m 46.225187,159.81725 18.4375,-0.11744 0.11744,4.22771 -18.78981,0.46974 z"
         id="path892" />
      <g
         id="g1752"
         transform="translate(-65.049433,-12.171169)"
         style="fill:#ffccaa">
        <path
           id="path841"
           d="m 115.79889,163.68427 8.00149,-0.67672 4.83306,14.81624 c -5.07229,-0.0843 -10.51214,0.0843 -16.80779,0 z"
           style="fill:#ffccaa;stroke:none;stroke-width:0.14957768px;stroke-linecap:butt;stroke-linejoin:miter;stroke-opacity:1" />
      </g>
      <path
         style="fill:#006680;stroke:none;stroke-width:0.28846669px;stroke-linecap:butt;stroke-linejoin:miter;stroke-opacity:1"
         d="m 55.801457,169.05246 8.86123,-9.35265 4.42298,5.07124 -9.73012,9.14636 z"
         id="path890" />
      <path
         style="fill:#006680;stroke:none;stroke-width:0.26458332px;stroke-linecap:butt;stroke-linejoin:miter;stroke-opacity:1"
         d="m 46.225187,159.81725 -4.13606,5.38487 10.16009,8.8369 3.55224,-4.9197 z"
         id="path888" />
      <path
         style="fill:#00222b;stroke:none;stroke-width:0.18661645px;stroke-linecap:butt;stroke-linejoin:miter;stroke-opacity:1"
         d="m 55.801457,169.11932 -3.55224,4.9197 3.3959,4.19694 3.71043,-4.31855 z"
         id="path898" />
      <path
         style="fill:#f9f9f9;fill-opacity:1;stroke:none;stroke-width:0.26458332px;stroke-linecap:butt;stroke-linejoin:miter;stroke-opacity:1"
         d="m 54.239197,176.29695 -2.94126,5.66168 3.85365,22.42257 5.205,-22.80031 -3.16207,-5.67465 -1.5494,2.32972 z"
         id="path900" />
      <g
         id="g998"
         transform="matrix(0.12605463,1.1825169,0.99262897,-0.12767758,-138.12921,104.93834)"
         style="fill:#ffccaa">
        <path
           id="path988"
           d="m 95.29763,225.94923 3.19998,-0.22291 0.34241,4.29929 -3.74628,0.16103 z"
           style="fill:#ffccaa;stroke:none;stroke-width:0.11090351px;stroke-linecap:butt;stroke-linejoin:miter;stroke-opacity:1" />
        <g
           id="g996"
           style="fill:#ffccaa">
          <path
             id="circle990"
             d="m 99.359561,230.65961 a 0.83370489,0.83370489 0 0 1 -0.833705,0.8337 0.83370489,0.83370489 0 0 1 -0.833705,-0.8337 0.83370489,0.83370489 0 0 1 0.833705,-0.83371 0.83370489,0.83370489 0 0 1 0.833705,0.83371 z"
             style="opacity:1;fill:#ffccaa;fill-opacity:1;stroke:none;stroke-width:1.60000002;stroke-linecap:butt;stroke-linejoin:round;stroke-miterlimit:4;stroke-dasharray:none;stroke-dashoffset:0;stroke-opacity:1;paint-order:markers stroke fill" />
          <path
             id="circle992"
             d="m 98.013331,230.67632 a 0.83370489,0.83370489 0 0 1 -0.833705,0.8337 0.83370489,0.83370489 0 0 1 -0.833704,-0.8337 0.83370489,0.83370489 0 0 1 0.833704,-0.83371 0.83370489,0.83370489 0 0 1 0.833705,0.83371 z"
             style="opacity:1;fill:#ffccaa;fill-opacity:1;stroke:none;stroke-width:1.60000002;stroke-linecap:butt;stroke-linejoin:round;stroke-miterlimit:4;stroke-dasharray:none;stroke-dashoffset:0;stroke-opacity:1;paint-order:markers stroke fill" />
          <path
             id="circle994"
             d="m 96.706973,230.67644 a 0.83370489,0.83370489 0 0 1 -0.833705,0.8337 0.83370489,0.83370489 0 0 1 -0.833705,-0.8337 0.83370489,0.83370489 0 0 1 0.833705,-0.83371 0.83370489,0.83370489 0 0 1 0.833705,0.83371 z"
             style="opacity:1;fill:#ffccaa;fill-opacity:1;stroke:none;stroke-width:1.60000002;stroke-linecap:butt;stroke-linejoin:round;stroke-miterlimit:4;stroke-dasharray:none;stroke-dashoffset:0;stroke-opacity:1;paint-order:markers stroke fill" />
        </g>
      </g>
      <path
         style="fill:#004455;fill-opacity:1;stroke:none;stroke-width:0.18690312px;stroke-linecap:butt;stroke-linejoin:miter;stroke-opacity:1"
         d="m 38.167097,211.88718 19.01705,6.02007 -8.11555,34.25771 -9.8828,0.57587 z"
         id="path1002" />
      <path
         style="fill:#004455;fill-opacity:1;stroke:none;stroke-width:0.31340101px;stroke-linecap:butt;stroke-linejoin:miter;stroke-opacity:1"
         d="m 74.011657,212.29439 -16.82751,5.61286 4.37078,34.67951 7.64887,-0.60138 z"
         id="path1006" />
      <path
         style="fill:#000000;fill-opacity:1;stroke:#000000;stroke-width:0.19545493px;stroke-linecap:butt;stroke-linejoin:miter;stroke-opacity:1"
         d="m 60.885977,250.82077 c 1.63588,-2.27299 7.91282,-1.13127 10.05644,-0.44548 2.14362,0.68579 2.86649,1.60045 2.86649,1.60045 0,0 0.938,0.78916 0.85273,2.14648 -0.0853,1.35733 -1.8646,1.22051 -1.8646,1.22051 l -12.28692,-0.0652 c 0,0 -1.26002,-2.18375 0.37586,-4.45674 z"
         id="path1008" />
      <path
         id="path1012"
         d="m 49.261237,250.41473 c -1.63588,-2.30679 -7.91282,-1.14809 -10.05644,-0.45211 -2.14362,0.69599 -2.86649,1.62425 -2.86649,1.62425 0,0 -0.938,0.80089 -0.85273,2.1784 0.0853,1.37752 1.8646,1.23867 1.8646,1.23867 l 12.22028,-0.0661 c 0,0 1.32666,-2.21622 -0.30922,-4.52301 z"
         style="fill:#000000;fill-opacity:1;stroke:#000000;stroke-width:0.19690284px;stroke-linecap:butt;stroke-linejoin:miter;stroke-opacity:1" />
      <g
         id="g1780"
         transform="matrix(0.86120647,0,0,0.97608024,-49.251651,-6.6963527)">
        <g
           id="g1771">
          <path
             style="fill:#f9f9f9;stroke:none;stroke-width:0.26458332px;stroke-linecap:butt;stroke-linejoin:miter;stroke-opacity:1"
             d="M 35.448346,33.018914 C 36.256178,26.979381 49.378462,22.294609 64.284045,22.337808 79.189627,22.381006 96.072951,27.151915 95.265904,33.19072 94.458857,39.229525 76.014242,46.552955 61.060362,46.510412 46.106483,46.467869 34.640514,39.058446 35.448346,33.018914 Z"
             id="path868"
             transform="matrix(0.20482096,0.00771324,-0.00805496,0.2437922,94.567523,128.54865)" />
        </g>
        <g
           id="g980">
          <path
             style="opacity:1;fill:url(#linearGradient2032);fill-opacity:1;stroke:none;stroke-width:0.31363589;stroke-linecap:butt;stroke-linejoin:round;stroke-miterlimit:4;stroke-dasharray:none;stroke-dashoffset:0;stroke-opacity:1;paint-order:markers stroke fill"
             id="path872"
             d="m 107.07027,138.77937 a 1.9889131,2.1078036 0 0 1 -1.97767,2.10777 1.9889131,2.1078036 0 0 1 -2.00003,-2.08395 1.9889131,2.1078036 0 0 1 1.95508,-2.13132 1.9889131,2.1078036 0 0 1 2.02211,2.05987"
             transform="matrix(0.99992541,-0.01221363,0.01575438,0.99987589,0,0)" />
          <g
             id="g973">
            <path
               transform="matrix(0.99994946,-0.01005401,0.01913779,0.99981686,0,0)"
               d="m 106.3004,138.66144 a 1.3997186,1.574663 0 0 1 -1.39181,1.57464 1.3997186,1.574663 0 0 1 -1.40754,-1.55685 1.3997186,1.574663 0 0 1 1.3759,-1.59223 1.3997186,1.574663 0 0 1 1.42309,1.53885"
               id="path882"
               style="opacity:1;fill:#000000;fill-opacity:1;stroke:none;stroke-width:0.51647961;stroke-linecap:butt;stroke-linejoin:round;stroke-miterlimit:4;stroke-dasharray:none;stroke-dashoffset:0;stroke-opacity:1;paint-order:markers stroke fill" />
            <path
               d="m 108.29151,136.60039 a 0.20161209,0.21718414 0 0 1 -0.20047,0.21718 0.20161209,0.21718414 0 0 1 -0.20274,-0.21473 0.20161209,0.21718414 0 0 1 0.19818,-0.21961 0.20161209,0.21718414 0 0 1 0.20498,0.21225"
               id="path905"
               style="opacity:1;fill:#e6e6e6;fill-opacity:1;stroke:none;stroke-width:0.89055508;stroke-linecap:butt;stroke-linejoin:round;stroke-miterlimit:4;stroke-dasharray:none;stroke-dashoffset:0;stroke-opacity:1;paint-order:markers stroke fill" />
          </g>
        </g>
      </g>
      <path
         transform="matrix(0.53319821,0,0,0.49065974,18.968594,55.56858)"
         id="path950"
         d="m 64.637165,147.75033 c -2.457981,4.67817 -4.915588,9.35564 -6.27699,13.81234 -1.361402,4.45671 -1.625287,8.68947 0.156381,8.31764 1.781668,-0.37182 5.538268,-5.25762 10.21346,-4.90802 4.675192,0.3496 9.932809,5.90894 10.542496,3.97278 0.609687,-1.93616 -3.526553,-11.47119 -5.594689,-16.20749 -2.068136,-4.7363 -2.068136,-4.67344 -2.068136,-4.61036"
         style="fill:#ff9955;stroke:none;stroke-width:0.26458332px;stroke-linecap:butt;stroke-linejoin:miter;stroke-opacity:1" />
      <path
         style="fill:#ffb380;stroke:none;stroke-width:0.26458332px;stroke-linecap:butt;stroke-linejoin:miter;stroke-opacity:1"
         d="m 64.637165,147.75033 c -2.638074,4.71085 -5.276132,9.42167 -6.644237,13.68808 -1.368106,4.26642 -1.465677,8.08673 0.37033,7.67241 1.836008,-0.41432 5.535922,-4.97855 10.212658,-4.48134 4.676737,0.49722 9.994043,6.01961 10.639465,4.1096 0.645422,-1.91001 -3.480121,-11.35512 -5.542908,-16.07771 -2.062786,-4.72259 -2.062786,-4.72259 -2.062786,-4.72259"
         id="path946"
         transform="matrix(0.52341199,0,0,0.51963154,19.696311,50.288073)" />
      <path
         style="fill:#241c1c;stroke:none;stroke-width:0.26458332px;stroke-linecap:butt;stroke-linejoin:miter;stroke-opacity:1"
         d="m 37.293486,94.282235 c 3.021909,-2.503137 8.512641,-5.005662 15.377292,-5.149465 6.864651,-0.143803 15.099038,2.071038 19.62898,4.303609 4.529941,2.232572 5.353936,4.482784 5.765974,5.608002 0.412039,1.125219 0.412039,1.125219 -2.825085,-0.303159 -3.237124,-1.428378 -9.566892,-4.221382 -15.203667,-5.517425 -5.636775,-1.296042 -10.503542,-1.062246 -14.853704,0.620469 -4.350161,1.682716 -8.179492,4.813913 -9.820018,5.128421 -1.640526,0.314508 -1.091682,-2.187315 1.930228,-4.690452 z"
         id="path954"
         transform="matrix(0.34319797,-0.00538033,0.00366147,0.42798445,23.465199,83.018186)" />
      <path
         transform="matrix(0.32879769,-0.02272081,-0.00114951,0.43155961,49.152887,83.390665)"
         id="path958"
         d="m 37.293486,94.282235 c 3.021909,-2.503137 8.512641,-5.005662 15.377292,-5.149465 6.864651,-0.143803 15.099038,2.071038 19.62898,4.303609 4.529941,2.232572 5.353936,4.482784 5.765974,5.608002 0.412039,1.125219 0.412039,1.125219 -2.825085,-0.303159 -3.237124,-1.428378 -9.566892,-4.221382 -15.203667,-5.517425 -5.636775,-1.296042 -10.503542,-1.062246 -14.853704,0.620469 -4.350161,1.682716 -8.179492,4.813913 -9.820018,5.128421 -1.640526,0.314508 -1.091682,-2.187315 1.930228,-4.690452 z"
         style="fill:#241c1c;stroke:none;stroke-width:0.26458332px;stroke-linecap:butt;stroke-linejoin:miter;stroke-opacity:1" />
      <g
         id="g929"
         transform="matrix(0.9449381,0.01212509,-0.01769102,0.90627824,-56.053641,0.049236)">
        <path
           transform="matrix(1.1859487,5.7067022e-4,2.8903645e-4,0.44468148,37.760531,92.718156)"
           id="path1044"
           d="m 69.902365,138.51322 c 0,0 0,0 0,0 m 4.977544,-1.46058 c 1.586196,3.2535 3.172025,6.50625 4.416705,9.26365 1.24468,2.7574 2.147418,5.01779 2.241165,6.6723 0.09375,1.6545 -0.599577,2.66979 -1.488001,1.70125 -0.888425,-0.96854 -1.863072,-3.80268 -2.975378,-5.99095 -1.112305,-2.18827 -2.330128,-3.63812 -3.702959,-4.60374 -1.372831,-0.96561 -2.900075,-1.44673 -4.360804,-1.05596 -1.460729,0.39076 -2.853896,1.65322 -4.392576,3.69018 -1.53868,2.03696 -3.220144,4.84504 -4.061781,6.25059 -0.841638,1.40555 -0.841638,1.40555 -1.342039,1.34995 -0.500401,-0.0556 -1.500976,-0.16677 -2.001493,-0.22239 -0.500518,-0.0556 -0.500523,-0.0556 -0.500523,-0.0556 0,0 8.399322,-16.76624 8.399322,-16.76624"
           style="fill:#241c1c;stroke:none;stroke-width:0.26458332px;stroke-linecap:butt;stroke-linejoin:miter;stroke-opacity:1" />
      </g>
      <path
         transform="matrix(-0.63764729,-0.30721278,0.33868986,-0.64960658,76.481237,241.46679)"
         id="path860"
         d="m 71.133067,139.01257 c -2.636118,-1.46192 -5.04072,3.76532 -4.653473,7.81405 0.387246,4.04873 3.566509,6.91723 6.202949,8.37911 2.63644,1.46189 4.729274,1.51674 4.341737,-2.5316 -0.387537,-4.04835 -3.255094,-12.19964 -5.891213,-13.66156 z"
         style="fill:#ffccaa;stroke:none;stroke-width:0.26458332px;stroke-linecap:butt;stroke-linejoin:miter;stroke-opacity:1" />
      <g
         id="g960"
         transform="matrix(1.0093603,0.16504814,-0.16890955,0.98628551,-49.887168,-34.638261)"
         style="fill:#ffb380">
        <path
           transform="rotate(-157.39878,113.69529,129.92592)"
           id="path864"
           d="m 74.457896,135.90987 c -0.3968,1.10065 -0.740502,3.19852 0.124021,4.80774 0.864523,1.60922 2.936295,2.72783 3.904896,2.97239 0.968601,0.24456 0.833693,-0.38501 0.235961,-1.04522 -0.597733,-0.66021 -1.721809,-1.39266 -2.324475,-2.25054 -0.602666,-0.85787 -0.715517,-1.86165 -0.741317,-2.85116 -0.0258,-0.98952 0.0356,-1.96333 -0.158454,-2.39935 -0.194057,-0.43603 -0.643833,-0.33451 -1.040632,0.76614 z"
           style="fill:#ffb380;stroke:none;stroke-width:0.26458332px;stroke-linecap:butt;stroke-linejoin:miter;stroke-opacity:1" />
      </g>
      <path
         style="fill:#ffccaa;stroke:none;stroke-width:0.26458332px;stroke-linecap:butt;stroke-linejoin:miter;stroke-opacity:1"
         d="m 71.133067,139.01257 c -2.636118,-1.46192 -5.04072,3.76532 -4.653473,7.81405 0.387246,4.04873 3.566509,6.91723 6.202949,8.37911 2.63644,1.46189 4.729274,1.51674 4.341737,-2.5316 -0.387537,-4.04835 -3.255094,-12.19964 -5.891213,-13.66156 z"
         id="path856"
         transform="matrix(0.6862482,0.10797929,-0.12274631,0.71864321,-1.5798107,11.143366)" />
      <g
         id="g951"
         transform="rotate(-6.7947417,-46.517377,633.82679)"
         style="fill:#ffb380">
        <g
           id="g947"
           style="fill:#ffb380">
          <path
             transform="rotate(13.895487,92.176135,189.68554)"
             id="path869"
             d="m 75.246051,135.6674 c -0.477323,1.08561 -1.117064,3.39174 -0.419996,5.07842 0.697067,1.68668 2.730588,2.75251 3.703963,2.83217 0.973375,0.0797 0.886432,-0.82681 0.416391,-1.26191 -0.470042,-0.43511 -1.323333,-0.3991 -1.869757,-1.07523 -0.546424,-0.67612 -0.785627,-2.06433 -0.855019,-3.24769 -0.06939,-1.18336 0.0309,-2.16274 -0.07624,-2.71959 -0.107141,-0.55684 -0.422019,-0.69179 -0.899342,0.39383 z"
             style="fill:#ffb380;stroke:none;stroke-width:0.26458332px;stroke-linecap:butt;stroke-linejoin:miter;stroke-opacity:1" />
        </g>
      </g>
      <path
         style="fill:#241f1c;stroke:none;stroke-width:0.14657316px;stroke-linecap:butt;stroke-linejoin:miter;stroke-opacity:1"
         d="m 29.607243,108.6394 c -0.80559,4.13675 -0.96203,8.59797 -0.96203,8.59797 3.71849,-4.90181 5.03717,-6.51443 12.075674,-7.81314 5.73792,0 10.61377,2.29025 14.51557,8.13441 3.97828,-6.08768 7.64791,-8.38102 14.3804,-8.87965 6.38362,0.26677 7.95671,2.98651 12.17879,6.93494 -0.0261,-2.97045 -0.0103,-6.1401 -0.97715,-8.6675 -1.12141,-2.01056 -2.23187,-5.29823 -6.0214,-7.255369 m 0,0 c -1.38017,-0.2392 -3.73511,-0.0596 -4.9276,0.746669 -0.88135,-0.656919 -1.29346,-2.110399 -2.69097,-2.916669 -3.37541,-2.95673 -6.10177,-3.4218 -11.53661,-3.82293 -6.55651,-8e-4 -9.99334,-0.2707 -16.40553,3.73873 -3.60591,2.52984 -6.536964,3.887659 -9.629144,11.202539"
         id="path866" />
      <path
         style="fill:#333333;stroke:none;stroke-width:0.22211339px;stroke-linecap:butt;stroke-linejoin:miter;stroke-opacity:1"
         d="m 40.140767,106.45761 8.5368,-5.50774 7.15495,5.62015 8.35369,-6.09895 7.30789,5.81576 -8.06648,-2.33419 -7.5951,7.14853 -6.84069,-6.37193 z"
         id="path1000" />
      <path
         style="fill:#241c1c;stroke:none;stroke-width:0.37956023px;stroke-linecap:butt;stroke-linejoin:miter;stroke-opacity:1"
         d="m 55.120077,155.92291 c 11.00694,-2.7441 17.08436,-11.32311 19.18816,-16.24643 1.89491,-3.85233 3.11097,-9.06556 3.11097,-9.06556 l -2.94557,4.58578 c -2.88691,4.98026 -0.725,1.11742 -4.67828,7.37887 -5.55697,6.31053 -7.6296,7.45453 -14.57869,9.81901 -6.07477,-1.38442 -13.37445,-6.44366 -15.79283,-10.18547 -2.41838,-3.74181 -6.19538,-10.20807 -6.19538,-10.20807 0,0 -0.646502,4.3986 3.31976,10.86266 3.96626,6.46406 9.38337,9.75886 18.57186,13.05921"
         id="path1038" />
      <g
         id="g1764"
         transform="matrix(0.8883776,0,0,0.93064088,-50.961133,-0.316468)">
        <path
           style="fill:#ffffff;fill-opacity:1;stroke:none;stroke-width:0.26458332px;stroke-linecap:butt;stroke-linejoin:miter;stroke-opacity:1"
           d="M 35.578226,32.305529 C 36.312953,26.210007 49.488681,20.754886 63.865409,21.351585 78.242137,21.948285 93.99987,28.606814 93.266165,34.702013 92.532461,40.797212 75.356147,46.351231 60.933275,45.75154 46.510402,45.151849 34.8435,38.40105 35.578226,32.305529 Z"
           id="path967"
           transform="matrix(-0.2037092,0.02266453,0.02585404,0.24255121,145.79651,127.5349)" />
        <g
           transform="matrix(-1,0,0,1,240.06922,-0.20861689)"
           id="g990">
          <path
             transform="matrix(0.99992541,-0.01221363,0.01575438,0.99987589,0,0)"
             d="m 107.07027,138.77937 a 1.9889131,2.1078036 0 0 1 -1.97767,2.10777 1.9889131,2.1078036 0 0 1 -2.00003,-2.08395 1.9889131,2.1078036 0 0 1 1.95508,-2.13132 1.9889131,2.1078036 0 0 1 2.02211,2.05987"
             id="path982"
             style="opacity:1;fill:url(#linearGradient880);fill-opacity:1;stroke:none;stroke-width:0.31363589;stroke-linecap:butt;stroke-linejoin:round;stroke-miterlimit:4;stroke-dasharray:none;stroke-dashoffset:0;stroke-opacity:1;paint-order:markers stroke fill" />
          <g
             id="g988">
            <path
               style="opacity:1;fill:#000000;fill-opacity:1;stroke:none;stroke-width:0.51647961;stroke-linecap:butt;stroke-linejoin:round;stroke-miterlimit:4;stroke-dasharray:none;stroke-dashoffset:0;stroke-opacity:1;paint-order:markers stroke fill"
               id="path984"
               d="m 106.3004,138.66144 a 1.3997186,1.574663 0 0 1 -1.39181,1.57464 1.3997186,1.574663 0 0 1 -1.40754,-1.55685 1.3997186,1.574663 0 0 1 1.3759,-1.59223 1.3997186,1.574663 0 0 1 1.42309,1.53885"
               transform="matrix(0.99994946,-0.01005401,0.01913779,0.99981686,0,0)" />
            <path
               style="opacity:1;fill:#e6e6e6;fill-opacity:1;stroke:none;stroke-width:0.89055508;stroke-linecap:butt;stroke-linejoin:round;stroke-miterlimit:4;stroke-dasharray:none;stroke-dashoffset:0;stroke-opacity:1;paint-order:markers stroke fill"
               id="path986"
               d="m 108.29151,136.60039 a 0.20161209,0.21718414 0 0 1 -0.20047,0.21718 0.20161209,0.21718414 0 0 1 -0.20274,-0.21473 0.20161209,0.21718414 0 0 1 0.19818,-0.21961 0.20161209,0.21718414 0 0 1 0.20498,0.21225" />
          </g>
        </g>
      </g>
      <path
         style="fill:none;stroke:#000000;stroke-width:0;stroke-linecap:butt;stroke-linejoin:miter;stroke-miterlimit:4;stroke-dasharray:none;stroke-opacity:1"
         d="m 48.191047,144.99744 6.76405,-0.52916 0.71322,0.18406 0.39112,0.46014 0.20706,0.3451 -1.15035,0.27609 -7.2472,0.11503 z"
         id="path933" />
      <path
         style="fill:#a02c2c;fill-opacity:1;stroke:none;stroke-width:0.2938242px;stroke-linecap:butt;stroke-linejoin:miter;stroke-opacity:1"
         d="m 49.576347,146.08351 c 0.19468,-0.083 3.40483,0.23809 5.33759,0.17933 1.93276,-0.0588 5.20876,-0.42771 5.87481,-0.81538 0.66605,-0.38769 -0.32721,1.32132 -1.08315,1.9599 -0.75594,0.63859 -2.45862,1.804 -4.78665,1.93777 -2.32803,0.13376 -4.77016,-0.77457 -5.27198,-2.18716 -0.50182,-1.41258 -0.0706,-1.07446 -0.0706,-1.07446 z"
         id="path963" />
      <path
         id="rect4609"
         d="m 68.616129,201.49847 h 18.305046 c 0.615981,0 1.111879,0.4959 1.111879,1.11188 v 2.56766 c 0,0.61598 -0.495898,1.11188 -1.111879,1.11188 H 68.616129 c -0.615981,0 -1.111879,-0.4959 -1.111879,-1.11188 v -2.56766 c 0,-0.61598 0.495898,-1.11188 1.111879,-1.11188 z"
         style="fill:#373e48;fill-opacity:1;stroke:none;stroke-width:0.1902782"
         transform="matrix(0.98925158,-0.1462235,0.06527184,0.99786752,0,0)" />
    </g>
  </g>
  <g
     id="g179">
    <path
       id="path1014"
       style="font-style:normal;font-variant:normal;font-weight:normal;font-stretch:normal;font-size:10.58333302px;line-height:1.25;font-family:'Sansita One';-inkscape-font-specification:'Sansita One';text-align:center;letter-spacing:0px;word-spacing:0px;text-anchor:middle;fill:#ffffff;fill-opacity:1;stroke:none;stroke-width:0.46168938"
       d="m 87.731927,53.987435 q 0.326831,0.515483 0.326831,1.627867 0,1.085236 -0.226268,1.872047 -0.213698,0.759663 -0.641095,1.356565 -0.917645,1.275146 -2.526668,1.275146 -1.596451,0 -2.476384,-1.790654 -0.867364,-1.817777 -0.867364,-5.019241 0,-4.530905 1.093632,-7.976549 0.829652,-2.550343 2.312969,-3.635579 0.766799,-0.542631 1.521029,-0.542631 0.754229,0 1.219337,0.217134 0.465108,0.217135 0.817081,0.651147 0.766801,0.949598 0.766801,2.468924 0,1.383687 -0.603384,2.414678 -0.553102,0.92245 -1.005639,0.92245 -0.452537,0 -0.641095,-0.135613 0.05028,-0.976721 0.05028,-1.600745 0,-0.651147 -0.01257,-1.112384 -0.01257,-0.461212 -0.07542,-0.895327 -0.125705,-1.003843 -0.51539,-1.003843 -0.377115,0 -0.7668,0.786811 -0.377114,0.759663 -0.703947,2.061956 -0.741658,2.957284 -0.741658,6.457199 0,1.682138 0.439966,2.658858 0.439967,0.949598 1.382754,0.949598 0.703947,0 1.370182,-1.003869 0.289122,-0.434089 0.502821,-1.003843 z" />
    <path
       id="path1016"
       style="font-style:normal;font-variant:normal;font-weight:normal;font-stretch:normal;font-size:10.58333302px;line-height:1.25;font-family:'Sansita One';-inkscape-font-specification:'Sansita One';text-align:center;letter-spacing:0px;word-spacing:0px;text-anchor:middle;fill:#ffffff;fill-opacity:1;stroke:none;stroke-width:0.46168938"
       d="m 95.423295,56.592022 q 0,1.193778 0.565672,1.546474 -0.138276,1.003843 -0.678806,1.546474 -0.452538,0.461238 -0.955357,0.461238 -0.490249,0 -0.754229,-0.298451 -0.25141,-0.271303 -0.389686,-0.73254 -0.226269,-0.705418 -0.226269,-2.034834 0,-0.786811 0.201129,-2.957284 l 0.175986,-2.061982 q 0.213699,-2.360408 0.213699,-3.228587 0,-1.519351 -0.389685,-1.519351 -0.490249,0 -0.804512,1.546474 -0.125704,0.596876 -0.213697,1.492203 l -0.854794,9.251721 -2.526667,0.542631 1.772438,-19.534407 2.526668,-0.542631 -0.100568,1.085236 q -0.351973,4.17821 -0.653665,5.589019 0.703948,-1.519351 1.998707,-1.519351 1.370183,0 1.621593,1.953441 0.08799,0.624024 0.08799,1.166655 0,0.542606 -0.02515,0.976721 -0.01257,0.406966 -0.07542,1.166629 l -0.163417,1.953441 -0.28912,3.065825 q -0.06286,0.623999 -0.06286,1.085236 z" />
    <path
       id="path1018"
       style="font-style:normal;font-variant:normal;font-weight:normal;font-stretch:normal;font-size:10.58333302px;line-height:1.25;font-family:'Sansita One';-inkscape-font-specification:'Sansita One';text-align:center;letter-spacing:0px;word-spacing:0px;text-anchor:middle;fill:#ffffff;fill-opacity:1;stroke:none;stroke-width:0.46168938"
       d="m 97.54653,58.789643 q -0.289122,-0.705417 -0.427398,-1.817776 -0.125704,-1.112385 -0.125704,-2.930161 0,-1.817803 0.289121,-3.472792 0.289121,-1.65499 0.817081,-2.848768 1.081062,-2.496072 2.86607,-2.496072 0.6411,0 1.1062,0.461238 l 2.14956,-0.461238 -0.93022,10.581137 q -0.0377,0.325574 -0.0377,0.922476 0,0.596876 0.16342,0.97672 0.17598,0.379819 0.42739,0.434089 -0.1257,0.92245 -0.59081,1.465081 -0.45254,0.542631 -0.96793,0.542631 -0.51539,0 -0.86736,-0.434115 -0.3394,-0.406967 -0.43997,-1.112359 -0.20113,0.678269 -0.62852,1.112359 -0.427399,0.434115 -1.005642,0.434115 -0.565672,0 -1.030779,-0.325574 -0.465108,-0.325573 -0.766799,-1.030991 z m 2.65237,-11.015226 q -0.13827,0.48836 -0.263979,1.329416 -0.125704,0.813934 -0.339403,3.038677 -0.201127,2.197621 -0.201127,3.771243 0,1.573596 0.113134,2.034834 0.113135,0.461212 0.314262,0.461212 0.402253,0 0.691373,-0.813934 0.3017,-0.841056 0.41483,-2.306136 l 0.66624,-7.949427 q -0.26398,-0.488361 -0.57825,-0.488361 -0.30169,0 -0.49025,0.217135 -0.17598,0.217134 -0.32683,0.705418 z" />
    <path
       id="path1020"
       style="font-style:normal;font-variant:normal;font-weight:normal;font-stretch:normal;font-size:10.58333302px;line-height:1.25;font-family:'Sansita One';-inkscape-font-specification:'Sansita One';text-align:center;letter-spacing:0px;word-spacing:0px;text-anchor:middle;fill:#ffffff;fill-opacity:1;stroke:none;stroke-width:0.46168938"
       d="m 107.916,58.111374 q -0.38969,2.034834 -1.63416,2.034834 -0.62853,0 -1.03078,-0.949598 -0.32684,-0.786811 -0.32684,-1.682138 0,-2.034834 0.43997,-6.484321 l 0.91765,-10.41835 2.55181,-0.542631 -1.21934,13.728356 q -0.2137,2.007685 -0.2137,2.713103 0,1.546474 0.51539,1.600745 z" />
    <path
       id="path1022"
       style="font-style:normal;font-variant:normal;font-weight:normal;font-stretch:normal;font-size:10.58333302px;line-height:1.25;font-family:'Sansita One';-inkscape-font-specification:'Sansita One';text-align:center;letter-spacing:0px;word-spacing:0px;text-anchor:middle;fill:#ffffff;fill-opacity:1;stroke:none;stroke-width:0.46168938"
       d="m 111.99159,58.111374 q -0.38969,2.034834 -1.63417,2.034834 -0.62852,0 -1.03078,-0.949598 -0.32683,-0.786811 -0.32683,-1.682138 0,-2.034834 0.43997,-6.484321 l 0.91764,-10.41835 2.55181,-0.542631 -1.21934,13.728356 q -0.21369,2.007685 -0.21369,2.713103 0,1.546474 0.51539,1.600745 z" />
    <path
       id="path1024"
       style="font-style:normal;font-variant:normal;font-weight:normal;font-stretch:normal;font-size:10.58333302px;line-height:1.25;font-family:'Sansita One';-inkscape-font-specification:'Sansita One';text-align:center;letter-spacing:0px;word-spacing:0px;text-anchor:middle;fill:#ffffff;fill-opacity:1;stroke:none;stroke-width:0.46168938"
       d="m 118.15388,55.018426 q 0.31426,0.461212 0.31426,1.492203 0,1.003843 -0.23884,1.65499 -0.23884,0.651147 -0.62853,1.085262 -0.80451,0.895327 -1.67187,0.895327 -0.86736,0 -1.38275,-0.406967 -0.50282,-0.406967 -0.84223,-1.166655 -0.66623,-1.437933 -0.66623,-4.069668 0,-4.096791 1.03078,-6.592863 1.1062,-2.685981 3.02949,-2.685981 1.19419,0 1.785,1.085262 0.43997,0.813934 0.43997,2.14335 0,4.775086 -3.82143,4.775086 -0.0503,0.705392 -0.0503,1.302294 0,1.248023 0.25141,1.736383 0.26398,0.461238 0.74166,0.461238 0.47767,0 0.98049,-0.461238 0.51539,-0.48836 0.72909,-1.248023 z m -2.56438,-2.957309 q 0.8925,0 1.40789,-1.193753 0.51539,-1.139507 0.51539,-2.957309 0,-0.623999 -0.11313,-0.949572 -0.10057,-0.352722 -0.31426,-0.352722 -0.2137,0 -0.40226,0.189961 -0.17599,0.162787 -0.36455,0.759663 -0.4651,1.356564 -0.72908,4.503757 z" />
    <path
       id="path1026"
       style="font-style:normal;font-variant:normal;font-weight:normal;font-stretch:normal;font-size:10.58333302px;line-height:1.25;font-family:'Sansita One';-inkscape-font-specification:'Sansita One';text-align:center;letter-spacing:0px;word-spacing:0px;text-anchor:middle;fill:#ffffff;fill-opacity:1;stroke:none;stroke-width:0.46168938"
       d="m 125.05821,60.146208 q -1.52103,0 -1.52103,-2.550343 0.0126,-0.705392 0.11314,-1.89917 l 0.22627,-2.496071 q 0.3394,-3.527037 0.3394,-4.313848 0,-1.573597 -0.4274,-1.573597 -0.71651,0 -1.09363,4.042546 l -0.74166,8.247852 -2.52666,0.542631 1.30733,-14.406625 2.06156,-0.515509 -0.20113,2.658859 q 0.59081,-2.658859 2.40096,-2.658859 0.87993,0 1.24448,0.813934 0.37711,0.786811 0.37711,2.577465 0,1.682138 -0.40225,5.616142 -0.18856,1.763531 -0.18856,2.441801 0,0.651147 0.16342,1.030991 0.17598,0.379819 0.42739,0.434089 -0.1257,0.92245 -0.56567,1.465081 -0.4274,0.542631 -0.99307,0.542631 z" />
    <path
       id="path1028"
       style="font-style:normal;font-variant:normal;font-weight:normal;font-stretch:normal;font-size:10.58333302px;line-height:1.25;font-family:'Sansita One';-inkscape-font-specification:'Sansita One';text-align:center;letter-spacing:0px;word-spacing:0px;text-anchor:middle;fill:#ffffff;fill-opacity:1;stroke:none;stroke-width:0.46168938"
       d="m 128.51451,48.262777 q 0.42739,-1.302294 1.06849,-2.170498 0.65366,-0.868205 1.44561,-0.868205 0.79194,0 1.16905,0.542631 l 2.46381,-0.542631 -0.85479,10.418351 q -0.43996,5.317716 -1.37018,7.406796 -0.89251,1.980589 -2.62723,1.980589 -1.3199,0 -2.07413,-0.895327 -0.75423,-0.895327 -0.75423,-2.387556 0,-1.112359 0.38968,-1.763506 0.38969,-0.624024 0.99307,-0.624024 0.52796,0 0.93022,0.515483 0.23884,0.271328 0.35197,0.651146 -0.28912,0.542631 -0.28912,1.437958 0,1.16663 0.50282,1.16663 0.84222,0 1.3199,-4.2867 0.13828,-1.166655 0.25141,-2.333285 -0.56567,1.492203 -1.84786,1.492203 -0.89251,0 -1.4079,-0.922449 -0.51539,-0.92245 -0.51539,-3.092948 0,-1.356565 0.2137,-2.87589 0.2137,-1.546474 0.6411,-2.848768 z m 1.63416,5.806051 q 0,1.844925 0.43997,1.844925 0.30169,0 0.59081,-0.705418 0.22627,-0.569753 0.31426,-1.410809 l 0.6411,-6.972707 q -0.0629,-0.02717 -0.12571,-0.08152 -0.1257,-0.108439 -0.28912,-0.108439 -0.7668,0 -1.21934,2.713104 -0.35197,2.116227 -0.35197,4.720815 z" />
    <path
       id="path1030"
       style="font-style:normal;font-variant:normal;font-weight:normal;font-stretch:normal;font-size:10.58333302px;line-height:1.25;font-family:'Sansita One';-inkscape-font-specification:'Sansita One';text-align:center;letter-spacing:0px;word-spacing:0px;text-anchor:middle;fill:#ffffff;fill-opacity:1;stroke:none;stroke-width:0.46168938"
       d="m 140.25043,55.018426 q 0.31426,0.461212 0.31426,1.492203 0,1.003843 -0.23884,1.65499 -0.23883,0.651147 -0.62852,1.085262 -0.80451,0.895327 -1.67187,0.895327 -0.86737,0 -1.38276,-0.406967 -0.50282,-0.406967 -0.84222,-1.166655 -0.66624,-1.437933 -0.66624,-4.069668 0,-4.096791 1.03078,-6.592863 1.10621,-2.685981 3.02949,-2.685981 1.1942,0 1.78501,1.085262 0.43997,0.813934 0.43997,2.14335 0,4.775086 -3.82143,4.775086 -0.0503,0.705392 -0.0503,1.302294 0,1.248023 0.25141,1.736383 0.26398,0.461238 0.74166,0.461238 0.47768,0 0.9805,-0.461238 0.51539,-0.48836 0.72909,-1.248023 z m -2.56438,-2.957309 q 0.89251,0 1.4079,-1.193753 0.51539,-1.139507 0.51539,-2.957309 0,-0.623999 -0.11314,-0.949572 -0.10056,-0.352722 -0.31426,-0.352722 -0.2137,0 -0.40225,0.189961 -0.17599,0.162787 -0.36455,0.759663 -0.46511,1.356564 -0.72909,4.503757 z" />
    <path
       id="path1032"
       style="font-style:normal;font-variant:normal;font-weight:normal;font-stretch:normal;font-size:10.58333302px;line-height:1.25;font-family:'Sansita One';-inkscape-font-specification:'Sansita One';text-align:center;letter-spacing:0px;word-spacing:0px;text-anchor:middle;fill:#ffffff;fill-opacity:1;stroke:none;stroke-width:0.46168938"
       d="m 145.59603,50.080553 q 0.17599,-1.003843 0.17599,-1.872047 0,-1.600745 -0.60339,-1.600745 -0.31426,0 -0.57824,0.624025 -0.25141,0.596876 -0.25141,1.356564 0,0.542606 0.20113,0.976721 0.28912,0.596876 1.03078,1.573596 0.74166,0.97672 1.01821,1.790654 0.28912,0.786811 0.28912,1.89917 0,1.085262 -0.25141,2.089105 -0.23884,1.003843 -0.67881,1.709261 -0.94278,1.519351 -2.45124,1.519351 -0.81708,0 -1.44561,-0.922475 -0.62852,-0.895327 -0.62852,-1.953441 0,-1.058114 0.35197,-1.682112 0.36455,-0.624025 0.89251,-0.624025 0.52796,0 0.85479,0.43409 -0.16342,0.895327 -0.16342,1.492228 0,1.790654 0.70395,1.790654 0.30169,0 0.50282,-0.406966 0.20113,-0.406967 0.20113,-1.112385 0,-1.383687 -1.08106,-2.848768 -0.87994,-1.248023 -1.08107,-1.736383 -0.3394,-0.868204 -0.3394,-1.953441 0,-1.085262 0.23884,-2.116227 0.23884,-1.030991 0.67881,-1.763532 0.91764,-1.519351 2.51409,-1.519351 0.81708,0 1.29476,0.705418 0.49025,0.705418 0.49025,1.89917 0,1.193778 -0.3394,1.872047 -0.32683,0.678295 -0.93022,0.678295 -0.41482,0 -0.61595,-0.298451 z" />
    <path
       id="path1034"
       style="font-style:normal;font-variant:normal;font-weight:normal;font-stretch:normal;font-size:10.58333302px;line-height:1.25;font-family:'Sansita One';-inkscape-font-specification:'Sansita One';text-align:center;letter-spacing:0px;word-spacing:0px;text-anchor:middle;fill:#ffffff;fill-opacity:1;stroke:none;stroke-width:0.46168938"
       d="m 150.99387,55.208335 q -0.40225,-0.624024 -0.40225,-1.817776 0,-0.651147 0.15085,-1.166656 0.15084,-0.542605 0.45253,-0.623998 h 2.47639 q 0.41482,0 0.54053,-0.542631 0.20113,0.244052 0.28912,0.759663 0.088,0.515508 0.088,1.058113 0,0.542631 -0.20113,1.085262 -0.18856,0.515483 -0.47768,0.569754 h -2.3004 q -0.26398,0 -0.38968,0.18996 -0.12571,0.162787 -0.22627,0.488361 z" />
    <path
       id="path1036"
       style="font-style:normal;font-variant:normal;font-weight:normal;font-stretch:normal;font-size:10.58333302px;line-height:1.25;font-family:'Sansita One';-inkscape-font-specification:'Sansita One';text-align:center;letter-spacing:0px;word-spacing:0px;text-anchor:middle;fill:#ffffff;fill-opacity:1;stroke:none;stroke-width:0.46168938"
       d="m 162.94408,47.068999 q 0.18856,-0.813934 0.18856,-1.573597 0,-0.759688 -0.0377,-1.166655 -0.0377,-0.434089 -0.12571,-0.759663 -0.18856,-0.705417 -0.56567,-0.705417 -0.46511,0 -0.84222,0.73254 -0.40226,0.759688 -0.40226,1.953441 0,0.759688 0.23884,1.356564 0.25141,0.569754 0.62853,1.112385 0.37711,0.542605 0.80451,1.085236 0.42739,0.542631 0.80451,1.193778 0.86736,1.492203 0.86736,3.499915 0,1.356538 -0.3394,2.523194 -0.32684,1.139507 -0.87994,1.980563 -1.20676,1.844925 -2.80321,1.844925 -1.29476,0 -1.961,-0.895327 -0.66624,-0.922475 -0.66624,-2.306163 0,-2.468923 0.89251,-3.092947 0.25141,-0.189961 0.62852,-0.189961 0.38969,0 0.82966,0.352696 -0.20113,1.112385 -0.20113,2.116228 0,2.170498 0.71651,2.170498 0.46511,0 0.84223,-0.73254 0.38968,-0.732541 0.38968,-1.546474 0,-0.841057 -0.25141,-1.437958 -0.23884,-0.596876 -0.60338,-1.058114 -0.36454,-0.48836 -0.79194,-0.949572 -0.41483,-0.461238 -0.77937,-1.112385 -0.85479,-1.492203 -0.85479,-3.879759 0,-1.546473 0.35197,-2.740226 0.35197,-1.2209 0.91764,-2.034834 1.13135,-1.655015 2.5141,-1.655015 1.39532,0 2.06156,0.895327 0.67881,0.895327 0.67881,2.414678 0,1.329416 -0.47768,2.170498 -0.41483,0.705392 -0.91765,0.705392 -0.50282,0 -0.85479,-0.271302 z" />
    <path
       id="path1039"
       style="font-style:normal;font-variant:normal;font-weight:normal;font-stretch:normal;font-size:10.58333302px;line-height:1.25;font-family:'Sansita One';-inkscape-font-specification:'Sansita One';text-align:center;letter-spacing:0px;word-spacing:0px;text-anchor:middle;fill:#ffffff;fill-opacity:1;stroke:none;stroke-width:0.46168938"
       d="m 170.82381,55.425393 q 0.23884,0.651147 0.23884,1.70926 0,1.465081 -0.50282,2.251866 -0.50282,0.759689 -1.29476,0.759689 -0.45253,0 -1.14391,-0.217135 -1.35761,-0.461237 -1.77244,-0.461237 -0.41482,0 -0.57824,0.05435 -0.16342,0.02717 -0.4274,0.08126 l 1.54617,-17.90654 h 5.41788 q 0,1.65499 -0.37711,2.523194 -0.36455,0.868204 -1.09364,0.868204 -0.72908,0 -1.47074,-0.73254 l -0.38969,4.747938 h 2.23755 q 0,1.437958 -0.32683,2.251891 -0.32684,0.786786 -0.87994,0.786786 -0.54053,0 -0.87993,-0.271303 -0.33941,-0.271302 -0.37712,-0.352696 l -0.45253,5.127782 q 0.30169,0.08152 0.86736,0.08152 0.96793,0 1.6593,-1.302294 z" />
    <path
       id="path1041"
       style="font-style:normal;font-variant:normal;font-weight:normal;font-stretch:normal;font-size:10.58333302px;line-height:1.25;font-family:'Sansita One';-inkscape-font-specification:'Sansita One';text-align:center;letter-spacing:0px;word-spacing:0px;text-anchor:middle;fill:#ffffff;fill-opacity:1;stroke:none;stroke-width:0.46168938"
       d="m 172.3965,52.983592 q 0,-5.127782 1.23191,-8.356394 1.30733,-3.499915 3.58259,-3.499915 1.64673,0 2.47638,1.736384 0.82966,1.70926 0.82966,5.344839 0,5.534749 -1.30733,8.763361 -1.29477,3.174341 -3.46946,3.174341 -1.69701,0 -2.52667,-1.817802 -0.81708,-1.844899 -0.81708,-5.344814 z m 3.30604,-5.616142 q -0.56567,4.883602 -0.56567,8.736212 0,0.92245 0.13827,1.519352 0.15085,0.596876 0.52796,0.596876 0.38969,0 0.62853,-0.379845 0.23884,-0.406966 0.42739,-1.302293 0.3017,-1.465081 0.57825,-4.558029 0.28912,-3.12007 0.31426,-4.395241 0.0251,-1.302294 0.0251,-2.279014 0,-0.976721 -0.13827,-1.60072 -0.13828,-0.624024 -0.51539,-0.624024 -0.36455,0 -0.61596,0.48836 -0.4651,0.92245 -0.80451,3.798366 z" />
  </g>
</svg>
